<?xml version="1.0" encoding="UTF-8" standalone="no"?>
<!DOCTYPE svg PUBLIC "-//W3C//DTD SVG 1.1//EN"
 "http://www.w3.org/Graphics/SVG/1.1/DTD/svg11.dtd">
<!-- Generated by graphviz version 2.40.1 (20161225.0304)
 -->
<!-- Title: timemory/mpi.hpp Pages: 1 -->
<svg width="124pt" height="88pt"
 viewBox="0.00 0.00 123.50 88.00" xmlns="http://www.w3.org/2000/svg" xmlns:xlink="http://www.w3.org/1999/xlink">
<g id="graph0" class="graph" transform="scale(1 1) rotate(0) translate(4 84)">
<title>timemory/mpi.hpp</title>
<polygon fill="#ffffff" stroke="transparent" points="-4,4 -4,-84 119.5,-84 119.5,4 -4,4"/>
<!-- Node0 -->
<g id="node1" class="node">
<title>Node0</title>
<polygon fill="#bfbfbf" stroke="#000000" points="10.5,-58.5 10.5,-79.5 98.5,-79.5 98.5,-58.5 10.5,-58.5"/>
<text text-anchor="middle" x="54.5" y="-65.9" font-family="Helvetica,sans-Serif" font-size="12.00" fill="#000000">timemory/mpi.hpp</text>
</g>
<!-- Node1 -->
<g id="node2" class="node">
<title>Node1</title>
<polygon fill="#ffffff" stroke="#bfbfbf" points="0,-.5 0,-21.5 43,-21.5 43,-.5 0,-.5"/>
<text text-anchor="middle" x="21.5" y="-7.9" font-family="Helvetica,sans-Serif" font-size="12.00" fill="#000000">cstdint</text>
</g>
<!-- Node0&#45;&gt;Node1 -->
<g id="edge1" class="edge">
<title>Node0&#45;&gt;Node1</title>
<path fill="none" stroke="#191970" d="M48.4473,-58.3619C44.0281,-50.5949 37.9104,-39.8426 32.6209,-30.5458"/>
<polygon fill="#191970" stroke="#191970" points="35.5017,-28.5315 27.5143,-21.5707 29.4176,-31.9932 35.5017,-28.5315"/>
</g>
<!-- Node2 -->
<g id="node3" class="node">
<title>Node2</title>
<polygon fill="#ffffff" stroke="#bfbfbf" points="61.5,-.5 61.5,-21.5 115.5,-21.5 115.5,-.5 61.5,-.5"/>
<text text-anchor="middle" x="88.5" y="-7.9" font-family="Helvetica,sans-Serif" font-size="12.00" fill="#000000">algorithm</text>
</g>
<!-- Node0&#45;&gt;Node2 -->
<g id="edge2" class="edge">
<title>Node0&#45;&gt;Node2</title>
<path fill="none" stroke="#191970" d="M60.7361,-58.3619C65.3371,-50.5131 71.7252,-39.6159 77.2139,-30.2527"/>
<polygon fill="#191970" stroke="#191970" points="80.2656,-31.9677 82.3034,-21.5707 74.2267,-28.4276 80.2656,-31.9677"/>
</g>
</g>
</svg>
