<?xml version="1.0" encoding="UTF-8" standalone="no"?>
<!DOCTYPE svg PUBLIC "-//W3C//DTD SVG 1.1//EN"
 "http://www.w3.org/Graphics/SVG/1.1/DTD/svg11.dtd">
<!-- Generated by graphviz version 2.40.1 (20161225.0304)
 -->
<!-- Title: tim::timer Pages: 1 -->
<svg width="1032pt" height="1691pt"
 viewBox="0.00 0.00 1031.50 1691.00" xmlns="http://www.w3.org/2000/svg" xmlns:xlink="http://www.w3.org/1999/xlink">
<g id="graph0" class="graph" transform="scale(1 1) rotate(0) translate(4 1687)">
<title>tim::timer</title>
<polygon fill="#ffffff" stroke="transparent" points="-4,4 -4,-1687 1027.5,-1687 1027.5,4 -4,4"/>
<!-- Node2 -->
<g id="node1" class="node">
<title>Node2</title>
<polygon fill="#bfbfbf" stroke="#000000" points="362,-.5 362,-258.5 481,-258.5 481,-.5 362,-.5"/>
<text text-anchor="middle" x="421.5" y="-244.9" font-family="Helvetica,sans-Serif" font-size="12.00" fill="#000000">tim::timer</text>
<polyline fill="none" stroke="#000000" points="362,-237.5 481,-237.5 "/>
<text text-anchor="middle" x="421.5" y="-223.9" font-family="Helvetica,sans-Serif" font-size="12.00" fill="#000000"> </text>
<polyline fill="none" stroke="#000000" points="362,-216.5 481,-216.5 "/>
<text text-anchor="start" x="370" y="-202.9" font-family="Helvetica,sans-Serif" font-size="12.00" fill="#000000">+ timer()</text>
<text text-anchor="start" x="370" y="-189.9" font-family="Helvetica,sans-Serif" font-size="12.00" fill="#000000">+ timer()</text>
<text text-anchor="start" x="370" y="-176.9" font-family="Helvetica,sans-Serif" font-size="12.00" fill="#000000">+ ~timer()</text>
<text text-anchor="start" x="370" y="-163.9" font-family="Helvetica,sans-Serif" font-size="12.00" fill="#000000">+ stop_and_return()</text>
<text text-anchor="start" x="370" y="-150.9" font-family="Helvetica,sans-Serif" font-size="12.00" fill="#000000">+ begin()</text>
<text text-anchor="start" x="370" y="-137.9" font-family="Helvetica,sans-Serif" font-size="12.00" fill="#000000">+ close()</text>
<text text-anchor="start" x="370" y="-124.9" font-family="Helvetica,sans-Serif" font-size="12.00" fill="#000000">+ as_string()</text>
<text text-anchor="start" x="370" y="-111.9" font-family="Helvetica,sans-Serif" font-size="12.00" fill="#000000">+ print()</text>
<text text-anchor="start" x="370" y="-98.9" font-family="Helvetica,sans-Serif" font-size="12.00" fill="#000000">+ operator+=()</text>
<text text-anchor="start" x="370" y="-85.9" font-family="Helvetica,sans-Serif" font-size="12.00" fill="#000000">+ operator/=()</text>
<text text-anchor="start" x="370" y="-72.9" font-family="Helvetica,sans-Serif" font-size="12.00" fill="#000000">and 7 more...</text>
<text text-anchor="start" x="370" y="-59.9" font-family="Helvetica,sans-Serif" font-size="12.00" fill="#000000">+ propose_output_width()</text>
<text text-anchor="start" x="370" y="-46.9" font-family="Helvetica,sans-Serif" font-size="12.00" fill="#000000">+ get_output_width()</text>
<text text-anchor="start" x="370" y="-33.9" font-family="Helvetica,sans-Serif" font-size="12.00" fill="#000000">+ set_output_width()</text>
<text text-anchor="start" x="370" y="-20.9" font-family="Helvetica,sans-Serif" font-size="12.00" fill="#000000">+ set_default_format()</text>
<text text-anchor="start" x="370" y="-7.9" font-family="Helvetica,sans-Serif" font-size="12.00" fill="#000000"># compose()</text>
</g>
<!-- Node3 -->
<g id="node2" class="node">
<title>Node3</title>
<g id="a_node2"><a xlink:href="../../d6/d0e/classtim_1_1internal_1_1base__timer.html" target="_top" xlink:title="{tim::internal::base\l_timer\n||+ base_timer()\l+ ~base_timer()\l+ base_timer()\l+ operator=()\l+ start()\l+ stop()\l+ is_valid()\l+ real_elapsed()\l+ system_elapsed()\l+ user_elapsed()\land 15 more...\l# parse_format()\l# compose()\l# m_timer()\l# get_accum()\l# get_accum()\l}">
<polygon fill="#ffffff" stroke="#000000" points="516,-296.5 516,-567.5 611,-567.5 611,-296.5 516,-296.5"/>
<text text-anchor="start" x="524" y="-553.9" font-family="Helvetica,sans-Serif" font-size="12.00" fill="#000000">tim::internal::base</text>
<text text-anchor="middle" x="563.5" y="-540.9" font-family="Helvetica,sans-Serif" font-size="12.00" fill="#000000">_timer</text>
<polyline fill="none" stroke="#000000" points="516,-533.5 611,-533.5 "/>
<text text-anchor="middle" x="563.5" y="-519.9" font-family="Helvetica,sans-Serif" font-size="12.00" fill="#000000"> </text>
<polyline fill="none" stroke="#000000" points="516,-512.5 611,-512.5 "/>
<text text-anchor="start" x="524" y="-498.9" font-family="Helvetica,sans-Serif" font-size="12.00" fill="#000000">+ base_timer()</text>
<text text-anchor="start" x="524" y="-485.9" font-family="Helvetica,sans-Serif" font-size="12.00" fill="#000000">+ ~base_timer()</text>
<text text-anchor="start" x="524" y="-472.9" font-family="Helvetica,sans-Serif" font-size="12.00" fill="#000000">+ base_timer()</text>
<text text-anchor="start" x="524" y="-459.9" font-family="Helvetica,sans-Serif" font-size="12.00" fill="#000000">+ operator=()</text>
<text text-anchor="start" x="524" y="-446.9" font-family="Helvetica,sans-Serif" font-size="12.00" fill="#000000">+ start()</text>
<text text-anchor="start" x="524" y="-433.9" font-family="Helvetica,sans-Serif" font-size="12.00" fill="#000000">+ stop()</text>
<text text-anchor="start" x="524" y="-420.9" font-family="Helvetica,sans-Serif" font-size="12.00" fill="#000000">+ is_valid()</text>
<text text-anchor="start" x="524" y="-407.9" font-family="Helvetica,sans-Serif" font-size="12.00" fill="#000000">+ real_elapsed()</text>
<text text-anchor="start" x="524" y="-394.9" font-family="Helvetica,sans-Serif" font-size="12.00" fill="#000000">+ system_elapsed()</text>
<text text-anchor="start" x="524" y="-381.9" font-family="Helvetica,sans-Serif" font-size="12.00" fill="#000000">+ user_elapsed()</text>
<text text-anchor="start" x="524" y="-368.9" font-family="Helvetica,sans-Serif" font-size="12.00" fill="#000000">and 15 more...</text>
<text text-anchor="start" x="524" y="-355.9" font-family="Helvetica,sans-Serif" font-size="12.00" fill="#000000"># parse_format()</text>
<text text-anchor="start" x="524" y="-342.9" font-family="Helvetica,sans-Serif" font-size="12.00" fill="#000000"># compose()</text>
<text text-anchor="start" x="524" y="-329.9" font-family="Helvetica,sans-Serif" font-size="12.00" fill="#000000"># m_timer()</text>
<text text-anchor="start" x="524" y="-316.9" font-family="Helvetica,sans-Serif" font-size="12.00" fill="#000000"># get_accum()</text>
<text text-anchor="start" x="524" y="-303.9" font-family="Helvetica,sans-Serif" font-size="12.00" fill="#000000"># get_accum()</text>
</a>
</g>
</g>
<!-- Node3&#45;&gt;Node2 -->
<g id="edge1" class="edge">
<title>Node3&#45;&gt;Node2</title>
<path fill="none" stroke="#191970" d="M511.651,-317.8215C508.2316,-310.4296 504.8262,-303.1055 501.5,-296 494.9736,-282.0585 488.0822,-267.4915 481.1919,-253.0237"/>
<polygon fill="none" stroke="#191970" points="508.6158,-319.5973 515.9848,-327.2096 514.9712,-316.6634 508.6158,-319.5973"/>
</g>
<!-- Node4 -->
<g id="node3" class="node">
<title>Node4</title>
<g id="a_node3"><a xlink:href="../../da/d4a/classtim_1_1internal_1_1base__timer__data.html" target="_top" xlink:title="{tim::internal::base\l_timer_data\n||+ base_timer_data()\l+ start()\l+ stop()\l+ start()\l+ stop()\l+ running()\l+ serialize()\l+ rss_init()\l+ rss_record()\l+ rss()\l+ rss()\l+ operator=()\l}">
<polygon fill="#ffffff" stroke="#000000" points="138,-656.5 138,-875.5 235,-875.5 235,-656.5 138,-656.5"/>
<text text-anchor="start" x="146" y="-861.9" font-family="Helvetica,sans-Serif" font-size="12.00" fill="#000000">tim::internal::base</text>
<text text-anchor="middle" x="186.5" y="-848.9" font-family="Helvetica,sans-Serif" font-size="12.00" fill="#000000">_timer_data</text>
<polyline fill="none" stroke="#000000" points="138,-841.5 235,-841.5 "/>
<text text-anchor="middle" x="186.5" y="-827.9" font-family="Helvetica,sans-Serif" font-size="12.00" fill="#000000"> </text>
<polyline fill="none" stroke="#000000" points="138,-820.5 235,-820.5 "/>
<text text-anchor="start" x="146" y="-806.9" font-family="Helvetica,sans-Serif" font-size="12.00" fill="#000000">+ base_timer_data()</text>
<text text-anchor="start" x="146" y="-793.9" font-family="Helvetica,sans-Serif" font-size="12.00" fill="#000000">+ start()</text>
<text text-anchor="start" x="146" y="-780.9" font-family="Helvetica,sans-Serif" font-size="12.00" fill="#000000">+ stop()</text>
<text text-anchor="start" x="146" y="-767.9" font-family="Helvetica,sans-Serif" font-size="12.00" fill="#000000">+ start()</text>
<text text-anchor="start" x="146" y="-754.9" font-family="Helvetica,sans-Serif" font-size="12.00" fill="#000000">+ stop()</text>
<text text-anchor="start" x="146" y="-741.9" font-family="Helvetica,sans-Serif" font-size="12.00" fill="#000000">+ running()</text>
<text text-anchor="start" x="146" y="-728.9" font-family="Helvetica,sans-Serif" font-size="12.00" fill="#000000">+ serialize()</text>
<text text-anchor="start" x="146" y="-715.9" font-family="Helvetica,sans-Serif" font-size="12.00" fill="#000000">+ rss_init()</text>
<text text-anchor="start" x="146" y="-702.9" font-family="Helvetica,sans-Serif" font-size="12.00" fill="#000000">+ rss_record()</text>
<text text-anchor="start" x="146" y="-689.9" font-family="Helvetica,sans-Serif" font-size="12.00" fill="#000000">+ rss()</text>
<text text-anchor="start" x="146" y="-676.9" font-family="Helvetica,sans-Serif" font-size="12.00" fill="#000000">+ rss()</text>
<text text-anchor="start" x="146" y="-663.9" font-family="Helvetica,sans-Serif" font-size="12.00" fill="#000000">+ operator=()</text>
</a>
</g>
</g>
<!-- Node4&#45;&gt;Node3 -->
<g id="edge2" class="edge">
<title>Node4&#45;&gt;Node3</title>
<path fill="none" stroke="#404040" d="M178.7995,-656.2856C182.5769,-629.891 191.946,-604.1213 211.5,-586 258.8587,-542.1111 448.3016,-604.5926 501.5,-568 503.3006,-566.7615 505.0497,-565.4573 506.749,-564.093"/>
<polygon fill="none" stroke="#404040" points="507.0995,-563.7717 508.8192,-556.7686 515.945,-555.6626 514.2253,-562.6656 507.0995,-563.7717"/>
<text text-anchor="middle" x="230.5" y="-589.4" font-family="Helvetica,sans-Serif" font-size="12.00" fill="#000000"> #m_data</text>
</g>
<!-- Node5 -->
<g id="node4" class="node">
<title>Node5</title>
<polygon fill="#ffffff" stroke="#bfbfbf" points="0,-1062 0,-1138 95,-1138 95,-1062 0,-1062"/>
<text text-anchor="start" x="8" y="-1124.4" font-family="Helvetica,sans-Serif" font-size="12.00" fill="#000000">tuple&lt; time_point_t,</text>
<text text-anchor="middle" x="47.5" y="-1111.4" font-family="Helvetica,sans-Serif" font-size="12.00" fill="#000000"> time_point_t &gt;</text>
<polyline fill="none" stroke="#bfbfbf" points="0,-1104 95,-1104 "/>
<text text-anchor="middle" x="47.5" y="-1090.4" font-family="Helvetica,sans-Serif" font-size="12.00" fill="#000000"> </text>
<polyline fill="none" stroke="#bfbfbf" points="0,-1083 95,-1083 "/>
<text text-anchor="middle" x="47.5" y="-1069.4" font-family="Helvetica,sans-Serif" font-size="12.00" fill="#000000"> </text>
</g>
<!-- Node5&#45;&gt;Node4 -->
<g id="edge3" class="edge">
<title>Node5&#45;&gt;Node4</title>
<path fill="none" stroke="#404040" d="M63.4451,-1061.686C81.1007,-1019.2615 110.4564,-948.7235 136.0677,-887.1825"/>
<polygon fill="none" stroke="#404040" points="136.192,-886.8839 134.8044,-879.8075 140.8027,-875.805 142.1903,-882.8814 136.192,-886.8839"/>
<text text-anchor="middle" x="136.5" y="-942.9" font-family="Helvetica,sans-Serif" font-size="12.00" fill="#000000"> #m_data</text>
</g>
<!-- Node6 -->
<g id="node5" class="node">
<title>Node6</title>
<polygon fill="#ffffff" stroke="#bfbfbf" points="128.5,-1068.5 128.5,-1131.5 162.5,-1131.5 162.5,-1068.5 128.5,-1068.5"/>
<text text-anchor="middle" x="145.5" y="-1117.9" font-family="Helvetica,sans-Serif" font-size="12.00" fill="#000000">bool</text>
<polyline fill="none" stroke="#bfbfbf" points="128.5,-1110.5 162.5,-1110.5 "/>
<text text-anchor="middle" x="145.5" y="-1096.9" font-family="Helvetica,sans-Serif" font-size="12.00" fill="#000000"> </text>
<polyline fill="none" stroke="#bfbfbf" points="128.5,-1089.5 162.5,-1089.5 "/>
<text text-anchor="middle" x="145.5" y="-1075.9" font-family="Helvetica,sans-Serif" font-size="12.00" fill="#000000"> </text>
</g>
<!-- Node6&#45;&gt;Node2 -->
<g id="edge29" class="edge">
<title>Node6&#45;&gt;Node2</title>
<path fill="none" stroke="#404040" d="M135.8192,-1068.4156C112.3424,-986.5921 58.1034,-761.8529 111.5,-586 158.296,-431.8852 277.3299,-283.3069 353.5364,-199.4628"/>
<polygon fill="none" stroke="#404040" points="353.5863,-199.4083 354.6884,-192.2819 361.6905,-190.5583 360.5884,-197.6847 353.5863,-199.4083"/>
<text text-anchor="middle" x="155" y="-589.4" font-family="Helvetica,sans-Serif" font-size="12.00" fill="#000000"> #m_use_static_width</text>
</g>
<!-- Node6&#45;&gt;Node4 -->
<g id="edge4" class="edge">
<title>Node6&#45;&gt;Node4</title>
<path fill="none" stroke="#404040" d="M149.3941,-1068.277C154.4655,-1026.964 163.622,-952.3716 171.5699,-887.6255"/>
<polygon fill="none" stroke="#404040" points="171.5765,-887.5714 168.3374,-881.1288 173.0386,-875.6608 176.2778,-882.1035 171.5765,-887.5714"/>
<text text-anchor="middle" x="192" y="-942.9" font-family="Helvetica,sans-Serif" font-size="12.00" fill="#000000"> #m_running</text>
</g>
<!-- Node7 -->
<g id="node6" class="node">
<title>Node7</title>
<g id="a_node6"><a xlink:href="../../d9/d4f/classtim_1_1internal_1_1base__rss__usage.html" target="_top" xlink:title="{tim::internal::base\l_rss_usage\n||+ init()\l+ record()\l+ total()\l+ self()\l+ total()\l+ self()\l+ total_min()\l+ self_min()\l+ total_min()\l+ self_min()\l+ max()\l+ operator+=()\l+ operator&#45;=()\l+ operator=()\l}">
<polygon fill="#ffffff" stroke="#000000" points="427.5,-977.5 427.5,-1222.5 515.5,-1222.5 515.5,-977.5 427.5,-977.5"/>
<text text-anchor="start" x="435.5" y="-1208.9" font-family="Helvetica,sans-Serif" font-size="12.00" fill="#000000">tim::internal::base</text>
<text text-anchor="middle" x="471.5" y="-1195.9" font-family="Helvetica,sans-Serif" font-size="12.00" fill="#000000">_rss_usage</text>
<polyline fill="none" stroke="#000000" points="427.5,-1188.5 515.5,-1188.5 "/>
<text text-anchor="middle" x="471.5" y="-1174.9" font-family="Helvetica,sans-Serif" font-size="12.00" fill="#000000"> </text>
<polyline fill="none" stroke="#000000" points="427.5,-1167.5 515.5,-1167.5 "/>
<text text-anchor="start" x="435.5" y="-1153.9" font-family="Helvetica,sans-Serif" font-size="12.00" fill="#000000">+ init()</text>
<text text-anchor="start" x="435.5" y="-1140.9" font-family="Helvetica,sans-Serif" font-size="12.00" fill="#000000">+ record()</text>
<text text-anchor="start" x="435.5" y="-1127.9" font-family="Helvetica,sans-Serif" font-size="12.00" fill="#000000">+ total()</text>
<text text-anchor="start" x="435.5" y="-1114.9" font-family="Helvetica,sans-Serif" font-size="12.00" fill="#000000">+ self()</text>
<text text-anchor="start" x="435.5" y="-1101.9" font-family="Helvetica,sans-Serif" font-size="12.00" fill="#000000">+ total()</text>
<text text-anchor="start" x="435.5" y="-1088.9" font-family="Helvetica,sans-Serif" font-size="12.00" fill="#000000">+ self()</text>
<text text-anchor="start" x="435.5" y="-1075.9" font-family="Helvetica,sans-Serif" font-size="12.00" fill="#000000">+ total_min()</text>
<text text-anchor="start" x="435.5" y="-1062.9" font-family="Helvetica,sans-Serif" font-size="12.00" fill="#000000">+ self_min()</text>
<text text-anchor="start" x="435.5" y="-1049.9" font-family="Helvetica,sans-Serif" font-size="12.00" fill="#000000">+ total_min()</text>
<text text-anchor="start" x="435.5" y="-1036.9" font-family="Helvetica,sans-Serif" font-size="12.00" fill="#000000">+ self_min()</text>
<text text-anchor="start" x="435.5" y="-1023.9" font-family="Helvetica,sans-Serif" font-size="12.00" fill="#000000">+ max()</text>
<text text-anchor="start" x="435.5" y="-1010.9" font-family="Helvetica,sans-Serif" font-size="12.00" fill="#000000">+ operator+=()</text>
<text text-anchor="start" x="435.5" y="-997.9" font-family="Helvetica,sans-Serif" font-size="12.00" fill="#000000">+ operator&#45;=()</text>
<text text-anchor="start" x="435.5" y="-984.9" font-family="Helvetica,sans-Serif" font-size="12.00" fill="#000000">+ operator=()</text>
</a>
</g>
</g>
<!-- Node7&#45;&gt;Node4 -->
<g id="edge5" class="edge">
<title>Node7&#45;&gt;Node4</title>
<path fill="none" stroke="#404040" d="M427.4549,-988.6119C415.5183,-960.805 404.2986,-937.5274 398.5,-933 363.595,-905.747 338.2609,-938.1345 300.5,-915 278.3222,-901.4126 258.8881,-881.8043 242.6439,-861.2532"/>
<polygon fill="none" stroke="#404040" points="242.4392,-860.9844 235.6215,-858.6352 235.1678,-851.4383 241.9855,-853.7876 242.4392,-860.9844"/>
<text text-anchor="middle" x="431" y="-942.9" font-family="Helvetica,sans-Serif" font-size="12.00" fill="#000000"> #m_rss</text>
</g>
<!-- Node18 -->
<g id="node17" class="node">
<title>Node18</title>
<g id="a_node17"><a xlink:href="../../dc/d37/classtim_1_1internal_1_1base__timer__delta.html" target="_top" xlink:title="{tim::internal::base\l_timer_delta\n||+ base_timer_delta()\l+ reset()\l+ operator=()\l+ operator+=()\l+ operator+=()\l+ operator+=()\l+ operator&#45;=()\l+ operator/=()\l+ get_sum()\l+ get_sqr()\l+ size()\l+ rss()\l+ rss()\l# compute()\l# compute_sum()\l# compute_sqr()\l# divide_sum()\l# divide_sqr()\l}">
<polygon fill="#ffffff" stroke="#000000" points="310,-617.5 310,-914.5 409,-914.5 409,-617.5 310,-617.5"/>
<text text-anchor="start" x="318" y="-900.9" font-family="Helvetica,sans-Serif" font-size="12.00" fill="#000000">tim::internal::base</text>
<text text-anchor="middle" x="359.5" y="-887.9" font-family="Helvetica,sans-Serif" font-size="12.00" fill="#000000">_timer_delta</text>
<polyline fill="none" stroke="#000000" points="310,-880.5 409,-880.5 "/>
<text text-anchor="middle" x="359.5" y="-866.9" font-family="Helvetica,sans-Serif" font-size="12.00" fill="#000000"> </text>
<polyline fill="none" stroke="#000000" points="310,-859.5 409,-859.5 "/>
<text text-anchor="start" x="318" y="-845.9" font-family="Helvetica,sans-Serif" font-size="12.00" fill="#000000">+ base_timer_delta()</text>
<text text-anchor="start" x="318" y="-832.9" font-family="Helvetica,sans-Serif" font-size="12.00" fill="#000000">+ reset()</text>
<text text-anchor="start" x="318" y="-819.9" font-family="Helvetica,sans-Serif" font-size="12.00" fill="#000000">+ operator=()</text>
<text text-anchor="start" x="318" y="-806.9" font-family="Helvetica,sans-Serif" font-size="12.00" fill="#000000">+ operator+=()</text>
<text text-anchor="start" x="318" y="-793.9" font-family="Helvetica,sans-Serif" font-size="12.00" fill="#000000">+ operator+=()</text>
<text text-anchor="start" x="318" y="-780.9" font-family="Helvetica,sans-Serif" font-size="12.00" fill="#000000">+ operator+=()</text>
<text text-anchor="start" x="318" y="-767.9" font-family="Helvetica,sans-Serif" font-size="12.00" fill="#000000">+ operator&#45;=()</text>
<text text-anchor="start" x="318" y="-754.9" font-family="Helvetica,sans-Serif" font-size="12.00" fill="#000000">+ operator/=()</text>
<text text-anchor="start" x="318" y="-741.9" font-family="Helvetica,sans-Serif" font-size="12.00" fill="#000000">+ get_sum()</text>
<text text-anchor="start" x="318" y="-728.9" font-family="Helvetica,sans-Serif" font-size="12.00" fill="#000000">+ get_sqr()</text>
<text text-anchor="start" x="318" y="-715.9" font-family="Helvetica,sans-Serif" font-size="12.00" fill="#000000">+ size()</text>
<text text-anchor="start" x="318" y="-702.9" font-family="Helvetica,sans-Serif" font-size="12.00" fill="#000000">+ rss()</text>
<text text-anchor="start" x="318" y="-689.9" font-family="Helvetica,sans-Serif" font-size="12.00" fill="#000000">+ rss()</text>
<text text-anchor="start" x="318" y="-676.9" font-family="Helvetica,sans-Serif" font-size="12.00" fill="#000000"># compute()</text>
<text text-anchor="start" x="318" y="-663.9" font-family="Helvetica,sans-Serif" font-size="12.00" fill="#000000"># compute_sum()</text>
<text text-anchor="start" x="318" y="-650.9" font-family="Helvetica,sans-Serif" font-size="12.00" fill="#000000"># compute_sqr()</text>
<text text-anchor="start" x="318" y="-637.9" font-family="Helvetica,sans-Serif" font-size="12.00" fill="#000000"># divide_sum()</text>
<text text-anchor="start" x="318" y="-624.9" font-family="Helvetica,sans-Serif" font-size="12.00" fill="#000000"># divide_sqr()</text>
</a>
</g>
</g>
<!-- Node7&#45;&gt;Node18 -->
<g id="edge18" class="edge">
<title>Node7&#45;&gt;Node18</title>
<path fill="none" stroke="#404040" d="M473.221,-977.3018C469.4679,-961.5016 463.5321,-946.2415 454.5,-933 444.6432,-918.5495 431.2857,-927.9256 419.5,-915 418.584,-913.9954 417.6812,-912.9751 416.7913,-911.9399"/>
<polygon fill="none" stroke="#404040" points="416.5716,-911.6621 409.7122,-909.4373 409.1277,-902.2499 415.987,-904.4747 416.5716,-911.6621"/>
<text text-anchor="middle" x="484" y="-942.9" font-family="Helvetica,sans-Serif" font-size="12.00" fill="#000000"> #m_rss</text>
</g>
<!-- Node8 -->
<g id="node7" class="node">
<title>Node8</title>
<g id="a_node7"><a xlink:href="../../de/df3/structtim_1_1rss_1_1usage.html" target="_top" xlink:title="{tim::rss::usage\n||+ usage()\l+ usage()\l+ usage()\l+ operator=()\l+ record()\l+ record()\l+ operator()()\l+ operator+=()\l+ operator&#45;=()\l+ current()\l+ peak()\l+ serialize()\l+ max()\l+ min()\l}">
<polygon fill="#ffffff" stroke="#000000" points="434,-1324.5 434,-1556.5 509,-1556.5 509,-1324.5 434,-1324.5"/>
<text text-anchor="middle" x="471.5" y="-1542.9" font-family="Helvetica,sans-Serif" font-size="12.00" fill="#000000">tim::rss::usage</text>
<polyline fill="none" stroke="#000000" points="434,-1535.5 509,-1535.5 "/>
<text text-anchor="middle" x="471.5" y="-1521.9" font-family="Helvetica,sans-Serif" font-size="12.00" fill="#000000"> </text>
<polyline fill="none" stroke="#000000" points="434,-1514.5 509,-1514.5 "/>
<text text-anchor="start" x="442" y="-1500.9" font-family="Helvetica,sans-Serif" font-size="12.00" fill="#000000">+ usage()</text>
<text text-anchor="start" x="442" y="-1487.9" font-family="Helvetica,sans-Serif" font-size="12.00" fill="#000000">+ usage()</text>
<text text-anchor="start" x="442" y="-1474.9" font-family="Helvetica,sans-Serif" font-size="12.00" fill="#000000">+ usage()</text>
<text text-anchor="start" x="442" y="-1461.9" font-family="Helvetica,sans-Serif" font-size="12.00" fill="#000000">+ operator=()</text>
<text text-anchor="start" x="442" y="-1448.9" font-family="Helvetica,sans-Serif" font-size="12.00" fill="#000000">+ record()</text>
<text text-anchor="start" x="442" y="-1435.9" font-family="Helvetica,sans-Serif" font-size="12.00" fill="#000000">+ record()</text>
<text text-anchor="start" x="442" y="-1422.9" font-family="Helvetica,sans-Serif" font-size="12.00" fill="#000000">+ operator()()</text>
<text text-anchor="start" x="442" y="-1409.9" font-family="Helvetica,sans-Serif" font-size="12.00" fill="#000000">+ operator+=()</text>
<text text-anchor="start" x="442" y="-1396.9" font-family="Helvetica,sans-Serif" font-size="12.00" fill="#000000">+ operator&#45;=()</text>
<text text-anchor="start" x="442" y="-1383.9" font-family="Helvetica,sans-Serif" font-size="12.00" fill="#000000">+ current()</text>
<text text-anchor="start" x="442" y="-1370.9" font-family="Helvetica,sans-Serif" font-size="12.00" fill="#000000">+ peak()</text>
<text text-anchor="start" x="442" y="-1357.9" font-family="Helvetica,sans-Serif" font-size="12.00" fill="#000000">+ serialize()</text>
<text text-anchor="start" x="442" y="-1344.9" font-family="Helvetica,sans-Serif" font-size="12.00" fill="#000000">+ max()</text>
<text text-anchor="start" x="442" y="-1331.9" font-family="Helvetica,sans-Serif" font-size="12.00" fill="#000000">+ min()</text>
</a>
</g>
</g>
<!-- Node8&#45;&gt;Node7 -->
<g id="edge6" class="edge">
<title>Node8&#45;&gt;Node7</title>
<path fill="none" stroke="#404040" d="M471.5,-1324.2716C471.5,-1295.4859 471.5,-1264.4017 471.5,-1234.8119"/>
<polygon fill="none" stroke="#404040" points="471.5001,-1234.6765 467.5,-1228.6765 471.5,-1222.6765 475.5,-1228.6764 471.5001,-1234.6765"/>
<text text-anchor="middle" x="506" y="-1296.4" font-family="Helvetica,sans-Serif" font-size="12.00" fill="#000000"> #m_rss_tmp</text>
<text text-anchor="middle" x="506" y="-1283.4" font-family="Helvetica,sans-Serif" font-size="12.00" fill="#000000">#m_rss_self</text>
<text text-anchor="middle" x="506" y="-1270.4" font-family="Helvetica,sans-Serif" font-size="12.00" fill="#000000">#m_rss_tot</text>
<text text-anchor="middle" x="506" y="-1257.4" font-family="Helvetica,sans-Serif" font-size="12.00" fill="#000000">#m_rss_self_min</text>
<text text-anchor="middle" x="506" y="-1244.4" font-family="Helvetica,sans-Serif" font-size="12.00" fill="#000000">#m_rss_tot_min</text>
</g>
<!-- Node9 -->
<g id="node8" class="node">
<title>Node9</title>
<polygon fill="#ffffff" stroke="#bfbfbf" points="449.5,-1619.5 449.5,-1682.5 493.5,-1682.5 493.5,-1619.5 449.5,-1619.5"/>
<text text-anchor="middle" x="471.5" y="-1668.9" font-family="Helvetica,sans-Serif" font-size="12.00" fill="#000000">int64_t</text>
<polyline fill="none" stroke="#bfbfbf" points="449.5,-1661.5 493.5,-1661.5 "/>
<text text-anchor="middle" x="471.5" y="-1647.9" font-family="Helvetica,sans-Serif" font-size="12.00" fill="#000000"> </text>
<polyline fill="none" stroke="#bfbfbf" points="449.5,-1640.5 493.5,-1640.5 "/>
<text text-anchor="middle" x="471.5" y="-1626.9" font-family="Helvetica,sans-Serif" font-size="12.00" fill="#000000"> </text>
</g>
<!-- Node9&#45;&gt;Node8 -->
<g id="edge7" class="edge">
<title>Node9&#45;&gt;Node8</title>
<path fill="none" stroke="#404040" d="M471.5,-1619.486C471.5,-1605.3063 471.5,-1587.5382 471.5,-1568.7416"/>
<polygon fill="none" stroke="#404040" points="471.5001,-1568.5998 467.5,-1562.5998 471.5,-1556.5998 475.5,-1562.5997 471.5001,-1568.5998"/>
<text text-anchor="middle" x="499" y="-1591.4" font-family="Helvetica,sans-Serif" font-size="12.00" fill="#000000"> +m_curr_rss</text>
<text text-anchor="middle" x="499" y="-1578.4" font-family="Helvetica,sans-Serif" font-size="12.00" fill="#000000">+m_peak_rss</text>
</g>
<!-- Node10 -->
<g id="node9" class="node">
<title>Node10</title>
<polygon fill="#ffffff" stroke="#bfbfbf" points="429,-734.5 429,-797.5 478,-797.5 478,-734.5 429,-734.5"/>
<text text-anchor="middle" x="453.5" y="-783.9" font-family="Helvetica,sans-Serif" font-size="12.00" fill="#000000">uint16_t</text>
<polyline fill="none" stroke="#bfbfbf" points="429,-776.5 478,-776.5 "/>
<text text-anchor="middle" x="453.5" y="-762.9" font-family="Helvetica,sans-Serif" font-size="12.00" fill="#000000"> </text>
<polyline fill="none" stroke="#bfbfbf" points="429,-755.5 478,-755.5 "/>
<text text-anchor="middle" x="453.5" y="-741.9" font-family="Helvetica,sans-Serif" font-size="12.00" fill="#000000"> </text>
</g>
<!-- Node10&#45;&gt;Node2 -->
<g id="edge28" class="edge">
<title>Node10&#45;&gt;Node2</title>
<path fill="none" stroke="#404040" d="M448.8603,-734.1937C443.3835,-695.1494 434.514,-626.8668 430.5,-568 423.7413,-468.8818 421.5341,-356.8946 420.9946,-270.9024"/>
<polygon fill="none" stroke="#404040" points="420.9935,-270.6767 416.9608,-264.6986 420.928,-258.6769 424.9607,-264.6549 420.9935,-270.6767"/>
<text text-anchor="middle" x="468.5" y="-428.9" font-family="Helvetica,sans-Serif" font-size="12.00" fill="#000000"> +default_precision</text>
</g>
<!-- Node10&#45;&gt;Node3 -->
<g id="edge8" class="edge">
<title>Node10&#45;&gt;Node3</title>
<path fill="none" stroke="#404040" d="M449.2485,-734.4233C445.7573,-696.277 445.2484,-631.5608 473.5,-586 481.2964,-573.427 491.8164,-579.1845 501.5,-568 504.0902,-565.0083 506.5919,-561.8904 509.0063,-558.672"/>
<polygon fill="none" stroke="#404040" points="509.087,-558.5572 509.266,-551.3483 515.9892,-548.7408 515.8102,-555.9498 509.087,-558.5572"/>
<text text-anchor="middle" x="502" y="-589.4" font-family="Helvetica,sans-Serif" font-size="12.00" fill="#000000"> #m_precision</text>
</g>
<!-- Node11 -->
<g id="node10" class="node">
<title>Node11</title>
<polygon fill="#ffffff" stroke="#bfbfbf" points="497,-734.5 497,-797.5 538,-797.5 538,-734.5 497,-734.5"/>
<text text-anchor="middle" x="517.5" y="-783.9" font-family="Helvetica,sans-Serif" font-size="12.00" fill="#000000">mutex</text>
<polyline fill="none" stroke="#bfbfbf" points="497,-776.5 538,-776.5 "/>
<text text-anchor="middle" x="517.5" y="-762.9" font-family="Helvetica,sans-Serif" font-size="12.00" fill="#000000"> </text>
<polyline fill="none" stroke="#bfbfbf" points="497,-755.5 538,-755.5 "/>
<text text-anchor="middle" x="517.5" y="-741.9" font-family="Helvetica,sans-Serif" font-size="12.00" fill="#000000"> </text>
</g>
<!-- Node11&#45;&gt;Node3 -->
<g id="edge9" class="edge">
<title>Node11&#45;&gt;Node3</title>
<path fill="none" stroke="#404040" d="M519.8908,-734.368C522.7924,-698.3476 528.2156,-637.7809 535.5,-586 535.8061,-583.8241 536.1208,-581.632 536.4432,-579.427"/>
<polygon fill="none" stroke="#404040" points="536.448,-579.3949 533.387,-572.8657 538.2367,-567.5289 541.2977,-574.0582 536.448,-579.3949"/>
<text text-anchor="middle" x="558" y="-589.4" font-family="Helvetica,sans-Serif" font-size="12.00" fill="#000000"> #m_mutex</text>
</g>
<!-- Node12 -->
<g id="node11" class="node">
<title>Node12</title>
<polygon fill="#ffffff" stroke="#bfbfbf" points="556.5,-734.5 556.5,-797.5 668.5,-797.5 668.5,-734.5 556.5,-734.5"/>
<text text-anchor="middle" x="612.5" y="-783.9" font-family="Helvetica,sans-Serif" font-size="12.00" fill="#000000">std::vector&lt; fieldpos_t &gt;</text>
<polyline fill="none" stroke="#bfbfbf" points="556.5,-776.5 668.5,-776.5 "/>
<text text-anchor="middle" x="612.5" y="-762.9" font-family="Helvetica,sans-Serif" font-size="12.00" fill="#000000"> </text>
<polyline fill="none" stroke="#bfbfbf" points="556.5,-755.5 668.5,-755.5 "/>
<text text-anchor="middle" x="612.5" y="-741.9" font-family="Helvetica,sans-Serif" font-size="12.00" fill="#000000"> </text>
</g>
<!-- Node12&#45;&gt;Node3 -->
<g id="edge10" class="edge">
<title>Node12&#45;&gt;Node3</title>
<path fill="none" stroke="#404040" d="M607.846,-734.277C602.5827,-698.4007 593.6376,-637.4277 585.1539,-579.6002"/>
<polygon fill="none" stroke="#404040" points="585.1504,-579.5754 580.3218,-574.2195 583.4084,-567.7024 588.237,-573.0583 585.1504,-579.5754"/>
<text text-anchor="middle" x="632" y="-589.4" font-family="Helvetica,sans-Serif" font-size="12.00" fill="#000000"> #m_format_positions</text>
</g>
<!-- Node13 -->
<g id="node12" class="node">
<title>Node13</title>
<polygon fill="#ffffff" stroke="#bfbfbf" points="534,-1068.5 534,-1131.5 589,-1131.5 589,-1068.5 534,-1068.5"/>
<text text-anchor="middle" x="561.5" y="-1117.9" font-family="Helvetica,sans-Serif" font-size="12.00" fill="#000000">fieldpos_t</text>
<polyline fill="none" stroke="#bfbfbf" points="534,-1110.5 589,-1110.5 "/>
<text text-anchor="middle" x="561.5" y="-1096.9" font-family="Helvetica,sans-Serif" font-size="12.00" fill="#000000"> </text>
<polyline fill="none" stroke="#bfbfbf" points="534,-1089.5 589,-1089.5 "/>
<text text-anchor="middle" x="561.5" y="-1075.9" font-family="Helvetica,sans-Serif" font-size="12.00" fill="#000000"> </text>
</g>
<!-- Node13&#45;&gt;Node12 -->
<g id="edge11" class="edge">
<title>Node13&#45;&gt;Node12</title>
<path fill="none" stroke="#404040" d="M564.392,-1068.2005C567.6236,-1034.5303 573.3529,-979.8759 580.5,-933 586.9114,-890.9493 596.2433,-843.3286 603.1768,-809.7301"/>
<polygon fill="none" stroke="#404040" points="603.2603,-809.3289 600.5669,-802.6396 605.7057,-797.5806 608.3991,-804.2699 603.2603,-809.3289"/>
<text text-anchor="middle" x="603" y="-942.9" font-family="Helvetica,sans-Serif" font-size="12.00" fill="#000000"> +elements</text>
</g>
<!-- Node14 -->
<g id="node13" class="node">
<title>Node14</title>
<g id="a_node13"><a xlink:title="STL class. ">
<polygon fill="#ffffff" stroke="#bfbfbf" points="607,-1068.5 607,-1131.5 686,-1131.5 686,-1068.5 607,-1068.5"/>
<text text-anchor="middle" x="646.5" y="-1117.9" font-family="Helvetica,sans-Serif" font-size="12.00" fill="#000000">std::vector&lt; T &gt;</text>
<polyline fill="none" stroke="#bfbfbf" points="607,-1110.5 686,-1110.5 "/>
<text text-anchor="middle" x="646.5" y="-1096.9" font-family="Helvetica,sans-Serif" font-size="12.00" fill="#000000"> </text>
<polyline fill="none" stroke="#bfbfbf" points="607,-1089.5 686,-1089.5 "/>
<text text-anchor="middle" x="646.5" y="-1075.9" font-family="Helvetica,sans-Serif" font-size="12.00" fill="#000000"> </text>
</a>
</g>
</g>
<!-- Node14&#45;&gt;Node12 -->
<g id="edge12" class="edge">
<title>Node14&#45;&gt;Node12</title>
<path fill="none" stroke="#ffa500" d="M642.2204,-1057.9588C635.3125,-990.0989 621.8586,-857.9342 615.7077,-797.5112"/>
<polygon fill="#ffa500" stroke="#ffa500" points="638.7759,-1058.6829 643.2707,-1068.277 645.7399,-1057.9739 638.7759,-1058.6829"/>
<text text-anchor="middle" x="661" y="-942.9" font-family="Helvetica,sans-Serif" font-size="12.00" fill="#000000"> &lt; fieldpos_t &gt;</text>
</g>
<!-- Node15 -->
<g id="node14" class="node">
<title>Node15</title>
<polygon fill="#ffffff" stroke="#bfbfbf" points="666,-1409 666,-1472 695,-1472 695,-1409 666,-1409"/>
<text text-anchor="middle" x="680.5" y="-1458.4" font-family="Helvetica,sans-Serif" font-size="12.00" fill="#000000">T</text>
<polyline fill="none" stroke="#bfbfbf" points="666,-1451 695,-1451 "/>
<text text-anchor="middle" x="680.5" y="-1437.4" font-family="Helvetica,sans-Serif" font-size="12.00" fill="#000000"> </text>
<polyline fill="none" stroke="#bfbfbf" points="666,-1430 695,-1430 "/>
<text text-anchor="middle" x="680.5" y="-1416.4" font-family="Helvetica,sans-Serif" font-size="12.00" fill="#000000"> </text>
</g>
<!-- Node15&#45;&gt;Node14 -->
<g id="edge13" class="edge">
<title>Node15&#45;&gt;Node14</title>
<path fill="none" stroke="#404040" d="M670.4829,-1408.8274C662.4859,-1381.8185 651.915,-1341.7936 647.5,-1306 640.6357,-1250.35 641.8041,-1185.5994 643.7409,-1143.7675"/>
<polygon fill="none" stroke="#404040" points="643.7523,-1143.5412 640.0605,-1137.3467 644.3586,-1131.5565 648.0503,-1137.7509 643.7523,-1143.5412"/>
<text text-anchor="middle" x="670" y="-1270.4" font-family="Helvetica,sans-Serif" font-size="12.00" fill="#000000"> +elements</text>
</g>
<!-- Node21 -->
<g id="node20" class="node">
<title>Node21</title>
<g id="a_node20"><a xlink:title="STL class. ">
<polygon fill="#ffffff" stroke="#bfbfbf" points="704,-1062 704,-1138 801,-1138 801,-1062 704,-1062"/>
<text text-anchor="start" x="712" y="-1124.4" font-family="Helvetica,sans-Serif" font-size="12.00" fill="#000000">std::unordered_map</text>
<text text-anchor="middle" x="752.5" y="-1111.4" font-family="Helvetica,sans-Serif" font-size="12.00" fill="#000000">&lt; K, T &gt;</text>
<polyline fill="none" stroke="#bfbfbf" points="704,-1104 801,-1104 "/>
<text text-anchor="middle" x="752.5" y="-1090.4" font-family="Helvetica,sans-Serif" font-size="12.00" fill="#000000"> </text>
<polyline fill="none" stroke="#bfbfbf" points="704,-1083 801,-1083 "/>
<text text-anchor="middle" x="752.5" y="-1069.4" font-family="Helvetica,sans-Serif" font-size="12.00" fill="#000000"> </text>
</a>
</g>
</g>
<!-- Node15&#45;&gt;Node21 -->
<g id="edge22" class="edge">
<title>Node15&#45;&gt;Node21</title>
<path fill="none" stroke="#404040" d="M685.7515,-1408.94C692.4504,-1369.5123 704.7088,-1300.043 717.5,-1241 724.076,-1210.6456 732.4239,-1176.8688 739.3175,-1149.9855"/>
<polygon fill="none" stroke="#404040" points="739.3718,-1149.7751 736.9983,-1142.9658 742.3709,-1138.1559 744.7444,-1144.9652 739.3718,-1149.7751"/>
<text text-anchor="middle" x="740" y="-1270.4" font-family="Helvetica,sans-Serif" font-size="12.00" fill="#000000"> +elements</text>
</g>
<!-- Node16 -->
<g id="node15" class="node">
<title>Node16</title>
<g id="a_node15"><a xlink:title="STL class. ">
<polygon fill="#ffffff" stroke="#bfbfbf" points="797.5,-734.5 797.5,-797.5 853.5,-797.5 853.5,-734.5 797.5,-734.5"/>
<text text-anchor="middle" x="825.5" y="-783.9" font-family="Helvetica,sans-Serif" font-size="12.00" fill="#000000">std::string</text>
<polyline fill="none" stroke="#bfbfbf" points="797.5,-776.5 853.5,-776.5 "/>
<text text-anchor="middle" x="825.5" y="-762.9" font-family="Helvetica,sans-Serif" font-size="12.00" fill="#000000"> </text>
<polyline fill="none" stroke="#bfbfbf" points="797.5,-755.5 853.5,-755.5 "/>
<text text-anchor="middle" x="825.5" y="-741.9" font-family="Helvetica,sans-Serif" font-size="12.00" fill="#000000"> </text>
</a>
</g>
</g>
<!-- Node16&#45;&gt;Node2 -->
<g id="edge30" class="edge">
<title>Node16&#45;&gt;Node2</title>
<path fill="none" stroke="#404040" d="M827.7449,-734.4667C829.3022,-697.7546 828.6243,-635.7964 811.5,-586 761.2324,-439.8245 722.3763,-411.3715 619.5,-296 580.9778,-252.799 531.0625,-210.8986 490.9876,-179.9375"/>
<polygon fill="none" stroke="#404040" points="490.8139,-179.8045 483.6183,-179.3316 481.2873,-172.5076 488.4829,-172.9805 490.8139,-179.8045"/>
<text text-anchor="middle" x="838.5" y="-441.9" font-family="Helvetica,sans-Serif" font-size="12.00" fill="#000000"> +default_format</text>
<text text-anchor="middle" x="838.5" y="-428.9" font-family="Helvetica,sans-Serif" font-size="12.00" fill="#000000">#m_begin</text>
<text text-anchor="middle" x="838.5" y="-415.9" font-family="Helvetica,sans-Serif" font-size="12.00" fill="#000000">#m_close</text>
</g>
<!-- Node16&#45;&gt;Node3 -->
<g id="edge14" class="edge">
<title>Node16&#45;&gt;Node3</title>
<path fill="none" stroke="#404040" d="M821.4489,-734.3352C815.7933,-701.5766 802.7156,-650.5954 773.5,-617 762.0215,-603.8008 752.7516,-609.1423 738.5,-599 695.3124,-568.265 652.17,-527.2404 619.5269,-493.5444"/>
<polygon fill="none" stroke="#404040" points="619.3456,-493.3555 612.3047,-491.7976 611.0348,-484.6991 618.0756,-486.2571 619.3456,-493.3555"/>
<text text-anchor="middle" x="775" y="-589.4" font-family="Helvetica,sans-Serif" font-size="12.00" fill="#000000"> #m_format_string</text>
</g>
<!-- Node17 -->
<g id="node16" class="node">
<title>Node17</title>
<g id="a_node16"><a xlink:title="STL class. ">
<polygon fill="#ffffff" stroke="#bfbfbf" points="819,-1062 819,-1138 906,-1138 906,-1062 819,-1062"/>
<text text-anchor="start" x="827" y="-1124.4" font-family="Helvetica,sans-Serif" font-size="12.00" fill="#000000">std::basic_string&lt;</text>
<text text-anchor="middle" x="862.5" y="-1111.4" font-family="Helvetica,sans-Serif" font-size="12.00" fill="#000000"> char &gt;</text>
<polyline fill="none" stroke="#bfbfbf" points="819,-1104 906,-1104 "/>
<text text-anchor="middle" x="862.5" y="-1090.4" font-family="Helvetica,sans-Serif" font-size="12.00" fill="#000000"> </text>
<polyline fill="none" stroke="#bfbfbf" points="819,-1083 906,-1083 "/>
<text text-anchor="middle" x="862.5" y="-1069.4" font-family="Helvetica,sans-Serif" font-size="12.00" fill="#000000"> </text>
</a>
</g>
</g>
<!-- Node17&#45;&gt;Node16 -->
<g id="edge15" class="edge">
<title>Node17&#45;&gt;Node16</title>
<path fill="none" stroke="#191970" d="M857.1239,-1051.4699C849.444,-982.1433 835.5433,-856.6615 829.0372,-797.9307"/>
<polygon fill="none" stroke="#191970" points="853.6758,-1052.1322 858.2556,-1061.686 860.6332,-1051.3614 853.6758,-1052.1322"/>
</g>
<!-- Node18&#45;&gt;Node3 -->
<g id="edge16" class="edge">
<title>Node18&#45;&gt;Node3</title>
<path fill="none" stroke="#404040" d="M391.5125,-617.472C398.3129,-605.7785 406.5428,-595.0264 416.5,-586 445.1099,-560.0648 471.3736,-592.157 501.5,-568 503.4359,-566.4477 505.3136,-564.8216 507.1349,-563.1294"/>
<polygon fill="none" stroke="#404040" points="507.4548,-562.7972 508.7351,-555.7007 515.7782,-554.1531 514.4979,-561.2496 507.4548,-562.7972"/>
<text text-anchor="middle" x="440" y="-589.4" font-family="Helvetica,sans-Serif" font-size="12.00" fill="#000000"> #m_accum</text>
</g>
<!-- Node19 -->
<g id="node18" class="node">
<title>Node19</title>
<polygon fill="#ffffff" stroke="#bfbfbf" points="242,-1068.5 242,-1131.5 291,-1131.5 291,-1068.5 242,-1068.5"/>
<text text-anchor="middle" x="266.5" y="-1117.9" font-family="Helvetica,sans-Serif" font-size="12.00" fill="#000000">uint64_t</text>
<polyline fill="none" stroke="#bfbfbf" points="242,-1110.5 291,-1110.5 "/>
<text text-anchor="middle" x="266.5" y="-1096.9" font-family="Helvetica,sans-Serif" font-size="12.00" fill="#000000"> </text>
<polyline fill="none" stroke="#bfbfbf" points="242,-1089.5 291,-1089.5 "/>
<text text-anchor="middle" x="266.5" y="-1075.9" font-family="Helvetica,sans-Serif" font-size="12.00" fill="#000000"> </text>
</g>
<!-- Node19&#45;&gt;Node2 -->
<g id="edge27" class="edge">
<title>Node19&#45;&gt;Node2</title>
<path fill="none" stroke="#404040" d="M266.8378,-1068.4248C268.074,-991.0061 273.8224,-785.7597 300.5,-617 319.2104,-498.6399 352.6976,-366.8836 379.707,-270.2151"/>
<polygon fill="none" stroke="#404040" points="379.7233,-270.1567 377.4942,-263.2988 382.9672,-258.6035 385.1963,-265.4614 379.7233,-270.1567"/>
<text text-anchor="middle" x="339" y="-589.4" font-family="Helvetica,sans-Serif" font-size="12.00" fill="#000000"> &#45;f_output_width</text>
</g>
<!-- Node19&#45;&gt;Node18 -->
<g id="edge17" class="edge">
<title>Node19&#45;&gt;Node18</title>
<path fill="none" stroke="#404040" d="M275.2091,-1068.393C282.0628,-1043.5444 291.8653,-1008.0575 300.5,-977 305.0531,-960.6233 309.8144,-943.5346 314.5725,-926.4815"/>
<polygon fill="none" stroke="#404040" points="314.6374,-926.2486 312.3977,-919.3942 317.8634,-914.6904 320.1032,-921.5449 314.6374,-926.2486"/>
<text text-anchor="middle" x="329" y="-942.9" font-family="Helvetica,sans-Serif" font-size="12.00" fill="#000000"> #m_lap</text>
</g>
<!-- Node20 -->
<g id="node19" class="node">
<title>Node20</title>
<polygon fill="#ffffff" stroke="#bfbfbf" points="309.5,-1062 309.5,-1138 409.5,-1138 409.5,-1062 309.5,-1062"/>
<text text-anchor="start" x="317.5" y="-1124.4" font-family="Helvetica,sans-Serif" font-size="12.00" fill="#000000">tuple&lt; uint_type, uint</text>
<text text-anchor="middle" x="359.5" y="-1111.4" font-family="Helvetica,sans-Serif" font-size="12.00" fill="#000000">_type, uint_type &gt;</text>
<polyline fill="none" stroke="#bfbfbf" points="309.5,-1104 409.5,-1104 "/>
<text text-anchor="middle" x="359.5" y="-1090.4" font-family="Helvetica,sans-Serif" font-size="12.00" fill="#000000"> </text>
<polyline fill="none" stroke="#bfbfbf" points="309.5,-1083 409.5,-1083 "/>
<text text-anchor="middle" x="359.5" y="-1069.4" font-family="Helvetica,sans-Serif" font-size="12.00" fill="#000000"> </text>
</g>
<!-- Node20&#45;&gt;Node18 -->
<g id="edge19" class="edge">
<title>Node20&#45;&gt;Node18</title>
<path fill="none" stroke="#404040" d="M359.5,-1061.686C359.5,-1028.1352 359.5,-977.0017 359.5,-926.6404"/>
<polygon fill="none" stroke="#404040" points="359.5001,-926.5526 355.5,-920.5526 359.5,-914.5526 363.5,-920.5525 359.5001,-926.5526"/>
<text text-anchor="middle" x="378.5" y="-949.4" font-family="Helvetica,sans-Serif" font-size="12.00" fill="#000000"> #m_sum</text>
<text text-anchor="middle" x="378.5" y="-936.4" font-family="Helvetica,sans-Serif" font-size="12.00" fill="#000000">#m_sqr</text>
</g>
<!-- Node21&#45;&gt;Node3 -->
<g id="edge20" class="edge">
<title>Node21&#45;&gt;Node3</title>
<path fill="none" stroke="#404040" d="M746.2499,-1061.7721C740.1989,-1024.3893 730.8824,-965.833 723.5,-915 702.2977,-769.0075 735.4863,-722.4877 679.5,-586 665.296,-551.3725 641.3698,-517.6144 618.9241,-490.5724"/>
<polygon fill="none" stroke="#404040" points="618.8224,-490.4524 611.8919,-488.4605 611.0649,-481.297 617.9955,-483.2888 618.8224,-490.4524"/>
<text text-anchor="middle" x="756" y="-762.9" font-family="Helvetica,sans-Serif" font-size="12.00" fill="#000000"> &#45;w_mutex_map</text>
</g>
<!-- Node22 -->
<g id="node21" class="node">
<title>Node22</title>
<polygon fill="#ffffff" stroke="#bfbfbf" points="768,-1409 768,-1472 797,-1472 797,-1409 768,-1409"/>
<text text-anchor="middle" x="782.5" y="-1458.4" font-family="Helvetica,sans-Serif" font-size="12.00" fill="#000000">K</text>
<polyline fill="none" stroke="#bfbfbf" points="768,-1451 797,-1451 "/>
<text text-anchor="middle" x="782.5" y="-1437.4" font-family="Helvetica,sans-Serif" font-size="12.00" fill="#000000"> </text>
<polyline fill="none" stroke="#bfbfbf" points="768,-1430 797,-1430 "/>
<text text-anchor="middle" x="782.5" y="-1416.4" font-family="Helvetica,sans-Serif" font-size="12.00" fill="#000000"> </text>
</g>
<!-- Node22&#45;&gt;Node21 -->
<g id="edge21" class="edge">
<title>Node22&#45;&gt;Node21</title>
<path fill="none" stroke="#404040" d="M779.7046,-1408.7724C774.4834,-1349.5114 763.212,-1221.581 756.9398,-1150.3922"/>
<polygon fill="none" stroke="#404040" points="756.9198,-1150.1639 752.4086,-1144.5381 755.8665,-1138.2102 760.3777,-1143.836 756.9198,-1150.1639"/>
<text text-anchor="middle" x="784" y="-1270.4" font-family="Helvetica,sans-Serif" font-size="12.00" fill="#000000"> +keys</text>
</g>
<!-- Node23 -->
<g id="node22" class="node">
<title>Node23</title>
<g id="a_node22"><a xlink:title="STL class. ">
<polygon fill="#ffffff" stroke="#bfbfbf" points="904.5,-734.5 904.5,-797.5 970.5,-797.5 970.5,-734.5 904.5,-734.5"/>
<text text-anchor="middle" x="937.5" y="-783.9" font-family="Helvetica,sans-Serif" font-size="12.00" fill="#000000">std::ostream</text>
<polyline fill="none" stroke="#bfbfbf" points="904.5,-776.5 970.5,-776.5 "/>
<text text-anchor="middle" x="937.5" y="-762.9" font-family="Helvetica,sans-Serif" font-size="12.00" fill="#000000"> </text>
<polyline fill="none" stroke="#bfbfbf" points="904.5,-755.5 970.5,-755.5 "/>
<text text-anchor="middle" x="937.5" y="-741.9" font-family="Helvetica,sans-Serif" font-size="12.00" fill="#000000"> </text>
</a>
</g>
</g>
<!-- Node23&#45;&gt;Node3 -->
<g id="edge23" class="edge">
<title>Node23&#45;&gt;Node3</title>
<path fill="none" stroke="#404040" d="M927.0934,-734.3647C915.2991,-702.0989 893.5862,-651.9451 862.5,-617 826.7302,-576.7899 698.3839,-504.204 621.961,-462.9185"/>
<polygon fill="none" stroke="#404040" points="621.6462,-462.7491 614.4671,-463.4278 611.0795,-457.0619 618.2586,-456.3833 621.6462,-462.7491"/>
<text text-anchor="middle" x="857.5" y="-589.4" font-family="Helvetica,sans-Serif" font-size="12.00" fill="#000000"> #m_os</text>
</g>
<!-- Node24 -->
<g id="node23" class="node">
<title>Node24</title>
<g id="a_node23"><a xlink:title="STL class. ">
<polygon fill="#ffffff" stroke="#bfbfbf" points="924.5,-1062 924.5,-1138 1016.5,-1138 1016.5,-1062 924.5,-1062"/>
<text text-anchor="start" x="932.5" y="-1124.4" font-family="Helvetica,sans-Serif" font-size="12.00" fill="#000000">std::basic_ostream</text>
<text text-anchor="middle" x="970.5" y="-1111.4" font-family="Helvetica,sans-Serif" font-size="12.00" fill="#000000">&lt; char &gt;</text>
<polyline fill="none" stroke="#bfbfbf" points="924.5,-1104 1016.5,-1104 "/>
<text text-anchor="middle" x="970.5" y="-1090.4" font-family="Helvetica,sans-Serif" font-size="12.00" fill="#000000"> </text>
<polyline fill="none" stroke="#bfbfbf" points="924.5,-1083 1016.5,-1083 "/>
<text text-anchor="middle" x="970.5" y="-1069.4" font-family="Helvetica,sans-Serif" font-size="12.00" fill="#000000"> </text>
</a>
</g>
</g>
<!-- Node24&#45;&gt;Node23 -->
<g id="edge24" class="edge">
<title>Node24&#45;&gt;Node23</title>
<path fill="none" stroke="#191970" d="M965.7051,-1051.4699C958.8555,-982.1433 946.4576,-856.6615 940.6548,-797.9307"/>
<polygon fill="none" stroke="#191970" points="962.2481,-1052.0786 966.7145,-1061.686 969.2142,-1051.3902 962.2481,-1052.0786"/>
</g>
<!-- Node25 -->
<g id="node24" class="node">
<title>Node25</title>
<g id="a_node24"><a xlink:title="STL class. ">
<polygon fill="#ffffff" stroke="#bfbfbf" points="917.5,-1409 917.5,-1472 1023.5,-1472 1023.5,-1409 917.5,-1409"/>
<text text-anchor="middle" x="970.5" y="-1458.4" font-family="Helvetica,sans-Serif" font-size="12.00" fill="#000000">std::basic_ios&lt; Char &gt;</text>
<polyline fill="none" stroke="#bfbfbf" points="917.5,-1451 1023.5,-1451 "/>
<text text-anchor="middle" x="970.5" y="-1437.4" font-family="Helvetica,sans-Serif" font-size="12.00" fill="#000000"> </text>
<polyline fill="none" stroke="#bfbfbf" points="917.5,-1430 1023.5,-1430 "/>
<text text-anchor="middle" x="970.5" y="-1416.4" font-family="Helvetica,sans-Serif" font-size="12.00" fill="#000000"> </text>
</a>
</g>
</g>
<!-- Node25&#45;&gt;Node24 -->
<g id="edge25" class="edge">
<title>Node25&#45;&gt;Node24</title>
<path fill="none" stroke="#191970" d="M970.5,-1398.6249C970.5,-1331.9226 970.5,-1202.5302 970.5,-1138.2102"/>
<polygon fill="none" stroke="#191970" points="967.0001,-1398.7723 970.5,-1408.7724 974.0001,-1398.7724 967.0001,-1398.7723"/>
</g>
<!-- Node26 -->
<g id="node25" class="node">
<title>Node26</title>
<g id="a_node25"><a xlink:title="STL class. ">
<polygon fill="#ffffff" stroke="#bfbfbf" points="935.5,-1619.5 935.5,-1682.5 1005.5,-1682.5 1005.5,-1619.5 935.5,-1619.5"/>
<text text-anchor="middle" x="970.5" y="-1668.9" font-family="Helvetica,sans-Serif" font-size="12.00" fill="#000000">std::ios_base</text>
<polyline fill="none" stroke="#bfbfbf" points="935.5,-1661.5 1005.5,-1661.5 "/>
<text text-anchor="middle" x="970.5" y="-1647.9" font-family="Helvetica,sans-Serif" font-size="12.00" fill="#000000"> </text>
<polyline fill="none" stroke="#bfbfbf" points="935.5,-1640.5 1005.5,-1640.5 "/>
<text text-anchor="middle" x="970.5" y="-1626.9" font-family="Helvetica,sans-Serif" font-size="12.00" fill="#000000"> </text>
</a>
</g>
</g>
<!-- Node26&#45;&gt;Node25 -->
<g id="edge26" class="edge">
<title>Node26&#45;&gt;Node25</title>
<path fill="none" stroke="#191970" d="M970.5,-1609.4408C970.5,-1569.1254 970.5,-1508.8284 970.5,-1472.2294"/>
<polygon fill="none" stroke="#191970" points="967.0001,-1609.486 970.5,-1619.486 974.0001,-1609.4861 967.0001,-1609.486"/>
</g>
</g>
</svg>
