<?xml version="1.0" encoding="UTF-8" standalone="no"?>
<!DOCTYPE svg PUBLIC "-//W3C//DTD SVG 1.1//EN"
 "http://www.w3.org/Graphics/SVG/1.1/DTD/svg11.dtd">
<!-- Generated by graphviz version 2.40.1 (20161225.0304)
 -->
<!-- Title: options.opts Pages: 1 -->
<svg width="155pt" height="237pt"
 viewBox="0.00 0.00 154.50 237.00" xmlns="http://www.w3.org/2000/svg" xmlns:xlink="http://www.w3.org/1999/xlink">
<g id="graph0" class="graph" transform="scale(1 1) rotate(0) translate(4 233)">
<title>options.opts</title>
<polygon fill="#ffffff" stroke="transparent" points="-4,4 -4,-233 150.5,-233 150.5,4 -4,4"/>
<!-- Node1 -->
<g id="node1" class="node">
<title>Node1</title>
<polygon fill="#bfbfbf" stroke="#000000" points="13.5,-.5 13.5,-89.5 107.5,-89.5 107.5,-.5 13.5,-.5"/>
<text text-anchor="middle" x="60.5" y="-75.9" font-family="Helvetica,sans-Serif" font-size="12.00" fill="#000000">options.opts</text>
<polyline fill="none" stroke="#000000" points="13.5,-68.5 107.5,-68.5 "/>
<text text-anchor="start" x="21.5" y="-54.9" font-family="Helvetica,sans-Serif" font-size="12.00" fill="#000000">+ max_timer_depth</text>
<polyline fill="none" stroke="#000000" points="13.5,-47.5 107.5,-47.5 "/>
<text text-anchor="start" x="21.5" y="-33.9" font-family="Helvetica,sans-Serif" font-size="12.00" fill="#000000">+ __init__()</text>
<text text-anchor="start" x="21.5" y="-20.9" font-family="Helvetica,sans-Serif" font-size="12.00" fill="#000000">+ set_report()</text>
<text text-anchor="start" x="21.5" y="-7.9" font-family="Helvetica,sans-Serif" font-size="12.00" fill="#000000">+ set_serial()</text>
</g>
<!-- Node2 -->
<g id="node2" class="node">
<title>Node2</title>
<polygon fill="#ffffff" stroke="#bfbfbf" points="0,-165.5 0,-228.5 39,-228.5 39,-165.5 0,-165.5"/>
<text text-anchor="middle" x="19.5" y="-214.9" font-family="Helvetica,sans-Serif" font-size="12.00" fill="#000000">string</text>
<polyline fill="none" stroke="#bfbfbf" points="0,-207.5 39,-207.5 "/>
<text text-anchor="middle" x="19.5" y="-193.9" font-family="Helvetica,sans-Serif" font-size="12.00" fill="#000000"> </text>
<polyline fill="none" stroke="#bfbfbf" points="0,-186.5 39,-186.5 "/>
<text text-anchor="middle" x="19.5" y="-172.9" font-family="Helvetica,sans-Serif" font-size="12.00" fill="#000000"> </text>
</g>
<!-- Node2&#45;&gt;Node1 -->
<g id="edge1" class="edge">
<title>Node2&#45;&gt;Node1</title>
<path fill="none" stroke="#404040" d="M15.7009,-165.4825C14.6378,-148.1706 15.0051,-126.5174 20.5,-108 21.2199,-105.5741 22.0627,-103.1517 23.0056,-100.7463"/>
<polygon fill="none" stroke="#404040" points="23.0803,-100.5825 21.9318,-93.4634 28.0615,-89.6651 29.21,-96.7842 23.0803,-100.5825"/>
<text text-anchor="middle" x="50.5" y="-130.9" font-family="Helvetica,sans-Serif" font-size="12.00" fill="#000000"> +serial_fname</text>
<text text-anchor="middle" x="50.5" y="-117.9" font-family="Helvetica,sans-Serif" font-size="12.00" fill="#000000">+report_fname</text>
</g>
<!-- Node3 -->
<g id="node3" class="node">
<title>Node3</title>
<polygon fill="#ffffff" stroke="#bfbfbf" points="85.5,-165.5 85.5,-228.5 119.5,-228.5 119.5,-165.5 85.5,-165.5"/>
<text text-anchor="middle" x="102.5" y="-214.9" font-family="Helvetica,sans-Serif" font-size="12.00" fill="#000000">bool</text>
<polyline fill="none" stroke="#bfbfbf" points="85.5,-207.5 119.5,-207.5 "/>
<text text-anchor="middle" x="102.5" y="-193.9" font-family="Helvetica,sans-Serif" font-size="12.00" fill="#000000"> </text>
<polyline fill="none" stroke="#bfbfbf" points="85.5,-186.5 119.5,-186.5 "/>
<text text-anchor="middle" x="102.5" y="-172.9" font-family="Helvetica,sans-Serif" font-size="12.00" fill="#000000"> </text>
</g>
<!-- Node3&#45;&gt;Node1 -->
<g id="edge2" class="edge">
<title>Node3&#45;&gt;Node1</title>
<path fill="none" stroke="#404040" d="M95.1584,-165.1513C91.0999,-148.124 85.8136,-126.8423 80.5,-108 79.8693,-105.7635 79.2132,-103.4865 78.5397,-101.1897"/>
<polygon fill="none" stroke="#404040" points="78.5202,-101.1246 72.9617,-96.5308 75.0642,-89.633 80.6227,-94.2268 78.5202,-101.1246"/>
<text text-anchor="middle" x="118.5" y="-137.4" font-family="Helvetica,sans-Serif" font-size="12.00" fill="#000000"> +use_timers</text>
<text text-anchor="middle" x="118.5" y="-124.4" font-family="Helvetica,sans-Serif" font-size="12.00" fill="#000000">+report_file</text>
<text text-anchor="middle" x="118.5" y="-111.4" font-family="Helvetica,sans-Serif" font-size="12.00" fill="#000000">+serial_report</text>
</g>
</g>
</svg>
