<?xml version="1.0" encoding="UTF-8" standalone="no"?>
<!DOCTYPE svg PUBLIC "-//W3C//DTD SVG 1.1//EN"
 "http://www.w3.org/Graphics/SVG/1.1/DTD/svg11.dtd">
<!-- Generated by graphviz version 2.40.1 (20161225.0304)
 -->
<!-- Title: timemory/mpi.hpp Pages: 1 -->
<svg width="718pt" height="391pt"
 viewBox="0.00 0.00 717.50 391.00" xmlns="http://www.w3.org/2000/svg" xmlns:xlink="http://www.w3.org/1999/xlink">
<g id="graph0" class="graph" transform="scale(1 1) rotate(0) translate(4 387)">
<title>timemory/mpi.hpp</title>
<polygon fill="#ffffff" stroke="transparent" points="-4,4 -4,-387 713.5,-387 713.5,4 -4,4"/>
<!-- Node3 -->
<g id="node1" class="node">
<title>Node3</title>
<polygon fill="#bfbfbf" stroke="#000000" points="246.5,-361.5 246.5,-382.5 334.5,-382.5 334.5,-361.5 246.5,-361.5"/>
<text text-anchor="middle" x="290.5" y="-368.9" font-family="Helvetica,sans-Serif" font-size="12.00" fill="#000000">timemory/mpi.hpp</text>
</g>
<!-- Node4 -->
<g id="node2" class="node">
<title>Node4</title>
<g id="a_node2"><a xlink:href="../../d0/d90/ex1_2test__timing_8cpp.html" target="_top" xlink:title="examples/ex1/test_timing.cpp">
<polygon fill="#ffffff" stroke="#000000" points="0,-7 0,-28 135,-28 135,-7 0,-7"/>
<text text-anchor="middle" x="67.5" y="-14.4" font-family="Helvetica,sans-Serif" font-size="12.00" fill="#000000">examples/ex1/test_timing.cpp</text>
</a>
</g>
</g>
<!-- Node3&#45;&gt;Node4 -->
<g id="edge1" class="edge">
<title>Node3&#45;&gt;Node4</title>
<path fill="none" stroke="#191970" d="M236.0708,-363.2956C185.9569,-354.5339 115.9471,-340.1759 92.5,-325 60.0371,-303.9888 39.5,-294.6692 39.5,-256 39.5,-256 39.5,-256 39.5,-140 39.5,-97.6773 55.5798,-49.1507 63.3685,-28.128"/>
<polygon fill="#191970" stroke="#191970" points="235.6746,-366.7788 246.1233,-365.0253 236.8616,-359.8802 235.6746,-366.7788"/>
</g>
<!-- Node5 -->
<g id="node3" class="node">
<title>Node5</title>
<g id="a_node3"><a xlink:href="../../dd/d0a/mpi__test__timing_8cpp.html" target="_top" xlink:title="examples/ex2/mpi_test\l_timing.cpp">
<polygon fill="#ffffff" stroke="#000000" points="153,-.5 153,-34.5 262,-34.5 262,-.5 153,-.5"/>
<text text-anchor="start" x="161" y="-20.9" font-family="Helvetica,sans-Serif" font-size="12.00" fill="#000000">examples/ex2/mpi_test</text>
<text text-anchor="middle" x="207.5" y="-7.9" font-family="Helvetica,sans-Serif" font-size="12.00" fill="#000000">_timing.cpp</text>
</a>
</g>
</g>
<!-- Node3&#45;&gt;Node5 -->
<g id="edge2" class="edge">
<title>Node3&#45;&gt;Node5</title>
<path fill="none" stroke="#191970" d="M236.1504,-366.0236C173.0433,-355.7185 77.5,-328.1953 77.5,-256 77.5,-256 77.5,-256 77.5,-198 77.5,-126.363 145.7576,-63.7706 183.3527,-34.7288"/>
<polygon fill="#191970" stroke="#191970" points="235.9514,-369.5339 246.3663,-367.5893 237.0119,-362.6147 235.9514,-369.5339"/>
</g>
<!-- Node6 -->
<g id="node4" class="node">
<title>Node6</title>
<g id="a_node4"><a xlink:href="../../da/d8e/signal__detection_8hpp.html" target="_top" xlink:title="timemory/signal_detection.hpp">
<polygon fill="#ffffff" stroke="#000000" points="221,-303.5 221,-324.5 360,-324.5 360,-303.5 221,-303.5"/>
<text text-anchor="middle" x="290.5" y="-310.9" font-family="Helvetica,sans-Serif" font-size="12.00" fill="#000000">timemory/signal_detection.hpp</text>
</a>
</g>
</g>
<!-- Node3&#45;&gt;Node6 -->
<g id="edge3" class="edge">
<title>Node3&#45;&gt;Node6</title>
<path fill="none" stroke="#191970" d="M290.5,-351.1906C290.5,-342.1684 290.5,-331.9941 290.5,-324.5707"/>
<polygon fill="#191970" stroke="#191970" points="287.0001,-351.3619 290.5,-361.3619 294.0001,-351.3619 287.0001,-351.3619"/>
</g>
<!-- Node11 -->
<g id="node9" class="node">
<title>Node11</title>
<g id="a_node9"><a xlink:href="../../df/df2/timing__manager_8hpp.html" target="_top" xlink:title="timemory/timing_manager.hpp">
<polygon fill="#ffffff" stroke="#000000" points="421.5,-129.5 421.5,-150.5 559.5,-150.5 559.5,-129.5 421.5,-129.5"/>
<text text-anchor="middle" x="490.5" y="-136.9" font-family="Helvetica,sans-Serif" font-size="12.00" fill="#000000">timemory/timing_manager.hpp</text>
</a>
</g>
</g>
<!-- Node3&#45;&gt;Node11 -->
<g id="edge27" class="edge">
<title>Node3&#45;&gt;Node11</title>
<path fill="none" stroke="#191970" d="M337.6837,-358.2223C399.197,-337.3675 503.9449,-291.2242 546.5,-209 558.4134,-185.9812 530.5732,-163.4588 510.0254,-150.6946"/>
<polygon fill="#191970" stroke="#191970" points="336.2311,-355.0159 327.8305,-361.4721 338.4236,-361.6637 336.2311,-355.0159"/>
</g>
<!-- Node14 -->
<g id="node12" class="node">
<title>Node14</title>
<g id="a_node12"><a xlink:href="../../d2/dfd/timemory_8cc.html" target="_top" xlink:title="timemory.cc">
<polygon fill="#ffffff" stroke="#000000" points="644,-7 644,-28 709,-28 709,-7 644,-7"/>
<text text-anchor="middle" x="676.5" y="-14.4" font-family="Helvetica,sans-Serif" font-size="12.00" fill="#000000">timemory.cc</text>
</a>
</g>
</g>
<!-- Node3&#45;&gt;Node14 -->
<g id="edge28" class="edge">
<title>Node3&#45;&gt;Node14</title>
<path fill="none" stroke="#191970" d="M344.7461,-368.3844C458.0687,-359.3403 709.5,-330.8412 709.5,-256 709.5,-256 709.5,-256 709.5,-140 709.5,-97.2705 690.5488,-48.9536 681.3693,-28.0564"/>
<polygon fill="#191970" stroke="#191970" points="344.2478,-364.9125 334.5484,-369.1754 344.7892,-371.8915 344.2478,-364.9125"/>
</g>
<!-- Node6&#45;&gt;Node4 -->
<g id="edge4" class="edge">
<title>Node6&#45;&gt;Node4</title>
<path fill="none" stroke="#191970" d="M226.2268,-301.2465C189.2585,-292.6784 147.6082,-280.5113 134.5,-267 66.7302,-197.1461 65.7105,-66.4454 66.9726,-28.2437"/>
<polygon fill="#191970" stroke="#191970" points="225.4759,-304.665 236.0015,-303.4556 227.0191,-297.8372 225.4759,-304.665"/>
</g>
<!-- Node6&#45;&gt;Node5 -->
<g id="edge5" class="edge">
<title>Node6&#45;&gt;Node5</title>
<path fill="none" stroke="#191970" d="M284.8389,-293.777C269.4104,-238.662 226.8142,-86.4958 212.3664,-34.8842"/>
<polygon fill="#191970" stroke="#191970" points="281.4798,-294.7611 287.546,-303.4474 288.2207,-292.8741 281.4798,-294.7611"/>
</g>
<!-- Node7 -->
<g id="node5" class="node">
<title>Node7</title>
<g id="a_node5"><a xlink:href="../../d2/dc1/ex3_2test__timing_8cpp.html" target="_top" xlink:title="examples/ex3/test_timing.cpp">
<polygon fill="#ffffff" stroke="#000000" points="280,-7 280,-28 415,-28 415,-7 280,-7"/>
<text text-anchor="middle" x="347.5" y="-14.4" font-family="Helvetica,sans-Serif" font-size="12.00" fill="#000000">examples/ex3/test_timing.cpp</text>
</a>
</g>
</g>
<!-- Node6&#45;&gt;Node7 -->
<g id="edge6" class="edge">
<title>Node6&#45;&gt;Node7</title>
<path fill="none" stroke="#191970" d="M295.9192,-293.526C301.5351,-270.4771 309.5,-231.825 309.5,-198 309.5,-198 309.5,-198 309.5,-140 309.5,-97.0245 331.0982,-49.2221 341.7286,-28.297"/>
<polygon fill="#191970" stroke="#191970" points="292.5259,-292.6688 293.4688,-303.2216 299.3125,-294.3841 292.5259,-292.6688"/>
</g>
<!-- Node8 -->
<g id="node6" class="node">
<title>Node8</title>
<g id="a_node6"><a xlink:href="../../d6/d01/base__timer_8hpp.html" target="_top" xlink:title="timemory/base_timer.hpp">
<polygon fill="#ffffff" stroke="#000000" points="337.5,-245.5 337.5,-266.5 455.5,-266.5 455.5,-245.5 337.5,-245.5"/>
<text text-anchor="middle" x="396.5" y="-252.9" font-family="Helvetica,sans-Serif" font-size="12.00" fill="#000000">timemory/base_timer.hpp</text>
</a>
</g>
</g>
<!-- Node6&#45;&gt;Node8 -->
<g id="edge7" class="edge">
<title>Node6&#45;&gt;Node8</title>
<path fill="none" stroke="#191970" d="M318.7956,-298.5175C337.2516,-288.4189 360.8562,-275.5032 377.1812,-266.5707"/>
<polygon fill="#191970" stroke="#191970" points="317.0346,-295.4913 309.942,-303.3619 320.3947,-301.6322 317.0346,-295.4913"/>
</g>
<!-- Node6&#45;&gt;Node14 -->
<g id="edge26" class="edge">
<title>Node6&#45;&gt;Node14</title>
<path fill="none" stroke="#191970" d="M359.4664,-301.2437C392.2435,-293.7232 431.3988,-282.572 464.5,-267 565.4722,-219.4988 587.3603,-188.2446 645.5,-93 658.715,-71.3512 668.6057,-43.0644 673.3601,-28.0067"/>
<polygon fill="#191970" stroke="#191970" points="358.512,-297.8705 349.5128,-303.462 360.0347,-304.7029 358.512,-297.8705"/>
</g>
<!-- Node17 -->
<g id="node15" class="node">
<title>Node17</title>
<g id="a_node15"><a xlink:href="../../dc/d43/signal__detection_8cpp.html" target="_top" xlink:title="signal_detection.cpp">
<polygon fill="#ffffff" stroke="#000000" points="144,-245.5 144,-266.5 243,-266.5 243,-245.5 144,-245.5"/>
<text text-anchor="middle" x="193.5" y="-252.9" font-family="Helvetica,sans-Serif" font-size="12.00" fill="#000000">signal_detection.cpp</text>
</a>
</g>
</g>
<!-- Node6&#45;&gt;Node17 -->
<g id="edge25" class="edge">
<title>Node6&#45;&gt;Node17</title>
<path fill="none" stroke="#191970" d="M263.9101,-298.1009C247.1273,-288.0658 225.9128,-275.3808 211.1785,-266.5707"/>
<polygon fill="#191970" stroke="#191970" points="262.3298,-301.2339 272.7087,-303.3619 265.9222,-295.226 262.3298,-301.2339"/>
</g>
<!-- Node9 -->
<g id="node7" class="node">
<title>Node9</title>
<g id="a_node7"><a xlink:href="../../dd/d84/base__timer_8cpp.html" target="_top" xlink:title="base_timer.cpp">
<polygon fill="#ffffff" stroke="#000000" points="347.5,-187.5 347.5,-208.5 425.5,-208.5 425.5,-187.5 347.5,-187.5"/>
<text text-anchor="middle" x="386.5" y="-194.9" font-family="Helvetica,sans-Serif" font-size="12.00" fill="#000000">base_timer.cpp</text>
</a>
</g>
</g>
<!-- Node8&#45;&gt;Node9 -->
<g id="edge8" class="edge">
<title>Node8&#45;&gt;Node9</title>
<path fill="none" stroke="#191970" d="M392.9634,-235.4876C391.3952,-226.3924 389.6165,-216.0756 388.3225,-208.5707"/>
<polygon fill="#191970" stroke="#191970" points="389.5176,-236.102 394.6658,-245.3619 396.4158,-234.9126 389.5176,-236.102"/>
</g>
<!-- Node10 -->
<g id="node8" class="node">
<title>Node10</title>
<g id="a_node8"><a xlink:href="../../df/d05/timer_8hpp.html" target="_top" xlink:title="timemory/timer.hpp">
<polygon fill="#ffffff" stroke="#000000" points="443.5,-187.5 443.5,-208.5 537.5,-208.5 537.5,-187.5 443.5,-187.5"/>
<text text-anchor="middle" x="490.5" y="-194.9" font-family="Helvetica,sans-Serif" font-size="12.00" fill="#000000">timemory/timer.hpp</text>
</a>
</g>
</g>
<!-- Node8&#45;&gt;Node10 -->
<g id="edge9" class="edge">
<title>Node8&#45;&gt;Node10</title>
<path fill="none" stroke="#191970" d="M422.2675,-240.1009C438.5313,-230.0658 459.0897,-217.3808 473.3683,-208.5707"/>
<polygon fill="#191970" stroke="#191970" points="420.4135,-237.1322 413.741,-245.3619 424.0893,-243.0894 420.4135,-237.1322"/>
</g>
<!-- Node10&#45;&gt;Node11 -->
<g id="edge10" class="edge">
<title>Node10&#45;&gt;Node11</title>
<path fill="none" stroke="#191970" d="M490.5,-177.1906C490.5,-168.1684 490.5,-157.9941 490.5,-150.5707"/>
<polygon fill="#191970" stroke="#191970" points="487.0001,-177.3619 490.5,-187.3619 494.0001,-177.3619 487.0001,-177.3619"/>
</g>
<!-- Node10&#45;&gt;Node14 -->
<g id="edge23" class="edge">
<title>Node10&#45;&gt;Node14</title>
<path fill="none" stroke="#191970" d="M521.3214,-182.693C536.3847,-174.4262 554.2818,-163.3813 568.5,-151 613.4645,-111.8445 654.09,-52.3876 669.7119,-28.2488"/>
<polygon fill="#191970" stroke="#191970" points="519.5435,-179.6745 512.3667,-187.4685 522.8374,-185.8511 519.5435,-179.6745"/>
</g>
<!-- Node16 -->
<g id="node14" class="node">
<title>Node16</title>
<g id="a_node14"><a xlink:href="../../dc/de5/timer_8cpp.html" target="_top" xlink:title="timer.cpp">
<polygon fill="#ffffff" stroke="#000000" points="349.5,-129.5 349.5,-150.5 403.5,-150.5 403.5,-129.5 349.5,-129.5"/>
<text text-anchor="middle" x="376.5" y="-136.9" font-family="Helvetica,sans-Serif" font-size="12.00" fill="#000000">timer.cpp</text>
</a>
</g>
</g>
<!-- Node10&#45;&gt;Node16 -->
<g id="edge24" class="edge">
<title>Node10&#45;&gt;Node16</title>
<path fill="none" stroke="#191970" d="M460.8833,-182.9319C440.9557,-172.7932 415.1711,-159.6748 397.3762,-150.6212"/>
<polygon fill="#191970" stroke="#191970" points="459.3555,-186.0815 469.8555,-187.4966 462.5298,-179.8425 459.3555,-186.0815"/>
</g>
<!-- Node11&#45;&gt;Node4 -->
<g id="edge11" class="edge">
<title>Node11&#45;&gt;Node4</title>
<path fill="none" stroke="#191970" d="M444.2079,-126.5939C359.4262,-102.0413 180.8841,-50.3358 103.9932,-28.0684"/>
<polygon fill="#191970" stroke="#191970" points="443.4902,-130.0298 454.0692,-129.4497 445.4374,-123.3061 443.4902,-130.0298"/>
</g>
<!-- Node11&#45;&gt;Node5 -->
<g id="edge12" class="edge">
<title>Node11&#45;&gt;Node5</title>
<path fill="none" stroke="#191970" d="M456.4579,-125.345C434.9568,-116.083 406.5954,-103.855 381.5,-93 335.2583,-72.9982 282.1383,-49.9367 246.879,-34.6173"/>
<polygon fill="#191970" stroke="#191970" points="455.2488,-128.635 465.8177,-129.3762 458.0178,-122.206 455.2488,-128.635"/>
</g>
<!-- Node11&#45;&gt;Node7 -->
<g id="edge13" class="edge">
<title>Node11&#45;&gt;Node7</title>
<path fill="none" stroke="#191970" d="M455.3117,-124.99C438.8378,-116.9496 419.5731,-106.012 404.5,-93 381.9978,-73.5748 362.8212,-43.8761 353.5163,-28.1418"/>
<polygon fill="#191970" stroke="#191970" points="454.0979,-128.2871 464.6359,-129.383 457.0814,-121.9547 454.0979,-128.2871"/>
</g>
<!-- Node12 -->
<g id="node10" class="node">
<title>Node12</title>
<g id="a_node10"><a xlink:href="../../d8/d07/auto__timer_8hpp.html" target="_top" xlink:title="timemory/auto_timer.hpp">
<polygon fill="#ffffff" stroke="#000000" points="413.5,-71.5 413.5,-92.5 529.5,-92.5 529.5,-71.5 413.5,-71.5"/>
<text text-anchor="middle" x="471.5" y="-78.9" font-family="Helvetica,sans-Serif" font-size="12.00" fill="#000000">timemory/auto_timer.hpp</text>
</a>
</g>
</g>
<!-- Node11&#45;&gt;Node12 -->
<g id="edge14" class="edge">
<title>Node11&#45;&gt;Node12</title>
<path fill="none" stroke="#191970" d="M483.8774,-119.7838C480.8745,-110.617 477.4481,-100.1572 474.9628,-92.5707"/>
<polygon fill="#191970" stroke="#191970" points="480.5759,-120.9484 487.0151,-129.3619 487.228,-118.7692 480.5759,-120.9484"/>
</g>
<!-- Node11&#45;&gt;Node14 -->
<g id="edge21" class="edge">
<title>Node11&#45;&gt;Node14</title>
<path fill="none" stroke="#191970" d="M515.2895,-123.6736C554.0645,-98.1363 627.9848,-49.4522 660.489,-28.0449"/>
<polygon fill="#191970" stroke="#191970" points="513.1073,-120.9199 506.6809,-129.3432 516.9575,-126.7659 513.1073,-120.9199"/>
</g>
<!-- Node15 -->
<g id="node13" class="node">
<title>Node15</title>
<g id="a_node13"><a xlink:href="../../d9/dad/timing__manager_8cpp.html" target="_top" xlink:title="timing_manager.cpp">
<polygon fill="#ffffff" stroke="#000000" points="527.5,-7 527.5,-28 625.5,-28 625.5,-7 527.5,-7"/>
<text text-anchor="middle" x="576.5" y="-14.4" font-family="Helvetica,sans-Serif" font-size="12.00" fill="#000000">timing_manager.cpp</text>
</a>
</g>
</g>
<!-- Node11&#45;&gt;Node15 -->
<g id="edge22" class="edge">
<title>Node11&#45;&gt;Node15</title>
<path fill="none" stroke="#191970" d="M511.0684,-122.6712C520.1929,-114.3154 530.6227,-103.7788 538.5,-93 553.9985,-71.7928 566.4018,-43.3301 572.461,-28.1266"/>
<polygon fill="#191970" stroke="#191970" points="508.6383,-120.1482 503.4827,-129.4041 513.2851,-125.3835 508.6383,-120.1482"/>
</g>
<!-- Node12&#45;&gt;Node4 -->
<g id="edge15" class="edge">
<title>Node12&#45;&gt;Node4</title>
<path fill="none" stroke="#191970" d="M403.5498,-73.9549C337.0259,-65.6808 232.9264,-51.6724 143.5,-35 132.7186,-32.9899 121.1512,-30.4999 110.3746,-28.0348"/>
<polygon fill="#191970" stroke="#191970" points="403.1368,-77.4304 413.4906,-75.1834 403.9954,-70.4832 403.1368,-77.4304"/>
</g>
<!-- Node12&#45;&gt;Node5 -->
<g id="edge16" class="edge">
<title>Node12&#45;&gt;Node5</title>
<path fill="none" stroke="#191970" d="M413.9408,-69.2036C373.667,-60.0882 318.6715,-47.3169 270.5,-35 267.7505,-34.297 264.9373,-33.5644 262.0989,-32.8147"/>
<polygon fill="#191970" stroke="#191970" points="413.3243,-72.6524 423.8495,-71.4398 414.8654,-65.8241 413.3243,-72.6524"/>
</g>
<!-- Node12&#45;&gt;Node7 -->
<g id="edge17" class="edge">
<title>Node12&#45;&gt;Node7</title>
<path fill="none" stroke="#191970" d="M442.3406,-66.8324C419.373,-54.8856 387.9532,-38.5422 367.6901,-28.0021"/>
<polygon fill="#191970" stroke="#191970" points="440.8145,-69.9838 451.3013,-71.4934 444.0448,-63.7736 440.8145,-69.9838"/>
</g>
<!-- Node13 -->
<g id="node11" class="node">
<title>Node13</title>
<g id="a_node11"><a xlink:href="../../d2/d80/auto__timer_8cpp.html" target="_top" xlink:title="auto_timer.cpp">
<polygon fill="#ffffff" stroke="#000000" points="433.5,-7 433.5,-28 509.5,-28 509.5,-7 433.5,-7"/>
<text text-anchor="middle" x="471.5" y="-14.4" font-family="Helvetica,sans-Serif" font-size="12.00" fill="#000000">auto_timer.cpp</text>
</a>
</g>
</g>
<!-- Node12&#45;&gt;Node13 -->
<g id="edge18" class="edge">
<title>Node12&#45;&gt;Node13</title>
<path fill="none" stroke="#191970" d="M471.5,-61.3076C471.5,-50.3587 471.5,-37.3615 471.5,-28.3823"/>
<polygon fill="#191970" stroke="#191970" points="468.0001,-61.3491 471.5,-71.3491 475.0001,-61.3492 468.0001,-61.3491"/>
</g>
<!-- Node12&#45;&gt;Node14 -->
<g id="edge19" class="edge">
<title>Node12&#45;&gt;Node14</title>
<path fill="none" stroke="#191970" d="M522.4726,-68.9086C554.8505,-60.199 597.4818,-48.0015 634.5,-35 640.3133,-32.9583 646.4832,-30.5361 652.2527,-28.1549"/>
<polygon fill="#191970" stroke="#191970" points="521.531,-65.5373 512.771,-71.4966 523.3353,-72.3008 521.531,-65.5373"/>
</g>
<!-- Node12&#45;&gt;Node15 -->
<g id="edge20" class="edge">
<title>Node12&#45;&gt;Node15</title>
<path fill="none" stroke="#191970" d="M497.4258,-66.0742C516.6504,-54.2648 542.3316,-38.4892 559.1356,-28.1667"/>
<polygon fill="#191970" stroke="#191970" points="495.5274,-63.1326 488.8386,-71.3491 499.1914,-69.0972 495.5274,-63.1326"/>
</g>
</g>
</svg>
