<?xml version="1.0" encoding="UTF-8" standalone="no"?>
<!DOCTYPE svg PUBLIC "-//W3C//DTD SVG 1.1//EN"
 "http://www.w3.org/Graphics/SVG/1.1/DTD/svg11.dtd">
<!-- Generated by graphviz version 2.40.1 (20161225.0304)
 -->
<!-- Title: timemory/mpi.hpp Pages: 1 -->
<!--zoomable 391 -->
<svg id="main" version="1.1" xmlns="http://www.w3.org/2000/svg" xmlns:xlink="http://www.w3.org/1999/xlink" xml:space="preserve" onload="init(evt)">
<style type="text/css"><![CDATA[
.edge:hover path { stroke: red; }
.edge:hover polygon { stroke: red; fill: red; }
]]></style>
<script type="text/javascript"><![CDATA[
var edges = document.getElementsByTagName('g');
if (edges && edges.length) {
  for (var i=0;i<edges.length;i++) {
    if (edges[i].id.substr(0,4)=='edge') {
      edges[i].setAttribute('class','edge');
    }
  }
}
]]></script>
        <defs>
                <circle id="rim" cx="0" cy="0" r="7"/>
                <circle id="rim2" cx="0" cy="0" r="3.5"/>
                <g id="zoomPlus">
                        <use xlink:href="#rim" fill="#404040">
                                <set attributeName="fill" to="#808080" begin="zoomplus.mouseover" end="zoomplus.mouseout"/>
                        </use>
                        <path d="M-4,0h8M0,-4v8" fill="none" stroke="white" stroke-width="1.5" pointer-events="none"/>
                </g>
                <g id="zoomMin">
                        <use xlink:href="#rim" fill="#404040">
                                <set attributeName="fill" to="#808080" begin="zoomminus.mouseover" end="zoomminus.mouseout"/>
                        </use>
                        <path d="M-4,0h8" fill="none" stroke="white" stroke-width="1.5" pointer-events="none"/>
                </g>
                <g id="dirArrow">
                        <path fill="none" stroke="white" stroke-width="1.5" d="M0,-3.0v7 M-2.5,-0.5L0,-3.0L2.5,-0.5"/>
                </g>
               <g id="resetDef">
                       <use xlink:href="#rim2" fill="#404040">
                               <set attributeName="fill" to="#808080" begin="reset.mouseover" end="reset.mouseout"/>
                       </use>
               </g>
        </defs>

<script type="text/javascript">
var viewWidth = 723;
var viewHeight = 391;
var sectionId = 'dynsection-1';
</script>
<script xlink:href="../../svgpan.js"/>
<svg id="graph" class="graph">
<g id="viewport">
<title>timemory/mpi.hpp</title>
<polygon fill="#ffffff" stroke="transparent" points="-4,4 -4,-387 718.5,-387 718.5,4 -4,4"/>
<!-- Node3 -->
<g id="node1" class="node">
<title>Node3</title>
<polygon fill="#bfbfbf" stroke="#000000" points="207.5,-361.5 207.5,-382.5 295.5,-382.5 295.5,-361.5 207.5,-361.5"/>
<text text-anchor="middle" x="251.5" y="-368.9" font-family="Helvetica,sans-Serif" font-size="12.00" fill="#000000">timemory/mpi.hpp</text>
</g>
<!-- Node4 -->
<g id="node2" class="node">
<title>Node4</title>
<g id="a_node2"><a xlink:href="../../dd/d0a/mpi__test__timing_8cpp.html" target="_top" xlink:title="examples/ex2/mpi_test\l_timing.cpp">
<polygon fill="#ffffff" stroke="#000000" points="0,-.5 0,-34.5 109,-34.5 109,-.5 0,-.5"/>
<text text-anchor="start" x="8" y="-20.9" font-family="Helvetica,sans-Serif" font-size="12.00" fill="#000000">examples/ex2/mpi_test</text>
<text text-anchor="middle" x="54.5" y="-7.9" font-family="Helvetica,sans-Serif" font-size="12.00" fill="#000000">_timing.cpp</text>
</a>
</g>
</g>
<!-- Node3&#45;&gt;Node4 -->
<g id="edge1" class="edge">
<title>Node3&#45;&gt;Node4</title>
<path fill="none" stroke="#191970" d="M197.5624,-361.8876C143.2675,-348.2205 67.5,-318.0348 67.5,-256 67.5,-256 67.5,-256 67.5,-140 67.5,-102.3593 61.3555,-58.5741 57.5151,-34.8843"/>
<polygon fill="#191970" stroke="#191970" points="196.8871,-365.3248 207.4274,-364.2513 198.5182,-358.5175 196.8871,-365.3248"/>
</g>
<!-- Node5 -->
<g id="node3" class="node">
<title>Node5</title>
<g id="a_node3"><a xlink:href="../../da/d8e/signal__detection_8hpp.html" target="_top" xlink:title="timemory/signal_detection.hpp">
<polygon fill="#ffffff" stroke="#000000" points="315,-303.5 315,-324.5 454,-324.5 454,-303.5 315,-303.5"/>
<text text-anchor="middle" x="384.5" y="-310.9" font-family="Helvetica,sans-Serif" font-size="12.00" fill="#000000">timemory/signal_detection.hpp</text>
</a>
</g>
</g>
<!-- Node3&#45;&gt;Node5 -->
<g id="edge2" class="edge">
<title>Node3&#45;&gt;Node5</title>
<path fill="none" stroke="#191970" d="M284.7972,-357.4794C308.2097,-347.2695 339.008,-333.8386 360.1444,-324.6212"/>
<polygon fill="#191970" stroke="#191970" points="283.3525,-354.291 275.5853,-361.4966 286.1507,-360.7075 283.3525,-354.291"/>
</g>
<!-- Node11 -->
<g id="node9" class="node">
<title>Node11</title>
<g id="a_node9"><a xlink:href="../../df/df2/timing__manager_8hpp.html" target="_top" xlink:title="timemory/timing_manager.hpp">
<polygon fill="#ffffff" stroke="#000000" points="255.5,-129.5 255.5,-150.5 393.5,-150.5 393.5,-129.5 255.5,-129.5"/>
<text text-anchor="middle" x="324.5" y="-136.9" font-family="Helvetica,sans-Serif" font-size="12.00" fill="#000000">timemory/timing_manager.hpp</text>
</a>
</g>
</g>
<!-- Node3&#45;&gt;Node11 -->
<g id="edge26" class="edge">
<title>Node3&#45;&gt;Node11</title>
<path fill="none" stroke="#191970" d="M257.9074,-351.6367C272.8984,-303.994 309.8423,-186.5835 321.1541,-150.6335"/>
<polygon fill="#191970" stroke="#191970" points="254.4893,-350.8391 254.8264,-361.4286 261.1665,-352.9402 254.4893,-350.8391"/>
</g>
<!-- Node14 -->
<g id="node12" class="node">
<title>Node14</title>
<g id="a_node12"><a xlink:href="../../d2/dfd/timemory_8cc.html" target="_top" xlink:title="timemory.cc">
<polygon fill="#ffffff" stroke="#000000" points="644,-7 644,-28 709,-28 709,-7 644,-7"/>
<text text-anchor="middle" x="676.5" y="-14.4" font-family="Helvetica,sans-Serif" font-size="12.00" fill="#000000">timemory.cc</text>
</a>
</g>
</g>
<!-- Node3&#45;&gt;Node14 -->
<g id="edge27" class="edge">
<title>Node3&#45;&gt;Node14</title>
<path fill="none" stroke="#191970" d="M306.1785,-369.7832C428.683,-363.3281 714.5,-339.3377 714.5,-256 714.5,-256 714.5,-256 714.5,-140 714.5,-97.0245 692.9018,-49.2221 682.2714,-28.297"/>
<polygon fill="#191970" stroke="#191970" points="305.7046,-366.3026 295.8944,-370.304 306.0586,-373.2937 305.7046,-366.3026"/>
</g>
<!-- Node5&#45;&gt;Node4 -->
<g id="edge4" class="edge">
<title>Node5&#45;&gt;Node4</title>
<path fill="none" stroke="#191970" d="M317.8661,-301.3945C276.046,-292.4905 226.8624,-279.8904 209.5,-267 166.2022,-234.8542 88.6505,-85.5256 62.9974,-34.5819"/>
<polygon fill="#191970" stroke="#191970" points="317.2573,-304.8429 327.7619,-303.463 318.6895,-297.9909 317.2573,-304.8429"/>
</g>
<!-- Node6 -->
<g id="node4" class="node">
<title>Node6</title>
<g id="a_node4"><a xlink:href="../../d0/d90/ex1_2test__timing_8cpp.html" target="_top" xlink:title="examples/ex1/test_timing.cpp">
<polygon fill="#ffffff" stroke="#000000" points="127,-7 127,-28 262,-28 262,-7 127,-7"/>
<text text-anchor="middle" x="194.5" y="-14.4" font-family="Helvetica,sans-Serif" font-size="12.00" fill="#000000">examples/ex1/test_timing.cpp</text>
</a>
</g>
</g>
<!-- Node5&#45;&gt;Node6 -->
<g id="edge3" class="edge">
<title>Node5&#45;&gt;Node6</title>
<path fill="none" stroke="#191970" d="M314.6794,-300.8763C260.4818,-286.175 194.5,-256.3043 194.5,-198 194.5,-198 194.5,-198 194.5,-140 194.5,-98.7413 194.5,-49.6661 194.5,-28.3152"/>
<polygon fill="#191970" stroke="#191970" points="314.0862,-304.3378 324.6436,-303.4483 315.8357,-297.56 314.0862,-304.3378"/>
</g>
<!-- Node7 -->
<g id="node5" class="node">
<title>Node7</title>
<g id="a_node5"><a xlink:href="../../d2/dc1/ex3_2test__timing_8cpp.html" target="_top" xlink:title="examples/ex3/test_timing.cpp">
<polygon fill="#ffffff" stroke="#000000" points="491,-7 491,-28 626,-28 626,-7 491,-7"/>
<text text-anchor="middle" x="558.5" y="-14.4" font-family="Helvetica,sans-Serif" font-size="12.00" fill="#000000">examples/ex3/test_timing.cpp</text>
</a>
</g>
</g>
<!-- Node5&#45;&gt;Node7 -->
<g id="edge5" class="edge">
<title>Node5&#45;&gt;Node7</title>
<path fill="none" stroke="#191970" d="M388.7219,-293.2518C392.0034,-279.224 397.228,-260.5032 404.5,-245 447.0345,-154.3211 523.4144,-59.3247 549.4901,-28.1131"/>
<polygon fill="#191970" stroke="#191970" points="385.232,-292.8265 386.5047,-303.3446 392.0689,-294.3285 385.232,-292.8265"/>
</g>
<!-- Node8 -->
<g id="node6" class="node">
<title>Node8</title>
<g id="a_node6"><a xlink:href="../../d6/d01/base__timer_8hpp.html" target="_top" xlink:title="timemory/base_timer.hpp">
<polygon fill="#ffffff" stroke="#000000" points="530.5,-245.5 530.5,-266.5 648.5,-266.5 648.5,-245.5 530.5,-245.5"/>
<text text-anchor="middle" x="589.5" y="-252.9" font-family="Helvetica,sans-Serif" font-size="12.00" fill="#000000">timemory/base_timer.hpp</text>
</a>
</g>
</g>
<!-- Node5&#45;&gt;Node8 -->
<g id="edge6" class="edge">
<title>Node5&#45;&gt;Node8</title>
<path fill="none" stroke="#191970" d="M431.5809,-300.6795C468.2425,-290.307 518.4295,-276.1078 552.3064,-266.5231"/>
<polygon fill="#191970" stroke="#191970" points="430.2934,-297.4064 421.624,-303.4966 432.1991,-304.142 430.2934,-297.4064"/>
</g>
<!-- Node5&#45;&gt;Node14 -->
<g id="edge25" class="edge">
<title>Node5&#45;&gt;Node14</title>
<path fill="none" stroke="#191970" d="M464.4232,-309.6023C534.6099,-304.1085 629.7337,-292.1649 657.5,-267 681.0686,-245.6395 676.5,-229.8081 676.5,-198 676.5,-198 676.5,-198 676.5,-140 676.5,-98.7413 676.5,-49.6661 676.5,-28.3152"/>
<polygon fill="#191970" stroke="#191970" points="463.9689,-306.1265 454.2597,-310.3669 464.4941,-313.1068 463.9689,-306.1265"/>
</g>
<!-- Node17 -->
<g id="node15" class="node">
<title>Node17</title>
<g id="a_node15"><a xlink:href="../../dc/d43/signal__detection_8cpp.html" target="_top" xlink:title="signal_detection.cpp">
<polygon fill="#ffffff" stroke="#000000" points="413,-245.5 413,-266.5 512,-266.5 512,-245.5 413,-245.5"/>
<text text-anchor="middle" x="462.5" y="-252.9" font-family="Helvetica,sans-Serif" font-size="12.00" fill="#000000">signal_detection.cpp</text>
</a>
</g>
</g>
<!-- Node5&#45;&gt;Node17 -->
<g id="edge24" class="edge">
<title>Node5&#45;&gt;Node17</title>
<path fill="none" stroke="#191970" d="M407.0142,-297.2587C420.3207,-287.3641 436.7652,-275.1361 448.2843,-266.5707"/>
<polygon fill="#191970" stroke="#191970" points="404.7426,-294.5862 398.8064,-303.3619 408.9195,-300.2035 404.7426,-294.5862"/>
</g>
<!-- Node9 -->
<g id="node7" class="node">
<title>Node9</title>
<g id="a_node7"><a xlink:href="../../dd/d84/base__timer_8cpp.html" target="_top" xlink:title="base_timer.cpp">
<polygon fill="#ffffff" stroke="#000000" points="570.5,-187.5 570.5,-208.5 648.5,-208.5 648.5,-187.5 570.5,-187.5"/>
<text text-anchor="middle" x="609.5" y="-194.9" font-family="Helvetica,sans-Serif" font-size="12.00" fill="#000000">base_timer.cpp</text>
</a>
</g>
</g>
<!-- Node8&#45;&gt;Node9 -->
<g id="edge7" class="edge">
<title>Node8&#45;&gt;Node9</title>
<path fill="none" stroke="#191970" d="M596.4711,-235.7838C599.6321,-226.617 603.2389,-216.1572 605.8549,-208.5707"/>
<polygon fill="#191970" stroke="#191970" points="593.1195,-234.7672 593.1683,-245.3619 599.7371,-237.0492 593.1195,-234.7672"/>
</g>
<!-- Node10 -->
<g id="node8" class="node">
<title>Node10</title>
<g id="a_node8"><a xlink:href="../../df/d05/timer_8hpp.html" target="_top" xlink:title="timemory/timer.hpp">
<polygon fill="#ffffff" stroke="#000000" points="458.5,-187.5 458.5,-208.5 552.5,-208.5 552.5,-187.5 458.5,-187.5"/>
<text text-anchor="middle" x="505.5" y="-194.9" font-family="Helvetica,sans-Serif" font-size="12.00" fill="#000000">timemory/timer.hpp</text>
</a>
</g>
</g>
<!-- Node8&#45;&gt;Node10 -->
<g id="edge8" class="edge">
<title>Node8&#45;&gt;Node10</title>
<path fill="none" stroke="#191970" d="M565.6624,-239.5407C551.2617,-229.5973 533.3325,-217.2177 520.8092,-208.5707"/>
<polygon fill="#191970" stroke="#191970" points="563.8754,-242.5601 574.0931,-245.3619 567.8528,-236.7998 563.8754,-242.5601"/>
</g>
<!-- Node10&#45;&gt;Node11 -->
<g id="edge9" class="edge">
<title>Node10&#45;&gt;Node11</title>
<path fill="none" stroke="#191970" d="M463.0984,-184.4127C430.8051,-174.0646 386.9944,-160.0258 357.3392,-150.5231"/>
<polygon fill="#191970" stroke="#191970" points="462.1312,-187.7781 472.7223,-187.4966 464.2673,-181.1119 462.1312,-187.7781"/>
</g>
<!-- Node10&#45;&gt;Node14 -->
<g id="edge22" class="edge">
<title>Node10&#45;&gt;Node14</title>
<path fill="none" stroke="#191970" d="M522.9224,-179.6097C558.3312,-142.2337 637.7478,-58.4051 666.1524,-28.4224"/>
<polygon fill="#191970" stroke="#191970" points="520.0214,-177.5828 515.6847,-187.2495 525.103,-182.397 520.0214,-177.5828"/>
</g>
<!-- Node16 -->
<g id="node14" class="node">
<title>Node16</title>
<g id="a_node14"><a xlink:href="../../dc/de5/timer_8cpp.html" target="_top" xlink:title="timer.cpp">
<polygon fill="#ffffff" stroke="#000000" points="584.5,-129.5 584.5,-150.5 638.5,-150.5 638.5,-129.5 584.5,-129.5"/>
<text text-anchor="middle" x="611.5" y="-136.9" font-family="Helvetica,sans-Serif" font-size="12.00" fill="#000000">timer.cpp</text>
</a>
</g>
</g>
<!-- Node10&#45;&gt;Node16 -->
<g id="edge23" class="edge">
<title>Node10&#45;&gt;Node16</title>
<path fill="none" stroke="#191970" d="M533.7956,-182.5175C552.2516,-172.4189 575.8562,-159.5032 592.1812,-150.5707"/>
<polygon fill="#191970" stroke="#191970" points="532.0346,-179.4913 524.942,-187.3619 535.3947,-185.6322 532.0346,-179.4913"/>
</g>
<!-- Node11&#45;&gt;Node4 -->
<g id="edge11" class="edge">
<title>Node11&#45;&gt;Node4</title>
<path fill="none" stroke="#191970" d="M291.8858,-125.2028C241.6047,-102.3901 145.4122,-58.7472 92.2122,-34.6101"/>
<polygon fill="#191970" stroke="#191970" points="290.4589,-128.3988 301.0116,-129.3432 293.3511,-122.0242 290.4589,-128.3988"/>
</g>
<!-- Node11&#45;&gt;Node6 -->
<g id="edge10" class="edge">
<title>Node11&#45;&gt;Node6</title>
<path fill="none" stroke="#191970" d="M305.5432,-122.1369C278.1029,-96.2797 228.162,-49.2199 205.8252,-28.1718"/>
<polygon fill="#191970" stroke="#191970" points="303.2851,-124.8182 312.9634,-129.1289 308.0858,-119.7236 303.2851,-124.8182"/>
</g>
<!-- Node11&#45;&gt;Node7 -->
<g id="edge12" class="edge">
<title>Node11&#45;&gt;Node7</title>
<path fill="none" stroke="#191970" d="M357.2387,-125.1251C376.6554,-116.1379 401.6616,-104.2746 423.5,-93 465.9733,-71.0721 514.6492,-43.1365 540.3681,-28.1489"/>
<polygon fill="#191970" stroke="#191970" points="355.5374,-122.0553 347.9182,-129.4173 358.4654,-128.4135 355.5374,-122.0553"/>
</g>
<!-- Node12 -->
<g id="node10" class="node">
<title>Node12</title>
<g id="a_node10"><a xlink:href="../../d8/d07/auto__timer_8hpp.html" target="_top" xlink:title="timemory/auto_timer.hpp">
<polygon fill="#ffffff" stroke="#000000" points="298.5,-71.5 298.5,-92.5 414.5,-92.5 414.5,-71.5 298.5,-71.5"/>
<text text-anchor="middle" x="356.5" y="-78.9" font-family="Helvetica,sans-Serif" font-size="12.00" fill="#000000">timemory/auto_timer.hpp</text>
</a>
</g>
</g>
<!-- Node11&#45;&gt;Node12 -->
<g id="edge13" class="edge">
<title>Node11&#45;&gt;Node12</title>
<path fill="none" stroke="#191970" d="M335.3285,-120.3733C340.4624,-111.0682 346.3922,-100.3204 350.6679,-92.5707"/>
<polygon fill="#191970" stroke="#191970" points="332.1356,-118.9153 330.3693,-129.3619 338.2646,-122.2969 332.1356,-118.9153"/>
</g>
<!-- Node11&#45;&gt;Node14 -->
<g id="edge20" class="edge">
<title>Node11&#45;&gt;Node14</title>
<path fill="none" stroke="#191970" d="M368.4913,-126.3385C429.0909,-107.2498 541.438,-70.8905 635.5,-35 640.9954,-32.9031 646.8415,-30.5089 652.3456,-28.1787"/>
<polygon fill="#191970" stroke="#191970" points="367.3551,-123.0267 358.8638,-129.3629 369.4531,-129.7049 367.3551,-123.0267"/>
</g>
<!-- Node15 -->
<g id="node13" class="node">
<title>Node15</title>
<g id="a_node13"><a xlink:href="../../d9/dad/timing__manager_8cpp.html" target="_top" xlink:title="timing_manager.cpp">
<polygon fill="#ffffff" stroke="#000000" points="280.5,-7 280.5,-28 378.5,-28 378.5,-7 280.5,-7"/>
<text text-anchor="middle" x="329.5" y="-14.4" font-family="Helvetica,sans-Serif" font-size="12.00" fill="#000000">timing_manager.cpp</text>
</a>
</g>
</g>
<!-- Node11&#45;&gt;Node15 -->
<g id="edge21" class="edge">
<title>Node11&#45;&gt;Node15</title>
<path fill="none" stroke="#191970" d="M306.4645,-121.5752C299.7712,-113.4908 292.9683,-103.4643 289.5,-93 286.4238,-83.7187 286.4149,-80.2783 289.5,-71 295.1351,-54.0525 308.4655,-38.1345 318.1937,-28.1404"/>
<polygon fill="#191970" stroke="#191970" points="304.0022,-124.0737 313.2555,-129.2339 309.2397,-119.4296 304.0022,-124.0737"/>
</g>
<!-- Node12&#45;&gt;Node4 -->
<g id="edge15" class="edge">
<title>Node12&#45;&gt;Node4</title>
<path fill="none" stroke="#191970" d="M288.1405,-69.85C240.4182,-61.0389 175.3408,-48.3654 118.5,-35 115.4724,-34.2881 112.3716,-33.5317 109.2466,-32.7481"/>
<polygon fill="#191970" stroke="#191970" points="287.5834,-73.3062 298.0512,-71.6705 288.8481,-66.4214 287.5834,-73.3062"/>
</g>
<!-- Node12&#45;&gt;Node6 -->
<g id="edge14" class="edge">
<title>Node12&#45;&gt;Node6</title>
<path fill="none" stroke="#191970" d="M320.7811,-67.7786C290.5982,-55.7613 248.0561,-38.8233 220.8774,-28.0021"/>
<polygon fill="#191970" stroke="#191970" points="319.526,-71.046 330.1114,-71.4934 322.1154,-64.5425 319.526,-71.046"/>
</g>
<!-- Node12&#45;&gt;Node7 -->
<g id="edge16" class="edge">
<title>Node12&#45;&gt;Node7</title>
<path fill="none" stroke="#191970" d="M399.0973,-68.3984C436.8309,-56.3498 491.1333,-39.0106 525.6097,-28.0021"/>
<polygon fill="#191970" stroke="#191970" points="397.8659,-65.1174 389.4044,-71.4934 399.9952,-71.7857 397.8659,-65.1174"/>
</g>
<!-- Node13 -->
<g id="node11" class="node">
<title>Node13</title>
<g id="a_node11"><a xlink:href="../../d2/d80/auto__timer_8cpp.html" target="_top" xlink:title="auto_timer.cpp">
<polygon fill="#ffffff" stroke="#000000" points="396.5,-7 396.5,-28 472.5,-28 472.5,-7 396.5,-7"/>
<text text-anchor="middle" x="434.5" y="-14.4" font-family="Helvetica,sans-Serif" font-size="12.00" fill="#000000">auto_timer.cpp</text>
</a>
</g>
</g>
<!-- Node12&#45;&gt;Node13 -->
<g id="edge17" class="edge">
<title>Node12&#45;&gt;Node13</title>
<path fill="none" stroke="#191970" d="M377.1302,-64.9404C391.2422,-53.2709 409.5131,-38.1622 421.6008,-28.1667"/>
<polygon fill="#191970" stroke="#191970" points="374.8562,-62.2792 369.3801,-71.3491 379.317,-67.6737 374.8562,-62.2792"/>
</g>
<!-- Node12&#45;&gt;Node14 -->
<g id="edge18" class="edge">
<title>Node12&#45;&gt;Node14</title>
<path fill="none" stroke="#191970" d="M424.5694,-75.0939C481.6931,-68.2203 565.0205,-55.6607 635.5,-35 641.7385,-33.1712 648.2973,-30.6584 654.2945,-28.1074"/>
<polygon fill="#191970" stroke="#191970" points="424.094,-71.6256 414.5719,-76.271 424.9126,-78.5776 424.094,-71.6256"/>
</g>
<!-- Node12&#45;&gt;Node15 -->
<g id="edge19" class="edge">
<title>Node12&#45;&gt;Node15</title>
<path fill="none" stroke="#191970" d="M348.1234,-61.9892C343.4822,-50.9019 337.8924,-37.5485 334.0554,-28.3823"/>
<polygon fill="#191970" stroke="#191970" points="344.9515,-63.4762 352.0415,-71.3491 351.4086,-60.7732 344.9515,-63.4762"/>
</g>
</g>
</svg>
        <g id="navigator" transform="translate(0 0)" fill="#404254">
                <rect fill="#f2f5e9" fill-opacity="0.5" stroke="#606060" stroke-width=".5" x="0" y="0" width="60" height="60"/>
                <use id="zoomplus" xlink:href="#zoomPlus" x="17" y="9" onmousedown="handleZoom(evt,'in')"/>
                <use id="zoomminus" xlink:href="#zoomMin" x="42" y="9" onmousedown="handleZoom(evt,'out')"/>
                <use id="reset" xlink:href="#resetDef" x="30" y="36" onmousedown="handleReset()"/>
                <g id="arrowUp" xlink:href="#dirArrow" transform="translate(30 24)" onmousedown="handlePan(0,-1)">
                  <use xlink:href="#rim" fill="#404040">
                        <set attributeName="fill" to="#808080" begin="arrowUp.mouseover" end="arrowUp.mouseout"/>
                  </use>
                  <path fill="none" stroke="white" stroke-width="1.5" d="M0,-3.0v7 M-2.5,-0.5L0,-3.0L2.5,-0.5"/>
                </g>
                <g id="arrowRight" xlink:href="#dirArrow" transform="rotate(90) translate(36 -43)" onmousedown="handlePan(1,0)">
                  <use xlink:href="#rim" fill="#404040">
                        <set attributeName="fill" to="#808080" begin="arrowRight.mouseover" end="arrowRight.mouseout"/>
                  </use>
                  <path fill="none" stroke="white" stroke-width="1.5" d="M0,-3.0v7 M-2.5,-0.5L0,-3.0L2.5,-0.5"/>
                </g>
                <g id="arrowDown" xlink:href="#dirArrow" transform="rotate(180) translate(-30 -48)" onmousedown="handlePan(0,1)">
                  <use xlink:href="#rim" fill="#404040">
                        <set attributeName="fill" to="#808080" begin="arrowDown.mouseover" end="arrowDown.mouseout"/>
                  </use>
                  <path fill="none" stroke="white" stroke-width="1.5" d="M0,-3.0v7 M-2.5,-0.5L0,-3.0L2.5,-0.5"/>
                </g>
                <g id="arrowLeft" xlink:href="#dirArrow" transform="rotate(270) translate(-36 17)" onmousedown="handlePan(-1,0)">
                  <use xlink:href="#rim" fill="#404040">
                        <set attributeName="fill" to="#808080" begin="arrowLeft.mouseover" end="arrowLeft.mouseout"/>
                  </use>
                  <path fill="none" stroke="white" stroke-width="1.5" d="M0,-3.0v7 M-2.5,-0.5L0,-3.0L2.5,-0.5"/>
                </g>
        </g>
        <svg viewBox="0 0 15 15" width="100%" height="30px" preserveAspectRatio="xMaxYMin meet">
         <g id="arrow_out" transform="scale(0.3 0.3)">
          <a xlink:href="mpi_8hpp__dep__incl_org.svg" target="_base">
           <rect id="button" ry="5" rx="5" y="6" x="6" height="38" width="38"
                fill="#f2f5e9" fill-opacity="0.5" stroke="#606060" stroke-width="1.0"/>
           <path id="arrow"
             d="M 11.500037,31.436501 C 11.940474,20.09759 22.043105,11.32322 32.158766,21.979434 L 37.068811,17.246167 C 37.068811,17.246167 37.088388,32 37.088388,32 L 22.160133,31.978069 C 22.160133,31.978069 26.997745,27.140456 26.997745,27.140456 C 18.528582,18.264221 13.291696,25.230495 11.500037,31.436501 z"
             style="fill:#404040;"/>
          </a>
         </g>
        </svg>
</svg>
