<?xml version="1.0" encoding="UTF-8" standalone="no"?>
<!DOCTYPE svg PUBLIC "-//W3C//DTD SVG 1.1//EN"
 "http://www.w3.org/Graphics/SVG/1.1/DTD/svg11.dtd">
<!-- Generated by graphviz version 2.40.1 (20161225.0304)
 -->
<!-- Title: timemory/mpi.hpp Pages: 1 -->
<!--zoomable 391 -->
<svg id="main" version="1.1" xmlns="http://www.w3.org/2000/svg" xmlns:xlink="http://www.w3.org/1999/xlink" xml:space="preserve" onload="init(evt)">
<style type="text/css"><![CDATA[
.edge:hover path { stroke: red; }
.edge:hover polygon { stroke: red; fill: red; }
]]></style>
<script type="text/javascript"><![CDATA[
var edges = document.getElementsByTagName('g');
if (edges && edges.length) {
  for (var i=0;i<edges.length;i++) {
    if (edges[i].id.substr(0,4)=='edge') {
      edges[i].setAttribute('class','edge');
    }
  }
}
]]></script>
        <defs>
                <circle id="rim" cx="0" cy="0" r="7"/>
                <circle id="rim2" cx="0" cy="0" r="3.5"/>
                <g id="zoomPlus">
                        <use xlink:href="#rim" fill="#404040">
                                <set attributeName="fill" to="#808080" begin="zoomplus.mouseover" end="zoomplus.mouseout"/>
                        </use>
                        <path d="M-4,0h8M0,-4v8" fill="none" stroke="white" stroke-width="1.5" pointer-events="none"/>
                </g>
                <g id="zoomMin">
                        <use xlink:href="#rim" fill="#404040">
                                <set attributeName="fill" to="#808080" begin="zoomminus.mouseover" end="zoomminus.mouseout"/>
                        </use>
                        <path d="M-4,0h8" fill="none" stroke="white" stroke-width="1.5" pointer-events="none"/>
                </g>
                <g id="dirArrow">
                        <path fill="none" stroke="white" stroke-width="1.5" d="M0,-3.0v7 M-2.5,-0.5L0,-3.0L2.5,-0.5"/>
                </g>
               <g id="resetDef">
                       <use xlink:href="#rim2" fill="#404040">
                               <set attributeName="fill" to="#808080" begin="reset.mouseover" end="reset.mouseout"/>
                       </use>
               </g>
        </defs>

<script type="text/javascript">
var viewWidth = 688;
var viewHeight = 391;
var sectionId = 'dynsection-1';
</script>
<script xlink:href="../../svgpan.js"/>
<svg id="graph" class="graph">
<g id="viewport">
<title>timemory/mpi.hpp</title>
<polygon fill="#ffffff" stroke="transparent" points="-4,4 -4,-387 684,-387 684,4 -4,4"/>
<!-- Node3 -->
<g id="node1" class="node">
<title>Node3</title>
<polygon fill="#bfbfbf" stroke="#000000" points="114.5,-361.5 114.5,-382.5 202.5,-382.5 202.5,-361.5 114.5,-361.5"/>
<text text-anchor="middle" x="158.5" y="-368.9" font-family="Helvetica,sans-Serif" font-size="12.00" fill="#000000">timemory/mpi.hpp</text>
</g>
<!-- Node4 -->
<g id="node2" class="node">
<title>Node4</title>
<g id="a_node2"><a xlink:href="../../d0/d90/ex1_2test__timing_8cpp.html" target="_top" xlink:title="examples/ex1/test_timing.cpp">
<polygon fill="#ffffff" stroke="#000000" points="0,-7 0,-28 135,-28 135,-7 0,-7"/>
<text text-anchor="middle" x="67.5" y="-14.4" font-family="Helvetica,sans-Serif" font-size="12.00" fill="#000000">examples/ex1/test_timing.cpp</text>
</a>
</g>
</g>
<!-- Node3&#45;&gt;Node4 -->
<g id="edge1" class="edge">
<title>Node3&#45;&gt;Node4</title>
<path fill="none" stroke="#191970" d="M135.2769,-355.1742C110.1099,-334.7971 73.5,-297.9462 73.5,-256 73.5,-256 73.5,-256 73.5,-140 73.5,-98.6919 70.0543,-49.6421 68.3853,-28.3065"/>
<polygon fill="#191970" stroke="#191970" points="133.2665,-358.0449 143.3037,-361.4368 137.5724,-352.5259 133.2665,-358.0449"/>
</g>
<!-- Node5 -->
<g id="node3" class="node">
<title>Node5</title>
<g id="a_node3"><a xlink:href="../../dd/d0a/mpi__test__timing_8cpp.html" target="_top" xlink:title="examples/ex2/mpi_test\l_timing.cpp">
<polygon fill="#ffffff" stroke="#000000" points="153,-.5 153,-34.5 262,-34.5 262,-.5 153,-.5"/>
<text text-anchor="start" x="161" y="-20.9" font-family="Helvetica,sans-Serif" font-size="12.00" fill="#000000">examples/ex2/mpi_test</text>
<text text-anchor="middle" x="207.5" y="-7.9" font-family="Helvetica,sans-Serif" font-size="12.00" fill="#000000">_timing.cpp</text>
</a>
</g>
</g>
<!-- Node3&#45;&gt;Node5 -->
<g id="edge2" class="edge">
<title>Node3&#45;&gt;Node5</title>
<path fill="none" stroke="#191970" d="M161.3562,-351.3361C170.1938,-287.3992 196.9858,-93.5669 205.1278,-34.6619"/>
<polygon fill="#191970" stroke="#191970" points="157.8687,-351.0054 159.9665,-361.3905 164.8028,-351.964 157.8687,-351.0054"/>
</g>
<!-- Node6 -->
<g id="node4" class="node">
<title>Node6</title>
<g id="a_node4"><a xlink:href="../../da/d04/manager_8hpp.html" target="_top" xlink:title="timemory/manager.hpp">
<polygon fill="#ffffff" stroke="#000000" points="263,-129.5 263,-150.5 372,-150.5 372,-129.5 263,-129.5"/>
<text text-anchor="middle" x="317.5" y="-136.9" font-family="Helvetica,sans-Serif" font-size="12.00" fill="#000000">timemory/manager.hpp</text>
</a>
</g>
</g>
<!-- Node3&#45;&gt;Node6 -->
<g id="edge3" class="edge">
<title>Node3&#45;&gt;Node6</title>
<path fill="none" stroke="#191970" d="M171.4408,-353.1178C203.4073,-306.4748 285.3149,-186.9619 310.2124,-150.6335"/>
<polygon fill="#191970" stroke="#191970" points="168.5113,-351.2012 165.7451,-361.4286 174.2854,-355.1585 168.5113,-351.2012"/>
</g>
<!-- Node11 -->
<g id="node9" class="node">
<title>Node11</title>
<g id="a_node9"><a xlink:href="../../d2/dfd/timemory_8cc.html" target="_top" xlink:title="timemory.cc">
<polygon fill="#ffffff" stroke="#000000" points="615,-7 615,-28 680,-28 680,-7 615,-7"/>
<text text-anchor="middle" x="647.5" y="-14.4" font-family="Helvetica,sans-Serif" font-size="12.00" fill="#000000">timemory.cc</text>
</a>
</g>
</g>
<!-- Node3&#45;&gt;Node11 -->
<g id="edge27" class="edge">
<title>Node3&#45;&gt;Node11</title>
<path fill="none" stroke="#191970" d="M212.9674,-370.4935C340.2538,-365.4974 646.5,-344.3015 646.5,-256 646.5,-256 646.5,-256 646.5,-140 646.5,-98.7399 647.0743,-49.6654 647.3524,-28.315"/>
<polygon fill="#191970" stroke="#191970" points="212.53,-367.0073 202.6674,-370.8776 212.791,-374.0024 212.53,-367.0073"/>
</g>
<!-- Node12 -->
<g id="node10" class="node">
<title>Node12</title>
<g id="a_node10"><a xlink:href="../../da/d8e/signal__detection_8hpp.html" target="_top" xlink:title="timemory/signal_detection.hpp">
<polygon fill="#ffffff" stroke="#000000" points="243,-303.5 243,-324.5 382,-324.5 382,-303.5 243,-303.5"/>
<text text-anchor="middle" x="312.5" y="-310.9" font-family="Helvetica,sans-Serif" font-size="12.00" fill="#000000">timemory/signal_detection.hpp</text>
</a>
</g>
</g>
<!-- Node3&#45;&gt;Node12 -->
<g id="edge15" class="edge">
<title>Node3&#45;&gt;Node12</title>
<path fill="none" stroke="#191970" d="M196.0063,-357.8742C223.3343,-347.5819 259.763,-333.862 284.5595,-324.5231"/>
<polygon fill="#191970" stroke="#191970" points="194.5129,-354.6966 186.3882,-361.4966 196.9801,-361.2474 194.5129,-354.6966"/>
</g>
<!-- Node6&#45;&gt;Node4 -->
<g id="edge4" class="edge">
<title>Node6&#45;&gt;Node4</title>
<path fill="none" stroke="#191970" d="M286.4586,-124.7897C235.0105,-99.5801 133.3538,-49.7684 89.0202,-28.0449"/>
<polygon fill="#191970" stroke="#191970" points="285.2315,-128.086 295.7515,-129.3432 288.3116,-121.8 285.2315,-128.086"/>
</g>
<!-- Node6&#45;&gt;Node5 -->
<g id="edge5" class="edge">
<title>Node6&#45;&gt;Node5</title>
<path fill="none" stroke="#191970" d="M300.9504,-121.5697C279.833,-98.0526 243.5816,-57.6817 222.987,-34.7469"/>
<polygon fill="#191970" stroke="#191970" points="298.4528,-124.0269 307.7382,-129.1289 303.6611,-119.35 298.4528,-124.0269"/>
</g>
<!-- Node7 -->
<g id="node5" class="node">
<title>Node7</title>
<g id="a_node5"><a xlink:href="../../d8/d07/auto__timer_8hpp.html" target="_top" xlink:title="timemory/auto_timer.hpp">
<polygon fill="#ffffff" stroke="#000000" points="342.5,-71.5 342.5,-92.5 458.5,-92.5 458.5,-71.5 342.5,-71.5"/>
<text text-anchor="middle" x="400.5" y="-78.9" font-family="Helvetica,sans-Serif" font-size="12.00" fill="#000000">timemory/auto_timer.hpp</text>
</a>
</g>
</g>
<!-- Node6&#45;&gt;Node7 -->
<g id="edge6" class="edge">
<title>Node6&#45;&gt;Node7</title>
<path fill="none" stroke="#191970" d="M341.0538,-123.5407C355.2831,-113.5973 372.9988,-101.2177 385.373,-92.5707"/>
<polygon fill="#191970" stroke="#191970" points="338.9156,-120.7649 332.7235,-129.3619 342.9253,-126.5028 338.9156,-120.7649"/>
</g>
<!-- Node10 -->
<g id="node8" class="node">
<title>Node10</title>
<g id="a_node8"><a xlink:href="../../d0/db0/manager_8cpp.html" target="_top" xlink:title="manager.cpp">
<polygon fill="#ffffff" stroke="#000000" points="280,-7 280,-28 349,-28 349,-7 280,-7"/>
<text text-anchor="middle" x="314.5" y="-14.4" font-family="Helvetica,sans-Serif" font-size="12.00" fill="#000000">manager.cpp</text>
</a>
</g>
</g>
<!-- Node6&#45;&gt;Node10 -->
<g id="edge13" class="edge">
<title>Node6&#45;&gt;Node10</title>
<path fill="none" stroke="#191970" d="M316.9869,-119.0484C316.3412,-92.683 315.2569,-48.4069 314.7613,-28.1718"/>
<polygon fill="#191970" stroke="#191970" points="313.4899,-119.2177 317.2338,-129.1289 320.4878,-119.0462 313.4899,-119.2177"/>
</g>
<!-- Node6&#45;&gt;Node11 -->
<g id="edge14" class="edge">
<title>Node6&#45;&gt;Node11</title>
<path fill="none" stroke="#191970" d="M364.2102,-126.5665C393.9972,-117.7049 433.291,-105.4668 467.5,-93 530.3939,-70.0795 544.8274,-61.0283 606.5,-35 611.7764,-32.7731 617.4283,-30.3714 622.7976,-28.082"/>
<polygon fill="#191970" stroke="#191970" points="363.0922,-123.2472 354.4941,-129.4378 365.076,-129.9602 363.0922,-123.2472"/>
</g>
<!-- Node7&#45;&gt;Node4 -->
<g id="edge7" class="edge">
<title>Node7&#45;&gt;Node4</title>
<path fill="none" stroke="#191970" d="M332.3438,-70.4049C280.453,-61.3666 207.3207,-48.1764 143.5,-35 133.1572,-32.8646 122.0616,-30.4059 111.6321,-28.0191"/>
<polygon fill="#191970" stroke="#191970" points="331.9784,-73.8937 342.4297,-72.1559 333.1758,-66.9969 331.9784,-73.8937"/>
</g>
<!-- Node7&#45;&gt;Node5 -->
<g id="edge8" class="edge">
<title>Node7&#45;&gt;Node5</title>
<path fill="none" stroke="#191970" d="M359.4934,-68.2957C330.0159,-58.4444 290.0734,-45.0958 258.532,-34.5547"/>
<polygon fill="#191970" stroke="#191970" points="358.4679,-71.6432 369.0617,-71.4934 360.6867,-65.0042 358.4679,-71.6432"/>
</g>
<!-- Node8 -->
<g id="node6" class="node">
<title>Node8</title>
<g id="a_node6"><a xlink:href="../../d2/dc1/ex3_2test__timing_8cpp.html" target="_top" xlink:title="examples/ex3/test_timing.cpp">
<polygon fill="#ffffff" stroke="#000000" points="462,-7 462,-28 597,-28 597,-7 462,-7"/>
<text text-anchor="middle" x="529.5" y="-14.4" font-family="Helvetica,sans-Serif" font-size="12.00" fill="#000000">examples/ex3/test_timing.cpp</text>
</a>
</g>
</g>
<!-- Node7&#45;&gt;Node8 -->
<g id="edge9" class="edge">
<title>Node7&#45;&gt;Node8</title>
<path fill="none" stroke="#191970" d="M430.5171,-66.9915C454.4381,-55.031 487.3219,-38.589 508.4958,-28.0021"/>
<polygon fill="#191970" stroke="#191970" points="428.8922,-63.8907 421.5132,-71.4934 432.0227,-70.1517 428.8922,-63.8907"/>
</g>
<!-- Node9 -->
<g id="node7" class="node">
<title>Node9</title>
<g id="a_node7"><a xlink:href="../../d2/d80/auto__timer_8cpp.html" target="_top" xlink:title="auto_timer.cpp">
<polygon fill="#ffffff" stroke="#000000" points="367.5,-7 367.5,-28 443.5,-28 443.5,-7 367.5,-7"/>
<text text-anchor="middle" x="405.5" y="-14.4" font-family="Helvetica,sans-Serif" font-size="12.00" fill="#000000">auto_timer.cpp</text>
</a>
</g>
</g>
<!-- Node7&#45;&gt;Node9 -->
<g id="edge10" class="edge">
<title>Node7&#45;&gt;Node9</title>
<path fill="none" stroke="#191970" d="M402.1041,-61.3076C402.9528,-50.3587 403.9604,-37.3615 404.6564,-28.3823"/>
<polygon fill="#191970" stroke="#191970" points="398.6091,-61.1085 401.3256,-71.3491 405.5881,-61.6496 398.6091,-61.1085"/>
</g>
<!-- Node7&#45;&gt;Node10 -->
<g id="edge11" class="edge">
<title>Node7&#45;&gt;Node10</title>
<path fill="none" stroke="#191970" d="M378.1889,-65.2666C362.5716,-53.5537 342.1742,-38.2556 328.7222,-28.1667"/>
<polygon fill="#191970" stroke="#191970" points="376.1988,-68.1491 386.2988,-71.3491 380.3988,-62.5491 376.1988,-68.1491"/>
</g>
<!-- Node7&#45;&gt;Node11 -->
<g id="edge12" class="edge">
<title>Node7&#45;&gt;Node11</title>
<path fill="none" stroke="#191970" d="M468.5694,-69.661C509.1129,-61.5259 561.3082,-49.6691 606.5,-35 612.5362,-33.0407 618.9121,-30.541 624.7907,-28.0482"/>
<polygon fill="#191970" stroke="#191970" points="467.6546,-66.2741 458.5241,-71.6486 469.0133,-73.141 467.6546,-66.2741"/>
</g>
<!-- Node12&#45;&gt;Node4 -->
<g id="edge16" class="edge">
<title>Node12&#45;&gt;Node4</title>
<path fill="none" stroke="#191970" d="M281.4444,-298.3966C267.0852,-290.2596 250.3969,-279.412 237.5,-267 155.925,-188.4919 90.9824,-64.8437 72.6794,-28.1203"/>
<polygon fill="#191970" stroke="#191970" points="280.0283,-301.6114 290.4809,-303.3416 283.3887,-295.4707 280.0283,-301.6114"/>
</g>
<!-- Node12&#45;&gt;Node5 -->
<g id="edge17" class="edge">
<title>Node12&#45;&gt;Node5</title>
<path fill="none" stroke="#191970" d="M285.7242,-297.6069C274.6422,-289.611 262.5305,-279.0994 254.5,-267 236.8435,-240.3973 234.5,-229.9289 234.5,-198 234.5,-198 234.5,-198 234.5,-140 234.5,-101.671 221.7383,-58.144 213.7622,-34.6827"/>
<polygon fill="#191970" stroke="#191970" points="284.0622,-300.7103 294.2934,-303.4624 288.0115,-294.9307 284.0622,-300.7103"/>
</g>
<!-- Node12&#45;&gt;Node8 -->
<g id="edge18" class="edge">
<title>Node12&#45;&gt;Node8</title>
<path fill="none" stroke="#191970" d="M392.0732,-302.8824C438.2165,-294.9266 490.4869,-282.8281 507.5,-267 531.0661,-245.0754 529.5,-230.1877 529.5,-198 529.5,-198 529.5,-198 529.5,-140 529.5,-98.7413 529.5,-49.6661 529.5,-28.3152"/>
<polygon fill="#191970" stroke="#191970" points="391.3144,-299.4607 382.0311,-304.5666 392.4723,-306.3643 391.3144,-299.4607"/>
</g>
<!-- Node12&#45;&gt;Node11 -->
<g id="edge26" class="edge">
<title>Node12&#45;&gt;Node11</title>
<path fill="none" stroke="#191970" d="M392.0717,-306.7403C434.6385,-300.448 486.9085,-288.7411 529.5,-267 570.4283,-246.1079 606.5,-243.9522 606.5,-198 606.5,-198 606.5,-198 606.5,-140 606.5,-96.716 629.8034,-49.0703 641.273,-28.241"/>
<polygon fill="#191970" stroke="#191970" points="391.4466,-303.2937 382.0312,-308.1516 392.421,-310.2255 391.4466,-303.2937"/>
</g>
<!-- Node13 -->
<g id="node11" class="node">
<title>Node13</title>
<g id="a_node11"><a xlink:href="../../d6/d01/base__timer_8hpp.html" target="_top" xlink:title="timemory/base_timer.hpp">
<polygon fill="#ffffff" stroke="#000000" points="380.5,-245.5 380.5,-266.5 498.5,-266.5 498.5,-245.5 380.5,-245.5"/>
<text text-anchor="middle" x="439.5" y="-252.9" font-family="Helvetica,sans-Serif" font-size="12.00" fill="#000000">timemory/base_timer.hpp</text>
</a>
</g>
</g>
<!-- Node12&#45;&gt;Node13 -->
<g id="edge19" class="edge">
<title>Node12&#45;&gt;Node13</title>
<path fill="none" stroke="#191970" d="M344.8929,-299.2064C367.1735,-289.031 396.2397,-275.7567 416.2432,-266.6212"/>
<polygon fill="#191970" stroke="#191970" points="343.141,-296.1587 335.4987,-303.4966 346.049,-302.5261 343.141,-296.1587"/>
</g>
<!-- Node17 -->
<g id="node15" class="node">
<title>Node17</title>
<g id="a_node15"><a xlink:href="../../dc/d43/signal__detection_8cpp.html" target="_top" xlink:title="signal_detection.cpp">
<polygon fill="#ffffff" stroke="#000000" points="263,-245.5 263,-266.5 362,-266.5 362,-245.5 263,-245.5"/>
<text text-anchor="middle" x="312.5" y="-252.9" font-family="Helvetica,sans-Serif" font-size="12.00" fill="#000000">signal_detection.cpp</text>
</a>
</g>
</g>
<!-- Node12&#45;&gt;Node17 -->
<g id="edge25" class="edge">
<title>Node12&#45;&gt;Node17</title>
<path fill="none" stroke="#191970" d="M312.5,-293.1906C312.5,-284.1684 312.5,-273.9941 312.5,-266.5707"/>
<polygon fill="#191970" stroke="#191970" points="309.0001,-293.3619 312.5,-303.3619 316.0001,-293.3619 309.0001,-293.3619"/>
</g>
<!-- Node14 -->
<g id="node12" class="node">
<title>Node14</title>
<g id="a_node12"><a xlink:href="../../dd/d84/base__timer_8cpp.html" target="_top" xlink:title="base_timer.cpp">
<polygon fill="#ffffff" stroke="#000000" points="423.5,-187.5 423.5,-208.5 501.5,-208.5 501.5,-187.5 423.5,-187.5"/>
<text text-anchor="middle" x="462.5" y="-194.9" font-family="Helvetica,sans-Serif" font-size="12.00" fill="#000000">base_timer.cpp</text>
</a>
</g>
</g>
<!-- Node13&#45;&gt;Node14 -->
<g id="edge20" class="edge">
<title>Node13&#45;&gt;Node14</title>
<path fill="none" stroke="#191970" d="M447.5168,-235.7838C451.1519,-226.617 455.2997,-216.1572 458.3082,-208.5707"/>
<polygon fill="#191970" stroke="#191970" points="444.1513,-234.7759 443.7186,-245.3619 450.6584,-237.3563 444.1513,-234.7759"/>
</g>
<!-- Node15 -->
<g id="node13" class="node">
<title>Node15</title>
<g id="a_node13"><a xlink:href="../../df/d05/timer_8hpp.html" target="_top" xlink:title="timemory/timer.hpp">
<polygon fill="#ffffff" stroke="#000000" points="311.5,-187.5 311.5,-208.5 405.5,-208.5 405.5,-187.5 311.5,-187.5"/>
<text text-anchor="middle" x="358.5" y="-194.9" font-family="Helvetica,sans-Serif" font-size="12.00" fill="#000000">timemory/timer.hpp</text>
</a>
</g>
</g>
<!-- Node13&#45;&gt;Node15 -->
<g id="edge21" class="edge">
<title>Node13&#45;&gt;Node15</title>
<path fill="none" stroke="#191970" d="M416.1199,-239.2587C402.3016,-229.3641 385.2246,-217.1361 373.2625,-208.5707"/>
<polygon fill="#191970" stroke="#191970" points="414.4751,-242.3857 424.6434,-245.3619 418.5505,-236.6943 414.4751,-242.3857"/>
</g>
<!-- Node15&#45;&gt;Node6 -->
<g id="edge22" class="edge">
<title>Node15&#45;&gt;Node6</title>
<path fill="none" stroke="#191970" d="M345.04,-178.9591C338.369,-169.522 330.5659,-158.4835 324.9724,-150.5707"/>
<polygon fill="#191970" stroke="#191970" points="342.3495,-181.2165 350.98,-187.3619 348.0656,-177.1758 342.3495,-181.2165"/>
</g>
<!-- Node15&#45;&gt;Node11 -->
<g id="edge23" class="edge">
<title>Node15&#45;&gt;Node11</title>
<path fill="none" stroke="#191970" d="M391.6332,-183.04C410.1705,-174.3174 433.5031,-162.7455 453.5,-151 523.6541,-109.794 601.9676,-51.9813 633.3636,-28.2794"/>
<polygon fill="#191970" stroke="#191970" points="390.0094,-179.9352 382.4196,-187.3275 392.9627,-186.2817 390.0094,-179.9352"/>
</g>
<!-- Node16 -->
<g id="node14" class="node">
<title>Node16</title>
<g id="a_node14"><a xlink:href="../../dc/de5/timer_8cpp.html" target="_top" xlink:title="timer.cpp">
<polygon fill="#ffffff" stroke="#000000" points="390.5,-129.5 390.5,-150.5 444.5,-150.5 444.5,-129.5 390.5,-129.5"/>
<text text-anchor="middle" x="417.5" y="-136.9" font-family="Helvetica,sans-Serif" font-size="12.00" fill="#000000">timer.cpp</text>
</a>
</g>
</g>
<!-- Node15&#45;&gt;Node16 -->
<g id="edge24" class="edge">
<title>Node15&#45;&gt;Node16</title>
<path fill="none" stroke="#191970" d="M376.6903,-180.118C386.5375,-170.4377 398.3659,-158.8098 406.7471,-150.5707"/>
<polygon fill="#191970" stroke="#191970" points="373.9991,-177.8556 369.3215,-187.3619 378.9064,-182.8474 373.9991,-177.8556"/>
</g>
</g>
</svg>
        <g id="navigator" transform="translate(0 0)" fill="#404254">
                <rect fill="#f2f5e9" fill-opacity="0.5" stroke="#606060" stroke-width=".5" x="0" y="0" width="60" height="60"/>
                <use id="zoomplus" xlink:href="#zoomPlus" x="17" y="9" onmousedown="handleZoom(evt,'in')"/>
                <use id="zoomminus" xlink:href="#zoomMin" x="42" y="9" onmousedown="handleZoom(evt,'out')"/>
                <use id="reset" xlink:href="#resetDef" x="30" y="36" onmousedown="handleReset()"/>
                <g id="arrowUp" xlink:href="#dirArrow" transform="translate(30 24)" onmousedown="handlePan(0,-1)">
                  <use xlink:href="#rim" fill="#404040">
                        <set attributeName="fill" to="#808080" begin="arrowUp.mouseover" end="arrowUp.mouseout"/>
                  </use>
                  <path fill="none" stroke="white" stroke-width="1.5" d="M0,-3.0v7 M-2.5,-0.5L0,-3.0L2.5,-0.5"/>
                </g>
                <g id="arrowRight" xlink:href="#dirArrow" transform="rotate(90) translate(36 -43)" onmousedown="handlePan(1,0)">
                  <use xlink:href="#rim" fill="#404040">
                        <set attributeName="fill" to="#808080" begin="arrowRight.mouseover" end="arrowRight.mouseout"/>
                  </use>
                  <path fill="none" stroke="white" stroke-width="1.5" d="M0,-3.0v7 M-2.5,-0.5L0,-3.0L2.5,-0.5"/>
                </g>
                <g id="arrowDown" xlink:href="#dirArrow" transform="rotate(180) translate(-30 -48)" onmousedown="handlePan(0,1)">
                  <use xlink:href="#rim" fill="#404040">
                        <set attributeName="fill" to="#808080" begin="arrowDown.mouseover" end="arrowDown.mouseout"/>
                  </use>
                  <path fill="none" stroke="white" stroke-width="1.5" d="M0,-3.0v7 M-2.5,-0.5L0,-3.0L2.5,-0.5"/>
                </g>
                <g id="arrowLeft" xlink:href="#dirArrow" transform="rotate(270) translate(-36 17)" onmousedown="handlePan(-1,0)">
                  <use xlink:href="#rim" fill="#404040">
                        <set attributeName="fill" to="#808080" begin="arrowLeft.mouseover" end="arrowLeft.mouseout"/>
                  </use>
                  <path fill="none" stroke="white" stroke-width="1.5" d="M0,-3.0v7 M-2.5,-0.5L0,-3.0L2.5,-0.5"/>
                </g>
        </g>
        <svg viewBox="0 0 15 15" width="100%" height="30px" preserveAspectRatio="xMaxYMin meet">
         <g id="arrow_out" transform="scale(0.3 0.3)">
          <a xlink:href="mpi_8hpp__dep__incl_org.svg" target="_base">
           <rect id="button" ry="5" rx="5" y="6" x="6" height="38" width="38"
                fill="#f2f5e9" fill-opacity="0.5" stroke="#606060" stroke-width="1.0"/>
           <path id="arrow"
             d="M 11.500037,31.436501 C 11.940474,20.09759 22.043105,11.32322 32.158766,21.979434 L 37.068811,17.246167 C 37.068811,17.246167 37.088388,32 37.088388,32 L 22.160133,31.978069 C 22.160133,31.978069 26.997745,27.140456 26.997745,27.140456 C 18.528582,18.264221 13.291696,25.230495 11.500037,31.436501 z"
             style="fill:#404040;"/>
          </a>
         </g>
        </svg>
</svg>
