<?xml version="1.0" encoding="UTF-8" standalone="no"?>
<!DOCTYPE svg PUBLIC "-//W3C//DTD SVG 1.1//EN"
 "http://www.w3.org/Graphics/SVG/1.1/DTD/svg11.dtd">
<!-- Generated by graphviz version 2.40.1 (20161225.0304)
 -->
<!-- Title: auto_timer.cpp Pages: 1 -->
<svg width="3212pt" height="449pt"
 viewBox="0.00 0.00 3212.00 449.00" xmlns="http://www.w3.org/2000/svg" xmlns:xlink="http://www.w3.org/1999/xlink">
<g id="graph0" class="graph" transform="scale(1 1) rotate(0) translate(4 445)">
<title>auto_timer.cpp</title>
<polygon fill="#ffffff" stroke="transparent" points="-4,4 -4,-445 3208,-445 3208,4 -4,4"/>
<!-- Node0 -->
<g id="node1" class="node">
<title>Node0</title>
<polygon fill="#bfbfbf" stroke="#000000" points="2900,-419.5 2900,-440.5 2976,-440.5 2976,-419.5 2900,-419.5"/>
<text text-anchor="middle" x="2938" y="-426.9" font-family="Helvetica,sans-Serif" font-size="12.00" fill="#000000">auto_timer.cpp</text>
</g>
<!-- Node1 -->
<g id="node2" class="node">
<title>Node1</title>
<g id="a_node2"><a xlink:href="../../d8/d07/auto__timer_8hpp.html" target="_top" xlink:title="timemory/auto_timer.hpp">
<polygon fill="#ffffff" stroke="#000000" points="2880,-361.5 2880,-382.5 2996,-382.5 2996,-361.5 2880,-361.5"/>
<text text-anchor="middle" x="2938" y="-368.9" font-family="Helvetica,sans-Serif" font-size="12.00" fill="#000000">timemory/auto_timer.hpp</text>
</a>
</g>
</g>
<!-- Node0&#45;&gt;Node1 -->
<g id="edge1" class="edge">
<title>Node0&#45;&gt;Node1</title>
<path fill="none" stroke="#191970" d="M2938,-419.3619C2938,-411.9219 2938,-401.7427 2938,-392.7276"/>
<polygon fill="#191970" stroke="#191970" points="2941.5001,-392.5706 2938,-382.5707 2934.5001,-392.5707 2941.5001,-392.5706"/>
</g>
<!-- Node2 -->
<g id="node3" class="node">
<title>Node2</title>
<g id="a_node3"><a xlink:href="../../db/d19/namespace_8hpp.html" target="_top" xlink:title="timemory/namespace.hpp">
<polygon fill="#ffffff" stroke="#000000" points="2954,-.5 2954,-21.5 3074,-21.5 3074,-.5 2954,-.5"/>
<text text-anchor="middle" x="3014" y="-7.9" font-family="Helvetica,sans-Serif" font-size="12.00" fill="#000000">timemory/namespace.hpp</text>
</a>
</g>
</g>
<!-- Node0&#45;&gt;Node2 -->
<g id="edge110" class="edge">
<title>Node0&#45;&gt;Node2</title>
<path fill="none" stroke="#191970" d="M2976.1113,-421.747C3049.6627,-404.7143 3204,-363.1212 3204,-314 3204,-314 3204,-314 3204,-127 3204,-68.6957 3138.0182,-38.825 3083.8206,-24.1237"/>
<polygon fill="#191970" stroke="#191970" points="3084.4138,-20.6622 3073.8564,-21.5517 3082.6643,-27.44 3084.4138,-20.6622"/>
</g>
<!-- Node3 -->
<g id="node4" class="node">
<title>Node3</title>
<g id="a_node4"><a xlink:href="../../d1/d4e/utility_8hpp.html" target="_top" xlink:title="timemory/utility.hpp">
<polygon fill="#ffffff" stroke="#000000" points="2474,-58.5 2474,-79.5 2568,-79.5 2568,-58.5 2474,-58.5"/>
<text text-anchor="middle" x="2521" y="-65.9" font-family="Helvetica,sans-Serif" font-size="12.00" fill="#000000">timemory/utility.hpp</text>
</a>
</g>
</g>
<!-- Node0&#45;&gt;Node3 -->
<g id="edge109" class="edge">
<title>Node0&#45;&gt;Node3</title>
<path fill="none" stroke="#191970" d="M2914.9304,-419.4077C2881.6193,-402.3399 2824,-365.3899 2824,-314 2824,-314 2824,-314 2824,-185 2824,-132.9175 2665.8869,-95.5494 2578.0945,-78.8151"/>
<polygon fill="#191970" stroke="#191970" points="2578.485,-75.3274 2568.0113,-76.9248 2577.1951,-82.2075 2578.485,-75.3274"/>
</g>
<!-- Node1&#45;&gt;Node2 -->
<g id="edge2" class="edge">
<title>Node1&#45;&gt;Node2</title>
<path fill="none" stroke="#191970" d="M2996.124,-365.9596C3063.6747,-355.3512 3166,-326.5633 3166,-249.5 3166,-249.5 3166,-249.5 3166,-127 3166,-73.4974 3105.7506,-41.3839 3061.1161,-24.9342"/>
<polygon fill="#191970" stroke="#191970" points="3062.1678,-21.5938 3051.573,-21.5639 3059.8367,-28.1943 3062.1678,-21.5938"/>
</g>
<!-- Node1&#45;&gt;Node3 -->
<g id="edge3" class="edge">
<title>Node1&#45;&gt;Node3</title>
<path fill="none" stroke="#191970" d="M2937.4402,-361.3122C2934.7369,-321.5275 2919.5377,-180.9704 2838,-116 2798.9601,-84.8925 2658.8981,-74.302 2578.6186,-70.7499"/>
<polygon fill="#191970" stroke="#191970" points="2578.3192,-67.2344 2568.1815,-70.3128 2578.0263,-74.2282 2578.3192,-67.2344"/>
</g>
<!-- Node7 -->
<g id="node8" class="node">
<title>Node7</title>
<polygon fill="#ffffff" stroke="#bfbfbf" points="2842.5,-.5 2842.5,-21.5 2881.5,-21.5 2881.5,-.5 2842.5,-.5"/>
<text text-anchor="middle" x="2862" y="-7.9" font-family="Helvetica,sans-Serif" font-size="12.00" fill="#000000">string</text>
</g>
<!-- Node1&#45;&gt;Node7 -->
<g id="edge107" class="edge">
<title>Node1&#45;&gt;Node7</title>
<path fill="none" stroke="#191970" d="M2972.1118,-361.4784C3016.9264,-345.2856 3090,-309.6585 3090,-249.5 3090,-249.5 3090,-249.5 3090,-127 3090,-83.0227 2953.5499,-37.6656 2891.7668,-19.3824"/>
<polygon fill="#191970" stroke="#191970" points="2892.4146,-15.9256 2881.8347,-16.4866 2890.4553,-22.6458 2892.4146,-15.9256"/>
</g>
<!-- Node17 -->
<g id="node18" class="node">
<title>Node17</title>
<g id="a_node18"><a xlink:href="../../df/df2/timing__manager_8hpp.html" target="_top" xlink:title="timemory/timing_manager.hpp">
<polygon fill="#ffffff" stroke="#000000" points="931,-303.5 931,-324.5 1069,-324.5 1069,-303.5 931,-303.5"/>
<text text-anchor="middle" x="1000" y="-310.9" font-family="Helvetica,sans-Serif" font-size="12.00" fill="#000000">timemory/timing_manager.hpp</text>
</a>
</g>
</g>
<!-- Node1&#45;&gt;Node17 -->
<g id="edge18" class="edge">
<title>Node1&#45;&gt;Node17</title>
<path fill="none" stroke="#191970" d="M2879.9995,-370.2642C2601.3457,-361.9247 1400.3858,-325.9827 1079.2311,-316.3712"/>
<polygon fill="#191970" stroke="#191970" points="1079.1828,-312.8683 1069.0825,-316.0675 1078.9733,-319.8652 1079.1828,-312.8683"/>
</g>
<!-- Node21 -->
<g id="node22" class="node">
<title>Node21</title>
<polygon fill="#ffffff" stroke="#bfbfbf" points="764.5,-.5 764.5,-21.5 807.5,-21.5 807.5,-.5 764.5,-.5"/>
<text text-anchor="middle" x="786" y="-7.9" font-family="Helvetica,sans-Serif" font-size="12.00" fill="#000000">cstdint</text>
</g>
<!-- Node1&#45;&gt;Node21 -->
<g id="edge108" class="edge">
<title>Node1&#45;&gt;Node21</title>
<path fill="none" stroke="#191970" d="M2879.8288,-371.5338C2638.9809,-369.4156 1696.2651,-359.2676 922,-325 716.6264,-315.9105 0,-455.0747 0,-249.5 0,-249.5 0,-249.5 0,-127 0,-62.7628 65.344,-76.0265 127,-58 246.8491,-22.9594 639.5177,-13.5254 754.2512,-11.4878"/>
<polygon fill="#191970" stroke="#191970" points="754.5297,-14.9837 764.4683,-11.3131 754.4099,-7.9847 754.5297,-14.9837"/>
</g>
<!-- Node3&#45;&gt;Node2 -->
<g id="edge17" class="edge">
<title>Node3&#45;&gt;Node2</title>
<path fill="none" stroke="#191970" d="M2568.2709,-63.4387C2655.4135,-53.1866 2841.776,-31.2616 2943.7558,-19.264"/>
<polygon fill="#191970" stroke="#191970" points="2944.4343,-22.7084 2953.9568,-18.0639 2943.6163,-15.7564 2944.4343,-22.7084"/>
</g>
<!-- Node4 -->
<g id="node5" class="node">
<title>Node4</title>
<polygon fill="#ffffff" stroke="#bfbfbf" points="1690.5,-.5 1690.5,-21.5 1741.5,-21.5 1741.5,-.5 1690.5,-.5"/>
<text text-anchor="middle" x="1716" y="-7.9" font-family="Helvetica,sans-Serif" font-size="12.00" fill="#000000">iostream</text>
</g>
<!-- Node3&#45;&gt;Node4 -->
<g id="edge4" class="edge">
<title>Node3&#45;&gt;Node4</title>
<path fill="none" stroke="#191970" d="M2473.8021,-65.8891C2364.2194,-58.6237 2084.0486,-39.8028 1850,-22 1816.7132,-19.4681 1778.7973,-16.332 1751.8131,-14.0571"/>
<polygon fill="#191970" stroke="#191970" points="1751.9409,-10.5555 1741.6815,-13.2001 1751.3509,-17.5306 1751.9409,-10.5555"/>
</g>
<!-- Node5 -->
<g id="node6" class="node">
<title>Node5</title>
<polygon fill="#ffffff" stroke="#bfbfbf" points="2446,-.5 2446,-21.5 2488,-21.5 2488,-.5 2446,-.5"/>
<text text-anchor="middle" x="2467" y="-7.9" font-family="Helvetica,sans-Serif" font-size="12.00" fill="#000000">cstdlib</text>
</g>
<!-- Node3&#45;&gt;Node5 -->
<g id="edge5" class="edge">
<title>Node3&#45;&gt;Node5</title>
<path fill="none" stroke="#191970" d="M2511.0956,-58.3619C2503.4836,-50.1861 2492.792,-38.7025 2483.843,-29.0907"/>
<polygon fill="#191970" stroke="#191970" points="2486.2175,-26.5046 2476.8416,-21.5707 2481.0942,-31.2746 2486.2175,-26.5046"/>
</g>
<!-- Node6 -->
<g id="node7" class="node">
<title>Node6</title>
<polygon fill="#ffffff" stroke="#bfbfbf" points="2506.5,-.5 2506.5,-21.5 2535.5,-21.5 2535.5,-.5 2506.5,-.5"/>
<text text-anchor="middle" x="2521" y="-7.9" font-family="Helvetica,sans-Serif" font-size="12.00" fill="#000000">set</text>
</g>
<!-- Node3&#45;&gt;Node6 -->
<g id="edge6" class="edge">
<title>Node3&#45;&gt;Node6</title>
<path fill="none" stroke="#191970" d="M2521,-58.3619C2521,-50.9219 2521,-40.7427 2521,-31.7276"/>
<polygon fill="#191970" stroke="#191970" points="2524.5001,-31.5706 2521,-21.5707 2517.5001,-31.5707 2524.5001,-31.5706"/>
</g>
<!-- Node3&#45;&gt;Node7 -->
<g id="edge7" class="edge">
<title>Node3&#45;&gt;Node7</title>
<path fill="none" stroke="#191970" d="M2568.0566,-60.9962C2639.2646,-48.8846 2772.3885,-26.2418 2831.9042,-16.1189"/>
<polygon fill="#191970" stroke="#191970" points="2832.8575,-19.5071 2842.129,-14.3798 2831.6837,-12.6063 2832.8575,-19.5071"/>
</g>
<!-- Node8 -->
<g id="node9" class="node">
<title>Node8</title>
<polygon fill="#ffffff" stroke="#bfbfbf" points="2232.5,-.5 2232.5,-21.5 2281.5,-21.5 2281.5,-.5 2232.5,-.5"/>
<text text-anchor="middle" x="2257" y="-7.9" font-family="Helvetica,sans-Serif" font-size="12.00" fill="#000000">sstream</text>
</g>
<!-- Node3&#45;&gt;Node8 -->
<g id="edge8" class="edge">
<title>Node3&#45;&gt;Node8</title>
<path fill="none" stroke="#191970" d="M2473.7149,-61.1089C2428.9508,-53.2532 2359.7319,-40.1119 2291.7819,-22.2788"/>
<polygon fill="#191970" stroke="#191970" points="2292.3325,-18.8036 2281.7687,-19.6137 2290.532,-25.5681 2292.3325,-18.8036"/>
</g>
<!-- Node9 -->
<g id="node10" class="node">
<title>Node9</title>
<polygon fill="#ffffff" stroke="#bfbfbf" points="1859,-.5 1859,-21.5 1907,-21.5 1907,-.5 1859,-.5"/>
<text text-anchor="middle" x="1883" y="-7.9" font-family="Helvetica,sans-Serif" font-size="12.00" fill="#000000">iomanip</text>
</g>
<!-- Node3&#45;&gt;Node9 -->
<g id="edge9" class="edge">
<title>Node3&#45;&gt;Node9</title>
<path fill="none" stroke="#191970" d="M2473.8272,-64.7116C2351.1963,-53.5633 2024.4928,-23.863 1917.4722,-14.1338"/>
<polygon fill="#191970" stroke="#191970" points="1917.5162,-10.6235 1907.2404,-13.2037 1916.8824,-17.5947 1917.5162,-10.6235"/>
</g>
<!-- Node10 -->
<g id="node11" class="node">
<title>Node10</title>
<polygon fill="#ffffff" stroke="#bfbfbf" points="2553.5,-.5 2553.5,-21.5 2596.5,-21.5 2596.5,-.5 2553.5,-.5"/>
<text text-anchor="middle" x="2575" y="-7.9" font-family="Helvetica,sans-Serif" font-size="12.00" fill="#000000">cstring</text>
</g>
<!-- Node3&#45;&gt;Node10 -->
<g id="edge10" class="edge">
<title>Node3&#45;&gt;Node10</title>
<path fill="none" stroke="#191970" d="M2530.9044,-58.3619C2538.5164,-50.1861 2549.208,-38.7025 2558.157,-29.0907"/>
<polygon fill="#191970" stroke="#191970" points="2560.9058,-31.2746 2565.1584,-21.5707 2555.7825,-26.5046 2560.9058,-31.2746"/>
</g>
<!-- Node11 -->
<g id="node12" class="node">
<title>Node11</title>
<polygon fill="#ffffff" stroke="#bfbfbf" points="2614.5,-.5 2614.5,-21.5 2669.5,-21.5 2669.5,-.5 2614.5,-.5"/>
<text text-anchor="middle" x="2642" y="-7.9" font-family="Helvetica,sans-Serif" font-size="12.00" fill="#000000">exception</text>
</g>
<!-- Node3&#45;&gt;Node11 -->
<g id="edge11" class="edge">
<title>Node3&#45;&gt;Node11</title>
<path fill="none" stroke="#191970" d="M2542.9122,-58.4966C2561.8108,-49.4378 2589.3312,-36.2462 2610.576,-26.0628"/>
<polygon fill="#191970" stroke="#191970" points="2612.3373,-29.0999 2619.8419,-21.6212 2609.3115,-22.7876 2612.3373,-29.0999"/>
</g>
<!-- Node12 -->
<g id="node13" class="node">
<title>Node12</title>
<polygon fill="#ffffff" stroke="#bfbfbf" points="2299.5,-.5 2299.5,-21.5 2354.5,-21.5 2354.5,-.5 2299.5,-.5"/>
<text text-anchor="middle" x="2327" y="-7.9" font-family="Helvetica,sans-Serif" font-size="12.00" fill="#000000">stdexcept</text>
</g>
<!-- Node3&#45;&gt;Node12 -->
<g id="edge12" class="edge">
<title>Node3&#45;&gt;Node12</title>
<path fill="none" stroke="#191970" d="M2485.2094,-58.4357C2455.2357,-49.57 2411.0744,-36.4656 2364.2278,-22.358"/>
<polygon fill="#191970" stroke="#191970" points="2365.0956,-18.9642 2354.511,-19.4291 2363.0753,-25.6663 2365.0956,-18.9642"/>
</g>
<!-- Node13 -->
<g id="node14" class="node">
<title>Node13</title>
<polygon fill="#ffffff" stroke="#bfbfbf" points="2372.5,-.5 2372.5,-21.5 2427.5,-21.5 2427.5,-.5 2372.5,-.5"/>
<text text-anchor="middle" x="2400" y="-7.9" font-family="Helvetica,sans-Serif" font-size="12.00" fill="#000000">functional</text>
</g>
<!-- Node3&#45;&gt;Node13 -->
<g id="edge13" class="edge">
<title>Node3&#45;&gt;Node13</title>
<path fill="none" stroke="#191970" d="M2499.0878,-58.4966C2480.1892,-49.4378 2452.6688,-36.2462 2431.424,-26.0628"/>
<polygon fill="#191970" stroke="#191970" points="2432.6885,-22.7876 2422.1581,-21.6212 2429.6627,-29.0999 2432.6885,-22.7876"/>
</g>
<!-- Node14 -->
<g id="node15" class="node">
<title>Node14</title>
<polygon fill="#ffffff" stroke="#bfbfbf" points="2688,-.5 2688,-21.5 2730,-21.5 2730,-.5 2688,-.5"/>
<text text-anchor="middle" x="2709" y="-7.9" font-family="Helvetica,sans-Serif" font-size="12.00" fill="#000000">deque</text>
</g>
<!-- Node3&#45;&gt;Node14 -->
<g id="edge14" class="edge">
<title>Node3&#45;&gt;Node14</title>
<path fill="none" stroke="#191970" d="M2558.2776,-58.411C2590.1917,-49.2095 2637.2988,-35.3041 2678,-22 2678.0984,-21.9678 2678.1969,-21.9356 2678.2956,-21.9032"/>
<polygon fill="#191970" stroke="#191970" points="2679.3552,-25.2397 2687.7027,-18.7151 2677.1084,-18.6101 2679.3552,-25.2397"/>
</g>
<!-- Node15 -->
<g id="node16" class="node">
<title>Node15</title>
<polygon fill="#ffffff" stroke="#bfbfbf" points="2114.5,-.5 2114.5,-21.5 2155.5,-21.5 2155.5,-.5 2114.5,-.5"/>
<text text-anchor="middle" x="2135" y="-7.9" font-family="Helvetica,sans-Serif" font-size="12.00" fill="#000000">cmath</text>
</g>
<!-- Node3&#45;&gt;Node15 -->
<g id="edge15" class="edge">
<title>Node3&#45;&gt;Node15</title>
<path fill="none" stroke="#191970" d="M2473.8534,-66.279C2406.8692,-61.6545 2280.3894,-50.1216 2165.7185,-22.0197"/>
<polygon fill="#191970" stroke="#191970" points="2166.2742,-18.5509 2155.7238,-19.5201 2164.5758,-25.3418 2166.2742,-18.5509"/>
</g>
<!-- Node16 -->
<g id="node17" class="node">
<title>Node16</title>
<polygon fill="#ffffff" stroke="#bfbfbf" points="2173.5,-.5 2173.5,-21.5 2214.5,-21.5 2214.5,-.5 2173.5,-.5"/>
<text text-anchor="middle" x="2194" y="-7.9" font-family="Helvetica,sans-Serif" font-size="12.00" fill="#000000">vector</text>
</g>
<!-- Node3&#45;&gt;Node16 -->
<g id="edge16" class="edge">
<title>Node3&#45;&gt;Node16</title>
<path fill="none" stroke="#191970" d="M2473.9255,-64.6059C2416.6874,-58.5982 2317.167,-46.0137 2224.5461,-22.0421"/>
<polygon fill="#191970" stroke="#191970" points="2225.303,-18.6221 2214.7409,-19.4541 2223.5165,-25.3903 2225.303,-18.6221"/>
</g>
<!-- Node17&#45;&gt;Node2 -->
<g id="edge35" class="edge">
<title>Node17&#45;&gt;Node2</title>
<path fill="none" stroke="#191970" d="M1069.2172,-313.6505C1324.7401,-312.0764 2214.6991,-304.0022 2496,-267 2633.1331,-248.9616 2671.607,-249.8692 2799,-196 2887.0028,-158.7873 2916.3291,-151.2411 2980,-80 2992.6035,-65.898 3001.6678,-46.2813 3007.2515,-31.5676"/>
<polygon fill="#191970" stroke="#191970" points="3010.6475,-32.4639 3010.7029,-21.8692 3004.0526,-30.1169 3010.6475,-32.4639"/>
</g>
<!-- Node17&#45;&gt;Node3 -->
<g id="edge36" class="edge">
<title>Node17&#45;&gt;Node3</title>
<path fill="none" stroke="#191970" d="M1069.0568,-311.7657C1248.5679,-305.7272 1726.8229,-288.1062 1884,-267 2151.7506,-231.0457 2257.1393,-293.5753 2478,-138 2495.1334,-125.9312 2506.857,-104.6513 2513.6827,-88.9048"/>
<polygon fill="#191970" stroke="#191970" points="2516.9777,-90.092 2517.4685,-79.5085 2510.4849,-87.476 2516.9777,-90.092"/>
</g>
<!-- Node17&#45;&gt;Node7 -->
<g id="edge21" class="edge">
<title>Node17&#45;&gt;Node7</title>
<path fill="none" stroke="#191970" d="M1069.3969,-312.7984C1306.9659,-308.4908 2086.6659,-292.6988 2336,-267 2521.2667,-247.9046 2572.8946,-256.6242 2749,-196 2800.5168,-178.2654 2828.121,-184.2006 2857,-138 2877.3654,-105.4194 2872.3399,-58.4047 2867.0422,-31.6644"/>
<polygon fill="#191970" stroke="#191970" points="2870.3851,-30.5675 2864.8283,-21.5468 2863.5469,-32.0638 2870.3851,-30.5675"/>
</g>
<!-- Node17&#45;&gt;Node14 -->
<g id="edge20" class="edge">
<title>Node17&#45;&gt;Node14</title>
<path fill="none" stroke="#191970" d="M1069.2243,-312.9546C1390.0898,-307.3846 2721.9786,-276.0286 2838,-138 2876.0112,-92.7787 2788.6553,-45.496 2739.5418,-23.5591"/>
<polygon fill="#191970" stroke="#191970" points="2740.8427,-20.3081 2730.2774,-19.5178 2738.0438,-26.7242 2740.8427,-20.3081"/>
</g>
<!-- Node18 -->
<g id="node19" class="node">
<title>Node18</title>
<polygon fill="#ffffff" stroke="#bfbfbf" points="268,-58.5 268,-79.5 348,-79.5 348,-58.5 268,-58.5"/>
<text text-anchor="middle" x="308" y="-65.9" font-family="Helvetica,sans-Serif" font-size="12.00" fill="#000000">unordered_map</text>
</g>
<!-- Node17&#45;&gt;Node18 -->
<g id="edge19" class="edge">
<title>Node17&#45;&gt;Node18</title>
<path fill="none" stroke="#191970" d="M985.4428,-303.2888C961.5723,-286.1505 912.1398,-252.4213 866,-232 772.402,-190.5739 476.8155,-112.4637 358.0867,-81.8089"/>
<polygon fill="#191970" stroke="#191970" points="358.7226,-78.3584 348.1655,-79.2515 356.9753,-85.1369 358.7226,-78.3584"/>
</g>
<!-- Node19 -->
<g id="node20" class="node">
<title>Node19</title>
<polygon fill="#ffffff" stroke="#bfbfbf" points="1028,-239 1028,-260 1070,-260 1070,-239 1028,-239"/>
<text text-anchor="middle" x="1049" y="-246.4" font-family="Helvetica,sans-Serif" font-size="12.00" fill="#000000">thread</text>
</g>
<!-- Node17&#45;&gt;Node19 -->
<g id="edge22" class="edge">
<title>Node17&#45;&gt;Node19</title>
<path fill="none" stroke="#191970" d="M1008.0914,-303.3491C1015.2828,-293.8829 1025.965,-279.8216 1034.6103,-268.4415"/>
<polygon fill="#191970" stroke="#191970" points="1037.4705,-270.4624 1040.7328,-260.3823 1031.8966,-266.2278 1037.4705,-270.4624"/>
</g>
<!-- Node20 -->
<g id="node21" class="node">
<title>Node20</title>
<polygon fill="#ffffff" stroke="#bfbfbf" points="366.5,-58.5 366.5,-79.5 407.5,-79.5 407.5,-58.5 366.5,-58.5"/>
<text text-anchor="middle" x="387" y="-65.9" font-family="Helvetica,sans-Serif" font-size="12.00" fill="#000000">mutex</text>
</g>
<!-- Node17&#45;&gt;Node20 -->
<g id="edge23" class="edge">
<title>Node17&#45;&gt;Node20</title>
<path fill="none" stroke="#191970" d="M994.2562,-303.4523C973.4977,-265.7504 901.5116,-138.6971 862,-116 778.5762,-68.0778 529.6107,-99.2484 417.8245,-79.4398"/>
<polygon fill="#191970" stroke="#191970" points="418.2572,-75.9572 407.7654,-77.4316 416.8867,-82.8217 418.2572,-75.9572"/>
</g>
<!-- Node17&#45;&gt;Node21 -->
<g id="edge24" class="edge">
<title>Node17&#45;&gt;Node21</title>
<path fill="none" stroke="#191970" d="M930.8377,-312.8164C718.8449,-308.8931 90.4208,-294.9479 57,-267 28.302,-243.0015 38,-222.41 38,-185 38,-185 38,-185 38,-127 38,-53.3559 611.5067,-19.7416 754.1658,-12.5193"/>
<polygon fill="#191970" stroke="#191970" points="754.6071,-16.0017 764.4205,-12.0083 754.2587,-9.0104 754.6071,-16.0017"/>
</g>
<!-- Node22 -->
<g id="node23" class="node">
<title>Node22</title>
<polygon fill="#ffffff" stroke="#bfbfbf" points="554,-58.5 554,-79.5 640,-79.5 640,-58.5 554,-58.5"/>
<text text-anchor="middle" x="597" y="-65.9" font-family="Helvetica,sans-Serif" font-size="12.00" fill="#000000">cereal/cereal.hpp</text>
</g>
<!-- Node17&#45;&gt;Node22 -->
<g id="edge25" class="edge">
<title>Node17&#45;&gt;Node22</title>
<path fill="none" stroke="#191970" d="M1000.3522,-303.2469C1000.8148,-269.4588 997.2184,-164.7834 938,-116 890.1945,-76.6184 727.6536,-89.4492 650.0043,-79.8418"/>
<polygon fill="#191970" stroke="#191970" points="650.475,-76.3736 640.0768,-78.4053 649.4725,-83.3014 650.475,-76.3736"/>
</g>
<!-- Node23 -->
<g id="node24" class="node">
<title>Node23</title>
<polygon fill="#ffffff" stroke="#bfbfbf" points="426,-58.5 426,-79.5 536,-79.5 536,-58.5 426,-58.5"/>
<text text-anchor="middle" x="481" y="-65.9" font-family="Helvetica,sans-Serif" font-size="12.00" fill="#000000">cereal/types/deque.hpp</text>
</g>
<!-- Node17&#45;&gt;Node23 -->
<g id="edge26" class="edge">
<title>Node17&#45;&gt;Node23</title>
<path fill="none" stroke="#191970" d="M998.2057,-303.05C991.938,-268.6774 967.6029,-162.4574 900,-116 837.0112,-72.7136 638.6291,-89.3878 546.071,-79.9042"/>
<polygon fill="#191970" stroke="#191970" points="546.4635,-76.4263 536.1206,-78.7228 545.6382,-83.3775 546.4635,-76.4263"/>
</g>
<!-- Node24 -->
<g id="node25" class="node">
<title>Node24</title>
<polygon fill="#ffffff" stroke="#bfbfbf" points="1186.5,-58.5 1186.5,-79.5 1275.5,-79.5 1275.5,-58.5 1186.5,-58.5"/>
<text text-anchor="middle" x="1231" y="-65.9" font-family="Helvetica,sans-Serif" font-size="12.00" fill="#000000">cereal/access.hpp</text>
</g>
<!-- Node17&#45;&gt;Node24 -->
<g id="edge27" class="edge">
<title>Node17&#45;&gt;Node24</title>
<path fill="none" stroke="#191970" d="M1021.6087,-303.4589C1038.175,-294.8472 1061.1485,-281.7245 1079,-267 1138.2525,-218.1267 1149.9899,-200.949 1194,-138 1204.9051,-122.4021 1214.9496,-103.2257 1221.8127,-89.0512"/>
<polygon fill="#191970" stroke="#191970" points="1225.1062,-90.2733 1226.2146,-79.7366 1218.7774,-87.2823 1225.1062,-90.2733"/>
</g>
<!-- Node25 -->
<g id="node26" class="node">
<title>Node25</title>
<polygon fill="#ffffff" stroke="#bfbfbf" points="66.5,-232.5 66.5,-266.5 175.5,-266.5 175.5,-232.5 66.5,-232.5"/>
<text text-anchor="start" x="74.5" y="-252.9" font-family="Helvetica,sans-Serif" font-size="12.00" fill="#000000">cereal/types/unordered</text>
<text text-anchor="middle" x="121" y="-239.9" font-family="Helvetica,sans-Serif" font-size="12.00" fill="#000000">_map.hpp</text>
</g>
<!-- Node17&#45;&gt;Node25 -->
<g id="edge28" class="edge">
<title>Node17&#45;&gt;Node25</title>
<path fill="none" stroke="#191970" d="M930.7517,-311.871C764.6672,-306.4711 346.2467,-291.0501 185.834,-266.8572"/>
<polygon fill="#191970" stroke="#191970" points="186.0695,-263.3511 175.6464,-265.2509 184.9793,-270.2657 186.0695,-263.3511"/>
</g>
<!-- Node26 -->
<g id="node27" class="node">
<title>Node26</title>
<polygon fill="#ffffff" stroke="#bfbfbf" points="1293.5,-58.5 1293.5,-79.5 1406.5,-79.5 1406.5,-58.5 1293.5,-58.5"/>
<text text-anchor="middle" x="1350" y="-65.9" font-family="Helvetica,sans-Serif" font-size="12.00" fill="#000000">cereal/types/chrono.hpp</text>
</g>
<!-- Node17&#45;&gt;Node26 -->
<g id="edge29" class="edge">
<title>Node17&#45;&gt;Node26</title>
<path fill="none" stroke="#191970" d="M1032.4136,-303.4713C1055.7047,-295.2134 1087.3826,-282.533 1113,-267 1203.3114,-212.2401 1294.9657,-124.5167 1332.4222,-86.9835"/>
<polygon fill="#191970" stroke="#191970" points="1335.0209,-89.3334 1339.5724,-79.766 1330.048,-84.4069 1335.0209,-89.3334"/>
</g>
<!-- Node27 -->
<g id="node28" class="node">
<title>Node27</title>
<polygon fill="#ffffff" stroke="#bfbfbf" points="194,-239 194,-260 326,-260 326,-239 194,-239"/>
<text text-anchor="middle" x="260" y="-246.4" font-family="Helvetica,sans-Serif" font-size="12.00" fill="#000000">cereal/archives/adapters.hpp</text>
</g>
<!-- Node17&#45;&gt;Node27 -->
<g id="edge30" class="edge">
<title>Node17&#45;&gt;Node27</title>
<path fill="none" stroke="#191970" d="M930.6753,-312.7156C809.3089,-309.6634 550.7223,-299.5802 335,-267 326.8228,-265.765 318.2189,-264.1052 309.8718,-262.298"/>
<polygon fill="#191970" stroke="#191970" points="310.3887,-258.8267 299.8635,-260.0392 308.8475,-265.655 310.3887,-258.8267"/>
</g>
<!-- Node28 -->
<g id="node29" class="node">
<title>Node28</title>
<polygon fill="#ffffff" stroke="#bfbfbf" points="344,-239 344,-260 466,-260 466,-239 344,-239"/>
<text text-anchor="middle" x="405" y="-246.4" font-family="Helvetica,sans-Serif" font-size="12.00" fill="#000000">cereal/archives/binary.hpp</text>
</g>
<!-- Node17&#45;&gt;Node28 -->
<g id="edge31" class="edge">
<title>Node17&#45;&gt;Node28</title>
<path fill="none" stroke="#191970" d="M930.7658,-311.2377C829.9158,-306.4385 636.9722,-294.3257 475,-267 467.6137,-265.7539 459.8588,-264.1351 452.3105,-262.3858"/>
<polygon fill="#191970" stroke="#191970" points="453.0969,-258.9751 442.5549,-260.0312 451.4545,-265.7797 453.0969,-258.9751"/>
</g>
<!-- Node29 -->
<g id="node30" class="node">
<title>Node29</title>
<polygon fill="#ffffff" stroke="#bfbfbf" points="484,-239 484,-260 598,-260 598,-239 484,-239"/>
<text text-anchor="middle" x="541" y="-246.4" font-family="Helvetica,sans-Serif" font-size="12.00" fill="#000000">cereal/archives/json.hpp</text>
</g>
<!-- Node17&#45;&gt;Node29 -->
<g id="edge32" class="edge">
<title>Node17&#45;&gt;Node29</title>
<path fill="none" stroke="#191970" d="M930.6861,-308.6691C851.8143,-301.9197 719.3714,-288.5073 607,-267 600.429,-265.7423 593.5475,-264.1887 586.8119,-262.5306"/>
<polygon fill="#191970" stroke="#191970" points="587.656,-259.1339 577.1008,-260.0491 585.9229,-265.916 587.656,-259.1339"/>
</g>
<!-- Node30 -->
<g id="node31" class="node">
<title>Node30</title>
<polygon fill="#ffffff" stroke="#bfbfbf" points="616,-232.5 616,-266.5 728,-266.5 728,-232.5 616,-232.5"/>
<text text-anchor="start" x="624" y="-252.9" font-family="Helvetica,sans-Serif" font-size="12.00" fill="#000000">cereal/archives/portable</text>
<text text-anchor="middle" x="672" y="-239.9" font-family="Helvetica,sans-Serif" font-size="12.00" fill="#000000">_binary.hpp</text>
</g>
<!-- Node17&#45;&gt;Node30 -->
<g id="edge33" class="edge">
<title>Node17&#45;&gt;Node30</title>
<path fill="none" stroke="#191970" d="M931.8378,-303.4737C880.9476,-295.2343 809.514,-282.8693 738.3363,-267.2069"/>
<polygon fill="#191970" stroke="#191970" points="738.8179,-263.7286 728.2967,-264.9751 737.2988,-270.5618 738.8179,-263.7286"/>
</g>
<!-- Node31 -->
<g id="node32" class="node">
<title>Node31</title>
<polygon fill="#ffffff" stroke="#bfbfbf" points="746.5,-239 746.5,-260 857.5,-260 857.5,-239 746.5,-239"/>
<text text-anchor="middle" x="802" y="-246.4" font-family="Helvetica,sans-Serif" font-size="12.00" fill="#000000">cereal/archives/xml.hpp</text>
</g>
<!-- Node17&#45;&gt;Node31 -->
<g id="edge34" class="edge">
<title>Node17&#45;&gt;Node31</title>
<path fill="none" stroke="#191970" d="M967.7472,-303.4934C934.092,-292.53 881.1734,-275.2913 844.2117,-263.2508"/>
<polygon fill="#191970" stroke="#191970" points="844.8313,-259.7717 834.239,-260.0021 842.6631,-266.4274 844.8313,-259.7717"/>
</g>
<!-- Node32 -->
<g id="node33" class="node">
<title>Node32</title>
<g id="a_node33"><a xlink:href="../../df/d05/timer_8hpp.html" target="_top" xlink:title="timemory/timer.hpp">
<polygon fill="#ffffff" stroke="#000000" points="1781,-239 1781,-260 1875,-260 1875,-239 1781,-239"/>
<text text-anchor="middle" x="1828" y="-246.4" font-family="Helvetica,sans-Serif" font-size="12.00" fill="#000000">timemory/timer.hpp</text>
</a>
</g>
</g>
<!-- Node17&#45;&gt;Node32 -->
<g id="edge37" class="edge">
<title>Node17&#45;&gt;Node32</title>
<path fill="none" stroke="#191970" d="M1069.1707,-308.6117C1229.1573,-296.149 1622.3575,-265.5192 1770.384,-253.9882"/>
<polygon fill="#191970" stroke="#191970" points="1770.9137,-257.4576 1780.6117,-253.1915 1770.37,-250.4788 1770.9137,-257.4576"/>
</g>
<!-- Node49 -->
<g id="node49" class="node">
<title>Node49</title>
<g id="a_node49"><a xlink:href="../../d0/d5d/mpi_8hpp.html" target="_top" xlink:title="timemory/mpi.hpp">
<polygon fill="#ffffff" stroke="#000000" points="1463,-58.5 1463,-79.5 1551,-79.5 1551,-58.5 1463,-58.5"/>
<text text-anchor="middle" x="1507" y="-65.9" font-family="Helvetica,sans-Serif" font-size="12.00" fill="#000000">timemory/mpi.hpp</text>
</a>
</g>
</g>
<!-- Node17&#45;&gt;Node49 -->
<g id="edge106" class="edge">
<title>Node17&#45;&gt;Node49</title>
<path fill="none" stroke="#191970" d="M1042.7449,-303.4801C1073.9154,-295.1857 1116.8461,-282.4566 1153,-267 1282.7232,-211.5403 1426.2167,-121.6177 1482.4756,-85.1411"/>
<polygon fill="#191970" stroke="#191970" points="1484.5736,-87.9516 1491.043,-79.5613 1480.7533,-82.086 1484.5736,-87.9516"/>
</g>
<!-- Node32&#45;&gt;Node2 -->
<g id="edge38" class="edge">
<title>Node32&#45;&gt;Node2</title>
<path fill="none" stroke="#191970" d="M1875.073,-244.5885C2003.7907,-230.8827 2372.2706,-189.8038 2676,-138 2799.5616,-116.9255 2843.407,-142.6033 2952,-80 2973.1104,-67.83 2990.9248,-45.9426 3001.965,-30.0757"/>
<polygon fill="#191970" stroke="#191970" points="3005.0162,-31.8088 3007.6562,-21.5481 2999.1937,-27.9229 3005.0162,-31.8088"/>
</g>
<!-- Node33 -->
<g id="node34" class="node">
<title>Node33</title>
<g id="a_node34"><a xlink:href="../../d6/d01/base__timer_8hpp.html" target="_top" xlink:title="timemory/base_timer.hpp">
<polygon fill="#ffffff" stroke="#000000" points="1769,-174.5 1769,-195.5 1887,-195.5 1887,-174.5 1769,-174.5"/>
<text text-anchor="middle" x="1828" y="-181.9" font-family="Helvetica,sans-Serif" font-size="12.00" fill="#000000">timemory/base_timer.hpp</text>
</a>
</g>
</g>
<!-- Node32&#45;&gt;Node33 -->
<g id="edge39" class="edge">
<title>Node32&#45;&gt;Node33</title>
<path fill="none" stroke="#191970" d="M1828,-238.8491C1828,-229.9397 1828,-216.9599 1828,-205.9761"/>
<polygon fill="#191970" stroke="#191970" points="1831.5001,-205.8822 1828,-195.8823 1824.5001,-205.8823 1831.5001,-205.8822"/>
</g>
<!-- Node33&#45;&gt;Node2 -->
<g id="edge40" class="edge">
<title>Node33&#45;&gt;Node2</title>
<path fill="none" stroke="#191970" d="M1887.2576,-183.379C2013.8794,-179.453 2320.061,-167.4928 2575,-138 2651.7921,-129.1163 2846.659,-109.7727 2918,-80 2947.7312,-67.5923 2977.0932,-44.4607 2995.3621,-28.4198"/>
<polygon fill="#191970" stroke="#191970" points="2997.8384,-30.9002 3002.9367,-21.6127 2993.1594,-25.6936 2997.8384,-30.9002"/>
</g>
<!-- Node33&#45;&gt;Node3 -->
<g id="edge77" class="edge">
<title>Node33&#45;&gt;Node3</title>
<path fill="none" stroke="#191970" d="M1887.0513,-182.7694C2032.0548,-176.9741 2397.5286,-160.3245 2448,-138 2472.491,-127.1671 2493.8672,-104.5027 2507.0529,-88.099"/>
<polygon fill="#191970" stroke="#191970" points="2510.1622,-89.799 2513.5034,-79.7448 2504.6216,-85.5209 2510.1622,-89.799"/>
</g>
<!-- Node33&#45;&gt;Node7 -->
<g id="edge98" class="edge">
<title>Node33&#45;&gt;Node7</title>
<path fill="none" stroke="#191970" d="M1887.1726,-182.9229C2067.356,-175.8923 2606.6726,-149.4315 2766,-80 2795.3707,-67.2009 2824.6156,-44.3569 2842.9686,-28.4762"/>
<polygon fill="#191970" stroke="#191970" points="2845.4238,-30.9773 2850.596,-21.7307 2840.7864,-25.7337 2845.4238,-30.9773"/>
</g>
<!-- Node33&#45;&gt;Node22 -->
<g id="edge100" class="edge">
<title>Node33&#45;&gt;Node22</title>
<path fill="none" stroke="#191970" d="M1768.7881,-184.5168C1612.3499,-182.7429 1190.8821,-174.6059 1057,-138 1036.2929,-132.3383 1034.5975,-122.0482 1014,-116 860.8017,-71.0152 812.0895,-103.5111 650.3714,-80.0402"/>
<polygon fill="#191970" stroke="#191970" points="650.4721,-76.5161 640.063,-78.4911 649.4318,-83.4384 650.4721,-76.5161"/>
</g>
<!-- Node33&#45;&gt;Node23 -->
<g id="edge104" class="edge">
<title>Node33&#45;&gt;Node23</title>
<path fill="none" stroke="#191970" d="M1768.7501,-183.4343C1606.2381,-178.847 1155.89,-164.0911 1010,-138 977.0621,-132.1094 970.8332,-122.449 938,-116 769.084,-82.8222 720.687,-102.1246 546.1519,-80.0538"/>
<polygon fill="#191970" stroke="#191970" points="546.4821,-76.5674 536.116,-78.757 545.585,-83.5097 546.4821,-76.5674"/>
</g>
<!-- Node33&#45;&gt;Node24 -->
<g id="edge101" class="edge">
<title>Node33&#45;&gt;Node24</title>
<path fill="none" stroke="#191970" d="M1768.8836,-176.2078C1711.1272,-167.3925 1620.799,-153.0063 1543,-138 1452.0569,-120.4584 1347.0329,-96.4495 1284.9747,-81.8698"/>
<polygon fill="#191970" stroke="#191970" points="1285.5557,-78.4109 1275.0196,-79.5252 1283.951,-85.2245 1285.5557,-78.4109"/>
</g>
<!-- Node33&#45;&gt;Node26 -->
<g id="edge103" class="edge">
<title>Node33&#45;&gt;Node26</title>
<path fill="none" stroke="#191970" d="M1784.3135,-174.3983C1696.4789,-153.0828 1498.7637,-105.1017 1403.4167,-81.963"/>
<polygon fill="#191970" stroke="#191970" points="1403.9555,-78.4923 1393.4121,-79.5352 1402.3046,-85.2948 1403.9555,-78.4923"/>
</g>
<!-- Node34 -->
<g id="node35" class="node">
<title>Node34</title>
<g id="a_node35"><a xlink:href="../../d8/d4e/base__clock_8hpp.html" target="_top" xlink:title="timemory/base_clock.hpp">
<polygon fill="#ffffff" stroke="#000000" points="1066.5,-116.5 1066.5,-137.5 1185.5,-137.5 1185.5,-116.5 1066.5,-116.5"/>
<text text-anchor="middle" x="1126" y="-123.9" font-family="Helvetica,sans-Serif" font-size="12.00" fill="#000000">timemory/base_clock.hpp</text>
</a>
</g>
</g>
<!-- Node33&#45;&gt;Node34 -->
<g id="edge41" class="edge">
<title>Node33&#45;&gt;Node34</title>
<path fill="none" stroke="#191970" d="M1768.7529,-180.1049C1639.76,-169.4474 1334.0143,-144.1864 1195.8831,-132.7738"/>
<polygon fill="#191970" stroke="#191970" points="1196.0874,-129.2789 1185.8332,-131.9435 1195.511,-136.2551 1196.0874,-129.2789"/>
</g>
<!-- Node40 -->
<g id="node41" class="node">
<title>Node40</title>
<g id="a_node41"><a xlink:href="../../d9/dd2/rss_8hpp.html" target="_top" xlink:title="timemory/rss.hpp">
<polygon fill="#ffffff" stroke="#000000" points="1664,-116.5 1664,-137.5 1750,-137.5 1750,-116.5 1664,-116.5"/>
<text text-anchor="middle" x="1707" y="-123.9" font-family="Helvetica,sans-Serif" font-size="12.00" fill="#000000">timemory/rss.hpp</text>
</a>
</g>
</g>
<!-- Node33&#45;&gt;Node40 -->
<g id="edge61" class="edge">
<title>Node33&#45;&gt;Node40</title>
<path fill="none" stroke="#191970" d="M1806.0878,-174.4966C1787.1892,-165.4378 1759.6688,-152.2462 1738.424,-142.0628"/>
<polygon fill="#191970" stroke="#191970" points="1739.6885,-138.7876 1729.1581,-137.6212 1736.6627,-145.0999 1739.6885,-138.7876"/>
</g>
<!-- Node42 -->
<g id="node43" class="node">
<title>Node42</title>
<polygon fill="#ffffff" stroke="#bfbfbf" points="1829.5,-58.5 1829.5,-79.5 1876.5,-79.5 1876.5,-58.5 1829.5,-58.5"/>
<text text-anchor="middle" x="1853" y="-65.9" font-family="Helvetica,sans-Serif" font-size="12.00" fill="#000000">fstream</text>
</g>
<!-- Node33&#45;&gt;Node42 -->
<g id="edge97" class="edge">
<title>Node33&#45;&gt;Node42</title>
<path fill="none" stroke="#191970" d="M1830.3071,-174.2949C1834.4558,-155.0451 1843.2395,-114.2889 1848.5799,-89.5091"/>
<polygon fill="#191970" stroke="#191970" points="1852.013,-90.1922 1850.6984,-79.6792 1845.1701,-88.7174 1852.013,-90.1922"/>
</g>
<!-- Node45 -->
<g id="node46" class="node">
<title>Node45</title>
<polygon fill="#ffffff" stroke="#bfbfbf" points="1894.5,-58.5 1894.5,-79.5 1985.5,-79.5 1985.5,-58.5 1894.5,-58.5"/>
<text text-anchor="middle" x="1940" y="-65.9" font-family="Helvetica,sans-Serif" font-size="12.00" fill="#000000">cereal/macros.hpp</text>
</g>
<!-- Node33&#45;&gt;Node45 -->
<g id="edge102" class="edge">
<title>Node33&#45;&gt;Node45</title>
<path fill="none" stroke="#191970" d="M1838.3359,-174.2949C1857.5888,-154.3545 1899.1229,-111.337 1922.7118,-86.9056"/>
<polygon fill="#191970" stroke="#191970" points="1925.261,-89.3043 1929.689,-79.6792 1920.2252,-84.4422 1925.261,-89.3043"/>
</g>
<!-- Node46 -->
<g id="node47" class="node">
<title>Node46</title>
<polygon fill="#ffffff" stroke="#bfbfbf" points="2004,-58.5 2004,-79.5 2114,-79.5 2114,-58.5 2004,-58.5"/>
<text text-anchor="middle" x="2059" y="-65.9" font-family="Helvetica,sans-Serif" font-size="12.00" fill="#000000">cereal/types/vector.hpp</text>
</g>
<!-- Node33&#45;&gt;Node46 -->
<g id="edge105" class="edge">
<title>Node33&#45;&gt;Node46</title>
<path fill="none" stroke="#191970" d="M1849.3179,-174.2949C1890.5925,-153.5683 1981.5176,-107.9089 2028.9203,-84.105"/>
<polygon fill="#191970" stroke="#191970" points="2030.7014,-87.1271 2038.0673,-79.5117 2027.5601,-80.8715 2030.7014,-87.1271"/>
</g>
<!-- Node47 -->
<g id="node48" class="node">
<title>Node47</title>
<g id="a_node48"><a xlink:href="../../da/d8e/signal__detection_8hpp.html" target="_top" xlink:title="timemory/signal_detection.hpp">
<polygon fill="#ffffff" stroke="#ff0000" points="2300.5,-116.5 2300.5,-137.5 2439.5,-137.5 2439.5,-116.5 2300.5,-116.5"/>
<text text-anchor="middle" x="2370" y="-123.9" font-family="Helvetica,sans-Serif" font-size="12.00" fill="#000000">timemory/signal_detection.hpp</text>
</a>
</g>
</g>
<!-- Node33&#45;&gt;Node47 -->
<g id="edge78" class="edge">
<title>Node33&#45;&gt;Node47</title>
<path fill="none" stroke="#191970" d="M1887.0353,-178.6826C1984.8117,-168.2194 2180.4601,-147.2829 2290.3637,-135.522"/>
<polygon fill="#191970" stroke="#191970" points="2290.8297,-138.9922 2300.4005,-134.4479 2290.0848,-132.0319 2290.8297,-138.9922"/>
</g>
<!-- Node50 -->
<g id="node50" class="node">
<title>Node50</title>
<polygon fill="#ffffff" stroke="#bfbfbf" points="1781.5,-116.5 1781.5,-137.5 1824.5,-137.5 1824.5,-116.5 1781.5,-116.5"/>
<text text-anchor="middle" x="1803" y="-123.9" font-family="Helvetica,sans-Serif" font-size="12.00" fill="#000000">atomic</text>
</g>
<!-- Node33&#45;&gt;Node50 -->
<g id="edge99" class="edge">
<title>Node33&#45;&gt;Node50</title>
<path fill="none" stroke="#191970" d="M1823.4146,-174.3619C1820.102,-166.6766 1815.5296,-156.0686 1811.5517,-146.8399"/>
<polygon fill="#191970" stroke="#191970" points="1814.7288,-145.3685 1807.5563,-137.5707 1808.3005,-148.1393 1814.7288,-145.3685"/>
</g>
<!-- Node34&#45;&gt;Node2 -->
<g id="edge60" class="edge">
<title>Node34&#45;&gt;Node2</title>
<path fill="none" stroke="#191970" d="M1185.5726,-125.5084C1441.0281,-119.0528 2437.1919,-93.2501 2577,-80 2711.0981,-67.2911 2866.5474,-39.6139 2951.1648,-23.4403"/>
<polygon fill="#191970" stroke="#191970" points="2951.9665,-26.8504 2961.1267,-21.5267 2950.646,-19.9761 2951.9665,-26.8504"/>
</g>
<!-- Node34&#45;&gt;Node4 -->
<g id="edge42" class="edge">
<title>Node34&#45;&gt;Node4</title>
<path fill="none" stroke="#191970" d="M1089.4571,-116.4124C1053.4219,-104.2371 1006.8496,-82.7182 1030,-58 1071.788,-13.382 1518.0309,-26.4464 1579,-22 1613.3966,-19.4915 1652.6236,-16.3092 1680.2624,-14.0135"/>
<polygon fill="#191970" stroke="#191970" points="1680.579,-17.4993 1690.2535,-13.1803 1679.9972,-10.5235 1680.579,-17.4993"/>
</g>
<!-- Node34&#45;&gt;Node8 -->
<g id="edge44" class="edge">
<title>Node34&#45;&gt;Node8</title>
<path fill="none" stroke="#191970" d="M1130.191,-116.4642C1137.1804,-100.4981 1152.8754,-70.6931 1177,-58 1277.4026,-5.1735 2068.4343,-40.2807 2222.0084,-21.3861"/>
<polygon fill="#191970" stroke="#191970" points="2222.938,-24.7869 2232.3196,-19.8639 2221.9156,-17.8619 2222.938,-24.7869"/>
</g>
<!-- Node34&#45;&gt;Node9 -->
<g id="edge43" class="edge">
<title>Node34&#45;&gt;Node9</title>
<path fill="none" stroke="#191970" d="M1106.1917,-116.3776C1082.7894,-102.5319 1049.2602,-77.7551 1068,-58 1094.1121,-30.4732 1712.1451,-24.564 1750,-22 1783.6719,-19.7194 1822.0854,-16.4727 1848.9429,-14.0978"/>
<polygon fill="#191970" stroke="#191970" points="1849.3396,-17.5764 1858.9894,-13.2024 1848.7181,-10.604 1849.3396,-17.5764"/>
</g>
<!-- Node34&#45;&gt;Node12 -->
<g id="edge45" class="edge">
<title>Node34&#45;&gt;Node12</title>
<path fill="none" stroke="#191970" d="M1185.7509,-121.2137C1269.5071,-112.9469 1426.5399,-96.8793 1560,-80 1627.72,-71.4351 1644.1021,-65.0163 1712,-58 1964.773,-31.8793 2034.8003,-66.0732 2289.3695,-21.7251"/>
<polygon fill="#191970" stroke="#191970" points="2290.0429,-25.1604 2299.282,-19.975 2288.8258,-18.267 2290.0429,-25.1604"/>
</g>
<!-- Node34&#45;&gt;Node15 -->
<g id="edge49" class="edge">
<title>Node34&#45;&gt;Node15</title>
<path fill="none" stroke="#191970" d="M1117.4719,-116.4067C1106.4949,-101.4396 1090.5681,-74.133 1106,-58 1137.1361,-25.4494 1871.006,-24.1298 1916,-22 1983.1638,-18.8207 2061.8976,-14.7923 2104.2649,-12.5998"/>
<polygon fill="#191970" stroke="#191970" points="2104.6653,-16.0838 2114.4707,-12.0707 2104.3029,-9.0932 2104.6653,-16.0838"/>
</g>
<!-- Node34&#45;&gt;Node16 -->
<g id="edge46" class="edge">
<title>Node34&#45;&gt;Node16</title>
<path fill="none" stroke="#191970" d="M1125.2267,-116.3107C1124.7552,-100.7019 1126.5122,-72.0105 1144,-58 1186.696,-23.7937 2044.7425,-32.2248 2163.3195,-20.88"/>
<polygon fill="#191970" stroke="#191970" points="2163.8095,-24.3458 2173.2608,-19.5581 2162.8867,-17.4069 2163.8095,-24.3458"/>
</g>
<!-- Node34&#45;&gt;Node18 -->
<g id="edge48" class="edge">
<title>Node34&#45;&gt;Node18</title>
<path fill="none" stroke="#191970" d="M1066.4844,-124.5955C914.2444,-118.2519 512.4141,-100.2447 358.2441,-79.9336"/>
<polygon fill="#191970" stroke="#191970" points="358.3982,-76.4221 348.0152,-78.53 357.4466,-83.3571 358.3982,-76.4221"/>
</g>
<!-- Node34&#45;&gt;Node20 -->
<g id="edge47" class="edge">
<title>Node34&#45;&gt;Node20</title>
<path fill="none" stroke="#191970" d="M1066.3279,-124.0214C913.2607,-116.2482 512.6221,-95.022 417.7709,-79.3539"/>
<polygon fill="#191970" stroke="#191970" points="418.2311,-75.8792 407.7567,-77.472 416.9382,-82.7588 418.2311,-75.8792"/>
</g>
<!-- Node34&#45;&gt;Node21 -->
<g id="edge54" class="edge">
<title>Node34&#45;&gt;Node21</title>
<path fill="none" stroke="#191970" d="M1066.2278,-118.1001C1061.4143,-117.3879 1056.626,-116.6809 1052,-116 997.1225,-107.9221 846.5768,-116.7173 805,-80 791.5104,-68.087 787.2032,-47.5661 786.0059,-31.9915"/>
<polygon fill="#191970" stroke="#191970" points="789.4921,-31.5716 785.597,-21.7188 782.4976,-31.8501 789.4921,-31.5716"/>
</g>
<!-- Node34&#45;&gt;Node22 -->
<g id="edge56" class="edge">
<title>Node34&#45;&gt;Node22</title>
<path fill="none" stroke="#191970" d="M1066.2657,-117.8144C1061.4437,-117.1663 1056.6431,-116.552 1052,-116 876.6592,-95.1544 828.5645,-106.2369 650.0459,-80.0081"/>
<polygon fill="#191970" stroke="#191970" points="650.4645,-76.5319 640.0583,-78.522 649.4343,-83.4557 650.4645,-76.5319"/>
</g>
<!-- Node34&#45;&gt;Node23 -->
<g id="edge58" class="edge">
<title>Node34&#45;&gt;Node23</title>
<path fill="none" stroke="#191970" d="M1066.3759,-122.4816C935.0048,-112.4844 626.5069,-88.7653 546.2483,-79.979"/>
<polygon fill="#191970" stroke="#191970" points="546.4499,-76.4788 536.1112,-78.7944 545.6374,-83.4315 546.4499,-76.4788"/>
</g>
<!-- Node34&#45;&gt;Node24 -->
<g id="edge59" class="edge">
<title>Node34&#45;&gt;Node24</title>
<path fill="none" stroke="#191970" d="M1145.2586,-116.3619C1161.4658,-107.4094 1184.8529,-94.4908 1203.1091,-84.4064"/>
<polygon fill="#191970" stroke="#191970" points="1204.8024,-87.4696 1211.8635,-79.5707 1201.4178,-81.3422 1204.8024,-87.4696"/>
</g>
<!-- Node34&#45;&gt;Node26 -->
<g id="edge57" class="edge">
<title>Node34&#45;&gt;Node26</title>
<path fill="none" stroke="#191970" d="M1166.5647,-116.4966C1203.8732,-106.8364 1259.3321,-92.4765 1299.4975,-82.0765"/>
<polygon fill="#191970" stroke="#191970" points="1300.5558,-85.418 1309.3592,-79.5231 1298.8011,-78.6415 1300.5558,-85.418"/>
</g>
<!-- Node35 -->
<g id="node36" class="node">
<title>Node35</title>
<polygon fill="#ffffff" stroke="#bfbfbf" points="890,-58.5 890,-79.5 926,-79.5 926,-58.5 890,-58.5"/>
<text text-anchor="middle" x="908" y="-65.9" font-family="Helvetica,sans-Serif" font-size="12.00" fill="#000000">tuple</text>
</g>
<!-- Node34&#45;&gt;Node35 -->
<g id="edge50" class="edge">
<title>Node34&#45;&gt;Node35</title>
<path fill="none" stroke="#191970" d="M1074.3577,-116.4302C1037.8696,-108.4787 987.7375,-96.5825 935.8687,-79.9763"/>
<polygon fill="#191970" stroke="#191970" points="936.7586,-76.5853 926.1664,-76.8206 934.5935,-83.242 936.7586,-76.5853"/>
</g>
<!-- Node36 -->
<g id="node37" class="node">
<title>Node36</title>
<polygon fill="#ffffff" stroke="#bfbfbf" points="944,-58.5 944,-79.5 978,-79.5 978,-58.5 944,-58.5"/>
<text text-anchor="middle" x="961" y="-65.9" font-family="Helvetica,sans-Serif" font-size="12.00" fill="#000000">ratio</text>
</g>
<!-- Node34&#45;&gt;Node36 -->
<g id="edge51" class="edge">
<title>Node34&#45;&gt;Node36</title>
<path fill="none" stroke="#191970" d="M1095.92,-116.4846C1068.7549,-106.9799 1027.6872,-92.5901 992,-80 990.5863,-79.5013 989.1366,-78.9892 987.6732,-78.4717"/>
<polygon fill="#191970" stroke="#191970" points="988.6459,-75.1032 978.0511,-75.0629 986.3083,-81.7014 988.6459,-75.1032"/>
</g>
<!-- Node37 -->
<g id="node38" class="node">
<title>Node37</title>
<polygon fill="#ffffff" stroke="#bfbfbf" points="658,-58.5 658,-79.5 702,-79.5 702,-58.5 658,-58.5"/>
<text text-anchor="middle" x="680" y="-65.9" font-family="Helvetica,sans-Serif" font-size="12.00" fill="#000000">chrono</text>
</g>
<!-- Node34&#45;&gt;Node37 -->
<g id="edge52" class="edge">
<title>Node34&#45;&gt;Node37</title>
<path fill="none" stroke="#191970" d="M1066.2556,-117.8971C1061.4359,-117.2305 1056.6385,-116.5893 1052,-116 904.0656,-97.2046 861.4424,-113.0052 712.1553,-79.8283"/>
<polygon fill="#191970" stroke="#191970" points="712.691,-76.3612 702.1655,-77.5713 711.1483,-83.1891 712.691,-76.3612"/>
</g>
<!-- Node38 -->
<g id="node39" class="node">
<title>Node38</title>
<polygon fill="#ffffff" stroke="#bfbfbf" points="720,-58.5 720,-79.5 758,-79.5 758,-58.5 720,-58.5"/>
<text text-anchor="middle" x="739" y="-65.9" font-family="Helvetica,sans-Serif" font-size="12.00" fill="#000000">ctime</text>
</g>
<!-- Node34&#45;&gt;Node38 -->
<g id="edge53" class="edge">
<title>Node34&#45;&gt;Node38</title>
<path fill="none" stroke="#191970" d="M1066.2401,-118.0136C1061.4238,-117.3208 1056.6315,-116.6419 1052,-116 927.7192,-98.7751 894.3116,-107.9697 772,-80 770.565,-79.6719 769.1041,-79.3065 767.6353,-78.9139"/>
<polygon fill="#191970" stroke="#191970" points="768.5998,-75.5493 758.0162,-76.0358 766.5932,-82.2555 768.5998,-75.5493"/>
</g>
<!-- Node39 -->
<g id="node40" class="node">
<title>Node39</title>
<polygon fill="#ffffff" stroke="#bfbfbf" points="814,-58.5 814,-79.5 872,-79.5 872,-58.5 814,-58.5"/>
<text text-anchor="middle" x="843" y="-65.9" font-family="Helvetica,sans-Serif" font-size="12.00" fill="#000000">type_traits</text>
</g>
<!-- Node34&#45;&gt;Node39 -->
<g id="edge55" class="edge">
<title>Node34&#45;&gt;Node39</title>
<path fill="none" stroke="#191970" d="M1066.2623,-117.1278C1018.7853,-108.9204 950.5143,-96.3172 882.4287,-80.2003"/>
<polygon fill="#191970" stroke="#191970" points="882.9271,-76.7208 872.3871,-77.797 881.2977,-83.5286 882.9271,-76.7208"/>
</g>
<!-- Node40&#45;&gt;Node2 -->
<g id="edge76" class="edge">
<title>Node40&#45;&gt;Node2</title>
<path fill="none" stroke="#191970" d="M1750.2464,-118.8597C1757.4877,-117.7331 1764.9404,-116.7178 1772,-116 2226.8242,-69.7571 2349.6912,-158.9014 2800,-80 2817.2748,-76.9732 2915.7537,-44.1933 2972.9146,-24.9247"/>
<polygon fill="#191970" stroke="#191970" points="2974.3816,-28.1236 2982.7373,-21.6095 2972.1431,-21.4912 2974.3816,-28.1236"/>
</g>
<!-- Node40&#45;&gt;Node4 -->
<g id="edge63" class="edge">
<title>Node40&#45;&gt;Node4</title>
<path fill="none" stroke="#191970" d="M1697.5836,-116.375C1686.8634,-102.9363 1671.722,-79.0112 1679,-58 1682.7219,-47.255 1690.0293,-37.1031 1697.1739,-29.0027"/>
<polygon fill="#191970" stroke="#191970" points="1699.805,-31.3142 1704.1254,-21.6402 1694.7152,-26.5085 1699.805,-31.3142"/>
</g>
<!-- Node40&#45;&gt;Node7 -->
<g id="edge65" class="edge">
<title>Node40&#45;&gt;Node7</title>
<path fill="none" stroke="#191970" d="M1750.2526,-118.9186C1757.4931,-117.7849 1764.9439,-116.7519 1772,-116 2128.1189,-78.0494 2222.4245,-130.3699 2577,-80 2671.7795,-66.5359 2781.0942,-35.622 2832.4508,-20.1585"/>
<polygon fill="#191970" stroke="#191970" points="2833.6646,-23.4479 2842.2162,-17.1933 2831.6307,-16.7498 2833.6646,-23.4479"/>
</g>
<!-- Node40&#45;&gt;Node9 -->
<g id="edge66" class="edge">
<title>Node40&#45;&gt;Node9</title>
<path fill="none" stroke="#191970" d="M1704.3314,-116.2884C1701.3157,-101.4274 1698.4336,-74.523 1712,-58 1729.2282,-37.0171 1803.8754,-22.6388 1848.6519,-15.7235"/>
<polygon fill="#191970" stroke="#191970" points="1849.4283,-19.1464 1858.8001,-14.2047 1848.3921,-12.2235 1849.4283,-19.1464"/>
</g>
<!-- Node40&#45;&gt;Node21 -->
<g id="edge68" class="edge">
<title>Node40&#45;&gt;Node21</title>
<path fill="none" stroke="#191970" d="M1663.7865,-123.3416C1612.4887,-118.0139 1524.9586,-105.7927 1454,-80 1435.2963,-73.2014 1434.0465,-63.7688 1415,-58 1301.4021,-23.5938 929.1549,-13.7556 817.7658,-11.5487"/>
<polygon fill="#191970" stroke="#191970" points="817.5902,-8.0448 807.5251,-11.353 817.4564,-15.0436 817.5902,-8.0448"/>
</g>
<!-- Node40&#45;&gt;Node22 -->
<g id="edge70" class="edge">
<title>Node40&#45;&gt;Node22</title>
<path fill="none" stroke="#191970" d="M1663.7962,-126.0275C1493.8352,-122.0577 870.2289,-106.0987 650.2063,-79.9262"/>
<polygon fill="#191970" stroke="#191970" points="650.3907,-76.4225 640.0375,-78.6721 649.5339,-83.3699 650.3907,-76.4225"/>
</g>
<!-- Node40&#45;&gt;Node23 -->
<g id="edge74" class="edge">
<title>Node40&#45;&gt;Node23</title>
<path fill="none" stroke="#191970" d="M1663.988,-126.0092C1483.829,-121.7451 788.4528,-104.1215 546.2481,-79.9807"/>
<polygon fill="#191970" stroke="#191970" points="546.4004,-76.478 536.0947,-78.9365 545.6842,-83.4413 546.4004,-76.478"/>
</g>
<!-- Node40&#45;&gt;Node24 -->
<g id="edge71" class="edge">
<title>Node40&#45;&gt;Node24</title>
<path fill="none" stroke="#191970" d="M1663.8893,-123.5579C1588.911,-117.2785 1429.4731,-102.6313 1285.6528,-80.1606"/>
<polygon fill="#191970" stroke="#191970" points="1286.1886,-76.7019 1275.765,-78.5993 1285.0967,-83.6162 1286.1886,-76.7019"/>
</g>
<!-- Node40&#45;&gt;Node26 -->
<g id="edge73" class="edge">
<title>Node40&#45;&gt;Node26</title>
<path fill="none" stroke="#191970" d="M1663.9375,-120.0038C1602.4766,-110.0186 1489.0471,-91.5903 1416.6775,-79.8328"/>
<polygon fill="#191970" stroke="#191970" points="1417.1799,-76.3686 1406.748,-78.2196 1416.0573,-83.278 1417.1799,-76.3686"/>
</g>
<!-- Node41 -->
<g id="node42" class="node">
<title>Node41</title>
<polygon fill="#ffffff" stroke="#bfbfbf" points="1782.5,-58.5 1782.5,-79.5 1811.5,-79.5 1811.5,-58.5 1782.5,-58.5"/>
<text text-anchor="middle" x="1797" y="-65.9" font-family="Helvetica,sans-Serif" font-size="12.00" fill="#000000">ios</text>
</g>
<!-- Node40&#45;&gt;Node41 -->
<g id="edge62" class="edge">
<title>Node40&#45;&gt;Node41</title>
<path fill="none" stroke="#191970" d="M1723.5074,-116.3619C1737.5911,-107.2857 1758.0003,-94.1331 1773.7394,-83.9902"/>
<polygon fill="#191970" stroke="#191970" points="1775.8738,-86.7786 1782.3835,-78.4195 1772.0818,-80.8945 1775.8738,-86.7786"/>
</g>
<!-- Node40&#45;&gt;Node42 -->
<g id="edge64" class="edge">
<title>Node40&#45;&gt;Node42</title>
<path fill="none" stroke="#191970" d="M1733.4395,-116.4966C1757.6308,-106.8864 1793.5302,-92.625 1819.676,-82.2383"/>
<polygon fill="#191970" stroke="#191970" points="1821.173,-85.4097 1829.1744,-78.465 1818.5886,-78.9043 1821.173,-85.4097"/>
</g>
<!-- Node43 -->
<g id="node44" class="node">
<title>Node43</title>
<polygon fill="#ffffff" stroke="#bfbfbf" points="1721.5,-58.5 1721.5,-79.5 1764.5,-79.5 1764.5,-58.5 1721.5,-58.5"/>
<text text-anchor="middle" x="1743" y="-65.9" font-family="Helvetica,sans-Serif" font-size="12.00" fill="#000000">stdio.h</text>
</g>
<!-- Node40&#45;&gt;Node43 -->
<g id="edge67" class="edge">
<title>Node40&#45;&gt;Node43</title>
<path fill="none" stroke="#191970" d="M1713.603,-116.3619C1718.4746,-108.5131 1725.2384,-97.6159 1731.05,-88.2527"/>
<polygon fill="#191970" stroke="#191970" points="1734.139,-89.9129 1736.4389,-79.5707 1728.1915,-86.2213 1734.139,-89.9129"/>
</g>
<!-- Node44 -->
<g id="node45" class="node">
<title>Node44</title>
<polygon fill="#ffffff" stroke="#bfbfbf" points="1516,-.5 1516,-21.5 1570,-21.5 1570,-.5 1516,-.5"/>
<text text-anchor="middle" x="1543" y="-7.9" font-family="Helvetica,sans-Serif" font-size="12.00" fill="#000000">algorithm</text>
</g>
<!-- Node40&#45;&gt;Node44 -->
<g id="edge69" class="edge">
<title>Node40&#45;&gt;Node44</title>
<path fill="none" stroke="#191970" d="M1691.8652,-116.2949C1663.1854,-96.0092 1600.7397,-51.8403 1566.5444,-27.6534"/>
<polygon fill="#191970" stroke="#191970" points="1568.2835,-24.5964 1558.0982,-21.6792 1564.2412,-30.3114 1568.2835,-24.5964"/>
</g>
<!-- Node40&#45;&gt;Node45 -->
<g id="edge72" class="edge">
<title>Node40&#45;&gt;Node45</title>
<path fill="none" stroke="#191970" d="M1749.1945,-116.4966C1788.1665,-106.7955 1846.1784,-92.3547 1887.9986,-81.9445"/>
<polygon fill="#191970" stroke="#191970" points="1888.8679,-85.335 1897.7263,-79.5231 1887.177,-78.5423 1888.8679,-85.335"/>
</g>
<!-- Node40&#45;&gt;Node46 -->
<g id="edge75" class="edge">
<title>Node40&#45;&gt;Node46</title>
<path fill="none" stroke="#191970" d="M1750.3482,-119.6215C1757.5772,-118.4033 1764.9994,-117.16 1772,-116 1867.5295,-100.1713 1893.7682,-96.5596 1993.773,-80.0284"/>
<polygon fill="#191970" stroke="#191970" points="1994.3919,-83.4737 2003.686,-78.3874 1993.2486,-76.5677 1994.3919,-83.4737"/>
</g>
<!-- Node47&#45;&gt;Node2 -->
<g id="edge92" class="edge">
<title>Node47&#45;&gt;Node2</title>
<path fill="none" stroke="#191970" d="M2439.8344,-123.7066C2558.8649,-117.5609 2795.9371,-102.8607 2876,-80 2917.9333,-68.0266 2962.3439,-43.3759 2989.1213,-27.0149"/>
<polygon fill="#191970" stroke="#191970" points="2991.1773,-29.8581 2997.8245,-21.6079 2987.4832,-23.9122 2991.1773,-29.8581"/>
</g>
<!-- Node47&#45;&gt;Node3 -->
<g id="edge93" class="edge">
<title>Node47&#45;&gt;Node3</title>
<path fill="none" stroke="#191970" d="M2397.345,-116.4966C2421.6423,-107.1639 2457.3596,-93.4447 2484.1678,-83.1475"/>
<polygon fill="#191970" stroke="#191970" points="2485.5237,-86.376 2493.6038,-79.5231 2483.0137,-79.8415 2485.5237,-86.376"/>
</g>
<!-- Node47&#45;&gt;Node4 -->
<g id="edge79" class="edge">
<title>Node47&#45;&gt;Node4</title>
<path fill="none" stroke="#191970" d="M2300.0485,-118.3533C2257.2379,-111.4416 2202.0308,-99.5755 2156,-80 2139.7788,-73.1016 2139.5495,-64.0689 2123,-58 2088.4776,-45.3402 1844.1824,-22.4673 1751.5207,-14.1401"/>
<polygon fill="#191970" stroke="#191970" points="1751.7759,-10.649 1741.5037,-13.2435 1751.1518,-17.6212 1751.7759,-10.649"/>
</g>
<!-- Node47&#45;&gt;Node5 -->
<g id="edge80" class="edge">
<title>Node47&#45;&gt;Node5</title>
<path fill="none" stroke="#191970" d="M2378.9517,-116.2949C2395.4816,-96.5271 2430.9761,-54.0801 2451.4931,-29.5443"/>
<polygon fill="#191970" stroke="#191970" points="2454.3401,-31.5958 2458.07,-21.6792 2448.9701,-27.1054 2454.3401,-31.5958"/>
</g>
<!-- Node47&#45;&gt;Node6 -->
<g id="edge81" class="edge">
<title>Node47&#45;&gt;Node6</title>
<path fill="none" stroke="#191970" d="M2384.3162,-116.2166C2396.904,-106.7185 2415.7064,-92.4913 2432,-80 2455.0681,-62.3152 2481.3596,-41.8996 2499.3504,-27.8896"/>
<polygon fill="#191970" stroke="#191970" points="2501.7282,-30.474 2507.465,-21.5666 2497.4257,-24.9523 2501.7282,-30.474"/>
</g>
<!-- Node47&#45;&gt;Node7 -->
<g id="edge82" class="edge">
<title>Node47&#45;&gt;Node7</title>
<path fill="none" stroke="#191970" d="M2439.6348,-124.5448C2512.088,-120.4307 2628.1334,-109.4264 2724,-80 2765.4604,-67.2737 2809.6776,-43.0446 2836.58,-26.9536"/>
<polygon fill="#191970" stroke="#191970" points="2838.61,-29.8157 2845.3407,-21.6336 2834.9766,-23.8325 2838.61,-29.8157"/>
</g>
<!-- Node47&#45;&gt;Node8 -->
<g id="edge83" class="edge">
<title>Node47&#45;&gt;Node8</title>
<path fill="none" stroke="#191970" d="M2359.5718,-116.2949C2340.1471,-96.3545 2298.2421,-53.337 2274.4425,-28.9056"/>
<polygon fill="#191970" stroke="#191970" points="2276.888,-26.4001 2267.403,-21.6792 2271.8738,-31.2846 2276.888,-26.4001"/>
</g>
<!-- Node47&#45;&gt;Node9 -->
<g id="edge84" class="edge">
<title>Node47&#45;&gt;Node9</title>
<path fill="none" stroke="#191970" d="M2333.9844,-116.4691C2302.8808,-107.2475 2256.8015,-93.2821 2217,-80 2189.6616,-70.877 2183.8642,-65.3622 2156,-58 2071.3914,-35.6451 1969.1336,-21.3239 1917.0635,-14.9101"/>
<polygon fill="#191970" stroke="#191970" points="1917.3864,-11.4237 1907.0384,-13.6971 1916.5455,-18.3731 1917.3864,-11.4237"/>
</g>
<!-- Node47&#45;&gt;Node10 -->
<g id="edge85" class="edge">
<title>Node47&#45;&gt;Node10</title>
<path fill="none" stroke="#191970" d="M2439.5484,-120.4426C2492.7827,-113.8155 2559.8988,-101.4194 2577,-80 2587.7101,-66.5855 2585.8093,-46.5816 2582.0566,-31.5614"/>
<polygon fill="#191970" stroke="#191970" points="2585.3277,-30.2784 2579.1506,-21.6706 2578.6116,-32.2517 2585.3277,-30.2784"/>
</g>
<!-- Node47&#45;&gt;Node11 -->
<g id="edge86" class="edge">
<title>Node47&#45;&gt;Node11</title>
<path fill="none" stroke="#191970" d="M2439.5844,-118.258C2495.9293,-110.1339 2569.9129,-96.7746 2595,-80 2612.8897,-68.038 2625.8379,-46.7411 2633.5588,-30.9613"/>
<polygon fill="#191970" stroke="#191970" points="2636.8912,-32.0909 2637.8771,-21.542 2630.528,-29.1737 2636.8912,-32.0909"/>
</g>
<!-- Node47&#45;&gt;Node12 -->
<g id="edge87" class="edge">
<title>Node47&#45;&gt;Node12</title>
<path fill="none" stroke="#191970" d="M2366.0317,-116.2949C2358.864,-96.9588 2343.6525,-55.9229 2334.4793,-31.1767"/>
<polygon fill="#191970" stroke="#191970" points="2337.7163,-29.8392 2330.9587,-21.6792 2331.1527,-32.2723 2337.7163,-29.8392"/>
</g>
<!-- Node47&#45;&gt;Node13 -->
<g id="edge88" class="edge">
<title>Node47&#45;&gt;Node13</title>
<path fill="none" stroke="#191970" d="M2372.7686,-116.2949C2377.747,-97.0451 2388.2874,-56.2889 2394.6959,-31.5091"/>
<polygon fill="#191970" stroke="#191970" points="2398.1227,-32.237 2397.2381,-21.6792 2391.3457,-30.4843 2398.1227,-32.237"/>
</g>
<!-- Node47&#45;&gt;Node14 -->
<g id="edge89" class="edge">
<title>Node47&#45;&gt;Node14</title>
<path fill="none" stroke="#191970" d="M2439.7333,-122.7262C2491.396,-117.4935 2562.5048,-105.8593 2620,-80 2647.735,-67.5258 2674.6235,-44.7367 2691.4549,-28.7727"/>
<polygon fill="#191970" stroke="#191970" points="2694.1424,-31.0412 2698.8693,-21.5592 2689.2611,-26.0239 2694.1424,-31.0412"/>
</g>
<!-- Node47&#45;&gt;Node15 -->
<g id="edge90" class="edge">
<title>Node47&#45;&gt;Node15</title>
<path fill="none" stroke="#191970" d="M2344.2241,-116.3661C2322.3842,-107.1927 2290.3493,-93.3513 2263,-80 2227.6411,-62.7386 2187.8914,-40.9195 2162.2038,-26.4905"/>
<polygon fill="#191970" stroke="#191970" points="2163.84,-23.3951 2153.4104,-21.5311 2160.4012,-29.4922 2163.84,-23.3951"/>
</g>
<!-- Node47&#45;&gt;Node16 -->
<g id="edge91" class="edge">
<title>Node47&#45;&gt;Node16</title>
<path fill="none" stroke="#191970" d="M2353.7578,-116.2949C2322.7701,-95.8712 2255.0509,-51.2381 2218.5223,-27.1624"/>
<polygon fill="#191970" stroke="#191970" points="2220.2244,-24.0925 2209.9487,-21.5117 2216.3722,-29.9372 2220.2244,-24.0925"/>
</g>
<!-- Node47&#45;&gt;Node49 -->
<g id="edge94" class="edge">
<title>Node47&#45;&gt;Node49</title>
<path fill="none" stroke="#191970" d="M2300.4724,-122.3272C2133.4155,-111.0998 1712.1561,-82.788 1561.5689,-72.6674"/>
<polygon fill="#191970" stroke="#191970" points="1561.4138,-69.1492 1551.2016,-71.9707 1560.9443,-76.1334 1561.4138,-69.1492"/>
</g>
<!-- Node49&#45;&gt;Node21 -->
<g id="edge95" class="edge">
<title>Node49&#45;&gt;Node21</title>
<path fill="none" stroke="#191970" d="M1462.7517,-60.0576C1458.1201,-59.2865 1453.472,-58.5806 1449,-58 1207.4167,-26.6371 913.3971,-15.0386 817.7192,-11.9355"/>
<polygon fill="#191970" stroke="#191970" points="817.6609,-8.432 807.5552,-11.6139 817.4395,-15.4285 817.6609,-8.432"/>
</g>
<!-- Node49&#45;&gt;Node44 -->
<g id="edge96" class="edge">
<title>Node49&#45;&gt;Node44</title>
<path fill="none" stroke="#191970" d="M1513.603,-58.3619C1518.4746,-50.5131 1525.2384,-39.6159 1531.05,-30.2527"/>
<polygon fill="#191970" stroke="#191970" points="1534.139,-31.9129 1536.4389,-21.5707 1528.1915,-28.2213 1534.139,-31.9129"/>
</g>
</g>
</svg>
