<?xml version="1.0" encoding="UTF-8" standalone="no"?>
<!DOCTYPE svg PUBLIC "-//W3C//DTD SVG 1.1//EN"
 "http://www.w3.org/Graphics/SVG/1.1/DTD/svg11.dtd">
<!-- Generated by graphviz version 2.40.1 (20161225.0304)
 -->
<!-- Title: auto_timer.cpp Pages: 1 -->
<svg width="3077pt" height="449pt"
 viewBox="0.00 0.00 3077.00 449.00" xmlns="http://www.w3.org/2000/svg" xmlns:xlink="http://www.w3.org/1999/xlink">
<g id="graph0" class="graph" transform="scale(1 1) rotate(0) translate(4 445)">
<title>auto_timer.cpp</title>
<polygon fill="#ffffff" stroke="transparent" points="-4,4 -4,-445 3073,-445 3073,4 -4,4"/>
<!-- Node0 -->
<g id="node1" class="node">
<title>Node0</title>
<polygon fill="#bfbfbf" stroke="#000000" points="2879,-419.5 2879,-440.5 2955,-440.5 2955,-419.5 2879,-419.5"/>
<text text-anchor="middle" x="2917" y="-426.9" font-family="Helvetica,sans-Serif" font-size="12.00" fill="#000000">auto_timer.cpp</text>
</g>
<!-- Node1 -->
<g id="node2" class="node">
<title>Node1</title>
<g id="a_node2"><a xlink:href="../../d8/d07/auto__timer_8hpp.html" target="_top" xlink:title="timemory/auto_timer.hpp">
<polygon fill="#ffffff" stroke="#000000" points="2859,-361.5 2859,-382.5 2975,-382.5 2975,-361.5 2859,-361.5"/>
<text text-anchor="middle" x="2917" y="-368.9" font-family="Helvetica,sans-Serif" font-size="12.00" fill="#000000">timemory/auto_timer.hpp</text>
</a>
</g>
</g>
<!-- Node0&#45;&gt;Node1 -->
<g id="edge1" class="edge">
<title>Node0&#45;&gt;Node1</title>
<path fill="none" stroke="#191970" d="M2917,-419.3619C2917,-411.9219 2917,-401.7427 2917,-392.7276"/>
<polygon fill="#191970" stroke="#191970" points="2920.5001,-392.5706 2917,-382.5707 2913.5001,-392.5707 2920.5001,-392.5706"/>
</g>
<!-- Node2 -->
<g id="node3" class="node">
<title>Node2</title>
<g id="a_node3"><a xlink:href="../../db/d19/namespace_8hpp.html" target="_top" xlink:title="timemory/namespace.hpp">
<polygon fill="#ffffff" stroke="#000000" points="2819,-.5 2819,-21.5 2939,-21.5 2939,-.5 2819,-.5"/>
<text text-anchor="middle" x="2879" y="-7.9" font-family="Helvetica,sans-Serif" font-size="12.00" fill="#000000">timemory/namespace.hpp</text>
</a>
</g>
</g>
<!-- Node0&#45;&gt;Node2 -->
<g id="edge110" class="edge">
<title>Node0&#45;&gt;Node2</title>
<path fill="none" stroke="#191970" d="M2954.573,-419.4361C2999.5846,-404.2136 3069,-371.4284 3069,-314 3069,-314 3069,-314 3069,-127 3069,-68.6957 3003.0182,-38.825 2948.8206,-24.1237"/>
<polygon fill="#191970" stroke="#191970" points="2949.4138,-20.6622 2938.8564,-21.5517 2947.6643,-27.44 2949.4138,-20.6622"/>
</g>
<!-- Node3 -->
<g id="node4" class="node">
<title>Node3</title>
<g id="a_node4"><a xlink:href="../../d1/d4e/utility_8hpp.html" target="_top" xlink:title="timemory/utility.hpp">
<polygon fill="#ffffff" stroke="#000000" points="236,-58.5 236,-79.5 330,-79.5 330,-58.5 236,-58.5"/>
<text text-anchor="middle" x="283" y="-65.9" font-family="Helvetica,sans-Serif" font-size="12.00" fill="#000000">timemory/utility.hpp</text>
</a>
</g>
</g>
<!-- Node0&#45;&gt;Node3 -->
<g id="edge109" class="edge">
<title>Node0&#45;&gt;Node3</title>
<path fill="none" stroke="#191970" d="M2878.9026,-429.3934C2551.3393,-424.0572 222,-383.6619 222,-314 222,-314 222,-314 222,-185 222,-146.8343 248.1875,-108.8827 266.2458,-87.2493"/>
<polygon fill="#191970" stroke="#191970" points="269.0262,-89.3851 272.9271,-79.5345 263.7347,-84.8024 269.0262,-89.3851"/>
</g>
<!-- Node1&#45;&gt;Node2 -->
<g id="edge2" class="edge">
<title>Node1&#45;&gt;Node2</title>
<path fill="none" stroke="#191970" d="M2951.1158,-361.4575C2969.9878,-354.0266 2992.4878,-342.2766 3007,-325 3029.6467,-298.0393 3031,-284.7101 3031,-249.5 3031,-249.5 3031,-249.5 3031,-127 3031,-73.4974 2970.7506,-41.3839 2926.1161,-24.9342"/>
<polygon fill="#191970" stroke="#191970" points="2927.1678,-21.5938 2916.573,-21.5639 2924.8367,-28.1943 2927.1678,-21.5938"/>
</g>
<!-- Node1&#45;&gt;Node3 -->
<g id="edge3" class="edge">
<title>Node1&#45;&gt;Node3</title>
<path fill="none" stroke="#191970" d="M2858.7214,-370.8831C2469.2907,-363.2342 260,-316.8722 260,-249.5 260,-249.5 260,-249.5 260,-185 260,-150.97 269.6417,-112.3783 276.4399,-89.3976"/>
<polygon fill="#191970" stroke="#191970" points="279.8177,-90.3207 279.4063,-79.7339 273.1258,-88.2666 279.8177,-90.3207"/>
</g>
<!-- Node7 -->
<g id="node8" class="node">
<title>Node7</title>
<polygon fill="#ffffff" stroke="#bfbfbf" points="2505.5,-.5 2505.5,-21.5 2544.5,-21.5 2544.5,-.5 2505.5,-.5"/>
<text text-anchor="middle" x="2525" y="-7.9" font-family="Helvetica,sans-Serif" font-size="12.00" fill="#000000">string</text>
</g>
<!-- Node1&#45;&gt;Node7 -->
<g id="edge107" class="edge">
<title>Node1&#45;&gt;Node7</title>
<path fill="none" stroke="#191970" d="M2921.1301,-361.3724C2924.5477,-351.9742 2929.1333,-337.806 2931,-325 2944.6186,-231.5756 2960.5017,-182.0083 2893,-116 2858.1717,-81.9423 2845.5306,-75.3176 2800,-58 2714.8361,-25.6079 2606.3386,-15.4423 2554.7881,-12.3288"/>
<polygon fill="#191970" stroke="#191970" points="2554.8602,-8.8274 2544.681,-11.7659 2554.4709,-15.8166 2554.8602,-8.8274"/>
</g>
<!-- Node17 -->
<g id="node18" class="node">
<title>Node17</title>
<g id="a_node18"><a xlink:href="../../df/df2/timing__manager_8hpp.html" target="_top" xlink:title="timemory/timing_manager.hpp">
<polygon fill="#ffffff" stroke="#000000" points="1401,-303.5 1401,-324.5 1539,-324.5 1539,-303.5 1401,-303.5"/>
<text text-anchor="middle" x="1470" y="-310.9" font-family="Helvetica,sans-Serif" font-size="12.00" fill="#000000">timemory/timing_manager.hpp</text>
</a>
</g>
</g>
<!-- Node1&#45;&gt;Node17 -->
<g id="edge18" class="edge">
<title>Node1&#45;&gt;Node17</title>
<path fill="none" stroke="#191970" d="M2858.9341,-369.6725C2632.632,-360.6017 1809.4754,-327.6072 1549.3542,-317.1808"/>
<polygon fill="#191970" stroke="#191970" points="1549.3652,-313.6785 1539.233,-316.7751 1549.0848,-320.6729 1549.3652,-313.6785"/>
</g>
<!-- Node21 -->
<g id="node22" class="node">
<title>Node21</title>
<polygon fill="#ffffff" stroke="#bfbfbf" points="1644.5,-.5 1644.5,-21.5 1687.5,-21.5 1687.5,-.5 1644.5,-.5"/>
<text text-anchor="middle" x="1666" y="-7.9" font-family="Helvetica,sans-Serif" font-size="12.00" fill="#000000">cstdint</text>
</g>
<!-- Node1&#45;&gt;Node21 -->
<g id="edge108" class="edge">
<title>Node1&#45;&gt;Node21</title>
<path fill="none" stroke="#191970" d="M2915.0626,-361.3447C2906.0334,-315.1548 2863.4413,-131.2712 2746,-58 2700.3806,-29.5382 1870.7288,-14.3662 1697.5279,-11.5016"/>
<polygon fill="#191970" stroke="#191970" points="1697.5814,-8.0021 1687.5254,-11.3379 1697.4668,-15.0012 1697.5814,-8.0021"/>
</g>
<!-- Node3&#45;&gt;Node2 -->
<g id="edge17" class="edge">
<title>Node3&#45;&gt;Node2</title>
<path fill="none" stroke="#191970" d="M330.1894,-67.1562C392.9339,-64.7578 507.2867,-60.5713 605,-58 1471.0702,-35.2097 1687.9263,-44.6539 2554,-22 2641.722,-19.7055 2742.7319,-16.1421 2808.5549,-13.6966"/>
<polygon fill="#191970" stroke="#191970" points="2808.947,-17.1845 2818.8096,-13.314 2808.686,-10.1893 2808.947,-17.1845"/>
</g>
<!-- Node4 -->
<g id="node5" class="node">
<title>Node4</title>
<polygon fill="#ffffff" stroke="#bfbfbf" points="801.5,-.5 801.5,-21.5 852.5,-21.5 852.5,-.5 801.5,-.5"/>
<text text-anchor="middle" x="827" y="-7.9" font-family="Helvetica,sans-Serif" font-size="12.00" fill="#000000">iostream</text>
</g>
<!-- Node3&#45;&gt;Node4 -->
<g id="edge4" class="edge">
<title>Node3&#45;&gt;Node4</title>
<path fill="none" stroke="#191970" d="M330.3248,-63.9543C437.4633,-52.5315 696.6097,-24.9019 791.4574,-14.7895"/>
<polygon fill="#191970" stroke="#191970" points="791.8423,-18.2684 801.4149,-13.7278 791.1001,-11.3078 791.8423,-18.2684"/>
</g>
<!-- Node5 -->
<g id="node6" class="node">
<title>Node5</title>
<polygon fill="#ffffff" stroke="#bfbfbf" points="195,-.5 195,-21.5 237,-21.5 237,-.5 195,-.5"/>
<text text-anchor="middle" x="216" y="-7.9" font-family="Helvetica,sans-Serif" font-size="12.00" fill="#000000">cstdlib</text>
</g>
<!-- Node3&#45;&gt;Node5 -->
<g id="edge5" class="edge">
<title>Node3&#45;&gt;Node5</title>
<path fill="none" stroke="#191970" d="M270.7112,-58.3619C260.9833,-49.9408 247.2018,-38.0105 235.9045,-28.2308"/>
<polygon fill="#191970" stroke="#191970" points="238.0623,-25.4695 228.2109,-21.5707 233.4808,-30.7619 238.0623,-25.4695"/>
</g>
<!-- Node6 -->
<g id="node7" class="node">
<title>Node6</title>
<polygon fill="#ffffff" stroke="#bfbfbf" points="255.5,-.5 255.5,-21.5 284.5,-21.5 284.5,-.5 255.5,-.5"/>
<text text-anchor="middle" x="270" y="-7.9" font-family="Helvetica,sans-Serif" font-size="12.00" fill="#000000">set</text>
</g>
<!-- Node3&#45;&gt;Node6 -->
<g id="edge6" class="edge">
<title>Node3&#45;&gt;Node6</title>
<path fill="none" stroke="#191970" d="M280.6156,-58.3619C278.9297,-50.8401 276.6163,-40.5187 274.5793,-31.4308"/>
<polygon fill="#191970" stroke="#191970" points="277.9717,-30.563 272.3693,-21.5707 271.1412,-32.0941 277.9717,-30.563"/>
</g>
<!-- Node3&#45;&gt;Node7 -->
<g id="edge7" class="edge">
<title>Node3&#45;&gt;Node7</title>
<path fill="none" stroke="#191970" d="M330.1919,-67.2449C392.939,-64.944 507.2949,-60.8647 605,-58 1373.8013,-35.459 2315.9888,-15.38 2494.9094,-11.6273"/>
<polygon fill="#191970" stroke="#191970" points="2495.2108,-15.1219 2505.1353,-11.4132 2495.0642,-8.1234 2495.2108,-15.1219"/>
</g>
<!-- Node8 -->
<g id="node9" class="node">
<title>Node8</title>
<polygon fill="#ffffff" stroke="#bfbfbf" points="493.5,-.5 493.5,-21.5 542.5,-21.5 542.5,-.5 493.5,-.5"/>
<text text-anchor="middle" x="518" y="-7.9" font-family="Helvetica,sans-Serif" font-size="12.00" fill="#000000">sstream</text>
</g>
<!-- Node3&#45;&gt;Node8 -->
<g id="edge8" class="edge">
<title>Node3&#45;&gt;Node8</title>
<path fill="none" stroke="#191970" d="M330.2553,-59.3084C369.146,-51.0397 425.8791,-38.3099 483.2505,-22.3419"/>
<polygon fill="#191970" stroke="#191970" points="484.533,-25.617 493.2106,-19.5383 482.6363,-18.8789 484.533,-25.617"/>
</g>
<!-- Node9 -->
<g id="node10" class="node">
<title>Node9</title>
<polygon fill="#ffffff" stroke="#bfbfbf" points="1038,-.5 1038,-21.5 1086,-21.5 1086,-.5 1038,-.5"/>
<text text-anchor="middle" x="1062" y="-7.9" font-family="Helvetica,sans-Serif" font-size="12.00" fill="#000000">iomanip</text>
</g>
<!-- Node3&#45;&gt;Node9 -->
<g id="edge9" class="edge">
<title>Node3&#45;&gt;Node9</title>
<path fill="none" stroke="#191970" d="M330.2661,-65.4808C473.9238,-54.7849 903.1601,-22.8263 1027.7456,-13.5504"/>
<polygon fill="#191970" stroke="#191970" points="1028.1355,-17.0311 1037.848,-12.7982 1027.6157,-10.0505 1028.1355,-17.0311"/>
</g>
<!-- Node10 -->
<g id="node11" class="node">
<title>Node10</title>
<polygon fill="#ffffff" stroke="#bfbfbf" points="60.5,-.5 60.5,-21.5 103.5,-21.5 103.5,-.5 60.5,-.5"/>
<text text-anchor="middle" x="82" y="-7.9" font-family="Helvetica,sans-Serif" font-size="12.00" fill="#000000">cstring</text>
</g>
<!-- Node3&#45;&gt;Node10 -->
<g id="edge10" class="edge">
<title>Node3&#45;&gt;Node10</title>
<path fill="none" stroke="#191970" d="M240.8992,-58.4718C208.2842,-50.0822 161.8029,-37.6202 113.2834,-22.258"/>
<polygon fill="#191970" stroke="#191970" points="114.1467,-18.8595 103.5558,-19.1473 112.0145,-25.5269 114.1467,-18.8595"/>
</g>
<!-- Node11 -->
<g id="node12" class="node">
<title>Node11</title>
<polygon fill="#ffffff" stroke="#bfbfbf" points="121.5,-.5 121.5,-21.5 176.5,-21.5 176.5,-.5 121.5,-.5"/>
<text text-anchor="middle" x="149" y="-7.9" font-family="Helvetica,sans-Serif" font-size="12.00" fill="#000000">exception</text>
</g>
<!-- Node3&#45;&gt;Node11 -->
<g id="edge11" class="edge">
<title>Node3&#45;&gt;Node11</title>
<path fill="none" stroke="#191970" d="M258.7336,-58.4966C237.5217,-49.3154 206.5019,-35.8889 182.8502,-25.6516"/>
<polygon fill="#191970" stroke="#191970" points="184.1062,-22.3815 173.5387,-21.6212 181.3256,-28.8055 184.1062,-22.3815"/>
</g>
<!-- Node12 -->
<g id="node13" class="node">
<title>Node12</title>
<polygon fill="#ffffff" stroke="#bfbfbf" points="560.5,-.5 560.5,-21.5 615.5,-21.5 615.5,-.5 560.5,-.5"/>
<text text-anchor="middle" x="588" y="-7.9" font-family="Helvetica,sans-Serif" font-size="12.00" fill="#000000">stdexcept</text>
</g>
<!-- Node3&#45;&gt;Node12 -->
<g id="edge12" class="edge">
<title>Node3&#45;&gt;Node12</title>
<path fill="none" stroke="#191970" d="M330.0113,-62.5856C381.9309,-55.1024 468.12,-41.5029 550.4291,-22.1912"/>
<polygon fill="#191970" stroke="#191970" points="551.2668,-25.5897 560.1853,-19.8704 549.6468,-18.7797 551.2668,-25.5897"/>
</g>
<!-- Node13 -->
<g id="node14" class="node">
<title>Node13</title>
<polygon fill="#ffffff" stroke="#bfbfbf" points="302.5,-.5 302.5,-21.5 357.5,-21.5 357.5,-.5 302.5,-.5"/>
<text text-anchor="middle" x="330" y="-7.9" font-family="Helvetica,sans-Serif" font-size="12.00" fill="#000000">functional</text>
</g>
<!-- Node3&#45;&gt;Node13 -->
<g id="edge13" class="edge">
<title>Node3&#45;&gt;Node13</title>
<path fill="none" stroke="#191970" d="M291.6205,-58.3619C298.1795,-50.2678 307.3656,-38.9318 315.1062,-29.3796"/>
<polygon fill="#191970" stroke="#191970" points="317.8575,-31.5436 321.4341,-21.5707 312.419,-27.1364 317.8575,-31.5436"/>
</g>
<!-- Node14 -->
<g id="node15" class="node">
<title>Node14</title>
<polygon fill="#ffffff" stroke="#bfbfbf" points="0,-.5 0,-21.5 42,-21.5 42,-.5 0,-.5"/>
<text text-anchor="middle" x="21" y="-7.9" font-family="Helvetica,sans-Serif" font-size="12.00" fill="#000000">deque</text>
</g>
<!-- Node3&#45;&gt;Node14 -->
<g id="edge14" class="edge">
<title>Node3&#45;&gt;Node14</title>
<path fill="none" stroke="#191970" d="M235.8428,-61.605C190.7326,-54.0507 120.715,-41.0739 51.8773,-21.9539"/>
<polygon fill="#191970" stroke="#191970" points="52.7493,-18.5634 42.1745,-19.2152 50.8477,-25.3002 52.7493,-18.5634"/>
</g>
<!-- Node15 -->
<g id="node16" class="node">
<title>Node15</title>
<polygon fill="#ffffff" stroke="#bfbfbf" points="375.5,-.5 375.5,-21.5 416.5,-21.5 416.5,-.5 375.5,-.5"/>
<text text-anchor="middle" x="396" y="-7.9" font-family="Helvetica,sans-Serif" font-size="12.00" fill="#000000">cmath</text>
</g>
<!-- Node3&#45;&gt;Node15 -->
<g id="edge15" class="edge">
<title>Node3&#45;&gt;Node15</title>
<path fill="none" stroke="#191970" d="M303.4634,-58.4966C321.0331,-49.4786 346.5821,-36.3649 366.3851,-26.2006"/>
<polygon fill="#191970" stroke="#191970" points="368.0086,-29.3014 375.3069,-21.6212 364.8121,-23.0738 368.0086,-29.3014"/>
</g>
<!-- Node16 -->
<g id="node17" class="node">
<title>Node16</title>
<polygon fill="#ffffff" stroke="#bfbfbf" points="434.5,-.5 434.5,-21.5 475.5,-21.5 475.5,-.5 434.5,-.5"/>
<text text-anchor="middle" x="455" y="-7.9" font-family="Helvetica,sans-Serif" font-size="12.00" fill="#000000">vector</text>
</g>
<!-- Node3&#45;&gt;Node16 -->
<g id="edge16" class="edge">
<title>Node3&#45;&gt;Node16</title>
<path fill="none" stroke="#191970" d="M316.3727,-58.5C343.402,-49.8921 382.6665,-37.1552 424.8338,-22.3262"/>
<polygon fill="#191970" stroke="#191970" points="426.186,-25.5605 434.447,-18.9267 423.8522,-18.961 426.186,-25.5605"/>
</g>
<!-- Node17&#45;&gt;Node2 -->
<g id="edge35" class="edge">
<title>Node17&#45;&gt;Node2</title>
<path fill="none" stroke="#191970" d="M1539.28,-312.7468C1787.0926,-308.0744 2617.5302,-290.7126 2669,-267 2776.4597,-217.4924 2846.8698,-82.115 2870.3438,-30.9454"/>
<polygon fill="#191970" stroke="#191970" points="2873.6255,-32.1809 2874.5239,-21.6242 2867.2384,-29.3166 2873.6255,-32.1809"/>
</g>
<!-- Node17&#45;&gt;Node3 -->
<g id="edge36" class="edge">
<title>Node17&#45;&gt;Node3</title>
<path fill="none" stroke="#191970" d="M1400.6508,-312.3075C1202.986,-307.2147 645.8757,-290.8964 567,-267 459.6207,-234.4681 438.0678,-207.5177 350,-138 330.7175,-122.7791 311.4693,-102.2634 298.5847,-87.5662"/>
<polygon fill="#191970" stroke="#191970" points="300.9602,-84.961 291.7817,-79.669 295.6567,-89.5298 300.9602,-84.961"/>
</g>
<!-- Node17&#45;&gt;Node7 -->
<g id="edge21" class="edge">
<title>Node17&#45;&gt;Node7</title>
<path fill="none" stroke="#191970" d="M1539.0546,-312.3697C1735.7956,-307.4727 2296.7523,-291.6897 2479,-267 2642.4717,-244.8539 2841,-349.9649 2841,-185 2841,-185 2841,-185 2841,-127 2841,-80.382 2803.8371,-78.5644 2762,-58 2725.737,-40.1755 2609.8291,-22.5606 2554.6895,-14.9348"/>
<polygon fill="#191970" stroke="#191970" points="2554.895,-11.4304 2544.5135,-13.5457 2553.9482,-18.3661 2554.895,-11.4304"/>
</g>
<!-- Node17&#45;&gt;Node14 -->
<g id="edge20" class="edge">
<title>Node17&#45;&gt;Node14</title>
<path fill="none" stroke="#191970" d="M1494.4316,-303.4729C1509.0983,-295.7154 1526.5094,-283.617 1535,-267 1542.0778,-253.1479 1545.7549,-243.2386 1535,-232 1503.5499,-199.1353 762.2595,-200.5576 717,-196 552.6955,-179.4545 512.284,-168.5556 350,-138 231.5162,-115.6913 189.6758,-139.8253 85,-80 63.5367,-67.7331 45.088,-45.8634 33.5879,-30.0271"/>
<polygon fill="#191970" stroke="#191970" points="36.2428,-27.7156 27.6496,-21.5183 30.5026,-31.7218 36.2428,-27.7156"/>
</g>
<!-- Node18 -->
<g id="node19" class="node">
<title>Node18</title>
<polygon fill="#ffffff" stroke="#bfbfbf" points="2482,-58.5 2482,-79.5 2562,-79.5 2562,-58.5 2482,-58.5"/>
<text text-anchor="middle" x="2522" y="-65.9" font-family="Helvetica,sans-Serif" font-size="12.00" fill="#000000">unordered_map</text>
</g>
<!-- Node17&#45;&gt;Node18 -->
<g id="edge19" class="edge">
<title>Node17&#45;&gt;Node18</title>
<path fill="none" stroke="#191970" d="M1539.0357,-312.7734C1756.2291,-308.6427 2413.4023,-293.9637 2450,-267 2507.456,-224.6687 2519.1546,-131.8494 2521.4693,-90.0907"/>
<polygon fill="#191970" stroke="#191970" points="2524.9715,-90.1097 2521.8973,-79.9707 2517.9777,-89.8139 2524.9715,-90.1097"/>
</g>
<!-- Node19 -->
<g id="node20" class="node">
<title>Node19</title>
<polygon fill="#ffffff" stroke="#bfbfbf" points="598,-239 598,-260 640,-260 640,-239 598,-239"/>
<text text-anchor="middle" x="619" y="-246.4" font-family="Helvetica,sans-Serif" font-size="12.00" fill="#000000">thread</text>
</g>
<!-- Node17&#45;&gt;Node19 -->
<g id="edge22" class="edge">
<title>Node17&#45;&gt;Node19</title>
<path fill="none" stroke="#191970" d="M1400.9249,-313.5949C1230.5839,-312.0237 794.1099,-304.3609 654,-267 651.323,-266.2862 648.6107,-265.3557 645.9423,-264.2957"/>
<polygon fill="#191970" stroke="#191970" points="647.163,-261.0057 636.6118,-260.0448 644.2609,-267.3758 647.163,-261.0057"/>
</g>
<!-- Node20 -->
<g id="node21" class="node">
<title>Node20</title>
<polygon fill="#ffffff" stroke="#bfbfbf" points="834.5,-58.5 834.5,-79.5 875.5,-79.5 875.5,-58.5 834.5,-58.5"/>
<text text-anchor="middle" x="855" y="-65.9" font-family="Helvetica,sans-Serif" font-size="12.00" fill="#000000">mutex</text>
</g>
<!-- Node17&#45;&gt;Node20 -->
<g id="edge23" class="edge">
<title>Node17&#45;&gt;Node20</title>
<path fill="none" stroke="#191970" d="M1400.8413,-312.8778C1197.955,-309.2509 616.8111,-296.3343 589,-267 505.7402,-179.18 738.5564,-102.0833 824.5161,-77.3105"/>
<polygon fill="#191970" stroke="#191970" points="825.5749,-80.6483 834.2399,-74.5516 823.6642,-73.9141 825.5749,-80.6483"/>
</g>
<!-- Node17&#45;&gt;Node21 -->
<g id="edge24" class="edge">
<title>Node17&#45;&gt;Node21</title>
<path fill="none" stroke="#191970" d="M1530.8592,-303.4651C1551.5789,-296.6526 1572.6142,-285.4423 1585,-267 1593.6727,-254.0865 1594.8605,-244.031 1585,-232 1530.4804,-165.4796 880.5196,-146.5204 826,-80 819.802,-72.4376 819.282,-65.1044 826,-58 854.27,-28.1041 1483.7272,-14.421 1633.9968,-11.5739"/>
<polygon fill="#191970" stroke="#191970" points="1634.4282,-15.0665 1644.3611,-11.3804 1634.2975,-8.0677 1634.4282,-15.0665"/>
</g>
<!-- Node22 -->
<g id="node23" class="node">
<title>Node22</title>
<polygon fill="#ffffff" stroke="#bfbfbf" points="894,-58.5 894,-79.5 980,-79.5 980,-58.5 894,-58.5"/>
<text text-anchor="middle" x="937" y="-65.9" font-family="Helvetica,sans-Serif" font-size="12.00" fill="#000000">cereal/cereal.hpp</text>
</g>
<!-- Node17&#45;&gt;Node22 -->
<g id="edge25" class="edge">
<title>Node17&#45;&gt;Node22</title>
<path fill="none" stroke="#191970" d="M1400.7284,-312.3012C1216.4811,-307.4471 726.7223,-292.2204 703,-267 690.53,-253.7425 708.0069,-181.5052 713,-174 739.5657,-134.0687 760.8884,-137.0151 804,-116 831.8157,-102.441 864.5748,-90.8167 890.6207,-82.5204"/>
<polygon fill="#191970" stroke="#191970" points="891.7519,-85.8339 900.25,-79.5067 889.6611,-79.1534 891.7519,-85.8339"/>
</g>
<!-- Node23 -->
<g id="node24" class="node">
<title>Node23</title>
<polygon fill="#ffffff" stroke="#bfbfbf" points="998,-58.5 998,-79.5 1108,-79.5 1108,-58.5 998,-58.5"/>
<text text-anchor="middle" x="1053" y="-65.9" font-family="Helvetica,sans-Serif" font-size="12.00" fill="#000000">cereal/types/deque.hpp</text>
</g>
<!-- Node17&#45;&gt;Node23 -->
<g id="edge26" class="edge">
<title>Node17&#45;&gt;Node23</title>
<path fill="none" stroke="#191970" d="M1400.8551,-312.1676C1220.6493,-307.0572 748.9075,-291.4003 726,-267 637.9434,-173.2052 870.7439,-107.9266 988.9692,-81.7589"/>
<polygon fill="#191970" stroke="#191970" points="989.979,-85.121 999.0037,-79.5708 988.4876,-78.2818 989.979,-85.121"/>
</g>
<!-- Node24 -->
<g id="node25" class="node">
<title>Node24</title>
<polygon fill="#ffffff" stroke="#bfbfbf" points="1126.5,-58.5 1126.5,-79.5 1215.5,-79.5 1215.5,-58.5 1126.5,-58.5"/>
<text text-anchor="middle" x="1171" y="-65.9" font-family="Helvetica,sans-Serif" font-size="12.00" fill="#000000">cereal/access.hpp</text>
</g>
<!-- Node17&#45;&gt;Node24 -->
<g id="edge27" class="edge">
<title>Node17&#45;&gt;Node24</title>
<path fill="none" stroke="#191970" d="M1539.0032,-306.2698C1600.0056,-296.46 1674.877,-275.2995 1644,-232 1618.3614,-196.0465 1334.9719,-114.3543 1219.517,-82.2799"/>
<polygon fill="#191970" stroke="#191970" points="1220.1054,-78.8111 1209.5339,-79.514 1218.2363,-85.557 1220.1054,-78.8111"/>
</g>
<!-- Node25 -->
<g id="node26" class="node">
<title>Node25</title>
<polygon fill="#ffffff" stroke="#bfbfbf" points="734.5,-232.5 734.5,-266.5 843.5,-266.5 843.5,-232.5 734.5,-232.5"/>
<text text-anchor="start" x="742.5" y="-252.9" font-family="Helvetica,sans-Serif" font-size="12.00" fill="#000000">cereal/types/unordered</text>
<text text-anchor="middle" x="789" y="-239.9" font-family="Helvetica,sans-Serif" font-size="12.00" fill="#000000">_map.hpp</text>
</g>
<!-- Node17&#45;&gt;Node25 -->
<g id="edge28" class="edge">
<title>Node17&#45;&gt;Node25</title>
<path fill="none" stroke="#191970" d="M1400.9952,-313.0271C1288.2291,-310.4981 1057.4763,-301.395 853.6499,-266.8985"/>
<polygon fill="#191970" stroke="#191970" points="854.1059,-263.4257 843.6579,-265.1831 852.9215,-270.3247 854.1059,-263.4257"/>
</g>
<!-- Node26 -->
<g id="node27" class="node">
<title>Node26</title>
<polygon fill="#ffffff" stroke="#bfbfbf" points="2350.5,-58.5 2350.5,-79.5 2463.5,-79.5 2463.5,-58.5 2350.5,-58.5"/>
<text text-anchor="middle" x="2407" y="-65.9" font-family="Helvetica,sans-Serif" font-size="12.00" fill="#000000">cereal/types/chrono.hpp</text>
</g>
<!-- Node17&#45;&gt;Node26 -->
<g id="edge29" class="edge">
<title>Node17&#45;&gt;Node26</title>
<path fill="none" stroke="#191970" d="M1539.1058,-306.8868C1699.4727,-289.7686 2092.615,-244.1172 2216,-196 2284.7938,-169.1721 2354.1383,-114.577 2387.1424,-86.5158"/>
<polygon fill="#191970" stroke="#191970" points="2389.8006,-88.8455 2395.0933,-79.6674 2385.2323,-83.5417 2389.8006,-88.8455"/>
</g>
<!-- Node27 -->
<g id="node28" class="node">
<title>Node27</title>
<polygon fill="#ffffff" stroke="#bfbfbf" points="862,-239 862,-260 994,-260 994,-239 862,-239"/>
<text text-anchor="middle" x="928" y="-246.4" font-family="Helvetica,sans-Serif" font-size="12.00" fill="#000000">cereal/archives/adapters.hpp</text>
</g>
<!-- Node17&#45;&gt;Node27 -->
<g id="edge30" class="edge">
<title>Node17&#45;&gt;Node27</title>
<path fill="none" stroke="#191970" d="M1400.7912,-309.8339C1309.2948,-303.688 1143.2672,-290.323 1003,-267 995.2099,-265.7047 987.0223,-264.0756 979.0352,-262.3356"/>
<polygon fill="#191970" stroke="#191970" points="979.5953,-258.8742 969.0704,-260.0892 978.0558,-265.7028 979.5953,-258.8742"/>
</g>
<!-- Node28 -->
<g id="node29" class="node">
<title>Node28</title>
<polygon fill="#ffffff" stroke="#bfbfbf" points="1012,-239 1012,-260 1134,-260 1134,-239 1012,-239"/>
<text text-anchor="middle" x="1073" y="-246.4" font-family="Helvetica,sans-Serif" font-size="12.00" fill="#000000">cereal/archives/binary.hpp</text>
</g>
<!-- Node17&#45;&gt;Node28 -->
<g id="edge31" class="edge">
<title>Node17&#45;&gt;Node28</title>
<path fill="none" stroke="#191970" d="M1400.7565,-306.1328C1334.3296,-298.0947 1231.3593,-284.3477 1143,-267 1136.2278,-265.6704 1129.1284,-264.1026 1122.1563,-262.4606"/>
<polygon fill="#191970" stroke="#191970" points="1122.6284,-258.9738 1112.0855,-260.0211 1120.9803,-265.7771 1122.6284,-258.9738"/>
</g>
<!-- Node29 -->
<g id="node30" class="node">
<title>Node29</title>
<polygon fill="#ffffff" stroke="#bfbfbf" points="1152,-239 1152,-260 1266,-260 1266,-239 1152,-239"/>
<text text-anchor="middle" x="1209" y="-246.4" font-family="Helvetica,sans-Serif" font-size="12.00" fill="#000000">cereal/archives/json.hpp</text>
</g>
<!-- Node17&#45;&gt;Node29 -->
<g id="edge32" class="edge">
<title>Node17&#45;&gt;Node29</title>
<path fill="none" stroke="#191970" d="M1425.0072,-303.4612C1385.4381,-294.1199 1326.3144,-279.9853 1275,-267 1269.4048,-265.5841 1263.5506,-264.0738 1257.7383,-262.5562"/>
<polygon fill="#191970" stroke="#191970" points="1258.6105,-259.1666 1248.0493,-260.0107 1256.8317,-265.9369 1258.6105,-259.1666"/>
</g>
<!-- Node30 -->
<g id="node31" class="node">
<title>Node30</title>
<polygon fill="#ffffff" stroke="#bfbfbf" points="1284,-232.5 1284,-266.5 1396,-266.5 1396,-232.5 1284,-232.5"/>
<text text-anchor="start" x="1292" y="-252.9" font-family="Helvetica,sans-Serif" font-size="12.00" fill="#000000">cereal/archives/portable</text>
<text text-anchor="middle" x="1340" y="-239.9" font-family="Helvetica,sans-Serif" font-size="12.00" fill="#000000">_binary.hpp</text>
</g>
<!-- Node17&#45;&gt;Node30 -->
<g id="edge33" class="edge">
<title>Node17&#45;&gt;Node30</title>
<path fill="none" stroke="#191970" d="M1448.8239,-303.4934C1431.1968,-294.7477 1405.5212,-282.0086 1383.536,-271.1005"/>
<polygon fill="#191970" stroke="#191970" points="1384.8875,-267.864 1374.3739,-266.5547 1381.7763,-274.1347 1384.8875,-267.864"/>
</g>
<!-- Node31 -->
<g id="node32" class="node">
<title>Node31</title>
<polygon fill="#ffffff" stroke="#bfbfbf" points="1414.5,-239 1414.5,-260 1525.5,-260 1525.5,-239 1414.5,-239"/>
<text text-anchor="middle" x="1470" y="-246.4" font-family="Helvetica,sans-Serif" font-size="12.00" fill="#000000">cereal/archives/xml.hpp</text>
</g>
<!-- Node17&#45;&gt;Node31 -->
<g id="edge34" class="edge">
<title>Node17&#45;&gt;Node31</title>
<path fill="none" stroke="#191970" d="M1470,-303.3491C1470,-294.4397 1470,-281.4599 1470,-270.4761"/>
<polygon fill="#191970" stroke="#191970" points="1473.5001,-270.3822 1470,-260.3823 1466.5001,-270.3823 1473.5001,-270.3822"/>
</g>
<!-- Node32 -->
<g id="node33" class="node">
<title>Node32</title>
<g id="a_node33"><a xlink:href="../../df/d05/timer_8hpp.html" target="_top" xlink:title="timemory/timer.hpp">
<polygon fill="#ffffff" stroke="#000000" points="2347,-239 2347,-260 2441,-260 2441,-239 2347,-239"/>
<text text-anchor="middle" x="2394" y="-246.4" font-family="Helvetica,sans-Serif" font-size="12.00" fill="#000000">timemory/timer.hpp</text>
</a>
</g>
</g>
<!-- Node17&#45;&gt;Node32 -->
<g id="edge37" class="edge">
<title>Node17&#45;&gt;Node32</title>
<path fill="none" stroke="#191970" d="M1539.1045,-312.2423C1715.7868,-307.4265 2180.7825,-292.6428 2333,-267 2339.3455,-265.931 2345.9707,-264.4389 2352.4177,-262.7724"/>
<polygon fill="#191970" stroke="#191970" points="2353.6218,-266.0713 2362.3363,-260.0457 2351.7662,-259.3217 2353.6218,-266.0713"/>
</g>
<!-- Node53 -->
<g id="node49" class="node">
<title>Node53</title>
<g id="a_node49"><a xlink:href="../../d0/d5d/mpi_8hpp.html" target="_top" xlink:title="timemory/mpi.hpp">
<polygon fill="#ffffff" stroke="#000000" points="614,-58.5 614,-79.5 702,-79.5 702,-58.5 614,-58.5"/>
<text text-anchor="middle" x="658" y="-65.9" font-family="Helvetica,sans-Serif" font-size="12.00" fill="#000000">timemory/mpi.hpp</text>
</a>
</g>
</g>
<!-- Node17&#45;&gt;Node53 -->
<g id="edge106" class="edge">
<title>Node17&#45;&gt;Node53</title>
<path fill="none" stroke="#191970" d="M1516.4297,-303.4635C1535.8537,-296.5161 1556.5407,-285.2047 1568,-267 1576.2867,-253.8354 1578.7549,-243.2386 1568,-232 1505.0998,-166.2706 830.1031,-239.1311 750,-196 706.4696,-172.5613 678.4041,-118.4735 665.7665,-89.0109"/>
<polygon fill="#191970" stroke="#191970" points="668.9806,-87.6241 661.9398,-79.7072 662.5069,-90.2869 668.9806,-87.6241"/>
</g>
<!-- Node32&#45;&gt;Node2 -->
<g id="edge38" class="edge">
<title>Node32&#45;&gt;Node2</title>
<path fill="none" stroke="#191970" d="M2441.0449,-240.017C2524.2512,-221.35 2699.6496,-173.3015 2817,-80 2835.5465,-65.2543 2853.2533,-44.6676 2864.9598,-29.824"/>
<polygon fill="#191970" stroke="#191970" points="2867.785,-31.8918 2871.1201,-21.8355 2862.2418,-27.6171 2867.785,-31.8918"/>
</g>
<!-- Node33 -->
<g id="node34" class="node">
<title>Node33</title>
<g id="a_node34"><a xlink:href="../../d6/d01/base__timer_8hpp.html" target="_top" xlink:title="timemory/base_timer.hpp">
<polygon fill="#ffffff" stroke="#000000" points="2089,-174.5 2089,-195.5 2207,-195.5 2207,-174.5 2089,-174.5"/>
<text text-anchor="middle" x="2148" y="-181.9" font-family="Helvetica,sans-Serif" font-size="12.00" fill="#000000">timemory/base_timer.hpp</text>
</a>
</g>
</g>
<!-- Node32&#45;&gt;Node33 -->
<g id="edge39" class="edge">
<title>Node32&#45;&gt;Node33</title>
<path fill="none" stroke="#191970" d="M2353.9283,-238.9934C2311.3102,-227.8191 2243.8293,-210.126 2197.8178,-198.062"/>
<polygon fill="#191970" stroke="#191970" points="2198.6152,-194.6528 2188.0545,-195.5021 2196.8398,-201.424 2198.6152,-194.6528"/>
</g>
<!-- Node33&#45;&gt;Node2 -->
<g id="edge40" class="edge">
<title>Node33&#45;&gt;Node2</title>
<path fill="none" stroke="#191970" d="M2207.3101,-183.0866C2325.6792,-178.7123 2587.1383,-166.111 2672,-138 2746.9,-113.1889 2822.9117,-56.7853 2858.3841,-28.2373"/>
<polygon fill="#191970" stroke="#191970" points="2860.966,-30.6481 2866.5037,-21.6157 2856.542,-25.2233 2860.966,-30.6481"/>
</g>
<!-- Node33&#45;&gt;Node3 -->
<g id="edge78" class="edge">
<title>Node33&#45;&gt;Node3</title>
<path fill="none" stroke="#191970" d="M2088.7615,-184.2835C1791.8752,-180.5823 476.7909,-162.8392 394,-138 375.6453,-132.4932 333.1903,-104.2158 306.4274,-85.6126"/>
<polygon fill="#191970" stroke="#191970" points="308.2101,-82.5882 298.0104,-79.7215 304.1961,-88.3231 308.2101,-82.5882"/>
</g>
<!-- Node33&#45;&gt;Node7 -->
<g id="edge98" class="edge">
<title>Node33&#45;&gt;Node7</title>
<path fill="none" stroke="#191970" d="M2207.1199,-183.993C2344.5046,-180.2597 2678.7334,-162.6885 2746,-80 2752.1703,-72.415 2752.1529,-65.5991 2746,-58 2722.2801,-28.7051 2609.6194,-16.9063 2554.9279,-12.8444"/>
<polygon fill="#191970" stroke="#191970" points="2555.027,-9.3428 2544.806,-12.1323 2554.5357,-16.3256 2555.027,-9.3428"/>
</g>
<!-- Node33&#45;&gt;Node22 -->
<g id="edge100" class="edge">
<title>Node33&#45;&gt;Node22</title>
<path fill="none" stroke="#191970" d="M2088.9445,-183.7164C1955.1173,-180.3383 1618.6408,-169.2041 1339,-138 1185.5093,-120.8725 1145.57,-109.6785 990.0249,-80.1499"/>
<polygon fill="#191970" stroke="#191970" points="990.5774,-76.6924 980.1008,-78.2708 989.2751,-83.5702 990.5774,-76.6924"/>
</g>
<!-- Node33&#45;&gt;Node23 -->
<g id="edge104" class="edge">
<title>Node33&#45;&gt;Node23</title>
<path fill="none" stroke="#191970" d="M2088.622,-181.9836C1976.4919,-175.9771 1725.9839,-161.0792 1516,-138 1341.5229,-118.8233 1296.2055,-108.1926 1118.2624,-80.0208"/>
<polygon fill="#191970" stroke="#191970" points="1118.7279,-76.551 1108.3042,-78.4479 1117.6357,-83.4653 1118.7279,-76.551"/>
</g>
<!-- Node33&#45;&gt;Node24 -->
<g id="edge101" class="edge">
<title>Node33&#45;&gt;Node24</title>
<path fill="none" stroke="#191970" d="M2088.6141,-183.1316C1959.7744,-178.6113 1658.2821,-165.3809 1560,-138 1538.9383,-132.1323 1536.9229,-122.3448 1516,-116 1393.399,-78.8218 1356.5828,-99.7492 1230,-80 1228.5523,-79.7741 1227.0855,-79.5399 1225.6063,-79.2989"/>
<polygon fill="#191970" stroke="#191970" points="1226.1742,-75.8453 1215.7302,-77.6268 1225.0056,-82.747 1226.1742,-75.8453"/>
</g>
<!-- Node33&#45;&gt;Node26 -->
<g id="edge103" class="edge">
<title>Node33&#45;&gt;Node26</title>
<path fill="none" stroke="#191970" d="M2175.4502,-174.4138C2198.7116,-165.2695 2232.8382,-151.4441 2262,-138 2281.4952,-129.0124 2285.6919,-125.3828 2305,-116 2327.9075,-104.8681 2353.9943,-92.8595 2374.0518,-83.7672"/>
<polygon fill="#191970" stroke="#191970" points="2375.7022,-86.8622 2383.3735,-79.5546 2372.8194,-80.4833 2375.7022,-86.8622"/>
</g>
<!-- Node34 -->
<g id="node35" class="node">
<title>Node34</title>
<g id="a_node35"><a xlink:href="../../d8/d4e/base__clock_8hpp.html" target="_top" xlink:title="timemory/base_clock.hpp">
<polygon fill="#ffffff" stroke="#000000" points="1568.5,-116.5 1568.5,-137.5 1687.5,-137.5 1687.5,-116.5 1568.5,-116.5"/>
<text text-anchor="middle" x="1628" y="-123.9" font-family="Helvetica,sans-Serif" font-size="12.00" fill="#000000">timemory/base_clock.hpp</text>
</a>
</g>
</g>
<!-- Node33&#45;&gt;Node34 -->
<g id="edge41" class="edge">
<title>Node33&#45;&gt;Node34</title>
<path fill="none" stroke="#191970" d="M2088.8557,-178.4031C1992.2497,-167.6278 1801.0512,-146.3019 1697.8951,-134.796"/>
<polygon fill="#191970" stroke="#191970" points="1698.2159,-131.3102 1687.8895,-133.68 1697.4399,-138.267 1698.2159,-131.3102"/>
</g>
<!-- Node42 -->
<g id="node43" class="node">
<title>Node42</title>
<g id="a_node43"><a xlink:href="../../d9/dd2/rss_8hpp.html" target="_top" xlink:title="timemory/rss.hpp">
<polygon fill="#ffffff" stroke="#ff0000" points="2105,-116.5 2105,-137.5 2191,-137.5 2191,-116.5 2105,-116.5"/>
<text text-anchor="middle" x="2148" y="-123.9" font-family="Helvetica,sans-Serif" font-size="12.00" fill="#000000">timemory/rss.hpp</text>
</a>
</g>
</g>
<!-- Node33&#45;&gt;Node42 -->
<g id="edge63" class="edge">
<title>Node33&#45;&gt;Node42</title>
<path fill="none" stroke="#191970" d="M2148,-174.3619C2148,-166.9219 2148,-156.7427 2148,-147.7276"/>
<polygon fill="#191970" stroke="#191970" points="2151.5001,-147.5706 2148,-137.5707 2144.5001,-147.5707 2151.5001,-147.5706"/>
</g>
<!-- Node44 -->
<g id="node45" class="node">
<title>Node44</title>
<polygon fill="#ffffff" stroke="#bfbfbf" points="2580.5,-58.5 2580.5,-79.5 2627.5,-79.5 2627.5,-58.5 2580.5,-58.5"/>
<text text-anchor="middle" x="2604" y="-65.9" font-family="Helvetica,sans-Serif" font-size="12.00" fill="#000000">fstream</text>
</g>
<!-- Node33&#45;&gt;Node44 -->
<g id="edge97" class="edge">
<title>Node33&#45;&gt;Node44</title>
<path fill="none" stroke="#191970" d="M2195.585,-174.4709C2272.4554,-157.182 2428.796,-120.8624 2570.5311,-79.9801"/>
<polygon fill="#191970" stroke="#191970" points="2571.6467,-83.3009 2580.2768,-77.155 2569.6977,-76.5777 2571.6467,-83.3009"/>
</g>
<!-- Node46 -->
<g id="node46" class="node">
<title>Node46</title>
<polygon fill="#ffffff" stroke="#bfbfbf" points="2645.5,-58.5 2645.5,-79.5 2736.5,-79.5 2736.5,-58.5 2645.5,-58.5"/>
<text text-anchor="middle" x="2691" y="-65.9" font-family="Helvetica,sans-Serif" font-size="12.00" fill="#000000">cereal/macros.hpp</text>
</g>
<!-- Node33&#45;&gt;Node46 -->
<g id="edge102" class="edge">
<title>Node33&#45;&gt;Node46</title>
<path fill="none" stroke="#191970" d="M2207.1082,-175.2243C2259.5238,-166.3195 2338.0775,-152.3966 2406,-138 2488.6873,-120.474 2583.9987,-96.6578 2640.7786,-82.0826"/>
<polygon fill="#191970" stroke="#191970" points="2641.7661,-85.4426 2650.5782,-79.5605 2640.0214,-78.6635 2641.7661,-85.4426"/>
</g>
<!-- Node47 -->
<g id="node47" class="node">
<title>Node47</title>
<polygon fill="#ffffff" stroke="#bfbfbf" points="1984,-58.5 1984,-79.5 2094,-79.5 2094,-58.5 1984,-58.5"/>
<text text-anchor="middle" x="2039" y="-65.9" font-family="Helvetica,sans-Serif" font-size="12.00" fill="#000000">cereal/types/vector.hpp</text>
</g>
<!-- Node33&#45;&gt;Node47 -->
<g id="edge105" class="edge">
<title>Node33&#45;&gt;Node47</title>
<path fill="none" stroke="#191970" d="M2135.1265,-174.2836C2124.301,-165.0599 2108.6168,-151.191 2096,-138 2080.5245,-121.8202 2064.4116,-101.9941 2053.2818,-87.7524"/>
<polygon fill="#191970" stroke="#191970" points="2055.9324,-85.4586 2047.0461,-79.6892 2050.395,-89.7409 2055.9324,-85.4586"/>
</g>
<!-- Node48 -->
<g id="node48" class="node">
<title>Node48</title>
<g id="a_node48"><a xlink:href="../../da/d8e/signal__detection_8hpp.html" target="_top" xlink:title="timemory/signal_detection.hpp">
<polygon fill="#ffffff" stroke="#ff0000" points="402.5,-116.5 402.5,-137.5 541.5,-137.5 541.5,-116.5 402.5,-116.5"/>
<text text-anchor="middle" x="472" y="-123.9" font-family="Helvetica,sans-Serif" font-size="12.00" fill="#000000">timemory/signal_detection.hpp</text>
</a>
</g>
</g>
<!-- Node33&#45;&gt;Node48 -->
<g id="edge79" class="edge">
<title>Node33&#45;&gt;Node48</title>
<path fill="none" stroke="#191970" d="M2088.8426,-182.9528C1835.5134,-174.186 841.905,-139.801 551.8821,-129.7644"/>
<polygon fill="#191970" stroke="#191970" points="551.9794,-126.2658 541.8643,-129.4177 551.7372,-133.2616 551.9794,-126.2658"/>
</g>
<!-- Node54 -->
<g id="node50" class="node">
<title>Node54</title>
<polygon fill="#ffffff" stroke="#bfbfbf" points="2209.5,-116.5 2209.5,-137.5 2252.5,-137.5 2252.5,-116.5 2209.5,-116.5"/>
<text text-anchor="middle" x="2231" y="-123.9" font-family="Helvetica,sans-Serif" font-size="12.00" fill="#000000">atomic</text>
</g>
<!-- Node33&#45;&gt;Node54 -->
<g id="edge99" class="edge">
<title>Node33&#45;&gt;Node54</title>
<path fill="none" stroke="#191970" d="M2163.2235,-174.3619C2175.6254,-165.6955 2193.3458,-153.3126 2207.557,-143.3819"/>
<polygon fill="#191970" stroke="#191970" points="2209.6809,-146.1676 2215.873,-137.5707 2205.6712,-140.4297 2209.6809,-146.1676"/>
</g>
<!-- Node34&#45;&gt;Node2 -->
<g id="edge62" class="edge">
<title>Node34&#45;&gt;Node2</title>
<path fill="none" stroke="#191970" d="M1687.6846,-121.0815C1737.8227,-114.7946 1810.7313,-102.5427 1871,-80 1889.2783,-73.1632 1890.2809,-63.5169 1909,-58 1951.9865,-45.331 2592.8164,-21.2808 2808.6519,-13.4976"/>
<polygon fill="#191970" stroke="#191970" points="2809.0422,-16.986 2818.9098,-13.1285 2808.7903,-9.9905 2809.0422,-16.986"/>
</g>
<!-- Node34&#45;&gt;Node4 -->
<g id="edge44" class="edge">
<title>Node34&#45;&gt;Node4</title>
<path fill="none" stroke="#191970" d="M1568.3742,-117.1575C1498.5753,-105.4624 1390.1517,-86.6915 1372,-80 1353.6894,-73.25 1352.5931,-63.9275 1334,-58 1289.3746,-43.7733 971.1328,-20.8885 862.9157,-13.4329"/>
<polygon fill="#191970" stroke="#191970" points="863.0376,-9.9332 852.8215,-12.7403 862.5584,-16.9167 863.0376,-9.9332"/>
</g>
<!-- Node34&#45;&gt;Node8 -->
<g id="edge46" class="edge">
<title>Node34&#45;&gt;Node8</title>
<path fill="none" stroke="#191970" d="M1568.2026,-118.0106C1485.4643,-105.4896 1344.9428,-83.8913 1334,-80 1315.6129,-73.4614 1314.7193,-63.5163 1296,-58 1140.2473,-12.1022 730.8254,-50.2243 552.791,-21.568"/>
<polygon fill="#191970" stroke="#191970" points="553.1377,-18.0761 542.6878,-19.8225 551.946,-24.974 553.1377,-18.0761"/>
</g>
<!-- Node34&#45;&gt;Node9 -->
<g id="edge45" class="edge">
<title>Node34&#45;&gt;Node9</title>
<path fill="none" stroke="#191970" d="M1568.0885,-118.0012C1524.7602,-110.4838 1465.2479,-98.0601 1415,-80 1394.7981,-72.739 1392.4328,-64.5832 1372,-58 1275.1799,-26.8057 1154.5291,-16.109 1096.4279,-12.6067"/>
<polygon fill="#191970" stroke="#191970" points="1096.5092,-9.1058 1086.3269,-12.0332 1096.1123,-16.0945 1096.5092,-9.1058"/>
</g>
<!-- Node34&#45;&gt;Node12 -->
<g id="edge47" class="edge">
<title>Node34&#45;&gt;Node12</title>
<path fill="none" stroke="#191970" d="M1628.591,-116.3132C1628.8013,-100.7075 1626.5843,-72.02 1609,-58 1573.5195,-29.7114 838.3233,-24.2157 793,-22 734.5443,-19.1423 666.7355,-15.4249 625.6228,-13.1264"/>
<polygon fill="#191970" stroke="#191970" points="625.6973,-9.6251 615.517,-12.5599 625.3054,-16.6142 625.6973,-9.6251"/>
</g>
<!-- Node34&#45;&gt;Node15 -->
<g id="edge51" class="edge">
<title>Node34&#45;&gt;Node15</title>
<path fill="none" stroke="#191970" d="M1568.2757,-118.2297C1562.7753,-117.46 1557.2858,-116.7061 1552,-116 1421.5163,-98.5704 1381.4378,-125.7481 1258,-80 1241.4715,-73.8743 1241.7515,-63.4866 1225,-58 1059.0622,-3.6512 616.1918,-55.1272 426.6713,-21.423"/>
<polygon fill="#191970" stroke="#191970" points="427.2231,-17.9653 416.7445,-19.5309 425.9124,-24.8415 427.2231,-17.9653"/>
</g>
<!-- Node34&#45;&gt;Node16 -->
<g id="edge48" class="edge">
<title>Node34&#45;&gt;Node16</title>
<path fill="none" stroke="#191970" d="M1568.2618,-118.3305C1562.7643,-117.5397 1557.2793,-116.7533 1552,-116 1438.2547,-99.7708 1404.6135,-117.4764 1296,-80 1277.5522,-73.6347 1276.7242,-63.4993 1258,-58 1095.9859,-10.4165 669.3589,-54.3465 485.6364,-21.4231"/>
<polygon fill="#191970" stroke="#191970" points="486.2256,-17.9724 475.7454,-19.5267 484.9075,-24.8472 486.2256,-17.9724"/>
</g>
<!-- Node34&#45;&gt;Node18 -->
<g id="edge50" class="edge">
<title>Node34&#45;&gt;Node18</title>
<path fill="none" stroke="#191970" d="M1687.6102,-124.9679C1850.6208,-119.2105 2302.3473,-101.8647 2471.9511,-79.9"/>
<polygon fill="#191970" stroke="#191970" points="2472.5441,-83.3518 2481.9873,-78.5482 2471.6096,-76.4145 2472.5441,-83.3518"/>
</g>
<!-- Node34&#45;&gt;Node20 -->
<g id="edge49" class="edge">
<title>Node34&#45;&gt;Node20</title>
<path fill="none" stroke="#191970" d="M1568.3968,-125.4417C1419.5952,-121.2055 1033.7757,-108.0069 885.9785,-79.5553"/>
<polygon fill="#191970" stroke="#191970" points="886.2513,-76.0394 875.7549,-77.4804 884.8589,-82.8996 886.2513,-76.0394"/>
</g>
<!-- Node34&#45;&gt;Node21 -->
<g id="edge56" class="edge">
<title>Node34&#45;&gt;Node21</title>
<path fill="none" stroke="#191970" d="M1631.5068,-116.2949C1637.8128,-97.0451 1651.164,-56.2889 1659.2815,-31.5091"/>
<polygon fill="#191970" stroke="#191970" points="1662.7146,-32.2719 1662.5016,-21.6792 1656.0624,-30.0927 1662.7146,-32.2719"/>
</g>
<!-- Node34&#45;&gt;Node22 -->
<g id="edge58" class="edge">
<title>Node34&#45;&gt;Node22</title>
<path fill="none" stroke="#191970" d="M1568.2477,-125.2967C1456.5439,-121.5264 1208.393,-110.3856 990.0942,-79.9898"/>
<polygon fill="#191970" stroke="#191970" points="990.4412,-76.5042 980.0506,-78.5746 989.4644,-83.4357 990.4412,-76.5042"/>
</g>
<!-- Node34&#45;&gt;Node23 -->
<g id="edge60" class="edge">
<title>Node34&#45;&gt;Node23</title>
<path fill="none" stroke="#191970" d="M1568.4299,-121.0635C1551.4899,-119.3986 1533.0202,-117.6055 1516,-116 1342.3686,-99.621 1295.8073,-102.7146 1118.212,-79.9373"/>
<polygon fill="#191970" stroke="#191970" points="1118.6408,-76.4637 1108.2747,-78.6536 1117.7438,-83.406 1118.6408,-76.4637"/>
</g>
<!-- Node34&#45;&gt;Node24 -->
<g id="edge61" class="edge">
<title>Node34&#45;&gt;Node24</title>
<path fill="none" stroke="#191970" d="M1568.252,-117.9253C1563.4331,-117.2523 1558.6369,-116.602 1554,-116 1410.3198,-97.3453 1373.3131,-101.292 1230,-80 1228.5507,-79.7847 1227.0825,-79.5598 1225.602,-79.3271"/>
<polygon fill="#191970" stroke="#191970" points="1226.1563,-75.8713 1215.7197,-77.6955 1225.016,-82.7778 1226.1563,-75.8713"/>
</g>
<!-- Node34&#45;&gt;Node26 -->
<g id="edge59" class="edge">
<title>Node34&#45;&gt;Node26</title>
<path fill="none" stroke="#191970" d="M1687.7242,-122.6666C1800.5353,-114.4651 2052.6957,-96.0553 2265,-80 2289.5946,-78.1401 2316.582,-76.0595 2340.3634,-74.2126"/>
<polygon fill="#191970" stroke="#191970" points="2340.6442,-77.7014 2350.3428,-73.4367 2340.1015,-70.7225 2340.6442,-77.7014"/>
</g>
<!-- Node35 -->
<g id="node36" class="node">
<title>Node35</title>
<polygon fill="#ffffff" stroke="#bfbfbf" points="1918,-58.5 1918,-79.5 1966,-79.5 1966,-58.5 1918,-58.5"/>
<text text-anchor="middle" x="1942" y="-65.9" font-family="Helvetica,sans-Serif" font-size="12.00" fill="#000000">unistd.h</text>
</g>
<!-- Node34&#45;&gt;Node35 -->
<g id="edge42" class="edge">
<title>Node34&#45;&gt;Node35</title>
<path fill="none" stroke="#191970" d="M1687.6072,-118.8396C1743.7677,-110.6823 1830.0889,-96.9337 1904,-80 1905.2803,-79.7067 1906.5815,-79.3958 1907.8931,-79.0716"/>
<polygon fill="#191970" stroke="#191970" points="1909.2151,-82.3421 1917.9844,-76.3965 1907.4214,-75.5758 1909.2151,-82.3421"/>
</g>
<!-- Node36 -->
<g id="node37" class="node">
<title>Node36</title>
<polygon fill="#ffffff" stroke="#bfbfbf" points="1694,-58.5 1694,-79.5 1756,-79.5 1756,-58.5 1694,-58.5"/>
<text text-anchor="middle" x="1725" y="-65.9" font-family="Helvetica,sans-Serif" font-size="12.00" fill="#000000">sys/times.h</text>
</g>
<!-- Node34&#45;&gt;Node36 -->
<g id="edge43" class="edge">
<title>Node34&#45;&gt;Node36</title>
<path fill="none" stroke="#191970" d="M1645.7913,-116.3619C1660.5585,-107.532 1681.7782,-94.844 1698.5384,-84.8224"/>
<polygon fill="#191970" stroke="#191970" points="1700.5349,-87.7066 1707.3215,-79.5707 1696.9426,-81.6987 1700.5349,-87.7066"/>
</g>
<!-- Node37 -->
<g id="node38" class="node">
<title>Node37</title>
<polygon fill="#ffffff" stroke="#bfbfbf" points="1774,-58.5 1774,-79.5 1810,-79.5 1810,-58.5 1774,-58.5"/>
<text text-anchor="middle" x="1792" y="-65.9" font-family="Helvetica,sans-Serif" font-size="12.00" fill="#000000">tuple</text>
</g>
<!-- Node34&#45;&gt;Node37 -->
<g id="edge52" class="edge">
<title>Node34&#45;&gt;Node37</title>
<path fill="none" stroke="#191970" d="M1660.2926,-116.4927C1686.1561,-107.9512 1723.551,-95.3212 1764.2005,-80.1792"/>
<polygon fill="#191970" stroke="#191970" points="1765.621,-83.3846 1773.755,-76.5957 1763.1627,-76.8304 1765.621,-83.3846"/>
</g>
<!-- Node38 -->
<g id="node39" class="node">
<title>Node38</title>
<polygon fill="#ffffff" stroke="#bfbfbf" points="1828,-58.5 1828,-79.5 1862,-79.5 1862,-58.5 1828,-58.5"/>
<text text-anchor="middle" x="1845" y="-65.9" font-family="Helvetica,sans-Serif" font-size="12.00" fill="#000000">ratio</text>
</g>
<!-- Node34&#45;&gt;Node38 -->
<g id="edge53" class="edge">
<title>Node34&#45;&gt;Node38</title>
<path fill="none" stroke="#191970" d="M1680.5178,-116.4355C1716.9791,-108.5672 1766.7364,-96.7722 1818.1819,-79.93"/>
<polygon fill="#191970" stroke="#191970" points="1819.4223,-83.206 1827.8047,-76.7263 1817.2111,-76.5644 1819.4223,-83.206"/>
</g>
<!-- Node39 -->
<g id="node40" class="node">
<title>Node39</title>
<polygon fill="#ffffff" stroke="#bfbfbf" points="1424,-58.5 1424,-79.5 1468,-79.5 1468,-58.5 1424,-58.5"/>
<text text-anchor="middle" x="1446" y="-65.9" font-family="Helvetica,sans-Serif" font-size="12.00" fill="#000000">chrono</text>
</g>
<!-- Node34&#45;&gt;Node39 -->
<g id="edge54" class="edge">
<title>Node34&#45;&gt;Node39</title>
<path fill="none" stroke="#191970" d="M1592.7871,-116.4668C1564.1416,-107.8031 1522.4614,-94.9833 1477.8707,-80.2159"/>
<polygon fill="#191970" stroke="#191970" points="1478.9085,-76.8726 1468.3149,-77.0359 1476.6982,-83.5145 1478.9085,-76.8726"/>
</g>
<!-- Node40 -->
<g id="node41" class="node">
<title>Node40</title>
<polygon fill="#ffffff" stroke="#bfbfbf" points="1486,-58.5 1486,-79.5 1524,-79.5 1524,-58.5 1486,-58.5"/>
<text text-anchor="middle" x="1505" y="-65.9" font-family="Helvetica,sans-Serif" font-size="12.00" fill="#000000">ctime</text>
</g>
<!-- Node34&#45;&gt;Node40 -->
<g id="edge55" class="edge">
<title>Node34&#45;&gt;Node40</title>
<path fill="none" stroke="#191970" d="M1605.7256,-116.4966C1585.4632,-106.942 1555.4509,-92.7899 1533.4574,-82.419"/>
<polygon fill="#191970" stroke="#191970" points="1534.8156,-79.1898 1524.2779,-78.0904 1531.83,-85.5212 1534.8156,-79.1898"/>
</g>
<!-- Node41 -->
<g id="node42" class="node">
<title>Node41</title>
<polygon fill="#ffffff" stroke="#bfbfbf" points="1542,-58.5 1542,-79.5 1600,-79.5 1600,-58.5 1542,-58.5"/>
<text text-anchor="middle" x="1571" y="-65.9" font-family="Helvetica,sans-Serif" font-size="12.00" fill="#000000">type_traits</text>
</g>
<!-- Node34&#45;&gt;Node41 -->
<g id="edge57" class="edge">
<title>Node34&#45;&gt;Node41</title>
<path fill="none" stroke="#191970" d="M1617.5453,-116.3619C1609.4301,-108.1043 1597.9988,-96.4725 1588.4959,-86.8029"/>
<polygon fill="#191970" stroke="#191970" points="1590.8941,-84.2497 1581.3884,-79.5707 1585.9014,-89.1562 1590.8941,-84.2497"/>
</g>
<!-- Node42&#45;&gt;Node2 -->
<g id="edge77" class="edge">
<title>Node42&#45;&gt;Node2</title>
<path fill="none" stroke="#191970" d="M2189.3582,-116.4153C2220.3361,-107.9612 2263.4851,-95.0608 2300,-80 2319.4805,-71.9651 2321.777,-63.9228 2342,-58 2427.61,-32.927 2683.5146,-19.1328 2808.6043,-13.7235"/>
<polygon fill="#191970" stroke="#191970" points="2808.9954,-17.2101 2818.8372,-13.2871 2808.6971,-10.2164 2808.9954,-17.2101"/>
</g>
<!-- Node42&#45;&gt;Node4 -->
<g id="edge66" class="edge">
<title>Node42&#45;&gt;Node4</title>
<path fill="none" stroke="#191970" d="M2144.5778,-116.2402C2138.8539,-100.2629 2125.6758,-70.7794 2103,-58 2050.9905,-28.6891 1088.6425,-24.6232 1029,-22 970.7013,-19.4359 902.987,-15.5665 862.637,-13.1662"/>
<polygon fill="#191970" stroke="#191970" points="862.6928,-9.6634 852.5016,-12.56 862.2748,-16.6509 862.6928,-9.6634"/>
</g>
<!-- Node42&#45;&gt;Node7 -->
<g id="edge68" class="edge">
<title>Node42&#45;&gt;Node7</title>
<path fill="none" stroke="#191970" d="M2176.6766,-116.3176C2200.5529,-107.2244 2235.3182,-93.5209 2265,-80 2284.5357,-71.1009 2287.784,-65.2217 2308,-58 2372.9211,-34.8083 2453.041,-21.0819 2495.4387,-14.9145"/>
<polygon fill="#191970" stroke="#191970" points="2495.9621,-18.3754 2505.3728,-13.5083 2494.9809,-11.4445 2495.9621,-18.3754"/>
</g>
<!-- Node42&#45;&gt;Node9 -->
<g id="edge69" class="edge">
<title>Node42&#45;&gt;Node9</title>
<path fill="none" stroke="#191970" d="M2149.7696,-116.4448C2151.6834,-101.0068 2152.5286,-72.5309 2136,-58 2115.9971,-40.4146 1277.3219,-16.8102 1096.2358,-11.9124"/>
<polygon fill="#191970" stroke="#191970" points="1096.2991,-8.413 1086.2084,-11.6422 1096.1105,-15.4104 1096.2991,-8.413"/>
</g>
<!-- Node42&#45;&gt;Node21 -->
<g id="edge70" class="edge">
<title>Node42&#45;&gt;Node21</title>
<path fill="none" stroke="#191970" d="M2158.0459,-116.3762C2170.7854,-101.6196 2189.3524,-74.8383 2174,-58 2141.8721,-22.7624 1804.3055,-13.5503 1697.9222,-11.5133"/>
<polygon fill="#191970" stroke="#191970" points="1697.8637,-8.0118 1687.8013,-11.3281 1697.7355,-15.0106 1697.8637,-8.0118"/>
</g>
<!-- Node42&#45;&gt;Node22 -->
<g id="edge71" class="edge">
<title>Node42&#45;&gt;Node22</title>
<path fill="none" stroke="#191970" d="M2104.7688,-125.6778C1912.7304,-119.7475 1140.1798,-95.2716 990.1137,-79.8272"/>
<polygon fill="#191970" stroke="#191970" points="990.3664,-76.3336 980.0359,-78.6851 989.5781,-83.289 990.3664,-76.3336"/>
</g>
<!-- Node42&#45;&gt;Node23 -->
<g id="edge75" class="edge">
<title>Node42&#45;&gt;Node23</title>
<path fill="none" stroke="#191970" d="M2104.8176,-125.7336C1937.8899,-120.7308 1333.9106,-101.6085 1118.5209,-79.8915"/>
<polygon fill="#191970" stroke="#191970" points="1118.5635,-76.3771 1108.2547,-78.8225 1117.8384,-83.3394 1118.5635,-76.3771"/>
</g>
<!-- Node42&#45;&gt;Node24 -->
<g id="edge72" class="edge">
<title>Node42&#45;&gt;Node24</title>
<path fill="none" stroke="#191970" d="M2104.7589,-124.433C1946.8007,-115.0557 1401.0837,-82.659 1225.7228,-72.2486"/>
<polygon fill="#191970" stroke="#191970" points="1225.8798,-68.7519 1215.6899,-71.653 1225.4649,-75.7396 1225.8798,-68.7519"/>
</g>
<!-- Node42&#45;&gt;Node26 -->
<g id="edge74" class="edge">
<title>Node42&#45;&gt;Node26</title>
<path fill="none" stroke="#191970" d="M2191.0593,-117.3574C2234.5696,-107.6137 2302.0394,-92.5047 2349.9721,-81.7707"/>
<polygon fill="#191970" stroke="#191970" points="2350.8947,-85.1509 2359.8882,-79.5501 2349.365,-78.3201 2350.8947,-85.1509"/>
</g>
<!-- Node42&#45;&gt;Node35 -->
<g id="edge64" class="edge">
<title>Node42&#45;&gt;Node35</title>
<path fill="none" stroke="#191970" d="M2106.5664,-116.446C2073.5316,-107.8739 2025.8901,-95.1624 1975.8103,-80.1407"/>
<polygon fill="#191970" stroke="#191970" points="1976.6853,-76.7489 1966.1004,-77.208 1974.6613,-83.4499 1976.6853,-76.7489"/>
</g>
<!-- Node43 -->
<g id="node44" class="node">
<title>Node43</title>
<polygon fill="#ffffff" stroke="#bfbfbf" points="2226.5,-58.5 2226.5,-79.5 2255.5,-79.5 2255.5,-58.5 2226.5,-58.5"/>
<text text-anchor="middle" x="2241" y="-65.9" font-family="Helvetica,sans-Serif" font-size="12.00" fill="#000000">ios</text>
</g>
<!-- Node42&#45;&gt;Node43 -->
<g id="edge65" class="edge">
<title>Node42&#45;&gt;Node43</title>
<path fill="none" stroke="#191970" d="M2165.0576,-116.3619C2179.9238,-107.0905 2201.6105,-93.5655 2218.0066,-83.34"/>
<polygon fill="#191970" stroke="#191970" points="2219.8613,-86.3082 2226.4943,-78.0466 2216.157,-80.3686 2219.8613,-86.3082"/>
</g>
<!-- Node42&#45;&gt;Node44 -->
<g id="edge67" class="edge">
<title>Node42&#45;&gt;Node44</title>
<path fill="none" stroke="#191970" d="M2191.0286,-117.6655C2194.3949,-117.0588 2197.7482,-116.4942 2201,-116 2361.1552,-91.6611 2407.5826,-113.4538 2570.5063,-79.6656"/>
<polygon fill="#191970" stroke="#191970" points="2571.3225,-83.0705 2580.3833,-77.5794 2569.8759,-76.2216 2571.3225,-83.0705"/>
</g>
<!-- Node42&#45;&gt;Node46 -->
<g id="edge73" class="edge">
<title>Node42&#45;&gt;Node46</title>
<path fill="none" stroke="#191970" d="M2191.0208,-117.6123C2194.3888,-117.0178 2197.7447,-116.4704 2201,-116 2390.1496,-88.6669 2442.7238,-106.8089 2635.2313,-80.1178"/>
<polygon fill="#191970" stroke="#191970" points="2635.9874,-83.5459 2645.401,-78.6844 2635.0104,-76.6144 2635.9874,-83.5459"/>
</g>
<!-- Node42&#45;&gt;Node47 -->
<g id="edge76" class="edge">
<title>Node42&#45;&gt;Node47</title>
<path fill="none" stroke="#191970" d="M2128.2609,-116.4966C2111.3899,-107.5194 2086.8915,-94.4835 2067.8262,-84.3387"/>
<polygon fill="#191970" stroke="#191970" points="2069.4327,-81.2289 2058.9606,-79.6212 2066.1445,-87.4086 2069.4327,-81.2289"/>
</g>
<!-- Node48&#45;&gt;Node2 -->
<g id="edge93" class="edge">
<title>Node48&#45;&gt;Node2</title>
<path fill="none" stroke="#191970" d="M541.8109,-117.3379C614.6889,-106.9768 723.9708,-90.59 765,-80 792.9059,-72.7973 797.6633,-63.2584 826,-58 1014.8181,-22.961 2362.0301,-27.2482 2554,-22 2641.7192,-19.6019 2742.7297,-16.0607 2808.5536,-13.6486"/>
<polygon fill="#191970" stroke="#191970" points="2808.9438,-17.1367 2818.8084,-13.2715 2808.6865,-10.1415 2808.9438,-17.1367"/>
</g>
<!-- Node48&#45;&gt;Node3 -->
<g id="edge94" class="edge">
<title>Node48&#45;&gt;Node3</title>
<path fill="none" stroke="#191970" d="M437.7735,-116.4966C406.6946,-106.9592 360.6882,-92.8408 326.9101,-82.475"/>
<polygon fill="#191970" stroke="#191970" points="327.8775,-79.1109 317.2907,-79.5231 325.8238,-85.8029 327.8775,-79.1109"/>
</g>
<!-- Node48&#45;&gt;Node4 -->
<g id="edge80" class="edge">
<title>Node48&#45;&gt;Node4</title>
<path fill="none" stroke="#191970" d="M485.9077,-116.3107C508.8212,-98.8899 553.7826,-65.555 572,-58 646.1484,-27.2497 740.7217,-16.5341 791.2908,-12.8623"/>
<polygon fill="#191970" stroke="#191970" points="791.6488,-16.3462 801.3906,-12.1811 791.1777,-9.3621 791.6488,-16.3462"/>
</g>
<!-- Node48&#45;&gt;Node5 -->
<g id="edge81" class="edge">
<title>Node48&#45;&gt;Node5</title>
<path fill="none" stroke="#191970" d="M402.4373,-118.5525C331.7719,-109.2743 231.0311,-93.8485 219,-80 207.6731,-66.962 208.1427,-46.7519 210.72,-31.568"/>
<polygon fill="#191970" stroke="#191970" points="214.1886,-32.0819 212.8306,-21.5745 207.3396,-30.6354 214.1886,-32.0819"/>
</g>
<!-- Node48&#45;&gt;Node6 -->
<g id="edge82" class="edge">
<title>Node48&#45;&gt;Node6</title>
<path fill="none" stroke="#191970" d="M402.3125,-118.1986C333.9045,-108.8448 238.2083,-93.5629 227,-80 213.4003,-63.5434 230.8805,-42.4468 247.4626,-27.9376"/>
<polygon fill="#191970" stroke="#191970" points="249.9067,-30.4584 255.3906,-21.3932 245.4505,-25.0601 249.9067,-30.4584"/>
</g>
<!-- Node48&#45;&gt;Node7 -->
<g id="edge83" class="edge">
<title>Node48&#45;&gt;Node7</title>
<path fill="none" stroke="#191970" d="M531.6734,-116.4815C580.1747,-107.6405 650.2637,-94.2012 711,-80 747.3245,-71.5067 755.0935,-63.433 792,-58 966.8767,-32.2563 2280.0977,-14.1826 2495.2284,-11.3801"/>
<polygon fill="#191970" stroke="#191970" points="2495.4884,-14.8771 2505.4422,-11.2478 2495.3977,-7.8777 2495.4884,-14.8771"/>
</g>
<!-- Node48&#45;&gt;Node8 -->
<g id="edge84" class="edge">
<title>Node48&#45;&gt;Node8</title>
<path fill="none" stroke="#191970" d="M475.4017,-116.1154C479.7727,-102.409 487.7816,-78.2077 496,-58 499.6678,-48.9815 504.1591,-39.2021 508.1252,-30.9111"/>
<polygon fill="#191970" stroke="#191970" points="511.385,-32.2109 512.6118,-21.6874 505.0902,-29.149 511.385,-32.2109"/>
</g>
<!-- Node48&#45;&gt;Node9 -->
<g id="edge85" class="edge">
<title>Node48&#45;&gt;Node9</title>
<path fill="none" stroke="#191970" d="M494.7632,-116.4943C514.3826,-107.2884 543.3539,-93.332 568,-80 584.8276,-70.8974 586.8362,-64.0084 605,-58 683.5755,-32.008 935.0906,-17.27 1027.5101,-12.6211"/>
<polygon fill="#191970" stroke="#191970" points="1027.9041,-16.106 1037.719,-12.1163 1027.5583,-9.1146 1027.9041,-16.106"/>
</g>
<!-- Node48&#45;&gt;Node10 -->
<g id="edge86" class="edge">
<title>Node48&#45;&gt;Node10</title>
<path fill="none" stroke="#191970" d="M402.3275,-119.6947C328.3211,-111.2655 216.6421,-96.4381 177,-80 147.4447,-67.7445 118.4188,-44.5785 100.3837,-28.4882"/>
<polygon fill="#191970" stroke="#191970" points="102.6516,-25.8194 92.9083,-21.6579 97.9298,-30.9871 102.6516,-25.8194"/>
</g>
<!-- Node48&#45;&gt;Node11 -->
<g id="edge87" class="edge">
<title>Node48&#45;&gt;Node11</title>
<path fill="none" stroke="#191970" d="M402.4553,-120.2037C335.1169,-112.6537 238.5667,-98.9773 206,-80 185.8773,-68.2741 169.7778,-46.6247 159.8888,-30.6924"/>
<polygon fill="#191970" stroke="#191970" points="162.65,-28.4846 154.5536,-21.6509 156.6213,-32.042 162.65,-28.4846"/>
</g>
<!-- Node48&#45;&gt;Node12 -->
<g id="edge88" class="edge">
<title>Node48&#45;&gt;Node12</title>
<path fill="none" stroke="#191970" d="M480.8615,-116.3476C492.5638,-102.4693 514.0293,-77.6574 534,-58 544.4838,-47.6807 556.8164,-36.8568 567.0473,-28.2007"/>
<polygon fill="#191970" stroke="#191970" points="569.3035,-30.8765 574.7262,-21.7745 564.811,-25.5082 569.3035,-30.8765"/>
</g>
<!-- Node48&#45;&gt;Node13 -->
<g id="edge89" class="edge">
<title>Node48&#45;&gt;Node13</title>
<path fill="none" stroke="#191970" d="M458.8955,-116.2949C434.2743,-96.1819 380.9123,-52.5904 351.1472,-28.2752"/>
<polygon fill="#191970" stroke="#191970" points="353.0315,-25.2951 343.0728,-21.6792 348.603,-30.7162 353.0315,-25.2951"/>
</g>
<!-- Node48&#45;&gt;Node14 -->
<g id="edge90" class="edge">
<title>Node48&#45;&gt;Node14</title>
<path fill="none" stroke="#191970" d="M402.2057,-120.6774C318.0654,-112.4674 181.9799,-97.1441 134,-80 99.5652,-67.6958 64.2914,-44.0389 42.5185,-27.8901"/>
<polygon fill="#191970" stroke="#191970" points="44.4121,-24.9339 34.3254,-21.6921 40.1889,-30.5165 44.4121,-24.9339"/>
</g>
<!-- Node48&#45;&gt;Node15 -->
<g id="edge91" class="edge">
<title>Node48&#45;&gt;Node15</title>
<path fill="none" stroke="#191970" d="M464.9863,-116.2949C452.1481,-96.6998 424.7096,-54.8198 408.5736,-30.1913"/>
<polygon fill="#191970" stroke="#191970" points="411.4046,-28.1257 402.9967,-21.6792 405.5494,-31.9619 411.4046,-28.1257"/>
</g>
<!-- Node48&#45;&gt;Node16 -->
<g id="edge92" class="edge">
<title>Node48&#45;&gt;Node16</title>
<path fill="none" stroke="#191970" d="M468.0075,-116.3508C464.678,-106.9388 460.1445,-92.7624 458,-80 455.3301,-64.1105 454.6365,-45.8909 454.5801,-32.1651"/>
<polygon fill="#191970" stroke="#191970" points="458.0822,-31.8669 454.6532,-21.8423 451.0823,-31.8172 458.0822,-31.8669"/>
</g>
<!-- Node48&#45;&gt;Node53 -->
<g id="edge95" class="edge">
<title>Node48&#45;&gt;Node53</title>
<path fill="none" stroke="#191970" d="M505.6832,-116.4966C536.1375,-107.0001 581.1565,-92.9619 614.3583,-82.6087"/>
<polygon fill="#191970" stroke="#191970" points="615.7489,-85.8414 624.2536,-79.5231 613.6651,-79.1587 615.7489,-85.8414"/>
</g>
<!-- Node53&#45;&gt;Node21 -->
<g id="edge96" class="edge">
<title>Node53&#45;&gt;Node21</title>
<path fill="none" stroke="#191970" d="M702.236,-59.9594C706.87,-59.2074 711.5221,-58.5328 716,-58 899.7839,-36.1319 1490.1002,-16.5245 1634.0977,-11.9854"/>
<polygon fill="#191970" stroke="#191970" points="1634.5428,-15.4733 1644.4282,-11.6616 1634.3234,-8.4767 1634.5428,-15.4733"/>
</g>
</g>
</svg>
