<?xml version="1.0" encoding="UTF-8" standalone="no"?>
<!DOCTYPE svg PUBLIC "-//W3C//DTD SVG 1.1//EN"
 "http://www.w3.org/Graphics/SVG/1.1/DTD/svg11.dtd">
<!-- Generated by graphviz version 2.40.1 (20161225.0304)
 -->
<!-- Title: util.util.timer Pages: 1 -->
<svg width="115pt" height="376pt"
 viewBox="0.00 0.00 115.00 376.00" xmlns="http://www.w3.org/2000/svg" xmlns:xlink="http://www.w3.org/1999/xlink">
<g id="graph0" class="graph" transform="scale(1 1) rotate(0) translate(4 372)">
<title>util.util.timer</title>
<polygon fill="#ffffff" stroke="transparent" points="-4,4 -4,-372 111,-372 111,4 -4,4"/>
<!-- Node0 -->
<g id="node1" class="node">
<title>Node0</title>
<polygon fill="#bfbfbf" stroke="#000000" points="18,-.5 18,-115.5 89,-115.5 89,-.5 18,-.5"/>
<text text-anchor="middle" x="53.5" y="-101.9" font-family="Helvetica,sans-Serif" font-size="12.00" fill="#000000">util.util.timer</text>
<polyline fill="none" stroke="#000000" points="18,-94.5 89,-94.5 "/>
<text text-anchor="start" x="26" y="-80.9" font-family="Helvetica,sans-Serif" font-size="12.00" fill="#000000">+ key</text>
<text text-anchor="start" x="26" y="-67.9" font-family="Helvetica,sans-Serif" font-size="12.00" fill="#000000">&#45; _self_obj</text>
<polyline fill="none" stroke="#000000" points="18,-60.5 89,-60.5 "/>
<text text-anchor="start" x="26" y="-46.9" font-family="Helvetica,sans-Serif" font-size="12.00" fill="#000000">+ __init__()</text>
<text text-anchor="start" x="26" y="-33.9" font-family="Helvetica,sans-Serif" font-size="12.00" fill="#000000">+ __call__()</text>
<text text-anchor="start" x="26" y="-20.9" font-family="Helvetica,sans-Serif" font-size="12.00" fill="#000000">+ __enter__()</text>
<text text-anchor="start" x="26" y="-7.9" font-family="Helvetica,sans-Serif" font-size="12.00" fill="#000000">+ __exit__()</text>
</g>
<!-- Node1 -->
<g id="node2" class="node">
<title>Node1</title>
<g id="a_node2"><a xlink:href="../../db/df0/classutil_1_1util_1_1base__decorator.html" target="_top" xlink:title="{util.util.base_decorator\n|+ key\l+ add_args\l+ is_class\l|+ __init__()\l+ class_string()\l+ arg_string()\l}">
<polygon fill="#ffffff" stroke="#000000" points="0,-152.5 0,-267.5 107,-267.5 107,-152.5 0,-152.5"/>
<text text-anchor="middle" x="53.5" y="-253.9" font-family="Helvetica,sans-Serif" font-size="12.00" fill="#000000">util.util.base_decorator</text>
<polyline fill="none" stroke="#000000" points="0,-246.5 107,-246.5 "/>
<text text-anchor="start" x="8" y="-232.9" font-family="Helvetica,sans-Serif" font-size="12.00" fill="#000000">+ key</text>
<text text-anchor="start" x="8" y="-219.9" font-family="Helvetica,sans-Serif" font-size="12.00" fill="#000000">+ add_args</text>
<text text-anchor="start" x="8" y="-206.9" font-family="Helvetica,sans-Serif" font-size="12.00" fill="#000000">+ is_class</text>
<polyline fill="none" stroke="#000000" points="0,-199.5 107,-199.5 "/>
<text text-anchor="start" x="8" y="-185.9" font-family="Helvetica,sans-Serif" font-size="12.00" fill="#000000">+ __init__()</text>
<text text-anchor="start" x="8" y="-172.9" font-family="Helvetica,sans-Serif" font-size="12.00" fill="#000000">+ class_string()</text>
<text text-anchor="start" x="8" y="-159.9" font-family="Helvetica,sans-Serif" font-size="12.00" fill="#000000">+ arg_string()</text>
</a>
</g>
</g>
<!-- Node1&#45;&gt;Node0 -->
<g id="edge1" class="edge">
<title>Node1&#45;&gt;Node0</title>
<path fill="none" stroke="#191970" d="M53.5,-141.9285C53.5,-133.183 53.5,-124.2959 53.5,-115.7373"/>
<polygon fill="none" stroke="#191970" points="50.0001,-142.1017 53.5,-152.1017 57.0001,-142.1017 50.0001,-142.1017"/>
</g>
<!-- Node2 -->
<g id="node3" class="node">
<title>Node2</title>
<g id="a_node3"><a xlink:href="../../dc/dd8/classobject.html" target="_top" xlink:title="{object\n||}">
<polygon fill="#ffffff" stroke="#000000" points="33,-304.5 33,-367.5 74,-367.5 74,-304.5 33,-304.5"/>
<text text-anchor="middle" x="53.5" y="-353.9" font-family="Helvetica,sans-Serif" font-size="12.00" fill="#000000">object</text>
<polyline fill="none" stroke="#000000" points="33,-346.5 74,-346.5 "/>
<text text-anchor="middle" x="53.5" y="-332.9" font-family="Helvetica,sans-Serif" font-size="12.00" fill="#000000"> </text>
<polyline fill="none" stroke="#000000" points="33,-325.5 74,-325.5 "/>
<text text-anchor="middle" x="53.5" y="-311.9" font-family="Helvetica,sans-Serif" font-size="12.00" fill="#000000"> </text>
</a>
</g>
</g>
<!-- Node2&#45;&gt;Node1 -->
<g id="edge2" class="edge">
<title>Node2&#45;&gt;Node1</title>
<path fill="none" stroke="#191970" d="M53.5,-293.9323C53.5,-285.5453 53.5,-276.5999 53.5,-267.7912"/>
<polygon fill="none" stroke="#191970" points="50.0001,-294.2048 53.5,-304.2049 57.0001,-294.2049 50.0001,-294.2048"/>
</g>
</g>
</svg>
