<?xml version="1.0" encoding="UTF-8" standalone="no"?>
<!DOCTYPE svg PUBLIC "-//W3C//DTD SVG 1.1//EN"
 "http://www.w3.org/Graphics/SVG/1.1/DTD/svg11.dtd">
<!-- Generated by graphviz version 2.40.1 (20161225.0304)
 -->
<!-- Title: timing_manager.cpp Pages: 1 -->
<!--zoomable 449 -->
<svg id="main" version="1.1" xmlns="http://www.w3.org/2000/svg" xmlns:xlink="http://www.w3.org/1999/xlink" xml:space="preserve" onload="init(evt)">
<style type="text/css"><![CDATA[
.edge:hover path { stroke: red; }
.edge:hover polygon { stroke: red; fill: red; }
]]></style>
<script type="text/javascript"><![CDATA[
var edges = document.getElementsByTagName('g');
if (edges && edges.length) {
  for (var i=0;i<edges.length;i++) {
    if (edges[i].id.substr(0,4)=='edge') {
      edges[i].setAttribute('class','edge');
    }
  }
}
]]></script>
        <defs>
                <circle id="rim" cx="0" cy="0" r="7"/>
                <circle id="rim2" cx="0" cy="0" r="3.5"/>
                <g id="zoomPlus">
                        <use xlink:href="#rim" fill="#404040">
                                <set attributeName="fill" to="#808080" begin="zoomplus.mouseover" end="zoomplus.mouseout"/>
                        </use>
                        <path d="M-4,0h8M0,-4v8" fill="none" stroke="white" stroke-width="1.5" pointer-events="none"/>
                </g>
                <g id="zoomMin">
                        <use xlink:href="#rim" fill="#404040">
                                <set attributeName="fill" to="#808080" begin="zoomminus.mouseover" end="zoomminus.mouseout"/>
                        </use>
                        <path d="M-4,0h8" fill="none" stroke="white" stroke-width="1.5" pointer-events="none"/>
                </g>
                <g id="dirArrow">
                        <path fill="none" stroke="white" stroke-width="1.5" d="M0,-3.0v7 M-2.5,-0.5L0,-3.0L2.5,-0.5"/>
                </g>
               <g id="resetDef">
                       <use xlink:href="#rim2" fill="#404040">
                               <set attributeName="fill" to="#808080" begin="reset.mouseover" end="reset.mouseout"/>
                       </use>
               </g>
        </defs>

<script type="text/javascript">
var viewWidth = 3010;
var viewHeight = 449;
var sectionId = 'dynsection-0';
</script>
<script xlink:href="../../svgpan.js"/>
<svg id="graph" class="graph">
<g id="viewport">
<title>timing_manager.cpp</title>
<polygon fill="#ffffff" stroke="transparent" points="-4,4 -4,-445 3006.4373,-445 3006.4373,4 -4,4"/>
<!-- Node0 -->
<g id="node1" class="node">
<title>Node0</title>
<polygon fill="#bfbfbf" stroke="#000000" points="1723.4373,-419.5 1723.4373,-440.5 1821.4373,-440.5 1821.4373,-419.5 1723.4373,-419.5"/>
<text text-anchor="middle" x="1772.4373" y="-426.9" font-family="Helvetica,sans-Serif" font-size="12.00" fill="#000000">timing_manager.cpp</text>
</g>
<!-- Node1 -->
<g id="node2" class="node">
<title>Node1</title>
<g id="a_node2"><a xlink:href="../../df/df2/timing__manager_8hpp.html" target="_top" xlink:title="timemory/timing_manager.hpp">
<polygon fill="#ffffff" stroke="#000000" points="1703.4373,-303.5 1703.4373,-324.5 1841.4373,-324.5 1841.4373,-303.5 1703.4373,-303.5"/>
<text text-anchor="middle" x="1772.4373" y="-310.9" font-family="Helvetica,sans-Serif" font-size="12.00" fill="#000000">timemory/timing_manager.hpp</text>
</a>
</g>
</g>
<!-- Node0&#45;&gt;Node1 -->
<g id="edge1" class="edge">
<title>Node0&#45;&gt;Node1</title>
<path fill="none" stroke="#191970" d="M1772.4373,-419.2949C1772.4373,-400.1314 1772.4373,-359.654 1772.4373,-334.8434"/>
<polygon fill="#191970" stroke="#191970" points="1775.9374,-334.6792 1772.4373,-324.6792 1768.9374,-334.6792 1775.9374,-334.6792"/>
</g>
<!-- Node5 -->
<g id="node6" class="node">
<title>Node5</title>
<polygon fill="#ffffff" stroke="#bfbfbf" points="189.4373,-239 189.4373,-260 231.4373,-260 231.4373,-239 189.4373,-239"/>
<text text-anchor="middle" x="210.4373" y="-246.4" font-family="Helvetica,sans-Serif" font-size="12.00" fill="#000000">thread</text>
</g>
<!-- Node0&#45;&gt;Node5 -->
<g id="edge111" class="edge">
<title>Node0&#45;&gt;Node5</title>
<path fill="none" stroke="#191970" d="M1723.0612,-427.5351C1493.115,-415.6329 526.3487,-360.8085 240.4373,-267 238.5467,-266.3797 236.6449,-265.6285 234.7664,-264.7905"/>
<polygon fill="#191970" stroke="#191970" points="236.2116,-261.5969 225.7258,-260.0808 232.9775,-267.8051 236.2116,-261.5969"/>
</g>
<!-- Node23 -->
<g id="node24" class="node">
<title>Node23</title>
<polygon fill="#ffffff" stroke="#bfbfbf" points="829.9373,-.5 829.9373,-21.5 878.9373,-21.5 878.9373,-.5 829.9373,-.5"/>
<text text-anchor="middle" x="854.4373" y="-7.9" font-family="Helvetica,sans-Serif" font-size="12.00" fill="#000000">sstream</text>
</g>
<!-- Node0&#45;&gt;Node23 -->
<g id="edge109" class="edge">
<title>Node0&#45;&gt;Node23</title>
<path fill="none" stroke="#191970" d="M1723.2222,-429.419C1437.1928,-425.7279 1.4373,-402.7783 1.4373,-314 1.4373,-314 1.4373,-314 1.4373,-127 1.4373,-95.1919 -4.3119,-77.9808 20.4373,-58 51.9802,-32.5345 664.8531,-15.6941 819.3252,-11.8427"/>
<polygon fill="#191970" stroke="#191970" points="819.7302,-15.3339 829.6407,-11.588 819.5573,-8.336 819.7302,-15.3339"/>
</g>
<!-- Node54 -->
<g id="node49" class="node">
<title>Node54</title>
<g id="a_node49"><a xlink:href="../../d8/d07/auto__timer_8hpp.html" target="_top" xlink:title="timemory/auto_timer.hpp">
<polygon fill="#ffffff" stroke="#000000" points="2572.4373,-361.5 2572.4373,-382.5 2688.4373,-382.5 2688.4373,-361.5 2572.4373,-361.5"/>
<text text-anchor="middle" x="2630.4373" y="-368.9" font-family="Helvetica,sans-Serif" font-size="12.00" fill="#000000">timemory/auto_timer.hpp</text>
</a>
</g>
</g>
<!-- Node0&#45;&gt;Node54 -->
<g id="edge103" class="edge">
<title>Node0&#45;&gt;Node54</title>
<path fill="none" stroke="#191970" d="M1821.6488,-426.6733C1967.0026,-416.8476 2394.684,-387.9367 2562.116,-376.6185"/>
<polygon fill="#191970" stroke="#191970" points="2562.5443,-380.0976 2572.2855,-375.931 2562.0721,-373.1135 2562.5443,-380.0976"/>
</g>
<!-- Node55 -->
<g id="node50" class="node">
<title>Node55</title>
<polygon fill="#ffffff" stroke="#bfbfbf" points="2706.4373,-361.5 2706.4373,-382.5 2760.4373,-382.5 2760.4373,-361.5 2706.4373,-361.5"/>
<text text-anchor="middle" x="2733.4373" y="-368.9" font-family="Helvetica,sans-Serif" font-size="12.00" fill="#000000">algorithm</text>
</g>
<!-- Node0&#45;&gt;Node55 -->
<g id="edge110" class="edge">
<title>Node0&#45;&gt;Node55</title>
<path fill="none" stroke="#191970" d="M1821.4632,-429.0968C1984.3442,-425.852 2507.3188,-413.4147 2696.0175,-382.8218"/>
<polygon fill="#191970" stroke="#191970" points="2696.8147,-386.2366 2706.0892,-381.1147 2695.6449,-379.3351 2696.8147,-386.2366"/>
</g>
<!-- Node2 -->
<g id="node3" class="node">
<title>Node2</title>
<polygon fill="#ffffff" stroke="#bfbfbf" points="29.4373,-58.5 29.4373,-79.5 109.4373,-79.5 109.4373,-58.5 29.4373,-58.5"/>
<text text-anchor="middle" x="69.4373" y="-65.9" font-family="Helvetica,sans-Serif" font-size="12.00" fill="#000000">unordered_map</text>
</g>
<!-- Node1&#45;&gt;Node2 -->
<g id="edge2" class="edge">
<title>Node1&#45;&gt;Node2</title>
<path fill="none" stroke="#191970" d="M1703.1306,-312.0166C1522.3766,-306.5758 1039.6741,-290.2581 881.4373,-267 582.6188,-223.0788 232.9146,-119.6829 112.6216,-82.5639"/>
<polygon fill="#191970" stroke="#191970" points="113.6144,-79.2075 103.0265,-79.5934 111.5441,-85.8943 113.6144,-79.2075"/>
</g>
<!-- Node3 -->
<g id="node4" class="node">
<title>Node3</title>
<polygon fill="#ffffff" stroke="#bfbfbf" points="2343.4373,-.5 2343.4373,-21.5 2385.4373,-21.5 2385.4373,-.5 2343.4373,-.5"/>
<text text-anchor="middle" x="2364.4373" y="-7.9" font-family="Helvetica,sans-Serif" font-size="12.00" fill="#000000">deque</text>
</g>
<!-- Node1&#45;&gt;Node3 -->
<g id="edge3" class="edge">
<title>Node1&#45;&gt;Node3</title>
<path fill="none" stroke="#191970" d="M1841.6769,-312.4903C2031.6261,-308.0133 2548.4988,-293.4447 2573.4373,-267 2654.5988,-180.9366 2469.455,-67.4455 2394.3223,-26.5334"/>
<polygon fill="#191970" stroke="#191970" points="2395.7803,-23.3435 2385.3152,-21.6901 2392.4651,-29.5087 2395.7803,-23.3435"/>
</g>
<!-- Node4 -->
<g id="node5" class="node">
<title>Node4</title>
<polygon fill="#ffffff" stroke="#bfbfbf" points="2618.9373,-.5 2618.9373,-21.5 2657.9373,-21.5 2657.9373,-.5 2618.9373,-.5"/>
<text text-anchor="middle" x="2638.4373" y="-7.9" font-family="Helvetica,sans-Serif" font-size="12.00" fill="#000000">string</text>
</g>
<!-- Node1&#45;&gt;Node4 -->
<g id="edge4" class="edge">
<title>Node1&#45;&gt;Node4</title>
<path fill="none" stroke="#191970" d="M1841.5984,-311.8235C2026.8263,-305.7448 2524.9455,-287.6711 2596.4373,-267 2668.6774,-246.1125 2744.4373,-260.1992 2744.4373,-185 2744.4373,-185 2744.4373,-185 2744.4373,-127 2744.4373,-81.065 2698.5808,-45.3731 2667.1901,-26.3217"/>
<polygon fill="#191970" stroke="#191970" points="2668.7752,-23.1943 2658.3751,-21.1725 2665.2445,-29.2386 2668.7752,-23.1943"/>
</g>
<!-- Node1&#45;&gt;Node5 -->
<g id="edge5" class="edge">
<title>Node1&#45;&gt;Node5</title>
<path fill="none" stroke="#191970" d="M1703.2816,-312.8276C1413.8555,-307.7993 311.4963,-287.385 240.4373,-267 238.4812,-266.4388 236.5194,-265.7215 234.5875,-264.8989"/>
<polygon fill="#191970" stroke="#191970" points="235.8345,-261.6045 225.3408,-260.1444 232.6336,-267.8298 235.8345,-261.6045"/>
</g>
<!-- Node6 -->
<g id="node7" class="node">
<title>Node6</title>
<polygon fill="#ffffff" stroke="#bfbfbf" points="127.9373,-58.5 127.9373,-79.5 168.9373,-79.5 168.9373,-58.5 127.9373,-58.5"/>
<text text-anchor="middle" x="148.4373" y="-65.9" font-family="Helvetica,sans-Serif" font-size="12.00" fill="#000000">mutex</text>
</g>
<!-- Node1&#45;&gt;Node6 -->
<g id="edge6" class="edge">
<title>Node1&#45;&gt;Node6</title>
<path fill="none" stroke="#191970" d="M1703.3354,-312.5842C1540.341,-308.792 1135.6742,-296.611 1003.4373,-267 861.8072,-235.2856 831.8849,-205.573 703.4373,-138 686.1663,-128.9142 684.0853,-121.7525 665.4373,-116 460.7677,-52.864 391.8504,-124.8114 179.0411,-79.8266"/>
<polygon fill="#191970" stroke="#191970" points="179.6415,-76.3754 169.1259,-77.6687 178.1529,-83.2153 179.6415,-76.3754"/>
</g>
<!-- Node7 -->
<g id="node8" class="node">
<title>Node7</title>
<polygon fill="#ffffff" stroke="#bfbfbf" points="2794.9373,-.5 2794.9373,-21.5 2837.9373,-21.5 2837.9373,-.5 2794.9373,-.5"/>
<text text-anchor="middle" x="2816.4373" y="-7.9" font-family="Helvetica,sans-Serif" font-size="12.00" fill="#000000">cstdint</text>
</g>
<!-- Node1&#45;&gt;Node7 -->
<g id="edge7" class="edge">
<title>Node1&#45;&gt;Node7</title>
<path fill="none" stroke="#191970" d="M1841.569,-312.3335C2063.2356,-306.7889 2744.2573,-288.1136 2786.4373,-267 2882.7157,-218.807 2904.0793,-181.342 2940.4373,-80 2955.2394,-38.7416 2889.57,-21.5035 2848.1357,-14.8265"/>
<polygon fill="#191970" stroke="#191970" points="2848.5933,-11.3561 2838.1875,-13.3483 2847.5644,-18.2801 2848.5933,-11.3561"/>
</g>
<!-- Node8 -->
<g id="node9" class="node">
<title>Node8</title>
<polygon fill="#ffffff" stroke="#bfbfbf" points="1227.4373,-58.5 1227.4373,-79.5 1313.4373,-79.5 1313.4373,-58.5 1227.4373,-58.5"/>
<text text-anchor="middle" x="1270.4373" y="-65.9" font-family="Helvetica,sans-Serif" font-size="12.00" fill="#000000">cereal/cereal.hpp</text>
</g>
<!-- Node1&#45;&gt;Node8 -->
<g id="edge8" class="edge">
<title>Node1&#45;&gt;Node8</title>
<path fill="none" stroke="#191970" d="M1703.272,-306.6263C1600.9935,-292.1628 1409.3672,-250.9112 1296.4373,-138 1283.3979,-124.9627 1276.8008,-104.7525 1273.5244,-89.5684"/>
<polygon fill="#191970" stroke="#191970" points="1276.937,-88.7739 1271.6809,-79.5747 1270.0531,-90.0437 1276.937,-88.7739"/>
</g>
<!-- Node9 -->
<g id="node10" class="node">
<title>Node9</title>
<polygon fill="#ffffff" stroke="#bfbfbf" points="1099.4373,-58.5 1099.4373,-79.5 1209.4373,-79.5 1209.4373,-58.5 1099.4373,-58.5"/>
<text text-anchor="middle" x="1154.4373" y="-65.9" font-family="Helvetica,sans-Serif" font-size="12.00" fill="#000000">cereal/types/deque.hpp</text>
</g>
<!-- Node1&#45;&gt;Node9 -->
<g id="edge9" class="edge">
<title>Node1&#45;&gt;Node9</title>
<path fill="none" stroke="#191970" d="M1703.1797,-307.8626C1619.7008,-299.8436 1484.735,-284.7174 1437.4373,-267 1324.546,-224.7117 1214.4315,-126.7301 1172.3563,-86.6104"/>
<polygon fill="#191970" stroke="#191970" points="1174.7159,-84.0236 1165.0865,-79.6048 1169.8586,-89.0641 1174.7159,-84.0236"/>
</g>
<!-- Node10 -->
<g id="node11" class="node">
<title>Node10</title>
<polygon fill="#ffffff" stroke="#bfbfbf" points="186.9373,-58.5 186.9373,-79.5 275.9373,-79.5 275.9373,-58.5 186.9373,-58.5"/>
<text text-anchor="middle" x="231.4373" y="-65.9" font-family="Helvetica,sans-Serif" font-size="12.00" fill="#000000">cereal/access.hpp</text>
</g>
<!-- Node1&#45;&gt;Node10 -->
<g id="edge10" class="edge">
<title>Node1&#45;&gt;Node10</title>
<path fill="none" stroke="#191970" d="M1703.2165,-310.3688C1568.5345,-303.0023 1275.7457,-285.4297 1176.4373,-267 978.1673,-230.2049 926.6564,-217.7419 741.4373,-138 723.5128,-130.283 722.0502,-121.8649 703.4373,-116 528.3031,-60.8152 471.3787,-105.4114 286.252,-80.105"/>
<polygon fill="#191970" stroke="#191970" points="286.5825,-76.617 276.1902,-78.6785 285.5999,-83.5477 286.5825,-76.617"/>
</g>
<!-- Node11 -->
<g id="node12" class="node">
<title>Node11</title>
<polygon fill="#ffffff" stroke="#bfbfbf" points="2164.9373,-232.5 2164.9373,-266.5 2273.9373,-266.5 2273.9373,-232.5 2164.9373,-232.5"/>
<text text-anchor="start" x="2172.9373" y="-252.9" font-family="Helvetica,sans-Serif" font-size="12.00" fill="#000000">cereal/types/unordered</text>
<text text-anchor="middle" x="2219.4373" y="-239.9" font-family="Helvetica,sans-Serif" font-size="12.00" fill="#000000">_map.hpp</text>
</g>
<!-- Node1&#45;&gt;Node11 -->
<g id="edge11" class="edge">
<title>Node1&#45;&gt;Node11</title>
<path fill="none" stroke="#191970" d="M1841.4677,-308.024C1917.5549,-300.8324 2043.3677,-287.1528 2150.4373,-267 2151.8795,-266.7285 2153.3364,-266.4446 2154.8036,-266.1499"/>
<polygon fill="#191970" stroke="#191970" points="2155.5347,-269.5728 2164.5871,-264.0679 2154.0776,-262.7261 2155.5347,-269.5728"/>
</g>
<!-- Node12 -->
<g id="node13" class="node">
<title>Node12</title>
<polygon fill="#ffffff" stroke="#bfbfbf" points="293.9373,-58.5 293.9373,-79.5 406.9373,-79.5 406.9373,-58.5 293.9373,-58.5"/>
<text text-anchor="middle" x="350.4373" y="-65.9" font-family="Helvetica,sans-Serif" font-size="12.00" fill="#000000">cereal/types/chrono.hpp</text>
</g>
<!-- Node1&#45;&gt;Node12 -->
<g id="edge12" class="edge">
<title>Node1&#45;&gt;Node12</title>
<path fill="none" stroke="#191970" d="M1703.1688,-308.542C1621.3646,-301.5241 1481.3711,-287.7173 1362.4373,-267 1115.5101,-223.9874 1055.4206,-203.3236 813.4373,-138 781.1332,-129.2795 774.176,-122.9126 741.4373,-116 733.5819,-114.3414 526.6471,-89.8011 417.0824,-76.8593"/>
<polygon fill="#191970" stroke="#191970" points="417.4563,-73.3792 407.1148,-75.6822 416.6353,-80.3309 417.4563,-73.3792"/>
</g>
<!-- Node13 -->
<g id="node14" class="node">
<title>Node13</title>
<polygon fill="#ffffff" stroke="#bfbfbf" points="2292.4373,-239 2292.4373,-260 2424.4373,-260 2424.4373,-239 2292.4373,-239"/>
<text text-anchor="middle" x="2358.4373" y="-246.4" font-family="Helvetica,sans-Serif" font-size="12.00" fill="#000000">cereal/archives/adapters.hpp</text>
</g>
<!-- Node1&#45;&gt;Node13 -->
<g id="edge13" class="edge">
<title>Node1&#45;&gt;Node13</title>
<path fill="none" stroke="#191970" d="M1841.8317,-310.6492C1940.4743,-305.1996 2126.6752,-292.3746 2283.4373,-267 2291.4133,-265.7089 2299.8029,-264.0523 2307.9663,-262.2746"/>
<polygon fill="#191970" stroke="#191970" points="2308.7845,-265.678 2317.7688,-260.0625 2307.2436,-258.8497 2308.7845,-265.678"/>
</g>
<!-- Node14 -->
<g id="node15" class="node">
<title>Node14</title>
<polygon fill="#ffffff" stroke="#bfbfbf" points="2442.4373,-239 2442.4373,-260 2564.4373,-260 2564.4373,-239 2442.4373,-239"/>
<text text-anchor="middle" x="2503.4373" y="-246.4" font-family="Helvetica,sans-Serif" font-size="12.00" fill="#000000">cereal/archives/binary.hpp</text>
</g>
<!-- Node1&#45;&gt;Node14 -->
<g id="edge14" class="edge">
<title>Node1&#45;&gt;Node14</title>
<path fill="none" stroke="#191970" d="M1841.8808,-313.0261C1962.8018,-310.4495 2219.559,-301.0728 2433.4373,-267 2440.9207,-265.8078 2448.776,-264.2019 2456.4096,-262.4444"/>
<polygon fill="#191970" stroke="#191970" points="2457.3657,-265.8143 2466.2672,-260.0686 2455.7255,-259.0091 2457.3657,-265.8143"/>
</g>
<!-- Node15 -->
<g id="node16" class="node">
<title>Node15</title>
<polygon fill="#ffffff" stroke="#bfbfbf" points="249.4373,-239 249.4373,-260 363.4373,-260 363.4373,-239 249.4373,-239"/>
<text text-anchor="middle" x="306.4373" y="-246.4" font-family="Helvetica,sans-Serif" font-size="12.00" fill="#000000">cereal/archives/json.hpp</text>
</g>
<!-- Node1&#45;&gt;Node15 -->
<g id="edge15" class="edge">
<title>Node1&#45;&gt;Node15</title>
<path fill="none" stroke="#191970" d="M1703.0363,-313.7395C1457.9032,-312.4963 633.4795,-305.4848 372.4373,-267 365.1809,-265.9302 357.5766,-264.3552 350.2165,-262.5818"/>
<polygon fill="#191970" stroke="#191970" points="350.9423,-259.1548 340.387,-260.0692 349.2086,-265.9368 350.9423,-259.1548"/>
</g>
<!-- Node16 -->
<g id="node17" class="node">
<title>Node16</title>
<polygon fill="#ffffff" stroke="#bfbfbf" points="381.4373,-232.5 381.4373,-266.5 493.4373,-266.5 493.4373,-232.5 381.4373,-232.5"/>
<text text-anchor="start" x="389.4373" y="-252.9" font-family="Helvetica,sans-Serif" font-size="12.00" fill="#000000">cereal/archives/portable</text>
<text text-anchor="middle" x="437.4373" y="-239.9" font-family="Helvetica,sans-Serif" font-size="12.00" fill="#000000">_binary.hpp</text>
</g>
<!-- Node1&#45;&gt;Node16 -->
<g id="edge16" class="edge">
<title>Node1&#45;&gt;Node16</title>
<path fill="none" stroke="#191970" d="M1703.1915,-313.4968C1476.4788,-311.5309 756.9997,-302.6892 503.896,-266.9665"/>
<polygon fill="#191970" stroke="#191970" points="504.0438,-263.4509 493.6422,-265.4655 503.0298,-270.3771 504.0438,-263.4509"/>
</g>
<!-- Node17 -->
<g id="node18" class="node">
<title>Node17</title>
<polygon fill="#ffffff" stroke="#bfbfbf" points="511.9373,-239 511.9373,-260 622.9373,-260 622.9373,-239 511.9373,-239"/>
<text text-anchor="middle" x="567.4373" y="-246.4" font-family="Helvetica,sans-Serif" font-size="12.00" fill="#000000">cereal/archives/xml.hpp</text>
</g>
<!-- Node1&#45;&gt;Node17 -->
<g id="edge17" class="edge">
<title>Node1&#45;&gt;Node17</title>
<path fill="none" stroke="#191970" d="M1703.2254,-312.98C1489.9694,-309.5459 844.8366,-296.9005 637.4373,-267 629.5913,-265.8689 621.347,-264.2276 613.3806,-262.3976"/>
<polygon fill="#191970" stroke="#191970" points="614.0324,-258.9543 603.4896,-260.0027 612.3851,-265.7577 614.0324,-258.9543"/>
</g>
<!-- Node18 -->
<g id="node19" class="node">
<title>Node18</title>
<g id="a_node19"><a xlink:href="../../db/d19/namespace_8hpp.html" target="_top" xlink:title="timemory/namespace.hpp">
<polygon fill="#ffffff" stroke="#000000" points="2411.4373,-.5 2411.4373,-21.5 2531.4373,-21.5 2531.4373,-.5 2411.4373,-.5"/>
<text text-anchor="middle" x="2471.4373" y="-7.9" font-family="Helvetica,sans-Serif" font-size="12.00" fill="#000000">timemory/namespace.hpp</text>
</a>
</g>
</g>
<!-- Node1&#45;&gt;Node18 -->
<g id="edge18" class="edge">
<title>Node1&#45;&gt;Node18</title>
<path fill="none" stroke="#191970" d="M1821.6011,-303.4655C1858.1575,-295.08 1909.0109,-282.2439 1952.4373,-267 2144.8536,-199.4564 2193.6485,-179.8866 2371.4373,-80 2399.6304,-64.1604 2429.9205,-42.5456 2449.6843,-27.7539"/>
<polygon fill="#191970" stroke="#191970" points="2451.8584,-30.4979 2457.7259,-21.6762 2447.6378,-24.9134 2451.8584,-30.4979"/>
</g>
<!-- Node19 -->
<g id="node20" class="node">
<title>Node19</title>
<g id="a_node20"><a xlink:href="../../d1/d4e/utility_8hpp.html" target="_top" xlink:title="timemory/utility.hpp">
<polygon fill="#ffffff" stroke="#000000" points="2014.4373,-58.5 2014.4373,-79.5 2108.4373,-79.5 2108.4373,-58.5 2014.4373,-58.5"/>
<text text-anchor="middle" x="2061.4373" y="-65.9" font-family="Helvetica,sans-Serif" font-size="12.00" fill="#000000">timemory/utility.hpp</text>
</a>
</g>
</g>
<!-- Node1&#45;&gt;Node19 -->
<g id="edge19" class="edge">
<title>Node1&#45;&gt;Node19</title>
<path fill="none" stroke="#191970" d="M1812.5105,-303.4513C1878.578,-283.6465 2008.4181,-233.9733 2062.4373,-138 2070.6789,-123.3575 2069.59,-104.0491 2066.9204,-89.5821"/>
<polygon fill="#191970" stroke="#191970" points="2070.2917,-88.6188 2064.6992,-79.6202 2063.4595,-90.1422 2070.2917,-88.6188"/>
</g>
<!-- Node31 -->
<g id="node32" class="node">
<title>Node31</title>
<g id="a_node32"><a xlink:href="../../df/d05/timer_8hpp.html" target="_top" xlink:title="timemory/timer.hpp">
<polygon fill="#ffffff" stroke="#000000" points="1725.4373,-239 1725.4373,-260 1819.4373,-260 1819.4373,-239 1725.4373,-239"/>
<text text-anchor="middle" x="1772.4373" y="-246.4" font-family="Helvetica,sans-Serif" font-size="12.00" fill="#000000">timemory/timer.hpp</text>
</a>
</g>
</g>
<!-- Node1&#45;&gt;Node31 -->
<g id="edge34" class="edge">
<title>Node1&#45;&gt;Node31</title>
<path fill="none" stroke="#191970" d="M1772.4373,-303.3491C1772.4373,-294.4397 1772.4373,-281.4599 1772.4373,-270.4761"/>
<polygon fill="#191970" stroke="#191970" points="1775.9374,-270.3822 1772.4373,-260.3823 1768.9374,-270.3823 1775.9374,-270.3822"/>
</g>
<!-- Node52 -->
<g id="node47" class="node">
<title>Node52</title>
<g id="a_node47"><a xlink:href="../../d0/d5d/mpi_8hpp.html" target="_top" xlink:title="timemory/mpi.hpp">
<polygon fill="#ffffff" stroke="#000000" points="2772.4373,-58.5 2772.4373,-79.5 2860.4373,-79.5 2860.4373,-58.5 2772.4373,-58.5"/>
<text text-anchor="middle" x="2816.4373" y="-65.9" font-family="Helvetica,sans-Serif" font-size="12.00" fill="#000000">timemory/mpi.hpp</text>
</a>
</g>
</g>
<!-- Node1&#45;&gt;Node52 -->
<g id="edge102" class="edge">
<title>Node1&#45;&gt;Node52</title>
<path fill="none" stroke="#191970" d="M1841.5847,-312.8893C2059.9361,-309.0972 2722.4751,-295.3006 2758.4373,-267 2813.3583,-223.7797 2818.2538,-131.4265 2817.4756,-89.9398"/>
<polygon fill="#191970" stroke="#191970" points="2820.972,-89.771 2817.1526,-79.8886 2813.9756,-89.9959 2820.972,-89.771"/>
</g>
<!-- Node19&#45;&gt;Node3 -->
<g id="edge30" class="edge">
<title>Node19&#45;&gt;Node3</title>
<path fill="none" stroke="#191970" d="M2108.4486,-60.0011C2171.0945,-48.0095 2280.2148,-27.1218 2333.4486,-16.9318"/>
<polygon fill="#191970" stroke="#191970" points="2334.1563,-20.36 2343.3199,-15.0423 2332.8402,-13.4848 2334.1563,-20.36"/>
</g>
<!-- Node19&#45;&gt;Node4 -->
<g id="edge23" class="edge">
<title>Node19&#45;&gt;Node4</title>
<path fill="none" stroke="#191970" d="M2108.7112,-64.5822C2194.678,-56.4994 2382.3382,-38.6285 2540.4373,-22 2563.4235,-19.5824 2589.4194,-16.6556 2608.8584,-14.4289"/>
<polygon fill="#191970" stroke="#191970" points="2609.3879,-17.8912 2618.9226,-13.2716 2608.5882,-10.937 2609.3879,-17.8912"/>
</g>
<!-- Node19&#45;&gt;Node18 -->
<g id="edge33" class="edge">
<title>Node19&#45;&gt;Node18</title>
<path fill="none" stroke="#191970" d="M2108.5902,-62.3702C2173.1178,-53.2917 2292.5549,-36.4672 2394.4373,-22 2396.6642,-21.6838 2398.9272,-21.3622 2401.2124,-21.0371"/>
<polygon fill="#191970" stroke="#191970" points="2401.922,-24.4715 2411.3289,-19.5969 2400.9354,-17.5414 2401.922,-24.4715"/>
</g>
<!-- Node20 -->
<g id="node21" class="node">
<title>Node20</title>
<polygon fill="#ffffff" stroke="#bfbfbf" points="1396.9373,-.5 1396.9373,-21.5 1447.9373,-21.5 1447.9373,-.5 1396.9373,-.5"/>
<text text-anchor="middle" x="1422.4373" y="-7.9" font-family="Helvetica,sans-Serif" font-size="12.00" fill="#000000">iostream</text>
</g>
<!-- Node19&#45;&gt;Node20 -->
<g id="edge20" class="edge">
<title>Node19&#45;&gt;Node20</title>
<path fill="none" stroke="#191970" d="M2014.1906,-64.7116C1891.8022,-53.6028 1566.466,-24.073 1458.1101,-14.2379"/>
<polygon fill="#191970" stroke="#191970" points="1458.2983,-10.7407 1448.0228,-13.3223 1457.6654,-17.712 1458.2983,-10.7407"/>
</g>
<!-- Node21 -->
<g id="node22" class="node">
<title>Node21</title>
<polygon fill="#ffffff" stroke="#bfbfbf" points="2175.4373,-.5 2175.4373,-21.5 2217.4373,-21.5 2217.4373,-.5 2175.4373,-.5"/>
<text text-anchor="middle" x="2196.4373" y="-7.9" font-family="Helvetica,sans-Serif" font-size="12.00" fill="#000000">cstdlib</text>
</g>
<!-- Node19&#45;&gt;Node21 -->
<g id="edge21" class="edge">
<title>Node19&#45;&gt;Node21</title>
<path fill="none" stroke="#191970" d="M2085.8848,-58.4966C2108.3235,-48.8563 2141.6561,-34.5356 2165.8509,-24.1408"/>
<polygon fill="#191970" stroke="#191970" points="2167.4723,-27.2536 2175.2786,-20.0904 2164.7091,-20.8221 2167.4723,-27.2536"/>
</g>
<!-- Node22 -->
<g id="node23" class="node">
<title>Node22</title>
<polygon fill="#ffffff" stroke="#bfbfbf" points="2235.9373,-.5 2235.9373,-21.5 2264.9373,-21.5 2264.9373,-.5 2235.9373,-.5"/>
<text text-anchor="middle" x="2250.4373" y="-7.9" font-family="Helvetica,sans-Serif" font-size="12.00" fill="#000000">set</text>
</g>
<!-- Node19&#45;&gt;Node22 -->
<g id="edge22" class="edge">
<title>Node19&#45;&gt;Node22</title>
<path fill="none" stroke="#191970" d="M2105.4444,-58.4124C2139.023,-49.8678 2186.2005,-36.8534 2226.4373,-22 2226.534,-21.9643 2226.6309,-21.9284 2226.728,-21.8922"/>
<polygon fill="#191970" stroke="#191970" points="2227.9637,-25.1688 2235.8628,-18.1079 2225.2846,-18.7018 2227.9637,-25.1688"/>
</g>
<!-- Node19&#45;&gt;Node23 -->
<g id="edge24" class="edge">
<title>Node19&#45;&gt;Node23</title>
<path fill="none" stroke="#191970" d="M2014.1215,-66.7263C1816.6733,-57.2384 1060.7542,-20.9142 889.2038,-12.6706"/>
<polygon fill="#191970" stroke="#191970" points="889.3639,-9.1744 879.2074,-12.1903 889.0279,-16.1663 889.3639,-9.1744"/>
</g>
<!-- Node24 -->
<g id="node25" class="node">
<title>Node24</title>
<polygon fill="#ffffff" stroke="#bfbfbf" points="1628.4373,-.5 1628.4373,-21.5 1676.4373,-21.5 1676.4373,-.5 1628.4373,-.5"/>
<text text-anchor="middle" x="1652.4373" y="-7.9" font-family="Helvetica,sans-Serif" font-size="12.00" fill="#000000">iomanip</text>
</g>
<!-- Node19&#45;&gt;Node24 -->
<g id="edge25" class="edge">
<title>Node19&#45;&gt;Node24</title>
<path fill="none" stroke="#191970" d="M2014.1202,-62.29C1930.7457,-50.4667 1759.5965,-26.1962 1686.6217,-15.8477"/>
<polygon fill="#191970" stroke="#191970" points="1686.9818,-12.3638 1676.5894,-14.425 1685.9989,-19.2945 1686.9818,-12.3638"/>
</g>
<!-- Node25 -->
<g id="node26" class="node">
<title>Node25</title>
<polygon fill="#ffffff" stroke="#bfbfbf" points="1967.9373,-.5 1967.9373,-21.5 2010.9373,-21.5 2010.9373,-.5 1967.9373,-.5"/>
<text text-anchor="middle" x="1989.4373" y="-7.9" font-family="Helvetica,sans-Serif" font-size="12.00" fill="#000000">cstring</text>
</g>
<!-- Node19&#45;&gt;Node25 -->
<g id="edge26" class="edge">
<title>Node19&#45;&gt;Node25</title>
<path fill="none" stroke="#191970" d="M2048.2314,-58.3619C2037.6761,-49.859 2022.6796,-37.7785 2010.4744,-27.9466"/>
<polygon fill="#191970" stroke="#191970" points="2012.5427,-25.1183 2002.5595,-21.5707 2008.1514,-30.5696 2012.5427,-25.1183"/>
</g>
<!-- Node26 -->
<g id="node27" class="node">
<title>Node26</title>
<polygon fill="#ffffff" stroke="#bfbfbf" points="2028.9373,-.5 2028.9373,-21.5 2083.9373,-21.5 2083.9373,-.5 2028.9373,-.5"/>
<text text-anchor="middle" x="2056.4373" y="-7.9" font-family="Helvetica,sans-Serif" font-size="12.00" fill="#000000">exception</text>
</g>
<!-- Node19&#45;&gt;Node26 -->
<g id="edge27" class="edge">
<title>Node19&#45;&gt;Node26</title>
<path fill="none" stroke="#191970" d="M2060.5202,-58.3619C2059.8788,-50.9219 2059.0013,-40.7427 2058.2242,-31.7276"/>
<polygon fill="#191970" stroke="#191970" points="2061.6946,-31.2331 2057.3486,-21.5707 2054.7205,-31.8343 2061.6946,-31.2331"/>
</g>
<!-- Node27 -->
<g id="node28" class="node">
<title>Node27</title>
<polygon fill="#ffffff" stroke="#bfbfbf" points="1894.9373,-.5 1894.9373,-21.5 1949.9373,-21.5 1949.9373,-.5 1894.9373,-.5"/>
<text text-anchor="middle" x="1922.4373" y="-7.9" font-family="Helvetica,sans-Serif" font-size="12.00" fill="#000000">stdexcept</text>
</g>
<!-- Node19&#45;&gt;Node27 -->
<g id="edge28" class="edge">
<title>Node19&#45;&gt;Node27</title>
<path fill="none" stroke="#191970" d="M2036.2654,-58.4966C2014.1642,-49.2746 1981.7986,-35.7695 1957.2239,-25.5153"/>
<polygon fill="#191970" stroke="#191970" points="1958.4682,-22.2421 1947.8916,-21.6212 1955.7726,-28.7022 1958.4682,-22.2421"/>
</g>
<!-- Node28 -->
<g id="node29" class="node">
<title>Node28</title>
<polygon fill="#ffffff" stroke="#bfbfbf" points="2101.9373,-.5 2101.9373,-21.5 2156.9373,-21.5 2156.9373,-.5 2101.9373,-.5"/>
<text text-anchor="middle" x="2129.4373" y="-7.9" font-family="Helvetica,sans-Serif" font-size="12.00" fill="#000000">functional</text>
</g>
<!-- Node19&#45;&gt;Node28 -->
<g id="edge29" class="edge">
<title>Node19&#45;&gt;Node28</title>
<path fill="none" stroke="#191970" d="M2073.9095,-58.3619C2083.7826,-49.9408 2097.7698,-38.0105 2109.2357,-28.2308"/>
<polygon fill="#191970" stroke="#191970" points="2111.7071,-30.7231 2117.0441,-21.5707 2107.1644,-25.3972 2111.7071,-30.7231"/>
</g>
<!-- Node29 -->
<g id="node30" class="node">
<title>Node29</title>
<polygon fill="#ffffff" stroke="#bfbfbf" points="1776.9373,-.5 1776.9373,-21.5 1817.9373,-21.5 1817.9373,-.5 1776.9373,-.5"/>
<text text-anchor="middle" x="1797.4373" y="-7.9" font-family="Helvetica,sans-Serif" font-size="12.00" fill="#000000">cmath</text>
</g>
<!-- Node19&#45;&gt;Node29 -->
<g id="edge31" class="edge">
<title>Node19&#45;&gt;Node29</title>
<path fill="none" stroke="#191970" d="M2014.3181,-61.7194C1968.8401,-54.2069 1897.9702,-41.2255 1827.8451,-21.7815"/>
<polygon fill="#191970" stroke="#191970" points="1828.5324,-18.3389 1817.9578,-18.9949 1826.6334,-25.0765 1828.5324,-18.3389"/>
</g>
<!-- Node30 -->
<g id="node31" class="node">
<title>Node30</title>
<polygon fill="#ffffff" stroke="#bfbfbf" points="1835.9373,-.5 1835.9373,-21.5 1876.9373,-21.5 1876.9373,-.5 1835.9373,-.5"/>
<text text-anchor="middle" x="1856.4373" y="-7.9" font-family="Helvetica,sans-Serif" font-size="12.00" fill="#000000">vector</text>
</g>
<!-- Node19&#45;&gt;Node30 -->
<g id="edge32" class="edge">
<title>Node19&#45;&gt;Node30</title>
<path fill="none" stroke="#191970" d="M2017.9759,-58.4734C1984.531,-50.1157 1937.0049,-37.6853 1886.7571,-21.9092"/>
<polygon fill="#191970" stroke="#191970" points="1887.6012,-18.5052 1877.011,-18.8175 1885.4845,-25.1775 1887.6012,-18.5052"/>
</g>
<!-- Node31&#45;&gt;Node18 -->
<g id="edge35" class="edge">
<title>Node31&#45;&gt;Node18</title>
<path fill="none" stroke="#191970" d="M1816.227,-238.984C1911.8443,-215.4368 2145.7722,-154.6367 2333.4373,-80 2372.8461,-64.3266 2416.2956,-41.6466 2443.7128,-26.6224"/>
<polygon fill="#191970" stroke="#191970" points="2445.6491,-29.5513 2452.7091,-21.6515 2442.2637,-23.4244 2445.6491,-29.5513"/>
</g>
<!-- Node32 -->
<g id="node33" class="node">
<title>Node32</title>
<g id="a_node33"><a xlink:href="../../d6/d01/base__timer_8hpp.html" target="_top" xlink:title="timemory/base_timer.hpp">
<polygon fill="#ffffff" stroke="#000000" points="1459.4373,-174.5 1459.4373,-195.5 1577.4373,-195.5 1577.4373,-174.5 1459.4373,-174.5"/>
<text text-anchor="middle" x="1518.4373" y="-181.9" font-family="Helvetica,sans-Serif" font-size="12.00" fill="#000000">timemory/base_timer.hpp</text>
</a>
</g>
</g>
<!-- Node31&#45;&gt;Node32 -->
<g id="edge36" class="edge">
<title>Node31&#45;&gt;Node32</title>
<path fill="none" stroke="#191970" d="M1731.0625,-238.9934C1686.9662,-227.7957 1617.0907,-210.0518 1569.5766,-197.9862"/>
<polygon fill="#191970" stroke="#191970" points="1570.3482,-194.5711 1559.7944,-195.5021 1568.6253,-201.3558 1570.3482,-194.5711"/>
</g>
<!-- Node32&#45;&gt;Node4 -->
<g id="edge94" class="edge">
<title>Node32&#45;&gt;Node4</title>
<path fill="none" stroke="#191970" d="M1577.4646,-181.9259C1762.6182,-171.7815 2329.9885,-136.7444 2504.4373,-80 2544.7264,-66.8948 2587.6539,-42.7662 2613.7665,-26.8"/>
<polygon fill="#191970" stroke="#191970" points="2615.6174,-29.7706 2622.2697,-21.5245 2611.927,-23.8224 2615.6174,-29.7706"/>
</g>
<!-- Node32&#45;&gt;Node8 -->
<g id="edge96" class="edge">
<title>Node32&#45;&gt;Node8</title>
<path fill="none" stroke="#191970" d="M1486.7698,-174.47C1461.5791,-165.7217 1425.6672,-152.4128 1395.4373,-138 1377.8219,-129.6014 1374.4685,-125.5277 1357.4373,-116 1338.2226,-105.2507 1316.4251,-93.4758 1299.4551,-84.4007"/>
<polygon fill="#191970" stroke="#191970" points="1301.0413,-81.28 1290.571,-79.6603 1297.746,-87.4559 1301.0413,-81.28"/>
</g>
<!-- Node32&#45;&gt;Node9 -->
<g id="edge100" class="edge">
<title>Node32&#45;&gt;Node9</title>
<path fill="none" stroke="#191970" d="M1459.4257,-176.5315C1414.0737,-169.0657 1350.284,-156.4724 1296.4373,-138 1254.7431,-123.6966 1209.3948,-100.1339 1181.4378,-84.5901"/>
<polygon fill="#191970" stroke="#191970" points="1183.0858,-81.5014 1172.6538,-79.6511 1179.655,-87.6031 1183.0858,-81.5014"/>
</g>
<!-- Node32&#45;&gt;Node10 -->
<g id="edge97" class="edge">
<title>Node32&#45;&gt;Node10</title>
<path fill="none" stroke="#191970" d="M1459.3885,-182.6748C1313.726,-176.6762 940.1903,-159.6227 817.4373,-138 782.806,-131.8998 776.0325,-122.3021 741.4373,-116 544.2254,-80.0743 487.9434,-107.8325 286.2164,-80.1084"/>
<polygon fill="#191970" stroke="#191970" points="286.5763,-76.6247 276.187,-78.7011 285.6036,-83.5568 286.5763,-76.6247"/>
</g>
<!-- Node32&#45;&gt;Node12 -->
<g id="edge99" class="edge">
<title>Node32&#45;&gt;Node12</title>
<path fill="none" stroke="#191970" d="M1459.3874,-183.7956C1319.692,-180.4621 972.2674,-169.2037 860.4373,-138 839.76,-132.2304 838.0404,-122.0293 817.4373,-116 658.0175,-69.3475 610.6129,-97.5536 445.4373,-80 436.3437,-79.0336 426.7657,-77.9739 417.3325,-76.9057"/>
<polygon fill="#191970" stroke="#191970" points="417.5156,-73.4039 407.1831,-75.7473 416.7217,-80.3588 417.5156,-73.4039"/>
</g>
<!-- Node32&#45;&gt;Node18 -->
<g id="edge37" class="edge">
<title>Node32&#45;&gt;Node18</title>
<path fill="none" stroke="#191970" d="M1577.6044,-183.0638C1677.9562,-179.0729 1887.669,-167.6708 2062.4373,-138 2165.0983,-120.571 2190.1529,-111.3953 2289.4373,-80 2341.5646,-63.5165 2400.4967,-40.3085 2436.8124,-25.4593"/>
<polygon fill="#191970" stroke="#191970" points="2438.5128,-28.5445 2446.4311,-21.5053 2435.8513,-22.0702 2438.5128,-28.5445"/>
</g>
<!-- Node32&#45;&gt;Node19 -->
<g id="edge74" class="edge">
<title>Node32&#45;&gt;Node19</title>
<path fill="none" stroke="#191970" d="M1577.6579,-183.4391C1707.2772,-179.4933 2007.3839,-167.2727 2042.4373,-138 2056.3277,-126.4003 2060.5626,-105.6649 2061.6327,-89.9439"/>
<polygon fill="#191970" stroke="#191970" points="2065.142,-89.6861 2061.9453,-79.585 2058.1451,-89.4749 2065.142,-89.6861"/>
</g>
<!-- Node33 -->
<g id="node34" class="node">
<title>Node33</title>
<g id="a_node34"><a xlink:href="../../d8/d4e/base__clock_8hpp.html" target="_top" xlink:title="timemory/base_clock.hpp">
<polygon fill="#ffffff" stroke="#000000" points="869.9373,-116.5 869.9373,-137.5 988.9373,-137.5 988.9373,-116.5 869.9373,-116.5"/>
<text text-anchor="middle" x="929.4373" y="-123.9" font-family="Helvetica,sans-Serif" font-size="12.00" fill="#000000">timemory/base_clock.hpp</text>
</a>
</g>
</g>
<!-- Node32&#45;&gt;Node33 -->
<g id="edge38" class="edge">
<title>Node32&#45;&gt;Node33</title>
<path fill="none" stroke="#191970" d="M1459.2649,-179.1732C1349.8171,-168.3956 1116.2791,-145.3987 999.2771,-133.8773"/>
<polygon fill="#191970" stroke="#191970" points="999.3033,-130.363 989.0084,-132.8661 998.6173,-137.3293 999.3033,-130.363"/>
</g>
<!-- Node41 -->
<g id="node42" class="node">
<title>Node41</title>
<g id="a_node42"><a xlink:href="../../d9/dd2/rss_8hpp.html" target="_top" xlink:title="timemory/rss.hpp">
<polygon fill="#ffffff" stroke="#ff0000" points="1404.4373,-116.5 1404.4373,-137.5 1490.4373,-137.5 1490.4373,-116.5 1404.4373,-116.5"/>
<text text-anchor="middle" x="1447.4373" y="-123.9" font-family="Helvetica,sans-Serif" font-size="12.00" fill="#000000">timemory/rss.hpp</text>
</a>
</g>
</g>
<!-- Node32&#45;&gt;Node41 -->
<g id="edge60" class="edge">
<title>Node32&#45;&gt;Node41</title>
<path fill="none" stroke="#191970" d="M1505.4148,-174.3619C1495.0061,-165.859 1480.2179,-153.7785 1468.1822,-143.9466"/>
<polygon fill="#191970" stroke="#191970" points="1470.336,-141.1866 1460.3772,-137.5707 1465.9074,-146.6077 1470.336,-141.1866"/>
</g>
<!-- Node43 -->
<g id="node43" class="node">
<title>Node43</title>
<polygon fill="#ffffff" stroke="#bfbfbf" points="1535.9373,-58.5 1535.9373,-79.5 1582.9373,-79.5 1582.9373,-58.5 1535.9373,-58.5"/>
<text text-anchor="middle" x="1559.4373" y="-65.9" font-family="Helvetica,sans-Serif" font-size="12.00" fill="#000000">fstream</text>
</g>
<!-- Node32&#45;&gt;Node43 -->
<g id="edge93" class="edge">
<title>Node32&#45;&gt;Node43</title>
<path fill="none" stroke="#191970" d="M1522.221,-174.2949C1529.0553,-154.9588 1543.5594,-113.9229 1552.3059,-89.1767"/>
<polygon fill="#191970" stroke="#191970" points="1555.6302,-90.274 1555.6628,-79.6792 1549.0303,-87.9412 1555.6302,-90.274"/>
</g>
<!-- Node45 -->
<g id="node44" class="node">
<title>Node45</title>
<polygon fill="#ffffff" stroke="#bfbfbf" points="1600.9373,-58.5 1600.9373,-79.5 1691.9373,-79.5 1691.9373,-58.5 1600.9373,-58.5"/>
<text text-anchor="middle" x="1646.4373" y="-65.9" font-family="Helvetica,sans-Serif" font-size="12.00" fill="#000000">cereal/macros.hpp</text>
</g>
<!-- Node32&#45;&gt;Node45 -->
<g id="edge98" class="edge">
<title>Node32&#45;&gt;Node45</title>
<path fill="none" stroke="#191970" d="M1530.2498,-174.2949C1552.3483,-154.2682 1600.1321,-110.9641 1627.0284,-86.5893"/>
<polygon fill="#191970" stroke="#191970" points="1629.5938,-88.9879 1634.6533,-79.6792 1624.8931,-83.801 1629.5938,-88.9879"/>
</g>
<!-- Node46 -->
<g id="node45" class="node">
<title>Node46</title>
<polygon fill="#ffffff" stroke="#bfbfbf" points="1407.4373,-58.5 1407.4373,-79.5 1517.4373,-79.5 1517.4373,-58.5 1407.4373,-58.5"/>
<text text-anchor="middle" x="1462.4373" y="-65.9" font-family="Helvetica,sans-Serif" font-size="12.00" fill="#000000">cereal/types/vector.hpp</text>
</g>
<!-- Node32&#45;&gt;Node46 -->
<g id="edge101" class="edge">
<title>Node32&#45;&gt;Node46</title>
<path fill="none" stroke="#191970" d="M1516.8386,-174.2366C1514.4602,-160.2383 1509.1862,-135.2967 1499.4373,-116 1494.2394,-105.7114 1486.5929,-95.5087 1479.5985,-87.2518"/>
<polygon fill="#191970" stroke="#191970" points="1482.1807,-84.8883 1472.9362,-79.7124 1476.9352,-89.5235 1482.1807,-84.8883"/>
</g>
<!-- Node47 -->
<g id="node46" class="node">
<title>Node47</title>
<g id="a_node46"><a xlink:href="../../da/d8e/signal__detection_8hpp.html" target="_top" xlink:title="timemory/signal_detection.hpp">
<polygon fill="#ffffff" stroke="#ff0000" points="1893.9373,-116.5 1893.9373,-137.5 2032.9373,-137.5 2032.9373,-116.5 1893.9373,-116.5"/>
<text text-anchor="middle" x="1963.4373" y="-123.9" font-family="Helvetica,sans-Serif" font-size="12.00" fill="#000000">timemory/signal_detection.hpp</text>
</a>
</g>
</g>
<!-- Node32&#45;&gt;Node47 -->
<g id="edge75" class="edge">
<title>Node32&#45;&gt;Node47</title>
<path fill="none" stroke="#191970" d="M1577.5299,-177.298C1656.2967,-167.0318 1795.9548,-148.8292 1883.9088,-137.3655"/>
<polygon fill="#191970" stroke="#191970" points="1884.3774,-140.8341 1893.8411,-136.071 1883.4726,-133.8928 1884.3774,-140.8341"/>
</g>
<!-- Node53 -->
<g id="node48" class="node">
<title>Node53</title>
<polygon fill="#ffffff" stroke="#bfbfbf" points="1304.9373,-116.5 1304.9373,-137.5 1347.9373,-137.5 1347.9373,-116.5 1304.9373,-116.5"/>
<text text-anchor="middle" x="1326.4373" y="-123.9" font-family="Helvetica,sans-Serif" font-size="12.00" fill="#000000">atomic</text>
</g>
<!-- Node32&#45;&gt;Node53 -->
<g id="edge95" class="edge">
<title>Node32&#45;&gt;Node53</title>
<path fill="none" stroke="#191970" d="M1483.4197,-174.4925C1451.7953,-164.993 1403.9856,-150.6065 1362.4373,-138 1360.9911,-137.5612 1359.5125,-137.1119 1358.019,-136.6576"/>
<polygon fill="#191970" stroke="#191970" points="1358.7211,-133.2127 1348.1351,-133.6449 1356.6801,-139.9086 1358.7211,-133.2127"/>
</g>
<!-- Node33&#45;&gt;Node2 -->
<g id="edge47" class="edge">
<title>Node33&#45;&gt;Node2</title>
<path fill="none" stroke="#191970" d="M869.8992,-124.1117C701.4194,-115.8625 227.0849,-92.0874 119.6959,-79.8328"/>
<polygon fill="#191970" stroke="#191970" points="119.8105,-76.3197 109.4511,-78.5405 118.9344,-83.2646 119.8105,-76.3197"/>
</g>
<!-- Node33&#45;&gt;Node6 -->
<g id="edge46" class="edge">
<title>Node33&#45;&gt;Node6</title>
<path fill="none" stroke="#191970" d="M869.8042,-123.7615C706.7405,-114.8446 260.6264,-90.0164 179.1046,-79.3185"/>
<polygon fill="#191970" stroke="#191970" points="179.5511,-75.8452 169.1195,-77.6979 178.4296,-82.7548 179.5511,-75.8452"/>
</g>
<!-- Node33&#45;&gt;Node7 -->
<g id="edge53" class="edge">
<title>Node33&#45;&gt;Node7</title>
<path fill="none" stroke="#191970" d="M988.9479,-125.2346C1223.6757,-118.2117 2078.4099,-92.0536 2199.4373,-80 2259.9295,-73.9753 2274.1538,-65.8429 2334.4373,-58 2503.6499,-35.9855 2707.5069,-19.3365 2784.7241,-13.382"/>
<polygon fill="#191970" stroke="#191970" points="2785.059,-16.8667 2794.7626,-12.6134 2784.5245,-9.8872 2785.059,-16.8667"/>
</g>
<!-- Node33&#45;&gt;Node8 -->
<g id="edge55" class="edge">
<title>Node33&#45;&gt;Node8</title>
<path fill="none" stroke="#191970" d="M989.0808,-118.1422C1045.3877,-109.5892 1132.4243,-95.8785 1217.2723,-80.1575"/>
<polygon fill="#191970" stroke="#191970" points="1218.1493,-83.5544 1227.3384,-78.2808 1216.8663,-76.6729 1218.1493,-83.5544"/>
</g>
<!-- Node33&#45;&gt;Node9 -->
<g id="edge57" class="edge">
<title>Node33&#45;&gt;Node9</title>
<path fill="none" stroke="#191970" d="M970.1831,-116.4966C1007.6581,-106.8364 1063.3646,-92.4765 1103.7094,-82.0765"/>
<polygon fill="#191970" stroke="#191970" points="1104.8053,-85.4085 1113.6151,-79.5231 1103.0579,-78.6301 1104.8053,-85.4085"/>
</g>
<!-- Node33&#45;&gt;Node10 -->
<g id="edge58" class="edge">
<title>Node33&#45;&gt;Node10</title>
<path fill="none" stroke="#191970" d="M869.8895,-120.8115C852.9498,-119.1434 834.4747,-117.4117 817.4373,-116 584.1701,-96.6717 521.4391,-111.7599 286.4169,-80.1288"/>
<polygon fill="#191970" stroke="#191970" points="286.5625,-76.6165 276.182,-78.7367 285.619,-83.5526 286.5625,-76.6165"/>
</g>
<!-- Node33&#45;&gt;Node12 -->
<g id="edge56" class="edge">
<title>Node33&#45;&gt;Node12</title>
<path fill="none" stroke="#191970" d="M869.7069,-117.7818C864.884,-117.141 860.0821,-116.5373 855.4373,-116 663.168,-93.7591 613.6374,-102.831 421.4373,-80 419.9664,-79.8253 418.4792,-79.6431 416.9804,-79.4545"/>
<polygon fill="#191970" stroke="#191970" points="417.342,-75.9719 406.969,-78.1285 416.4228,-82.9113 417.342,-75.9719"/>
</g>
<!-- Node33&#45;&gt;Node18 -->
<g id="edge59" class="edge">
<title>Node33&#45;&gt;Node18</title>
<path fill="none" stroke="#191970" d="M989.2924,-125.1702C1214.6781,-118.2061 2005.1228,-93.0897 2117.4373,-80 2225.6208,-67.3918 2350.225,-40.0612 2418.9883,-23.8362"/>
<polygon fill="#191970" stroke="#191970" points="2419.7988,-27.2412 2428.7199,-21.526 2418.1819,-20.4305 2419.7988,-27.2412"/>
</g>
<!-- Node33&#45;&gt;Node20 -->
<g id="edge41" class="edge">
<title>Node33&#45;&gt;Node20</title>
<path fill="none" stroke="#191970" d="M869.6796,-117.9978C864.8628,-117.3085 860.0698,-116.6348 855.4373,-116 726.5078,-98.3336 478.9825,-152.5133 568.4373,-58 596.999,-27.8232 1228.6157,-14.4837 1386.778,-11.6096"/>
<polygon fill="#191970" stroke="#191970" points="1386.9817,-15.1066 1396.9173,-11.428 1386.8562,-8.1077 1386.9817,-15.1066"/>
</g>
<!-- Node33&#45;&gt;Node23 -->
<g id="edge43" class="edge">
<title>Node33&#45;&gt;Node23</title>
<path fill="none" stroke="#191970" d="M869.7028,-117.8167C864.8808,-117.168 860.0803,-116.553 855.4373,-116 811.0165,-110.709 484.6222,-113.0162 454.4373,-80 403.8691,-24.6886 713.4479,-13.6567 819.631,-11.5071"/>
<polygon fill="#191970" stroke="#191970" points="819.896,-15.0028 829.8285,-11.3156 819.7645,-8.0041 819.896,-15.0028"/>
</g>
<!-- Node33&#45;&gt;Node24 -->
<g id="edge42" class="edge">
<title>Node33&#45;&gt;Node24</title>
<path fill="none" stroke="#191970" d="M922.3363,-116.3586C913.2761,-101.3331 900.4665,-73.956 915.4373,-58 918.4863,-54.7504 1472.6384,-21.665 1617.9055,-13.0446"/>
<polygon fill="#191970" stroke="#191970" points="1618.2529,-16.5302 1628.0282,-12.4442 1617.8384,-9.5425 1618.2529,-16.5302"/>
</g>
<!-- Node33&#45;&gt;Node27 -->
<g id="edge44" class="edge">
<title>Node33&#45;&gt;Node27</title>
<path fill="none" stroke="#191970" d="M943.3012,-116.2407C967.3922,-97.6493 1015.2928,-61.1829 1024.4373,-58 1202.4989,3.9779 1681.2023,-52.3388 1884.6336,-21.8591"/>
<polygon fill="#191970" stroke="#191970" points="1885.3811,-25.284 1894.6984,-20.2403 1884.2694,-18.3728 1885.3811,-25.284"/>
</g>
<!-- Node33&#45;&gt;Node29 -->
<g id="edge48" class="edge">
<title>Node33&#45;&gt;Node29</title>
<path fill="none" stroke="#191970" d="M929.678,-116.2456C930.6718,-100.5536 935.0597,-71.7573 953.4373,-58 1018.6266,-9.1997 1604.2256,-27.9815 1685.4373,-22 1713.0241,-19.9681 1744.3532,-16.8193 1766.8479,-14.4104"/>
<polygon fill="#191970" stroke="#191970" points="1767.2563,-17.8867 1776.8207,-13.3289 1766.5016,-10.9275 1767.2563,-17.8867"/>
</g>
<!-- Node33&#45;&gt;Node30 -->
<g id="edge45" class="edge">
<title>Node33&#45;&gt;Node30</title>
<path fill="none" stroke="#191970" d="M935.1847,-116.436C944.5546,-100.4321 964.7842,-70.5774 991.4373,-58 1073.0571,-19.4843 1698.1411,-39.466 1825.6125,-21.4831"/>
<polygon fill="#191970" stroke="#191970" points="1826.498,-24.8826 1835.7657,-19.7485 1825.3191,-17.9826 1826.498,-24.8826"/>
</g>
<!-- Node34 -->
<g id="node35" class="node">
<title>Node34</title>
<polygon fill="#ffffff" stroke="#bfbfbf" points="1033.4373,-58.5 1033.4373,-79.5 1081.4373,-79.5 1081.4373,-58.5 1033.4373,-58.5"/>
<text text-anchor="middle" x="1057.4373" y="-65.9" font-family="Helvetica,sans-Serif" font-size="12.00" fill="#000000">unistd.h</text>
</g>
<!-- Node33&#45;&gt;Node34 -->
<g id="edge39" class="edge">
<title>Node33&#45;&gt;Node34</title>
<path fill="none" stroke="#191970" d="M952.6171,-116.4966C972.7892,-107.3562 1002.2469,-94.0082 1024.8011,-83.7883"/>
<polygon fill="#191970" stroke="#191970" points="1026.3334,-86.9366 1033.9974,-79.6212 1023.4442,-80.5606 1026.3334,-86.9366"/>
</g>
<!-- Node35 -->
<g id="node36" class="node">
<title>Node35</title>
<polygon fill="#ffffff" stroke="#bfbfbf" points="577.4373,-58.5 577.4373,-79.5 639.4373,-79.5 639.4373,-58.5 577.4373,-58.5"/>
<text text-anchor="middle" x="608.4373" y="-65.9" font-family="Helvetica,sans-Serif" font-size="12.00" fill="#000000">sys/times.h</text>
</g>
<!-- Node33&#45;&gt;Node35 -->
<g id="edge40" class="edge">
<title>Node33&#45;&gt;Node35</title>
<path fill="none" stroke="#191970" d="M869.8147,-117.7647C804.6093,-107.5427 703.232,-91.2645 649.8218,-80.1121"/>
<polygon fill="#191970" stroke="#191970" points="650.3172,-76.6386 639.8043,-77.9533 648.8425,-83.4815 650.3172,-76.6386"/>
</g>
<!-- Node36 -->
<g id="node37" class="node">
<title>Node36</title>
<polygon fill="#ffffff" stroke="#bfbfbf" points="657.4373,-58.5 657.4373,-79.5 693.4373,-79.5 693.4373,-58.5 657.4373,-58.5"/>
<text text-anchor="middle" x="675.4373" y="-65.9" font-family="Helvetica,sans-Serif" font-size="12.00" fill="#000000">tuple</text>
</g>
<!-- Node33&#45;&gt;Node36 -->
<g id="edge49" class="edge">
<title>Node33&#45;&gt;Node36</title>
<path fill="none" stroke="#191970" d="M869.9024,-117.7397C826.022,-110.2189 764.8575,-98.285 703.432,-79.9184"/>
<polygon fill="#191970" stroke="#191970" points="704.1599,-76.4814 693.574,-76.9151 702.1199,-83.1775 704.1599,-76.4814"/>
</g>
<!-- Node37 -->
<g id="node38" class="node">
<title>Node37</title>
<polygon fill="#ffffff" stroke="#bfbfbf" points="711.4373,-58.5 711.4373,-79.5 745.4373,-79.5 745.4373,-58.5 711.4373,-58.5"/>
<text text-anchor="middle" x="728.4373" y="-65.9" font-family="Helvetica,sans-Serif" font-size="12.00" fill="#000000">ratio</text>
</g>
<!-- Node33&#45;&gt;Node37 -->
<g id="edge50" class="edge">
<title>Node33&#45;&gt;Node37</title>
<path fill="none" stroke="#191970" d="M883.2257,-116.4339C849.8623,-108.3912 803.6426,-96.4026 755.3362,-80.0111"/>
<polygon fill="#191970" stroke="#191970" points="756.245,-76.6224 745.6503,-76.674 753.9648,-83.2406 756.245,-76.6224"/>
</g>
<!-- Node38 -->
<g id="node39" class="node">
<title>Node38</title>
<polygon fill="#ffffff" stroke="#bfbfbf" points="763.4373,-58.5 763.4373,-79.5 807.4373,-79.5 807.4373,-58.5 763.4373,-58.5"/>
<text text-anchor="middle" x="785.4373" y="-65.9" font-family="Helvetica,sans-Serif" font-size="12.00" fill="#000000">chrono</text>
</g>
<!-- Node33&#45;&gt;Node38 -->
<g id="edge51" class="edge">
<title>Node33&#45;&gt;Node38</title>
<path fill="none" stroke="#191970" d="M903.36,-116.4966C879.0689,-106.7127 842.8089,-92.108 816.9162,-81.679"/>
<polygon fill="#191970" stroke="#191970" points="818.1303,-78.3948 807.5468,-77.9052 815.515,-84.8879 818.1303,-78.3948"/>
</g>
<!-- Node39 -->
<g id="node40" class="node">
<title>Node39</title>
<polygon fill="#ffffff" stroke="#bfbfbf" points="825.4373,-58.5 825.4373,-79.5 863.4373,-79.5 863.4373,-58.5 825.4373,-58.5"/>
<text text-anchor="middle" x="844.4373" y="-65.9" font-family="Helvetica,sans-Serif" font-size="12.00" fill="#000000">ctime</text>
</g>
<!-- Node33&#45;&gt;Node39 -->
<g id="edge52" class="edge">
<title>Node33&#45;&gt;Node39</title>
<path fill="none" stroke="#191970" d="M913.847,-116.3619C901.1463,-107.6955 882.9988,-95.3126 868.4452,-85.3819"/>
<polygon fill="#191970" stroke="#191970" points="870.1618,-82.316 859.9288,-79.5707 866.2163,-88.0982 870.1618,-82.316"/>
</g>
<!-- Node40 -->
<g id="node41" class="node">
<title>Node40</title>
<polygon fill="#ffffff" stroke="#bfbfbf" points="463.4373,-58.5 463.4373,-79.5 521.4373,-79.5 521.4373,-58.5 463.4373,-58.5"/>
<text text-anchor="middle" x="492.4373" y="-65.9" font-family="Helvetica,sans-Serif" font-size="12.00" fill="#000000">type_traits</text>
</g>
<!-- Node33&#45;&gt;Node40 -->
<g id="edge54" class="edge">
<title>Node33&#45;&gt;Node40</title>
<path fill="none" stroke="#191970" d="M869.6883,-117.9323C864.8696,-117.2577 860.0738,-116.6052 855.4373,-116 713.5218,-97.4754 676.2126,-105.7966 535.4373,-80 534.1583,-79.7656 532.861,-79.5143 531.5535,-79.2494"/>
<polygon fill="#191970" stroke="#191970" points="531.9824,-75.7594 521.461,-77.005 530.4628,-82.5924 531.9824,-75.7594"/>
</g>
<!-- Node41&#45;&gt;Node4 -->
<g id="edge64" class="edge">
<title>Node41&#45;&gt;Node4</title>
<path fill="none" stroke="#191970" d="M1490.573,-126.3239C1611.7071,-124.0314 1965.1549,-114.64 2256.4373,-80 2388.9267,-64.2441 2544.9587,-31.5907 2608.8811,-17.5986"/>
<polygon fill="#191970" stroke="#191970" points="2609.6668,-21.0095 2618.6805,-15.4414 2608.1618,-14.1732 2609.6668,-21.0095"/>
</g>
<!-- Node41&#45;&gt;Node7 -->
<g id="edge66" class="edge">
<title>Node41&#45;&gt;Node7</title>
<path fill="none" stroke="#191970" d="M1490.6577,-126.1086C1619.7283,-123.1486 2013.5475,-111.9517 2338.4373,-80 2507.3912,-63.384 2708.1038,-29.8883 2784.6467,-16.6083"/>
<polygon fill="#191970" stroke="#191970" points="2785.3563,-20.0375 2794.6069,-14.8725 2784.1545,-13.1414 2785.3563,-20.0375"/>
</g>
<!-- Node41&#45;&gt;Node8 -->
<g id="edge67" class="edge">
<title>Node41&#45;&gt;Node8</title>
<path fill="none" stroke="#191970" d="M1415.3839,-116.4966C1386.5281,-107.0411 1343.9316,-93.0829 1312.3765,-82.7428"/>
<polygon fill="#191970" stroke="#191970" points="1313.1435,-79.3111 1302.5508,-79.5231 1310.9637,-85.963 1313.1435,-79.3111"/>
</g>
<!-- Node41&#45;&gt;Node9 -->
<g id="edge71" class="edge">
<title>Node41&#45;&gt;Node9</title>
<path fill="none" stroke="#191970" d="M1404.2041,-118.4419C1354.8736,-108.6768 1273.759,-92.62 1217.4074,-81.4651"/>
<polygon fill="#191970" stroke="#191970" points="1218.0265,-78.0198 1207.5372,-79.5112 1216.6672,-84.8865 1218.0265,-78.0198"/>
</g>
<!-- Node41&#45;&gt;Node10 -->
<g id="edge68" class="edge">
<title>Node41&#45;&gt;Node10</title>
<path fill="none" stroke="#191970" d="M1404.0265,-120.9105C1389.2685,-119.0492 1372.6604,-117.1834 1357.4373,-116 885.0834,-79.2817 759.9813,-135.8786 286.3533,-80.0561"/>
<polygon fill="#191970" stroke="#191970" points="286.5115,-76.5504 276.1681,-78.8448 285.6848,-83.5014 286.5115,-76.5504"/>
</g>
<!-- Node41&#45;&gt;Node12 -->
<g id="edge70" class="edge">
<title>Node41&#45;&gt;Node12</title>
<path fill="none" stroke="#191970" d="M1404.0221,-120.966C1389.2638,-119.1089 1372.6566,-117.2314 1357.4373,-116 957.0934,-83.6088 855.0311,-109.139 454.4373,-80 442.4122,-79.1253 429.6277,-77.9642 417.287,-76.7242"/>
<polygon fill="#191970" stroke="#191970" points="417.3579,-73.213 407.0516,-75.6686 416.6397,-80.1761 417.3579,-73.213"/>
</g>
<!-- Node41&#45;&gt;Node18 -->
<g id="edge73" class="edge">
<title>Node41&#45;&gt;Node18</title>
<path fill="none" stroke="#191970" d="M1490.677,-125.2583C1627.8819,-119.5739 2052.4028,-100.7331 2188.4373,-80 2273.8595,-66.9808 2371.3235,-40.6026 2426.7011,-24.498"/>
<polygon fill="#191970" stroke="#191970" points="2427.9265,-27.7862 2436.5392,-21.616 2425.9585,-21.0685 2427.9265,-27.7862"/>
</g>
<!-- Node41&#45;&gt;Node20 -->
<g id="edge62" class="edge">
<title>Node41&#45;&gt;Node20</title>
<path fill="none" stroke="#191970" d="M1412.6525,-116.4406C1395.1959,-109.1822 1375.6384,-97.6049 1365.4373,-80 1353.9691,-60.2084 1374.5401,-40.3617 1394.0939,-27.0682"/>
<polygon fill="#191970" stroke="#191970" points="1396.0684,-29.9599 1402.6008,-21.6185 1392.2925,-24.0657 1396.0684,-29.9599"/>
</g>
<!-- Node41&#45;&gt;Node24 -->
<g id="edge65" class="edge">
<title>Node41&#45;&gt;Node24</title>
<path fill="none" stroke="#191970" d="M1430.5432,-116.3462C1410.5998,-102.4665 1382.0873,-77.653 1398.4373,-58 1425.9566,-24.9213 1554.9427,-15.0249 1617.8126,-12.1428"/>
<polygon fill="#191970" stroke="#191970" points="1618.1849,-15.6303 1628.0277,-11.7099 1617.8884,-8.6365 1618.1849,-15.6303"/>
</g>
<!-- Node41&#45;&gt;Node34 -->
<g id="edge61" class="edge">
<title>Node41&#45;&gt;Node34</title>
<path fill="none" stroke="#191970" d="M1404.1311,-121.5226C1320.2711,-110.8877 1140.2685,-87.914 1091.793,-79.6232"/>
<polygon fill="#191970" stroke="#191970" points="1092.2791,-76.1526 1081.7974,-77.6966 1090.9542,-83.0261 1092.2791,-76.1526"/>
</g>
<!-- Node41&#45;&gt;Node43 -->
<g id="edge63" class="edge">
<title>Node41&#45;&gt;Node43</title>
<path fill="none" stroke="#191970" d="M1467.7197,-116.4966C1485.055,-107.5194 1510.2277,-94.4835 1529.8177,-84.3387"/>
<polygon fill="#191970" stroke="#191970" points="1531.6569,-87.3278 1538.9274,-79.6212 1528.4379,-81.1118 1531.6569,-87.3278"/>
</g>
<!-- Node41&#45;&gt;Node45 -->
<g id="edge69" class="edge">
<title>Node41&#45;&gt;Node45</title>
<path fill="none" stroke="#191970" d="M1483.4747,-116.4966C1516.3384,-106.9183 1565.0547,-92.7196 1600.6612,-82.3418"/>
<polygon fill="#191970" stroke="#191970" points="1601.7111,-85.6815 1610.3323,-79.5231 1599.7524,-78.9611 1601.7111,-85.6815"/>
</g>
<!-- Node41&#45;&gt;Node46 -->
<g id="edge72" class="edge">
<title>Node41&#45;&gt;Node46</title>
<path fill="none" stroke="#191970" d="M1450.1885,-116.3619C1452.1338,-108.8401 1454.8032,-98.5187 1457.1535,-89.4308"/>
<polygon fill="#191970" stroke="#191970" points="1460.5881,-90.1285 1459.7035,-79.5707 1453.8111,-88.3758 1460.5881,-90.1285"/>
</g>
<!-- Node47&#45;&gt;Node3 -->
<g id="edge86" class="edge">
<title>Node47&#45;&gt;Node3</title>
<path fill="none" stroke="#191970" d="M2030.609,-116.4803C2076.671,-108.4745 2138.8966,-96.0921 2192.4373,-80 2243.3378,-64.7014 2300.1674,-40.4156 2334.0794,-25.1114"/>
<polygon fill="#191970" stroke="#191970" points="2335.772,-28.1866 2343.4244,-20.8591 2332.8727,-21.8152 2335.772,-28.1866"/>
</g>
<!-- Node47&#45;&gt;Node4 -->
<g id="edge79" class="edge">
<title>Node47&#45;&gt;Node4</title>
<path fill="none" stroke="#191970" d="M2033.287,-122.5881C2149.1848,-114.886 2376.218,-98.0755 2454.4373,-80 2511.1036,-66.9051 2573.8926,-40.6532 2609.5223,-24.5738"/>
<polygon fill="#191970" stroke="#191970" points="2611.1803,-27.6644 2618.8238,-20.3277 2608.2734,-21.2966 2611.1803,-27.6644"/>
</g>
<!-- Node47&#45;&gt;Node18 -->
<g id="edge89" class="edge">
<title>Node47&#45;&gt;Node18</title>
<path fill="none" stroke="#191970" d="M2033.1411,-117.343C2088.7876,-109.0824 2168.5651,-96.0034 2237.4373,-80 2305.8517,-64.103 2383.8222,-39.8477 2430.2602,-24.7335"/>
<polygon fill="#191970" stroke="#191970" points="2431.5409,-27.9972 2439.9568,-21.5611 2429.3642,-21.3442 2431.5409,-27.9972"/>
</g>
<!-- Node47&#45;&gt;Node19 -->
<g id="edge90" class="edge">
<title>Node47&#45;&gt;Node19</title>
<path fill="none" stroke="#191970" d="M1981.412,-116.3619C1996.3315,-107.532 2017.7699,-94.844 2034.7029,-84.8224"/>
<polygon fill="#191970" stroke="#191970" points="2036.7534,-87.6759 2043.5765,-79.5707 2033.1881,-81.6519 2036.7534,-87.6759"/>
</g>
<!-- Node47&#45;&gt;Node20 -->
<g id="edge76" class="edge">
<title>Node47&#45;&gt;Node20</title>
<path fill="none" stroke="#191970" d="M1905.9537,-116.4845C1868.1376,-108.6355 1817.96,-96.431 1775.4373,-80 1756.1475,-72.5463 1754.0608,-64.5248 1734.4373,-58 1638.0372,-25.9469 1517.5671,-15.6686 1458.4939,-12.438"/>
<polygon fill="#191970" stroke="#191970" points="1458.3631,-8.9269 1448.1978,-11.9131 1458.0066,-15.9178 1458.3631,-8.9269"/>
</g>
<!-- Node47&#45;&gt;Node21 -->
<g id="edge77" class="edge">
<title>Node47&#45;&gt;Node21</title>
<path fill="none" stroke="#191970" d="M2033.3528,-117.6767C2066.4696,-110.9258 2105.4564,-99.4305 2136.4373,-80 2156.6732,-67.3085 2173.8494,-45.6988 2184.5717,-30.0391"/>
<polygon fill="#191970" stroke="#191970" points="2187.5394,-31.8963 2190.1134,-21.6188 2181.6921,-28.0479 2187.5394,-31.8963"/>
</g>
<!-- Node47&#45;&gt;Node22 -->
<g id="edge78" class="edge">
<title>Node47&#45;&gt;Node22</title>
<path fill="none" stroke="#191970" d="M2033.1558,-118.1147C2072.5182,-111.2667 2121.8113,-99.5469 2162.4373,-80 2189.4992,-66.9794 2215.9871,-44.5012 2232.7139,-28.7488"/>
<polygon fill="#191970" stroke="#191970" points="2235.331,-31.0874 2240.1009,-21.6271 2230.4725,-26.048 2235.331,-31.0874"/>
</g>
<!-- Node47&#45;&gt;Node23 -->
<g id="edge80" class="edge">
<title>Node47&#45;&gt;Node23</title>
<path fill="none" stroke="#191970" d="M1893.7486,-119.7802C1847.2769,-113.2752 1785.5662,-101.3292 1734.4373,-80 1718.169,-73.2134 1718.1601,-63.5736 1701.4373,-58 1623.5789,-32.05 1039.1706,-15.6576 889.3497,-11.8525"/>
<polygon fill="#191970" stroke="#191970" points="889.4114,-8.3531 879.3265,-11.6003 889.2353,-15.3508 889.4114,-8.3531"/>
</g>
<!-- Node47&#45;&gt;Node24 -->
<g id="edge81" class="edge">
<title>Node47&#45;&gt;Node24</title>
<path fill="none" stroke="#191970" d="M1935.0137,-116.3983C1877.6288,-94.9943 1748.1579,-46.7028 1686.4226,-23.6762"/>
<polygon fill="#191970" stroke="#191970" points="1687.3587,-20.2898 1676.766,-20.0744 1684.9123,-26.8485 1687.3587,-20.2898"/>
</g>
<!-- Node47&#45;&gt;Node25 -->
<g id="edge82" class="edge">
<title>Node47&#45;&gt;Node25</title>
<path fill="none" stroke="#191970" d="M1964.1236,-116.1101C1965.1547,-102.3981 1967.5308,-78.1911 1972.4373,-58 1974.6271,-48.9886 1977.9514,-39.3098 1981.0813,-31.0913"/>
<polygon fill="#191970" stroke="#191970" points="1984.4036,-32.2083 1984.8419,-21.6226 1977.8979,-29.6245 1984.4036,-32.2083"/>
</g>
<!-- Node47&#45;&gt;Node26 -->
<g id="edge83" class="edge">
<title>Node47&#45;&gt;Node26</title>
<path fill="none" stroke="#191970" d="M1968.8438,-116.1064C1976.1262,-101.9674 1989.971,-76.874 2005.4373,-58 2014.2614,-47.2317 2025.5184,-36.6027 2035.2105,-28.184"/>
<polygon fill="#191970" stroke="#191970" points="2037.5252,-30.8102 2042.896,-21.6775 2033.0022,-25.4676 2037.5252,-30.8102"/>
</g>
<!-- Node47&#45;&gt;Node27 -->
<g id="edge84" class="edge">
<title>Node47&#45;&gt;Node27</title>
<path fill="none" stroke="#191970" d="M1959.6536,-116.2949C1952.8193,-96.9588 1938.3152,-55.9229 1929.5687,-31.1767"/>
<polygon fill="#191970" stroke="#191970" points="1932.8443,-29.9412 1926.2118,-21.6792 1926.2444,-32.274 1932.8443,-29.9412"/>
</g>
<!-- Node47&#45;&gt;Node28 -->
<g id="edge85" class="edge">
<title>Node47&#45;&gt;Node28</title>
<path fill="none" stroke="#191970" d="M2018.8278,-116.4577C2057.3801,-107.9814 2104.1613,-95.0339 2117.4373,-80 2128.8534,-67.0724 2131.3027,-47.2874 2131.2171,-32.213"/>
<polygon fill="#191970" stroke="#191970" points="2134.6953,-31.6336 2130.764,-21.7952 2127.7019,-31.9379 2134.6953,-31.6336"/>
</g>
<!-- Node47&#45;&gt;Node29 -->
<g id="edge87" class="edge">
<title>Node47&#45;&gt;Node29</title>
<path fill="none" stroke="#191970" d="M1948.0171,-116.3982C1934.2174,-106.8971 1913.4454,-92.5627 1895.4373,-80 1869.8347,-62.1394 1840.5837,-41.5158 1820.7531,-27.5014"/>
<polygon fill="#191970" stroke="#191970" points="1822.5375,-24.4766 1812.3516,-21.5612 1818.4962,-30.1922 1822.5375,-24.4766"/>
</g>
<!-- Node47&#45;&gt;Node30 -->
<g id="edge88" class="edge">
<title>Node47&#45;&gt;Node30</title>
<path fill="none" stroke="#191970" d="M1953.5628,-116.2949C1935.2491,-96.4408 1895.8327,-53.709 1873.2473,-29.2239"/>
<polygon fill="#191970" stroke="#191970" points="1875.6408,-26.6566 1866.2879,-21.6792 1870.4955,-31.4028 1875.6408,-26.6566"/>
</g>
<!-- Node47&#45;&gt;Node52 -->
<g id="edge91" class="edge">
<title>Node47&#45;&gt;Node52</title>
<path fill="none" stroke="#191970" d="M2033.2419,-122.2536C2198.966,-110.9852 2613.3469,-82.8092 2762.1588,-72.6907"/>
<polygon fill="#191970" stroke="#191970" points="2762.6678,-76.1642 2772.4073,-71.9938 2762.1929,-69.1804 2762.6678,-76.1642"/>
</g>
<!-- Node52&#45;&gt;Node7 -->
<g id="edge92" class="edge">
<title>Node52&#45;&gt;Node7</title>
<path fill="none" stroke="#191970" d="M2816.4373,-58.3619C2816.4373,-50.9219 2816.4373,-40.7427 2816.4373,-31.7276"/>
<polygon fill="#191970" stroke="#191970" points="2819.9374,-31.5706 2816.4373,-21.5707 2812.9374,-31.5707 2819.9374,-31.5706"/>
</g>
<!-- Node54&#45;&gt;Node1 -->
<g id="edge106" class="edge">
<title>Node54&#45;&gt;Node1</title>
<path fill="none" stroke="#191970" d="M2572.138,-368.059C2422.1636,-357.9209 2022.8094,-330.9249 1851.8741,-319.3699"/>
<polygon fill="#191970" stroke="#191970" points="1851.9016,-315.8638 1841.6882,-318.6813 1851.4294,-322.8479 1851.9016,-315.8638"/>
</g>
<!-- Node54&#45;&gt;Node4 -->
<g id="edge107" class="edge">
<title>Node54&#45;&gt;Node4</title>
<path fill="none" stroke="#191970" d="M2688.5768,-362.3353C2767.8697,-349.1006 2900.414,-326.7641 2902.4373,-325 2928.9766,-301.8609 2926.4373,-284.7101 2926.4373,-249.5 2926.4373,-249.5 2926.4373,-249.5 2926.4373,-127 2926.4373,-94.5312 2927.1423,-79.0686 2902.4373,-58 2867.5177,-28.2203 2729.7933,-16.4329 2668.33,-12.5877"/>
<polygon fill="#191970" stroke="#191970" points="2668.3132,-9.0806 2658.1225,-11.9788 2667.8963,-16.0682 2668.3132,-9.0806"/>
</g>
<!-- Node54&#45;&gt;Node7 -->
<g id="edge108" class="edge">
<title>Node54&#45;&gt;Node7</title>
<path fill="none" stroke="#191970" d="M2688.5388,-362.4411C2691.548,-361.9522 2694.528,-361.4695 2697.4373,-361 2839.9234,-338.0051 3002.4373,-393.8297 3002.4373,-249.5 3002.4373,-249.5 3002.4373,-249.5 3002.4373,-127 3002.4373,-55.1082 2901.1568,-26.1523 2848.0687,-15.9127"/>
<polygon fill="#191970" stroke="#191970" points="2848.6027,-12.4524 2838.1379,-14.1071 2847.3505,-19.3395 2848.6027,-12.4524"/>
</g>
<!-- Node54&#45;&gt;Node18 -->
<g id="edge104" class="edge">
<title>Node54&#45;&gt;Node18</title>
<path fill="none" stroke="#191970" d="M2671.8895,-361.4766C2744.8201,-341.7368 2888.4373,-296.8529 2888.4373,-249.5 2888.4373,-249.5 2888.4373,-249.5 2888.4373,-127 2888.4373,-95.1919 2893.5631,-78.7292 2869.4373,-58 2857.1712,-47.4608 2652.7467,-27.4355 2541.7828,-17.2648"/>
<polygon fill="#191970" stroke="#191970" points="2541.9492,-13.7656 2531.6724,-16.3417 2541.3127,-20.7366 2541.9492,-13.7656"/>
</g>
<!-- Node54&#45;&gt;Node19 -->
<g id="edge105" class="edge">
<title>Node54&#45;&gt;Node19</title>
<path fill="none" stroke="#191970" d="M2630.4373,-361.1848C2630.4373,-339.8339 2630.4373,-290.7587 2630.4373,-249.5 2630.4373,-249.5 2630.4373,-249.5 2630.4373,-185 2630.4373,-133.1272 2262.6747,-89.6859 2118.4731,-74.6462"/>
<polygon fill="#191970" stroke="#191970" points="2118.7922,-71.1607 2108.485,-73.6127 2118.0717,-78.1235 2118.7922,-71.1607"/>
</g>
</g>
</svg>
        <g id="navigator" transform="translate(0 0)" fill="#404254">
                <rect fill="#f2f5e9" fill-opacity="0.5" stroke="#606060" stroke-width=".5" x="0" y="0" width="60" height="60"/>
                <use id="zoomplus" xlink:href="#zoomPlus" x="17" y="9" onmousedown="handleZoom(evt,'in')"/>
                <use id="zoomminus" xlink:href="#zoomMin" x="42" y="9" onmousedown="handleZoom(evt,'out')"/>
                <use id="reset" xlink:href="#resetDef" x="30" y="36" onmousedown="handleReset()"/>
                <g id="arrowUp" xlink:href="#dirArrow" transform="translate(30 24)" onmousedown="handlePan(0,-1)">
                  <use xlink:href="#rim" fill="#404040">
                        <set attributeName="fill" to="#808080" begin="arrowUp.mouseover" end="arrowUp.mouseout"/>
                  </use>
                  <path fill="none" stroke="white" stroke-width="1.5" d="M0,-3.0v7 M-2.5,-0.5L0,-3.0L2.5,-0.5"/>
                </g>
                <g id="arrowRight" xlink:href="#dirArrow" transform="rotate(90) translate(36 -43)" onmousedown="handlePan(1,0)">
                  <use xlink:href="#rim" fill="#404040">
                        <set attributeName="fill" to="#808080" begin="arrowRight.mouseover" end="arrowRight.mouseout"/>
                  </use>
                  <path fill="none" stroke="white" stroke-width="1.5" d="M0,-3.0v7 M-2.5,-0.5L0,-3.0L2.5,-0.5"/>
                </g>
                <g id="arrowDown" xlink:href="#dirArrow" transform="rotate(180) translate(-30 -48)" onmousedown="handlePan(0,1)">
                  <use xlink:href="#rim" fill="#404040">
                        <set attributeName="fill" to="#808080" begin="arrowDown.mouseover" end="arrowDown.mouseout"/>
                  </use>
                  <path fill="none" stroke="white" stroke-width="1.5" d="M0,-3.0v7 M-2.5,-0.5L0,-3.0L2.5,-0.5"/>
                </g>
                <g id="arrowLeft" xlink:href="#dirArrow" transform="rotate(270) translate(-36 17)" onmousedown="handlePan(-1,0)">
                  <use xlink:href="#rim" fill="#404040">
                        <set attributeName="fill" to="#808080" begin="arrowLeft.mouseover" end="arrowLeft.mouseout"/>
                  </use>
                  <path fill="none" stroke="white" stroke-width="1.5" d="M0,-3.0v7 M-2.5,-0.5L0,-3.0L2.5,-0.5"/>
                </g>
        </g>
        <svg viewBox="0 0 15 15" width="100%" height="30px" preserveAspectRatio="xMaxYMin meet">
         <g id="arrow_out" transform="scale(0.3 0.3)">
          <a xlink:href="timing__manager_8cpp__incl_org.svg" target="_base">
           <rect id="button" ry="5" rx="5" y="6" x="6" height="38" width="38"
                fill="#f2f5e9" fill-opacity="0.5" stroke="#606060" stroke-width="1.0"/>
           <path id="arrow"
             d="M 11.500037,31.436501 C 11.940474,20.09759 22.043105,11.32322 32.158766,21.979434 L 37.068811,17.246167 C 37.068811,17.246167 37.088388,32 37.088388,32 L 22.160133,31.978069 C 22.160133,31.978069 26.997745,27.140456 26.997745,27.140456 C 18.528582,18.264221 13.291696,25.230495 11.500037,31.436501 z"
             style="fill:#404040;"/>
          </a>
         </g>
        </svg>
</svg>
