<?xml version="1.0" encoding="UTF-8" standalone="no"?>
<!DOCTYPE svg PUBLIC "-//W3C//DTD SVG 1.1//EN"
 "http://www.w3.org/Graphics/SVG/1.1/DTD/svg11.dtd">
<!-- Generated by graphviz version 2.40.1 (20161225.0304)
 -->
<!-- Title: timing_manager.cpp Pages: 1 -->
<svg width="2552pt" height="333pt"
 viewBox="0.00 0.00 2552.00 333.00" xmlns="http://www.w3.org/2000/svg" xmlns:xlink="http://www.w3.org/1999/xlink">
<g id="graph0" class="graph" transform="scale(1 1) rotate(0) translate(4 329)">
<title>timing_manager.cpp</title>
<polygon fill="#ffffff" stroke="transparent" points="-4,4 -4,-329 2548,-329 2548,4 -4,4"/>
<!-- Node0 -->
<g id="node1" class="node">
<title>Node0</title>
<polygon fill="#bfbfbf" stroke="#000000" points="1632,-303.5 1632,-324.5 1730,-324.5 1730,-303.5 1632,-303.5"/>
<text text-anchor="middle" x="1681" y="-310.9" font-family="Helvetica,sans-Serif" font-size="12.00" fill="#000000">timing_manager.cpp</text>
</g>
<!-- Node1 -->
<g id="node2" class="node">
<title>Node1</title>
<g id="a_node2"><a xlink:href="../../df/df2/timing__manager_8hpp.html" target="_top" xlink:title="timemory/timing_manager.hpp">
<polygon fill="#ffffff" stroke="#000000" points="1564,-245.5 1564,-266.5 1702,-266.5 1702,-245.5 1564,-245.5"/>
<text text-anchor="middle" x="1633" y="-252.9" font-family="Helvetica,sans-Serif" font-size="12.00" fill="#000000">timemory/timing_manager.hpp</text>
</a>
</g>
</g>
<!-- Node0&#45;&gt;Node1 -->
<g id="edge1" class="edge">
<title>Node0&#45;&gt;Node1</title>
<path fill="none" stroke="#191970" d="M1672.1961,-303.3619C1665.4975,-295.2678 1656.116,-283.9318 1648.2107,-274.3796"/>
<polygon fill="#191970" stroke="#191970" points="1650.8202,-272.0431 1641.7481,-266.5707 1645.4275,-276.5061 1650.8202,-272.0431"/>
</g>
<!-- Node5 -->
<g id="node6" class="node">
<title>Node5</title>
<polygon fill="#ffffff" stroke="#bfbfbf" points="2502,-181 2502,-202 2544,-202 2544,-181 2502,-181"/>
<text text-anchor="middle" x="2523" y="-188.4" font-family="Helvetica,sans-Serif" font-size="12.00" fill="#000000">thread</text>
</g>
<!-- Node0&#45;&gt;Node5 -->
<g id="edge87" class="edge">
<title>Node0&#45;&gt;Node5</title>
<path fill="none" stroke="#191970" d="M1687.5811,-303.4341C1698.2291,-287.4277 1720.9052,-257.5695 1749,-245 1899.0812,-177.8542 2328.948,-250.6582 2488,-209 2490.6801,-208.298 2493.3945,-207.3756 2496.0643,-206.3208"/>
<polygon fill="#191970" stroke="#191970" points="2497.7421,-209.4028 2505.3969,-202.0779 2494.845,-203.0305 2497.7421,-209.4028"/>
</g>
<!-- Node23 -->
<g id="node24" class="node">
<title>Node23</title>
<polygon fill="#ffffff" stroke="#bfbfbf" points="60.5,-.5 60.5,-21.5 109.5,-21.5 109.5,-.5 60.5,-.5"/>
<text text-anchor="middle" x="85" y="-7.9" font-family="Helvetica,sans-Serif" font-size="12.00" fill="#000000">sstream</text>
</g>
<!-- Node0&#45;&gt;Node23 -->
<g id="edge85" class="edge">
<title>Node0&#45;&gt;Node23</title>
<path fill="none" stroke="#191970" d="M1631.712,-312.4571C1378.6348,-304.2185 237,-263.0866 237,-191.5 237,-191.5 237,-191.5 237,-127 237,-96.5511 158.9443,-50.1731 114.7033,-26.3321"/>
<polygon fill="#191970" stroke="#191970" points="116.288,-23.2107 105.8162,-21.6006 112.9983,-29.3895 116.288,-23.2107"/>
</g>
<!-- Node49 -->
<g id="node50" class="node">
<title>Node49</title>
<polygon fill="#ffffff" stroke="#bfbfbf" points="1758,-245.5 1758,-266.5 1812,-266.5 1812,-245.5 1758,-245.5"/>
<text text-anchor="middle" x="1785" y="-252.9" font-family="Helvetica,sans-Serif" font-size="12.00" fill="#000000">algorithm</text>
</g>
<!-- Node0&#45;&gt;Node49 -->
<g id="edge86" class="edge">
<title>Node0&#45;&gt;Node49</title>
<path fill="none" stroke="#191970" d="M1700.0752,-303.3619C1716.0547,-294.4502 1739.081,-281.6087 1757.1267,-271.5447"/>
<polygon fill="#191970" stroke="#191970" points="1759.0168,-274.4982 1766.0457,-266.5707 1755.6073,-268.3846 1759.0168,-274.4982"/>
</g>
<!-- Node2 -->
<g id="node3" class="node">
<title>Node2</title>
<polygon fill="#ffffff" stroke="#bfbfbf" points="2355,-.5 2355,-21.5 2435,-21.5 2435,-.5 2355,-.5"/>
<text text-anchor="middle" x="2395" y="-7.9" font-family="Helvetica,sans-Serif" font-size="12.00" fill="#000000">unordered_map</text>
</g>
<!-- Node1&#45;&gt;Node2 -->
<g id="edge2" class="edge">
<title>Node1&#45;&gt;Node2</title>
<path fill="none" stroke="#191970" d="M1702.3291,-246.2019C1706.2739,-245.7638 1710.1851,-245.3585 1714,-245 1751.9961,-241.4292 2373.7309,-236.6838 2400,-209 2446.0618,-160.4576 2419.2024,-71.2955 2403.6714,-31.3237"/>
<polygon fill="#191970" stroke="#191970" points="2406.8339,-29.8081 2399.8393,-21.8503 2400.3447,-32.4331 2406.8339,-29.8081"/>
</g>
<!-- Node3 -->
<g id="node4" class="node">
<title>Node3</title>
<polygon fill="#ffffff" stroke="#bfbfbf" points="0,-.5 0,-21.5 42,-21.5 42,-.5 0,-.5"/>
<text text-anchor="middle" x="21" y="-7.9" font-family="Helvetica,sans-Serif" font-size="12.00" fill="#000000">deque</text>
</g>
<!-- Node1&#45;&gt;Node3 -->
<g id="edge3" class="edge">
<title>Node1&#45;&gt;Node3</title>
<path fill="none" stroke="#191970" d="M1563.902,-255.5855C1360.7386,-253.9456 767.7307,-246.0303 578,-209 369.4086,-168.2887 133.8137,-63.8815 51.3925,-25.4666"/>
<polygon fill="#191970" stroke="#191970" points="52.6528,-22.192 42.1126,-21.1177 49.6823,-28.5305 52.6528,-22.192"/>
</g>
<!-- Node4 -->
<g id="node5" class="node">
<title>Node4</title>
<polygon fill="#ffffff" stroke="#bfbfbf" points="633.5,-.5 633.5,-21.5 672.5,-21.5 672.5,-.5 633.5,-.5"/>
<text text-anchor="middle" x="653" y="-7.9" font-family="Helvetica,sans-Serif" font-size="12.00" fill="#000000">string</text>
</g>
<!-- Node1&#45;&gt;Node4 -->
<g id="edge4" class="edge">
<title>Node1&#45;&gt;Node4</title>
<path fill="none" stroke="#191970" d="M1563.6243,-251.6212C1449.7563,-244.0311 1228.2474,-227.4629 1152,-209 966.0446,-163.972 757.4511,-63.8401 682.0996,-25.9326"/>
<polygon fill="#191970" stroke="#191970" points="683.2733,-22.6041 672.7701,-21.2137 680.1137,-28.8505 683.2733,-22.6041"/>
</g>
<!-- Node1&#45;&gt;Node5 -->
<g id="edge5" class="edge">
<title>Node1&#45;&gt;Node5</title>
<path fill="none" stroke="#191970" d="M1702.2425,-246.3749C1706.8936,-245.8667 1711.5118,-245.4013 1716,-245 1887.0595,-229.7043 2321.8169,-252.3416 2488,-209 2490.6808,-208.3008 2493.3958,-207.3803 2496.0659,-206.3267"/>
<polygon fill="#191970" stroke="#191970" points="2497.7428,-209.4092 2505.3989,-202.0856 2494.8468,-203.0363 2497.7428,-209.4092"/>
</g>
<!-- Node6 -->
<g id="node7" class="node">
<title>Node6</title>
<polygon fill="#ffffff" stroke="#bfbfbf" points="2453.5,-.5 2453.5,-21.5 2494.5,-21.5 2494.5,-.5 2453.5,-.5"/>
<text text-anchor="middle" x="2474" y="-7.9" font-family="Helvetica,sans-Serif" font-size="12.00" fill="#000000">mutex</text>
</g>
<!-- Node1&#45;&gt;Node6 -->
<g id="edge6" class="edge">
<title>Node1&#45;&gt;Node6</title>
<path fill="none" stroke="#191970" d="M1702.3284,-246.1941C1706.2733,-245.758 1710.1848,-245.3553 1714,-245 1792.5395,-237.6862 2361.9002,-258.8874 2423,-209 2476.6477,-165.1971 2478.1446,-73.1494 2475.8218,-31.841"/>
<polygon fill="#191970" stroke="#191970" points="2479.3113,-31.5669 2475.1238,-21.8348 2472.3282,-32.0541 2479.3113,-31.5669"/>
</g>
<!-- Node7 -->
<g id="node8" class="node">
<title>Node7</title>
<polygon fill="#ffffff" stroke="#bfbfbf" points="1521.5,-181 1521.5,-202 1560.5,-202 1560.5,-181 1521.5,-181"/>
<text text-anchor="middle" x="1541" y="-188.4" font-family="Helvetica,sans-Serif" font-size="12.00" fill="#000000">mpi.h</text>
</g>
<!-- Node1&#45;&gt;Node7 -->
<g id="edge7" class="edge">
<title>Node1&#45;&gt;Node7</title>
<path fill="none" stroke="#191970" d="M1617.8081,-245.3491C1603.2922,-235.1723 1581.2014,-219.6847 1564.431,-207.9272"/>
<polygon fill="#191970" stroke="#191970" points="1566.4119,-205.0415 1556.2145,-202.1667 1562.3934,-210.7732 1566.4119,-205.0415"/>
</g>
<!-- Node8 -->
<g id="node9" class="node">
<title>Node8</title>
<polygon fill="#ffffff" stroke="#bfbfbf" points="1473,-.5 1473,-21.5 1559,-21.5 1559,-.5 1473,-.5"/>
<text text-anchor="middle" x="1516" y="-7.9" font-family="Helvetica,sans-Serif" font-size="12.00" fill="#000000">cereal/cereal.hpp</text>
</g>
<!-- Node1&#45;&gt;Node8 -->
<g id="edge8" class="edge">
<title>Node1&#45;&gt;Node8</title>
<path fill="none" stroke="#191970" d="M1563.9181,-248.0823C1515.3015,-240.9226 1456.2802,-228.4718 1441,-209 1418.2393,-179.9956 1427.7617,-127.5986 1467,-58 1473.4475,-46.5638 1483.5595,-36.1824 1492.927,-28.1027"/>
<polygon fill="#191970" stroke="#191970" points="1495.3256,-30.6627 1500.8566,-21.6262 1490.8976,-25.2412 1495.3256,-30.6627"/>
</g>
<!-- Node9 -->
<g id="node10" class="node">
<title>Node9</title>
<polygon fill="#ffffff" stroke="#bfbfbf" points="1988,-.5 1988,-21.5 2098,-21.5 2098,-.5 1988,-.5"/>
<text text-anchor="middle" x="2043" y="-7.9" font-family="Helvetica,sans-Serif" font-size="12.00" fill="#000000">cereal/types/deque.hpp</text>
</g>
<!-- Node1&#45;&gt;Node9 -->
<g id="edge9" class="edge">
<title>Node1&#45;&gt;Node9</title>
<path fill="none" stroke="#191970" d="M1573.9681,-245.4821C1535.6086,-237.3086 1490.643,-224.7266 1479,-209 1469.7441,-196.4978 1469.1576,-186.0458 1479,-174 1529.7937,-111.8354 1578.3976,-158.5503 1656,-138 1723.7258,-120.0652 1918.4731,-53.8044 2003.0253,-24.7755"/>
<polygon fill="#191970" stroke="#191970" points="2004.2156,-28.0674 2012.5356,-21.5078 2001.9409,-21.4473 2004.2156,-28.0674"/>
</g>
<!-- Node10 -->
<g id="node11" class="node">
<title>Node10</title>
<polygon fill="#ffffff" stroke="#bfbfbf" points="2116.5,-.5 2116.5,-21.5 2205.5,-21.5 2205.5,-.5 2116.5,-.5"/>
<text text-anchor="middle" x="2161" y="-7.9" font-family="Helvetica,sans-Serif" font-size="12.00" fill="#000000">cereal/access.hpp</text>
</g>
<!-- Node1&#45;&gt;Node10 -->
<g id="edge10" class="edge">
<title>Node1&#45;&gt;Node10</title>
<path fill="none" stroke="#191970" d="M1592.2246,-245.4928C1560.9164,-236.504 1521.4821,-222.8554 1512,-209 1503.2147,-196.1628 1502.0657,-185.9701 1512,-174 1539.7233,-140.5955 1661.7153,-147.8206 1704,-138 1857.075,-102.4484 2035.8874,-49.3261 2116.9992,-24.586"/>
<polygon fill="#191970" stroke="#191970" points="2118.3211,-27.8419 2126.8608,-21.571 2116.2744,-21.1478 2118.3211,-27.8419"/>
</g>
<!-- Node11 -->
<g id="node12" class="node">
<title>Node11</title>
<polygon fill="#ffffff" stroke="#bfbfbf" points="1578.5,-174.5 1578.5,-208.5 1687.5,-208.5 1687.5,-174.5 1578.5,-174.5"/>
<text text-anchor="start" x="1586.5" y="-194.9" font-family="Helvetica,sans-Serif" font-size="12.00" fill="#000000">cereal/types/unordered</text>
<text text-anchor="middle" x="1633" y="-181.9" font-family="Helvetica,sans-Serif" font-size="12.00" fill="#000000">_map.hpp</text>
</g>
<!-- Node1&#45;&gt;Node11 -->
<g id="edge11" class="edge">
<title>Node1&#45;&gt;Node11</title>
<path fill="none" stroke="#191970" d="M1633,-245.3491C1633,-238.122 1633,-228.2164 1633,-218.8706"/>
<polygon fill="#191970" stroke="#191970" points="1636.5001,-218.7292 1633,-208.7292 1629.5001,-218.7292 1636.5001,-218.7292"/>
</g>
<!-- Node12 -->
<g id="node13" class="node">
<title>Node12</title>
<polygon fill="#ffffff" stroke="#bfbfbf" points="2223.5,-.5 2223.5,-21.5 2336.5,-21.5 2336.5,-.5 2223.5,-.5"/>
<text text-anchor="middle" x="2280" y="-7.9" font-family="Helvetica,sans-Serif" font-size="12.00" fill="#000000">cereal/types/chrono.hpp</text>
</g>
<!-- Node1&#45;&gt;Node12 -->
<g id="edge12" class="edge">
<title>Node1&#45;&gt;Node12</title>
<path fill="none" stroke="#191970" d="M1702.3298,-246.2095C1706.2744,-245.7694 1710.1854,-245.3617 1714,-245 1787.6667,-238.0155 2328.11,-262.7194 2379,-209 2431.4079,-153.6782 2343.2415,-65.2724 2300.8207,-28.22"/>
<polygon fill="#191970" stroke="#191970" points="2302.8724,-25.3689 2293.0017,-21.5193 2298.3173,-30.6842 2302.8724,-25.3689"/>
</g>
<!-- Node13 -->
<g id="node14" class="node">
<title>Node13</title>
<polygon fill="#ffffff" stroke="#bfbfbf" points="1706,-181 1706,-202 1838,-202 1838,-181 1706,-181"/>
<text text-anchor="middle" x="1772" y="-188.4" font-family="Helvetica,sans-Serif" font-size="12.00" fill="#000000">cereal/archives/adapters.hpp</text>
</g>
<!-- Node1&#45;&gt;Node13 -->
<g id="edge13" class="edge">
<title>Node1&#45;&gt;Node13</title>
<path fill="none" stroke="#191970" d="M1655.6421,-245.4934C1678.5619,-234.8579 1714.2082,-218.3171 1740.0085,-206.345"/>
<polygon fill="#191970" stroke="#191970" points="1741.7698,-209.3862 1749.3676,-202.0021 1738.8234,-203.0365 1741.7698,-209.3862"/>
</g>
<!-- Node14 -->
<g id="node15" class="node">
<title>Node14</title>
<polygon fill="#ffffff" stroke="#bfbfbf" points="1856,-181 1856,-202 1978,-202 1978,-181 1856,-181"/>
<text text-anchor="middle" x="1917" y="-188.4" font-family="Helvetica,sans-Serif" font-size="12.00" fill="#000000">cereal/archives/binary.hpp</text>
</g>
<!-- Node1&#45;&gt;Node14 -->
<g id="edge14" class="edge">
<title>Node1&#45;&gt;Node14</title>
<path fill="none" stroke="#191970" d="M1682.8191,-245.4829C1726.2496,-236.2132 1790.8973,-222.1708 1847,-209 1853.0824,-207.5721 1859.4517,-206.0363 1865.7653,-204.4889"/>
<polygon fill="#191970" stroke="#191970" points="1866.7229,-207.8577 1875.5916,-202.0616 1865.0441,-201.062 1866.7229,-207.8577"/>
</g>
<!-- Node15 -->
<g id="node16" class="node">
<title>Node15</title>
<polygon fill="#ffffff" stroke="#bfbfbf" points="1996,-181 1996,-202 2110,-202 2110,-181 1996,-181"/>
<text text-anchor="middle" x="2053" y="-188.4" font-family="Helvetica,sans-Serif" font-size="12.00" fill="#000000">cereal/archives/json.hpp</text>
</g>
<!-- Node1&#45;&gt;Node15 -->
<g id="edge15" class="edge">
<title>Node1&#45;&gt;Node15</title>
<path fill="none" stroke="#191970" d="M1702.3057,-246.8122C1805.116,-233.1808 1986.1293,-209.1725 1987,-209 1993.3338,-207.7451 1999.9601,-206.232 2006.4678,-204.6274"/>
<polygon fill="#191970" stroke="#191970" points="2007.7153,-207.9211 2016.5375,-202.0544 2005.9823,-201.139 2007.7153,-207.9211"/>
</g>
<!-- Node16 -->
<g id="node17" class="node">
<title>Node16</title>
<polygon fill="#ffffff" stroke="#bfbfbf" points="2128,-174.5 2128,-208.5 2240,-208.5 2240,-174.5 2128,-174.5"/>
<text text-anchor="start" x="2136" y="-194.9" font-family="Helvetica,sans-Serif" font-size="12.00" fill="#000000">cereal/archives/portable</text>
<text text-anchor="middle" x="2184" y="-181.9" font-family="Helvetica,sans-Serif" font-size="12.00" fill="#000000">_binary.hpp</text>
</g>
<!-- Node1&#45;&gt;Node16 -->
<g id="edge16" class="edge">
<title>Node1&#45;&gt;Node16</title>
<path fill="none" stroke="#191970" d="M1702.2646,-246.5956C1706.9103,-246.0342 1711.5214,-245.4966 1716,-245 1891.5,-225.5407 1940.2057,-239.952 2117.8283,-209.0351"/>
<polygon fill="#191970" stroke="#191970" points="2118.5251,-212.4663 2127.7649,-207.282 2117.3089,-205.5727 2118.5251,-212.4663"/>
</g>
<!-- Node17 -->
<g id="node18" class="node">
<title>Node17</title>
<polygon fill="#ffffff" stroke="#bfbfbf" points="2258.5,-181 2258.5,-202 2369.5,-202 2369.5,-181 2258.5,-181"/>
<text text-anchor="middle" x="2314" y="-188.4" font-family="Helvetica,sans-Serif" font-size="12.00" fill="#000000">cereal/archives/xml.hpp</text>
</g>
<!-- Node1&#45;&gt;Node17 -->
<g id="edge17" class="edge">
<title>Node1&#45;&gt;Node17</title>
<path fill="none" stroke="#191970" d="M1702.2528,-246.4832C1706.9013,-245.9489 1711.5163,-245.4481 1716,-245 1952.2519,-221.3909 2014.8045,-248.0491 2249,-209 2255.8156,-207.8636 2262.9501,-206.3186 2269.8928,-204.6145"/>
<polygon fill="#191970" stroke="#191970" points="2271.0637,-207.9268 2279.8677,-202.0328 2269.3097,-201.1501 2271.0637,-207.9268"/>
</g>
<!-- Node18 -->
<g id="node19" class="node">
<title>Node18</title>
<g id="a_node19"><a xlink:href="../../db/d19/namespace_8hpp.html" target="_top" xlink:title="timemory/namespace.hpp">
<polygon fill="#ffffff" stroke="#000000" points="691,-.5 691,-21.5 811,-21.5 811,-.5 691,-.5"/>
<text text-anchor="middle" x="751" y="-7.9" font-family="Helvetica,sans-Serif" font-size="12.00" fill="#000000">timemory/namespace.hpp</text>
</a>
</g>
</g>
<!-- Node1&#45;&gt;Node18 -->
<g id="edge18" class="edge">
<title>Node1&#45;&gt;Node18</title>
<path fill="none" stroke="#191970" d="M1563.806,-250.6142C1493.2477,-244.1949 1380.9644,-231.4108 1286,-209 1113.232,-168.2281 1073.4058,-144.4362 908,-80 863.8766,-62.8111 813.9793,-40.3474 782.5134,-25.7977"/>
<polygon fill="#191970" stroke="#191970" points="783.9106,-22.5877 773.3666,-21.551 780.9628,-28.9367 783.9106,-22.5877"/>
</g>
<!-- Node19 -->
<g id="node20" class="node">
<title>Node19</title>
<g id="a_node20"><a xlink:href="../../d1/d4e/utility_8hpp.html" target="_top" xlink:title="timemory/utility.hpp">
<polygon fill="#ffffff" stroke="#000000" points="416,-58.5 416,-79.5 510,-79.5 510,-58.5 416,-58.5"/>
<text text-anchor="middle" x="463" y="-65.9" font-family="Helvetica,sans-Serif" font-size="12.00" fill="#000000">timemory/utility.hpp</text>
</a>
</g>
</g>
<!-- Node1&#45;&gt;Node19 -->
<g id="edge19" class="edge">
<title>Node1&#45;&gt;Node19</title>
<path fill="none" stroke="#191970" d="M1563.7171,-255.1134C1353.1023,-252.084 729.5901,-240.5267 644,-209 573.5065,-183.0341 508.3952,-119.0387 479.1791,-87.3652"/>
<polygon fill="#191970" stroke="#191970" points="481.5381,-84.7562 472.2284,-79.6985 476.3521,-89.4579 481.5381,-84.7562"/>
</g>
<!-- Node31 -->
<g id="node32" class="node">
<title>Node31</title>
<g id="a_node32"><a xlink:href="../../df/d05/timer_8hpp.html" target="_top" xlink:title="timemory/timer.hpp">
<polygon fill="#ffffff" stroke="#000000" points="1295,-181 1295,-202 1389,-202 1389,-181 1295,-181"/>
<text text-anchor="middle" x="1342" y="-188.4" font-family="Helvetica,sans-Serif" font-size="12.00" fill="#000000">timemory/timer.hpp</text>
</a>
</g>
</g>
<!-- Node1&#45;&gt;Node31 -->
<g id="edge34" class="edge">
<title>Node1&#45;&gt;Node31</title>
<path fill="none" stroke="#191970" d="M1575.0635,-245.4543C1528.3871,-236.6479 1461.187,-223.2688 1403,-209 1397.7167,-207.7044 1392.2022,-206.2576 1386.7422,-204.7661"/>
<polygon fill="#191970" stroke="#191970" points="1387.6078,-201.374 1377.035,-202.0561 1385.7256,-208.1162 1387.6078,-201.374"/>
</g>
<!-- Node19&#45;&gt;Node3 -->
<g id="edge30" class="edge">
<title>Node19&#45;&gt;Node3</title>
<path fill="none" stroke="#191970" d="M415.7256,-67.2563C340.2836,-63.683 188.1236,-53.2361 51.8936,-21.7522"/>
<polygon fill="#191970" stroke="#191970" points="52.6499,-18.3347 42.1138,-19.4488 51.0451,-25.1482 52.6499,-18.3347"/>
</g>
<!-- Node19&#45;&gt;Node4 -->
<g id="edge23" class="edge">
<title>Node19&#45;&gt;Node4</title>
<path fill="none" stroke="#191970" d="M502.3069,-58.455C532.9588,-50.0244 576.7635,-37.5247 623.6815,-21.932"/>
<polygon fill="#191970" stroke="#191970" points="625.0518,-25.1641 633.4196,-18.6655 622.8256,-18.5275 625.0518,-25.1641"/>
</g>
<!-- Node19&#45;&gt;Node18 -->
<g id="edge33" class="edge">
<title>Node19&#45;&gt;Node18</title>
<path fill="none" stroke="#191970" d="M510.2348,-59.4874C558.8082,-49.7053 634.7211,-34.4173 688.2998,-23.6271"/>
<polygon fill="#191970" stroke="#191970" points="689.2553,-27.0051 698.3674,-21.5996 687.8732,-20.1428 689.2553,-27.0051"/>
</g>
<!-- Node20 -->
<g id="node21" class="node">
<title>Node20</title>
<polygon fill="#ffffff" stroke="#bfbfbf" points="975.5,-.5 975.5,-21.5 1026.5,-21.5 1026.5,-.5 975.5,-.5"/>
<text text-anchor="middle" x="1001" y="-7.9" font-family="Helvetica,sans-Serif" font-size="12.00" fill="#000000">iostream</text>
</g>
<!-- Node19&#45;&gt;Node20 -->
<g id="edge20" class="edge">
<title>Node19&#45;&gt;Node20</title>
<path fill="none" stroke="#191970" d="M510.2909,-67.9042C598.2927,-65.1484 793.1023,-55.6774 965.1713,-21.7901"/>
<polygon fill="#191970" stroke="#191970" points="966.0475,-25.1842 975.1656,-19.7888 964.673,-18.3205 966.0475,-25.1842"/>
</g>
<!-- Node21 -->
<g id="node22" class="node">
<title>Node21</title>
<polygon fill="#ffffff" stroke="#bfbfbf" points="128,-.5 128,-21.5 170,-21.5 170,-.5 128,-.5"/>
<text text-anchor="middle" x="149" y="-7.9" font-family="Helvetica,sans-Serif" font-size="12.00" fill="#000000">cstdlib</text>
</g>
<!-- Node19&#45;&gt;Node21 -->
<g id="edge21" class="edge">
<title>Node19&#45;&gt;Node21</title>
<path fill="none" stroke="#191970" d="M415.9457,-63.9531C361.1982,-57.4779 268.0689,-44.5975 180.0258,-21.9055"/>
<polygon fill="#191970" stroke="#191970" points="180.7091,-18.4664 170.1481,-19.312 178.9314,-25.2369 180.7091,-18.4664"/>
</g>
<!-- Node22 -->
<g id="node23" class="node">
<title>Node22</title>
<polygon fill="#ffffff" stroke="#bfbfbf" points="188.5,-.5 188.5,-21.5 217.5,-21.5 217.5,-.5 188.5,-.5"/>
<text text-anchor="middle" x="203" y="-7.9" font-family="Helvetica,sans-Serif" font-size="12.00" fill="#000000">set</text>
</g>
<!-- Node19&#45;&gt;Node22 -->
<g id="edge22" class="edge">
<title>Node19&#45;&gt;Node22</title>
<path fill="none" stroke="#191970" d="M415.787,-63.1881C369.4812,-56.7063 296.966,-44.4683 227.6295,-22.0105"/>
<polygon fill="#191970" stroke="#191970" points="228.4634,-18.5996 217.87,-18.7733 226.2596,-25.2436 228.4634,-18.5996"/>
</g>
<!-- Node19&#45;&gt;Node23 -->
<g id="edge24" class="edge">
<title>Node19&#45;&gt;Node23</title>
<path fill="none" stroke="#191970" d="M415.7879,-65.2168C351.0085,-59.4422 230.9046,-46.6479 119.7764,-21.8433"/>
<polygon fill="#191970" stroke="#191970" points="120.2676,-18.3659 109.7408,-19.5645 118.7175,-25.1921 120.2676,-18.3659"/>
</g>
<!-- Node24 -->
<g id="node25" class="node">
<title>Node24</title>
<polygon fill="#ffffff" stroke="#bfbfbf" points="909,-.5 909,-21.5 957,-21.5 957,-.5 909,-.5"/>
<text text-anchor="middle" x="933" y="-7.9" font-family="Helvetica,sans-Serif" font-size="12.00" fill="#000000">iomanip</text>
</g>
<!-- Node19&#45;&gt;Node24 -->
<g id="edge25" class="edge">
<title>Node19&#45;&gt;Node24</title>
<path fill="none" stroke="#191970" d="M510.0936,-67.2453C588.9504,-63.5905 752.6373,-52.9398 898.6213,-21.9329"/>
<polygon fill="#191970" stroke="#191970" points="899.6205,-25.2978 908.6548,-19.7632 898.1409,-18.456 899.6205,-25.2978"/>
</g>
<!-- Node25 -->
<g id="node26" class="node">
<title>Node25</title>
<polygon fill="#ffffff" stroke="#bfbfbf" points="235.5,-.5 235.5,-21.5 278.5,-21.5 278.5,-.5 235.5,-.5"/>
<text text-anchor="middle" x="257" y="-7.9" font-family="Helvetica,sans-Serif" font-size="12.00" fill="#000000">cstring</text>
</g>
<!-- Node19&#45;&gt;Node25 -->
<g id="edge26" class="edge">
<title>Node19&#45;&gt;Node25</title>
<path fill="none" stroke="#191970" d="M419.2866,-58.4965C385.6485,-50.1514 337.8497,-37.7277 288.1744,-22.2058"/>
<polygon fill="#191970" stroke="#191970" points="289.1396,-18.8402 278.5497,-19.1663 287.0315,-25.5153 289.1396,-18.8402"/>
</g>
<!-- Node26 -->
<g id="node27" class="node">
<title>Node26</title>
<polygon fill="#ffffff" stroke="#bfbfbf" points="296.5,-.5 296.5,-21.5 351.5,-21.5 351.5,-.5 296.5,-.5"/>
<text text-anchor="middle" x="324" y="-7.9" font-family="Helvetica,sans-Serif" font-size="12.00" fill="#000000">exception</text>
</g>
<!-- Node19&#45;&gt;Node26 -->
<g id="edge27" class="edge">
<title>Node19&#45;&gt;Node26</title>
<path fill="none" stroke="#191970" d="M437.8281,-58.4966C415.7269,-49.2746 383.3613,-35.7695 358.7866,-25.5153"/>
<polygon fill="#191970" stroke="#191970" points="360.0309,-22.2421 349.4543,-21.6212 357.3353,-28.7022 360.0309,-22.2421"/>
</g>
<!-- Node27 -->
<g id="node28" class="node">
<title>Node27</title>
<polygon fill="#ffffff" stroke="#bfbfbf" points="501.5,-.5 501.5,-21.5 556.5,-21.5 556.5,-.5 501.5,-.5"/>
<text text-anchor="middle" x="529" y="-7.9" font-family="Helvetica,sans-Serif" font-size="12.00" fill="#000000">stdexcept</text>
</g>
<!-- Node19&#45;&gt;Node27 -->
<g id="edge28" class="edge">
<title>Node19&#45;&gt;Node27</title>
<path fill="none" stroke="#191970" d="M475.1054,-58.3619C484.6881,-49.9408 498.2639,-38.0105 509.3926,-28.2308"/>
<polygon fill="#191970" stroke="#191970" points="511.7701,-30.8009 516.9713,-21.5707 507.1492,-25.5427 511.7701,-30.8009"/>
</g>
<!-- Node28 -->
<g id="node29" class="node">
<title>Node28</title>
<polygon fill="#ffffff" stroke="#bfbfbf" points="369.5,-.5 369.5,-21.5 424.5,-21.5 424.5,-.5 369.5,-.5"/>
<text text-anchor="middle" x="397" y="-7.9" font-family="Helvetica,sans-Serif" font-size="12.00" fill="#000000">functional</text>
</g>
<!-- Node19&#45;&gt;Node28 -->
<g id="edge29" class="edge">
<title>Node19&#45;&gt;Node28</title>
<path fill="none" stroke="#191970" d="M450.8946,-58.3619C441.3119,-49.9408 427.7361,-38.0105 416.6074,-28.2308"/>
<polygon fill="#191970" stroke="#191970" points="418.8508,-25.5427 409.0287,-21.5707 414.2299,-30.8009 418.8508,-25.5427"/>
</g>
<!-- Node29 -->
<g id="node30" class="node">
<title>Node29</title>
<polygon fill="#ffffff" stroke="#bfbfbf" points="574.5,-.5 574.5,-21.5 615.5,-21.5 615.5,-.5 574.5,-.5"/>
<text text-anchor="middle" x="595" y="-7.9" font-family="Helvetica,sans-Serif" font-size="12.00" fill="#000000">cmath</text>
</g>
<!-- Node19&#45;&gt;Node29 -->
<g id="edge31" class="edge">
<title>Node19&#45;&gt;Node29</title>
<path fill="none" stroke="#191970" d="M486.9042,-58.4966C508.8443,-48.8563 541.4361,-34.5356 565.0933,-24.1408"/>
<polygon fill="#191970" stroke="#191970" points="566.5643,-27.3175 574.3115,-20.0904 563.7483,-20.9089 566.5643,-27.3175"/>
</g>
<!-- Node30 -->
<g id="node31" class="node">
<title>Node30</title>
<polygon fill="#ffffff" stroke="#bfbfbf" points="442.5,-.5 442.5,-21.5 483.5,-21.5 483.5,-.5 442.5,-.5"/>
<text text-anchor="middle" x="463" y="-7.9" font-family="Helvetica,sans-Serif" font-size="12.00" fill="#000000">vector</text>
</g>
<!-- Node19&#45;&gt;Node30 -->
<g id="edge32" class="edge">
<title>Node19&#45;&gt;Node30</title>
<path fill="none" stroke="#191970" d="M463,-58.3619C463,-50.9219 463,-40.7427 463,-31.7276"/>
<polygon fill="#191970" stroke="#191970" points="466.5001,-31.5706 463,-21.5707 459.5001,-31.5707 466.5001,-31.5706"/>
</g>
<!-- Node31&#45;&gt;Node18 -->
<g id="edge35" class="edge">
<title>Node31&#45;&gt;Node18</title>
<path fill="none" stroke="#191970" d="M1307.2367,-180.8828C1205.5198,-149.817 908.5521,-59.1187 795.4475,-24.5749"/>
<polygon fill="#191970" stroke="#191970" points="796.3058,-21.1775 785.7195,-21.6039 794.2611,-27.8722 796.3058,-21.1775"/>
</g>
<!-- Node32 -->
<g id="node33" class="node">
<title>Node32</title>
<g id="a_node33"><a xlink:href="../../d6/d01/base__timer_8hpp.html" target="_top" xlink:title="timemory/base_timer.hpp">
<polygon fill="#ffffff" stroke="#000000" points="1529,-116.5 1529,-137.5 1647,-137.5 1647,-116.5 1529,-116.5"/>
<text text-anchor="middle" x="1588" y="-123.9" font-family="Helvetica,sans-Serif" font-size="12.00" fill="#000000">timemory/base_timer.hpp</text>
</a>
</g>
</g>
<!-- Node31&#45;&gt;Node32 -->
<g id="edge36" class="edge">
<title>Node31&#45;&gt;Node32</title>
<path fill="none" stroke="#191970" d="M1382.0717,-180.9934C1424.6898,-169.8191 1492.1707,-152.126 1538.1822,-140.062"/>
<polygon fill="#191970" stroke="#191970" points="1539.1602,-143.424 1547.9455,-137.5021 1537.3848,-136.6528 1539.1602,-143.424"/>
</g>
<!-- Node32&#45;&gt;Node4 -->
<g id="edge77" class="edge">
<title>Node32&#45;&gt;Node4</title>
<path fill="none" stroke="#191970" d="M1528.9886,-124.4281C1421.7197,-119.2907 1187.7537,-105.9562 992,-80 856.3044,-62.0073 818.6977,-59.9819 682.7719,-21.8549"/>
<polygon fill="#191970" stroke="#191970" points="683.3872,-18.392 672.8126,-19.0467 681.4874,-25.1293 683.3872,-18.392"/>
</g>
<!-- Node32&#45;&gt;Node8 -->
<g id="edge79" class="edge">
<title>Node32&#45;&gt;Node8</title>
<path fill="none" stroke="#191970" d="M1528.8527,-116.7309C1507.9283,-109.9428 1486.5036,-98.6796 1474,-80 1462.5077,-62.8313 1478.1513,-42.5723 1493.5049,-28.4655"/>
<polygon fill="#191970" stroke="#191970" points="1496.0691,-30.8762 1501.3621,-21.6982 1491.5009,-25.5722 1496.0691,-30.8762"/>
</g>
<!-- Node32&#45;&gt;Node9 -->
<g id="edge83" class="edge">
<title>Node32&#45;&gt;Node9</title>
<path fill="none" stroke="#191970" d="M1628.3613,-116.411C1660.5428,-107.6296 1706.5899,-94.3052 1746,-80 1769.2043,-71.5772 1773.4025,-65.2484 1797,-58 1814.0988,-52.7478 1910.8561,-34.8286 1977.8007,-22.6968"/>
<polygon fill="#191970" stroke="#191970" points="1978.6429,-26.1013 1987.86,-20.8767 1977.3965,-19.2131 1978.6429,-26.1013"/>
</g>
<!-- Node32&#45;&gt;Node10 -->
<g id="edge80" class="edge">
<title>Node32&#45;&gt;Node10</title>
<path fill="none" stroke="#191970" d="M1632.6299,-116.497C1672.5799,-107.0609 1732.7399,-92.7662 1785,-80 1824.1632,-70.4331 1833.4793,-65.9625 1873,-58 1973.0281,-37.8468 2001.6963,-40.3298 2106.2267,-22.0633"/>
<polygon fill="#191970" stroke="#191970" points="2107.0059,-25.4798 2116.2428,-20.2905 2105.7859,-18.587 2107.0059,-25.4798"/>
</g>
<!-- Node32&#45;&gt;Node12 -->
<g id="edge82" class="edge">
<title>Node32&#45;&gt;Node12</title>
<path fill="none" stroke="#191970" d="M1647.2214,-117.1174C1756.7899,-98.8254 1998.8309,-58.3821 2213.407,-22.2666"/>
<polygon fill="#191970" stroke="#191970" points="2214.0004,-25.716 2223.2807,-20.6045 2212.8384,-18.8132 2214.0004,-25.716"/>
</g>
<!-- Node32&#45;&gt;Node18 -->
<g id="edge37" class="edge">
<title>Node32&#45;&gt;Node18</title>
<path fill="none" stroke="#191970" d="M1528.9271,-122.3371C1441.978,-115.1482 1274.5292,-100.0624 1133,-80 1019.2453,-63.8747 887.5894,-38.6263 812.3227,-23.557"/>
<polygon fill="#191970" stroke="#191970" points="812.5777,-20.0384 802.0842,-21.5003 811.199,-26.9013 812.5777,-20.0384"/>
</g>
<!-- Node33 -->
<g id="node34" class="node">
<title>Node33</title>
<g id="a_node34"><a xlink:href="../../d8/d4e/base__clock_8hpp.html" target="_top" xlink:title="timemory/base_clock.hpp">
<polygon fill="#ffffff" stroke="#000000" points="1142.5,-58.5 1142.5,-79.5 1261.5,-79.5 1261.5,-58.5 1142.5,-58.5"/>
<text text-anchor="middle" x="1202" y="-65.9" font-family="Helvetica,sans-Serif" font-size="12.00" fill="#000000">timemory/base_clock.hpp</text>
</a>
</g>
</g>
<!-- Node32&#45;&gt;Node33 -->
<g id="edge38" class="edge">
<title>Node32&#45;&gt;Node33</title>
<path fill="none" stroke="#191970" d="M1528.9547,-118.1279C1459.7701,-107.7323 1345.2694,-90.5275 1271.7643,-79.4827"/>
<polygon fill="#191970" stroke="#191970" points="1272.0826,-75.9913 1261.6735,-77.9665 1271.0424,-82.9136 1272.0826,-75.9913"/>
</g>
<!-- Node42 -->
<g id="node43" class="node">
<title>Node42</title>
<g id="a_node43"><a xlink:href="../../d9/dd2/rss_8hpp.html" target="_top" xlink:title="timemory/rss.hpp">
<polygon fill="#ffffff" stroke="#000000" points="1545,-58.5 1545,-79.5 1631,-79.5 1631,-58.5 1545,-58.5"/>
<text text-anchor="middle" x="1588" y="-65.9" font-family="Helvetica,sans-Serif" font-size="12.00" fill="#000000">timemory/rss.hpp</text>
</a>
</g>
</g>
<!-- Node32&#45;&gt;Node42 -->
<g id="edge60" class="edge">
<title>Node32&#45;&gt;Node42</title>
<path fill="none" stroke="#191970" d="M1588,-116.3619C1588,-108.9219 1588,-98.7427 1588,-89.7276"/>
<polygon fill="#191970" stroke="#191970" points="1591.5001,-89.5706 1588,-79.5707 1584.5001,-89.5707 1591.5001,-89.5706"/>
</g>
<!-- Node44 -->
<g id="node45" class="node">
<title>Node44</title>
<polygon fill="#ffffff" stroke="#bfbfbf" points="1685.5,-.5 1685.5,-21.5 1732.5,-21.5 1732.5,-.5 1685.5,-.5"/>
<text text-anchor="middle" x="1709" y="-7.9" font-family="Helvetica,sans-Serif" font-size="12.00" fill="#000000">fstream</text>
</g>
<!-- Node32&#45;&gt;Node44 -->
<g id="edge76" class="edge">
<title>Node32&#45;&gt;Node44</title>
<path fill="none" stroke="#191970" d="M1600.1362,-116.3422C1610.7764,-106.9247 1626.595,-92.745 1640,-80 1657.8178,-63.0594 1677.6085,-43.1513 1691.4091,-29.0845"/>
<polygon fill="#191970" stroke="#191970" points="1693.9198,-31.5231 1698.4093,-21.9265 1688.9151,-26.6289 1693.9198,-31.5231"/>
</g>
<!-- Node46 -->
<g id="node47" class="node">
<title>Node46</title>
<polygon fill="#ffffff" stroke="#bfbfbf" points="1750.5,-.5 1750.5,-21.5 1841.5,-21.5 1841.5,-.5 1750.5,-.5"/>
<text text-anchor="middle" x="1796" y="-7.9" font-family="Helvetica,sans-Serif" font-size="12.00" fill="#000000">cereal/macros.hpp</text>
</g>
<!-- Node32&#45;&gt;Node46 -->
<g id="edge81" class="edge">
<title>Node32&#45;&gt;Node46</title>
<path fill="none" stroke="#191970" d="M1607.1953,-116.2949C1644.2051,-95.6548 1725.5494,-50.2898 1768.3785,-26.4043"/>
<polygon fill="#191970" stroke="#191970" points="1770.1226,-29.4392 1777.1515,-21.5117 1766.7131,-23.3256 1770.1226,-29.4392"/>
</g>
<!-- Node47 -->
<g id="node48" class="node">
<title>Node47</title>
<polygon fill="#ffffff" stroke="#bfbfbf" points="1860,-.5 1860,-21.5 1970,-21.5 1970,-.5 1860,-.5"/>
<text text-anchor="middle" x="1915" y="-7.9" font-family="Helvetica,sans-Serif" font-size="12.00" fill="#000000">cereal/types/vector.hpp</text>
</g>
<!-- Node32&#45;&gt;Node47 -->
<g id="edge84" class="edge">
<title>Node32&#45;&gt;Node47</title>
<path fill="none" stroke="#191970" d="M1614.7569,-116.4696C1638.7023,-107.0155 1674.747,-92.7098 1706,-80 1729.6254,-70.3921 1734.9817,-66.5784 1759,-58 1794.5739,-45.2943 1835.4857,-33.0545 1866.4852,-24.2521"/>
<polygon fill="#191970" stroke="#191970" points="1867.5069,-27.6006 1876.1823,-21.5188 1865.6078,-20.8631 1867.5069,-27.6006"/>
</g>
<!-- Node48 -->
<g id="node49" class="node">
<title>Node48</title>
<polygon fill="#ffffff" stroke="#bfbfbf" points="1483.5,-58.5 1483.5,-79.5 1526.5,-79.5 1526.5,-58.5 1483.5,-58.5"/>
<text text-anchor="middle" x="1505" y="-65.9" font-family="Helvetica,sans-Serif" font-size="12.00" fill="#000000">atomic</text>
</g>
<!-- Node32&#45;&gt;Node48 -->
<g id="edge78" class="edge">
<title>Node32&#45;&gt;Node48</title>
<path fill="none" stroke="#191970" d="M1572.7765,-116.3619C1560.3746,-107.6955 1542.6542,-95.3126 1528.443,-85.3819"/>
<polygon fill="#191970" stroke="#191970" points="1530.3288,-82.4297 1520.127,-79.5707 1526.3191,-88.1676 1530.3288,-82.4297"/>
</g>
<!-- Node33&#45;&gt;Node2 -->
<g id="edge47" class="edge">
<title>Node33&#45;&gt;Node2</title>
<path fill="none" stroke="#191970" d="M1261.504,-66.5908C1482.3796,-57.644 2247.16,-26.6275 2344.9092,-21.267"/>
<polygon fill="#191970" stroke="#191970" points="2345.2482,-24.7522 2354.9938,-20.5962 2344.7836,-17.7677 2345.2482,-24.7522"/>
</g>
<!-- Node33&#45;&gt;Node6 -->
<g id="edge46" class="edge">
<title>Node33&#45;&gt;Node6</title>
<path fill="none" stroke="#191970" d="M1261.6924,-66.5289C1316.7999,-64.2612 1400.9188,-60.8339 1474,-58 1686.3846,-49.7643 2216.5212,-63.2365 2443.3469,-21.4534"/>
<polygon fill="#191970" stroke="#191970" points="2444.0977,-24.8733 2453.2598,-19.5531 2442.7797,-17.9985 2444.0977,-24.8733"/>
</g>
<!-- Node33&#45;&gt;Node8 -->
<g id="edge55" class="edge">
<title>Node33&#45;&gt;Node8</title>
<path fill="none" stroke="#191970" d="M1261.6702,-58.8376C1312.5534,-50.0483 1387.9056,-36.7421 1462.807,-22.1934"/>
<polygon fill="#191970" stroke="#191970" points="1463.7458,-25.5764 1472.8907,-20.2266 1462.4056,-18.7058 1463.7458,-25.5764"/>
</g>
<!-- Node33&#45;&gt;Node9 -->
<g id="edge57" class="edge">
<title>Node33&#45;&gt;Node9</title>
<path fill="none" stroke="#191970" d="M1261.5148,-66.2489C1414.7779,-59.0312 1821.3243,-39.0105 1977.5325,-22.0313"/>
<polygon fill="#191970" stroke="#191970" points="1978.3512,-25.4614 1987.8975,-20.8659 1977.569,-18.5053 1978.3512,-25.4614"/>
</g>
<!-- Node33&#45;&gt;Node10 -->
<g id="edge58" class="edge">
<title>Node33&#45;&gt;Node10</title>
<path fill="none" stroke="#191970" d="M1261.6589,-66.4194C1444.0036,-58.4621 1988.2088,-34.172 2106.2317,-21.7999"/>
<polygon fill="#191970" stroke="#191970" points="2106.7625,-25.2619 2116.2963,-20.6407 2105.9615,-18.3079 2106.7625,-25.2619"/>
</g>
<!-- Node33&#45;&gt;Node12 -->
<g id="edge56" class="edge">
<title>Node33&#45;&gt;Node12</title>
<path fill="none" stroke="#191970" d="M1261.6982,-66.4307C1463.2498,-57.7314 2111.2443,-29.5495 2213.3131,-21.8744"/>
<polygon fill="#191970" stroke="#191970" points="2213.6757,-25.3562 2223.3359,-21.0053 2213.0709,-18.3824 2213.6757,-25.3562"/>
</g>
<!-- Node33&#45;&gt;Node18 -->
<g id="edge59" class="edge">
<title>Node33&#45;&gt;Node18</title>
<path fill="none" stroke="#191970" d="M1142.3628,-62.3294C1069.1802,-53.9947 941.0486,-38.9196 821.2722,-22.144"/>
<polygon fill="#191970" stroke="#191970" points="821.582,-18.6532 811.1917,-20.7253 820.6063,-25.5849 821.582,-18.6532"/>
</g>
<!-- Node33&#45;&gt;Node20 -->
<g id="edge41" class="edge">
<title>Node33&#45;&gt;Node20</title>
<path fill="none" stroke="#191970" d="M1163.669,-58.4823C1132.0064,-49.7193 1085.6588,-36.721 1036.189,-22.0015"/>
<polygon fill="#191970" stroke="#191970" points="1037.1717,-18.6423 1026.5883,-19.1348 1035.1688,-25.3497 1037.1717,-18.6423"/>
</g>
<!-- Node33&#45;&gt;Node23 -->
<g id="edge43" class="edge">
<title>Node33&#45;&gt;Node23</title>
<path fill="none" stroke="#191970" d="M1142.1964,-68.5214C948.2753,-66.6431 337.3783,-58.0807 119.748,-21.5959"/>
<polygon fill="#191970" stroke="#191970" points="120.1384,-18.1111 109.6851,-19.8373 118.9333,-25.0066 120.1384,-18.1111"/>
</g>
<!-- Node33&#45;&gt;Node24 -->
<g id="edge42" class="edge">
<title>Node33&#45;&gt;Node24</title>
<path fill="none" stroke="#191970" d="M1142.3651,-59.2536C1096.709,-51.3072 1032.0497,-39.0121 967.055,-22.0509"/>
<polygon fill="#191970" stroke="#191970" points="967.6081,-18.5768 957.0454,-19.4018 965.8171,-25.3439 967.6081,-18.5768"/>
</g>
<!-- Node33&#45;&gt;Node27 -->
<g id="edge44" class="edge">
<title>Node33&#45;&gt;Node27</title>
<path fill="none" stroke="#191970" d="M1142.3587,-66.3002C1009.722,-60.0281 692.7154,-43.4871 566.9041,-21.9758"/>
<polygon fill="#191970" stroke="#191970" points="567.2169,-18.4759 556.7551,-20.1499 565.9774,-25.3653 567.2169,-18.4759"/>
</g>
<!-- Node33&#45;&gt;Node29 -->
<g id="edge48" class="edge">
<title>Node33&#45;&gt;Node29</title>
<path fill="none" stroke="#191970" d="M1142.3725,-66.2793C1019.1457,-60.3202 739.1119,-44.9542 625.8073,-21.8368"/>
<polygon fill="#191970" stroke="#191970" points="626.2069,-18.3424 615.693,-19.6491 624.727,-25.1842 626.2069,-18.3424"/>
</g>
<!-- Node33&#45;&gt;Node30 -->
<g id="edge45" class="edge">
<title>Node33&#45;&gt;Node30</title>
<path fill="none" stroke="#191970" d="M1142.3444,-67.3207C998.3322,-62.9112 633.8059,-49.5398 493.7689,-21.7981"/>
<polygon fill="#191970" stroke="#191970" points="494.1892,-18.3103 483.6843,-19.6883 492.7557,-25.162 494.1892,-18.3103"/>
</g>
<!-- Node34 -->
<g id="node35" class="node">
<title>Node34</title>
<polygon fill="#ffffff" stroke="#bfbfbf" points="1407,-.5 1407,-21.5 1455,-21.5 1455,-.5 1407,-.5"/>
<text text-anchor="middle" x="1431" y="-7.9" font-family="Helvetica,sans-Serif" font-size="12.00" fill="#000000">unistd.h</text>
</g>
<!-- Node33&#45;&gt;Node34 -->
<g id="edge39" class="edge">
<title>Node33&#45;&gt;Node34</title>
<path fill="none" stroke="#191970" d="M1250.3477,-58.4278C1289.97,-49.505 1347.3935,-35.9808 1397,-22 1397.1008,-21.9716 1397.2017,-21.9431 1397.3027,-21.9145"/>
<polygon fill="#191970" stroke="#191970" points="1398.3434,-25.2565 1406.9232,-19.0407 1396.3398,-18.5494 1398.3434,-25.2565"/>
</g>
<!-- Node35 -->
<g id="node36" class="node">
<title>Node35</title>
<polygon fill="#ffffff" stroke="#bfbfbf" points="829,-.5 829,-21.5 891,-21.5 891,-.5 829,-.5"/>
<text text-anchor="middle" x="860" y="-7.9" font-family="Helvetica,sans-Serif" font-size="12.00" fill="#000000">sys/times.h</text>
</g>
<!-- Node33&#45;&gt;Node35 -->
<g id="edge40" class="edge">
<title>Node33&#45;&gt;Node35</title>
<path fill="none" stroke="#191970" d="M1142.3236,-61.7546C1083.3481,-54.1346 990.4137,-40.8963 901.3568,-22.1221"/>
<polygon fill="#191970" stroke="#191970" points="901.87,-18.6528 891.3596,-19.9873 900.4082,-25.4985 901.87,-18.6528"/>
</g>
<!-- Node36 -->
<g id="node37" class="node">
<title>Node36</title>
<polygon fill="#ffffff" stroke="#bfbfbf" points="1045,-.5 1045,-21.5 1081,-21.5 1081,-.5 1045,-.5"/>
<text text-anchor="middle" x="1063" y="-7.9" font-family="Helvetica,sans-Serif" font-size="12.00" fill="#000000">tuple</text>
</g>
<!-- Node33&#45;&gt;Node36 -->
<g id="edge49" class="edge">
<title>Node33&#45;&gt;Node36</title>
<path fill="none" stroke="#191970" d="M1176.8281,-58.4966C1152.5168,-48.3523 1115.7855,-33.0256 1090.666,-22.5441"/>
<polygon fill="#191970" stroke="#191970" points="1091.9093,-19.2704 1081.3327,-18.6496 1089.2136,-25.7306 1091.9093,-19.2704"/>
</g>
<!-- Node37 -->
<g id="node38" class="node">
<title>Node37</title>
<polygon fill="#ffffff" stroke="#bfbfbf" points="1099,-.5 1099,-21.5 1133,-21.5 1133,-.5 1099,-.5"/>
<text text-anchor="middle" x="1116" y="-7.9" font-family="Helvetica,sans-Serif" font-size="12.00" fill="#000000">ratio</text>
</g>
<!-- Node33&#45;&gt;Node37 -->
<g id="edge50" class="edge">
<title>Node33&#45;&gt;Node37</title>
<path fill="none" stroke="#191970" d="M1186.2263,-58.3619C1173.3761,-49.6955 1155.0152,-37.3126 1140.2903,-27.3819"/>
<polygon fill="#191970" stroke="#191970" points="1141.9215,-24.2604 1131.6737,-21.5707 1138.0075,-30.0639 1141.9215,-24.2604"/>
</g>
<!-- Node38 -->
<g id="node39" class="node">
<title>Node38</title>
<polygon fill="#ffffff" stroke="#bfbfbf" points="1151,-.5 1151,-21.5 1195,-21.5 1195,-.5 1151,-.5"/>
<text text-anchor="middle" x="1173" y="-7.9" font-family="Helvetica,sans-Serif" font-size="12.00" fill="#000000">chrono</text>
</g>
<!-- Node33&#45;&gt;Node38 -->
<g id="edge51" class="edge">
<title>Node33&#45;&gt;Node38</title>
<path fill="none" stroke="#191970" d="M1196.681,-58.3619C1192.7974,-50.5949 1187.4213,-39.8426 1182.7729,-30.5458"/>
<polygon fill="#191970" stroke="#191970" points="1185.888,-28.9497 1178.2853,-21.5707 1179.627,-32.0802 1185.888,-28.9497"/>
</g>
<!-- Node39 -->
<g id="node40" class="node">
<title>Node39</title>
<polygon fill="#ffffff" stroke="#bfbfbf" points="1213,-.5 1213,-21.5 1251,-21.5 1251,-.5 1213,-.5"/>
<text text-anchor="middle" x="1232" y="-7.9" font-family="Helvetica,sans-Serif" font-size="12.00" fill="#000000">ctime</text>
</g>
<!-- Node33&#45;&gt;Node39 -->
<g id="edge52" class="edge">
<title>Node33&#45;&gt;Node39</title>
<path fill="none" stroke="#191970" d="M1207.5025,-58.3619C1211.5199,-50.5949 1217.0814,-39.8426 1221.8901,-30.5458"/>
<polygon fill="#191970" stroke="#191970" points="1225.0469,-32.0608 1226.5324,-21.5707 1218.8294,-28.8448 1225.0469,-32.0608"/>
</g>
<!-- Node40 -->
<g id="node41" class="node">
<title>Node40</title>
<polygon fill="#ffffff" stroke="#bfbfbf" points="1345.5,-.5 1345.5,-21.5 1388.5,-21.5 1388.5,-.5 1345.5,-.5"/>
<text text-anchor="middle" x="1367" y="-7.9" font-family="Helvetica,sans-Serif" font-size="12.00" fill="#000000">cstdint</text>
</g>
<!-- Node33&#45;&gt;Node40 -->
<g id="edge53" class="edge">
<title>Node33&#45;&gt;Node40</title>
<path fill="none" stroke="#191970" d="M1232.08,-58.4846C1257.3351,-49.6482 1294.6064,-36.5895 1335.8909,-22.0308"/>
<polygon fill="#191970" stroke="#191970" points="1337.0575,-25.3307 1345.3234,-18.703 1334.7286,-18.7295 1337.0575,-25.3307"/>
</g>
<!-- Node41 -->
<g id="node42" class="node">
<title>Node41</title>
<polygon fill="#ffffff" stroke="#bfbfbf" points="1269,-.5 1269,-21.5 1327,-21.5 1327,-.5 1269,-.5"/>
<text text-anchor="middle" x="1298" y="-7.9" font-family="Helvetica,sans-Serif" font-size="12.00" fill="#000000">type_traits</text>
</g>
<!-- Node33&#45;&gt;Node41 -->
<g id="edge54" class="edge">
<title>Node33&#45;&gt;Node41</title>
<path fill="none" stroke="#191970" d="M1219.6079,-58.3619C1234.2229,-49.532 1255.2238,-36.844 1271.8112,-26.8224"/>
<polygon fill="#191970" stroke="#191970" points="1273.7545,-29.7376 1280.5037,-21.5707 1270.1347,-23.7461 1273.7545,-29.7376"/>
</g>
<!-- Node42&#45;&gt;Node4 -->
<g id="edge65" class="edge">
<title>Node42&#45;&gt;Node4</title>
<path fill="none" stroke="#191970" d="M1544.9989,-59.4658C1541.6264,-58.9047 1538.2641,-58.4049 1535,-58 1161.7469,-11.7014 1055.5678,-96.7444 682.7002,-21.4757"/>
<polygon fill="#191970" stroke="#191970" points="683.2166,-18.009 672.7183,-19.4355 681.8148,-24.8672 683.2166,-18.009"/>
</g>
<!-- Node42&#45;&gt;Node8 -->
<g id="edge69" class="edge">
<title>Node42&#45;&gt;Node8</title>
<path fill="none" stroke="#191970" d="M1574.7941,-58.3619C1564.2388,-49.859 1549.2423,-37.7785 1537.0371,-27.9466"/>
<polygon fill="#191970" stroke="#191970" points="1539.1054,-25.1183 1529.1222,-21.5707 1534.7141,-30.5696 1539.1054,-25.1183"/>
</g>
<!-- Node42&#45;&gt;Node9 -->
<g id="edge73" class="edge">
<title>Node42&#45;&gt;Node9</title>
<path fill="none" stroke="#191970" d="M1631.1988,-64.5296C1701.6134,-57.085 1845.7352,-41.1906 1977.9666,-22.097"/>
<polygon fill="#191970" stroke="#191970" points="1978.4776,-25.5595 1987.8702,-20.6576 1977.4707,-18.6323 1978.4776,-25.5595"/>
</g>
<!-- Node42&#45;&gt;Node10 -->
<g id="edge70" class="edge">
<title>Node42&#45;&gt;Node10</title>
<path fill="none" stroke="#191970" d="M1631.2515,-66.7056C1718.9167,-61.7051 1923.9653,-48.2322 2106.241,-21.9695"/>
<polygon fill="#191970" stroke="#191970" points="2106.8873,-25.4124 2116.278,-20.5068 2105.8778,-18.4855 2106.8873,-25.4124"/>
</g>
<!-- Node42&#45;&gt;Node12 -->
<g id="edge72" class="edge">
<title>Node42&#45;&gt;Node12</title>
<path fill="none" stroke="#191970" d="M1631.0852,-67.1507C1731.437,-62.5471 1988.7031,-49.037 2213.3292,-22.119"/>
<polygon fill="#191970" stroke="#191970" points="2213.8178,-25.5855 2223.3249,-20.9096 2212.9769,-18.6362 2213.8178,-25.5855"/>
</g>
<!-- Node42&#45;&gt;Node18 -->
<g id="edge75" class="edge">
<title>Node42&#45;&gt;Node18</title>
<path fill="none" stroke="#191970" d="M1544.9952,-59.4955C1541.6235,-58.9276 1538.2624,-58.4181 1535,-58 1222.7916,-17.9844 1138.2635,-54.2964 821.56,-22.0567"/>
<polygon fill="#191970" stroke="#191970" points="821.467,-18.5285 811.1602,-20.982 820.7474,-25.4915 821.467,-18.5285"/>
</g>
<!-- Node42&#45;&gt;Node20 -->
<g id="edge63" class="edge">
<title>Node42&#45;&gt;Node20</title>
<path fill="none" stroke="#191970" d="M1544.9846,-59.5746C1541.6153,-58.9887 1538.2577,-58.4535 1535,-58 1317.9959,-27.7887 1256.2275,-62.5663 1036.7175,-21.7238"/>
<polygon fill="#191970" stroke="#191970" points="1037.2984,-18.2717 1026.8221,-19.8517 1035.9971,-25.1497 1037.2984,-18.2717"/>
</g>
<!-- Node42&#45;&gt;Node24 -->
<g id="edge66" class="edge">
<title>Node42&#45;&gt;Node24</title>
<path fill="none" stroke="#191970" d="M1544.989,-59.5424C1541.6187,-58.9638 1538.2597,-58.4391 1535,-58 1287.1848,-24.6145 1216.5708,-69.2628 967.4026,-21.8372"/>
<polygon fill="#191970" stroke="#191970" points="967.8025,-18.3498 957.3197,-19.8867 966.4729,-25.2223 967.8025,-18.3498"/>
</g>
<!-- Node42&#45;&gt;Node34 -->
<g id="edge61" class="edge">
<title>Node42&#45;&gt;Node34</title>
<path fill="none" stroke="#191970" d="M1559.5685,-58.4966C1532.8511,-48.6265 1492.8534,-33.8503 1464.5772,-23.4043"/>
<polygon fill="#191970" stroke="#191970" points="1465.6987,-20.0875 1455.1055,-19.9052 1463.2729,-26.6538 1465.6987,-20.0875"/>
</g>
<!-- Node42&#45;&gt;Node40 -->
<g id="edge68" class="edge">
<title>Node42&#45;&gt;Node40</title>
<path fill="none" stroke="#191970" d="M1544.6597,-59.5592C1508.0523,-51.2987 1454.0943,-38.4547 1398.2909,-21.8807"/>
<polygon fill="#191970" stroke="#191970" points="1399.1747,-18.4918 1388.5905,-18.967 1397.1609,-25.1959 1399.1747,-18.4918"/>
</g>
<!-- Node43 -->
<g id="node44" class="node">
<title>Node43</title>
<polygon fill="#ffffff" stroke="#bfbfbf" points="1638.5,-.5 1638.5,-21.5 1667.5,-21.5 1667.5,-.5 1638.5,-.5"/>
<text text-anchor="middle" x="1653" y="-7.9" font-family="Helvetica,sans-Serif" font-size="12.00" fill="#000000">ios</text>
</g>
<!-- Node42&#45;&gt;Node43 -->
<g id="edge62" class="edge">
<title>Node42&#45;&gt;Node43</title>
<path fill="none" stroke="#191970" d="M1599.922,-58.3619C1609.3595,-49.9408 1622.7296,-38.0105 1633.6896,-28.2308"/>
<polygon fill="#191970" stroke="#191970" points="1636.0224,-30.8401 1641.1536,-21.5707 1631.3619,-25.6171 1636.0224,-30.8401"/>
</g>
<!-- Node42&#45;&gt;Node44 -->
<g id="edge64" class="edge">
<title>Node42&#45;&gt;Node44</title>
<path fill="none" stroke="#191970" d="M1609.9122,-58.4966C1628.8108,-49.4378 1656.3312,-36.2462 1677.576,-26.0628"/>
<polygon fill="#191970" stroke="#191970" points="1679.3373,-29.0999 1686.8419,-21.6212 1676.3115,-22.7876 1679.3373,-29.0999"/>
</g>
<!-- Node45 -->
<g id="node46" class="node">
<title>Node45</title>
<polygon fill="#ffffff" stroke="#bfbfbf" points="1577.5,-.5 1577.5,-21.5 1620.5,-21.5 1620.5,-.5 1577.5,-.5"/>
<text text-anchor="middle" x="1599" y="-7.9" font-family="Helvetica,sans-Serif" font-size="12.00" fill="#000000">stdio.h</text>
</g>
<!-- Node42&#45;&gt;Node45 -->
<g id="edge67" class="edge">
<title>Node42&#45;&gt;Node45</title>
<path fill="none" stroke="#191970" d="M1590.0176,-58.3619C1591.4441,-50.8401 1593.4016,-40.5187 1595.1252,-31.4308"/>
<polygon fill="#191970" stroke="#191970" points="1598.5705,-32.0477 1596.9952,-21.5707 1591.6931,-30.7433 1598.5705,-32.0477"/>
</g>
<!-- Node42&#45;&gt;Node46 -->
<g id="edge71" class="edge">
<title>Node42&#45;&gt;Node46</title>
<path fill="none" stroke="#191970" d="M1625.6672,-58.4966C1660.0172,-48.9183 1710.9367,-34.7196 1748.1536,-24.3418"/>
<polygon fill="#191970" stroke="#191970" points="1749.5697,-27.5805 1758.2621,-21.5231 1747.6895,-20.8377 1749.5697,-27.5805"/>
</g>
<!-- Node42&#45;&gt;Node47 -->
<g id="edge74" class="edge">
<title>Node42&#45;&gt;Node47</title>
<path fill="none" stroke="#191970" d="M1631.0858,-61.3579C1686.892,-51.4595 1784.6961,-34.112 1849.6647,-22.5885"/>
<polygon fill="#191970" stroke="#191970" points="1850.5633,-25.9838 1859.7984,-20.7911 1849.3408,-19.0914 1850.5633,-25.9838"/>
</g>
</g>
</svg>
