<?xml version="1.0" encoding="UTF-8" standalone="no"?>
<!DOCTYPE svg PUBLIC "-//W3C//DTD SVG 1.1//EN"
 "http://www.w3.org/Graphics/SVG/1.1/DTD/svg11.dtd">
<!-- Generated by graphviz version 2.40.1 (20161225.0304)
 -->
<!-- Title: NAME_TIM::time_units&lt; std::ratio&lt; 60 &gt; &gt; Pages: 1 -->
<svg width="117pt" height="211pt"
 viewBox="0.00 0.00 117.00 211.00" xmlns="http://www.w3.org/2000/svg" xmlns:xlink="http://www.w3.org/1999/xlink">
<g id="graph0" class="graph" transform="scale(1 1) rotate(0) translate(4 207)">
<title>NAME_TIM::time_units&lt; std::ratio&lt; 60 &gt; &gt;</title>
<polygon fill="#ffffff" stroke="transparent" points="-4,4 -4,-207 113,-207 113,4 -4,4"/>
<!-- Node1 -->
<g id="node1" class="node">
<title>Node1</title>
<polygon fill="#bfbfbf" stroke="#000000" points="0,-.5 0,-76.5 109,-76.5 109,-.5 0,-.5"/>
<text text-anchor="start" x="8" y="-62.9" font-family="Helvetica,sans-Serif" font-size="12.00" fill="#000000">NAME_TIM::time_units</text>
<text text-anchor="middle" x="54.5" y="-49.9" font-family="Helvetica,sans-Serif" font-size="12.00" fill="#000000">&lt; std::ratio&lt; 60 &gt; &gt;</text>
<polyline fill="none" stroke="#000000" points="0,-42.5 109,-42.5 "/>
<text text-anchor="middle" x="54.5" y="-28.9" font-family="Helvetica,sans-Serif" font-size="12.00" fill="#000000"> </text>
<polyline fill="none" stroke="#000000" points="0,-21.5 109,-21.5 "/>
<text text-anchor="middle" x="54.5" y="-7.9" font-family="Helvetica,sans-Serif" font-size="12.00" fill="#000000"> </text>
</g>
<!-- Node2 -->
<g id="node2" class="node">
<title>Node2</title>
<polygon fill="#ffffff" stroke="#bfbfbf" points="3,-126.5 3,-202.5 106,-202.5 106,-126.5 3,-126.5"/>
<text text-anchor="start" x="11" y="-188.9" font-family="Helvetica,sans-Serif" font-size="12.00" fill="#000000">static constexpr const</text>
<text text-anchor="middle" x="54.5" y="-175.9" font-family="Helvetica,sans-Serif" font-size="12.00" fill="#000000"> char *</text>
<polyline fill="none" stroke="#bfbfbf" points="3,-168.5 106,-168.5 "/>
<text text-anchor="middle" x="54.5" y="-154.9" font-family="Helvetica,sans-Serif" font-size="12.00" fill="#000000"> </text>
<polyline fill="none" stroke="#bfbfbf" points="3,-147.5 106,-147.5 "/>
<text text-anchor="middle" x="54.5" y="-133.9" font-family="Helvetica,sans-Serif" font-size="12.00" fill="#000000"> </text>
</g>
<!-- Node2&#45;&gt;Node1 -->
<g id="edge1" class="edge">
<title>Node2&#45;&gt;Node1</title>
<path fill="none" stroke="#404040" d="M54.5,-126.3539C54.5,-114.5113 54.5,-101.2733 54.5,-88.7388"/>
<polygon fill="none" stroke="#404040" points="54.5001,-88.5164 50.5,-82.5165 54.5,-76.5164 58.5,-82.5164 54.5001,-88.5164"/>
<text text-anchor="middle" x="63.5" y="-98.4" font-family="Helvetica,sans-Serif" font-size="12.00" fill="#000000"> +str</text>
</g>
</g>
</svg>
