<?xml version="1.0" encoding="UTF-8" standalone="no"?>
<!DOCTYPE svg PUBLIC "-//W3C//DTD SVG 1.1//EN"
 "http://www.w3.org/Graphics/SVG/1.1/DTD/svg11.dtd">
<!-- Generated by graphviz version 2.40.1 (20161225.0304)
 -->
<!-- Title: timemory/rss.hpp Pages: 1 -->
<svg width="713pt" height="333pt"
 viewBox="0.00 0.00 712.50 333.00" xmlns="http://www.w3.org/2000/svg" xmlns:xlink="http://www.w3.org/1999/xlink">
<g id="graph0" class="graph" transform="scale(1 1) rotate(0) translate(4 329)">
<title>timemory/rss.hpp</title>
<polygon fill="#ffffff" stroke="transparent" points="-4,4 -4,-329 708.5,-329 708.5,4 -4,4"/>
<!-- Node16 -->
<g id="node1" class="node">
<title>Node16</title>
<polygon fill="#bfbfbf" stroke="#000000" points="0,-303.5 0,-324.5 86,-324.5 86,-303.5 0,-303.5"/>
<text text-anchor="middle" x="43" y="-310.9" font-family="Helvetica,sans-Serif" font-size="12.00" fill="#000000">timemory/rss.hpp</text>
</g>
<!-- Node17 -->
<g id="node2" class="node">
<title>Node17</title>
<g id="a_node2"><a xlink:href="../../d6/d01/base__timer_8hpp.html" target="_top" xlink:title="timemory/base_timer.hpp">
<polygon fill="#ffffff" stroke="#000000" points="28,-245.5 28,-266.5 146,-266.5 146,-245.5 28,-245.5"/>
<text text-anchor="middle" x="87" y="-252.9" font-family="Helvetica,sans-Serif" font-size="12.00" fill="#000000">timemory/base_timer.hpp</text>
</a>
</g>
</g>
<!-- Node16&#45;&gt;Node17 -->
<g id="edge1" class="edge">
<title>Node16&#45;&gt;Node17</title>
<path fill="none" stroke="#191970" d="M57.2238,-295.2504C64.4311,-285.75 72.9161,-274.5651 78.9809,-266.5707"/>
<polygon fill="#191970" stroke="#191970" points="54.3258,-293.2796 51.0703,-303.3619 59.9026,-297.5103 54.3258,-293.2796"/>
</g>
<!-- Node27 -->
<g id="node12" class="node">
<title>Node27</title>
<g id="a_node12"><a xlink:href="../../d2/dfd/timemory_8cc.html" target="_top" xlink:title="timemory.cc">
<polygon fill="#ffffff" stroke="#000000" points="24.5,-7 24.5,-28 89.5,-28 89.5,-7 24.5,-7"/>
<text text-anchor="middle" x="57" y="-14.4" font-family="Helvetica,sans-Serif" font-size="12.00" fill="#000000">timemory.cc</text>
</a>
</g>
</g>
<!-- Node16&#45;&gt;Node27 -->
<g id="edge18" class="edge">
<title>Node16&#45;&gt;Node27</title>
<path fill="none" stroke="#191970" d="M30.8799,-294.4427C18.1629,-272.0179 0,-233.7349 0,-198 0,-198 0,-198 0,-140 0,-94.9627 32.0625,-48.5751 48.0938,-28.1961"/>
<polygon fill="#191970" stroke="#191970" points="28.0025,-296.4541 36.0913,-303.2967 34.0351,-292.9033 28.0025,-296.4541"/>
</g>
<!-- Node18 -->
<g id="node3" class="node">
<title>Node18</title>
<g id="a_node3"><a xlink:href="../../dd/d84/base__timer_8cpp.html" target="_top" xlink:title="base_timer.cpp">
<polygon fill="#ffffff" stroke="#000000" points="28,-187.5 28,-208.5 106,-208.5 106,-187.5 28,-187.5"/>
<text text-anchor="middle" x="67" y="-194.9" font-family="Helvetica,sans-Serif" font-size="12.00" fill="#000000">base_timer.cpp</text>
</a>
</g>
</g>
<!-- Node17&#45;&gt;Node18 -->
<g id="edge2" class="edge">
<title>Node17&#45;&gt;Node18</title>
<path fill="none" stroke="#191970" d="M80.0289,-235.7838C76.8679,-226.617 73.2611,-216.1572 70.6451,-208.5707"/>
<polygon fill="#191970" stroke="#191970" points="76.7629,-237.0492 83.3317,-245.3619 83.3805,-234.7672 76.7629,-237.0492"/>
</g>
<!-- Node19 -->
<g id="node4" class="node">
<title>Node19</title>
<g id="a_node4"><a xlink:href="../../df/d05/timer_8hpp.html" target="_top" xlink:title="timemory/timer.hpp">
<polygon fill="#ffffff" stroke="#000000" points="124,-187.5 124,-208.5 218,-208.5 218,-187.5 124,-187.5"/>
<text text-anchor="middle" x="171" y="-194.9" font-family="Helvetica,sans-Serif" font-size="12.00" fill="#000000">timemory/timer.hpp</text>
</a>
</g>
</g>
<!-- Node17&#45;&gt;Node19 -->
<g id="edge3" class="edge">
<title>Node17&#45;&gt;Node19</title>
<path fill="none" stroke="#191970" d="M110.8376,-239.5407C125.2383,-229.5973 143.1675,-217.2177 155.6908,-208.5707"/>
<polygon fill="#191970" stroke="#191970" points="108.6472,-236.7998 102.4069,-245.3619 112.6246,-242.5601 108.6472,-236.7998"/>
</g>
<!-- Node20 -->
<g id="node5" class="node">
<title>Node20</title>
<g id="a_node5"><a xlink:href="../../da/d04/manager_8hpp.html" target="_top" xlink:title="timemory/manager.hpp">
<polygon fill="#ffffff" stroke="#000000" points="207.5,-129.5 207.5,-150.5 316.5,-150.5 316.5,-129.5 207.5,-129.5"/>
<text text-anchor="middle" x="262" y="-136.9" font-family="Helvetica,sans-Serif" font-size="12.00" fill="#000000">timemory/manager.hpp</text>
</a>
</g>
</g>
<!-- Node19&#45;&gt;Node20 -->
<g id="edge4" class="edge">
<title>Node19&#45;&gt;Node20</title>
<path fill="none" stroke="#191970" d="M196.3835,-181.8215C212.0579,-171.8312 231.7201,-159.2993 245.415,-150.5707"/>
<polygon fill="#191970" stroke="#191970" points="194.2424,-179.0356 187.6908,-187.3619 198.0048,-184.9386 194.2424,-179.0356"/>
</g>
<!-- Node19&#45;&gt;Node27 -->
<g id="edge16" class="edge">
<title>Node19&#45;&gt;Node27</title>
<path fill="none" stroke="#191970" d="M158.7838,-178.6577C134.8918,-140.8287 82.6757,-58.1531 63.8984,-28.4224"/>
<polygon fill="#191970" stroke="#191970" points="155.911,-180.6635 164.2102,-187.2495 161.8294,-176.9256 155.911,-180.6635"/>
</g>
<!-- Node28 -->
<g id="node13" class="node">
<title>Node28</title>
<g id="a_node13"><a xlink:href="../../dc/de5/timer_8cpp.html" target="_top" xlink:title="timer.cpp">
<polygon fill="#ffffff" stroke="#000000" points="58,-129.5 58,-150.5 112,-150.5 112,-129.5 58,-129.5"/>
<text text-anchor="middle" x="85" y="-136.9" font-family="Helvetica,sans-Serif" font-size="12.00" fill="#000000">timer.cpp</text>
</a>
</g>
</g>
<!-- Node19&#45;&gt;Node28 -->
<g id="edge17" class="edge">
<title>Node19&#45;&gt;Node28</title>
<path fill="none" stroke="#191970" d="M146.5949,-181.5407C131.8512,-171.5973 113.4952,-159.2177 100.6737,-150.5707"/>
<polygon fill="#191970" stroke="#191970" points="144.9785,-184.6722 155.2263,-187.3619 148.8925,-178.8687 144.9785,-184.6722"/>
</g>
<!-- Node21 -->
<g id="node6" class="node">
<title>Node21</title>
<g id="a_node6"><a xlink:href="../../d0/d90/ex1_2test__timing_8cpp.html" target="_top" xlink:title="examples/ex1/test_timing.cpp">
<polygon fill="#ffffff" stroke="#000000" points="442.5,-7 442.5,-28 577.5,-28 577.5,-7 442.5,-7"/>
<text text-anchor="middle" x="510" y="-14.4" font-family="Helvetica,sans-Serif" font-size="12.00" fill="#000000">examples/ex1/test_timing.cpp</text>
</a>
</g>
</g>
<!-- Node20&#45;&gt;Node21 -->
<g id="edge5" class="edge">
<title>Node20&#45;&gt;Node21</title>
<path fill="none" stroke="#191970" d="M297.2556,-125.3308C318.2719,-116.3845 345.3738,-104.4929 369,-93 413.4466,-71.3791 464.2524,-43.3236 491.0861,-28.2344"/>
<polygon fill="#191970" stroke="#191970" points="295.6116,-122.2259 287.7663,-129.3464 298.3397,-128.6725 295.6116,-122.2259"/>
</g>
<!-- Node22 -->
<g id="node7" class="node">
<title>Node22</title>
<g id="a_node7"><a xlink:href="../../dd/d0a/mpi__test__timing_8cpp.html" target="_top" xlink:title="examples/ex2/mpi_test\l_timing.cpp">
<polygon fill="#ffffff" stroke="#000000" points="595.5,-.5 595.5,-34.5 704.5,-34.5 704.5,-.5 595.5,-.5"/>
<text text-anchor="start" x="603.5" y="-20.9" font-family="Helvetica,sans-Serif" font-size="12.00" fill="#000000">examples/ex2/mpi_test</text>
<text text-anchor="middle" x="650" y="-7.9" font-family="Helvetica,sans-Serif" font-size="12.00" fill="#000000">_timing.cpp</text>
</a>
</g>
</g>
<!-- Node20&#45;&gt;Node22 -->
<g id="edge6" class="edge">
<title>Node20&#45;&gt;Node22</title>
<path fill="none" stroke="#191970" d="M304.9699,-126.4335C376.1123,-103.9723 518.2218,-59.1052 596.0236,-34.5415"/>
<polygon fill="#191970" stroke="#191970" points="303.8987,-123.1013 295.4165,-129.4497 306.0063,-129.7765 303.8987,-123.1013"/>
</g>
<!-- Node23 -->
<g id="node8" class="node">
<title>Node23</title>
<g id="a_node8"><a xlink:href="../../d8/d07/auto__timer_8hpp.html" target="_top" xlink:title="timemory/auto_timer.hpp">
<polygon fill="#ffffff" stroke="#000000" points="244,-71.5 244,-92.5 360,-92.5 360,-71.5 244,-71.5"/>
<text text-anchor="middle" x="302" y="-78.9" font-family="Helvetica,sans-Serif" font-size="12.00" fill="#000000">timemory/auto_timer.hpp</text>
</a>
</g>
</g>
<!-- Node20&#45;&gt;Node23 -->
<g id="edge7" class="edge">
<title>Node20&#45;&gt;Node23</title>
<path fill="none" stroke="#191970" d="M275.1317,-120.9591C281.64,-111.522 289.2528,-100.4835 294.7099,-92.5707"/>
<polygon fill="#191970" stroke="#191970" points="272.1327,-119.1427 269.3366,-129.3619 277.8952,-123.1168 272.1327,-119.1427"/>
</g>
<!-- Node26 -->
<g id="node11" class="node">
<title>Node26</title>
<g id="a_node11"><a xlink:href="../../d0/db0/manager_8cpp.html" target="_top" xlink:title="manager.cpp">
<polygon fill="#ffffff" stroke="#000000" points="107.5,-7 107.5,-28 176.5,-28 176.5,-7 107.5,-7"/>
<text text-anchor="middle" x="142" y="-14.4" font-family="Helvetica,sans-Serif" font-size="12.00" fill="#000000">manager.cpp</text>
</a>
</g>
</g>
<!-- Node20&#45;&gt;Node26 -->
<g id="edge14" class="edge">
<title>Node20&#45;&gt;Node26</title>
<path fill="none" stroke="#191970" d="M244.1742,-121.8028C218.7767,-95.8762 172.9841,-49.1296 152.454,-28.1718"/>
<polygon fill="#191970" stroke="#191970" points="241.8527,-124.4346 251.3508,-129.1289 246.8532,-119.5361 241.8527,-124.4346"/>
</g>
<!-- Node20&#45;&gt;Node27 -->
<g id="edge15" class="edge">
<title>Node20&#45;&gt;Node27</title>
<path fill="none" stroke="#191970" d="M237.5107,-123.7154C215.8027,-109.4345 183.1201,-88.3084 154,-71 127.8794,-55.4744 97.0521,-38.734 77.2778,-28.1923"/>
<polygon fill="#191970" stroke="#191970" points="235.826,-126.7972 246.0998,-129.3856 239.6826,-120.9553 235.826,-126.7972"/>
</g>
<!-- Node23&#45;&gt;Node21 -->
<g id="edge8" class="edge">
<title>Node23&#45;&gt;Node21</title>
<path fill="none" stroke="#191970" d="M345.8626,-68.3984C384.717,-56.3498 440.6323,-39.0106 476.1328,-28.0021"/>
<polygon fill="#191970" stroke="#191970" points="344.3964,-65.1886 335.8817,-71.4934 346.4697,-71.8745 344.3964,-65.1886"/>
</g>
<!-- Node23&#45;&gt;Node22 -->
<g id="edge9" class="edge">
<title>Node23&#45;&gt;Node22</title>
<path fill="none" stroke="#191970" d="M370.3497,-72.8352C428.3306,-64.5586 513.5489,-51.2088 587,-35 589.7712,-34.3885 592.602,-33.7295 595.4543,-33.0381"/>
<polygon fill="#191970" stroke="#191970" points="369.6197,-69.4035 360.209,-74.2707 370.6009,-76.3345 369.6197,-69.4035"/>
</g>
<!-- Node24 -->
<g id="node9" class="node">
<title>Node24</title>
<g id="a_node9"><a xlink:href="../../d2/dc1/ex3_2test__timing_8cpp.html" target="_top" xlink:title="examples/ex3/test_timing.cpp">
<polygon fill="#ffffff" stroke="#000000" points="194.5,-7 194.5,-28 329.5,-28 329.5,-7 194.5,-7"/>
<text text-anchor="middle" x="262" y="-14.4" font-family="Helvetica,sans-Serif" font-size="12.00" fill="#000000">examples/ex3/test_timing.cpp</text>
</a>
</g>
</g>
<!-- Node23&#45;&gt;Node24 -->
<g id="edge10" class="edge">
<title>Node23&#45;&gt;Node24</title>
<path fill="none" stroke="#191970" d="M290.0094,-62.6651C283.0535,-51.4487 274.5492,-37.7356 268.7487,-28.3823"/>
<polygon fill="#191970" stroke="#191970" points="287.15,-64.6953 295.3948,-71.3491 293.0989,-61.006 287.15,-64.6953"/>
</g>
<!-- Node25 -->
<g id="node10" class="node">
<title>Node25</title>
<g id="a_node10"><a xlink:href="../../d2/d80/auto__timer_8cpp.html" target="_top" xlink:title="auto_timer.cpp">
<polygon fill="#ffffff" stroke="#000000" points="348,-7 348,-28 424,-28 424,-7 348,-7"/>
<text text-anchor="middle" x="386" y="-14.4" font-family="Helvetica,sans-Serif" font-size="12.00" fill="#000000">auto_timer.cpp</text>
</a>
</g>
</g>
<!-- Node23&#45;&gt;Node25 -->
<g id="edge11" class="edge">
<title>Node23&#45;&gt;Node25</title>
<path fill="none" stroke="#191970" d="M324.2172,-64.9404C339.4147,-53.2709 359.0911,-38.1622 372.1085,-28.1667"/>
<polygon fill="#191970" stroke="#191970" points="321.6708,-62.4828 315.8709,-71.3491 325.934,-68.0349 321.6708,-62.4828"/>
</g>
<!-- Node23&#45;&gt;Node26 -->
<g id="edge12" class="edge">
<title>Node23&#45;&gt;Node26</title>
<path fill="none" stroke="#191970" d="M266.3343,-67.6223C236.5484,-55.6148 194.7787,-38.7764 168.0517,-28.0021"/>
<polygon fill="#191970" stroke="#191970" points="265.3538,-71.0006 275.9371,-71.4934 267.971,-64.5083 265.3538,-71.0006"/>
</g>
<!-- Node23&#45;&gt;Node27 -->
<g id="edge13" class="edge">
<title>Node23&#45;&gt;Node27</title>
<path fill="none" stroke="#191970" d="M234.9745,-69.4238C195.0399,-61.2058 143.6056,-49.3452 99,-35 92.8336,-33.0169 86.3084,-30.5087 80.2868,-28.0153"/>
<polygon fill="#191970" stroke="#191970" points="234.3718,-72.8728 244.8685,-71.434 235.7656,-66.013 234.3718,-72.8728"/>
</g>
</g>
</svg>
