<?xml version="1.0" encoding="UTF-8" standalone="no"?>
<!DOCTYPE svg PUBLIC "-//W3C//DTD SVG 1.1//EN"
 "http://www.w3.org/Graphics/SVG/1.1/DTD/svg11.dtd">
<!-- Generated by graphviz version 2.40.1 (20161225.0304)
 -->
<!-- Title: timemory/rss.hpp Pages: 1 -->
<!--zoomable 333 -->
<svg id="main" version="1.1" xmlns="http://www.w3.org/2000/svg" xmlns:xlink="http://www.w3.org/1999/xlink" xml:space="preserve" onload="init(evt)">
<style type="text/css"><![CDATA[
.edge:hover path { stroke: red; }
.edge:hover polygon { stroke: red; fill: red; }
]]></style>
<script type="text/javascript"><![CDATA[
var edges = document.getElementsByTagName('g');
if (edges && edges.length) {
  for (var i=0;i<edges.length;i++) {
    if (edges[i].id.substr(0,4)=='edge') {
      edges[i].setAttribute('class','edge');
    }
  }
}
]]></script>
        <defs>
                <circle id="rim" cx="0" cy="0" r="7"/>
                <circle id="rim2" cx="0" cy="0" r="3.5"/>
                <g id="zoomPlus">
                        <use xlink:href="#rim" fill="#404040">
                                <set attributeName="fill" to="#808080" begin="zoomplus.mouseover" end="zoomplus.mouseout"/>
                        </use>
                        <path d="M-4,0h8M0,-4v8" fill="none" stroke="white" stroke-width="1.5" pointer-events="none"/>
                </g>
                <g id="zoomMin">
                        <use xlink:href="#rim" fill="#404040">
                                <set attributeName="fill" to="#808080" begin="zoomminus.mouseover" end="zoomminus.mouseout"/>
                        </use>
                        <path d="M-4,0h8" fill="none" stroke="white" stroke-width="1.5" pointer-events="none"/>
                </g>
                <g id="dirArrow">
                        <path fill="none" stroke="white" stroke-width="1.5" d="M0,-3.0v7 M-2.5,-0.5L0,-3.0L2.5,-0.5"/>
                </g>
               <g id="resetDef">
                       <use xlink:href="#rim2" fill="#404040">
                               <set attributeName="fill" to="#808080" begin="reset.mouseover" end="reset.mouseout"/>
                       </use>
               </g>
        </defs>

<script type="text/javascript">
var viewWidth = 565;
var viewHeight = 333;
var sectionId = 'dynsection-1';
</script>
<script xlink:href="../../svgpan.js"/>
<svg id="graph" class="graph">
<g id="viewport">
<title>timemory/rss.hpp</title>
<polygon fill="#ffffff" stroke="transparent" points="-4,4 -4,-329 560.5,-329 560.5,4 -4,4"/>
<!-- Node16 -->
<g id="node1" class="node">
<title>Node16</title>
<polygon fill="#bfbfbf" stroke="#000000" points="437,-303.5 437,-324.5 523,-324.5 523,-303.5 437,-303.5"/>
<text text-anchor="middle" x="480" y="-310.9" font-family="Helvetica,sans-Serif" font-size="12.00" fill="#000000">timemory/rss.hpp</text>
</g>
<!-- Node17 -->
<g id="node2" class="node">
<title>Node17</title>
<g id="a_node2"><a xlink:href="../../d6/d01/base__timer_8hpp.html" target="_top" xlink:title="timemory/base_timer.hpp">
<polygon fill="#ffffff" stroke="#000000" points="378,-245.5 378,-266.5 496,-266.5 496,-245.5 378,-245.5"/>
<text text-anchor="middle" x="437" y="-252.9" font-family="Helvetica,sans-Serif" font-size="12.00" fill="#000000">timemory/base_timer.hpp</text>
</a>
</g>
</g>
<!-- Node16&#45;&gt;Node17 -->
<g id="edge1" class="edge">
<title>Node16&#45;&gt;Node17</title>
<path fill="none" stroke="#191970" d="M466.0994,-295.2504C459.056,-285.75 450.7638,-274.5651 444.8369,-266.5707"/>
<polygon fill="#191970" stroke="#191970" points="463.3459,-297.4132 472.1131,-303.3619 468.9691,-293.2443 463.3459,-297.4132"/>
</g>
<!-- Node25 -->
<g id="node10" class="node">
<title>Node25</title>
<g id="a_node10"><a xlink:href="../../d2/dfd/timemory_8cc.html" target="_top" xlink:title="timemory.cc">
<polygon fill="#ffffff" stroke="#000000" points="491.5,-7 491.5,-28 556.5,-28 556.5,-7 491.5,-7"/>
<text text-anchor="middle" x="524" y="-14.4" font-family="Helvetica,sans-Serif" font-size="12.00" fill="#000000">timemory.cc</text>
</a>
</g>
</g>
<!-- Node16&#45;&gt;Node25 -->
<g id="edge17" class="edge">
<title>Node16&#45;&gt;Node25</title>
<path fill="none" stroke="#191970" d="M492.4019,-294.48C505.4147,-272.0889 524,-233.8363 524,-198 524,-198 524,-198 524,-140 524,-98.7413 524,-49.6661 524,-28.3152"/>
<polygon fill="#191970" stroke="#191970" points="489.2382,-292.9487 487.0694,-303.3192 495.2319,-296.5647 489.2382,-292.9487"/>
</g>
<!-- Node18 -->
<g id="node3" class="node">
<title>Node18</title>
<g id="a_node3"><a xlink:href="../../dd/d84/base__timer_8cpp.html" target="_top" xlink:title="base_timer.cpp">
<polygon fill="#ffffff" stroke="#000000" points="408,-187.5 408,-208.5 486,-208.5 486,-187.5 408,-187.5"/>
<text text-anchor="middle" x="447" y="-194.9" font-family="Helvetica,sans-Serif" font-size="12.00" fill="#000000">base_timer.cpp</text>
</a>
</g>
</g>
<!-- Node17&#45;&gt;Node18 -->
<g id="edge2" class="edge">
<title>Node17&#45;&gt;Node18</title>
<path fill="none" stroke="#191970" d="M440.5366,-235.4876C442.1048,-226.3924 443.8835,-216.0756 445.1775,-208.5707"/>
<polygon fill="#191970" stroke="#191970" points="437.0842,-234.9126 438.8342,-245.3619 443.9824,-236.102 437.0842,-234.9126"/>
</g>
<!-- Node19 -->
<g id="node4" class="node">
<title>Node19</title>
<g id="a_node4"><a xlink:href="../../df/d05/timer_8hpp.html" target="_top" xlink:title="timemory/timer.hpp">
<polygon fill="#ffffff" stroke="#000000" points="296,-187.5 296,-208.5 390,-208.5 390,-187.5 296,-187.5"/>
<text text-anchor="middle" x="343" y="-194.9" font-family="Helvetica,sans-Serif" font-size="12.00" fill="#000000">timemory/timer.hpp</text>
</a>
</g>
</g>
<!-- Node17&#45;&gt;Node19 -->
<g id="edge3" class="edge">
<title>Node17&#45;&gt;Node19</title>
<path fill="none" stroke="#191970" d="M411.2325,-240.1009C394.9687,-230.0658 374.4103,-217.3808 360.1317,-208.5707"/>
<polygon fill="#191970" stroke="#191970" points="409.4107,-243.0894 419.759,-245.3619 413.0865,-237.1322 409.4107,-243.0894"/>
</g>
<!-- Node20 -->
<g id="node5" class="node">
<title>Node20</title>
<g id="a_node5"><a xlink:href="../../df/df2/timing__manager_8hpp.html" target="_top" xlink:title="timemory/timing_manager.hpp">
<polygon fill="#ffffff" stroke="#000000" points="274,-129.5 274,-150.5 412,-150.5 412,-129.5 274,-129.5"/>
<text text-anchor="middle" x="343" y="-136.9" font-family="Helvetica,sans-Serif" font-size="12.00" fill="#000000">timemory/timing_manager.hpp</text>
</a>
</g>
</g>
<!-- Node19&#45;&gt;Node20 -->
<g id="edge4" class="edge">
<title>Node19&#45;&gt;Node20</title>
<path fill="none" stroke="#191970" d="M343,-177.1906C343,-168.1684 343,-157.9941 343,-150.5707"/>
<polygon fill="#191970" stroke="#191970" points="339.5001,-177.3619 343,-187.3619 346.5001,-177.3619 339.5001,-177.3619"/>
</g>
<!-- Node19&#45;&gt;Node25 -->
<g id="edge15" class="edge">
<title>Node19&#45;&gt;Node25</title>
<path fill="none" stroke="#191970" d="M374.2592,-182.6607C389.2865,-174.4468 407.0232,-163.4573 421,-151 464.7066,-112.045 502.9879,-52.4752 517.6445,-28.2775"/>
<polygon fill="#191970" stroke="#191970" points="372.5065,-179.6284 365.3106,-187.4047 375.7852,-185.8131 372.5065,-179.6284"/>
</g>
<!-- Node27 -->
<g id="node12" class="node">
<title>Node27</title>
<g id="a_node12"><a xlink:href="../../dc/de5/timer_8cpp.html" target="_top" xlink:title="timer.cpp">
<polygon fill="#ffffff" stroke="#000000" points="202,-129.5 202,-150.5 256,-150.5 256,-129.5 202,-129.5"/>
<text text-anchor="middle" x="229" y="-136.9" font-family="Helvetica,sans-Serif" font-size="12.00" fill="#000000">timer.cpp</text>
</a>
</g>
</g>
<!-- Node19&#45;&gt;Node27 -->
<g id="edge16" class="edge">
<title>Node19&#45;&gt;Node27</title>
<path fill="none" stroke="#191970" d="M313.3833,-182.9319C293.4557,-172.7932 267.6711,-159.6748 249.8762,-150.6212"/>
<polygon fill="#191970" stroke="#191970" points="311.8555,-186.0815 322.3555,-187.4966 315.0298,-179.8425 311.8555,-186.0815"/>
</g>
<!-- Node21 -->
<g id="node6" class="node">
<title>Node21</title>
<g id="a_node6"><a xlink:href="../../d6/d8e/test__timing_8cpp.html" target="_top" xlink:title="examples/ex1/test_timing.cpp">
<polygon fill="#ffffff" stroke="#000000" points="116.5,-7 116.5,-28 251.5,-28 251.5,-7 116.5,-7"/>
<text text-anchor="middle" x="184" y="-14.4" font-family="Helvetica,sans-Serif" font-size="12.00" fill="#000000">examples/ex1/test_timing.cpp</text>
</a>
</g>
</g>
<!-- Node20&#45;&gt;Node21 -->
<g id="edge5" class="edge">
<title>Node20&#45;&gt;Node21</title>
<path fill="none" stroke="#191970" d="M300.8711,-125.6902C281.6874,-117.8994 259.4287,-106.9688 242,-93 218.5264,-74.1864 199.1143,-43.9633 189.853,-28.0625"/>
<polygon fill="#191970" stroke="#191970" points="299.7048,-128.9921 310.2929,-129.3696 302.2512,-122.4716 299.7048,-128.9921"/>
</g>
<!-- Node22 -->
<g id="node7" class="node">
<title>Node22</title>
<g id="a_node7"><a xlink:href="../../dd/d0a/mpi__test__timing_8cpp.html" target="_top" xlink:title="examples/ex2/mpi_test\l_timing.cpp">
<polygon fill="#ffffff" stroke="#000000" points="364.5,-.5 364.5,-34.5 473.5,-34.5 473.5,-.5 364.5,-.5"/>
<text text-anchor="start" x="372.5" y="-20.9" font-family="Helvetica,sans-Serif" font-size="12.00" fill="#000000">examples/ex2/mpi_test</text>
<text text-anchor="middle" x="419" y="-7.9" font-family="Helvetica,sans-Serif" font-size="12.00" fill="#000000">_timing.cpp</text>
</a>
</g>
</g>
<!-- Node20&#45;&gt;Node22 -->
<g id="edge6" class="edge">
<title>Node20&#45;&gt;Node22</title>
<path fill="none" stroke="#191970" d="M356.7714,-121.2532C362.8556,-112.7543 369.9785,-102.5 376,-93 388.4365,-73.3794 401.471,-50.0431 409.8836,-34.5618"/>
<polygon fill="#191970" stroke="#191970" points="353.925,-119.2165 350.8968,-129.3694 359.5954,-123.321 353.925,-119.2165"/>
</g>
<!-- Node23 -->
<g id="node8" class="node">
<title>Node23</title>
<g id="a_node8"><a xlink:href="../../d8/d07/auto__timer_8hpp.html" target="_top" xlink:title="timemory/auto_timer.hpp">
<polygon fill="#ffffff" stroke="#000000" points="251,-71.5 251,-92.5 367,-92.5 367,-71.5 251,-71.5"/>
<text text-anchor="middle" x="309" y="-78.9" font-family="Helvetica,sans-Serif" font-size="12.00" fill="#000000">timemory/auto_timer.hpp</text>
</a>
</g>
</g>
<!-- Node20&#45;&gt;Node23 -->
<g id="edge7" class="edge">
<title>Node20&#45;&gt;Node23</title>
<path fill="none" stroke="#191970" d="M331.6667,-120.6667C326.1728,-111.2948 319.7873,-100.4019 315.1966,-92.5707"/>
<polygon fill="#191970" stroke="#191970" points="328.6872,-122.5049 336.7639,-129.3619 334.7261,-118.9649 328.6872,-122.5049"/>
</g>
<!-- Node20&#45;&gt;Node25 -->
<g id="edge13" class="edge">
<title>Node20&#45;&gt;Node25</title>
<path fill="none" stroke="#191970" d="M367.1231,-123.6736C404.8558,-98.1363 476.7889,-49.4522 508.4194,-28.0449"/>
<polygon fill="#191970" stroke="#191970" points="365.0658,-120.8397 358.7459,-129.3432 368.9893,-126.6368 365.0658,-120.8397"/>
</g>
<!-- Node26 -->
<g id="node11" class="node">
<title>Node26</title>
<g id="a_node11"><a xlink:href="../../d9/dad/timing__manager_8cpp.html" target="_top" xlink:title="timing_manager.cpp">
<polygon fill="#ffffff" stroke="#000000" points="0,-7 0,-28 98,-28 98,-7 0,-7"/>
<text text-anchor="middle" x="49" y="-14.4" font-family="Helvetica,sans-Serif" font-size="12.00" fill="#000000">timing_manager.cpp</text>
</a>
</g>
</g>
<!-- Node20&#45;&gt;Node26 -->
<g id="edge14" class="edge">
<title>Node20&#45;&gt;Node26</title>
<path fill="none" stroke="#191970" d="M303.1739,-126.0719C278.0069,-117.071 244.8963,-104.8618 216,-93 163.3116,-71.3716 102.6572,-43.0767 70.9365,-28.0123"/>
<polygon fill="#191970" stroke="#191970" points="302.1531,-129.4235 312.7478,-129.4784 304.4997,-122.8286 302.1531,-129.4235"/>
</g>
<!-- Node23&#45;&gt;Node21 -->
<g id="edge8" class="edge">
<title>Node23&#45;&gt;Node21</title>
<path fill="none" stroke="#191970" d="M279.6055,-66.8324C256.4526,-54.8856 224.7795,-38.5422 204.3529,-28.0021"/>
<polygon fill="#191970" stroke="#191970" points="278.1468,-70.0182 288.6384,-71.4934 281.3567,-63.7975 278.1468,-70.0182"/>
</g>
<!-- Node23&#45;&gt;Node22 -->
<g id="edge9" class="edge">
<title>Node23&#45;&gt;Node22</title>
<path fill="none" stroke="#191970" d="M336.1489,-66.0809C352.3791,-56.5641 373.0052,-44.4697 389.6169,-34.7292"/>
<polygon fill="#191970" stroke="#191970" points="334.0203,-63.2716 327.1643,-71.3491 337.5611,-69.3101 334.0203,-63.2716"/>
</g>
<!-- Node24 -->
<g id="node9" class="node">
<title>Node24</title>
<g id="a_node9"><a xlink:href="../../d2/d80/auto__timer_8cpp.html" target="_top" xlink:title="auto_timer.cpp">
<polygon fill="#ffffff" stroke="#000000" points="270,-7 270,-28 346,-28 346,-7 270,-7"/>
<text text-anchor="middle" x="308" y="-14.4" font-family="Helvetica,sans-Serif" font-size="12.00" fill="#000000">auto_timer.cpp</text>
</a>
</g>
</g>
<!-- Node23&#45;&gt;Node24 -->
<g id="edge10" class="edge">
<title>Node23&#45;&gt;Node24</title>
<path fill="none" stroke="#191970" d="M308.6792,-61.3076C308.5094,-50.3587 308.3079,-37.3615 308.1687,-28.3823"/>
<polygon fill="#191970" stroke="#191970" points="305.1802,-61.4046 308.8349,-71.3491 312.1793,-61.296 305.1802,-61.4046"/>
</g>
<!-- Node23&#45;&gt;Node25 -->
<g id="edge11" class="edge">
<title>Node23&#45;&gt;Node25</title>
<path fill="none" stroke="#191970" d="M364.8324,-69.0277C399.2608,-60.5105 444.1159,-48.4762 483,-35 488.8501,-32.9725 495.0478,-30.5032 500.8045,-28.0662"/>
<polygon fill="#191970" stroke="#191970" points="363.8384,-65.6676 354.9574,-71.4452 365.5029,-72.4669 363.8384,-65.6676"/>
</g>
<!-- Node23&#45;&gt;Node26 -->
<g id="edge12" class="edge">
<title>Node23&#45;&gt;Node26</title>
<path fill="none" stroke="#191970" d="M249.8474,-69.2906C209.4462,-60.3525 154.7852,-47.7539 107,-35 99.0736,-32.8844 90.5929,-30.4334 82.6316,-28.0478"/>
<polygon fill="#191970" stroke="#191970" points="249.28,-72.7495 259.7987,-71.482 250.7854,-65.9133 249.28,-72.7495"/>
</g>
</g>
</svg>
        <g id="navigator" transform="translate(0 0)" fill="#404254">
                <rect fill="#f2f5e9" fill-opacity="0.5" stroke="#606060" stroke-width=".5" x="0" y="0" width="60" height="60"/>
                <use id="zoomplus" xlink:href="#zoomPlus" x="17" y="9" onmousedown="handleZoom(evt,'in')"/>
                <use id="zoomminus" xlink:href="#zoomMin" x="42" y="9" onmousedown="handleZoom(evt,'out')"/>
                <use id="reset" xlink:href="#resetDef" x="30" y="36" onmousedown="handleReset()"/>
                <g id="arrowUp" xlink:href="#dirArrow" transform="translate(30 24)" onmousedown="handlePan(0,-1)">
                  <use xlink:href="#rim" fill="#404040">
                        <set attributeName="fill" to="#808080" begin="arrowUp.mouseover" end="arrowUp.mouseout"/>
                  </use>
                  <path fill="none" stroke="white" stroke-width="1.5" d="M0,-3.0v7 M-2.5,-0.5L0,-3.0L2.5,-0.5"/>
                </g>
                <g id="arrowRight" xlink:href="#dirArrow" transform="rotate(90) translate(36 -43)" onmousedown="handlePan(1,0)">
                  <use xlink:href="#rim" fill="#404040">
                        <set attributeName="fill" to="#808080" begin="arrowRight.mouseover" end="arrowRight.mouseout"/>
                  </use>
                  <path fill="none" stroke="white" stroke-width="1.5" d="M0,-3.0v7 M-2.5,-0.5L0,-3.0L2.5,-0.5"/>
                </g>
                <g id="arrowDown" xlink:href="#dirArrow" transform="rotate(180) translate(-30 -48)" onmousedown="handlePan(0,1)">
                  <use xlink:href="#rim" fill="#404040">
                        <set attributeName="fill" to="#808080" begin="arrowDown.mouseover" end="arrowDown.mouseout"/>
                  </use>
                  <path fill="none" stroke="white" stroke-width="1.5" d="M0,-3.0v7 M-2.5,-0.5L0,-3.0L2.5,-0.5"/>
                </g>
                <g id="arrowLeft" xlink:href="#dirArrow" transform="rotate(270) translate(-36 17)" onmousedown="handlePan(-1,0)">
                  <use xlink:href="#rim" fill="#404040">
                        <set attributeName="fill" to="#808080" begin="arrowLeft.mouseover" end="arrowLeft.mouseout"/>
                  </use>
                  <path fill="none" stroke="white" stroke-width="1.5" d="M0,-3.0v7 M-2.5,-0.5L0,-3.0L2.5,-0.5"/>
                </g>
        </g>
        <svg viewBox="0 0 15 15" width="100%" height="30px" preserveAspectRatio="xMaxYMin meet">
         <g id="arrow_out" transform="scale(0.3 0.3)">
          <a xlink:href="rss_8hpp__dep__incl_org.svg" target="_base">
           <rect id="button" ry="5" rx="5" y="6" x="6" height="38" width="38"
                fill="#f2f5e9" fill-opacity="0.5" stroke="#606060" stroke-width="1.0"/>
           <path id="arrow"
             d="M 11.500037,31.436501 C 11.940474,20.09759 22.043105,11.32322 32.158766,21.979434 L 37.068811,17.246167 C 37.068811,17.246167 37.088388,32 37.088388,32 L 22.160133,31.978069 C 22.160133,31.978069 26.997745,27.140456 26.997745,27.140456 C 18.528582,18.264221 13.291696,25.230495 11.500037,31.436501 z"
             style="fill:#404040;"/>
          </a>
         </g>
        </svg>
</svg>
