<?xml version="1.0" encoding="UTF-8" standalone="no"?>
<!DOCTYPE svg PUBLIC "-//W3C//DTD SVG 1.1//EN"
 "http://www.w3.org/Graphics/SVG/1.1/DTD/svg11.dtd">
<!-- Generated by graphviz version 2.40.1 (20161225.0304)
 -->
<!-- Title: timemory/rss.hpp Pages: 1 -->
<svg width="456pt" height="320pt"
 viewBox="0.00 0.00 455.50 320.00" xmlns="http://www.w3.org/2000/svg" xmlns:xlink="http://www.w3.org/1999/xlink">
<g id="graph0" class="graph" transform="scale(1 1) rotate(0) translate(4 316)">
<title>timemory/rss.hpp</title>
<polygon fill="#ffffff" stroke="transparent" points="-4,4 -4,-316 451.5,-316 451.5,4 -4,4"/>
<!-- Node16 -->
<g id="node1" class="node">
<title>Node16</title>
<polygon fill="#bfbfbf" stroke="#000000" points="360.5,-290.5 360.5,-311.5 446.5,-311.5 446.5,-290.5 360.5,-290.5"/>
<text text-anchor="middle" x="403.5" y="-297.9" font-family="Helvetica,sans-Serif" font-size="12.00" fill="#000000">timemory/rss.hpp</text>
</g>
<!-- Node17 -->
<g id="node2" class="node">
<title>Node17</title>
<g id="a_node2"><a xlink:href="../../d6/d01/base__timer_8hpp.html" target="_top" xlink:title="timemory/base_timer.hpp">
<polygon fill="#ffffff" stroke="#000000" points="289.5,-232.5 289.5,-253.5 407.5,-253.5 407.5,-232.5 289.5,-232.5"/>
<text text-anchor="middle" x="348.5" y="-239.9" font-family="Helvetica,sans-Serif" font-size="12.00" fill="#000000">timemory/base_timer.hpp</text>
</a>
</g>
</g>
<!-- Node16&#45;&gt;Node17 -->
<g id="edge1" class="edge">
<title>Node16&#45;&gt;Node17</title>
<path fill="none" stroke="#191970" d="M386.2698,-282.8299C377.1454,-273.2078 366.2595,-261.7282 358.5239,-253.5707"/>
<polygon fill="#191970" stroke="#191970" points="383.9915,-285.514 393.4122,-290.3619 389.0709,-280.6973 383.9915,-285.514"/>
</g>
<!-- Node22 -->
<g id="node7" class="node">
<title>Node22</title>
<g id="a_node7"><a xlink:href="../../d2/dfd/timemory_8cc.html" target="_top" xlink:title="timemory.cc">
<polygon fill="#ffffff" stroke="#000000" points="180,-.5 180,-21.5 245,-21.5 245,-.5 180,-.5"/>
<text text-anchor="middle" x="212.5" y="-7.9" font-family="Helvetica,sans-Serif" font-size="12.00" fill="#000000">timemory.cc</text>
</a>
</g>
</g>
<!-- Node16&#45;&gt;Node22 -->
<g id="edge13" class="edge">
<title>Node16&#45;&gt;Node22</title>
<path fill="none" stroke="#191970" d="M415.9019,-281.48C428.9147,-259.0889 447.5,-220.8363 447.5,-185 447.5,-185 447.5,-185 447.5,-127 447.5,-82.4116 309.7473,-38.1021 245.1757,-19.7814"/>
<polygon fill="#191970" stroke="#191970" points="412.7382,-279.9487 410.5694,-290.3192 418.7319,-283.5647 412.7382,-279.9487"/>
</g>
<!-- Node18 -->
<g id="node3" class="node">
<title>Node18</title>
<g id="a_node3"><a xlink:href="../../dd/d84/base__timer_8cpp.html" target="_top" xlink:title="base_timer.cpp">
<polygon fill="#ffffff" stroke="#000000" points="205.5,-174.5 205.5,-195.5 283.5,-195.5 283.5,-174.5 205.5,-174.5"/>
<text text-anchor="middle" x="244.5" y="-181.9" font-family="Helvetica,sans-Serif" font-size="12.00" fill="#000000">base_timer.cpp</text>
</a>
</g>
</g>
<!-- Node17&#45;&gt;Node18 -->
<g id="edge2" class="edge">
<title>Node17&#45;&gt;Node18</title>
<path fill="none" stroke="#191970" d="M320.4899,-227.379C302.4191,-217.3011 279.3981,-204.4624 263.4543,-195.5707"/>
<polygon fill="#191970" stroke="#191970" points="318.9864,-230.548 329.4248,-232.3619 322.3959,-224.4344 318.9864,-230.548"/>
</g>
<!-- Node19 -->
<g id="node4" class="node">
<title>Node19</title>
<g id="a_node4"><a xlink:href="../../df/d05/timer_8hpp.html" target="_top" xlink:title="timemory/timer.hpp">
<polygon fill="#ffffff" stroke="#000000" points="301.5,-174.5 301.5,-195.5 395.5,-195.5 395.5,-174.5 301.5,-174.5"/>
<text text-anchor="middle" x="348.5" y="-181.9" font-family="Helvetica,sans-Serif" font-size="12.00" fill="#000000">timemory/timer.hpp</text>
</a>
</g>
</g>
<!-- Node17&#45;&gt;Node19 -->
<g id="edge3" class="edge">
<title>Node17&#45;&gt;Node19</title>
<path fill="none" stroke="#191970" d="M348.5,-222.1906C348.5,-213.1684 348.5,-202.9941 348.5,-195.5707"/>
<polygon fill="#191970" stroke="#191970" points="345.0001,-222.3619 348.5,-232.3619 352.0001,-222.3619 345.0001,-222.3619"/>
</g>
<!-- Node20 -->
<g id="node5" class="node">
<title>Node20</title>
<g id="a_node5"><a xlink:href="../../df/df2/timing__manager_8hpp.html" target="_top" xlink:title="timemory/timing_manager.hpp">
<polygon fill="#ffffff" stroke="#000000" points="114.5,-116.5 114.5,-137.5 252.5,-137.5 252.5,-116.5 114.5,-116.5"/>
<text text-anchor="middle" x="183.5" y="-123.9" font-family="Helvetica,sans-Serif" font-size="12.00" fill="#000000">timemory/timing_manager.hpp</text>
</a>
</g>
</g>
<!-- Node19&#45;&gt;Node20 -->
<g id="edge4" class="edge">
<title>Node19&#45;&gt;Node20</title>
<path fill="none" stroke="#191970" d="M309.0829,-171.1443C279.7203,-160.8229 240.237,-146.9439 213.4363,-137.5231"/>
<polygon fill="#191970" stroke="#191970" points="308.0249,-174.4823 318.6197,-174.4966 310.3463,-167.8784 308.0249,-174.4823"/>
</g>
<!-- Node19&#45;&gt;Node22 -->
<g id="edge11" class="edge">
<title>Node19&#45;&gt;Node22</title>
<path fill="none" stroke="#191970" d="M349.0007,-164.4317C348.5833,-137.0839 343.9325,-88.6453 318.5,-58 300.1161,-35.848 269.1956,-23.7786 245.4805,-17.4398"/>
<polygon fill="#191970" stroke="#191970" points="345.5008,-164.4239 348.9754,-174.4327 352.5007,-164.4416 345.5008,-164.4239"/>
</g>
<!-- Node25 -->
<g id="node10" class="node">
<title>Node25</title>
<g id="a_node10"><a xlink:href="../../dc/de5/timer_8cpp.html" target="_top" xlink:title="timer.cpp">
<polygon fill="#ffffff" stroke="#000000" points="365.5,-116.5 365.5,-137.5 419.5,-137.5 419.5,-116.5 365.5,-116.5"/>
<text text-anchor="middle" x="392.5" y="-123.9" font-family="Helvetica,sans-Serif" font-size="12.00" fill="#000000">timer.cpp</text>
</a>
</g>
</g>
<!-- Node19&#45;&gt;Node25 -->
<g id="edge12" class="edge">
<title>Node19&#45;&gt;Node25</title>
<path fill="none" stroke="#191970" d="M362.7238,-166.2504C369.9311,-156.75 378.4161,-145.5651 384.4809,-137.5707"/>
<polygon fill="#191970" stroke="#191970" points="359.8258,-164.2796 356.5703,-174.3619 365.4026,-168.5103 359.8258,-164.2796"/>
</g>
<!-- Node21 -->
<g id="node6" class="node">
<title>Node21</title>
<g id="a_node6"><a xlink:href="../../d8/d07/auto__timer_8hpp.html" target="_top" xlink:title="timemory/auto_timer.hpp">
<polygon fill="#ffffff" stroke="#000000" points="39.5,-58.5 39.5,-79.5 155.5,-79.5 155.5,-58.5 39.5,-58.5"/>
<text text-anchor="middle" x="97.5" y="-65.9" font-family="Helvetica,sans-Serif" font-size="12.00" fill="#000000">timemory/auto_timer.hpp</text>
</a>
</g>
</g>
<!-- Node20&#45;&gt;Node21 -->
<g id="edge5" class="edge">
<title>Node20&#45;&gt;Node21</title>
<path fill="none" stroke="#191970" d="M159.0949,-110.5407C144.3512,-100.5973 125.9952,-88.2177 113.1737,-79.5707"/>
<polygon fill="#191970" stroke="#191970" points="157.4785,-113.6722 167.7263,-116.3619 161.3925,-107.8687 157.4785,-113.6722"/>
</g>
<!-- Node20&#45;&gt;Node22 -->
<g id="edge8" class="edge">
<title>Node20&#45;&gt;Node22</title>
<path fill="none" stroke="#191970" d="M188.6356,-106.4576C194.8341,-81.6635 205.0226,-40.9098 209.8302,-21.6792"/>
<polygon fill="#191970" stroke="#191970" points="185.2062,-105.7446 186.1763,-116.2949 191.9972,-107.4424 185.2062,-105.7446"/>
</g>
<!-- Node23 -->
<g id="node8" class="node">
<title>Node23</title>
<g id="a_node8"><a xlink:href="../../d6/d8e/test__timing_8cpp.html" target="_top" xlink:title="examples/ex1/test_timing.cpp">
<polygon fill="#ffffff" stroke="#000000" points="0,-.5 0,-21.5 135,-21.5 135,-.5 0,-.5"/>
<text text-anchor="middle" x="67.5" y="-7.9" font-family="Helvetica,sans-Serif" font-size="12.00" fill="#000000">examples/ex1/test_timing.cpp</text>
</a>
</g>
</g>
<!-- Node20&#45;&gt;Node23 -->
<g id="edge10" class="edge">
<title>Node20&#45;&gt;Node23</title>
<path fill="none" stroke="#191970" d="M114.9005,-114.2212C79.3001,-106.0471 41.0662,-94.2994 30.5,-80 16.3635,-60.869 38.8444,-35.6499 54.4858,-21.6062"/>
<polygon fill="#191970" stroke="#191970" points="114.3255,-117.6787 124.8466,-116.431 115.8439,-110.8453 114.3255,-117.6787"/>
</g>
<!-- Node24 -->
<g id="node9" class="node">
<title>Node24</title>
<g id="a_node9"><a xlink:href="../../d9/dad/timing__manager_8cpp.html" target="_top" xlink:title="timing_manager.cpp">
<polygon fill="#ffffff" stroke="#000000" points="211.5,-58.5 211.5,-79.5 309.5,-79.5 309.5,-58.5 211.5,-58.5"/>
<text text-anchor="middle" x="260.5" y="-65.9" font-family="Helvetica,sans-Serif" font-size="12.00" fill="#000000">timing_manager.cpp</text>
</a>
</g>
</g>
<!-- Node20&#45;&gt;Node24 -->
<g id="edge9" class="edge">
<title>Node20&#45;&gt;Node24</title>
<path fill="none" stroke="#191970" d="M205.7256,-110.2587C218.8615,-100.3641 235.0952,-88.1361 246.4665,-79.5707"/>
<polygon fill="#191970" stroke="#191970" points="203.5047,-107.5496 197.623,-116.3619 207.7164,-113.1409 203.5047,-107.5496"/>
</g>
<!-- Node21&#45;&gt;Node22 -->
<g id="edge6" class="edge">
<title>Node21&#45;&gt;Node22</title>
<path fill="none" stroke="#191970" d="M127.3765,-53.9319C147.4789,-43.7932 173.4897,-30.6748 191.4407,-21.6212"/>
<polygon fill="#191970" stroke="#191970" points="125.6782,-50.8684 118.3256,-58.4966 128.8305,-57.1185 125.6782,-50.8684"/>
</g>
<!-- Node21&#45;&gt;Node23 -->
<g id="edge7" class="edge">
<title>Node21&#45;&gt;Node23</title>
<path fill="none" stroke="#191970" d="M87.3483,-49.3733C82.5353,-40.0682 76.976,-29.3204 72.9676,-21.5707"/>
<polygon fill="#191970" stroke="#191970" points="84.2945,-51.0877 91.9975,-58.3619 90.512,-47.8717 84.2945,-51.0877"/>
</g>
</g>
</svg>
