<?xml version="1.0" encoding="UTF-8" standalone="no"?>
<!DOCTYPE svg PUBLIC "-//W3C//DTD SVG 1.1//EN"
 "http://www.w3.org/Graphics/SVG/1.1/DTD/svg11.dtd">
<!-- Generated by graphviz version 2.40.1 (20161225.0304)
 -->
<!-- Title: timemory/rss.hpp Pages: 1 -->
<svg width="703pt" height="333pt"
 viewBox="0.00 0.00 702.50 333.00" xmlns="http://www.w3.org/2000/svg" xmlns:xlink="http://www.w3.org/1999/xlink">
<g id="graph0" class="graph" transform="scale(1 1) rotate(0) translate(4 329)">
<title>timemory/rss.hpp</title>
<polygon fill="#ffffff" stroke="transparent" points="-4,4 -4,-329 698.5,-329 698.5,4 -4,4"/>
<!-- Node16 -->
<g id="node1" class="node">
<title>Node16</title>
<polygon fill="#bfbfbf" stroke="#000000" points="0,-303.5 0,-324.5 86,-324.5 86,-303.5 0,-303.5"/>
<text text-anchor="middle" x="43" y="-310.9" font-family="Helvetica,sans-Serif" font-size="12.00" fill="#000000">timemory/rss.hpp</text>
</g>
<!-- Node17 -->
<g id="node2" class="node">
<title>Node17</title>
<g id="a_node2"><a xlink:href="../../d6/d01/base__timer_8hpp.html" target="_top" xlink:title="timemory/base_timer.hpp">
<polygon fill="#ffffff" stroke="#000000" points="28,-245.5 28,-266.5 146,-266.5 146,-245.5 28,-245.5"/>
<text text-anchor="middle" x="87" y="-252.9" font-family="Helvetica,sans-Serif" font-size="12.00" fill="#000000">timemory/base_timer.hpp</text>
</a>
</g>
</g>
<!-- Node16&#45;&gt;Node17 -->
<g id="edge1" class="edge">
<title>Node16&#45;&gt;Node17</title>
<path fill="none" stroke="#191970" d="M57.2238,-295.2504C64.4311,-285.75 72.9161,-274.5651 78.9809,-266.5707"/>
<polygon fill="#191970" stroke="#191970" points="54.3258,-293.2796 51.0703,-303.3619 59.9026,-297.5103 54.3258,-293.2796"/>
</g>
<!-- Node24 -->
<g id="node9" class="node">
<title>Node24</title>
<g id="a_node9"><a xlink:href="../../d2/dfd/timemory_8cc.html" target="_top" xlink:title="timemory.cc">
<polygon fill="#ffffff" stroke="#000000" points="14.5,-7 14.5,-28 79.5,-28 79.5,-7 14.5,-7"/>
<text text-anchor="middle" x="47" y="-14.4" font-family="Helvetica,sans-Serif" font-size="12.00" fill="#000000">timemory.cc</text>
</a>
</g>
</g>
<!-- Node16&#45;&gt;Node24 -->
<g id="edge18" class="edge">
<title>Node16&#45;&gt;Node24</title>
<path fill="none" stroke="#191970" d="M30.8799,-294.4427C18.1629,-272.0179 0,-233.7349 0,-198 0,-198 0,-198 0,-140 0,-96.0366 26.7136,-48.7359 39.8617,-28.1176"/>
<polygon fill="#191970" stroke="#191970" points="28.0025,-296.4541 36.0913,-303.2967 34.0351,-292.9033 28.0025,-296.4541"/>
</g>
<!-- Node18 -->
<g id="node3" class="node">
<title>Node18</title>
<g id="a_node3"><a xlink:href="../../dd/d84/base__timer_8cpp.html" target="_top" xlink:title="base_timer.cpp">
<polygon fill="#ffffff" stroke="#000000" points="28,-187.5 28,-208.5 106,-208.5 106,-187.5 28,-187.5"/>
<text text-anchor="middle" x="67" y="-194.9" font-family="Helvetica,sans-Serif" font-size="12.00" fill="#000000">base_timer.cpp</text>
</a>
</g>
</g>
<!-- Node17&#45;&gt;Node18 -->
<g id="edge2" class="edge">
<title>Node17&#45;&gt;Node18</title>
<path fill="none" stroke="#191970" d="M80.0289,-235.7838C76.8679,-226.617 73.2611,-216.1572 70.6451,-208.5707"/>
<polygon fill="#191970" stroke="#191970" points="76.7629,-237.0492 83.3317,-245.3619 83.3805,-234.7672 76.7629,-237.0492"/>
</g>
<!-- Node19 -->
<g id="node4" class="node">
<title>Node19</title>
<g id="a_node4"><a xlink:href="../../df/d05/timer_8hpp.html" target="_top" xlink:title="timemory/timer.hpp">
<polygon fill="#ffffff" stroke="#000000" points="124,-187.5 124,-208.5 218,-208.5 218,-187.5 124,-187.5"/>
<text text-anchor="middle" x="171" y="-194.9" font-family="Helvetica,sans-Serif" font-size="12.00" fill="#000000">timemory/timer.hpp</text>
</a>
</g>
</g>
<!-- Node17&#45;&gt;Node19 -->
<g id="edge3" class="edge">
<title>Node17&#45;&gt;Node19</title>
<path fill="none" stroke="#191970" d="M110.8376,-239.5407C125.2383,-229.5973 143.1675,-217.2177 155.6908,-208.5707"/>
<polygon fill="#191970" stroke="#191970" points="108.6472,-236.7998 102.4069,-245.3619 112.6246,-242.5601 108.6472,-236.7998"/>
</g>
<!-- Node20 -->
<g id="node5" class="node">
<title>Node20</title>
<g id="a_node5"><a xlink:href="../../da/d04/manager_8hpp.html" target="_top" xlink:title="timemory/manager.hpp">
<polygon fill="#ffffff" stroke="#000000" points="207.5,-129.5 207.5,-150.5 316.5,-150.5 316.5,-129.5 207.5,-129.5"/>
<text text-anchor="middle" x="262" y="-136.9" font-family="Helvetica,sans-Serif" font-size="12.00" fill="#000000">timemory/manager.hpp</text>
</a>
</g>
</g>
<!-- Node19&#45;&gt;Node20 -->
<g id="edge4" class="edge">
<title>Node19&#45;&gt;Node20</title>
<path fill="none" stroke="#191970" d="M196.3835,-181.8215C212.0579,-171.8312 231.7201,-159.2993 245.415,-150.5707"/>
<polygon fill="#191970" stroke="#191970" points="194.2424,-179.0356 187.6908,-187.3619 198.0048,-184.9386 194.2424,-179.0356"/>
</g>
<!-- Node19&#45;&gt;Node24 -->
<g id="edge16" class="edge">
<title>Node19&#45;&gt;Node24</title>
<path fill="none" stroke="#191970" d="M157.7122,-178.6577C131.7244,-140.8287 74.9279,-58.1531 54.5035,-28.4224"/>
<polygon fill="#191970" stroke="#191970" points="155.0673,-180.9889 163.6146,-187.2495 160.837,-177.0252 155.0673,-180.9889"/>
</g>
<!-- Node28 -->
<g id="node13" class="node">
<title>Node28</title>
<g id="a_node13"><a xlink:href="../../dc/de5/timer_8cpp.html" target="_top" xlink:title="timer.cpp">
<polygon fill="#ffffff" stroke="#000000" points="58,-129.5 58,-150.5 112,-150.5 112,-129.5 58,-129.5"/>
<text text-anchor="middle" x="85" y="-136.9" font-family="Helvetica,sans-Serif" font-size="12.00" fill="#000000">timer.cpp</text>
</a>
</g>
</g>
<!-- Node19&#45;&gt;Node28 -->
<g id="edge17" class="edge">
<title>Node19&#45;&gt;Node28</title>
<path fill="none" stroke="#191970" d="M146.5949,-181.5407C131.8512,-171.5973 113.4952,-159.2177 100.6737,-150.5707"/>
<polygon fill="#191970" stroke="#191970" points="144.9785,-184.6722 155.2263,-187.3619 148.8925,-178.8687 144.9785,-184.6722"/>
</g>
<!-- Node21 -->
<g id="node6" class="node">
<title>Node21</title>
<g id="a_node6"><a xlink:href="../../d8/d07/auto__timer_8hpp.html" target="_top" xlink:title="timemory/auto_timer.hpp">
<polygon fill="#ffffff" stroke="#000000" points="244,-71.5 244,-92.5 360,-92.5 360,-71.5 244,-71.5"/>
<text text-anchor="middle" x="302" y="-78.9" font-family="Helvetica,sans-Serif" font-size="12.00" fill="#000000">timemory/auto_timer.hpp</text>
</a>
</g>
</g>
<!-- Node20&#45;&gt;Node21 -->
<g id="edge5" class="edge">
<title>Node20&#45;&gt;Node21</title>
<path fill="none" stroke="#191970" d="M275.1317,-120.9591C281.64,-111.522 289.2528,-100.4835 294.7099,-92.5707"/>
<polygon fill="#191970" stroke="#191970" points="272.1327,-119.1427 269.3366,-129.3619 277.8952,-123.1168 272.1327,-119.1427"/>
</g>
<!-- Node23 -->
<g id="node8" class="node">
<title>Node23</title>
<g id="a_node8"><a xlink:href="../../d0/db0/manager_8cpp.html" target="_top" xlink:title="manager.cpp">
<polygon fill="#ffffff" stroke="#000000" points="472.5,-7 472.5,-28 541.5,-28 541.5,-7 472.5,-7"/>
<text text-anchor="middle" x="507" y="-14.4" font-family="Helvetica,sans-Serif" font-size="12.00" fill="#000000">manager.cpp</text>
</a>
</g>
</g>
<!-- Node20&#45;&gt;Node23 -->
<g id="edge12" class="edge">
<title>Node20&#45;&gt;Node23</title>
<path fill="none" stroke="#191970" d="M297.2936,-125.4086C318.3232,-116.4895 345.4257,-104.5991 369,-93 412.8623,-71.4186 462.8551,-43.105 488.9606,-28.025"/>
<polygon fill="#191970" stroke="#191970" points="295.6538,-122.3015 287.7973,-129.4097 298.3717,-128.7523 295.6538,-122.3015"/>
</g>
<!-- Node20&#45;&gt;Node24 -->
<g id="edge13" class="edge">
<title>Node20&#45;&gt;Node24</title>
<path fill="none" stroke="#191970" d="M238.0513,-123.6728C216.4562,-109.1994 183.6329,-87.813 154,-71 125.6395,-54.9089 91.8207,-38.4325 69.9054,-28.0954"/>
<polygon fill="#191970" stroke="#191970" points="236.3283,-126.7322 246.5768,-129.4189 240.2406,-120.9276 236.3283,-126.7322"/>
</g>
<!-- Node25 -->
<g id="node10" class="node">
<title>Node25</title>
<g id="a_node10"><a xlink:href="../../d0/d90/ex1_2test__timing_8cpp.html" target="_top" xlink:title="examples/ex1/test_timing.cpp">
<polygon fill="#ffffff" stroke="#000000" points="559.5,-7 559.5,-28 694.5,-28 694.5,-7 559.5,-7"/>
<text text-anchor="middle" x="627" y="-14.4" font-family="Helvetica,sans-Serif" font-size="12.00" fill="#000000">examples/ex1/test_timing.cpp</text>
</a>
</g>
</g>
<!-- Node20&#45;&gt;Node25 -->
<g id="edge14" class="edge">
<title>Node20&#45;&gt;Node25</title>
<path fill="none" stroke="#191970" d="M303.7398,-126.2676C332.0448,-116.9349 370.2977,-104.2826 404,-93 472.6047,-70.0331 552.9455,-42.7329 595.9975,-28.0707"/>
<polygon fill="#191970" stroke="#191970" points="302.5687,-122.9683 294.1667,-129.4225 304.7598,-129.6166 302.5687,-122.9683"/>
</g>
<!-- Node26 -->
<g id="node11" class="node">
<title>Node26</title>
<g id="a_node11"><a xlink:href="../../dd/d0a/mpi__test__timing_8cpp.html" target="_top" xlink:title="examples/ex2/mpi_test\l_timing.cpp">
<polygon fill="#ffffff" stroke="#000000" points="97.5,-.5 97.5,-34.5 206.5,-34.5 206.5,-.5 97.5,-.5"/>
<text text-anchor="start" x="105.5" y="-20.9" font-family="Helvetica,sans-Serif" font-size="12.00" fill="#000000">examples/ex2/mpi_test</text>
<text text-anchor="middle" x="152" y="-7.9" font-family="Helvetica,sans-Serif" font-size="12.00" fill="#000000">_timing.cpp</text>
</a>
</g>
</g>
<!-- Node20&#45;&gt;Node26 -->
<g id="edge15" class="edge">
<title>Node20&#45;&gt;Node26</title>
<path fill="none" stroke="#191970" d="M245.4504,-121.5697C224.333,-98.0526 188.0816,-57.6817 167.487,-34.7469"/>
<polygon fill="#191970" stroke="#191970" points="242.9528,-124.0269 252.2382,-129.1289 248.1611,-119.35 242.9528,-124.0269"/>
</g>
<!-- Node22 -->
<g id="node7" class="node">
<title>Node22</title>
<g id="a_node7"><a xlink:href="../../d2/d80/auto__timer_8cpp.html" target="_top" xlink:title="auto_timer.cpp">
<polygon fill="#ffffff" stroke="#000000" points="225,-7 225,-28 301,-28 301,-7 225,-7"/>
<text text-anchor="middle" x="263" y="-14.4" font-family="Helvetica,sans-Serif" font-size="12.00" fill="#000000">auto_timer.cpp</text>
</a>
</g>
</g>
<!-- Node21&#45;&gt;Node22 -->
<g id="edge6" class="edge">
<title>Node21&#45;&gt;Node22</title>
<path fill="none" stroke="#191970" d="M290.3091,-62.6651C283.5271,-51.4487 275.2355,-37.7356 269.58,-28.3823"/>
<polygon fill="#191970" stroke="#191970" points="287.3906,-64.6028 295.5599,-71.3491 293.3808,-60.9808 287.3906,-64.6028"/>
</g>
<!-- Node21&#45;&gt;Node23 -->
<g id="edge7" class="edge">
<title>Node21&#45;&gt;Node23</title>
<path fill="none" stroke="#191970" d="M352.7075,-68.7491C384.8597,-59.9885 427.1828,-47.7937 464,-35 469.9384,-32.9365 476.2499,-30.5058 482.156,-28.1233"/>
<polygon fill="#191970" stroke="#191970" points="351.3858,-65.4807 342.6457,-71.4691 353.2126,-72.2381 351.3858,-65.4807"/>
</g>
<!-- Node21&#45;&gt;Node24 -->
<g id="edge8" class="edge">
<title>Node21&#45;&gt;Node24</title>
<path fill="none" stroke="#191970" d="M233.599,-70.3618C191.1578,-62.3115 135.7925,-50.2991 88,-35 81.9559,-33.0652 75.5772,-30.5744 69.6983,-28.0822"/>
<polygon fill="#191970" stroke="#191970" points="233.0738,-73.8242 243.5467,-72.2213 234.36,-66.9434 233.0738,-73.8242"/>
</g>
<!-- Node21&#45;&gt;Node25 -->
<g id="edge9" class="edge">
<title>Node21&#45;&gt;Node25</title>
<path fill="none" stroke="#191970" d="M370.3101,-69.8618C420.4235,-60.7734 490.0717,-47.7598 551,-35 561.2042,-32.863 572.1456,-30.4283 582.4576,-28.0684"/>
<polygon fill="#191970" stroke="#191970" points="369.4575,-66.4592 360.24,-71.683 370.7033,-73.3474 369.4575,-66.4592"/>
</g>
<!-- Node21&#45;&gt;Node26 -->
<g id="edge10" class="edge">
<title>Node21&#45;&gt;Node26</title>
<path fill="none" stroke="#191970" d="M268.3203,-67.5177C245.6044,-57.7499 215.5367,-44.8208 191.6622,-34.5547"/>
<polygon fill="#191970" stroke="#191970" points="266.9967,-70.7584 277.5661,-71.4934 269.762,-64.3277 266.9967,-70.7584"/>
</g>
<!-- Node27 -->
<g id="node12" class="node">
<title>Node27</title>
<g id="a_node12"><a xlink:href="../../d2/dc1/ex3_2test__timing_8cpp.html" target="_top" xlink:title="examples/ex3/test_timing.cpp">
<polygon fill="#ffffff" stroke="#000000" points="319.5,-7 319.5,-28 454.5,-28 454.5,-7 319.5,-7"/>
<text text-anchor="middle" x="387" y="-14.4" font-family="Helvetica,sans-Serif" font-size="12.00" fill="#000000">examples/ex3/test_timing.cpp</text>
</a>
</g>
</g>
<!-- Node21&#45;&gt;Node27 -->
<g id="edge11" class="edge">
<title>Node21&#45;&gt;Node27</title>
<path fill="none" stroke="#191970" d="M324.0517,-65.2666C339.4873,-53.5537 359.6476,-38.2556 372.9431,-28.1667"/>
<polygon fill="#191970" stroke="#191970" points="321.8865,-62.5161 316.036,-71.3491 326.1179,-68.0924 321.8865,-62.5161"/>
</g>
</g>
</svg>
