<?xml version="1.0" encoding="UTF-8" standalone="no"?>
<!DOCTYPE svg PUBLIC "-//W3C//DTD SVG 1.1//EN"
 "http://www.w3.org/Graphics/SVG/1.1/DTD/svg11.dtd">
<!-- Generated by graphviz version 2.40.1 (20161225.0304)
 -->
<!-- Title: source/timemory/rss.hpp Pages: 1 -->
<svg width="513pt" height="359pt"
 viewBox="0.00 0.00 512.50 359.00" xmlns="http://www.w3.org/2000/svg" xmlns:xlink="http://www.w3.org/1999/xlink">
<g id="graph0" class="graph" transform="scale(1 1) rotate(0) translate(4 355)">
<title>source/timemory/rss.hpp</title>
<polygon fill="#ffffff" stroke="transparent" points="-4,4 -4,-355 508.5,-355 508.5,4 -4,4"/>
<!-- Node16 -->
<g id="node1" class="node">
<title>Node16</title>
<polygon fill="#bfbfbf" stroke="#000000" points="377,-329.5 377,-350.5 492,-350.5 492,-329.5 377,-329.5"/>
<text text-anchor="middle" x="434.5" y="-336.9" font-family="Helvetica,sans-Serif" font-size="12.00" fill="#000000">source/timemory/rss.hpp</text>
</g>
<!-- Node17 -->
<g id="node2" class="node">
<title>Node17</title>
<g id="a_node2"><a xlink:href="../../d6/d01/base__timer_8hpp.html" target="_top" xlink:title="source/timemory/base\l_timer.hpp">
<polygon fill="#ffffff" stroke="#000000" points="337,-258.5 337,-292.5 442,-292.5 442,-258.5 337,-258.5"/>
<text text-anchor="start" x="345" y="-278.9" font-family="Helvetica,sans-Serif" font-size="12.00" fill="#000000">source/timemory/base</text>
<text text-anchor="middle" x="389.5" y="-265.9" font-family="Helvetica,sans-Serif" font-size="12.00" fill="#000000">_timer.hpp</text>
</a>
</g>
</g>
<!-- Node16&#45;&gt;Node17 -->
<g id="edge1" class="edge">
<title>Node16&#45;&gt;Node17</title>
<path fill="none" stroke="#191970" d="M421.2926,-321.0694C415.0364,-312.1022 407.6174,-301.4683 401.5204,-292.7292"/>
<polygon fill="#191970" stroke="#191970" points="418.4769,-323.1505 427.0692,-329.3491 424.2178,-319.1452 418.4769,-323.1505"/>
</g>
<!-- Node22 -->
<g id="node7" class="node">
<title>Node22</title>
<g id="a_node7"><a xlink:href="../../d2/dfd/timemory_8cc.html" target="_top" xlink:title="source/timemory.cc">
<polygon fill="#ffffff" stroke="#000000" points="166,-.5 166,-21.5 261,-21.5 261,-.5 166,-.5"/>
<text text-anchor="middle" x="213.5" y="-7.9" font-family="Helvetica,sans-Serif" font-size="12.00" fill="#000000">source/timemory.cc</text>
</a>
</g>
</g>
<!-- Node16&#45;&gt;Node22 -->
<g id="edge13" class="edge">
<title>Node16&#45;&gt;Node22</title>
<path fill="none" stroke="#191970" d="M451.9313,-321.8684C472.6636,-298.3175 504.5,-254.9909 504.5,-211 504.5,-211 504.5,-211 504.5,-146.5 504.5,-92.5123 337.815,-42.6298 256.7514,-21.5627"/>
<polygon fill="#191970" stroke="#191970" points="449.2721,-319.5903 445.1315,-329.3426 454.4499,-324.301 449.2721,-319.5903"/>
</g>
<!-- Node18 -->
<g id="node3" class="node">
<title>Node18</title>
<g id="a_node3"><a xlink:href="../../dd/d84/base__timer_8cpp.html" target="_top" xlink:title="source/base_timer.cpp">
<polygon fill="#ffffff" stroke="#000000" points="201.5,-200.5 201.5,-221.5 309.5,-221.5 309.5,-200.5 201.5,-200.5"/>
<text text-anchor="middle" x="255.5" y="-207.9" font-family="Helvetica,sans-Serif" font-size="12.00" fill="#000000">source/base_timer.cpp</text>
</a>
</g>
</g>
<!-- Node17&#45;&gt;Node18 -->
<g id="edge2" class="edge">
<title>Node17&#45;&gt;Node18</title>
<path fill="none" stroke="#191970" d="M344.8145,-253.9909C322.123,-243.0685 295.5763,-230.2905 277.3569,-221.5206"/>
<polygon fill="#191970" stroke="#191970" points="343.4137,-257.201 353.9423,-258.3845 346.4498,-250.8936 343.4137,-257.201"/>
</g>
<!-- Node19 -->
<g id="node4" class="node">
<title>Node19</title>
<g id="a_node4"><a xlink:href="../../df/d05/timer_8hpp.html" target="_top" xlink:title="source/timemory/timer.hpp">
<polygon fill="#ffffff" stroke="#000000" points="328,-200.5 328,-221.5 451,-221.5 451,-200.5 328,-200.5"/>
<text text-anchor="middle" x="389.5" y="-207.9" font-family="Helvetica,sans-Serif" font-size="12.00" fill="#000000">source/timemory/timer.hpp</text>
</a>
</g>
</g>
<!-- Node17&#45;&gt;Node19 -->
<g id="edge3" class="edge">
<title>Node17&#45;&gt;Node19</title>
<path fill="none" stroke="#191970" d="M389.5,-248.0864C389.5,-238.7551 389.5,-228.8711 389.5,-221.6554"/>
<polygon fill="#191970" stroke="#191970" points="386.0001,-248.2151 389.5,-258.2152 393.0001,-248.2152 386.0001,-248.2151"/>
</g>
<!-- Node20 -->
<g id="node5" class="node">
<title>Node20</title>
<g id="a_node5"><a xlink:href="../../df/df2/timing__manager_8hpp.html" target="_top" xlink:title="source/timemory/timing\l_manager.hpp">
<polygon fill="#ffffff" stroke="#000000" points="125.5,-129.5 125.5,-163.5 235.5,-163.5 235.5,-129.5 125.5,-129.5"/>
<text text-anchor="start" x="133.5" y="-149.9" font-family="Helvetica,sans-Serif" font-size="12.00" fill="#000000">source/timemory/timing</text>
<text text-anchor="middle" x="180.5" y="-136.9" font-family="Helvetica,sans-Serif" font-size="12.00" fill="#000000">_manager.hpp</text>
</a>
</g>
</g>
<!-- Node19&#45;&gt;Node20 -->
<g id="edge4" class="edge">
<title>Node19&#45;&gt;Node20</title>
<path fill="none" stroke="#191970" d="M345.5096,-197.424C313.5489,-187.5606 270.0674,-174.1416 235.7626,-163.5547"/>
<polygon fill="#191970" stroke="#191970" points="344.8679,-200.8888 355.4554,-200.4934 346.9322,-194.2001 344.8679,-200.8888"/>
</g>
<!-- Node19&#45;&gt;Node22 -->
<g id="edge11" class="edge">
<title>Node19&#45;&gt;Node22</title>
<path fill="none" stroke="#191970" d="M385.9499,-190.2656C379.208,-153.1092 363.5972,-77.2562 345.5,-58 323.593,-34.6899 289.3626,-22.926 261.2496,-16.9968"/>
<polygon fill="#191970" stroke="#191970" points="382.5627,-191.2111 387.7504,-200.449 389.4558,-189.9924 382.5627,-191.2111"/>
</g>
<!-- Node25 -->
<g id="node10" class="node">
<title>Node25</title>
<g id="a_node10"><a xlink:href="../../dc/de5/timer_8cpp.html" target="_top" xlink:title="source/timer.cpp">
<polygon fill="#ffffff" stroke="#000000" points="393,-136 393,-157 476,-157 476,-136 393,-136"/>
<text text-anchor="middle" x="434.5" y="-143.4" font-family="Helvetica,sans-Serif" font-size="12.00" fill="#000000">source/timer.cpp</text>
</a>
</g>
</g>
<!-- Node19&#45;&gt;Node25 -->
<g id="edge12" class="edge">
<title>Node19&#45;&gt;Node25</title>
<path fill="none" stroke="#191970" d="M402.7552,-192.0009C410.6232,-180.7234 420.3169,-166.8291 426.9077,-157.3823"/>
<polygon fill="#191970" stroke="#191970" points="399.7822,-190.1452 396.9308,-200.3491 405.5231,-194.1505 399.7822,-190.1452"/>
</g>
<!-- Node21 -->
<g id="node6" class="node">
<title>Node21</title>
<g id="a_node6"><a xlink:href="../../d8/d07/auto__timer_8hpp.html" target="_top" xlink:title="source/timemory/auto\l_timer.hpp">
<polygon fill="#ffffff" stroke="#000000" points="49,-58.5 49,-92.5 152,-92.5 152,-58.5 49,-58.5"/>
<text text-anchor="start" x="57" y="-78.9" font-family="Helvetica,sans-Serif" font-size="12.00" fill="#000000">source/timemory/auto</text>
<text text-anchor="middle" x="100.5" y="-65.9" font-family="Helvetica,sans-Serif" font-size="12.00" fill="#000000">_timer.hpp</text>
</a>
</g>
</g>
<!-- Node20&#45;&gt;Node21 -->
<g id="edge5" class="edge">
<title>Node20&#45;&gt;Node21</title>
<path fill="none" stroke="#191970" d="M153.3915,-122.4412C142.3231,-112.618 129.7801,-101.4861 119.6874,-92.5288"/>
<polygon fill="#191970" stroke="#191970" points="151.3317,-125.2928 161.1342,-129.3129 155.9782,-120.0573 151.3317,-125.2928"/>
</g>
<!-- Node20&#45;&gt;Node22 -->
<g id="edge8" class="edge">
<title>Node20&#45;&gt;Node22</title>
<path fill="none" stroke="#191970" d="M185.7637,-119.32C189.3076,-101.7464 194.2741,-78.4243 199.5,-58 202.7079,-45.4626 207.042,-31.244 210.034,-21.7606"/>
<polygon fill="#191970" stroke="#191970" points="182.2686,-118.9515 183.7514,-129.442 189.1342,-120.3164 182.2686,-118.9515"/>
</g>
<!-- Node23 -->
<g id="node8" class="node">
<title>Node23</title>
<g id="a_node8"><a xlink:href="../../d6/d8e/test__timing_8cpp.html" target="_top" xlink:title="examples/ex1/test_timing.cpp">
<polygon fill="#ffffff" stroke="#000000" points="0,-.5 0,-21.5 135,-21.5 135,-.5 0,-.5"/>
<text text-anchor="middle" x="67.5" y="-7.9" font-family="Helvetica,sans-Serif" font-size="12.00" fill="#000000">examples/ex1/test_timing.cpp</text>
</a>
</g>
</g>
<!-- Node20&#45;&gt;Node23 -->
<g id="edge10" class="edge">
<title>Node20&#45;&gt;Node23</title>
<path fill="none" stroke="#191970" d="M115.2218,-129.5114C82.909,-119.6468 48.833,-106.5234 39.5,-93 23.8635,-70.3428 44.8904,-38.1762 58.1537,-21.6735"/>
<polygon fill="#191970" stroke="#191970" points="114.5813,-132.9722 125.164,-132.4651 116.5748,-126.2621 114.5813,-132.9722"/>
</g>
<!-- Node24 -->
<g id="node9" class="node">
<title>Node24</title>
<g id="a_node9"><a xlink:href="../../d9/dad/timing__manager_8cpp.html" target="_top" xlink:title="source/timing_manager.cpp">
<polygon fill="#ffffff" stroke="#000000" points="208.5,-65 208.5,-86 336.5,-86 336.5,-65 208.5,-65"/>
<text text-anchor="middle" x="272.5" y="-72.4" font-family="Helvetica,sans-Serif" font-size="12.00" fill="#000000">source/timing_manager.cpp</text>
</a>
</g>
</g>
<!-- Node20&#45;&gt;Node24 -->
<g id="edge9" class="edge">
<title>Node20&#45;&gt;Node24</title>
<path fill="none" stroke="#191970" d="M210.9028,-123.037C227.056,-110.5709 246.1199,-95.8586 258.7142,-86.139"/>
<polygon fill="#191970" stroke="#191970" points="208.5489,-120.4324 202.7706,-129.3129 212.8257,-125.9741 208.5489,-120.4324"/>
</g>
<!-- Node21&#45;&gt;Node22 -->
<g id="edge6" class="edge">
<title>Node21&#45;&gt;Node22</title>
<path fill="none" stroke="#191970" d="M139.2061,-53.4067C158.1117,-42.6155 179.9774,-30.1346 195.0685,-21.5206"/>
<polygon fill="#191970" stroke="#191970" points="137.435,-50.3875 130.4853,-58.3845 140.9051,-56.4669 137.435,-50.3875"/>
</g>
<!-- Node21&#45;&gt;Node23 -->
<g id="edge7" class="edge">
<title>Node21&#45;&gt;Node23</title>
<path fill="none" stroke="#191970" d="M87.0888,-49.2871C82.1378,-39.6103 76.8021,-29.1814 72.9516,-21.6554"/>
<polygon fill="#191970" stroke="#191970" points="83.9859,-50.9069 91.6566,-58.2152 90.2177,-47.7185 83.9859,-50.9069"/>
</g>
</g>
</svg>
