<?xml version="1.0" encoding="UTF-8" standalone="no"?>
<!DOCTYPE svg PUBLIC "-//W3C//DTD SVG 1.1//EN"
 "http://www.w3.org/Graphics/SVG/1.1/DTD/svg11.dtd">
<!-- Generated by graphviz version 2.40.1 (20161225.0304)
 -->
<!-- Title: timemory/rss.hpp Pages: 1 -->
<svg width="545pt" height="320pt"
 viewBox="0.00 0.00 544.50 320.00" xmlns="http://www.w3.org/2000/svg" xmlns:xlink="http://www.w3.org/1999/xlink">
<g id="graph0" class="graph" transform="scale(1 1) rotate(0) translate(4 316)">
<title>timemory/rss.hpp</title>
<polygon fill="#ffffff" stroke="transparent" points="-4,4 -4,-316 540.5,-316 540.5,4 -4,4"/>
<!-- Node16 -->
<g id="node1" class="node">
<title>Node16</title>
<polygon fill="#bfbfbf" stroke="#000000" points="449.5,-290.5 449.5,-311.5 535.5,-311.5 535.5,-290.5 449.5,-290.5"/>
<text text-anchor="middle" x="492.5" y="-297.9" font-family="Helvetica,sans-Serif" font-size="12.00" fill="#000000">timemory/rss.hpp</text>
</g>
<!-- Node17 -->
<g id="node2" class="node">
<title>Node17</title>
<g id="a_node2"><a xlink:href="../../d6/d01/base__timer_8hpp.html" target="_top" xlink:title="timemory/base_timer.hpp">
<polygon fill="#ffffff" stroke="#000000" points="390.5,-232.5 390.5,-253.5 508.5,-253.5 508.5,-232.5 390.5,-232.5"/>
<text text-anchor="middle" x="449.5" y="-239.9" font-family="Helvetica,sans-Serif" font-size="12.00" fill="#000000">timemory/base_timer.hpp</text>
</a>
</g>
</g>
<!-- Node16&#45;&gt;Node17 -->
<g id="edge1" class="edge">
<title>Node16&#45;&gt;Node17</title>
<path fill="none" stroke="#191970" d="M478.5994,-282.2504C471.556,-272.75 463.2638,-261.5651 457.3369,-253.5707"/>
<polygon fill="#191970" stroke="#191970" points="475.8459,-284.4132 484.6131,-290.3619 481.4691,-280.2443 475.8459,-284.4132"/>
</g>
<!-- Node24 -->
<g id="node9" class="node">
<title>Node24</title>
<g id="a_node9"><a xlink:href="../../d2/dfd/timemory_8cc.html" target="_top" xlink:title="timemory.cc">
<polygon fill="#ffffff" stroke="#000000" points="364,-.5 364,-21.5 429,-21.5 429,-.5 364,-.5"/>
<text text-anchor="middle" x="396.5" y="-7.9" font-family="Helvetica,sans-Serif" font-size="12.00" fill="#000000">timemory.cc</text>
</a>
</g>
</g>
<!-- Node16&#45;&gt;Node24 -->
<g id="edge15" class="edge">
<title>Node16&#45;&gt;Node24</title>
<path fill="none" stroke="#191970" d="M504.9019,-281.48C517.9147,-259.0889 536.5,-220.8363 536.5,-185 536.5,-185 536.5,-185 536.5,-127 536.5,-71.446 470.3281,-37.4506 428.9707,-21.6287"/>
<polygon fill="#191970" stroke="#191970" points="501.7382,-279.9487 499.5694,-290.3192 507.7319,-283.5647 501.7382,-279.9487"/>
</g>
<!-- Node18 -->
<g id="node3" class="node">
<title>Node18</title>
<g id="a_node3"><a xlink:href="../../dd/d84/base__timer_8cpp.html" target="_top" xlink:title="base_timer.cpp">
<polygon fill="#ffffff" stroke="#000000" points="430.5,-174.5 430.5,-195.5 508.5,-195.5 508.5,-174.5 430.5,-174.5"/>
<text text-anchor="middle" x="469.5" y="-181.9" font-family="Helvetica,sans-Serif" font-size="12.00" fill="#000000">base_timer.cpp</text>
</a>
</g>
</g>
<!-- Node17&#45;&gt;Node18 -->
<g id="edge2" class="edge">
<title>Node17&#45;&gt;Node18</title>
<path fill="none" stroke="#191970" d="M456.4711,-222.7838C459.6321,-213.617 463.2389,-203.1572 465.8549,-195.5707"/>
<polygon fill="#191970" stroke="#191970" points="453.1195,-221.7672 453.1683,-232.3619 459.7371,-224.0492 453.1195,-221.7672"/>
</g>
<!-- Node19 -->
<g id="node4" class="node">
<title>Node19</title>
<g id="a_node4"><a xlink:href="../../df/d05/timer_8hpp.html" target="_top" xlink:title="timemory/timer.hpp">
<polygon fill="#ffffff" stroke="#000000" points="318.5,-174.5 318.5,-195.5 412.5,-195.5 412.5,-174.5 318.5,-174.5"/>
<text text-anchor="middle" x="365.5" y="-181.9" font-family="Helvetica,sans-Serif" font-size="12.00" fill="#000000">timemory/timer.hpp</text>
</a>
</g>
</g>
<!-- Node17&#45;&gt;Node19 -->
<g id="edge3" class="edge">
<title>Node17&#45;&gt;Node19</title>
<path fill="none" stroke="#191970" d="M425.6624,-226.5407C411.2617,-216.5973 393.3325,-204.2177 380.8092,-195.5707"/>
<polygon fill="#191970" stroke="#191970" points="423.8754,-229.5601 434.0931,-232.3619 427.8528,-223.7998 423.8754,-229.5601"/>
</g>
<!-- Node20 -->
<g id="node5" class="node">
<title>Node20</title>
<g id="a_node5"><a xlink:href="../../df/df2/timing__manager_8hpp.html" target="_top" xlink:title="timemory/timing_manager.hpp">
<polygon fill="#ffffff" stroke="#000000" points="203.5,-116.5 203.5,-137.5 341.5,-137.5 341.5,-116.5 203.5,-116.5"/>
<text text-anchor="middle" x="272.5" y="-123.9" font-family="Helvetica,sans-Serif" font-size="12.00" fill="#000000">timemory/timing_manager.hpp</text>
</a>
</g>
</g>
<!-- Node19&#45;&gt;Node20 -->
<g id="edge4" class="edge">
<title>Node19&#45;&gt;Node20</title>
<path fill="none" stroke="#191970" d="M339.5586,-168.8215C323.5398,-158.8312 303.4454,-146.2993 289.4495,-137.5707"/>
<polygon fill="#191970" stroke="#191970" points="338.1051,-172.0399 348.4424,-174.3619 341.8094,-166.1003 338.1051,-172.0399"/>
</g>
<!-- Node19&#45;&gt;Node24 -->
<g id="edge13" class="edge">
<title>Node19&#45;&gt;Node24</title>
<path fill="none" stroke="#191970" d="M369.2057,-164.2005C375.8311,-127.0126 389.4875,-50.3605 394.5531,-21.9277"/>
<polygon fill="#191970" stroke="#191970" points="365.7009,-163.9185 367.3925,-174.3774 372.5923,-165.1464 365.7009,-163.9185"/>
</g>
<!-- Node26 -->
<g id="node11" class="node">
<title>Node26</title>
<g id="a_node11"><a xlink:href="../../dc/de5/timer_8cpp.html" target="_top" xlink:title="timer.cpp">
<polygon fill="#ffffff" stroke="#000000" points="424.5,-116.5 424.5,-137.5 478.5,-137.5 478.5,-116.5 424.5,-116.5"/>
<text text-anchor="middle" x="451.5" y="-123.9" font-family="Helvetica,sans-Serif" font-size="12.00" fill="#000000">timer.cpp</text>
</a>
</g>
</g>
<!-- Node19&#45;&gt;Node26 -->
<g id="edge14" class="edge">
<title>Node19&#45;&gt;Node26</title>
<path fill="none" stroke="#191970" d="M389.9051,-168.5407C404.6488,-158.5973 423.0048,-146.2177 435.8263,-137.5707"/>
<polygon fill="#191970" stroke="#191970" points="387.6075,-165.8687 381.2737,-174.3619 391.5215,-171.6722 387.6075,-165.8687"/>
</g>
<!-- Node21 -->
<g id="node6" class="node">
<title>Node21</title>
<g id="a_node6"><a xlink:href="../../d6/d8e/test__timing_8cpp.html" target="_top" xlink:title="examples/ex1/test_timing.cpp">
<polygon fill="#ffffff" stroke="#000000" points="0,-.5 0,-21.5 135,-21.5 135,-.5 0,-.5"/>
<text text-anchor="middle" x="67.5" y="-7.9" font-family="Helvetica,sans-Serif" font-size="12.00" fill="#000000">examples/ex1/test_timing.cpp</text>
</a>
</g>
</g>
<!-- Node20&#45;&gt;Node21 -->
<g id="edge5" class="edge">
<title>Node20&#45;&gt;Node21</title>
<path fill="none" stroke="#191970" d="M244.6113,-111.2191C202.0942,-87.1606 122.202,-41.9533 86.0766,-21.5117"/>
<polygon fill="#191970" stroke="#191970" points="243.1546,-114.4162 253.5815,-116.2949 246.602,-108.324 243.1546,-114.4162"/>
</g>
<!-- Node22 -->
<g id="node7" class="node">
<title>Node22</title>
<g id="a_node7"><a xlink:href="../../d8/d07/auto__timer_8hpp.html" target="_top" xlink:title="timemory/auto_timer.hpp">
<polygon fill="#ffffff" stroke="#000000" points="214.5,-58.5 214.5,-79.5 330.5,-79.5 330.5,-58.5 214.5,-58.5"/>
<text text-anchor="middle" x="272.5" y="-65.9" font-family="Helvetica,sans-Serif" font-size="12.00" fill="#000000">timemory/auto_timer.hpp</text>
</a>
</g>
</g>
<!-- Node20&#45;&gt;Node22 -->
<g id="edge6" class="edge">
<title>Node20&#45;&gt;Node22</title>
<path fill="none" stroke="#191970" d="M272.5,-106.1906C272.5,-97.1684 272.5,-86.9941 272.5,-79.5707"/>
<polygon fill="#191970" stroke="#191970" points="269.0001,-106.3619 272.5,-116.3619 276.0001,-106.3619 269.0001,-106.3619"/>
</g>
<!-- Node20&#45;&gt;Node24 -->
<g id="edge11" class="edge">
<title>Node20&#45;&gt;Node24</title>
<path fill="none" stroke="#191970" d="M298.717,-110.9787C311.6196,-102.5194 327.0373,-91.5184 339.5,-80 359.583,-61.4388 378.9933,-35.786 389.1635,-21.5656"/>
<polygon fill="#191970" stroke="#191970" points="296.7834,-108.0608 290.2535,-116.4041 300.5612,-113.9539 296.7834,-108.0608"/>
</g>
<!-- Node25 -->
<g id="node10" class="node">
<title>Node25</title>
<g id="a_node10"><a xlink:href="../../d9/dad/timing__manager_8cpp.html" target="_top" xlink:title="timing_manager.cpp">
<polygon fill="#ffffff" stroke="#000000" points="153.5,-.5 153.5,-21.5 251.5,-21.5 251.5,-.5 153.5,-.5"/>
<text text-anchor="middle" x="202.5" y="-7.9" font-family="Helvetica,sans-Serif" font-size="12.00" fill="#000000">timing_manager.cpp</text>
</a>
</g>
</g>
<!-- Node20&#45;&gt;Node25 -->
<g id="edge12" class="edge">
<title>Node20&#45;&gt;Node25</title>
<path fill="none" stroke="#191970" d="M238.2626,-111.3236C225.7146,-103.7356 212.8072,-93.3358 205.5,-80 195.3592,-61.4929 197.7441,-35.8198 200.2249,-21.5814"/>
<polygon fill="#191970" stroke="#191970" points="236.8151,-114.5243 247.2508,-116.3536 240.2336,-108.4157 236.8151,-114.5243"/>
</g>
<!-- Node22&#45;&gt;Node21 -->
<g id="edge7" class="edge">
<title>Node22&#45;&gt;Node21</title>
<path fill="none" stroke="#191970" d="M225.4191,-55.6795C188.7575,-45.307 138.5705,-31.1078 104.6936,-21.5231"/>
<polygon fill="#191970" stroke="#191970" points="224.8009,-59.142 235.376,-58.4966 226.7066,-52.4064 224.8009,-59.142"/>
</g>
<!-- Node23 -->
<g id="node8" class="node">
<title>Node23</title>
<g id="a_node8"><a xlink:href="../../d2/d80/auto__timer_8cpp.html" target="_top" xlink:title="auto_timer.cpp">
<polygon fill="#ffffff" stroke="#000000" points="269.5,-.5 269.5,-21.5 345.5,-21.5 345.5,-.5 269.5,-.5"/>
<text text-anchor="middle" x="307.5" y="-7.9" font-family="Helvetica,sans-Serif" font-size="12.00" fill="#000000">auto_timer.cpp</text>
</a>
</g>
</g>
<!-- Node22&#45;&gt;Node23 -->
<g id="edge8" class="edge">
<title>Node22&#45;&gt;Node23</title>
<path fill="none" stroke="#191970" d="M284.1667,-49.6667C289.8221,-40.2948 296.3954,-29.4019 301.1212,-21.5707"/>
<polygon fill="#191970" stroke="#191970" points="281.0896,-47.9917 278.9195,-58.3619 287.0829,-51.6084 281.0896,-47.9917"/>
</g>
<!-- Node22&#45;&gt;Node24 -->
<g id="edge9" class="edge">
<title>Node22&#45;&gt;Node24</title>
<path fill="none" stroke="#191970" d="M304.1278,-54.2064C325.882,-44.031 354.2616,-30.7567 373.7926,-21.6212"/>
<polygon fill="#191970" stroke="#191970" points="302.5307,-51.0894 294.9555,-58.4966 305.4965,-57.4301 302.5307,-51.0894"/>
</g>
<!-- Node22&#45;&gt;Node25 -->
<g id="edge10" class="edge">
<title>Node22&#45;&gt;Node25</title>
<path fill="none" stroke="#191970" d="M251.953,-51.9753C240.0725,-42.1315 225.4969,-30.0545 215.2577,-21.5707"/>
<polygon fill="#191970" stroke="#191970" points="249.7276,-54.6768 259.6609,-58.3619 254.1938,-49.2866 249.7276,-54.6768"/>
</g>
</g>
</svg>
