<?xml version="1.0" encoding="UTF-8" standalone="no"?>
<!DOCTYPE svg PUBLIC "-//W3C//DTD SVG 1.1//EN"
 "http://www.w3.org/Graphics/SVG/1.1/DTD/svg11.dtd">
<!-- Generated by graphviz version 2.40.1 (20161225.0304)
 -->
<!-- Title: timemory/rss.hpp Pages: 1 -->
<!--zoomable 333 -->
<svg id="main" version="1.1" xmlns="http://www.w3.org/2000/svg" xmlns:xlink="http://www.w3.org/1999/xlink" xml:space="preserve" onload="init(evt)">
<style type="text/css"><![CDATA[
.edge:hover path { stroke: red; }
.edge:hover polygon { stroke: red; fill: red; }
]]></style>
<script type="text/javascript"><![CDATA[
var edges = document.getElementsByTagName('g');
if (edges && edges.length) {
  for (var i=0;i<edges.length;i++) {
    if (edges[i].id.substr(0,4)=='edge') {
      edges[i].setAttribute('class','edge');
    }
  }
}
]]></script>
        <defs>
                <circle id="rim" cx="0" cy="0" r="7"/>
                <circle id="rim2" cx="0" cy="0" r="3.5"/>
                <g id="zoomPlus">
                        <use xlink:href="#rim" fill="#404040">
                                <set attributeName="fill" to="#808080" begin="zoomplus.mouseover" end="zoomplus.mouseout"/>
                        </use>
                        <path d="M-4,0h8M0,-4v8" fill="none" stroke="white" stroke-width="1.5" pointer-events="none"/>
                </g>
                <g id="zoomMin">
                        <use xlink:href="#rim" fill="#404040">
                                <set attributeName="fill" to="#808080" begin="zoomminus.mouseover" end="zoomminus.mouseout"/>
                        </use>
                        <path d="M-4,0h8" fill="none" stroke="white" stroke-width="1.5" pointer-events="none"/>
                </g>
                <g id="dirArrow">
                        <path fill="none" stroke="white" stroke-width="1.5" d="M0,-3.0v7 M-2.5,-0.5L0,-3.0L2.5,-0.5"/>
                </g>
               <g id="resetDef">
                       <use xlink:href="#rim2" fill="#404040">
                               <set attributeName="fill" to="#808080" begin="reset.mouseover" end="reset.mouseout"/>
                       </use>
               </g>
        </defs>

<script type="text/javascript">
var viewWidth = 717;
var viewHeight = 333;
var sectionId = 'dynsection-1';
</script>
<script xlink:href="../../svgpan.js"/>
<svg id="graph" class="graph">
<g id="viewport">
<title>timemory/rss.hpp</title>
<polygon fill="#ffffff" stroke="transparent" points="-4,4 -4,-329 713,-329 713,4 -4,4"/>
<!-- Node16 -->
<g id="node1" class="node">
<title>Node16</title>
<polygon fill="#bfbfbf" stroke="#000000" points="592.5,-303.5 592.5,-324.5 678.5,-324.5 678.5,-303.5 592.5,-303.5"/>
<text text-anchor="middle" x="635.5" y="-310.9" font-family="Helvetica,sans-Serif" font-size="12.00" fill="#000000">timemory/rss.hpp</text>
</g>
<!-- Node17 -->
<g id="node2" class="node">
<title>Node17</title>
<g id="a_node2"><a xlink:href="../../d6/d01/base__timer_8hpp.html" target="_top" xlink:title="timemory/base_timer.hpp">
<polygon fill="#ffffff" stroke="#000000" points="533.5,-245.5 533.5,-266.5 651.5,-266.5 651.5,-245.5 533.5,-245.5"/>
<text text-anchor="middle" x="592.5" y="-252.9" font-family="Helvetica,sans-Serif" font-size="12.00" fill="#000000">timemory/base_timer.hpp</text>
</a>
</g>
</g>
<!-- Node16&#45;&gt;Node17 -->
<g id="edge1" class="edge">
<title>Node16&#45;&gt;Node17</title>
<path fill="none" stroke="#191970" d="M621.5994,-295.2504C614.556,-285.75 606.2638,-274.5651 600.3369,-266.5707"/>
<polygon fill="#191970" stroke="#191970" points="618.8459,-297.4132 627.6131,-303.3619 624.4691,-293.2443 618.8459,-297.4132"/>
</g>
<!-- Node26 -->
<g id="node11" class="node">
<title>Node26</title>
<g id="a_node11"><a xlink:href="../../d2/dfd/timemory_8cc.html" target="_top" xlink:title="timemory.cc">
<polygon fill="#ffffff" stroke="#000000" points="644,-7 644,-28 709,-28 709,-7 644,-7"/>
<text text-anchor="middle" x="676.5" y="-14.4" font-family="Helvetica,sans-Serif" font-size="12.00" fill="#000000">timemory.cc</text>
</a>
</g>
</g>
<!-- Node16&#45;&gt;Node26 -->
<g id="edge19" class="edge">
<title>Node16&#45;&gt;Node26</title>
<path fill="none" stroke="#191970" d="M647.9019,-294.48C660.9147,-272.0889 679.5,-233.8363 679.5,-198 679.5,-198 679.5,-198 679.5,-140 679.5,-98.7289 677.7772,-49.6601 676.9427,-28.3131"/>
<polygon fill="#191970" stroke="#191970" points="644.7382,-292.9487 642.5694,-303.3192 650.7319,-296.5647 644.7382,-292.9487"/>
</g>
<!-- Node18 -->
<g id="node3" class="node">
<title>Node18</title>
<g id="a_node3"><a xlink:href="../../dd/d84/base__timer_8cpp.html" target="_top" xlink:title="base_timer.cpp">
<polygon fill="#ffffff" stroke="#000000" points="573.5,-187.5 573.5,-208.5 651.5,-208.5 651.5,-187.5 573.5,-187.5"/>
<text text-anchor="middle" x="612.5" y="-194.9" font-family="Helvetica,sans-Serif" font-size="12.00" fill="#000000">base_timer.cpp</text>
</a>
</g>
</g>
<!-- Node17&#45;&gt;Node18 -->
<g id="edge2" class="edge">
<title>Node17&#45;&gt;Node18</title>
<path fill="none" stroke="#191970" d="M599.4711,-235.7838C602.6321,-226.617 606.2389,-216.1572 608.8549,-208.5707"/>
<polygon fill="#191970" stroke="#191970" points="596.1195,-234.7672 596.1683,-245.3619 602.7371,-237.0492 596.1195,-234.7672"/>
</g>
<!-- Node19 -->
<g id="node4" class="node">
<title>Node19</title>
<g id="a_node4"><a xlink:href="../../df/d05/timer_8hpp.html" target="_top" xlink:title="timemory/timer.hpp">
<polygon fill="#ffffff" stroke="#000000" points="461.5,-187.5 461.5,-208.5 555.5,-208.5 555.5,-187.5 461.5,-187.5"/>
<text text-anchor="middle" x="508.5" y="-194.9" font-family="Helvetica,sans-Serif" font-size="12.00" fill="#000000">timemory/timer.hpp</text>
</a>
</g>
</g>
<!-- Node17&#45;&gt;Node19 -->
<g id="edge3" class="edge">
<title>Node17&#45;&gt;Node19</title>
<path fill="none" stroke="#191970" d="M568.6624,-239.5407C554.2617,-229.5973 536.3325,-217.2177 523.8092,-208.5707"/>
<polygon fill="#191970" stroke="#191970" points="566.8754,-242.5601 577.0931,-245.3619 570.8528,-236.7998 566.8754,-242.5601"/>
</g>
<!-- Node20 -->
<g id="node5" class="node">
<title>Node20</title>
<g id="a_node5"><a xlink:href="../../df/df2/timing__manager_8hpp.html" target="_top" xlink:title="timemory/timing_manager.hpp">
<polygon fill="#ffffff" stroke="#000000" points="332.5,-129.5 332.5,-150.5 470.5,-150.5 470.5,-129.5 332.5,-129.5"/>
<text text-anchor="middle" x="401.5" y="-136.9" font-family="Helvetica,sans-Serif" font-size="12.00" fill="#000000">timemory/timing_manager.hpp</text>
</a>
</g>
</g>
<!-- Node19&#45;&gt;Node20 -->
<g id="edge4" class="edge">
<title>Node19&#45;&gt;Node20</title>
<path fill="none" stroke="#191970" d="M479.9374,-182.5175C461.3073,-172.4189 437.4801,-159.5032 421.001,-150.5707"/>
<polygon fill="#191970" stroke="#191970" points="478.4151,-185.6734 488.8746,-187.3619 481.751,-179.5194 478.4151,-185.6734"/>
</g>
<!-- Node19&#45;&gt;Node26 -->
<g id="edge17" class="edge">
<title>Node19&#45;&gt;Node26</title>
<path fill="none" stroke="#191970" d="M525.6167,-179.6097C560.4043,-142.2337 638.4277,-58.4051 666.334,-28.4224"/>
<polygon fill="#191970" stroke="#191970" points="522.7571,-177.5449 518.5061,-187.2495 527.8811,-182.314 522.7571,-177.5449"/>
</g>
<!-- Node28 -->
<g id="node13" class="node">
<title>Node28</title>
<g id="a_node13"><a xlink:href="../../dc/de5/timer_8cpp.html" target="_top" xlink:title="timer.cpp">
<polygon fill="#ffffff" stroke="#000000" points="488.5,-129.5 488.5,-150.5 542.5,-150.5 542.5,-129.5 488.5,-129.5"/>
<text text-anchor="middle" x="515.5" y="-136.9" font-family="Helvetica,sans-Serif" font-size="12.00" fill="#000000">timer.cpp</text>
</a>
</g>
</g>
<!-- Node19&#45;&gt;Node28 -->
<g id="edge18" class="edge">
<title>Node19&#45;&gt;Node28</title>
<path fill="none" stroke="#191970" d="M511.0115,-177.1906C512.1004,-168.1684 513.3283,-157.9941 514.2242,-150.5707"/>
<polygon fill="#191970" stroke="#191970" points="507.5074,-177.0145 509.7839,-187.3619 514.457,-177.8533 507.5074,-177.0145"/>
</g>
<!-- Node21 -->
<g id="node6" class="node">
<title>Node21</title>
<g id="a_node6"><a xlink:href="../../d0/d90/ex1_2test__timing_8cpp.html" target="_top" xlink:title="examples/ex1/test_timing.cpp">
<polygon fill="#ffffff" stroke="#000000" points="491,-7 491,-28 626,-28 626,-7 491,-7"/>
<text text-anchor="middle" x="558.5" y="-14.4" font-family="Helvetica,sans-Serif" font-size="12.00" fill="#000000">examples/ex1/test_timing.cpp</text>
</a>
</g>
</g>
<!-- Node20&#45;&gt;Node21 -->
<g id="edge5" class="edge">
<title>Node20&#45;&gt;Node21</title>
<path fill="none" stroke="#191970" d="M423.2372,-123.0394C456.087,-97.4082 517.4384,-49.5385 544.7617,-28.2194"/>
<polygon fill="#191970" stroke="#191970" points="420.8891,-120.4322 415.1581,-129.3432 425.1952,-125.951 420.8891,-120.4322"/>
</g>
<!-- Node22 -->
<g id="node7" class="node">
<title>Node22</title>
<g id="a_node7"><a xlink:href="../../dd/d0a/mpi__test__timing_8cpp.html" target="_top" xlink:title="examples/ex2/mpi_test\l_timing.cpp">
<polygon fill="#ffffff" stroke="#000000" points="0,-.5 0,-34.5 109,-34.5 109,-.5 0,-.5"/>
<text text-anchor="start" x="8" y="-20.9" font-family="Helvetica,sans-Serif" font-size="12.00" fill="#000000">examples/ex2/mpi_test</text>
<text text-anchor="middle" x="54.5" y="-7.9" font-family="Helvetica,sans-Serif" font-size="12.00" fill="#000000">_timing.cpp</text>
</a>
</g>
</g>
<!-- Node20&#45;&gt;Node22 -->
<g id="edge6" class="edge">
<title>Node20&#45;&gt;Node22</title>
<path fill="none" stroke="#191970" d="M341.7545,-127.0809C306.3485,-118.7647 260.8527,-106.9206 221.5,-93 173.805,-76.1284 120.9346,-51.0898 87.7164,-34.5375"/>
<polygon fill="#191970" stroke="#191970" points="341.397,-130.5907 351.929,-129.4391 342.9776,-123.7715 341.397,-130.5907"/>
</g>
<!-- Node23 -->
<g id="node8" class="node">
<title>Node23</title>
<g id="a_node8"><a xlink:href="../../d2/dc1/ex3_2test__timing_8cpp.html" target="_top" xlink:title="examples/ex3/test_timing.cpp">
<polygon fill="#ffffff" stroke="#000000" points="338,-7 338,-28 473,-28 473,-7 338,-7"/>
<text text-anchor="middle" x="405.5" y="-14.4" font-family="Helvetica,sans-Serif" font-size="12.00" fill="#000000">examples/ex3/test_timing.cpp</text>
</a>
</g>
</g>
<!-- Node20&#45;&gt;Node23 -->
<g id="edge7" class="edge">
<title>Node20&#45;&gt;Node23</title>
<path fill="none" stroke="#191970" d="M402.1841,-119.0484C403.045,-92.683 404.4908,-48.4069 405.1515,-28.1718"/>
<polygon fill="#191970" stroke="#191970" points="398.6833,-119.02 401.855,-129.1289 405.6796,-119.2485 398.6833,-119.02"/>
</g>
<!-- Node24 -->
<g id="node9" class="node">
<title>Node24</title>
<g id="a_node9"><a xlink:href="../../d8/d07/auto__timer_8hpp.html" target="_top" xlink:title="timemory/auto_timer.hpp">
<polygon fill="#ffffff" stroke="#000000" points="261.5,-71.5 261.5,-92.5 377.5,-92.5 377.5,-71.5 261.5,-71.5"/>
<text text-anchor="middle" x="319.5" y="-78.9" font-family="Helvetica,sans-Serif" font-size="12.00" fill="#000000">timemory/auto_timer.hpp</text>
</a>
</g>
</g>
<!-- Node20&#45;&gt;Node24 -->
<g id="edge8" class="edge">
<title>Node20&#45;&gt;Node24</title>
<path fill="none" stroke="#191970" d="M378.23,-123.5407C364.1721,-113.5973 346.6698,-101.2177 334.4447,-92.5707"/>
<polygon fill="#191970" stroke="#191970" points="376.2746,-126.4447 386.4599,-129.3619 380.3169,-120.7298 376.2746,-126.4447"/>
</g>
<!-- Node20&#45;&gt;Node26 -->
<g id="edge15" class="edge">
<title>Node20&#45;&gt;Node26</title>
<path fill="none" stroke="#191970" d="M434.5931,-125.2585C490.8411,-100.2026 603.7566,-49.9039 652.8278,-28.0449"/>
<polygon fill="#191970" stroke="#191970" points="433.1339,-122.0769 425.4234,-129.3432 435.9823,-128.4712 433.1339,-122.0769"/>
</g>
<!-- Node27 -->
<g id="node12" class="node">
<title>Node27</title>
<g id="a_node12"><a xlink:href="../../d9/dad/timing__manager_8cpp.html" target="_top" xlink:title="timing_manager.cpp">
<polygon fill="#ffffff" stroke="#000000" points="127.5,-7 127.5,-28 225.5,-28 225.5,-7 127.5,-7"/>
<text text-anchor="middle" x="176.5" y="-14.4" font-family="Helvetica,sans-Serif" font-size="12.00" fill="#000000">timing_manager.cpp</text>
</a>
</g>
</g>
<!-- Node20&#45;&gt;Node27 -->
<g id="edge16" class="edge">
<title>Node20&#45;&gt;Node27</title>
<path fill="none" stroke="#191970" d="M337.2849,-126.9045C309.8849,-119.548 278.3408,-108.6245 252.5,-93 223.3749,-75.3897 197.0535,-44.376 184.4103,-28.1205"/>
<polygon fill="#191970" stroke="#191970" points="336.6167,-130.3466 347.174,-129.4554 338.3652,-123.5685 336.6167,-130.3466"/>
</g>
<!-- Node24&#45;&gt;Node21 -->
<g id="edge9" class="edge">
<title>Node24&#45;&gt;Node21</title>
<path fill="none" stroke="#191970" d="M368.1996,-68.8572C412.9008,-56.7935 478.2731,-39.1512 519.5853,-28.0021"/>
<polygon fill="#191970" stroke="#191970" points="367.174,-65.5087 358.4314,-71.4934 368.998,-72.2669 367.174,-65.5087"/>
</g>
<!-- Node24&#45;&gt;Node22 -->
<g id="edge10" class="edge">
<title>Node24&#45;&gt;Node22</title>
<path fill="none" stroke="#191970" d="M262.3572,-69.2334C222.0552,-60.0841 166.8564,-47.2603 118.5,-35 115.4853,-34.2356 112.3945,-33.4378 109.2774,-32.6222"/>
<polygon fill="#191970" stroke="#191970" points="261.7432,-72.6829 272.2693,-71.4778 263.2891,-65.8557 261.7432,-72.6829"/>
</g>
<!-- Node24&#45;&gt;Node23 -->
<g id="edge11" class="edge">
<title>Node24&#45;&gt;Node23</title>
<path fill="none" stroke="#191970" d="M341.8111,-65.2666C357.4284,-53.5537 377.8258,-38.2556 391.2778,-28.1667"/>
<polygon fill="#191970" stroke="#191970" points="339.6012,-62.5491 333.7012,-71.3491 343.8012,-68.1491 339.6012,-62.5491"/>
</g>
<!-- Node25 -->
<g id="node10" class="node">
<title>Node25</title>
<g id="a_node10"><a xlink:href="../../d2/d80/auto__timer_8cpp.html" target="_top" xlink:title="auto_timer.cpp">
<polygon fill="#ffffff" stroke="#000000" points="243.5,-7 243.5,-28 319.5,-28 319.5,-7 243.5,-7"/>
<text text-anchor="middle" x="281.5" y="-14.4" font-family="Helvetica,sans-Serif" font-size="12.00" fill="#000000">auto_timer.cpp</text>
</a>
</g>
</g>
<!-- Node24&#45;&gt;Node25 -->
<g id="edge12" class="edge">
<title>Node24&#45;&gt;Node25</title>
<path fill="none" stroke="#191970" d="M308.1089,-62.6651C301.5008,-51.4487 293.4217,-37.7356 287.9113,-28.3823"/>
<polygon fill="#191970" stroke="#191970" points="305.1334,-64.5098 313.2251,-71.3491 311.1646,-60.9566 305.1334,-64.5098"/>
</g>
<!-- Node24&#45;&gt;Node26 -->
<g id="edge13" class="edge">
<title>Node24&#45;&gt;Node26</title>
<path fill="none" stroke="#191970" d="M387.5977,-76.9354C452.3199,-70.9414 551.9075,-58.6338 635.5,-35 641.9048,-33.1892 648.6333,-30.6201 654.7454,-28.0065"/>
<polygon fill="#191970" stroke="#191970" points="387.1627,-73.4603 377.5173,-77.8439 387.7911,-80.432 387.1627,-73.4603"/>
</g>
<!-- Node24&#45;&gt;Node27 -->
<g id="edge14" class="edge">
<title>Node24&#45;&gt;Node27</title>
<path fill="none" stroke="#191970" d="M286.9269,-67.3079C260.3544,-55.3224 223.4633,-38.6827 199.7837,-28.0021"/>
<polygon fill="#191970" stroke="#191970" points="285.6516,-70.5722 296.2063,-71.4934 288.5298,-64.1913 285.6516,-70.5722"/>
</g>
</g>
</svg>
        <g id="navigator" transform="translate(0 0)" fill="#404254">
                <rect fill="#f2f5e9" fill-opacity="0.5" stroke="#606060" stroke-width=".5" x="0" y="0" width="60" height="60"/>
                <use id="zoomplus" xlink:href="#zoomPlus" x="17" y="9" onmousedown="handleZoom(evt,'in')"/>
                <use id="zoomminus" xlink:href="#zoomMin" x="42" y="9" onmousedown="handleZoom(evt,'out')"/>
                <use id="reset" xlink:href="#resetDef" x="30" y="36" onmousedown="handleReset()"/>
                <g id="arrowUp" xlink:href="#dirArrow" transform="translate(30 24)" onmousedown="handlePan(0,-1)">
                  <use xlink:href="#rim" fill="#404040">
                        <set attributeName="fill" to="#808080" begin="arrowUp.mouseover" end="arrowUp.mouseout"/>
                  </use>
                  <path fill="none" stroke="white" stroke-width="1.5" d="M0,-3.0v7 M-2.5,-0.5L0,-3.0L2.5,-0.5"/>
                </g>
                <g id="arrowRight" xlink:href="#dirArrow" transform="rotate(90) translate(36 -43)" onmousedown="handlePan(1,0)">
                  <use xlink:href="#rim" fill="#404040">
                        <set attributeName="fill" to="#808080" begin="arrowRight.mouseover" end="arrowRight.mouseout"/>
                  </use>
                  <path fill="none" stroke="white" stroke-width="1.5" d="M0,-3.0v7 M-2.5,-0.5L0,-3.0L2.5,-0.5"/>
                </g>
                <g id="arrowDown" xlink:href="#dirArrow" transform="rotate(180) translate(-30 -48)" onmousedown="handlePan(0,1)">
                  <use xlink:href="#rim" fill="#404040">
                        <set attributeName="fill" to="#808080" begin="arrowDown.mouseover" end="arrowDown.mouseout"/>
                  </use>
                  <path fill="none" stroke="white" stroke-width="1.5" d="M0,-3.0v7 M-2.5,-0.5L0,-3.0L2.5,-0.5"/>
                </g>
                <g id="arrowLeft" xlink:href="#dirArrow" transform="rotate(270) translate(-36 17)" onmousedown="handlePan(-1,0)">
                  <use xlink:href="#rim" fill="#404040">
                        <set attributeName="fill" to="#808080" begin="arrowLeft.mouseover" end="arrowLeft.mouseout"/>
                  </use>
                  <path fill="none" stroke="white" stroke-width="1.5" d="M0,-3.0v7 M-2.5,-0.5L0,-3.0L2.5,-0.5"/>
                </g>
        </g>
        <svg viewBox="0 0 15 15" width="100%" height="30px" preserveAspectRatio="xMaxYMin meet">
         <g id="arrow_out" transform="scale(0.3 0.3)">
          <a xlink:href="rss_8hpp__dep__incl_org.svg" target="_base">
           <rect id="button" ry="5" rx="5" y="6" x="6" height="38" width="38"
                fill="#f2f5e9" fill-opacity="0.5" stroke="#606060" stroke-width="1.0"/>
           <path id="arrow"
             d="M 11.500037,31.436501 C 11.940474,20.09759 22.043105,11.32322 32.158766,21.979434 L 37.068811,17.246167 C 37.068811,17.246167 37.088388,32 37.088388,32 L 22.160133,31.978069 C 22.160133,31.978069 26.997745,27.140456 26.997745,27.140456 C 18.528582,18.264221 13.291696,25.230495 11.500037,31.436501 z"
             style="fill:#404040;"/>
          </a>
         </g>
        </svg>
</svg>
