<?xml version="1.0" encoding="UTF-8" standalone="no"?>
<!DOCTYPE svg PUBLIC "-//W3C//DTD SVG 1.1//EN"
 "http://www.w3.org/Graphics/SVG/1.1/DTD/svg11.dtd">
<!-- Generated by graphviz version 2.40.1 (20161225.0304)
 -->
<!-- Title: timemory.cc Pages: 1 -->
<svg width="3502pt" height="449pt"
 viewBox="0.00 0.00 3502.00 449.00" xmlns="http://www.w3.org/2000/svg" xmlns:xlink="http://www.w3.org/1999/xlink">
<g id="graph0" class="graph" transform="scale(1 1) rotate(0) translate(4 445)">
<title>timemory.cc</title>
<polygon fill="#ffffff" stroke="transparent" points="-4,4 -4,-445 3498,-445 3498,4 -4,4"/>
<!-- Node0 -->
<g id="node1" class="node">
<title>Node0</title>
<polygon fill="#bfbfbf" stroke="#000000" points="2156.5,-419.5 2156.5,-440.5 2221.5,-440.5 2221.5,-419.5 2156.5,-419.5"/>
<text text-anchor="middle" x="2189" y="-426.9" font-family="Helvetica,sans-Serif" font-size="12.00" fill="#000000">timemory.cc</text>
</g>
<!-- Node1 -->
<g id="node2" class="node">
<title>Node1</title>
<polygon fill="#ffffff" stroke="#bfbfbf" points="0,-361.5 0,-382.5 40,-382.5 40,-361.5 0,-361.5"/>
<text text-anchor="middle" x="20" y="-368.9" font-family="Helvetica,sans-Serif" font-size="12.00" fill="#000000">future</text>
</g>
<!-- Node0&#45;&gt;Node1 -->
<g id="edge1" class="edge">
<title>Node0&#45;&gt;Node1</title>
<path fill="none" stroke="#191970" d="M2156.2002,-429.952C1906.5095,-429.5 308.8786,-425.0394 50.0103,-382.3918"/>
<polygon fill="#191970" stroke="#191970" points="50.4859,-378.9212 40.0243,-380.5962 49.247,-385.8107 50.4859,-378.9212"/>
</g>
<!-- Node2 -->
<g id="node3" class="node">
<title>Node2</title>
<polygon fill="#ffffff" stroke="#bfbfbf" points="58,-361.5 58,-382.5 102,-382.5 102,-361.5 58,-361.5"/>
<text text-anchor="middle" x="80" y="-368.9" font-family="Helvetica,sans-Serif" font-size="12.00" fill="#000000">chrono</text>
</g>
<!-- Node0&#45;&gt;Node2 -->
<g id="edge2" class="edge">
<title>Node0&#45;&gt;Node2</title>
<path fill="none" stroke="#191970" d="M2156.4662,-429.7998C1908.8325,-428.2053 325.5825,-416.7378 116,-383 114.7297,-382.7955 113.4419,-382.5574 112.1468,-382.2921"/>
<polygon fill="#191970" stroke="#191970" points="112.7933,-378.8464 102.2443,-379.831 111.1049,-385.6397 112.7933,-378.8464"/>
</g>
<!-- Node3 -->
<g id="node4" class="node">
<title>Node3</title>
<polygon fill="#ffffff" stroke="#bfbfbf" points="603.5,-.5 603.5,-21.5 658.5,-21.5 658.5,-.5 603.5,-.5"/>
<text text-anchor="middle" x="631" y="-7.9" font-family="Helvetica,sans-Serif" font-size="12.00" fill="#000000">functional</text>
</g>
<!-- Node0&#45;&gt;Node3 -->
<g id="edge3" class="edge">
<title>Node0&#45;&gt;Node3</title>
<path fill="none" stroke="#191970" d="M2156.4783,-429.9211C1919.0981,-429.251 460.1548,-423.491 377,-383 341.2373,-365.5859 320,-353.7772 320,-314 320,-314 320,-314 320,-127 320,-91.5529 330.7251,-77.9868 360,-58 444.271,-.4659 488.6023,-42.3352 593.2467,-21.8089"/>
<polygon fill="#191970" stroke="#191970" points="594.1668,-25.1918 603.2266,-19.6991 592.7189,-18.3432 594.1668,-25.1918"/>
</g>
<!-- Node4 -->
<g id="node5" class="node">
<title>Node4</title>
<polygon fill="#ffffff" stroke="#bfbfbf" points="2159.5,-239 2159.5,-260 2200.5,-260 2200.5,-239 2159.5,-239"/>
<text text-anchor="middle" x="2180" y="-246.4" font-family="Helvetica,sans-Serif" font-size="12.00" fill="#000000">mutex</text>
</g>
<!-- Node0&#45;&gt;Node4 -->
<g id="edge4" class="edge">
<title>Node0&#45;&gt;Node4</title>
<path fill="none" stroke="#191970" d="M2188.464,-419.2495C2187.0105,-390.0992 2182.9746,-309.1573 2181.0487,-270.533"/>
<polygon fill="#191970" stroke="#191970" points="2184.5384,-270.2357 2180.5446,-260.4224 2177.547,-270.5844 2184.5384,-270.2357"/>
</g>
<!-- Node5 -->
<g id="node6" class="node">
<title>Node5</title>
<polygon fill="#ffffff" stroke="#bfbfbf" points="2219,-239 2219,-260 2261,-260 2261,-239 2219,-239"/>
<text text-anchor="middle" x="2240" y="-246.4" font-family="Helvetica,sans-Serif" font-size="12.00" fill="#000000">thread</text>
</g>
<!-- Node0&#45;&gt;Node5 -->
<g id="edge5" class="edge">
<title>Node0&#45;&gt;Node5</title>
<path fill="none" stroke="#191970" d="M2192.0376,-419.2495C2200.2739,-390.0992 2223.1439,-309.1573 2234.0572,-270.533"/>
<polygon fill="#191970" stroke="#191970" points="2237.5629,-270.9974 2236.9139,-260.4224 2230.8266,-269.094 2237.5629,-270.9974"/>
</g>
<!-- Node6 -->
<g id="node7" class="node">
<title>Node6</title>
<polygon fill="#ffffff" stroke="#bfbfbf" points="846.5,-116.5 846.5,-137.5 889.5,-137.5 889.5,-116.5 846.5,-116.5"/>
<text text-anchor="middle" x="868" y="-123.9" font-family="Helvetica,sans-Serif" font-size="12.00" fill="#000000">atomic</text>
</g>
<!-- Node0&#45;&gt;Node6 -->
<g id="edge6" class="edge">
<title>Node0&#45;&gt;Node6</title>
<path fill="none" stroke="#191970" d="M2156.2176,-427.3084C2078.2425,-420.7962 1875.6277,-403.2266 1707,-383 1352.0299,-340.4219 1182.0311,-500.1498 911,-267 875.9788,-236.8736 869.0088,-178.9919 867.9134,-147.9263"/>
<polygon fill="#191970" stroke="#191970" points="871.4106,-147.7321 867.7345,-137.7955 864.4117,-147.8557 871.4106,-147.7321"/>
</g>
<!-- Node7 -->
<g id="node8" class="node">
<title>Node7</title>
<polygon fill="#ffffff" stroke="#bfbfbf" points="676.5,-.5 676.5,-21.5 727.5,-21.5 727.5,-.5 676.5,-.5"/>
<text text-anchor="middle" x="702" y="-7.9" font-family="Helvetica,sans-Serif" font-size="12.00" fill="#000000">iostream</text>
</g>
<!-- Node0&#45;&gt;Node7 -->
<g id="edge7" class="edge">
<title>Node0&#45;&gt;Node7</title>
<path fill="none" stroke="#191970" d="M2156.1822,-429.6021C1930.3371,-426.7973 612.8957,-409.3464 533,-383 482.0654,-366.2038 434,-367.6325 434,-314 434,-314 434,-314 434,-249.5 434,-160.6987 318.2028,-124.5475 377,-58 418.15,-11.4259 588.0284,-33.6567 666.1931,-21.547"/>
<polygon fill="#191970" stroke="#191970" points="666.9538,-24.9657 676.1468,-19.6989 665.6759,-18.0833 666.9538,-24.9657"/>
</g>
<!-- Node8 -->
<g id="node9" class="node">
<title>Node8</title>
<polygon fill="#ffffff" stroke="#bfbfbf" points="260.5,-.5 260.5,-21.5 303.5,-21.5 303.5,-.5 260.5,-.5"/>
<text text-anchor="middle" x="282" y="-7.9" font-family="Helvetica,sans-Serif" font-size="12.00" fill="#000000">cstdint</text>
</g>
<!-- Node0&#45;&gt;Node8 -->
<g id="edge8" class="edge">
<title>Node0&#45;&gt;Node8</title>
<path fill="none" stroke="#191970" d="M2156.2435,-429.7762C1907.1665,-428.0054 319.2314,-415.4662 224,-383 174.9473,-366.277 130,-365.825 130,-314 130,-314 130,-314 130,-127 130,-66.9464 205.9067,-33.8405 250.4377,-19.5858"/>
<polygon fill="#191970" stroke="#191970" points="251.6826,-22.8652 260.2221,-16.594 249.6357,-16.1711 251.6826,-22.8652"/>
</g>
<!-- Node9 -->
<g id="node10" class="node">
<title>Node9</title>
<polygon fill="#ffffff" stroke="#bfbfbf" points="477.5,-.5 477.5,-21.5 526.5,-21.5 526.5,-.5 477.5,-.5"/>
<text text-anchor="middle" x="502" y="-7.9" font-family="Helvetica,sans-Serif" font-size="12.00" fill="#000000">sstream</text>
</g>
<!-- Node0&#45;&gt;Node9 -->
<g id="edge9" class="edge">
<title>Node0&#45;&gt;Node9</title>
<path fill="none" stroke="#191970" d="M2156.1472,-429.9282C1909.762,-429.2996 358.3624,-423.7293 269,-383 231.2133,-365.7777 206,-355.5264 206,-314 206,-314 206,-314 206,-127 206,-84.8691 234.1891,-78.4931 271,-58 304.2571,-39.4854 411.1431,-23.0624 467.1009,-15.4664"/>
<polygon fill="#191970" stroke="#191970" points="467.804,-18.9037 477.2522,-14.1096 466.8766,-11.9654 467.804,-18.9037"/>
</g>
<!-- Node10 -->
<g id="node11" class="node">
<title>Node10</title>
<polygon fill="#ffffff" stroke="#bfbfbf" points="2312,-361.5 2312,-382.5 2346,-382.5 2346,-361.5 2312,-361.5"/>
<text text-anchor="middle" x="2329" y="-368.9" font-family="Helvetica,sans-Serif" font-size="12.00" fill="#000000">map</text>
</g>
<!-- Node0&#45;&gt;Node10 -->
<g id="edge10" class="edge">
<title>Node0&#45;&gt;Node10</title>
<path fill="none" stroke="#191970" d="M2214.3529,-419.4966C2239.2565,-409.1794 2277.0996,-393.5016 2302.4184,-383.0124"/>
<polygon fill="#191970" stroke="#191970" points="2303.8806,-386.1951 2311.7796,-379.1342 2301.2014,-379.7282 2303.8806,-386.1951"/>
</g>
<!-- Node11 -->
<g id="node12" class="node">
<title>Node11</title>
<polygon fill="#ffffff" stroke="#bfbfbf" points="974.5,-.5 974.5,-21.5 1013.5,-21.5 1013.5,-.5 974.5,-.5"/>
<text text-anchor="middle" x="994" y="-7.9" font-family="Helvetica,sans-Serif" font-size="12.00" fill="#000000">string</text>
</g>
<!-- Node0&#45;&gt;Node11 -->
<g id="edge11" class="edge">
<title>Node0&#45;&gt;Node11</title>
<path fill="none" stroke="#191970" d="M2156.1885,-429.6647C1930.5214,-427.2835 616.3315,-412.1754 588,-383 563.8475,-358.128 523.2734,-322.7299 811,-116 843.3237,-92.7756 858.1955,-99.3092 893,-80 921.4695,-64.2053 952.0636,-42.5817 972.0268,-27.7756"/>
<polygon fill="#191970" stroke="#191970" points="974.2442,-30.4877 980.1497,-21.6913 970.0476,-24.8851 974.2442,-30.4877"/>
</g>
<!-- Node12 -->
<g id="node13" class="node">
<title>Node12</title>
<polygon fill="#ffffff" stroke="#bfbfbf" points="544.5,-.5 544.5,-21.5 585.5,-21.5 585.5,-.5 544.5,-.5"/>
<text text-anchor="middle" x="565" y="-7.9" font-family="Helvetica,sans-Serif" font-size="12.00" fill="#000000">vector</text>
</g>
<!-- Node0&#45;&gt;Node12 -->
<g id="edge12" class="edge">
<title>Node0&#45;&gt;Node12</title>
<path fill="none" stroke="#191970" d="M2156.2327,-429.731C1915.4366,-427.6847 426.4197,-413.813 337,-383 288.3406,-366.2325 244,-365.4674 244,-314 244,-314 244,-314 244,-127 244,-77.6487 285.9902,-78.2405 331,-58 412.0981,-21.5309 443.9097,-44.2581 534.6388,-21.6371"/>
<polygon fill="#191970" stroke="#191970" points="535.7075,-24.9754 544.4975,-19.0605 533.9374,-18.2029 535.7075,-24.9754"/>
</g>
<!-- Node13 -->
<g id="node14" class="node">
<title>Node13</title>
<polygon fill="#ffffff" stroke="#bfbfbf" points="2364.5,-361.5 2364.5,-382.5 2413.5,-382.5 2413.5,-361.5 2364.5,-361.5"/>
<text text-anchor="middle" x="2389" y="-368.9" font-family="Helvetica,sans-Serif" font-size="12.00" fill="#000000">memory</text>
</g>
<!-- Node0&#45;&gt;Node13 -->
<g id="edge13" class="edge">
<title>Node0&#45;&gt;Node13</title>
<path fill="none" stroke="#191970" d="M2221.5481,-421.1675C2253.1269,-412.5136 2302.6211,-398.7288 2354.45,-383.0962"/>
<polygon fill="#191970" stroke="#191970" points="2355.5957,-386.4062 2364.1509,-380.1565 2353.5656,-379.707 2355.5957,-386.4062"/>
</g>
<!-- Node14 -->
<g id="node15" class="node">
<title>Node14</title>
<polygon fill="#ffffff" stroke="#bfbfbf" points="2432,-361.5 2432,-382.5 2532,-382.5 2532,-361.5 2432,-361.5"/>
<text text-anchor="middle" x="2482" y="-368.9" font-family="Helvetica,sans-Serif" font-size="12.00" fill="#000000">pybind11/pybind11.h</text>
</g>
<!-- Node0&#45;&gt;Node14 -->
<g id="edge14" class="edge">
<title>Node0&#45;&gt;Node14</title>
<path fill="none" stroke="#191970" d="M2221.758,-423.5155C2270.1359,-413.939 2361.4839,-395.8564 2422.055,-383.8662"/>
<polygon fill="#191970" stroke="#191970" points="2422.7422,-387.2982 2431.8722,-381.9229 2421.3828,-380.4315 2422.7422,-387.2982"/>
</g>
<!-- Node15 -->
<g id="node16" class="node">
<title>Node15</title>
<polygon fill="#ffffff" stroke="#bfbfbf" points="2550,-361.5 2550,-382.5 2622,-382.5 2622,-361.5 2550,-361.5"/>
<text text-anchor="middle" x="2586" y="-368.9" font-family="Helvetica,sans-Serif" font-size="12.00" fill="#000000">pybind11/stl.h</text>
</g>
<!-- Node0&#45;&gt;Node15 -->
<g id="edge15" class="edge">
<title>Node0&#45;&gt;Node15</title>
<path fill="none" stroke="#191970" d="M2221.7007,-426.8156C2282.4622,-420.6446 2417.0269,-405.7871 2539.7782,-383.0826"/>
<polygon fill="#191970" stroke="#191970" points="2540.5381,-386.5013 2549.7232,-381.2208 2539.2499,-379.6208 2540.5381,-386.5013"/>
</g>
<!-- Node16 -->
<g id="node17" class="node">
<title>Node16</title>
<polygon fill="#ffffff" stroke="#bfbfbf" points="2640,-361.5 2640,-382.5 2742,-382.5 2742,-361.5 2640,-361.5"/>
<text text-anchor="middle" x="2691" y="-368.9" font-family="Helvetica,sans-Serif" font-size="12.00" fill="#000000">pybind11/functional.h</text>
</g>
<!-- Node0&#45;&gt;Node16 -->
<g id="edge16" class="edge">
<title>Node0&#45;&gt;Node16</title>
<path fill="none" stroke="#191970" d="M2221.5449,-427.3854C2293.3534,-421.4353 2470.9592,-405.7256 2630.0149,-383.057"/>
<polygon fill="#191970" stroke="#191970" points="2630.58,-386.5118 2639.9799,-381.624 2629.5835,-379.5831 2630.58,-386.5118"/>
</g>
<!-- Node17 -->
<g id="node18" class="node">
<title>Node17</title>
<polygon fill="#ffffff" stroke="#bfbfbf" points="2760.5,-361.5 2760.5,-382.5 2851.5,-382.5 2851.5,-361.5 2760.5,-361.5"/>
<text text-anchor="middle" x="2806" y="-368.9" font-family="Helvetica,sans-Serif" font-size="12.00" fill="#000000">pybind11/chrono.h</text>
</g>
<!-- Node0&#45;&gt;Node17 -->
<g id="edge17" class="edge">
<title>Node0&#45;&gt;Node17</title>
<path fill="none" stroke="#191970" d="M2221.7704,-428.5669C2307.0958,-424.5579 2543.2718,-411.6864 2750.3026,-382.9503"/>
<polygon fill="#191970" stroke="#191970" points="2751.0338,-386.3821 2760.4501,-381.5257 2750.0605,-379.45 2751.0338,-386.3821"/>
</g>
<!-- Node18 -->
<g id="node19" class="node">
<title>Node18</title>
<polygon fill="#ffffff" stroke="#bfbfbf" points="2870,-361.5 2870,-382.5 2960,-382.5 2960,-361.5 2870,-361.5"/>
<text text-anchor="middle" x="2915" y="-368.9" font-family="Helvetica,sans-Serif" font-size="12.00" fill="#000000">pybind11/numpy.h</text>
</g>
<!-- Node0&#45;&gt;Node18 -->
<g id="edge18" class="edge">
<title>Node0&#45;&gt;Node18</title>
<path fill="none" stroke="#191970" d="M2221.6736,-429.2321C2317.9452,-426.6487 2608.9692,-416.54 2859.9568,-382.9849"/>
<polygon fill="#191970" stroke="#191970" points="2860.5535,-386.4361 2869.9942,-381.6274 2859.6153,-379.4993 2860.5535,-386.4361"/>
</g>
<!-- Node19 -->
<g id="node20" class="node">
<title>Node19</title>
<polygon fill="#ffffff" stroke="#bfbfbf" points="2978,-361.5 2978,-382.5 3076,-382.5 3076,-361.5 2978,-361.5"/>
<text text-anchor="middle" x="3027" y="-368.9" font-family="Helvetica,sans-Serif" font-size="12.00" fill="#000000">pybind11/iostream.h</text>
</g>
<!-- Node0&#45;&gt;Node19 -->
<g id="edge19" class="edge">
<title>Node0&#45;&gt;Node19</title>
<path fill="none" stroke="#191970" d="M2221.8321,-429.5149C2328.2032,-427.6284 2673.0408,-419.0472 2967.6864,-383.0287"/>
<polygon fill="#191970" stroke="#191970" points="2968.211,-386.4906 2977.7064,-381.7907 2967.3526,-379.5434 2968.211,-386.4906"/>
</g>
<!-- Node20 -->
<g id="node21" class="node">
<title>Node20</title>
<polygon fill="#ffffff" stroke="#bfbfbf" points="3094,-361.5 3094,-382.5 3174,-382.5 3174,-361.5 3094,-361.5"/>
<text text-anchor="middle" x="3134" y="-368.9" font-family="Helvetica,sans-Serif" font-size="12.00" fill="#000000">pybind11/eval.h</text>
</g>
<!-- Node0&#45;&gt;Node20 -->
<g id="edge20" class="edge">
<title>Node0&#45;&gt;Node20</title>
<path fill="none" stroke="#191970" d="M2221.7208,-429.0231C2359.4544,-424.7993 2893.3482,-407.2772 3083.8283,-382.9105"/>
<polygon fill="#191970" stroke="#191970" points="3084.5377,-386.347 3093.9887,-381.5586 3083.6145,-379.4082 3084.5377,-386.347"/>
</g>
<!-- Node21 -->
<g id="node22" class="node">
<title>Node21</title>
<polygon fill="#ffffff" stroke="#bfbfbf" points="3192.5,-361.5 3192.5,-382.5 3283.5,-382.5 3283.5,-361.5 3192.5,-361.5"/>
<text text-anchor="middle" x="3238" y="-368.9" font-family="Helvetica,sans-Serif" font-size="12.00" fill="#000000">pybind11/embed.h</text>
</g>
<!-- Node0&#45;&gt;Node21 -->
<g id="edge21" class="edge">
<title>Node0&#45;&gt;Node21</title>
<path fill="none" stroke="#191970" d="M2221.7028,-429.1151C2368.7913,-425.0352 2970.6867,-407.2485 3182.3837,-382.8577"/>
<polygon fill="#191970" stroke="#191970" points="3182.9524,-386.3147 3192.467,-381.654 3182.1226,-379.3641 3182.9524,-386.3147"/>
</g>
<!-- Node22 -->
<g id="node23" class="node">
<title>Node22</title>
<polygon fill="#ffffff" stroke="#bfbfbf" points="3302,-361.5 3302,-382.5 3382,-382.5 3382,-361.5 3302,-361.5"/>
<text text-anchor="middle" x="3342" y="-368.9" font-family="Helvetica,sans-Serif" font-size="12.00" fill="#000000">pybind11/cast.h</text>
</g>
<!-- Node0&#45;&gt;Node22 -->
<g id="edge22" class="edge">
<title>Node0&#45;&gt;Node22</title>
<path fill="none" stroke="#191970" d="M2221.5468,-429.3978C2378.3499,-426.3789 3057.55,-411.9284 3291.8422,-382.8958"/>
<polygon fill="#191970" stroke="#191970" points="3292.5209,-386.3375 3301.9932,-381.5913 3291.6286,-379.3945 3292.5209,-386.3375"/>
</g>
<!-- Node23 -->
<g id="node24" class="node">
<title>Node23</title>
<polygon fill="#ffffff" stroke="#bfbfbf" points="3400,-361.5 3400,-382.5 3494,-382.5 3494,-361.5 3400,-361.5"/>
<text text-anchor="middle" x="3447" y="-368.9" font-family="Helvetica,sans-Serif" font-size="12.00" fill="#000000">pybind11/pytypes.h</text>
</g>
<!-- Node0&#45;&gt;Node23 -->
<g id="edge23" class="edge">
<title>Node0&#45;&gt;Node23</title>
<path fill="none" stroke="#191970" d="M2221.6027,-429.409C2386.9912,-426.3083 3134.9658,-411.0279 3389.7787,-382.9526"/>
<polygon fill="#191970" stroke="#191970" points="3390.1847,-386.4291 3399.7247,-381.8206 3389.393,-379.474 3390.1847,-386.4291"/>
</g>
<!-- Node24 -->
<g id="node25" class="node">
<title>Node24</title>
<g id="a_node25"><a xlink:href="../../db/d19/namespace_8hpp.html" target="_top" xlink:title="timemory/namespace.hpp">
<polygon fill="#ffffff" stroke="#000000" points="1940,-.5 1940,-21.5 2060,-21.5 2060,-.5 1940,-.5"/>
<text text-anchor="middle" x="2000" y="-7.9" font-family="Helvetica,sans-Serif" font-size="12.00" fill="#000000">timemory/namespace.hpp</text>
</a>
</g>
</g>
<!-- Node0&#45;&gt;Node24 -->
<g id="edge24" class="edge">
<title>Node0&#45;&gt;Node24</title>
<path fill="none" stroke="#191970" d="M2208.2344,-419.4716C2222.5843,-410.958 2242.0383,-397.9565 2256,-383 2290.802,-345.7182 2365,-206.1992 2365,-185 2365,-185 2365,-185 2365,-127 2365,-65.8073 2176.3123,-32.6425 2070.2676,-18.8355"/>
<polygon fill="#191970" stroke="#191970" points="2070.6351,-15.3541 2060.2723,-17.5595 2069.7486,-22.2977 2070.6351,-15.3541"/>
</g>
<!-- Node25 -->
<g id="node26" class="node">
<title>Node25</title>
<g id="a_node26"><a xlink:href="../../df/df2/timing__manager_8hpp.html" target="_top" xlink:title="timemory/timing_manager.hpp">
<polygon fill="#ffffff" stroke="#000000" points="1309,-303.5 1309,-324.5 1447,-324.5 1447,-303.5 1309,-303.5"/>
<text text-anchor="middle" x="1378" y="-310.9" font-family="Helvetica,sans-Serif" font-size="12.00" fill="#000000">timemory/timing_manager.hpp</text>
</a>
</g>
</g>
<!-- Node0&#45;&gt;Node25 -->
<g id="edge25" class="edge">
<title>Node0&#45;&gt;Node25</title>
<path fill="none" stroke="#191970" d="M2156.4558,-425.3451C2038.4029,-408.4596 1630.554,-350.1236 1457.0843,-325.3117"/>
<polygon fill="#191970" stroke="#191970" points="1457.3957,-321.8207 1447.0008,-323.8694 1456.4044,-328.7502 1457.3957,-321.8207"/>
</g>
<!-- Node46 -->
<g id="node41" class="node">
<title>Node46</title>
<g id="a_node41"><a xlink:href="../../df/d05/timer_8hpp.html" target="_top" xlink:title="timemory/timer.hpp">
<polygon fill="#ffffff" stroke="#000000" points="2047,-239 2047,-260 2141,-260 2141,-239 2047,-239"/>
<text text-anchor="middle" x="2094" y="-246.4" font-family="Helvetica,sans-Serif" font-size="12.00" fill="#000000">timemory/timer.hpp</text>
</a>
</g>
</g>
<!-- Node0&#45;&gt;Node46 -->
<g id="edge92" class="edge">
<title>Node0&#45;&gt;Node46</title>
<path fill="none" stroke="#191970" d="M2183.3418,-419.2495C2167.8679,-389.849 2124.6652,-307.7639 2104.5515,-269.5478"/>
<polygon fill="#191970" stroke="#191970" points="2107.5034,-267.6415 2099.7486,-260.4224 2101.3089,-270.9018 2107.5034,-267.6415"/>
</g>
<!-- Node53 -->
<g id="node43" class="node">
<title>Node53</title>
<g id="a_node43"><a xlink:href="../../d9/dd2/rss_8hpp.html" target="_top" xlink:title="timemory/rss.hpp">
<polygon fill="#ffffff" stroke="#ff0000" points="1449,-116.5 1449,-137.5 1535,-137.5 1535,-116.5 1449,-116.5"/>
<text text-anchor="middle" x="1492" y="-123.9" font-family="Helvetica,sans-Serif" font-size="12.00" fill="#000000">timemory/rss.hpp</text>
</a>
</g>
</g>
<!-- Node0&#45;&gt;Node53 -->
<g id="edge93" class="edge">
<title>Node0&#45;&gt;Node53</title>
<path fill="none" stroke="#191970" d="M2200.4094,-419.2662C2233.1053,-387.2517 2321.5743,-291.0025 2270,-232 2222.117,-177.2205 1712.8415,-140.7734 1545.1806,-130.1878"/>
<polygon fill="#191970" stroke="#191970" points="1545.3054,-126.6889 1535.1062,-129.557 1544.8679,-133.6752 1545.3054,-126.6889"/>
</g>
<!-- Node60 -->
<g id="node48" class="node">
<title>Node60</title>
<g id="a_node48"><a xlink:href="../../da/d8e/signal__detection_8hpp.html" target="_top" xlink:title="timemory/signal_detection.hpp">
<polygon fill="#ffffff" stroke="#ff0000" points="536.5,-116.5 536.5,-137.5 675.5,-137.5 675.5,-116.5 536.5,-116.5"/>
<text text-anchor="middle" x="606" y="-123.9" font-family="Helvetica,sans-Serif" font-size="12.00" fill="#000000">timemory/signal_detection.hpp</text>
</a>
</g>
</g>
<!-- Node0&#45;&gt;Node60 -->
<g id="edge100" class="edge">
<title>Node0&#45;&gt;Node60</title>
<path fill="none" stroke="#191970" d="M2156.3455,-429.5717C1928.8373,-426.5261 588.5143,-407.5596 555,-383 528.8105,-363.8081 531,-346.4688 531,-314 531,-314 531,-314 531,-249.5 531,-207.1172 564.0582,-167.016 586.2793,-144.8482"/>
<polygon fill="#191970" stroke="#191970" points="588.8419,-147.2394 593.6153,-137.7807 583.9853,-142.1983 588.8419,-147.2394"/>
</g>
<!-- Node62 -->
<g id="node49" class="node">
<title>Node62</title>
<g id="a_node49"><a xlink:href="../../d0/d5d/mpi_8hpp.html" target="_top" xlink:title="timemory/mpi.hpp">
<polygon fill="#ffffff" stroke="#000000" points="386,-58.5 386,-79.5 474,-79.5 474,-58.5 386,-58.5"/>
<text text-anchor="middle" x="430" y="-65.9" font-family="Helvetica,sans-Serif" font-size="12.00" fill="#000000">timemory/mpi.hpp</text>
</a>
</g>
</g>
<!-- Node0&#45;&gt;Node62 -->
<g id="edge101" class="edge">
<title>Node0&#45;&gt;Node62</title>
<path fill="none" stroke="#191970" d="M2156.1485,-429.8636C1921.0947,-428.7966 501.8441,-420.8005 420,-383 382.5712,-365.7131 358,-355.2281 358,-314 358,-314 358,-314 358,-185 358,-145.3125 388.8005,-107.9174 410.1112,-86.7937"/>
<polygon fill="#191970" stroke="#191970" points="412.6463,-89.2123 417.4586,-79.7734 407.8105,-84.1512 412.6463,-89.2123"/>
</g>
<!-- Node63 -->
<g id="node50" class="node">
<title>Node63</title>
<g id="a_node50"><a xlink:href="../../d8/d07/auto__timer_8hpp.html" target="_top" xlink:title="timemory/auto_timer.hpp">
<polygon fill="#ffffff" stroke="#000000" points="597,-361.5 597,-382.5 713,-382.5 713,-361.5 597,-361.5"/>
<text text-anchor="middle" x="655" y="-368.9" font-family="Helvetica,sans-Serif" font-size="12.00" fill="#000000">timemory/auto_timer.hpp</text>
</a>
</g>
</g>
<!-- Node0&#45;&gt;Node63 -->
<g id="edge94" class="edge">
<title>Node0&#45;&gt;Node63</title>
<path fill="none" stroke="#191970" d="M2156.4367,-429.4832C1968.2452,-426.4162 1018.1277,-409.8217 727,-383 725.7251,-382.8825 724.4384,-382.7572 723.1429,-382.6247"/>
<polygon fill="#191970" stroke="#191970" points="723.4167,-379.1334 713.0857,-381.4833 722.6272,-386.0887 723.4167,-379.1334"/>
</g>
<!-- Node25&#45;&gt;Node4 -->
<g id="edge30" class="edge">
<title>Node25&#45;&gt;Node4</title>
<path fill="none" stroke="#191970" d="M1447.2714,-311.6183C1624.263,-305.2727 2083.8239,-287.0682 2150,-267 2151.9474,-266.4094 2153.9028,-265.6704 2155.8302,-264.8324"/>
<polygon fill="#191970" stroke="#191970" points="2157.7991,-267.7541 2165.0673,-260.0455 2154.5783,-261.5391 2157.7991,-267.7541"/>
</g>
<!-- Node25&#45;&gt;Node5 -->
<g id="edge29" class="edge">
<title>Node25&#45;&gt;Node5</title>
<path fill="none" stroke="#191970" d="M1447.0841,-311.8924C1633.3707,-305.9554 2136.8947,-288.1414 2209,-267 2211.1684,-266.3642 2213.3497,-265.5531 2215.4961,-264.6296"/>
<polygon fill="#191970" stroke="#191970" points="2217.19,-267.6951 2224.5333,-260.0579 2214.0302,-261.4489 2217.19,-267.6951"/>
</g>
<!-- Node25&#45;&gt;Node8 -->
<g id="edge31" class="edge">
<title>Node25&#45;&gt;Node8</title>
<path fill="none" stroke="#191970" d="M1308.9557,-311.3059C1174.2618,-305.5963 881.0495,-290.8155 783,-267 643.9445,-233.2244 616.4485,-201.073 488,-138 438.0365,-113.466 424.3121,-109.323 377,-80 350.7058,-63.7034 322.2016,-42.4804 303.3479,-27.8987"/>
<polygon fill="#191970" stroke="#191970" points="305.4455,-25.0961 295.407,-21.7079 301.1416,-30.6167 305.4455,-25.0961"/>
</g>
<!-- Node25&#45;&gt;Node11 -->
<g id="edge28" class="edge">
<title>Node25&#45;&gt;Node11</title>
<path fill="none" stroke="#191970" d="M1308.9681,-311.1997C1196.0082,-305.9015 981.8701,-292.5789 959,-267 901.7337,-202.9508 992.3755,-164.4843 1008,-80 1011.0467,-63.5259 1006.8179,-44.9131 1002.2308,-31.1742"/>
<polygon fill="#191970" stroke="#191970" points="1005.4977,-29.9169 998.7677,-21.7341 998.9259,-32.3278 1005.4977,-29.9169"/>
</g>
<!-- Node25&#45;&gt;Node24 -->
<g id="edge42" class="edge">
<title>Node25&#45;&gt;Node24</title>
<path fill="none" stroke="#191970" d="M1447.1909,-312.0099C1593.7095,-307.2934 1925.4619,-293.7711 1969,-267 2005.3612,-244.6418 2019,-227.6852 2019,-185 2019,-185 2019,-185 2019,-127 2019,-93.175 2011.0351,-54.5229 2005.4192,-31.474"/>
<polygon fill="#191970" stroke="#191970" points="2008.8125,-30.6159 2002.9688,-21.7784 2002.0259,-32.3312 2008.8125,-30.6159"/>
</g>
<!-- Node26 -->
<g id="node27" class="node">
<title>Node26</title>
<polygon fill="#ffffff" stroke="#bfbfbf" points="1155,-239 1155,-260 1235,-260 1235,-239 1155,-239"/>
<text text-anchor="middle" x="1195" y="-246.4" font-family="Helvetica,sans-Serif" font-size="12.00" fill="#000000">unordered_map</text>
</g>
<!-- Node25&#45;&gt;Node26 -->
<g id="edge26" class="edge">
<title>Node25&#45;&gt;Node26</title>
<path fill="none" stroke="#191970" d="M1347.6478,-303.4093C1320.477,-293.9155 1279.5581,-279.5855 1244,-267 1240.7508,-265.85 1237.3816,-264.654 1234.0004,-263.4513"/>
<polygon fill="#191970" stroke="#191970" points="1235.1238,-260.1361 1224.5292,-260.0767 1232.7744,-266.7301 1235.1238,-260.1361"/>
</g>
<!-- Node27 -->
<g id="node28" class="node">
<title>Node27</title>
<polygon fill="#ffffff" stroke="#bfbfbf" points="746,-.5 746,-21.5 788,-21.5 788,-.5 746,-.5"/>
<text text-anchor="middle" x="767" y="-7.9" font-family="Helvetica,sans-Serif" font-size="12.00" fill="#000000">deque</text>
</g>
<!-- Node25&#45;&gt;Node27 -->
<g id="edge27" class="edge">
<title>Node25&#45;&gt;Node27</title>
<path fill="none" stroke="#191970" d="M1308.8495,-310.9121C1191.7864,-305.0611 964.5396,-290.7723 937,-267 884.5307,-221.7085 935.6333,-174.2072 898,-116 872.1851,-76.0723 826.0788,-44.3956 796.0224,-26.6666"/>
<polygon fill="#191970" stroke="#191970" points="797.6632,-23.5727 787.2501,-21.6186 794.1718,-29.6399 797.6632,-23.5727"/>
</g>
<!-- Node28 -->
<g id="node29" class="node">
<title>Node28</title>
<polygon fill="#ffffff" stroke="#bfbfbf" points="1136,-58.5 1136,-79.5 1222,-79.5 1222,-58.5 1136,-58.5"/>
<text text-anchor="middle" x="1179" y="-65.9" font-family="Helvetica,sans-Serif" font-size="12.00" fill="#000000">cereal/cereal.hpp</text>
</g>
<!-- Node25&#45;&gt;Node28 -->
<g id="edge32" class="edge">
<title>Node25&#45;&gt;Node28</title>
<path fill="none" stroke="#191970" d="M1308.6035,-310.7826C1199.8926,-305.0231 999.5496,-291.2299 978,-267 913.5112,-194.4902 1069.1991,-115.6328 1142.9151,-83.674"/>
<polygon fill="#191970" stroke="#191970" points="1144.4988,-86.8035 1152.3211,-79.6578 1141.75,-80.3658 1144.4988,-86.8035"/>
</g>
<!-- Node29 -->
<g id="node30" class="node">
<title>Node29</title>
<polygon fill="#ffffff" stroke="#bfbfbf" points="1240,-58.5 1240,-79.5 1350,-79.5 1350,-58.5 1240,-58.5"/>
<text text-anchor="middle" x="1295" y="-65.9" font-family="Helvetica,sans-Serif" font-size="12.00" fill="#000000">cereal/types/deque.hpp</text>
</g>
<!-- Node25&#45;&gt;Node29 -->
<g id="edge33" class="edge">
<title>Node25&#45;&gt;Node29</title>
<path fill="none" stroke="#191970" d="M1308.7441,-309.4472C1248.0032,-303.8393 1166.2916,-291.8146 1146,-267 1092.0837,-201.0658 1210.6734,-118.6935 1267.1989,-84.7417"/>
<polygon fill="#191970" stroke="#191970" points="1269.1899,-87.6307 1276.0217,-79.5327 1265.6311,-81.6029 1269.1899,-87.6307"/>
</g>
<!-- Node30 -->
<g id="node31" class="node">
<title>Node30</title>
<polygon fill="#ffffff" stroke="#bfbfbf" points="1732.5,-58.5 1732.5,-79.5 1821.5,-79.5 1821.5,-58.5 1732.5,-58.5"/>
<text text-anchor="middle" x="1777" y="-65.9" font-family="Helvetica,sans-Serif" font-size="12.00" fill="#000000">cereal/access.hpp</text>
</g>
<!-- Node25&#45;&gt;Node30 -->
<g id="edge34" class="edge">
<title>Node25&#45;&gt;Node30</title>
<path fill="none" stroke="#191970" d="M1447.1196,-313.1536C1586.8447,-310.7227 1892.3596,-301.4811 1924,-267 1981.4442,-204.3986 1861.4882,-119.8686 1804.654,-85.028"/>
<polygon fill="#191970" stroke="#191970" points="1806.1615,-81.85 1795.7905,-79.6836 1802.5469,-87.8446 1806.1615,-81.85"/>
</g>
<!-- Node31 -->
<g id="node32" class="node">
<title>Node31</title>
<polygon fill="#ffffff" stroke="#bfbfbf" points="1253.5,-232.5 1253.5,-266.5 1362.5,-266.5 1362.5,-232.5 1253.5,-232.5"/>
<text text-anchor="start" x="1261.5" y="-252.9" font-family="Helvetica,sans-Serif" font-size="12.00" fill="#000000">cereal/types/unordered</text>
<text text-anchor="middle" x="1308" y="-239.9" font-family="Helvetica,sans-Serif" font-size="12.00" fill="#000000">_map.hpp</text>
</g>
<!-- Node25&#45;&gt;Node31 -->
<g id="edge35" class="edge">
<title>Node25&#45;&gt;Node31</title>
<path fill="none" stroke="#191970" d="M1366.4409,-303.3491C1357.6698,-295.2671 1345.2636,-283.8357 1334.1368,-273.5832"/>
<polygon fill="#191970" stroke="#191970" points="1336.4242,-270.9315 1326.6984,-266.7292 1331.6808,-276.0794 1336.4242,-270.9315"/>
</g>
<!-- Node32 -->
<g id="node33" class="node">
<title>Node32</title>
<polygon fill="#ffffff" stroke="#bfbfbf" points="1839.5,-58.5 1839.5,-79.5 1952.5,-79.5 1952.5,-58.5 1839.5,-58.5"/>
<text text-anchor="middle" x="1896" y="-65.9" font-family="Helvetica,sans-Serif" font-size="12.00" fill="#000000">cereal/types/chrono.hpp</text>
</g>
<!-- Node25&#45;&gt;Node32 -->
<g id="edge36" class="edge">
<title>Node25&#45;&gt;Node32</title>
<path fill="none" stroke="#191970" d="M1447.1474,-313.4044C1591.1869,-311.4433 1912.8251,-303.0334 1946,-267 1993.131,-215.808 1938.6063,-126.7312 1910.5949,-87.9485"/>
<polygon fill="#191970" stroke="#191970" points="1913.2011,-85.5869 1904.4352,-79.6362 1907.5769,-89.7545 1913.2011,-85.5869"/>
</g>
<!-- Node33 -->
<g id="node34" class="node">
<title>Node33</title>
<polygon fill="#ffffff" stroke="#bfbfbf" points="1381,-239 1381,-260 1513,-260 1513,-239 1381,-239"/>
<text text-anchor="middle" x="1447" y="-246.4" font-family="Helvetica,sans-Serif" font-size="12.00" fill="#000000">cereal/archives/adapters.hpp</text>
</g>
<!-- Node25&#45;&gt;Node33 -->
<g id="edge37" class="edge">
<title>Node25&#45;&gt;Node33</title>
<path fill="none" stroke="#191970" d="M1389.3939,-303.3491C1399.8185,-293.6044 1415.4521,-278.9905 1427.8035,-267.4445"/>
<polygon fill="#191970" stroke="#191970" points="1430.4433,-269.768 1435.3585,-260.3823 1425.6631,-264.6543 1430.4433,-269.768"/>
</g>
<!-- Node34 -->
<g id="node35" class="node">
<title>Node34</title>
<polygon fill="#ffffff" stroke="#bfbfbf" points="1531,-239 1531,-260 1653,-260 1653,-239 1531,-239"/>
<text text-anchor="middle" x="1592" y="-246.4" font-family="Helvetica,sans-Serif" font-size="12.00" fill="#000000">cereal/archives/binary.hpp</text>
</g>
<!-- Node25&#45;&gt;Node34 -->
<g id="edge38" class="edge">
<title>Node25&#45;&gt;Node34</title>
<path fill="none" stroke="#191970" d="M1412.8591,-303.4934C1449.5448,-292.4363 1507.408,-274.9962 1547.3978,-262.9432"/>
<polygon fill="#191970" stroke="#191970" points="1548.5913,-266.2391 1557.1558,-260.0021 1546.5712,-259.5369 1548.5913,-266.2391"/>
</g>
<!-- Node35 -->
<g id="node36" class="node">
<title>Node35</title>
<polygon fill="#ffffff" stroke="#bfbfbf" points="1671,-239 1671,-260 1785,-260 1785,-239 1671,-239"/>
<text text-anchor="middle" x="1728" y="-246.4" font-family="Helvetica,sans-Serif" font-size="12.00" fill="#000000">cereal/archives/json.hpp</text>
</g>
<!-- Node25&#45;&gt;Node35 -->
<g id="edge39" class="edge">
<title>Node25&#45;&gt;Node35</title>
<path fill="none" stroke="#191970" d="M1447.2123,-304.4277C1504.9327,-295.9951 1589.1963,-282.6391 1662,-267 1668.1608,-265.6766 1674.6086,-264.1483 1680.9588,-262.5572"/>
<polygon fill="#191970" stroke="#191970" points="1681.9889,-265.9062 1690.8019,-260.0256 1680.2452,-259.1269 1681.9889,-265.9062"/>
</g>
<!-- Node36 -->
<g id="node37" class="node">
<title>Node36</title>
<polygon fill="#ffffff" stroke="#bfbfbf" points="1803,-232.5 1803,-266.5 1915,-266.5 1915,-232.5 1803,-232.5"/>
<text text-anchor="start" x="1811" y="-252.9" font-family="Helvetica,sans-Serif" font-size="12.00" fill="#000000">cereal/archives/portable</text>
<text text-anchor="middle" x="1859" y="-239.9" font-family="Helvetica,sans-Serif" font-size="12.00" fill="#000000">_binary.hpp</text>
</g>
<!-- Node25&#45;&gt;Node36 -->
<g id="edge40" class="edge">
<title>Node25&#45;&gt;Node36</title>
<path fill="none" stroke="#191970" d="M1447.3012,-309.3763C1528.1558,-303.2638 1665.9307,-290.6233 1792.8533,-267.0635"/>
<polygon fill="#191970" stroke="#191970" points="1793.5703,-270.4901 1802.7498,-265.1999 1792.2748,-263.611 1793.5703,-270.4901"/>
</g>
<!-- Node37 -->
<g id="node38" class="node">
<title>Node37</title>
<polygon fill="#ffffff" stroke="#bfbfbf" points="987.5,-239 987.5,-260 1098.5,-260 1098.5,-239 987.5,-239"/>
<text text-anchor="middle" x="1043" y="-246.4" font-family="Helvetica,sans-Serif" font-size="12.00" fill="#000000">cereal/archives/xml.hpp</text>
</g>
<!-- Node25&#45;&gt;Node37 -->
<g id="edge41" class="edge">
<title>Node25&#45;&gt;Node37</title>
<path fill="none" stroke="#191970" d="M1311.3186,-303.4906C1257.5797,-294.7047 1180.173,-281.3354 1113,-267 1106.4974,-265.6123 1099.6821,-264.0477 1092.9633,-262.4393"/>
<polygon fill="#191970" stroke="#191970" points="1093.7807,-259.0361 1083.2361,-260.0669 1092.122,-265.8368 1093.7807,-259.0361"/>
</g>
<!-- Node38 -->
<g id="node39" class="node">
<title>Node38</title>
<g id="a_node39"><a xlink:href="../../d1/d4e/utility_8hpp.html" target="_top" xlink:title="timemory/utility.hpp">
<polygon fill="#ffffff" stroke="#ff0000" points="720,-58.5 720,-79.5 814,-79.5 814,-58.5 720,-58.5"/>
<text text-anchor="middle" x="767" y="-65.9" font-family="Helvetica,sans-Serif" font-size="12.00" fill="#000000">timemory/utility.hpp</text>
</a>
</g>
</g>
<!-- Node25&#45;&gt;Node38 -->
<g id="edge43" class="edge">
<title>Node25&#45;&gt;Node38</title>
<path fill="none" stroke="#191970" d="M1308.9208,-311.2903C1178.2372,-305.6334 904.6552,-291.0589 869,-267 806.1663,-224.602 779.7529,-131.0386 770.8257,-89.5277"/>
<polygon fill="#191970" stroke="#191970" points="774.2108,-88.6091 768.7966,-79.5022 767.3499,-89.9978 774.2108,-88.6091"/>
</g>
<!-- Node25&#45;&gt;Node46 -->
<g id="edge52" class="edge">
<title>Node25&#45;&gt;Node46</title>
<path fill="none" stroke="#191970" d="M1447.0636,-310.8644C1591.6535,-304.0019 1922.0066,-286.6827 2033,-267 2039.2648,-265.889 2045.8074,-264.3888 2052.1836,-262.7313"/>
<polygon fill="#191970" stroke="#191970" points="2053.2886,-266.0575 2062.0024,-260.0309 2051.4323,-259.3081 2053.2886,-266.0575"/>
</g>
<!-- Node25&#45;&gt;Node62 -->
<g id="edge91" class="edge">
<title>Node25&#45;&gt;Node62</title>
<path fill="none" stroke="#191970" d="M1308.7833,-312.8606C1181.35,-309.9783 914.8007,-300.073 829,-267 805.0296,-257.7603 805.5303,-244.3424 783,-232 676.6998,-173.7674 634.2218,-194.5177 527,-138 498.78,-123.125 469.3253,-101.102 450.3848,-85.9591"/>
<polygon fill="#191970" stroke="#191970" points="452.436,-83.1164 442.4644,-79.5361 448.0269,-88.5533 452.436,-83.1164"/>
</g>
<!-- Node38&#45;&gt;Node3 -->
<g id="edge48" class="edge">
<title>Node38&#45;&gt;Node3</title>
<path fill="none" stroke="#191970" d="M742.3714,-58.4966C720.8429,-49.3154 689.3602,-35.8889 665.3554,-25.6516"/>
<polygon fill="#191970" stroke="#191970" points="666.4764,-22.3247 655.9049,-21.6212 663.7303,-28.7636 666.4764,-22.3247"/>
</g>
<!-- Node38&#45;&gt;Node7 -->
<g id="edge44" class="edge">
<title>Node38&#45;&gt;Node7</title>
<path fill="none" stroke="#191970" d="M755.078,-58.3619C745.6405,-49.9408 732.2704,-38.0105 721.3104,-28.2308"/>
<polygon fill="#191970" stroke="#191970" points="723.6381,-25.6171 713.8464,-21.5707 718.9776,-30.8401 723.6381,-25.6171"/>
</g>
<!-- Node38&#45;&gt;Node9 -->
<g id="edge46" class="edge">
<title>Node38&#45;&gt;Node9</title>
<path fill="none" stroke="#191970" d="M719.9528,-61.205C675.0154,-53.3731 605.2532,-40.2104 536.8477,-22.2939"/>
<polygon fill="#191970" stroke="#191970" points="537.3315,-18.8011 526.7681,-19.616 535.5342,-25.5664 537.3315,-18.8011"/>
</g>
<!-- Node38&#45;&gt;Node11 -->
<g id="edge45" class="edge">
<title>Node38&#45;&gt;Node11</title>
<path fill="none" stroke="#191970" d="M808.108,-58.4966C853.2621,-46.9595 924.6515,-28.719 964.5427,-18.5265"/>
<polygon fill="#191970" stroke="#191970" points="965.6189,-21.8641 974.4412,-15.9974 963.886,-15.082 965.6189,-21.8641"/>
</g>
<!-- Node38&#45;&gt;Node12 -->
<g id="edge50" class="edge">
<title>Node38&#45;&gt;Node12</title>
<path fill="none" stroke="#191970" d="M723.6437,-58.4674C690.6433,-50.1715 643.9503,-37.8376 595.2671,-22.2267"/>
<polygon fill="#191970" stroke="#191970" points="596.0995,-18.8172 585.5074,-19.0611 593.9397,-25.4757 596.0995,-18.8172"/>
</g>
<!-- Node38&#45;&gt;Node24 -->
<g id="edge51" class="edge">
<title>Node38&#45;&gt;Node24</title>
<path fill="none" stroke="#191970" d="M814.2038,-66.7795C1003.017,-57.8978 1704.5414,-24.8983 1929.8483,-14.2999"/>
<polygon fill="#191970" stroke="#191970" points="1930.0713,-17.7934 1939.8958,-13.8273 1929.7423,-10.8011 1930.0713,-17.7934"/>
</g>
<!-- Node38&#45;&gt;Node27 -->
<g id="edge49" class="edge">
<title>Node38&#45;&gt;Node27</title>
<path fill="none" stroke="#191970" d="M767,-58.3619C767,-50.9219 767,-40.7427 767,-31.7276"/>
<polygon fill="#191970" stroke="#191970" points="770.5001,-31.5706 767,-21.5707 763.5001,-31.5707 770.5001,-31.5706"/>
</g>
<!-- Node41 -->
<g id="node40" class="node">
<title>Node41</title>
<polygon fill="#ffffff" stroke="#bfbfbf" points="878,-.5 878,-21.5 926,-21.5 926,-.5 878,-.5"/>
<text text-anchor="middle" x="902" y="-7.9" font-family="Helvetica,sans-Serif" font-size="12.00" fill="#000000">iomanip</text>
</g>
<!-- Node38&#45;&gt;Node41 -->
<g id="edge47" class="edge">
<title>Node38&#45;&gt;Node41</title>
<path fill="none" stroke="#191970" d="M791.4475,-58.4966C812.9513,-49.258 844.46,-35.7209 868.3431,-25.46"/>
<polygon fill="#191970" stroke="#191970" points="869.9281,-28.5885 877.7344,-21.4252 867.1648,-22.1569 869.9281,-28.5885"/>
</g>
<!-- Node46&#45;&gt;Node24 -->
<g id="edge53" class="edge">
<title>Node46&#45;&gt;Node24</title>
<path fill="none" stroke="#191970" d="M2091.7706,-238.6854C2085.3585,-208.8038 2065.2373,-123.0237 2033,-58 2028.0697,-48.0555 2021.1867,-37.8717 2014.9817,-29.5375"/>
<polygon fill="#191970" stroke="#191970" points="2017.7481,-27.3933 2008.8712,-21.6094 2012.2037,-31.6665 2017.7481,-27.3933"/>
</g>
<!-- Node47 -->
<g id="node42" class="node">
<title>Node47</title>
<g id="a_node42"><a xlink:href="../../d6/d01/base__timer_8hpp.html" target="_top" xlink:title="timemory/base_timer.hpp">
<polygon fill="#ffffff" stroke="#ff0000" points="1366,-174.5 1366,-195.5 1484,-195.5 1484,-174.5 1366,-174.5"/>
<text text-anchor="middle" x="1425" y="-181.9" font-family="Helvetica,sans-Serif" font-size="12.00" fill="#000000">timemory/base_timer.hpp</text>
</a>
</g>
</g>
<!-- Node46&#45;&gt;Node47 -->
<g id="edge54" class="edge">
<title>Node46&#45;&gt;Node47</title>
<path fill="none" stroke="#191970" d="M2046.7452,-244.5246C2012.6399,-240.9608 1965.4851,-236.0889 1924,-232 1770.6832,-216.8887 1590.7584,-200.1988 1494.362,-191.3417"/>
<polygon fill="#191970" stroke="#191970" points="1494.441,-187.8343 1484.1628,-190.4052 1493.8008,-194.805 1494.441,-187.8343"/>
</g>
<!-- Node47&#45;&gt;Node6 -->
<g id="edge86" class="edge">
<title>Node47&#45;&gt;Node6</title>
<path fill="none" stroke="#191970" d="M1365.9186,-178.8479C1248.6149,-166.6332 989.8777,-139.691 899.7246,-130.3035"/>
<polygon fill="#191970" stroke="#191970" points="899.8956,-126.8024 889.5868,-129.2478 899.1705,-133.7648 899.8956,-126.8024"/>
</g>
<!-- Node47&#45;&gt;Node11 -->
<g id="edge85" class="edge">
<title>Node47&#45;&gt;Node11</title>
<path fill="none" stroke="#191970" d="M1388.9008,-174.4894C1332.0548,-157.4507 1218.7064,-121.493 1127,-80 1121.7564,-77.6275 1060.1841,-45.5508 1022.6817,-25.9794"/>
<polygon fill="#191970" stroke="#191970" points="1024.1993,-22.8234 1013.7148,-21.2987 1020.9601,-29.0289 1024.1993,-22.8234"/>
</g>
<!-- Node47&#45;&gt;Node24 -->
<g id="edge55" class="edge">
<title>Node47&#45;&gt;Node24</title>
<path fill="none" stroke="#191970" d="M1484.3385,-179.7197C1607.4427,-167.7678 1885.4331,-135.2983 1961,-80 1977.3306,-68.0496 1987.7689,-47.0588 1993.6954,-31.358"/>
<polygon fill="#191970" stroke="#191970" points="1997.1404,-32.1043 1997.0946,-21.5096 1990.5234,-29.8205 1997.1404,-32.1043"/>
</g>
<!-- Node47&#45;&gt;Node28 -->
<g id="edge87" class="edge">
<title>Node47&#45;&gt;Node28</title>
<path fill="none" stroke="#191970" d="M1402.2979,-174.2949C1358.1596,-153.4818 1260.7042,-107.5272 1210.4031,-83.808"/>
<polygon fill="#191970" stroke="#191970" points="1211.8296,-80.6111 1201.292,-79.5117 1208.844,-86.9425 1211.8296,-80.6111"/>
</g>
<!-- Node47&#45;&gt;Node29 -->
<g id="edge90" class="edge">
<title>Node47&#45;&gt;Node29</title>
<path fill="none" stroke="#191970" d="M1413.0029,-174.2949C1390.5592,-154.2682 1342.0287,-110.9641 1314.7122,-86.5893"/>
<polygon fill="#191970" stroke="#191970" points="1316.7598,-83.7256 1306.9681,-79.6792 1312.0992,-88.9486 1316.7598,-83.7256"/>
</g>
<!-- Node47&#45;&gt;Node30 -->
<g id="edge88" class="edge">
<title>Node47&#45;&gt;Node30</title>
<path fill="none" stroke="#191970" d="M1462.5224,-174.4402C1494.6444,-165.2567 1542.0541,-151.3614 1583,-138 1637.5932,-120.1852 1700.063,-97.5579 1739.0264,-83.173"/>
<polygon fill="#191970" stroke="#191970" points="1740.7231,-86.2771 1748.8864,-79.5234 1738.2932,-79.7124 1740.7231,-86.2771"/>
</g>
<!-- Node47&#45;&gt;Node32 -->
<g id="edge89" class="edge">
<title>Node47&#45;&gt;Node32</title>
<path fill="none" stroke="#191970" d="M1472.7265,-174.4611C1514.3321,-165.1776 1576.2619,-151.1272 1630,-138 1705.9774,-119.4402 1793.727,-96.3556 1847.0154,-82.1522"/>
<polygon fill="#191970" stroke="#191970" points="1848.1175,-85.4806 1856.8768,-79.5202 1846.3124,-78.7174 1848.1175,-85.4806"/>
</g>
<!-- Node47&#45;&gt;Node38 -->
<g id="edge70" class="edge">
<title>Node47&#45;&gt;Node38</title>
<path fill="none" stroke="#191970" d="M1365.7374,-174.5525C1240.0677,-152.3979 948.2236,-100.9482 824.3028,-79.102"/>
<polygon fill="#191970" stroke="#191970" points="824.713,-75.6204 814.2572,-77.3311 823.4977,-82.5141 824.713,-75.6204"/>
</g>
<!-- Node47&#45;&gt;Node53 -->
<g id="edge56" class="edge">
<title>Node47&#45;&gt;Node53</title>
<path fill="none" stroke="#191970" d="M1437.2888,-174.3619C1447.0167,-165.9408 1460.7982,-154.0105 1472.0955,-144.2308"/>
<polygon fill="#191970" stroke="#191970" points="1474.5192,-146.7619 1479.7891,-137.5707 1469.9377,-141.4695 1474.5192,-146.7619"/>
</g>
<!-- Node55 -->
<g id="node45" class="node">
<title>Node55</title>
<polygon fill="#ffffff" stroke="#bfbfbf" points="1667.5,-58.5 1667.5,-79.5 1714.5,-79.5 1714.5,-58.5 1667.5,-58.5"/>
<text text-anchor="middle" x="1691" y="-65.9" font-family="Helvetica,sans-Serif" font-size="12.00" fill="#000000">fstream</text>
</g>
<!-- Node47&#45;&gt;Node55 -->
<g id="edge84" class="edge">
<title>Node47&#45;&gt;Node55</title>
<path fill="none" stroke="#191970" d="M1453.0939,-174.4746C1477.3368,-165.2565 1513.2054,-151.2931 1544,-138 1584.6396,-120.4571 1630.724,-98.4783 1660.2878,-84.1036"/>
<polygon fill="#191970" stroke="#191970" points="1661.8243,-87.2483 1669.2781,-79.7189 1658.7558,-80.9567 1661.8243,-87.2483"/>
</g>
<!-- Node47&#45;&gt;Node60 -->
<g id="edge71" class="edge">
<title>Node47&#45;&gt;Node60</title>
<path fill="none" stroke="#191970" d="M1365.7701,-180.8055C1221.0892,-170.5594 849.5813,-144.25 685.7017,-132.6443"/>
<polygon fill="#191970" stroke="#191970" points="685.9075,-129.1502 675.6852,-131.935 685.413,-136.1327 685.9075,-129.1502"/>
</g>
<!-- Node53&#45;&gt;Node7 -->
<g id="edge58" class="edge">
<title>Node53&#45;&gt;Node7</title>
<path fill="none" stroke="#191970" d="M1466.8259,-116.4119C1446.2861,-107.4798 1416.7268,-93.9509 1392,-80 1376.6478,-71.3383 1375.7161,-63.5935 1359,-58 1230.6513,-15.052 889.0006,-45.5073 737.9215,-21.6276"/>
<polygon fill="#191970" stroke="#191970" points="738.262,-18.135 727.8142,-19.8939 737.0785,-25.0342 738.262,-18.135"/>
</g>
<!-- Node53&#45;&gt;Node8 -->
<g id="edge63" class="edge">
<title>Node53&#45;&gt;Node8</title>
<path fill="none" stroke="#191970" d="M1448.6925,-125.9038C1330.2613,-122.5802 991.1618,-110.8832 711,-80 561.5826,-63.5292 384.8441,-30.8926 313.8512,-17.2368"/>
<polygon fill="#191970" stroke="#191970" points="314.2545,-13.7501 303.7719,-15.2886 312.926,-20.6229 314.2545,-13.7501"/>
</g>
<!-- Node53&#45;&gt;Node11 -->
<g id="edge60" class="edge">
<title>Node53&#45;&gt;Node11</title>
<path fill="none" stroke="#191970" d="M1491.6698,-116.362C1490.562,-100.8186 1486.0301,-72.2096 1468,-58 1433.06,-30.4636 1121.9579,-16.0118 1023.6418,-12.1034"/>
<polygon fill="#191970" stroke="#191970" points="1023.6367,-8.6006 1013.5078,-11.7081 1023.3638,-15.5953 1023.6367,-8.6006"/>
</g>
<!-- Node53&#45;&gt;Node24 -->
<g id="edge69" class="edge">
<title>Node53&#45;&gt;Node24</title>
<path fill="none" stroke="#191970" d="M1524.9444,-116.4195C1550.9297,-107.6917 1587.8579,-94.4345 1619,-80 1637.0558,-71.6311 1639.1414,-64.3562 1658,-58 1706.9132,-41.514 1844.8344,-25.9352 1929.8427,-17.5063"/>
<polygon fill="#191970" stroke="#191970" points="1930.3279,-20.9756 1939.9377,-16.5143 1929.6433,-14.0092 1930.3279,-20.9756"/>
</g>
<!-- Node53&#45;&gt;Node28 -->
<g id="edge65" class="edge">
<title>Node53&#45;&gt;Node28</title>
<path fill="none" stroke="#191970" d="M1448.9736,-119.6634C1399.1985,-111.0847 1314.5278,-96.2122 1232.1428,-80.1844"/>
<polygon fill="#191970" stroke="#191970" points="1232.5953,-76.7067 1222.1097,-78.2244 1231.2531,-83.5768 1232.5953,-76.7067"/>
</g>
<!-- Node53&#45;&gt;Node29 -->
<g id="edge68" class="edge">
<title>Node53&#45;&gt;Node29</title>
<path fill="none" stroke="#191970" d="M1456.3248,-116.4966C1423.9304,-106.9592 1375.9766,-92.8408 1340.7687,-82.475"/>
<polygon fill="#191970" stroke="#191970" points="1341.3235,-78.9899 1330.7421,-79.5231 1339.3465,-85.7049 1341.3235,-78.9899"/>
</g>
<!-- Node53&#45;&gt;Node30 -->
<g id="edge66" class="edge">
<title>Node53&#45;&gt;Node30</title>
<path fill="none" stroke="#191970" d="M1535.0006,-118.254C1579.3071,-109.2418 1650.6593,-94.7264 1722.1285,-80.1771"/>
<polygon fill="#191970" stroke="#191970" points="1723.1103,-83.5491 1732.2111,-78.1245 1721.7139,-76.6898 1723.1103,-83.5491"/>
</g>
<!-- Node53&#45;&gt;Node32 -->
<g id="edge67" class="edge">
<title>Node53&#45;&gt;Node32</title>
<path fill="none" stroke="#191970" d="M1535.0052,-121.398C1597.3877,-113.1889 1716.8788,-97.1533 1829.3297,-80.0706"/>
<polygon fill="#191970" stroke="#191970" points="1830.1323,-83.4888 1839.4904,-78.5212 1829.077,-76.5688 1830.1323,-83.4888"/>
</g>
<!-- Node53&#45;&gt;Node41 -->
<g id="edge61" class="edge">
<title>Node53&#45;&gt;Node41</title>
<path fill="none" stroke="#191970" d="M1486.0434,-116.2856C1476.5354,-100.3676 1456.2895,-70.9604 1430,-58 1337.0401,-12.1717 1067.8331,-34.9281 965,-22 955.6353,-20.8227 945.5433,-19.2143 936.2395,-17.591"/>
<polygon fill="#191970" stroke="#191970" points="936.613,-14.1021 926.1509,-15.7741 935.3722,-20.9912 936.613,-14.1021"/>
</g>
<!-- Node54 -->
<g id="node44" class="node">
<title>Node54</title>
<polygon fill="#ffffff" stroke="#bfbfbf" points="1520.5,-58.5 1520.5,-79.5 1549.5,-79.5 1549.5,-58.5 1520.5,-58.5"/>
<text text-anchor="middle" x="1535" y="-65.9" font-family="Helvetica,sans-Serif" font-size="12.00" fill="#000000">ios</text>
</g>
<!-- Node53&#45;&gt;Node54 -->
<g id="edge57" class="edge">
<title>Node53&#45;&gt;Node54</title>
<path fill="none" stroke="#191970" d="M1499.8869,-116.3619C1505.827,-108.3496 1514.1224,-97.1605 1521.1588,-87.6696"/>
<polygon fill="#191970" stroke="#191970" points="1524.0191,-89.6883 1527.1631,-79.5707 1518.3959,-85.5193 1524.0191,-89.6883"/>
</g>
<!-- Node53&#45;&gt;Node55 -->
<g id="edge59" class="edge">
<title>Node53&#45;&gt;Node55</title>
<path fill="none" stroke="#191970" d="M1528.0374,-116.4966C1564.8383,-105.7707 1621.5177,-89.2511 1657.407,-78.7909"/>
<polygon fill="#191970" stroke="#191970" points="1658.7672,-82.0402 1667.3883,-75.8818 1656.8084,-75.3198 1658.7672,-82.0402"/>
</g>
<!-- Node56 -->
<g id="node46" class="node">
<title>Node56</title>
<polygon fill="#ffffff" stroke="#bfbfbf" points="1567.5,-58.5 1567.5,-79.5 1610.5,-79.5 1610.5,-58.5 1567.5,-58.5"/>
<text text-anchor="middle" x="1589" y="-65.9" font-family="Helvetica,sans-Serif" font-size="12.00" fill="#000000">stdio.h</text>
</g>
<!-- Node53&#45;&gt;Node56 -->
<g id="edge62" class="edge">
<title>Node53&#45;&gt;Node56</title>
<path fill="none" stroke="#191970" d="M1509.7913,-116.3619C1524.5585,-107.532 1545.7782,-94.844 1562.5384,-84.8224"/>
<polygon fill="#191970" stroke="#191970" points="1564.5349,-87.7066 1571.3215,-79.5707 1560.9426,-81.6987 1564.5349,-87.7066"/>
</g>
<!-- Node57 -->
<g id="node47" class="node">
<title>Node57</title>
<polygon fill="#ffffff" stroke="#bfbfbf" points="806,-.5 806,-21.5 860,-21.5 860,-.5 806,-.5"/>
<text text-anchor="middle" x="833" y="-7.9" font-family="Helvetica,sans-Serif" font-size="12.00" fill="#000000">algorithm</text>
</g>
<!-- Node53&#45;&gt;Node57 -->
<g id="edge64" class="edge">
<title>Node53&#45;&gt;Node57</title>
<path fill="none" stroke="#191970" d="M1478.543,-116.3663C1455.8737,-98.6886 1410.7162,-64.544 1392,-58 1175.1759,17.8104 1100.2427,-61.9923 870.3601,-21.8665"/>
<polygon fill="#191970" stroke="#191970" points="870.82,-18.393 860.3575,-20.0624 869.5775,-25.2819 870.82,-18.393"/>
</g>
<!-- Node60&#45;&gt;Node3 -->
<g id="edge76" class="edge">
<title>Node60&#45;&gt;Node3</title>
<path fill="none" stroke="#191970" d="M608.3071,-116.2949C612.4558,-97.0451 621.2395,-56.2889 626.5799,-31.5091"/>
<polygon fill="#191970" stroke="#191970" points="630.013,-32.1922 628.6984,-21.6792 623.1701,-30.7174 630.013,-32.1922"/>
</g>
<!-- Node60&#45;&gt;Node7 -->
<g id="edge72" class="edge">
<title>Node60&#45;&gt;Node7</title>
<path fill="none" stroke="#191970" d="M614.8594,-116.2949C631.2189,-96.5271 666.3475,-54.0801 686.653,-29.5443"/>
<polygon fill="#191970" stroke="#191970" points="689.4827,-31.6147 693.162,-21.6792 684.0899,-27.1517 689.4827,-31.6147"/>
</g>
<!-- Node60&#45;&gt;Node9 -->
<g id="edge74" class="edge">
<title>Node60&#45;&gt;Node9</title>
<path fill="none" stroke="#191970" d="M596.4023,-116.2949C578.6021,-96.4408 540.2908,-53.709 518.3387,-29.2239"/>
<polygon fill="#191970" stroke="#191970" points="520.8559,-26.7885 511.5745,-21.6792 515.6439,-31.4613 520.8559,-26.7885"/>
</g>
<!-- Node60&#45;&gt;Node11 -->
<g id="edge73" class="edge">
<title>Node60&#45;&gt;Node11</title>
<path fill="none" stroke="#191970" d="M675.6665,-118.8064C725.8518,-111.6914 794.71,-99.4182 853,-80 894.8142,-66.0704 940.067,-42.2045 967.7275,-26.5149"/>
<polygon fill="#191970" stroke="#191970" points="969.4737,-29.5483 976.4032,-21.5337 965.9882,-23.4777 969.4737,-29.5483"/>
</g>
<!-- Node60&#45;&gt;Node12 -->
<g id="edge78" class="edge">
<title>Node60&#45;&gt;Node12</title>
<path fill="none" stroke="#191970" d="M602.2163,-116.2949C595.382,-96.9588 580.8779,-55.9229 572.1314,-31.1767"/>
<polygon fill="#191970" stroke="#191970" points="575.407,-29.9412 568.7745,-21.6792 568.8071,-32.274 575.407,-29.9412"/>
</g>
<!-- Node60&#45;&gt;Node24 -->
<g id="edge79" class="edge">
<title>Node60&#45;&gt;Node24</title>
<path fill="none" stroke="#191970" d="M672.8408,-116.4512C771.7995,-101.2195 963.2443,-73.2285 1127,-58 1424.5739,-30.3271 1780.8407,-17.4188 1929.4776,-12.9336"/>
<polygon fill="#191970" stroke="#191970" points="1929.9258,-16.4219 1939.817,-12.6252 1929.717,-9.425 1929.9258,-16.4219"/>
</g>
<!-- Node60&#45;&gt;Node27 -->
<g id="edge77" class="edge">
<title>Node60&#45;&gt;Node27</title>
<path fill="none" stroke="#191970" d="M620.8579,-116.2949C649.0131,-96.0092 710.3165,-51.8403 743.8863,-27.6534"/>
<polygon fill="#191970" stroke="#191970" points="746.1106,-30.3647 752.178,-21.6792 742.0185,-24.6852 746.1106,-30.3647"/>
</g>
<!-- Node60&#45;&gt;Node38 -->
<g id="edge80" class="edge">
<title>Node60&#45;&gt;Node38</title>
<path fill="none" stroke="#191970" d="M635.1559,-116.4966C661.176,-107.1229 699.4793,-93.3242 728.1041,-83.0122"/>
<polygon fill="#191970" stroke="#191970" points="729.5676,-86.2052 737.7894,-79.5231 727.195,-79.6195 729.5676,-86.2052"/>
</g>
<!-- Node60&#45;&gt;Node41 -->
<g id="edge75" class="edge">
<title>Node60&#45;&gt;Node41</title>
<path fill="none" stroke="#191970" d="M675.9245,-120.8848C719.9813,-114.893 777.0177,-103.1043 823,-80 847.9413,-67.468 871.3372,-45.2062 886.0968,-29.3589"/>
<polygon fill="#191970" stroke="#191970" points="888.875,-31.505 892.9902,-21.742 883.685,-26.8078 888.875,-31.505"/>
</g>
<!-- Node60&#45;&gt;Node62 -->
<g id="edge81" class="edge">
<title>Node60&#45;&gt;Node62</title>
<path fill="none" stroke="#191970" d="M574.1277,-116.4966C545.435,-107.0411 503.0791,-93.0829 471.7023,-82.7428"/>
<polygon fill="#191970" stroke="#191970" points="472.5251,-79.3289 461.932,-79.5231 470.3341,-85.9772 472.5251,-79.3289"/>
</g>
<!-- Node62&#45;&gt;Node8 -->
<g id="edge82" class="edge">
<title>Node62&#45;&gt;Node8</title>
<path fill="none" stroke="#191970" d="M403.1983,-58.4966C377.937,-48.5969 340.0815,-33.7617 313.413,-23.3105"/>
<polygon fill="#191970" stroke="#191970" points="314.3771,-19.9292 303.7894,-19.5391 311.8229,-26.4466 314.3771,-19.9292"/>
</g>
<!-- Node62&#45;&gt;Node57 -->
<g id="edge83" class="edge">
<title>Node62&#45;&gt;Node57</title>
<path fill="none" stroke="#191970" d="M474.1892,-65.77C541.7156,-60.3054 674.6732,-47.4646 795.7956,-21.9898"/>
<polygon fill="#191970" stroke="#191970" points="796.561,-25.4054 805.6085,-19.8923 795.0977,-18.56 796.561,-25.4054"/>
</g>
<!-- Node63&#45;&gt;Node8 -->
<g id="edge99" class="edge">
<title>Node63&#45;&gt;Node8</title>
<path fill="none" stroke="#191970" d="M642.5499,-361.3404C599.3241,-324.1428 452.3059,-196.0444 341,-80 325.2789,-63.6096 308.5633,-43.81 296.9534,-29.6317"/>
<polygon fill="#191970" stroke="#191970" points="299.4603,-27.1667 290.439,-21.611 294.0267,-31.5799 299.4603,-27.1667"/>
</g>
<!-- Node63&#45;&gt;Node11 -->
<g id="edge98" class="edge">
<title>Node63&#45;&gt;Node11</title>
<path fill="none" stroke="#191970" d="M661.1502,-361.4837C686.9416,-317.7073 787.3366,-150.604 837,-116 887.2445,-80.9912 925.201,-121.7514 970,-80 983.4391,-67.4751 989.3536,-47.0347 991.9561,-31.6454"/>
<polygon fill="#191970" stroke="#191970" points="995.4539,-31.8966 993.326,-21.5177 988.5171,-30.9583 995.4539,-31.8966"/>
</g>
<!-- Node63&#45;&gt;Node24 -->
<g id="edge95" class="edge">
<title>Node63&#45;&gt;Node24</title>
<path fill="none" stroke="#191970" d="M713.3076,-368.8296C845.4758,-361.5881 1177.9826,-343.0606 1456,-325 1636.966,-313.244 2132.1331,-384.8118 2270,-267 2298.4404,-242.6967 2289,-222.41 2289,-185 2289,-185 2289,-185 2289,-127 2289,-79.1551 2150.8579,-42.0197 2065.5899,-23.6552"/>
<polygon fill="#191970" stroke="#191970" points="2066.2307,-20.2133 2055.7221,-21.5626 2064.7785,-27.061 2066.2307,-20.2133"/>
</g>
<!-- Node63&#45;&gt;Node25 -->
<g id="edge97" class="edge">
<title>Node63&#45;&gt;Node25</title>
<path fill="none" stroke="#191970" d="M713.2485,-367.3272C842.2244,-356.9806 1152.0598,-332.1252 1298.6157,-320.3683"/>
<polygon fill="#191970" stroke="#191970" points="1299.1927,-323.8334 1308.8808,-319.5448 1298.6329,-316.8558 1299.1927,-323.8334"/>
</g>
<!-- Node63&#45;&gt;Node38 -->
<g id="edge96" class="edge">
<title>Node63&#45;&gt;Node38</title>
<path fill="none" stroke="#191970" d="M655.9895,-361.2736C658.3592,-337.5701 665.2154,-279.0978 679,-232 694.7208,-178.2868 698.9305,-163.8248 728,-116 734.1958,-105.8068 742.4777,-95.4959 749.8157,-87.1392"/>
<polygon fill="#191970" stroke="#191970" points="752.6066,-89.2716 756.7268,-79.5107 747.4189,-84.5717 752.6066,-89.2716"/>
</g>
</g>
</svg>
