<?xml version="1.0" encoding="UTF-8" standalone="no"?>
<!DOCTYPE svg PUBLIC "-//W3C//DTD SVG 1.1//EN"
 "http://www.w3.org/Graphics/SVG/1.1/DTD/svg11.dtd">
<!-- Generated by graphviz version 2.40.1 (20161225.0304)
 -->
<!-- Title: timemory.cc Pages: 1 -->
<svg width="2763pt" height="449pt"
 viewBox="0.00 0.00 2763.00 449.00" xmlns="http://www.w3.org/2000/svg" xmlns:xlink="http://www.w3.org/1999/xlink">
<g id="graph0" class="graph" transform="scale(1 1) rotate(0) translate(4 445)">
<title>timemory.cc</title>
<polygon fill="#ffffff" stroke="transparent" points="-4,4 -4,-445 2759,-445 2759,4 -4,4"/>
<!-- Node0 -->
<g id="node1" class="node">
<title>Node0</title>
<polygon fill="#bfbfbf" stroke="#000000" points="1478.5,-419.5 1478.5,-440.5 1543.5,-440.5 1543.5,-419.5 1478.5,-419.5"/>
<text text-anchor="middle" x="1511" y="-426.9" font-family="Helvetica,sans-Serif" font-size="12.00" fill="#000000">timemory.cc</text>
</g>
<!-- Node1 -->
<g id="node2" class="node">
<title>Node1</title>
<polygon fill="#ffffff" stroke="#bfbfbf" points="0,-361.5 0,-382.5 40,-382.5 40,-361.5 0,-361.5"/>
<text text-anchor="middle" x="20" y="-368.9" font-family="Helvetica,sans-Serif" font-size="12.00" fill="#000000">future</text>
</g>
<!-- Node0&#45;&gt;Node1 -->
<g id="edge1" class="edge">
<title>Node0&#45;&gt;Node1</title>
<path fill="none" stroke="#191970" d="M1478.3417,-429.5954C1279.5976,-427.0497 235.296,-412.4492 50.0633,-382.3838"/>
<polygon fill="#191970" stroke="#191970" points="50.4931,-378.9048 40.0297,-380.5686 49.2469,-385.793 50.4931,-378.9048"/>
</g>
<!-- Node2 -->
<g id="node3" class="node">
<title>Node2</title>
<polygon fill="#ffffff" stroke="#bfbfbf" points="58,-361.5 58,-382.5 102,-382.5 102,-361.5 58,-361.5"/>
<text text-anchor="middle" x="80" y="-368.9" font-family="Helvetica,sans-Serif" font-size="12.00" fill="#000000">chrono</text>
</g>
<!-- Node0&#45;&gt;Node2 -->
<g id="edge2" class="edge">
<title>Node0&#45;&gt;Node2</title>
<path fill="none" stroke="#191970" d="M1478.2791,-429.4127C1281.0228,-425.8038 254.1888,-406.0263 116,-383 114.7309,-382.7885 113.444,-382.5445 112.1497,-382.2742"/>
<polygon fill="#191970" stroke="#191970" points="112.8018,-378.8295 102.2508,-379.7916 111.0989,-385.6192 112.8018,-378.8295"/>
</g>
<!-- Node3 -->
<g id="node4" class="node">
<title>Node3</title>
<polygon fill="#ffffff" stroke="#bfbfbf" points="1854.5,-.5 1854.5,-21.5 1909.5,-21.5 1909.5,-.5 1854.5,-.5"/>
<text text-anchor="middle" x="1882" y="-7.9" font-family="Helvetica,sans-Serif" font-size="12.00" fill="#000000">functional</text>
</g>
<!-- Node0&#45;&gt;Node3 -->
<g id="edge3" class="edge">
<title>Node0&#45;&gt;Node3</title>
<path fill="none" stroke="#191970" d="M1543.5457,-429.173C1701.0317,-425.0621 2378.0007,-406.1011 2416,-383 2441.5324,-367.4779 2442.1709,-353.8365 2450,-325 2488.433,-183.441 2396.2376,-101.0054 2256,-58 2114.6699,-14.6596 2068.0233,-50.5937 1919.6925,-22.0342"/>
<polygon fill="#191970" stroke="#191970" points="1920.2642,-18.5794 1909.773,-20.0583 1918.8966,-25.4445 1920.2642,-18.5794"/>
</g>
<!-- Node4 -->
<g id="node5" class="node">
<title>Node4</title>
<polygon fill="#ffffff" stroke="#bfbfbf" points="2582.5,-.5 2582.5,-21.5 2623.5,-21.5 2623.5,-.5 2582.5,-.5"/>
<text text-anchor="middle" x="2603" y="-7.9" font-family="Helvetica,sans-Serif" font-size="12.00" fill="#000000">mutex</text>
</g>
<!-- Node0&#45;&gt;Node4 -->
<g id="edge4" class="edge">
<title>Node0&#45;&gt;Node4</title>
<path fill="none" stroke="#191970" d="M1543.746,-429.8319C1720.4431,-428.7698 2556.1718,-421.7198 2664,-383 2711.7698,-365.8464 2755,-364.7563 2755,-314 2755,-314 2755,-314 2755,-127 2755,-66.4845 2677.921,-33.3328 2633.5402,-19.2602"/>
<polygon fill="#191970" stroke="#191970" points="2634.4015,-15.8641 2623.8162,-16.315 2632.3723,-22.5635 2634.4015,-15.8641"/>
</g>
<!-- Node5 -->
<g id="node6" class="node">
<title>Node5</title>
<polygon fill="#ffffff" stroke="#bfbfbf" points="1591,-.5 1591,-21.5 1633,-21.5 1633,-.5 1591,-.5"/>
<text text-anchor="middle" x="1612" y="-7.9" font-family="Helvetica,sans-Serif" font-size="12.00" fill="#000000">thread</text>
</g>
<!-- Node0&#45;&gt;Node5 -->
<g id="edge5" class="edge">
<title>Node0&#45;&gt;Node5</title>
<path fill="none" stroke="#191970" d="M1478.39,-428.4735C1389.3915,-423.9761 1147.3939,-409.4069 1124,-383 1117.5162,-375.6811 1119.5964,-369.73 1124,-361 1223.1166,-164.5043 1490.5678,-54.0892 1581.3612,-21.3945"/>
<polygon fill="#191970" stroke="#191970" points="1582.5535,-24.6853 1590.8091,-18.0448 1580.2143,-18.0877 1582.5535,-24.6853"/>
</g>
<!-- Node6 -->
<g id="node7" class="node">
<title>Node6</title>
<polygon fill="#ffffff" stroke="#bfbfbf" points="222.5,-.5 222.5,-21.5 265.5,-21.5 265.5,-.5 222.5,-.5"/>
<text text-anchor="middle" x="244" y="-7.9" font-family="Helvetica,sans-Serif" font-size="12.00" fill="#000000">atomic</text>
</g>
<!-- Node0&#45;&gt;Node6 -->
<g id="edge6" class="edge">
<title>Node0&#45;&gt;Node6</title>
<path fill="none" stroke="#191970" d="M1478.4691,-429.6308C1280.3357,-427.285 242.3501,-413.5663 183,-383 148.6222,-365.2948 130,-352.6692 130,-314 130,-314 130,-314 130,-127 130,-79.3811 179.4731,-44.1607 213.2368,-25.6688"/>
<polygon fill="#191970" stroke="#191970" points="215.0728,-28.6576 222.2891,-20.9003 211.8104,-22.4643 215.0728,-28.6576"/>
</g>
<!-- Node7 -->
<g id="node8" class="node">
<title>Node7</title>
<polygon fill="#ffffff" stroke="#bfbfbf" points="1471.5,-.5 1471.5,-21.5 1522.5,-21.5 1522.5,-.5 1471.5,-.5"/>
<text text-anchor="middle" x="1497" y="-7.9" font-family="Helvetica,sans-Serif" font-size="12.00" fill="#000000">iostream</text>
</g>
<!-- Node0&#45;&gt;Node7 -->
<g id="edge7" class="edge">
<title>Node0&#45;&gt;Node7</title>
<path fill="none" stroke="#191970" d="M1478.2512,-429.7732C1319.7013,-428.4944 630.8663,-420.8224 420,-383 321.6369,-365.357 206,-413.9328 206,-314 206,-314 206,-314 206,-185 206,-30.7464 378.1858,-90.3922 529,-58 621.3552,-38.1637 1296.5752,-16.9616 1460.9847,-12.0544"/>
<polygon fill="#191970" stroke="#191970" points="1461.1722,-15.5505 1471.0638,-11.7549 1460.9642,-8.5536 1461.1722,-15.5505"/>
</g>
<!-- Node8 -->
<g id="node9" class="node">
<title>Node8</title>
<polygon fill="#ffffff" stroke="#bfbfbf" points="2291.5,-.5 2291.5,-21.5 2334.5,-21.5 2334.5,-.5 2291.5,-.5"/>
<text text-anchor="middle" x="2313" y="-7.9" font-family="Helvetica,sans-Serif" font-size="12.00" fill="#000000">cstdint</text>
</g>
<!-- Node0&#45;&gt;Node8 -->
<g id="edge8" class="edge">
<title>Node0&#45;&gt;Node8</title>
<path fill="none" stroke="#191970" d="M1543.6573,-429.6502C1715.3017,-427.6723 2509.1356,-416.7525 2613,-383 2665.7545,-365.8565 2717,-369.4702 2717,-314 2717,-314 2717,-314 2717,-127 2717,-49.7086 2440.3691,-20.9033 2344.9226,-13.2649"/>
<polygon fill="#191970" stroke="#191970" points="2344.9613,-9.7575 2334.7208,-12.4745 2344.4205,-16.7366 2344.9613,-9.7575"/>
</g>
<!-- Node9 -->
<g id="node10" class="node">
<title>Node9</title>
<polygon fill="#ffffff" stroke="#bfbfbf" points="1927.5,-.5 1927.5,-21.5 1976.5,-21.5 1976.5,-.5 1927.5,-.5"/>
<text text-anchor="middle" x="1952" y="-7.9" font-family="Helvetica,sans-Serif" font-size="12.00" fill="#000000">sstream</text>
</g>
<!-- Node0&#45;&gt;Node9 -->
<g id="edge9" class="edge">
<title>Node0&#45;&gt;Node9</title>
<path fill="none" stroke="#191970" d="M1543.5852,-429.5811C1687.1105,-427.548 2263.6375,-417.3594 2441,-383 2533.3139,-365.1165 2641,-408.0302 2641,-314 2641,-314 2641,-314 2641,-249.5 2641,-75.2935 2465.0398,-110.7132 2299,-58 2168.2533,-16.4914 2124.2107,-50.6886 1986.7707,-22.0239"/>
<polygon fill="#191970" stroke="#191970" points="1987.2249,-18.5413 1976.7111,-19.8495 1985.7459,-25.3833 1987.2249,-18.5413"/>
</g>
<!-- Node10 -->
<g id="node11" class="node">
<title>Node10</title>
<polygon fill="#ffffff" stroke="#bfbfbf" points="1043,-361.5 1043,-382.5 1077,-382.5 1077,-361.5 1043,-361.5"/>
<text text-anchor="middle" x="1060" y="-368.9" font-family="Helvetica,sans-Serif" font-size="12.00" fill="#000000">map</text>
</g>
<!-- Node0&#45;&gt;Node10 -->
<g id="edge10" class="edge">
<title>Node0&#45;&gt;Node10</title>
<path fill="none" stroke="#191970" d="M1478.4334,-428.8957C1407.2756,-425.9319 1232.9325,-415.6657 1091,-383 1089.7165,-382.7046 1088.4127,-382.3732 1087.1026,-382.0146"/>
<polygon fill="#191970" stroke="#191970" points="1087.7608,-378.5522 1077.1711,-378.8816 1085.6549,-385.228 1087.7608,-378.5522"/>
</g>
<!-- Node11 -->
<g id="node12" class="node">
<title>Node11</title>
<polygon fill="#ffffff" stroke="#bfbfbf" points="1072.5,-.5 1072.5,-21.5 1111.5,-21.5 1111.5,-.5 1072.5,-.5"/>
<text text-anchor="middle" x="1092" y="-7.9" font-family="Helvetica,sans-Serif" font-size="12.00" fill="#000000">string</text>
</g>
<!-- Node0&#45;&gt;Node11 -->
<g id="edge11" class="edge">
<title>Node0&#45;&gt;Node11</title>
<path fill="none" stroke="#191970" d="M1478.1949,-429.4094C1340.0653,-426.7414 805.2997,-414.5432 640,-383 545.1564,-364.9015 434,-410.555 434,-314 434,-314 434,-314 434,-185 434,-122.1885 444.0769,-93.3451 496,-58 543.1184,-25.9256 948.1936,-14.2901 1062.2349,-11.6333"/>
<polygon fill="#191970" stroke="#191970" points="1062.4229,-15.13 1072.3408,-11.4038 1062.2639,-8.1318 1062.4229,-15.13"/>
</g>
<!-- Node12 -->
<g id="node13" class="node">
<title>Node12</title>
<polygon fill="#ffffff" stroke="#bfbfbf" points="1994.5,-.5 1994.5,-21.5 2035.5,-21.5 2035.5,-.5 1994.5,-.5"/>
<text text-anchor="middle" x="2015" y="-7.9" font-family="Helvetica,sans-Serif" font-size="12.00" fill="#000000">vector</text>
</g>
<!-- Node0&#45;&gt;Node12 -->
<g id="edge12" class="edge">
<title>Node0&#45;&gt;Node12</title>
<path fill="none" stroke="#191970" d="M1543.7339,-429.344C1708.8597,-425.9233 2446.4063,-409.2777 2545,-383 2609.7278,-365.7484 2679,-380.9874 2679,-314 2679,-314 2679,-314 2679,-249.5 2679,-177.6933 2649.9927,-152.2368 2588,-116 2493.7625,-60.9151 2151.047,-24.0714 2045.8926,-13.8719"/>
<polygon fill="#191970" stroke="#191970" points="2045.931,-10.3596 2035.6427,-12.8895 2045.2631,-17.3277 2045.931,-10.3596"/>
</g>
<!-- Node13 -->
<g id="node14" class="node">
<title>Node13</title>
<polygon fill="#ffffff" stroke="#bfbfbf" points="462.5,-174.5 462.5,-195.5 511.5,-195.5 511.5,-174.5 462.5,-174.5"/>
<text text-anchor="middle" x="487" y="-181.9" font-family="Helvetica,sans-Serif" font-size="12.00" fill="#000000">memory</text>
</g>
<!-- Node0&#45;&gt;Node13 -->
<g id="edge13" class="edge">
<title>Node0&#45;&gt;Node13</title>
<path fill="none" stroke="#191970" d="M1478.2195,-429.5516C1333.1245,-427.3782 752.6072,-416.6337 679,-383 592.5349,-343.4911 524.7049,-246.1769 498.6097,-204.479"/>
<polygon fill="#191970" stroke="#191970" points="501.4969,-202.492 493.2823,-195.8008 495.5313,-206.1542 501.4969,-202.492"/>
</g>
<!-- Node14 -->
<g id="node15" class="node">
<title>Node14</title>
<polygon fill="#ffffff" stroke="#bfbfbf" points="1305,-361.5 1305,-382.5 1405,-382.5 1405,-361.5 1305,-361.5"/>
<text text-anchor="middle" x="1355" y="-368.9" font-family="Helvetica,sans-Serif" font-size="12.00" fill="#000000">pybind11/pybind11.h</text>
</g>
<!-- Node0&#45;&gt;Node14 -->
<g id="edge14" class="edge">
<title>Node0&#45;&gt;Node14</title>
<path fill="none" stroke="#191970" d="M1482.7496,-419.4966C1457.5375,-410.1229 1420.4238,-396.3242 1392.6879,-386.0122"/>
<polygon fill="#191970" stroke="#191970" points="1393.8963,-382.7274 1383.3034,-382.5231 1391.4568,-389.2886 1393.8963,-382.7274"/>
</g>
<!-- Node15 -->
<g id="node16" class="node">
<title>Node15</title>
<polygon fill="#ffffff" stroke="#bfbfbf" points="1423,-361.5 1423,-382.5 1495,-382.5 1495,-361.5 1423,-361.5"/>
<text text-anchor="middle" x="1459" y="-368.9" font-family="Helvetica,sans-Serif" font-size="12.00" fill="#000000">pybind11/stl.h</text>
</g>
<!-- Node0&#45;&gt;Node15 -->
<g id="edge15" class="edge">
<title>Node0&#45;&gt;Node15</title>
<path fill="none" stroke="#191970" d="M1501.4624,-419.3619C1494.1323,-411.1861 1483.8367,-399.7025 1475.2192,-390.0907"/>
<polygon fill="#191970" stroke="#191970" points="1477.7586,-387.68 1468.4771,-382.5707 1472.5466,-392.3528 1477.7586,-387.68"/>
</g>
<!-- Node16 -->
<g id="node17" class="node">
<title>Node16</title>
<polygon fill="#ffffff" stroke="#bfbfbf" points="1513,-361.5 1513,-382.5 1615,-382.5 1615,-361.5 1513,-361.5"/>
<text text-anchor="middle" x="1564" y="-368.9" font-family="Helvetica,sans-Serif" font-size="12.00" fill="#000000">pybind11/functional.h</text>
</g>
<!-- Node0&#45;&gt;Node16 -->
<g id="edge16" class="edge">
<title>Node0&#45;&gt;Node16</title>
<path fill="none" stroke="#191970" d="M1520.721,-419.3619C1528.192,-411.1861 1538.6857,-399.7025 1547.4689,-390.0907"/>
<polygon fill="#191970" stroke="#191970" points="1550.1786,-392.3138 1554.3406,-382.5707 1545.0111,-387.5918 1550.1786,-392.3138"/>
</g>
<!-- Node17 -->
<g id="node18" class="node">
<title>Node17</title>
<polygon fill="#ffffff" stroke="#bfbfbf" points="1633.5,-361.5 1633.5,-382.5 1724.5,-382.5 1724.5,-361.5 1633.5,-361.5"/>
<text text-anchor="middle" x="1679" y="-368.9" font-family="Helvetica,sans-Serif" font-size="12.00" fill="#000000">pybind11/chrono.h</text>
</g>
<!-- Node0&#45;&gt;Node17 -->
<g id="edge17" class="edge">
<title>Node0&#45;&gt;Node17</title>
<path fill="none" stroke="#191970" d="M1541.4235,-419.4966C1568.6935,-410.082 1608.8929,-396.2036 1638.8037,-385.8773"/>
<polygon fill="#191970" stroke="#191970" points="1640.2091,-389.0949 1648.5194,-382.5231 1637.9247,-382.4781 1640.2091,-389.0949"/>
</g>
<!-- Node18 -->
<g id="node19" class="node">
<title>Node18</title>
<polygon fill="#ffffff" stroke="#bfbfbf" points="1743,-361.5 1743,-382.5 1833,-382.5 1833,-361.5 1743,-361.5"/>
<text text-anchor="middle" x="1788" y="-368.9" font-family="Helvetica,sans-Serif" font-size="12.00" fill="#000000">pybind11/numpy.h</text>
</g>
<!-- Node0&#45;&gt;Node18 -->
<g id="edge18" class="edge">
<title>Node0&#45;&gt;Node18</title>
<path fill="none" stroke="#191970" d="M1543.59,-423.1761C1590.1349,-413.4302 1676.264,-395.396 1732.8457,-383.5486"/>
<polygon fill="#191970" stroke="#191970" points="1733.6325,-386.9598 1742.7029,-381.4846 1732.1978,-380.1084 1733.6325,-386.9598"/>
</g>
<!-- Node19 -->
<g id="node20" class="node">
<title>Node19</title>
<polygon fill="#ffffff" stroke="#bfbfbf" points="1851,-361.5 1851,-382.5 1949,-382.5 1949,-361.5 1851,-361.5"/>
<text text-anchor="middle" x="1900" y="-368.9" font-family="Helvetica,sans-Serif" font-size="12.00" fill="#000000">pybind11/iostream.h</text>
</g>
<!-- Node0&#45;&gt;Node19 -->
<g id="edge19" class="edge">
<title>Node0&#45;&gt;Node19</title>
<path fill="none" stroke="#191970" d="M1543.964,-425.8343C1601.8855,-418.4034 1725.9186,-401.995 1840.9477,-383.1188"/>
<polygon fill="#191970" stroke="#191970" points="1841.6845,-386.5446 1850.9807,-381.4622 1840.5441,-379.6382 1841.6845,-386.5446"/>
</g>
<!-- Node20 -->
<g id="node21" class="node">
<title>Node20</title>
<polygon fill="#ffffff" stroke="#bfbfbf" points="1967,-361.5 1967,-382.5 2047,-382.5 2047,-361.5 1967,-361.5"/>
<text text-anchor="middle" x="2007" y="-368.9" font-family="Helvetica,sans-Serif" font-size="12.00" fill="#000000">pybind11/eval.h</text>
</g>
<!-- Node0&#45;&gt;Node20 -->
<g id="edge20" class="edge">
<title>Node0&#45;&gt;Node20</title>
<path fill="none" stroke="#191970" d="M1543.7035,-427.868C1616.2781,-422.8577 1796.4095,-408.8834 1956.9084,-383.0254"/>
<polygon fill="#191970" stroke="#191970" points="1957.6565,-386.4497 1966.9626,-381.3855 1956.5296,-379.541 1957.6565,-386.4497"/>
</g>
<!-- Node21 -->
<g id="node22" class="node">
<title>Node21</title>
<polygon fill="#ffffff" stroke="#bfbfbf" points="2065.5,-361.5 2065.5,-382.5 2156.5,-382.5 2156.5,-361.5 2065.5,-361.5"/>
<text text-anchor="middle" x="2111" y="-368.9" font-family="Helvetica,sans-Serif" font-size="12.00" fill="#000000">pybind11/embed.h</text>
</g>
<!-- Node0&#45;&gt;Node21 -->
<g id="edge21" class="edge">
<title>Node0&#45;&gt;Node21</title>
<path fill="none" stroke="#191970" d="M1543.7017,-428.4526C1627.1767,-424.2321 1855.0592,-411.0129 2055.3304,-382.9504"/>
<polygon fill="#191970" stroke="#191970" points="2056.0388,-386.3851 2065.4488,-381.5165 2055.0565,-379.4543 2056.0388,-386.3851"/>
</g>
<!-- Node22 -->
<g id="node23" class="node">
<title>Node22</title>
<polygon fill="#ffffff" stroke="#bfbfbf" points="2175,-361.5 2175,-382.5 2255,-382.5 2255,-361.5 2175,-361.5"/>
<text text-anchor="middle" x="2215" y="-368.9" font-family="Helvetica,sans-Serif" font-size="12.00" fill="#000000">pybind11/cast.h</text>
</g>
<!-- Node0&#45;&gt;Node22 -->
<g id="edge22" class="edge">
<title>Node0&#45;&gt;Node22</title>
<path fill="none" stroke="#191970" d="M1543.5591,-429.3798C1638.1214,-427.2159 1920.9794,-418.1788 2164.8611,-382.9741"/>
<polygon fill="#191970" stroke="#191970" points="2165.5911,-386.4047 2174.9797,-381.495 2164.5786,-379.4783 2165.5911,-386.4047"/>
</g>
<!-- Node23 -->
<g id="node24" class="node">
<title>Node23</title>
<polygon fill="#ffffff" stroke="#bfbfbf" points="2273,-361.5 2273,-382.5 2367,-382.5 2367,-361.5 2273,-361.5"/>
<text text-anchor="middle" x="2320" y="-368.9" font-family="Helvetica,sans-Serif" font-size="12.00" fill="#000000">pybind11/pytypes.h</text>
</g>
<!-- Node0&#45;&gt;Node23 -->
<g id="edge23" class="edge">
<title>Node0&#45;&gt;Node23</title>
<path fill="none" stroke="#191970" d="M1543.8059,-429.4921C1647.735,-427.5584 1979.078,-418.9028 2262.6482,-383.03"/>
<polygon fill="#191970" stroke="#191970" points="2263.24,-386.4829 2272.7151,-381.7423 2262.3518,-379.5394 2263.24,-386.4829"/>
</g>
<!-- Node24 -->
<g id="node25" class="node">
<title>Node24</title>
<g id="a_node25"><a xlink:href="../../db/d19/namespace_8hpp.html" target="_top" xlink:title="timemory/namespace.hpp">
<polygon fill="#ffffff" stroke="#000000" points="291,-.5 291,-21.5 411,-21.5 411,-.5 291,-.5"/>
<text text-anchor="middle" x="351" y="-7.9" font-family="Helvetica,sans-Serif" font-size="12.00" fill="#000000">timemory/namespace.hpp</text>
</a>
</g>
</g>
<!-- Node0&#45;&gt;Node24 -->
<g id="edge24" class="edge">
<title>Node0&#45;&gt;Node24</title>
<path fill="none" stroke="#191970" d="M1478.4579,-429.5955C1283.6694,-427.0768 278.5452,-412.6747 221,-383 186.6314,-365.2769 168,-352.6692 168,-314 168,-314 168,-314 168,-127 168,-69.2786 233.7507,-39.0768 286.4288,-24.1425"/>
<polygon fill="#191970" stroke="#191970" points="287.3546,-27.5179 296.094,-21.5284 285.527,-20.7607 287.3546,-27.5179"/>
</g>
<!-- Node25 -->
<g id="node26" class="node">
<title>Node25</title>
<g id="a_node26"><a xlink:href="../../da/d04/manager_8hpp.html" target="_top" xlink:title="timemory/manager.hpp">
<polygon fill="#ffffff" stroke="#000000" points="1446.5,-303.5 1446.5,-324.5 1555.5,-324.5 1555.5,-303.5 1446.5,-303.5"/>
<text text-anchor="middle" x="1501" y="-310.9" font-family="Helvetica,sans-Serif" font-size="12.00" fill="#000000">timemory/manager.hpp</text>
</a>
</g>
</g>
<!-- Node0&#45;&gt;Node25 -->
<g id="edge25" class="edge">
<title>Node0&#45;&gt;Node25</title>
<path fill="none" stroke="#191970" d="M1543.6676,-429.4682C1697.8888,-426.8019 2346.8484,-413.7786 2376,-383 2382.7238,-375.901 2382.726,-368.0969 2376,-361 2348.21,-331.6772 1763.9345,-318.6543 1565.9424,-315.072"/>
<polygon fill="#191970" stroke="#191970" points="1565.752,-311.5681 1555.691,-314.8887 1565.6268,-318.567 1565.752,-311.5681"/>
</g>
<!-- Node47 -->
<g id="node41" class="node">
<title>Node47</title>
<g id="a_node41"><a xlink:href="../../df/d05/timer_8hpp.html" target="_top" xlink:title="timemory/timer.hpp">
<polygon fill="#ffffff" stroke="#000000" points="597,-239 597,-260 691,-260 691,-239 597,-239"/>
<text text-anchor="middle" x="644" y="-246.4" font-family="Helvetica,sans-Serif" font-size="12.00" fill="#000000">timemory/timer.hpp</text>
</a>
</g>
</g>
<!-- Node0&#45;&gt;Node47 -->
<g id="edge99" class="edge">
<title>Node0&#45;&gt;Node47</title>
<path fill="none" stroke="#191970" d="M1478.3782,-429.0346C1331.5145,-424.5695 737.4233,-405.1925 705,-383 666.7947,-356.85 652.0937,-300.5745 646.7782,-270.1064"/>
<polygon fill="#191970" stroke="#191970" points="650.2244,-269.49 645.2183,-260.1525 643.3088,-270.5738 650.2244,-269.49"/>
</g>
<!-- Node55 -->
<g id="node44" class="node">
<title>Node55</title>
<g id="a_node44"><a xlink:href="../../d9/dd2/rss_8hpp.html" target="_top" xlink:title="timemory/rss.hpp">
<polygon fill="#ffffff" stroke="#ff0000" points="794,-116.5 794,-137.5 880,-137.5 880,-116.5 794,-116.5"/>
<text text-anchor="middle" x="837" y="-123.9" font-family="Helvetica,sans-Serif" font-size="12.00" fill="#000000">timemory/rss.hpp</text>
</a>
</g>
</g>
<!-- Node0&#45;&gt;Node55 -->
<g id="edge100" class="edge">
<title>Node0&#45;&gt;Node55</title>
<path fill="none" stroke="#191970" d="M1478.4761,-428.7269C1329.4423,-422.4712 719,-392.0821 719,-314 719,-314 719,-314 719,-249.5 719,-199.4876 770.6477,-162.0326 805.6046,-142.4096"/>
<polygon fill="#191970" stroke="#191970" points="807.3991,-145.4181 814.5274,-137.5799 804.0669,-139.262 807.3991,-145.4181"/>
</g>
<!-- Node61 -->
<g id="node48" class="node">
<title>Node61</title>
<g id="a_node48"><a xlink:href="../../da/d8e/signal__detection_8hpp.html" target="_top" xlink:title="timemory/signal_detection.hpp">
<polygon fill="#ffffff" stroke="#ff0000" points="1624.5,-116.5 1624.5,-137.5 1763.5,-137.5 1763.5,-116.5 1624.5,-116.5"/>
<text text-anchor="middle" x="1694" y="-123.9" font-family="Helvetica,sans-Serif" font-size="12.00" fill="#000000">timemory/signal_detection.hpp</text>
</a>
</g>
</g>
<!-- Node0&#45;&gt;Node61 -->
<g id="edge107" class="edge">
<title>Node0&#45;&gt;Node61</title>
<path fill="none" stroke="#191970" d="M1478.317,-427.735C1423.9155,-423.21 1318.5215,-410.9767 1296,-383 1289.8686,-375.3835 1291.822,-369.8402 1296,-361 1359.4287,-226.7899 1539.3751,-164.2994 1634.0615,-139.9989"/>
<polygon fill="#191970" stroke="#191970" points="1634.9363,-143.388 1643.7848,-137.561 1633.2338,-136.5982 1634.9363,-143.388"/>
</g>
<!-- Node63 -->
<g id="node49" class="node">
<title>Node63</title>
<g id="a_node49"><a xlink:href="../../d0/d5d/mpi_8hpp.html" target="_top" xlink:title="timemory/mpi.hpp">
<polygon fill="#ffffff" stroke="#000000" points="2159,-58.5 2159,-79.5 2247,-79.5 2247,-58.5 2159,-58.5"/>
<text text-anchor="middle" x="2203" y="-65.9" font-family="Helvetica,sans-Serif" font-size="12.00" fill="#000000">timemory/mpi.hpp</text>
</a>
</g>
</g>
<!-- Node0&#45;&gt;Node63 -->
<g id="edge108" class="edge">
<title>Node0&#45;&gt;Node63</title>
<path fill="none" stroke="#191970" d="M1543.6283,-429.3722C1699.1854,-426.2394 2359.3398,-411.3105 2392,-383 2462.2291,-322.1239 2448.6223,-252.5853 2399,-174 2367.347,-123.8722 2303.1336,-96.1001 2256.8178,-81.9015"/>
<polygon fill="#191970" stroke="#191970" points="2257.8058,-78.5439 2247.2243,-79.0745 2255.8272,-85.2585 2257.8058,-78.5439"/>
</g>
<!-- Node64 -->
<g id="node50" class="node">
<title>Node64</title>
<g id="a_node50"><a xlink:href="../../d8/d07/auto__timer_8hpp.html" target="_top" xlink:title="timemory/auto_timer.hpp">
<polygon fill="#ffffff" stroke="#000000" points="1133,-361.5 1133,-382.5 1249,-382.5 1249,-361.5 1133,-361.5"/>
<text text-anchor="middle" x="1191" y="-368.9" font-family="Helvetica,sans-Serif" font-size="12.00" fill="#000000">timemory/auto_timer.hpp</text>
</a>
</g>
</g>
<!-- Node0&#45;&gt;Node64 -->
<g id="edge101" class="edge">
<title>Node0&#45;&gt;Node64</title>
<path fill="none" stroke="#191970" d="M1478.2582,-424.0656C1426.9709,-414.7697 1326.5905,-396.5758 1259.1432,-384.3509"/>
<polygon fill="#191970" stroke="#191970" points="1259.4914,-380.8571 1249.0275,-382.5175 1258.2429,-387.7449 1259.4914,-380.8571"/>
</g>
<!-- Node25&#45;&gt;Node4 -->
<g id="edge30" class="edge">
<title>Node25&#45;&gt;Node4</title>
<path fill="none" stroke="#191970" d="M1555.5952,-312.5631C1742.9349,-307.4529 2352.8063,-289.2687 2438,-267 2517.2281,-246.2906 2603,-266.89 2603,-185 2603,-185 2603,-185 2603,-127 2603,-93.5978 2603,-54.7853 2603,-31.5939"/>
<polygon fill="#191970" stroke="#191970" points="2606.5001,-31.5561 2603,-21.5561 2599.5001,-31.5561 2606.5001,-31.5561"/>
</g>
<!-- Node25&#45;&gt;Node5 -->
<g id="edge29" class="edge">
<title>Node25&#45;&gt;Node5</title>
<path fill="none" stroke="#191970" d="M1480.9923,-303.367C1468.0963,-295.2925 1452.4016,-282.8751 1445,-267 1438.4267,-252.9015 1441.3225,-247.1146 1445,-232 1466.9715,-141.6976 1550.939,-61.7919 1590.7802,-28.0467"/>
<polygon fill="#191970" stroke="#191970" points="1593.1273,-30.647 1598.574,-21.5594 1588.649,-25.2669 1593.1273,-30.647"/>
</g>
<!-- Node25&#45;&gt;Node8 -->
<g id="edge31" class="edge">
<title>Node25&#45;&gt;Node8</title>
<path fill="none" stroke="#191970" d="M1555.7748,-313.2407C1748.4947,-310.3053 2385.3002,-298.2663 2415,-267 2482.7461,-195.6807 2375.8776,-73.7898 2331.1775,-28.5642"/>
<polygon fill="#191970" stroke="#191970" points="2333.6464,-26.0833 2324.0897,-21.5095 2328.7082,-31.0447 2333.6464,-26.0833"/>
</g>
<!-- Node25&#45;&gt;Node11 -->
<g id="edge28" class="edge">
<title>Node25&#45;&gt;Node11</title>
<path fill="none" stroke="#191970" d="M1479.5543,-303.4212C1465.5207,-295.371 1447.9945,-282.9602 1438,-267 1387.8056,-186.8444 1466.0902,-123.6363 1398,-58 1378.2622,-38.9736 1195.6224,-20.4213 1122.2761,-13.6724"/>
<polygon fill="#191970" stroke="#191970" points="1122.1571,-10.1473 1111.8814,-12.7279 1121.5236,-17.1186 1122.1571,-10.1473"/>
</g>
<!-- Node25&#45;&gt;Node24 -->
<g id="edge42" class="edge">
<title>Node25&#45;&gt;Node24</title>
<path fill="none" stroke="#191970" d="M1446.2082,-312.6915C1275.526,-308.3771 754.8663,-293.3517 588,-267 448.9251,-245.0371 282,-325.7984 282,-185 282,-185 282,-185 282,-127 282,-87.7298 311.5709,-50.1625 331.9957,-28.8983"/>
<polygon fill="#191970" stroke="#191970" points="334.713,-31.13 339.2951,-21.5772 329.7559,-26.1875 334.713,-31.13"/>
</g>
<!-- Node26 -->
<g id="node27" class="node">
<title>Node26</title>
<polygon fill="#ffffff" stroke="#bfbfbf" points="1495,-239 1495,-260 1575,-260 1575,-239 1495,-239"/>
<text text-anchor="middle" x="1535" y="-246.4" font-family="Helvetica,sans-Serif" font-size="12.00" fill="#000000">unordered_map</text>
</g>
<!-- Node25&#45;&gt;Node26 -->
<g id="edge26" class="edge">
<title>Node25&#45;&gt;Node26</title>
<path fill="none" stroke="#191970" d="M1506.6144,-303.3491C1511.4576,-294.1613 1518.5826,-280.6447 1524.4824,-269.4524"/>
<polygon fill="#191970" stroke="#191970" points="1527.6966,-270.8606 1529.2636,-260.3823 1521.5043,-267.5964 1527.6966,-270.8606"/>
</g>
<!-- Node27 -->
<g id="node28" class="node">
<title>Node27</title>
<polygon fill="#ffffff" stroke="#bfbfbf" points="1722,-.5 1722,-21.5 1764,-21.5 1764,-.5 1722,-.5"/>
<text text-anchor="middle" x="1743" y="-7.9" font-family="Helvetica,sans-Serif" font-size="12.00" fill="#000000">deque</text>
</g>
<!-- Node25&#45;&gt;Node27 -->
<g id="edge27" class="edge">
<title>Node25&#45;&gt;Node27</title>
<path fill="none" stroke="#191970" d="M1494.4022,-303.3082C1484.9652,-286.4944 1470.3843,-253.5699 1486,-232 1564.4625,-123.6199 1690.7636,-244.3168 1772,-138 1793.6026,-109.728 1785.4767,-92.0032 1775,-58 1771.8408,-47.7466 1765.5961,-37.7278 1759.4553,-29.5925"/>
<polygon fill="#191970" stroke="#191970" points="1761.9906,-27.1612 1752.9836,-21.5822 1756.5456,-31.5603 1761.9906,-27.1612"/>
</g>
<!-- Node28 -->
<g id="node29" class="node">
<title>Node28</title>
<polygon fill="#ffffff" stroke="#bfbfbf" points="903,-58.5 903,-79.5 989,-79.5 989,-58.5 903,-58.5"/>
<text text-anchor="middle" x="946" y="-65.9" font-family="Helvetica,sans-Serif" font-size="12.00" fill="#000000">cereal/cereal.hpp</text>
</g>
<!-- Node25&#45;&gt;Node28 -->
<g id="edge32" class="edge">
<title>Node25&#45;&gt;Node28</title>
<path fill="none" stroke="#191970" d="M1446.4093,-308.0165C1375.9025,-299.7654 1257.4349,-283.9764 1217,-267 1109.717,-221.9577 1004.913,-126.7118 963.9965,-86.9886"/>
<polygon fill="#191970" stroke="#191970" points="966.2732,-84.3192 956.6832,-79.8156 961.3716,-89.3166 966.2732,-84.3192"/>
</g>
<!-- Node29 -->
<g id="node30" class="node">
<title>Node29</title>
<polygon fill="#ffffff" stroke="#bfbfbf" points="1007,-58.5 1007,-79.5 1117,-79.5 1117,-58.5 1007,-58.5"/>
<text text-anchor="middle" x="1062" y="-65.9" font-family="Helvetica,sans-Serif" font-size="12.00" fill="#000000">cereal/types/deque.hpp</text>
</g>
<!-- Node25&#45;&gt;Node29 -->
<g id="edge33" class="edge">
<title>Node25&#45;&gt;Node29</title>
<path fill="none" stroke="#191970" d="M1446.289,-306.2977C1388.5168,-297.5462 1301.7566,-282.4618 1272,-267 1183.9506,-221.2487 1106.4658,-127.8046 1075.8857,-87.8264"/>
<polygon fill="#191970" stroke="#191970" points="1078.5845,-85.5922 1069.768,-79.7169 1072.9963,-89.8079 1078.5845,-85.5922"/>
</g>
<!-- Node30 -->
<g id="node31" class="node">
<title>Node30</title>
<polygon fill="#ffffff" stroke="#bfbfbf" points="1135.5,-58.5 1135.5,-79.5 1224.5,-79.5 1224.5,-58.5 1135.5,-58.5"/>
<text text-anchor="middle" x="1180" y="-65.9" font-family="Helvetica,sans-Serif" font-size="12.00" fill="#000000">cereal/access.hpp</text>
</g>
<!-- Node25&#45;&gt;Node30 -->
<g id="edge34" class="edge">
<title>Node25&#45;&gt;Node30</title>
<path fill="none" stroke="#191970" d="M1446.2657,-304.8216C1398.7573,-296.052 1334.3392,-281.9825 1313,-267 1246.7341,-220.4739 1204.1066,-129.5142 1187.6652,-89.1372"/>
<polygon fill="#191970" stroke="#191970" points="1190.8218,-87.6019 1183.8866,-79.5923 1184.3132,-90.1785 1190.8218,-87.6019"/>
</g>
<!-- Node31 -->
<g id="node32" class="node">
<title>Node31</title>
<polygon fill="#ffffff" stroke="#bfbfbf" points="1593.5,-232.5 1593.5,-266.5 1702.5,-266.5 1702.5,-232.5 1593.5,-232.5"/>
<text text-anchor="start" x="1601.5" y="-252.9" font-family="Helvetica,sans-Serif" font-size="12.00" fill="#000000">cereal/types/unordered</text>
<text text-anchor="middle" x="1648" y="-239.9" font-family="Helvetica,sans-Serif" font-size="12.00" fill="#000000">_map.hpp</text>
</g>
<!-- Node25&#45;&gt;Node31 -->
<g id="edge35" class="edge">
<title>Node25&#45;&gt;Node31</title>
<path fill="none" stroke="#191970" d="M1524.9453,-303.4934C1545.1444,-294.6305 1574.6899,-281.6667 1599.7674,-270.6633"/>
<polygon fill="#191970" stroke="#191970" points="1601.3801,-273.7778 1609.1311,-266.5547 1598.5675,-267.3677 1601.3801,-273.7778"/>
</g>
<!-- Node32 -->
<g id="node33" class="node">
<title>Node32</title>
<polygon fill="#ffffff" stroke="#bfbfbf" points="1242.5,-58.5 1242.5,-79.5 1355.5,-79.5 1355.5,-58.5 1242.5,-58.5"/>
<text text-anchor="middle" x="1299" y="-65.9" font-family="Helvetica,sans-Serif" font-size="12.00" fill="#000000">cereal/types/chrono.hpp</text>
</g>
<!-- Node25&#45;&gt;Node32 -->
<g id="edge36" class="edge">
<title>Node25&#45;&gt;Node32</title>
<path fill="none" stroke="#191970" d="M1446.2477,-304.3929C1405.1765,-296.0741 1353.6247,-282.8924 1339,-267 1293.0806,-217.1002 1293.7092,-129.6163 1296.7654,-89.7957"/>
<polygon fill="#191970" stroke="#191970" points="1300.2645,-89.9623 1297.6771,-79.6883 1293.2928,-89.3335 1300.2645,-89.9623"/>
</g>
<!-- Node33 -->
<g id="node34" class="node">
<title>Node33</title>
<polygon fill="#ffffff" stroke="#bfbfbf" points="1721,-239 1721,-260 1853,-260 1853,-239 1721,-239"/>
<text text-anchor="middle" x="1787" y="-246.4" font-family="Helvetica,sans-Serif" font-size="12.00" fill="#000000">cereal/archives/adapters.hpp</text>
</g>
<!-- Node25&#45;&gt;Node33 -->
<g id="edge37" class="edge">
<title>Node25&#45;&gt;Node33</title>
<path fill="none" stroke="#191970" d="M1548.5585,-303.4433C1591.134,-293.9718 1655.2573,-279.6555 1711,-267 1717.6534,-265.4894 1724.6322,-263.8955 1731.5505,-262.3096"/>
<polygon fill="#191970" stroke="#191970" points="1732.6352,-265.6516 1741.5982,-260.0023 1731.0686,-258.8292 1732.6352,-265.6516"/>
</g>
<!-- Node34 -->
<g id="node35" class="node">
<title>Node34</title>
<polygon fill="#ffffff" stroke="#bfbfbf" points="1871,-239 1871,-260 1993,-260 1993,-239 1871,-239"/>
<text text-anchor="middle" x="1932" y="-246.4" font-family="Helvetica,sans-Serif" font-size="12.00" fill="#000000">cereal/archives/binary.hpp</text>
</g>
<!-- Node25&#45;&gt;Node34 -->
<g id="edge38" class="edge">
<title>Node25&#45;&gt;Node34</title>
<path fill="none" stroke="#191970" d="M1555.7424,-308.8617C1626.7422,-301.7434 1754.2598,-287.4104 1862,-267 1868.8636,-265.6998 1876.0585,-264.1356 1883.1148,-262.4842"/>
<polygon fill="#191970" stroke="#191970" points="1884.4012,-265.7741 1893.2991,-260.0228 1882.7567,-258.97 1884.4012,-265.7741"/>
</g>
<!-- Node35 -->
<g id="node36" class="node">
<title>Node35</title>
<polygon fill="#ffffff" stroke="#bfbfbf" points="2011,-239 2011,-260 2125,-260 2125,-239 2011,-239"/>
<text text-anchor="middle" x="2068" y="-246.4" font-family="Helvetica,sans-Serif" font-size="12.00" fill="#000000">cereal/archives/json.hpp</text>
</g>
<!-- Node25&#45;&gt;Node35 -->
<g id="edge39" class="edge">
<title>Node25&#45;&gt;Node35</title>
<path fill="none" stroke="#191970" d="M1555.517,-311.8441C1647.9761,-307.5293 1841.1689,-295.6624 2002,-267 2008.7433,-265.7982 2015.8049,-264.2475 2022.6975,-262.5664"/>
<polygon fill="#191970" stroke="#191970" points="2023.7938,-265.8989 2032.6184,-260.0358 2022.0636,-259.1161 2023.7938,-265.8989"/>
</g>
<!-- Node36 -->
<g id="node37" class="node">
<title>Node36</title>
<polygon fill="#ffffff" stroke="#bfbfbf" points="2143,-232.5 2143,-266.5 2255,-266.5 2255,-232.5 2143,-232.5"/>
<text text-anchor="start" x="2151" y="-252.9" font-family="Helvetica,sans-Serif" font-size="12.00" fill="#000000">cereal/archives/portable</text>
<text text-anchor="middle" x="2199" y="-239.9" font-family="Helvetica,sans-Serif" font-size="12.00" fill="#000000">_binary.hpp</text>
</g>
<!-- Node25&#45;&gt;Node36 -->
<g id="edge40" class="edge">
<title>Node25&#45;&gt;Node36</title>
<path fill="none" stroke="#191970" d="M1555.5124,-311.2791C1684.3568,-304.6399 2005.7763,-286.8073 2132.8827,-266.9521"/>
<polygon fill="#191970" stroke="#191970" points="2133.4699,-270.4026 2142.7741,-265.3347 2132.3403,-263.4944 2133.4699,-270.4026"/>
</g>
<!-- Node37 -->
<g id="node38" class="node">
<title>Node37</title>
<polygon fill="#ffffff" stroke="#bfbfbf" points="2273.5,-239 2273.5,-260 2384.5,-260 2384.5,-239 2273.5,-239"/>
<text text-anchor="middle" x="2329" y="-246.4" font-family="Helvetica,sans-Serif" font-size="12.00" fill="#000000">cereal/archives/xml.hpp</text>
</g>
<!-- Node25&#45;&gt;Node37 -->
<g id="edge41" class="edge">
<title>Node25&#45;&gt;Node37</title>
<path fill="none" stroke="#191970" d="M1555.6829,-312.0647C1706.7033,-306.4916 2127.3787,-289.3645 2264,-267 2270.8189,-265.8838 2277.9553,-264.3497 2284.8987,-262.6503"/>
<polygon fill="#191970" stroke="#191970" points="2286.0683,-265.963 2294.8741,-260.0716 2284.3163,-259.1858 2286.0683,-265.963"/>
</g>
<!-- Node38 -->
<g id="node39" class="node">
<title>Node38</title>
<g id="a_node39"><a xlink:href="../../d1/d4e/utility_8hpp.html" target="_top" xlink:title="timemory/utility.hpp">
<polygon fill="#ffffff" stroke="#ff0000" points="1640,-58.5 1640,-79.5 1734,-79.5 1734,-58.5 1640,-58.5"/>
<text text-anchor="middle" x="1687" y="-65.9" font-family="Helvetica,sans-Serif" font-size="12.00" fill="#000000">timemory/utility.hpp</text>
</a>
</g>
</g>
<!-- Node25&#45;&gt;Node38 -->
<g id="edge43" class="edge">
<title>Node25&#45;&gt;Node38</title>
<path fill="none" stroke="#191970" d="M1484.7401,-303.4227C1473.4848,-295.0582 1459.4182,-282.2672 1453,-267 1446.9716,-252.6601 1445.8901,-245.8356 1453,-232 1493.3464,-153.4868 1590.9978,-105.2717 1646.5619,-83.2354"/>
<polygon fill="#191970" stroke="#191970" points="1648.0298,-86.4204 1656.0937,-79.5484 1645.5044,-79.8918 1648.0298,-86.4204"/>
</g>
<!-- Node25&#45;&gt;Node47 -->
<g id="edge56" class="edge">
<title>Node25&#45;&gt;Node47</title>
<path fill="none" stroke="#191970" d="M1446.4143,-309.8917C1292.8811,-298.3364 858.2796,-265.6272 701.386,-253.819"/>
<polygon fill="#191970" stroke="#191970" points="701.2523,-250.2991 691.0178,-253.0387 700.7269,-257.2794 701.2523,-250.2991"/>
</g>
<!-- Node25&#45;&gt;Node63 -->
<g id="edge98" class="edge">
<title>Node25&#45;&gt;Node63</title>
<path fill="none" stroke="#191970" d="M1555.8252,-313.1708C1745.6758,-310.0353 2365.0659,-297.497 2394,-267 2459.3049,-198.1676 2308.2406,-116.9321 2237.2873,-83.9924"/>
<polygon fill="#191970" stroke="#191970" points="2238.3879,-80.6471 2227.838,-79.6713 2235.4767,-87.0131 2238.3879,-80.6471"/>
</g>
<!-- Node38&#45;&gt;Node3 -->
<g id="edge49" class="edge">
<title>Node38&#45;&gt;Node3</title>
<path fill="none" stroke="#191970" d="M1722.313,-58.4966C1756.776,-48.2461 1809.0294,-32.7041 1844.2896,-22.2164"/>
<polygon fill="#191970" stroke="#191970" points="1845.6141,-25.4741 1854.2013,-19.2683 1843.6184,-18.7646 1845.6141,-25.4741"/>
</g>
<!-- Node38&#45;&gt;Node4 -->
<g id="edge53" class="edge">
<title>Node38&#45;&gt;Node4</title>
<path fill="none" stroke="#191970" d="M1734.0011,-66.0239C1897.3262,-55.6824 2437.5923,-21.4734 2572.345,-12.941"/>
<polygon fill="#191970" stroke="#191970" points="2572.6263,-16.4303 2582.3851,-12.3053 2572.1839,-9.4443 2572.6263,-16.4303"/>
</g>
<!-- Node38&#45;&gt;Node5 -->
<g id="edge54" class="edge">
<title>Node38&#45;&gt;Node5</title>
<path fill="none" stroke="#191970" d="M1673.2438,-58.3619C1662.2488,-49.859 1646.6274,-37.7785 1633.9136,-27.9466"/>
<polygon fill="#191970" stroke="#191970" points="1635.7206,-24.9195 1625.6689,-21.5707 1631.4384,-30.4569 1635.7206,-24.9195"/>
</g>
<!-- Node38&#45;&gt;Node6 -->
<g id="edge52" class="edge">
<title>Node38&#45;&gt;Node6</title>
<path fill="none" stroke="#191970" d="M1639.9272,-67.3853C1577.0391,-65.2309 1462.135,-61.3036 1364,-58 1123.5587,-49.9059 519.5992,-59.7382 282,-22 279.9333,-21.6717 277.8203,-21.2658 275.7012,-20.8053"/>
<polygon fill="#191970" stroke="#191970" points="276.4445,-17.3834 265.8929,-18.3399 274.738,-24.1722 276.4445,-17.3834"/>
</g>
<!-- Node38&#45;&gt;Node7 -->
<g id="edge47" class="edge">
<title>Node38&#45;&gt;Node7</title>
<path fill="none" stroke="#191970" d="M1652.5924,-58.4966C1618.5265,-48.0976 1566.6201,-32.2525 1532.2602,-21.7637"/>
<polygon fill="#191970" stroke="#191970" points="1533.2182,-18.3967 1522.632,-18.8245 1531.1744,-25.0917 1533.2182,-18.3967"/>
</g>
<!-- Node38&#45;&gt;Node8 -->
<g id="edge44" class="edge">
<title>Node38&#45;&gt;Node8</title>
<path fill="none" stroke="#191970" d="M1734.0517,-64.6406C1855.8475,-53.356 2179.0632,-23.4095 2281.4357,-13.9245"/>
<polygon fill="#191970" stroke="#191970" points="2281.8215,-17.4038 2291.4559,-12.9961 2281.1756,-10.4337 2281.8215,-17.4038"/>
</g>
<!-- Node38&#45;&gt;Node9 -->
<g id="edge46" class="edge">
<title>Node38&#45;&gt;Node9</title>
<path fill="none" stroke="#191970" d="M1734.2533,-60.9891C1779.0861,-53.0302 1848.4798,-39.7858 1917.4814,-21.9253"/>
<polygon fill="#191970" stroke="#191970" points="1918.4268,-25.2958 1927.2126,-19.3745 1916.6519,-18.5245 1918.4268,-25.2958"/>
</g>
<!-- Node38&#45;&gt;Node11 -->
<g id="edge45" class="edge">
<title>Node38&#45;&gt;Node11</title>
<path fill="none" stroke="#191970" d="M1639.814,-64.4004C1522.171,-52.9326 1218.3981,-23.3212 1121.8946,-13.9141"/>
<polygon fill="#191970" stroke="#191970" points="1121.9755,-10.4055 1111.6831,-12.9187 1121.2963,-17.3725 1121.9755,-10.4055"/>
</g>
<!-- Node38&#45;&gt;Node12 -->
<g id="edge51" class="edge">
<title>Node38&#45;&gt;Node12</title>
<path fill="none" stroke="#191970" d="M1734.0335,-64.4497C1791.2308,-58.2864 1890.709,-45.5414 1984.2751,-21.7858"/>
<polygon fill="#191970" stroke="#191970" points="1985.3798,-25.1153 1994.1844,-19.2222 1983.6265,-18.3385 1985.3798,-25.1153"/>
</g>
<!-- Node38&#45;&gt;Node24 -->
<g id="edge55" class="edge">
<title>Node38&#45;&gt;Node24</title>
<path fill="none" stroke="#191970" d="M1639.814,-66.925C1589.3661,-64.7081 1507.0303,-61.0949 1436,-58 1053.1961,-41.3207 594.4134,-21.5042 421.5192,-14.0424"/>
<polygon fill="#191970" stroke="#191970" points="421.4259,-10.5352 411.2843,-13.6007 421.124,-17.5287 421.4259,-10.5352"/>
</g>
<!-- Node38&#45;&gt;Node27 -->
<g id="edge50" class="edge">
<title>Node38&#45;&gt;Node27</title>
<path fill="none" stroke="#191970" d="M1697.2713,-58.3619C1705.2441,-50.1043 1716.4748,-38.4725 1725.811,-28.8029"/>
<polygon fill="#191970" stroke="#191970" points="1728.3658,-31.1958 1732.7939,-21.5707 1723.33,-26.3336 1728.3658,-31.1958"/>
</g>
<!-- Node42 -->
<g id="node40" class="node">
<title>Node42</title>
<polygon fill="#ffffff" stroke="#bfbfbf" points="1656,-.5 1656,-21.5 1704,-21.5 1704,-.5 1656,-.5"/>
<text text-anchor="middle" x="1680" y="-7.9" font-family="Helvetica,sans-Serif" font-size="12.00" fill="#000000">iomanip</text>
</g>
<!-- Node38&#45;&gt;Node42 -->
<g id="edge48" class="edge">
<title>Node38&#45;&gt;Node42</title>
<path fill="none" stroke="#191970" d="M1685.7161,-58.3619C1684.8182,-50.9219 1683.5896,-40.7427 1682.5016,-31.7276"/>
<polygon fill="#191970" stroke="#191970" points="1685.9488,-31.0792 1681.2758,-21.5707 1678.9993,-31.918 1685.9488,-31.0792"/>
</g>
<!-- Node47&#45;&gt;Node8 -->
<g id="edge57" class="edge">
<title>Node47&#45;&gt;Node8</title>
<path fill="none" stroke="#191970" d="M691.0473,-245.2019C845.8075,-230.9882 1353.1242,-183.7954 1772,-138 1987.3668,-114.4541 2065.8517,-183.8311 2256,-80 2276.7478,-68.6706 2292.9667,-46.4371 2302.7118,-30.2615"/>
<polygon fill="#191970" stroke="#191970" points="2305.7588,-31.9838 2307.6868,-21.5658 2299.6829,-28.5076 2305.7588,-31.9838"/>
</g>
<!-- Node47&#45;&gt;Node11 -->
<g id="edge58" class="edge">
<title>Node47&#45;&gt;Node11</title>
<path fill="none" stroke="#191970" d="M631.0379,-238.8162C600.4745,-213.5037 525.9423,-151.0235 519,-138 502.1913,-106.4674 486.7731,-84.2659 511,-58 529.881,-37.5299 945.9509,-17.509 1062.1177,-12.3028"/>
<polygon fill="#191970" stroke="#191970" points="1062.5654,-15.7864 1072.4,-11.8457 1062.2544,-8.7933 1062.5654,-15.7864"/>
</g>
<!-- Node47&#45;&gt;Node13 -->
<g id="edge59" class="edge">
<title>Node47&#45;&gt;Node13</title>
<path fill="none" stroke="#191970" d="M618.4258,-238.9934C591.8836,-228.0891 550.231,-210.9771 520.9461,-198.946"/>
<polygon fill="#191970" stroke="#191970" points="522.1084,-195.6397 511.5286,-195.077 519.4483,-202.1146 522.1084,-195.6397"/>
</g>
<!-- Node47&#45;&gt;Node24 -->
<g id="edge60" class="edge">
<title>Node47&#45;&gt;Node24</title>
<path fill="none" stroke="#191970" d="M626.5009,-238.9015C576.4067,-208.3538 433.633,-119.7777 396,-80 381.9448,-65.1438 369.5507,-45.3549 361.3475,-30.7796"/>
<polygon fill="#191970" stroke="#191970" points="364.2284,-28.7517 356.369,-21.6466 358.0822,-32.102 364.2284,-28.7517"/>
</g>
<!-- Node48 -->
<g id="node42" class="node">
<title>Node48</title>
<g id="a_node42"><a xlink:href="../../d6/d01/base__timer_8hpp.html" target="_top" xlink:title="timemory/base_timer.hpp">
<polygon fill="#ffffff" stroke="#ff0000" points="830,-174.5 830,-195.5 948,-195.5 948,-174.5 830,-174.5"/>
<text text-anchor="middle" x="889" y="-181.9" font-family="Helvetica,sans-Serif" font-size="12.00" fill="#000000">timemory/base_timer.hpp</text>
</a>
</g>
</g>
<!-- Node47&#45;&gt;Node48 -->
<g id="edge61" class="edge">
<title>Node47&#45;&gt;Node48</title>
<path fill="none" stroke="#191970" d="M683.9088,-238.9934C726.3536,-227.8191 793.5603,-210.126 839.3848,-198.062"/>
<polygon fill="#191970" stroke="#191970" points="840.3289,-201.4327 849.1083,-195.5021 838.5467,-194.6634 840.3289,-201.4327"/>
</g>
<!-- Node48&#45;&gt;Node6 -->
<g id="edge64" class="edge">
<title>Node48&#45;&gt;Node6</title>
<path fill="none" stroke="#191970" d="M829.8197,-181.1194C731.6726,-174.2099 539.6272,-158.5495 475,-138 392.8918,-111.8921 306.621,-55.5008 266.7148,-27.4861"/>
<polygon fill="#191970" stroke="#191970" points="268.659,-24.5741 258.4779,-21.6422 264.6084,-30.2832 268.659,-24.5741"/>
</g>
<!-- Node48&#45;&gt;Node11 -->
<g id="edge63" class="edge">
<title>Node48&#45;&gt;Node11</title>
<path fill="none" stroke="#191970" d="M829.6595,-183.3305C706.1001,-177.9059 439.817,-154.9383 529,-58 565.3513,-18.4875 951.3828,-12.1828 1062.3334,-11.1855"/>
<polygon fill="#191970" stroke="#191970" points="1062.5081,-14.6843 1072.4791,-11.1025 1062.4507,-7.6845 1062.5081,-14.6843"/>
</g>
<!-- Node48&#45;&gt;Node24 -->
<g id="edge65" class="edge">
<title>Node48&#45;&gt;Node24</title>
<path fill="none" stroke="#191970" d="M829.6533,-181.193C739.8163,-174.8037 573.9455,-160.382 519,-138 456.4785,-112.532 396.7501,-57.7356 368.3098,-29.1658"/>
<polygon fill="#191970" stroke="#191970" points="370.6399,-26.543 361.1415,-21.8493 365.6398,-31.4418 370.6399,-26.543"/>
</g>
<!-- Node48&#45;&gt;Node28 -->
<g id="edge94" class="edge">
<title>Node48&#45;&gt;Node28</title>
<path fill="none" stroke="#191970" d="M894.2603,-174.2949C903.8041,-154.8724 924.1061,-113.5561 936.248,-88.8462"/>
<polygon fill="#191970" stroke="#191970" points="939.4835,-90.1978 940.7525,-79.6792 933.201,-87.1107 939.4835,-90.1978"/>
</g>
<!-- Node48&#45;&gt;Node29 -->
<g id="edge97" class="edge">
<title>Node48&#45;&gt;Node29</title>
<path fill="none" stroke="#191970" d="M904.9653,-174.2949C935.3478,-153.9229 1001.6529,-109.4639 1037.6224,-85.3457"/>
<polygon fill="#191970" stroke="#191970" points="1039.7168,-88.1554 1046.0733,-79.6792 1035.8183,-82.3414 1039.7168,-88.1554"/>
</g>
<!-- Node48&#45;&gt;Node30 -->
<g id="edge95" class="edge">
<title>Node48&#45;&gt;Node30</title>
<path fill="none" stroke="#191970" d="M915.5957,-174.3983C968.0941,-153.4711 1085.071,-106.8411 1144.2468,-83.2521"/>
<polygon fill="#191970" stroke="#191970" points="1145.5782,-86.4893 1153.5713,-79.5352 1142.9861,-79.9869 1145.5782,-86.4893"/>
</g>
<!-- Node48&#45;&gt;Node32 -->
<g id="edge96" class="edge">
<title>Node48&#45;&gt;Node32</title>
<path fill="none" stroke="#191970" d="M926.4717,-174.3983C1001.4297,-153.1906 1169.6853,-105.5866 1251.934,-82.3162"/>
<polygon fill="#191970" stroke="#191970" points="1253.0942,-85.6254 1261.7637,-79.5352 1251.1885,-78.8898 1253.0942,-85.6254"/>
</g>
<!-- Node48&#45;&gt;Node38 -->
<g id="edge80" class="edge">
<title>Node48&#45;&gt;Node38</title>
<path fill="none" stroke="#191970" d="M948.0029,-176.4231C1096.2467,-154.8739 1482.9174,-98.6661 1629.5169,-77.3559"/>
<polygon fill="#191970" stroke="#191970" points="1630.2581,-80.7851 1639.6506,-75.8829 1629.2511,-73.8579 1630.2581,-80.7851"/>
</g>
<!-- Node49 -->
<g id="node43" class="node">
<title>Node49</title>
<polygon fill="#ffffff" stroke="#bfbfbf" points="538.5,-58.5 538.5,-79.5 585.5,-79.5 585.5,-58.5 538.5,-58.5"/>
<text text-anchor="middle" x="562" y="-65.9" font-family="Helvetica,sans-Serif" font-size="12.00" fill="#000000">fstream</text>
</g>
<!-- Node48&#45;&gt;Node49 -->
<g id="edge62" class="edge">
<title>Node48&#45;&gt;Node49</title>
<path fill="none" stroke="#191970" d="M859.1141,-174.3983C798.0539,-152.7378 659.3716,-103.5416 595.4311,-80.8593"/>
<polygon fill="#191970" stroke="#191970" points="596.4288,-77.4996 585.8341,-77.4549 594.0885,-84.0968 596.4288,-77.4996"/>
</g>
<!-- Node48&#45;&gt;Node55 -->
<g id="edge66" class="edge">
<title>Node48&#45;&gt;Node55</title>
<path fill="none" stroke="#191970" d="M879.4624,-174.3619C872.1323,-166.1861 861.8367,-154.7025 853.2192,-145.0907"/>
<polygon fill="#191970" stroke="#191970" points="855.7586,-142.68 846.4771,-137.5707 850.5466,-147.3528 855.7586,-142.68"/>
</g>
<!-- Node48&#45;&gt;Node61 -->
<g id="edge81" class="edge">
<title>Node48&#45;&gt;Node61</title>
<path fill="none" stroke="#191970" d="M948.1936,-180.7351C1090.5778,-170.4764 1452.3489,-144.4109 1613.9279,-132.7692"/>
<polygon fill="#191970" stroke="#191970" points="1614.5543,-136.2332 1624.2769,-132.0235 1614.0512,-129.2513 1614.5543,-136.2332"/>
</g>
<!-- Node55&#45;&gt;Node7 -->
<g id="edge68" class="edge">
<title>Node55&#45;&gt;Node7</title>
<path fill="none" stroke="#191970" d="M793.8816,-123.4144C732.6264,-116.7937 631.9388,-99.347 671,-58 684.7854,-43.4079 1304.7058,-18.4479 1461.3441,-12.3658"/>
<polygon fill="#191970" stroke="#191970" points="1461.5375,-15.8611 1471.3946,-11.9768 1461.2667,-8.8663 1461.5375,-15.8611"/>
</g>
<!-- Node55&#45;&gt;Node8 -->
<g id="edge73" class="edge">
<title>Node55&#45;&gt;Node8</title>
<path fill="none" stroke="#191970" d="M880.4498,-125.8044C1011.119,-121.9815 1411.9007,-108.5944 1743,-80 1948.9231,-62.2161 2195.2109,-27.9737 2281.3801,-15.6016"/>
<polygon fill="#191970" stroke="#191970" points="2281.9135,-19.061 2291.312,-14.1704 2280.915,-12.1325 2281.9135,-19.061"/>
</g>
<!-- Node55&#45;&gt;Node11 -->
<g id="edge70" class="edge">
<title>Node55&#45;&gt;Node11</title>
<path fill="none" stroke="#191970" d="M829.9944,-116.3255C821.2382,-101.5086 809.0016,-74.6562 823,-58 853.2757,-21.9758 998.3532,-13.5594 1061.9805,-11.596"/>
<polygon fill="#191970" stroke="#191970" points="1062.2675,-15.0895 1072.1675,-11.3159 1062.075,-8.0922 1062.2675,-15.0895"/>
</g>
<!-- Node55&#45;&gt;Node24 -->
<g id="edge79" class="edge">
<title>Node55&#45;&gt;Node24</title>
<path fill="none" stroke="#191970" d="M793.8527,-119.8001C752.9713,-112.2837 690.2299,-98.9346 638,-80 617.4452,-72.5484 614.7027,-65.03 594,-58 537.283,-38.7407 470.2834,-26.5199 421.016,-19.3829"/>
<polygon fill="#191970" stroke="#191970" points="421.4866,-15.9147 411.095,-17.9796 420.5062,-22.8458 421.4866,-15.9147"/>
</g>
<!-- Node55&#45;&gt;Node28 -->
<g id="edge75" class="edge">
<title>Node55&#45;&gt;Node28</title>
<path fill="none" stroke="#191970" d="M856.7391,-116.4966C873.6101,-107.5194 898.1085,-94.4835 917.1738,-84.3387"/>
<polygon fill="#191970" stroke="#191970" points="918.8555,-87.4086 926.0394,-79.6212 915.5673,-81.2289 918.8555,-87.4086"/>
</g>
<!-- Node55&#45;&gt;Node29 -->
<g id="edge78" class="edge">
<title>Node55&#45;&gt;Node29</title>
<path fill="none" stroke="#191970" d="M877.7458,-116.4966C915.2209,-106.8364 970.9273,-92.4765 1011.2721,-82.0765"/>
<polygon fill="#191970" stroke="#191970" points="1012.368,-85.4085 1021.1778,-79.5231 1010.6206,-78.6301 1012.368,-85.4085"/>
</g>
<!-- Node55&#45;&gt;Node30 -->
<g id="edge76" class="edge">
<title>Node55&#45;&gt;Node30</title>
<path fill="none" stroke="#191970" d="M880.1794,-120.5257C934.8194,-112.2119 1032.0612,-97.0138 1125.3501,-80.0665"/>
<polygon fill="#191970" stroke="#191970" points="1126.0289,-83.5005 1135.2375,-78.2609 1124.7714,-76.6144 1126.0289,-83.5005"/>
</g>
<!-- Node55&#45;&gt;Node32 -->
<g id="edge77" class="edge">
<title>Node55&#45;&gt;Node32</title>
<path fill="none" stroke="#191970" d="M880.1559,-122.5498C951.2379,-115.0731 1097.629,-99.0588 1232.0749,-80.0805"/>
<polygon fill="#191970" stroke="#191970" points="1232.7362,-83.5217 1242.1446,-78.6502 1231.7518,-76.5913 1232.7362,-83.5217"/>
</g>
<!-- Node55&#45;&gt;Node42 -->
<g id="edge71" class="edge">
<title>Node55&#45;&gt;Node42</title>
<path fill="none" stroke="#191970" d="M837.2192,-116.4973C838.1741,-100.8558 842.4996,-71.8049 861,-58 930.6229,-6.0478 1556.2945,-36.1758 1642,-22 1643.2578,-21.792 1644.533,-21.5563 1645.8164,-21.298"/>
<polygon fill="#191970" stroke="#191970" points="1646.7434,-24.6753 1655.6653,-18.9612 1645.1274,-17.8644 1646.7434,-24.6753"/>
</g>
<!-- Node55&#45;&gt;Node49 -->
<g id="edge69" class="edge">
<title>Node55&#45;&gt;Node49</title>
<path fill="none" stroke="#191970" d="M793.9422,-119.6109C746.2646,-111.1624 667.2491,-96.3695 600,-80 598.5402,-79.6447 597.0525,-79.2697 595.5522,-78.8812"/>
<polygon fill="#191970" stroke="#191970" points="596.2006,-75.4304 585.6325,-76.1817 594.3625,-82.1848 596.2006,-75.4304"/>
</g>
<!-- Node56 -->
<g id="node45" class="node">
<title>Node56</title>
<polygon fill="#ffffff" stroke="#bfbfbf" points="680.5,-58.5 680.5,-79.5 709.5,-79.5 709.5,-58.5 680.5,-58.5"/>
<text text-anchor="middle" x="695" y="-65.9" font-family="Helvetica,sans-Serif" font-size="12.00" fill="#000000">ios</text>
</g>
<!-- Node55&#45;&gt;Node56 -->
<g id="edge67" class="edge">
<title>Node55&#45;&gt;Node56</title>
<path fill="none" stroke="#191970" d="M808.3982,-116.3478C786.1377,-107.9167 754.3078,-95.5563 719.0575,-80.2972"/>
<polygon fill="#191970" stroke="#191970" points="720.0949,-76.9312 709.5298,-76.1378 717.2942,-83.3465 720.0949,-76.9312"/>
</g>
<!-- Node57 -->
<g id="node46" class="node">
<title>Node57</title>
<polygon fill="#ffffff" stroke="#bfbfbf" points="727.5,-58.5 727.5,-79.5 770.5,-79.5 770.5,-58.5 727.5,-58.5"/>
<text text-anchor="middle" x="749" y="-65.9" font-family="Helvetica,sans-Serif" font-size="12.00" fill="#000000">stdio.h</text>
</g>
<!-- Node55&#45;&gt;Node57 -->
<g id="edge72" class="edge">
<title>Node55&#45;&gt;Node57</title>
<path fill="none" stroke="#191970" d="M820.8594,-116.3619C807.5864,-107.6138 788.5675,-95.0786 773.4298,-85.1015"/>
<polygon fill="#191970" stroke="#191970" points="775.3139,-82.1515 765.0382,-79.5707 771.4617,-87.9962 775.3139,-82.1515"/>
</g>
<!-- Node58 -->
<g id="node47" class="node">
<title>Node58</title>
<polygon fill="#ffffff" stroke="#bfbfbf" points="1782,-.5 1782,-21.5 1836,-21.5 1836,-.5 1782,-.5"/>
<text text-anchor="middle" x="1809" y="-7.9" font-family="Helvetica,sans-Serif" font-size="12.00" fill="#000000">algorithm</text>
</g>
<!-- Node55&#45;&gt;Node58 -->
<g id="edge74" class="edge">
<title>Node55&#45;&gt;Node58</title>
<path fill="none" stroke="#191970" d="M842.048,-116.4512C850.3467,-100.4677 868.5293,-70.6398 894,-58 979.1658,-15.7367 1639.0818,-37.1609 1771.7431,-21.55"/>
<polygon fill="#191970" stroke="#191970" points="1772.2477,-25.0135 1781.6568,-20.1433 1771.2643,-18.0829 1772.2477,-25.0135"/>
</g>
<!-- Node61&#45;&gt;Node3 -->
<g id="edge86" class="edge">
<title>Node61&#45;&gt;Node3</title>
<path fill="none" stroke="#191970" d="M1712.8069,-116.4197C1729.3187,-107.0518 1753.9222,-92.9015 1775,-80 1803.7032,-62.4311 1836.1111,-41.3543 1857.6649,-27.1562"/>
<polygon fill="#191970" stroke="#191970" points="1859.7795,-29.9541 1866.1952,-21.5227 1855.9219,-24.113 1859.7795,-29.9541"/>
</g>
<!-- Node61&#45;&gt;Node7 -->
<g id="edge82" class="edge">
<title>Node61&#45;&gt;Node7</title>
<path fill="none" stroke="#191970" d="M1675.8198,-116.2949C1640.9142,-95.7414 1564.3702,-50.6698 1523.6729,-26.7059"/>
<polygon fill="#191970" stroke="#191970" points="1525.2447,-23.5697 1514.8517,-21.5117 1521.6929,-29.6017 1525.2447,-23.5697"/>
</g>
<!-- Node61&#45;&gt;Node9 -->
<g id="edge84" class="edge">
<title>Node61&#45;&gt;Node9</title>
<path fill="none" stroke="#191970" d="M1719.9403,-116.4944C1742.7301,-107.1744 1776.7255,-93.0524 1806,-80 1846.0287,-62.1527 1891.6134,-40.3724 1921.0418,-26.1177"/>
<polygon fill="#191970" stroke="#191970" points="1922.9037,-29.1045 1930.3711,-21.5886 1919.8466,-22.8073 1922.9037,-29.1045"/>
</g>
<!-- Node61&#45;&gt;Node11 -->
<g id="edge83" class="edge">
<title>Node61&#45;&gt;Node11</title>
<path fill="none" stroke="#191970" d="M1665.9633,-116.3973C1624.5772,-101.1633 1544.4212,-73.2433 1474,-58 1344.6639,-30.004 1186.8243,-17.1958 1121.9853,-12.8314"/>
<polygon fill="#191970" stroke="#191970" points="1121.8968,-9.3182 1111.6895,-12.1574 1121.4395,-16.3032 1121.8968,-9.3182"/>
</g>
<!-- Node61&#45;&gt;Node12 -->
<g id="edge88" class="edge">
<title>Node61&#45;&gt;Node12</title>
<path fill="none" stroke="#191970" d="M1730.0818,-116.4567C1760.417,-107.3929 1804.8183,-93.6582 1843,-80 1893.32,-61.9997 1950.7519,-38.3094 1984.8821,-23.8909"/>
<polygon fill="#191970" stroke="#191970" points="1986.4387,-27.0326 1994.2789,-19.9065 1983.706,-20.588 1986.4387,-27.0326"/>
</g>
<!-- Node61&#45;&gt;Node24 -->
<g id="edge89" class="edge">
<title>Node61&#45;&gt;Node24</title>
<path fill="none" stroke="#191970" d="M1643.8054,-116.4518C1552.3259,-97.2348 1367.493,-58.4433 1364,-58 1181.0627,-34.7821 619.2112,-18.091 421.0654,-12.7917"/>
<polygon fill="#191970" stroke="#191970" points="421.1533,-9.2929 411.0637,-12.5257 420.9671,-16.2905 421.1533,-9.2929"/>
</g>
<!-- Node61&#45;&gt;Node27 -->
<g id="edge87" class="edge">
<title>Node61&#45;&gt;Node27</title>
<path fill="none" stroke="#191970" d="M1718.4316,-116.4729C1733.0983,-108.7154 1750.5094,-96.617 1759,-80 1766.9102,-64.5189 1761.204,-45.0932 1754.5082,-30.8011"/>
<polygon fill="#191970" stroke="#191970" points="1757.5744,-29.1107 1749.8698,-21.8383 1751.3576,-32.3281 1757.5744,-29.1107"/>
</g>
<!-- Node61&#45;&gt;Node38 -->
<g id="edge90" class="edge">
<title>Node61&#45;&gt;Node38</title>
<path fill="none" stroke="#191970" d="M1692.7161,-116.3619C1691.8182,-108.9219 1690.5896,-98.7427 1689.5016,-89.7276"/>
<polygon fill="#191970" stroke="#191970" points="1692.9488,-89.0792 1688.2758,-79.5707 1685.9993,-89.918 1692.9488,-89.0792"/>
</g>
<!-- Node61&#45;&gt;Node42 -->
<g id="edge85" class="edge">
<title>Node61&#45;&gt;Node42</title>
<path fill="none" stroke="#191970" d="M1710.6656,-116.4298C1728.9161,-103.4279 1754.1986,-80.326 1743,-58 1736.4182,-44.8782 1724.2429,-34.4849 1712.3374,-26.8441"/>
<polygon fill="#191970" stroke="#191970" points="1713.7703,-23.6249 1703.383,-21.5381 1710.2018,-29.647 1713.7703,-23.6249"/>
</g>
<!-- Node61&#45;&gt;Node63 -->
<g id="edge91" class="edge">
<title>Node61&#45;&gt;Node63</title>
<path fill="none" stroke="#191970" d="M1763.707,-119.057C1866.318,-107.3645 2055.8834,-85.7638 2148.797,-75.1764"/>
<polygon fill="#191970" stroke="#191970" points="2149.2896,-78.643 2158.829,-74.0332 2148.4971,-71.688 2149.2896,-78.643"/>
</g>
<!-- Node63&#45;&gt;Node8 -->
<g id="edge92" class="edge">
<title>Node63&#45;&gt;Node8</title>
<path fill="none" stroke="#191970" d="M2222.9202,-58.4966C2239.946,-49.5194 2264.6692,-36.4835 2283.9093,-26.3387"/>
<polygon fill="#191970" stroke="#191970" points="2285.6431,-29.3814 2292.8563,-21.6212 2282.3782,-23.1894 2285.6431,-29.3814"/>
</g>
<!-- Node63&#45;&gt;Node58 -->
<g id="edge93" class="edge">
<title>Node63&#45;&gt;Node58</title>
<path fill="none" stroke="#191970" d="M2158.7828,-65.5735C2092.6317,-59.9291 1963.9359,-46.9469 1846.2878,-22.0143"/>
<polygon fill="#191970" stroke="#191970" points="1846.9063,-18.5673 1836.3935,-19.8831 1845.4323,-25.4104 1846.9063,-18.5673"/>
</g>
<!-- Node64&#45;&gt;Node8 -->
<g id="edge103" class="edge">
<title>Node64&#45;&gt;Node8</title>
<path fill="none" stroke="#191970" d="M1249.0185,-365.6886C1264.2935,-364.0909 1280.7618,-362.4252 1296,-361 1422.7648,-349.1443 2346.0156,-355.027 2438,-267 2507.5612,-200.4315 2449.4398,-125.7209 2381,-58 2368.9818,-46.108 2353.6236,-35.2075 2340.5449,-26.9044"/>
<polygon fill="#191970" stroke="#191970" points="2342.2731,-23.8582 2331.9237,-21.5909 2338.6003,-29.8173 2342.2731,-23.8582"/>
</g>
<!-- Node64&#45;&gt;Node11 -->
<g id="edge102" class="edge">
<title>Node64&#45;&gt;Node11</title>
<path fill="none" stroke="#191970" d="M1198.5037,-361.1825C1234.4797,-309.023 1386.6502,-84.8997 1364,-58 1333.2896,-21.5279 1185.9812,-13.3581 1121.8926,-11.5282"/>
<polygon fill="#191970" stroke="#191970" points="1121.729,-8.023 1111.644,-11.27 1121.5526,-15.0208 1121.729,-8.023"/>
</g>
<!-- Node64&#45;&gt;Node24 -->
<g id="edge104" class="edge">
<title>Node64&#45;&gt;Node24</title>
<path fill="none" stroke="#191970" d="M1132.8599,-365.6799C934.8796,-344.1007 298.7527,-274.2648 291,-267 241.4646,-220.5819 254.7682,-182.5831 268,-116 273.4376,-88.6375 275.2229,-80.289 292,-58 300.9745,-46.077 313.6497,-35.456 324.9527,-27.3403"/>
<polygon fill="#191970" stroke="#191970" points="326.9852,-30.1904 333.2448,-21.6424 323.0208,-24.4211 326.9852,-30.1904"/>
</g>
<!-- Node64&#45;&gt;Node25 -->
<g id="edge106" class="edge">
<title>Node64&#45;&gt;Node25</title>
<path fill="none" stroke="#191970" d="M1247.1387,-361.4966C1300.3576,-351.5395 1380.263,-336.5895 1436.1714,-326.1292"/>
<polygon fill="#191970" stroke="#191970" points="1437.1339,-329.51 1446.3196,-324.2305 1435.8465,-322.6294 1437.1339,-329.51"/>
</g>
<!-- Node64&#45;&gt;Node38 -->
<g id="edge105" class="edge">
<title>Node64&#45;&gt;Node38</title>
<path fill="none" stroke="#191970" d="M1202.0032,-361.4711C1242.9736,-322.8319 1391.8971,-187.3812 1539,-116 1568.7238,-101.5766 1603.9059,-90.1917 1632.5087,-82.2416"/>
<polygon fill="#191970" stroke="#191970" points="1633.5989,-85.5724 1642.3317,-79.5734 1631.7639,-78.8171 1633.5989,-85.5724"/>
</g>
</g>
</svg>
