<?xml version="1.0" encoding="UTF-8" standalone="no"?>
<!DOCTYPE svg PUBLIC "-//W3C//DTD SVG 1.1//EN"
 "http://www.w3.org/Graphics/SVG/1.1/DTD/svg11.dtd">
<!-- Generated by graphviz version 2.40.1 (20161225.0304)
 -->
<!-- Title: timemory.cc Pages: 1 -->
<svg width="3523pt" height="449pt"
 viewBox="0.00 0.00 3523.00 449.00" xmlns="http://www.w3.org/2000/svg" xmlns:xlink="http://www.w3.org/1999/xlink">
<g id="graph0" class="graph" transform="scale(1 1) rotate(0) translate(4 445)">
<title>timemory.cc</title>
<polygon fill="#ffffff" stroke="transparent" points="-4,4 -4,-445 3519,-445 3519,4 -4,4"/>
<!-- Node0 -->
<g id="node1" class="node">
<title>Node0</title>
<polygon fill="#bfbfbf" stroke="#000000" points="2177.5,-419.5 2177.5,-440.5 2242.5,-440.5 2242.5,-419.5 2177.5,-419.5"/>
<text text-anchor="middle" x="2210" y="-426.9" font-family="Helvetica,sans-Serif" font-size="12.00" fill="#000000">timemory.cc</text>
</g>
<!-- Node1 -->
<g id="node2" class="node">
<title>Node1</title>
<polygon fill="#ffffff" stroke="#bfbfbf" points="0,-361.5 0,-382.5 40,-382.5 40,-361.5 0,-361.5"/>
<text text-anchor="middle" x="20" y="-368.9" font-family="Helvetica,sans-Serif" font-size="12.00" fill="#000000">future</text>
</g>
<!-- Node0&#45;&gt;Node1 -->
<g id="edge1" class="edge">
<title>Node0&#45;&gt;Node1</title>
<path fill="none" stroke="#191970" d="M2177.2832,-429.9597C1926.472,-429.5639 311.5915,-425.4404 50.1103,-382.4087"/>
<polygon fill="#191970" stroke="#191970" points="50.4855,-378.9202 40.0242,-380.5968 49.2477,-385.8099 50.4855,-378.9202"/>
</g>
<!-- Node2 -->
<g id="node3" class="node">
<title>Node2</title>
<polygon fill="#ffffff" stroke="#bfbfbf" points="58,-361.5 58,-382.5 102,-382.5 102,-361.5 58,-361.5"/>
<text text-anchor="middle" x="80" y="-368.9" font-family="Helvetica,sans-Serif" font-size="12.00" fill="#000000">chrono</text>
</g>
<!-- Node0&#45;&gt;Node2 -->
<g id="edge2" class="edge">
<title>Node0&#45;&gt;Node2</title>
<path fill="none" stroke="#191970" d="M2177.1367,-429.8057C1926.9948,-428.2552 327.7084,-417.0554 116,-383 114.7297,-382.7957 113.4419,-382.5577 112.1467,-382.2925"/>
<polygon fill="#191970" stroke="#191970" points="112.7931,-378.8467 102.2442,-379.8318 111.105,-385.6401 112.7931,-378.8467"/>
</g>
<!-- Node3 -->
<g id="node4" class="node">
<title>Node3</title>
<polygon fill="#ffffff" stroke="#bfbfbf" points="292.5,-.5 292.5,-21.5 347.5,-21.5 347.5,-.5 292.5,-.5"/>
<text text-anchor="middle" x="320" y="-7.9" font-family="Helvetica,sans-Serif" font-size="12.00" fill="#000000">functional</text>
</g>
<!-- Node0&#45;&gt;Node3 -->
<g id="edge3" class="edge">
<title>Node0&#45;&gt;Node3</title>
<path fill="none" stroke="#191970" d="M2177.4756,-429.7404C1938.4646,-427.7616 460.4974,-414.2873 372,-383 324.4796,-366.1997 282,-364.4028 282,-314 282,-314 282,-314 282,-127 282,-91.7411 298.0509,-53.3154 309.2892,-30.7323"/>
<polygon fill="#191970" stroke="#191970" points="312.4185,-32.3005 313.8946,-21.809 306.1981,-29.0901 312.4185,-32.3005"/>
</g>
<!-- Node4 -->
<g id="node5" class="node">
<title>Node4</title>
<polygon fill="#ffffff" stroke="#bfbfbf" points="147.5,-.5 147.5,-21.5 188.5,-21.5 188.5,-.5 147.5,-.5"/>
<text text-anchor="middle" x="168" y="-7.9" font-family="Helvetica,sans-Serif" font-size="12.00" fill="#000000">mutex</text>
</g>
<!-- Node0&#45;&gt;Node4 -->
<g id="edge4" class="edge">
<title>Node0&#45;&gt;Node4</title>
<path fill="none" stroke="#191970" d="M2177.4178,-429.7533C1927.9387,-427.7989 327.5032,-414.0768 231,-383 179.2529,-366.3359 130,-368.3641 130,-314 130,-314 130,-314 130,-127 130,-91.7411 146.0509,-53.3154 157.2892,-30.7323"/>
<polygon fill="#191970" stroke="#191970" points="160.4185,-32.3005 161.8946,-21.809 154.1981,-29.0901 160.4185,-32.3005"/>
</g>
<!-- Node5 -->
<g id="node6" class="node">
<title>Node5</title>
<polygon fill="#ffffff" stroke="#bfbfbf" points="223,-.5 223,-21.5 265,-21.5 265,-.5 223,-.5"/>
<text text-anchor="middle" x="244" y="-7.9" font-family="Helvetica,sans-Serif" font-size="12.00" fill="#000000">thread</text>
</g>
<!-- Node0&#45;&gt;Node5 -->
<g id="edge5" class="edge">
<title>Node0&#45;&gt;Node5</title>
<path fill="none" stroke="#191970" d="M2177.497,-429.7264C1933.7256,-427.6093 398.6169,-413.1107 306,-383 254.648,-366.3049 206,-367.9977 206,-314 206,-314 206,-314 206,-127 206,-91.7411 222.0509,-53.3154 233.2892,-30.7323"/>
<polygon fill="#191970" stroke="#191970" points="236.4185,-32.3005 237.8946,-21.809 230.1981,-29.0901 236.4185,-32.3005"/>
</g>
<!-- Node6 -->
<g id="node7" class="node">
<title>Node6</title>
<polygon fill="#ffffff" stroke="#bfbfbf" points="2301.5,-.5 2301.5,-21.5 2344.5,-21.5 2344.5,-.5 2301.5,-.5"/>
<text text-anchor="middle" x="2323" y="-7.9" font-family="Helvetica,sans-Serif" font-size="12.00" fill="#000000">atomic</text>
</g>
<!-- Node0&#45;&gt;Node6 -->
<g id="edge6" class="edge">
<title>Node0&#45;&gt;Node6</title>
<path fill="none" stroke="#191970" d="M2226.1954,-419.461C2238.697,-410.7561 2255.8538,-397.5094 2268,-383 2303.073,-341.1031 2361,-190.0389 2361,-185 2361,-185 2361,-185 2361,-127 2361,-91.7411 2344.9491,-53.3154 2333.7108,-30.7323"/>
<polygon fill="#191970" stroke="#191970" points="2336.8019,-29.0901 2329.1054,-21.809 2330.5815,-32.3005 2336.8019,-29.0901"/>
</g>
<!-- Node7 -->
<g id="node8" class="node">
<title>Node7</title>
<polygon fill="#ffffff" stroke="#bfbfbf" points="684.5,-.5 684.5,-21.5 735.5,-21.5 735.5,-.5 684.5,-.5"/>
<text text-anchor="middle" x="710" y="-7.9" font-family="Helvetica,sans-Serif" font-size="12.00" fill="#000000">iostream</text>
</g>
<!-- Node0&#45;&gt;Node7 -->
<g id="edge7" class="edge">
<title>Node0&#45;&gt;Node7</title>
<path fill="none" stroke="#191970" d="M2177.4815,-429.5719C1958.0467,-426.6151 701.4457,-408.5823 672,-383 562.5267,-287.89 576.0934,-186.6617 643,-58 650.0158,-44.5087 662.8754,-34.0833 675.4665,-26.5183"/>
<polygon fill="#191970" stroke="#191970" points="677.4496,-29.4209 684.5,-21.5125 674.0567,-23.2982 677.4496,-29.4209"/>
</g>
<!-- Node8 -->
<g id="node9" class="node">
<title>Node8</title>
<polygon fill="#ffffff" stroke="#bfbfbf" points="601.5,-.5 601.5,-21.5 644.5,-21.5 644.5,-.5 601.5,-.5"/>
<text text-anchor="middle" x="623" y="-7.9" font-family="Helvetica,sans-Serif" font-size="12.00" fill="#000000">cstdint</text>
</g>
<!-- Node0&#45;&gt;Node8 -->
<g id="edge8" class="edge">
<title>Node0&#45;&gt;Node8</title>
<path fill="none" stroke="#191970" d="M2177.4955,-429.5782C1967.1004,-426.7745 801.7247,-410.1081 646,-383 548.3808,-366.0067 434,-413.0872 434,-314 434,-314 434,-314 434,-127 434,-90.3936 538.2891,-44.1636 591.9294,-22.8066"/>
<polygon fill="#191970" stroke="#191970" points="593.2926,-26.0316 601.3193,-19.1162 590.732,-19.5167 593.2926,-26.0316"/>
</g>
<!-- Node9 -->
<g id="node10" class="node">
<title>Node9</title>
<polygon fill="#ffffff" stroke="#bfbfbf" points="523.5,-.5 523.5,-21.5 572.5,-21.5 572.5,-.5 523.5,-.5"/>
<text text-anchor="middle" x="548" y="-7.9" font-family="Helvetica,sans-Serif" font-size="12.00" fill="#000000">sstream</text>
</g>
<!-- Node0&#45;&gt;Node9 -->
<g id="edge9" class="edge">
<title>Node0&#45;&gt;Node9</title>
<path fill="none" stroke="#191970" d="M2177.2434,-429.9325C1942.8726,-429.3498 527.8204,-424.1326 448,-383 413.8656,-365.41 396,-352.4001 396,-314 396,-314 396,-314 396,-127 396,-68.2088 468.7491,-35.2442 513.589,-20.5098"/>
<polygon fill="#191970" stroke="#191970" points="514.7499,-23.8138 523.2403,-17.4762 512.6509,-17.1359 514.7499,-23.8138"/>
</g>
<!-- Node10 -->
<g id="node11" class="node">
<title>Node10</title>
<polygon fill="#ffffff" stroke="#bfbfbf" points="2333,-361.5 2333,-382.5 2367,-382.5 2367,-361.5 2333,-361.5"/>
<text text-anchor="middle" x="2350" y="-368.9" font-family="Helvetica,sans-Serif" font-size="12.00" fill="#000000">map</text>
</g>
<!-- Node0&#45;&gt;Node10 -->
<g id="edge10" class="edge">
<title>Node0&#45;&gt;Node10</title>
<path fill="none" stroke="#191970" d="M2235.3529,-419.4966C2260.2565,-409.1794 2298.0996,-393.5016 2323.4184,-383.0124"/>
<polygon fill="#191970" stroke="#191970" points="2324.8806,-386.1951 2332.7796,-379.1342 2322.2014,-379.7282 2324.8806,-386.1951"/>
</g>
<!-- Node11 -->
<g id="node12" class="node">
<title>Node11</title>
<polygon fill="#ffffff" stroke="#bfbfbf" points="1240.5,-.5 1240.5,-21.5 1279.5,-21.5 1279.5,-.5 1240.5,-.5"/>
<text text-anchor="middle" x="1260" y="-7.9" font-family="Helvetica,sans-Serif" font-size="12.00" fill="#000000">string</text>
</g>
<!-- Node0&#45;&gt;Node11 -->
<g id="edge11" class="edge">
<title>Node0&#45;&gt;Node11</title>
<path fill="none" stroke="#191970" d="M2213.885,-419.3556C2224.3095,-389.1235 2250.623,-300.501 2228,-232 2211.4478,-181.8809 2091.4861,-65.2342 2076,-58 2003.7112,-24.2309 1428.6095,-13.5205 1289.9852,-11.4171"/>
<polygon fill="#191970" stroke="#191970" points="1289.7526,-7.9133 1279.7018,-11.2648 1289.6489,-14.9126 1289.7526,-7.9133"/>
</g>
<!-- Node12 -->
<g id="node13" class="node">
<title>Node12</title>
<polygon fill="#ffffff" stroke="#bfbfbf" points="451.5,-.5 451.5,-21.5 492.5,-21.5 492.5,-.5 451.5,-.5"/>
<text text-anchor="middle" x="472" y="-7.9" font-family="Helvetica,sans-Serif" font-size="12.00" fill="#000000">vector</text>
</g>
<!-- Node0&#45;&gt;Node12 -->
<g id="edge12" class="edge">
<title>Node0&#45;&gt;Node12</title>
<path fill="none" stroke="#191970" d="M2177.298,-429.9518C1940.1939,-429.5027 491.6393,-425.0409 410,-383 375.8606,-365.4196 358,-352.4001 358,-314 358,-314 358,-314 358,-127 358,-78.8649 408.5515,-43.3986 442.3292,-25.0733"/>
<polygon fill="#191970" stroke="#191970" points="444.1093,-28.0923 451.3555,-20.3629 440.8707,-21.8865 444.1093,-28.0923"/>
</g>
<!-- Node13 -->
<g id="node14" class="node">
<title>Node13</title>
<polygon fill="#ffffff" stroke="#bfbfbf" points="2385.5,-361.5 2385.5,-382.5 2434.5,-382.5 2434.5,-361.5 2385.5,-361.5"/>
<text text-anchor="middle" x="2410" y="-368.9" font-family="Helvetica,sans-Serif" font-size="12.00" fill="#000000">memory</text>
</g>
<!-- Node0&#45;&gt;Node13 -->
<g id="edge13" class="edge">
<title>Node0&#45;&gt;Node13</title>
<path fill="none" stroke="#191970" d="M2242.5481,-421.1675C2274.1269,-412.5136 2323.6211,-398.7288 2375.45,-383.0962"/>
<polygon fill="#191970" stroke="#191970" points="2376.5957,-386.4062 2385.1509,-380.1565 2374.5656,-379.707 2376.5957,-386.4062"/>
</g>
<!-- Node14 -->
<g id="node15" class="node">
<title>Node14</title>
<polygon fill="#ffffff" stroke="#bfbfbf" points="2453,-361.5 2453,-382.5 2553,-382.5 2553,-361.5 2453,-361.5"/>
<text text-anchor="middle" x="2503" y="-368.9" font-family="Helvetica,sans-Serif" font-size="12.00" fill="#000000">pybind11/pybind11.h</text>
</g>
<!-- Node0&#45;&gt;Node14 -->
<g id="edge14" class="edge">
<title>Node0&#45;&gt;Node14</title>
<path fill="none" stroke="#191970" d="M2242.758,-423.5155C2291.1359,-413.939 2382.4839,-395.8564 2443.055,-383.8662"/>
<polygon fill="#191970" stroke="#191970" points="2443.7422,-387.2982 2452.8722,-381.9229 2442.3828,-380.4315 2443.7422,-387.2982"/>
</g>
<!-- Node15 -->
<g id="node16" class="node">
<title>Node15</title>
<polygon fill="#ffffff" stroke="#bfbfbf" points="2571,-361.5 2571,-382.5 2643,-382.5 2643,-361.5 2571,-361.5"/>
<text text-anchor="middle" x="2607" y="-368.9" font-family="Helvetica,sans-Serif" font-size="12.00" fill="#000000">pybind11/stl.h</text>
</g>
<!-- Node0&#45;&gt;Node15 -->
<g id="edge15" class="edge">
<title>Node0&#45;&gt;Node15</title>
<path fill="none" stroke="#191970" d="M2242.7007,-426.8156C2303.4622,-420.6446 2438.0269,-405.7871 2560.7782,-383.0826"/>
<polygon fill="#191970" stroke="#191970" points="2561.5381,-386.5013 2570.7232,-381.2208 2560.2499,-379.6208 2561.5381,-386.5013"/>
</g>
<!-- Node16 -->
<g id="node17" class="node">
<title>Node16</title>
<polygon fill="#ffffff" stroke="#bfbfbf" points="2661,-361.5 2661,-382.5 2763,-382.5 2763,-361.5 2661,-361.5"/>
<text text-anchor="middle" x="2712" y="-368.9" font-family="Helvetica,sans-Serif" font-size="12.00" fill="#000000">pybind11/functional.h</text>
</g>
<!-- Node0&#45;&gt;Node16 -->
<g id="edge16" class="edge">
<title>Node0&#45;&gt;Node16</title>
<path fill="none" stroke="#191970" d="M2242.5449,-427.3854C2314.3534,-421.4353 2491.9592,-405.7256 2651.0149,-383.057"/>
<polygon fill="#191970" stroke="#191970" points="2651.58,-386.5118 2660.9799,-381.624 2650.5835,-379.5831 2651.58,-386.5118"/>
</g>
<!-- Node17 -->
<g id="node18" class="node">
<title>Node17</title>
<polygon fill="#ffffff" stroke="#bfbfbf" points="2781.5,-361.5 2781.5,-382.5 2872.5,-382.5 2872.5,-361.5 2781.5,-361.5"/>
<text text-anchor="middle" x="2827" y="-368.9" font-family="Helvetica,sans-Serif" font-size="12.00" fill="#000000">pybind11/chrono.h</text>
</g>
<!-- Node0&#45;&gt;Node17 -->
<g id="edge17" class="edge">
<title>Node0&#45;&gt;Node17</title>
<path fill="none" stroke="#191970" d="M2242.7704,-428.5669C2328.0958,-424.5579 2564.2718,-411.6864 2771.3026,-382.9503"/>
<polygon fill="#191970" stroke="#191970" points="2772.0338,-386.3821 2781.4501,-381.5257 2771.0605,-379.45 2772.0338,-386.3821"/>
</g>
<!-- Node18 -->
<g id="node19" class="node">
<title>Node18</title>
<polygon fill="#ffffff" stroke="#bfbfbf" points="2891,-361.5 2891,-382.5 2981,-382.5 2981,-361.5 2891,-361.5"/>
<text text-anchor="middle" x="2936" y="-368.9" font-family="Helvetica,sans-Serif" font-size="12.00" fill="#000000">pybind11/numpy.h</text>
</g>
<!-- Node0&#45;&gt;Node18 -->
<g id="edge18" class="edge">
<title>Node0&#45;&gt;Node18</title>
<path fill="none" stroke="#191970" d="M2242.6736,-429.2321C2338.9452,-426.6487 2629.9692,-416.54 2880.9568,-382.9849"/>
<polygon fill="#191970" stroke="#191970" points="2881.5535,-386.4361 2890.9942,-381.6274 2880.6153,-379.4993 2881.5535,-386.4361"/>
</g>
<!-- Node19 -->
<g id="node20" class="node">
<title>Node19</title>
<polygon fill="#ffffff" stroke="#bfbfbf" points="2999,-361.5 2999,-382.5 3097,-382.5 3097,-361.5 2999,-361.5"/>
<text text-anchor="middle" x="3048" y="-368.9" font-family="Helvetica,sans-Serif" font-size="12.00" fill="#000000">pybind11/iostream.h</text>
</g>
<!-- Node0&#45;&gt;Node19 -->
<g id="edge19" class="edge">
<title>Node0&#45;&gt;Node19</title>
<path fill="none" stroke="#191970" d="M2242.8321,-429.5149C2349.2032,-427.6284 2694.0408,-419.0472 2988.6864,-383.0287"/>
<polygon fill="#191970" stroke="#191970" points="2989.211,-386.4906 2998.7064,-381.7907 2988.3526,-379.5434 2989.211,-386.4906"/>
</g>
<!-- Node20 -->
<g id="node21" class="node">
<title>Node20</title>
<polygon fill="#ffffff" stroke="#bfbfbf" points="3115,-361.5 3115,-382.5 3195,-382.5 3195,-361.5 3115,-361.5"/>
<text text-anchor="middle" x="3155" y="-368.9" font-family="Helvetica,sans-Serif" font-size="12.00" fill="#000000">pybind11/eval.h</text>
</g>
<!-- Node0&#45;&gt;Node20 -->
<g id="edge20" class="edge">
<title>Node0&#45;&gt;Node20</title>
<path fill="none" stroke="#191970" d="M2242.7208,-429.0231C2380.4544,-424.7993 2914.3482,-407.2772 3104.8283,-382.9105"/>
<polygon fill="#191970" stroke="#191970" points="3105.5377,-386.347 3114.9887,-381.5586 3104.6145,-379.4082 3105.5377,-386.347"/>
</g>
<!-- Node21 -->
<g id="node22" class="node">
<title>Node21</title>
<polygon fill="#ffffff" stroke="#bfbfbf" points="3213.5,-361.5 3213.5,-382.5 3304.5,-382.5 3304.5,-361.5 3213.5,-361.5"/>
<text text-anchor="middle" x="3259" y="-368.9" font-family="Helvetica,sans-Serif" font-size="12.00" fill="#000000">pybind11/embed.h</text>
</g>
<!-- Node0&#45;&gt;Node21 -->
<g id="edge21" class="edge">
<title>Node0&#45;&gt;Node21</title>
<path fill="none" stroke="#191970" d="M2242.7028,-429.1151C2389.7913,-425.0352 2991.6867,-407.2485 3203.3837,-382.8577"/>
<polygon fill="#191970" stroke="#191970" points="3203.9524,-386.3147 3213.467,-381.654 3203.1226,-379.3641 3203.9524,-386.3147"/>
</g>
<!-- Node22 -->
<g id="node23" class="node">
<title>Node22</title>
<polygon fill="#ffffff" stroke="#bfbfbf" points="3323,-361.5 3323,-382.5 3403,-382.5 3403,-361.5 3323,-361.5"/>
<text text-anchor="middle" x="3363" y="-368.9" font-family="Helvetica,sans-Serif" font-size="12.00" fill="#000000">pybind11/cast.h</text>
</g>
<!-- Node0&#45;&gt;Node22 -->
<g id="edge22" class="edge">
<title>Node0&#45;&gt;Node22</title>
<path fill="none" stroke="#191970" d="M2242.5468,-429.3978C2399.3499,-426.3789 3078.55,-411.9284 3312.8422,-382.8958"/>
<polygon fill="#191970" stroke="#191970" points="3313.5209,-386.3375 3322.9932,-381.5913 3312.6286,-379.3945 3313.5209,-386.3375"/>
</g>
<!-- Node23 -->
<g id="node24" class="node">
<title>Node23</title>
<polygon fill="#ffffff" stroke="#bfbfbf" points="3421,-361.5 3421,-382.5 3515,-382.5 3515,-361.5 3421,-361.5"/>
<text text-anchor="middle" x="3468" y="-368.9" font-family="Helvetica,sans-Serif" font-size="12.00" fill="#000000">pybind11/pytypes.h</text>
</g>
<!-- Node0&#45;&gt;Node23 -->
<g id="edge23" class="edge">
<title>Node0&#45;&gt;Node23</title>
<path fill="none" stroke="#191970" d="M2242.6027,-429.409C2407.9912,-426.3083 3155.9658,-411.0279 3410.7787,-382.9526"/>
<polygon fill="#191970" stroke="#191970" points="3411.1847,-386.4291 3420.7247,-381.8206 3410.393,-379.474 3411.1847,-386.4291"/>
</g>
<!-- Node24 -->
<g id="node25" class="node">
<title>Node24</title>
<g id="a_node25"><a xlink:href="../../db/d19/namespace_8hpp.html" target="_top" xlink:title="timemory/namespace.hpp">
<polygon fill="#ffffff" stroke="#000000" points="2054,-.5 2054,-21.5 2174,-21.5 2174,-.5 2054,-.5"/>
<text text-anchor="middle" x="2114" y="-7.9" font-family="Helvetica,sans-Serif" font-size="12.00" fill="#000000">timemory/namespace.hpp</text>
</a>
</g>
</g>
<!-- Node0&#45;&gt;Node24 -->
<g id="edge24" class="edge">
<title>Node0&#45;&gt;Node24</title>
<path fill="none" stroke="#191970" d="M2219.4796,-419.1147C2249.3188,-383.4708 2337.1295,-267.1967 2299,-174 2269.6424,-102.2437 2189.2251,-50.4328 2144.6912,-26.262"/>
<polygon fill="#191970" stroke="#191970" points="2146.2383,-23.1208 2135.764,-21.5265 2142.9579,-29.3046 2146.2383,-23.1208"/>
</g>
<!-- Node25 -->
<g id="node26" class="node">
<title>Node25</title>
<g id="a_node26"><a xlink:href="../../da/d04/manager_8hpp.html" target="_top" xlink:title="timemory/manager.hpp">
<polygon fill="#ffffff" stroke="#000000" points="1332.5,-303.5 1332.5,-324.5 1441.5,-324.5 1441.5,-303.5 1332.5,-303.5"/>
<text text-anchor="middle" x="1387" y="-310.9" font-family="Helvetica,sans-Serif" font-size="12.00" fill="#000000">timemory/manager.hpp</text>
</a>
</g>
</g>
<!-- Node0&#45;&gt;Node25 -->
<g id="edge25" class="edge">
<title>Node0&#45;&gt;Node25</title>
<path fill="none" stroke="#191970" d="M2177.4839,-425.4169C2054.7133,-408.1127 1617.9186,-346.5475 1451.7798,-323.1306"/>
<polygon fill="#191970" stroke="#191970" points="1452.0963,-319.6407 1441.7057,-321.7106 1451.1193,-326.5722 1452.0963,-319.6407"/>
</g>
<!-- Node46 -->
<g id="node41" class="node">
<title>Node46</title>
<g id="a_node41"><a xlink:href="../../df/d05/timer_8hpp.html" target="_top" xlink:title="timemory/timer.hpp">
<polygon fill="#ffffff" stroke="#000000" points="2125,-239 2125,-260 2219,-260 2219,-239 2125,-239"/>
<text text-anchor="middle" x="2172" y="-246.4" font-family="Helvetica,sans-Serif" font-size="12.00" fill="#000000">timemory/timer.hpp</text>
</a>
</g>
</g>
<!-- Node0&#45;&gt;Node46 -->
<g id="edge96" class="edge">
<title>Node0&#45;&gt;Node46</title>
<path fill="none" stroke="#191970" d="M2207.7367,-419.2495C2201.5998,-390.0992 2184.5594,-309.1573 2176.428,-270.533"/>
<polygon fill="#191970" stroke="#191970" points="2179.7846,-269.4869 2174.2995,-260.4224 2172.9347,-270.929 2179.7846,-269.4869"/>
</g>
<!-- Node53 -->
<g id="node43" class="node">
<title>Node53</title>
<g id="a_node43"><a xlink:href="../../d9/dd2/rss_8hpp.html" target="_top" xlink:title="timemory/rss.hpp">
<polygon fill="#ffffff" stroke="#ff0000" points="1352,-116.5 1352,-137.5 1438,-137.5 1438,-116.5 1352,-116.5"/>
<text text-anchor="middle" x="1395" y="-123.9" font-family="Helvetica,sans-Serif" font-size="12.00" fill="#000000">timemory/rss.hpp</text>
</a>
</g>
</g>
<!-- Node0&#45;&gt;Node53 -->
<g id="edge97" class="edge">
<title>Node0&#45;&gt;Node53</title>
<path fill="none" stroke="#191970" d="M2177.247,-428.8983C1973.208,-421.8255 885,-380.9652 885,-314 885,-314 885,-314 885,-249.5 885,-156.2972 1211.1014,-133.8224 1341.7807,-128.5578"/>
<polygon fill="#191970" stroke="#191970" points="1342.099,-132.0482 1351.9572,-128.1668 1341.8302,-125.0534 1342.099,-132.0482"/>
</g>
<!-- Node60 -->
<g id="node48" class="node">
<title>Node60</title>
<g id="a_node48"><a xlink:href="../../da/d8e/signal__detection_8hpp.html" target="_top" xlink:title="timemory/signal_detection.hpp">
<polygon fill="#ffffff" stroke="#ff0000" points="728.5,-116.5 728.5,-137.5 867.5,-137.5 867.5,-116.5 728.5,-116.5"/>
<text text-anchor="middle" x="798" y="-123.9" font-family="Helvetica,sans-Serif" font-size="12.00" fill="#000000">timemory/signal_detection.hpp</text>
</a>
</g>
</g>
<!-- Node0&#45;&gt;Node60 -->
<g id="edge104" class="edge">
<title>Node0&#45;&gt;Node60</title>
<path fill="none" stroke="#191970" d="M2177.1742,-429.6102C1958.4361,-426.9369 719.7522,-410.5939 693,-383 646.2858,-334.8161 667.3177,-294.0026 693,-232 708.9733,-193.437 746.7424,-161.6524 772.3479,-143.4976"/>
<polygon fill="#191970" stroke="#191970" points="774.5859,-146.2063 780.8419,-137.6556 770.6191,-140.4387 774.5859,-146.2063"/>
</g>
<!-- Node62 -->
<g id="node49" class="node">
<title>Node62</title>
<g id="a_node49"><a xlink:href="../../d0/d5d/mpi_8hpp.html" target="_top" xlink:title="timemory/mpi.hpp">
<polygon fill="#ffffff" stroke="#000000" points="878,-58.5 878,-79.5 966,-79.5 966,-58.5 878,-58.5"/>
<text text-anchor="middle" x="922" y="-65.9" font-family="Helvetica,sans-Serif" font-size="12.00" fill="#000000">timemory/mpi.hpp</text>
</a>
</g>
</g>
<!-- Node0&#45;&gt;Node62 -->
<g id="edge105" class="edge">
<title>Node0&#45;&gt;Node62</title>
<path fill="none" stroke="#191970" d="M2177.3295,-429.5848C1962.3174,-426.7773 758.0262,-409.867 732,-383 725.1968,-375.9771 729.2188,-370.3739 732,-361 734.3161,-353.1938 867.2556,-151.7867 909.3576,-88.109"/>
<polygon fill="#191970" stroke="#191970" points="912.287,-90.0244 914.8839,-79.7528 906.4483,-86.1631 912.287,-90.0244"/>
</g>
<!-- Node63 -->
<g id="node50" class="node">
<title>Node63</title>
<g id="a_node50"><a xlink:href="../../d8/d07/auto__timer_8hpp.html" target="_top" xlink:title="timemory/auto_timer.hpp">
<polygon fill="#ffffff" stroke="#000000" points="741,-361.5 741,-382.5 857,-382.5 857,-361.5 741,-361.5"/>
<text text-anchor="middle" x="799" y="-368.9" font-family="Helvetica,sans-Serif" font-size="12.00" fill="#000000">timemory/auto_timer.hpp</text>
</a>
</g>
</g>
<!-- Node0&#45;&gt;Node63 -->
<g id="edge98" class="edge">
<title>Node0&#45;&gt;Node63</title>
<path fill="none" stroke="#191970" d="M2177.3073,-429.3703C1998.3851,-425.8453 1136.1771,-407.8254 871,-383 869.7253,-382.8807 868.4387,-382.7536 867.1433,-382.6195"/>
<polygon fill="#191970" stroke="#191970" points="867.4203,-379.1284 857.0871,-381.4685 866.6242,-386.083 867.4203,-379.1284"/>
</g>
<!-- Node25&#45;&gt;Node4 -->
<g id="edge30" class="edge">
<title>Node25&#45;&gt;Node4</title>
<path fill="none" stroke="#191970" d="M1332.2717,-313.6514C1182.2146,-312.2085 766.7494,-304.8132 636,-267 449.4928,-213.0614 254.6057,-75.7891 190.1361,-27.8393"/>
<polygon fill="#191970" stroke="#191970" points="192.021,-24.8782 181.9191,-21.6841 187.8243,-30.4807 192.021,-24.8782"/>
</g>
<!-- Node25&#45;&gt;Node5 -->
<g id="edge29" class="edge">
<title>Node25&#45;&gt;Node5</title>
<path fill="none" stroke="#191970" d="M1332.1829,-312.8807C1196.5722,-309.6566 848.3229,-298.4773 737,-267 542.0499,-211.8765 335.082,-74.8417 267.0892,-27.4424"/>
<polygon fill="#191970" stroke="#191970" points="268.9814,-24.4945 258.7851,-21.6157 264.9606,-30.2246 268.9814,-24.4945"/>
</g>
<!-- Node25&#45;&gt;Node8 -->
<g id="edge31" class="edge">
<title>Node25&#45;&gt;Node8</title>
<path fill="none" stroke="#191970" d="M1332.1234,-311.4988C1196.4814,-305.0429 852.9112,-286.9246 805,-267 703.4685,-224.7767 689.8372,-179.4874 643,-80 635.7062,-64.5071 630.4832,-45.7855 627.2078,-31.7548"/>
<polygon fill="#191970" stroke="#191970" points="630.5552,-30.6788 624.9962,-21.6594 623.7174,-32.1768 630.5552,-30.6788"/>
</g>
<!-- Node25&#45;&gt;Node11 -->
<g id="edge28" class="edge">
<title>Node25&#45;&gt;Node11</title>
<path fill="none" stroke="#191970" d="M1332.4224,-310.9714C1234.7799,-304.9917 1038.4344,-290.2022 1018,-267 943.8669,-182.8255 950.8782,-319.6364 1198,-80 1214.8166,-63.6928 1232.5387,-43.6415 1244.7085,-29.365"/>
<polygon fill="#191970" stroke="#191970" points="1247.405,-31.5967 1251.1836,-21.6985 1242.0572,-27.0799 1247.405,-31.5967"/>
</g>
<!-- Node25&#45;&gt;Node24 -->
<g id="edge42" class="edge">
<title>Node25&#45;&gt;Node24</title>
<path fill="none" stroke="#191970" d="M1441.5972,-313.2893C1587.684,-310.9296 1979.6027,-301.4254 2026,-267 2102.683,-210.1035 2113.0766,-82.2701 2114.1008,-31.9354"/>
<polygon fill="#191970" stroke="#191970" points="2117.6032,-31.686 2114.1965,-21.6538 2110.6035,-31.6208 2117.6032,-31.686"/>
</g>
<!-- Node26 -->
<g id="node27" class="node">
<title>Node26</title>
<polygon fill="#ffffff" stroke="#bfbfbf" points="1457,-239 1457,-260 1537,-260 1537,-239 1457,-239"/>
<text text-anchor="middle" x="1497" y="-246.4" font-family="Helvetica,sans-Serif" font-size="12.00" fill="#000000">unordered_map</text>
</g>
<!-- Node25&#45;&gt;Node26 -->
<g id="edge26" class="edge">
<title>Node25&#45;&gt;Node26</title>
<path fill="none" stroke="#191970" d="M1405.1643,-303.3491C1422.8386,-292.9855 1449.9055,-277.1145 1470.0819,-265.2838"/>
<polygon fill="#191970" stroke="#191970" points="1471.9527,-268.2442 1478.8088,-260.1667 1468.412,-262.2057 1471.9527,-268.2442"/>
</g>
<!-- Node27 -->
<g id="node28" class="node">
<title>Node27</title>
<polygon fill="#ffffff" stroke="#bfbfbf" points="767,-.5 767,-21.5 809,-21.5 809,-.5 767,-.5"/>
<text text-anchor="middle" x="788" y="-7.9" font-family="Helvetica,sans-Serif" font-size="12.00" fill="#000000">deque</text>
</g>
<!-- Node25&#45;&gt;Node27 -->
<g id="edge27" class="edge">
<title>Node25&#45;&gt;Node27</title>
<path fill="none" stroke="#191970" d="M1332.3608,-311.7454C1225.767,-306.7838 998.3979,-293.2188 975,-267 913.1519,-197.6952 1032.8788,-130.6525 975,-58 932.31,-4.4133 890.3939,-39.0726 818.9927,-21.7999"/>
<polygon fill="#191970" stroke="#191970" points="819.7616,-18.3821 809.1944,-19.1466 817.9319,-25.1388 819.7616,-18.3821"/>
</g>
<!-- Node28 -->
<g id="node29" class="node">
<title>Node28</title>
<polygon fill="#ffffff" stroke="#bfbfbf" points="1549,-58.5 1549,-79.5 1635,-79.5 1635,-58.5 1549,-58.5"/>
<text text-anchor="middle" x="1592" y="-65.9" font-family="Helvetica,sans-Serif" font-size="12.00" fill="#000000">cereal/cereal.hpp</text>
</g>
<!-- Node25&#45;&gt;Node28 -->
<g id="edge32" class="edge">
<title>Node25&#45;&gt;Node28</title>
<path fill="none" stroke="#191970" d="M1394.4293,-303.4313C1405.651,-287.6044 1427.7666,-256.9398 1448,-232 1491.9255,-177.8572 1547.3978,-117.0222 1574.9103,-87.3139"/>
<polygon fill="#191970" stroke="#191970" points="1577.6558,-89.5009 1581.896,-79.7915 1572.5264,-84.7375 1577.6558,-89.5009"/>
</g>
<!-- Node29 -->
<g id="node30" class="node">
<title>Node29</title>
<polygon fill="#ffffff" stroke="#bfbfbf" points="1653,-58.5 1653,-79.5 1763,-79.5 1763,-58.5 1653,-58.5"/>
<text text-anchor="middle" x="1708" y="-65.9" font-family="Helvetica,sans-Serif" font-size="12.00" fill="#000000">cereal/types/deque.hpp</text>
</g>
<!-- Node25&#45;&gt;Node29 -->
<g id="edge33" class="edge">
<title>Node25&#45;&gt;Node29</title>
<path fill="none" stroke="#191970" d="M1441.6586,-311.5354C1582.2052,-304.9351 1946.4266,-286.063 1964,-267 1974.5435,-255.5628 1973.7794,-244.097 1964,-232 1915.9931,-172.6161 1859.5383,-238.3556 1796,-196 1755.8453,-169.2322 1728.6682,-117.3655 1716.0596,-88.8967"/>
<polygon fill="#191970" stroke="#191970" points="1719.2188,-87.3821 1712.0765,-79.5566 1712.7798,-90.1281 1719.2188,-87.3821"/>
</g>
<!-- Node30 -->
<g id="node31" class="node">
<title>Node30</title>
<polygon fill="#ffffff" stroke="#bfbfbf" points="1846.5,-58.5 1846.5,-79.5 1935.5,-79.5 1935.5,-58.5 1846.5,-58.5"/>
<text text-anchor="middle" x="1891" y="-65.9" font-family="Helvetica,sans-Serif" font-size="12.00" fill="#000000">cereal/access.hpp</text>
</g>
<!-- Node25&#45;&gt;Node30 -->
<g id="edge34" class="edge">
<title>Node25&#45;&gt;Node30</title>
<path fill="none" stroke="#191970" d="M1441.6986,-311.6658C1585.2191,-305.2781 1962.8237,-286.6713 1981,-267 2031.7044,-212.1251 1950.2608,-123.7913 1910.6583,-86.5036"/>
<polygon fill="#191970" stroke="#191970" points="1912.8482,-83.7619 1903.1259,-79.5514 1908.1005,-88.9058 1912.8482,-83.7619"/>
</g>
<!-- Node31 -->
<g id="node32" class="node">
<title>Node31</title>
<polygon fill="#ffffff" stroke="#bfbfbf" points="1555.5,-232.5 1555.5,-266.5 1664.5,-266.5 1664.5,-232.5 1555.5,-232.5"/>
<text text-anchor="start" x="1563.5" y="-252.9" font-family="Helvetica,sans-Serif" font-size="12.00" fill="#000000">cereal/types/unordered</text>
<text text-anchor="middle" x="1610" y="-239.9" font-family="Helvetica,sans-Serif" font-size="12.00" fill="#000000">_map.hpp</text>
</g>
<!-- Node25&#45;&gt;Node31 -->
<g id="edge35" class="edge">
<title>Node25&#45;&gt;Node31</title>
<path fill="none" stroke="#191970" d="M1423.3251,-303.4934C1456.3899,-293.9298 1505.9637,-279.5912 1545.7163,-268.0933"/>
<polygon fill="#191970" stroke="#191970" points="1546.7006,-271.4521 1555.3343,-265.3114 1544.7556,-264.7277 1546.7006,-271.4521"/>
</g>
<!-- Node32 -->
<g id="node33" class="node">
<title>Node32</title>
<polygon fill="#ffffff" stroke="#bfbfbf" points="1953.5,-58.5 1953.5,-79.5 2066.5,-79.5 2066.5,-58.5 1953.5,-58.5"/>
<text text-anchor="middle" x="2010" y="-65.9" font-family="Helvetica,sans-Serif" font-size="12.00" fill="#000000">cereal/types/chrono.hpp</text>
</g>
<!-- Node25&#45;&gt;Node32 -->
<g id="edge36" class="edge">
<title>Node25&#45;&gt;Node32</title>
<path fill="none" stroke="#191970" d="M1441.7166,-311.7759C1588.755,-305.5412 1982.6696,-287.0369 2002,-267 2048.3858,-218.9187 2029.0008,-129.8475 2016.9372,-89.642"/>
<polygon fill="#191970" stroke="#191970" points="2020.2058,-88.3692 2013.86,-79.8849 2013.5299,-90.4746 2020.2058,-88.3692"/>
</g>
<!-- Node33 -->
<g id="node34" class="node">
<title>Node33</title>
<polygon fill="#ffffff" stroke="#bfbfbf" points="1683,-239 1683,-260 1815,-260 1815,-239 1683,-239"/>
<text text-anchor="middle" x="1749" y="-246.4" font-family="Helvetica,sans-Serif" font-size="12.00" fill="#000000">cereal/archives/adapters.hpp</text>
</g>
<!-- Node25&#45;&gt;Node33 -->
<g id="edge37" class="edge">
<title>Node25&#45;&gt;Node33</title>
<path fill="none" stroke="#191970" d="M1441.6815,-306.1581C1499.5724,-297.5962 1593.5209,-282.9604 1674,-267 1681.1232,-265.5874 1688.5997,-263.9864 1695.959,-262.3407"/>
<polygon fill="#191970" stroke="#191970" points="1696.9043,-265.7151 1705.8776,-260.0822 1695.3501,-258.8898 1696.9043,-265.7151"/>
</g>
<!-- Node34 -->
<g id="node35" class="node">
<title>Node34</title>
<polygon fill="#ffffff" stroke="#bfbfbf" points="1833,-239 1833,-260 1955,-260 1955,-239 1833,-239"/>
<text text-anchor="middle" x="1894" y="-246.4" font-family="Helvetica,sans-Serif" font-size="12.00" fill="#000000">cereal/archives/binary.hpp</text>
</g>
<!-- Node25&#45;&gt;Node34 -->
<g id="edge38" class="edge">
<title>Node25&#45;&gt;Node34</title>
<path fill="none" stroke="#191970" d="M1441.5015,-310.5624C1524.5278,-304.7807 1687.4584,-291.2909 1824,-267 1831.1224,-265.7329 1838.5936,-264.147 1845.8938,-262.4504"/>
<polygon fill="#191970" stroke="#191970" points="1846.7925,-265.8342 1855.6938,-260.0881 1845.152,-259.0291 1846.7925,-265.8342"/>
</g>
<!-- Node35 -->
<g id="node36" class="node">
<title>Node35</title>
<polygon fill="#ffffff" stroke="#bfbfbf" points="1027,-239 1027,-260 1141,-260 1141,-239 1027,-239"/>
<text text-anchor="middle" x="1084" y="-246.4" font-family="Helvetica,sans-Serif" font-size="12.00" fill="#000000">cereal/archives/json.hpp</text>
</g>
<!-- Node25&#45;&gt;Node35 -->
<g id="edge39" class="edge">
<title>Node25&#45;&gt;Node35</title>
<path fill="none" stroke="#191970" d="M1332.1928,-304.1513C1284.0218,-295.2525 1212.117,-281.3793 1150,-267 1144.1552,-265.647 1138.0419,-264.145 1131.9947,-262.6058"/>
<polygon fill="#191970" stroke="#191970" points="1132.4974,-259.1206 1121.9391,-260.0001 1130.7414,-265.8968 1132.4974,-259.1206"/>
</g>
<!-- Node36 -->
<g id="node37" class="node">
<title>Node36</title>
<polygon fill="#ffffff" stroke="#bfbfbf" points="1159,-232.5 1159,-266.5 1271,-266.5 1271,-232.5 1159,-232.5"/>
<text text-anchor="start" x="1167" y="-252.9" font-family="Helvetica,sans-Serif" font-size="12.00" fill="#000000">cereal/archives/portable</text>
<text text-anchor="middle" x="1215" y="-239.9" font-family="Helvetica,sans-Serif" font-size="12.00" fill="#000000">_binary.hpp</text>
</g>
<!-- Node25&#45;&gt;Node36 -->
<g id="edge40" class="edge">
<title>Node25&#45;&gt;Node36</title>
<path fill="none" stroke="#191970" d="M1358.9824,-303.4934C1334.9316,-294.4744 1299.556,-281.2085 1269.8892,-270.0835"/>
<polygon fill="#191970" stroke="#191970" points="1271.0716,-266.7889 1260.4793,-266.5547 1268.6136,-273.3432 1271.0716,-266.7889"/>
</g>
<!-- Node37 -->
<g id="node38" class="node">
<title>Node37</title>
<polygon fill="#ffffff" stroke="#bfbfbf" points="1289.5,-239 1289.5,-260 1400.5,-260 1400.5,-239 1289.5,-239"/>
<text text-anchor="middle" x="1345" y="-246.4" font-family="Helvetica,sans-Serif" font-size="12.00" fill="#000000">cereal/archives/xml.hpp</text>
</g>
<!-- Node25&#45;&gt;Node37 -->
<g id="edge41" class="edge">
<title>Node25&#45;&gt;Node37</title>
<path fill="none" stroke="#191970" d="M1380.0646,-303.3491C1373.9609,-293.9757 1364.9235,-280.0969 1357.5525,-268.777"/>
<polygon fill="#191970" stroke="#191970" points="1360.4759,-266.8524 1352.0861,-260.3823 1354.6099,-270.6721 1360.4759,-266.8524"/>
</g>
<!-- Node38 -->
<g id="node39" class="node">
<title>Node38</title>
<g id="a_node39"><a xlink:href="../../d1/d4e/utility_8hpp.html" target="_top" xlink:title="timemory/utility.hpp">
<polygon fill="#ffffff" stroke="#ff0000" points="652,-58.5 652,-79.5 746,-79.5 746,-58.5 652,-58.5"/>
<text text-anchor="middle" x="699" y="-65.9" font-family="Helvetica,sans-Serif" font-size="12.00" fill="#000000">timemory/utility.hpp</text>
</a>
</g>
</g>
<!-- Node25&#45;&gt;Node38 -->
<g id="edge43" class="edge">
<title>Node25&#45;&gt;Node38</title>
<path fill="none" stroke="#191970" d="M1332.2554,-311.4131C1226.1152,-305.917 996.1758,-291.5314 921,-267 813.2448,-231.8373 758.7619,-235.5252 701,-138 692.4347,-123.5384 692.6542,-104.2126 694.6037,-89.6929"/>
<polygon fill="#191970" stroke="#191970" points="698.0791,-90.1335 696.3149,-79.6866 691.1792,-88.9535 698.0791,-90.1335"/>
</g>
<!-- Node25&#45;&gt;Node46 -->
<g id="edge56" class="edge">
<title>Node25&#45;&gt;Node46</title>
<path fill="none" stroke="#191970" d="M1441.5114,-311.978C1587.0337,-306.3379 1982.3257,-289.3666 2111,-267 2117.2686,-265.9104 2123.8132,-264.4218 2130.1903,-262.7697"/>
<polygon fill="#191970" stroke="#191970" points="2131.2938,-266.0963 2140.0098,-260.0728 2129.4399,-259.3463 2131.2938,-266.0963"/>
</g>
<!-- Node25&#45;&gt;Node62 -->
<g id="edge95" class="edge">
<title>Node25&#45;&gt;Node62</title>
<path fill="none" stroke="#191970" d="M1332.3891,-311.9018C1220.6327,-307.0797 974.0434,-293.5296 947,-267 898.8448,-219.7598 909.4763,-129.8507 917.3297,-89.4985"/>
<polygon fill="#191970" stroke="#191970" points="920.7979,-90.0127 919.42,-79.5078 913.9462,-88.5791 920.7979,-90.0127"/>
</g>
<!-- Node38&#45;&gt;Node3 -->
<g id="edge49" class="edge">
<title>Node38&#45;&gt;Node3</title>
<path fill="none" stroke="#191970" d="M651.7657,-61.7715C575.702,-50.1312 427.5724,-27.4623 357.9199,-16.8031"/>
<polygon fill="#191970" stroke="#191970" points="358.2484,-13.3126 347.834,-15.2595 357.1894,-20.2321 358.2484,-13.3126"/>
</g>
<!-- Node38&#45;&gt;Node4 -->
<g id="edge53" class="edge">
<title>Node38&#45;&gt;Node4</title>
<path fill="none" stroke="#191970" d="M651.8985,-66.602C564.9061,-61.6937 373.3659,-48.6454 214,-22 209.0951,-21.1799 203.9365,-20.1322 198.9187,-19.0105"/>
<polygon fill="#191970" stroke="#191970" points="199.4801,-15.5468 188.9432,-16.6533 197.8703,-22.3592 199.4801,-15.5468"/>
</g>
<!-- Node38&#45;&gt;Node5 -->
<g id="edge54" class="edge">
<title>Node38&#45;&gt;Node5</title>
<path fill="none" stroke="#191970" d="M651.8301,-66.1747C574.2945,-60.9724 415.303,-47.9534 283,-22 280.463,-21.5023 277.8507,-20.9208 275.2369,-20.2899"/>
<polygon fill="#191970" stroke="#191970" points="275.8664,-16.8366 265.3055,-17.6837 274.0896,-23.6074 275.8664,-16.8366"/>
</g>
<!-- Node38&#45;&gt;Node6 -->
<g id="edge52" class="edge">
<title>Node38&#45;&gt;Node6</title>
<path fill="none" stroke="#191970" d="M746.2397,-65.47C780.3378,-63.0376 827.4902,-59.9109 869,-58 1452.6011,-31.1336 1599.5981,-52.891 2183,-22 2220.132,-20.0339 2262.7111,-16.5062 2291.0674,-13.9754"/>
<polygon fill="#191970" stroke="#191970" points="2291.5536,-17.4458 2301.1979,-13.0596 2290.9233,-10.4742 2291.5536,-17.4458"/>
</g>
<!-- Node38&#45;&gt;Node7 -->
<g id="edge47" class="edge">
<title>Node38&#45;&gt;Node7</title>
<path fill="none" stroke="#191970" d="M701.0176,-58.3619C702.4441,-50.8401 704.4016,-40.5187 706.1252,-31.4308"/>
<polygon fill="#191970" stroke="#191970" points="709.5705,-32.0477 707.9952,-21.5707 702.6931,-30.7433 709.5705,-32.0477"/>
</g>
<!-- Node38&#45;&gt;Node8 -->
<g id="edge44" class="edge">
<title>Node38&#45;&gt;Node8</title>
<path fill="none" stroke="#191970" d="M685.0604,-58.3619C673.8116,-49.7773 657.7842,-37.5459 644.835,-27.6636"/>
<polygon fill="#191970" stroke="#191970" points="646.9241,-24.8551 636.8512,-21.5707 642.6774,-30.4198 646.9241,-24.8551"/>
</g>
<!-- Node38&#45;&gt;Node9 -->
<g id="edge46" class="edge">
<title>Node38&#45;&gt;Node9</title>
<path fill="none" stroke="#191970" d="M671.655,-58.4966C646.525,-48.8441 609.1791,-34.4993 582.1084,-24.1013"/>
<polygon fill="#191970" stroke="#191970" points="583.2316,-20.7834 572.6416,-20.465 580.7216,-27.318 583.2316,-20.7834"/>
</g>
<!-- Node38&#45;&gt;Node11 -->
<g id="edge45" class="edge">
<title>Node38&#45;&gt;Node11</title>
<path fill="none" stroke="#191970" d="M746.3471,-64.1049C858.6587,-52.4934 1138.6413,-23.5469 1230.3796,-14.0624"/>
<polygon fill="#191970" stroke="#191970" points="1230.782,-17.5395 1240.3691,-13.0296 1230.0621,-10.5766 1230.782,-17.5395"/>
</g>
<!-- Node38&#45;&gt;Node12 -->
<g id="edge51" class="edge">
<title>Node38&#45;&gt;Node12</title>
<path fill="none" stroke="#191970" d="M657.0973,-58.4479C619.5863,-48.9796 563.0943,-34.6651 514,-22 510.3552,-21.0597 506.5343,-20.0677 502.7445,-19.08"/>
<polygon fill="#191970" stroke="#191970" points="503.4884,-15.6569 492.9282,-16.5136 501.7177,-22.4292 503.4884,-15.6569"/>
</g>
<!-- Node38&#45;&gt;Node24 -->
<g id="edge55" class="edge">
<title>Node38&#45;&gt;Node24</title>
<path fill="none" stroke="#191970" d="M746.2461,-65.6011C780.3472,-63.2313 827.5007,-60.1256 869,-58 1316.0302,-35.1035 1853.8881,-18.512 2043.6124,-12.9939"/>
<polygon fill="#191970" stroke="#191970" points="2043.8339,-16.4891 2053.7283,-12.7006 2043.631,-9.492 2043.8339,-16.4891"/>
</g>
<!-- Node38&#45;&gt;Node27 -->
<g id="edge50" class="edge">
<title>Node38&#45;&gt;Node27</title>
<path fill="none" stroke="#191970" d="M715.324,-58.3619C728.7478,-49.6138 747.9829,-37.0786 763.2926,-27.1015"/>
<polygon fill="#191970" stroke="#191970" points="765.3125,-29.9628 771.7795,-21.5707 761.4906,-24.0982 765.3125,-29.9628"/>
</g>
<!-- Node42 -->
<g id="node40" class="node">
<title>Node42</title>
<polygon fill="#ffffff" stroke="#bfbfbf" points="827,-.5 827,-21.5 875,-21.5 875,-.5 827,-.5"/>
<text text-anchor="middle" x="851" y="-7.9" font-family="Helvetica,sans-Serif" font-size="12.00" fill="#000000">iomanip</text>
</g>
<!-- Node38&#45;&gt;Node42 -->
<g id="edge48" class="edge">
<title>Node38&#45;&gt;Node42</title>
<path fill="none" stroke="#191970" d="M726.5261,-58.4966C751.9749,-48.7859 789.8691,-34.3263 817.157,-23.9138"/>
<polygon fill="#191970" stroke="#191970" points="818.5927,-27.1121 826.6879,-20.277 816.0972,-20.5721 818.5927,-27.1121"/>
</g>
<!-- Node46&#45;&gt;Node24 -->
<g id="edge57" class="edge">
<title>Node46&#45;&gt;Node24</title>
<path fill="none" stroke="#191970" d="M2172.3594,-238.6824C2172.985,-208.7932 2172.2828,-122.9953 2147,-58 2143.0297,-47.7934 2136.391,-37.6926 2130.1047,-29.4859"/>
<polygon fill="#191970" stroke="#191970" points="2132.8157,-27.2721 2123.808,-21.6943 2127.3713,-31.672 2132.8157,-27.2721"/>
</g>
<!-- Node47 -->
<g id="node42" class="node">
<title>Node47</title>
<g id="a_node42"><a xlink:href="../../d6/d01/base__timer_8hpp.html" target="_top" xlink:title="timemory/base_timer.hpp">
<polygon fill="#ffffff" stroke="#ff0000" points="1805,-174.5 1805,-195.5 1923,-195.5 1923,-174.5 1805,-174.5"/>
<text text-anchor="middle" x="1864" y="-181.9" font-family="Helvetica,sans-Serif" font-size="12.00" fill="#000000">timemory/base_timer.hpp</text>
</a>
</g>
</g>
<!-- Node46&#45;&gt;Node47 -->
<g id="edge58" class="edge">
<title>Node46&#45;&gt;Node47</title>
<path fill="none" stroke="#191970" d="M2124.8862,-239.6336C2071.0428,-228.358 1982.8014,-209.8789 1924.0633,-197.5782"/>
<polygon fill="#191970" stroke="#191970" points="1924.6828,-194.1321 1914.1777,-195.508 1923.248,-200.9835 1924.6828,-194.1321"/>
</g>
<!-- Node47&#45;&gt;Node6 -->
<g id="edge90" class="edge">
<title>Node47&#45;&gt;Node6</title>
<path fill="none" stroke="#191970" d="M1904.5256,-174.4934C1937.1218,-165.709 1983.9302,-152.3405 2024,-138 2123.7274,-102.3086 2238.0557,-50.6322 2291.886,-25.6349"/>
<polygon fill="#191970" stroke="#191970" points="2293.63,-28.6836 2301.2162,-21.2877 2290.6736,-22.3386 2293.63,-28.6836"/>
</g>
<!-- Node47&#45;&gt;Node11 -->
<g id="edge89" class="edge">
<title>Node47&#45;&gt;Node11</title>
<path fill="none" stroke="#191970" d="M1804.7424,-182.5509C1676.5443,-176.8391 1381.8285,-161.3251 1343,-138 1302.178,-113.4773 1277.618,-60.2483 1266.7112,-31.0912"/>
<polygon fill="#191970" stroke="#191970" points="1269.9599,-29.7806 1263.3058,-21.5359 1263.3661,-32.1306 1269.9599,-29.7806"/>
</g>
<!-- Node47&#45;&gt;Node24 -->
<g id="edge59" class="edge">
<title>Node47&#45;&gt;Node24</title>
<path fill="none" stroke="#191970" d="M1900.6158,-174.4128C1946.3576,-159.6371 2024.8229,-128.9963 2076,-80 2090.2865,-66.3222 2100.559,-46.0768 2106.7931,-31.0497"/>
<polygon fill="#191970" stroke="#191970" points="2110.096,-32.2134 2110.4636,-21.625 2103.5732,-29.6731 2110.096,-32.2134"/>
</g>
<!-- Node47&#45;&gt;Node28 -->
<g id="edge91" class="edge">
<title>Node47&#45;&gt;Node28</title>
<path fill="none" stroke="#191970" d="M1838.8984,-174.2949C1789.8922,-153.3952 1681.4425,-107.1446 1626.031,-83.5132"/>
<polygon fill="#191970" stroke="#191970" points="1627.2195,-80.2151 1616.648,-79.5117 1624.4734,-86.654 1627.2195,-80.2151"/>
</g>
<!-- Node47&#45;&gt;Node29 -->
<g id="edge94" class="edge">
<title>Node47&#45;&gt;Node29</title>
<path fill="none" stroke="#191970" d="M1854.3014,-174.3394C1840.9334,-160.0113 1815.6873,-134.2369 1791,-116 1774.744,-103.9914 1755.1232,-92.7504 1739.0406,-84.2746"/>
<polygon fill="#191970" stroke="#191970" points="1740.5232,-81.101 1730.0325,-79.6187 1737.3091,-87.3195 1740.5232,-81.101"/>
</g>
<!-- Node47&#45;&gt;Node30 -->
<g id="edge92" class="edge">
<title>Node47&#45;&gt;Node30</title>
<path fill="none" stroke="#191970" d="M1866.4917,-174.2949C1870.9723,-155.0451 1880.4586,-114.2889 1886.2263,-89.5091"/>
<polygon fill="#191970" stroke="#191970" points="1889.6561,-90.2123 1888.5143,-79.6792 1882.8384,-88.6254 1889.6561,-90.2123"/>
</g>
<!-- Node47&#45;&gt;Node32 -->
<g id="edge93" class="edge">
<title>Node47&#45;&gt;Node32</title>
<path fill="none" stroke="#191970" d="M1877.4736,-174.2949C1902.897,-154.0955 1958.125,-110.2158 1988.6498,-85.9632"/>
<polygon fill="#191970" stroke="#191970" points="1990.9066,-88.6404 1996.5589,-79.6792 1986.5521,-83.1596 1990.9066,-88.6404"/>
</g>
<!-- Node47&#45;&gt;Node38 -->
<g id="edge74" class="edge">
<title>Node47&#45;&gt;Node38</title>
<path fill="none" stroke="#191970" d="M1804.9943,-184.4756C1576.7218,-182.204 762.0588,-171.7539 719,-138 704.7035,-126.7929 700.2008,-106.0034 698.9755,-90.1627"/>
<polygon fill="#191970" stroke="#191970" points="702.4551,-89.5672 698.5693,-79.7107 695.4603,-89.8391 702.4551,-89.5672"/>
</g>
<!-- Node47&#45;&gt;Node53 -->
<g id="edge60" class="edge">
<title>Node47&#45;&gt;Node53</title>
<path fill="none" stroke="#191970" d="M1804.6008,-177.6543C1712.4877,-166.2629 1536.6291,-144.5149 1448.3471,-133.5973"/>
<polygon fill="#191970" stroke="#191970" points="1448.6374,-130.1066 1438.2834,-132.3527 1447.7782,-137.0537 1448.6374,-130.1066"/>
</g>
<!-- Node55 -->
<g id="node45" class="node">
<title>Node55</title>
<polygon fill="#ffffff" stroke="#bfbfbf" points="1781.5,-58.5 1781.5,-79.5 1828.5,-79.5 1828.5,-58.5 1781.5,-58.5"/>
<text text-anchor="middle" x="1805" y="-65.9" font-family="Helvetica,sans-Serif" font-size="12.00" fill="#000000">fstream</text>
</g>
<!-- Node47&#45;&gt;Node55 -->
<g id="edge88" class="edge">
<title>Node47&#45;&gt;Node55</title>
<path fill="none" stroke="#191970" d="M1858.5528,-174.2389C1851.6765,-160.6599 1839.4791,-136.5901 1829,-116 1824.4599,-107.0794 1819.4239,-97.2129 1815.1422,-88.8325"/>
<polygon fill="#191970" stroke="#191970" points="1818.2049,-87.1343 1810.5371,-79.823 1811.9719,-90.3203 1818.2049,-87.1343"/>
</g>
<!-- Node47&#45;&gt;Node60 -->
<g id="edge75" class="edge">
<title>Node47&#45;&gt;Node60</title>
<path fill="none" stroke="#191970" d="M1804.7864,-181.7782C1624.6367,-171.9765 1082.9958,-142.5063 877.8901,-131.3467"/>
<polygon fill="#191970" stroke="#191970" points="877.9689,-127.8459 867.7935,-130.7974 877.5886,-134.8356 877.9689,-127.8459"/>
</g>
<!-- Node53&#45;&gt;Node7 -->
<g id="edge62" class="edge">
<title>Node53&#45;&gt;Node7</title>
<path fill="none" stroke="#191970" d="M1351.7089,-124.2818C1296.8355,-119.7774 1199.9978,-108.2632 1122,-80 1103.6523,-73.3515 1102.5404,-64.0904 1084,-58 945.5111,-12.5071 901.7264,-46.3211 758,-22 753.9894,-21.3213 749.8116,-20.515 745.6672,-19.6518"/>
<polygon fill="#191970" stroke="#191970" points="746.0667,-16.1562 735.5487,-17.4297 744.5652,-22.9933 746.0667,-16.1562"/>
</g>
<!-- Node53&#45;&gt;Node8 -->
<g id="edge67" class="edge">
<title>Node53&#45;&gt;Node8</title>
<path fill="none" stroke="#191970" d="M1351.8772,-121.1662C1291.7346,-112.8744 1179.3182,-96.8113 1084,-80 1035.3298,-71.416 1023.7956,-65.8393 975,-58 842.4103,-36.6988 807.4892,-43.9179 675,-22 668.4282,-20.9128 661.4279,-19.5641 654.7634,-18.1878"/>
<polygon fill="#191970" stroke="#191970" points="655.1869,-14.6995 644.6767,-16.036 653.7263,-21.5454 655.1869,-14.6995"/>
</g>
<!-- Node53&#45;&gt;Node11 -->
<g id="edge64" class="edge">
<title>Node53&#45;&gt;Node11</title>
<path fill="none" stroke="#191970" d="M1390.2626,-116.4519C1383.2418,-101.7853 1368.8491,-75.1103 1350,-58 1332.2169,-41.8573 1307.8692,-29.5843 1288.9819,-21.6346"/>
<polygon fill="#191970" stroke="#191970" points="1290.2497,-18.3719 1279.6666,-17.8738 1287.6291,-24.8629 1290.2497,-18.3719"/>
</g>
<!-- Node53&#45;&gt;Node24 -->
<g id="edge73" class="edge">
<title>Node53&#45;&gt;Node24</title>
<path fill="none" stroke="#191970" d="M1421.3213,-116.3975C1443.2138,-107.3519 1475.0376,-93.6735 1502,-80 1519.4049,-71.1734 1521.3753,-63.8276 1540,-58 1632.0951,-29.1836 1911.6355,-17.1022 2043.5988,-12.9019"/>
<polygon fill="#191970" stroke="#191970" points="2044.1026,-16.388 2053.9886,-12.5778 2043.8843,-9.3914 2044.1026,-16.388"/>
</g>
<!-- Node53&#45;&gt;Node28 -->
<g id="edge69" class="edge">
<title>Node53&#45;&gt;Node28</title>
<path fill="none" stroke="#191970" d="M1430.6752,-116.4966C1463.0696,-106.9592 1511.0234,-92.8408 1546.2313,-82.475"/>
<polygon fill="#191970" stroke="#191970" points="1547.6535,-85.7049 1556.2579,-79.5231 1545.6765,-78.9899 1547.6535,-85.7049"/>
</g>
<!-- Node53&#45;&gt;Node29 -->
<g id="edge72" class="edge">
<title>Node53&#45;&gt;Node29</title>
<path fill="none" stroke="#191970" d="M1438.1927,-118.9962C1491.1724,-109.1789 1581.4918,-92.4424 1642.9025,-81.0628"/>
<polygon fill="#191970" stroke="#191970" points="1643.6836,-84.4777 1652.8785,-79.2142 1642.4082,-77.5949 1643.6836,-84.4777"/>
</g>
<!-- Node53&#45;&gt;Node30 -->
<g id="edge70" class="edge">
<title>Node53&#45;&gt;Node30</title>
<path fill="none" stroke="#191970" d="M1438.2607,-123.8401C1516.0374,-117.8488 1684.7897,-103.4373 1836.2848,-80.161"/>
<polygon fill="#191970" stroke="#191970" points="1836.8932,-83.6086 1846.2375,-78.615 1835.8187,-76.6915 1836.8932,-83.6086"/>
</g>
<!-- Node53&#45;&gt;Node32 -->
<g id="edge71" class="edge">
<title>Node53&#45;&gt;Node32</title>
<path fill="none" stroke="#191970" d="M1438.2681,-124.5193C1529.6738,-119.0163 1749.3241,-104.4097 1943.2304,-80.1488"/>
<polygon fill="#191970" stroke="#191970" points="1943.8379,-83.6 1953.3206,-78.8746 1942.9608,-76.6552 1943.8379,-83.6"/>
</g>
<!-- Node53&#45;&gt;Node42 -->
<g id="edge65" class="edge">
<title>Node53&#45;&gt;Node42</title>
<path fill="none" stroke="#191970" d="M1351.8241,-117.8962C1310.7712,-109.018 1247.3894,-94.7336 1193,-80 1161.1135,-71.3623 1154.1192,-65.7275 1122,-58 1037.7382,-37.7277 936.7398,-22.5763 885.0893,-15.4743"/>
<polygon fill="#191970" stroke="#191970" points="885.5187,-12.0006 875.1384,-14.122 884.576,-18.9368 885.5187,-12.0006"/>
</g>
<!-- Node54 -->
<g id="node44" class="node">
<title>Node54</title>
<polygon fill="#ffffff" stroke="#bfbfbf" points="1402.5,-58.5 1402.5,-79.5 1431.5,-79.5 1431.5,-58.5 1402.5,-58.5"/>
<text text-anchor="middle" x="1417" y="-65.9" font-family="Helvetica,sans-Serif" font-size="12.00" fill="#000000">ios</text>
</g>
<!-- Node53&#45;&gt;Node54 -->
<g id="edge61" class="edge">
<title>Node53&#45;&gt;Node54</title>
<path fill="none" stroke="#191970" d="M1399.0351,-116.3619C1401.9192,-108.7584 1405.8885,-98.294 1409.3626,-89.1349"/>
<polygon fill="#191970" stroke="#191970" points="1412.7163,-90.1619 1412.9904,-79.5707 1406.1713,-87.6793 1412.7163,-90.1619"/>
</g>
<!-- Node53&#45;&gt;Node55 -->
<g id="edge63" class="edge">
<title>Node53&#45;&gt;Node55</title>
<path fill="none" stroke="#191970" d="M1438.1636,-124.4036C1506.9281,-119.6638 1645.5643,-107.6407 1771.5469,-79.7155"/>
<polygon fill="#191970" stroke="#191970" points="1772.3813,-83.1153 1781.366,-77.5004 1770.8409,-76.2869 1772.3813,-83.1153"/>
</g>
<!-- Node56 -->
<g id="node46" class="node">
<title>Node56</title>
<polygon fill="#ffffff" stroke="#bfbfbf" points="1449.5,-58.5 1449.5,-79.5 1492.5,-79.5 1492.5,-58.5 1449.5,-58.5"/>
<text text-anchor="middle" x="1471" y="-65.9" font-family="Helvetica,sans-Serif" font-size="12.00" fill="#000000">stdio.h</text>
</g>
<!-- Node53&#45;&gt;Node56 -->
<g id="edge66" class="edge">
<title>Node53&#45;&gt;Node56</title>
<path fill="none" stroke="#191970" d="M1408.9396,-116.3619C1420.1884,-107.7773 1436.2158,-95.5459 1449.165,-85.6636"/>
<polygon fill="#191970" stroke="#191970" points="1451.3226,-88.4198 1457.1488,-79.5707 1447.0759,-82.8551 1451.3226,-88.4198"/>
</g>
<!-- Node57 -->
<g id="node47" class="node">
<title>Node57</title>
<polygon fill="#ffffff" stroke="#bfbfbf" points="1031,-.5 1031,-21.5 1085,-21.5 1085,-.5 1031,-.5"/>
<text text-anchor="middle" x="1058" y="-7.9" font-family="Helvetica,sans-Serif" font-size="12.00" fill="#000000">algorithm</text>
</g>
<!-- Node53&#45;&gt;Node57 -->
<g id="edge68" class="edge">
<title>Node53&#45;&gt;Node57</title>
<path fill="none" stroke="#191970" d="M1364.2001,-116.3983C1302.0705,-95.0124 1161.9606,-46.7846 1094.9967,-23.7348"/>
<polygon fill="#191970" stroke="#191970" points="1095.8773,-20.3364 1085.2827,-20.3911 1093.599,-26.9553 1095.8773,-20.3364"/>
</g>
<!-- Node60&#45;&gt;Node3 -->
<g id="edge80" class="edge">
<title>Node60&#45;&gt;Node3</title>
<path fill="none" stroke="#191970" d="M733.3923,-116.4811C683.5532,-107.9274 613.0449,-94.8696 552,-80 482.5388,-63.0803 402.9358,-38.1745 357.3499,-23.3703"/>
<polygon fill="#191970" stroke="#191970" points="358.2021,-19.9669 347.6097,-20.1926 356.0309,-26.6217 358.2021,-19.9669"/>
</g>
<!-- Node60&#45;&gt;Node7 -->
<g id="edge76" class="edge">
<title>Node60&#45;&gt;Node7</title>
<path fill="none" stroke="#191970" d="M792.2287,-116.2668C784.5175,-102.3012 770.0674,-77.395 755,-58 747.0408,-47.7548 737.1665,-37.243 728.6971,-28.7657"/>
<polygon fill="#191970" stroke="#191970" points="730.9996,-26.1215 721.4094,-21.6184 726.0982,-31.1192 730.9996,-26.1215"/>
</g>
<!-- Node60&#45;&gt;Node9 -->
<g id="edge78" class="edge">
<title>Node60&#45;&gt;Node9</title>
<path fill="none" stroke="#191970" d="M748.5839,-116.4917C717.3232,-108.7726 676.616,-96.7091 643,-80 614.6654,-65.916 585.7642,-43.5429 567.4012,-28.1111"/>
<polygon fill="#191970" stroke="#191970" points="569.6202,-25.4035 559.7455,-21.564 565.0706,-30.7234 569.6202,-25.4035"/>
</g>
<!-- Node60&#45;&gt;Node11 -->
<g id="edge77" class="edge">
<title>Node60&#45;&gt;Node11</title>
<path fill="none" stroke="#191970" d="M840.2242,-116.3983C932.7454,-93.1678 1151.4084,-38.2654 1230.6641,-18.3657"/>
<polygon fill="#191970" stroke="#191970" points="1231.6256,-21.733 1240.4722,-15.9031 1229.9209,-14.9437 1231.6256,-21.733"/>
</g>
<!-- Node60&#45;&gt;Node12 -->
<g id="edge82" class="edge">
<title>Node60&#45;&gt;Node12</title>
<path fill="none" stroke="#191970" d="M738.298,-116.462C699.3454,-108.6364 647.7904,-96.4666 604,-80 565.4134,-65.4902 523.6952,-42.2934 497.71,-26.8561"/>
<polygon fill="#191970" stroke="#191970" points="499.2571,-23.7025 488.8832,-21.5503 495.6507,-29.702 499.2571,-23.7025"/>
</g>
<!-- Node60&#45;&gt;Node24 -->
<g id="edge83" class="edge">
<title>Node60&#45;&gt;Node24</title>
<path fill="none" stroke="#191970" d="M867.6178,-117.794C978.7349,-103.3591 1203.119,-75.2685 1394,-58 1631.7718,-36.4894 1914.5753,-20.9572 2043.5719,-14.4243"/>
<polygon fill="#191970" stroke="#191970" points="2043.8986,-17.9124 2053.7098,-13.9134 2043.5462,-10.9212 2043.8986,-17.9124"/>
</g>
<!-- Node60&#45;&gt;Node27 -->
<g id="edge81" class="edge">
<title>Node60&#45;&gt;Node27</title>
<path fill="none" stroke="#191970" d="M797.0771,-116.2949C795.4251,-97.1314 791.9357,-56.654 789.7968,-31.8434"/>
<polygon fill="#191970" stroke="#191970" points="793.2667,-31.3416 788.9206,-21.6792 786.2925,-31.9429 793.2667,-31.3416"/>
</g>
<!-- Node60&#45;&gt;Node38 -->
<g id="edge84" class="edge">
<title>Node60&#45;&gt;Node38</title>
<path fill="none" stroke="#191970" d="M779.8419,-116.3619C764.7701,-107.532 743.1129,-94.844 726.0072,-84.8224"/>
<polygon fill="#191970" stroke="#191970" points="727.4406,-81.6058 717.043,-79.5707 723.9021,-87.6456 727.4406,-81.6058"/>
</g>
<!-- Node60&#45;&gt;Node42 -->
<g id="edge79" class="edge">
<title>Node60&#45;&gt;Node42</title>
<path fill="none" stroke="#191970" d="M802.8911,-116.2949C811.7652,-96.8724 830.6425,-55.5561 841.9323,-30.8462"/>
<polygon fill="#191970" stroke="#191970" points="845.1484,-32.2293 846.1207,-21.6792 838.7814,-29.3203 845.1484,-32.2293"/>
</g>
<!-- Node60&#45;&gt;Node62 -->
<g id="edge85" class="edge">
<title>Node60&#45;&gt;Node62</title>
<path fill="none" stroke="#191970" d="M820.4555,-116.4966C839.9099,-107.397 868.2797,-94.1273 890.0907,-83.9253"/>
<polygon fill="#191970" stroke="#191970" points="891.7174,-87.0285 899.2926,-79.6212 888.7515,-80.6878 891.7174,-87.0285"/>
</g>
<!-- Node62&#45;&gt;Node8 -->
<g id="edge86" class="edge">
<title>Node62&#45;&gt;Node8</title>
<path fill="none" stroke="#191970" d="M877.7745,-60.8663C828.3093,-51.7033 745.828,-36.2286 675,-22 668.4693,-20.6881 661.487,-19.2414 654.827,-17.8402"/>
<polygon fill="#191970" stroke="#191970" points="655.2463,-14.3514 644.7379,-15.7018 653.7948,-21.1993 655.2463,-14.3514"/>
</g>
<!-- Node62&#45;&gt;Node57 -->
<g id="edge87" class="edge">
<title>Node62&#45;&gt;Node57</title>
<path fill="none" stroke="#191970" d="M946.6286,-58.4966C968.1571,-49.3154 999.6398,-35.8889 1023.6446,-25.6516"/>
<polygon fill="#191970" stroke="#191970" points="1025.2697,-28.7636 1033.0951,-21.6212 1022.5236,-22.3247 1025.2697,-28.7636"/>
</g>
<!-- Node63&#45;&gt;Node8 -->
<g id="edge103" class="edge">
<title>Node63&#45;&gt;Node8</title>
<path fill="none" stroke="#191970" d="M787.8621,-361.3432C778.5526,-352.1559 765.1995,-338.3068 755,-325 680.7574,-228.1389 663.3667,-197.6708 631,-80 626.7023,-64.3755 624.7122,-46.1426 623.7912,-32.3445"/>
<polygon fill="#191970" stroke="#191970" points="627.2649,-31.7531 623.2419,-21.9518 620.2747,-32.1227 627.2649,-31.7531"/>
</g>
<!-- Node63&#45;&gt;Node11 -->
<g id="edge102" class="edge">
<title>Node63&#45;&gt;Node11</title>
<path fill="none" stroke="#191970" d="M802.9094,-361.4243C812.2389,-337.0293 837.5449,-275.5746 871,-232 967.4796,-106.3373 1157.1615,-40.6247 1230.2806,-19.1039"/>
<polygon fill="#191970" stroke="#191970" points="1231.5573,-22.3786 1240.1979,-16.2475 1229.6198,-15.652 1231.5573,-22.3786"/>
</g>
<!-- Node63&#45;&gt;Node24 -->
<g id="edge99" class="edge">
<title>Node63&#45;&gt;Node24</title>
<path fill="none" stroke="#191970" d="M857.3007,-369.9138C1119.712,-360.2476 2180.5639,-318.109 2228,-267 2269.8649,-221.8935 2295.0577,-256.135 2164,-58 2156.5781,-46.7795 2145.9753,-36.3129 2136.4419,-28.1184"/>
<polygon fill="#191970" stroke="#191970" points="2138.3923,-25.1907 2128.4462,-21.5401 2133.9449,-30.5964 2138.3923,-25.1907"/>
</g>
<!-- Node63&#45;&gt;Node25 -->
<g id="edge101" class="edge">
<title>Node63&#45;&gt;Node25</title>
<path fill="none" stroke="#191970" d="M857.2589,-366.2534C967.65,-355.3645 1206.5532,-331.7992 1321.9763,-320.4139"/>
<polygon fill="#191970" stroke="#191970" points="1322.4746,-323.8818 1332.0827,-319.417 1321.7874,-316.9156 1322.4746,-323.8818"/>
</g>
<!-- Node63&#45;&gt;Node38 -->
<g id="edge100" class="edge">
<title>Node63&#45;&gt;Node38</title>
<path fill="none" stroke="#191970" d="M792.0393,-361.3984C771.4885,-329.3824 711.2528,-230.2102 691,-138 687.4889,-122.0142 689.9491,-103.585 693.0361,-89.7961"/>
<polygon fill="#191970" stroke="#191970" points="696.4882,-90.4206 695.544,-79.8679 689.7014,-88.7061 696.4882,-90.4206"/>
</g>
</g>
</svg>
