<?xml version="1.0" encoding="UTF-8" standalone="no"?>
<!DOCTYPE svg PUBLIC "-//W3C//DTD SVG 1.1//EN"
 "http://www.w3.org/Graphics/SVG/1.1/DTD/svg11.dtd">
<!-- Generated by graphviz version 2.40.1 (20161225.0304)
 -->
<!-- Title: timemory.cc Pages: 1 -->
<svg width="2416pt" height="449pt"
 viewBox="0.00 0.00 2416.00 449.00" xmlns="http://www.w3.org/2000/svg" xmlns:xlink="http://www.w3.org/1999/xlink">
<g id="graph0" class="graph" transform="scale(1 1) rotate(0) translate(4 445)">
<title>timemory.cc</title>
<polygon fill="#ffffff" stroke="transparent" points="-4,4 -4,-445 2412,-445 2412,4 -4,4"/>
<!-- Node0 -->
<g id="node1" class="node">
<title>Node0</title>
<polygon fill="#bfbfbf" stroke="#000000" points="1070.5,-419.5 1070.5,-440.5 1135.5,-440.5 1135.5,-419.5 1070.5,-419.5"/>
<text text-anchor="middle" x="1103" y="-426.9" font-family="Helvetica,sans-Serif" font-size="12.00" fill="#000000">timemory.cc</text>
</g>
<!-- Node1 -->
<g id="node2" class="node">
<title>Node1</title>
<polygon fill="#ffffff" stroke="#bfbfbf" points="0,-361.5 0,-382.5 40,-382.5 40,-361.5 0,-361.5"/>
<text text-anchor="middle" x="20" y="-368.9" font-family="Helvetica,sans-Serif" font-size="12.00" fill="#000000">future</text>
</g>
<!-- Node0&#45;&gt;Node1 -->
<g id="edge1" class="edge">
<title>Node0&#45;&gt;Node1</title>
<path fill="none" stroke="#191970" d="M1070.2376,-429.158C907.6753,-424.8992 190.2352,-405.13 50.1268,-382.3889"/>
<polygon fill="#191970" stroke="#191970" points="50.5044,-378.8998 40.0366,-380.535 49.2394,-385.7845 50.5044,-378.8998"/>
</g>
<!-- Node2 -->
<g id="node3" class="node">
<title>Node2</title>
<polygon fill="#ffffff" stroke="#bfbfbf" points="58,-361.5 58,-382.5 102,-382.5 102,-361.5 58,-361.5"/>
<text text-anchor="middle" x="80" y="-368.9" font-family="Helvetica,sans-Serif" font-size="12.00" fill="#000000">chrono</text>
</g>
<!-- Node0&#45;&gt;Node2 -->
<g id="edge2" class="edge">
<title>Node0&#45;&gt;Node2</title>
<path fill="none" stroke="#191970" d="M1070.4638,-429.5379C921.738,-427.2589 305.7195,-415.97 116,-383 114.7324,-382.7797 113.4468,-382.5282 112.1535,-382.2517"/>
<polygon fill="#191970" stroke="#191970" points="112.8128,-378.8081 102.2592,-379.742 111.0917,-385.5933 112.8128,-378.8081"/>
</g>
<!-- Node3 -->
<g id="node4" class="node">
<title>Node3</title>
<polygon fill="#ffffff" stroke="#bfbfbf" points="446.5,-.5 446.5,-21.5 501.5,-21.5 501.5,-.5 446.5,-.5"/>
<text text-anchor="middle" x="474" y="-7.9" font-family="Helvetica,sans-Serif" font-size="12.00" fill="#000000">functional</text>
</g>
<!-- Node0&#45;&gt;Node3 -->
<g id="edge3" class="edge">
<title>Node0&#45;&gt;Node3</title>
<path fill="none" stroke="#191970" d="M1070.1621,-429.5922C924.8156,-427.5933 343.3184,-417.4872 270,-383 232.1507,-365.1966 206,-355.8274 206,-314 206,-314 206,-314 206,-127 206,-89.1282 224.281,-78.6924 256,-58 285.3211,-38.872 382.0057,-23.3143 436.2471,-15.8281"/>
<polygon fill="#191970" stroke="#191970" points="436.7369,-19.2939 446.1762,-14.4825 435.7967,-12.3573 436.7369,-19.2939"/>
</g>
<!-- Node4 -->
<g id="node5" class="node">
<title>Node4</title>
<polygon fill="#ffffff" stroke="#bfbfbf" points="558.5,-239 558.5,-260 599.5,-260 599.5,-239 558.5,-239"/>
<text text-anchor="middle" x="579" y="-246.4" font-family="Helvetica,sans-Serif" font-size="12.00" fill="#000000">mutex</text>
</g>
<!-- Node0&#45;&gt;Node4 -->
<g id="edge4" class="edge">
<title>Node0&#45;&gt;Node4</title>
<path fill="none" stroke="#191970" d="M1070.3044,-426.7909C972.6805,-416.6348 685.6473,-382.4304 614,-325 596.9848,-311.3611 587.8669,-287.5593 583.2488,-270.3199"/>
<polygon fill="#191970" stroke="#191970" points="586.5407,-269.0331 580.8261,-260.1116 579.7299,-270.6496 586.5407,-269.0331"/>
</g>
<!-- Node5 -->
<g id="node6" class="node">
<title>Node5</title>
<polygon fill="#ffffff" stroke="#bfbfbf" points="656,-239 656,-260 698,-260 698,-239 656,-239"/>
<text text-anchor="middle" x="677" y="-246.4" font-family="Helvetica,sans-Serif" font-size="12.00" fill="#000000">thread</text>
</g>
<!-- Node0&#45;&gt;Node5 -->
<g id="edge5" class="edge">
<title>Node0&#45;&gt;Node5</title>
<path fill="none" stroke="#191970" d="M1070.3038,-423.2926C1035.1887,-415.5792 978.0896,-401.5535 931,-383 843.8083,-348.6461 747.603,-292.6927 702.7139,-265.435"/>
<polygon fill="#191970" stroke="#191970" points="704.2939,-262.2988 693.9357,-260.0722 700.6445,-268.2723 704.2939,-262.2988"/>
</g>
<!-- Node6 -->
<g id="node7" class="node">
<title>Node6</title>
<polygon fill="#ffffff" stroke="#bfbfbf" points="808.5,-116.5 808.5,-137.5 851.5,-137.5 851.5,-116.5 808.5,-116.5"/>
<text text-anchor="middle" x="830" y="-123.9" font-family="Helvetica,sans-Serif" font-size="12.00" fill="#000000">atomic</text>
</g>
<!-- Node0&#45;&gt;Node6 -->
<g id="edge6" class="edge">
<title>Node0&#45;&gt;Node6</title>
<path fill="none" stroke="#191970" d="M1070.3254,-429.2875C976.6712,-426.8508 708.8904,-417.0143 629,-383 592.4522,-367.4393 583.625,-357.6494 561,-325 536.8647,-290.1712 515.6661,-266.6903 540,-232 570.7104,-188.2194 730.0495,-148.8348 798.5936,-133.64"/>
<polygon fill="#191970" stroke="#191970" points="799.3814,-137.0505 808.4022,-131.4938 797.8851,-130.2123 799.3814,-137.0505"/>
</g>
<!-- Node7 -->
<g id="node8" class="node">
<title>Node7</title>
<polygon fill="#ffffff" stroke="#bfbfbf" points="679.5,-.5 679.5,-21.5 730.5,-21.5 730.5,-.5 679.5,-.5"/>
<text text-anchor="middle" x="705" y="-7.9" font-family="Helvetica,sans-Serif" font-size="12.00" fill="#000000">iostream</text>
</g>
<!-- Node0&#45;&gt;Node7 -->
<g id="edge7" class="edge">
<title>Node0&#45;&gt;Node7</title>
<path fill="none" stroke="#191970" d="M1070.1889,-428.9419C949.2096,-424.8483 532.3591,-408.9731 479,-383 441.662,-364.8253 416,-355.5264 416,-314 416,-314 416,-314 416,-249.5 416,-119.3817 592.4261,-46.9958 669.5855,-21.5601"/>
<polygon fill="#191970" stroke="#191970" points="670.906,-24.812 679.3532,-18.417 668.7617,-18.1485 670.906,-24.812"/>
</g>
<!-- Node8 -->
<g id="node9" class="node">
<title>Node8</title>
<polygon fill="#ffffff" stroke="#bfbfbf" points="332.5,-.5 332.5,-21.5 375.5,-21.5 375.5,-.5 332.5,-.5"/>
<text text-anchor="middle" x="354" y="-7.9" font-family="Helvetica,sans-Serif" font-size="12.00" fill="#000000">cstdint</text>
</g>
<!-- Node0&#45;&gt;Node8 -->
<g id="edge8" class="edge">
<title>Node0&#45;&gt;Node8</title>
<path fill="none" stroke="#191970" d="M1070.0996,-429.3306C920.3198,-426.136 306.7244,-411.4072 226,-383 176.4352,-365.558 130,-366.5442 130,-314 130,-314 130,-314 130,-127 130,-41.5109 260.2444,-18.9494 322.1033,-13.0549"/>
<polygon fill="#191970" stroke="#191970" points="322.4524,-16.5379 332.1141,-12.1903 321.85,-9.5639 322.4524,-16.5379"/>
</g>
<!-- Node9 -->
<g id="node10" class="node">
<title>Node9</title>
<polygon fill="#ffffff" stroke="#bfbfbf" points="578.5,-.5 578.5,-21.5 627.5,-21.5 627.5,-.5 578.5,-.5"/>
<text text-anchor="middle" x="603" y="-7.9" font-family="Helvetica,sans-Serif" font-size="12.00" fill="#000000">sstream</text>
</g>
<!-- Node0&#45;&gt;Node9 -->
<g id="edge9" class="edge">
<title>Node0&#45;&gt;Node9</title>
<path fill="none" stroke="#191970" d="M1070.25,-428.959C931.9989,-424.4281 401.99,-405.6351 375,-383 318.2459,-335.4034 252.2214,-113.7415 301,-58 338.8554,-14.741 495.5426,-33.592 568.1923,-21.7749"/>
<polygon fill="#191970" stroke="#191970" points="569.1373,-25.1564 578.2772,-19.7979 567.7906,-18.2871 569.1373,-25.1564"/>
</g>
<!-- Node10 -->
<g id="node11" class="node">
<title>Node10</title>
<polygon fill="#ffffff" stroke="#bfbfbf" points="1226,-361.5 1226,-382.5 1260,-382.5 1260,-361.5 1226,-361.5"/>
<text text-anchor="middle" x="1243" y="-368.9" font-family="Helvetica,sans-Serif" font-size="12.00" fill="#000000">map</text>
</g>
<!-- Node0&#45;&gt;Node10 -->
<g id="edge10" class="edge">
<title>Node0&#45;&gt;Node10</title>
<path fill="none" stroke="#191970" d="M1128.3529,-419.4966C1153.2565,-409.1794 1191.0996,-393.5016 1216.4184,-383.0124"/>
<polygon fill="#191970" stroke="#191970" points="1217.8806,-386.1951 1225.7796,-379.1342 1215.2014,-379.7282 1217.8806,-386.1951"/>
</g>
<!-- Node11 -->
<g id="node12" class="node">
<title>Node11</title>
<polygon fill="#ffffff" stroke="#bfbfbf" points="1599.5,-.5 1599.5,-21.5 1638.5,-21.5 1638.5,-.5 1599.5,-.5"/>
<text text-anchor="middle" x="1619" y="-7.9" font-family="Helvetica,sans-Serif" font-size="12.00" fill="#000000">string</text>
</g>
<!-- Node0&#45;&gt;Node11 -->
<g id="edge11" class="edge">
<title>Node0&#45;&gt;Node11</title>
<path fill="none" stroke="#191970" d="M1111.3312,-419.3928C1124.673,-403.3312 1152.5507,-373.4004 1184,-361 1380.5316,-283.5078 2009.2442,-440.3429 2130,-267 2201.0772,-164.9698 2062.1035,-96.9061 1944,-58 1839.2085,-23.4792 1707.1221,-14.2917 1648.8956,-11.8634"/>
<polygon fill="#191970" stroke="#191970" points="1648.7103,-8.354 1638.5851,-11.4732 1648.4455,-15.349 1648.7103,-8.354"/>
</g>
<!-- Node12 -->
<g id="node13" class="node">
<title>Node12</title>
<polygon fill="#ffffff" stroke="#bfbfbf" points="519.5,-.5 519.5,-21.5 560.5,-21.5 560.5,-.5 519.5,-.5"/>
<text text-anchor="middle" x="540" y="-7.9" font-family="Helvetica,sans-Serif" font-size="12.00" fill="#000000">vector</text>
</g>
<!-- Node0&#45;&gt;Node12 -->
<g id="edge12" class="edge">
<title>Node0&#45;&gt;Node12</title>
<path fill="none" stroke="#191970" d="M1070.4708,-428.9146C935.3066,-424.2754 421.879,-405.3275 353,-383 298.4589,-365.3202 244,-371.3351 244,-314 244,-314 244,-314 244,-127 244,-91.0989 256.2019,-78.024 286,-58 367.0766,-3.5173 409.7261,-44.716 509.3593,-21.6521"/>
<polygon fill="#191970" stroke="#191970" points="510.3199,-25.02 519.1823,-19.2142 508.6337,-18.2261 510.3199,-25.02"/>
</g>
<!-- Node13 -->
<g id="node14" class="node">
<title>Node13</title>
<polygon fill="#ffffff" stroke="#bfbfbf" points="1278.5,-361.5 1278.5,-382.5 1327.5,-382.5 1327.5,-361.5 1278.5,-361.5"/>
<text text-anchor="middle" x="1303" y="-368.9" font-family="Helvetica,sans-Serif" font-size="12.00" fill="#000000">memory</text>
</g>
<!-- Node0&#45;&gt;Node13 -->
<g id="edge13" class="edge">
<title>Node0&#45;&gt;Node13</title>
<path fill="none" stroke="#191970" d="M1135.5481,-421.1675C1167.1269,-412.5136 1216.6211,-398.7288 1268.45,-383.0962"/>
<polygon fill="#191970" stroke="#191970" points="1269.5957,-386.4062 1278.1509,-380.1565 1267.5656,-379.707 1269.5957,-386.4062"/>
</g>
<!-- Node14 -->
<g id="node15" class="node">
<title>Node14</title>
<polygon fill="#ffffff" stroke="#bfbfbf" points="1346,-361.5 1346,-382.5 1446,-382.5 1446,-361.5 1346,-361.5"/>
<text text-anchor="middle" x="1396" y="-368.9" font-family="Helvetica,sans-Serif" font-size="12.00" fill="#000000">pybind11/pybind11.h</text>
</g>
<!-- Node0&#45;&gt;Node14 -->
<g id="edge14" class="edge">
<title>Node0&#45;&gt;Node14</title>
<path fill="none" stroke="#191970" d="M1135.758,-423.5155C1184.1359,-413.939 1275.4839,-395.8564 1336.055,-383.8662"/>
<polygon fill="#191970" stroke="#191970" points="1336.7422,-387.2982 1345.8722,-381.9229 1335.3828,-380.4315 1336.7422,-387.2982"/>
</g>
<!-- Node15 -->
<g id="node16" class="node">
<title>Node15</title>
<polygon fill="#ffffff" stroke="#bfbfbf" points="1464,-361.5 1464,-382.5 1536,-382.5 1536,-361.5 1464,-361.5"/>
<text text-anchor="middle" x="1500" y="-368.9" font-family="Helvetica,sans-Serif" font-size="12.00" fill="#000000">pybind11/stl.h</text>
</g>
<!-- Node0&#45;&gt;Node15 -->
<g id="edge15" class="edge">
<title>Node0&#45;&gt;Node15</title>
<path fill="none" stroke="#191970" d="M1135.7007,-426.8156C1196.4622,-420.6446 1331.0269,-405.7871 1453.7782,-383.0826"/>
<polygon fill="#191970" stroke="#191970" points="1454.5381,-386.5013 1463.7232,-381.2208 1453.2499,-379.6208 1454.5381,-386.5013"/>
</g>
<!-- Node16 -->
<g id="node17" class="node">
<title>Node16</title>
<polygon fill="#ffffff" stroke="#bfbfbf" points="1554,-361.5 1554,-382.5 1656,-382.5 1656,-361.5 1554,-361.5"/>
<text text-anchor="middle" x="1605" y="-368.9" font-family="Helvetica,sans-Serif" font-size="12.00" fill="#000000">pybind11/functional.h</text>
</g>
<!-- Node0&#45;&gt;Node16 -->
<g id="edge16" class="edge">
<title>Node0&#45;&gt;Node16</title>
<path fill="none" stroke="#191970" d="M1135.5449,-427.3854C1207.3534,-421.4353 1384.9592,-405.7256 1544.0149,-383.057"/>
<polygon fill="#191970" stroke="#191970" points="1544.58,-386.5118 1553.9799,-381.624 1543.5835,-379.5831 1544.58,-386.5118"/>
</g>
<!-- Node17 -->
<g id="node18" class="node">
<title>Node17</title>
<polygon fill="#ffffff" stroke="#bfbfbf" points="1674.5,-361.5 1674.5,-382.5 1765.5,-382.5 1765.5,-361.5 1674.5,-361.5"/>
<text text-anchor="middle" x="1720" y="-368.9" font-family="Helvetica,sans-Serif" font-size="12.00" fill="#000000">pybind11/chrono.h</text>
</g>
<!-- Node0&#45;&gt;Node17 -->
<g id="edge17" class="edge">
<title>Node0&#45;&gt;Node17</title>
<path fill="none" stroke="#191970" d="M1135.7704,-428.5669C1221.0958,-424.5579 1457.2718,-411.6864 1664.3026,-382.9503"/>
<polygon fill="#191970" stroke="#191970" points="1665.0338,-386.3821 1674.4501,-381.5257 1664.0605,-379.45 1665.0338,-386.3821"/>
</g>
<!-- Node18 -->
<g id="node19" class="node">
<title>Node18</title>
<polygon fill="#ffffff" stroke="#bfbfbf" points="1784,-361.5 1784,-382.5 1874,-382.5 1874,-361.5 1784,-361.5"/>
<text text-anchor="middle" x="1829" y="-368.9" font-family="Helvetica,sans-Serif" font-size="12.00" fill="#000000">pybind11/numpy.h</text>
</g>
<!-- Node0&#45;&gt;Node18 -->
<g id="edge18" class="edge">
<title>Node0&#45;&gt;Node18</title>
<path fill="none" stroke="#191970" d="M1135.6736,-429.2321C1231.9452,-426.6487 1522.9692,-416.54 1773.9568,-382.9849"/>
<polygon fill="#191970" stroke="#191970" points="1774.5535,-386.4361 1783.9942,-381.6274 1773.6153,-379.4993 1774.5535,-386.4361"/>
</g>
<!-- Node19 -->
<g id="node20" class="node">
<title>Node19</title>
<polygon fill="#ffffff" stroke="#bfbfbf" points="1892,-361.5 1892,-382.5 1990,-382.5 1990,-361.5 1892,-361.5"/>
<text text-anchor="middle" x="1941" y="-368.9" font-family="Helvetica,sans-Serif" font-size="12.00" fill="#000000">pybind11/iostream.h</text>
</g>
<!-- Node0&#45;&gt;Node19 -->
<g id="edge19" class="edge">
<title>Node0&#45;&gt;Node19</title>
<path fill="none" stroke="#191970" d="M1135.8321,-429.5149C1242.2032,-427.6284 1587.0408,-419.0472 1881.6864,-383.0287"/>
<polygon fill="#191970" stroke="#191970" points="1882.211,-386.4906 1891.7064,-381.7907 1881.3526,-379.5434 1882.211,-386.4906"/>
</g>
<!-- Node20 -->
<g id="node21" class="node">
<title>Node20</title>
<polygon fill="#ffffff" stroke="#bfbfbf" points="2008,-361.5 2008,-382.5 2088,-382.5 2088,-361.5 2008,-361.5"/>
<text text-anchor="middle" x="2048" y="-368.9" font-family="Helvetica,sans-Serif" font-size="12.00" fill="#000000">pybind11/eval.h</text>
</g>
<!-- Node0&#45;&gt;Node20 -->
<g id="edge20" class="edge">
<title>Node0&#45;&gt;Node20</title>
<path fill="none" stroke="#191970" d="M1135.7208,-429.0231C1273.4544,-424.7993 1807.3482,-407.2772 1997.8283,-382.9105"/>
<polygon fill="#191970" stroke="#191970" points="1998.5377,-386.347 2007.9887,-381.5586 1997.6145,-379.4082 1998.5377,-386.347"/>
</g>
<!-- Node21 -->
<g id="node22" class="node">
<title>Node21</title>
<polygon fill="#ffffff" stroke="#bfbfbf" points="2106.5,-361.5 2106.5,-382.5 2197.5,-382.5 2197.5,-361.5 2106.5,-361.5"/>
<text text-anchor="middle" x="2152" y="-368.9" font-family="Helvetica,sans-Serif" font-size="12.00" fill="#000000">pybind11/embed.h</text>
</g>
<!-- Node0&#45;&gt;Node21 -->
<g id="edge21" class="edge">
<title>Node0&#45;&gt;Node21</title>
<path fill="none" stroke="#191970" d="M1135.7028,-429.1151C1282.7913,-425.0352 1884.6867,-407.2485 2096.3837,-382.8577"/>
<polygon fill="#191970" stroke="#191970" points="2096.9524,-386.3147 2106.467,-381.654 2096.1226,-379.3641 2096.9524,-386.3147"/>
</g>
<!-- Node22 -->
<g id="node23" class="node">
<title>Node22</title>
<polygon fill="#ffffff" stroke="#bfbfbf" points="2216,-361.5 2216,-382.5 2296,-382.5 2296,-361.5 2216,-361.5"/>
<text text-anchor="middle" x="2256" y="-368.9" font-family="Helvetica,sans-Serif" font-size="12.00" fill="#000000">pybind11/cast.h</text>
</g>
<!-- Node0&#45;&gt;Node22 -->
<g id="edge22" class="edge">
<title>Node0&#45;&gt;Node22</title>
<path fill="none" stroke="#191970" d="M1135.5468,-429.3978C1292.3499,-426.3789 1971.55,-411.9284 2205.8422,-382.8958"/>
<polygon fill="#191970" stroke="#191970" points="2206.5209,-386.3375 2215.9932,-381.5913 2205.6286,-379.3945 2206.5209,-386.3375"/>
</g>
<!-- Node23 -->
<g id="node24" class="node">
<title>Node23</title>
<polygon fill="#ffffff" stroke="#bfbfbf" points="2314,-361.5 2314,-382.5 2408,-382.5 2408,-361.5 2314,-361.5"/>
<text text-anchor="middle" x="2361" y="-368.9" font-family="Helvetica,sans-Serif" font-size="12.00" fill="#000000">pybind11/pytypes.h</text>
</g>
<!-- Node0&#45;&gt;Node23 -->
<g id="edge23" class="edge">
<title>Node0&#45;&gt;Node23</title>
<path fill="none" stroke="#191970" d="M1135.6027,-429.409C1300.9912,-426.3083 2048.9658,-411.0279 2303.7787,-382.9526"/>
<polygon fill="#191970" stroke="#191970" points="2304.1847,-386.4291 2313.7247,-381.8206 2303.393,-379.474 2304.1847,-386.4291"/>
</g>
<!-- Node24 -->
<g id="node25" class="node">
<title>Node24</title>
<g id="a_node25"><a xlink:href="../../db/d19/namespace_8hpp.html" target="_top" xlink:title="timemory/namespace.hpp">
<polygon fill="#ffffff" stroke="#000000" points="1878,-.5 1878,-21.5 1998,-21.5 1998,-.5 1878,-.5"/>
<text text-anchor="middle" x="1938" y="-7.9" font-family="Helvetica,sans-Serif" font-size="12.00" fill="#000000">timemory/namespace.hpp</text>
</a>
</g>
</g>
<!-- Node0&#45;&gt;Node24 -->
<g id="edge24" class="edge">
<title>Node0&#45;&gt;Node24</title>
<path fill="none" stroke="#191970" d="M1120.2933,-419.2225C1150.8559,-400.2193 1211.7119,-362.5951 1217,-361 1400.9789,-305.5044 1894.4552,-371.1415 2081,-325 2156.9403,-306.2163 2240,-327.7289 2240,-249.5 2240,-249.5 2240,-249.5 2240,-127 2240,-77.5835 2097.3093,-41.2941 2008.0922,-23.4338"/>
<polygon fill="#191970" stroke="#191970" points="2008.5145,-19.9498 1998.0266,-21.4513 2007.1617,-26.8179 2008.5145,-19.9498"/>
</g>
<!-- Node25 -->
<g id="node26" class="node">
<title>Node25</title>
<g id="a_node26"><a xlink:href="../../df/df2/timing__manager_8hpp.html" target="_top" xlink:title="timemory/timing_manager.hpp">
<polygon fill="#ffffff" stroke="#000000" points="1015,-303.5 1015,-324.5 1153,-324.5 1153,-303.5 1015,-303.5"/>
<text text-anchor="middle" x="1084" y="-310.9" font-family="Helvetica,sans-Serif" font-size="12.00" fill="#000000">timemory/timing_manager.hpp</text>
</a>
</g>
</g>
<!-- Node0&#45;&gt;Node25 -->
<g id="edge25" class="edge">
<title>Node0&#45;&gt;Node25</title>
<path fill="none" stroke="#191970" d="M1101.2466,-419.2949C1098.1077,-400.1314 1091.4778,-359.654 1087.414,-334.8434"/>
<polygon fill="#191970" stroke="#191970" points="1090.8196,-333.9819 1085.7492,-324.6792 1083.9117,-335.1135 1090.8196,-333.9819"/>
</g>
<!-- Node46 -->
<g id="node41" class="node">
<title>Node46</title>
<g id="a_node41"><a xlink:href="../../df/d05/timer_8hpp.html" target="_top" xlink:title="timemory/timer.hpp">
<polygon fill="#ffffff" stroke="#000000" points="2004,-239 2004,-260 2098,-260 2098,-239 2004,-239"/>
<text text-anchor="middle" x="2051" y="-246.4" font-family="Helvetica,sans-Serif" font-size="12.00" fill="#000000">timemory/timer.hpp</text>
</a>
</g>
</g>
<!-- Node0&#45;&gt;Node46 -->
<g id="edge91" class="edge">
<title>Node0&#45;&gt;Node46</title>
<path fill="none" stroke="#191970" d="M1106.2533,-419.4695C1111.7008,-403.7915 1124.2649,-374.6938 1146,-361 1305.6681,-260.4041 1804.8669,-303.5944 1990,-267 1995.8855,-265.8366 2002.0271,-264.3764 2008.0496,-262.7983"/>
<polygon fill="#191970" stroke="#191970" points="2009.291,-266.087 2018.0064,-260.0626 2007.4364,-259.3371 2009.291,-266.087"/>
</g>
<!-- Node55 -->
<g id="node43" class="node">
<title>Node55</title>
<g id="a_node43"><a xlink:href="../../d9/dd2/rss_8hpp.html" target="_top" xlink:title="timemory/rss.hpp">
<polygon fill="#ffffff" stroke="#ff0000" points="1041,-116.5 1041,-137.5 1127,-137.5 1127,-116.5 1041,-116.5"/>
<text text-anchor="middle" x="1084" y="-123.9" font-family="Helvetica,sans-Serif" font-size="12.00" fill="#000000">timemory/rss.hpp</text>
</a>
</g>
</g>
<!-- Node0&#45;&gt;Node55 -->
<g id="edge92" class="edge">
<title>Node0&#45;&gt;Node55</title>
<path fill="none" stroke="#191970" d="M1070.2968,-427.9376C986.1723,-422.3627 763.9797,-405.8588 694,-383 615.8795,-357.4821 575.3342,-345.1803 550,-267 545.2047,-252.202 540.1185,-244.0138 550,-232 553.8571,-227.3107 896.0953,-162.401 1030.5886,-137.0459"/>
<polygon fill="#191970" stroke="#191970" points="1031.4886,-140.438 1040.6674,-135.1466 1030.1922,-133.5591 1031.4886,-140.438"/>
</g>
<!-- Node61 -->
<g id="node48" class="node">
<title>Node61</title>
<g id="a_node48"><a xlink:href="../../da/d8e/signal__detection_8hpp.html" target="_top" xlink:title="timemory/signal_detection.hpp">
<polygon fill="#ffffff" stroke="#ff0000" points="530.5,-116.5 530.5,-137.5 669.5,-137.5 669.5,-116.5 530.5,-116.5"/>
<text text-anchor="middle" x="600" y="-123.9" font-family="Helvetica,sans-Serif" font-size="12.00" fill="#000000">timemory/signal_detection.hpp</text>
</a>
</g>
</g>
<!-- Node0&#45;&gt;Node61 -->
<g id="edge99" class="edge">
<title>Node0&#45;&gt;Node61</title>
<path fill="none" stroke="#191970" d="M1070.2049,-428.687C971.3645,-424.4677 677.5416,-409.935 586,-383 522.4936,-364.314 454,-380.1984 454,-314 454,-314 454,-314 454,-249.5 454,-194.4378 515.6954,-159.1975 558.8754,-141.2762"/>
<polygon fill="#191970" stroke="#191970" points="560.3303,-144.464 568.3202,-137.5061 557.7352,-137.9628 560.3303,-144.464"/>
</g>
<!-- Node66 -->
<g id="node49" class="node">
<title>Node66</title>
<g id="a_node49"><a xlink:href="../../d0/d5d/mpi_8hpp.html" target="_top" xlink:title="timemory/mpi.hpp">
<polygon fill="#ffffff" stroke="#000000" points="310,-58.5 310,-79.5 398,-79.5 398,-58.5 310,-58.5"/>
<text text-anchor="middle" x="354" y="-65.9" font-family="Helvetica,sans-Serif" font-size="12.00" fill="#000000">timemory/mpi.hpp</text>
</a>
</g>
</g>
<!-- Node0&#45;&gt;Node66 -->
<g id="edge100" class="edge">
<title>Node0&#45;&gt;Node66</title>
<path fill="none" stroke="#191970" d="M1070.4138,-429.707C939.7358,-428.2785 457.9996,-420.4912 402,-383 373.5913,-363.9807 368,-348.1876 368,-314 368,-314 368,-314 368,-185 368,-151.3554 362.1234,-112.6146 357.9849,-89.5038"/>
<polygon fill="#191970" stroke="#191970" points="361.3949,-88.6968 356.1263,-79.5049 354.5128,-89.9761 361.3949,-88.6968"/>
</g>
<!-- Node67 -->
<g id="node50" class="node">
<title>Node67</title>
<g id="a_node50"><a xlink:href="../../d8/d07/auto__timer_8hpp.html" target="_top" xlink:title="timemory/auto_timer.hpp">
<polygon fill="#ffffff" stroke="#000000" points="940,-361.5 940,-382.5 1056,-382.5 1056,-361.5 940,-361.5"/>
<text text-anchor="middle" x="998" y="-368.9" font-family="Helvetica,sans-Serif" font-size="12.00" fill="#000000">timemory/auto_timer.hpp</text>
</a>
</g>
</g>
<!-- Node0&#45;&gt;Node67 -->
<g id="edge93" class="edge">
<title>Node0&#45;&gt;Node67</title>
<path fill="none" stroke="#191970" d="M1083.7414,-419.3619C1067.5342,-410.4094 1044.1471,-397.4908 1025.8909,-387.4064"/>
<polygon fill="#191970" stroke="#191970" points="1027.5822,-384.3422 1017.1365,-382.5707 1024.1976,-390.4696 1027.5822,-384.3422"/>
</g>
<!-- Node25&#45;&gt;Node4 -->
<g id="edge30" class="edge">
<title>Node25&#45;&gt;Node4</title>
<path fill="none" stroke="#191970" d="M1014.6819,-309.6556C928.1261,-303.5185 775.7612,-290.3659 647,-267 634.569,-264.7442 621.058,-261.4466 609.379,-258.3205"/>
<polygon fill="#191970" stroke="#191970" points="610.2305,-254.9248 599.6604,-255.648 608.3745,-261.6743 610.2305,-254.9248"/>
</g>
<!-- Node25&#45;&gt;Node5 -->
<g id="edge29" class="edge">
<title>Node25&#45;&gt;Node5</title>
<path fill="none" stroke="#191970" d="M1014.9488,-308.0796C923.4134,-299.7489 767.0498,-283.7075 712,-267 709.5541,-266.2577 707.0711,-265.3555 704.6148,-264.3566"/>
<polygon fill="#191970" stroke="#191970" points="705.9588,-261.1228 695.408,-260.1574 703.0539,-267.4916 705.9588,-261.1228"/>
</g>
<!-- Node25&#45;&gt;Node8 -->
<g id="edge31" class="edge">
<title>Node25&#45;&gt;Node8</title>
<path fill="none" stroke="#191970" d="M1014.7141,-310.0726C955.7824,-304.9859 869.7119,-293.3789 799,-267 771.147,-256.6095 768.1282,-246.18 742,-232 689.2323,-203.3624 675.3852,-197.1738 620,-174 576.8094,-155.9286 562.0992,-160.4245 521,-138 462.5464,-106.1067 402.415,-54.9998 372.8109,-28.3848"/>
<polygon fill="#191970" stroke="#191970" points="375.0539,-25.694 365.2973,-21.5638 370.3488,-30.8768 375.0539,-25.694"/>
</g>
<!-- Node25&#45;&gt;Node11 -->
<g id="edge28" class="edge">
<title>Node25&#45;&gt;Node11</title>
<path fill="none" stroke="#191970" d="M1153.2572,-312.0021C1345.311,-306.2006 1872.5348,-288.3994 1903,-267 1935.4254,-244.2236 1938,-224.6254 1938,-185 1938,-185 1938,-185 1938,-127 1938,-86.0677 1912.6528,-78.1081 1877,-58 1838.2672,-36.1548 1708.424,-20.2819 1649.0669,-13.9864"/>
<polygon fill="#191970" stroke="#191970" points="1649.1502,-10.4762 1638.8418,-12.923 1648.4261,-17.4387 1649.1502,-10.4762"/>
</g>
<!-- Node25&#45;&gt;Node24 -->
<g id="edge42" class="edge">
<title>Node25&#45;&gt;Node24</title>
<path fill="none" stroke="#191970" d="M1153.0464,-311.9888C1349.2878,-306.0323 1898.2899,-287.6062 1931,-267 1966.1739,-244.8417 1976,-226.5716 1976,-185 1976,-185 1976,-185 1976,-127 1976,-91.7411 1959.9491,-53.3154 1948.7108,-30.7323"/>
<polygon fill="#191970" stroke="#191970" points="1951.8019,-29.0901 1944.1054,-21.809 1945.5815,-32.3005 1951.8019,-29.0901"/>
</g>
<!-- Node26 -->
<g id="node27" class="node">
<title>Node26</title>
<polygon fill="#ffffff" stroke="#bfbfbf" points="1112,-239 1112,-260 1192,-260 1192,-239 1112,-239"/>
<text text-anchor="middle" x="1152" y="-246.4" font-family="Helvetica,sans-Serif" font-size="12.00" fill="#000000">unordered_map</text>
</g>
<!-- Node25&#45;&gt;Node26 -->
<g id="edge26" class="edge">
<title>Node25&#45;&gt;Node26</title>
<path fill="none" stroke="#191970" d="M1095.2288,-303.3491C1105.5023,-293.6044 1120.9093,-278.9905 1133.0817,-267.4445"/>
<polygon fill="#191970" stroke="#191970" points="1135.6805,-269.8036 1140.5272,-260.3823 1130.8632,-264.7248 1135.6805,-269.8036"/>
</g>
<!-- Node27 -->
<g id="node28" class="node">
<title>Node27</title>
<polygon fill="#ffffff" stroke="#bfbfbf" points="752,-.5 752,-21.5 794,-21.5 794,-.5 752,-.5"/>
<text text-anchor="middle" x="773" y="-7.9" font-family="Helvetica,sans-Serif" font-size="12.00" fill="#000000">deque</text>
</g>
<!-- Node25&#45;&gt;Node27 -->
<g id="edge27" class="edge">
<title>Node25&#45;&gt;Node27</title>
<path fill="none" stroke="#191970" d="M1014.8408,-308.8741C956.4292,-302.9362 879.2861,-290.7527 860,-267 801.448,-194.8875 908.768,-137.6666 861,-58 854.4535,-47.0818 826.4092,-33.2053 803.7146,-23.368"/>
<polygon fill="#191970" stroke="#191970" points="804.9673,-20.0976 794.3942,-19.4196 802.2368,-26.5431 804.9673,-20.0976"/>
</g>
<!-- Node28 -->
<g id="node29" class="node">
<title>Node28</title>
<polygon fill="#ffffff" stroke="#bfbfbf" points="1311,-58.5 1311,-79.5 1397,-79.5 1397,-58.5 1311,-58.5"/>
<text text-anchor="middle" x="1354" y="-65.9" font-family="Helvetica,sans-Serif" font-size="12.00" fill="#000000">cereal/cereal.hpp</text>
</g>
<!-- Node25&#45;&gt;Node28 -->
<g id="edge32" class="edge">
<title>Node25&#45;&gt;Node28</title>
<path fill="none" stroke="#191970" d="M1065.9047,-303.3857C1053.8181,-295.1668 1038.9146,-282.5701 1032,-267 1025.6865,-252.7833 1025.2148,-245.9977 1032,-232 1050.1511,-194.5548 1141.81,-134.6684 1179,-116 1200.3232,-105.2963 1257.8162,-90.7763 1301.1304,-80.7202"/>
<polygon fill="#191970" stroke="#191970" points="1302.0102,-84.1093 1310.9704,-78.4554 1300.4401,-77.2876 1302.0102,-84.1093"/>
</g>
<!-- Node29 -->
<g id="node30" class="node">
<title>Node29</title>
<polygon fill="#ffffff" stroke="#bfbfbf" points="1415,-58.5 1415,-79.5 1525,-79.5 1525,-58.5 1415,-58.5"/>
<text text-anchor="middle" x="1470" y="-65.9" font-family="Helvetica,sans-Serif" font-size="12.00" fill="#000000">cereal/types/deque.hpp</text>
</g>
<!-- Node25&#45;&gt;Node29 -->
<g id="edge33" class="edge">
<title>Node25&#45;&gt;Node29</title>
<path fill="none" stroke="#191970" d="M1077.7822,-303.4227C1068.8923,-286.7659 1055.1732,-254.0525 1070,-232 1110.7041,-171.4591 1320.5942,-108.7877 1418.9845,-82.1955"/>
<polygon fill="#191970" stroke="#191970" points="1419.9642,-85.5565 1428.7158,-79.5849 1418.1504,-78.7956 1419.9642,-85.5565"/>
</g>
<!-- Node30 -->
<g id="node31" class="node">
<title>Node30</title>
<polygon fill="#ffffff" stroke="#bfbfbf" points="1647.5,-58.5 1647.5,-79.5 1736.5,-79.5 1736.5,-58.5 1647.5,-58.5"/>
<text text-anchor="middle" x="1692" y="-65.9" font-family="Helvetica,sans-Serif" font-size="12.00" fill="#000000">cereal/access.hpp</text>
</g>
<!-- Node25&#45;&gt;Node30 -->
<g id="edge34" class="edge">
<title>Node25&#45;&gt;Node30</title>
<path fill="none" stroke="#191970" d="M1082.8751,-303.2161C1081.6779,-285.3412 1082.2528,-249.7851 1103,-232 1184.8844,-161.8064 1490.4489,-244.0633 1587,-196 1633.7095,-172.748 1667.1581,-118.1668 1682.5329,-88.6981"/>
<polygon fill="#191970" stroke="#191970" points="1685.6684,-90.2534 1687.0471,-79.7486 1679.4185,-87.1008 1685.6684,-90.2534"/>
</g>
<!-- Node31 -->
<g id="node32" class="node">
<title>Node31</title>
<polygon fill="#ffffff" stroke="#bfbfbf" points="1210.5,-232.5 1210.5,-266.5 1319.5,-266.5 1319.5,-232.5 1210.5,-232.5"/>
<text text-anchor="start" x="1218.5" y="-252.9" font-family="Helvetica,sans-Serif" font-size="12.00" fill="#000000">cereal/types/unordered</text>
<text text-anchor="middle" x="1265" y="-239.9" font-family="Helvetica,sans-Serif" font-size="12.00" fill="#000000">_map.hpp</text>
</g>
<!-- Node25&#45;&gt;Node31 -->
<g id="edge35" class="edge">
<title>Node25&#45;&gt;Node31</title>
<path fill="none" stroke="#191970" d="M1113.4836,-303.4934C1138.9025,-294.4353 1176.3421,-281.0936 1207.6438,-269.9391"/>
<polygon fill="#191970" stroke="#191970" points="1208.8961,-273.2085 1217.141,-266.5547 1206.5463,-266.6147 1208.8961,-273.2085"/>
</g>
<!-- Node32 -->
<g id="node33" class="node">
<title>Node32</title>
<polygon fill="#ffffff" stroke="#bfbfbf" points="1754.5,-58.5 1754.5,-79.5 1867.5,-79.5 1867.5,-58.5 1754.5,-58.5"/>
<text text-anchor="middle" x="1811" y="-65.9" font-family="Helvetica,sans-Serif" font-size="12.00" fill="#000000">cereal/types/chrono.hpp</text>
</g>
<!-- Node25&#45;&gt;Node32 -->
<g id="edge36" class="edge">
<title>Node25&#45;&gt;Node32</title>
<path fill="none" stroke="#191970" d="M1153.2341,-312.4691C1342.5115,-307.9485 1856.2043,-293.301 1881,-267 1930.2946,-214.7128 1862.1937,-125.5742 1828.2433,-87.3207"/>
<polygon fill="#191970" stroke="#191970" points="1830.5046,-84.6044 1821.1918,-79.5524 1825.3215,-89.3093 1830.5046,-84.6044"/>
</g>
<!-- Node33 -->
<g id="node34" class="node">
<title>Node33</title>
<polygon fill="#ffffff" stroke="#bfbfbf" points="1338,-239 1338,-260 1470,-260 1470,-239 1338,-239"/>
<text text-anchor="middle" x="1404" y="-246.4" font-family="Helvetica,sans-Serif" font-size="12.00" fill="#000000">cereal/archives/adapters.hpp</text>
</g>
<!-- Node25&#45;&gt;Node33 -->
<g id="edge37" class="edge">
<title>Node25&#45;&gt;Node33</title>
<path fill="none" stroke="#191970" d="M1142.5442,-303.4444C1192.2614,-294.3187 1265.4534,-280.5035 1329,-267 1335.7661,-265.5622 1342.8605,-263.9909 1349.8741,-262.3986"/>
<polygon fill="#191970" stroke="#191970" points="1351.0811,-265.7127 1360.0445,-260.064 1349.5149,-258.8901 1351.0811,-265.7127"/>
</g>
<!-- Node34 -->
<g id="node35" class="node">
<title>Node34</title>
<polygon fill="#ffffff" stroke="#bfbfbf" points="1488,-239 1488,-260 1610,-260 1610,-239 1488,-239"/>
<text text-anchor="middle" x="1549" y="-246.4" font-family="Helvetica,sans-Serif" font-size="12.00" fill="#000000">cereal/archives/binary.hpp</text>
</g>
<!-- Node25&#45;&gt;Node34 -->
<g id="edge38" class="edge">
<title>Node25&#45;&gt;Node34</title>
<path fill="none" stroke="#191970" d="M1153.2555,-308.4333C1232.4361,-301.451 1365.7381,-287.8097 1479,-267 1486.1151,-265.6927 1493.5823,-264.0847 1500.8807,-262.3781"/>
<polygon fill="#191970" stroke="#191970" points="1501.7821,-265.7611 1510.6794,-260.0089 1500.1369,-258.9572 1501.7821,-265.7611"/>
</g>
<!-- Node35 -->
<g id="node36" class="node">
<title>Node35</title>
<polygon fill="#ffffff" stroke="#bfbfbf" points="1628,-239 1628,-260 1742,-260 1742,-239 1628,-239"/>
<text text-anchor="middle" x="1685" y="-246.4" font-family="Helvetica,sans-Serif" font-size="12.00" fill="#000000">cereal/archives/json.hpp</text>
</g>
<!-- Node25&#45;&gt;Node35 -->
<g id="edge39" class="edge">
<title>Node25&#45;&gt;Node35</title>
<path fill="none" stroke="#191970" d="M1153.323,-311.7067C1255.8005,-307.4614 1453.456,-295.9976 1619,-267 1625.7468,-265.8182 1632.8103,-264.2783 1639.7039,-262.6023"/>
<polygon fill="#191970" stroke="#191970" points="1640.7988,-265.9352 1649.6254,-260.0751 1639.0708,-259.1518 1640.7988,-265.9352"/>
</g>
<!-- Node36 -->
<g id="node37" class="node">
<title>Node36</title>
<polygon fill="#ffffff" stroke="#bfbfbf" points="1760,-232.5 1760,-266.5 1872,-266.5 1872,-232.5 1760,-232.5"/>
<text text-anchor="start" x="1768" y="-252.9" font-family="Helvetica,sans-Serif" font-size="12.00" fill="#000000">cereal/archives/portable</text>
<text text-anchor="middle" x="1816" y="-239.9" font-family="Helvetica,sans-Serif" font-size="12.00" fill="#000000">_binary.hpp</text>
</g>
<!-- Node25&#45;&gt;Node36 -->
<g id="edge40" class="edge">
<title>Node25&#45;&gt;Node36</title>
<path fill="none" stroke="#191970" d="M1153.1909,-310.8182C1295.9263,-303.9847 1619.8474,-287.0167 1749.664,-266.9822"/>
<polygon fill="#191970" stroke="#191970" points="1750.4628,-270.3986 1759.7763,-265.3479 1749.346,-263.4883 1750.4628,-270.3986"/>
</g>
<!-- Node37 -->
<g id="node38" class="node">
<title>Node37</title>
<polygon fill="#ffffff" stroke="#bfbfbf" points="868.5,-239 868.5,-260 979.5,-260 979.5,-239 868.5,-239"/>
<text text-anchor="middle" x="924" y="-246.4" font-family="Helvetica,sans-Serif" font-size="12.00" fill="#000000">cereal/archives/xml.hpp</text>
</g>
<!-- Node25&#45;&gt;Node37 -->
<g id="edge41" class="edge">
<title>Node25&#45;&gt;Node37</title>
<path fill="none" stroke="#191970" d="M1057.9371,-303.4934C1031.2059,-292.7174 989.4359,-275.8788 959.6533,-263.8727"/>
<polygon fill="#191970" stroke="#191970" points="960.6351,-260.4949 950.0517,-260.0021 958.0178,-266.9872 960.6351,-260.4949"/>
</g>
<!-- Node38 -->
<g id="node39" class="node">
<title>Node38</title>
<g id="a_node39"><a xlink:href="../../d1/d4e/utility_8hpp.html" target="_top" xlink:title="timemory/utility.hpp">
<polygon fill="#ffffff" stroke="#ff0000" points="758,-58.5 758,-79.5 852,-79.5 852,-58.5 758,-58.5"/>
<text text-anchor="middle" x="805" y="-65.9" font-family="Helvetica,sans-Serif" font-size="12.00" fill="#000000">timemory/utility.hpp</text>
</a>
</g>
</g>
<!-- Node25&#45;&gt;Node38 -->
<g id="edge43" class="edge">
<title>Node25&#45;&gt;Node38</title>
<path fill="none" stroke="#191970" d="M1014.9002,-310.0176C947.7545,-304.6806 852.1976,-292.7125 826,-267 777.8651,-219.7565 790.9041,-129.5127 799.8297,-89.257"/>
<polygon fill="#191970" stroke="#191970" points="803.2378,-90.0537 802.1307,-79.5168 796.4253,-88.4443 803.2378,-90.0537"/>
</g>
<!-- Node25&#45;&gt;Node46 -->
<g id="edge52" class="edge">
<title>Node25&#45;&gt;Node46</title>
<path fill="none" stroke="#191970" d="M1153.1993,-312.447C1336.0849,-308.0171 1829.2145,-293.8731 1990,-267 1996.3469,-265.9392 2002.9728,-264.4515 2009.4202,-262.787"/>
<polygon fill="#191970" stroke="#191970" points="2010.6237,-266.0861 2019.339,-260.0616 2008.769,-259.3363 2010.6237,-266.0861"/>
</g>
<!-- Node25&#45;&gt;Node66 -->
<g id="edge90" class="edge">
<title>Node25&#45;&gt;Node66</title>
<path fill="none" stroke="#191970" d="M1014.9899,-308.6774C931.4549,-301.4768 796.2226,-287.1721 750,-267 727.4154,-257.1438 728.0804,-244.7603 707,-232 616.387,-177.1507 583.8101,-183.1617 488,-138 451.1592,-120.6345 409.5817,-98.8785 382.6461,-84.4904"/>
<polygon fill="#191970" stroke="#191970" points="384.2283,-81.3674 373.7611,-79.7277 380.9211,-87.5369 384.2283,-81.3674"/>
</g>
<!-- Node38&#45;&gt;Node3 -->
<g id="edge48" class="edge">
<title>Node38&#45;&gt;Node3</title>
<path fill="none" stroke="#191970" d="M757.8631,-63.5368C701.3591,-56.5365 603.7,-43.0058 511.8228,-22.2141"/>
<polygon fill="#191970" stroke="#191970" points="512.3346,-18.7406 501.8048,-19.9124 510.7671,-25.5628 512.3346,-18.7406"/>
</g>
<!-- Node38&#45;&gt;Node7 -->
<g id="edge44" class="edge">
<title>Node38&#45;&gt;Node7</title>
<path fill="none" stroke="#191970" d="M786.6585,-58.3619C771.4345,-49.532 749.5585,-36.844 732.28,-26.8224"/>
<polygon fill="#191970" stroke="#191970" points="733.6316,-23.5603 723.2253,-21.5707 730.1196,-29.6155 733.6316,-23.5603"/>
</g>
<!-- Node38&#45;&gt;Node9 -->
<g id="edge46" class="edge">
<title>Node38&#45;&gt;Node9</title>
<path fill="none" stroke="#191970" d="M768.4193,-58.4966C731.1111,-47.7844 673.6761,-31.2931 637.2385,-20.8309"/>
<polygon fill="#191970" stroke="#191970" points="638.1298,-17.4454 627.5523,-18.0497 636.198,-24.1736 638.1298,-17.4454"/>
</g>
<!-- Node38&#45;&gt;Node11 -->
<g id="edge45" class="edge">
<title>Node38&#45;&gt;Node11</title>
<path fill="none" stroke="#191970" d="M852.2264,-65.0815C878.6292,-62.9227 912.1377,-60.2354 942,-58 1192.2979,-39.2638 1494.852,-19.1625 1589.349,-12.9436"/>
<polygon fill="#191970" stroke="#191970" points="1589.5838,-16.4358 1599.3327,-12.2873 1589.1246,-9.4509 1589.5838,-16.4358"/>
</g>
<!-- Node38&#45;&gt;Node12 -->
<g id="edge50" class="edge">
<title>Node38&#45;&gt;Node12</title>
<path fill="none" stroke="#191970" d="M757.6781,-61.7395C712.0048,-54.2419 640.8313,-41.272 570.4439,-21.7896"/>
<polygon fill="#191970" stroke="#191970" points="571.0941,-18.3367 560.5199,-18.9972 569.1981,-25.075 571.0941,-18.3367"/>
</g>
<!-- Node38&#45;&gt;Node24 -->
<g id="edge51" class="edge">
<title>Node38&#45;&gt;Node24</title>
<path fill="none" stroke="#191970" d="M852.3748,-66.5459C895.5391,-64.3117 961.0513,-60.9252 1018,-58 1335.1441,-41.7099 1713.7932,-22.4145 1867.7393,-14.5761"/>
<polygon fill="#191970" stroke="#191970" points="1868.1825,-18.0581 1877.9916,-14.0541 1867.8265,-11.0672 1868.1825,-18.0581"/>
</g>
<!-- Node38&#45;&gt;Node27 -->
<g id="edge49" class="edge">
<title>Node38&#45;&gt;Node27</title>
<path fill="none" stroke="#191970" d="M799.1307,-58.3619C794.8454,-50.5949 788.9131,-39.8426 783.7839,-30.5458"/>
<polygon fill="#191970" stroke="#191970" points="786.7274,-28.6357 778.8321,-21.5707 780.5984,-32.0172 786.7274,-28.6357"/>
</g>
<!-- Node41 -->
<g id="node40" class="node">
<title>Node41</title>
<polygon fill="#ffffff" stroke="#bfbfbf" points="812,-.5 812,-21.5 860,-21.5 860,-.5 812,-.5"/>
<text text-anchor="middle" x="836" y="-7.9" font-family="Helvetica,sans-Serif" font-size="12.00" fill="#000000">iomanip</text>
</g>
<!-- Node38&#45;&gt;Node41 -->
<g id="edge47" class="edge">
<title>Node38&#45;&gt;Node41</title>
<path fill="none" stroke="#191970" d="M810.6859,-58.3619C814.8372,-50.5949 820.5841,-39.8426 825.5531,-30.5458"/>
<polygon fill="#191970" stroke="#191970" points="828.7231,-32.0398 830.3502,-21.5707 822.5496,-28.7401 828.7231,-32.0398"/>
</g>
<!-- Node46&#45;&gt;Node24 -->
<g id="edge53" class="edge">
<title>Node46&#45;&gt;Node24</title>
<path fill="none" stroke="#191970" d="M2049.5792,-238.7056C2045.1553,-208.1516 2029.4828,-119.3124 1990,-58 1982.588,-46.4901 1971.6483,-36.0197 1961.7128,-27.898"/>
<polygon fill="#191970" stroke="#191970" points="1963.7421,-25.0421 1953.7026,-21.6569 1959.4398,-30.564 1963.7421,-25.0421"/>
</g>
<!-- Node47 -->
<g id="node42" class="node">
<title>Node47</title>
<g id="a_node42"><a xlink:href="../../d6/d01/base__timer_8hpp.html" target="_top" xlink:title="timemory/base_timer.hpp">
<polygon fill="#ffffff" stroke="#ff0000" points="1460,-174.5 1460,-195.5 1578,-195.5 1578,-174.5 1460,-174.5"/>
<text text-anchor="middle" x="1519" y="-181.9" font-family="Helvetica,sans-Serif" font-size="12.00" fill="#000000">timemory/base_timer.hpp</text>
</a>
</g>
</g>
<!-- Node46&#45;&gt;Node47 -->
<g id="edge54" class="edge">
<title>Node46&#45;&gt;Node47</title>
<path fill="none" stroke="#191970" d="M2003.7885,-243.7761C1909.5877,-232.3551 1697.9283,-206.6934 1588.085,-193.3759"/>
<polygon fill="#191970" stroke="#191970" points="1588.4506,-189.8947 1578.102,-192.1656 1587.608,-196.8438 1588.4506,-189.8947"/>
</g>
<!-- Node47&#45;&gt;Node6 -->
<g id="edge85" class="edge">
<title>Node47&#45;&gt;Node6</title>
<path fill="none" stroke="#191970" d="M1459.8079,-180.2349C1356.6539,-171.8991 1137.252,-154.0293 952,-138 921.3628,-135.3491 886.4117,-132.1833 861.7951,-129.9301"/>
<polygon fill="#191970" stroke="#191970" points="861.8709,-126.4224 851.593,-128.9943 861.2315,-133.3932 861.8709,-126.4224"/>
</g>
<!-- Node47&#45;&gt;Node11 -->
<g id="edge84" class="edge">
<title>Node47&#45;&gt;Node11</title>
<path fill="none" stroke="#191970" d="M1529.6499,-174.3765C1546.9841,-156.482 1581.2452,-118.4973 1600,-80 1607.4713,-64.6639 1612.3937,-45.931 1615.3522,-31.856"/>
<polygon fill="#191970" stroke="#191970" points="1618.8499,-32.2037 1617.3151,-21.7206 1611.9775,-30.8727 1618.8499,-32.2037"/>
</g>
<!-- Node47&#45;&gt;Node24 -->
<g id="edge55" class="edge">
<title>Node47&#45;&gt;Node24</title>
<path fill="none" stroke="#191970" d="M1578.3174,-177.9004C1652.9353,-166.7654 1782.6988,-139.9235 1877,-80 1897.3059,-67.0967 1914.8152,-45.5241 1925.8003,-29.9311"/>
<polygon fill="#191970" stroke="#191970" points="1928.7674,-31.7919 1931.4861,-21.5518 1922.975,-27.8614 1928.7674,-31.7919"/>
</g>
<!-- Node47&#45;&gt;Node28 -->
<g id="edge86" class="edge">
<title>Node47&#45;&gt;Node28</title>
<path fill="none" stroke="#191970" d="M1503.7729,-174.2949C1474.9183,-154.0092 1412.0918,-109.8403 1377.688,-85.6534"/>
<polygon fill="#191970" stroke="#191970" points="1379.3839,-82.5673 1369.1902,-79.6792 1375.358,-88.2937 1379.3839,-82.5673"/>
</g>
<!-- Node47&#45;&gt;Node29 -->
<g id="edge89" class="edge">
<title>Node47&#45;&gt;Node29</title>
<path fill="none" stroke="#191970" d="M1514.478,-174.2949C1506.3102,-154.9588 1488.9761,-113.9229 1478.5229,-89.1767"/>
<polygon fill="#191970" stroke="#191970" points="1481.6265,-87.5291 1474.511,-79.6792 1475.1782,-90.253 1481.6265,-87.5291"/>
</g>
<!-- Node47&#45;&gt;Node30 -->
<g id="edge87" class="edge">
<title>Node47&#45;&gt;Node30</title>
<path fill="none" stroke="#191970" d="M1543.0021,-174.4022C1561.8402,-165.6649 1588.4012,-152.4033 1610,-138 1633.1998,-122.5291 1657.3406,-101.5233 1673.3688,-86.766"/>
<polygon fill="#191970" stroke="#191970" points="1676.0387,-89.0618 1680.963,-79.6809 1671.2635,-83.9434 1676.0387,-89.0618"/>
</g>
<!-- Node47&#45;&gt;Node32 -->
<g id="edge88" class="edge">
<title>Node47&#45;&gt;Node32</title>
<path fill="none" stroke="#191970" d="M1545.9494,-174.3859C1570.0753,-164.8768 1606.4116,-150.5374 1638,-138 1685.5265,-119.1368 1740.3482,-97.2497 1775.3183,-83.2719"/>
<polygon fill="#191970" stroke="#191970" points="1776.6464,-86.5104 1784.6327,-79.5483 1774.0479,-80.0105 1776.6464,-86.5104"/>
</g>
<!-- Node47&#45;&gt;Node38 -->
<g id="edge70" class="edge">
<title>Node47&#45;&gt;Node38</title>
<path fill="none" stroke="#191970" d="M1459.9801,-183.086C1367.8174,-179.2513 1184.4772,-168.2188 1032,-138 964.0103,-124.5254 887.3231,-98.9524 842.7486,-83.0079"/>
<polygon fill="#191970" stroke="#191970" points="843.7981,-79.6658 833.2037,-79.5648 841.4228,-86.2505 843.7981,-79.6658"/>
</g>
<!-- Node47&#45;&gt;Node55 -->
<g id="edge56" class="edge">
<title>Node47&#45;&gt;Node55</title>
<path fill="none" stroke="#191970" d="M1459.8813,-177.1175C1374.7827,-165.771 1219.0343,-145.0046 1137.2993,-134.1066"/>
<polygon fill="#191970" stroke="#191970" points="1137.6043,-130.6163 1127.2294,-132.7639 1136.6791,-137.5549 1137.6043,-130.6163"/>
</g>
<!-- Node57 -->
<g id="node46" class="node">
<title>Node57</title>
<polygon fill="#ffffff" stroke="#bfbfbf" points="1543.5,-58.5 1543.5,-79.5 1590.5,-79.5 1590.5,-58.5 1543.5,-58.5"/>
<text text-anchor="middle" x="1567" y="-65.9" font-family="Helvetica,sans-Serif" font-size="12.00" fill="#000000">fstream</text>
</g>
<!-- Node47&#45;&gt;Node57 -->
<g id="edge83" class="edge">
<title>Node47&#45;&gt;Node57</title>
<path fill="none" stroke="#191970" d="M1523.4297,-174.2949C1531.4309,-154.9588 1548.4112,-113.9229 1558.651,-89.1767"/>
<polygon fill="#191970" stroke="#191970" points="1561.9915,-90.2576 1562.581,-79.6792 1555.5234,-87.5811 1561.9915,-90.2576"/>
</g>
<!-- Node47&#45;&gt;Node61 -->
<g id="edge71" class="edge">
<title>Node47&#45;&gt;Node61</title>
<path fill="none" stroke="#191970" d="M1459.7626,-181.2614C1300.1291,-171.1866 860.8555,-143.4631 679.7063,-132.0304"/>
<polygon fill="#191970" stroke="#191970" points="679.9132,-128.5366 669.7126,-131.3997 679.4723,-135.5227 679.9132,-128.5366"/>
</g>
<!-- Node55&#45;&gt;Node7 -->
<g id="edge59" class="edge">
<title>Node55&#45;&gt;Node7</title>
<path fill="none" stroke="#191970" d="M1050.0221,-116.4006C1006.3201,-102.7875 928.0541,-78.4746 861,-58 819.6235,-45.3659 772.0041,-31.0518 740.3707,-21.5748"/>
<polygon fill="#191970" stroke="#191970" points="741.2737,-18.1917 730.6899,-18.6761 739.2657,-24.8976 741.2737,-18.1917"/>
</g>
<!-- Node55&#45;&gt;Node8 -->
<g id="edge64" class="edge">
<title>Node55&#45;&gt;Node8</title>
<path fill="none" stroke="#191970" d="M1040.832,-121.4146C976.9643,-113.0442 853.5714,-96.4643 749,-80 613.5532,-58.6745 452.7059,-29.3192 385.7221,-16.9138"/>
<polygon fill="#191970" stroke="#191970" points="386.2665,-13.4552 375.7958,-15.0722 384.9896,-20.3378 386.2665,-13.4552"/>
</g>
<!-- Node55&#45;&gt;Node11 -->
<g id="edge61" class="edge">
<title>Node55&#45;&gt;Node11</title>
<path fill="none" stroke="#191970" d="M1121.048,-116.4408C1150.0393,-107.7724 1191.1444,-94.5837 1226,-80 1245.8036,-71.7141 1248.512,-64.4095 1269,-58 1383.5371,-22.1679 1527.55,-13.6534 1588.9957,-11.6304"/>
<polygon fill="#191970" stroke="#191970" points="1589.2537,-15.1244 1599.1464,-11.3317 1589.0478,-8.1274 1589.2537,-15.1244"/>
</g>
<!-- Node55&#45;&gt;Node24 -->
<g id="edge69" class="edge">
<title>Node55&#45;&gt;Node24</title>
<path fill="none" stroke="#191970" d="M1127.0924,-118.5066C1163.4969,-110.6392 1216.6408,-97.513 1261,-80 1280.235,-72.406 1282.1435,-63.7771 1302,-58 1355.1301,-42.5423 1713.1048,-22.5662 1867.4287,-14.5543"/>
<polygon fill="#191970" stroke="#191970" points="1867.9318,-18.033 1877.7377,-14.0211 1867.5702,-11.0424 1867.9318,-18.033"/>
</g>
<!-- Node55&#45;&gt;Node28 -->
<g id="edge65" class="edge">
<title>Node55&#45;&gt;Node28</title>
<path fill="none" stroke="#191970" d="M1127.0809,-117.7456C1174.2583,-107.6112 1249.9573,-91.3499 1300.8036,-80.4274"/>
<polygon fill="#191970" stroke="#191970" points="1301.5838,-83.8397 1310.6257,-78.3174 1300.1136,-76.9958 1301.5838,-83.8397"/>
</g>
<!-- Node55&#45;&gt;Node29 -->
<g id="edge68" class="edge">
<title>Node55&#45;&gt;Node29</title>
<path fill="none" stroke="#191970" d="M1127.0217,-121.0727C1186.9496,-112.7386 1299.2061,-96.8466 1404.9719,-80.136"/>
<polygon fill="#191970" stroke="#191970" points="1405.5281,-83.5916 1414.8567,-78.5688 1404.4319,-76.678 1405.5281,-83.5916"/>
</g>
<!-- Node55&#45;&gt;Node30 -->
<g id="edge66" class="edge">
<title>Node55&#45;&gt;Node30</title>
<path fill="none" stroke="#191970" d="M1127.1915,-123.4796C1215.8732,-116.1603 1424.8829,-98.4405 1600,-80 1611.9981,-78.7365 1624.8626,-77.2693 1637.0558,-75.826"/>
<polygon fill="#191970" stroke="#191970" points="1637.5928,-79.2868 1647.1066,-74.6243 1636.7618,-72.3363 1637.5928,-79.2868"/>
</g>
<!-- Node55&#45;&gt;Node32 -->
<g id="edge67" class="edge">
<title>Node55&#45;&gt;Node32</title>
<path fill="none" stroke="#191970" d="M1127.1218,-125.3848C1231.3872,-121.1694 1505.5676,-108.2361 1744.0719,-80.1428"/>
<polygon fill="#191970" stroke="#191970" points="1744.8101,-83.5798 1754.3265,-78.9229 1743.9831,-76.6288 1744.8101,-83.5798"/>
</g>
<!-- Node55&#45;&gt;Node41 -->
<g id="edge62" class="edge">
<title>Node55&#45;&gt;Node41</title>
<path fill="none" stroke="#191970" d="M1061.1133,-116.2949C1016.6162,-95.4818 918.3685,-49.5272 867.6584,-25.808"/>
<polygon fill="#191970" stroke="#191970" points="869.0142,-22.5782 858.4732,-21.5117 866.0484,-28.9189 869.0142,-22.5782"/>
</g>
<!-- Node49 -->
<g id="node44" class="node">
<title>Node49</title>
<polygon fill="#ffffff" stroke="#bfbfbf" points="1060,-58.5 1060,-79.5 1108,-79.5 1108,-58.5 1060,-58.5"/>
<text text-anchor="middle" x="1084" y="-65.9" font-family="Helvetica,sans-Serif" font-size="12.00" fill="#000000">unistd.h</text>
</g>
<!-- Node55&#45;&gt;Node49 -->
<g id="edge57" class="edge">
<title>Node55&#45;&gt;Node49</title>
<path fill="none" stroke="#191970" d="M1084,-116.3619C1084,-108.9219 1084,-98.7427 1084,-89.7276"/>
<polygon fill="#191970" stroke="#191970" points="1087.5001,-89.5706 1084,-79.5707 1080.5001,-89.5707 1087.5001,-89.5706"/>
</g>
<!-- Node56 -->
<g id="node45" class="node">
<title>Node56</title>
<polygon fill="#ffffff" stroke="#bfbfbf" points="1126.5,-58.5 1126.5,-79.5 1155.5,-79.5 1155.5,-58.5 1126.5,-58.5"/>
<text text-anchor="middle" x="1141" y="-65.9" font-family="Helvetica,sans-Serif" font-size="12.00" fill="#000000">ios</text>
</g>
<!-- Node55&#45;&gt;Node56 -->
<g id="edge58" class="edge">
<title>Node55&#45;&gt;Node56</title>
<path fill="none" stroke="#191970" d="M1094.4547,-116.3619C1102.5699,-108.1043 1114.0012,-96.4725 1123.5041,-86.8029"/>
<polygon fill="#191970" stroke="#191970" points="1126.0986,-89.1562 1130.6116,-79.5707 1121.1059,-84.2497 1126.0986,-89.1562"/>
</g>
<!-- Node55&#45;&gt;Node57 -->
<g id="edge60" class="edge">
<title>Node55&#45;&gt;Node57</title>
<path fill="none" stroke="#191970" d="M1127.3039,-125.6059C1206.368,-122.3873 1379.3328,-112.2342 1533.2682,-79.732"/>
<polygon fill="#191970" stroke="#191970" points="1534.3378,-83.0822 1543.3789,-77.5587 1532.8666,-76.2385 1534.3378,-83.0822"/>
</g>
<!-- Node58 -->
<g id="node47" class="node">
<title>Node58</title>
<polygon fill="#ffffff" stroke="#bfbfbf" points="1173.5,-58.5 1173.5,-79.5 1216.5,-79.5 1216.5,-58.5 1173.5,-58.5"/>
<text text-anchor="middle" x="1195" y="-65.9" font-family="Helvetica,sans-Serif" font-size="12.00" fill="#000000">stdio.h</text>
</g>
<!-- Node55&#45;&gt;Node58 -->
<g id="edge63" class="edge">
<title>Node55&#45;&gt;Node58</title>
<path fill="none" stroke="#191970" d="M1104.1013,-116.4966C1121.2819,-107.5194 1146.2298,-94.4835 1165.6449,-84.3387"/>
<polygon fill="#191970" stroke="#191970" points="1167.4311,-87.3544 1174.6732,-79.6212 1164.1893,-81.1503 1167.4311,-87.3544"/>
</g>
<!-- Node61&#45;&gt;Node3 -->
<g id="edge76" class="edge">
<title>Node61&#45;&gt;Node3</title>
<path fill="none" stroke="#191970" d="M588.3721,-116.2949C566.6189,-96.2682 519.5817,-52.9641 493.1057,-28.5893"/>
<polygon fill="#191970" stroke="#191970" points="495.3274,-25.8774 485.5998,-21.6792 490.5862,-31.0273 495.3274,-25.8774"/>
</g>
<!-- Node61&#45;&gt;Node7 -->
<g id="edge72" class="edge">
<title>Node61&#45;&gt;Node7</title>
<path fill="none" stroke="#191970" d="M609.6899,-116.2949C627.6613,-96.4408 666.341,-53.709 688.5042,-29.2239"/>
<polygon fill="#191970" stroke="#191970" points="691.2175,-31.4419 695.3335,-21.6792 686.0278,-26.7443 691.2175,-31.4419"/>
</g>
<!-- Node61&#45;&gt;Node9 -->
<g id="edge74" class="edge">
<title>Node61&#45;&gt;Node9</title>
<path fill="none" stroke="#191970" d="M600.2769,-116.2949C600.7725,-97.1314 601.8193,-56.654 602.4609,-31.8434"/>
<polygon fill="#191970" stroke="#191970" points="605.964,-31.7664 602.7238,-21.6792 598.9664,-31.5853 605.964,-31.7664"/>
</g>
<!-- Node61&#45;&gt;Node11 -->
<g id="edge73" class="edge">
<title>Node61&#45;&gt;Node11</title>
<path fill="none" stroke="#191970" d="M654.5605,-116.4606C734.1633,-101.4335 886.9375,-73.9125 1018,-58 1236.6712,-31.4508 1502.0179,-16.7876 1589.4832,-12.4118"/>
<polygon fill="#191970" stroke="#191970" points="1589.6677,-15.907 1599.4828,-11.9178 1589.3223,-8.9155 1589.6677,-15.907"/>
</g>
<!-- Node61&#45;&gt;Node12 -->
<g id="edge78" class="edge">
<title>Node61&#45;&gt;Node12</title>
<path fill="none" stroke="#191970" d="M594.4629,-116.2949C584.4168,-96.8724 563.0463,-55.5561 550.2653,-30.8462"/>
<polygon fill="#191970" stroke="#191970" points="553.2268,-28.9534 545.5237,-21.6792 547.0092,-32.1694 553.2268,-28.9534"/>
</g>
<!-- Node61&#45;&gt;Node24 -->
<g id="edge79" class="edge">
<title>Node61&#45;&gt;Node24</title>
<path fill="none" stroke="#191970" d="M669.7581,-119.8837C741.9519,-112.0358 857.8321,-98.0867 957,-80 999.2104,-72.3015 1008.5216,-64.0477 1051,-58 1130.8206,-46.6358 1672.1817,-22.4727 1867.7246,-14.0063"/>
<polygon fill="#191970" stroke="#191970" points="1868.0448,-17.4959 1877.8842,-13.5671 1867.7424,-10.5024 1868.0448,-17.4959"/>
</g>
<!-- Node61&#45;&gt;Node27 -->
<g id="edge77" class="edge">
<title>Node61&#45;&gt;Node27</title>
<path fill="none" stroke="#191970" d="M615.9653,-116.2949C646.3478,-95.9229 712.6529,-51.4639 748.6224,-27.3457"/>
<polygon fill="#191970" stroke="#191970" points="750.7168,-30.1554 757.0733,-21.6792 746.8183,-24.3414 750.7168,-30.1554"/>
</g>
<!-- Node61&#45;&gt;Node38 -->
<g id="edge80" class="edge">
<title>Node61&#45;&gt;Node38</title>
<path fill="none" stroke="#191970" d="M637.124,-116.4966C670.9785,-106.9183 721.1636,-92.7196 757.8437,-82.3418"/>
<polygon fill="#191970" stroke="#191970" points="759.137,-85.6133 767.8064,-79.5231 757.2313,-78.8777 759.137,-85.6133"/>
</g>
<!-- Node61&#45;&gt;Node41 -->
<g id="edge75" class="edge">
<title>Node61&#45;&gt;Node41</title>
<path fill="none" stroke="#191970" d="M623.1308,-116.369C643.4595,-106.9687 673.8011,-92.7992 700,-80 736.8144,-62.0147 778.818,-40.5593 806.284,-26.4015"/>
<polygon fill="#191970" stroke="#191970" points="808.0802,-29.4132 815.3604,-21.7157 804.869,-23.1931 808.0802,-29.4132"/>
</g>
<!-- Node61&#45;&gt;Node66 -->
<g id="edge81" class="edge">
<title>Node61&#45;&gt;Node66</title>
<path fill="none" stroke="#191970" d="M555.4513,-116.4966C514.0897,-106.7447 452.4149,-92.2035 408.2112,-81.7815"/>
<polygon fill="#191970" stroke="#191970" points="408.7537,-78.3135 398.2173,-79.4252 407.1473,-85.1267 408.7537,-78.3135"/>
</g>
<!-- Node66&#45;&gt;Node8 -->
<g id="edge82" class="edge">
<title>Node66&#45;&gt;Node8</title>
<path fill="none" stroke="#191970" d="M354,-58.3619C354,-50.9219 354,-40.7427 354,-31.7276"/>
<polygon fill="#191970" stroke="#191970" points="357.5001,-31.5706 354,-21.5707 350.5001,-31.5707 357.5001,-31.5706"/>
</g>
<!-- Node67&#45;&gt;Node8 -->
<g id="edge98" class="edge">
<title>Node67&#45;&gt;Node8</title>
<path fill="none" stroke="#191970" d="M939.9659,-365.1356C751.3897,-342.057 168,-264.2552 168,-185 168,-185 168,-185 168,-127 168,-94.5312 168.4479,-80.35 192,-58 210.7506,-40.2064 280.6803,-24.6028 322.2852,-16.6306"/>
<polygon fill="#191970" stroke="#191970" points="323.0201,-20.0539 332.2041,-14.7715 321.7305,-13.1737 323.0201,-20.0539"/>
</g>
<!-- Node67&#45;&gt;Node11 -->
<g id="edge97" class="edge">
<title>Node67&#45;&gt;Node11</title>
<path fill="none" stroke="#191970" d="M1056.1777,-367.5514C1282.026,-350.1493 2089.0946,-286.6807 2107,-267 2154.3983,-214.9021 2128.1215,-161.3781 1909,-58 1863.1051,-36.3475 1713.3425,-19.9589 1648.9139,-13.7332"/>
<polygon fill="#191970" stroke="#191970" points="1648.9117,-10.2173 1638.6254,-12.7557 1648.2495,-17.1859 1648.9117,-10.2173"/>
</g>
<!-- Node67&#45;&gt;Node24 -->
<g id="edge94" class="edge">
<title>Node67&#45;&gt;Node24</title>
<path fill="none" stroke="#191970" d="M1056.3328,-367.5202C1083.5719,-365.4653 1116.4401,-363.0385 1146,-361 1255.5708,-353.4437 2057.8718,-349.8275 2130,-267 2205.071,-180.7933 2035.4276,-67.7827 1965.9537,-26.7474"/>
<polygon fill="#191970" stroke="#191970" points="1967.6351,-23.6763 1957.233,-21.6645 1964.1101,-29.724 1967.6351,-23.6763"/>
</g>
<!-- Node67&#45;&gt;Node25 -->
<g id="edge96" class="edge">
<title>Node67&#45;&gt;Node25</title>
<path fill="none" stroke="#191970" d="M1013.7737,-361.3619C1026.6239,-352.6955 1044.9848,-340.3126 1059.7097,-330.3819"/>
<polygon fill="#191970" stroke="#191970" points="1061.9925,-333.0639 1068.3263,-324.5707 1058.0785,-327.2604 1061.9925,-333.0639"/>
</g>
<!-- Node67&#45;&gt;Node38 -->
<g id="edge95" class="edge">
<title>Node67&#45;&gt;Node38</title>
<path fill="none" stroke="#191970" d="M939.7217,-363.0782C849.3418,-347.9183 682.0916,-314.1256 647,-267 595.1416,-197.3578 717.254,-117.3646 775.8366,-84.4107"/>
<polygon fill="#191970" stroke="#191970" points="777.5987,-87.4358 784.6569,-79.5344 774.2118,-81.3097 777.5987,-87.4358"/>
</g>
</g>
</svg>
