<?xml version="1.0" encoding="UTF-8" standalone="no"?>
<!DOCTYPE svg PUBLIC "-//W3C//DTD SVG 1.1//EN"
 "http://www.w3.org/Graphics/SVG/1.1/DTD/svg11.dtd">
<!-- Generated by graphviz version 2.40.1 (20161225.0304)
 -->
<!-- Title: timemory/timer.hpp Pages: 1 -->
<svg width="2502pt" height="262pt"
 viewBox="0.00 0.00 2502.00 262.00" xmlns="http://www.w3.org/2000/svg" xmlns:xlink="http://www.w3.org/1999/xlink">
<g id="graph0" class="graph" transform="scale(1 1) rotate(0) translate(4 258)">
<title>timemory/timer.hpp</title>
<polygon fill="#ffffff" stroke="transparent" points="-4,4 -4,-258 2498,-258 2498,4 -4,4"/>
<!-- Node0 -->
<g id="node1" class="node">
<title>Node0</title>
<polygon fill="#bfbfbf" stroke="#000000" points="1233,-232.5 1233,-253.5 1327,-253.5 1327,-232.5 1233,-232.5"/>
<text text-anchor="middle" x="1280" y="-239.9" font-family="Helvetica,sans-Serif" font-size="12.00" fill="#000000">timemory/timer.hpp</text>
</g>
<!-- Node1 -->
<g id="node2" class="node">
<title>Node1</title>
<g id="a_node2"><a xlink:href="../../db/d19/namespace_8hpp.html" target="_top" xlink:title="timemory/namespace.hpp">
<polygon fill="#ffffff" stroke="#000000" points="634,-.5 634,-21.5 754,-21.5 754,-.5 634,-.5"/>
<text text-anchor="middle" x="694" y="-7.9" font-family="Helvetica,sans-Serif" font-size="12.00" fill="#000000">timemory/namespace.hpp</text>
</a>
</g>
</g>
<!-- Node0&#45;&gt;Node1 -->
<g id="edge1" class="edge">
<title>Node0&#45;&gt;Node1</title>
<path fill="none" stroke="#191970" d="M1252.7021,-232.3767C1191.7137,-208.2641 1040.3724,-146.319 921,-80 905.5912,-71.4394 904.1462,-65.0723 888,-58 864.5881,-47.7452 803.7464,-33.7036 756.3821,-23.6439"/>
<polygon fill="#191970" stroke="#191970" points="757.0049,-20.1983 746.498,-21.5605 755.5611,-27.0478 757.0049,-20.1983"/>
</g>
<!-- Node2 -->
<g id="node3" class="node">
<title>Node2</title>
<g id="a_node3"><a xlink:href="../../d6/d01/base__timer_8hpp.html" target="_top" xlink:title="timemory/base_timer.hpp">
<polygon fill="#ffffff" stroke="#000000" points="1629,-174.5 1629,-195.5 1747,-195.5 1747,-174.5 1629,-174.5"/>
<text text-anchor="middle" x="1688" y="-181.9" font-family="Helvetica,sans-Serif" font-size="12.00" fill="#000000">timemory/base_timer.hpp</text>
</a>
</g>
</g>
<!-- Node0&#45;&gt;Node2 -->
<g id="edge2" class="edge">
<title>Node0&#45;&gt;Node2</title>
<path fill="none" stroke="#191970" d="M1327.2014,-236.29C1398.8868,-226.0994 1535.6191,-206.662 1618.6269,-194.8619"/>
<polygon fill="#191970" stroke="#191970" points="1619.3166,-198.2991 1628.7244,-193.4264 1618.3313,-191.3688 1619.3166,-198.2991"/>
</g>
<!-- Node2&#45;&gt;Node1 -->
<g id="edge3" class="edge">
<title>Node2&#45;&gt;Node1</title>
<path fill="none" stroke="#191970" d="M1628.8321,-179.5496C1550.5846,-171.9987 1408.5101,-157.0993 1288,-138 1158.1789,-117.4251 1125.741,-110.9691 998,-80 963.4104,-71.6142 955.5611,-66.5028 921,-58 867.4097,-44.8156 806.0983,-32.2701 760.7143,-23.4621"/>
<polygon fill="#191970" stroke="#191970" points="761.1828,-19.988 750.7006,-21.5291 759.856,-26.8611 761.1828,-19.988"/>
</g>
<!-- Node3 -->
<g id="node4" class="node">
<title>Node3</title>
<g id="a_node4"><a xlink:href="../../d8/d4e/base__clock_8hpp.html" target="_top" xlink:title="timemory/base_clock.hpp">
<polygon fill="#ffffff" stroke="#000000" points="1142.5,-58.5 1142.5,-79.5 1261.5,-79.5 1261.5,-58.5 1142.5,-58.5"/>
<text text-anchor="middle" x="1202" y="-65.9" font-family="Helvetica,sans-Serif" font-size="12.00" fill="#000000">timemory/base_clock.hpp</text>
</a>
</g>
</g>
<!-- Node2&#45;&gt;Node3 -->
<g id="edge4" class="edge">
<title>Node2&#45;&gt;Node3</title>
<path fill="none" stroke="#191970" d="M1643.5824,-174.3983C1554.1874,-153.0612 1352.8464,-105.0045 1256.0166,-81.8929"/>
<polygon fill="#191970" stroke="#191970" points="1256.678,-78.4525 1246.1387,-79.5352 1255.0528,-85.2612 1256.678,-78.4525"/>
</g>
<!-- Node20 -->
<g id="node21" class="node">
<title>Node20</title>
<polygon fill="#ffffff" stroke="#bfbfbf" points="1565,-.5 1565,-21.5 1651,-21.5 1651,-.5 1565,-.5"/>
<text text-anchor="middle" x="1608" y="-7.9" font-family="Helvetica,sans-Serif" font-size="12.00" fill="#000000">cereal/cereal.hpp</text>
</g>
<!-- Node2&#45;&gt;Node20 -->
<g id="edge82" class="edge">
<title>Node2&#45;&gt;Node20</title>
<path fill="none" stroke="#191970" d="M1683.1161,-174.3774C1670.0924,-146.0509 1634.3673,-68.3488 1617.3068,-31.2424"/>
<polygon fill="#191970" stroke="#191970" points="1620.3816,-29.5513 1613.0242,-21.9277 1614.0216,-32.4755 1620.3816,-29.5513"/>
</g>
<!-- Node21 -->
<g id="node22" class="node">
<title>Node21</title>
<polygon fill="#ffffff" stroke="#bfbfbf" points="2017.5,-.5 2017.5,-21.5 2130.5,-21.5 2130.5,-.5 2017.5,-.5"/>
<text text-anchor="middle" x="2074" y="-7.9" font-family="Helvetica,sans-Serif" font-size="12.00" fill="#000000">cereal/types/chrono.hpp</text>
</g>
<!-- Node2&#45;&gt;Node21 -->
<g id="edge85" class="edge">
<title>Node2&#45;&gt;Node21</title>
<path fill="none" stroke="#191970" d="M1707.9384,-174.412C1725.1183,-165.1548 1750.4755,-151.1691 1772,-138 1799.3385,-121.2738 1862.7408,-71.079 1892,-58 1928.6067,-41.6366 1972.0002,-30.1537 2007.2327,-22.6359"/>
<polygon fill="#191970" stroke="#191970" points="2008.3325,-25.9824 2017.4135,-20.5247 2006.9111,-19.1282 2008.3325,-25.9824"/>
</g>
<!-- Node22 -->
<g id="node23" class="node">
<title>Node22</title>
<polygon fill="#ffffff" stroke="#bfbfbf" points="1669,-.5 1669,-21.5 1779,-21.5 1779,-.5 1669,-.5"/>
<text text-anchor="middle" x="1724" y="-7.9" font-family="Helvetica,sans-Serif" font-size="12.00" fill="#000000">cereal/types/deque.hpp</text>
</g>
<!-- Node2&#45;&gt;Node22 -->
<g id="edge86" class="edge">
<title>Node2&#45;&gt;Node22</title>
<path fill="none" stroke="#191970" d="M1688.8758,-174.3222C1690.8391,-152.3021 1696.2833,-100.3617 1707,-58 1709.2744,-49.0096 1712.6127,-39.3342 1715.7302,-31.1127"/>
<polygon fill="#191970" stroke="#191970" points="1719.0541,-32.2242 1719.4642,-21.6373 1712.5415,-29.6578 1719.0541,-32.2242"/>
</g>
<!-- Node23 -->
<g id="node24" class="node">
<title>Node23</title>
<polygon fill="#ffffff" stroke="#bfbfbf" points="1910.5,-.5 1910.5,-21.5 1999.5,-21.5 1999.5,-.5 1910.5,-.5"/>
<text text-anchor="middle" x="1955" y="-7.9" font-family="Helvetica,sans-Serif" font-size="12.00" fill="#000000">cereal/access.hpp</text>
</g>
<!-- Node2&#45;&gt;Node23 -->
<g id="edge83" class="edge">
<title>Node2&#45;&gt;Node23</title>
<path fill="none" stroke="#191970" d="M1699.8364,-174.4766C1726.1833,-151.3926 1792.2254,-95.3921 1854,-58 1874.6171,-45.5205 1899.0932,-34.0542 1918.7868,-25.5715"/>
<polygon fill="#191970" stroke="#191970" points="1920.1893,-28.7785 1928.0325,-21.6556 1917.4593,-22.3328 1920.1893,-28.7785"/>
</g>
<!-- Node24 -->
<g id="node25" class="node">
<title>Node24</title>
<g id="a_node25"><a xlink:href="../../d9/dd2/rss_8hpp.html" target="_top" xlink:title="timemory/rss.hpp">
<polygon fill="#ffffff" stroke="#000000" points="1716,-58.5 1716,-79.5 1802,-79.5 1802,-58.5 1716,-58.5"/>
<text text-anchor="middle" x="1759" y="-65.9" font-family="Helvetica,sans-Serif" font-size="12.00" fill="#000000">timemory/rss.hpp</text>
</a>
</g>
</g>
<!-- Node2&#45;&gt;Node24 -->
<g id="edge26" class="edge">
<title>Node2&#45;&gt;Node24</title>
<path fill="none" stroke="#191970" d="M1694.5522,-174.2949C1706.493,-154.7861 1731.9537,-113.1884 1747.0538,-88.5177"/>
<polygon fill="#191970" stroke="#191970" points="1750.2283,-90.0356 1752.4636,-79.6792 1744.2579,-86.3812 1750.2283,-90.0356"/>
</g>
<!-- Node26 -->
<g id="node27" class="node">
<title>Node26</title>
<polygon fill="#ffffff" stroke="#bfbfbf" points="2209.5,-.5 2209.5,-21.5 2256.5,-21.5 2256.5,-.5 2209.5,-.5"/>
<text text-anchor="middle" x="2233" y="-7.9" font-family="Helvetica,sans-Serif" font-size="12.00" fill="#000000">fstream</text>
</g>
<!-- Node2&#45;&gt;Node26 -->
<g id="edge79" class="edge">
<title>Node2&#45;&gt;Node26</title>
<path fill="none" stroke="#191970" d="M1722.0044,-174.498C1802.9753,-149.426 2013.7423,-83.7832 2199.585,-22.4277"/>
<polygon fill="#191970" stroke="#191970" points="2200.8589,-25.693 2209.2553,-19.2315 2198.6621,-19.0466 2200.8589,-25.693"/>
</g>
<!-- Node27 -->
<g id="node28" class="node">
<title>Node27</title>
<polygon fill="#ffffff" stroke="#bfbfbf" points="772.5,-.5 772.5,-21.5 811.5,-21.5 811.5,-.5 772.5,-.5"/>
<text text-anchor="middle" x="792" y="-7.9" font-family="Helvetica,sans-Serif" font-size="12.00" fill="#000000">string</text>
</g>
<!-- Node2&#45;&gt;Node27 -->
<g id="edge80" class="edge">
<title>Node2&#45;&gt;Node27</title>
<path fill="none" stroke="#191970" d="M1628.7376,-176.0592C1570.0488,-167.0487 1477.6701,-152.4454 1398,-138 1390.4785,-136.6362 900.064,-38.7283 821.8466,-21.6131"/>
<polygon fill="#191970" stroke="#191970" points="822.2684,-18.1175 811.7344,-19.251 820.6761,-24.934 822.2684,-18.1175"/>
</g>
<!-- Node29 -->
<g id="node30" class="node">
<title>Node29</title>
<polygon fill="#ffffff" stroke="#bfbfbf" points="2274.5,-.5 2274.5,-21.5 2365.5,-21.5 2365.5,-.5 2274.5,-.5"/>
<text text-anchor="middle" x="2320" y="-7.9" font-family="Helvetica,sans-Serif" font-size="12.00" fill="#000000">cereal/macros.hpp</text>
</g>
<!-- Node2&#45;&gt;Node29 -->
<g id="edge84" class="edge">
<title>Node2&#45;&gt;Node29</title>
<path fill="none" stroke="#191970" d="M1747.2711,-179.3078C1807.9519,-172.632 1904.6336,-159.6359 1986,-138 2100.1511,-107.6464 2229.2596,-52.1918 2287.9318,-25.7645"/>
<polygon fill="#191970" stroke="#191970" points="2289.3956,-28.9439 2297.0611,-21.6301 2286.5078,-22.5673 2289.3956,-28.9439"/>
</g>
<!-- Node30 -->
<g id="node31" class="node">
<title>Node30</title>
<polygon fill="#ffffff" stroke="#bfbfbf" points="2384,-.5 2384,-21.5 2494,-21.5 2494,-.5 2384,-.5"/>
<text text-anchor="middle" x="2439" y="-7.9" font-family="Helvetica,sans-Serif" font-size="12.00" fill="#000000">cereal/types/vector.hpp</text>
</g>
<!-- Node2&#45;&gt;Node30 -->
<g id="edge87" class="edge">
<title>Node2&#45;&gt;Node30</title>
<path fill="none" stroke="#191970" d="M1747.1346,-179.9881C1816.2741,-173.4288 1933.8774,-160.091 2033,-138 2171.3833,-107.1591 2330.5286,-51.1568 2401.4808,-25.0721"/>
<polygon fill="#191970" stroke="#191970" points="2402.7272,-28.343 2410.8958,-21.5958 2400.3025,-21.7763 2402.7272,-28.343"/>
</g>
<!-- Node31 -->
<g id="node32" class="node">
<title>Node31</title>
<g id="a_node32"><a xlink:href="../../d1/d4e/utility_8hpp.html" target="_top" xlink:title="timemory/utility.hpp">
<polygon fill="#ffffff" stroke="#000000" points="331,-58.5 331,-79.5 425,-79.5 425,-58.5 331,-58.5"/>
<text text-anchor="middle" x="378" y="-65.9" font-family="Helvetica,sans-Serif" font-size="12.00" fill="#000000">timemory/utility.hpp</text>
</a>
</g>
</g>
<!-- Node2&#45;&gt;Node31 -->
<g id="edge42" class="edge">
<title>Node2&#45;&gt;Node31</title>
<path fill="none" stroke="#191970" d="M1628.8272,-184.4699C1402.2935,-182.1966 597.3733,-171.7959 488,-138 453.3574,-127.2956 418.8243,-102.8051 397.9378,-86.077"/>
<polygon fill="#191970" stroke="#191970" points="400.0685,-83.2978 390.1173,-79.6611 395.6286,-88.7097 400.0685,-83.2978"/>
</g>
<!-- Node38 -->
<g id="node39" class="node">
<title>Node38</title>
<g id="a_node39"><a xlink:href="../../da/d8e/signal__detection_8hpp.html" target="_top" xlink:title="timemory/signal_detection.hpp">
<polygon fill="#ffffff" stroke="#000000" points="497.5,-116.5 497.5,-137.5 636.5,-137.5 636.5,-116.5 497.5,-116.5"/>
<text text-anchor="middle" x="567" y="-123.9" font-family="Helvetica,sans-Serif" font-size="12.00" fill="#000000">timemory/signal_detection.hpp</text>
</a>
</g>
</g>
<!-- Node2&#45;&gt;Node38 -->
<g id="edge57" class="edge">
<title>Node2&#45;&gt;Node38</title>
<path fill="none" stroke="#191970" d="M1628.9157,-181.943C1441.5347,-172.248 860.3723,-142.1789 646.7942,-131.1285"/>
<polygon fill="#191970" stroke="#191970" points="646.7674,-127.6225 636.5999,-130.6011 646.4056,-134.6132 646.7674,-127.6225"/>
</g>
<!-- Node44 -->
<g id="node45" class="node">
<title>Node44</title>
<polygon fill="#ffffff" stroke="#bfbfbf" points="1934.5,-116.5 1934.5,-137.5 1977.5,-137.5 1977.5,-116.5 1934.5,-116.5"/>
<text text-anchor="middle" x="1956" y="-123.9" font-family="Helvetica,sans-Serif" font-size="12.00" fill="#000000">atomic</text>
</g>
<!-- Node2&#45;&gt;Node44 -->
<g id="edge81" class="edge">
<title>Node2&#45;&gt;Node44</title>
<path fill="none" stroke="#191970" d="M1747.4773,-174.589C1794.5581,-165.9546 1861.8387,-152.7404 1920,-138 1921.465,-137.6287 1922.959,-137.2348 1924.4649,-136.8252"/>
<polygon fill="#191970" stroke="#191970" points="1925.7488,-140.098 1934.3933,-133.9725 1923.8156,-133.3703 1925.7488,-140.098"/>
</g>
<!-- Node3&#45;&gt;Node1 -->
<g id="edge25" class="edge">
<title>Node3&#45;&gt;Node1</title>
<path fill="none" stroke="#191970" d="M1142.2378,-63.5845C1059.636,-55.8811 905.676,-40.7391 764.3375,-22.1273"/>
<polygon fill="#191970" stroke="#191970" points="764.5573,-18.6259 754.1841,-20.7813 763.6373,-25.5652 764.5573,-18.6259"/>
</g>
<!-- Node4 -->
<g id="node5" class="node">
<title>Node4</title>
<polygon fill="#ffffff" stroke="#bfbfbf" points="1797,-.5 1797,-21.5 1845,-21.5 1845,-.5 1797,-.5"/>
<text text-anchor="middle" x="1821" y="-7.9" font-family="Helvetica,sans-Serif" font-size="12.00" fill="#000000">unistd.h</text>
</g>
<!-- Node3&#45;&gt;Node4 -->
<g id="edge5" class="edge">
<title>Node3&#45;&gt;Node4</title>
<path fill="none" stroke="#191970" d="M1261.7059,-65.0335C1394.0806,-56.1267 1706.26,-34.4654 1786.5555,-21.6616"/>
<polygon fill="#191970" stroke="#191970" points="1787.4498,-25.0569 1796.6708,-19.8393 1786.2087,-18.1678 1787.4498,-25.0569"/>
</g>
<!-- Node5 -->
<g id="node6" class="node">
<title>Node5</title>
<polygon fill="#ffffff" stroke="#bfbfbf" points="1265,-.5 1265,-21.5 1327,-21.5 1327,-.5 1265,-.5"/>
<text text-anchor="middle" x="1296" y="-7.9" font-family="Helvetica,sans-Serif" font-size="12.00" fill="#000000">sys/times.h</text>
</g>
<!-- Node3&#45;&gt;Node5 -->
<g id="edge6" class="edge">
<title>Node3&#45;&gt;Node5</title>
<path fill="none" stroke="#191970" d="M1219.241,-58.3619C1233.5516,-49.532 1254.115,-36.844 1270.3568,-26.8224"/>
<polygon fill="#191970" stroke="#191970" points="1272.1958,-29.8004 1278.8683,-21.5707 1268.52,-23.8431 1272.1958,-29.8004"/>
</g>
<!-- Node6 -->
<g id="node7" class="node">
<title>Node6</title>
<polygon fill="#ffffff" stroke="#bfbfbf" points="829.5,-.5 829.5,-21.5 880.5,-21.5 880.5,-.5 829.5,-.5"/>
<text text-anchor="middle" x="855" y="-7.9" font-family="Helvetica,sans-Serif" font-size="12.00" fill="#000000">iostream</text>
</g>
<!-- Node3&#45;&gt;Node6 -->
<g id="edge7" class="edge">
<title>Node3&#45;&gt;Node6</title>
<path fill="none" stroke="#191970" d="M1142.1832,-60.4994C1065.209,-49.4887 936.7687,-30.8506 890.8871,-21.766"/>
<polygon fill="#191970" stroke="#191970" points="891.3815,-18.2926 880.8704,-19.6221 889.9164,-25.1376 891.3815,-18.2926"/>
</g>
<!-- Node7 -->
<g id="node8" class="node">
<title>Node7</title>
<polygon fill="#ffffff" stroke="#bfbfbf" points="899,-.5 899,-21.5 947,-21.5 947,-.5 899,-.5"/>
<text text-anchor="middle" x="923" y="-7.9" font-family="Helvetica,sans-Serif" font-size="12.00" fill="#000000">iomanip</text>
</g>
<!-- Node3&#45;&gt;Node7 -->
<g id="edge8" class="edge">
<title>Node3&#45;&gt;Node7</title>
<path fill="none" stroke="#191970" d="M1142.3556,-59.8873C1094.4798,-52.0539 1025.4389,-39.5958 956.7303,-21.9486"/>
<polygon fill="#191970" stroke="#191970" points="957.599,-18.5581 947.0396,-19.424 955.8342,-25.332 957.599,-18.5581"/>
</g>
<!-- Node8 -->
<g id="node9" class="node">
<title>Node8</title>
<polygon fill="#ffffff" stroke="#bfbfbf" points="434.5,-.5 434.5,-21.5 483.5,-21.5 483.5,-.5 434.5,-.5"/>
<text text-anchor="middle" x="459" y="-7.9" font-family="Helvetica,sans-Serif" font-size="12.00" fill="#000000">sstream</text>
</g>
<!-- Node3&#45;&gt;Node8 -->
<g id="edge9" class="edge">
<title>Node3&#45;&gt;Node8</title>
<path fill="none" stroke="#191970" d="M1142.4078,-67.0144C998.5387,-61.9135 634.313,-47.0901 493.8049,-21.8926"/>
<polygon fill="#191970" stroke="#191970" points="494.1594,-18.3978 483.6836,-19.9814 492.8605,-25.2762 494.1594,-18.3978"/>
</g>
<!-- Node9 -->
<g id="node10" class="node">
<title>Node9</title>
<polygon fill="#ffffff" stroke="#bfbfbf" points="501.5,-.5 501.5,-21.5 556.5,-21.5 556.5,-.5 501.5,-.5"/>
<text text-anchor="middle" x="529" y="-7.9" font-family="Helvetica,sans-Serif" font-size="12.00" fill="#000000">stdexcept</text>
</g>
<!-- Node3&#45;&gt;Node9 -->
<g id="edge10" class="edge">
<title>Node3&#45;&gt;Node9</title>
<path fill="none" stroke="#191970" d="M1142.3587,-66.3002C1009.722,-60.0281 692.7154,-43.4871 566.9041,-21.9758"/>
<polygon fill="#191970" stroke="#191970" points="567.2169,-18.4759 556.7551,-20.1499 565.9774,-25.3653 567.2169,-18.4759"/>
</g>
<!-- Node10 -->
<g id="node11" class="node">
<title>Node10</title>
<polygon fill="#ffffff" stroke="#bfbfbf" points="574.5,-.5 574.5,-21.5 615.5,-21.5 615.5,-.5 574.5,-.5"/>
<text text-anchor="middle" x="595" y="-7.9" font-family="Helvetica,sans-Serif" font-size="12.00" fill="#000000">vector</text>
</g>
<!-- Node3&#45;&gt;Node10 -->
<g id="edge11" class="edge">
<title>Node3&#45;&gt;Node10</title>
<path fill="none" stroke="#191970" d="M1142.4938,-66.1928C1019.391,-60.0626 739.4657,-44.3703 625.6118,-21.5186"/>
<polygon fill="#191970" stroke="#191970" points="626.2744,-18.0814 615.7658,-19.43 624.8218,-24.929 626.2744,-18.0814"/>
</g>
<!-- Node11 -->
<g id="node12" class="node">
<title>Node11</title>
<polygon fill="#ffffff" stroke="#bfbfbf" points="1345.5,-.5 1345.5,-21.5 1386.5,-21.5 1386.5,-.5 1345.5,-.5"/>
<text text-anchor="middle" x="1366" y="-7.9" font-family="Helvetica,sans-Serif" font-size="12.00" fill="#000000">mutex</text>
</g>
<!-- Node3&#45;&gt;Node11 -->
<g id="edge12" class="edge">
<title>Node3&#45;&gt;Node11</title>
<path fill="none" stroke="#191970" d="M1232.3781,-58.4819C1257.6011,-49.7185 1294.6514,-36.7766 1335.6965,-22.0781"/>
<polygon fill="#191970" stroke="#191970" points="1337.1263,-25.2836 1345.3571,-18.6124 1334.7626,-18.6948 1337.1263,-25.2836"/>
</g>
<!-- Node12 -->
<g id="node13" class="node">
<title>Node12</title>
<polygon fill="#ffffff" stroke="#bfbfbf" points="1405,-.5 1405,-21.5 1485,-21.5 1485,-.5 1405,-.5"/>
<text text-anchor="middle" x="1445" y="-7.9" font-family="Helvetica,sans-Serif" font-size="12.00" fill="#000000">unordered_map</text>
</g>
<!-- Node3&#45;&gt;Node12 -->
<g id="edge13" class="edge">
<title>Node3&#45;&gt;Node12</title>
<path fill="none" stroke="#191970" d="M1246.0055,-58.4966C1288.0046,-48.4721 1351.2066,-33.3869 1395.07,-22.9174"/>
<polygon fill="#191970" stroke="#191970" points="1396.0348,-26.2856 1404.949,-20.5595 1394.4097,-19.4768 1396.0348,-26.2856"/>
</g>
<!-- Node13 -->
<g id="node14" class="node">
<title>Node13</title>
<polygon fill="#ffffff" stroke="#bfbfbf" points="375.5,-.5 375.5,-21.5 416.5,-21.5 416.5,-.5 375.5,-.5"/>
<text text-anchor="middle" x="396" y="-7.9" font-family="Helvetica,sans-Serif" font-size="12.00" fill="#000000">cmath</text>
</g>
<!-- Node3&#45;&gt;Node13 -->
<g id="edge14" class="edge">
<title>Node3&#45;&gt;Node13</title>
<path fill="none" stroke="#191970" d="M1142.4727,-66.4354C978.914,-59.2484 528.5389,-38.4698 426.6384,-21.5847"/>
<polygon fill="#191970" stroke="#191970" points="427.1571,-18.1209 416.6811,-19.7031 425.8573,-24.9991 427.1571,-18.1209"/>
</g>
<!-- Node14 -->
<g id="node15" class="node">
<title>Node14</title>
<polygon fill="#ffffff" stroke="#bfbfbf" points="965,-.5 965,-21.5 1001,-21.5 1001,-.5 965,-.5"/>
<text text-anchor="middle" x="983" y="-7.9" font-family="Helvetica,sans-Serif" font-size="12.00" fill="#000000">tuple</text>
</g>
<!-- Node3&#45;&gt;Node14 -->
<g id="edge15" class="edge">
<title>Node3&#45;&gt;Node14</title>
<path fill="none" stroke="#191970" d="M1150.0846,-58.4573C1113.4042,-50.5187 1063.009,-38.6282 1010.9103,-21.9864"/>
<polygon fill="#191970" stroke="#191970" points="1011.7575,-18.5817 1001.1654,-18.8236 1009.5965,-25.2398 1011.7575,-18.5817"/>
</g>
<!-- Node15 -->
<g id="node16" class="node">
<title>Node15</title>
<polygon fill="#ffffff" stroke="#bfbfbf" points="1019,-.5 1019,-21.5 1053,-21.5 1053,-.5 1019,-.5"/>
<text text-anchor="middle" x="1036" y="-7.9" font-family="Helvetica,sans-Serif" font-size="12.00" fill="#000000">ratio</text>
</g>
<!-- Node3&#45;&gt;Node15 -->
<g id="edge16" class="edge">
<title>Node3&#45;&gt;Node15</title>
<path fill="none" stroke="#191970" d="M1168.0817,-58.4143C1141.574,-49.9641 1103.647,-37.487 1062.6248,-22.0704"/>
<polygon fill="#191970" stroke="#191970" points="1063.859,-18.7953 1053.2677,-18.5225 1061.3773,-25.3406 1063.859,-18.7953"/>
</g>
<!-- Node16 -->
<g id="node17" class="node">
<title>Node16</title>
<polygon fill="#ffffff" stroke="#bfbfbf" points="1071,-.5 1071,-21.5 1115,-21.5 1115,-.5 1071,-.5"/>
<text text-anchor="middle" x="1093" y="-7.9" font-family="Helvetica,sans-Serif" font-size="12.00" fill="#000000">chrono</text>
</g>
<!-- Node3&#45;&gt;Node16 -->
<g id="edge17" class="edge">
<title>Node3&#45;&gt;Node16</title>
<path fill="none" stroke="#191970" d="M1182.2609,-58.4966C1165.3899,-49.5194 1140.8915,-36.4835 1121.8262,-26.3387"/>
<polygon fill="#191970" stroke="#191970" points="1123.4327,-23.2289 1112.9606,-21.6212 1120.1445,-29.4086 1123.4327,-23.2289"/>
</g>
<!-- Node17 -->
<g id="node18" class="node">
<title>Node17</title>
<polygon fill="#ffffff" stroke="#bfbfbf" points="1133,-.5 1133,-21.5 1171,-21.5 1171,-.5 1133,-.5"/>
<text text-anchor="middle" x="1152" y="-7.9" font-family="Helvetica,sans-Serif" font-size="12.00" fill="#000000">ctime</text>
</g>
<!-- Node3&#45;&gt;Node17 -->
<g id="edge18" class="edge">
<title>Node3&#45;&gt;Node17</title>
<path fill="none" stroke="#191970" d="M1192.8292,-58.3619C1185.8516,-50.2678 1176.0792,-38.9318 1167.8445,-29.3796"/>
<polygon fill="#191970" stroke="#191970" points="1170.293,-26.8595 1161.1126,-21.5707 1164.9911,-31.4301 1170.293,-26.8595"/>
</g>
<!-- Node18 -->
<g id="node19" class="node">
<title>Node18</title>
<polygon fill="#ffffff" stroke="#bfbfbf" points="1503.5,-.5 1503.5,-21.5 1546.5,-21.5 1546.5,-.5 1503.5,-.5"/>
<text text-anchor="middle" x="1525" y="-7.9" font-family="Helvetica,sans-Serif" font-size="12.00" fill="#000000">cstdint</text>
</g>
<!-- Node3&#45;&gt;Node18 -->
<g id="edge19" class="edge">
<title>Node3&#45;&gt;Node18</title>
<path fill="none" stroke="#191970" d="M1261.6494,-62.6131C1318.9164,-55.76 1407.874,-43.2272 1493.5816,-21.7268"/>
<polygon fill="#191970" stroke="#191970" points="1494.6512,-25.0661 1503.4745,-19.2008 1492.9194,-18.2837 1494.6512,-25.0661"/>
</g>
<!-- Node19 -->
<g id="node20" class="node">
<title>Node19</title>
<polygon fill="#ffffff" stroke="#bfbfbf" points="1189,-.5 1189,-21.5 1247,-21.5 1247,-.5 1189,-.5"/>
<text text-anchor="middle" x="1218" y="-7.9" font-family="Helvetica,sans-Serif" font-size="12.00" fill="#000000">type_traits</text>
</g>
<!-- Node3&#45;&gt;Node19 -->
<g id="edge20" class="edge">
<title>Node3&#45;&gt;Node19</title>
<path fill="none" stroke="#191970" d="M1204.9346,-58.3619C1207.0096,-50.8401 1209.8569,-40.5187 1212.3639,-31.4308"/>
<polygon fill="#191970" stroke="#191970" points="1215.7986,-32.1414 1215.084,-21.5707 1209.0506,-30.2798 1215.7986,-32.1414"/>
</g>
<!-- Node3&#45;&gt;Node20 -->
<g id="edge21" class="edge">
<title>Node3&#45;&gt;Node20</title>
<path fill="none" stroke="#191970" d="M1261.5329,-62.4043C1331.8639,-54.305 1452.2994,-39.4711 1555,-22 1555.1013,-21.9828 1555.2028,-21.9655 1555.3043,-21.9481"/>
<polygon fill="#191970" stroke="#191970" points="1555.7319,-25.4276 1564.9507,-20.2061 1554.4878,-18.539 1555.7319,-25.4276"/>
</g>
<!-- Node3&#45;&gt;Node21 -->
<g id="edge22" class="edge">
<title>Node3&#45;&gt;Node21</title>
<path fill="none" stroke="#191970" d="M1261.7854,-65.0119C1294.3642,-62.8688 1335.3934,-60.2187 1372,-58 1651.7266,-41.0459 1725.4948,-53.4091 2007.2218,-22.1035"/>
<polygon fill="#191970" stroke="#191970" points="2007.7838,-25.5626 2017.3322,-20.9713 2007.0047,-18.606 2007.7838,-25.5626"/>
</g>
<!-- Node3&#45;&gt;Node22 -->
<g id="edge23" class="edge">
<title>Node3&#45;&gt;Node22</title>
<path fill="none" stroke="#191970" d="M1261.8059,-64.1685C1347.4371,-56.9615 1510.1371,-42.1961 1658.6642,-22.1115"/>
<polygon fill="#191970" stroke="#191970" points="1659.4434,-25.5377 1668.8788,-20.7186 1658.4976,-18.6019 1659.4434,-25.5377"/>
</g>
<!-- Node3&#45;&gt;Node23 -->
<g id="edge24" class="edge">
<title>Node3&#45;&gt;Node23</title>
<path fill="none" stroke="#191970" d="M1261.5439,-65.1025C1416.9759,-54.9155 1827.4571,-27.9257 1900.2472,-21.5905"/>
<polygon fill="#191970" stroke="#191970" points="1900.6868,-25.0642 1910.2894,-20.5875 1899.991,-18.0988 1900.6868,-25.0642"/>
</g>
<!-- Node24&#45;&gt;Node1 -->
<g id="edge41" class="edge">
<title>Node24&#45;&gt;Node1</title>
<path fill="none" stroke="#191970" d="M1715.716,-67.2416C1541.6995,-60.1345 896.5247,-33.411 764.3815,-21.9552"/>
<polygon fill="#191970" stroke="#191970" points="764.443,-18.4456 754.159,-20.9933 763.7871,-25.4148 764.443,-18.4456"/>
</g>
<!-- Node24&#45;&gt;Node4 -->
<g id="edge27" class="edge">
<title>Node24&#45;&gt;Node4</title>
<path fill="none" stroke="#191970" d="M1770.3718,-58.3619C1779.2862,-50.0226 1791.8794,-38.2418 1802.2757,-28.5162"/>
<polygon fill="#191970" stroke="#191970" points="1804.7887,-30.9582 1809.7003,-21.5707 1800.0065,-25.8463 1804.7887,-30.9582"/>
</g>
<!-- Node24&#45;&gt;Node6 -->
<g id="edge29" class="edge">
<title>Node24&#45;&gt;Node6</title>
<path fill="none" stroke="#191970" d="M1715.7358,-67.2965C1556.6004,-60.9463 1007.3745,-38.2564 890.723,-21.5068"/>
<polygon fill="#191970" stroke="#191970" points="891.2424,-18.0454 880.8121,-19.9052 890.1257,-24.9558 891.2424,-18.0454"/>
</g>
<!-- Node24&#45;&gt;Node7 -->
<g id="edge32" class="edge">
<title>Node24&#45;&gt;Node7</title>
<path fill="none" stroke="#191970" d="M1715.8456,-67.1396C1565.2134,-60.5575 1066.4333,-37.9908 957.3963,-21.6144"/>
<polygon fill="#191970" stroke="#191970" points="957.7625,-18.1265 947.3171,-19.9 956.5886,-25.0274 957.7625,-18.1265"/>
</g>
<!-- Node24&#45;&gt;Node18 -->
<g id="edge34" class="edge">
<title>Node24&#45;&gt;Node18</title>
<path fill="none" stroke="#191970" d="M1715.8629,-60.4956C1676.6156,-52.4278 1616.9578,-39.342 1556.3161,-21.8535"/>
<polygon fill="#191970" stroke="#191970" points="1557.1583,-18.4533 1546.578,-19.009 1555.1956,-25.1725 1557.1583,-18.4533"/>
</g>
<!-- Node24&#45;&gt;Node20 -->
<g id="edge35" class="edge">
<title>Node24&#45;&gt;Node20</title>
<path fill="none" stroke="#191970" d="M1731.655,-58.4966C1707.3577,-49.1639 1671.6404,-35.4447 1644.8322,-25.1475"/>
<polygon fill="#191970" stroke="#191970" points="1645.9863,-21.8415 1635.3962,-21.5231 1643.4763,-28.376 1645.9863,-21.8415"/>
</g>
<!-- Node24&#45;&gt;Node21 -->
<g id="edge38" class="edge">
<title>Node24&#45;&gt;Node21</title>
<path fill="none" stroke="#191970" d="M1802.1389,-61.057C1855.0502,-51.3146 1945.3214,-34.6932 2007.2226,-23.2955"/>
<polygon fill="#191970" stroke="#191970" points="2008.0848,-26.6957 2017.2856,-21.4426 2006.8171,-19.8114 2008.0848,-26.6957"/>
</g>
<!-- Node24&#45;&gt;Node22 -->
<g id="edge39" class="edge">
<title>Node24&#45;&gt;Node22</title>
<path fill="none" stroke="#191970" d="M1752.5805,-58.3619C1747.8441,-50.5131 1741.2682,-39.6159 1735.618,-30.2527"/>
<polygon fill="#191970" stroke="#191970" points="1738.5422,-28.3242 1730.3788,-21.5707 1732.5489,-31.9409 1738.5422,-28.3242"/>
</g>
<!-- Node24&#45;&gt;Node23 -->
<g id="edge36" class="edge">
<title>Node24&#45;&gt;Node23</title>
<path fill="none" stroke="#191970" d="M1794.4941,-58.4966C1826.7241,-48.9592 1874.4344,-34.8408 1909.4636,-24.475"/>
<polygon fill="#191970" stroke="#191970" points="1910.8435,-27.7168 1919.4393,-21.5231 1908.8572,-21.0045 1910.8435,-27.7168"/>
</g>
<!-- Node25 -->
<g id="node26" class="node">
<title>Node25</title>
<polygon fill="#ffffff" stroke="#bfbfbf" points="1863.5,-.5 1863.5,-21.5 1892.5,-21.5 1892.5,-.5 1863.5,-.5"/>
<text text-anchor="middle" x="1878" y="-7.9" font-family="Helvetica,sans-Serif" font-size="12.00" fill="#000000">ios</text>
</g>
<!-- Node24&#45;&gt;Node25 -->
<g id="edge28" class="edge">
<title>Node24&#45;&gt;Node25</title>
<path fill="none" stroke="#191970" d="M1780.55,-58.4966C1801.3434,-48.362 1832.7494,-33.0549 1854.2531,-22.5741"/>
<polygon fill="#191970" stroke="#191970" points="1855.9069,-25.6617 1863.3626,-18.1342 1852.84,-19.3693 1855.9069,-25.6617"/>
</g>
<!-- Node24&#45;&gt;Node26 -->
<g id="edge30" class="edge">
<title>Node24&#45;&gt;Node26</title>
<path fill="none" stroke="#191970" d="M1802.3075,-64.9545C1900.1081,-55.7431 2134.0863,-33.2586 2199.5095,-21.7276"/>
<polygon fill="#191970" stroke="#191970" points="2200.272,-25.1446 2209.4049,-19.7742 2198.9164,-18.2772 2200.272,-25.1446"/>
</g>
<!-- Node24&#45;&gt;Node27 -->
<g id="edge31" class="edge">
<title>Node24&#45;&gt;Node27</title>
<path fill="none" stroke="#191970" d="M1715.7518,-67.2254C1544.8191,-60.1635 921.1682,-33.9276 821.768,-21.2513"/>
<polygon fill="#191970" stroke="#191970" points="822.066,-17.7545 811.6382,-19.6288 820.9588,-24.6664 822.066,-17.7545"/>
</g>
<!-- Node28 -->
<g id="node29" class="node">
<title>Node28</title>
<polygon fill="#ffffff" stroke="#bfbfbf" points="2148.5,-.5 2148.5,-21.5 2191.5,-21.5 2191.5,-.5 2148.5,-.5"/>
<text text-anchor="middle" x="2170" y="-7.9" font-family="Helvetica,sans-Serif" font-size="12.00" fill="#000000">stdio.h</text>
</g>
<!-- Node24&#45;&gt;Node28 -->
<g id="edge33" class="edge">
<title>Node24&#45;&gt;Node28</title>
<path fill="none" stroke="#191970" d="M1802.1696,-64.9296C1884.1893,-56.9987 2060.6399,-38.9434 2138.3685,-21.9246"/>
<polygon fill="#191970" stroke="#191970" points="2139.2726,-25.3079 2148.2236,-19.6395 2137.6914,-18.4888 2139.2726,-25.3079"/>
</g>
<!-- Node24&#45;&gt;Node29 -->
<g id="edge37" class="edge">
<title>Node24&#45;&gt;Node29</title>
<path fill="none" stroke="#191970" d="M1802.2568,-66.5781C1888.4106,-61.4115 2087.6812,-47.7483 2264.3986,-22.1184"/>
<polygon fill="#191970" stroke="#191970" points="2265.0102,-25.5662 2274.3963,-20.6519 2263.9942,-18.6403 2265.0102,-25.5662"/>
</g>
<!-- Node24&#45;&gt;Node30 -->
<g id="edge40" class="edge">
<title>Node24&#45;&gt;Node30</title>
<path fill="none" stroke="#191970" d="M1802.0803,-67.1095C1901.1589,-62.4619 2153.0067,-48.9395 2373.7361,-22.0594"/>
<polygon fill="#191970" stroke="#191970" points="2374.3928,-25.5051 2383.8908,-20.8105 2373.5383,-18.5574 2374.3928,-25.5051"/>
</g>
<!-- Node31&#45;&gt;Node1 -->
<g id="edge56" class="edge">
<title>Node31&#45;&gt;Node1</title>
<path fill="none" stroke="#191970" d="M425.3084,-60.3168C478.8036,-50.4981 566.3202,-34.4349 626.8669,-23.3219"/>
<polygon fill="#191970" stroke="#191970" points="627.5137,-26.7617 636.7176,-21.5139 626.25,-19.8767 627.5137,-26.7617"/>
</g>
<!-- Node31&#45;&gt;Node6 -->
<g id="edge43" class="edge">
<title>Node31&#45;&gt;Node6</title>
<path fill="none" stroke="#191970" d="M425.251,-67.0551C504.8006,-63.1137 670.4962,-52.0382 818.9531,-21.8615"/>
<polygon fill="#191970" stroke="#191970" points="820.074,-25.2038 829.1579,-19.751 818.6562,-18.3489 820.074,-25.2038"/>
</g>
<!-- Node31&#45;&gt;Node7 -->
<g id="edge48" class="edge">
<title>Node31&#45;&gt;Node7</title>
<path fill="none" stroke="#191970" d="M425.0073,-68.1388C513.9763,-65.7631 712.999,-56.8869 888.7187,-21.6168"/>
<polygon fill="#191970" stroke="#191970" points="889.561,-25.0171 898.659,-19.5879 888.1611,-18.1585 889.561,-25.0171"/>
</g>
<!-- Node31&#45;&gt;Node8 -->
<g id="edge47" class="edge">
<title>Node31&#45;&gt;Node8</title>
<path fill="none" stroke="#191970" d="M392.8566,-58.3619C404.8455,-49.7773 421.9273,-37.5459 435.7285,-27.6636"/>
<polygon fill="#191970" stroke="#191970" points="438.1446,-30.2383 444.2375,-21.5707 434.0693,-24.5469 438.1446,-30.2383"/>
</g>
<!-- Node31&#45;&gt;Node9 -->
<g id="edge51" class="edge">
<title>Node31&#45;&gt;Node9</title>
<path fill="none" stroke="#191970" d="M405.345,-58.4966C429.6423,-49.1639 465.3596,-35.4447 492.1678,-25.1475"/>
<polygon fill="#191970" stroke="#191970" points="493.5237,-28.376 501.6038,-21.5231 491.0137,-21.8415 493.5237,-28.376"/>
</g>
<!-- Node31&#45;&gt;Node10 -->
<g id="edge55" class="edge">
<title>Node31&#45;&gt;Node10</title>
<path fill="none" stroke="#191970" d="M425.2579,-58.5733C461.14,-50.3292 511.8321,-37.9847 564.8651,-21.8157"/>
<polygon fill="#191970" stroke="#191970" points="565.9163,-25.1542 574.4402,-18.862 563.8528,-18.4653 565.9163,-25.1542"/>
</g>
<!-- Node31&#45;&gt;Node13 -->
<g id="edge54" class="edge">
<title>Node31&#45;&gt;Node13</title>
<path fill="none" stroke="#191970" d="M381.3015,-58.3619C383.6612,-50.7584 386.9088,-40.294 389.7512,-31.1349"/>
<polygon fill="#191970" stroke="#191970" points="393.0981,-32.1587 392.7195,-21.5707 386.4127,-30.0839 393.0981,-32.1587"/>
</g>
<!-- Node31&#45;&gt;Node27 -->
<g id="edge46" class="edge">
<title>Node31&#45;&gt;Node27</title>
<path fill="none" stroke="#191970" d="M425.1799,-66.9017C496.5723,-62.9318 636.2068,-52.0624 762.3989,-21.6367"/>
<polygon fill="#191970" stroke="#191970" points="763.3577,-25.0053 772.2328,-19.2187 761.6863,-18.2077 763.3577,-25.0053"/>
</g>
<!-- Node32 -->
<g id="node33" class="node">
<title>Node32</title>
<polygon fill="#ffffff" stroke="#bfbfbf" points="0,-.5 0,-21.5 42,-21.5 42,-.5 0,-.5"/>
<text text-anchor="middle" x="21" y="-7.9" font-family="Helvetica,sans-Serif" font-size="12.00" fill="#000000">cstdlib</text>
</g>
<!-- Node31&#45;&gt;Node32 -->
<g id="edge44" class="edge">
<title>Node31&#45;&gt;Node32</title>
<path fill="none" stroke="#191970" d="M330.8327,-65.3325C268.6725,-59.8182 155.9639,-47.4678 51.8565,-21.8115"/>
<polygon fill="#191970" stroke="#191970" points="52.6846,-18.4109 42.1332,-19.3696 50.9795,-25.2 52.6846,-18.4109"/>
</g>
<!-- Node33 -->
<g id="node34" class="node">
<title>Node33</title>
<polygon fill="#ffffff" stroke="#bfbfbf" points="60.5,-.5 60.5,-21.5 89.5,-21.5 89.5,-.5 60.5,-.5"/>
<text text-anchor="middle" x="75" y="-7.9" font-family="Helvetica,sans-Serif" font-size="12.00" fill="#000000">set</text>
</g>
<!-- Node31&#45;&gt;Node33 -->
<g id="edge45" class="edge">
<title>Node31&#45;&gt;Node33</title>
<path fill="none" stroke="#191970" d="M330.9854,-65.1544C276.6211,-59.8238 184.6134,-48.075 99.4005,-21.8509"/>
<polygon fill="#191970" stroke="#191970" points="100.4379,-18.5082 89.8483,-18.8403 98.3336,-25.1845 100.4379,-18.5082"/>
</g>
<!-- Node34 -->
<g id="node35" class="node">
<title>Node34</title>
<polygon fill="#ffffff" stroke="#bfbfbf" points="107.5,-.5 107.5,-21.5 150.5,-21.5 150.5,-.5 107.5,-.5"/>
<text text-anchor="middle" x="129" y="-7.9" font-family="Helvetica,sans-Serif" font-size="12.00" fill="#000000">cstring</text>
</g>
<!-- Node31&#45;&gt;Node34 -->
<g id="edge49" class="edge">
<title>Node31&#45;&gt;Node34</title>
<path fill="none" stroke="#191970" d="M330.9624,-60.8787C288.4725,-53.1025 224.1273,-40.236 160.3283,-22.127"/>
<polygon fill="#191970" stroke="#191970" points="161.0885,-18.7037 150.5103,-19.2966 159.1495,-25.4297 161.0885,-18.7037"/>
</g>
<!-- Node35 -->
<g id="node36" class="node">
<title>Node35</title>
<polygon fill="#ffffff" stroke="#bfbfbf" points="168.5,-.5 168.5,-21.5 223.5,-21.5 223.5,-.5 168.5,-.5"/>
<text text-anchor="middle" x="196" y="-7.9" font-family="Helvetica,sans-Serif" font-size="12.00" fill="#000000">exception</text>
</g>
<!-- Node31&#45;&gt;Node35 -->
<g id="edge50" class="edge">
<title>Node31&#45;&gt;Node35</title>
<path fill="none" stroke="#191970" d="M345.0412,-58.4966C313.5708,-48.4676 266.2058,-33.3733 233.3516,-22.9033"/>
<polygon fill="#191970" stroke="#191970" points="234.2457,-19.5148 223.655,-19.8131 232.1202,-26.1843 234.2457,-19.5148"/>
</g>
<!-- Node36 -->
<g id="node37" class="node">
<title>Node36</title>
<polygon fill="#ffffff" stroke="#bfbfbf" points="241.5,-.5 241.5,-21.5 296.5,-21.5 296.5,-.5 241.5,-.5"/>
<text text-anchor="middle" x="269" y="-7.9" font-family="Helvetica,sans-Serif" font-size="12.00" fill="#000000">functional</text>
</g>
<!-- Node31&#45;&gt;Node36 -->
<g id="edge52" class="edge">
<title>Node31&#45;&gt;Node36</title>
<path fill="none" stroke="#191970" d="M358.2609,-58.4966C341.3899,-49.5194 316.8915,-36.4835 297.8262,-26.3387"/>
<polygon fill="#191970" stroke="#191970" points="299.4327,-23.2289 288.9606,-21.6212 296.1445,-29.4086 299.4327,-23.2289"/>
</g>
<!-- Node37 -->
<g id="node38" class="node">
<title>Node37</title>
<polygon fill="#ffffff" stroke="#bfbfbf" points="315,-.5 315,-21.5 357,-21.5 357,-.5 315,-.5"/>
<text text-anchor="middle" x="336" y="-7.9" font-family="Helvetica,sans-Serif" font-size="12.00" fill="#000000">deque</text>
</g>
<!-- Node31&#45;&gt;Node37 -->
<g id="edge53" class="edge">
<title>Node31&#45;&gt;Node37</title>
<path fill="none" stroke="#191970" d="M370.2966,-58.3619C364.5537,-50.4313 356.5572,-39.3885 349.7301,-29.9606"/>
<polygon fill="#191970" stroke="#191970" points="352.3546,-27.6173 343.6546,-21.5707 346.6849,-31.7229 352.3546,-27.6173"/>
</g>
<!-- Node38&#45;&gt;Node1 -->
<g id="edge75" class="edge">
<title>Node38&#45;&gt;Node1</title>
<path fill="none" stroke="#191970" d="M574.2813,-116.374C584.3888,-102.0852 603.7284,-76.3551 624,-58 636.8718,-46.3451 652.845,-35.3997 666.2815,-27.0087"/>
<polygon fill="#191970" stroke="#191970" points="668.3903,-29.8223 675.1091,-21.6303 664.7482,-23.8445 668.3903,-29.8223"/>
</g>
<!-- Node38&#45;&gt;Node6 -->
<g id="edge58" class="edge">
<title>Node38&#45;&gt;Node6</title>
<path fill="none" stroke="#191970" d="M636.7969,-122.1377C730.6016,-114.8818 887.6648,-99.9125 905,-80 919.723,-63.088 899.4844,-42.0144 880.5227,-27.6356"/>
<polygon fill="#191970" stroke="#191970" points="882.4682,-24.7237 872.306,-21.7271 878.3815,-30.4069 882.4682,-24.7237"/>
</g>
<!-- Node38&#45;&gt;Node7 -->
<g id="edge64" class="edge">
<title>Node38&#45;&gt;Node7</title>
<path fill="none" stroke="#191970" d="M636.5552,-122.6176C734.5211,-115.7311 903.3579,-100.9644 922,-80 933.467,-67.1045 932.3467,-46.8765 929.1735,-31.6497"/>
<polygon fill="#191970" stroke="#191970" points="932.4849,-30.4663 926.6506,-21.6225 925.6964,-32.1743 932.4849,-30.4663"/>
</g>
<!-- Node38&#45;&gt;Node8 -->
<g id="edge63" class="edge">
<title>Node38&#45;&gt;Node8</title>
<path fill="none" stroke="#191970" d="M557.0332,-116.2949C538.5484,-96.4408 498.7635,-53.709 475.9671,-29.2239"/>
<polygon fill="#191970" stroke="#191970" points="478.3186,-26.6132 468.9427,-21.6792 473.1953,-31.3831 478.3186,-26.6132"/>
</g>
<!-- Node38&#45;&gt;Node9 -->
<g id="edge67" class="edge">
<title>Node38&#45;&gt;Node9</title>
<path fill="none" stroke="#191970" d="M563.4932,-116.2949C557.1872,-97.0451 543.836,-56.2889 535.7185,-31.5091"/>
<polygon fill="#191970" stroke="#191970" points="538.9376,-30.0927 532.4984,-21.6792 532.2854,-32.2719 538.9376,-30.0927"/>
</g>
<!-- Node38&#45;&gt;Node10 -->
<g id="edge74" class="edge">
<title>Node38&#45;&gt;Node10</title>
<path fill="none" stroke="#191970" d="M569.584,-116.2949C574.2305,-97.0451 584.0682,-56.2889 590.0495,-31.5091"/>
<polygon fill="#191970" stroke="#191970" points="593.4781,-32.2213 592.4223,-21.6792 586.6735,-30.5788 593.4781,-32.2213"/>
</g>
<!-- Node38&#45;&gt;Node13 -->
<g id="edge73" class="edge">
<title>Node38&#45;&gt;Node13</title>
<path fill="none" stroke="#191970" d="M551.2192,-116.2949C521.1881,-95.9229 455.6494,-51.4639 420.0958,-27.3457"/>
<polygon fill="#191970" stroke="#191970" points="421.9831,-24.3966 411.7426,-21.6792 418.0533,-30.1895 421.9831,-24.3966"/>
</g>
<!-- Node38&#45;&gt;Node27 -->
<g id="edge62" class="edge">
<title>Node38&#45;&gt;Node27</title>
<path fill="none" stroke="#191970" d="M636.7032,-121.5923C726.1494,-113.9337 871.7953,-98.7502 888,-80 894.3935,-72.6022 893.1752,-66.2959 888,-58 884.0854,-51.725 847.8169,-35.0384 821.0088,-23.3413"/>
<polygon fill="#191970" stroke="#191970" points="822.2052,-20.0454 811.6376,-19.2861 819.4252,-26.4697 822.2052,-20.0454"/>
</g>
<!-- Node38&#45;&gt;Node31 -->
<g id="edge76" class="edge">
<title>Node38&#45;&gt;Node31</title>
<path fill="none" stroke="#191970" d="M532.7735,-116.4966C501.6946,-106.9592 455.6882,-92.8408 421.9101,-82.475"/>
<polygon fill="#191970" stroke="#191970" points="422.8775,-79.1109 412.2907,-79.5231 420.8238,-85.8029 422.8775,-79.1109"/>
</g>
<!-- Node38&#45;&gt;Node32 -->
<g id="edge59" class="edge">
<title>Node38&#45;&gt;Node32</title>
<path fill="none" stroke="#191970" d="M497.4463,-122.6458C394.8064,-115.6487 208.0149,-100.5724 144,-80 106.3808,-67.9104 67.311,-43.6424 43.5697,-27.355"/>
<polygon fill="#191970" stroke="#191970" points="45.4579,-24.4046 35.2561,-21.5455 41.4483,-30.1425 45.4579,-24.4046"/>
</g>
<!-- Node38&#45;&gt;Node33 -->
<g id="edge61" class="edge">
<title>Node38&#45;&gt;Node33</title>
<path fill="none" stroke="#191970" d="M497.22,-121.4319C405.6678,-113.5637 250.2717,-98.1137 196,-80 159.1845,-67.7125 120.9719,-43.7114 97.5843,-27.5138"/>
<polygon fill="#191970" stroke="#191970" points="99.57,-24.6314 89.3805,-21.7287 95.5359,-30.3521 99.57,-24.6314"/>
</g>
<!-- Node38&#45;&gt;Node34 -->
<g id="edge65" class="edge">
<title>Node38&#45;&gt;Node34</title>
<path fill="none" stroke="#191970" d="M497.4661,-119.9252C417.6298,-111.2526 291.9041,-95.757 247,-80 211.2188,-67.4442 174.1328,-43.6804 151.3111,-27.5917"/>
<polygon fill="#191970" stroke="#191970" points="153.1778,-24.6234 143.0133,-21.6347 149.0955,-30.3098 153.1778,-24.6234"/>
</g>
<!-- Node38&#45;&gt;Node35 -->
<g id="edge66" class="edge">
<title>Node38&#45;&gt;Node35</title>
<path fill="none" stroke="#191970" d="M497.4778,-119.0113C427.739,-110.3283 325.5863,-95.5937 289,-80 260.2322,-67.7387 232.0892,-44.9038 214.4324,-28.8711"/>
<polygon fill="#191970" stroke="#191970" points="216.3533,-25.8772 206.65,-21.623 211.5825,-30.9997 216.3533,-25.8772"/>
</g>
<!-- Node38&#45;&gt;Node36 -->
<g id="edge68" class="edge">
<title>Node38&#45;&gt;Node36</title>
<path fill="none" stroke="#191970" d="M497.3469,-120.5131C432.4975,-113.355 341.5334,-100.1133 312,-80 294.6782,-68.2032 282.9847,-46.8799 276.2176,-31.0488"/>
<polygon fill="#191970" stroke="#191970" points="279.4092,-29.6021 272.4724,-21.5939 272.9012,-32.1801 279.4092,-29.6021"/>
</g>
<!-- Node38&#45;&gt;Node37 -->
<g id="edge72" class="edge">
<title>Node38&#45;&gt;Node37</title>
<path fill="none" stroke="#191970" d="M497.2748,-123.278C432.852,-118.2072 343.8993,-106.4997 322,-80 310.6305,-66.2421 316.7853,-45.731 324.1724,-30.6462"/>
<polygon fill="#191970" stroke="#191970" points="327.3624,-32.1047 329.0329,-21.6424 321.2026,-28.7794 327.3624,-32.1047"/>
</g>
<!-- Node39 -->
<g id="node40" class="node">
<title>Node39</title>
<polygon fill="#ffffff" stroke="#bfbfbf" points="633.5,-58.5 633.5,-79.5 678.5,-79.5 678.5,-58.5 633.5,-58.5"/>
<text text-anchor="middle" x="656" y="-65.9" font-family="Helvetica,sans-Serif" font-size="12.00" fill="#000000">stdlib.h</text>
</g>
<!-- Node38&#45;&gt;Node39 -->
<g id="edge60" class="edge">
<title>Node38&#45;&gt;Node39</title>
<path fill="none" stroke="#191970" d="M583.324,-116.3619C596.7478,-107.6138 615.9829,-95.0786 631.2926,-85.1015"/>
<polygon fill="#191970" stroke="#191970" points="633.3125,-87.9628 639.7795,-79.5707 629.4906,-82.0982 633.3125,-87.9628"/>
</g>
<!-- Node40 -->
<g id="node41" class="node">
<title>Node40</title>
<polygon fill="#ffffff" stroke="#bfbfbf" points="697,-58.5 697,-79.5 735,-79.5 735,-58.5 697,-58.5"/>
<text text-anchor="middle" x="716" y="-65.9" font-family="Helvetica,sans-Serif" font-size="12.00" fill="#000000">cfenv</text>
</g>
<!-- Node38&#45;&gt;Node40 -->
<g id="edge69" class="edge">
<title>Node38&#45;&gt;Node40</title>
<path fill="none" stroke="#191970" d="M593.9828,-116.4966C620.3071,-106.2496 660.2162,-90.7145 687.1582,-80.227"/>
<polygon fill="#191970" stroke="#191970" points="688.7446,-83.3654 696.7938,-76.4762 686.2053,-76.8422 688.7446,-83.3654"/>
</g>
<!-- Node41 -->
<g id="node42" class="node">
<title>Node41</title>
<polygon fill="#ffffff" stroke="#bfbfbf" points="753,-58.5 753,-79.5 811,-79.5 811,-58.5 753,-58.5"/>
<text text-anchor="middle" x="782" y="-65.9" font-family="Helvetica,sans-Serif" font-size="12.00" fill="#000000">execinfo.h</text>
</g>
<!-- Node38&#45;&gt;Node41 -->
<g id="edge70" class="edge">
<title>Node38&#45;&gt;Node41</title>
<path fill="none" stroke="#191970" d="M607.8446,-116.4294C641.6597,-107.6162 691.2041,-94.5624 743.2323,-80.1757"/>
<polygon fill="#191970" stroke="#191970" points="744.2717,-83.5196 752.9727,-77.4746 742.4011,-76.7741 744.2717,-83.5196"/>
</g>
<!-- Node42 -->
<g id="node43" class="node">
<title>Node42</title>
<polygon fill="#ffffff" stroke="#bfbfbf" points="829,-58.5 829,-79.5 879,-79.5 879,-58.5 829,-58.5"/>
<text text-anchor="middle" x="854" y="-65.9" font-family="Helvetica,sans-Serif" font-size="12.00" fill="#000000">cxxabi.h</text>
</g>
<!-- Node38&#45;&gt;Node42 -->
<g id="edge71" class="edge">
<title>Node38&#45;&gt;Node42</title>
<path fill="none" stroke="#191970" d="M636.5162,-116.5709C685.2439,-108.6883 752.0048,-96.7467 818.9744,-80.0358"/>
<polygon fill="#191970" stroke="#191970" points="820.0188,-83.3819 828.8545,-77.5355 818.3015,-76.5958 820.0188,-83.3819"/>
</g>
<!-- Node43 -->
<g id="node44" class="node">
<title>Node43</title>
<g id="a_node44"><a xlink:href="../../d0/d5d/mpi_8hpp.html" target="_top" xlink:title="timemory/mpi.hpp">
<polygon fill="#ffffff" stroke="#000000" points="1381,-58.5 1381,-79.5 1469,-79.5 1469,-58.5 1381,-58.5"/>
<text text-anchor="middle" x="1425" y="-65.9" font-family="Helvetica,sans-Serif" font-size="12.00" fill="#000000">timemory/mpi.hpp</text>
</a>
</g>
</g>
<!-- Node38&#45;&gt;Node43 -->
<g id="edge77" class="edge">
<title>Node38&#45;&gt;Node43</title>
<path fill="none" stroke="#191970" d="M636.8528,-122.4249C763.205,-114.1282 1038.1398,-95.9779 1270,-80 1303.4643,-77.6939 1340.9868,-75.033 1370.7308,-72.906"/>
<polygon fill="#191970" stroke="#191970" points="1371.1834,-76.3826 1380.9079,-72.1773 1370.6834,-69.4005 1371.1834,-76.3826"/>
</g>
<!-- Node43&#45;&gt;Node18 -->
<g id="edge78" class="edge">
<title>Node43&#45;&gt;Node18</title>
<path fill="none" stroke="#191970" d="M1443.3415,-58.3619C1458.5655,-49.532 1480.4415,-36.844 1497.72,-26.8224"/>
<polygon fill="#191970" stroke="#191970" points="1499.8804,-29.6155 1506.7747,-21.5707 1496.3684,-23.5603 1499.8804,-29.6155"/>
</g>
</g>
</svg>
