<?xml version="1.0" encoding="UTF-8" standalone="no"?>
<!DOCTYPE svg PUBLIC "-//W3C//DTD SVG 1.1//EN"
 "http://www.w3.org/Graphics/SVG/1.1/DTD/svg11.dtd">
<!-- Generated by graphviz version 2.40.1 (20161225.0304)
 -->
<!-- Title: timemory/timer.hpp Pages: 1 -->
<!--zoomable 262 -->
<svg id="main" version="1.1" xmlns="http://www.w3.org/2000/svg" xmlns:xlink="http://www.w3.org/1999/xlink" xml:space="preserve" onload="init(evt)">
<style type="text/css"><![CDATA[
.edge:hover path { stroke: red; }
.edge:hover polygon { stroke: red; fill: red; }
]]></style>
<script type="text/javascript"><![CDATA[
var edges = document.getElementsByTagName('g');
if (edges && edges.length) {
  for (var i=0;i<edges.length;i++) {
    if (edges[i].id.substr(0,4)=='edge') {
      edges[i].setAttribute('class','edge');
    }
  }
}
]]></script>
        <defs>
                <circle id="rim" cx="0" cy="0" r="7"/>
                <circle id="rim2" cx="0" cy="0" r="3.5"/>
                <g id="zoomPlus">
                        <use xlink:href="#rim" fill="#404040">
                                <set attributeName="fill" to="#808080" begin="zoomplus.mouseover" end="zoomplus.mouseout"/>
                        </use>
                        <path d="M-4,0h8M0,-4v8" fill="none" stroke="white" stroke-width="1.5" pointer-events="none"/>
                </g>
                <g id="zoomMin">
                        <use xlink:href="#rim" fill="#404040">
                                <set attributeName="fill" to="#808080" begin="zoomminus.mouseover" end="zoomminus.mouseout"/>
                        </use>
                        <path d="M-4,0h8" fill="none" stroke="white" stroke-width="1.5" pointer-events="none"/>
                </g>
                <g id="dirArrow">
                        <path fill="none" stroke="white" stroke-width="1.5" d="M0,-3.0v7 M-2.5,-0.5L0,-3.0L2.5,-0.5"/>
                </g>
               <g id="resetDef">
                       <use xlink:href="#rim2" fill="#404040">
                               <set attributeName="fill" to="#808080" begin="reset.mouseover" end="reset.mouseout"/>
                       </use>
               </g>
        </defs>

<script type="text/javascript">
var viewWidth = 2426;
var viewHeight = 262;
var sectionId = 'dynsection-0';
</script>
<script xlink:href="../../svgpan.js"/>
<svg id="graph" class="graph">
<g id="viewport">
<title>timemory/timer.hpp</title>
<polygon fill="#ffffff" stroke="transparent" points="-4,4 -4,-258 2421.5,-258 2421.5,4 -4,4"/>
<!-- Node0 -->
<g id="node1" class="node">
<title>Node0</title>
<polygon fill="#bfbfbf" stroke="#000000" points="1183.5,-232.5 1183.5,-253.5 1277.5,-253.5 1277.5,-232.5 1183.5,-232.5"/>
<text text-anchor="middle" x="1230.5" y="-239.9" font-family="Helvetica,sans-Serif" font-size="12.00" fill="#000000">timemory/timer.hpp</text>
</g>
<!-- Node1 -->
<g id="node2" class="node">
<title>Node1</title>
<g id="a_node2"><a xlink:href="../../db/d19/namespace_8hpp.html" target="_top" xlink:title="timemory/namespace.hpp">
<polygon fill="#ffffff" stroke="#000000" points="759.5,-.5 759.5,-21.5 879.5,-21.5 879.5,-.5 759.5,-.5"/>
<text text-anchor="middle" x="819.5" y="-7.9" font-family="Helvetica,sans-Serif" font-size="12.00" fill="#000000">timemory/namespace.hpp</text>
</a>
</g>
</g>
<!-- Node0&#45;&gt;Node1 -->
<g id="edge1" class="edge">
<title>Node0&#45;&gt;Node1</title>
<path fill="none" stroke="#191970" d="M1211.7722,-232.4286C1145.978,-195.2893 925.1921,-70.6608 847.13,-26.5965"/>
<polygon fill="#191970" stroke="#191970" points="848.7667,-23.5013 838.3378,-21.6335 845.3257,-29.5972 848.7667,-23.5013"/>
</g>
<!-- Node2 -->
<g id="node3" class="node">
<title>Node2</title>
<g id="a_node3"><a xlink:href="../../d6/d01/base__timer_8hpp.html" target="_top" xlink:title="timemory/base_timer.hpp">
<polygon fill="#ffffff" stroke="#000000" points="1531.5,-174.5 1531.5,-195.5 1649.5,-195.5 1649.5,-174.5 1531.5,-174.5"/>
<text text-anchor="middle" x="1590.5" y="-181.9" font-family="Helvetica,sans-Serif" font-size="12.00" fill="#000000">timemory/base_timer.hpp</text>
</a>
</g>
</g>
<!-- Node0&#45;&gt;Node2 -->
<g id="edge2" class="edge">
<title>Node0&#45;&gt;Node2</title>
<path fill="none" stroke="#191970" d="M1277.5637,-235.4175C1339.6902,-225.4082 1449.5535,-207.708 1521.1877,-196.167"/>
<polygon fill="#191970" stroke="#191970" points="1522.1531,-199.5567 1531.469,-194.5105 1521.0396,-192.6458 1522.1531,-199.5567"/>
</g>
<!-- Node2&#45;&gt;Node1 -->
<g id="edge3" class="edge">
<title>Node2&#45;&gt;Node1</title>
<path fill="none" stroke="#191970" d="M1531.3493,-175.0679C1479.3488,-166.1155 1401.6985,-152.2106 1334.5,-138 1161.905,-101.5009 959.2336,-48.5106 868.148,-24.1489"/>
<polygon fill="#191970" stroke="#191970" points="868.9473,-20.7397 858.3822,-21.5322 867.1356,-27.5012 868.9473,-20.7397"/>
</g>
<!-- Node3 -->
<g id="node4" class="node">
<title>Node3</title>
<g id="a_node4"><a xlink:href="../../d8/d4e/base__clock_8hpp.html" target="_top" xlink:title="timemory/base_clock.hpp">
<polygon fill="#ffffff" stroke="#000000" points="1102,-58.5 1102,-79.5 1221,-79.5 1221,-58.5 1102,-58.5"/>
<text text-anchor="middle" x="1161.5" y="-65.9" font-family="Helvetica,sans-Serif" font-size="12.00" fill="#000000">timemory/base_clock.hpp</text>
</a>
</g>
</g>
<!-- Node2&#45;&gt;Node3 -->
<g id="edge4" class="edge">
<title>Node2&#45;&gt;Node3</title>
<path fill="none" stroke="#191970" d="M1551.2918,-174.3983C1472.7006,-153.1475 1296.0906,-105.3928 1210.2229,-82.1745"/>
<polygon fill="#191970" stroke="#191970" points="1211.0288,-78.7668 1200.4619,-79.5352 1209.2016,-85.5241 1211.0288,-78.7668"/>
</g>
<!-- Node18 -->
<g id="node19" class="node">
<title>Node18</title>
<polygon fill="#ffffff" stroke="#bfbfbf" points="1482.5,-.5 1482.5,-21.5 1568.5,-21.5 1568.5,-.5 1482.5,-.5"/>
<text text-anchor="middle" x="1525.5" y="-7.9" font-family="Helvetica,sans-Serif" font-size="12.00" fill="#000000">cereal/cereal.hpp</text>
</g>
<!-- Node2&#45;&gt;Node18 -->
<g id="edge78" class="edge">
<title>Node2&#45;&gt;Node18</title>
<path fill="none" stroke="#191970" d="M1586.5318,-174.3774C1575.9953,-146.1719 1547.1712,-69.0121 1533.2403,-31.7203"/>
<polygon fill="#191970" stroke="#191970" points="1536.3604,-30.0706 1529.5822,-21.9277 1529.803,-32.5203 1536.3604,-30.0706"/>
</g>
<!-- Node19 -->
<g id="node20" class="node">
<title>Node19</title>
<polygon fill="#ffffff" stroke="#bfbfbf" points="2002,-.5 2002,-21.5 2115,-21.5 2115,-.5 2002,-.5"/>
<text text-anchor="middle" x="2058.5" y="-7.9" font-family="Helvetica,sans-Serif" font-size="12.00" fill="#000000">cereal/types/chrono.hpp</text>
</g>
<!-- Node2&#45;&gt;Node19 -->
<g id="edge81" class="edge">
<title>Node2&#45;&gt;Node19</title>
<path fill="none" stroke="#191970" d="M1649.6414,-176.9023C1695.0622,-169.6333 1758.8812,-157.124 1812.5,-138 1897.2737,-107.7641 1989.653,-53.8087 2033.1515,-27.0129"/>
<polygon fill="#191970" stroke="#191970" points="2035.2644,-29.8208 2041.9148,-21.5732 2031.5727,-23.8735 2035.2644,-29.8208"/>
</g>
<!-- Node20 -->
<g id="node21" class="node">
<title>Node20</title>
<polygon fill="#ffffff" stroke="#bfbfbf" points="1586.5,-.5 1586.5,-21.5 1696.5,-21.5 1696.5,-.5 1586.5,-.5"/>
<text text-anchor="middle" x="1641.5" y="-7.9" font-family="Helvetica,sans-Serif" font-size="12.00" fill="#000000">cereal/types/deque.hpp</text>
</g>
<!-- Node2&#45;&gt;Node20 -->
<g id="edge82" class="edge">
<title>Node2&#45;&gt;Node20</title>
<path fill="none" stroke="#191970" d="M1590.5113,-174.3891C1590.869,-152.0577 1593.49,-98.8971 1609.5,-58 1613.4111,-48.0092 1619.7692,-38.03 1625.7916,-29.8534"/>
<polygon fill="#191970" stroke="#191970" points="1628.6966,-31.8189 1632.0631,-21.7731 1623.1668,-27.5269 1628.6966,-31.8189"/>
</g>
<!-- Node21 -->
<g id="node22" class="node">
<title>Node21</title>
<polygon fill="#ffffff" stroke="#bfbfbf" points="1895,-.5 1895,-21.5 1984,-21.5 1984,-.5 1895,-.5"/>
<text text-anchor="middle" x="1939.5" y="-7.9" font-family="Helvetica,sans-Serif" font-size="12.00" fill="#000000">cereal/access.hpp</text>
</g>
<!-- Node2&#45;&gt;Node21 -->
<g id="edge79" class="edge">
<title>Node2&#45;&gt;Node21</title>
<path fill="none" stroke="#191970" d="M1611.8062,-174.3774C1671.3128,-144.7094 1839.4569,-60.8782 1908.9062,-26.2531"/>
<polygon fill="#191970" stroke="#191970" points="1910.6415,-29.2988 1918.0292,-21.7046 1907.5182,-23.0343 1910.6415,-29.2988"/>
</g>
<!-- Node22 -->
<g id="node23" class="node">
<title>Node22</title>
<g id="a_node23"><a xlink:href="../../d9/dd2/rss_8hpp.html" target="_top" xlink:title="timemory/rss.hpp">
<polygon fill="#ffffff" stroke="#000000" points="1618.5,-58.5 1618.5,-79.5 1704.5,-79.5 1704.5,-58.5 1618.5,-58.5"/>
<text text-anchor="middle" x="1661.5" y="-65.9" font-family="Helvetica,sans-Serif" font-size="12.00" fill="#000000">timemory/rss.hpp</text>
</a>
</g>
</g>
<!-- Node2&#45;&gt;Node22 -->
<g id="edge24" class="edge">
<title>Node2&#45;&gt;Node22</title>
<path fill="none" stroke="#191970" d="M1597.0522,-174.2949C1608.993,-154.7861 1634.4537,-113.1884 1649.5538,-88.5177"/>
<polygon fill="#191970" stroke="#191970" points="1652.7283,-90.0356 1654.9636,-79.6792 1646.7579,-86.3812 1652.7283,-90.0356"/>
</g>
<!-- Node24 -->
<g id="node25" class="node">
<title>Node24</title>
<polygon fill="#ffffff" stroke="#bfbfbf" points="2133,-.5 2133,-21.5 2180,-21.5 2180,-.5 2133,-.5"/>
<text text-anchor="middle" x="2156.5" y="-7.9" font-family="Helvetica,sans-Serif" font-size="12.00" fill="#000000">fstream</text>
</g>
<!-- Node2&#45;&gt;Node24 -->
<g id="edge75" class="edge">
<title>Node2&#45;&gt;Node24</title>
<path fill="none" stroke="#191970" d="M1649.6238,-178.1436C1703.2905,-171.0407 1784.2363,-158.1192 1852.5,-138 1956.3168,-107.4023 2072.7497,-52.6515 2126.4285,-26.1701"/>
<polygon fill="#191970" stroke="#191970" points="2128.3026,-29.1474 2135.7041,-21.5666 2125.1906,-22.8772 2128.3026,-29.1474"/>
</g>
<!-- Node25 -->
<g id="node26" class="node">
<title>Node25</title>
<polygon fill="#ffffff" stroke="#bfbfbf" points="633,-.5 633,-21.5 672,-21.5 672,-.5 633,-.5"/>
<text text-anchor="middle" x="652.5" y="-7.9" font-family="Helvetica,sans-Serif" font-size="12.00" fill="#000000">string</text>
</g>
<!-- Node2&#45;&gt;Node25 -->
<g id="edge76" class="edge">
<title>Node2&#45;&gt;Node25</title>
<path fill="none" stroke="#191970" d="M1531.4762,-178.3663C1461.7459,-170.2308 1342.3367,-155.3626 1240.5,-138 993.2463,-95.8446 925.8784,-94.5368 682.1046,-22.1739"/>
<polygon fill="#191970" stroke="#191970" points="682.8221,-18.7357 672.239,-19.2353 680.8238,-25.4444 682.8221,-18.7357"/>
</g>
<!-- Node28 -->
<g id="node29" class="node">
<title>Node28</title>
<polygon fill="#ffffff" stroke="#bfbfbf" points="2198,-.5 2198,-21.5 2289,-21.5 2289,-.5 2198,-.5"/>
<text text-anchor="middle" x="2243.5" y="-7.9" font-family="Helvetica,sans-Serif" font-size="12.00" fill="#000000">cereal/macros.hpp</text>
</g>
<!-- Node2&#45;&gt;Node28 -->
<g id="edge80" class="edge">
<title>Node2&#45;&gt;Node28</title>
<path fill="none" stroke="#191970" d="M1649.7731,-179.4782C1712.1274,-172.8467 1812.7753,-159.8008 1897.5,-138 2015.4902,-107.6396 2149.3651,-52.1883 2210.228,-25.7632"/>
<polygon fill="#191970" stroke="#191970" points="2211.934,-28.8375 2219.6986,-21.6291 2209.1335,-22.4221 2211.934,-28.8375"/>
</g>
<!-- Node29 -->
<g id="node30" class="node">
<title>Node29</title>
<polygon fill="#ffffff" stroke="#bfbfbf" points="2307.5,-.5 2307.5,-21.5 2417.5,-21.5 2417.5,-.5 2307.5,-.5"/>
<text text-anchor="middle" x="2362.5" y="-7.9" font-family="Helvetica,sans-Serif" font-size="12.00" fill="#000000">cereal/types/vector.hpp</text>
</g>
<!-- Node2&#45;&gt;Node29 -->
<g id="edge83" class="edge">
<title>Node2&#45;&gt;Node29</title>
<path fill="none" stroke="#191970" d="M1649.7428,-180.1516C1720.639,-173.6625 1842.6696,-160.3081 1945.5,-138 2087.4788,-107.199 2251.0128,-51.1768 2323.9355,-25.0796"/>
<polygon fill="#191970" stroke="#191970" points="2325.3854,-28.2778 2333.6121,-21.6016 2323.0176,-21.6904 2325.3854,-28.2778"/>
</g>
<!-- Node30 -->
<g id="node31" class="node">
<title>Node30</title>
<g id="a_node31"><a xlink:href="../../d1/d4e/utility_8hpp.html" target="_top" xlink:title="timemory/utility.hpp">
<polygon fill="#ffffff" stroke="#000000" points="401.5,-58.5 401.5,-79.5 495.5,-79.5 495.5,-58.5 401.5,-58.5"/>
<text text-anchor="middle" x="448.5" y="-65.9" font-family="Helvetica,sans-Serif" font-size="12.00" fill="#000000">timemory/utility.hpp</text>
</a>
</g>
</g>
<!-- Node2&#45;&gt;Node30 -->
<g id="edge40" class="edge">
<title>Node2&#45;&gt;Node30</title>
<path fill="none" stroke="#191970" d="M1531.2198,-184.2847C1306.6566,-181.3463 518.7419,-168.8687 475.5,-138 460.018,-126.948 453.413,-105.6412 450.5954,-89.6144"/>
<polygon fill="#191970" stroke="#191970" points="454.0397,-88.9718 449.1874,-79.5534 447.1072,-89.942 454.0397,-88.9718"/>
</g>
<!-- Node37 -->
<g id="node38" class="node">
<title>Node37</title>
<g id="a_node38"><a xlink:href="../../da/d8e/signal__detection_8hpp.html" target="_top" xlink:title="timemory/signal_detection.hpp">
<polygon fill="#ffffff" stroke="#000000" points="485,-116.5 485,-137.5 624,-137.5 624,-116.5 485,-116.5"/>
<text text-anchor="middle" x="554.5" y="-123.9" font-family="Helvetica,sans-Serif" font-size="12.00" fill="#000000">timemory/signal_detection.hpp</text>
</a>
</g>
</g>
<!-- Node2&#45;&gt;Node37 -->
<g id="edge55" class="edge">
<title>Node2&#45;&gt;Node37</title>
<path fill="none" stroke="#191970" d="M1531.456,-181.6944C1355.5143,-171.8444 834.598,-142.6812 634.2546,-131.465"/>
<polygon fill="#191970" stroke="#191970" points="634.2788,-127.961 624.0988,-130.8965 633.8875,-134.95 634.2788,-127.961"/>
</g>
<!-- Node40 -->
<g id="node41" class="node">
<title>Node40</title>
<polygon fill="#ffffff" stroke="#bfbfbf" points="1761,-116.5 1761,-137.5 1804,-137.5 1804,-116.5 1761,-116.5"/>
<text text-anchor="middle" x="1782.5" y="-123.9" font-family="Helvetica,sans-Serif" font-size="12.00" fill="#000000">atomic</text>
</g>
<!-- Node2&#45;&gt;Node40 -->
<g id="edge77" class="edge">
<title>Node2&#45;&gt;Node40</title>
<path fill="none" stroke="#191970" d="M1625.5176,-174.4925C1657.142,-164.993 1704.9517,-150.6065 1746.5,-138 1747.9462,-137.5612 1749.4248,-137.1119 1750.9183,-136.6576"/>
<polygon fill="#191970" stroke="#191970" points="1752.2572,-139.9086 1760.8022,-133.6449 1750.2162,-133.2127 1752.2572,-139.9086"/>
</g>
<!-- Node3&#45;&gt;Node1 -->
<g id="edge23" class="edge">
<title>Node3&#45;&gt;Node1</title>
<path fill="none" stroke="#191970" d="M1101.9281,-58.8972C1042.8291,-48.8745 952.2786,-33.518 889.715,-22.9078"/>
<polygon fill="#191970" stroke="#191970" points="889.9812,-19.403 879.5367,-21.1817 888.8107,-26.3045 889.9812,-19.403"/>
</g>
<!-- Node4 -->
<g id="node5" class="node">
<title>Node4</title>
<polygon fill="#ffffff" stroke="#bfbfbf" points="690,-.5 690,-21.5 741,-21.5 741,-.5 690,-.5"/>
<text text-anchor="middle" x="715.5" y="-7.9" font-family="Helvetica,sans-Serif" font-size="12.00" fill="#000000">iostream</text>
</g>
<!-- Node3&#45;&gt;Node4 -->
<g id="edge5" class="edge">
<title>Node3&#45;&gt;Node4</title>
<path fill="none" stroke="#191970" d="M1101.7133,-65.745C1023.2448,-60.682 881.2373,-48.7983 751.4635,-21.8634"/>
<polygon fill="#191970" stroke="#191970" points="751.8544,-18.3689 741.3471,-19.7275 750.4083,-25.2179 751.8544,-18.3689"/>
</g>
<!-- Node5 -->
<g id="node6" class="node">
<title>Node5</title>
<polygon fill="#ffffff" stroke="#bfbfbf" points="897.5,-.5 897.5,-21.5 945.5,-21.5 945.5,-.5 897.5,-.5"/>
<text text-anchor="middle" x="921.5" y="-7.9" font-family="Helvetica,sans-Serif" font-size="12.00" fill="#000000">iomanip</text>
</g>
<!-- Node3&#45;&gt;Node5 -->
<g id="edge6" class="edge">
<title>Node3&#45;&gt;Node5</title>
<path fill="none" stroke="#191970" d="M1108.3902,-58.4455C1068.6584,-50.2085 1012.8319,-37.9171 955.524,-22.1057"/>
<polygon fill="#191970" stroke="#191970" points="956.1388,-18.6436 945.566,-19.3263 954.2569,-25.3859 956.1388,-18.6436"/>
</g>
<!-- Node6 -->
<g id="node7" class="node">
<title>Node6</title>
<polygon fill="#ffffff" stroke="#bfbfbf" points="434,-.5 434,-21.5 483,-21.5 483,-.5 434,-.5"/>
<text text-anchor="middle" x="458.5" y="-7.9" font-family="Helvetica,sans-Serif" font-size="12.00" fill="#000000">sstream</text>
</g>
<!-- Node3&#45;&gt;Node6 -->
<g id="edge7" class="edge">
<title>Node3&#45;&gt;Node6</title>
<path fill="none" stroke="#191970" d="M1101.9047,-66.7423C964.0216,-61.2164 625.3042,-45.8309 493.0913,-21.8614"/>
<polygon fill="#191970" stroke="#191970" points="493.6646,-18.4077 483.1857,-19.9706 492.3521,-25.2836 493.6646,-18.4077"/>
</g>
<!-- Node7 -->
<g id="node8" class="node">
<title>Node7</title>
<polygon fill="#ffffff" stroke="#bfbfbf" points="501,-.5 501,-21.5 556,-21.5 556,-.5 501,-.5"/>
<text text-anchor="middle" x="528.5" y="-7.9" font-family="Helvetica,sans-Serif" font-size="12.00" fill="#000000">stdexcept</text>
</g>
<!-- Node3&#45;&gt;Node7 -->
<g id="edge8" class="edge">
<title>Node3&#45;&gt;Node7</title>
<path fill="none" stroke="#191970" d="M1101.9855,-65.9681C975.8414,-59.2805 684.1461,-42.3671 566.4313,-21.9903"/>
<polygon fill="#191970" stroke="#191970" points="566.7233,-18.4859 556.2577,-20.136 565.4681,-25.3725 566.7233,-18.4859"/>
</g>
<!-- Node8 -->
<g id="node9" class="node">
<title>Node8</title>
<polygon fill="#ffffff" stroke="#bfbfbf" points="574,-.5 574,-21.5 615,-21.5 615,-.5 574,-.5"/>
<text text-anchor="middle" x="594.5" y="-7.9" font-family="Helvetica,sans-Serif" font-size="12.00" fill="#000000">vector</text>
</g>
<!-- Node3&#45;&gt;Node8 -->
<g id="edge9" class="edge">
<title>Node3&#45;&gt;Node8</title>
<path fill="none" stroke="#191970" d="M1101.915,-65.8663C985.4148,-59.4106 730.3272,-43.5767 625.1902,-21.826"/>
<polygon fill="#191970" stroke="#191970" points="625.7143,-18.3578 615.1965,-19.6335 624.2142,-25.1952 625.7143,-18.3578"/>
</g>
<!-- Node9 -->
<g id="node10" class="node">
<title>Node9</title>
<polygon fill="#ffffff" stroke="#bfbfbf" points="1362,-.5 1362,-21.5 1403,-21.5 1403,-.5 1362,-.5"/>
<text text-anchor="middle" x="1382.5" y="-7.9" font-family="Helvetica,sans-Serif" font-size="12.00" fill="#000000">mutex</text>
</g>
<!-- Node3&#45;&gt;Node9 -->
<g id="edge10" class="edge">
<title>Node3&#45;&gt;Node9</title>
<path fill="none" stroke="#191970" d="M1210.5764,-58.4893C1247.1988,-50.2922 1298.5915,-38.0457 1352.2562,-21.8379"/>
<polygon fill="#191970" stroke="#191970" points="1353.4049,-25.1467 1361.9444,-18.8756 1351.358,-18.4526 1353.4049,-25.1467"/>
</g>
<!-- Node10 -->
<g id="node11" class="node">
<title>Node10</title>
<polygon fill="#ffffff" stroke="#bfbfbf" points="963.5,-.5 963.5,-21.5 1043.5,-21.5 1043.5,-.5 963.5,-.5"/>
<text text-anchor="middle" x="1003.5" y="-7.9" font-family="Helvetica,sans-Serif" font-size="12.00" fill="#000000">unordered_map</text>
</g>
<!-- Node3&#45;&gt;Node10 -->
<g id="edge11" class="edge">
<title>Node3&#45;&gt;Node10</title>
<path fill="none" stroke="#191970" d="M1132.8874,-58.4966C1107.3521,-49.1229 1069.7626,-35.3242 1041.6711,-25.0122"/>
<polygon fill="#191970" stroke="#191970" points="1042.7599,-21.6835 1032.1663,-21.5231 1040.3476,-28.2548 1042.7599,-21.6835"/>
</g>
<!-- Node11 -->
<g id="node12" class="node">
<title>Node11</title>
<polygon fill="#ffffff" stroke="#bfbfbf" points="375,-.5 375,-21.5 416,-21.5 416,-.5 375,-.5"/>
<text text-anchor="middle" x="395.5" y="-7.9" font-family="Helvetica,sans-Serif" font-size="12.00" fill="#000000">cmath</text>
</g>
<!-- Node3&#45;&gt;Node11 -->
<g id="edge12" class="edge">
<title>Node3&#45;&gt;Node11</title>
<path fill="none" stroke="#191970" d="M1101.8079,-67.4875C953.7616,-63.3775 571.7291,-50.4869 426.2427,-21.7883"/>
<polygon fill="#191970" stroke="#191970" points="426.6864,-18.3057 416.183,-19.6946 425.26,-25.1589 426.6864,-18.3057"/>
</g>
<!-- Node12 -->
<g id="node13" class="node">
<title>Node12</title>
<polygon fill="#ffffff" stroke="#bfbfbf" points="1061.5,-.5 1061.5,-21.5 1097.5,-21.5 1097.5,-.5 1061.5,-.5"/>
<text text-anchor="middle" x="1079.5" y="-7.9" font-family="Helvetica,sans-Serif" font-size="12.00" fill="#000000">tuple</text>
</g>
<!-- Node3&#45;&gt;Node12 -->
<g id="edge13" class="edge">
<title>Node3&#45;&gt;Node12</title>
<path fill="none" stroke="#191970" d="M1146.4599,-58.3619C1134.2075,-49.6955 1116.7005,-37.3126 1102.6606,-27.3819"/>
<polygon fill="#191970" stroke="#191970" points="1104.63,-24.4879 1094.4447,-21.5707 1100.5877,-30.2028 1104.63,-24.4879"/>
</g>
<!-- Node13 -->
<g id="node14" class="node">
<title>Node13</title>
<polygon fill="#ffffff" stroke="#bfbfbf" points="1115.5,-.5 1115.5,-21.5 1149.5,-21.5 1149.5,-.5 1115.5,-.5"/>
<text text-anchor="middle" x="1132.5" y="-7.9" font-family="Helvetica,sans-Serif" font-size="12.00" fill="#000000">ratio</text>
</g>
<!-- Node3&#45;&gt;Node13 -->
<g id="edge14" class="edge">
<title>Node3&#45;&gt;Node13</title>
<path fill="none" stroke="#191970" d="M1156.181,-58.3619C1152.2974,-50.5949 1146.9213,-39.8426 1142.2729,-30.5458"/>
<polygon fill="#191970" stroke="#191970" points="1145.388,-28.9497 1137.7853,-21.5707 1139.127,-32.0802 1145.388,-28.9497"/>
</g>
<!-- Node14 -->
<g id="node15" class="node">
<title>Node14</title>
<polygon fill="#ffffff" stroke="#bfbfbf" points="1167.5,-.5 1167.5,-21.5 1211.5,-21.5 1211.5,-.5 1167.5,-.5"/>
<text text-anchor="middle" x="1189.5" y="-7.9" font-family="Helvetica,sans-Serif" font-size="12.00" fill="#000000">chrono</text>
</g>
<!-- Node3&#45;&gt;Node14 -->
<g id="edge15" class="edge">
<title>Node3&#45;&gt;Node14</title>
<path fill="none" stroke="#191970" d="M1166.6356,-58.3619C1170.3458,-50.6766 1175.4669,-40.0686 1179.9221,-30.8399"/>
<polygon fill="#191970" stroke="#191970" points="1183.2013,-32.0978 1184.3969,-21.5707 1176.8974,-29.0545 1183.2013,-32.0978"/>
</g>
<!-- Node15 -->
<g id="node16" class="node">
<title>Node15</title>
<polygon fill="#ffffff" stroke="#bfbfbf" points="1229.5,-.5 1229.5,-21.5 1267.5,-21.5 1267.5,-.5 1229.5,-.5"/>
<text text-anchor="middle" x="1248.5" y="-7.9" font-family="Helvetica,sans-Serif" font-size="12.00" fill="#000000">ctime</text>
</g>
<!-- Node3&#45;&gt;Node15 -->
<g id="edge16" class="edge">
<title>Node3&#45;&gt;Node15</title>
<path fill="none" stroke="#191970" d="M1177.4571,-58.3619C1190.4567,-49.6955 1209.0312,-37.3126 1223.9272,-27.3819"/>
<polygon fill="#191970" stroke="#191970" points="1226.265,-30.0299 1232.644,-21.5707 1222.382,-24.2055 1226.265,-30.0299"/>
</g>
<!-- Node16 -->
<g id="node17" class="node">
<title>Node16</title>
<polygon fill="#ffffff" stroke="#bfbfbf" points="1421,-.5 1421,-21.5 1464,-21.5 1464,-.5 1421,-.5"/>
<text text-anchor="middle" x="1442.5" y="-7.9" font-family="Helvetica,sans-Serif" font-size="12.00" fill="#000000">cstdint</text>
</g>
<!-- Node3&#45;&gt;Node16 -->
<g id="edge17" class="edge">
<title>Node3&#45;&gt;Node16</title>
<path fill="none" stroke="#191970" d="M1221.1842,-60.4497C1269.9116,-52.8643 1340.6262,-40.4811 1411.0257,-21.8039"/>
<polygon fill="#191970" stroke="#191970" points="1412.211,-25.1094 1420.955,-19.1265 1410.3886,-18.3507 1412.211,-25.1094"/>
</g>
<!-- Node17 -->
<g id="node18" class="node">
<title>Node17</title>
<polygon fill="#ffffff" stroke="#bfbfbf" points="1285.5,-.5 1285.5,-21.5 1343.5,-21.5 1343.5,-.5 1285.5,-.5"/>
<text text-anchor="middle" x="1314.5" y="-7.9" font-family="Helvetica,sans-Serif" font-size="12.00" fill="#000000">type_traits</text>
</g>
<!-- Node3&#45;&gt;Node17 -->
<g id="edge18" class="edge">
<title>Node3&#45;&gt;Node17</title>
<path fill="none" stroke="#191970" d="M1189.2071,-58.4966C1213.8263,-49.1639 1250.0167,-35.4447 1277.1799,-25.1475"/>
<polygon fill="#191970" stroke="#191970" points="1278.6309,-28.3406 1286.7409,-21.5231 1276.1495,-21.7951 1278.6309,-28.3406"/>
</g>
<!-- Node3&#45;&gt;Node18 -->
<g id="edge19" class="edge">
<title>Node3&#45;&gt;Node18</title>
<path fill="none" stroke="#191970" d="M1221.2801,-60.9544C1284.0139,-52.2802 1385.4251,-37.6037 1472.5,-22 1472.6012,-21.9819 1472.7024,-21.9637 1472.8038,-21.9455"/>
<polygon fill="#191970" stroke="#191970" points="1473.254,-25.4221 1482.4395,-20.1423 1471.9663,-18.5415 1473.254,-25.4221"/>
</g>
<!-- Node3&#45;&gt;Node19 -->
<g id="edge20" class="edge">
<title>Node3&#45;&gt;Node19</title>
<path fill="none" stroke="#191970" d="M1221.2888,-66.0085C1393.1019,-57.3597 1882.4498,-32.3436 1991.6931,-22.0118"/>
<polygon fill="#191970" stroke="#191970" points="1992.2417,-25.474 2001.8322,-20.9714 1991.5271,-18.5105 1992.2417,-25.474"/>
</g>
<!-- Node3&#45;&gt;Node20 -->
<g id="edge21" class="edge">
<title>Node3&#45;&gt;Node20</title>
<path fill="none" stroke="#191970" d="M1221.2266,-63.3454C1300.1706,-55.628 1443.8065,-40.746 1576.4383,-22.0902"/>
<polygon fill="#191970" stroke="#191970" points="1576.9637,-25.5508 1586.3738,-20.6826 1575.9817,-18.6201 1576.9637,-25.5508"/>
</g>
<!-- Node3&#45;&gt;Node21 -->
<g id="edge22" class="edge">
<title>Node3&#45;&gt;Node21</title>
<path fill="none" stroke="#191970" d="M1221.0172,-66.184C1366.7491,-59.1242 1739.5072,-40.0302 1884.7336,-21.8992"/>
<polygon fill="#191970" stroke="#191970" points="1885.3234,-25.3521 1894.7904,-20.5956 1884.4235,-18.4102 1885.3234,-25.3521"/>
</g>
<!-- Node22&#45;&gt;Node1 -->
<g id="edge39" class="edge">
<title>Node22&#45;&gt;Node1</title>
<path fill="none" stroke="#191970" d="M1618.165,-66.0459C1584.6728,-63.7828 1537.1534,-60.6152 1495.5,-58 1229.0718,-41.2721 1158.8631,-51.0629 889.7331,-22.0439"/>
<polygon fill="#191970" stroke="#191970" points="889.9831,-18.5506 879.6636,-20.9502 889.2272,-25.5096 889.9831,-18.5506"/>
</g>
<!-- Node22&#45;&gt;Node4 -->
<g id="edge26" class="edge">
<title>Node22&#45;&gt;Node4</title>
<path fill="none" stroke="#191970" d="M1618.1728,-65.9161C1584.6848,-63.584 1537.1671,-60.3871 1495.5,-58 1167.9388,-39.2343 1078.6773,-79.3354 751.5533,-21.7439"/>
<polygon fill="#191970" stroke="#191970" points="751.7674,-18.2272 741.309,-19.9223 750.5418,-25.119 751.7674,-18.2272"/>
</g>
<!-- Node22&#45;&gt;Node5 -->
<g id="edge29" class="edge">
<title>Node22&#45;&gt;Node5</title>
<path fill="none" stroke="#191970" d="M1618.4078,-66.1444C1476.5214,-56.7408 1029.2094,-27.0864 955.8933,-20.8925"/>
<polygon fill="#191970" stroke="#191970" points="956.122,-17.3979 945.8215,-19.8777 955.4202,-24.3627 956.122,-17.3979"/>
</g>
<!-- Node22&#45;&gt;Node16 -->
<g id="edge31" class="edge">
<title>Node22&#45;&gt;Node16</title>
<path fill="none" stroke="#191970" d="M1618.2455,-59.4307C1582.0274,-51.1395 1528.8316,-38.3163 1473.6809,-21.8536"/>
<polygon fill="#191970" stroke="#191970" points="1474.6774,-18.4984 1464.0926,-18.96 1472.655,-25.1999 1474.6774,-18.4984"/>
</g>
<!-- Node22&#45;&gt;Node18 -->
<g id="edge33" class="edge">
<title>Node22&#45;&gt;Node18</title>
<path fill="none" stroke="#191970" d="M1636.8714,-58.4966C1615.3429,-49.3154 1583.8602,-35.8889 1559.8554,-25.6516"/>
<polygon fill="#191970" stroke="#191970" points="1560.9764,-22.3247 1550.4049,-21.6212 1558.2303,-28.7636 1560.9764,-22.3247"/>
</g>
<!-- Node22&#45;&gt;Node19 -->
<g id="edge36" class="edge">
<title>Node22&#45;&gt;Node19</title>
<path fill="none" stroke="#191970" d="M1704.5317,-63.2861C1765.9681,-55.0452 1882.6206,-39.0909 1991.6111,-22.267"/>
<polygon fill="#191970" stroke="#191970" points="1992.4483,-25.6792 2001.7944,-20.689 1991.3763,-18.7617 1992.4483,-25.6792"/>
</g>
<!-- Node22&#45;&gt;Node20 -->
<g id="edge37" class="edge">
<title>Node22&#45;&gt;Node20</title>
<path fill="none" stroke="#191970" d="M1657.8317,-58.3619C1655.2098,-50.7584 1651.6014,-40.294 1648.4431,-31.1349"/>
<polygon fill="#191970" stroke="#191970" points="1651.7138,-29.8834 1645.1451,-21.5707 1645.0962,-32.1654 1651.7138,-29.8834"/>
</g>
<!-- Node22&#45;&gt;Node21 -->
<g id="edge34" class="edge">
<title>Node22&#45;&gt;Node21</title>
<path fill="none" stroke="#191970" d="M1704.6325,-60.0011C1753.203,-49.8677 1832.2223,-33.3817 1885.0185,-22.3667"/>
<polygon fill="#191970" stroke="#191970" points="1885.8101,-25.7769 1894.8845,-20.3083 1884.3804,-18.9245 1885.8101,-25.7769"/>
</g>
<!-- Node23 -->
<g id="node24" class="node">
<title>Node23</title>
<polygon fill="#ffffff" stroke="#bfbfbf" points="1848,-.5 1848,-21.5 1877,-21.5 1877,-.5 1848,-.5"/>
<text text-anchor="middle" x="1862.5" y="-7.9" font-family="Helvetica,sans-Serif" font-size="12.00" fill="#000000">ios</text>
</g>
<!-- Node22&#45;&gt;Node23 -->
<g id="edge25" class="edge">
<title>Node22&#45;&gt;Node23</title>
<path fill="none" stroke="#191970" d="M1704.6842,-59.7036C1740.9138,-51.391 1793.7631,-38.0598 1838.5,-22 1838.5971,-21.9652 1838.6943,-21.9301 1838.7916,-21.8948"/>
<polygon fill="#191970" stroke="#191970" points="1840.0114,-25.1774 1847.9412,-18.151 1837.3605,-18.6987 1840.0114,-25.1774"/>
</g>
<!-- Node22&#45;&gt;Node24 -->
<g id="edge27" class="edge">
<title>Node22&#45;&gt;Node24</title>
<path fill="none" stroke="#191970" d="M1704.7889,-67.9158C1785.6487,-65.1793 1965.0332,-55.7515 2123.014,-21.943"/>
<polygon fill="#191970" stroke="#191970" points="2123.8822,-25.3361 2132.9078,-19.7872 2122.3918,-18.4965 2123.8822,-25.3361"/>
</g>
<!-- Node22&#45;&gt;Node25 -->
<g id="edge28" class="edge">
<title>Node22&#45;&gt;Node25</title>
<path fill="none" stroke="#191970" d="M1618.1756,-65.867C1584.689,-63.5089 1537.172,-60.3008 1495.5,-58 1317.6698,-48.1817 873.8028,-59.2533 682.1759,-21.7065"/>
<polygon fill="#191970" stroke="#191970" points="682.6348,-18.2277 672.135,-19.6439 681.2262,-25.0845 682.6348,-18.2277"/>
</g>
<!-- Node26 -->
<g id="node27" class="node">
<title>Node26</title>
<polygon fill="#ffffff" stroke="#bfbfbf" points="1787,-.5 1787,-21.5 1830,-21.5 1830,-.5 1787,-.5"/>
<text text-anchor="middle" x="1808.5" y="-7.9" font-family="Helvetica,sans-Serif" font-size="12.00" fill="#000000">stdio.h</text>
</g>
<!-- Node22&#45;&gt;Node26 -->
<g id="edge30" class="edge">
<title>Node22&#45;&gt;Node26</title>
<path fill="none" stroke="#191970" d="M1688.1206,-58.4966C1713.2112,-48.5969 1750.811,-33.7617 1777.2992,-23.3105"/>
<polygon fill="#191970" stroke="#191970" points="1778.8403,-26.4651 1786.8578,-19.5391 1776.2711,-19.9536 1778.8403,-26.4651"/>
</g>
<!-- Node27 -->
<g id="node28" class="node">
<title>Node27</title>
<polygon fill="#ffffff" stroke="#bfbfbf" points="1714.5,-.5 1714.5,-21.5 1768.5,-21.5 1768.5,-.5 1714.5,-.5"/>
<text text-anchor="middle" x="1741.5" y="-7.9" font-family="Helvetica,sans-Serif" font-size="12.00" fill="#000000">algorithm</text>
</g>
<!-- Node22&#45;&gt;Node27 -->
<g id="edge32" class="edge">
<title>Node22&#45;&gt;Node27</title>
<path fill="none" stroke="#191970" d="M1676.1732,-58.3619C1688.0141,-49.7773 1704.885,-37.5459 1718.5158,-27.6636"/>
<polygon fill="#191970" stroke="#191970" points="1720.8781,-30.274 1726.9198,-21.5707 1716.7693,-24.6067 1720.8781,-30.274"/>
</g>
<!-- Node22&#45;&gt;Node28 -->
<g id="edge35" class="edge">
<title>Node22&#45;&gt;Node28</title>
<path fill="none" stroke="#191970" d="M1704.8096,-66.7941C1793.645,-61.9138 2003.0257,-48.5856 2187.9936,-22.0982"/>
<polygon fill="#191970" stroke="#191970" points="2188.503,-25.561 2197.8981,-20.6637 2187.4996,-18.6333 2188.503,-25.561"/>
</g>
<!-- Node22&#45;&gt;Node29 -->
<g id="edge38" class="edge">
<title>Node22&#45;&gt;Node29</title>
<path fill="none" stroke="#191970" d="M1704.5112,-67.2619C1805.9219,-62.856 2068.0588,-49.6725 2297.1952,-22.0604"/>
<polygon fill="#191970" stroke="#191970" points="2297.8881,-25.5019 2307.3919,-20.8193 2297.0423,-18.5532 2297.8881,-25.5019"/>
</g>
<!-- Node30&#45;&gt;Node1 -->
<g id="edge54" class="edge">
<title>Node30&#45;&gt;Node1</title>
<path fill="none" stroke="#191970" d="M495.684,-61.6469C552.9806,-52.7147 652.8459,-37.1359 749.2528,-22.0376"/>
<polygon fill="#191970" stroke="#191970" points="749.8336,-25.4894 759.1715,-20.484 748.7504,-18.5737 749.8336,-25.4894"/>
</g>
<!-- Node30&#45;&gt;Node4 -->
<g id="edge41" class="edge">
<title>Node30&#45;&gt;Node4</title>
<path fill="none" stroke="#191970" d="M495.9299,-60.8929C540.9363,-52.8644 610.6151,-39.5675 680.1644,-21.8854"/>
<polygon fill="#191970" stroke="#191970" points="681.1622,-25.2427 689.9747,-19.3613 679.418,-18.4635 681.1622,-25.2427"/>
</g>
<!-- Node30&#45;&gt;Node5 -->
<g id="edge46" class="edge">
<title>Node30&#45;&gt;Node5</title>
<path fill="none" stroke="#191970" d="M495.5924,-67.2934C574.8629,-63.7016 739.926,-53.1325 887.0439,-21.9476"/>
<polygon fill="#191970" stroke="#191970" points="888.1188,-25.2963 897.1552,-19.7652 886.6419,-18.4539 888.1188,-25.2963"/>
</g>
<!-- Node30&#45;&gt;Node6 -->
<g id="edge45" class="edge">
<title>Node30&#45;&gt;Node6</title>
<path fill="none" stroke="#191970" d="M450.3342,-58.3619C451.631,-50.8401 453.4106,-40.5187 454.9775,-31.4308"/>
<polygon fill="#191970" stroke="#191970" points="458.4274,-32.02 456.6775,-21.5707 451.5292,-30.8306 458.4274,-32.02"/>
</g>
<!-- Node30&#45;&gt;Node7 -->
<g id="edge49" class="edge">
<title>Node30&#45;&gt;Node7</title>
<path fill="none" stroke="#191970" d="M463.1732,-58.3619C475.0141,-49.7773 491.885,-37.5459 505.5158,-27.6636"/>
<polygon fill="#191970" stroke="#191970" points="507.8781,-30.274 513.9198,-21.5707 503.7693,-24.6067 507.8781,-30.274"/>
</g>
<!-- Node30&#45;&gt;Node8 -->
<g id="edge53" class="edge">
<title>Node30&#45;&gt;Node8</title>
<path fill="none" stroke="#191970" d="M474.9395,-58.4966C500.1509,-48.4811 538.0787,-33.414 564.43,-22.9456"/>
<polygon fill="#191970" stroke="#191970" points="565.9106,-26.1236 573.9119,-19.1788 563.3262,-19.6181 565.9106,-26.1236"/>
</g>
<!-- Node30&#45;&gt;Node11 -->
<g id="edge52" class="edge">
<title>Node30&#45;&gt;Node11</title>
<path fill="none" stroke="#191970" d="M438.779,-58.3619C431.308,-50.1861 420.8143,-38.7025 412.0311,-29.0907"/>
<polygon fill="#191970" stroke="#191970" points="414.4889,-26.5918 405.1594,-21.5707 409.3214,-31.3138 414.4889,-26.5918"/>
</g>
<!-- Node30&#45;&gt;Node25 -->
<g id="edge44" class="edge">
<title>Node30&#45;&gt;Node25</title>
<path fill="none" stroke="#191970" d="M492.7277,-58.4254C526.1695,-50.1368 573.3557,-37.8199 623.2592,-21.8559"/>
<polygon fill="#191970" stroke="#191970" points="624.5019,-25.1325 632.9388,-18.724 622.347,-18.4725 624.5019,-25.1325"/>
</g>
<!-- Node31 -->
<g id="node32" class="node">
<title>Node31</title>
<polygon fill="#ffffff" stroke="#bfbfbf" points="314.5,-.5 314.5,-21.5 356.5,-21.5 356.5,-.5 314.5,-.5"/>
<text text-anchor="middle" x="335.5" y="-7.9" font-family="Helvetica,sans-Serif" font-size="12.00" fill="#000000">cstdlib</text>
</g>
<!-- Node30&#45;&gt;Node31 -->
<g id="edge42" class="edge">
<title>Node30&#45;&gt;Node31</title>
<path fill="none" stroke="#191970" d="M428.0366,-58.4966C410.4669,-49.4786 384.9179,-36.3649 365.1149,-26.2006"/>
<polygon fill="#191970" stroke="#191970" points="366.6879,-23.0738 356.1931,-21.6212 363.4914,-29.3014 366.6879,-23.0738"/>
</g>
<!-- Node32 -->
<g id="node33" class="node">
<title>Node32</title>
<polygon fill="#ffffff" stroke="#bfbfbf" points="134,-.5 134,-21.5 163,-21.5 163,-.5 134,-.5"/>
<text text-anchor="middle" x="148.5" y="-7.9" font-family="Helvetica,sans-Serif" font-size="12.00" fill="#000000">set</text>
</g>
<!-- Node30&#45;&gt;Node32 -->
<g id="edge43" class="edge">
<title>Node30&#45;&gt;Node32</title>
<path fill="none" stroke="#191970" d="M401.4948,-65.0387C347.6998,-59.6283 257.1146,-47.837 173.0388,-21.8987"/>
<polygon fill="#191970" stroke="#191970" points="173.9395,-18.5127 163.3496,-18.8362 171.8298,-25.1873 173.9395,-18.5127"/>
</g>
<!-- Node33 -->
<g id="node34" class="node">
<title>Node33</title>
<polygon fill="#ffffff" stroke="#bfbfbf" points="0,-.5 0,-21.5 43,-21.5 43,-.5 0,-.5"/>
<text text-anchor="middle" x="21.5" y="-7.9" font-family="Helvetica,sans-Serif" font-size="12.00" fill="#000000">cstring</text>
</g>
<!-- Node30&#45;&gt;Node33 -->
<g id="edge47" class="edge">
<title>Node30&#45;&gt;Node33</title>
<path fill="none" stroke="#191970" d="M401.429,-66.9837C328.2869,-63.0791 183.0214,-52.2377 53.0044,-21.962"/>
<polygon fill="#191970" stroke="#191970" points="53.8113,-18.5564 43.2733,-19.6524 52.1947,-25.3672 53.8113,-18.5564"/>
</g>
<!-- Node34 -->
<g id="node35" class="node">
<title>Node34</title>
<polygon fill="#ffffff" stroke="#bfbfbf" points="61,-.5 61,-21.5 116,-21.5 116,-.5 61,-.5"/>
<text text-anchor="middle" x="88.5" y="-7.9" font-family="Helvetica,sans-Serif" font-size="12.00" fill="#000000">exception</text>
</g>
<!-- Node30&#45;&gt;Node34 -->
<g id="edge48" class="edge">
<title>Node30&#45;&gt;Node34</title>
<path fill="none" stroke="#191970" d="M401.4119,-64.4468C339.9721,-58.0056 229.049,-44.666 126.2199,-22.1583"/>
<polygon fill="#191970" stroke="#191970" points="126.8172,-18.7058 116.2959,-19.9515 125.2977,-25.5388 126.8172,-18.7058"/>
</g>
<!-- Node35 -->
<g id="node36" class="node">
<title>Node35</title>
<polygon fill="#ffffff" stroke="#bfbfbf" points="181,-.5 181,-21.5 236,-21.5 236,-.5 181,-.5"/>
<text text-anchor="middle" x="208.5" y="-7.9" font-family="Helvetica,sans-Serif" font-size="12.00" fill="#000000">functional</text>
</g>
<!-- Node30&#45;&gt;Node35 -->
<g id="edge50" class="edge">
<title>Node30&#45;&gt;Node35</title>
<path fill="none" stroke="#191970" d="M401.1263,-58.8957C362.0317,-50.3625 304.9046,-37.4481 246.153,-22.0647"/>
<polygon fill="#191970" stroke="#191970" points="246.8907,-18.6396 236.3286,-19.4728 245.105,-25.408 246.8907,-18.6396"/>
</g>
<!-- Node36 -->
<g id="node37" class="node">
<title>Node36</title>
<polygon fill="#ffffff" stroke="#bfbfbf" points="254.5,-.5 254.5,-21.5 296.5,-21.5 296.5,-.5 254.5,-.5"/>
<text text-anchor="middle" x="275.5" y="-7.9" font-family="Helvetica,sans-Serif" font-size="12.00" fill="#000000">deque</text>
</g>
<!-- Node30&#45;&gt;Node36 -->
<g id="edge51" class="edge">
<title>Node30&#45;&gt;Node36</title>
<path fill="none" stroke="#191970" d="M415.4508,-58.4885C388.4412,-49.8203 349.0497,-37.003 306.4821,-22.2748"/>
<polygon fill="#191970" stroke="#191970" points="307.3682,-18.8774 296.7734,-18.9012 305.0706,-25.4896 307.3682,-18.8774"/>
</g>
<!-- Node37&#45;&gt;Node1 -->
<g id="edge70" class="edge">
<title>Node37&#45;&gt;Node1</title>
<path fill="none" stroke="#191970" d="M578.9556,-116.2949C626.6017,-95.4385 731.9221,-49.336 786.0088,-25.6603"/>
<polygon fill="#191970" stroke="#191970" points="787.729,-28.728 795.4863,-21.5117 784.922,-22.3154 787.729,-28.728"/>
</g>
<!-- Node37&#45;&gt;Node4 -->
<g id="edge56" class="edge">
<title>Node37&#45;&gt;Node4</title>
<path fill="none" stroke="#191970" d="M569.3579,-116.2949C597.5131,-96.0092 658.8165,-51.8403 692.3863,-27.6534"/>
<polygon fill="#191970" stroke="#191970" points="694.6106,-30.3647 700.678,-21.6792 690.5185,-24.6852 694.6106,-30.3647"/>
</g>
<!-- Node37&#45;&gt;Node5 -->
<g id="edge62" class="edge">
<title>Node37&#45;&gt;Node5</title>
<path fill="none" stroke="#191970" d="M624.0581,-119.2163C673.0359,-112.3528 739.5737,-100.2126 795.5,-80 832.937,-66.4697 872.6707,-42.9893 897.2847,-27.2256"/>
<polygon fill="#191970" stroke="#191970" points="899.4647,-29.9831 905.9417,-21.5986 895.6498,-24.1139 899.4647,-29.9831"/>
</g>
<!-- Node37&#45;&gt;Node6 -->
<g id="edge61" class="edge">
<title>Node37&#45;&gt;Node6</title>
<path fill="none" stroke="#191970" d="M547.5058,-116.3525C538.2329,-102.4796 521.0997,-77.6735 504.5,-58 496.0442,-47.9784 485.9177,-37.4897 477.321,-28.9697"/>
<polygon fill="#191970" stroke="#191970" points="479.5477,-26.252 469.9482,-21.7686 474.6566,-31.2598 479.5477,-26.252"/>
</g>
<!-- Node37&#45;&gt;Node7 -->
<g id="edge65" class="edge">
<title>Node37&#45;&gt;Node7</title>
<path fill="none" stroke="#191970" d="M552.1006,-116.2949C547.786,-97.0451 538.651,-56.2889 533.0969,-31.5091"/>
<polygon fill="#191970" stroke="#191970" points="536.4961,-30.6716 530.8936,-21.6792 529.6655,-32.2026 536.4961,-30.6716"/>
</g>
<!-- Node37&#45;&gt;Node8 -->
<g id="edge69" class="edge">
<title>Node37&#45;&gt;Node8</title>
<path fill="none" stroke="#191970" d="M558.1914,-116.2949C564.859,-96.9588 579.0093,-55.9229 587.5425,-31.1767"/>
<polygon fill="#191970" stroke="#191970" points="590.8663,-32.2739 590.8175,-21.6792 584.2487,-29.9919 590.8663,-32.2739"/>
</g>
<!-- Node37&#45;&gt;Node11 -->
<g id="edge68" class="edge">
<title>Node37&#45;&gt;Node11</title>
<path fill="none" stroke="#191970" d="M490.2734,-116.4593C450.4288,-108.4621 404.5914,-96.098 392.5,-80 382.1855,-66.2677 384.3523,-46.3016 388.2625,-31.3764"/>
<polygon fill="#191970" stroke="#191970" points="391.6868,-32.147 391.2644,-21.5606 384.9928,-30.0998 391.6868,-32.147"/>
</g>
<!-- Node37&#45;&gt;Node25 -->
<g id="edge60" class="edge">
<title>Node37&#45;&gt;Node25</title>
<path fill="none" stroke="#191970" d="M563.5439,-116.2949C580.2443,-96.5271 616.1047,-54.0801 636.8332,-29.5443"/>
<polygon fill="#191970" stroke="#191970" points="639.698,-31.5768 643.4779,-21.6792 634.3508,-27.0593 639.698,-31.5768"/>
</g>
<!-- Node37&#45;&gt;Node30 -->
<g id="edge71" class="edge">
<title>Node37&#45;&gt;Node30</title>
<path fill="none" stroke="#191970" d="M535.058,-116.3619C518.6964,-107.4094 495.0866,-94.4908 476.6565,-84.4064"/>
<polygon fill="#191970" stroke="#191970" points="478.2715,-81.3004 467.8188,-79.5707 474.9114,-87.4412 478.2715,-81.3004"/>
</g>
<!-- Node37&#45;&gt;Node31 -->
<g id="edge57" class="edge">
<title>Node37&#45;&gt;Node31</title>
<path fill="none" stroke="#191970" d="M484.7158,-119.6191C451.0516,-113.3185 411.5564,-101.6411 381.5,-80 364.2483,-67.5785 351.5944,-46.5312 343.9736,-30.9409"/>
<polygon fill="#191970" stroke="#191970" points="347.0506,-29.2546 339.6948,-21.6294 340.69,-32.1774 347.0506,-29.2546"/>
</g>
<!-- Node37&#45;&gt;Node32 -->
<g id="edge59" class="edge">
<title>Node37&#45;&gt;Node32</title>
<path fill="none" stroke="#191970" d="M484.9732,-121.5919C427.7791,-115.6515 345.2446,-103.6193 276.5,-80 237.7574,-66.6888 196.7015,-42.5295 171.8311,-26.6227"/>
<polygon fill="#191970" stroke="#191970" points="173.4229,-23.4831 163.1303,-20.9702 169.6093,-29.3531 173.4229,-23.4831"/>
</g>
<!-- Node37&#45;&gt;Node33 -->
<g id="edge63" class="edge">
<title>Node37&#45;&gt;Node33</title>
<path fill="none" stroke="#191970" d="M484.7352,-124.8842C406.9813,-121.0521 278.1566,-110.2798 171.5,-80 126.4633,-67.2141 77.8383,-42.6579 48.5347,-26.5541"/>
<polygon fill="#191970" stroke="#191970" points="50.1677,-23.4574 39.7285,-21.6483 46.761,-29.5725 50.1677,-23.4574"/>
</g>
<!-- Node37&#45;&gt;Node34 -->
<g id="edge64" class="edge">
<title>Node37&#45;&gt;Node34</title>
<path fill="none" stroke="#191970" d="M484.6899,-123.5934C417.0821,-118.775 312.3388,-107.2654 225.5,-80 184.3617,-67.0835 140.4591,-42.9049 113.7445,-26.8765"/>
<polygon fill="#191970" stroke="#191970" points="115.4062,-23.7905 105.0448,-21.5788 111.7654,-29.7693 115.4062,-23.7905"/>
</g>
<!-- Node37&#45;&gt;Node35 -->
<g id="edge66" class="edge">
<title>Node37&#45;&gt;Node35</title>
<path fill="none" stroke="#191970" d="M484.9709,-119.2799C437.9332,-112.5337 375.0447,-100.506 322.5,-80 288.4047,-66.694 252.9133,-43.4826 230.7722,-27.69"/>
<polygon fill="#191970" stroke="#191970" points="232.569,-24.6695 222.4195,-21.6302 228.4584,-30.3355 232.569,-24.6695"/>
</g>
<!-- Node37&#45;&gt;Node36 -->
<g id="edge67" class="edge">
<title>Node37&#45;&gt;Node36</title>
<path fill="none" stroke="#191970" d="M484.7603,-118.4554C445.7871,-111.7301 397.2192,-100.0193 357.5,-80 332.0331,-67.1641 307.6654,-44.9623 292.2107,-29.2121"/>
<polygon fill="#191970" stroke="#191970" points="294.4218,-26.4598 284.9828,-21.6477 289.3607,-31.2957 294.4218,-26.4598"/>
</g>
<!-- Node38 -->
<g id="node39" class="node">
<title>Node38</title>
<polygon fill="#ffffff" stroke="#bfbfbf" points="742,-58.5 742,-79.5 787,-79.5 787,-58.5 742,-58.5"/>
<text text-anchor="middle" x="764.5" y="-65.9" font-family="Helvetica,sans-Serif" font-size="12.00" fill="#000000">stdlib.h</text>
</g>
<!-- Node37&#45;&gt;Node38 -->
<g id="edge58" class="edge">
<title>Node37&#45;&gt;Node38</title>
<path fill="none" stroke="#191970" d="M594.4279,-116.4402C629.5399,-107.0855 681.9974,-92.9429 727.5,-80 728.9503,-79.5875 730.4315,-79.1625 731.9269,-78.7304"/>
<polygon fill="#191970" stroke="#191970" points="733.2122,-82.0011 741.8266,-75.8332 731.246,-75.2829 733.2122,-82.0011"/>
</g>
<!-- Node39 -->
<g id="node40" class="node">
<title>Node39</title>
<g id="a_node40"><a xlink:href="../../d0/d5d/mpi_8hpp.html" target="_top" xlink:title="timemory/mpi.hpp">
<polygon fill="#ffffff" stroke="#000000" points="1398.5,-58.5 1398.5,-79.5 1486.5,-79.5 1486.5,-58.5 1398.5,-58.5"/>
<text text-anchor="middle" x="1442.5" y="-65.9" font-family="Helvetica,sans-Serif" font-size="12.00" fill="#000000">timemory/mpi.hpp</text>
</a>
</g>
</g>
<!-- Node37&#45;&gt;Node39 -->
<g id="edge72" class="edge">
<title>Node37&#45;&gt;Node39</title>
<path fill="none" stroke="#191970" d="M624.1799,-122.4488C795.4424,-111.2628 1234.1928,-82.6056 1388.1304,-72.5512"/>
<polygon fill="#191970" stroke="#191970" points="1388.5331,-76.0324 1398.2837,-71.888 1388.0768,-69.0473 1388.5331,-76.0324"/>
</g>
<!-- Node39&#45;&gt;Node16 -->
<g id="edge73" class="edge">
<title>Node39&#45;&gt;Node16</title>
<path fill="none" stroke="#191970" d="M1442.5,-58.3619C1442.5,-50.9219 1442.5,-40.7427 1442.5,-31.7276"/>
<polygon fill="#191970" stroke="#191970" points="1446.0001,-31.5706 1442.5,-21.5707 1439.0001,-31.5707 1446.0001,-31.5706"/>
</g>
<!-- Node39&#45;&gt;Node27 -->
<g id="edge74" class="edge">
<title>Node39&#45;&gt;Node27</title>
<path fill="none" stroke="#191970" d="M1486.5766,-62.7735C1537.0895,-55.2732 1622.4814,-41.4829 1704.7179,-21.9822"/>
<polygon fill="#191970" stroke="#191970" points="1705.5635,-25.3788 1714.4689,-19.6391 1703.9279,-18.5725 1705.5635,-25.3788"/>
</g>
</g>
</svg>
        <g id="navigator" transform="translate(0 0)" fill="#404254">
                <rect fill="#f2f5e9" fill-opacity="0.5" stroke="#606060" stroke-width=".5" x="0" y="0" width="60" height="60"/>
                <use id="zoomplus" xlink:href="#zoomPlus" x="17" y="9" onmousedown="handleZoom(evt,'in')"/>
                <use id="zoomminus" xlink:href="#zoomMin" x="42" y="9" onmousedown="handleZoom(evt,'out')"/>
                <use id="reset" xlink:href="#resetDef" x="30" y="36" onmousedown="handleReset()"/>
                <g id="arrowUp" xlink:href="#dirArrow" transform="translate(30 24)" onmousedown="handlePan(0,-1)">
                  <use xlink:href="#rim" fill="#404040">
                        <set attributeName="fill" to="#808080" begin="arrowUp.mouseover" end="arrowUp.mouseout"/>
                  </use>
                  <path fill="none" stroke="white" stroke-width="1.5" d="M0,-3.0v7 M-2.5,-0.5L0,-3.0L2.5,-0.5"/>
                </g>
                <g id="arrowRight" xlink:href="#dirArrow" transform="rotate(90) translate(36 -43)" onmousedown="handlePan(1,0)">
                  <use xlink:href="#rim" fill="#404040">
                        <set attributeName="fill" to="#808080" begin="arrowRight.mouseover" end="arrowRight.mouseout"/>
                  </use>
                  <path fill="none" stroke="white" stroke-width="1.5" d="M0,-3.0v7 M-2.5,-0.5L0,-3.0L2.5,-0.5"/>
                </g>
                <g id="arrowDown" xlink:href="#dirArrow" transform="rotate(180) translate(-30 -48)" onmousedown="handlePan(0,1)">
                  <use xlink:href="#rim" fill="#404040">
                        <set attributeName="fill" to="#808080" begin="arrowDown.mouseover" end="arrowDown.mouseout"/>
                  </use>
                  <path fill="none" stroke="white" stroke-width="1.5" d="M0,-3.0v7 M-2.5,-0.5L0,-3.0L2.5,-0.5"/>
                </g>
                <g id="arrowLeft" xlink:href="#dirArrow" transform="rotate(270) translate(-36 17)" onmousedown="handlePan(-1,0)">
                  <use xlink:href="#rim" fill="#404040">
                        <set attributeName="fill" to="#808080" begin="arrowLeft.mouseover" end="arrowLeft.mouseout"/>
                  </use>
                  <path fill="none" stroke="white" stroke-width="1.5" d="M0,-3.0v7 M-2.5,-0.5L0,-3.0L2.5,-0.5"/>
                </g>
        </g>
        <svg viewBox="0 0 15 15" width="100%" height="30px" preserveAspectRatio="xMaxYMin meet">
         <g id="arrow_out" transform="scale(0.3 0.3)">
          <a xlink:href="timer_8hpp__incl_org.svg" target="_base">
           <rect id="button" ry="5" rx="5" y="6" x="6" height="38" width="38"
                fill="#f2f5e9" fill-opacity="0.5" stroke="#606060" stroke-width="1.0"/>
           <path id="arrow"
             d="M 11.500037,31.436501 C 11.940474,20.09759 22.043105,11.32322 32.158766,21.979434 L 37.068811,17.246167 C 37.068811,17.246167 37.088388,32 37.088388,32 L 22.160133,31.978069 C 22.160133,31.978069 26.997745,27.140456 26.997745,27.140456 C 18.528582,18.264221 13.291696,25.230495 11.500037,31.436501 z"
             style="fill:#404040;"/>
          </a>
         </g>
        </svg>
</svg>
