<?xml version="1.0" encoding="UTF-8" standalone="no"?>
<!DOCTYPE svg PUBLIC "-//W3C//DTD SVG 1.1//EN"
 "http://www.w3.org/Graphics/SVG/1.1/DTD/svg11.dtd">
<!-- Generated by graphviz version 2.40.1 (20161225.0304)
 -->
<!-- Title: timemory/signal_detection.hpp Pages: 1 -->
<!--zoomable 146 -->
<svg id="main" version="1.1" xmlns="http://www.w3.org/2000/svg" xmlns:xlink="http://www.w3.org/1999/xlink" xml:space="preserve" onload="init(evt)">
<style type="text/css"><![CDATA[
.edge:hover path { stroke: red; }
.edge:hover polygon { stroke: red; fill: red; }
]]></style>
<script type="text/javascript"><![CDATA[
var edges = document.getElementsByTagName('g');
if (edges && edges.length) {
  for (var i=0;i<edges.length;i++) {
    if (edges[i].id.substr(0,4)=='edge') {
      edges[i].setAttribute('class','edge');
    }
  }
}
]]></script>
        <defs>
                <circle id="rim" cx="0" cy="0" r="7"/>
                <circle id="rim2" cx="0" cy="0" r="3.5"/>
                <g id="zoomPlus">
                        <use xlink:href="#rim" fill="#404040">
                                <set attributeName="fill" to="#808080" begin="zoomplus.mouseover" end="zoomplus.mouseout"/>
                        </use>
                        <path d="M-4,0h8M0,-4v8" fill="none" stroke="white" stroke-width="1.5" pointer-events="none"/>
                </g>
                <g id="zoomMin">
                        <use xlink:href="#rim" fill="#404040">
                                <set attributeName="fill" to="#808080" begin="zoomminus.mouseover" end="zoomminus.mouseout"/>
                        </use>
                        <path d="M-4,0h8" fill="none" stroke="white" stroke-width="1.5" pointer-events="none"/>
                </g>
                <g id="dirArrow">
                        <path fill="none" stroke="white" stroke-width="1.5" d="M0,-3.0v7 M-2.5,-0.5L0,-3.0L2.5,-0.5"/>
                </g>
               <g id="resetDef">
                       <use xlink:href="#rim2" fill="#404040">
                               <set attributeName="fill" to="#808080" begin="reset.mouseover" end="reset.mouseout"/>
                       </use>
               </g>
        </defs>

<script type="text/javascript">
var viewWidth = 1271;
var viewHeight = 146;
var sectionId = 'dynsection-0';
</script>
<script xlink:href="../../svgpan.js"/>
<svg id="graph" class="graph">
<g id="viewport">
<title>timemory/signal_detection.hpp</title>
<polygon fill="#ffffff" stroke="transparent" points="-4,4 -4,-142 1266.5,-142 1266.5,4 -4,4"/>
<!-- Node0 -->
<g id="node1" class="node">
<title>Node0</title>
<polygon fill="#bfbfbf" stroke="#000000" points="445,-116.5 445,-137.5 584,-137.5 584,-116.5 445,-116.5"/>
<text text-anchor="middle" x="514.5" y="-123.9" font-family="Helvetica,sans-Serif" font-size="12.00" fill="#000000">timemory/signal_detection.hpp</text>
</g>
<!-- Node1 -->
<g id="node2" class="node">
<title>Node1</title>
<polygon fill="#ffffff" stroke="#bfbfbf" points="0,-.5 0,-21.5 51,-21.5 51,-.5 0,-.5"/>
<text text-anchor="middle" x="25.5" y="-7.9" font-family="Helvetica,sans-Serif" font-size="12.00" fill="#000000">iostream</text>
</g>
<!-- Node0&#45;&gt;Node1 -->
<g id="edge1" class="edge">
<title>Node0&#45;&gt;Node1</title>
<path fill="none" stroke="#191970" d="M444.9859,-122.9721C376.393,-117.6705 269.0939,-105.7933 179.5,-80 133.5183,-66.7623 83.526,-42.3308 53.3563,-26.3765"/>
<polygon fill="#191970" stroke="#191970" points="54.7554,-23.1555 44.2876,-21.5193 51.4503,-29.3261 54.7554,-23.1555"/>
</g>
<!-- Node2 -->
<g id="node3" class="node">
<title>Node2</title>
<polygon fill="#ffffff" stroke="#bfbfbf" points="69.5,-.5 69.5,-21.5 111.5,-21.5 111.5,-.5 69.5,-.5"/>
<text text-anchor="middle" x="90.5" y="-7.9" font-family="Helvetica,sans-Serif" font-size="12.00" fill="#000000">cstdlib</text>
</g>
<!-- Node0&#45;&gt;Node2 -->
<g id="edge2" class="edge">
<title>Node0&#45;&gt;Node2</title>
<path fill="none" stroke="#191970" d="M444.7143,-120.5595C387.7287,-114.0341 305.6119,-101.719 236.5,-80 193.2471,-66.4074 146.378,-42.4528 117.7221,-26.6521"/>
<polygon fill="#191970" stroke="#191970" points="119.1712,-23.4526 108.7338,-21.6329 115.7583,-29.5643 119.1712,-23.4526"/>
</g>
<!-- Node3 -->
<g id="node4" class="node">
<title>Node3</title>
<polygon fill="#ffffff" stroke="#bfbfbf" points="1201,-58.5 1201,-79.5 1246,-79.5 1246,-58.5 1201,-58.5"/>
<text text-anchor="middle" x="1223.5" y="-65.9" font-family="Helvetica,sans-Serif" font-size="12.00" fill="#000000">stdlib.h</text>
</g>
<!-- Node0&#45;&gt;Node3 -->
<g id="edge3" class="edge">
<title>Node0&#45;&gt;Node3</title>
<path fill="none" stroke="#191970" d="M584.2757,-124.4713C729.2113,-118.8507 1059.5631,-104.0329 1191.1084,-79.4972"/>
<polygon fill="#191970" stroke="#191970" points="1191.8394,-82.9206 1200.9779,-77.5598 1190.4909,-76.0517 1191.8394,-82.9206"/>
</g>
<!-- Node4 -->
<g id="node5" class="node">
<title>Node4</title>
<polygon fill="#ffffff" stroke="#bfbfbf" points="130,-.5 130,-21.5 159,-21.5 159,-.5 130,-.5"/>
<text text-anchor="middle" x="144.5" y="-7.9" font-family="Helvetica,sans-Serif" font-size="12.00" fill="#000000">set</text>
</g>
<!-- Node0&#45;&gt;Node4 -->
<g id="edge4" class="edge">
<title>Node0&#45;&gt;Node4</title>
<path fill="none" stroke="#191970" d="M446.5742,-116.4362C402.5685,-108.6324 344.3733,-96.4964 294.5,-80 248.2882,-64.7147 197.386,-39.3492 168.3473,-24.0009"/>
<polygon fill="#191970" stroke="#191970" points="169.8455,-20.8332 159.3759,-19.2089 166.5475,-27.0076 169.8455,-20.8332"/>
</g>
<!-- Node5 -->
<g id="node6" class="node">
<title>Node5</title>
<polygon fill="#ffffff" stroke="#bfbfbf" points="177,-.5 177,-21.5 216,-21.5 216,-.5 177,-.5"/>
<text text-anchor="middle" x="196.5" y="-7.9" font-family="Helvetica,sans-Serif" font-size="12.00" fill="#000000">string</text>
</g>
<!-- Node0&#45;&gt;Node5 -->
<g id="edge5" class="edge">
<title>Node0&#45;&gt;Node5</title>
<path fill="none" stroke="#191970" d="M470.8679,-116.4312C437.2814,-107.8509 389.9218,-94.7819 349.5,-80 305.2981,-63.8358 255.9671,-40.6012 225.5751,-25.6528"/>
<polygon fill="#191970" stroke="#191970" points="226.9181,-22.4123 216.4036,-21.1101 223.8111,-28.685 226.9181,-22.4123"/>
</g>
<!-- Node6 -->
<g id="node7" class="node">
<title>Node6</title>
<polygon fill="#ffffff" stroke="#bfbfbf" points="234,-.5 234,-21.5 283,-21.5 283,-.5 234,-.5"/>
<text text-anchor="middle" x="258.5" y="-7.9" font-family="Helvetica,sans-Serif" font-size="12.00" fill="#000000">sstream</text>
</g>
<!-- Node0&#45;&gt;Node6 -->
<g id="edge6" class="edge">
<title>Node0&#45;&gt;Node6</title>
<path fill="none" stroke="#191970" d="M487.5831,-116.4432C464.3567,-107.2054 429.994,-93.2308 400.5,-80 361.4053,-62.4624 317.1054,-40.6135 288.536,-26.2585"/>
<polygon fill="#191970" stroke="#191970" points="289.9858,-23.0699 279.4806,-21.6947 286.8353,-29.3209 289.9858,-23.0699"/>
</g>
<!-- Node7 -->
<g id="node8" class="node">
<title>Node7</title>
<polygon fill="#ffffff" stroke="#bfbfbf" points="301.5,-.5 301.5,-21.5 349.5,-21.5 349.5,-.5 301.5,-.5"/>
<text text-anchor="middle" x="325.5" y="-7.9" font-family="Helvetica,sans-Serif" font-size="12.00" fill="#000000">iomanip</text>
</g>
<!-- Node0&#45;&gt;Node7 -->
<g id="edge7" class="edge">
<title>Node0&#45;&gt;Node7</title>
<path fill="none" stroke="#191970" d="M497.0562,-116.3806C481.4415,-106.868 457.9273,-92.5266 437.5,-80 407.897,-61.8467 373.9486,-40.9162 351.2598,-26.9115"/>
<polygon fill="#191970" stroke="#191970" points="352.9115,-23.818 342.5638,-21.5427 349.2341,-29.7742 352.9115,-23.818"/>
</g>
<!-- Node8 -->
<g id="node9" class="node">
<title>Node8</title>
<polygon fill="#ffffff" stroke="#bfbfbf" points="368,-.5 368,-21.5 411,-21.5 411,-.5 368,-.5"/>
<text text-anchor="middle" x="389.5" y="-7.9" font-family="Helvetica,sans-Serif" font-size="12.00" fill="#000000">cstring</text>
</g>
<!-- Node0&#45;&gt;Node8 -->
<g id="edge8" class="edge">
<title>Node0&#45;&gt;Node8</title>
<path fill="none" stroke="#191970" d="M502.9644,-116.2949C481.3838,-96.2682 434.7199,-52.9641 408.454,-28.5893"/>
<polygon fill="#191970" stroke="#191970" points="410.7186,-25.916 401.0078,-21.6792 405.957,-31.047 410.7186,-25.916"/>
</g>
<!-- Node9 -->
<g id="node10" class="node">
<title>Node9</title>
<polygon fill="#ffffff" stroke="#bfbfbf" points="429,-.5 429,-21.5 484,-21.5 484,-.5 429,-.5"/>
<text text-anchor="middle" x="456.5" y="-7.9" font-family="Helvetica,sans-Serif" font-size="12.00" fill="#000000">exception</text>
</g>
<!-- Node0&#45;&gt;Node9 -->
<g id="edge9" class="edge">
<title>Node0&#45;&gt;Node9</title>
<path fill="none" stroke="#191970" d="M509.1475,-116.2949C499.4362,-96.8724 478.778,-55.5561 466.4231,-30.8462"/>
<polygon fill="#191970" stroke="#191970" points="469.4423,-29.0582 461.8396,-21.6792 463.1813,-32.1888 469.4423,-29.0582"/>
</g>
<!-- Node10 -->
<g id="node11" class="node">
<title>Node10</title>
<polygon fill="#ffffff" stroke="#bfbfbf" points="502,-.5 502,-21.5 557,-21.5 557,-.5 502,-.5"/>
<text text-anchor="middle" x="529.5" y="-7.9" font-family="Helvetica,sans-Serif" font-size="12.00" fill="#000000">stdexcept</text>
</g>
<!-- Node0&#45;&gt;Node10 -->
<g id="edge10" class="edge">
<title>Node0&#45;&gt;Node10</title>
<path fill="none" stroke="#191970" d="M515.8843,-116.2949C518.3623,-97.1314 523.5965,-56.654 526.8047,-31.8434"/>
<polygon fill="#191970" stroke="#191970" points="530.3077,-32.0455 528.1191,-21.6792 523.3655,-31.1478 530.3077,-32.0455"/>
</g>
<!-- Node11 -->
<g id="node12" class="node">
<title>Node11</title>
<polygon fill="#ffffff" stroke="#bfbfbf" points="756,-.5 756,-21.5 811,-21.5 811,-.5 756,-.5"/>
<text text-anchor="middle" x="783.5" y="-7.9" font-family="Helvetica,sans-Serif" font-size="12.00" fill="#000000">functional</text>
</g>
<!-- Node0&#45;&gt;Node11 -->
<g id="edge11" class="edge">
<title>Node0&#45;&gt;Node11</title>
<path fill="none" stroke="#191970" d="M547.2171,-116.4698C573.9729,-107.5714 612.6192,-94.0594 645.5,-80 684.2756,-63.42 727.5513,-41.1364 755.1267,-26.4353"/>
<polygon fill="#191970" stroke="#191970" points="757.0341,-29.384 764.1926,-21.5733 753.7257,-23.2151 757.0341,-29.384"/>
</g>
<!-- Node12 -->
<g id="node13" class="node">
<title>Node12</title>
<polygon fill="#ffffff" stroke="#bfbfbf" points="829.5,-.5 829.5,-21.5 871.5,-21.5 871.5,-.5 829.5,-.5"/>
<text text-anchor="middle" x="850.5" y="-7.9" font-family="Helvetica,sans-Serif" font-size="12.00" fill="#000000">deque</text>
</g>
<!-- Node0&#45;&gt;Node12 -->
<g id="edge12" class="edge">
<title>Node0&#45;&gt;Node12</title>
<path fill="none" stroke="#191970" d="M558.0068,-116.4404C592.4024,-107.7241 641.4587,-94.4722 683.5,-80 732.2298,-63.2254 787.1905,-39.5649 820.3171,-24.7643"/>
<polygon fill="#191970" stroke="#191970" points="821.7748,-27.9465 829.4619,-20.6555 818.9058,-21.5614 821.7748,-27.9465"/>
</g>
<!-- Node13 -->
<g id="node14" class="node">
<title>Node13</title>
<polygon fill="#ffffff" stroke="#bfbfbf" points="890,-.5 890,-21.5 931,-21.5 931,-.5 890,-.5"/>
<text text-anchor="middle" x="910.5" y="-7.9" font-family="Helvetica,sans-Serif" font-size="12.00" fill="#000000">cmath</text>
</g>
<!-- Node0&#45;&gt;Node13 -->
<g id="edge13" class="edge">
<title>Node0&#45;&gt;Node13</title>
<path fill="none" stroke="#191970" d="M571.9123,-116.4362C614.6545,-108.036 674.224,-95.1943 725.5,-80 781.078,-63.5309 843.9527,-38.7124 880.234,-23.761"/>
<polygon fill="#191970" stroke="#191970" points="881.8378,-26.8849 889.7338,-19.8207 879.1559,-20.4191 881.8378,-26.8849"/>
</g>
<!-- Node14 -->
<g id="node15" class="node">
<title>Node14</title>
<polygon fill="#ffffff" stroke="#bfbfbf" points="949,-.5 949,-21.5 990,-21.5 990,-.5 949,-.5"/>
<text text-anchor="middle" x="969.5" y="-7.9" font-family="Helvetica,sans-Serif" font-size="12.00" fill="#000000">vector</text>
</g>
<!-- Node0&#45;&gt;Node14 -->
<g id="edge14" class="edge">
<title>Node0&#45;&gt;Node14</title>
<path fill="none" stroke="#191970" d="M584.1093,-117.0942C635.9433,-109.0255 708.208,-96.3102 770.5,-80 844.3209,-60.6711 863.2162,-49.4575 939.2948,-22.0545"/>
<polygon fill="#191970" stroke="#191970" points="940.6273,-25.2951 948.8636,-18.6308 938.2691,-18.7042 940.6273,-25.2951"/>
</g>
<!-- Node15 -->
<g id="node16" class="node">
<title>Node15</title>
<g id="a_node16"><a xlink:href="../../db/d19/namespace_8hpp.html" target="_top" xlink:title="timemory/namespace.hpp">
<polygon fill="#ffffff" stroke="#000000" points="1008.5,-.5 1008.5,-21.5 1128.5,-21.5 1128.5,-.5 1008.5,-.5"/>
<text text-anchor="middle" x="1068.5" y="-7.9" font-family="Helvetica,sans-Serif" font-size="12.00" fill="#000000">timemory/namespace.hpp</text>
</a>
</g>
</g>
<!-- Node0&#45;&gt;Node15 -->
<g id="edge15" class="edge">
<title>Node0&#45;&gt;Node15</title>
<path fill="none" stroke="#191970" d="M584.2024,-118.6959C646.5058,-110.7043 740.1046,-97.294 820.5,-80 893.4627,-64.3048 976.7655,-39.725 1025.8705,-24.5305"/>
<polygon fill="#191970" stroke="#191970" points="1027.0089,-27.8419 1035.5181,-21.5298 1024.9298,-21.1578 1027.0089,-27.8419"/>
</g>
<!-- Node16 -->
<g id="node17" class="node">
<title>Node16</title>
<g id="a_node17"><a xlink:href="../../d1/d4e/utility_8hpp.html" target="_top" xlink:title="timemory/utility.hpp">
<polygon fill="#ffffff" stroke="#000000" points="542.5,-58.5 542.5,-79.5 636.5,-79.5 636.5,-58.5 542.5,-58.5"/>
<text text-anchor="middle" x="589.5" y="-65.9" font-family="Helvetica,sans-Serif" font-size="12.00" fill="#000000">timemory/utility.hpp</text>
</a>
</g>
</g>
<!-- Node0&#45;&gt;Node16 -->
<g id="edge16" class="edge">
<title>Node0&#45;&gt;Node16</title>
<path fill="none" stroke="#191970" d="M528.2562,-116.3619C539.2512,-107.859 554.8726,-95.7785 567.5864,-85.9466"/>
<polygon fill="#191970" stroke="#191970" points="570.0616,-88.4569 575.8311,-79.5707 565.7794,-82.9195 570.0616,-88.4569"/>
</g>
<!-- Node21 -->
<g id="node22" class="node">
<title>Node21</title>
<g id="a_node22"><a xlink:href="../../d0/d5d/mpi_8hpp.html" target="_top" xlink:title="timemory/mpi.hpp">
<polygon fill="#ffffff" stroke="#000000" points="1094.5,-58.5 1094.5,-79.5 1182.5,-79.5 1182.5,-58.5 1094.5,-58.5"/>
<text text-anchor="middle" x="1138.5" y="-65.9" font-family="Helvetica,sans-Serif" font-size="12.00" fill="#000000">timemory/mpi.hpp</text>
</a>
</g>
</g>
<!-- Node0&#45;&gt;Node21 -->
<g id="edge35" class="edge">
<title>Node0&#45;&gt;Node21</title>
<path fill="none" stroke="#191970" d="M584.0108,-121.4611C685.3503,-113.2441 879.5567,-96.9611 1044.5,-80 1057.268,-78.6871 1070.9964,-77.1512 1083.9104,-75.6506"/>
<polygon fill="#191970" stroke="#191970" points="1084.5346,-79.1015 1094.0585,-74.4597 1083.7187,-72.1492 1084.5346,-79.1015"/>
</g>
<!-- Node16&#45;&gt;Node1 -->
<g id="edge23" class="edge">
<title>Node16&#45;&gt;Node1</title>
<path fill="none" stroke="#191970" d="M542.3132,-68.212C450.9477,-65.9536 243.5968,-57.2558 61.3639,-21.7874"/>
<polygon fill="#191970" stroke="#191970" points="61.8209,-18.31 51.3317,-19.8023 60.4621,-25.1769 61.8209,-18.31"/>
</g>
<!-- Node16&#45;&gt;Node2 -->
<g id="edge18" class="edge">
<title>Node16&#45;&gt;Node2</title>
<path fill="none" stroke="#191970" d="M542.2711,-68.1759C458.7308,-65.8758 279.5814,-57.1568 121.5053,-21.7457"/>
<polygon fill="#191970" stroke="#191970" points="122.1332,-18.2991 111.6051,-19.4862 120.5756,-25.1236 122.1332,-18.2991"/>
</g>
<!-- Node16&#45;&gt;Node4 -->
<g id="edge29" class="edge">
<title>Node16&#45;&gt;Node4</title>
<path fill="none" stroke="#191970" d="M542.2692,-65.7379C451.1322,-59.1292 253.2252,-43.1739 169.0028,-21.6227"/>
<polygon fill="#191970" stroke="#191970" points="169.8796,-18.234 159.3101,-18.967 168.0298,-24.9852 169.8796,-18.234"/>
</g>
<!-- Node16&#45;&gt;Node5 -->
<g id="edge21" class="edge">
<title>Node16&#45;&gt;Node5</title>
<path fill="none" stroke="#191970" d="M542.4235,-66.6452C474.1379,-62.4242 343.7397,-51.3341 226.077,-21.9505"/>
<polygon fill="#191970" stroke="#191970" points="226.7402,-18.5077 216.1855,-19.4287 225.0108,-25.2907 226.7402,-18.5077"/>
</g>
<!-- Node16&#45;&gt;Node6 -->
<g id="edge22" class="edge">
<title>Node16&#45;&gt;Node6</title>
<path fill="none" stroke="#191970" d="M542.2454,-63.8299C485.2883,-57.0895 386.6076,-43.7895 293.1552,-21.8628"/>
<polygon fill="#191970" stroke="#191970" points="293.7944,-18.4172 283.2553,-19.5024 292.1709,-25.2263 293.7944,-18.4172"/>
</g>
<!-- Node16&#45;&gt;Node7 -->
<g id="edge24" class="edge">
<title>Node16&#45;&gt;Node7</title>
<path fill="none" stroke="#191970" d="M542.2149,-61.1089C497.3591,-53.2371 427.9481,-40.058 359.2367,-21.9743"/>
<polygon fill="#191970" stroke="#191970" points="360.1128,-18.5857 349.5486,-19.3901 358.3087,-25.3492 360.1128,-18.5857"/>
</g>
<!-- Node16&#45;&gt;Node8 -->
<g id="edge19" class="edge">
<title>Node16&#45;&gt;Node8</title>
<path fill="none" stroke="#191970" d="M547.6494,-58.4489C515.2273,-50.0467 469.019,-37.5778 420.7375,-22.2472"/>
<polygon fill="#191970" stroke="#191970" points="421.6482,-18.8638 411.0571,-19.1433 419.5109,-25.5295 421.6482,-18.8638"/>
</g>
<!-- Node16&#45;&gt;Node9 -->
<g id="edge25" class="edge">
<title>Node16&#45;&gt;Node9</title>
<path fill="none" stroke="#191970" d="M565.4147,-58.4966C544.3611,-49.3154 513.5728,-35.8889 490.0976,-25.6516"/>
<polygon fill="#191970" stroke="#191970" points="491.421,-22.4104 480.8556,-21.6212 488.6228,-28.8268 491.421,-22.4104"/>
</g>
<!-- Node16&#45;&gt;Node10 -->
<g id="edge26" class="edge">
<title>Node16&#45;&gt;Node10</title>
<path fill="none" stroke="#191970" d="M578.4951,-58.3619C569.9527,-50.1043 557.9198,-38.4725 547.9168,-28.8029"/>
<polygon fill="#191970" stroke="#191970" points="550.0577,-26.0044 540.4352,-21.5707 545.1925,-31.0374 550.0577,-26.0044"/>
</g>
<!-- Node16&#45;&gt;Node11 -->
<g id="edge27" class="edge">
<title>Node16&#45;&gt;Node11</title>
<path fill="none" stroke="#191970" d="M624.6319,-58.4966C658.9181,-48.2461 710.9036,-32.7041 745.983,-22.2164"/>
<polygon fill="#191970" stroke="#191970" points="747.2654,-25.4862 755.8438,-19.2683 745.2603,-18.7795 747.2654,-25.4862"/>
</g>
<!-- Node16&#45;&gt;Node12 -->
<g id="edge28" class="edge">
<title>Node16&#45;&gt;Node12</title>
<path fill="none" stroke="#191970" d="M636.6495,-61.3492C683.4642,-53.2895 757.0682,-39.3643 819.5,-22 819.5997,-21.9723 819.6996,-21.9444 819.7996,-21.9163"/>
<polygon fill="#191970" stroke="#191970" points="820.7694,-25.2801 829.2795,-18.9691 818.6912,-18.5957 820.7694,-25.2801"/>
</g>
<!-- Node16&#45;&gt;Node13 -->
<g id="edge20" class="edge">
<title>Node16&#45;&gt;Node13</title>
<path fill="none" stroke="#191970" d="M636.6935,-64.1903C692.6953,-57.8643 788.8968,-45.0507 879.7715,-21.7958"/>
<polygon fill="#191970" stroke="#191970" points="880.8883,-25.1217 889.6818,-19.212 879.1222,-18.3482 880.8883,-25.1217"/>
</g>
<!-- Node16&#45;&gt;Node14 -->
<g id="edge30" class="edge">
<title>Node16&#45;&gt;Node14</title>
<path fill="none" stroke="#191970" d="M636.5307,-65.9531C702.3769,-60.9744 825.7273,-49.0501 938.8381,-21.715"/>
<polygon fill="#191970" stroke="#191970" points="939.828,-25.0759 948.7005,-19.2854 938.1535,-18.2791 939.828,-25.0759"/>
</g>
<!-- Node16&#45;&gt;Node15 -->
<g id="edge34" class="edge">
<title>Node16&#45;&gt;Node15</title>
<path fill="none" stroke="#191970" d="M636.5041,-64.2388C710.7915,-56.5735 860.1337,-40.5957 997.8763,-22.0372"/>
<polygon fill="#191970" stroke="#191970" points="998.7548,-25.4502 1008.1942,-20.6391 997.8148,-18.5136 998.7548,-25.4502"/>
</g>
<!-- Node17 -->
<g id="node18" class="node">
<title>Node17</title>
<polygon fill="#ffffff" stroke="#bfbfbf" points="1147,-.5 1147,-21.5 1190,-21.5 1190,-.5 1147,-.5"/>
<text text-anchor="middle" x="1168.5" y="-7.9" font-family="Helvetica,sans-Serif" font-size="12.00" fill="#000000">cstdint</text>
</g>
<!-- Node16&#45;&gt;Node17 -->
<g id="edge17" class="edge">
<title>Node16&#45;&gt;Node17</title>
<path fill="none" stroke="#191970" d="M636.7846,-66.4986C748.0827,-60.3684 1024.9756,-43.644 1136.7137,-21.599"/>
<polygon fill="#191970" stroke="#191970" points="1137.6111,-24.9873 1146.6857,-19.519 1136.1817,-18.1348 1137.6111,-24.9873"/>
</g>
<!-- Node18 -->
<g id="node19" class="node">
<title>Node18</title>
<polygon fill="#ffffff" stroke="#bfbfbf" points="575,-.5 575,-21.5 618,-21.5 618,-.5 575,-.5"/>
<text text-anchor="middle" x="596.5" y="-7.9" font-family="Helvetica,sans-Serif" font-size="12.00" fill="#000000">atomic</text>
</g>
<!-- Node16&#45;&gt;Node18 -->
<g id="edge31" class="edge">
<title>Node16&#45;&gt;Node18</title>
<path fill="none" stroke="#191970" d="M590.7839,-58.3619C591.6818,-50.9219 592.9104,-40.7427 593.9984,-31.7276"/>
<polygon fill="#191970" stroke="#191970" points="597.5007,-31.918 595.2242,-21.5707 590.5512,-31.0792 597.5007,-31.918"/>
</g>
<!-- Node19 -->
<g id="node20" class="node">
<title>Node19</title>
<polygon fill="#ffffff" stroke="#bfbfbf" points="636,-.5 636,-21.5 677,-21.5 677,-.5 636,-.5"/>
<text text-anchor="middle" x="656.5" y="-7.9" font-family="Helvetica,sans-Serif" font-size="12.00" fill="#000000">mutex</text>
</g>
<!-- Node16&#45;&gt;Node19 -->
<g id="edge32" class="edge">
<title>Node16&#45;&gt;Node19</title>
<path fill="none" stroke="#191970" d="M601.7888,-58.3619C611.5167,-49.9408 625.2982,-38.0105 636.5955,-28.2308"/>
<polygon fill="#191970" stroke="#191970" points="639.0192,-30.7619 644.2891,-21.5707 634.4377,-25.4695 639.0192,-30.7619"/>
</g>
<!-- Node20 -->
<g id="node21" class="node">
<title>Node20</title>
<polygon fill="#ffffff" stroke="#bfbfbf" points="695.5,-.5 695.5,-21.5 737.5,-21.5 737.5,-.5 695.5,-.5"/>
<text text-anchor="middle" x="716.5" y="-7.9" font-family="Helvetica,sans-Serif" font-size="12.00" fill="#000000">thread</text>
</g>
<!-- Node16&#45;&gt;Node20 -->
<g id="edge33" class="edge">
<title>Node16&#45;&gt;Node20</title>
<path fill="none" stroke="#191970" d="M612.4987,-58.4966C633.1387,-49.0705 663.5765,-35.1698 686.1962,-24.8395"/>
<polygon fill="#191970" stroke="#191970" points="687.718,-27.9923 695.3603,-20.6543 684.81,-21.6249 687.718,-27.9923"/>
</g>
<!-- Node21&#45;&gt;Node17 -->
<g id="edge36" class="edge">
<title>Node21&#45;&gt;Node17</title>
<path fill="none" stroke="#191970" d="M1144.0025,-58.3619C1148.0199,-50.5949 1153.5814,-39.8426 1158.3901,-30.5458"/>
<polygon fill="#191970" stroke="#191970" points="1161.5469,-32.0608 1163.0324,-21.5707 1155.3294,-28.8448 1161.5469,-32.0608"/>
</g>
<!-- Node22 -->
<g id="node23" class="node">
<title>Node22</title>
<polygon fill="#ffffff" stroke="#bfbfbf" points="1208.5,-.5 1208.5,-21.5 1262.5,-21.5 1262.5,-.5 1208.5,-.5"/>
<text text-anchor="middle" x="1235.5" y="-7.9" font-family="Helvetica,sans-Serif" font-size="12.00" fill="#000000">algorithm</text>
</g>
<!-- Node21&#45;&gt;Node22 -->
<g id="edge37" class="edge">
<title>Node21&#45;&gt;Node22</title>
<path fill="none" stroke="#191970" d="M1156.2913,-58.3619C1171.0585,-49.532 1192.2782,-36.844 1209.0384,-26.8224"/>
<polygon fill="#191970" stroke="#191970" points="1211.0349,-29.7066 1217.8215,-21.5707 1207.4426,-23.6987 1211.0349,-29.7066"/>
</g>
</g>
</svg>
        <g id="navigator" transform="translate(0 0)" fill="#404254">
                <rect fill="#f2f5e9" fill-opacity="0.5" stroke="#606060" stroke-width=".5" x="0" y="0" width="60" height="60"/>
                <use id="zoomplus" xlink:href="#zoomPlus" x="17" y="9" onmousedown="handleZoom(evt,'in')"/>
                <use id="zoomminus" xlink:href="#zoomMin" x="42" y="9" onmousedown="handleZoom(evt,'out')"/>
                <use id="reset" xlink:href="#resetDef" x="30" y="36" onmousedown="handleReset()"/>
                <g id="arrowUp" xlink:href="#dirArrow" transform="translate(30 24)" onmousedown="handlePan(0,-1)">
                  <use xlink:href="#rim" fill="#404040">
                        <set attributeName="fill" to="#808080" begin="arrowUp.mouseover" end="arrowUp.mouseout"/>
                  </use>
                  <path fill="none" stroke="white" stroke-width="1.5" d="M0,-3.0v7 M-2.5,-0.5L0,-3.0L2.5,-0.5"/>
                </g>
                <g id="arrowRight" xlink:href="#dirArrow" transform="rotate(90) translate(36 -43)" onmousedown="handlePan(1,0)">
                  <use xlink:href="#rim" fill="#404040">
                        <set attributeName="fill" to="#808080" begin="arrowRight.mouseover" end="arrowRight.mouseout"/>
                  </use>
                  <path fill="none" stroke="white" stroke-width="1.5" d="M0,-3.0v7 M-2.5,-0.5L0,-3.0L2.5,-0.5"/>
                </g>
                <g id="arrowDown" xlink:href="#dirArrow" transform="rotate(180) translate(-30 -48)" onmousedown="handlePan(0,1)">
                  <use xlink:href="#rim" fill="#404040">
                        <set attributeName="fill" to="#808080" begin="arrowDown.mouseover" end="arrowDown.mouseout"/>
                  </use>
                  <path fill="none" stroke="white" stroke-width="1.5" d="M0,-3.0v7 M-2.5,-0.5L0,-3.0L2.5,-0.5"/>
                </g>
                <g id="arrowLeft" xlink:href="#dirArrow" transform="rotate(270) translate(-36 17)" onmousedown="handlePan(-1,0)">
                  <use xlink:href="#rim" fill="#404040">
                        <set attributeName="fill" to="#808080" begin="arrowLeft.mouseover" end="arrowLeft.mouseout"/>
                  </use>
                  <path fill="none" stroke="white" stroke-width="1.5" d="M0,-3.0v7 M-2.5,-0.5L0,-3.0L2.5,-0.5"/>
                </g>
        </g>
        <svg viewBox="0 0 15 15" width="100%" height="30px" preserveAspectRatio="xMaxYMin meet">
         <g id="arrow_out" transform="scale(0.3 0.3)">
          <a xlink:href="signal__detection_8hpp__incl_org.svg" target="_base">
           <rect id="button" ry="5" rx="5" y="6" x="6" height="38" width="38"
                fill="#f2f5e9" fill-opacity="0.5" stroke="#606060" stroke-width="1.0"/>
           <path id="arrow"
             d="M 11.500037,31.436501 C 11.940474,20.09759 22.043105,11.32322 32.158766,21.979434 L 37.068811,17.246167 C 37.068811,17.246167 37.088388,32 37.088388,32 L 22.160133,31.978069 C 22.160133,31.978069 26.997745,27.140456 26.997745,27.140456 C 18.528582,18.264221 13.291696,25.230495 11.500037,31.436501 z"
             style="fill:#404040;"/>
          </a>
         </g>
        </svg>
</svg>
