<?xml version="1.0" encoding="UTF-8" standalone="no"?>
<!DOCTYPE svg PUBLIC "-//W3C//DTD SVG 1.1//EN"
 "http://www.w3.org/Graphics/SVG/1.1/DTD/svg11.dtd">
<!-- Generated by graphviz version 2.40.1 (20161225.0304)
 -->
<!-- Title: timemory/signal_detection.hpp Pages: 1 -->
<svg width="1090pt" height="146pt"
 viewBox="0.00 0.00 1089.50 146.00" xmlns="http://www.w3.org/2000/svg" xmlns:xlink="http://www.w3.org/1999/xlink">
<g id="graph0" class="graph" transform="scale(1 1) rotate(0) translate(4 142)">
<title>timemory/signal_detection.hpp</title>
<polygon fill="#ffffff" stroke="transparent" points="-4,4 -4,-142 1085.5,-142 1085.5,4 -4,4"/>
<!-- Node0 -->
<g id="node1" class="node">
<title>Node0</title>
<polygon fill="#bfbfbf" stroke="#000000" points="444,-116.5 444,-137.5 583,-137.5 583,-116.5 444,-116.5"/>
<text text-anchor="middle" x="513.5" y="-123.9" font-family="Helvetica,sans-Serif" font-size="12.00" fill="#000000">timemory/signal_detection.hpp</text>
</g>
<!-- Node1 -->
<g id="node2" class="node">
<title>Node1</title>
<polygon fill="#ffffff" stroke="#bfbfbf" points="0,-.5 0,-21.5 51,-21.5 51,-.5 0,-.5"/>
<text text-anchor="middle" x="25.5" y="-7.9" font-family="Helvetica,sans-Serif" font-size="12.00" fill="#000000">iostream</text>
</g>
<!-- Node0&#45;&gt;Node1 -->
<g id="edge1" class="edge">
<title>Node0&#45;&gt;Node1</title>
<path fill="none" stroke="#191970" d="M443.9688,-124.1169C372.9032,-119.6654 260.0073,-108.3998 166.5,-80 124.0945,-67.1207 78.6682,-42.7618 51.1699,-26.7044"/>
<polygon fill="#191970" stroke="#191970" points="52.9496,-23.6906 42.5619,-21.6056 49.3821,-29.7134 52.9496,-23.6906"/>
</g>
<!-- Node2 -->
<g id="node3" class="node">
<title>Node2</title>
<polygon fill="#ffffff" stroke="#bfbfbf" points="69.5,-.5 69.5,-21.5 111.5,-21.5 111.5,-.5 69.5,-.5"/>
<text text-anchor="middle" x="90.5" y="-7.9" font-family="Helvetica,sans-Serif" font-size="12.00" fill="#000000">cstdlib</text>
</g>
<!-- Node0&#45;&gt;Node2 -->
<g id="edge2" class="edge">
<title>Node0&#45;&gt;Node2</title>
<path fill="none" stroke="#191970" d="M443.7589,-122.7512C382.5169,-117.4375 291.7184,-105.6785 216.5,-80 178.6185,-67.0678 138.7113,-43.2304 114.2077,-27.2447"/>
<polygon fill="#191970" stroke="#191970" points="115.8754,-24.151 105.607,-21.5415 112.0069,-29.9849 115.8754,-24.151"/>
</g>
<!-- Node3 -->
<g id="node4" class="node">
<title>Node3</title>
<polygon fill="#ffffff" stroke="#bfbfbf" points="770,-58.5 770,-79.5 815,-79.5 815,-58.5 770,-58.5"/>
<text text-anchor="middle" x="792.5" y="-65.9" font-family="Helvetica,sans-Serif" font-size="12.00" fill="#000000">stdlib.h</text>
</g>
<!-- Node0&#45;&gt;Node3 -->
<g id="edge3" class="edge">
<title>Node0&#45;&gt;Node3</title>
<path fill="none" stroke="#191970" d="M576.5412,-116.4877C625.5938,-107.8916 695.2262,-94.7756 755.5,-80 756.9645,-79.641 758.4573,-79.2601 759.9623,-78.864"/>
<polygon fill="#191970" stroke="#191970" points="761.2017,-82.1522 769.8968,-76.0987 759.3245,-75.4085 761.2017,-82.1522"/>
</g>
<!-- Node4 -->
<g id="node5" class="node">
<title>Node4</title>
<polygon fill="#ffffff" stroke="#bfbfbf" points="130,-.5 130,-21.5 159,-21.5 159,-.5 130,-.5"/>
<text text-anchor="middle" x="144.5" y="-7.9" font-family="Helvetica,sans-Serif" font-size="12.00" fill="#000000">set</text>
</g>
<!-- Node0&#45;&gt;Node4 -->
<g id="edge4" class="edge">
<title>Node0&#45;&gt;Node4</title>
<path fill="none" stroke="#191970" d="M443.932,-120.1956C393.0479,-113.7152 322.9885,-101.6286 264.5,-80 228.6825,-66.7549 191.0945,-43.3671 167.7345,-27.5317"/>
<polygon fill="#191970" stroke="#191970" points="169.4419,-24.4578 159.2215,-21.6662 165.4703,-30.2221 169.4419,-24.4578"/>
</g>
<!-- Node5 -->
<g id="node6" class="node">
<title>Node5</title>
<polygon fill="#ffffff" stroke="#bfbfbf" points="177,-.5 177,-21.5 216,-21.5 216,-.5 177,-.5"/>
<text text-anchor="middle" x="196.5" y="-7.9" font-family="Helvetica,sans-Serif" font-size="12.00" fill="#000000">string</text>
</g>
<!-- Node0&#45;&gt;Node5 -->
<g id="edge5" class="edge">
<title>Node0&#45;&gt;Node5</title>
<path fill="none" stroke="#191970" d="M443.7049,-116.4846C403.7528,-109.0868 353.2316,-97.3606 310.5,-80 276.7802,-66.3007 241.451,-43.38 219.2254,-27.7457"/>
<polygon fill="#191970" stroke="#191970" points="220.9946,-24.7081 210.8236,-21.7416 216.9247,-30.4034 220.9946,-24.7081"/>
</g>
<!-- Node6 -->
<g id="node7" class="node">
<title>Node6</title>
<polygon fill="#ffffff" stroke="#bfbfbf" points="234,-.5 234,-21.5 283,-21.5 283,-.5 234,-.5"/>
<text text-anchor="middle" x="258.5" y="-7.9" font-family="Helvetica,sans-Serif" font-size="12.00" fill="#000000">sstream</text>
</g>
<!-- Node0&#45;&gt;Node6 -->
<g id="edge6" class="edge">
<title>Node0&#45;&gt;Node6</title>
<path fill="none" stroke="#191970" d="M456.9309,-116.4297C424.136,-108.9649 382.6967,-97.19 348.5,-80 321.4399,-66.3974 294.4039,-44.2283 277.1335,-28.6993"/>
<polygon fill="#191970" stroke="#191970" points="279.2162,-25.8601 269.4825,-21.676 274.4825,-31.0168 279.2162,-25.8601"/>
</g>
<!-- Node7 -->
<g id="node8" class="node">
<title>Node7</title>
<polygon fill="#ffffff" stroke="#bfbfbf" points="301.5,-.5 301.5,-21.5 349.5,-21.5 349.5,-.5 301.5,-.5"/>
<text text-anchor="middle" x="325.5" y="-7.9" font-family="Helvetica,sans-Serif" font-size="12.00" fill="#000000">iomanip</text>
</g>
<!-- Node0&#45;&gt;Node7 -->
<g id="edge7" class="edge">
<title>Node0&#45;&gt;Node7</title>
<path fill="none" stroke="#191970" d="M454.8866,-116.4898C427.8352,-109.4896 396.4802,-98.1275 372.5,-80 355.5223,-67.166 342.5581,-46.3542 334.5888,-30.9386"/>
<polygon fill="#191970" stroke="#191970" points="337.6199,-29.1699 330.0811,-21.7257 331.3322,-32.2464 337.6199,-29.1699"/>
</g>
<!-- Node8 -->
<g id="node9" class="node">
<title>Node8</title>
<polygon fill="#ffffff" stroke="#bfbfbf" points="368,-.5 368,-21.5 411,-21.5 411,-.5 368,-.5"/>
<text text-anchor="middle" x="389.5" y="-7.9" font-family="Helvetica,sans-Serif" font-size="12.00" fill="#000000">cstring</text>
</g>
<!-- Node0&#45;&gt;Node8 -->
<g id="edge8" class="edge">
<title>Node0&#45;&gt;Node8</title>
<path fill="none" stroke="#191970" d="M467.3475,-116.4145C433.8315,-107.6839 392.6503,-94.4255 382.5,-80 372.687,-66.0538 375.8739,-46.4205 380.6804,-31.6609"/>
<polygon fill="#191970" stroke="#191970" points="384.0956,-32.5187 384.3038,-21.9259 377.5353,-30.0769 384.0956,-32.5187"/>
</g>
<!-- Node9 -->
<g id="node10" class="node">
<title>Node9</title>
<polygon fill="#ffffff" stroke="#bfbfbf" points="429,-.5 429,-21.5 484,-21.5 484,-.5 429,-.5"/>
<text text-anchor="middle" x="456.5" y="-7.9" font-family="Helvetica,sans-Serif" font-size="12.00" fill="#000000">exception</text>
</g>
<!-- Node0&#45;&gt;Node9 -->
<g id="edge9" class="edge">
<title>Node0&#45;&gt;Node9</title>
<path fill="none" stroke="#191970" d="M511.9399,-116.2169C509.6031,-102.1974 504.3741,-77.233 494.5,-58 489.1804,-47.6384 481.3298,-37.4261 474.1431,-29.1817"/>
<polygon fill="#191970" stroke="#191970" points="476.6161,-26.699 467.296,-21.6605 471.4398,-31.4114 476.6161,-26.699"/>
</g>
<!-- Node10 -->
<g id="node11" class="node">
<title>Node10</title>
<polygon fill="#ffffff" stroke="#bfbfbf" points="502,-.5 502,-21.5 557,-21.5 557,-.5 502,-.5"/>
<text text-anchor="middle" x="529.5" y="-7.9" font-family="Helvetica,sans-Serif" font-size="12.00" fill="#000000">stdexcept</text>
</g>
<!-- Node0&#45;&gt;Node10 -->
<g id="edge10" class="edge">
<title>Node0&#45;&gt;Node10</title>
<path fill="none" stroke="#191970" d="M517.5383,-116.3583C520.8971,-106.9511 525.4479,-92.7776 527.5,-80 530.0535,-64.1 530.4774,-45.8808 530.3038,-32.158"/>
<polygon fill="#191970" stroke="#191970" points="533.7949,-31.7492 530.051,-21.8379 526.797,-31.9207 533.7949,-31.7492"/>
</g>
<!-- Node11 -->
<g id="node12" class="node">
<title>Node11</title>
<polygon fill="#ffffff" stroke="#bfbfbf" points="575,-.5 575,-21.5 630,-21.5 630,-.5 575,-.5"/>
<text text-anchor="middle" x="602.5" y="-7.9" font-family="Helvetica,sans-Serif" font-size="12.00" fill="#000000">functional</text>
</g>
<!-- Node0&#45;&gt;Node11 -->
<g id="edge11" class="edge">
<title>Node0&#45;&gt;Node11</title>
<path fill="none" stroke="#191970" d="M521.7134,-116.2949C536.8138,-96.6135 569.163,-54.4504 588.0246,-29.8668"/>
<polygon fill="#191970" stroke="#191970" points="590.9961,-31.7436 594.3065,-21.6792 585.4424,-27.4826 590.9961,-31.7436"/>
</g>
<!-- Node12 -->
<g id="node13" class="node">
<title>Node12</title>
<polygon fill="#ffffff" stroke="#bfbfbf" points="648.5,-.5 648.5,-21.5 690.5,-21.5 690.5,-.5 648.5,-.5"/>
<text text-anchor="middle" x="669.5" y="-7.9" font-family="Helvetica,sans-Serif" font-size="12.00" fill="#000000">deque</text>
</g>
<!-- Node0&#45;&gt;Node12 -->
<g id="edge12" class="edge">
<title>Node0&#45;&gt;Node12</title>
<path fill="none" stroke="#191970" d="M527.8965,-116.2949C555.1773,-96.0092 614.5769,-51.8403 647.1041,-27.6534"/>
<polygon fill="#191970" stroke="#191970" points="649.2021,-30.4549 655.1383,-21.6792 645.0252,-24.8376 649.2021,-30.4549"/>
</g>
<!-- Node13 -->
<g id="node14" class="node">
<title>Node13</title>
<polygon fill="#ffffff" stroke="#bfbfbf" points="709,-.5 709,-21.5 750,-21.5 750,-.5 709,-.5"/>
<text text-anchor="middle" x="729.5" y="-7.9" font-family="Helvetica,sans-Serif" font-size="12.00" fill="#000000">cmath</text>
</g>
<!-- Node0&#45;&gt;Node13 -->
<g id="edge13" class="edge">
<title>Node0&#45;&gt;Node13</title>
<path fill="none" stroke="#191970" d="M534.8046,-116.385C553.5226,-106.9949 581.446,-92.8315 605.5,-80 638.8449,-62.2123 676.7526,-40.9663 701.7815,-26.7937"/>
<polygon fill="#191970" stroke="#191970" points="703.7363,-29.7088 710.7071,-21.7302 700.2822,-23.6203 703.7363,-29.7088"/>
</g>
<!-- Node14 -->
<g id="node15" class="node">
<title>Node14</title>
<polygon fill="#ffffff" stroke="#bfbfbf" points="768,-.5 768,-21.5 809,-21.5 809,-.5 768,-.5"/>
<text text-anchor="middle" x="788.5" y="-7.9" font-family="Helvetica,sans-Serif" font-size="12.00" fill="#000000">vector</text>
</g>
<!-- Node0&#45;&gt;Node14 -->
<g id="edge14" class="edge">
<title>Node0&#45;&gt;Node14</title>
<path fill="none" stroke="#191970" d="M543.2838,-116.4801C568.7575,-107.3212 606.2992,-93.4398 638.5,-80 680.7496,-62.3662 728.6664,-39.8782 758.7341,-25.4566"/>
<polygon fill="#191970" stroke="#191970" points="760.3466,-28.5649 767.8393,-21.0741 757.3107,-22.2574 760.3466,-28.5649"/>
</g>
<!-- Node15 -->
<g id="node16" class="node">
<title>Node15</title>
<g id="a_node16"><a xlink:href="../../db/d19/namespace_8hpp.html" target="_top" xlink:title="timemory/namespace.hpp">
<polygon fill="#ffffff" stroke="#000000" points="827.5,-.5 827.5,-21.5 947.5,-21.5 947.5,-.5 827.5,-.5"/>
<text text-anchor="middle" x="887.5" y="-7.9" font-family="Helvetica,sans-Serif" font-size="12.00" fill="#000000">timemory/namespace.hpp</text>
</a>
</g>
</g>
<!-- Node0&#45;&gt;Node15 -->
<g id="edge15" class="edge">
<title>Node0&#45;&gt;Node15</title>
<path fill="none" stroke="#191970" d="M551.7312,-116.4909C585.0473,-107.2263 634.6096,-93.1869 677.5,-80 736.7583,-61.7808 804.8538,-39.0786 847.0349,-24.8067"/>
<polygon fill="#191970" stroke="#191970" points="848.3151,-28.0684 856.6622,-21.5434 846.0679,-21.4389 848.3151,-28.0684"/>
</g>
<!-- Node16 -->
<g id="node17" class="node">
<title>Node16</title>
<g id="a_node17"><a xlink:href="../../d1/d4e/utility_8hpp.html" target="_top" xlink:title="timemory/utility.hpp">
<polygon fill="#ffffff" stroke="#000000" points="391.5,-58.5 391.5,-79.5 485.5,-79.5 485.5,-58.5 391.5,-58.5"/>
<text text-anchor="middle" x="438.5" y="-65.9" font-family="Helvetica,sans-Serif" font-size="12.00" fill="#000000">timemory/utility.hpp</text>
</a>
</g>
</g>
<!-- Node0&#45;&gt;Node16 -->
<g id="edge16" class="edge">
<title>Node0&#45;&gt;Node16</title>
<path fill="none" stroke="#191970" d="M499.7438,-116.3619C488.7488,-107.859 473.1274,-95.7785 460.4136,-85.9466"/>
<polygon fill="#191970" stroke="#191970" points="462.2206,-82.9195 452.1689,-79.5707 457.9384,-88.4569 462.2206,-82.9195"/>
</g>
<!-- Node17 -->
<g id="node18" class="node">
<title>Node17</title>
<g id="a_node18"><a xlink:href="../../d0/d5d/mpi_8hpp.html" target="_top" xlink:title="timemory/mpi.hpp">
<polygon fill="#ffffff" stroke="#000000" points="943.5,-58.5 943.5,-79.5 1031.5,-79.5 1031.5,-58.5 943.5,-58.5"/>
<text text-anchor="middle" x="987.5" y="-65.9" font-family="Helvetica,sans-Serif" font-size="12.00" fill="#000000">timemory/mpi.hpp</text>
</a>
</g>
</g>
<!-- Node0&#45;&gt;Node17 -->
<g id="edge31" class="edge">
<title>Node0&#45;&gt;Node17</title>
<path fill="none" stroke="#191970" d="M583.1856,-118.4731C678.389,-106.8237 847.1096,-86.1786 933.3956,-75.6204"/>
<polygon fill="#191970" stroke="#191970" points="933.9983,-79.0728 943.4991,-74.3841 933.148,-72.1246 933.9983,-79.0728"/>
</g>
<!-- Node16&#45;&gt;Node1 -->
<g id="edge17" class="edge">
<title>Node16&#45;&gt;Node1</title>
<path fill="none" stroke="#191970" d="M391.4873,-65.8992C321.443,-60.681 185.5193,-48.2514 61.409,-21.8723"/>
<polygon fill="#191970" stroke="#191970" points="61.8671,-18.3906 51.3533,-19.6983 60.3879,-25.2325 61.8671,-18.3906"/>
</g>
<!-- Node16&#45;&gt;Node2 -->
<g id="edge18" class="edge">
<title>Node16&#45;&gt;Node2</title>
<path fill="none" stroke="#191970" d="M391.297,-65.0674C330.629,-59.346 222.0684,-46.855 121.3559,-21.8208"/>
<polygon fill="#191970" stroke="#191970" points="122.1892,-18.4214 111.6359,-19.3588 120.4704,-25.2071 122.1892,-18.4214"/>
</g>
<!-- Node16&#45;&gt;Node4 -->
<g id="edge19" class="edge">
<title>Node16&#45;&gt;Node4</title>
<path fill="none" stroke="#191970" d="M391.0497,-64.751C338.3418,-59.1609 250.8661,-47.2921 169.2709,-21.9817"/>
<polygon fill="#191970" stroke="#191970" points="169.9426,-18.5226 159.3522,-18.8279 167.8215,-25.1935 169.9426,-18.5226"/>
</g>
<!-- Node16&#45;&gt;Node5 -->
<g id="edge20" class="edge">
<title>Node16&#45;&gt;Node5</title>
<path fill="none" stroke="#191970" d="M391.1938,-60.8368C349.681,-53.1773 287.6082,-40.5248 226.11,-22.1958"/>
<polygon fill="#191970" stroke="#191970" points="226.8335,-18.7578 216.2481,-19.2052 224.8021,-25.4566 226.8335,-18.7578"/>
</g>
<!-- Node16&#45;&gt;Node6 -->
<g id="edge21" class="edge">
<title>Node16&#45;&gt;Node6</title>
<path fill="none" stroke="#191970" d="M405.7338,-58.467C378.1062,-49.5826 337.2744,-36.4442 292.6005,-22.0295"/>
<polygon fill="#191970" stroke="#191970" points="293.6043,-18.6758 283.0126,-18.9353 291.4544,-25.3374 293.6043,-18.6758"/>
</g>
<!-- Node16&#45;&gt;Node7 -->
<g id="edge22" class="edge">
<title>Node16&#45;&gt;Node7</title>
<path fill="none" stroke="#191970" d="M418.0366,-58.4966C400.4669,-49.4786 374.9179,-36.3649 355.1149,-26.2006"/>
<polygon fill="#191970" stroke="#191970" points="356.6879,-23.0738 346.1931,-21.6212 353.4914,-29.3014 356.6879,-23.0738"/>
</g>
<!-- Node16&#45;&gt;Node8 -->
<g id="edge23" class="edge">
<title>Node16&#45;&gt;Node8</title>
<path fill="none" stroke="#191970" d="M429.5126,-58.3619C422.6745,-50.2678 413.0976,-38.9318 405.0276,-29.3796"/>
<polygon fill="#191970" stroke="#191970" points="407.5575,-26.9508 398.4304,-21.5707 402.2103,-31.4683 407.5575,-26.9508"/>
</g>
<!-- Node16&#45;&gt;Node9 -->
<g id="edge24" class="edge">
<title>Node16&#45;&gt;Node9</title>
<path fill="none" stroke="#191970" d="M441.8015,-58.3619C444.1612,-50.7584 447.4088,-40.294 450.2512,-31.1349"/>
<polygon fill="#191970" stroke="#191970" points="453.5981,-32.1587 453.2195,-21.5707 446.9127,-30.0839 453.5981,-32.1587"/>
</g>
<!-- Node16&#45;&gt;Node10 -->
<g id="edge25" class="edge">
<title>Node16&#45;&gt;Node10</title>
<path fill="none" stroke="#191970" d="M455.1908,-58.3619C468.9163,-49.6138 488.5836,-37.0786 504.2374,-27.1015"/>
<polygon fill="#191970" stroke="#191970" points="506.3634,-29.8969 512.915,-21.5707 502.601,-23.994 506.3634,-29.8969"/>
</g>
<!-- Node16&#45;&gt;Node11 -->
<g id="edge26" class="edge">
<title>Node16&#45;&gt;Node11</title>
<path fill="none" stroke="#191970" d="M468.1992,-58.4966C495.4833,-48.8474 536.026,-34.5091 565.4248,-24.112"/>
<polygon fill="#191970" stroke="#191970" points="566.6716,-27.3835 574.9323,-20.7495 564.3376,-20.7841 566.6716,-27.3835"/>
</g>
<!-- Node16&#45;&gt;Node12 -->
<g id="edge27" class="edge">
<title>Node16&#45;&gt;Node12</title>
<path fill="none" stroke="#191970" d="M485.7586,-59.4315C526.5291,-50.8118 586.8273,-37.1891 638.5,-22 638.5993,-21.9708 638.6988,-21.9415 638.7984,-21.912"/>
<polygon fill="#191970" stroke="#191970" points="639.7982,-25.267 648.2556,-18.8856 637.6646,-18.6 639.7982,-25.267"/>
</g>
<!-- Node16&#45;&gt;Node13 -->
<g id="edge28" class="edge">
<title>Node16&#45;&gt;Node13</title>
<path fill="none" stroke="#191970" d="M485.7196,-63.0086C536.3617,-56.0273 619.1719,-43.011 699.2457,-21.6919"/>
<polygon fill="#191970" stroke="#191970" points="700.2581,-25.0439 708.9949,-19.0507 698.4276,-18.2875 700.2581,-25.0439"/>
</g>
<!-- Node16&#45;&gt;Node14 -->
<g id="edge29" class="edge">
<title>Node16&#45;&gt;Node14</title>
<path fill="none" stroke="#191970" d="M485.7302,-65.1243C546.725,-59.4486 656.1467,-46.9923 757.8733,-21.7357"/>
<polygon fill="#191970" stroke="#191970" points="758.856,-25.0975 767.6919,-19.2514 757.1389,-18.3113 758.856,-25.0975"/>
</g>
<!-- Node16&#45;&gt;Node15 -->
<g id="edge30" class="edge">
<title>Node16&#45;&gt;Node15</title>
<path fill="none" stroke="#191970" d="M485.5375,-63.6646C555.3543,-55.6359 690.7843,-39.6429 816.9603,-22.0384"/>
<polygon fill="#191970" stroke="#191970" points="817.7721,-25.4589 827.1895,-20.6047 816.8004,-18.5267 817.7721,-25.4589"/>
</g>
<!-- Node18 -->
<g id="node19" class="node">
<title>Node18</title>
<polygon fill="#ffffff" stroke="#bfbfbf" points="966,-.5 966,-21.5 1009,-21.5 1009,-.5 966,-.5"/>
<text text-anchor="middle" x="987.5" y="-7.9" font-family="Helvetica,sans-Serif" font-size="12.00" fill="#000000">cstdint</text>
</g>
<!-- Node17&#45;&gt;Node18 -->
<g id="edge32" class="edge">
<title>Node17&#45;&gt;Node18</title>
<path fill="none" stroke="#191970" d="M987.5,-58.3619C987.5,-50.9219 987.5,-40.7427 987.5,-31.7276"/>
<polygon fill="#191970" stroke="#191970" points="991.0001,-31.5706 987.5,-21.5707 984.0001,-31.5707 991.0001,-31.5706"/>
</g>
<!-- Node19 -->
<g id="node20" class="node">
<title>Node19</title>
<polygon fill="#ffffff" stroke="#bfbfbf" points="1027.5,-.5 1027.5,-21.5 1081.5,-21.5 1081.5,-.5 1027.5,-.5"/>
<text text-anchor="middle" x="1054.5" y="-7.9" font-family="Helvetica,sans-Serif" font-size="12.00" fill="#000000">algorithm</text>
</g>
<!-- Node17&#45;&gt;Node19 -->
<g id="edge33" class="edge">
<title>Node17&#45;&gt;Node19</title>
<path fill="none" stroke="#191970" d="M999.7888,-58.3619C1009.5167,-49.9408 1023.2982,-38.0105 1034.5955,-28.2308"/>
<polygon fill="#191970" stroke="#191970" points="1037.0192,-30.7619 1042.2891,-21.5707 1032.4377,-25.4695 1037.0192,-30.7619"/>
</g>
</g>
</svg>
