<?xml version="1.0" encoding="UTF-8" standalone="no"?>
<!DOCTYPE svg PUBLIC "-//W3C//DTD SVG 1.1//EN"
 "http://www.w3.org/Graphics/SVG/1.1/DTD/svg11.dtd">
<!-- Generated by graphviz version 2.40.1 (20161225.0304)
 -->
<!-- Title: timemory/signal_detection.hpp Pages: 1 -->
<!--zoomable 146 -->
<svg id="main" version="1.1" xmlns="http://www.w3.org/2000/svg" xmlns:xlink="http://www.w3.org/1999/xlink" xml:space="preserve" onload="init(evt)">
<style type="text/css"><![CDATA[
.edge:hover path { stroke: red; }
.edge:hover polygon { stroke: red; fill: red; }
]]></style>
<script type="text/javascript"><![CDATA[
var edges = document.getElementsByTagName('g');
if (edges && edges.length) {
  for (var i=0;i<edges.length;i++) {
    if (edges[i].id.substr(0,4)=='edge') {
      edges[i].setAttribute('class','edge');
    }
  }
}
]]></script>
        <defs>
                <circle id="rim" cx="0" cy="0" r="7"/>
                <circle id="rim2" cx="0" cy="0" r="3.5"/>
                <g id="zoomPlus">
                        <use xlink:href="#rim" fill="#404040">
                                <set attributeName="fill" to="#808080" begin="zoomplus.mouseover" end="zoomplus.mouseout"/>
                        </use>
                        <path d="M-4,0h8M0,-4v8" fill="none" stroke="white" stroke-width="1.5" pointer-events="none"/>
                </g>
                <g id="zoomMin">
                        <use xlink:href="#rim" fill="#404040">
                                <set attributeName="fill" to="#808080" begin="zoomminus.mouseover" end="zoomminus.mouseout"/>
                        </use>
                        <path d="M-4,0h8" fill="none" stroke="white" stroke-width="1.5" pointer-events="none"/>
                </g>
                <g id="dirArrow">
                        <path fill="none" stroke="white" stroke-width="1.5" d="M0,-3.0v7 M-2.5,-0.5L0,-3.0L2.5,-0.5"/>
                </g>
               <g id="resetDef">
                       <use xlink:href="#rim2" fill="#404040">
                               <set attributeName="fill" to="#808080" begin="reset.mouseover" end="reset.mouseout"/>
                       </use>
               </g>
        </defs>

<script type="text/javascript">
var viewWidth = 1119;
var viewHeight = 146;
var sectionId = 'dynsection-0';
</script>
<script xlink:href="../../svgpan.js"/>
<svg id="graph" class="graph">
<g id="viewport">
<title>timemory/signal_detection.hpp</title>
<polygon fill="#ffffff" stroke="transparent" points="-4,4 -4,-142 1114.5,-142 1114.5,4 -4,4"/>
<!-- Node0 -->
<g id="node1" class="node">
<title>Node0</title>
<polygon fill="#bfbfbf" stroke="#000000" points="490,-116.5 490,-137.5 629,-137.5 629,-116.5 490,-116.5"/>
<text text-anchor="middle" x="559.5" y="-123.9" font-family="Helvetica,sans-Serif" font-size="12.00" fill="#000000">timemory/signal_detection.hpp</text>
</g>
<!-- Node1 -->
<g id="node2" class="node">
<title>Node1</title>
<polygon fill="#ffffff" stroke="#bfbfbf" points="0,-.5 0,-21.5 51,-21.5 51,-.5 0,-.5"/>
<text text-anchor="middle" x="25.5" y="-7.9" font-family="Helvetica,sans-Serif" font-size="12.00" fill="#000000">iostream</text>
</g>
<!-- Node0&#45;&gt;Node1 -->
<g id="edge1" class="edge">
<title>Node0&#45;&gt;Node1</title>
<path fill="none" stroke="#191970" d="M489.951,-121.7911C392.4639,-113.9803 220.3985,-98.193 160.5,-80 119.7224,-67.6146 76.5243,-43.2953 50.2788,-27.0917"/>
<polygon fill="#191970" stroke="#191970" points="52.0653,-24.0808 41.7342,-21.7317 48.3455,-30.0107 52.0653,-24.0808"/>
</g>
<!-- Node2 -->
<g id="node3" class="node">
<title>Node2</title>
<polygon fill="#ffffff" stroke="#bfbfbf" points="69.5,-.5 69.5,-21.5 111.5,-21.5 111.5,-.5 69.5,-.5"/>
<text text-anchor="middle" x="90.5" y="-7.9" font-family="Helvetica,sans-Serif" font-size="12.00" fill="#000000">cstdlib</text>
</g>
<!-- Node0&#45;&gt;Node2 -->
<g id="edge2" class="edge">
<title>Node0&#45;&gt;Node2</title>
<path fill="none" stroke="#191970" d="M489.6524,-120.6327C403.754,-112.2606 263.2236,-96.6503 213.5,-80 176.2367,-67.5221 137.3516,-43.5694 113.5247,-27.4343"/>
<polygon fill="#191970" stroke="#191970" points="115.3851,-24.4658 105.1649,-21.6734 111.413,-30.2298 115.3851,-24.4658"/>
</g>
<!-- Node3 -->
<g id="node4" class="node">
<title>Node3</title>
<polygon fill="#ffffff" stroke="#bfbfbf" points="759,-58.5 759,-79.5 804,-79.5 804,-58.5 759,-58.5"/>
<text text-anchor="middle" x="781.5" y="-65.9" font-family="Helvetica,sans-Serif" font-size="12.00" fill="#000000">stdlib.h</text>
</g>
<!-- Node0&#45;&gt;Node3 -->
<g id="edge3" class="edge">
<title>Node0&#45;&gt;Node3</title>
<path fill="none" stroke="#191970" d="M602.9902,-116.4746C640.563,-107.2565 696.2591,-93.2931 744.5,-80 745.9537,-79.5994 747.4376,-79.1843 748.9353,-78.7603"/>
<polygon fill="#191970" stroke="#191970" points="750.2106,-82.0349 758.8432,-75.8925 748.2643,-75.3109 750.2106,-82.0349"/>
</g>
<!-- Node4 -->
<g id="node5" class="node">
<title>Node4</title>
<polygon fill="#ffffff" stroke="#bfbfbf" points="130,-.5 130,-21.5 159,-21.5 159,-.5 130,-.5"/>
<text text-anchor="middle" x="144.5" y="-7.9" font-family="Helvetica,sans-Serif" font-size="12.00" fill="#000000">set</text>
</g>
<!-- Node0&#45;&gt;Node4 -->
<g id="edge4" class="edge">
<title>Node0&#45;&gt;Node4</title>
<path fill="none" stroke="#191970" d="M489.9687,-123.5482C428.1555,-118.7443 336.1254,-107.2854 260.5,-80 225.2799,-67.2927 188.8338,-43.5665 166.4138,-27.5275"/>
<polygon fill="#191970" stroke="#191970" points="168.4064,-24.6489 158.2626,-21.5905 164.2851,-30.3071 168.4064,-24.6489"/>
</g>
<!-- Node5 -->
<g id="node6" class="node">
<title>Node5</title>
<polygon fill="#ffffff" stroke="#bfbfbf" points="177,-.5 177,-21.5 216,-21.5 216,-.5 177,-.5"/>
<text text-anchor="middle" x="196.5" y="-7.9" font-family="Helvetica,sans-Serif" font-size="12.00" fill="#000000">string</text>
</g>
<!-- Node0&#45;&gt;Node5 -->
<g id="edge5" class="edge">
<title>Node0&#45;&gt;Node5</title>
<path fill="none" stroke="#191970" d="M489.8937,-121.3261C437.7153,-115.3726 365.3088,-103.4498 305.5,-80 272.5129,-67.0664 238.6695,-43.7671 217.6259,-27.8531"/>
<polygon fill="#191970" stroke="#191970" points="219.7506,-25.0718 209.6925,-21.7423 215.479,-30.6174 219.7506,-25.0718"/>
</g>
<!-- Node6 -->
<g id="node7" class="node">
<title>Node6</title>
<polygon fill="#ffffff" stroke="#bfbfbf" points="234,-.5 234,-21.5 283,-21.5 283,-.5 234,-.5"/>
<text text-anchor="middle" x="258.5" y="-7.9" font-family="Helvetica,sans-Serif" font-size="12.00" fill="#000000">sstream</text>
</g>
<!-- Node0&#45;&gt;Node6 -->
<g id="edge6" class="edge">
<title>Node0&#45;&gt;Node6</title>
<path fill="none" stroke="#191970" d="M489.942,-120.6201C445.6914,-114.5171 388.1489,-102.7039 341.5,-80 315.6734,-67.4303 291.0183,-45.1759 275.3908,-29.3407"/>
<polygon fill="#191970" stroke="#191970" points="277.534,-26.5193 268.0832,-21.7303 272.4848,-31.3676 277.534,-26.5193"/>
</g>
<!-- Node7 -->
<g id="node8" class="node">
<title>Node7</title>
<polygon fill="#ffffff" stroke="#bfbfbf" points="301.5,-.5 301.5,-21.5 349.5,-21.5 349.5,-.5 301.5,-.5"/>
<text text-anchor="middle" x="325.5" y="-7.9" font-family="Helvetica,sans-Serif" font-size="12.00" fill="#000000">iomanip</text>
</g>
<!-- Node0&#45;&gt;Node7 -->
<g id="edge7" class="edge">
<title>Node0&#45;&gt;Node7</title>
<path fill="none" stroke="#191970" d="M489.8765,-116.5798C441.5515,-108.2096 382.4161,-95.3422 362.5,-80 346.7516,-67.8683 336.9212,-47.0784 331.3869,-31.4824"/>
<polygon fill="#191970" stroke="#191970" points="334.6266,-30.125 328.2219,-21.6852 327.9655,-32.277 334.6266,-30.125"/>
</g>
<!-- Node8 -->
<g id="node9" class="node">
<title>Node8</title>
<polygon fill="#ffffff" stroke="#bfbfbf" points="368,-.5 368,-21.5 411,-21.5 411,-.5 368,-.5"/>
<text text-anchor="middle" x="389.5" y="-7.9" font-family="Helvetica,sans-Serif" font-size="12.00" fill="#000000">cstring</text>
</g>
<!-- Node0&#45;&gt;Node8 -->
<g id="edge8" class="edge">
<title>Node0&#45;&gt;Node8</title>
<path fill="none" stroke="#191970" d="M489.6057,-118.5409C442.4359,-111.2293 386.2002,-98.8277 371.5,-80 360.5003,-65.9118 367.6325,-45.7682 375.9436,-30.8801"/>
<polygon fill="#191970" stroke="#191970" points="379.1609,-32.3282 381.3967,-21.9719 373.1907,-28.6735 379.1609,-32.3282"/>
</g>
<!-- Node9 -->
<g id="node10" class="node">
<title>Node9</title>
<polygon fill="#ffffff" stroke="#bfbfbf" points="429,-.5 429,-21.5 484,-21.5 484,-.5 429,-.5"/>
<text text-anchor="middle" x="456.5" y="-7.9" font-family="Helvetica,sans-Serif" font-size="12.00" fill="#000000">exception</text>
</g>
<!-- Node0&#45;&gt;Node9 -->
<g id="edge9" class="edge">
<title>Node0&#45;&gt;Node9</title>
<path fill="none" stroke="#191970" d="M549.9946,-116.2949C532.3656,-96.4408 494.4226,-53.709 472.6816,-29.2239"/>
<polygon fill="#191970" stroke="#191970" points="475.2393,-26.833 465.9824,-21.6792 470.0049,-31.4808 475.2393,-26.833"/>
</g>
<!-- Node10 -->
<g id="node11" class="node">
<title>Node10</title>
<polygon fill="#ffffff" stroke="#bfbfbf" points="502,-.5 502,-21.5 557,-21.5 557,-.5 502,-.5"/>
<text text-anchor="middle" x="529.5" y="-7.9" font-family="Helvetica,sans-Serif" font-size="12.00" fill="#000000">stdexcept</text>
</g>
<!-- Node0&#45;&gt;Node10 -->
<g id="edge10" class="edge">
<title>Node0&#45;&gt;Node10</title>
<path fill="none" stroke="#191970" d="M556.7314,-116.2949C551.753,-97.0451 541.2126,-56.2889 534.8041,-31.5091"/>
<polygon fill="#191970" stroke="#191970" points="538.1543,-30.4843 532.2619,-21.6792 531.3773,-32.237 538.1543,-30.4843"/>
</g>
<!-- Node11 -->
<g id="node12" class="node">
<title>Node11</title>
<polygon fill="#ffffff" stroke="#bfbfbf" points="575,-.5 575,-21.5 630,-21.5 630,-.5 575,-.5"/>
<text text-anchor="middle" x="602.5" y="-7.9" font-family="Helvetica,sans-Serif" font-size="12.00" fill="#000000">functional</text>
</g>
<!-- Node0&#45;&gt;Node11 -->
<g id="edge11" class="edge">
<title>Node0&#45;&gt;Node11</title>
<path fill="none" stroke="#191970" d="M563.4683,-116.2949C570.636,-96.9588 585.8475,-55.9229 595.0207,-31.1767"/>
<polygon fill="#191970" stroke="#191970" points="598.3473,-32.2723 598.5413,-21.6792 591.7837,-29.8392 598.3473,-32.2723"/>
</g>
<!-- Node12 -->
<g id="node13" class="node">
<title>Node12</title>
<polygon fill="#ffffff" stroke="#bfbfbf" points="822.5,-58.5 822.5,-79.5 860.5,-79.5 860.5,-58.5 822.5,-58.5"/>
<text text-anchor="middle" x="841.5" y="-65.9" font-family="Helvetica,sans-Serif" font-size="12.00" fill="#000000">cfenv</text>
</g>
<!-- Node0&#45;&gt;Node12 -->
<g id="edge12" class="edge">
<title>Node0&#45;&gt;Node12</title>
<path fill="none" stroke="#191970" d="M629.0522,-117.8012C678.155,-110.466 745.4994,-98.7136 812.5056,-79.8948"/>
<polygon fill="#191970" stroke="#191970" points="813.7362,-83.1832 822.3871,-77.0666 811.81,-76.4534 813.7362,-83.1832"/>
</g>
<!-- Node13 -->
<g id="node14" class="node">
<title>Node13</title>
<polygon fill="#ffffff" stroke="#bfbfbf" points="878.5,-58.5 878.5,-79.5 936.5,-79.5 936.5,-58.5 878.5,-58.5"/>
<text text-anchor="middle" x="907.5" y="-65.9" font-family="Helvetica,sans-Serif" font-size="12.00" fill="#000000">execinfo.h</text>
</g>
<!-- Node0&#45;&gt;Node13 -->
<g id="edge13" class="edge">
<title>Node0&#45;&gt;Node13</title>
<path fill="none" stroke="#191970" d="M629.2353,-119.0851C690.0992,-111.5715 780.9038,-98.9042 868.3239,-80.0578"/>
<polygon fill="#191970" stroke="#191970" points="869.1175,-83.467 878.1394,-77.9121 867.6226,-76.6285 869.1175,-83.467"/>
</g>
<!-- Node14 -->
<g id="node15" class="node">
<title>Node14</title>
<polygon fill="#ffffff" stroke="#bfbfbf" points="954.5,-58.5 954.5,-79.5 1004.5,-79.5 1004.5,-58.5 954.5,-58.5"/>
<text text-anchor="middle" x="979.5" y="-65.9" font-family="Helvetica,sans-Serif" font-size="12.00" fill="#000000">cxxabi.h</text>
</g>
<!-- Node0&#45;&gt;Node14 -->
<g id="edge14" class="edge">
<title>Node0&#45;&gt;Node14</title>
<path fill="none" stroke="#191970" d="M629.2061,-122.5517C704.8289,-116.8205 829.1082,-104.7666 944.3455,-79.9202"/>
<polygon fill="#191970" stroke="#191970" points="945.3794,-83.2766 954.397,-77.7149 943.8793,-76.4393 945.3794,-83.2766"/>
</g>
<!-- Node15 -->
<g id="node16" class="node">
<title>Node15</title>
<polygon fill="#ffffff" stroke="#bfbfbf" points="648.5,-.5 648.5,-21.5 690.5,-21.5 690.5,-.5 648.5,-.5"/>
<text text-anchor="middle" x="669.5" y="-7.9" font-family="Helvetica,sans-Serif" font-size="12.00" fill="#000000">deque</text>
</g>
<!-- Node0&#45;&gt;Node15 -->
<g id="edge15" class="edge">
<title>Node0&#45;&gt;Node15</title>
<path fill="none" stroke="#191970" d="M569.6514,-116.2949C588.4785,-96.4408 629.0001,-53.709 652.2187,-29.2239"/>
<polygon fill="#191970" stroke="#191970" points="655.0319,-31.3438 659.3732,-21.6792 649.9525,-26.5271 655.0319,-31.3438"/>
</g>
<!-- Node16 -->
<g id="node17" class="node">
<title>Node16</title>
<polygon fill="#ffffff" stroke="#bfbfbf" points="709,-.5 709,-21.5 750,-21.5 750,-.5 709,-.5"/>
<text text-anchor="middle" x="729.5" y="-7.9" font-family="Helvetica,sans-Serif" font-size="12.00" fill="#000000">cmath</text>
</g>
<!-- Node0&#45;&gt;Node16 -->
<g id="edge16" class="edge">
<title>Node0&#45;&gt;Node16</title>
<path fill="none" stroke="#191970" d="M575.1244,-116.3663C589.1122,-106.8442 610.1804,-92.4969 628.5,-80 654.9371,-61.9656 685.2484,-41.2531 705.7114,-27.2651"/>
<polygon fill="#191970" stroke="#191970" points="707.8244,-30.0603 714.1044,-21.5274 703.8739,-24.2816 707.8244,-30.0603"/>
</g>
<!-- Node17 -->
<g id="node18" class="node">
<title>Node17</title>
<polygon fill="#ffffff" stroke="#bfbfbf" points="768,-.5 768,-21.5 809,-21.5 809,-.5 768,-.5"/>
<text text-anchor="middle" x="788.5" y="-7.9" font-family="Helvetica,sans-Serif" font-size="12.00" fill="#000000">vector</text>
</g>
<!-- Node0&#45;&gt;Node17 -->
<g id="edge17" class="edge">
<title>Node0&#45;&gt;Node17</title>
<path fill="none" stroke="#191970" d="M582.4469,-116.4604C602.6027,-107.1186 632.6588,-92.9837 658.5,-80 693.8819,-62.2226 734.0649,-40.6835 760.2709,-26.4514"/>
<polygon fill="#191970" stroke="#191970" points="762.1489,-29.4142 769.2586,-21.5591 758.8022,-23.266 762.1489,-29.4142"/>
</g>
<!-- Node18 -->
<g id="node19" class="node">
<title>Node18</title>
<g id="a_node19"><a xlink:href="../../db/d19/namespace_8hpp.html" target="_top" xlink:title="timemory/namespace.hpp">
<polygon fill="#ffffff" stroke="#000000" points="827.5,-.5 827.5,-21.5 947.5,-21.5 947.5,-.5 827.5,-.5"/>
<text text-anchor="middle" x="887.5" y="-7.9" font-family="Helvetica,sans-Serif" font-size="12.00" fill="#000000">timemory/namespace.hpp</text>
</a>
</g>
</g>
<!-- Node0&#45;&gt;Node18 -->
<g id="edge18" class="edge">
<title>Node0&#45;&gt;Node18</title>
<path fill="none" stroke="#191970" d="M589.9441,-116.4636C616.9474,-107.0651 657.4318,-92.8452 692.5,-80 718.3878,-70.5175 724.5688,-67.3633 750.5,-58 782.5174,-46.4391 818.9831,-33.9622 846.2392,-24.7709"/>
<polygon fill="#191970" stroke="#191970" points="847.4771,-28.0473 855.839,-21.5411 845.2449,-21.4127 847.4771,-28.0473"/>
</g>
<!-- Node19 -->
<g id="node20" class="node">
<title>Node19</title>
<g id="a_node20"><a xlink:href="../../d1/d4e/utility_8hpp.html" target="_top" xlink:title="timemory/utility.hpp">
<polygon fill="#ffffff" stroke="#000000" points="380.5,-58.5 380.5,-79.5 474.5,-79.5 474.5,-58.5 380.5,-58.5"/>
<text text-anchor="middle" x="427.5" y="-65.9" font-family="Helvetica,sans-Serif" font-size="12.00" fill="#000000">timemory/utility.hpp</text>
</a>
</g>
</g>
<!-- Node0&#45;&gt;Node19 -->
<g id="edge19" class="edge">
<title>Node0&#45;&gt;Node19</title>
<path fill="none" stroke="#191970" d="M535.5958,-116.4966C514.7005,-107.3154 484.1437,-93.8889 460.845,-83.6516"/>
<polygon fill="#191970" stroke="#191970" points="462.2356,-80.4397 451.6724,-79.6212 459.4197,-86.8483 462.2356,-80.4397"/>
</g>
<!-- Node20 -->
<g id="node21" class="node">
<title>Node20</title>
<g id="a_node21"><a xlink:href="../../d0/d5d/mpi_8hpp.html" target="_top" xlink:title="timemory/mpi.hpp">
<polygon fill="#ffffff" stroke="#000000" points="1022.5,-58.5 1022.5,-79.5 1110.5,-79.5 1110.5,-58.5 1022.5,-58.5"/>
<text text-anchor="middle" x="1066.5" y="-65.9" font-family="Helvetica,sans-Serif" font-size="12.00" fill="#000000">timemory/mpi.hpp</text>
</a>
</g>
</g>
<!-- Node0&#45;&gt;Node20 -->
<g id="edge34" class="edge">
<title>Node0&#45;&gt;Node20</title>
<path fill="none" stroke="#191970" d="M629.005,-122.009C716.2324,-115.2526 870.5862,-101.6702 1012.1456,-80.088"/>
<polygon fill="#191970" stroke="#191970" points="1012.9648,-83.5032 1022.3147,-78.5203 1011.8981,-76.5849 1012.9648,-83.5032"/>
</g>
<!-- Node19&#45;&gt;Node1 -->
<g id="edge20" class="edge">
<title>Node19&#45;&gt;Node1</title>
<path fill="none" stroke="#191970" d="M380.4085,-65.6531C312.0484,-60.2085 181.3095,-47.5927 61.438,-21.8866"/>
<polygon fill="#191970" stroke="#191970" points="61.8719,-18.3991 51.3557,-19.6875 60.3801,-25.2383 61.8719,-18.3991"/>
</g>
<!-- Node19&#45;&gt;Node2 -->
<g id="edge21" class="edge">
<title>Node19&#45;&gt;Node2</title>
<path fill="none" stroke="#191970" d="M380.3654,-64.7344C321.6133,-58.7703 218.1332,-46.1389 121.5627,-21.885"/>
<polygon fill="#191970" stroke="#191970" points="122.1952,-18.4341 111.6395,-19.3447 120.4592,-25.2154 122.1952,-18.4341"/>
</g>
<!-- Node19&#45;&gt;Node4 -->
<g id="edge22" class="edge">
<title>Node19&#45;&gt;Node4</title>
<path fill="none" stroke="#191970" d="M380.0785,-64.2813C329.4077,-58.3953 246.859,-46.3766 169.2812,-22.0069"/>
<polygon fill="#191970" stroke="#191970" points="169.9489,-18.5449 159.3574,-18.8117 167.8035,-25.2081 169.9489,-18.5449"/>
</g>
<!-- Node19&#45;&gt;Node5 -->
<g id="edge23" class="edge">
<title>Node19&#45;&gt;Node5</title>
<path fill="none" stroke="#191970" d="M380.2137,-60.1015C340.9217,-52.2488 283.4687,-39.709 225.874,-22.1551"/>
<polygon fill="#191970" stroke="#191970" points="226.8447,-18.7918 216.2568,-19.1767 224.7738,-25.4784 226.8447,-18.7918"/>
</g>
<!-- Node19&#45;&gt;Node6 -->
<g id="edge24" class="edge">
<title>Node19&#45;&gt;Node6</title>
<path fill="none" stroke="#191970" d="M396.8954,-58.4966C367.583,-48.4368 323.4203,-33.2803 292.9024,-22.8067"/>
<polygon fill="#191970" stroke="#191970" points="293.7118,-19.3842 283.1171,-19.4485 291.4395,-26.0051 293.7118,-19.3842"/>
</g>
<!-- Node19&#45;&gt;Node7 -->
<g id="edge25" class="edge">
<title>Node19&#45;&gt;Node7</title>
<path fill="none" stroke="#191970" d="M408.7916,-58.3619C393.1194,-49.4502 370.5359,-36.6087 352.8373,-26.5447"/>
<polygon fill="#191970" stroke="#191970" points="354.5128,-23.4712 344.0898,-21.5707 351.0526,-29.5562 354.5128,-23.4712"/>
</g>
<!-- Node19&#45;&gt;Node8 -->
<g id="edge26" class="edge">
<title>Node19&#45;&gt;Node8</title>
<path fill="none" stroke="#191970" d="M420.5302,-58.3619C415.3343,-50.4313 408.0994,-39.3885 401.9225,-29.9606"/>
<polygon fill="#191970" stroke="#191970" points="404.8335,-28.0172 396.4256,-21.5707 398.9783,-31.8534 404.8335,-28.0172"/>
</g>
<!-- Node19&#45;&gt;Node9 -->
<g id="edge27" class="edge">
<title>Node19&#45;&gt;Node9</title>
<path fill="none" stroke="#191970" d="M432.819,-58.3619C436.7026,-50.5949 442.0787,-39.8426 446.7271,-30.5458"/>
<polygon fill="#191970" stroke="#191970" points="449.873,-32.0802 451.2147,-21.5707 443.612,-28.9497 449.873,-32.0802"/>
</g>
<!-- Node19&#45;&gt;Node10 -->
<g id="edge28" class="edge">
<title>Node19&#45;&gt;Node10</title>
<path fill="none" stroke="#191970" d="M446.2084,-58.3619C461.8806,-49.4502 484.4641,-36.6087 502.1627,-26.5447"/>
<polygon fill="#191970" stroke="#191970" points="503.9474,-29.5562 510.9102,-21.5707 500.4872,-23.4712 503.9474,-29.5562"/>
</g>
<!-- Node19&#45;&gt;Node11 -->
<g id="edge29" class="edge">
<title>Node19&#45;&gt;Node11</title>
<path fill="none" stroke="#191970" d="M459.1912,-58.4966C488.9652,-48.6287 533.5356,-33.8568 565.0524,-23.4112"/>
<polygon fill="#191970" stroke="#191970" points="566.4,-26.6519 574.7911,-20.1835 564.1977,-20.0073 566.4,-26.6519"/>
</g>
<!-- Node19&#45;&gt;Node15 -->
<g id="edge30" class="edge">
<title>Node19&#45;&gt;Node15</title>
<path fill="none" stroke="#191970" d="M474.8444,-60.1705C517.8824,-51.7394 582.9562,-37.9763 638.5,-22 638.5995,-21.9714 638.6991,-21.9426 638.7989,-21.9137"/>
<polygon fill="#191970" stroke="#191970" points="639.7868,-25.2722 648.2653,-18.9188 637.6753,-18.5983 639.7868,-25.2722"/>
</g>
<!-- Node19&#45;&gt;Node16 -->
<g id="edge31" class="edge">
<title>Node19&#45;&gt;Node16</title>
<path fill="none" stroke="#191970" d="M474.7428,-63.4666C527.4106,-56.717 615.1406,-43.7438 698.9978,-21.7635"/>
<polygon fill="#191970" stroke="#191970" points="699.9141,-25.1415 708.6738,-19.1818 698.1095,-18.3781 699.9141,-25.1415"/>
</g>
<!-- Node19&#45;&gt;Node17 -->
<g id="edge32" class="edge">
<title>Node19&#45;&gt;Node17</title>
<path fill="none" stroke="#191970" d="M474.6009,-65.6403C537.5726,-60.4262 652.6132,-48.3735 757.936,-22.0064"/>
<polygon fill="#191970" stroke="#191970" points="758.9469,-25.3607 767.7698,-19.4949 757.2147,-18.5783 758.9469,-25.3607"/>
</g>
<!-- Node19&#45;&gt;Node18 -->
<g id="edge33" class="edge">
<title>Node19&#45;&gt;Node18</title>
<path fill="none" stroke="#191970" d="M474.5212,-63.9389C546.1623,-56.0981 687.1909,-40.1544 817.1745,-22.1467"/>
<polygon fill="#191970" stroke="#191970" points="817.8881,-25.5812 827.3097,-20.7352 816.9224,-18.6481 817.8881,-25.5812"/>
</g>
<!-- Node21 -->
<g id="node22" class="node">
<title>Node21</title>
<polygon fill="#ffffff" stroke="#bfbfbf" points="1045,-.5 1045,-21.5 1088,-21.5 1088,-.5 1045,-.5"/>
<text text-anchor="middle" x="1066.5" y="-7.9" font-family="Helvetica,sans-Serif" font-size="12.00" fill="#000000">cstdint</text>
</g>
<!-- Node20&#45;&gt;Node21 -->
<g id="edge35" class="edge">
<title>Node20&#45;&gt;Node21</title>
<path fill="none" stroke="#191970" d="M1066.5,-58.3619C1066.5,-50.9219 1066.5,-40.7427 1066.5,-31.7276"/>
<polygon fill="#191970" stroke="#191970" points="1070.0001,-31.5706 1066.5,-21.5707 1063.0001,-31.5707 1070.0001,-31.5706"/>
</g>
</g>
</svg>
        <g id="navigator" transform="translate(0 0)" fill="#404254">
                <rect fill="#f2f5e9" fill-opacity="0.5" stroke="#606060" stroke-width=".5" x="0" y="0" width="60" height="60"/>
                <use id="zoomplus" xlink:href="#zoomPlus" x="17" y="9" onmousedown="handleZoom(evt,'in')"/>
                <use id="zoomminus" xlink:href="#zoomMin" x="42" y="9" onmousedown="handleZoom(evt,'out')"/>
                <use id="reset" xlink:href="#resetDef" x="30" y="36" onmousedown="handleReset()"/>
                <g id="arrowUp" xlink:href="#dirArrow" transform="translate(30 24)" onmousedown="handlePan(0,-1)">
                  <use xlink:href="#rim" fill="#404040">
                        <set attributeName="fill" to="#808080" begin="arrowUp.mouseover" end="arrowUp.mouseout"/>
                  </use>
                  <path fill="none" stroke="white" stroke-width="1.5" d="M0,-3.0v7 M-2.5,-0.5L0,-3.0L2.5,-0.5"/>
                </g>
                <g id="arrowRight" xlink:href="#dirArrow" transform="rotate(90) translate(36 -43)" onmousedown="handlePan(1,0)">
                  <use xlink:href="#rim" fill="#404040">
                        <set attributeName="fill" to="#808080" begin="arrowRight.mouseover" end="arrowRight.mouseout"/>
                  </use>
                  <path fill="none" stroke="white" stroke-width="1.5" d="M0,-3.0v7 M-2.5,-0.5L0,-3.0L2.5,-0.5"/>
                </g>
                <g id="arrowDown" xlink:href="#dirArrow" transform="rotate(180) translate(-30 -48)" onmousedown="handlePan(0,1)">
                  <use xlink:href="#rim" fill="#404040">
                        <set attributeName="fill" to="#808080" begin="arrowDown.mouseover" end="arrowDown.mouseout"/>
                  </use>
                  <path fill="none" stroke="white" stroke-width="1.5" d="M0,-3.0v7 M-2.5,-0.5L0,-3.0L2.5,-0.5"/>
                </g>
                <g id="arrowLeft" xlink:href="#dirArrow" transform="rotate(270) translate(-36 17)" onmousedown="handlePan(-1,0)">
                  <use xlink:href="#rim" fill="#404040">
                        <set attributeName="fill" to="#808080" begin="arrowLeft.mouseover" end="arrowLeft.mouseout"/>
                  </use>
                  <path fill="none" stroke="white" stroke-width="1.5" d="M0,-3.0v7 M-2.5,-0.5L0,-3.0L2.5,-0.5"/>
                </g>
        </g>
        <svg viewBox="0 0 15 15" width="100%" height="30px" preserveAspectRatio="xMaxYMin meet">
         <g id="arrow_out" transform="scale(0.3 0.3)">
          <a xlink:href="signal__detection_8hpp__incl_org.svg" target="_base">
           <rect id="button" ry="5" rx="5" y="6" x="6" height="38" width="38"
                fill="#f2f5e9" fill-opacity="0.5" stroke="#606060" stroke-width="1.0"/>
           <path id="arrow"
             d="M 11.500037,31.436501 C 11.940474,20.09759 22.043105,11.32322 32.158766,21.979434 L 37.068811,17.246167 C 37.068811,17.246167 37.088388,32 37.088388,32 L 22.160133,31.978069 C 22.160133,31.978069 26.997745,27.140456 26.997745,27.140456 C 18.528582,18.264221 13.291696,25.230495 11.500037,31.436501 z"
             style="fill:#404040;"/>
          </a>
         </g>
        </svg>
</svg>
