<?xml version="1.0" encoding="UTF-8" standalone="no"?>
<!DOCTYPE svg PUBLIC "-//W3C//DTD SVG 1.1//EN"
 "http://www.w3.org/Graphics/SVG/1.1/DTD/svg11.dtd">
<!-- Generated by graphviz version 2.40.1 (20161225.0304)
 -->
<!-- Title: timemory/signal_detection.hpp Pages: 1 -->
<!--zoomable 146 -->
<svg id="main" version="1.1" xmlns="http://www.w3.org/2000/svg" xmlns:xlink="http://www.w3.org/1999/xlink" xml:space="preserve" onload="init(evt)">
<style type="text/css"><![CDATA[
.edge:hover path { stroke: red; }
.edge:hover polygon { stroke: red; fill: red; }
]]></style>
<script type="text/javascript"><![CDATA[
var edges = document.getElementsByTagName('g');
if (edges && edges.length) {
  for (var i=0;i<edges.length;i++) {
    if (edges[i].id.substr(0,4)=='edge') {
      edges[i].setAttribute('class','edge');
    }
  }
}
]]></script>
        <defs>
                <circle id="rim" cx="0" cy="0" r="7"/>
                <circle id="rim2" cx="0" cy="0" r="3.5"/>
                <g id="zoomPlus">
                        <use xlink:href="#rim" fill="#404040">
                                <set attributeName="fill" to="#808080" begin="zoomplus.mouseover" end="zoomplus.mouseout"/>
                        </use>
                        <path d="M-4,0h8M0,-4v8" fill="none" stroke="white" stroke-width="1.5" pointer-events="none"/>
                </g>
                <g id="zoomMin">
                        <use xlink:href="#rim" fill="#404040">
                                <set attributeName="fill" to="#808080" begin="zoomminus.mouseover" end="zoomminus.mouseout"/>
                        </use>
                        <path d="M-4,0h8" fill="none" stroke="white" stroke-width="1.5" pointer-events="none"/>
                </g>
                <g id="dirArrow">
                        <path fill="none" stroke="white" stroke-width="1.5" d="M0,-3.0v7 M-2.5,-0.5L0,-3.0L2.5,-0.5"/>
                </g>
               <g id="resetDef">
                       <use xlink:href="#rim2" fill="#404040">
                               <set attributeName="fill" to="#808080" begin="reset.mouseover" end="reset.mouseout"/>
                       </use>
               </g>
        </defs>

<script type="text/javascript">
var viewWidth = 1326;
var viewHeight = 146;
var sectionId = 'dynsection-0';
</script>
<script xlink:href="../../svgpan.js"/>
<svg id="graph" class="graph">
<g id="viewport">
<title>timemory/signal_detection.hpp</title>
<polygon fill="#ffffff" stroke="transparent" points="-4,4 -4,-142 1321.5,-142 1321.5,4 -4,4"/>
<!-- Node0 -->
<g id="node1" class="node">
<title>Node0</title>
<polygon fill="#bfbfbf" stroke="#000000" points="449,-116.5 449,-137.5 588,-137.5 588,-116.5 449,-116.5"/>
<text text-anchor="middle" x="518.5" y="-123.9" font-family="Helvetica,sans-Serif" font-size="12.00" fill="#000000">timemory/signal_detection.hpp</text>
</g>
<!-- Node1 -->
<g id="node2" class="node">
<title>Node1</title>
<polygon fill="#ffffff" stroke="#bfbfbf" points="0,-.5 0,-21.5 51,-21.5 51,-.5 0,-.5"/>
<text text-anchor="middle" x="25.5" y="-7.9" font-family="Helvetica,sans-Serif" font-size="12.00" fill="#000000">iostream</text>
</g>
<!-- Node0&#45;&gt;Node1 -->
<g id="edge1" class="edge">
<title>Node0&#45;&gt;Node1</title>
<path fill="none" stroke="#191970" d="M448.8108,-123.1202C379.4286,-117.9184 270.4499,-106.1037 179.5,-80 133.5076,-66.7996 83.5183,-42.3578 53.352,-26.3912"/>
<polygon fill="#191970" stroke="#191970" points="54.7516,-23.1703 44.2845,-21.53 51.4442,-29.3397 54.7516,-23.1703"/>
</g>
<!-- Node2 -->
<g id="node3" class="node">
<title>Node2</title>
<polygon fill="#ffffff" stroke="#bfbfbf" points="69.5,-.5 69.5,-21.5 111.5,-21.5 111.5,-.5 69.5,-.5"/>
<text text-anchor="middle" x="90.5" y="-7.9" font-family="Helvetica,sans-Serif" font-size="12.00" fill="#000000">cstdlib</text>
</g>
<!-- Node0&#45;&gt;Node2 -->
<g id="edge2" class="edge">
<title>Node0&#45;&gt;Node2</title>
<path fill="none" stroke="#191970" d="M448.8775,-120.8082C391.0293,-114.3871 307.0782,-102.0894 236.5,-80 193.2312,-66.4579 146.3663,-42.4899 117.7157,-26.6726"/>
<polygon fill="#191970" stroke="#191970" points="119.1655,-23.4733 108.7291,-21.6478 115.7492,-29.5831 119.1655,-23.4733"/>
</g>
<!-- Node3 -->
<g id="node4" class="node">
<title>Node3</title>
<polygon fill="#ffffff" stroke="#bfbfbf" points="1249,-58.5 1249,-79.5 1294,-79.5 1294,-58.5 1249,-58.5"/>
<text text-anchor="middle" x="1271.5" y="-65.9" font-family="Helvetica,sans-Serif" font-size="12.00" fill="#000000">stdlib.h</text>
</g>
<!-- Node0&#45;&gt;Node3 -->
<g id="edge3" class="edge">
<title>Node0&#45;&gt;Node3</title>
<path fill="none" stroke="#191970" d="M588.0847,-124.8203C739.9731,-119.6893 1098.1505,-105.4661 1238.8338,-79.5404"/>
<polygon fill="#191970" stroke="#191970" points="1239.8299,-82.9125 1248.9803,-77.572 1238.4968,-76.0406 1239.8299,-82.9125"/>
</g>
<!-- Node4 -->
<g id="node5" class="node">
<title>Node4</title>
<polygon fill="#ffffff" stroke="#bfbfbf" points="130,-.5 130,-21.5 159,-21.5 159,-.5 130,-.5"/>
<text text-anchor="middle" x="144.5" y="-7.9" font-family="Helvetica,sans-Serif" font-size="12.00" fill="#000000">set</text>
</g>
<!-- Node0&#45;&gt;Node4 -->
<g id="edge4" class="edge">
<title>Node0&#45;&gt;Node4</title>
<path fill="none" stroke="#191970" d="M448.833,-116.4809C404.0847,-108.7266 345.0827,-96.6287 294.5,-80 248.2604,-64.7991 197.3673,-39.406 168.3378,-24.0296"/>
<polygon fill="#191970" stroke="#191970" points="169.8376,-20.8625 159.3696,-19.2282 166.5336,-27.0337 169.8376,-20.8625"/>
</g>
<!-- Node5 -->
<g id="node6" class="node">
<title>Node5</title>
<polygon fill="#ffffff" stroke="#bfbfbf" points="177,-.5 177,-21.5 216,-21.5 216,-.5 177,-.5"/>
<text text-anchor="middle" x="196.5" y="-7.9" font-family="Helvetica,sans-Serif" font-size="12.00" fill="#000000">string</text>
</g>
<!-- Node0&#45;&gt;Node5 -->
<g id="edge5" class="edge">
<title>Node0&#45;&gt;Node5</title>
<path fill="none" stroke="#191970" d="M473.4379,-116.4579C439.0513,-107.9371 390.7328,-94.9326 349.5,-80 305.2478,-63.9739 255.93,-40.7032 225.5546,-25.7093"/>
<polygon fill="#191970" stroke="#191970" points="226.901,-22.47 216.3885,-21.1516 223.7844,-28.7379 226.901,-22.47"/>
</g>
<!-- Node6 -->
<g id="node7" class="node">
<title>Node6</title>
<polygon fill="#ffffff" stroke="#bfbfbf" points="234,-.5 234,-21.5 283,-21.5 283,-.5 234,-.5"/>
<text text-anchor="middle" x="258.5" y="-7.9" font-family="Helvetica,sans-Serif" font-size="12.00" fill="#000000">sstream</text>
</g>
<!-- Node0&#45;&gt;Node6 -->
<g id="edge6" class="edge">
<title>Node0&#45;&gt;Node6</title>
<path fill="none" stroke="#191970" d="M490.1253,-116.369C466.0713,-107.1974 430.7602,-93.3569 400.5,-80 361.0754,-62.5979 316.5149,-40.5446 287.9981,-26.1173"/>
<polygon fill="#191970" stroke="#191970" points="289.4738,-22.9414 278.9728,-21.5347 286.3046,-29.1829 289.4738,-22.9414"/>
</g>
<!-- Node7 -->
<g id="node8" class="node">
<title>Node7</title>
<polygon fill="#ffffff" stroke="#bfbfbf" points="301.5,-.5 301.5,-21.5 349.5,-21.5 349.5,-.5 301.5,-.5"/>
<text text-anchor="middle" x="325.5" y="-7.9" font-family="Helvetica,sans-Serif" font-size="12.00" fill="#000000">iomanip</text>
</g>
<!-- Node0&#45;&gt;Node7 -->
<g id="edge7" class="edge">
<title>Node0&#45;&gt;Node7</title>
<path fill="none" stroke="#191970" d="M500.3377,-116.4477C484.089,-106.9792 459.643,-92.6647 438.5,-80 408.5167,-62.04 374.2869,-41.0732 351.4324,-27.0072"/>
<polygon fill="#191970" stroke="#191970" points="353.0244,-23.8771 342.6745,-21.6121 349.353,-29.837 353.0244,-23.8771"/>
</g>
<!-- Node8 -->
<g id="node9" class="node">
<title>Node8</title>
<polygon fill="#ffffff" stroke="#bfbfbf" points="368,-.5 368,-21.5 411,-21.5 411,-.5 368,-.5"/>
<text text-anchor="middle" x="389.5" y="-7.9" font-family="Helvetica,sans-Serif" font-size="12.00" fill="#000000">cstring</text>
</g>
<!-- Node0&#45;&gt;Node8 -->
<g id="edge8" class="edge">
<title>Node0&#45;&gt;Node8</title>
<path fill="none" stroke="#191970" d="M506.5952,-116.2949C484.3241,-96.2682 436.167,-52.9641 409.0606,-28.5893"/>
<polygon fill="#191970" stroke="#191970" points="411.1521,-25.7632 401.376,-21.6792 406.4716,-30.9682 411.1521,-25.7632"/>
</g>
<!-- Node9 -->
<g id="node10" class="node">
<title>Node9</title>
<polygon fill="#ffffff" stroke="#bfbfbf" points="429,-.5 429,-21.5 484,-21.5 484,-.5 429,-.5"/>
<text text-anchor="middle" x="456.5" y="-7.9" font-family="Helvetica,sans-Serif" font-size="12.00" fill="#000000">exception</text>
</g>
<!-- Node0&#45;&gt;Node9 -->
<g id="edge9" class="edge">
<title>Node0&#45;&gt;Node9</title>
<path fill="none" stroke="#191970" d="M512.7783,-116.2949C502.3512,-96.7861 480.1179,-55.1884 466.9319,-30.5177"/>
<polygon fill="#191970" stroke="#191970" points="470.0084,-28.8487 462.2079,-21.6792 463.8349,-32.1484 470.0084,-28.8487"/>
</g>
<!-- Node10 -->
<g id="node11" class="node">
<title>Node10</title>
<polygon fill="#ffffff" stroke="#bfbfbf" points="502,-.5 502,-21.5 557,-21.5 557,-.5 502,-.5"/>
<text text-anchor="middle" x="529.5" y="-7.9" font-family="Helvetica,sans-Serif" font-size="12.00" fill="#000000">stdexcept</text>
</g>
<!-- Node0&#45;&gt;Node10 -->
<g id="edge10" class="edge">
<title>Node0&#45;&gt;Node10</title>
<path fill="none" stroke="#191970" d="M519.5151,-116.2949C521.3324,-97.1314 525.1707,-56.654 527.5235,-31.8434"/>
<polygon fill="#191970" stroke="#191970" points="531.0276,-31.965 528.4873,-21.6792 524.0588,-31.3041 531.0276,-31.965"/>
</g>
<!-- Node11 -->
<g id="node12" class="node">
<title>Node11</title>
<polygon fill="#ffffff" stroke="#bfbfbf" points="811,-.5 811,-21.5 866,-21.5 866,-.5 811,-.5"/>
<text text-anchor="middle" x="838.5" y="-7.9" font-family="Helvetica,sans-Serif" font-size="12.00" fill="#000000">functional</text>
</g>
<!-- Node0&#45;&gt;Node11 -->
<g id="edge11" class="edge">
<title>Node0&#45;&gt;Node11</title>
<path fill="none" stroke="#191970" d="M548.1727,-116.4072C574.7352,-106.912 614.738,-92.5813 649.5,-80 702.2649,-60.903 763.2321,-38.6027 801.3298,-24.6393"/>
<polygon fill="#191970" stroke="#191970" points="802.789,-27.8322 810.9731,-21.1039 800.3794,-21.26 802.789,-27.8322"/>
</g>
<!-- Node12 -->
<g id="node13" class="node">
<title>Node12</title>
<polygon fill="#ffffff" stroke="#bfbfbf" points="884.5,-.5 884.5,-21.5 926.5,-21.5 926.5,-.5 884.5,-.5"/>
<text text-anchor="middle" x="905.5" y="-7.9" font-family="Helvetica,sans-Serif" font-size="12.00" fill="#000000">deque</text>
</g>
<!-- Node0&#45;&gt;Node12 -->
<g id="edge12" class="edge">
<title>Node0&#45;&gt;Node12</title>
<path fill="none" stroke="#191970" d="M559.4269,-116.4969C594.7796,-107.2927 647.1721,-93.3372 692.5,-80 773.9446,-56.0359 794.0403,-49.0877 874.5,-22 874.5981,-21.967 874.6964,-21.9339 874.7948,-21.9007"/>
<polygon fill="#191970" stroke="#191970" points="875.8715,-25.2317 884.1862,-18.6654 873.5915,-18.6134 875.8715,-25.2317"/>
</g>
<!-- Node13 -->
<g id="node14" class="node">
<title>Node13</title>
<polygon fill="#ffffff" stroke="#bfbfbf" points="945,-.5 945,-21.5 986,-21.5 986,-.5 945,-.5"/>
<text text-anchor="middle" x="965.5" y="-7.9" font-family="Helvetica,sans-Serif" font-size="12.00" fill="#000000">cmath</text>
</g>
<!-- Node0&#45;&gt;Node13 -->
<g id="edge13" class="edge">
<title>Node0&#45;&gt;Node13</title>
<path fill="none" stroke="#191970" d="M575.687,-116.487C621.3534,-107.7481 686.8506,-94.4437 743.5,-80 826.8417,-58.7507 849.3887,-50.8059 935.2543,-21.9694"/>
<polygon fill="#191970" stroke="#191970" points="936.5321,-25.2325 944.8986,-18.7324 934.3047,-18.5963 936.5321,-25.2325"/>
</g>
<!-- Node14 -->
<g id="node15" class="node">
<title>Node14</title>
<polygon fill="#ffffff" stroke="#bfbfbf" points="1004,-.5 1004,-21.5 1045,-21.5 1045,-.5 1004,-.5"/>
<text text-anchor="middle" x="1024.5" y="-7.9" font-family="Helvetica,sans-Serif" font-size="12.00" fill="#000000">vector</text>
</g>
<!-- Node0&#45;&gt;Node14 -->
<g id="edge14" class="edge">
<title>Node0&#45;&gt;Node14</title>
<path fill="none" stroke="#191970" d="M588.0027,-117.7294C644.9428,-109.5619 727.4207,-96.4185 798.5,-80 883.989,-60.253 906.7239,-51.1698 994.3511,-21.9294"/>
<polygon fill="#191970" stroke="#191970" points="995.5221,-25.2285 1003.9038,-18.7479 993.3102,-18.5871 995.5221,-25.2285"/>
</g>
<!-- Node15 -->
<g id="node16" class="node">
<title>Node15</title>
<g id="a_node16"><a xlink:href="../../db/d19/namespace_8hpp.html" target="_top" xlink:title="timemory/namespace.hpp">
<polygon fill="#ffffff" stroke="#000000" points="1063.5,-.5 1063.5,-21.5 1183.5,-21.5 1183.5,-.5 1063.5,-.5"/>
<text text-anchor="middle" x="1123.5" y="-7.9" font-family="Helvetica,sans-Serif" font-size="12.00" fill="#000000">timemory/namespace.hpp</text>
</a>
</g>
</g>
<!-- Node0&#45;&gt;Node15 -->
<g id="edge15" class="edge">
<title>Node0&#45;&gt;Node15</title>
<path fill="none" stroke="#191970" d="M588.0568,-119.5768C656.2722,-111.7553 763.056,-98.0645 854.5,-80 933.8171,-64.3311 1024.6459,-39.5829 1077.8709,-24.3735"/>
<polygon fill="#191970" stroke="#191970" points="1079.0346,-27.6808 1087.6801,-21.5566 1077.1025,-20.9528 1079.0346,-27.6808"/>
</g>
<!-- Node16 -->
<g id="node17" class="node">
<title>Node16</title>
<g id="a_node17"><a xlink:href="../../d1/d4e/utility_8hpp.html" target="_top" xlink:title="timemory/utility.hpp">
<polygon fill="#ffffff" stroke="#000000" points="546.5,-58.5 546.5,-79.5 640.5,-79.5 640.5,-58.5 546.5,-58.5"/>
<text text-anchor="middle" x="593.5" y="-65.9" font-family="Helvetica,sans-Serif" font-size="12.00" fill="#000000">timemory/utility.hpp</text>
</a>
</g>
</g>
<!-- Node0&#45;&gt;Node16 -->
<g id="edge16" class="edge">
<title>Node0&#45;&gt;Node16</title>
<path fill="none" stroke="#191970" d="M532.2562,-116.3619C543.2512,-107.859 558.8726,-95.7785 571.5864,-85.9466"/>
<polygon fill="#191970" stroke="#191970" points="574.0616,-88.4569 579.8311,-79.5707 569.7794,-82.9195 574.0616,-88.4569"/>
</g>
<!-- Node22 -->
<g id="node23" class="node">
<title>Node22</title>
<g id="a_node23"><a xlink:href="../../d0/d5d/mpi_8hpp.html" target="_top" xlink:title="timemory/mpi.hpp">
<polygon fill="#ffffff" stroke="#000000" points="1142.5,-58.5 1142.5,-79.5 1230.5,-79.5 1230.5,-58.5 1142.5,-58.5"/>
<text text-anchor="middle" x="1186.5" y="-65.9" font-family="Helvetica,sans-Serif" font-size="12.00" fill="#000000">timemory/mpi.hpp</text>
</a>
</g>
</g>
<!-- Node0&#45;&gt;Node22 -->
<g id="edge36" class="edge">
<title>Node0&#45;&gt;Node22</title>
<path fill="none" stroke="#191970" d="M588.2494,-122.0344C696.2023,-114.1785 910.2248,-97.9243 1091.5,-80 1104.6665,-78.6981 1118.8411,-77.1409 1132.1204,-75.6134"/>
<polygon fill="#191970" stroke="#191970" points="1132.5407,-79.0882 1142.0692,-74.4559 1131.7316,-72.1351 1132.5407,-79.0882"/>
</g>
<!-- Node16&#45;&gt;Node1 -->
<g id="edge23" class="edge">
<title>Node16&#45;&gt;Node1</title>
<path fill="none" stroke="#191970" d="M546.3185,-68.2565C454.4056,-66.0726 245.0139,-57.4916 61.1741,-21.7491"/>
<polygon fill="#191970" stroke="#191970" points="61.8201,-18.3091 51.3313,-19.8043 60.4632,-25.1764 61.8201,-18.3091"/>
</g>
<!-- Node16&#45;&gt;Node2 -->
<g id="edge18" class="edge">
<title>Node16&#45;&gt;Node2</title>
<path fill="none" stroke="#191970" d="M546.2756,-65.829C446.7964,-58.9105 217.6108,-41.6559 121.561,-21.6823"/>
<polygon fill="#191970" stroke="#191970" points="122.1235,-18.2223 111.6046,-19.4885 120.6172,-25.0584 122.1235,-18.2223"/>
</g>
<!-- Node16&#45;&gt;Node4 -->
<g id="edge30" class="edge">
<title>Node16&#45;&gt;Node4</title>
<path fill="none" stroke="#191970" d="M546.1876,-65.7887C454.357,-59.2401 254.1638,-43.3443 169.0976,-21.6443"/>
<polygon fill="#191970" stroke="#191970" points="169.8784,-18.2294 159.3094,-18.9694 168.0331,-24.9818 169.8784,-18.2294"/>
</g>
<!-- Node16&#45;&gt;Node5 -->
<g id="edge21" class="edge">
<title>Node16&#45;&gt;Node5</title>
<path fill="none" stroke="#191970" d="M546.4951,-66.7405C477.629,-62.6212 345.3833,-51.6398 226.2032,-21.9784"/>
<polygon fill="#191970" stroke="#191970" points="226.7386,-18.5032 216.1846,-19.4322 225.0144,-25.2876 226.7386,-18.5032"/>
</g>
<!-- Node16&#45;&gt;Node6 -->
<g id="edge22" class="edge">
<title>Node16&#45;&gt;Node6</title>
<path fill="none" stroke="#191970" d="M546.3883,-63.9802C488.7369,-57.3225 388.0867,-44.0356 293.0262,-21.8281"/>
<polygon fill="#191970" stroke="#191970" points="293.7919,-18.4127 283.2539,-19.5084 292.1751,-25.2235 293.7919,-18.4127"/>
</g>
<!-- Node16&#45;&gt;Node7 -->
<g id="edge24" class="edge">
<title>Node16&#45;&gt;Node7</title>
<path fill="none" stroke="#191970" d="M546.2881,-61.3373C500.6966,-53.541 429.5862,-40.3403 359.4355,-22.0187"/>
<polygon fill="#191970" stroke="#191970" points="360.1089,-18.5765 349.546,-19.3995 358.3167,-25.3432 360.1089,-18.5765"/>
</g>
<!-- Node16&#45;&gt;Node8 -->
<g id="edge19" class="edge">
<title>Node16&#45;&gt;Node8</title>
<path fill="none" stroke="#191970" d="M550.2907,-58.4504C517.039,-50.0801 469.7855,-37.643 420.5858,-22.1849"/>
<polygon fill="#191970" stroke="#191970" points="421.6424,-18.8483 411.0521,-19.1588 419.5246,-25.5203 421.6424,-18.8483"/>
</g>
<!-- Node16&#45;&gt;Node9 -->
<g id="edge25" class="edge">
<title>Node16&#45;&gt;Node9</title>
<path fill="none" stroke="#191970" d="M568.6903,-58.4966C547.0035,-49.3154 515.2893,-35.8889 491.108,-25.6516"/>
<polygon fill="#191970" stroke="#191970" points="492.1613,-22.2968 481.5881,-21.6212 489.4323,-28.7429 492.1613,-22.2968"/>
</g>
<!-- Node16&#45;&gt;Node10 -->
<g id="edge26" class="edge">
<title>Node16&#45;&gt;Node10</title>
<path fill="none" stroke="#191970" d="M581.7614,-58.3619C572.5594,-50.0226 559.5599,-38.2418 548.8283,-28.5162"/>
<polygon fill="#191970" stroke="#191970" points="550.9244,-25.6924 541.1642,-21.5707 546.2237,-30.8793 550.9244,-25.6924"/>
</g>
<!-- Node16&#45;&gt;Node11 -->
<g id="edge27" class="edge">
<title>Node16&#45;&gt;Node11</title>
<path fill="none" stroke="#191970" d="M640.8042,-59.2521C680.9568,-50.7659 740.2936,-37.7289 800.9346,-22.0308"/>
<polygon fill="#191970" stroke="#191970" points="801.8834,-25.4005 810.6755,-19.4888 800.1158,-18.6273 801.8834,-25.4005"/>
</g>
<!-- Node16&#45;&gt;Node12 -->
<g id="edge29" class="edge">
<title>Node16&#45;&gt;Node12</title>
<path fill="none" stroke="#191970" d="M640.7645,-63.6644C697.0361,-56.7239 793.577,-42.9523 874.5,-22 874.6002,-21.9741 874.7005,-21.9479 874.801,-21.9216"/>
<polygon fill="#191970" stroke="#191970" points="875.7332,-25.2961 884.3071,-19.072 873.7232,-18.5909 875.7332,-25.2961"/>
</g>
<!-- Node16&#45;&gt;Node13 -->
<g id="edge20" class="edge">
<title>Node16&#45;&gt;Node13</title>
<path fill="none" stroke="#191970" d="M640.57,-65.7472C705.1256,-60.5841 824.7108,-48.5086 934.7618,-21.7409"/>
<polygon fill="#191970" stroke="#191970" points="935.8347,-25.081 944.6984,-19.2769 934.1499,-18.2867 935.8347,-25.081"/>
</g>
<!-- Node16&#45;&gt;Node14 -->
<g id="edge31" class="edge">
<title>Node16&#45;&gt;Node14</title>
<path fill="none" stroke="#191970" d="M640.737,-67.0523C714.513,-63.2322 861.4711,-52.4951 993.8056,-21.6831"/>
<polygon fill="#191970" stroke="#191970" points="994.7903,-25.0467 1003.7117,-19.3319 993.1738,-18.2358 994.7903,-25.0467"/>
</g>
<!-- Node16&#45;&gt;Node15 -->
<g id="edge35" class="edge">
<title>Node16&#45;&gt;Node15</title>
<path fill="none" stroke="#191970" d="M640.6135,-65.033C722.2216,-57.9769 895.3861,-42.192 1052.8525,-22.0223"/>
<polygon fill="#191970" stroke="#191970" points="1053.7306,-25.4381 1063.2007,-20.6875 1052.835,-18.4956 1053.7306,-25.4381"/>
</g>
<!-- Node17 -->
<g id="node18" class="node">
<title>Node17</title>
<polygon fill="#ffffff" stroke="#bfbfbf" points="1202,-.5 1202,-21.5 1245,-21.5 1245,-.5 1202,-.5"/>
<text text-anchor="middle" x="1223.5" y="-7.9" font-family="Helvetica,sans-Serif" font-size="12.00" fill="#000000">cstdint</text>
</g>
<!-- Node16&#45;&gt;Node17 -->
<g id="edge17" class="edge">
<title>Node16&#45;&gt;Node17</title>
<path fill="none" stroke="#191970" d="M640.6527,-66.9012C759.4575,-61.3642 1069.6888,-45.2984 1191.8423,-21.5596"/>
<polygon fill="#191970" stroke="#191970" points="1192.5974,-24.9777 1201.6901,-19.5394 1191.1907,-18.1205 1192.5974,-24.9777"/>
</g>
<!-- Node18 -->
<g id="node19" class="node">
<title>Node18</title>
<polygon fill="#ffffff" stroke="#bfbfbf" points="575,-.5 575,-21.5 612,-21.5 612,-.5 575,-.5"/>
<text text-anchor="middle" x="593.5" y="-7.9" font-family="Helvetica,sans-Serif" font-size="12.00" fill="#000000">limits</text>
</g>
<!-- Node16&#45;&gt;Node18 -->
<g id="edge28" class="edge">
<title>Node16&#45;&gt;Node18</title>
<path fill="none" stroke="#191970" d="M593.5,-58.3619C593.5,-50.9219 593.5,-40.7427 593.5,-31.7276"/>
<polygon fill="#191970" stroke="#191970" points="597.0001,-31.5706 593.5,-21.5707 590.0001,-31.5707 597.0001,-31.5706"/>
</g>
<!-- Node19 -->
<g id="node20" class="node">
<title>Node19</title>
<polygon fill="#ffffff" stroke="#bfbfbf" points="630,-.5 630,-21.5 673,-21.5 673,-.5 630,-.5"/>
<text text-anchor="middle" x="651.5" y="-7.9" font-family="Helvetica,sans-Serif" font-size="12.00" fill="#000000">atomic</text>
</g>
<!-- Node16&#45;&gt;Node19 -->
<g id="edge32" class="edge">
<title>Node16&#45;&gt;Node19</title>
<path fill="none" stroke="#191970" d="M604.1381,-58.3619C612.3957,-50.1043 624.0275,-38.4725 633.6971,-28.8029"/>
<polygon fill="#191970" stroke="#191970" points="636.3331,-31.1166 640.9293,-21.5707 631.3834,-26.1669 636.3331,-31.1166"/>
</g>
<!-- Node20 -->
<g id="node21" class="node">
<title>Node20</title>
<polygon fill="#ffffff" stroke="#bfbfbf" points="691,-.5 691,-21.5 732,-21.5 732,-.5 691,-.5"/>
<text text-anchor="middle" x="711.5" y="-7.9" font-family="Helvetica,sans-Serif" font-size="12.00" fill="#000000">mutex</text>
</g>
<!-- Node16&#45;&gt;Node20 -->
<g id="edge33" class="edge">
<title>Node16&#45;&gt;Node20</title>
<path fill="none" stroke="#191970" d="M614.8689,-58.4966C633.5294,-49.3245 660.8093,-35.9157 681.6291,-25.6823"/>
<polygon fill="#191970" stroke="#191970" points="683.2556,-28.7828 690.6862,-21.2305 680.1677,-22.5007 683.2556,-28.7828"/>
</g>
<!-- Node21 -->
<g id="node22" class="node">
<title>Node21</title>
<polygon fill="#ffffff" stroke="#bfbfbf" points="750.5,-.5 750.5,-21.5 792.5,-21.5 792.5,-.5 750.5,-.5"/>
<text text-anchor="middle" x="771.5" y="-7.9" font-family="Helvetica,sans-Serif" font-size="12.00" fill="#000000">thread</text>
</g>
<!-- Node16&#45;&gt;Node21 -->
<g id="edge34" class="edge">
<title>Node16&#45;&gt;Node21</title>
<path fill="none" stroke="#191970" d="M627.4631,-58.4747C657.3213,-49.1421 701.9086,-35.0126 740.5,-22 740.5981,-21.9669 740.6963,-21.9338 740.7947,-21.9005"/>
<polygon fill="#191970" stroke="#191970" points="741.8724,-25.2313 750.1853,-18.6627 739.5906,-18.6136 741.8724,-25.2313"/>
</g>
<!-- Node22&#45;&gt;Node17 -->
<g id="edge37" class="edge">
<title>Node22&#45;&gt;Node17</title>
<path fill="none" stroke="#191970" d="M1193.2864,-58.3619C1198.2934,-50.5131 1205.245,-39.6159 1211.2181,-30.2527"/>
<polygon fill="#191970" stroke="#191970" points="1214.3292,-31.8837 1216.7567,-21.5707 1208.4277,-28.1189 1214.3292,-31.8837"/>
</g>
<!-- Node23 -->
<g id="node24" class="node">
<title>Node23</title>
<polygon fill="#ffffff" stroke="#bfbfbf" points="1263.5,-.5 1263.5,-21.5 1317.5,-21.5 1317.5,-.5 1263.5,-.5"/>
<text text-anchor="middle" x="1290.5" y="-7.9" font-family="Helvetica,sans-Serif" font-size="12.00" fill="#000000">algorithm</text>
</g>
<!-- Node22&#45;&gt;Node23 -->
<g id="edge38" class="edge">
<title>Node22&#45;&gt;Node23</title>
<path fill="none" stroke="#191970" d="M1205.5752,-58.3619C1221.5547,-49.4502 1244.581,-36.6087 1262.6267,-26.5447"/>
<polygon fill="#191970" stroke="#191970" points="1264.5168,-29.4982 1271.5457,-21.5707 1261.1073,-23.3846 1264.5168,-29.4982"/>
</g>
</g>
</svg>
        <g id="navigator" transform="translate(0 0)" fill="#404254">
                <rect fill="#f2f5e9" fill-opacity="0.5" stroke="#606060" stroke-width=".5" x="0" y="0" width="60" height="60"/>
                <use id="zoomplus" xlink:href="#zoomPlus" x="17" y="9" onmousedown="handleZoom(evt,'in')"/>
                <use id="zoomminus" xlink:href="#zoomMin" x="42" y="9" onmousedown="handleZoom(evt,'out')"/>
                <use id="reset" xlink:href="#resetDef" x="30" y="36" onmousedown="handleReset()"/>
                <g id="arrowUp" xlink:href="#dirArrow" transform="translate(30 24)" onmousedown="handlePan(0,-1)">
                  <use xlink:href="#rim" fill="#404040">
                        <set attributeName="fill" to="#808080" begin="arrowUp.mouseover" end="arrowUp.mouseout"/>
                  </use>
                  <path fill="none" stroke="white" stroke-width="1.5" d="M0,-3.0v7 M-2.5,-0.5L0,-3.0L2.5,-0.5"/>
                </g>
                <g id="arrowRight" xlink:href="#dirArrow" transform="rotate(90) translate(36 -43)" onmousedown="handlePan(1,0)">
                  <use xlink:href="#rim" fill="#404040">
                        <set attributeName="fill" to="#808080" begin="arrowRight.mouseover" end="arrowRight.mouseout"/>
                  </use>
                  <path fill="none" stroke="white" stroke-width="1.5" d="M0,-3.0v7 M-2.5,-0.5L0,-3.0L2.5,-0.5"/>
                </g>
                <g id="arrowDown" xlink:href="#dirArrow" transform="rotate(180) translate(-30 -48)" onmousedown="handlePan(0,1)">
                  <use xlink:href="#rim" fill="#404040">
                        <set attributeName="fill" to="#808080" begin="arrowDown.mouseover" end="arrowDown.mouseout"/>
                  </use>
                  <path fill="none" stroke="white" stroke-width="1.5" d="M0,-3.0v7 M-2.5,-0.5L0,-3.0L2.5,-0.5"/>
                </g>
                <g id="arrowLeft" xlink:href="#dirArrow" transform="rotate(270) translate(-36 17)" onmousedown="handlePan(-1,0)">
                  <use xlink:href="#rim" fill="#404040">
                        <set attributeName="fill" to="#808080" begin="arrowLeft.mouseover" end="arrowLeft.mouseout"/>
                  </use>
                  <path fill="none" stroke="white" stroke-width="1.5" d="M0,-3.0v7 M-2.5,-0.5L0,-3.0L2.5,-0.5"/>
                </g>
        </g>
        <svg viewBox="0 0 15 15" width="100%" height="30px" preserveAspectRatio="xMaxYMin meet">
         <g id="arrow_out" transform="scale(0.3 0.3)">
          <a xlink:href="signal__detection_8hpp__incl_org.svg" target="_base">
           <rect id="button" ry="5" rx="5" y="6" x="6" height="38" width="38"
                fill="#f2f5e9" fill-opacity="0.5" stroke="#606060" stroke-width="1.0"/>
           <path id="arrow"
             d="M 11.500037,31.436501 C 11.940474,20.09759 22.043105,11.32322 32.158766,21.979434 L 37.068811,17.246167 C 37.068811,17.246167 37.088388,32 37.088388,32 L 22.160133,31.978069 C 22.160133,31.978069 26.997745,27.140456 26.997745,27.140456 C 18.528582,18.264221 13.291696,25.230495 11.500037,31.436501 z"
             style="fill:#404040;"/>
          </a>
         </g>
        </svg>
</svg>
