<?xml version="1.0" encoding="UTF-8" standalone="no"?>
<!DOCTYPE svg PUBLIC "-//W3C//DTD SVG 1.1//EN"
 "http://www.w3.org/Graphics/SVG/1.1/DTD/svg11.dtd">
<!-- Generated by graphviz version 2.40.1 (20161225.0304)
 -->
<!-- Title: timemory/signal_detection.hpp Pages: 1 -->
<svg width="1013pt" height="146pt"
 viewBox="0.00 0.00 1012.50 146.00" xmlns="http://www.w3.org/2000/svg" xmlns:xlink="http://www.w3.org/1999/xlink">
<g id="graph0" class="graph" transform="scale(1 1) rotate(0) translate(4 142)">
<title>timemory/signal_detection.hpp</title>
<polygon fill="#ffffff" stroke="transparent" points="-4,4 -4,-142 1008.5,-142 1008.5,4 -4,4"/>
<!-- Node0 -->
<g id="node1" class="node">
<title>Node0</title>
<polygon fill="#bfbfbf" stroke="#000000" points="452,-116.5 452,-137.5 591,-137.5 591,-116.5 452,-116.5"/>
<text text-anchor="middle" x="521.5" y="-123.9" font-family="Helvetica,sans-Serif" font-size="12.00" fill="#000000">timemory/signal_detection.hpp</text>
</g>
<!-- Node1 -->
<g id="node2" class="node">
<title>Node1</title>
<polygon fill="#ffffff" stroke="#bfbfbf" points="57,-58.5 57,-79.5 96,-79.5 96,-58.5 57,-58.5"/>
<text text-anchor="middle" x="76.5" y="-65.9" font-family="Helvetica,sans-Serif" font-size="12.00" fill="#000000">mpi.h</text>
</g>
<!-- Node0&#45;&gt;Node1 -->
<g id="edge1" class="edge">
<title>Node0&#45;&gt;Node1</title>
<path fill="none" stroke="#191970" d="M451.7285,-123.2627C369.4073,-117.8802 228.7708,-105.6269 110.5,-80 109.0221,-79.6798 107.5173,-79.3208 106.0043,-78.9333"/>
<polygon fill="#191970" stroke="#191970" points="106.6734,-75.4836 96.0949,-76.0725 104.7317,-82.2089 106.6734,-75.4836"/>
</g>
<!-- Node2 -->
<g id="node3" class="node">
<title>Node2</title>
<polygon fill="#ffffff" stroke="#bfbfbf" points="0,-.5 0,-21.5 51,-21.5 51,-.5 0,-.5"/>
<text text-anchor="middle" x="25.5" y="-7.9" font-family="Helvetica,sans-Serif" font-size="12.00" fill="#000000">iostream</text>
</g>
<!-- Node0&#45;&gt;Node2 -->
<g id="edge2" class="edge">
<title>Node0&#45;&gt;Node2</title>
<path fill="none" stroke="#191970" d="M451.9695,-124.6041C378.9645,-120.5373 261.5228,-109.5702 164.5,-80 122.7737,-67.2828 78.2269,-43.0514 51.1182,-26.9573"/>
<polygon fill="#191970" stroke="#191970" points="52.6613,-23.8008 42.2899,-21.6362 49.0477,-29.796 52.6613,-23.8008"/>
</g>
<!-- Node3 -->
<g id="node4" class="node">
<title>Node3</title>
<polygon fill="#ffffff" stroke="#bfbfbf" points="69.5,-.5 69.5,-21.5 111.5,-21.5 111.5,-.5 69.5,-.5"/>
<text text-anchor="middle" x="90.5" y="-7.9" font-family="Helvetica,sans-Serif" font-size="12.00" fill="#000000">cstdlib</text>
</g>
<!-- Node0&#45;&gt;Node3 -->
<g id="edge3" class="edge">
<title>Node0&#45;&gt;Node3</title>
<path fill="none" stroke="#191970" d="M451.8492,-123.3948C388.5077,-118.478 293.1873,-106.9391 214.5,-80 177.0913,-67.1929 137.8501,-43.3238 113.7777,-27.2969"/>
<polygon fill="#191970" stroke="#191970" points="115.5729,-24.2856 105.3299,-21.5778 111.6486,-30.0822 115.5729,-24.2856"/>
</g>
<!-- Node4 -->
<g id="node5" class="node">
<title>Node4</title>
<polygon fill="#ffffff" stroke="#bfbfbf" points="759,-58.5 759,-79.5 804,-79.5 804,-58.5 759,-58.5"/>
<text text-anchor="middle" x="781.5" y="-65.9" font-family="Helvetica,sans-Serif" font-size="12.00" fill="#000000">stdlib.h</text>
</g>
<!-- Node0&#45;&gt;Node4 -->
<g id="edge4" class="edge">
<title>Node0&#45;&gt;Node4</title>
<path fill="none" stroke="#191970" d="M577.6943,-116.4693C622.962,-107.6714 688.1227,-94.2964 744.5,-80 745.9616,-79.6294 747.452,-79.2389 748.955,-78.835"/>
<polygon fill="#191970" stroke="#191970" points="750.2047,-82.1193 758.8825,-76.041 748.3082,-75.3811 750.2047,-82.1193"/>
</g>
<!-- Node5 -->
<g id="node6" class="node">
<title>Node5</title>
<polygon fill="#ffffff" stroke="#bfbfbf" points="130,-.5 130,-21.5 159,-21.5 159,-.5 130,-.5"/>
<text text-anchor="middle" x="144.5" y="-7.9" font-family="Helvetica,sans-Serif" font-size="12.00" fill="#000000">set</text>
</g>
<!-- Node0&#45;&gt;Node5 -->
<g id="edge5" class="edge">
<title>Node0&#45;&gt;Node5</title>
<path fill="none" stroke="#191970" d="M451.8561,-121.1602C398.4594,-115.0894 323.6305,-103.0915 261.5,-80 226.3747,-66.9453 189.7755,-43.5115 167.066,-27.6138"/>
<polygon fill="#191970" stroke="#191970" points="168.9688,-24.6721 158.7926,-21.7232 164.9087,-30.3744 168.9688,-24.6721"/>
</g>
<!-- Node6 -->
<g id="node7" class="node">
<title>Node6</title>
<polygon fill="#ffffff" stroke="#bfbfbf" points="177,-.5 177,-21.5 216,-21.5 216,-.5 177,-.5"/>
<text text-anchor="middle" x="196.5" y="-7.9" font-family="Helvetica,sans-Serif" font-size="12.00" fill="#000000">string</text>
</g>
<!-- Node0&#45;&gt;Node6 -->
<g id="edge6" class="edge">
<title>Node0&#45;&gt;Node6</title>
<path fill="none" stroke="#191970" d="M451.5491,-118.1343C408.3308,-111.122 352.3677,-99.227 305.5,-80 272.8649,-66.6118 239.1284,-43.58 217.9984,-27.8383"/>
<polygon fill="#191970" stroke="#191970" points="219.8377,-24.8405 209.7546,-21.5875 215.6083,-30.4184 219.8377,-24.8405"/>
</g>
<!-- Node7 -->
<g id="node8" class="node">
<title>Node7</title>
<polygon fill="#ffffff" stroke="#bfbfbf" points="234,-.5 234,-21.5 283,-21.5 283,-.5 234,-.5"/>
<text text-anchor="middle" x="258.5" y="-7.9" font-family="Helvetica,sans-Serif" font-size="12.00" fill="#000000">sstream</text>
</g>
<!-- Node0&#45;&gt;Node7 -->
<g id="edge7" class="edge">
<title>Node0&#45;&gt;Node7</title>
<path fill="none" stroke="#191970" d="M453.1265,-116.47C418.3769,-109.3313 376.2631,-97.8548 341.5,-80 315.95,-66.8772 291.2403,-44.732 275.5244,-29.0735"/>
<polygon fill="#191970" stroke="#191970" points="277.6652,-26.257 268.1691,-21.5586 272.6626,-31.1533 277.6652,-26.257"/>
</g>
<!-- Node8 -->
<g id="node9" class="node">
<title>Node8</title>
<polygon fill="#ffffff" stroke="#bfbfbf" points="301.5,-.5 301.5,-21.5 349.5,-21.5 349.5,-.5 301.5,-.5"/>
<text text-anchor="middle" x="325.5" y="-7.9" font-family="Helvetica,sans-Serif" font-size="12.00" fill="#000000">iomanip</text>
</g>
<!-- Node0&#45;&gt;Node8 -->
<g id="edge8" class="edge">
<title>Node0&#45;&gt;Node8</title>
<path fill="none" stroke="#191970" d="M451.7073,-118.6044C421.6668,-112.0916 387.7306,-100.5285 362.5,-80 347.0799,-67.4537 337.2027,-46.7229 331.5679,-31.2538"/>
<polygon fill="#191970" stroke="#191970" points="334.8151,-29.9275 328.3287,-21.5503 328.1753,-32.144 334.8151,-29.9275"/>
</g>
<!-- Node9 -->
<g id="node10" class="node">
<title>Node9</title>
<polygon fill="#ffffff" stroke="#bfbfbf" points="368,-.5 368,-21.5 411,-21.5 411,-.5 368,-.5"/>
<text text-anchor="middle" x="389.5" y="-7.9" font-family="Helvetica,sans-Serif" font-size="12.00" fill="#000000">cstring</text>
</g>
<!-- Node0&#45;&gt;Node9 -->
<g id="edge9" class="edge">
<title>Node0&#45;&gt;Node9</title>
<path fill="none" stroke="#191970" d="M464.7821,-116.4546C427.2375,-108.1886 382.8904,-95.5054 371.5,-80 360.9182,-65.5953 367.9969,-45.4922 376.182,-30.6996"/>
<polygon fill="#191970" stroke="#191970" points="379.351,-32.2239 381.546,-21.8589 373.3664,-28.5928 379.351,-32.2239"/>
</g>
<!-- Node10 -->
<g id="node11" class="node">
<title>Node10</title>
<polygon fill="#ffffff" stroke="#bfbfbf" points="429,-.5 429,-21.5 484,-21.5 484,-.5 429,-.5"/>
<text text-anchor="middle" x="456.5" y="-7.9" font-family="Helvetica,sans-Serif" font-size="12.00" fill="#000000">exception</text>
</g>
<!-- Node0&#45;&gt;Node10 -->
<g id="edge10" class="edge">
<title>Node0&#45;&gt;Node10</title>
<path fill="none" stroke="#191970" d="M515.636,-116.2102C508.222,-102.6015 495.0326,-78.501 483.5,-58 478.4047,-48.9423 472.6808,-38.9527 467.8189,-30.5209"/>
<polygon fill="#191970" stroke="#191970" points="470.8102,-28.7018 462.7754,-21.7957 464.7498,-32.205 470.8102,-28.7018"/>
</g>
<!-- Node11 -->
<g id="node12" class="node">
<title>Node11</title>
<polygon fill="#ffffff" stroke="#bfbfbf" points="502,-.5 502,-21.5 557,-21.5 557,-.5 502,-.5"/>
<text text-anchor="middle" x="529.5" y="-7.9" font-family="Helvetica,sans-Serif" font-size="12.00" fill="#000000">stdexcept</text>
</g>
<!-- Node0&#45;&gt;Node11 -->
<g id="edge11" class="edge">
<title>Node0&#45;&gt;Node11</title>
<path fill="none" stroke="#191970" d="M522.2383,-116.2949C523.5599,-97.1314 526.3515,-56.654 528.0625,-31.8434"/>
<polygon fill="#191970" stroke="#191970" points="531.5671,-31.8963 528.7635,-21.6792 524.5837,-31.4147 531.5671,-31.8963"/>
</g>
<!-- Node12 -->
<g id="node13" class="node">
<title>Node12</title>
<polygon fill="#ffffff" stroke="#bfbfbf" points="575,-.5 575,-21.5 630,-21.5 630,-.5 575,-.5"/>
<text text-anchor="middle" x="602.5" y="-7.9" font-family="Helvetica,sans-Serif" font-size="12.00" fill="#000000">functional</text>
</g>
<!-- Node0&#45;&gt;Node12 -->
<g id="edge12" class="edge">
<title>Node0&#45;&gt;Node12</title>
<path fill="none" stroke="#191970" d="M528.9751,-116.2949C542.6579,-96.6998 571.9017,-54.8198 589.0992,-30.1913"/>
<polygon fill="#191970" stroke="#191970" points="592.1874,-31.882 595.043,-21.6792 586.4482,-27.8744 592.1874,-31.882"/>
</g>
<!-- Node13 -->
<g id="node14" class="node">
<title>Node13</title>
<polygon fill="#ffffff" stroke="#bfbfbf" points="822.5,-58.5 822.5,-79.5 860.5,-79.5 860.5,-58.5 822.5,-58.5"/>
<text text-anchor="middle" x="841.5" y="-65.9" font-family="Helvetica,sans-Serif" font-size="12.00" fill="#000000">cfenv</text>
</g>
<!-- Node0&#45;&gt;Node13 -->
<g id="edge13" class="edge">
<title>Node0&#45;&gt;Node13</title>
<path fill="none" stroke="#191970" d="M591.1248,-120.0538C648.5184,-113.3605 732.0057,-101.4008 812.5928,-79.809"/>
<polygon fill="#191970" stroke="#191970" points="813.6806,-83.1402 822.4042,-77.1278 811.8353,-76.3878 813.6806,-83.1402"/>
</g>
<!-- Node14 -->
<g id="node15" class="node">
<title>Node14</title>
<polygon fill="#ffffff" stroke="#bfbfbf" points="878.5,-58.5 878.5,-79.5 936.5,-79.5 936.5,-58.5 878.5,-58.5"/>
<text text-anchor="middle" x="907.5" y="-65.9" font-family="Helvetica,sans-Serif" font-size="12.00" fill="#000000">execinfo.h</text>
</g>
<!-- Node0&#45;&gt;Node14 -->
<g id="edge14" class="edge">
<title>Node0&#45;&gt;Node14</title>
<path fill="none" stroke="#191970" d="M591.0141,-120.6607C659.4242,-113.7325 766.9325,-101.0028 868.3551,-80.0169"/>
<polygon fill="#191970" stroke="#191970" points="869.0824,-83.4405 878.1497,-77.9601 867.6438,-76.59 869.0824,-83.4405"/>
</g>
<!-- Node15 -->
<g id="node16" class="node">
<title>Node15</title>
<polygon fill="#ffffff" stroke="#bfbfbf" points="954.5,-58.5 954.5,-79.5 1004.5,-79.5 1004.5,-58.5 954.5,-58.5"/>
<text text-anchor="middle" x="979.5" y="-65.9" font-family="Helvetica,sans-Serif" font-size="12.00" fill="#000000">cxxabi.h</text>
</g>
<!-- Node0&#45;&gt;Node15 -->
<g id="edge15" class="edge">
<title>Node0&#45;&gt;Node15</title>
<path fill="none" stroke="#191970" d="M591.2254,-123.606C673.672,-118.6264 815.0004,-107.0566 944.3222,-79.9003"/>
<polygon fill="#191970" stroke="#191970" points="945.356,-83.2584 954.4038,-77.7459 943.8931,-76.413 945.356,-83.2584"/>
</g>
<!-- Node16 -->
<g id="node17" class="node">
<title>Node16</title>
<polygon fill="#ffffff" stroke="#bfbfbf" points="648.5,-.5 648.5,-21.5 690.5,-21.5 690.5,-.5 648.5,-.5"/>
<text text-anchor="middle" x="669.5" y="-7.9" font-family="Helvetica,sans-Serif" font-size="12.00" fill="#000000">deque</text>
</g>
<!-- Node0&#45;&gt;Node16 -->
<g id="edge16" class="edge">
<title>Node0&#45;&gt;Node16</title>
<path fill="none" stroke="#191970" d="M535.1582,-116.2949C560.9298,-96.0955 616.9144,-52.2158 647.8573,-27.9632"/>
<polygon fill="#191970" stroke="#191970" points="650.1633,-30.6028 655.8748,-21.6792 645.8451,-25.0934 650.1633,-30.6028"/>
</g>
<!-- Node17 -->
<g id="node18" class="node">
<title>Node17</title>
<polygon fill="#ffffff" stroke="#bfbfbf" points="709,-.5 709,-21.5 750,-21.5 750,-.5 709,-.5"/>
<text text-anchor="middle" x="729.5" y="-7.9" font-family="Helvetica,sans-Serif" font-size="12.00" fill="#000000">cmath</text>
</g>
<!-- Node0&#45;&gt;Node17 -->
<g id="edge17" class="edge">
<title>Node0&#45;&gt;Node17</title>
<path fill="none" stroke="#191970" d="M541.8698,-116.3519C559.7685,-106.9405 586.4746,-92.7645 609.5,-80 641.7424,-62.1259 678.4326,-40.897 702.6627,-26.752"/>
<polygon fill="#191970" stroke="#191970" points="704.4379,-29.7685 711.3038,-21.6994 700.9045,-23.7257 704.4379,-29.7685"/>
</g>
<!-- Node18 -->
<g id="node19" class="node">
<title>Node18</title>
<polygon fill="#ffffff" stroke="#bfbfbf" points="768,-.5 768,-21.5 809,-21.5 809,-.5 768,-.5"/>
<text text-anchor="middle" x="788.5" y="-7.9" font-family="Helvetica,sans-Serif" font-size="12.00" fill="#000000">vector</text>
</g>
<!-- Node0&#45;&gt;Node18 -->
<g id="edge18" class="edge">
<title>Node0&#45;&gt;Node18</title>
<path fill="none" stroke="#191970" d="M550.5824,-116.3655C575.2396,-107.1918 611.4438,-93.3502 642.5,-80 683.2273,-62.4924 729.3445,-40.2877 758.6547,-25.8681"/>
<polygon fill="#191970" stroke="#191970" points="760.5012,-28.8599 767.9183,-21.2944 757.4022,-22.5832 760.5012,-28.8599"/>
</g>
<!-- Node19 -->
<g id="node20" class="node">
<title>Node19</title>
<g id="a_node20"><a xlink:href="../../db/d19/namespace_8hpp.html" target="_top" xlink:title="timemory/namespace.hpp">
<polygon fill="#ffffff" stroke="#000000" points="827.5,-.5 827.5,-21.5 947.5,-21.5 947.5,-.5 827.5,-.5"/>
<text text-anchor="middle" x="887.5" y="-7.9" font-family="Helvetica,sans-Serif" font-size="12.00" fill="#000000">timemory/namespace.hpp</text>
</a>
</g>
</g>
<!-- Node0&#45;&gt;Node19 -->
<g id="edge19" class="edge">
<title>Node0&#45;&gt;Node19</title>
<path fill="none" stroke="#191970" d="M558.7988,-116.4719C591.3024,-107.1952 639.6558,-93.1487 681.5,-80 739.5061,-61.7728 806.1456,-39.1399 847.5431,-24.878"/>
<polygon fill="#191970" stroke="#191970" points="848.9384,-28.0992 857.2493,-21.5281 846.6546,-21.4822 848.9384,-28.0992"/>
</g>
<!-- Node20 -->
<g id="node21" class="node">
<title>Node20</title>
<g id="a_node21"><a xlink:href="../../d1/d4e/utility_8hpp.html" target="_top" xlink:title="timemory/utility.hpp">
<polygon fill="#ffffff" stroke="#000000" points="380.5,-58.5 380.5,-79.5 474.5,-79.5 474.5,-58.5 380.5,-58.5"/>
<text text-anchor="middle" x="427.5" y="-65.9" font-family="Helvetica,sans-Serif" font-size="12.00" fill="#000000">timemory/utility.hpp</text>
</a>
</g>
</g>
<!-- Node0&#45;&gt;Node20 -->
<g id="edge20" class="edge">
<title>Node0&#45;&gt;Node20</title>
<path fill="none" stroke="#191970" d="M504.259,-116.3619C489.9484,-107.532 469.385,-94.844 453.1432,-84.8224"/>
<polygon fill="#191970" stroke="#191970" points="454.98,-81.8431 444.6317,-79.5707 451.3042,-87.8004 454.98,-81.8431"/>
</g>
<!-- Node20&#45;&gt;Node2 -->
<g id="edge21" class="edge">
<title>Node20&#45;&gt;Node2</title>
<path fill="none" stroke="#191970" d="M380.4085,-65.6531C312.0484,-60.2085 181.3095,-47.5927 61.438,-21.8866"/>
<polygon fill="#191970" stroke="#191970" points="61.8719,-18.3991 51.3557,-19.6875 60.3801,-25.2383 61.8719,-18.3991"/>
</g>
<!-- Node20&#45;&gt;Node3 -->
<g id="edge22" class="edge">
<title>Node20&#45;&gt;Node3</title>
<path fill="none" stroke="#191970" d="M380.3654,-64.7344C321.6133,-58.7703 218.1332,-46.1389 121.5627,-21.885"/>
<polygon fill="#191970" stroke="#191970" points="122.1952,-18.4341 111.6395,-19.3447 120.4592,-25.2154 122.1952,-18.4341"/>
</g>
<!-- Node20&#45;&gt;Node5 -->
<g id="edge23" class="edge">
<title>Node20&#45;&gt;Node5</title>
<path fill="none" stroke="#191970" d="M380.0785,-64.2813C329.4077,-58.3953 246.859,-46.3766 169.2812,-22.0069"/>
<polygon fill="#191970" stroke="#191970" points="169.9489,-18.5449 159.3574,-18.8117 167.8035,-25.2081 169.9489,-18.5449"/>
</g>
<!-- Node20&#45;&gt;Node6 -->
<g id="edge24" class="edge">
<title>Node20&#45;&gt;Node6</title>
<path fill="none" stroke="#191970" d="M380.2137,-60.1015C340.9217,-52.2488 283.4687,-39.709 225.874,-22.1551"/>
<polygon fill="#191970" stroke="#191970" points="226.8447,-18.7918 216.2568,-19.1767 224.7738,-25.4784 226.8447,-18.7918"/>
</g>
<!-- Node20&#45;&gt;Node7 -->
<g id="edge25" class="edge">
<title>Node20&#45;&gt;Node7</title>
<path fill="none" stroke="#191970" d="M396.8954,-58.4966C367.583,-48.4368 323.4203,-33.2803 292.9024,-22.8067"/>
<polygon fill="#191970" stroke="#191970" points="293.7118,-19.3842 283.1171,-19.4485 291.4395,-26.0051 293.7118,-19.3842"/>
</g>
<!-- Node20&#45;&gt;Node8 -->
<g id="edge26" class="edge">
<title>Node20&#45;&gt;Node8</title>
<path fill="none" stroke="#191970" d="M408.7916,-58.3619C393.1194,-49.4502 370.5359,-36.6087 352.8373,-26.5447"/>
<polygon fill="#191970" stroke="#191970" points="354.5128,-23.4712 344.0898,-21.5707 351.0526,-29.5562 354.5128,-23.4712"/>
</g>
<!-- Node20&#45;&gt;Node9 -->
<g id="edge27" class="edge">
<title>Node20&#45;&gt;Node9</title>
<path fill="none" stroke="#191970" d="M420.5302,-58.3619C415.3343,-50.4313 408.0994,-39.3885 401.9225,-29.9606"/>
<polygon fill="#191970" stroke="#191970" points="404.8335,-28.0172 396.4256,-21.5707 398.9783,-31.8534 404.8335,-28.0172"/>
</g>
<!-- Node20&#45;&gt;Node10 -->
<g id="edge28" class="edge">
<title>Node20&#45;&gt;Node10</title>
<path fill="none" stroke="#191970" d="M432.819,-58.3619C436.7026,-50.5949 442.0787,-39.8426 446.7271,-30.5458"/>
<polygon fill="#191970" stroke="#191970" points="449.873,-32.0802 451.2147,-21.5707 443.612,-28.9497 449.873,-32.0802"/>
</g>
<!-- Node20&#45;&gt;Node11 -->
<g id="edge29" class="edge">
<title>Node20&#45;&gt;Node11</title>
<path fill="none" stroke="#191970" d="M446.2084,-58.3619C461.8806,-49.4502 484.4641,-36.6087 502.1627,-26.5447"/>
<polygon fill="#191970" stroke="#191970" points="503.9474,-29.5562 510.9102,-21.5707 500.4872,-23.4712 503.9474,-29.5562"/>
</g>
<!-- Node20&#45;&gt;Node12 -->
<g id="edge30" class="edge">
<title>Node20&#45;&gt;Node12</title>
<path fill="none" stroke="#191970" d="M459.1912,-58.4966C488.9652,-48.6287 533.5356,-33.8568 565.0524,-23.4112"/>
<polygon fill="#191970" stroke="#191970" points="566.4,-26.6519 574.7911,-20.1835 564.1977,-20.0073 566.4,-26.6519"/>
</g>
<!-- Node20&#45;&gt;Node16 -->
<g id="edge31" class="edge">
<title>Node20&#45;&gt;Node16</title>
<path fill="none" stroke="#191970" d="M474.8444,-60.1705C517.8824,-51.7394 582.9562,-37.9763 638.5,-22 638.5995,-21.9714 638.6991,-21.9426 638.7989,-21.9137"/>
<polygon fill="#191970" stroke="#191970" points="639.7868,-25.2722 648.2653,-18.9188 637.6753,-18.5983 639.7868,-25.2722"/>
</g>
<!-- Node20&#45;&gt;Node17 -->
<g id="edge32" class="edge">
<title>Node20&#45;&gt;Node17</title>
<path fill="none" stroke="#191970" d="M474.7428,-63.4666C527.4106,-56.717 615.1406,-43.7438 698.9978,-21.7635"/>
<polygon fill="#191970" stroke="#191970" points="699.9141,-25.1415 708.6738,-19.1818 698.1095,-18.3781 699.9141,-25.1415"/>
</g>
<!-- Node20&#45;&gt;Node18 -->
<g id="edge33" class="edge">
<title>Node20&#45;&gt;Node18</title>
<path fill="none" stroke="#191970" d="M474.6009,-65.6403C537.5726,-60.4262 652.6132,-48.3735 757.936,-22.0064"/>
<polygon fill="#191970" stroke="#191970" points="758.9469,-25.3607 767.7698,-19.4949 757.2147,-18.5783 758.9469,-25.3607"/>
</g>
<!-- Node20&#45;&gt;Node19 -->
<g id="edge34" class="edge">
<title>Node20&#45;&gt;Node19</title>
<path fill="none" stroke="#191970" d="M474.5212,-63.9389C546.1623,-56.0981 687.1909,-40.1544 817.1745,-22.1467"/>
<polygon fill="#191970" stroke="#191970" points="817.8881,-25.5812 827.3097,-20.7352 816.9224,-18.6481 817.8881,-25.5812"/>
</g>
</g>
</svg>
