<?xml version="1.0" encoding="UTF-8" standalone="no"?>
<!DOCTYPE svg PUBLIC "-//W3C//DTD SVG 1.1//EN"
 "http://www.w3.org/Graphics/SVG/1.1/DTD/svg11.dtd">
<!-- Generated by graphviz version 2.40.1 (20161225.0304)
 -->
<!-- Title: NAME_TIM::internal::base_timer_delta Pages: 1 -->
<svg width="292pt" height="905pt"
 viewBox="0.00 0.00 291.50 905.00" xmlns="http://www.w3.org/2000/svg" xmlns:xlink="http://www.w3.org/1999/xlink">
<g id="graph0" class="graph" transform="scale(1 1) rotate(0) translate(4 901)">
<title>NAME_TIM::internal::base_timer_delta</title>
<polygon fill="#ffffff" stroke="transparent" points="-4,4 -4,-901 287.5,-901 287.5,4 -4,4"/>
<!-- Node1 -->
<g id="node1" class="node">
<title>Node1</title>
<polygon fill="#bfbfbf" stroke="#000000" points="67,-.5 67,-258.5 166,-258.5 166,-.5 67,-.5"/>
<text text-anchor="start" x="75" y="-244.9" font-family="Helvetica,sans-Serif" font-size="12.00" fill="#000000">NAME_TIM::internal</text>
<text text-anchor="middle" x="116.5" y="-231.9" font-family="Helvetica,sans-Serif" font-size="12.00" fill="#000000">::base_timer_delta</text>
<polyline fill="none" stroke="#000000" points="67,-224.5 166,-224.5 "/>
<text text-anchor="middle" x="116.5" y="-210.9" font-family="Helvetica,sans-Serif" font-size="12.00" fill="#000000"> </text>
<polyline fill="none" stroke="#000000" points="67,-203.5 166,-203.5 "/>
<text text-anchor="start" x="75" y="-189.9" font-family="Helvetica,sans-Serif" font-size="12.00" fill="#000000">+ base_timer_delta()</text>
<text text-anchor="start" x="75" y="-176.9" font-family="Helvetica,sans-Serif" font-size="12.00" fill="#000000">+ reset()</text>
<text text-anchor="start" x="75" y="-163.9" font-family="Helvetica,sans-Serif" font-size="12.00" fill="#000000">+ operator+=()</text>
<text text-anchor="start" x="75" y="-150.9" font-family="Helvetica,sans-Serif" font-size="12.00" fill="#000000">+ operator+=()</text>
<text text-anchor="start" x="75" y="-137.9" font-family="Helvetica,sans-Serif" font-size="12.00" fill="#000000">+ operator/=()</text>
<text text-anchor="start" x="75" y="-124.9" font-family="Helvetica,sans-Serif" font-size="12.00" fill="#000000">+ get_sum()</text>
<text text-anchor="start" x="75" y="-111.9" font-family="Helvetica,sans-Serif" font-size="12.00" fill="#000000">+ get_sqr()</text>
<text text-anchor="start" x="75" y="-98.9" font-family="Helvetica,sans-Serif" font-size="12.00" fill="#000000">+ size()</text>
<text text-anchor="start" x="75" y="-85.9" font-family="Helvetica,sans-Serif" font-size="12.00" fill="#000000">+ rss()</text>
<text text-anchor="start" x="75" y="-72.9" font-family="Helvetica,sans-Serif" font-size="12.00" fill="#000000">+ rss()</text>
<text text-anchor="start" x="75" y="-59.9" font-family="Helvetica,sans-Serif" font-size="12.00" fill="#000000"># compute()</text>
<text text-anchor="start" x="75" y="-46.9" font-family="Helvetica,sans-Serif" font-size="12.00" fill="#000000"># compute_sum()</text>
<text text-anchor="start" x="75" y="-33.9" font-family="Helvetica,sans-Serif" font-size="12.00" fill="#000000"># compute_sqr()</text>
<text text-anchor="start" x="75" y="-20.9" font-family="Helvetica,sans-Serif" font-size="12.00" fill="#000000"># divide_sum()</text>
<text text-anchor="start" x="75" y="-7.9" font-family="Helvetica,sans-Serif" font-size="12.00" fill="#000000"># divide_sqr()</text>
</g>
<!-- Node2 -->
<g id="node2" class="node">
<title>Node2</title>
<polygon fill="#ffffff" stroke="#bfbfbf" points="0,-367 0,-430 49,-430 49,-367 0,-367"/>
<text text-anchor="middle" x="24.5" y="-416.4" font-family="Helvetica,sans-Serif" font-size="12.00" fill="#000000">uint64_t</text>
<polyline fill="none" stroke="#bfbfbf" points="0,-409 49,-409 "/>
<text text-anchor="middle" x="24.5" y="-395.4" font-family="Helvetica,sans-Serif" font-size="12.00" fill="#000000"> </text>
<polyline fill="none" stroke="#bfbfbf" points="0,-388 49,-388 "/>
<text text-anchor="middle" x="24.5" y="-374.4" font-family="Helvetica,sans-Serif" font-size="12.00" fill="#000000"> </text>
</g>
<!-- Node2&#45;&gt;Node1 -->
<g id="edge1" class="edge">
<title>Node2&#45;&gt;Node1</title>
<path fill="none" stroke="#404040" d="M35.3241,-366.8513C43.6819,-342.4139 55.8825,-306.7404 68.2975,-270.4399"/>
<polygon fill="none" stroke="#404040" points="68.448,-269.9998 66.6048,-263.0282 72.3313,-258.6455 74.1744,-265.6171 68.448,-269.9998"/>
<text text-anchor="middle" x="82" y="-286.9" font-family="Helvetica,sans-Serif" font-size="12.00" fill="#000000"> #m_lap</text>
</g>
<!-- Node3 -->
<g id="node3" class="node">
<title>Node3</title>
<g id="a_node3"><a xlink:href="../../d5/d6c/class_n_a_m_e___t_i_m_1_1internal_1_1base__rss__usage.html" target="_top" xlink:title="{NAME_TIM::internal\l::base_rss_usage\n||+ init()\l+ record()\l+ total()\l+ self()\l+ total()\l+ self()\l+ max()\l}">
<polygon fill="#ffffff" stroke="#000000" points="67.5,-321.5 67.5,-475.5 165.5,-475.5 165.5,-321.5 67.5,-321.5"/>
<text text-anchor="start" x="75.5" y="-461.9" font-family="Helvetica,sans-Serif" font-size="12.00" fill="#000000">NAME_TIM::internal</text>
<text text-anchor="middle" x="116.5" y="-448.9" font-family="Helvetica,sans-Serif" font-size="12.00" fill="#000000">::base_rss_usage</text>
<polyline fill="none" stroke="#000000" points="67.5,-441.5 165.5,-441.5 "/>
<text text-anchor="middle" x="116.5" y="-427.9" font-family="Helvetica,sans-Serif" font-size="12.00" fill="#000000"> </text>
<polyline fill="none" stroke="#000000" points="67.5,-420.5 165.5,-420.5 "/>
<text text-anchor="start" x="75.5" y="-406.9" font-family="Helvetica,sans-Serif" font-size="12.00" fill="#000000">+ init()</text>
<text text-anchor="start" x="75.5" y="-393.9" font-family="Helvetica,sans-Serif" font-size="12.00" fill="#000000">+ record()</text>
<text text-anchor="start" x="75.5" y="-380.9" font-family="Helvetica,sans-Serif" font-size="12.00" fill="#000000">+ total()</text>
<text text-anchor="start" x="75.5" y="-367.9" font-family="Helvetica,sans-Serif" font-size="12.00" fill="#000000">+ self()</text>
<text text-anchor="start" x="75.5" y="-354.9" font-family="Helvetica,sans-Serif" font-size="12.00" fill="#000000">+ total()</text>
<text text-anchor="start" x="75.5" y="-341.9" font-family="Helvetica,sans-Serif" font-size="12.00" fill="#000000">+ self()</text>
<text text-anchor="start" x="75.5" y="-328.9" font-family="Helvetica,sans-Serif" font-size="12.00" fill="#000000">+ max()</text>
</a>
</g>
</g>
<!-- Node3&#45;&gt;Node1 -->
<g id="edge2" class="edge">
<title>Node3&#45;&gt;Node1</title>
<path fill="none" stroke="#404040" d="M116.5,-321.4154C116.5,-305.4584 116.5,-288.1741 116.5,-270.7384"/>
<polygon fill="none" stroke="#404040" points="116.5001,-270.6578 112.5,-264.6578 116.5,-258.6578 120.5,-264.6578 116.5001,-270.6578"/>
<text text-anchor="middle" x="133" y="-286.9" font-family="Helvetica,sans-Serif" font-size="12.00" fill="#000000"> #m_rss</text>
</g>
<!-- Node4 -->
<g id="node4" class="node">
<title>Node4</title>
<g id="a_node4"><a xlink:href="../../df/d64/struct_n_a_m_e___t_i_m_1_1rss_1_1usage.html" target="_top" xlink:title="{NAME_TIM::rss::usage\n||+ usage()\l+ usage()\l+ usage()\l+ operator=()\l+ record()\l+ record()\l+ operator()()\l+ operator&#45;=()\l+ current()\l+ peak()\l+ serialize()\l+ max()\l+ min()\l}">
<polygon fill="#ffffff" stroke="#000000" points="61.5,-551.5 61.5,-770.5 171.5,-770.5 171.5,-551.5 61.5,-551.5"/>
<text text-anchor="middle" x="116.5" y="-756.9" font-family="Helvetica,sans-Serif" font-size="12.00" fill="#000000">NAME_TIM::rss::usage</text>
<polyline fill="none" stroke="#000000" points="61.5,-749.5 171.5,-749.5 "/>
<text text-anchor="middle" x="116.5" y="-735.9" font-family="Helvetica,sans-Serif" font-size="12.00" fill="#000000"> </text>
<polyline fill="none" stroke="#000000" points="61.5,-728.5 171.5,-728.5 "/>
<text text-anchor="start" x="69.5" y="-714.9" font-family="Helvetica,sans-Serif" font-size="12.00" fill="#000000">+ usage()</text>
<text text-anchor="start" x="69.5" y="-701.9" font-family="Helvetica,sans-Serif" font-size="12.00" fill="#000000">+ usage()</text>
<text text-anchor="start" x="69.5" y="-688.9" font-family="Helvetica,sans-Serif" font-size="12.00" fill="#000000">+ usage()</text>
<text text-anchor="start" x="69.5" y="-675.9" font-family="Helvetica,sans-Serif" font-size="12.00" fill="#000000">+ operator=()</text>
<text text-anchor="start" x="69.5" y="-662.9" font-family="Helvetica,sans-Serif" font-size="12.00" fill="#000000">+ record()</text>
<text text-anchor="start" x="69.5" y="-649.9" font-family="Helvetica,sans-Serif" font-size="12.00" fill="#000000">+ record()</text>
<text text-anchor="start" x="69.5" y="-636.9" font-family="Helvetica,sans-Serif" font-size="12.00" fill="#000000">+ operator()()</text>
<text text-anchor="start" x="69.5" y="-623.9" font-family="Helvetica,sans-Serif" font-size="12.00" fill="#000000">+ operator&#45;=()</text>
<text text-anchor="start" x="69.5" y="-610.9" font-family="Helvetica,sans-Serif" font-size="12.00" fill="#000000">+ current()</text>
<text text-anchor="start" x="69.5" y="-597.9" font-family="Helvetica,sans-Serif" font-size="12.00" fill="#000000">+ peak()</text>
<text text-anchor="start" x="69.5" y="-584.9" font-family="Helvetica,sans-Serif" font-size="12.00" fill="#000000">+ serialize()</text>
<text text-anchor="start" x="69.5" y="-571.9" font-family="Helvetica,sans-Serif" font-size="12.00" fill="#000000">+ max()</text>
<text text-anchor="start" x="69.5" y="-558.9" font-family="Helvetica,sans-Serif" font-size="12.00" fill="#000000">+ min()</text>
</a>
</g>
</g>
<!-- Node4&#45;&gt;Node3 -->
<g id="edge3" class="edge">
<title>Node4&#45;&gt;Node3</title>
<path fill="none" stroke="#404040" d="M116.5,-551.1973C116.5,-530.0396 116.5,-508.1176 116.5,-487.7114"/>
<polygon fill="none" stroke="#404040" points="116.5001,-487.5568 112.5,-481.5569 116.5,-475.5568 120.5,-481.5568 116.5001,-487.5568"/>
<text text-anchor="middle" x="143" y="-523.4" font-family="Helvetica,sans-Serif" font-size="12.00" fill="#000000"> #m_rss_tmp</text>
<text text-anchor="middle" x="143" y="-510.4" font-family="Helvetica,sans-Serif" font-size="12.00" fill="#000000">#m_rss_self</text>
<text text-anchor="middle" x="143" y="-497.4" font-family="Helvetica,sans-Serif" font-size="12.00" fill="#000000">#m_rss_tot</text>
</g>
<!-- Node5 -->
<g id="node5" class="node">
<title>Node5</title>
<polygon fill="#ffffff" stroke="#bfbfbf" points="94.5,-833.5 94.5,-896.5 138.5,-896.5 138.5,-833.5 94.5,-833.5"/>
<text text-anchor="middle" x="116.5" y="-882.9" font-family="Helvetica,sans-Serif" font-size="12.00" fill="#000000">int64_t</text>
<polyline fill="none" stroke="#bfbfbf" points="94.5,-875.5 138.5,-875.5 "/>
<text text-anchor="middle" x="116.5" y="-861.9" font-family="Helvetica,sans-Serif" font-size="12.00" fill="#000000"> </text>
<polyline fill="none" stroke="#bfbfbf" points="94.5,-854.5 138.5,-854.5 "/>
<text text-anchor="middle" x="116.5" y="-840.9" font-family="Helvetica,sans-Serif" font-size="12.00" fill="#000000"> </text>
</g>
<!-- Node5&#45;&gt;Node4 -->
<g id="edge4" class="edge">
<title>Node5&#45;&gt;Node4</title>
<path fill="none" stroke="#404040" d="M116.5,-833.125C116.5,-819.0605 116.5,-801.5484 116.5,-783.124"/>
<polygon fill="none" stroke="#404040" points="116.5001,-782.9119 112.5,-776.9119 116.5,-770.9119 120.5,-776.9118 116.5001,-782.9119"/>
<text text-anchor="middle" x="144" y="-805.4" font-family="Helvetica,sans-Serif" font-size="12.00" fill="#000000"> +m_curr_rss</text>
<text text-anchor="middle" x="144" y="-792.4" font-family="Helvetica,sans-Serif" font-size="12.00" fill="#000000">+m_peak_rss</text>
</g>
<!-- Node6 -->
<g id="node6" class="node">
<title>Node6</title>
<polygon fill="#ffffff" stroke="#bfbfbf" points="183.5,-360.5 183.5,-436.5 283.5,-436.5 283.5,-360.5 183.5,-360.5"/>
<text text-anchor="start" x="191.5" y="-422.9" font-family="Helvetica,sans-Serif" font-size="12.00" fill="#000000">tuple&lt; uint_type, uint</text>
<text text-anchor="middle" x="233.5" y="-409.9" font-family="Helvetica,sans-Serif" font-size="12.00" fill="#000000">_type, uint_type &gt;</text>
<polyline fill="none" stroke="#bfbfbf" points="183.5,-402.5 283.5,-402.5 "/>
<text text-anchor="middle" x="233.5" y="-388.9" font-family="Helvetica,sans-Serif" font-size="12.00" fill="#000000"> </text>
<polyline fill="none" stroke="#bfbfbf" points="183.5,-381.5 283.5,-381.5 "/>
<text text-anchor="middle" x="233.5" y="-367.9" font-family="Helvetica,sans-Serif" font-size="12.00" fill="#000000"> </text>
</g>
<!-- Node6&#45;&gt;Node1 -->
<g id="edge5" class="edge">
<title>Node6&#45;&gt;Node1</title>
<path fill="none" stroke="#404040" d="M216.861,-360.2445C204.7739,-332.4545 187.6799,-293.153 171.0186,-254.8462"/>
<polygon fill="none" stroke="#404040" points="170.8887,-254.5475 164.8275,-250.6408 166.1025,-243.5433 172.1637,-247.45 170.8887,-254.5475"/>
<text text-anchor="middle" x="207.5" y="-293.4" font-family="Helvetica,sans-Serif" font-size="12.00" fill="#000000"> #m_sum</text>
<text text-anchor="middle" x="207.5" y="-280.4" font-family="Helvetica,sans-Serif" font-size="12.00" fill="#000000">#m_sqr</text>
</g>
</g>
</svg>
