<?xml version="1.0" encoding="UTF-8" standalone="no"?>
<!DOCTYPE svg PUBLIC "-//W3C//DTD SVG 1.1//EN"
 "http://www.w3.org/Graphics/SVG/1.1/DTD/svg11.dtd">
<!-- Generated by graphviz version 2.40.1 (20161225.0304)
 -->
<!-- Title: signal_detection.cpp Pages: 1 -->
<svg width="1270pt" height="204pt"
 viewBox="0.00 0.00 1270.00 204.00" xmlns="http://www.w3.org/2000/svg" xmlns:xlink="http://www.w3.org/1999/xlink">
<g id="graph0" class="graph" transform="scale(1 1) rotate(0) translate(4 200)">
<title>signal_detection.cpp</title>
<polygon fill="#ffffff" stroke="transparent" points="-4,4 -4,-200 1266,-200 1266,4 -4,4"/>
<!-- Node0 -->
<g id="node1" class="node">
<title>Node0</title>
<polygon fill="#bfbfbf" stroke="#000000" points="55.5,-174.5 55.5,-195.5 154.5,-195.5 154.5,-174.5 55.5,-174.5"/>
<text text-anchor="middle" x="105" y="-181.9" font-family="Helvetica,sans-Serif" font-size="12.00" fill="#000000">signal_detection.cpp</text>
</g>
<!-- Node1 -->
<g id="node2" class="node">
<title>Node1</title>
<g id="a_node2"><a xlink:href="../../da/d8e/signal__detection_8hpp.html" target="_top" xlink:title="timemory/signal_detection.hpp">
<polygon fill="#ffffff" stroke="#000000" points="448.5,-116.5 448.5,-137.5 587.5,-137.5 587.5,-116.5 448.5,-116.5"/>
<text text-anchor="middle" x="518" y="-123.9" font-family="Helvetica,sans-Serif" font-size="12.00" fill="#000000">timemory/signal_detection.hpp</text>
</a>
</g>
</g>
<!-- Node0&#45;&gt;Node1 -->
<g id="edge1" class="edge">
<title>Node0&#45;&gt;Node1</title>
<path fill="none" stroke="#191970" d="M154.8174,-178.0038C225.2215,-168.1166 354.5722,-149.9511 438.3852,-138.1808"/>
<polygon fill="#191970" stroke="#191970" points="438.9574,-141.6348 448.3735,-136.7781 437.9839,-134.7029 438.9574,-141.6348"/>
</g>
<!-- Node3 -->
<g id="node4" class="node">
<title>Node3</title>
<polygon fill="#ffffff" stroke="#bfbfbf" points="0,-.5 0,-21.5 42,-21.5 42,-.5 0,-.5"/>
<text text-anchor="middle" x="21" y="-7.9" font-family="Helvetica,sans-Serif" font-size="12.00" fill="#000000">cstdlib</text>
</g>
<!-- Node0&#45;&gt;Node3 -->
<g id="edge41" class="edge">
<title>Node0&#45;&gt;Node3</title>
<path fill="none" stroke="#191970" d="M99.8719,-174.3774C86.197,-146.0509 48.6857,-68.3488 30.7722,-31.2424"/>
<polygon fill="#191970" stroke="#191970" points="33.7749,-29.4116 26.2754,-21.9277 27.4711,-32.4549 33.7749,-29.4116"/>
</g>
<!-- Node6 -->
<g id="node7" class="node">
<title>Node6</title>
<polygon fill="#ffffff" stroke="#bfbfbf" points="60.5,-.5 60.5,-21.5 99.5,-21.5 99.5,-.5 60.5,-.5"/>
<text text-anchor="middle" x="80" y="-7.9" font-family="Helvetica,sans-Serif" font-size="12.00" fill="#000000">string</text>
</g>
<!-- Node0&#45;&gt;Node6 -->
<g id="edge40" class="edge">
<title>Node0&#45;&gt;Node6</title>
<path fill="none" stroke="#191970" d="M103.4738,-174.3774C99.4386,-146.293 88.4301,-69.6735 83.0464,-32.2027"/>
<polygon fill="#191970" stroke="#191970" points="86.4568,-31.3283 81.5701,-21.9277 79.5279,-32.3239 86.4568,-31.3283"/>
</g>
<!-- Node7 -->
<g id="node8" class="node">
<title>Node7</title>
<polygon fill="#ffffff" stroke="#bfbfbf" points="117.5,-.5 117.5,-21.5 166.5,-21.5 166.5,-.5 117.5,-.5"/>
<text text-anchor="middle" x="142" y="-7.9" font-family="Helvetica,sans-Serif" font-size="12.00" fill="#000000">sstream</text>
</g>
<!-- Node0&#45;&gt;Node7 -->
<g id="edge39" class="edge">
<title>Node0&#45;&gt;Node7</title>
<path fill="none" stroke="#191970" d="M107.2588,-174.3774C113.2565,-146.1719 129.6641,-69.0121 137.594,-31.7203"/>
<polygon fill="#191970" stroke="#191970" points="141.0197,-32.437 139.6763,-21.9277 134.1728,-30.981 141.0197,-32.437"/>
</g>
<!-- Node2 -->
<g id="node3" class="node">
<title>Node2</title>
<polygon fill="#ffffff" stroke="#bfbfbf" points="1030.5,-.5 1030.5,-21.5 1081.5,-21.5 1081.5,-.5 1030.5,-.5"/>
<text text-anchor="middle" x="1056" y="-7.9" font-family="Helvetica,sans-Serif" font-size="12.00" fill="#000000">iostream</text>
</g>
<!-- Node1&#45;&gt;Node2 -->
<g id="edge2" class="edge">
<title>Node1&#45;&gt;Node2</title>
<path fill="none" stroke="#191970" d="M587.6838,-116.9725C644.3157,-108.4129 726.1417,-95.1124 797,-80 894.4337,-59.2197 920.5269,-50.8426 1020.5191,-22.0527"/>
<polygon fill="#191970" stroke="#191970" points="1021.7884,-25.3295 1030.4313,-19.2017 1019.8534,-18.6023 1021.7884,-25.3295"/>
</g>
<!-- Node1&#45;&gt;Node3 -->
<g id="edge3" class="edge">
<title>Node1&#45;&gt;Node3</title>
<path fill="none" stroke="#191970" d="M448.2549,-123.0999C378.4999,-117.8763 268.6931,-106.0397 177,-80 130.4725,-66.7868 79.8168,-42.3485 49.2382,-26.3861"/>
<polygon fill="#191970" stroke="#191970" points="50.5226,-23.1062 40.0462,-21.5263 47.2508,-29.2945 50.5226,-23.1062"/>
</g>
<!-- Node4 -->
<g id="node5" class="node">
<title>Node4</title>
<polygon fill="#ffffff" stroke="#bfbfbf" points="451.5,-58.5 451.5,-79.5 496.5,-79.5 496.5,-58.5 451.5,-58.5"/>
<text text-anchor="middle" x="474" y="-65.9" font-family="Helvetica,sans-Serif" font-size="12.00" fill="#000000">stdlib.h</text>
</g>
<!-- Node1&#45;&gt;Node4 -->
<g id="edge4" class="edge">
<title>Node1&#45;&gt;Node4</title>
<path fill="none" stroke="#191970" d="M509.9297,-116.3619C503.8514,-108.3496 495.3631,-97.1605 488.1631,-87.6696"/>
<polygon fill="#191970" stroke="#191970" points="490.8514,-85.4222 482.0191,-79.5707 485.2746,-89.653 490.8514,-85.4222"/>
</g>
<!-- Node5 -->
<g id="node6" class="node">
<title>Node5</title>
<polygon fill="#ffffff" stroke="#bfbfbf" points="1099.5,-.5 1099.5,-21.5 1128.5,-21.5 1128.5,-.5 1099.5,-.5"/>
<text text-anchor="middle" x="1114" y="-7.9" font-family="Helvetica,sans-Serif" font-size="12.00" fill="#000000">set</text>
</g>
<!-- Node1&#45;&gt;Node5 -->
<g id="edge5" class="edge">
<title>Node1&#45;&gt;Node5</title>
<path fill="none" stroke="#191970" d="M587.7104,-119.5871C656.6919,-111.73 765.1257,-97.9744 858,-80 962.3482,-59.8049 989.7069,-57.1809 1090,-22 1090.0973,-21.9659 1090.1948,-21.9315 1090.2924,-21.8968"/>
<polygon fill="#191970" stroke="#191970" points="1091.499,-25.1844 1099.4536,-18.1862 1088.8711,-18.6964 1091.499,-25.1844"/>
</g>
<!-- Node1&#45;&gt;Node6 -->
<g id="edge6" class="edge">
<title>Node1&#45;&gt;Node6</title>
<path fill="none" stroke="#191970" d="M448.4608,-120.1337C391.1419,-113.3364 308.1613,-100.8627 238,-80 191.1984,-66.0834 139.8882,-41.886 108.8183,-26.1605"/>
<polygon fill="#191970" stroke="#191970" points="110.3496,-23.0125 99.8531,-21.5729 107.1609,-29.244 110.3496,-23.0125"/>
</g>
<!-- Node1&#45;&gt;Node7 -->
<g id="edge7" class="edge">
<title>Node1&#45;&gt;Node7</title>
<path fill="none" stroke="#191970" d="M451.6064,-116.4966C407.4602,-108.6194 348.5284,-96.3784 298,-80 252.4978,-65.2508 202.3131,-41.6457 171.4681,-26.2311"/>
<polygon fill="#191970" stroke="#191970" points="172.668,-22.9162 162.1635,-21.5357 169.5144,-29.1656 172.668,-22.9162"/>
</g>
<!-- Node8 -->
<g id="node9" class="node">
<title>Node8</title>
<polygon fill="#ffffff" stroke="#bfbfbf" points="185,-.5 185,-21.5 233,-21.5 233,-.5 185,-.5"/>
<text text-anchor="middle" x="209" y="-7.9" font-family="Helvetica,sans-Serif" font-size="12.00" fill="#000000">iomanip</text>
</g>
<!-- Node1&#45;&gt;Node8 -->
<g id="edge8" class="edge">
<title>Node1&#45;&gt;Node8</title>
<path fill="none" stroke="#191970" d="M470.6854,-116.4919C436.1398,-108.2032 388.4706,-95.4763 348,-80 307.9316,-64.6775 263.9334,-41.7224 236.3946,-26.5569"/>
<polygon fill="#191970" stroke="#191970" points="237.8147,-23.3419 227.3737,-21.5428 234.4139,-29.4603 237.8147,-23.3419"/>
</g>
<!-- Node9 -->
<g id="node10" class="node">
<title>Node9</title>
<polygon fill="#ffffff" stroke="#bfbfbf" points="251.5,-.5 251.5,-21.5 294.5,-21.5 294.5,-.5 251.5,-.5"/>
<text text-anchor="middle" x="273" y="-7.9" font-family="Helvetica,sans-Serif" font-size="12.00" fill="#000000">cstring</text>
</g>
<!-- Node1&#45;&gt;Node9 -->
<g id="edge9" class="edge">
<title>Node1&#45;&gt;Node9</title>
<path fill="none" stroke="#191970" d="M485.2737,-116.4876C459.4702,-107.7973 422.8222,-94.5574 392,-80 358.4481,-64.1534 321.7879,-42.1251 298.152,-27.2562"/>
<polygon fill="#191970" stroke="#191970" points="299.7845,-24.147 289.4656,-21.7446 296.0342,-30.0576 299.7845,-24.147"/>
</g>
<!-- Node10 -->
<g id="node11" class="node">
<title>Node10</title>
<polygon fill="#ffffff" stroke="#bfbfbf" points="312.5,-.5 312.5,-21.5 367.5,-21.5 367.5,-.5 312.5,-.5"/>
<text text-anchor="middle" x="340" y="-7.9" font-family="Helvetica,sans-Serif" font-size="12.00" fill="#000000">exception</text>
</g>
<!-- Node1&#45;&gt;Node10 -->
<g id="edge10" class="edge">
<title>Node1&#45;&gt;Node10</title>
<path fill="none" stroke="#191970" d="M493.5217,-116.3793C474.298,-107.6292 447.1663,-94.3618 425,-80 401.0926,-64.5101 376.0446,-43.5075 359.3857,-28.7562"/>
<polygon fill="#191970" stroke="#191970" points="361.2708,-25.7454 351.4893,-21.6743 356.5971,-30.9567 361.2708,-25.7454"/>
</g>
<!-- Node11 -->
<g id="node12" class="node">
<title>Node11</title>
<polygon fill="#ffffff" stroke="#bfbfbf" points="385.5,-.5 385.5,-21.5 440.5,-21.5 440.5,-.5 385.5,-.5"/>
<text text-anchor="middle" x="413" y="-7.9" font-family="Helvetica,sans-Serif" font-size="12.00" fill="#000000">stdexcept</text>
</g>
<!-- Node1&#45;&gt;Node11 -->
<g id="edge11" class="edge">
<title>Node1&#45;&gt;Node11</title>
<path fill="none" stroke="#191970" d="M492.9547,-116.446C476.6067,-108.4785 455.8121,-96.1539 442,-80 430.0405,-66.0128 422.4379,-46.3839 418.0319,-31.6363"/>
<polygon fill="#191970" stroke="#191970" points="421.3862,-30.6333 415.3719,-21.911 414.6342,-32.4801 421.3862,-30.6333"/>
</g>
<!-- Node12 -->
<g id="node13" class="node">
<title>Node12</title>
<polygon fill="#ffffff" stroke="#bfbfbf" points="639.5,-.5 639.5,-21.5 694.5,-21.5 694.5,-.5 639.5,-.5"/>
<text text-anchor="middle" x="667" y="-7.9" font-family="Helvetica,sans-Serif" font-size="12.00" fill="#000000">functional</text>
</g>
<!-- Node1&#45;&gt;Node12 -->
<g id="edge12" class="edge">
<title>Node1&#45;&gt;Node12</title>
<path fill="none" stroke="#191970" d="M551.0502,-116.3846C571.8046,-108.592 598.2788,-96.4875 618,-80 634.459,-66.2398 648.0834,-45.729 656.7523,-30.6449"/>
<polygon fill="#191970" stroke="#191970" points="659.9526,-32.0891 661.7133,-21.6416 653.8217,-28.7108 659.9526,-32.0891"/>
</g>
<!-- Node13 -->
<g id="node14" class="node">
<title>Node13</title>
<polygon fill="#ffffff" stroke="#bfbfbf" points="713,-.5 713,-21.5 755,-21.5 755,-.5 713,-.5"/>
<text text-anchor="middle" x="734" y="-7.9" font-family="Helvetica,sans-Serif" font-size="12.00" fill="#000000">deque</text>
</g>
<!-- Node1&#45;&gt;Node13 -->
<g id="edge13" class="edge">
<title>Node1&#45;&gt;Node13</title>
<path fill="none" stroke="#191970" d="M554.2312,-116.454C579.8608,-108.2673 614.5805,-95.681 643,-80 669.5545,-65.348 696.8659,-43.5699 714.5484,-28.4133"/>
<polygon fill="#191970" stroke="#191970" points="717.1686,-30.7726 722.4099,-21.565 712.5706,-25.4944 717.1686,-30.7726"/>
</g>
<!-- Node14 -->
<g id="node15" class="node">
<title>Node14</title>
<polygon fill="#ffffff" stroke="#bfbfbf" points="773.5,-.5 773.5,-21.5 814.5,-21.5 814.5,-.5 773.5,-.5"/>
<text text-anchor="middle" x="794" y="-7.9" font-family="Helvetica,sans-Serif" font-size="12.00" fill="#000000">cmath</text>
</g>
<!-- Node1&#45;&gt;Node14 -->
<g id="edge14" class="edge">
<title>Node1&#45;&gt;Node14</title>
<path fill="none" stroke="#191970" d="M562.0217,-116.4673C593.565,-108.2474 636.7088,-95.6154 673,-80 708.0608,-64.914 745.8841,-42.2015 769.7358,-27.0013"/>
<polygon fill="#191970" stroke="#191970" points="771.6473,-29.9333 778.1582,-21.5751 767.8562,-24.0488 771.6473,-29.9333"/>
</g>
<!-- Node15 -->
<g id="node16" class="node">
<title>Node15</title>
<polygon fill="#ffffff" stroke="#bfbfbf" points="832.5,-.5 832.5,-21.5 873.5,-21.5 873.5,-.5 832.5,-.5"/>
<text text-anchor="middle" x="853" y="-7.9" font-family="Helvetica,sans-Serif" font-size="12.00" fill="#000000">vector</text>
</g>
<!-- Node1&#45;&gt;Node15 -->
<g id="edge15" class="edge">
<title>Node1&#45;&gt;Node15</title>
<path fill="none" stroke="#191970" d="M572.9138,-116.485C611.3311,-108.3894 663.5238,-95.8995 708,-80 749.9819,-64.9922 796.0974,-41.8081 824.7988,-26.5199"/>
<polygon fill="#191970" stroke="#191970" points="826.6842,-29.4801 833.8336,-21.6611 823.3687,-23.315 826.6842,-29.4801"/>
</g>
<!-- Node16 -->
<g id="node17" class="node">
<title>Node16</title>
<g id="a_node17"><a xlink:href="../../db/d19/namespace_8hpp.html" target="_top" xlink:title="timemory/namespace.hpp">
<polygon fill="#ffffff" stroke="#000000" points="892,-.5 892,-21.5 1012,-21.5 1012,-.5 892,-.5"/>
<text text-anchor="middle" x="952" y="-7.9" font-family="Helvetica,sans-Serif" font-size="12.00" fill="#000000">timemory/namespace.hpp</text>
</a>
</g>
</g>
<!-- Node1&#45;&gt;Node16 -->
<g id="edge16" class="edge">
<title>Node1&#45;&gt;Node16</title>
<path fill="none" stroke="#191970" d="M580.7601,-116.4564C627.5062,-108.0664 692.704,-95.2286 749,-80 807.9208,-64.0613 874.6492,-40.231 915.0079,-25.1585"/>
<polygon fill="#191970" stroke="#191970" points="916.3031,-28.4108 924.434,-21.6182 913.8418,-21.8578 916.3031,-28.4108"/>
</g>
<!-- Node17 -->
<g id="node18" class="node">
<title>Node17</title>
<g id="a_node18"><a xlink:href="../../d1/d4e/utility_8hpp.html" target="_top" xlink:title="timemory/utility.hpp">
<polygon fill="#ffffff" stroke="#000000" points="515,-58.5 515,-79.5 609,-79.5 609,-58.5 515,-58.5"/>
<text text-anchor="middle" x="562" y="-65.9" font-family="Helvetica,sans-Serif" font-size="12.00" fill="#000000">timemory/utility.hpp</text>
</a>
</g>
</g>
<!-- Node1&#45;&gt;Node17 -->
<g id="edge17" class="edge">
<title>Node1&#45;&gt;Node17</title>
<path fill="none" stroke="#191970" d="M526.0703,-116.3619C532.1486,-108.3496 540.6369,-97.1605 547.8369,-87.6696"/>
<polygon fill="#191970" stroke="#191970" points="550.7254,-89.653 553.9809,-79.5707 545.1486,-85.4222 550.7254,-89.653"/>
</g>
<!-- Node22 -->
<g id="node23" class="node">
<title>Node22</title>
<g id="a_node23"><a xlink:href="../../d0/d5d/mpi_8hpp.html" target="_top" xlink:title="timemory/mpi.hpp">
<polygon fill="#ffffff" stroke="#000000" points="1124,-58.5 1124,-79.5 1212,-79.5 1212,-58.5 1124,-58.5"/>
<text text-anchor="middle" x="1168" y="-65.9" font-family="Helvetica,sans-Serif" font-size="12.00" fill="#000000">timemory/mpi.hpp</text>
</a>
</g>
</g>
<!-- Node1&#45;&gt;Node22 -->
<g id="edge36" class="edge">
<title>Node1&#45;&gt;Node22</title>
<path fill="none" stroke="#191970" d="M587.682,-122.233C694.4446,-114.6968 904.8616,-98.9259 1083,-80 1092.9878,-78.9389 1103.618,-77.6726 1113.8575,-76.3831"/>
<polygon fill="#191970" stroke="#191970" points="1114.4545,-79.8353 1123.9285,-75.0926 1113.5648,-72.892 1114.4545,-79.8353"/>
</g>
<!-- Node17&#45;&gt;Node2 -->
<g id="edge24" class="edge">
<title>Node17&#45;&gt;Node2</title>
<path fill="none" stroke="#191970" d="M609.061,-67.3223C690.9302,-63.7242 864.8429,-53.0753 1019.9706,-21.8492"/>
<polygon fill="#191970" stroke="#191970" points="1021.0658,-25.1977 1030.1602,-19.7625 1019.6613,-18.34 1021.0658,-25.1977"/>
</g>
<!-- Node17&#45;&gt;Node3 -->
<g id="edge19" class="edge">
<title>Node17&#45;&gt;Node3</title>
<path fill="none" stroke="#191970" d="M514.7896,-59.4688C511.4833,-58.9308 508.1958,-58.4337 505,-58 307.6593,-31.2192 250.5708,-64.1462 51.9653,-21.69"/>
<polygon fill="#191970" stroke="#191970" points="52.6078,-18.248 42.0924,-19.5428 51.1202,-25.0881 52.6078,-18.248"/>
</g>
<!-- Node17&#45;&gt;Node5 -->
<g id="edge30" class="edge">
<title>Node17&#45;&gt;Node5</title>
<path fill="none" stroke="#191970" d="M609.3264,-66.85C717.7973,-61.6006 982.5784,-46.8782 1089.4721,-21.1991"/>
<polygon fill="#191970" stroke="#191970" points="1090.4937,-24.5505 1099.3133,-18.6798 1088.7576,-17.7692 1090.4937,-24.5505"/>
</g>
<!-- Node17&#45;&gt;Node6 -->
<g id="edge22" class="edge">
<title>Node17&#45;&gt;Node6</title>
<path fill="none" stroke="#191970" d="M514.7838,-59.5103C511.4789,-58.9624 508.1933,-58.4518 505,-58 332.8332,-33.6438 282.2744,-61.721 109.5884,-21.8594"/>
<polygon fill="#191970" stroke="#191970" points="110.1974,-18.4072 99.6617,-19.525 108.5949,-25.2214 110.1974,-18.4072"/>
</g>
<!-- Node17&#45;&gt;Node7 -->
<g id="edge23" class="edge">
<title>Node17&#45;&gt;Node7</title>
<path fill="none" stroke="#191970" d="M514.7739,-59.5783C511.4713,-59.0143 508.189,-58.4814 505,-58 362.8195,-36.5386 321.672,-52.0663 176.8713,-21.803"/>
<polygon fill="#191970" stroke="#191970" points="177.2329,-18.3016 166.7234,-19.6433 175.7758,-25.1483 177.2329,-18.3016"/>
</g>
<!-- Node17&#45;&gt;Node8 -->
<g id="edge25" class="edge">
<title>Node17&#45;&gt;Node8</title>
<path fill="none" stroke="#191970" d="M514.7583,-59.6772C511.4594,-59.0896 508.1822,-58.5244 505,-58 391.7745,-39.3397 358.6981,-48.2468 242.9629,-21.8827"/>
<polygon fill="#191970" stroke="#191970" points="243.5346,-18.4224 233.0025,-19.5741 241.954,-25.2417 243.5346,-18.4224"/>
</g>
<!-- Node17&#45;&gt;Node9 -->
<g id="edge20" class="edge">
<title>Node17&#45;&gt;Node9</title>
<path fill="none" stroke="#191970" d="M514.7325,-59.8244C511.4398,-59.2017 508.1709,-58.5885 505,-58 418.4908,-41.9447 392.8248,-45.5025 304.7001,-22.1605"/>
<polygon fill="#191970" stroke="#191970" points="305.3783,-18.7186 294.8122,-19.4996 303.5591,-25.4781 305.3783,-18.7186"/>
</g>
<!-- Node17&#45;&gt;Node10 -->
<g id="edge26" class="edge">
<title>Node17&#45;&gt;Node10</title>
<path fill="none" stroke="#191970" d="M517.8694,-58.4945C482.2946,-49.8808 430.7602,-37.0781 377.7752,-22.4207"/>
<polygon fill="#191970" stroke="#191970" points="378.4408,-18.973 367.8684,-19.6629 376.5634,-25.7165 378.4408,-18.973"/>
</g>
<!-- Node17&#45;&gt;Node11 -->
<g id="edge27" class="edge">
<title>Node17&#45;&gt;Node11</title>
<path fill="none" stroke="#191970" d="M535.0172,-58.4966C511.1468,-49.2048 476.1064,-35.5649 449.6929,-25.2832"/>
<polygon fill="#191970" stroke="#191970" points="450.6219,-21.889 440.0334,-21.5231 448.0826,-28.4122 450.6219,-21.889"/>
</g>
<!-- Node17&#45;&gt;Node12 -->
<g id="edge28" class="edge">
<title>Node17&#45;&gt;Node12</title>
<path fill="none" stroke="#191970" d="M581.2586,-58.3619C597.4658,-49.4094 620.8529,-36.4908 639.1091,-26.4064"/>
<polygon fill="#191970" stroke="#191970" points="640.8024,-29.4696 647.8635,-21.5707 637.4178,-23.3422 640.8024,-29.4696"/>
</g>
<!-- Node17&#45;&gt;Node13 -->
<g id="edge29" class="edge">
<title>Node17&#45;&gt;Node13</title>
<path fill="none" stroke="#191970" d="M594.2597,-58.4423C622.8772,-49.0301 665.7906,-34.8019 703,-22 703.0979,-21.9663 703.1959,-21.9326 703.2941,-21.8988"/>
<polygon fill="#191970" stroke="#191970" points="704.3836,-25.2256 712.6735,-18.6281 702.0787,-18.616 704.3836,-25.2256"/>
</g>
<!-- Node17&#45;&gt;Node14 -->
<g id="edge21" class="edge">
<title>Node17&#45;&gt;Node14</title>
<path fill="none" stroke="#191970" d="M609.3682,-59.6972C648.407,-51.6446 705.3349,-39.0197 763.6974,-21.8249"/>
<polygon fill="#191970" stroke="#191970" points="764.8748,-25.126 773.455,-18.9107 762.8716,-18.4188 764.8748,-25.126"/>
</g>
<!-- Node17&#45;&gt;Node15 -->
<g id="edge31" class="edge">
<title>Node17&#45;&gt;Node15</title>
<path fill="none" stroke="#191970" d="M609.2196,-63.0086C659.8617,-56.0273 742.6719,-43.011 822.7457,-21.6919"/>
<polygon fill="#191970" stroke="#191970" points="823.7581,-25.0439 832.4949,-19.0507 821.9276,-18.2875 823.7581,-25.0439"/>
</g>
<!-- Node17&#45;&gt;Node16 -->
<g id="edge35" class="edge">
<title>Node17&#45;&gt;Node16</title>
<path fill="none" stroke="#191970" d="M609.1933,-62.2196C669.6857,-53.4949 778.0849,-37.7482 881.6694,-22.0386"/>
<polygon fill="#191970" stroke="#191970" points="882.3159,-25.4807 891.6769,-20.5187 881.2647,-18.56 882.3159,-25.4807"/>
</g>
<!-- Node18 -->
<g id="node19" class="node">
<title>Node18</title>
<polygon fill="#ffffff" stroke="#bfbfbf" points="1146.5,-.5 1146.5,-21.5 1189.5,-21.5 1189.5,-.5 1146.5,-.5"/>
<text text-anchor="middle" x="1168" y="-7.9" font-family="Helvetica,sans-Serif" font-size="12.00" fill="#000000">cstdint</text>
</g>
<!-- Node17&#45;&gt;Node18 -->
<g id="edge18" class="edge">
<title>Node17&#45;&gt;Node18</title>
<path fill="none" stroke="#191970" d="M609.4176,-66.7105C724.803,-60.8922 1018.7155,-44.526 1136.056,-21.6218"/>
<polygon fill="#191970" stroke="#191970" points="1137.1022,-24.9798 1146.1881,-19.5303 1135.687,-18.1243 1137.1022,-24.9798"/>
</g>
<!-- Node19 -->
<g id="node20" class="node">
<title>Node19</title>
<polygon fill="#ffffff" stroke="#bfbfbf" points="458.5,-.5 458.5,-21.5 501.5,-21.5 501.5,-.5 458.5,-.5"/>
<text text-anchor="middle" x="480" y="-7.9" font-family="Helvetica,sans-Serif" font-size="12.00" fill="#000000">atomic</text>
</g>
<!-- Node17&#45;&gt;Node19 -->
<g id="edge32" class="edge">
<title>Node17&#45;&gt;Node19</title>
<path fill="none" stroke="#191970" d="M546.9599,-58.3619C534.7075,-49.6955 517.2005,-37.3126 503.1606,-27.3819"/>
<polygon fill="#191970" stroke="#191970" points="505.13,-24.4879 494.9447,-21.5707 501.0877,-30.2028 505.13,-24.4879"/>
</g>
<!-- Node20 -->
<g id="node21" class="node">
<title>Node20</title>
<polygon fill="#ffffff" stroke="#bfbfbf" points="519.5,-.5 519.5,-21.5 560.5,-21.5 560.5,-.5 519.5,-.5"/>
<text text-anchor="middle" x="540" y="-7.9" font-family="Helvetica,sans-Serif" font-size="12.00" fill="#000000">mutex</text>
</g>
<!-- Node17&#45;&gt;Node20 -->
<g id="edge33" class="edge">
<title>Node17&#45;&gt;Node20</title>
<path fill="none" stroke="#191970" d="M557.9649,-58.3619C555.0808,-50.7584 551.1115,-40.294 547.6374,-31.1349"/>
<polygon fill="#191970" stroke="#191970" points="550.8287,-29.6793 544.0096,-21.5707 544.2837,-32.1619 550.8287,-29.6793"/>
</g>
<!-- Node21 -->
<g id="node22" class="node">
<title>Node21</title>
<polygon fill="#ffffff" stroke="#bfbfbf" points="579,-.5 579,-21.5 621,-21.5 621,-.5 579,-.5"/>
<text text-anchor="middle" x="600" y="-7.9" font-family="Helvetica,sans-Serif" font-size="12.00" fill="#000000">thread</text>
</g>
<!-- Node17&#45;&gt;Node21 -->
<g id="edge34" class="edge">
<title>Node17&#45;&gt;Node21</title>
<path fill="none" stroke="#191970" d="M568.9698,-58.3619C574.1657,-50.4313 581.4006,-39.3885 587.5775,-29.9606"/>
<polygon fill="#191970" stroke="#191970" points="590.5217,-31.8534 593.0744,-21.5707 584.6665,-28.0172 590.5217,-31.8534"/>
</g>
<!-- Node22&#45;&gt;Node18 -->
<g id="edge37" class="edge">
<title>Node22&#45;&gt;Node18</title>
<path fill="none" stroke="#191970" d="M1168,-58.3619C1168,-50.9219 1168,-40.7427 1168,-31.7276"/>
<polygon fill="#191970" stroke="#191970" points="1171.5001,-31.5706 1168,-21.5707 1164.5001,-31.5707 1171.5001,-31.5706"/>
</g>
<!-- Node23 -->
<g id="node24" class="node">
<title>Node23</title>
<polygon fill="#ffffff" stroke="#bfbfbf" points="1208,-.5 1208,-21.5 1262,-21.5 1262,-.5 1208,-.5"/>
<text text-anchor="middle" x="1235" y="-7.9" font-family="Helvetica,sans-Serif" font-size="12.00" fill="#000000">algorithm</text>
</g>
<!-- Node22&#45;&gt;Node23 -->
<g id="edge38" class="edge">
<title>Node22&#45;&gt;Node23</title>
<path fill="none" stroke="#191970" d="M1180.2888,-58.3619C1190.0167,-49.9408 1203.7982,-38.0105 1215.0955,-28.2308"/>
<polygon fill="#191970" stroke="#191970" points="1217.5192,-30.7619 1222.7891,-21.5707 1212.9377,-25.4695 1217.5192,-30.7619"/>
</g>
</g>
</svg>
