<?xml version="1.0" encoding="UTF-8" standalone="no"?>
<!DOCTYPE svg PUBLIC "-//W3C//DTD SVG 1.1//EN"
 "http://www.w3.org/Graphics/SVG/1.1/DTD/svg11.dtd">
<!-- Generated by graphviz version 2.40.1 (20161225.0304)
 -->
<!-- Title: signal_detection.cpp Pages: 1 -->
<svg width="1089pt" height="204pt"
 viewBox="0.00 0.00 1088.50 204.00" xmlns="http://www.w3.org/2000/svg" xmlns:xlink="http://www.w3.org/1999/xlink">
<g id="graph0" class="graph" transform="scale(1 1) rotate(0) translate(4 200)">
<title>signal_detection.cpp</title>
<polygon fill="#ffffff" stroke="transparent" points="-4,4 -4,-200 1084.5,-200 1084.5,4 -4,4"/>
<!-- Node0 -->
<g id="node1" class="node">
<title>Node0</title>
<polygon fill="#bfbfbf" stroke="#000000" points="32,-174.5 32,-195.5 131,-195.5 131,-174.5 32,-174.5"/>
<text text-anchor="middle" x="81.5" y="-181.9" font-family="Helvetica,sans-Serif" font-size="12.00" fill="#000000">signal_detection.cpp</text>
</g>
<!-- Node1 -->
<g id="node2" class="node">
<title>Node1</title>
<g id="a_node2"><a xlink:href="../../da/d8e/signal__detection_8hpp.html" target="_top" xlink:title="timemory/signal_detection.hpp">
<polygon fill="#ffffff" stroke="#000000" points="379,-116.5 379,-137.5 518,-137.5 518,-116.5 379,-116.5"/>
<text text-anchor="middle" x="448.5" y="-123.9" font-family="Helvetica,sans-Serif" font-size="12.00" fill="#000000">timemory/signal_detection.hpp</text>
</a>
</g>
</g>
<!-- Node0&#45;&gt;Node1 -->
<g id="edge1" class="edge">
<title>Node0&#45;&gt;Node1</title>
<path fill="none" stroke="#191970" d="M131.3772,-177.1175C193.3343,-167.3259 299.68,-150.5192 371.9792,-139.0932"/>
<polygon fill="#191970" stroke="#191970" points="372.6158,-142.5361 381.9468,-137.5179 371.523,-135.6219 372.6158,-142.5361"/>
</g>
<!-- Node3 -->
<g id="node4" class="node">
<title>Node3</title>
<polygon fill="#ffffff" stroke="#bfbfbf" points="124.5,-.5 124.5,-21.5 166.5,-21.5 166.5,-.5 124.5,-.5"/>
<text text-anchor="middle" x="145.5" y="-7.9" font-family="Helvetica,sans-Serif" font-size="12.00" fill="#000000">cstdlib</text>
</g>
<!-- Node0&#45;&gt;Node3 -->
<g id="edge37" class="edge">
<title>Node0&#45;&gt;Node3</title>
<path fill="none" stroke="#191970" d="M85.4071,-174.3774C95.7816,-146.1719 124.1622,-69.0121 137.8787,-31.7203"/>
<polygon fill="#191970" stroke="#191970" points="141.3133,-32.5212 141.4806,-21.9277 134.7436,-30.1048 141.3133,-32.5212"/>
</g>
<!-- Node6 -->
<g id="node7" class="node">
<title>Node6</title>
<polygon fill="#ffffff" stroke="#bfbfbf" points="0,-.5 0,-21.5 39,-21.5 39,-.5 0,-.5"/>
<text text-anchor="middle" x="19.5" y="-7.9" font-family="Helvetica,sans-Serif" font-size="12.00" fill="#000000">string</text>
</g>
<!-- Node0&#45;&gt;Node6 -->
<g id="edge36" class="edge">
<title>Node0&#45;&gt;Node6</title>
<path fill="none" stroke="#191970" d="M77.715,-174.3774C67.6647,-146.1719 40.171,-69.0121 26.8831,-31.7203"/>
<polygon fill="#191970" stroke="#191970" points="30.0473,-30.1728 23.3938,-21.9277 23.4534,-32.5224 30.0473,-30.1728"/>
</g>
<!-- Node7 -->
<g id="node8" class="node">
<title>Node7</title>
<polygon fill="#ffffff" stroke="#bfbfbf" points="57,-.5 57,-21.5 106,-21.5 106,-.5 57,-.5"/>
<text text-anchor="middle" x="81.5" y="-7.9" font-family="Helvetica,sans-Serif" font-size="12.00" fill="#000000">sstream</text>
</g>
<!-- Node0&#45;&gt;Node7 -->
<g id="edge35" class="edge">
<title>Node0&#45;&gt;Node7</title>
<path fill="none" stroke="#191970" d="M81.5,-174.3774C81.5,-146.293 81.5,-69.6735 81.5,-32.2027"/>
<polygon fill="#191970" stroke="#191970" points="85.0001,-31.9277 81.5,-21.9277 78.0001,-31.9278 85.0001,-31.9277"/>
</g>
<!-- Node2 -->
<g id="node3" class="node">
<title>Node2</title>
<polygon fill="#ffffff" stroke="#bfbfbf" points="849,-.5 849,-21.5 900,-21.5 900,-.5 849,-.5"/>
<text text-anchor="middle" x="874.5" y="-7.9" font-family="Helvetica,sans-Serif" font-size="12.00" fill="#000000">iostream</text>
</g>
<!-- Node1&#45;&gt;Node2 -->
<g id="edge2" class="edge">
<title>Node1&#45;&gt;Node2</title>
<path fill="none" stroke="#191970" d="M506.3668,-116.4878C550.9849,-107.9376 614.0609,-94.8814 668.5,-80 729.3353,-63.3702 798.5858,-39.0267 839.3037,-24.1412"/>
<polygon fill="#191970" stroke="#191970" points="840.5937,-27.3961 848.7729,-20.6617 838.1793,-20.8256 840.5937,-27.3961"/>
</g>
<!-- Node1&#45;&gt;Node3 -->
<g id="edge3" class="edge">
<title>Node1&#45;&gt;Node3</title>
<path fill="none" stroke="#191970" d="M385.3536,-116.4147C347.626,-108.867 299.267,-97.0128 258.5,-80 225.1265,-66.0727 190.0956,-43.2042 168.0486,-27.644"/>
<polygon fill="#191970" stroke="#191970" points="169.8807,-24.651 159.7135,-21.6712 165.8033,-30.341 169.8807,-24.651"/>
</g>
<!-- Node4 -->
<g id="node5" class="node">
<title>Node4</title>
<polygon fill="#ffffff" stroke="#bfbfbf" points="338,-58.5 338,-79.5 383,-79.5 383,-58.5 338,-58.5"/>
<text text-anchor="middle" x="360.5" y="-65.9" font-family="Helvetica,sans-Serif" font-size="12.00" fill="#000000">stdlib.h</text>
</g>
<!-- Node1&#45;&gt;Node4 -->
<g id="edge4" class="edge">
<title>Node1&#45;&gt;Node4</title>
<path fill="none" stroke="#191970" d="M432.3594,-116.3619C419.0864,-107.6138 400.0675,-95.0786 384.9298,-85.1015"/>
<polygon fill="#191970" stroke="#191970" points="386.8139,-82.1515 376.5382,-79.5707 382.9617,-87.9962 386.8139,-82.1515"/>
</g>
<!-- Node5 -->
<g id="node6" class="node">
<title>Node5</title>
<polygon fill="#ffffff" stroke="#bfbfbf" points="918,-.5 918,-21.5 947,-21.5 947,-.5 918,-.5"/>
<text text-anchor="middle" x="932.5" y="-7.9" font-family="Helvetica,sans-Serif" font-size="12.00" fill="#000000">set</text>
</g>
<!-- Node1&#45;&gt;Node5 -->
<g id="edge5" class="edge">
<title>Node1&#45;&gt;Node5</title>
<path fill="none" stroke="#191970" d="M518.083,-117.2253C572.6767,-108.9841 650.3984,-95.9874 717.5,-80 803.8008,-59.4383 825.5423,-53.4425 908.5,-22 908.5964,-21.9634 908.693,-21.9267 908.7898,-21.8897"/>
<polygon fill="#191970" stroke="#191970" points="910.0407,-25.1605 917.91,-18.0664 907.3344,-18.7048 910.0407,-25.1605"/>
</g>
<!-- Node1&#45;&gt;Node6 -->
<g id="edge6" class="edge">
<title>Node1&#45;&gt;Node6</title>
<path fill="none" stroke="#191970" d="M378.7966,-121.3948C319.6264,-115.2805 233.0268,-103.1072 160.5,-80 118.5065,-66.6208 73.3009,-42.6099 45.6996,-26.7389"/>
<polygon fill="#191970" stroke="#191970" points="47.4464,-23.706 37.0441,-21.6957 43.9224,-29.7542 47.4464,-23.706"/>
</g>
<!-- Node1&#45;&gt;Node7 -->
<g id="edge7" class="edge">
<title>Node1&#45;&gt;Node7</title>
<path fill="none" stroke="#191970" d="M378.9348,-118.5267C331.1722,-111.4162 266.8385,-99.2635 212.5,-80 173.6601,-66.2309 132.0929,-42.6483 106.4454,-26.9426"/>
<polygon fill="#191970" stroke="#191970" points="108.0932,-23.846 97.7511,-21.5454 104.4013,-29.7932 108.0932,-23.846"/>
</g>
<!-- Node8 -->
<g id="node9" class="node">
<title>Node8</title>
<polygon fill="#ffffff" stroke="#bfbfbf" points="184.5,-.5 184.5,-21.5 232.5,-21.5 232.5,-.5 184.5,-.5"/>
<text text-anchor="middle" x="208.5" y="-7.9" font-family="Helvetica,sans-Serif" font-size="12.00" fill="#000000">iomanip</text>
</g>
<!-- Node1&#45;&gt;Node8 -->
<g id="edge8" class="edge">
<title>Node1&#45;&gt;Node8</title>
<path fill="none" stroke="#191970" d="M397.7315,-116.4479C367.0248,-108.8576 327.7159,-96.9476 295.5,-80 269.2552,-66.1936 243.1378,-44.0656 226.471,-28.6019"/>
<polygon fill="#191970" stroke="#191970" points="228.7567,-25.9461 219.0891,-21.6116 223.9436,-31.0289 228.7567,-25.9461"/>
</g>
<!-- Node9 -->
<g id="node10" class="node">
<title>Node9</title>
<polygon fill="#ffffff" stroke="#bfbfbf" points="251,-.5 251,-21.5 294,-21.5 294,-.5 251,-.5"/>
<text text-anchor="middle" x="272.5" y="-7.9" font-family="Helvetica,sans-Serif" font-size="12.00" fill="#000000">cstring</text>
</g>
<!-- Node1&#45;&gt;Node9 -->
<g id="edge9" class="edge">
<title>Node1&#45;&gt;Node9</title>
<path fill="none" stroke="#191970" d="M398.0208,-116.4366C372.5776,-109.2716 342.359,-97.7817 319.5,-80 302.7013,-66.9326 289.7108,-46.1551 281.6864,-30.8113"/>
<polygon fill="#191970" stroke="#191970" points="284.7202,-29.0509 277.1403,-21.6485 278.4496,-32.1621 284.7202,-29.0509"/>
</g>
<!-- Node10 -->
<g id="node11" class="node">
<title>Node10</title>
<polygon fill="#ffffff" stroke="#bfbfbf" points="312,-.5 312,-21.5 367,-21.5 367,-.5 312,-.5"/>
<text text-anchor="middle" x="339.5" y="-7.9" font-family="Helvetica,sans-Serif" font-size="12.00" fill="#000000">exception</text>
</g>
<!-- Node1&#45;&gt;Node10 -->
<g id="edge10" class="edge">
<title>Node1&#45;&gt;Node10</title>
<path fill="none" stroke="#191970" d="M408.0568,-116.4477C377.0046,-107.4319 337.8947,-93.7692 328.5,-80 318.7234,-65.671 323.3014,-45.8204 329.2477,-31.0878"/>
<polygon fill="#191970" stroke="#191970" points="332.4994,-32.3912 333.4235,-21.8367 326.1192,-29.5113 332.4994,-32.3912"/>
</g>
<!-- Node11 -->
<g id="node12" class="node">
<title>Node11</title>
<polygon fill="#ffffff" stroke="#bfbfbf" points="385,-.5 385,-21.5 440,-21.5 440,-.5 385,-.5"/>
<text text-anchor="middle" x="412.5" y="-7.9" font-family="Helvetica,sans-Serif" font-size="12.00" fill="#000000">stdexcept</text>
</g>
<!-- Node1&#45;&gt;Node11 -->
<g id="edge11" class="edge">
<title>Node1&#45;&gt;Node11</title>
<path fill="none" stroke="#191970" d="M444.0105,-116.2933C440.1424,-106.8444 434.5574,-92.6463 430.5,-80 425.3669,-64.0012 420.6174,-45.5728 417.2874,-31.7875"/>
<polygon fill="#191970" stroke="#191970" points="420.6479,-30.789 414.941,-21.8626 413.8357,-32.3996 420.6479,-30.789"/>
</g>
<!-- Node12 -->
<g id="node13" class="node">
<title>Node12</title>
<polygon fill="#ffffff" stroke="#bfbfbf" points="458,-.5 458,-21.5 513,-21.5 513,-.5 458,-.5"/>
<text text-anchor="middle" x="485.5" y="-7.9" font-family="Helvetica,sans-Serif" font-size="12.00" fill="#000000">functional</text>
</g>
<!-- Node1&#45;&gt;Node12 -->
<g id="edge12" class="edge">
<title>Node1&#45;&gt;Node12</title>
<path fill="none" stroke="#191970" d="M492.1066,-116.3585C511.0294,-109.3421 531.3729,-98.004 542.5,-80 554.5968,-60.4269 533.6254,-40.4098 513.7953,-27.0118"/>
<polygon fill="#191970" stroke="#191970" points="515.4921,-23.9429 505.1777,-21.5216 511.7309,-29.8466 515.4921,-23.9429"/>
</g>
<!-- Node13 -->
<g id="node14" class="node">
<title>Node13</title>
<polygon fill="#ffffff" stroke="#bfbfbf" points="531.5,-.5 531.5,-21.5 573.5,-21.5 573.5,-.5 531.5,-.5"/>
<text text-anchor="middle" x="552.5" y="-7.9" font-family="Helvetica,sans-Serif" font-size="12.00" fill="#000000">deque</text>
</g>
<!-- Node1&#45;&gt;Node13 -->
<g id="edge13" class="edge">
<title>Node1&#45;&gt;Node13</title>
<path fill="none" stroke="#191970" d="M505.0483,-116.4227C525.4279,-109.5866 546.3717,-98.3711 558.5,-80 567.8824,-65.7882 565.0474,-46.1832 560.6413,-31.5018"/>
<polygon fill="#191970" stroke="#191970" points="563.875,-30.143 557.3075,-21.8292 557.2571,-32.4239 563.875,-30.143"/>
</g>
<!-- Node14 -->
<g id="node15" class="node">
<title>Node14</title>
<polygon fill="#ffffff" stroke="#bfbfbf" points="592,-.5 592,-21.5 633,-21.5 633,-.5 592,-.5"/>
<text text-anchor="middle" x="612.5" y="-7.9" font-family="Helvetica,sans-Serif" font-size="12.00" fill="#000000">cmath</text>
</g>
<!-- Node1&#45;&gt;Node14 -->
<g id="edge14" class="edge">
<title>Node1&#45;&gt;Node14</title>
<path fill="none" stroke="#191970" d="M502.9653,-116.4678C527.6562,-109.4753 555.8714,-98.1258 576.5,-80 591.2619,-67.0291 600.8701,-46.526 606.4158,-31.2355"/>
<polygon fill="#191970" stroke="#191970" points="609.7727,-32.2329 609.6196,-21.6392 603.133,-30.0161 609.7727,-32.2329"/>
</g>
<!-- Node15 -->
<g id="node16" class="node">
<title>Node15</title>
<polygon fill="#ffffff" stroke="#bfbfbf" points="651,-.5 651,-21.5 692,-21.5 692,-.5 651,-.5"/>
<text text-anchor="middle" x="671.5" y="-7.9" font-family="Helvetica,sans-Serif" font-size="12.00" fill="#000000">vector</text>
</g>
<!-- Node1&#45;&gt;Node15 -->
<g id="edge15" class="edge">
<title>Node1&#45;&gt;Node15</title>
<path fill="none" stroke="#191970" d="M503.0748,-116.4594C532.9521,-109.1439 569.8215,-97.5065 599.5,-80 622.0222,-66.7148 643.03,-45.0891 656.4713,-29.5882"/>
<polygon fill="#191970" stroke="#191970" points="659.3527,-31.6003 663.1217,-21.6985 654.0005,-27.0888 659.3527,-31.6003"/>
</g>
<!-- Node16 -->
<g id="node17" class="node">
<title>Node16</title>
<g id="a_node17"><a xlink:href="../../db/d19/namespace_8hpp.html" target="_top" xlink:title="timemory/namespace.hpp">
<polygon fill="#ffffff" stroke="#000000" points="710.5,-.5 710.5,-21.5 830.5,-21.5 830.5,-.5 710.5,-.5"/>
<text text-anchor="middle" x="770.5" y="-7.9" font-family="Helvetica,sans-Serif" font-size="12.00" fill="#000000">timemory/namespace.hpp</text>
</a>
</g>
</g>
<!-- Node1&#45;&gt;Node16 -->
<g id="edge16" class="edge">
<title>Node1&#45;&gt;Node16</title>
<path fill="none" stroke="#191970" d="M499.7544,-116.4464C536.2282,-108.2562 586.0848,-95.6687 628.5,-80 669.6173,-64.8108 714.7777,-41.672 742.884,-26.4433"/>
<polygon fill="#191970" stroke="#191970" points="744.637,-29.4738 751.7314,-21.6049 741.2783,-23.3322 744.637,-29.4738"/>
</g>
<!-- Node17 -->
<g id="node18" class="node">
<title>Node17</title>
<g id="a_node18"><a xlink:href="../../d1/d4e/utility_8hpp.html" target="_top" xlink:title="timemory/utility.hpp">
<polygon fill="#ffffff" stroke="#000000" points="439.5,-58.5 439.5,-79.5 533.5,-79.5 533.5,-58.5 439.5,-58.5"/>
<text text-anchor="middle" x="486.5" y="-65.9" font-family="Helvetica,sans-Serif" font-size="12.00" fill="#000000">timemory/utility.hpp</text>
</a>
</g>
</g>
<!-- Node1&#45;&gt;Node17 -->
<g id="edge17" class="edge">
<title>Node1&#45;&gt;Node17</title>
<path fill="none" stroke="#191970" d="M455.4698,-116.3619C460.6657,-108.4313 467.9006,-97.3885 474.0775,-87.9606"/>
<polygon fill="#191970" stroke="#191970" points="477.0217,-89.8534 479.5744,-79.5707 471.1665,-86.0172 477.0217,-89.8534"/>
</g>
<!-- Node18 -->
<g id="node19" class="node">
<title>Node18</title>
<g id="a_node19"><a xlink:href="../../d0/d5d/mpi_8hpp.html" target="_top" xlink:title="timemory/mpi.hpp">
<polygon fill="#ffffff" stroke="#000000" points="942.5,-58.5 942.5,-79.5 1030.5,-79.5 1030.5,-58.5 942.5,-58.5"/>
<text text-anchor="middle" x="986.5" y="-65.9" font-family="Helvetica,sans-Serif" font-size="12.00" fill="#000000">timemory/mpi.hpp</text>
</a>
</g>
</g>
<!-- Node1&#45;&gt;Node18 -->
<g id="edge32" class="edge">
<title>Node1&#45;&gt;Node18</title>
<path fill="none" stroke="#191970" d="M518.1021,-120.4948C607.5955,-111.9771 767.774,-96.213 904.5,-80 913.5084,-78.9318 923.0628,-77.7211 932.3454,-76.5034"/>
<polygon fill="#191970" stroke="#191970" points="932.8203,-79.9711 942.2727,-75.1855 931.8991,-73.032 932.8203,-79.9711"/>
</g>
<!-- Node17&#45;&gt;Node2 -->
<g id="edge18" class="edge">
<title>Node17&#45;&gt;Node2</title>
<path fill="none" stroke="#191970" d="M533.7734,-65.3107C599.9943,-59.5727 724.1742,-46.7366 838.6573,-21.8771"/>
<polygon fill="#191970" stroke="#191970" points="839.6309,-25.2466 848.641,-19.6727 838.1216,-18.4112 839.6309,-25.2466"/>
</g>
<!-- Node17&#45;&gt;Node3 -->
<g id="edge19" class="edge">
<title>Node17&#45;&gt;Node3</title>
<path fill="none" stroke="#191970" d="M439.2946,-63.0514C368.9708,-54 239.0783,-36.5056 176.4504,-21.7814"/>
<polygon fill="#191970" stroke="#191970" points="177.1865,-18.358 166.6382,-19.35 175.5028,-25.1525 177.1865,-18.358"/>
</g>
<!-- Node17&#45;&gt;Node5 -->
<g id="edge20" class="edge">
<title>Node17&#45;&gt;Node5</title>
<path fill="none" stroke="#191970" d="M533.7045,-65.6442C624.7947,-58.8695 822.6214,-42.629 907.9633,-21.257"/>
<polygon fill="#191970" stroke="#191970" points="909.043,-24.5913 917.7985,-18.6255 907.2337,-17.8291 909.043,-24.5913"/>
</g>
<!-- Node17&#45;&gt;Node6 -->
<g id="edge21" class="edge">
<title>Node17&#45;&gt;Node6</title>
<path fill="none" stroke="#191970" d="M439.1561,-63.4142C423.9423,-61.6471 407.0131,-59.7098 391.5,-58 241.9842,-41.5208 198.693,-57.7098 49.1746,-21.9228"/>
<polygon fill="#191970" stroke="#191970" points="49.7142,-18.4521 39.1702,-19.4895 48.0598,-25.2538 49.7142,-18.4521"/>
</g>
<!-- Node17&#45;&gt;Node7 -->
<g id="edge22" class="edge">
<title>Node17&#45;&gt;Node7</title>
<path fill="none" stroke="#191970" d="M439.3209,-63.5232C352.6674,-53.3956 172.5649,-32.0076 116.286,-21.6321"/>
<polygon fill="#191970" stroke="#191970" points="116.7305,-18.1511 106.2343,-19.5932 115.3389,-25.0114 116.7305,-18.1511"/>
</g>
<!-- Node17&#45;&gt;Node8 -->
<g id="edge23" class="edge">
<title>Node17&#45;&gt;Node8</title>
<path fill="none" stroke="#191970" d="M439.1178,-61.8193C391.5955,-54.1928 316.2082,-40.9429 242.4609,-22.0068"/>
<polygon fill="#191970" stroke="#191970" points="243.0996,-18.5564 232.5402,-19.4218 241.3345,-25.3303 243.0996,-18.5564"/>
</g>
<!-- Node17&#45;&gt;Node9 -->
<g id="edge24" class="edge">
<title>Node17&#45;&gt;Node9</title>
<path fill="none" stroke="#191970" d="M439.6274,-58.4132C404.4148,-50.1476 354.8575,-37.8551 303.6237,-22.164"/>
<polygon fill="#191970" stroke="#191970" points="304.6287,-18.8113 294.0408,-19.1948 302.5569,-25.4977 304.6287,-18.8113"/>
</g>
<!-- Node17&#45;&gt;Node10 -->
<g id="edge25" class="edge">
<title>Node17&#45;&gt;Node10</title>
<path fill="none" stroke="#191970" d="M459.8794,-58.4966C436.4028,-49.2337 401.9747,-35.6499 375.9442,-25.3793"/>
<polygon fill="#191970" stroke="#191970" points="377.006,-22.0358 366.4193,-21.6212 374.4368,-28.5473 377.006,-22.0358"/>
</g>
<!-- Node17&#45;&gt;Node11 -->
<g id="edge26" class="edge">
<title>Node17&#45;&gt;Node11</title>
<path fill="none" stroke="#191970" d="M472.9273,-58.3619C462.0788,-49.859 446.6657,-37.7785 434.1215,-27.9466"/>
<polygon fill="#191970" stroke="#191970" points="436.0164,-24.9848 425.9867,-21.5707 431.6982,-30.4942 436.0164,-24.9848"/>
</g>
<!-- Node17&#45;&gt;Node12 -->
<g id="edge27" class="edge">
<title>Node17&#45;&gt;Node12</title>
<path fill="none" stroke="#191970" d="M486.3166,-58.3619C486.1883,-50.9219 486.0128,-40.7427 485.8574,-31.7276"/>
<polygon fill="#191970" stroke="#191970" points="489.3542,-31.5088 485.6823,-21.5707 482.3553,-31.6295 489.3542,-31.5088"/>
</g>
<!-- Node17&#45;&gt;Node13 -->
<g id="edge28" class="edge">
<title>Node17&#45;&gt;Node13</title>
<path fill="none" stroke="#191970" d="M498.6054,-58.3619C508.1881,-49.9408 521.7639,-38.0105 532.8926,-28.2308"/>
<polygon fill="#191970" stroke="#191970" points="535.2701,-30.8009 540.4713,-21.5707 530.6492,-25.5427 535.2701,-30.8009"/>
</g>
<!-- Node17&#45;&gt;Node14 -->
<g id="edge29" class="edge">
<title>Node17&#45;&gt;Node14</title>
<path fill="none" stroke="#191970" d="M509.3176,-58.4966C529.9192,-49.0134 560.3596,-35.0011 582.842,-24.6521"/>
<polygon fill="#191970" stroke="#191970" points="584.3178,-27.8258 591.9381,-20.465 581.3908,-21.4671 584.3178,-27.8258"/>
</g>
<!-- Node17&#45;&gt;Node15 -->
<g id="edge30" class="edge">
<title>Node17&#45;&gt;Node15</title>
<path fill="none" stroke="#191970" d="M523.3283,-58.4751C552.8199,-49.9038 595.4336,-37.2001 641.3613,-21.9231"/>
<polygon fill="#191970" stroke="#191970" points="642.5267,-25.224 650.8977,-18.7295 640.3038,-18.5863 642.5267,-25.224"/>
</g>
<!-- Node17&#45;&gt;Node16 -->
<g id="edge31" class="edge">
<title>Node17&#45;&gt;Node16</title>
<path fill="none" stroke="#191970" d="M533.7156,-59.3574C581.7252,-49.5526 656.3377,-34.3148 708.9545,-23.5691"/>
<polygon fill="#191970" stroke="#191970" points="709.7433,-26.9804 718.8407,-21.5501 708.3426,-20.1219 709.7433,-26.9804"/>
</g>
<!-- Node19 -->
<g id="node20" class="node">
<title>Node19</title>
<polygon fill="#ffffff" stroke="#bfbfbf" points="965,-.5 965,-21.5 1008,-21.5 1008,-.5 965,-.5"/>
<text text-anchor="middle" x="986.5" y="-7.9" font-family="Helvetica,sans-Serif" font-size="12.00" fill="#000000">cstdint</text>
</g>
<!-- Node18&#45;&gt;Node19 -->
<g id="edge33" class="edge">
<title>Node18&#45;&gt;Node19</title>
<path fill="none" stroke="#191970" d="M986.5,-58.3619C986.5,-50.9219 986.5,-40.7427 986.5,-31.7276"/>
<polygon fill="#191970" stroke="#191970" points="990.0001,-31.5706 986.5,-21.5707 983.0001,-31.5707 990.0001,-31.5706"/>
</g>
<!-- Node20 -->
<g id="node21" class="node">
<title>Node20</title>
<polygon fill="#ffffff" stroke="#bfbfbf" points="1026.5,-.5 1026.5,-21.5 1080.5,-21.5 1080.5,-.5 1026.5,-.5"/>
<text text-anchor="middle" x="1053.5" y="-7.9" font-family="Helvetica,sans-Serif" font-size="12.00" fill="#000000">algorithm</text>
</g>
<!-- Node18&#45;&gt;Node20 -->
<g id="edge34" class="edge">
<title>Node18&#45;&gt;Node20</title>
<path fill="none" stroke="#191970" d="M998.7888,-58.3619C1008.5167,-49.9408 1022.2982,-38.0105 1033.5955,-28.2308"/>
<polygon fill="#191970" stroke="#191970" points="1036.0192,-30.7619 1041.2891,-21.5707 1031.4377,-25.4695 1036.0192,-30.7619"/>
</g>
</g>
</svg>
