<?xml version="1.0" encoding="UTF-8" standalone="no"?>
<!DOCTYPE svg PUBLIC "-//W3C//DTD SVG 1.1//EN"
 "http://www.w3.org/Graphics/SVG/1.1/DTD/svg11.dtd">
<!-- Generated by graphviz version 2.40.1 (20161225.0304)
 -->
<!-- Title: signal_detection.cpp Pages: 1 -->
<!--zoomable 204 -->
<svg id="main" version="1.1" xmlns="http://www.w3.org/2000/svg" xmlns:xlink="http://www.w3.org/1999/xlink" xml:space="preserve" onload="init(evt)">
<style type="text/css"><![CDATA[
.edge:hover path { stroke: red; }
.edge:hover polygon { stroke: red; fill: red; }
]]></style>
<script type="text/javascript"><![CDATA[
var edges = document.getElementsByTagName('g');
if (edges && edges.length) {
  for (var i=0;i<edges.length;i++) {
    if (edges[i].id.substr(0,4)=='edge') {
      edges[i].setAttribute('class','edge');
    }
  }
}
]]></script>
        <defs>
                <circle id="rim" cx="0" cy="0" r="7"/>
                <circle id="rim2" cx="0" cy="0" r="3.5"/>
                <g id="zoomPlus">
                        <use xlink:href="#rim" fill="#404040">
                                <set attributeName="fill" to="#808080" begin="zoomplus.mouseover" end="zoomplus.mouseout"/>
                        </use>
                        <path d="M-4,0h8M0,-4v8" fill="none" stroke="white" stroke-width="1.5" pointer-events="none"/>
                </g>
                <g id="zoomMin">
                        <use xlink:href="#rim" fill="#404040">
                                <set attributeName="fill" to="#808080" begin="zoomminus.mouseover" end="zoomminus.mouseout"/>
                        </use>
                        <path d="M-4,0h8" fill="none" stroke="white" stroke-width="1.5" pointer-events="none"/>
                </g>
                <g id="dirArrow">
                        <path fill="none" stroke="white" stroke-width="1.5" d="M0,-3.0v7 M-2.5,-0.5L0,-3.0L2.5,-0.5"/>
                </g>
               <g id="resetDef">
                       <use xlink:href="#rim2" fill="#404040">
                               <set attributeName="fill" to="#808080" begin="reset.mouseover" end="reset.mouseout"/>
                       </use>
               </g>
        </defs>

<script type="text/javascript">
var viewWidth = 1325;
var viewHeight = 204;
var sectionId = 'dynsection-0';
</script>
<script xlink:href="../../svgpan.js"/>
<svg id="graph" class="graph">
<g id="viewport">
<title>signal_detection.cpp</title>
<polygon fill="#ffffff" stroke="transparent" points="-4,4 -4,-200 1320.5,-200 1320.5,4 -4,4"/>
<!-- Node0 -->
<g id="node1" class="node">
<title>Node0</title>
<polygon fill="#bfbfbf" stroke="#000000" points="59,-174.5 59,-195.5 158,-195.5 158,-174.5 59,-174.5"/>
<text text-anchor="middle" x="108.5" y="-181.9" font-family="Helvetica,sans-Serif" font-size="12.00" fill="#000000">signal_detection.cpp</text>
</g>
<!-- Node1 -->
<g id="node2" class="node">
<title>Node1</title>
<g id="a_node2"><a xlink:href="../../da/d8e/signal__detection_8hpp.html" target="_top" xlink:title="timemory/signal_detection.hpp">
<polygon fill="#ffffff" stroke="#000000" points="481,-116.5 481,-137.5 620,-137.5 620,-116.5 481,-116.5"/>
<text text-anchor="middle" x="550.5" y="-123.9" font-family="Helvetica,sans-Serif" font-size="12.00" fill="#000000">timemory/signal_detection.hpp</text>
</a>
</g>
</g>
<!-- Node0&#45;&gt;Node1 -->
<g id="edge1" class="edge">
<title>Node0&#45;&gt;Node1</title>
<path fill="none" stroke="#191970" d="M158.3438,-178.4594C234.3993,-168.4793 380.1379,-149.3552 470.9388,-137.4402"/>
<polygon fill="#191970" stroke="#191970" points="471.4527,-140.9028 480.9123,-136.1314 470.5419,-133.9623 471.4527,-140.9028"/>
</g>
<!-- Node3 -->
<g id="node4" class="node">
<title>Node3</title>
<polygon fill="#ffffff" stroke="#bfbfbf" points="124.5,-.5 124.5,-21.5 166.5,-21.5 166.5,-.5 124.5,-.5"/>
<text text-anchor="middle" x="145.5" y="-7.9" font-family="Helvetica,sans-Serif" font-size="12.00" fill="#000000">cstdlib</text>
</g>
<!-- Node0&#45;&gt;Node3 -->
<g id="edge42" class="edge">
<title>Node0&#45;&gt;Node3</title>
<path fill="none" stroke="#191970" d="M110.7588,-174.3774C116.7565,-146.1719 133.1641,-69.0121 141.094,-31.7203"/>
<polygon fill="#191970" stroke="#191970" points="144.5197,-32.437 143.1763,-21.9277 137.6728,-30.981 144.5197,-32.437"/>
</g>
<!-- Node6 -->
<g id="node7" class="node">
<title>Node6</title>
<polygon fill="#ffffff" stroke="#bfbfbf" points="0,-.5 0,-21.5 39,-21.5 39,-.5 0,-.5"/>
<text text-anchor="middle" x="19.5" y="-7.9" font-family="Helvetica,sans-Serif" font-size="12.00" fill="#000000">string</text>
</g>
<!-- Node0&#45;&gt;Node6 -->
<g id="edge41" class="edge">
<title>Node0&#45;&gt;Node6</title>
<path fill="none" stroke="#191970" d="M103.0666,-174.3774C88.5778,-146.0509 48.8336,-68.3488 29.8539,-31.2424"/>
<polygon fill="#191970" stroke="#191970" points="32.7594,-29.2368 25.0895,-21.9277 26.5273,-32.4245 32.7594,-29.2368"/>
</g>
<!-- Node7 -->
<g id="node8" class="node">
<title>Node7</title>
<polygon fill="#ffffff" stroke="#bfbfbf" points="57,-.5 57,-21.5 106,-21.5 106,-.5 57,-.5"/>
<text text-anchor="middle" x="81.5" y="-7.9" font-family="Helvetica,sans-Serif" font-size="12.00" fill="#000000">sstream</text>
</g>
<!-- Node0&#45;&gt;Node7 -->
<g id="edge40" class="edge">
<title>Node0&#45;&gt;Node7</title>
<path fill="none" stroke="#191970" d="M106.8517,-174.3774C102.4937,-146.293 90.6045,-69.6735 84.7901,-32.2027"/>
<polygon fill="#191970" stroke="#191970" points="88.1877,-31.2727 83.1957,-21.9277 81.2705,-32.3462 88.1877,-31.2727"/>
</g>
<!-- Node2 -->
<g id="node3" class="node">
<title>Node2</title>
<polygon fill="#ffffff" stroke="#bfbfbf" points="1085,-.5 1085,-21.5 1136,-21.5 1136,-.5 1085,-.5"/>
<text text-anchor="middle" x="1110.5" y="-7.9" font-family="Helvetica,sans-Serif" font-size="12.00" fill="#000000">iostream</text>
</g>
<!-- Node1&#45;&gt;Node2 -->
<g id="edge2" class="edge">
<title>Node1&#45;&gt;Node2</title>
<path fill="none" stroke="#191970" d="M620.1742,-117.4028C679.3102,-108.8619 766.2905,-95.3669 841.5,-80 943.4027,-59.179 970.759,-51.4217 1075.2629,-21.9604"/>
<polygon fill="#191970" stroke="#191970" points="1076.2647,-25.3145 1084.9401,-19.2326 1074.3655,-18.5771 1076.2647,-25.3145"/>
</g>
<!-- Node1&#45;&gt;Node3 -->
<g id="edge3" class="edge">
<title>Node1&#45;&gt;Node3</title>
<path fill="none" stroke="#191970" d="M480.7351,-118.3312C429.9959,-110.9592 360.0512,-98.5733 300.5,-80 255.0812,-65.8344 205.2727,-42.0765 174.6941,-26.4695"/>
<polygon fill="#191970" stroke="#191970" points="175.9633,-23.186 165.4716,-21.7112 172.7536,-29.4068 175.9633,-23.186"/>
</g>
<!-- Node4 -->
<g id="node5" class="node">
<title>Node4</title>
<polygon fill="#ffffff" stroke="#bfbfbf" points="484,-58.5 484,-79.5 529,-79.5 529,-58.5 484,-58.5"/>
<text text-anchor="middle" x="506.5" y="-65.9" font-family="Helvetica,sans-Serif" font-size="12.00" fill="#000000">stdlib.h</text>
</g>
<!-- Node1&#45;&gt;Node4 -->
<g id="edge4" class="edge">
<title>Node1&#45;&gt;Node4</title>
<path fill="none" stroke="#191970" d="M542.4297,-116.3619C536.3514,-108.3496 527.8631,-97.1605 520.6631,-87.6696"/>
<polygon fill="#191970" stroke="#191970" points="523.3514,-85.4222 514.5191,-79.5707 517.7746,-89.653 523.3514,-85.4222"/>
</g>
<!-- Node5 -->
<g id="node6" class="node">
<title>Node5</title>
<polygon fill="#ffffff" stroke="#bfbfbf" points="1154,-.5 1154,-21.5 1183,-21.5 1183,-.5 1154,-.5"/>
<text text-anchor="middle" x="1168.5" y="-7.9" font-family="Helvetica,sans-Serif" font-size="12.00" fill="#000000">set</text>
</g>
<!-- Node1&#45;&gt;Node5 -->
<g id="edge5" class="edge">
<title>Node1&#45;&gt;Node5</title>
<path fill="none" stroke="#191970" d="M620.231,-119.987C692.0669,-112.2438 807.112,-98.3973 905.5,-80 1012.9431,-59.9096 1041.2321,-57.8246 1144.5,-22 1144.5974,-21.9662 1144.695,-21.9321 1144.7927,-21.8978"/>
<polygon fill="#191970" stroke="#191970" points="1145.9931,-25.1877 1153.9594,-18.2028 1143.3761,-18.6953 1145.9931,-25.1877"/>
</g>
<!-- Node1&#45;&gt;Node6 -->
<g id="edge6" class="edge">
<title>Node1&#45;&gt;Node6</title>
<path fill="none" stroke="#191970" d="M480.7918,-124.0883C405.1716,-119.5752 281.4602,-108.2245 178.5,-80 130.897,-66.9506 79.0184,-42.2955 47.8871,-26.2649"/>
<polygon fill="#191970" stroke="#191970" points="49.4048,-23.109 38.9195,-21.5891 46.1684,-29.316 49.4048,-23.109"/>
</g>
<!-- Node1&#45;&gt;Node7 -->
<g id="edge7" class="edge">
<title>Node1&#45;&gt;Node7</title>
<path fill="none" stroke="#191970" d="M480.7563,-121.6229C417.1938,-115.506 321.1963,-103.2004 240.5,-80 193.3245,-66.4369 141.7109,-42.1426 110.47,-26.3001"/>
<polygon fill="#191970" stroke="#191970" points="111.9512,-23.1263 101.456,-21.676 108.7561,-29.3546 111.9512,-23.1263"/>
</g>
<!-- Node8 -->
<g id="node9" class="node">
<title>Node8</title>
<polygon fill="#ffffff" stroke="#bfbfbf" points="184.5,-.5 184.5,-21.5 232.5,-21.5 232.5,-.5 184.5,-.5"/>
<text text-anchor="middle" x="208.5" y="-7.9" font-family="Helvetica,sans-Serif" font-size="12.00" fill="#000000">iomanip</text>
</g>
<!-- Node1&#45;&gt;Node8 -->
<g id="edge8" class="edge">
<title>Node1&#45;&gt;Node8</title>
<path fill="none" stroke="#191970" d="M496.2022,-116.4754C457.5414,-108.2988 404.6516,-95.7157 359.5,-80 315.7787,-64.7821 267.4795,-41.4985 237.5575,-26.2606"/>
<polygon fill="#191970" stroke="#191970" points="239.0117,-23.0729 228.5175,-21.6164 235.8129,-29.2993 239.0117,-23.0729"/>
</g>
<!-- Node9 -->
<g id="node10" class="node">
<title>Node9</title>
<polygon fill="#ffffff" stroke="#bfbfbf" points="251,-.5 251,-21.5 294,-21.5 294,-.5 251,-.5"/>
<text text-anchor="middle" x="272.5" y="-7.9" font-family="Helvetica,sans-Serif" font-size="12.00" fill="#000000">cstring</text>
</g>
<!-- Node1&#45;&gt;Node9 -->
<g id="edge9" class="edge">
<title>Node1&#45;&gt;Node9</title>
<path fill="none" stroke="#191970" d="M513.7642,-116.4971C484.7646,-107.812 443.5001,-94.5745 408.5,-80 369.801,-63.8852 326.9483,-41.3098 299.8832,-26.4297"/>
<polygon fill="#191970" stroke="#191970" points="301.4447,-23.2936 291.001,-21.5105 298.0533,-29.4172 301.4447,-23.2936"/>
</g>
<!-- Node10 -->
<g id="node11" class="node">
<title>Node10</title>
<polygon fill="#ffffff" stroke="#bfbfbf" points="312,-.5 312,-21.5 367,-21.5 367,-.5 312,-.5"/>
<text text-anchor="middle" x="339.5" y="-7.9" font-family="Helvetica,sans-Serif" font-size="12.00" fill="#000000">exception</text>
</g>
<!-- Node1&#45;&gt;Node10 -->
<g id="edge10" class="edge">
<title>Node1&#45;&gt;Node10</title>
<path fill="none" stroke="#191970" d="M524.8916,-116.3237C503.9811,-107.3405 473.8509,-93.7858 448.5,-80 418.2374,-63.5433 384.9926,-41.9539 363.2732,-27.34"/>
<polygon fill="#191970" stroke="#191970" points="365.2323,-24.4396 354.9902,-21.7285 361.3061,-30.2349 365.2323,-24.4396"/>
</g>
<!-- Node11 -->
<g id="node12" class="node">
<title>Node11</title>
<polygon fill="#ffffff" stroke="#bfbfbf" points="385,-.5 385,-21.5 440,-21.5 440,-.5 385,-.5"/>
<text text-anchor="middle" x="412.5" y="-7.9" font-family="Helvetica,sans-Serif" font-size="12.00" fill="#000000">stdexcept</text>
</g>
<!-- Node1&#45;&gt;Node11 -->
<g id="edge11" class="edge">
<title>Node1&#45;&gt;Node11</title>
<path fill="none" stroke="#191970" d="M530.0879,-116.4711C514.1531,-107.7717 491.8773,-94.5276 474.5,-80 456.3217,-64.8027 438.5599,-44.2835 426.74,-29.579"/>
<polygon fill="#191970" stroke="#191970" points="429.4494,-27.3623 420.509,-21.6773 423.9528,-31.6968 429.4494,-27.3623"/>
</g>
<!-- Node12 -->
<g id="node13" class="node">
<title>Node12</title>
<polygon fill="#ffffff" stroke="#bfbfbf" points="694,-.5 694,-21.5 749,-21.5 749,-.5 694,-.5"/>
<text text-anchor="middle" x="721.5" y="-7.9" font-family="Helvetica,sans-Serif" font-size="12.00" fill="#000000">functional</text>
</g>
<!-- Node1&#45;&gt;Node12 -->
<g id="edge12" class="edge">
<title>Node1&#45;&gt;Node12</title>
<path fill="none" stroke="#191970" d="M579.443,-116.3843C600.1796,-108.0842 628.2565,-95.3892 650.5,-80 671.4907,-65.4775 692.0198,-44.5855 705.5596,-29.6003"/>
<polygon fill="#191970" stroke="#191970" points="708.3143,-31.7688 712.3212,-21.9609 703.0725,-27.1294 708.3143,-31.7688"/>
</g>
<!-- Node13 -->
<g id="node14" class="node">
<title>Node13</title>
<polygon fill="#ffffff" stroke="#bfbfbf" points="767.5,-.5 767.5,-21.5 809.5,-21.5 809.5,-.5 767.5,-.5"/>
<text text-anchor="middle" x="788.5" y="-7.9" font-family="Helvetica,sans-Serif" font-size="12.00" fill="#000000">deque</text>
</g>
<!-- Node1&#45;&gt;Node13 -->
<g id="edge13" class="edge">
<title>Node1&#45;&gt;Node13</title>
<path fill="none" stroke="#191970" d="M584.6963,-116.4318C610.7115,-107.8973 647.0944,-94.8871 677.5,-80 709.203,-64.4777 743.365,-42.3405 765.2903,-27.36"/>
<polygon fill="#191970" stroke="#191970" points="767.3763,-30.173 773.6175,-21.6116 763.3995,-24.4123 767.3763,-30.173"/>
</g>
<!-- Node14 -->
<g id="node15" class="node">
<title>Node14</title>
<polygon fill="#ffffff" stroke="#bfbfbf" points="828,-.5 828,-21.5 869,-21.5 869,-.5 828,-.5"/>
<text text-anchor="middle" x="848.5" y="-7.9" font-family="Helvetica,sans-Serif" font-size="12.00" fill="#000000">cmath</text>
</g>
<!-- Node1&#45;&gt;Node14 -->
<g id="edge14" class="edge">
<title>Node1&#45;&gt;Node14</title>
<path fill="none" stroke="#191970" d="M593.9813,-116.4683C626.5623,-108.0413 671.9716,-95.1516 710.5,-80 749.9689,-64.4786 793.4042,-41.7626 820.8018,-26.6888"/>
<polygon fill="#191970" stroke="#191970" points="822.7457,-29.6129 829.791,-21.7 819.3489,-23.4923 822.7457,-29.6129"/>
</g>
<!-- Node15 -->
<g id="node16" class="node">
<title>Node15</title>
<polygon fill="#ffffff" stroke="#bfbfbf" points="887,-.5 887,-21.5 928,-21.5 928,-.5 887,-.5"/>
<text text-anchor="middle" x="907.5" y="-7.9" font-family="Helvetica,sans-Serif" font-size="12.00" fill="#000000">vector</text>
</g>
<!-- Node1&#45;&gt;Node15 -->
<g id="edge15" class="edge">
<title>Node1&#45;&gt;Node15</title>
<path fill="none" stroke="#191970" d="M606.7104,-116.415C646.7517,-108.21 701.5681,-95.6178 748.5,-80 794.8166,-64.5869 846.2785,-41.0015 877.7672,-25.7898"/>
<polygon fill="#191970" stroke="#191970" points="879.4127,-28.8814 886.8705,-21.356 876.3475,-22.5882 879.4127,-28.8814"/>
</g>
<!-- Node16 -->
<g id="node17" class="node">
<title>Node16</title>
<g id="a_node17"><a xlink:href="../../db/d19/namespace_8hpp.html" target="_top" xlink:title="timemory/namespace.hpp">
<polygon fill="#ffffff" stroke="#000000" points="946.5,-.5 946.5,-21.5 1066.5,-21.5 1066.5,-.5 946.5,-.5"/>
<text text-anchor="middle" x="1006.5" y="-7.9" font-family="Helvetica,sans-Serif" font-size="12.00" fill="#000000">timemory/namespace.hpp</text>
</a>
</g>
</g>
<!-- Node1&#45;&gt;Node16 -->
<g id="edge16" class="edge">
<title>Node1&#45;&gt;Node16</title>
<path fill="none" stroke="#191970" d="M615.4054,-116.4817C664.1804,-108.0615 732.4601,-95.1744 791.5,-80 854.0222,-63.9305 925.0708,-39.9841 967.8064,-24.9436"/>
<polygon fill="#191970" stroke="#191970" points="969.0002,-28.2339 977.2602,-21.5989 966.6654,-21.6347 969.0002,-28.2339"/>
</g>
<!-- Node17 -->
<g id="node18" class="node">
<title>Node17</title>
<g id="a_node18"><a xlink:href="../../d1/d4e/utility_8hpp.html" target="_top" xlink:title="timemory/utility.hpp">
<polygon fill="#ffffff" stroke="#000000" points="547.5,-58.5 547.5,-79.5 641.5,-79.5 641.5,-58.5 547.5,-58.5"/>
<text text-anchor="middle" x="594.5" y="-65.9" font-family="Helvetica,sans-Serif" font-size="12.00" fill="#000000">timemory/utility.hpp</text>
</a>
</g>
</g>
<!-- Node1&#45;&gt;Node17 -->
<g id="edge17" class="edge">
<title>Node1&#45;&gt;Node17</title>
<path fill="none" stroke="#191970" d="M558.5703,-116.3619C564.6486,-108.3496 573.1369,-97.1605 580.3369,-87.6696"/>
<polygon fill="#191970" stroke="#191970" points="583.2254,-89.653 586.4809,-79.5707 577.6486,-85.4222 583.2254,-89.653"/>
</g>
<!-- Node23 -->
<g id="node24" class="node">
<title>Node23</title>
<g id="a_node24"><a xlink:href="../../d0/d5d/mpi_8hpp.html" target="_top" xlink:title="timemory/mpi.hpp">
<polygon fill="#ffffff" stroke="#000000" points="1178.5,-58.5 1178.5,-79.5 1266.5,-79.5 1266.5,-58.5 1178.5,-58.5"/>
<text text-anchor="middle" x="1222.5" y="-65.9" font-family="Helvetica,sans-Serif" font-size="12.00" fill="#000000">timemory/mpi.hpp</text>
</a>
</g>
</g>
<!-- Node1&#45;&gt;Node23 -->
<g id="edge37" class="edge">
<title>Node1&#45;&gt;Node23</title>
<path fill="none" stroke="#191970" d="M620.1788,-122.5257C730.2187,-115.211 950.9166,-99.531 1137.5,-80 1147.4894,-78.9543 1158.1204,-77.6953 1168.3602,-76.4082"/>
<polygon fill="#191970" stroke="#191970" points="1168.9569,-79.8605 1178.4313,-75.1186 1168.0677,-72.9172 1168.9569,-79.8605"/>
</g>
<!-- Node17&#45;&gt;Node2 -->
<g id="edge24" class="edge">
<title>Node17&#45;&gt;Node2</title>
<path fill="none" stroke="#191970" d="M641.7506,-67.6227C726.7247,-64.4463 910.9163,-54.3717 1074.4214,-21.8487"/>
<polygon fill="#191970" stroke="#191970" points="1075.5559,-25.1902 1084.6631,-19.7763 1074.1675,-18.3292 1075.5559,-25.1902"/>
</g>
<!-- Node17&#45;&gt;Node3 -->
<g id="edge19" class="edge">
<title>Node17&#45;&gt;Node3</title>
<path fill="none" stroke="#191970" d="M547.2792,-59.5421C543.9754,-58.9867 540.6913,-58.4656 537.5,-58 380.7924,-35.136 334.9672,-57.1745 176.6958,-21.7874"/>
<polygon fill="#191970" stroke="#191970" points="177.1323,-18.2973 166.6046,-19.4883 175.5772,-25.1223 177.1323,-18.2973"/>
</g>
<!-- Node17&#45;&gt;Node5 -->
<g id="edge31" class="edge">
<title>Node17&#45;&gt;Node5</title>
<path fill="none" stroke="#191970" d="M641.659,-67.0515C753.3557,-62.1128 1032.3872,-47.797 1143.8742,-21.214"/>
<polygon fill="#191970" stroke="#191970" points="1144.9853,-24.543 1153.8156,-18.6884 1143.2616,-17.7585 1144.9853,-24.543"/>
</g>
<!-- Node17&#45;&gt;Node6 -->
<g id="edge22" class="edge">
<title>Node17&#45;&gt;Node6</title>
<path fill="none" stroke="#191970" d="M547.2924,-59.4475C543.9855,-58.9146 540.697,-58.4244 537.5,-58 324.3111,-29.697 262.288,-69.2392 49.0899,-21.8175"/>
<polygon fill="#191970" stroke="#191970" points="49.6774,-18.3621 39.1515,-19.5688 48.1326,-25.1895 49.6774,-18.3621"/>
</g>
<!-- Node17&#45;&gt;Node7 -->
<g id="edge23" class="edge">
<title>Node17&#45;&gt;Node7</title>
<path fill="none" stroke="#191970" d="M547.2866,-59.4907C543.981,-58.9475 540.6945,-58.4432 537.5,-58 354.2358,-32.572 301.8055,-58.3025 116.0217,-21.6812"/>
<polygon fill="#191970" stroke="#191970" points="116.7016,-18.2479 106.2087,-19.7138 115.3256,-25.1113 116.7016,-18.2479"/>
</g>
<!-- Node17&#45;&gt;Node8 -->
<g id="edge25" class="edge">
<title>Node17&#45;&gt;Node8</title>
<path fill="none" stroke="#191970" d="M547.2671,-59.6223C543.9662,-59.0478 540.686,-58.5005 537.5,-58 409.7772,-37.9339 372.5948,-50.4535 242.7768,-21.9429"/>
<polygon fill="#191970" stroke="#191970" points="243.3766,-18.4907 232.8538,-19.7243 241.8491,-25.322 243.3766,-18.4907"/>
</g>
<!-- Node17&#45;&gt;Node9 -->
<g id="edge20" class="edge">
<title>Node17&#45;&gt;Node9</title>
<path fill="none" stroke="#191970" d="M547.2484,-59.7356C543.9519,-59.1341 540.6779,-58.5498 537.5,-58 436.536,-40.5312 406.6307,-47.8379 304.1135,-22.0744"/>
<polygon fill="#191970" stroke="#191970" points="304.851,-18.6504 294.2955,-19.563 303.1162,-25.432 304.851,-18.6504"/>
</g>
<!-- Node17&#45;&gt;Node10 -->
<g id="edge26" class="edge">
<title>Node17&#45;&gt;Node10</title>
<path fill="none" stroke="#191970" d="M547.3128,-59.3644C497.1962,-49.0504 420.2674,-32.9712 377.2551,-22.2891"/>
<polygon fill="#191970" stroke="#191970" points="377.896,-18.8407 367.3414,-19.7632 376.1676,-25.6239 377.896,-18.8407"/>
</g>
<!-- Node17&#45;&gt;Node11 -->
<g id="edge27" class="edge">
<title>Node17&#45;&gt;Node11</title>
<path fill="none" stroke="#191970" d="M561.5412,-58.4966C530.0708,-48.4676 482.7058,-33.3733 449.8516,-22.9033"/>
<polygon fill="#191970" stroke="#191970" points="450.7457,-19.5148 440.155,-19.8131 448.6202,-26.1843 450.7457,-19.5148"/>
</g>
<!-- Node17&#45;&gt;Node12 -->
<g id="edge28" class="edge">
<title>Node17&#45;&gt;Node12</title>
<path fill="none" stroke="#191970" d="M617.4987,-58.4966C637.5132,-49.3562 666.7408,-36.0082 689.1188,-25.7883"/>
<polygon fill="#191970" stroke="#191970" points="690.6009,-28.9592 698.2432,-21.6212 687.6929,-22.5918 690.6009,-28.9592"/>
</g>
<!-- Node17&#45;&gt;Node13 -->
<g id="edge30" class="edge">
<title>Node17&#45;&gt;Node13</title>
<path fill="none" stroke="#191970" d="M633.5619,-58.449C666.7075,-49.3263 715.44,-35.5126 757.5,-22 757.5985,-21.9683 757.6973,-21.9366 757.7961,-21.9047"/>
<polygon fill="#191970" stroke="#191970" points="758.8458,-25.2444 767.212,-18.7438 756.618,-18.6083 758.8458,-25.2444"/>
</g>
<!-- Node17&#45;&gt;Node14 -->
<g id="edge21" class="edge">
<title>Node17&#45;&gt;Node14</title>
<path fill="none" stroke="#191970" d="M641.7471,-61.1385C685.2761,-53.438 751.7452,-40.5259 818.1746,-21.7793"/>
<polygon fill="#191970" stroke="#191970" points="819.3241,-25.0909 827.9727,-18.971 817.3954,-18.3618 819.3241,-25.0909"/>
</g>
<!-- Node17&#45;&gt;Node15 -->
<g id="edge32" class="edge">
<title>Node17&#45;&gt;Node15</title>
<path fill="none" stroke="#191970" d="M641.6384,-63.906C696.2289,-57.4045 788.8754,-44.5155 876.8112,-21.7964"/>
<polygon fill="#191970" stroke="#191970" points="877.8986,-25.1295 886.6786,-19.1998 876.1171,-18.36 877.8986,-25.1295"/>
</g>
<!-- Node17&#45;&gt;Node16 -->
<g id="edge36" class="edge">
<title>Node17&#45;&gt;Node16</title>
<path fill="none" stroke="#191970" d="M641.5631,-62.8245C705.6062,-54.3564 824.0547,-38.4656 936.0601,-22.0424"/>
<polygon fill="#191970" stroke="#191970" points="936.7977,-25.4717 946.1822,-20.5542 935.7794,-18.5462 936.7977,-25.4717"/>
</g>
<!-- Node18 -->
<g id="node19" class="node">
<title>Node18</title>
<polygon fill="#ffffff" stroke="#bfbfbf" points="1201,-.5 1201,-21.5 1244,-21.5 1244,-.5 1201,-.5"/>
<text text-anchor="middle" x="1222.5" y="-7.9" font-family="Helvetica,sans-Serif" font-size="12.00" fill="#000000">cstdint</text>
</g>
<!-- Node17&#45;&gt;Node18 -->
<g id="edge18" class="edge">
<title>Node17&#45;&gt;Node18</title>
<path fill="none" stroke="#191970" d="M641.9389,-66.8736C760.678,-61.3008 1069.2618,-45.2121 1190.8842,-21.552"/>
<polygon fill="#191970" stroke="#191970" points="1191.5982,-24.9785 1200.6899,-19.5387 1190.1903,-18.1216 1191.5982,-24.9785"/>
</g>
<!-- Node19 -->
<g id="node20" class="node">
<title>Node19</title>
<polygon fill="#ffffff" stroke="#bfbfbf" points="458,-.5 458,-21.5 495,-21.5 495,-.5 458,-.5"/>
<text text-anchor="middle" x="476.5" y="-7.9" font-family="Helvetica,sans-Serif" font-size="12.00" fill="#000000">limits</text>
</g>
<!-- Node17&#45;&gt;Node19 -->
<g id="edge29" class="edge">
<title>Node17&#45;&gt;Node19</title>
<path fill="none" stroke="#191970" d="M573.1311,-58.4966C553.8947,-49.0415 525.4985,-35.084 504.462,-24.7441"/>
<polygon fill="#191970" stroke="#191970" points="505.8923,-21.5472 495.3739,-20.277 502.8044,-27.8293 505.8923,-21.5472"/>
</g>
<!-- Node20 -->
<g id="node21" class="node">
<title>Node20</title>
<polygon fill="#ffffff" stroke="#bfbfbf" points="513,-.5 513,-21.5 556,-21.5 556,-.5 513,-.5"/>
<text text-anchor="middle" x="534.5" y="-7.9" font-family="Helvetica,sans-Serif" font-size="12.00" fill="#000000">atomic</text>
</g>
<!-- Node17&#45;&gt;Node20 -->
<g id="edge33" class="edge">
<title>Node17&#45;&gt;Node20</title>
<path fill="none" stroke="#191970" d="M583.4951,-58.3619C574.9527,-50.1043 562.9198,-38.4725 552.9168,-28.8029"/>
<polygon fill="#191970" stroke="#191970" points="555.0577,-26.0044 545.4352,-21.5707 550.1925,-31.0374 555.0577,-26.0044"/>
</g>
<!-- Node21 -->
<g id="node22" class="node">
<title>Node21</title>
<polygon fill="#ffffff" stroke="#bfbfbf" points="574,-.5 574,-21.5 615,-21.5 615,-.5 574,-.5"/>
<text text-anchor="middle" x="594.5" y="-7.9" font-family="Helvetica,sans-Serif" font-size="12.00" fill="#000000">mutex</text>
</g>
<!-- Node17&#45;&gt;Node21 -->
<g id="edge34" class="edge">
<title>Node17&#45;&gt;Node21</title>
<path fill="none" stroke="#191970" d="M594.5,-58.3619C594.5,-50.9219 594.5,-40.7427 594.5,-31.7276"/>
<polygon fill="#191970" stroke="#191970" points="598.0001,-31.5706 594.5,-21.5707 591.0001,-31.5707 598.0001,-31.5706"/>
</g>
<!-- Node22 -->
<g id="node23" class="node">
<title>Node22</title>
<polygon fill="#ffffff" stroke="#bfbfbf" points="633.5,-.5 633.5,-21.5 675.5,-21.5 675.5,-.5 633.5,-.5"/>
<text text-anchor="middle" x="654.5" y="-7.9" font-family="Helvetica,sans-Serif" font-size="12.00" fill="#000000">thread</text>
</g>
<!-- Node17&#45;&gt;Node22 -->
<g id="edge35" class="edge">
<title>Node17&#45;&gt;Node22</title>
<path fill="none" stroke="#191970" d="M605.5049,-58.3619C614.0473,-50.1043 626.0802,-38.4725 636.0832,-28.8029"/>
<polygon fill="#191970" stroke="#191970" points="638.8075,-31.0374 643.5648,-21.5707 633.9423,-26.0044 638.8075,-31.0374"/>
</g>
<!-- Node23&#45;&gt;Node18 -->
<g id="edge38" class="edge">
<title>Node23&#45;&gt;Node18</title>
<path fill="none" stroke="#191970" d="M1222.5,-58.3619C1222.5,-50.9219 1222.5,-40.7427 1222.5,-31.7276"/>
<polygon fill="#191970" stroke="#191970" points="1226.0001,-31.5706 1222.5,-21.5707 1219.0001,-31.5707 1226.0001,-31.5706"/>
</g>
<!-- Node24 -->
<g id="node25" class="node">
<title>Node24</title>
<polygon fill="#ffffff" stroke="#bfbfbf" points="1262.5,-.5 1262.5,-21.5 1316.5,-21.5 1316.5,-.5 1262.5,-.5"/>
<text text-anchor="middle" x="1289.5" y="-7.9" font-family="Helvetica,sans-Serif" font-size="12.00" fill="#000000">algorithm</text>
</g>
<!-- Node23&#45;&gt;Node24 -->
<g id="edge39" class="edge">
<title>Node23&#45;&gt;Node24</title>
<path fill="none" stroke="#191970" d="M1234.7888,-58.3619C1244.5167,-49.9408 1258.2982,-38.0105 1269.5955,-28.2308"/>
<polygon fill="#191970" stroke="#191970" points="1272.0192,-30.7619 1277.2891,-21.5707 1267.4377,-25.4695 1272.0192,-30.7619"/>
</g>
</g>
</svg>
        <g id="navigator" transform="translate(0 0)" fill="#404254">
                <rect fill="#f2f5e9" fill-opacity="0.5" stroke="#606060" stroke-width=".5" x="0" y="0" width="60" height="60"/>
                <use id="zoomplus" xlink:href="#zoomPlus" x="17" y="9" onmousedown="handleZoom(evt,'in')"/>
                <use id="zoomminus" xlink:href="#zoomMin" x="42" y="9" onmousedown="handleZoom(evt,'out')"/>
                <use id="reset" xlink:href="#resetDef" x="30" y="36" onmousedown="handleReset()"/>
                <g id="arrowUp" xlink:href="#dirArrow" transform="translate(30 24)" onmousedown="handlePan(0,-1)">
                  <use xlink:href="#rim" fill="#404040">
                        <set attributeName="fill" to="#808080" begin="arrowUp.mouseover" end="arrowUp.mouseout"/>
                  </use>
                  <path fill="none" stroke="white" stroke-width="1.5" d="M0,-3.0v7 M-2.5,-0.5L0,-3.0L2.5,-0.5"/>
                </g>
                <g id="arrowRight" xlink:href="#dirArrow" transform="rotate(90) translate(36 -43)" onmousedown="handlePan(1,0)">
                  <use xlink:href="#rim" fill="#404040">
                        <set attributeName="fill" to="#808080" begin="arrowRight.mouseover" end="arrowRight.mouseout"/>
                  </use>
                  <path fill="none" stroke="white" stroke-width="1.5" d="M0,-3.0v7 M-2.5,-0.5L0,-3.0L2.5,-0.5"/>
                </g>
                <g id="arrowDown" xlink:href="#dirArrow" transform="rotate(180) translate(-30 -48)" onmousedown="handlePan(0,1)">
                  <use xlink:href="#rim" fill="#404040">
                        <set attributeName="fill" to="#808080" begin="arrowDown.mouseover" end="arrowDown.mouseout"/>
                  </use>
                  <path fill="none" stroke="white" stroke-width="1.5" d="M0,-3.0v7 M-2.5,-0.5L0,-3.0L2.5,-0.5"/>
                </g>
                <g id="arrowLeft" xlink:href="#dirArrow" transform="rotate(270) translate(-36 17)" onmousedown="handlePan(-1,0)">
                  <use xlink:href="#rim" fill="#404040">
                        <set attributeName="fill" to="#808080" begin="arrowLeft.mouseover" end="arrowLeft.mouseout"/>
                  </use>
                  <path fill="none" stroke="white" stroke-width="1.5" d="M0,-3.0v7 M-2.5,-0.5L0,-3.0L2.5,-0.5"/>
                </g>
        </g>
        <svg viewBox="0 0 15 15" width="100%" height="30px" preserveAspectRatio="xMaxYMin meet">
         <g id="arrow_out" transform="scale(0.3 0.3)">
          <a xlink:href="signal__detection_8cpp__incl_org.svg" target="_base">
           <rect id="button" ry="5" rx="5" y="6" x="6" height="38" width="38"
                fill="#f2f5e9" fill-opacity="0.5" stroke="#606060" stroke-width="1.0"/>
           <path id="arrow"
             d="M 11.500037,31.436501 C 11.940474,20.09759 22.043105,11.32322 32.158766,21.979434 L 37.068811,17.246167 C 37.068811,17.246167 37.088388,32 37.088388,32 L 22.160133,31.978069 C 22.160133,31.978069 26.997745,27.140456 26.997745,27.140456 C 18.528582,18.264221 13.291696,25.230495 11.500037,31.436501 z"
             style="fill:#404040;"/>
          </a>
         </g>
        </svg>
</svg>
