<?xml version="1.0" encoding="UTF-8" standalone="no"?>
<!DOCTYPE svg PUBLIC "-//W3C//DTD SVG 1.1//EN"
 "http://www.w3.org/Graphics/SVG/1.1/DTD/svg11.dtd">
<!-- Generated by graphviz version 2.40.1 (20161225.0304)
 -->
<!-- Title: signal_detection.cpp Pages: 1 -->
<svg width="1030pt" height="204pt"
 viewBox="0.00 0.00 1029.50 204.00" xmlns="http://www.w3.org/2000/svg" xmlns:xlink="http://www.w3.org/1999/xlink">
<g id="graph0" class="graph" transform="scale(1 1) rotate(0) translate(4 200)">
<title>signal_detection.cpp</title>
<polygon fill="#ffffff" stroke="transparent" points="-4,4 -4,-200 1025.5,-200 1025.5,4 -4,4"/>
<!-- Node0 -->
<g id="node1" class="node">
<title>Node0</title>
<polygon fill="#bfbfbf" stroke="#000000" points="733,-174.5 733,-195.5 832,-195.5 832,-174.5 733,-174.5"/>
<text text-anchor="middle" x="782.5" y="-181.9" font-family="Helvetica,sans-Serif" font-size="12.00" fill="#000000">signal_detection.cpp</text>
</g>
<!-- Node1 -->
<g id="node2" class="node">
<title>Node1</title>
<g id="a_node2"><a xlink:href="../../da/d8e/signal__detection_8hpp.html" target="_top" xlink:title="timemory/signal_detection.hpp">
<polygon fill="#ffffff" stroke="#000000" points="458,-116.5 458,-137.5 597,-137.5 597,-116.5 458,-116.5"/>
<text text-anchor="middle" x="527.5" y="-123.9" font-family="Helvetica,sans-Serif" font-size="12.00" fill="#000000">timemory/signal_detection.hpp</text>
</a>
</g>
</g>
<!-- Node0&#45;&gt;Node1 -->
<g id="edge1" class="edge">
<title>Node0&#45;&gt;Node1</title>
<path fill="none" stroke="#191970" d="M736.3214,-174.4966C693.3998,-164.7341 629.3758,-150.1718 583.5445,-139.7474"/>
<polygon fill="#191970" stroke="#191970" points="584.2924,-136.3282 573.7652,-137.5231 582.7399,-143.1538 584.2924,-136.3282"/>
</g>
<!-- Node3 -->
<g id="node4" class="node">
<title>Node3</title>
<polygon fill="#ffffff" stroke="#bfbfbf" points="979.5,-.5 979.5,-21.5 1021.5,-21.5 1021.5,-.5 979.5,-.5"/>
<text text-anchor="middle" x="1000.5" y="-7.9" font-family="Helvetica,sans-Serif" font-size="12.00" fill="#000000">cstdlib</text>
</g>
<!-- Node0&#45;&gt;Node3 -->
<g id="edge39" class="edge">
<title>Node0&#45;&gt;Node3</title>
<path fill="none" stroke="#191970" d="M832.2242,-178.9001C867.0186,-172.8088 913.3713,-160.8992 948.5,-138 976.5308,-119.7277 984.2561,-111.1399 996.5,-80 1002.5284,-64.6679 1003.2411,-45.9347 1002.6059,-31.8586"/>
<polygon fill="#191970" stroke="#191970" points="1006.0856,-31.448 1001.8833,-21.7222 999.1033,-31.9458 1006.0856,-31.448"/>
</g>
<!-- Node6 -->
<g id="node7" class="node">
<title>Node6</title>
<polygon fill="#ffffff" stroke="#bfbfbf" points="861,-.5 861,-21.5 900,-21.5 900,-.5 861,-.5"/>
<text text-anchor="middle" x="880.5" y="-7.9" font-family="Helvetica,sans-Serif" font-size="12.00" fill="#000000">string</text>
</g>
<!-- Node0&#45;&gt;Node6 -->
<g id="edge38" class="edge">
<title>Node0&#45;&gt;Node6</title>
<path fill="none" stroke="#191970" d="M831.4021,-174.4804C879.1234,-161.3298 949.1238,-133.6895 981.5,-80 986.5492,-71.6268 986.7569,-66.2444 981.5,-58 977.2912,-51.3992 938.0054,-34.3475 909.6959,-22.7049"/>
<polygon fill="#191970" stroke="#191970" points="910.797,-19.3742 900.2157,-18.8384 908.1534,-25.8558 910.797,-19.3742"/>
</g>
<!-- Node7 -->
<g id="node8" class="node">
<title>Node7</title>
<polygon fill="#ffffff" stroke="#bfbfbf" points="0,-.5 0,-21.5 49,-21.5 49,-.5 0,-.5"/>
<text text-anchor="middle" x="24.5" y="-7.9" font-family="Helvetica,sans-Serif" font-size="12.00" fill="#000000">sstream</text>
</g>
<!-- Node0&#45;&gt;Node7 -->
<g id="edge37" class="edge">
<title>Node0&#45;&gt;Node7</title>
<path fill="none" stroke="#191970" d="M732.8508,-182.2047C592.1159,-173.5642 193.5255,-143.9254 81.5,-80 61.2717,-68.4571 45.1903,-46.7764 35.3344,-30.7867"/>
<polygon fill="#191970" stroke="#191970" points="38.0927,-28.5704 30.0208,-21.7078 32.0513,-32.1062 38.0927,-28.5704"/>
</g>
<!-- Node2 -->
<g id="node3" class="node">
<title>Node2</title>
<polygon fill="#ffffff" stroke="#bfbfbf" points="678,-.5 678,-21.5 729,-21.5 729,-.5 678,-.5"/>
<text text-anchor="middle" x="703.5" y="-7.9" font-family="Helvetica,sans-Serif" font-size="12.00" fill="#000000">iostream</text>
</g>
<!-- Node1&#45;&gt;Node2 -->
<g id="edge2" class="edge">
<title>Node1&#45;&gt;Node2</title>
<path fill="none" stroke="#191970" d="M550.4654,-116.3287C568.8364,-107.4513 594.9891,-94.0378 616.5,-80 640.9182,-64.0649 666.8518,-42.8736 683.9866,-28.1995"/>
<polygon fill="#191970" stroke="#191970" points="686.3748,-30.7614 691.6462,-21.571 681.7941,-25.4682 686.3748,-30.7614"/>
</g>
<!-- Node1&#45;&gt;Node3 -->
<g id="edge3" class="edge">
<title>Node1&#45;&gt;Node3</title>
<path fill="none" stroke="#191970" d="M597.2149,-124.0667C717.2277,-118.3942 952.8134,-104.2914 981.5,-80 995.3106,-68.3054 999.5566,-47.5831 1000.6509,-31.891"/>
<polygon fill="#191970" stroke="#191970" points="1004.16,-31.6618 1000.9824,-21.5547 997.1636,-31.4373 1004.16,-31.6618"/>
</g>
<!-- Node4 -->
<g id="node5" class="node">
<title>Node4</title>
<polygon fill="#ffffff" stroke="#bfbfbf" points="707,-58.5 707,-79.5 752,-79.5 752,-58.5 707,-58.5"/>
<text text-anchor="middle" x="729.5" y="-65.9" font-family="Helvetica,sans-Serif" font-size="12.00" fill="#000000">stdlib.h</text>
</g>
<!-- Node1&#45;&gt;Node4 -->
<g id="edge4" class="edge">
<title>Node1&#45;&gt;Node4</title>
<path fill="none" stroke="#191970" d="M564.8878,-116.4822C598.3534,-107.0363 648.7442,-92.7357 692.5,-80 693.9478,-79.5786 695.4268,-79.1463 696.9206,-78.7083"/>
<polygon fill="#191970" stroke="#191970" points="698.2132,-81.9762 706.8139,-75.7893 696.2322,-75.2623 698.2132,-81.9762"/>
</g>
<!-- Node5 -->
<g id="node6" class="node">
<title>Node5</title>
<polygon fill="#ffffff" stroke="#bfbfbf" points="747,-.5 747,-21.5 776,-21.5 776,-.5 747,-.5"/>
<text text-anchor="middle" x="761.5" y="-7.9" font-family="Helvetica,sans-Serif" font-size="12.00" fill="#000000">set</text>
</g>
<!-- Node1&#45;&gt;Node5 -->
<g id="edge5" class="edge">
<title>Node1&#45;&gt;Node5</title>
<path fill="none" stroke="#191970" d="M597.0522,-122.5601C658.3423,-117.0249 740.9867,-105.0432 761.5,-80 772.3727,-66.7263 771.0787,-46.7056 767.829,-31.6433"/>
<polygon fill="#191970" stroke="#191970" points="771.1549,-30.5248 765.2631,-21.7193 764.3778,-32.2771 771.1549,-30.5248"/>
</g>
<!-- Node1&#45;&gt;Node6 -->
<g id="edge6" class="edge">
<title>Node1&#45;&gt;Node6</title>
<path fill="none" stroke="#191970" d="M597.192,-119.4991C666.3922,-111.2691 767.118,-96.9503 802.5,-80 827.6317,-67.9602 850.7759,-45.4057 865.2156,-29.3623"/>
<polygon fill="#191970" stroke="#191970" points="868.0015,-31.4929 871.9376,-21.6563 862.7264,-26.8914 868.0015,-31.4929"/>
</g>
<!-- Node1&#45;&gt;Node7 -->
<g id="edge7" class="edge">
<title>Node1&#45;&gt;Node7</title>
<path fill="none" stroke="#191970" d="M457.8712,-122.7666C359.8244,-116.1347 186.4546,-101.7611 127.5,-80 95.4879,-68.1838 63.6226,-44.5398 43.9996,-28.2496"/>
<polygon fill="#191970" stroke="#191970" points="46.0181,-25.3718 36.1316,-21.5629 41.485,-30.7058 46.0181,-25.3718"/>
</g>
<!-- Node8 -->
<g id="node9" class="node">
<title>Node8</title>
<polygon fill="#ffffff" stroke="#bfbfbf" points="794.5,-.5 794.5,-21.5 842.5,-21.5 842.5,-.5 794.5,-.5"/>
<text text-anchor="middle" x="818.5" y="-7.9" font-family="Helvetica,sans-Serif" font-size="12.00" fill="#000000">iomanip</text>
</g>
<!-- Node1&#45;&gt;Node8 -->
<g id="edge8" class="edge">
<title>Node1&#45;&gt;Node8</title>
<path fill="none" stroke="#191970" d="M597.133,-120.6295C661.3229,-113.5932 750.8475,-100.4712 779.5,-80 795.9655,-68.236 806.3836,-47.2175 812.2687,-31.4593"/>
<polygon fill="#191970" stroke="#191970" points="815.7263,-32.1631 815.6373,-21.5687 809.1001,-29.9063 815.7263,-32.1631"/>
</g>
<!-- Node9 -->
<g id="node10" class="node">
<title>Node9</title>
<polygon fill="#ffffff" stroke="#bfbfbf" points="68,-.5 68,-21.5 111,-21.5 111,-.5 68,-.5"/>
<text text-anchor="middle" x="89.5" y="-7.9" font-family="Helvetica,sans-Serif" font-size="12.00" fill="#000000">cstring</text>
</g>
<!-- Node1&#45;&gt;Node9 -->
<g id="edge9" class="edge">
<title>Node1&#45;&gt;Node9</title>
<path fill="none" stroke="#191970" d="M457.7286,-123.1546C366.7729,-117.2666 213.3054,-104.0828 162.5,-80 138.3012,-68.5292 116.8667,-45.9922 103.5875,-29.7926"/>
<polygon fill="#191970" stroke="#191970" points="106.0274,-27.2347 97.0834,-21.5553 100.5335,-31.5727 106.0274,-27.2347"/>
</g>
<!-- Node10 -->
<g id="node11" class="node">
<title>Node10</title>
<polygon fill="#ffffff" stroke="#bfbfbf" points="135,-.5 135,-21.5 190,-21.5 190,-.5 135,-.5"/>
<text text-anchor="middle" x="162.5" y="-7.9" font-family="Helvetica,sans-Serif" font-size="12.00" fill="#000000">exception</text>
</g>
<!-- Node1&#45;&gt;Node10 -->
<g id="edge10" class="edge">
<title>Node1&#45;&gt;Node10</title>
<path fill="none" stroke="#191970" d="M457.6653,-121.8322C361.7544,-114.1004 198.7614,-98.4412 178.5,-80 165.3276,-68.011 161.939,-47.5 161.4797,-31.9484"/>
<polygon fill="#191970" stroke="#191970" points="164.9816,-31.7226 161.565,-21.6938 157.9819,-31.6643 164.9816,-31.7226"/>
</g>
<!-- Node11 -->
<g id="node12" class="node">
<title>Node11</title>
<polygon fill="#ffffff" stroke="#bfbfbf" points="211,-.5 211,-21.5 266,-21.5 266,-.5 211,-.5"/>
<text text-anchor="middle" x="238.5" y="-7.9" font-family="Helvetica,sans-Serif" font-size="12.00" fill="#000000">stdexcept</text>
</g>
<!-- Node1&#45;&gt;Node11 -->
<g id="edge11" class="edge">
<title>Node1&#45;&gt;Node11</title>
<path fill="none" stroke="#191970" d="M457.6884,-122.1981C363.3775,-114.9896 204.9684,-100.0492 187.5,-80 172.6681,-62.9768 193.2773,-41.9236 212.5595,-27.58"/>
<polygon fill="#191970" stroke="#191970" points="214.7589,-30.3118 220.9135,-21.6878 210.7243,-24.5915 214.7589,-30.3118"/>
</g>
<!-- Node12 -->
<g id="node13" class="node">
<title>Node12</title>
<polygon fill="#ffffff" stroke="#bfbfbf" points="286,-.5 286,-21.5 341,-21.5 341,-.5 286,-.5"/>
<text text-anchor="middle" x="313.5" y="-7.9" font-family="Helvetica,sans-Serif" font-size="12.00" fill="#000000">functional</text>
</g>
<!-- Node1&#45;&gt;Node12 -->
<g id="edge12" class="edge">
<title>Node1&#45;&gt;Node12</title>
<path fill="none" stroke="#191970" d="M457.7706,-121.9542C365.4957,-114.5568 212.4377,-99.5044 195.5,-80 189.0889,-72.6174 190.0124,-66.0926 195.5,-58 200.3368,-50.8672 243.2687,-34.9194 275.9661,-23.5823"/>
<polygon fill="#191970" stroke="#191970" points="277.4116,-26.7865 285.7314,-20.2268 275.1368,-20.1665 277.4116,-26.7865"/>
</g>
<!-- Node13 -->
<g id="node14" class="node">
<title>Node13</title>
<polygon fill="#ffffff" stroke="#bfbfbf" points="204.5,-58.5 204.5,-79.5 242.5,-79.5 242.5,-58.5 204.5,-58.5"/>
<text text-anchor="middle" x="223.5" y="-65.9" font-family="Helvetica,sans-Serif" font-size="12.00" fill="#000000">cfenv</text>
</g>
<!-- Node1&#45;&gt;Node13 -->
<g id="edge13" class="edge">
<title>Node1&#45;&gt;Node13</title>
<path fill="none" stroke="#191970" d="M457.7248,-119.1527C403.8165,-112.1711 327.362,-100.2727 252.6525,-79.8997"/>
<polygon fill="#191970" stroke="#191970" points="253.1746,-76.4121 242.6023,-77.104 251.2985,-83.1561 253.1746,-76.4121"/>
</g>
<!-- Node14 -->
<g id="node15" class="node">
<title>Node14</title>
<polygon fill="#ffffff" stroke="#bfbfbf" points="260.5,-58.5 260.5,-79.5 318.5,-79.5 318.5,-58.5 260.5,-58.5"/>
<text text-anchor="middle" x="289.5" y="-65.9" font-family="Helvetica,sans-Serif" font-size="12.00" fill="#000000">execinfo.h</text>
</g>
<!-- Node1&#45;&gt;Node14 -->
<g id="edge14" class="edge">
<title>Node1&#45;&gt;Node14</title>
<path fill="none" stroke="#191970" d="M479.647,-116.4747C441.2454,-107.8657 385.7346,-95.0584 328.4591,-80.166"/>
<polygon fill="#191970" stroke="#191970" points="329.0643,-76.7066 318.504,-77.5608 327.2921,-83.4785 329.0643,-76.7066"/>
</g>
<!-- Node15 -->
<g id="node16" class="node">
<title>Node15</title>
<polygon fill="#ffffff" stroke="#bfbfbf" points="336.5,-58.5 336.5,-79.5 386.5,-79.5 386.5,-58.5 336.5,-58.5"/>
<text text-anchor="middle" x="361.5" y="-65.9" font-family="Helvetica,sans-Serif" font-size="12.00" fill="#000000">cxxabi.h</text>
</g>
<!-- Node1&#45;&gt;Node15 -->
<g id="edge15" class="edge">
<title>Node1&#45;&gt;Node15</title>
<path fill="none" stroke="#191970" d="M497.4387,-116.4966C468.9824,-106.5541 426.2776,-91.6332 396.3459,-81.1751"/>
<polygon fill="#191970" stroke="#191970" points="397.3186,-77.8075 386.7238,-77.8131 395.0097,-84.4158 397.3186,-77.8075"/>
</g>
<!-- Node16 -->
<g id="node17" class="node">
<title>Node16</title>
<polygon fill="#ffffff" stroke="#bfbfbf" points="360.5,-.5 360.5,-21.5 402.5,-21.5 402.5,-.5 360.5,-.5"/>
<text text-anchor="middle" x="381.5" y="-7.9" font-family="Helvetica,sans-Serif" font-size="12.00" fill="#000000">deque</text>
</g>
<!-- Node1&#45;&gt;Node16 -->
<g id="edge16" class="edge">
<title>Node1&#45;&gt;Node16</title>
<path fill="none" stroke="#191970" d="M509.4573,-116.4187C494.5289,-107.3857 473.011,-93.7139 455.5,-80 435.1968,-64.0994 413.8432,-43.7432 399.3214,-29.2713"/>
<polygon fill="#191970" stroke="#191970" points="401.5357,-26.5338 392.0067,-21.9024 396.5677,-31.4653 401.5357,-26.5338"/>
</g>
<!-- Node17 -->
<g id="node18" class="node">
<title>Node17</title>
<polygon fill="#ffffff" stroke="#bfbfbf" points="421,-.5 421,-21.5 462,-21.5 462,-.5 421,-.5"/>
<text text-anchor="middle" x="441.5" y="-7.9" font-family="Helvetica,sans-Serif" font-size="12.00" fill="#000000">cmath</text>
</g>
<!-- Node1&#45;&gt;Node17 -->
<g id="edge17" class="edge">
<title>Node1&#45;&gt;Node17</title>
<path fill="none" stroke="#191970" d="M511.2555,-116.4717C499.0141,-107.867 482.5108,-94.7473 471.5,-80 460.4322,-65.1763 452.4286,-45.6364 447.4863,-31.1354"/>
<polygon fill="#191970" stroke="#191970" points="450.8167,-30.0588 444.4285,-21.6064 444.1514,-32.1977 450.8167,-30.0588"/>
</g>
<!-- Node18 -->
<g id="node19" class="node">
<title>Node18</title>
<polygon fill="#ffffff" stroke="#bfbfbf" points="480,-.5 480,-21.5 521,-21.5 521,-.5 480,-.5"/>
<text text-anchor="middle" x="500.5" y="-7.9" font-family="Helvetica,sans-Serif" font-size="12.00" fill="#000000">vector</text>
</g>
<!-- Node1&#45;&gt;Node18 -->
<g id="edge18" class="edge">
<title>Node1&#45;&gt;Node18</title>
<path fill="none" stroke="#191970" d="M547.0566,-116.3139C568.0197,-103.3809 596.6308,-80.5255 583.5,-58 577.4613,-47.6408 551.693,-33.961 530.4499,-24.0328"/>
<polygon fill="#191970" stroke="#191970" points="531.6455,-20.7312 521.0952,-19.7606 528.7375,-27.0986 531.6455,-20.7312"/>
</g>
<!-- Node19 -->
<g id="node20" class="node">
<title>Node19</title>
<g id="a_node20"><a xlink:href="../../db/d19/namespace_8hpp.html" target="_top" xlink:title="timemory/namespace.hpp">
<polygon fill="#ffffff" stroke="#000000" points="539.5,-.5 539.5,-21.5 659.5,-21.5 659.5,-.5 539.5,-.5"/>
<text text-anchor="middle" x="599.5" y="-7.9" font-family="Helvetica,sans-Serif" font-size="12.00" fill="#000000">timemory/namespace.hpp</text>
</a>
</g>
</g>
<!-- Node1&#45;&gt;Node19 -->
<g id="edge19" class="edge">
<title>Node1&#45;&gt;Node19</title>
<path fill="none" stroke="#191970" d="M555.9416,-116.4527C571.838,-108.9185 590.2605,-97.0651 599.5,-80 607.4992,-65.2257 606.7336,-45.9299 604.406,-31.5012"/>
<polygon fill="#191970" stroke="#191970" points="607.8158,-30.7019 602.4409,-21.5717 600.949,-32.061 607.8158,-30.7019"/>
</g>
<!-- Node20 -->
<g id="node21" class="node">
<title>Node20</title>
<g id="a_node21"><a xlink:href="../../d1/d4e/utility_8hpp.html" target="_top" xlink:title="timemory/utility.hpp">
<polygon fill="#ffffff" stroke="#000000" points="480.5,-58.5 480.5,-79.5 574.5,-79.5 574.5,-58.5 480.5,-58.5"/>
<text text-anchor="middle" x="527.5" y="-65.9" font-family="Helvetica,sans-Serif" font-size="12.00" fill="#000000">timemory/utility.hpp</text>
</a>
</g>
</g>
<!-- Node1&#45;&gt;Node20 -->
<g id="edge20" class="edge">
<title>Node1&#45;&gt;Node20</title>
<path fill="none" stroke="#191970" d="M527.5,-116.3619C527.5,-108.9219 527.5,-98.7427 527.5,-89.7276"/>
<polygon fill="#191970" stroke="#191970" points="531.0001,-89.5706 527.5,-79.5707 524.0001,-89.5707 531.0001,-89.5706"/>
</g>
<!-- Node21 -->
<g id="node22" class="node">
<title>Node21</title>
<g id="a_node22"><a xlink:href="../../d0/d5d/mpi_8hpp.html" target="_top" xlink:title="timemory/mpi.hpp">
<polygon fill="#ffffff" stroke="#000000" points="884.5,-58.5 884.5,-79.5 972.5,-79.5 972.5,-58.5 884.5,-58.5"/>
<text text-anchor="middle" x="928.5" y="-65.9" font-family="Helvetica,sans-Serif" font-size="12.00" fill="#000000">timemory/mpi.hpp</text>
</a>
</g>
</g>
<!-- Node1&#45;&gt;Node21 -->
<g id="edge35" class="edge">
<title>Node1&#45;&gt;Node21</title>
<path fill="none" stroke="#191970" d="M597.2914,-118.5013C666.7092,-109.7977 776.1812,-95.3957 870.5,-80 871.7517,-79.7957 873.018,-79.5854 874.2944,-79.3702"/>
<polygon fill="#191970" stroke="#191970" points="874.9574,-82.8075 884.2078,-77.6422 873.7553,-75.9115 874.9574,-82.8075"/>
</g>
<!-- Node20&#45;&gt;Node2 -->
<g id="edge21" class="edge">
<title>Node20&#45;&gt;Node2</title>
<path fill="none" stroke="#191970" d="M559.3723,-58.4966C590.0315,-48.393 636.2909,-33.1485 668.0864,-22.6704"/>
<polygon fill="#191970" stroke="#191970" points="669.4611,-25.9026 677.8632,-19.4485 667.2702,-19.2543 669.4611,-25.9026"/>
</g>
<!-- Node20&#45;&gt;Node3 -->
<g id="edge22" class="edge">
<title>Node20&#45;&gt;Node3</title>
<path fill="none" stroke="#191970" d="M574.6735,-65.4698C669.1913,-58.1645 879.7127,-40.6692 969.555,-21.6728"/>
<polygon fill="#191970" stroke="#191970" points="970.3977,-25.0709 979.3912,-19.4703 968.8681,-18.2401 970.3977,-25.0709"/>
</g>
<!-- Node20&#45;&gt;Node5 -->
<g id="edge23" class="edge">
<title>Node20&#45;&gt;Node5</title>
<path fill="none" stroke="#191970" d="M574.8594,-61.6227C615.9883,-54.5131 677.0992,-42.2596 737.0102,-22.0351"/>
<polygon fill="#191970" stroke="#191970" points="738.3016,-25.292 746.612,-18.7203 736.0173,-18.6752 738.3016,-25.292"/>
</g>
<!-- Node20&#45;&gt;Node6 -->
<g id="edge24" class="edge">
<title>Node20&#45;&gt;Node6</title>
<path fill="none" stroke="#191970" d="M574.5454,-65.4199C636.1756,-60.0208 747.5559,-47.8273 850.7575,-21.7269"/>
<polygon fill="#191970" stroke="#191970" points="851.9087,-25.0446 860.7173,-19.1574 850.1599,-18.2665 851.9087,-25.0446"/>
</g>
<!-- Node20&#45;&gt;Node7 -->
<g id="edge25" class="edge">
<title>Node20&#45;&gt;Node7</title>
<path fill="none" stroke="#191970" d="M480.3346,-64.8486C375.6278,-55.5547 128.2033,-33.1377 59.3182,-21.5651"/>
<polygon fill="#191970" stroke="#191970" points="59.6916,-18.0742 49.2177,-19.6702 58.4008,-24.9542 59.6916,-18.0742"/>
</g>
<!-- Node20&#45;&gt;Node8 -->
<g id="edge26" class="edge">
<title>Node20&#45;&gt;Node8</title>
<path fill="none" stroke="#191970" d="M574.5394,-62.4778C624.4525,-55.1037 705.7218,-41.8048 784.3898,-22.0223"/>
<polygon fill="#191970" stroke="#191970" points="785.644,-25.3144 794.4667,-19.4484 783.9116,-18.5321 785.644,-25.3144"/>
</g>
<!-- Node20&#45;&gt;Node9 -->
<g id="edge27" class="edge">
<title>Node20&#45;&gt;Node9</title>
<path fill="none" stroke="#191970" d="M480.2746,-64.5575C389.1804,-55.8102 192.2974,-35.9908 125.5,-22 124.0208,-21.6902 122.5151,-21.3466 120.9998,-20.9778"/>
<polygon fill="#191970" stroke="#191970" points="121.6056,-17.5156 111.0377,-18.2707 119.7699,-24.2706 121.6056,-17.5156"/>
</g>
<!-- Node20&#45;&gt;Node10 -->
<g id="edge28" class="edge">
<title>Node20&#45;&gt;Node10</title>
<path fill="none" stroke="#191970" d="M480.461,-64.1884C416.7843,-57.2276 299.8101,-42.8562 201.5,-22 201.0355,-21.9015 200.5683,-21.8005 200.099,-21.6972"/>
<polygon fill="#191970" stroke="#191970" points="200.6284,-18.2241 190.0849,-19.2656 198.9766,-25.0264 200.6284,-18.2241"/>
</g>
<!-- Node20&#45;&gt;Node11 -->
<g id="edge29" class="edge">
<title>Node20&#45;&gt;Node11</title>
<path fill="none" stroke="#191970" d="M480.492,-61.5932C429.8448,-53.2887 347.0196,-38.7678 276.5,-22 276.3956,-21.9752 276.2911,-21.9502 276.1864,-21.9252"/>
<polygon fill="#191970" stroke="#191970" points="276.7844,-18.4651 266.2276,-19.3619 275.0395,-25.2442 276.7844,-18.4651"/>
</g>
<!-- Node20&#45;&gt;Node12 -->
<g id="edge30" class="edge">
<title>Node20&#45;&gt;Node12</title>
<path fill="none" stroke="#191970" d="M486.8902,-58.4117C451.1761,-49.0388 397.8128,-34.8855 351.5,-22 351.3966,-21.9712 351.2931,-21.9424 351.1894,-21.9135"/>
<polygon fill="#191970" stroke="#191970" points="351.8657,-18.4677 341.2908,-19.117 349.9625,-25.204 351.8657,-18.4677"/>
</g>
<!-- Node20&#45;&gt;Node16 -->
<g id="edge31" class="edge">
<title>Node20&#45;&gt;Node16</title>
<path fill="none" stroke="#191970" d="M501.0605,-58.4966C475.9948,-48.539 438.3594,-33.588 412.0281,-23.1276"/>
<polygon fill="#191970" stroke="#191970" points="413.1254,-19.7975 402.5397,-19.3582 410.541,-26.303 413.1254,-19.7975"/>
</g>
<!-- Node20&#45;&gt;Node17 -->
<g id="edge32" class="edge">
<title>Node20&#45;&gt;Node17</title>
<path fill="none" stroke="#191970" d="M511.7263,-58.3619C498.8761,-49.6955 480.5152,-37.3126 465.7903,-27.3819"/>
<polygon fill="#191970" stroke="#191970" points="467.4215,-24.2604 457.1737,-21.5707 463.5075,-30.0639 467.4215,-24.2604"/>
</g>
<!-- Node20&#45;&gt;Node18 -->
<g id="edge33" class="edge">
<title>Node20&#45;&gt;Node18</title>
<path fill="none" stroke="#191970" d="M522.5478,-58.3619C518.9702,-50.6766 514.0319,-40.0686 509.7358,-30.8399"/>
<polygon fill="#191970" stroke="#191970" points="512.8142,-29.1594 505.4208,-21.5707 506.4681,-32.1136 512.8142,-29.1594"/>
</g>
<!-- Node20&#45;&gt;Node19 -->
<g id="edge34" class="edge">
<title>Node20&#45;&gt;Node19</title>
<path fill="none" stroke="#191970" d="M540.7059,-58.3619C551.2612,-49.859 566.2577,-37.7785 578.4629,-27.9466"/>
<polygon fill="#191970" stroke="#191970" points="580.7859,-30.5696 586.3778,-21.5707 576.3946,-25.1183 580.7859,-30.5696"/>
</g>
<!-- Node22 -->
<g id="node23" class="node">
<title>Node22</title>
<polygon fill="#ffffff" stroke="#bfbfbf" points="918,-.5 918,-21.5 961,-21.5 961,-.5 918,-.5"/>
<text text-anchor="middle" x="939.5" y="-7.9" font-family="Helvetica,sans-Serif" font-size="12.00" fill="#000000">cstdint</text>
</g>
<!-- Node21&#45;&gt;Node22 -->
<g id="edge36" class="edge">
<title>Node21&#45;&gt;Node22</title>
<path fill="none" stroke="#191970" d="M930.5176,-58.3619C931.9441,-50.8401 933.9016,-40.5187 935.6252,-31.4308"/>
<polygon fill="#191970" stroke="#191970" points="939.0705,-32.0477 937.4952,-21.5707 932.1931,-30.7433 939.0705,-32.0477"/>
</g>
</g>
</svg>
