<?xml version="1.0" encoding="UTF-8" standalone="no"?>
<!DOCTYPE svg PUBLIC "-//W3C//DTD SVG 1.1//EN"
 "http://www.w3.org/Graphics/SVG/1.1/DTD/svg11.dtd">
<!-- Generated by graphviz version 2.40.1 (20161225.0304)
 -->
<!-- Title: signal_detection.cpp Pages: 1 -->
<svg width="1039pt" height="204pt"
 viewBox="0.00 0.00 1038.50 204.00" xmlns="http://www.w3.org/2000/svg" xmlns:xlink="http://www.w3.org/1999/xlink">
<g id="graph0" class="graph" transform="scale(1 1) rotate(0) translate(4 200)">
<title>signal_detection.cpp</title>
<polygon fill="#ffffff" stroke="transparent" points="-4,4 -4,-200 1034.5,-200 1034.5,4 -4,4"/>
<!-- Node0 -->
<g id="node1" class="node">
<title>Node0</title>
<polygon fill="#bfbfbf" stroke="#000000" points="696,-174.5 696,-195.5 795,-195.5 795,-174.5 696,-174.5"/>
<text text-anchor="middle" x="745.5" y="-181.9" font-family="Helvetica,sans-Serif" font-size="12.00" fill="#000000">signal_detection.cpp</text>
</g>
<!-- Node1 -->
<g id="node2" class="node">
<title>Node1</title>
<g id="a_node2"><a xlink:href="../../da/d8e/signal__detection_8hpp.html" target="_top" xlink:title="timemory/signal_detection.hpp">
<polygon fill="#ffffff" stroke="#000000" points="436,-116.5 436,-137.5 575,-137.5 575,-116.5 436,-116.5"/>
<text text-anchor="middle" x="505.5" y="-123.9" font-family="Helvetica,sans-Serif" font-size="12.00" fill="#000000">timemory/signal_detection.hpp</text>
</a>
</g>
</g>
<!-- Node0&#45;&gt;Node1 -->
<g id="edge1" class="edge">
<title>Node0&#45;&gt;Node1</title>
<path fill="none" stroke="#191970" d="M702.0378,-174.4966C661.8104,-164.775 601.8881,-150.2938 558.7912,-139.8787"/>
<polygon fill="#191970" stroke="#191970" points="559.5861,-136.4701 549.0437,-137.5231 557.9417,-143.2742 559.5861,-136.4701"/>
</g>
<!-- Node4 -->
<g id="node5" class="node">
<title>Node4</title>
<polygon fill="#ffffff" stroke="#bfbfbf" points="988.5,-.5 988.5,-21.5 1030.5,-21.5 1030.5,-.5 988.5,-.5"/>
<text text-anchor="middle" x="1009.5" y="-7.9" font-family="Helvetica,sans-Serif" font-size="12.00" fill="#000000">cstdlib</text>
</g>
<!-- Node0&#45;&gt;Node4 -->
<g id="edge38" class="edge">
<title>Node0&#45;&gt;Node4</title>
<path fill="none" stroke="#191970" d="M767.2939,-174.3907C785.386,-165.341 811.6047,-151.6605 833.5,-138 891.605,-101.7482 955.9214,-52.9542 988.339,-27.7018"/>
<polygon fill="#191970" stroke="#191970" points="990.519,-30.4402 996.2383,-21.5217 986.2056,-24.927 990.519,-30.4402"/>
</g>
<!-- Node7 -->
<g id="node8" class="node">
<title>Node7</title>
<polygon fill="#ffffff" stroke="#bfbfbf" points="0,-.5 0,-21.5 39,-21.5 39,-.5 0,-.5"/>
<text text-anchor="middle" x="19.5" y="-7.9" font-family="Helvetica,sans-Serif" font-size="12.00" fill="#000000">string</text>
</g>
<!-- Node0&#45;&gt;Node7 -->
<g id="edge37" class="edge">
<title>Node0&#45;&gt;Node7</title>
<path fill="none" stroke="#191970" d="M695.9059,-183.0571C555.9107,-176.7142 161.1354,-152.6557 57.5,-80 41.0321,-68.4548 30.9443,-47.4037 25.3409,-31.5782"/>
<polygon fill="#191970" stroke="#191970" points="28.5401,-30.0925 22.1547,-21.638 21.8742,-32.2291 28.5401,-30.0925"/>
</g>
<!-- Node8 -->
<g id="node9" class="node">
<title>Node8</title>
<polygon fill="#ffffff" stroke="#bfbfbf" points="921,-.5 921,-21.5 970,-21.5 970,-.5 921,-.5"/>
<text text-anchor="middle" x="945.5" y="-7.9" font-family="Helvetica,sans-Serif" font-size="12.00" fill="#000000">sstream</text>
</g>
<!-- Node0&#45;&gt;Node8 -->
<g id="edge36" class="edge">
<title>Node0&#45;&gt;Node8</title>
<path fill="none" stroke="#191970" d="M759.3853,-174.3492C783.3833,-155.799 833.9426,-116.0881 874.5,-80 893.3521,-63.2254 913.9323,-42.9976 928.0583,-28.7943"/>
<polygon fill="#191970" stroke="#191970" points="930.6465,-31.1547 935.1901,-21.5836 925.6696,-26.2322 930.6465,-31.1547"/>
</g>
<!-- Node2 -->
<g id="node3" class="node">
<title>Node2</title>
<polygon fill="#ffffff" stroke="#bfbfbf" points="438,-58.5 438,-79.5 477,-79.5 477,-58.5 438,-58.5"/>
<text text-anchor="middle" x="457.5" y="-65.9" font-family="Helvetica,sans-Serif" font-size="12.00" fill="#000000">mpi.h</text>
</g>
<!-- Node1&#45;&gt;Node2 -->
<g id="edge2" class="edge">
<title>Node1&#45;&gt;Node2</title>
<path fill="none" stroke="#191970" d="M496.6961,-116.3619C489.9975,-108.2678 480.616,-96.9318 472.7107,-87.3796"/>
<polygon fill="#191970" stroke="#191970" points="475.3202,-85.0431 466.2481,-79.5707 469.9275,-89.5061 475.3202,-85.0431"/>
</g>
<!-- Node3 -->
<g id="node4" class="node">
<title>Node3</title>
<polygon fill="#ffffff" stroke="#bfbfbf" points="604,-.5 604,-21.5 655,-21.5 655,-.5 604,-.5"/>
<text text-anchor="middle" x="629.5" y="-7.9" font-family="Helvetica,sans-Serif" font-size="12.00" fill="#000000">iostream</text>
</g>
<!-- Node1&#45;&gt;Node3 -->
<g id="edge3" class="edge">
<title>Node1&#45;&gt;Node3</title>
<path fill="none" stroke="#191970" d="M551.6525,-116.4145C585.1685,-107.6839 626.3497,-94.4255 636.5,-80 646.313,-66.0538 643.1261,-46.4205 638.3196,-31.6609"/>
<polygon fill="#191970" stroke="#191970" points="641.4647,-30.0769 634.6962,-21.9259 634.9044,-32.5187 641.4647,-30.0769"/>
</g>
<!-- Node1&#45;&gt;Node4 -->
<g id="edge4" class="edge">
<title>Node1&#45;&gt;Node4</title>
<path fill="none" stroke="#191970" d="M575.1756,-121.0129C666.1529,-112.6976 820.201,-96.7725 874.5,-80 915.2187,-67.4224 958.4324,-43.154 984.6973,-27.0138"/>
<polygon fill="#191970" stroke="#191970" points="986.6189,-29.9404 993.2489,-21.6764 982.9124,-24.0021 986.6189,-29.9404"/>
</g>
<!-- Node5 -->
<g id="node6" class="node">
<title>Node5</title>
<polygon fill="#ffffff" stroke="#bfbfbf" points="722,-58.5 722,-79.5 767,-79.5 767,-58.5 722,-58.5"/>
<text text-anchor="middle" x="744.5" y="-65.9" font-family="Helvetica,sans-Serif" font-size="12.00" fill="#000000">stdlib.h</text>
</g>
<!-- Node1&#45;&gt;Node5 -->
<g id="edge5" class="edge">
<title>Node1&#45;&gt;Node5</title>
<path fill="none" stroke="#191970" d="M554.6866,-116.4268C595.7164,-107.3987 655.6373,-93.7295 707.5,-80 708.9576,-79.6141 710.4448,-79.2111 711.9452,-78.7969"/>
<polygon fill="#191970" stroke="#191970" points="713.208,-82.0763 721.8629,-75.9654 711.2862,-75.3453 713.208,-82.0763"/>
</g>
<!-- Node6 -->
<g id="node7" class="node">
<title>Node6</title>
<polygon fill="#ffffff" stroke="#bfbfbf" points="673,-.5 673,-21.5 702,-21.5 702,-.5 673,-.5"/>
<text text-anchor="middle" x="687.5" y="-7.9" font-family="Helvetica,sans-Serif" font-size="12.00" fill="#000000">set</text>
</g>
<!-- Node1&#45;&gt;Node6 -->
<g id="edge6" class="edge">
<title>Node1&#45;&gt;Node6</title>
<path fill="none" stroke="#191970" d="M575.32,-116.8828C602.185,-110.1043 631.6285,-98.8079 653.5,-80 668.2264,-67.3364 677.1939,-46.7915 682.1929,-31.4075"/>
<polygon fill="#191970" stroke="#191970" points="685.5717,-32.3234 685.0417,-21.7418 678.8573,-30.3443 685.5717,-32.3234"/>
</g>
<!-- Node1&#45;&gt;Node7 -->
<g id="edge7" class="edge">
<title>Node1&#45;&gt;Node7</title>
<path fill="none" stroke="#191970" d="M435.5947,-124.3719C334.1572,-119.6639 151.8006,-107.5761 92.5,-80 68.2173,-68.708 46.7995,-46.1352 33.5471,-29.8784"/>
<polygon fill="#191970" stroke="#191970" points="35.9849,-27.3153 27.0584,-21.6084 30.4777,-31.6364 35.9849,-27.3153"/>
</g>
<!-- Node1&#45;&gt;Node8 -->
<g id="edge8" class="edge">
<title>Node1&#45;&gt;Node8</title>
<path fill="none" stroke="#191970" d="M575.2771,-120.7757C658.5605,-112.7217 792.4779,-97.6144 839.5,-80 872.0664,-67.8007 904.9077,-44.2872 925.2196,-28.1277"/>
<polygon fill="#191970" stroke="#191970" points="927.5672,-30.7299 933.1202,-21.7069 923.1524,-25.2976 927.5672,-30.7299"/>
</g>
<!-- Node9 -->
<g id="node10" class="node">
<title>Node9</title>
<polygon fill="#ffffff" stroke="#bfbfbf" points="720.5,-.5 720.5,-21.5 768.5,-21.5 768.5,-.5 720.5,-.5"/>
<text text-anchor="middle" x="744.5" y="-7.9" font-family="Helvetica,sans-Serif" font-size="12.00" fill="#000000">iomanip</text>
</g>
<!-- Node1&#45;&gt;Node9 -->
<g id="edge9" class="edge">
<title>Node1&#45;&gt;Node9</title>
<path fill="none" stroke="#191970" d="M575.248,-124.7785C646.8435,-120.8554 751.2506,-110.0054 776.5,-80 789.1255,-64.9963 776.3358,-44.1814 763.3681,-29.3458"/>
<polygon fill="#191970" stroke="#191970" points="765.6924,-26.7071 756.3057,-21.7938 760.5797,-31.4884 765.6924,-26.7071"/>
</g>
<!-- Node10 -->
<g id="node11" class="node">
<title>Node10</title>
<polygon fill="#ffffff" stroke="#bfbfbf" points="787,-.5 787,-21.5 830,-21.5 830,-.5 787,-.5"/>
<text text-anchor="middle" x="808.5" y="-7.9" font-family="Helvetica,sans-Serif" font-size="12.00" fill="#000000">cstring</text>
</g>
<!-- Node1&#45;&gt;Node10 -->
<g id="edge10" class="edge">
<title>Node1&#45;&gt;Node10</title>
<path fill="none" stroke="#191970" d="M575.2963,-124.2987C649.9816,-119.9376 761.8665,-108.689 792.5,-80 805.5005,-67.8248 808.9117,-47.3383 809.423,-31.8431"/>
<polygon fill="#191970" stroke="#191970" points="812.9222,-31.6172 809.3785,-21.6326 805.9223,-31.6478 812.9222,-31.6172"/>
</g>
<!-- Node11 -->
<g id="node12" class="node">
<title>Node11</title>
<polygon fill="#ffffff" stroke="#bfbfbf" points="848,-.5 848,-21.5 903,-21.5 903,-.5 848,-.5"/>
<text text-anchor="middle" x="875.5" y="-7.9" font-family="Helvetica,sans-Serif" font-size="12.00" fill="#000000">exception</text>
</g>
<!-- Node1&#45;&gt;Node11 -->
<g id="edge11" class="edge">
<title>Node1&#45;&gt;Node11</title>
<path fill="none" stroke="#191970" d="M575.2329,-121.7327C652.8316,-114.9334 772.5662,-101.3705 812.5,-80 834.1397,-68.4196 852.2071,-46.4248 863.3656,-30.3715"/>
<polygon fill="#191970" stroke="#191970" points="866.4893,-31.9948 869.112,-21.7297 860.6603,-28.1188 866.4893,-31.9948"/>
</g>
<!-- Node12 -->
<g id="node13" class="node">
<title>Node12</title>
<polygon fill="#ffffff" stroke="#bfbfbf" points="81,-.5 81,-21.5 136,-21.5 136,-.5 81,-.5"/>
<text text-anchor="middle" x="108.5" y="-7.9" font-family="Helvetica,sans-Serif" font-size="12.00" fill="#000000">stdexcept</text>
</g>
<!-- Node1&#45;&gt;Node12 -->
<g id="edge12" class="edge">
<title>Node1&#45;&gt;Node12</title>
<path fill="none" stroke="#191970" d="M435.9306,-123.7955C326.9489,-118.0543 126.1062,-104.2865 104.5,-80 92.9004,-66.9615 95.7717,-46.4676 100.4154,-31.1977"/>
<polygon fill="#191970" stroke="#191970" points="103.7685,-32.2114 103.7573,-21.6166 97.159,-29.9059 103.7685,-32.2114"/>
</g>
<!-- Node13 -->
<g id="node14" class="node">
<title>Node13</title>
<polygon fill="#ffffff" stroke="#bfbfbf" points="193,-.5 193,-21.5 248,-21.5 248,-.5 193,-.5"/>
<text text-anchor="middle" x="220.5" y="-7.9" font-family="Helvetica,sans-Serif" font-size="12.00" fill="#000000">functional</text>
</g>
<!-- Node1&#45;&gt;Node13 -->
<g id="edge13" class="edge">
<title>Node1&#45;&gt;Node13</title>
<path fill="none" stroke="#191970" d="M435.9327,-123.5701C329.2798,-117.591 135.4264,-103.5924 114.5,-80 89.9857,-52.3625 143.4749,-31.25 183.0283,-20.0228"/>
<polygon fill="#191970" stroke="#191970" points="183.9979,-23.3864 192.7281,-17.3835 182.1599,-16.6319 183.9979,-23.3864"/>
</g>
<!-- Node14 -->
<g id="node15" class="node">
<title>Node14</title>
<polygon fill="#ffffff" stroke="#bfbfbf" points="123.5,-58.5 123.5,-79.5 161.5,-79.5 161.5,-58.5 123.5,-58.5"/>
<text text-anchor="middle" x="142.5" y="-65.9" font-family="Helvetica,sans-Serif" font-size="12.00" fill="#000000">cfenv</text>
</g>
<!-- Node1&#45;&gt;Node14 -->
<g id="edge14" class="edge">
<title>Node1&#45;&gt;Node14</title>
<path fill="none" stroke="#191970" d="M435.9136,-122.0312C369.768,-116.2292 267.5926,-104.4633 171.4628,-79.771"/>
<polygon fill="#191970" stroke="#191970" points="172.1422,-76.3309 161.5816,-77.1809 170.3673,-83.1021 172.1422,-76.3309"/>
</g>
<!-- Node15 -->
<g id="node16" class="node">
<title>Node15</title>
<polygon fill="#ffffff" stroke="#bfbfbf" points="179.5,-58.5 179.5,-79.5 237.5,-79.5 237.5,-58.5 179.5,-58.5"/>
<text text-anchor="middle" x="208.5" y="-65.9" font-family="Helvetica,sans-Serif" font-size="12.00" fill="#000000">execinfo.h</text>
</g>
<!-- Node1&#45;&gt;Node15 -->
<g id="edge15" class="edge">
<title>Node1&#45;&gt;Node15</title>
<path fill="none" stroke="#191970" d="M436.6687,-116.4775C386.6041,-108.3706 317.0406,-96.1741 247.6659,-80.1177"/>
<polygon fill="#191970" stroke="#191970" points="248.4147,-76.6985 237.8801,-77.8265 246.8188,-83.5141 248.4147,-76.6985"/>
</g>
<!-- Node16 -->
<g id="node17" class="node">
<title>Node16</title>
<polygon fill="#ffffff" stroke="#bfbfbf" points="255.5,-58.5 255.5,-79.5 305.5,-79.5 305.5,-58.5 255.5,-58.5"/>
<text text-anchor="middle" x="280.5" y="-65.9" font-family="Helvetica,sans-Serif" font-size="12.00" fill="#000000">cxxabi.h</text>
</g>
<!-- Node1&#45;&gt;Node16 -->
<g id="edge16" class="edge">
<title>Node1&#45;&gt;Node16</title>
<path fill="none" stroke="#191970" d="M462.1921,-116.4131C424.4397,-107.0992 368.2479,-93.0311 319.5,-80 318.2384,-79.6628 316.9548,-79.3166 315.6588,-78.9646"/>
<polygon fill="#191970" stroke="#191970" points="316.2181,-75.4882 305.6474,-76.2021 314.3561,-82.236 316.2181,-75.4882"/>
</g>
<!-- Node17 -->
<g id="node18" class="node">
<title>Node17</title>
<polygon fill="#ffffff" stroke="#bfbfbf" points="286.5,-.5 286.5,-21.5 328.5,-21.5 328.5,-.5 286.5,-.5"/>
<text text-anchor="middle" x="307.5" y="-7.9" font-family="Helvetica,sans-Serif" font-size="12.00" fill="#000000">deque</text>
</g>
<!-- Node1&#45;&gt;Node17 -->
<g id="edge17" class="edge">
<title>Node1&#45;&gt;Node17</title>
<path fill="none" stroke="#191970" d="M475.0623,-116.4528C452.3851,-108.0179 421.0571,-95.1251 395.5,-80 370.0862,-64.9598 343.8049,-43.4324 326.6593,-28.4369"/>
<polygon fill="#191970" stroke="#191970" points="328.8226,-25.6772 319.02,-21.6572 324.1761,-30.9128 328.8226,-25.6772"/>
</g>
<!-- Node18 -->
<g id="node19" class="node">
<title>Node18</title>
<polygon fill="#ffffff" stroke="#bfbfbf" points="347,-.5 347,-21.5 388,-21.5 388,-.5 347,-.5"/>
<text text-anchor="middle" x="367.5" y="-7.9" font-family="Helvetica,sans-Serif" font-size="12.00" fill="#000000">cmath</text>
</g>
<!-- Node1&#45;&gt;Node18 -->
<g id="edge18" class="edge">
<title>Node1&#45;&gt;Node18</title>
<path fill="none" stroke="#191970" d="M479.2798,-116.4987C460.9689,-108.3331 436.6513,-95.7536 418.5,-80 402.2578,-65.9033 388.1148,-45.7608 378.8692,-30.8753"/>
<polygon fill="#191970" stroke="#191970" points="381.6727,-28.7447 373.5278,-21.9689 375.6695,-32.345 381.6727,-28.7447"/>
</g>
<!-- Node19 -->
<g id="node20" class="node">
<title>Node19</title>
<polygon fill="#ffffff" stroke="#bfbfbf" points="406,-.5 406,-21.5 447,-21.5 447,-.5 406,-.5"/>
<text text-anchor="middle" x="426.5" y="-7.9" font-family="Helvetica,sans-Serif" font-size="12.00" fill="#000000">vector</text>
</g>
<!-- Node1&#45;&gt;Node19 -->
<g id="edge19" class="edge">
<title>Node1&#45;&gt;Node19</title>
<path fill="none" stroke="#191970" d="M475.0315,-116.3484C458.542,-108.8812 439.542,-97.1312 429.5,-80 420.9958,-65.4921 420.9092,-46.1708 422.5696,-31.6646"/>
<polygon fill="#191970" stroke="#191970" points="426.0466,-32.0783 424.0692,-21.6696 419.1241,-31.0396 426.0466,-32.0783"/>
</g>
<!-- Node20 -->
<g id="node21" class="node">
<title>Node20</title>
<g id="a_node21"><a xlink:href="../../db/d19/namespace_8hpp.html" target="_top" xlink:title="timemory/namespace.hpp">
<polygon fill="#ffffff" stroke="#000000" points="465.5,-.5 465.5,-21.5 585.5,-21.5 585.5,-.5 465.5,-.5"/>
<text text-anchor="middle" x="525.5" y="-7.9" font-family="Helvetica,sans-Serif" font-size="12.00" fill="#000000">timemory/namespace.hpp</text>
</a>
</g>
</g>
<!-- Node1&#45;&gt;Node20 -->
<g id="edge20" class="edge">
<title>Node1&#45;&gt;Node20</title>
<path fill="none" stroke="#191970" d="M507.3457,-116.2949C510.6498,-97.1314 517.6286,-56.654 521.9063,-31.8434"/>
<polygon fill="#191970" stroke="#191970" points="525.4087,-32.1285 523.6588,-21.6792 518.5105,-30.9391 525.4087,-32.1285"/>
</g>
<!-- Node21 -->
<g id="node22" class="node">
<title>Node21</title>
<g id="a_node22"><a xlink:href="../../d1/d4e/utility_8hpp.html" target="_top" xlink:title="timemory/utility.hpp">
<polygon fill="#ffffff" stroke="#000000" points="533.5,-58.5 533.5,-79.5 627.5,-79.5 627.5,-58.5 533.5,-58.5"/>
<text text-anchor="middle" x="580.5" y="-65.9" font-family="Helvetica,sans-Serif" font-size="12.00" fill="#000000">timemory/utility.hpp</text>
</a>
</g>
</g>
<!-- Node1&#45;&gt;Node21 -->
<g id="edge21" class="edge">
<title>Node1&#45;&gt;Node21</title>
<path fill="none" stroke="#191970" d="M519.2562,-116.3619C530.2512,-107.859 545.8726,-95.7785 558.5864,-85.9466"/>
<polygon fill="#191970" stroke="#191970" points="561.0616,-88.4569 566.8311,-79.5707 556.7794,-82.9195 561.0616,-88.4569"/>
</g>
<!-- Node21&#45;&gt;Node3 -->
<g id="edge22" class="edge">
<title>Node21&#45;&gt;Node3</title>
<path fill="none" stroke="#191970" d="M589.4874,-58.3619C596.3255,-50.2678 605.9024,-38.9318 613.9724,-29.3796"/>
<polygon fill="#191970" stroke="#191970" points="616.7897,-31.4683 620.5696,-21.5707 611.4425,-26.9508 616.7897,-31.4683"/>
</g>
<!-- Node21&#45;&gt;Node4 -->
<g id="edge23" class="edge">
<title>Node21&#45;&gt;Node4</title>
<path fill="none" stroke="#191970" d="M627.794,-64.8295C714.7668,-56.9385 897.855,-39.2424 978.6005,-21.6895"/>
<polygon fill="#191970" stroke="#191970" points="979.4231,-25.0918 988.3838,-19.4389 977.8536,-18.27 979.4231,-25.0918"/>
</g>
<!-- Node21&#45;&gt;Node6 -->
<g id="edge24" class="edge">
<title>Node21&#45;&gt;Node6</title>
<path fill="none" stroke="#191970" d="M600.1254,-58.3619C618.0865,-48.626 644.7007,-34.1996 663.8329,-23.8289"/>
<polygon fill="#191970" stroke="#191970" points="665.6879,-26.8045 672.8115,-18.962 662.3521,-20.6505 665.6879,-26.8045"/>
</g>
<!-- Node21&#45;&gt;Node7 -->
<g id="edge25" class="edge">
<title>Node21&#45;&gt;Node7</title>
<path fill="none" stroke="#191970" d="M533.1922,-63.1837C518.2643,-61.4236 501.702,-59.5485 486.5,-58 302.3159,-39.2388 254.6269,-49.2084 71.5,-22 64.1796,-20.9124 56.3421,-19.4265 49.03,-17.8988"/>
<polygon fill="#191970" stroke="#191970" points="49.6672,-14.4556 39.1515,-15.7482 48.1781,-21.2954 49.6672,-14.4556"/>
</g>
<!-- Node21&#45;&gt;Node8 -->
<g id="edge26" class="edge">
<title>Node21&#45;&gt;Node8</title>
<path fill="none" stroke="#191970" d="M627.7318,-65.0287C690.6048,-59.1474 805.2764,-46.349 910.9077,-22.0834"/>
<polygon fill="#191970" stroke="#191970" points="911.8317,-25.4618 920.7724,-19.7771 910.2381,-18.6456 911.8317,-25.4618"/>
</g>
<!-- Node21&#45;&gt;Node9 -->
<g id="edge27" class="edge">
<title>Node21&#45;&gt;Node9</title>
<path fill="none" stroke="#191970" d="M610.1992,-58.4966C638.5614,-48.4661 681.2506,-33.3687 710.856,-22.8985"/>
<polygon fill="#191970" stroke="#191970" points="712.0942,-26.1731 720.3549,-19.5391 709.7602,-19.5737 712.0942,-26.1731"/>
</g>
<!-- Node21&#45;&gt;Node10 -->
<g id="edge28" class="edge">
<title>Node21&#45;&gt;Node10</title>
<path fill="none" stroke="#191970" d="M627.8422,-59.1934C665.7871,-50.9988 720.5336,-38.4288 777.0863,-21.8988"/>
<polygon fill="#191970" stroke="#191970" points="778.3204,-25.1837 786.9164,-18.9903 776.3343,-18.4714 778.3204,-25.1837"/>
</g>
<!-- Node21&#45;&gt;Node11 -->
<g id="edge29" class="edge">
<title>Node21&#45;&gt;Node11</title>
<path fill="none" stroke="#191970" d="M627.6356,-62.1454C677.6698,-54.4922 759.1908,-40.9488 837.6353,-22.2761"/>
<polygon fill="#191970" stroke="#191970" points="838.7809,-25.6002 847.6809,-19.8521 837.1389,-18.7955 838.7809,-25.6002"/>
</g>
<!-- Node21&#45;&gt;Node12 -->
<g id="edge30" class="edge">
<title>Node21&#45;&gt;Node12</title>
<path fill="none" stroke="#191970" d="M533.148,-63.4298C431.5932,-51.4785 200.6364,-24.2706 183.5,-22 171.3916,-20.3956 158.2048,-18.5087 146.3132,-16.755"/>
<polygon fill="#191970" stroke="#191970" points="146.6622,-13.2685 136.256,-15.2586 145.632,-20.1923 146.6622,-13.2685"/>
</g>
<!-- Node21&#45;&gt;Node13 -->
<g id="edge31" class="edge">
<title>Node21&#45;&gt;Node13</title>
<path fill="none" stroke="#191970" d="M533.4367,-62.2472C473.7843,-53.5623 367.8371,-37.7176 277.5,-22 271.1794,-20.9003 264.4778,-19.6673 257.9755,-18.4354"/>
<polygon fill="#191970" stroke="#191970" points="258.4858,-14.9695 248.005,-16.5197 257.1649,-21.8438 258.4858,-14.9695"/>
</g>
<!-- Node21&#45;&gt;Node17 -->
<g id="edge32" class="edge">
<title>Node21&#45;&gt;Node17</title>
<path fill="none" stroke="#191970" d="M533.3981,-62.1871C486.1807,-54.8477 411.3411,-41.8314 338.4687,-21.9574"/>
<polygon fill="#191970" stroke="#191970" points="339.2395,-18.5392 328.6678,-19.239 337.3685,-25.2845 339.2395,-18.5392"/>
</g>
<!-- Node21&#45;&gt;Node18 -->
<g id="edge33" class="edge">
<title>Node21&#45;&gt;Node18</title>
<path fill="none" stroke="#191970" d="M533.1997,-58.4644C498.0539,-50.2882 448.8027,-38.1028 398.1236,-22.3122"/>
<polygon fill="#191970" stroke="#191970" points="398.9004,-18.8872 388.3106,-19.2143 396.793,-25.5624 398.9004,-18.8872"/>
</g>
<!-- Node21&#45;&gt;Node19 -->
<g id="edge34" class="edge">
<title>Node21&#45;&gt;Node19</title>
<path fill="none" stroke="#191970" d="M552.6118,-58.4966C525.5929,-48.3207 484.7279,-32.93 456.8916,-22.4462"/>
<polygon fill="#191970" stroke="#191970" points="457.8673,-19.0737 447.2754,-18.8245 455.4001,-25.6245 457.8673,-19.0737"/>
</g>
<!-- Node21&#45;&gt;Node20 -->
<g id="edge35" class="edge">
<title>Node21&#45;&gt;Node20</title>
<path fill="none" stroke="#191970" d="M570.4122,-58.3619C562.6592,-50.1861 551.7696,-38.7025 542.6549,-29.0907"/>
<polygon fill="#191970" stroke="#191970" points="544.9445,-26.4186 535.5239,-21.5707 539.8651,-31.2352 544.9445,-26.4186"/>
</g>
</g>
</svg>
