<?xml version="1.0" encoding="UTF-8" standalone="no"?>
<!DOCTYPE svg PUBLIC "-//W3C//DTD SVG 1.1//EN"
 "http://www.w3.org/Graphics/SVG/1.1/DTD/svg11.dtd">
<!-- Generated by graphviz version 2.40.1 (20161225.0304)
 -->
<!-- Title: NAME_TIM::manager Pages: 1 -->
<!--zoomable 1031 -->
<svg id="main" version="1.1" xmlns="http://www.w3.org/2000/svg" xmlns:xlink="http://www.w3.org/1999/xlink" xml:space="preserve" onload="init(evt)">
<style type="text/css"><![CDATA[
.edge:hover path { stroke: red; }
.edge:hover polygon { stroke: red; fill: red; }
]]></style>
<script type="text/javascript"><![CDATA[
var edges = document.getElementsByTagName('g');
if (edges && edges.length) {
  for (var i=0;i<edges.length;i++) {
    if (edges[i].id.substr(0,4)=='edge') {
      edges[i].setAttribute('class','edge');
    }
  }
}
]]></script>
        <defs>
                <circle id="rim" cx="0" cy="0" r="7"/>
                <circle id="rim2" cx="0" cy="0" r="3.5"/>
                <g id="zoomPlus">
                        <use xlink:href="#rim" fill="#404040">
                                <set attributeName="fill" to="#808080" begin="zoomplus.mouseover" end="zoomplus.mouseout"/>
                        </use>
                        <path d="M-4,0h8M0,-4v8" fill="none" stroke="white" stroke-width="1.5" pointer-events="none"/>
                </g>
                <g id="zoomMin">
                        <use xlink:href="#rim" fill="#404040">
                                <set attributeName="fill" to="#808080" begin="zoomminus.mouseover" end="zoomminus.mouseout"/>
                        </use>
                        <path d="M-4,0h8" fill="none" stroke="white" stroke-width="1.5" pointer-events="none"/>
                </g>
                <g id="dirArrow">
                        <path fill="none" stroke="white" stroke-width="1.5" d="M0,-3.0v7 M-2.5,-0.5L0,-3.0L2.5,-0.5"/>
                </g>
               <g id="resetDef">
                       <use xlink:href="#rim2" fill="#404040">
                               <set attributeName="fill" to="#808080" begin="reset.mouseover" end="reset.mouseout"/>
                       </use>
               </g>
        </defs>

<script type="text/javascript">
var viewWidth = 946;
var viewHeight = 1031;
var sectionId = 'dynsection-0';
</script>
<script xlink:href="../../svgpan.js"/>
<svg id="graph" class="graph">
<g id="viewport">
<title>NAME_TIM::manager</title>
<polygon fill="#ffffff" stroke="transparent" points="-4,4 -4,-1027 941.5,-1027 941.5,4 -4,4"/>
<!-- Node1 -->
<g id="node1" class="node">
<title>Node1</title>
<polygon fill="#bfbfbf" stroke="#000000" points="374.5,-113.5 374.5,-514.5 506.5,-514.5 506.5,-113.5 374.5,-113.5"/>
<text text-anchor="middle" x="440.5" y="-500.9" font-family="Helvetica,sans-Serif" font-size="12.00" fill="#000000">NAME_TIM::manager</text>
<polyline fill="none" stroke="#000000" points="374.5,-493.5 506.5,-493.5 "/>
<text text-anchor="middle" x="440.5" y="-479.9" font-family="Helvetica,sans-Serif" font-size="12.00" fill="#000000"> </text>
<polyline fill="none" stroke="#000000" points="374.5,-472.5 506.5,-472.5 "/>
<text text-anchor="start" x="382.5" y="-458.9" font-family="Helvetica,sans-Serif" font-size="12.00" fill="#000000">+ manager()</text>
<text text-anchor="start" x="382.5" y="-445.9" font-family="Helvetica,sans-Serif" font-size="12.00" fill="#000000">+ ~manager()</text>
<text text-anchor="start" x="382.5" y="-432.9" font-family="Helvetica,sans-Serif" font-size="12.00" fill="#000000">+ merge()</text>
<text text-anchor="start" x="382.5" y="-419.9" font-family="Helvetica,sans-Serif" font-size="12.00" fill="#000000">+ size()</text>
<text text-anchor="start" x="382.5" y="-406.9" font-family="Helvetica,sans-Serif" font-size="12.00" fill="#000000">+ clear()</text>
<text text-anchor="start" x="382.5" y="-393.9" font-family="Helvetica,sans-Serif" font-size="12.00" fill="#000000">+ timer()</text>
<text text-anchor="start" x="382.5" y="-380.9" font-family="Helvetica,sans-Serif" font-size="12.00" fill="#000000">+ at()</text>
<text text-anchor="start" x="382.5" y="-367.9" font-family="Helvetica,sans-Serif" font-size="12.00" fill="#000000">+ time()</text>
<text text-anchor="start" x="382.5" y="-354.9" font-family="Helvetica,sans-Serif" font-size="12.00" fill="#000000">+ time()</text>
<text text-anchor="start" x="382.5" y="-341.9" font-family="Helvetica,sans-Serif" font-size="12.00" fill="#000000">+ time()</text>
<text text-anchor="start" x="382.5" y="-328.9" font-family="Helvetica,sans-Serif" font-size="12.00" fill="#000000">and 31 more...</text>
<text text-anchor="start" x="382.5" y="-315.9" font-family="Helvetica,sans-Serif" font-size="12.00" fill="#000000">+ instance()</text>
<text text-anchor="start" x="382.5" y="-302.9" font-family="Helvetica,sans-Serif" font-size="12.00" fill="#000000">+ is_enabled()</text>
<text text-anchor="start" x="382.5" y="-289.9" font-family="Helvetica,sans-Serif" font-size="12.00" fill="#000000">+ enable()</text>
<text text-anchor="start" x="382.5" y="-276.9" font-family="Helvetica,sans-Serif" font-size="12.00" fill="#000000">+ write_json()</text>
<text text-anchor="start" x="382.5" y="-263.9" font-family="Helvetica,sans-Serif" font-size="12.00" fill="#000000">+ write_json()</text>
<text text-anchor="start" x="382.5" y="-250.9" font-family="Helvetica,sans-Serif" font-size="12.00" fill="#000000">+ max_depth()</text>
<text text-anchor="start" x="382.5" y="-237.9" font-family="Helvetica,sans-Serif" font-size="12.00" fill="#000000"># string_hash()</text>
<text text-anchor="start" x="382.5" y="-224.9" font-family="Helvetica,sans-Serif" font-size="12.00" fill="#000000"># const_merge()</text>
<text text-anchor="start" x="382.5" y="-211.9" font-family="Helvetica,sans-Serif" font-size="12.00" fill="#000000"># get_prefix()</text>
<text text-anchor="start" x="382.5" y="-198.9" font-family="Helvetica,sans-Serif" font-size="12.00" fill="#000000"># write_json_no_mpi()</text>
<text text-anchor="start" x="382.5" y="-185.9" font-family="Helvetica,sans-Serif" font-size="12.00" fill="#000000"># write_json_mpi()</text>
<text text-anchor="start" x="382.5" y="-172.9" font-family="Helvetica,sans-Serif" font-size="12.00" fill="#000000"># write_json_no_mpi()</text>
<text text-anchor="start" x="382.5" y="-159.9" font-family="Helvetica,sans-Serif" font-size="12.00" fill="#000000"># write_json_mpi()</text>
<text text-anchor="start" x="382.5" y="-146.9" font-family="Helvetica,sans-Serif" font-size="12.00" fill="#000000"># get_communicator_group()</text>
<text text-anchor="start" x="382.5" y="-133.9" font-family="Helvetica,sans-Serif" font-size="12.00" fill="#000000">&#45; get_ofstream()</text>
<text text-anchor="start" x="382.5" y="-120.9" font-family="Helvetica,sans-Serif" font-size="12.00" fill="#000000">&#45; report()</text>
</g>
<!-- Node1&#45;&gt;Node1 -->
<g id="edge2" class="edge">
<title>Node1&#45;&gt;Node1</title>
<path fill="none" stroke="#404040" d="M506.7015,-352.6777C517.2676,-347.0176 524.5,-334.125 524.5,-314 524.5,-300.4785 521.2352,-290.2219 515.888,-283.23"/>
<polygon fill="none" stroke="#404040" points="515.7961,-283.151 508.6392,-282.2682 506.7015,-275.3223 513.8583,-276.2051 515.7961,-283.151"/>
<text text-anchor="middle" x="548" y="-310.9" font-family="Helvetica,sans-Serif" font-size="12.00" fill="#000000"> &#45;f_instance</text>
</g>
<!-- Node10 -->
<g id="node10" class="node">
<title>Node10</title>
<polygon fill="#ffffff" stroke="#bfbfbf" points="339,-.5 339,-63.5 442,-63.5 442,-.5 339,-.5"/>
<text text-anchor="middle" x="390.5" y="-49.9" font-family="Helvetica,sans-Serif" font-size="12.00" fill="#000000">std::set&lt; this_type * &gt;</text>
<polyline fill="none" stroke="#bfbfbf" points="339,-42.5 442,-42.5 "/>
<text text-anchor="middle" x="390.5" y="-28.9" font-family="Helvetica,sans-Serif" font-size="12.00" fill="#000000"> </text>
<polyline fill="none" stroke="#bfbfbf" points="339,-21.5 442,-21.5 "/>
<text text-anchor="middle" x="390.5" y="-7.9" font-family="Helvetica,sans-Serif" font-size="12.00" fill="#000000"> </text>
</g>
<!-- Node1&#45;&gt;Node10 -->
<g id="edge11" class="edge">
<title>Node1&#45;&gt;Node10</title>
<path fill="none" stroke="#404040" d="M389.9608,-113.2523C389.0437,-107.1151 388.2182,-101.0207 387.5,-95 386.765,-88.8382 386.5024,-82.3171 386.5392,-75.8977"/>
<polygon fill="none" stroke="#404040" points="386.5425,-75.7934 382.7399,-69.6663 386.9331,-63.7997 390.7357,-69.9268 386.5425,-75.7934"/>
<text text-anchor="middle" x="401" y="-85.4" font-family="Helvetica,sans-Serif" font-size="12.00" fill="#000000"> +keys</text>
</g>
<!-- Node2 -->
<g id="node2" class="node">
<title>Node2</title>
<polygon fill="#ffffff" stroke="#bfbfbf" points="47,-584 47,-647 96,-647 96,-584 47,-584"/>
<text text-anchor="middle" x="71.5" y="-633.4" font-family="Helvetica,sans-Serif" font-size="12.00" fill="#000000">uint64_t</text>
<polyline fill="none" stroke="#bfbfbf" points="47,-626 96,-626 "/>
<text text-anchor="middle" x="71.5" y="-612.4" font-family="Helvetica,sans-Serif" font-size="12.00" fill="#000000"> </text>
<polyline fill="none" stroke="#bfbfbf" points="47,-605 96,-605 "/>
<text text-anchor="middle" x="71.5" y="-591.4" font-family="Helvetica,sans-Serif" font-size="12.00" fill="#000000"> </text>
</g>
<!-- Node2&#45;&gt;Node1 -->
<g id="edge1" class="edge">
<title>Node2&#45;&gt;Node1</title>
<path fill="none" stroke="#404040" d="M92.6586,-583.9652C104.2933,-567.8016 119.575,-548.3456 135.5,-533 206.1999,-464.8726 299.2827,-401.1038 363.9385,-360.1468"/>
<polygon fill="none" stroke="#404040" points="364.3079,-359.9142 367.2549,-353.3328 374.4636,-353.5218 371.5166,-360.1032 364.3079,-359.9142"/>
<text text-anchor="middle" x="156" y="-549.4" font-family="Helvetica,sans-Serif" font-size="12.00" fill="#000000"> &#45;m_count</text>
<text text-anchor="middle" x="156" y="-536.4" font-family="Helvetica,sans-Serif" font-size="12.00" fill="#000000">&#45;m_hash</text>
</g>
<!-- Node3 -->
<g id="node3" class="node">
<title>Node3</title>
<polygon fill="#ffffff" stroke="#bfbfbf" points="114.5,-584 114.5,-647 180.5,-647 180.5,-584 114.5,-584"/>
<text text-anchor="middle" x="147.5" y="-633.4" font-family="Helvetica,sans-Serif" font-size="12.00" fill="#000000">rss_usage_t</text>
<polyline fill="none" stroke="#bfbfbf" points="114.5,-626 180.5,-626 "/>
<text text-anchor="middle" x="147.5" y="-612.4" font-family="Helvetica,sans-Serif" font-size="12.00" fill="#000000"> </text>
<polyline fill="none" stroke="#bfbfbf" points="114.5,-605 180.5,-605 "/>
<text text-anchor="middle" x="147.5" y="-591.4" font-family="Helvetica,sans-Serif" font-size="12.00" fill="#000000"> </text>
</g>
<!-- Node3&#45;&gt;Node1 -->
<g id="edge3" class="edge">
<title>Node3&#45;&gt;Node1</title>
<path fill="none" stroke="#404040" d="M164.2113,-583.9309C173.3539,-567.943 185.4606,-548.656 198.5,-533 248.3238,-473.1782 314.374,-414.4869 364.8816,-372.9441"/>
<polygon fill="none" stroke="#404040" points="365.1525,-372.7228 367.2677,-365.8289 374.4449,-365.1299 372.3297,-372.0238 365.1525,-372.7228"/>
<text text-anchor="middle" x="228.5" y="-542.9" font-family="Helvetica,sans-Serif" font-size="12.00" fill="#000000"> &#45;m_rss_usage</text>
</g>
<!-- Node4 -->
<g id="node4" class="node">
<title>Node4</title>
<polygon fill="#ffffff" stroke="#bfbfbf" points="199,-584 199,-647 240,-647 240,-584 199,-584"/>
<text text-anchor="middle" x="219.5" y="-633.4" font-family="Helvetica,sans-Serif" font-size="12.00" fill="#000000">mutex</text>
<polyline fill="none" stroke="#bfbfbf" points="199,-626 240,-626 "/>
<text text-anchor="middle" x="219.5" y="-612.4" font-family="Helvetica,sans-Serif" font-size="12.00" fill="#000000"> </text>
<polyline fill="none" stroke="#bfbfbf" points="199,-605 240,-605 "/>
<text text-anchor="middle" x="219.5" y="-591.4" font-family="Helvetica,sans-Serif" font-size="12.00" fill="#000000"> </text>
</g>
<!-- Node4&#45;&gt;Node1 -->
<g id="edge4" class="edge">
<title>Node4&#45;&gt;Node1</title>
<path fill="none" stroke="#404040" d="M240.0927,-587.4064C268.8183,-548.2173 322.4035,-475.1136 366.941,-414.3532"/>
<polygon fill="none" stroke="#404040" points="367.1949,-414.0067 367.5159,-406.8027 374.2892,-404.3283 373.9682,-411.5323 367.1949,-414.0067"/>
<text text-anchor="middle" x="301" y="-542.9" font-family="Helvetica,sans-Serif" font-size="12.00" fill="#000000"> &#45;m_mutex</text>
</g>
<!-- Node5 -->
<g id="node5" class="node">
<title>Node5</title>
<polygon fill="#ffffff" stroke="#bfbfbf" points="258.5,-584 258.5,-647 384.5,-647 384.5,-584 258.5,-584"/>
<text text-anchor="middle" x="321.5" y="-633.4" font-family="Helvetica,sans-Serif" font-size="12.00" fill="#000000">std::deque&lt; timer_tuple_t &gt;</text>
<polyline fill="none" stroke="#bfbfbf" points="258.5,-626 384.5,-626 "/>
<text text-anchor="middle" x="321.5" y="-612.4" font-family="Helvetica,sans-Serif" font-size="12.00" fill="#000000"> </text>
<polyline fill="none" stroke="#bfbfbf" points="258.5,-605 384.5,-605 "/>
<text text-anchor="middle" x="321.5" y="-591.4" font-family="Helvetica,sans-Serif" font-size="12.00" fill="#000000"> </text>
</g>
<!-- Node5&#45;&gt;Node1 -->
<g id="edge5" class="edge">
<title>Node5&#45;&gt;Node1</title>
<path fill="none" stroke="#404040" d="M334.0102,-583.8041C343.0563,-560.8847 356.081,-527.8852 369.9353,-492.7838"/>
<polygon fill="none" stroke="#404040" points="370.0529,-492.4855 368.5351,-485.4359 374.4586,-481.3235 375.9764,-488.373 370.0529,-492.4855"/>
<text text-anchor="middle" x="380" y="-542.9" font-family="Helvetica,sans-Serif" font-size="12.00" fill="#000000"> &#45;m_timer_list</text>
</g>
<!-- Node6 -->
<g id="node6" class="node">
<title>Node6</title>
<g id="a_node6"><a xlink:href="../../d4/ddd/struct_n_a_m_e___t_i_m_1_1timer__tuple.html" target="_top" xlink:title="{NAME_TIM::timer_tuple\n||+ timer_tuple()\l+ timer_tuple()\l+ operator=()\l+ operator==()\l+ operator!=()\l+ operator+=()\l+ operator+()\l+ key()\l+ key()\l+ level()\land 6 more...\l}">
<polygon fill="#ffffff" stroke="#000000" points="202,-703.5 202,-896.5 315,-896.5 315,-703.5 202,-703.5"/>
<text text-anchor="middle" x="258.5" y="-882.9" font-family="Helvetica,sans-Serif" font-size="12.00" fill="#000000">NAME_TIM::timer_tuple</text>
<polyline fill="none" stroke="#000000" points="202,-875.5 315,-875.5 "/>
<text text-anchor="middle" x="258.5" y="-861.9" font-family="Helvetica,sans-Serif" font-size="12.00" fill="#000000"> </text>
<polyline fill="none" stroke="#000000" points="202,-854.5 315,-854.5 "/>
<text text-anchor="start" x="210" y="-840.9" font-family="Helvetica,sans-Serif" font-size="12.00" fill="#000000">+ timer_tuple()</text>
<text text-anchor="start" x="210" y="-827.9" font-family="Helvetica,sans-Serif" font-size="12.00" fill="#000000">+ timer_tuple()</text>
<text text-anchor="start" x="210" y="-814.9" font-family="Helvetica,sans-Serif" font-size="12.00" fill="#000000">+ operator=()</text>
<text text-anchor="start" x="210" y="-801.9" font-family="Helvetica,sans-Serif" font-size="12.00" fill="#000000">+ operator==()</text>
<text text-anchor="start" x="210" y="-788.9" font-family="Helvetica,sans-Serif" font-size="12.00" fill="#000000">+ operator!=()</text>
<text text-anchor="start" x="210" y="-775.9" font-family="Helvetica,sans-Serif" font-size="12.00" fill="#000000">+ operator+=()</text>
<text text-anchor="start" x="210" y="-762.9" font-family="Helvetica,sans-Serif" font-size="12.00" fill="#000000">+ operator+()</text>
<text text-anchor="start" x="210" y="-749.9" font-family="Helvetica,sans-Serif" font-size="12.00" fill="#000000">+ key()</text>
<text text-anchor="start" x="210" y="-736.9" font-family="Helvetica,sans-Serif" font-size="12.00" fill="#000000">+ key()</text>
<text text-anchor="start" x="210" y="-723.9" font-family="Helvetica,sans-Serif" font-size="12.00" fill="#000000">+ level()</text>
<text text-anchor="start" x="210" y="-710.9" font-family="Helvetica,sans-Serif" font-size="12.00" fill="#000000">and 6 more...</text>
</a>
</g>
</g>
<!-- Node6&#45;&gt;Node5 -->
<g id="edge6" class="edge">
<title>Node6&#45;&gt;Node5</title>
<path fill="none" stroke="#404040" d="M277.8929,-703.2838C281.0012,-692.5847 284.5267,-681.9645 288.5,-672 290.3697,-667.3111 292.5846,-662.5476 294.9685,-657.8767"/>
<polygon fill="none" stroke="#404040" points="295.0269,-657.7692 294.3761,-650.5875 300.755,-647.2246 301.4058,-654.4063 295.0269,-657.7692"/>
<text text-anchor="middle" x="311" y="-675.4" font-family="Helvetica,sans-Serif" font-size="12.00" fill="#000000"> +elements</text>
</g>
<!-- Node7 -->
<g id="node7" class="node">
<title>Node7</title>
<polygon fill="#ffffff" stroke="#bfbfbf" points="210.5,-946.5 210.5,-1022.5 306.5,-1022.5 306.5,-946.5 210.5,-946.5"/>
<text text-anchor="start" x="218.5" y="-1008.9" font-family="Helvetica,sans-Serif" font-size="12.00" fill="#000000">internal::base_timer</text>
<text text-anchor="middle" x="258.5" y="-995.9" font-family="Helvetica,sans-Serif" font-size="12.00" fill="#000000">_tuple_t</text>
<polyline fill="none" stroke="#bfbfbf" points="210.5,-988.5 306.5,-988.5 "/>
<text text-anchor="middle" x="258.5" y="-974.9" font-family="Helvetica,sans-Serif" font-size="12.00" fill="#000000"> </text>
<polyline fill="none" stroke="#bfbfbf" points="210.5,-967.5 306.5,-967.5 "/>
<text text-anchor="middle" x="258.5" y="-953.9" font-family="Helvetica,sans-Serif" font-size="12.00" fill="#000000"> </text>
</g>
<!-- Node7&#45;&gt;Node6 -->
<g id="edge7" class="edge">
<title>Node7&#45;&gt;Node6</title>
<path fill="none" stroke="#191970" d="M258.5,-935.9738C258.5,-923.8371 258.5,-910.387 258.5,-896.8048"/>
<polygon fill="none" stroke="#191970" points="255.0001,-936.2714 258.5,-946.2715 262.0001,-936.2715 255.0001,-936.2714"/>
</g>
<!-- Node8 -->
<g id="node8" class="node">
<title>Node8</title>
<g id="a_node8"><a xlink:title="STL class. ">
<polygon fill="#ffffff" stroke="#bfbfbf" points="333.5,-768.5 333.5,-831.5 413.5,-831.5 413.5,-768.5 333.5,-768.5"/>
<text text-anchor="middle" x="373.5" y="-817.9" font-family="Helvetica,sans-Serif" font-size="12.00" fill="#000000">std::deque&lt; T &gt;</text>
<polyline fill="none" stroke="#bfbfbf" points="333.5,-810.5 413.5,-810.5 "/>
<text text-anchor="middle" x="373.5" y="-796.9" font-family="Helvetica,sans-Serif" font-size="12.00" fill="#000000"> </text>
<polyline fill="none" stroke="#bfbfbf" points="333.5,-789.5 413.5,-789.5 "/>
<text text-anchor="middle" x="373.5" y="-775.9" font-family="Helvetica,sans-Serif" font-size="12.00" fill="#000000"> </text>
</a>
</g>
</g>
<!-- Node8&#45;&gt;Node5 -->
<g id="edge8" class="edge">
<title>Node8&#45;&gt;Node5</title>
<path fill="none" stroke="#ffa500" d="M361.7379,-758.2673C352.2328,-724.5423 339.0569,-677.7931 330.4093,-647.111"/>
<polygon fill="#ffa500" stroke="#ffa500" points="358.4793,-759.6078 364.5609,-768.2833 365.2168,-757.7088 358.4793,-759.6078"/>
<text text-anchor="middle" x="375" y="-675.4" font-family="Helvetica,sans-Serif" font-size="12.00" fill="#000000"> &lt; timer_tuple_t &gt;</text>
</g>
<!-- Node9 -->
<g id="node9" class="node">
<title>Node9</title>
<polygon fill="#ffffff" stroke="#bfbfbf" points="359,-953 359,-1016 388,-1016 388,-953 359,-953"/>
<text text-anchor="middle" x="373.5" y="-1002.4" font-family="Helvetica,sans-Serif" font-size="12.00" fill="#000000">T</text>
<polyline fill="none" stroke="#bfbfbf" points="359,-995 388,-995 "/>
<text text-anchor="middle" x="373.5" y="-981.4" font-family="Helvetica,sans-Serif" font-size="12.00" fill="#000000"> </text>
<polyline fill="none" stroke="#bfbfbf" points="359,-974 388,-974 "/>
<text text-anchor="middle" x="373.5" y="-960.4" font-family="Helvetica,sans-Serif" font-size="12.00" fill="#000000"> </text>
</g>
<!-- Node9&#45;&gt;Node8 -->
<g id="edge9" class="edge">
<title>Node9&#45;&gt;Node8</title>
<path fill="none" stroke="#404040" d="M373.5,-952.7833C373.5,-922.7264 373.5,-877.3194 373.5,-843.8131"/>
<polygon fill="none" stroke="#404040" points="373.5001,-843.611 369.5,-837.611 373.5,-831.611 377.5,-837.6109 373.5001,-843.611"/>
<text text-anchor="middle" x="396" y="-918.4" font-family="Helvetica,sans-Serif" font-size="12.00" fill="#000000"> +elements</text>
</g>
<!-- Node10&#45;&gt;Node1 -->
<g id="edge10" class="edge">
<title>Node10&#45;&gt;Node1</title>
<path fill="none" stroke="#404040" d="M410.7839,-63.6576C413.82,-69.565 416.5734,-75.8268 418.5,-82 420.4775,-88.3363 422.292,-94.8133 423.956,-101.387"/>
<polygon fill="none" stroke="#404040" points="424.0161,-101.6398 429.2955,-106.5519 426.7918,-113.3144 421.5124,-108.4023 424.0161,-101.6398"/>
<text text-anchor="middle" x="451" y="-85.4" font-family="Helvetica,sans-Serif" font-size="12.00" fill="#000000"> &#45;m_daughters</text>
</g>
<!-- Node11 -->
<g id="node11" class="node">
<title>Node11</title>
<g id="a_node11"><a xlink:title="STL class. ">
<polygon fill="#ffffff" stroke="#bfbfbf" points="54,-282.5 54,-345.5 121,-345.5 121,-282.5 54,-282.5"/>
<text text-anchor="middle" x="87.5" y="-331.9" font-family="Helvetica,sans-Serif" font-size="12.00" fill="#000000">std::set&lt; K &gt;</text>
<polyline fill="none" stroke="#bfbfbf" points="54,-324.5 121,-324.5 "/>
<text text-anchor="middle" x="87.5" y="-310.9" font-family="Helvetica,sans-Serif" font-size="12.00" fill="#000000"> </text>
<polyline fill="none" stroke="#bfbfbf" points="54,-303.5 121,-303.5 "/>
<text text-anchor="middle" x="87.5" y="-289.9" font-family="Helvetica,sans-Serif" font-size="12.00" fill="#000000"> </text>
</a>
</g>
</g>
<!-- Node11&#45;&gt;Node10 -->
<g id="edge12" class="edge">
<title>Node11&#45;&gt;Node10</title>
<path fill="none" stroke="#ffa500" d="M123.2104,-275.0807C167.7099,-227.4313 246.9991,-145.2737 321.5,-82 328.8292,-75.7753 336.8849,-69.4881 344.8256,-63.5715"/>
<polygon fill="#ffa500" stroke="#ffa500" points="120.6262,-272.7199 116.3732,-282.4236 125.7493,-277.49 120.6262,-272.7199"/>
<text text-anchor="middle" x="352" y="-85.4" font-family="Helvetica,sans-Serif" font-size="12.00" fill="#000000"> &lt; this_type * &gt;</text>
</g>
<!-- Node12 -->
<g id="node12" class="node">
<title>Node12</title>
<polygon fill="#ffffff" stroke="#bfbfbf" points="0,-584 0,-647 29,-647 29,-584 0,-584"/>
<text text-anchor="middle" x="14.5" y="-633.4" font-family="Helvetica,sans-Serif" font-size="12.00" fill="#000000">K</text>
<polyline fill="none" stroke="#bfbfbf" points="0,-626 29,-626 "/>
<text text-anchor="middle" x="14.5" y="-612.4" font-family="Helvetica,sans-Serif" font-size="12.00" fill="#000000"> </text>
<polyline fill="none" stroke="#bfbfbf" points="0,-605 29,-605 "/>
<text text-anchor="middle" x="14.5" y="-591.4" font-family="Helvetica,sans-Serif" font-size="12.00" fill="#000000"> </text>
</g>
<!-- Node12&#45;&gt;Node11 -->
<g id="edge13" class="edge">
<title>Node12&#45;&gt;Node11</title>
<path fill="none" stroke="#404040" d="M16.1344,-583.955C17.2962,-568.4967 19.2499,-549.6664 22.5,-533 34.6341,-470.7774 56.9567,-400.8767 72.0138,-357.1447"/>
<polygon fill="none" stroke="#404040" points="72.0167,-357.1362 70.2096,-350.1551 75.9586,-345.8021 77.7657,-352.7831 72.0167,-357.1362"/>
<text text-anchor="middle" x="36" y="-542.9" font-family="Helvetica,sans-Serif" font-size="12.00" fill="#000000"> +keys</text>
</g>
<!-- Node13 -->
<g id="node13" class="node">
<title>Node13</title>
<polygon fill="#ffffff" stroke="#bfbfbf" points="402.5,-584 402.5,-647 478.5,-647 478.5,-584 402.5,-584"/>
<text text-anchor="middle" x="440.5" y="-633.4" font-family="Helvetica,sans-Serif" font-size="12.00" fill="#000000">atomic&lt; bool &gt;</text>
<polyline fill="none" stroke="#bfbfbf" points="402.5,-626 478.5,-626 "/>
<text text-anchor="middle" x="440.5" y="-612.4" font-family="Helvetica,sans-Serif" font-size="12.00" fill="#000000"> </text>
<polyline fill="none" stroke="#bfbfbf" points="402.5,-605 478.5,-605 "/>
<text text-anchor="middle" x="440.5" y="-591.4" font-family="Helvetica,sans-Serif" font-size="12.00" fill="#000000"> </text>
</g>
<!-- Node13&#45;&gt;Node1 -->
<g id="edge14" class="edge">
<title>Node13&#45;&gt;Node1</title>
<path fill="none" stroke="#404040" d="M440.5,-583.8041C440.5,-568.4894 440.5,-548.6739 440.5,-526.7381"/>
<polygon fill="none" stroke="#404040" points="440.5001,-526.7193 436.5,-520.7193 440.5,-514.7193 444.5,-520.7192 440.5001,-526.7193"/>
<text text-anchor="middle" x="462.5" y="-542.9" font-family="Helvetica,sans-Serif" font-size="12.00" fill="#000000"> &#45;m_merge</text>
</g>
<!-- Node14 -->
<g id="node14" class="node">
<title>Node14</title>
<polygon fill="#ffffff" stroke="#bfbfbf" points="497,-584 497,-647 564,-647 564,-584 497,-584"/>
<text text-anchor="middle" x="530.5" y="-633.4" font-family="Helvetica,sans-Serif" font-size="12.00" fill="#000000">static int32_t</text>
<polyline fill="none" stroke="#bfbfbf" points="497,-626 564,-626 "/>
<text text-anchor="middle" x="530.5" y="-612.4" font-family="Helvetica,sans-Serif" font-size="12.00" fill="#000000"> </text>
<polyline fill="none" stroke="#bfbfbf" points="497,-605 564,-605 "/>
<text text-anchor="middle" x="530.5" y="-591.4" font-family="Helvetica,sans-Serif" font-size="12.00" fill="#000000"> </text>
</g>
<!-- Node14&#45;&gt;Node1 -->
<g id="edge15" class="edge">
<title>Node14&#45;&gt;Node1</title>
<path fill="none" stroke="#404040" d="M521.0385,-583.8041C516.4459,-568.4188 510.4974,-548.4912 503.9133,-526.4347"/>
<polygon fill="none" stroke="#404040" points="503.8487,-526.2179 498.2996,-521.6128 500.4162,-514.7193 505.9653,-519.3244 503.8487,-526.2179"/>
<text text-anchor="middle" x="541.5" y="-542.9" font-family="Helvetica,sans-Serif" font-size="12.00" fill="#000000"> &#45;f_max_depth</text>
</g>
<!-- Node15 -->
<g id="node15" class="node">
<title>Node15</title>
<polygon fill="#ffffff" stroke="#bfbfbf" points="582,-584 582,-647 645,-647 645,-584 582,-584"/>
<text text-anchor="middle" x="613.5" y="-633.4" font-family="Helvetica,sans-Serif" font-size="12.00" fill="#000000">ostream_t *</text>
<polyline fill="none" stroke="#bfbfbf" points="582,-626 645,-626 "/>
<text text-anchor="middle" x="613.5" y="-612.4" font-family="Helvetica,sans-Serif" font-size="12.00" fill="#000000"> </text>
<polyline fill="none" stroke="#bfbfbf" points="582,-605 645,-605 "/>
<text text-anchor="middle" x="613.5" y="-591.4" font-family="Helvetica,sans-Serif" font-size="12.00" fill="#000000"> </text>
</g>
<!-- Node15&#45;&gt;Node1 -->
<g id="edge16" class="edge">
<title>Node15&#45;&gt;Node1</title>
<path fill="none" stroke="#404040" d="M599.4661,-583.7641C592.3664,-568.2605 583.3861,-549.4474 574.5,-533 555.5869,-497.9937 533.5708,-460.7727 512.9154,-427.1379"/>
<polygon fill="none" stroke="#404040" points="512.8522,-427.0353 506.2982,-424.0276 506.5537,-416.821 513.1077,-419.8287 512.8522,-427.0353"/>
<text text-anchor="middle" x="607.5" y="-542.9" font-family="Helvetica,sans-Serif" font-size="12.00" fill="#000000"> &#45;m_report</text>
</g>
<!-- Node16 -->
<g id="node16" class="node">
<title>Node16</title>
<polygon fill="#ffffff" stroke="#bfbfbf" points="663,-577.5 663,-653.5 772,-653.5 772,-577.5 663,-577.5"/>
<text text-anchor="start" x="671" y="-639.9" font-family="Helvetica,sans-Serif" font-size="12.00" fill="#000000">uomap&lt; uint64_t, timer</text>
<text text-anchor="middle" x="717.5" y="-626.9" font-family="Helvetica,sans-Serif" font-size="12.00" fill="#000000">_ptr_t &gt;</text>
<polyline fill="none" stroke="#bfbfbf" points="663,-619.5 772,-619.5 "/>
<text text-anchor="middle" x="717.5" y="-605.9" font-family="Helvetica,sans-Serif" font-size="12.00" fill="#000000"> </text>
<polyline fill="none" stroke="#bfbfbf" points="663,-598.5 772,-598.5 "/>
<text text-anchor="middle" x="717.5" y="-584.9" font-family="Helvetica,sans-Serif" font-size="12.00" fill="#000000"> </text>
</g>
<!-- Node16&#45;&gt;Node1 -->
<g id="edge17" class="edge">
<title>Node16&#45;&gt;Node1</title>
<path fill="none" stroke="#404040" d="M682.4178,-577.3148C640.5302,-531.7224 569.3213,-454.2152 514.9752,-395.0624"/>
<polygon fill="none" stroke="#404040" points="514.8639,-394.9412 507.859,-393.2291 506.7452,-386.1045 513.7502,-387.8166 514.8639,-394.9412"/>
<text text-anchor="middle" x="695" y="-542.9" font-family="Helvetica,sans-Serif" font-size="12.00" fill="#000000"> &#45;m_timer_map</text>
</g>
<!-- Node17 -->
<g id="node17" class="node">
<title>Node17</title>
<polygon fill="#ffffff" stroke="#bfbfbf" points="790,-584 790,-647 847,-647 847,-584 790,-584"/>
<text text-anchor="middle" x="818.5" y="-633.4" font-family="Helvetica,sans-Serif" font-size="12.00" fill="#000000">static bool</text>
<polyline fill="none" stroke="#bfbfbf" points="790,-626 847,-626 "/>
<text text-anchor="middle" x="818.5" y="-612.4" font-family="Helvetica,sans-Serif" font-size="12.00" fill="#000000"> </text>
<polyline fill="none" stroke="#bfbfbf" points="790,-605 847,-605 "/>
<text text-anchor="middle" x="818.5" y="-591.4" font-family="Helvetica,sans-Serif" font-size="12.00" fill="#000000"> </text>
</g>
<!-- Node17&#45;&gt;Node1 -->
<g id="edge18" class="edge">
<title>Node17&#45;&gt;Node1</title>
<path fill="none" stroke="#404040" d="M789.702,-584.9462C786.9658,-582.2225 784.2037,-579.5378 781.5,-577 759.4263,-556.2806 753.1287,-551.927 729.5,-533 658.4376,-476.0778 575.4248,-413.5711 516.6476,-369.9593"/>
<polygon fill="none" stroke="#404040" points="516.338,-369.7299 509.1358,-369.371 506.697,-362.5848 513.8992,-362.9437 516.338,-369.7299"/>
<text text-anchor="middle" x="783.5" y="-542.9" font-family="Helvetica,sans-Serif" font-size="12.00" fill="#000000"> &#45;f_enabled</text>
</g>
<!-- Node18 -->
<g id="node18" class="node">
<title>Node18</title>
<polygon fill="#ffffff" stroke="#bfbfbf" points="865.5,-584 865.5,-647 937.5,-647 937.5,-584 865.5,-584"/>
<text text-anchor="middle" x="901.5" y="-633.4" font-family="Helvetica,sans-Serif" font-size="12.00" fill="#000000">static mutex_t</text>
<polyline fill="none" stroke="#bfbfbf" points="865.5,-626 937.5,-626 "/>
<text text-anchor="middle" x="901.5" y="-612.4" font-family="Helvetica,sans-Serif" font-size="12.00" fill="#000000"> </text>
<polyline fill="none" stroke="#bfbfbf" points="865.5,-605 937.5,-605 "/>
<text text-anchor="middle" x="901.5" y="-591.4" font-family="Helvetica,sans-Serif" font-size="12.00" fill="#000000"> </text>
</g>
<!-- Node18&#45;&gt;Node1 -->
<g id="edge19" class="edge">
<title>Node18&#45;&gt;Node1</title>
<path fill="none" stroke="#404040" d="M869.5962,-583.6464C852.7318,-567.5832 831.2664,-548.3148 810.5,-533 714.5913,-462.2691 594.4082,-394.5862 517.527,-353.6576"/>
<polygon fill="none" stroke="#404040" points="517.1087,-353.436 509.9341,-354.1602 506.5061,-347.816 513.6808,-347.0918 517.1087,-353.436"/>
<text text-anchor="middle" x="861.5" y="-542.9" font-family="Helvetica,sans-Serif" font-size="12.00" fill="#000000"> #f_mutex</text>
</g>
</g>
</svg>
        <g id="navigator" transform="translate(0 0)" fill="#404254">
                <rect fill="#f2f5e9" fill-opacity="0.5" stroke="#606060" stroke-width=".5" x="0" y="0" width="60" height="60"/>
                <use id="zoomplus" xlink:href="#zoomPlus" x="17" y="9" onmousedown="handleZoom(evt,'in')"/>
                <use id="zoomminus" xlink:href="#zoomMin" x="42" y="9" onmousedown="handleZoom(evt,'out')"/>
                <use id="reset" xlink:href="#resetDef" x="30" y="36" onmousedown="handleReset()"/>
                <g id="arrowUp" xlink:href="#dirArrow" transform="translate(30 24)" onmousedown="handlePan(0,-1)">
                  <use xlink:href="#rim" fill="#404040">
                        <set attributeName="fill" to="#808080" begin="arrowUp.mouseover" end="arrowUp.mouseout"/>
                  </use>
                  <path fill="none" stroke="white" stroke-width="1.5" d="M0,-3.0v7 M-2.5,-0.5L0,-3.0L2.5,-0.5"/>
                </g>
                <g id="arrowRight" xlink:href="#dirArrow" transform="rotate(90) translate(36 -43)" onmousedown="handlePan(1,0)">
                  <use xlink:href="#rim" fill="#404040">
                        <set attributeName="fill" to="#808080" begin="arrowRight.mouseover" end="arrowRight.mouseout"/>
                  </use>
                  <path fill="none" stroke="white" stroke-width="1.5" d="M0,-3.0v7 M-2.5,-0.5L0,-3.0L2.5,-0.5"/>
                </g>
                <g id="arrowDown" xlink:href="#dirArrow" transform="rotate(180) translate(-30 -48)" onmousedown="handlePan(0,1)">
                  <use xlink:href="#rim" fill="#404040">
                        <set attributeName="fill" to="#808080" begin="arrowDown.mouseover" end="arrowDown.mouseout"/>
                  </use>
                  <path fill="none" stroke="white" stroke-width="1.5" d="M0,-3.0v7 M-2.5,-0.5L0,-3.0L2.5,-0.5"/>
                </g>
                <g id="arrowLeft" xlink:href="#dirArrow" transform="rotate(270) translate(-36 17)" onmousedown="handlePan(-1,0)">
                  <use xlink:href="#rim" fill="#404040">
                        <set attributeName="fill" to="#808080" begin="arrowLeft.mouseover" end="arrowLeft.mouseout"/>
                  </use>
                  <path fill="none" stroke="white" stroke-width="1.5" d="M0,-3.0v7 M-2.5,-0.5L0,-3.0L2.5,-0.5"/>
                </g>
        </g>
        <svg viewBox="0 0 15 15" width="100%" height="30px" preserveAspectRatio="xMaxYMin meet">
         <g id="arrow_out" transform="scale(0.3 0.3)">
          <a xlink:href="class_n_a_m_e___t_i_m_1_1manager__coll__graph_org.svg" target="_base">
           <rect id="button" ry="5" rx="5" y="6" x="6" height="38" width="38"
                fill="#f2f5e9" fill-opacity="0.5" stroke="#606060" stroke-width="1.0"/>
           <path id="arrow"
             d="M 11.500037,31.436501 C 11.940474,20.09759 22.043105,11.32322 32.158766,21.979434 L 37.068811,17.246167 C 37.068811,17.246167 37.088388,32 37.088388,32 L 22.160133,31.978069 C 22.160133,31.978069 26.997745,27.140456 26.997745,27.140456 C 18.528582,18.264221 13.291696,25.230495 11.500037,31.436501 z"
             style="fill:#404040;"/>
          </a>
         </g>
        </svg>
</svg>
