<?xml version="1.0" encoding="UTF-8" standalone="no"?>
<!DOCTYPE svg PUBLIC "-//W3C//DTD SVG 1.1//EN"
 "http://www.w3.org/Graphics/SVG/1.1/DTD/svg11.dtd">
<!-- Generated by graphviz version 2.40.1 (20161225.0304)
 -->
<!-- Title: util.util.rss_usage Pages: 1 -->
<svg width="115pt" height="402pt"
 viewBox="0.00 0.00 115.00 402.00" xmlns="http://www.w3.org/2000/svg" xmlns:xlink="http://www.w3.org/1999/xlink">
<g id="graph0" class="graph" transform="scale(1 1) rotate(0) translate(4 398)">
<title>util.util.rss_usage</title>
<polygon fill="#ffffff" stroke="transparent" points="-4,4 -4,-398 111,-398 111,4 -4,4"/>
<!-- Node0 -->
<g id="node1" class="node">
<title>Node0</title>
<polygon fill="#bfbfbf" stroke="#000000" points="10.5,-.5 10.5,-128.5 96.5,-128.5 96.5,-.5 10.5,-.5"/>
<text text-anchor="middle" x="53.5" y="-114.9" font-family="Helvetica,sans-Serif" font-size="12.00" fill="#000000">util.util.rss_usage</text>
<polyline fill="none" stroke="#000000" points="10.5,-107.5 96.5,-107.5 "/>
<text text-anchor="start" x="18.5" y="-93.9" font-family="Helvetica,sans-Serif" font-size="12.00" fill="#000000">+ key</text>
<text text-anchor="start" x="18.5" y="-80.9" font-family="Helvetica,sans-Serif" font-size="12.00" fill="#000000">&#45; _self_obj</text>
<text text-anchor="start" x="18.5" y="-67.9" font-family="Helvetica,sans-Serif" font-size="12.00" fill="#000000">&#45; _self_key</text>
<polyline fill="none" stroke="#000000" points="10.5,-60.5 96.5,-60.5 "/>
<text text-anchor="start" x="18.5" y="-46.9" font-family="Helvetica,sans-Serif" font-size="12.00" fill="#000000">+ __init__()</text>
<text text-anchor="start" x="18.5" y="-33.9" font-family="Helvetica,sans-Serif" font-size="12.00" fill="#000000">+ __call__()</text>
<text text-anchor="start" x="18.5" y="-20.9" font-family="Helvetica,sans-Serif" font-size="12.00" fill="#000000">+ __enter__()</text>
<text text-anchor="start" x="18.5" y="-7.9" font-family="Helvetica,sans-Serif" font-size="12.00" fill="#000000">+ __exit__()</text>
</g>
<!-- Node1 -->
<g id="node2" class="node">
<title>Node1</title>
<g id="a_node2"><a xlink:href="../../db/df0/classutil_1_1util_1_1base__decorator.html" target="_top" xlink:title="{util.util.base_decorator\n|+ key\l+ add_args\l+ is_class\l|+ __init__()\l+ parse_wrapped()\l+ class_string()\l+ arg_string()\l}">
<polygon fill="#ffffff" stroke="#000000" points="0,-165.5 0,-293.5 107,-293.5 107,-165.5 0,-165.5"/>
<text text-anchor="middle" x="53.5" y="-279.9" font-family="Helvetica,sans-Serif" font-size="12.00" fill="#000000">util.util.base_decorator</text>
<polyline fill="none" stroke="#000000" points="0,-272.5 107,-272.5 "/>
<text text-anchor="start" x="8" y="-258.9" font-family="Helvetica,sans-Serif" font-size="12.00" fill="#000000">+ key</text>
<text text-anchor="start" x="8" y="-245.9" font-family="Helvetica,sans-Serif" font-size="12.00" fill="#000000">+ add_args</text>
<text text-anchor="start" x="8" y="-232.9" font-family="Helvetica,sans-Serif" font-size="12.00" fill="#000000">+ is_class</text>
<polyline fill="none" stroke="#000000" points="0,-225.5 107,-225.5 "/>
<text text-anchor="start" x="8" y="-211.9" font-family="Helvetica,sans-Serif" font-size="12.00" fill="#000000">+ __init__()</text>
<text text-anchor="start" x="8" y="-198.9" font-family="Helvetica,sans-Serif" font-size="12.00" fill="#000000">+ parse_wrapped()</text>
<text text-anchor="start" x="8" y="-185.9" font-family="Helvetica,sans-Serif" font-size="12.00" fill="#000000">+ class_string()</text>
<text text-anchor="start" x="8" y="-172.9" font-family="Helvetica,sans-Serif" font-size="12.00" fill="#000000">+ arg_string()</text>
</a>
</g>
</g>
<!-- Node1&#45;&gt;Node0 -->
<g id="edge1" class="edge">
<title>Node1&#45;&gt;Node0</title>
<path fill="none" stroke="#191970" d="M53.5,-154.975C53.5,-146.1669 53.5,-137.2365 53.5,-128.5904"/>
<polygon fill="none" stroke="#191970" points="50.0001,-155.2342 53.5,-165.2342 57.0001,-155.2343 50.0001,-155.2342"/>
</g>
<!-- Node2 -->
<g id="node3" class="node">
<title>Node2</title>
<g id="a_node3"><a xlink:href="../../dc/dd8/classobject.html" target="_top" xlink:title="{object\n||}">
<polygon fill="#ffffff" stroke="#000000" points="33,-330.5 33,-393.5 74,-393.5 74,-330.5 33,-330.5"/>
<text text-anchor="middle" x="53.5" y="-379.9" font-family="Helvetica,sans-Serif" font-size="12.00" fill="#000000">object</text>
<polyline fill="none" stroke="#000000" points="33,-372.5 74,-372.5 "/>
<text text-anchor="middle" x="53.5" y="-358.9" font-family="Helvetica,sans-Serif" font-size="12.00" fill="#000000"> </text>
<polyline fill="none" stroke="#000000" points="33,-351.5 74,-351.5 "/>
<text text-anchor="middle" x="53.5" y="-337.9" font-family="Helvetica,sans-Serif" font-size="12.00" fill="#000000"> </text>
</a>
</g>
</g>
<!-- Node2&#45;&gt;Node1 -->
<g id="edge2" class="edge">
<title>Node2&#45;&gt;Node1</title>
<path fill="none" stroke="#191970" d="M53.5,-320.0252C53.5,-311.6506 53.5,-302.6754 53.5,-293.7487"/>
<polygon fill="none" stroke="#191970" points="50.0001,-320.2629 53.5,-330.2629 57.0001,-320.263 50.0001,-320.2629"/>
</g>
</g>
</svg>
