<?xml version="1.0" encoding="UTF-8" standalone="no"?>
<!DOCTYPE svg PUBLIC "-//W3C//DTD SVG 1.1//EN"
 "http://www.w3.org/Graphics/SVG/1.1/DTD/svg11.dtd">
<!-- Generated by graphviz version 2.40.1 (20161225.0304)
 -->
<!-- Title: timemory/namespace.hpp Pages: 1 -->
<!--zoomable 378 -->
<svg id="main" version="1.1" xmlns="http://www.w3.org/2000/svg" xmlns:xlink="http://www.w3.org/1999/xlink" xml:space="preserve" onload="init(evt)">
<style type="text/css"><![CDATA[
.edge:hover path { stroke: red; }
.edge:hover polygon { stroke: red; fill: red; }
]]></style>
<script type="text/javascript"><![CDATA[
var edges = document.getElementsByTagName('g');
if (edges && edges.length) {
  for (var i=0;i<edges.length;i++) {
    if (edges[i].id.substr(0,4)=='edge') {
      edges[i].setAttribute('class','edge');
    }
  }
}
]]></script>
        <defs>
                <circle id="rim" cx="0" cy="0" r="7"/>
                <circle id="rim2" cx="0" cy="0" r="3.5"/>
                <g id="zoomPlus">
                        <use xlink:href="#rim" fill="#404040">
                                <set attributeName="fill" to="#808080" begin="zoomplus.mouseover" end="zoomplus.mouseout"/>
                        </use>
                        <path d="M-4,0h8M0,-4v8" fill="none" stroke="white" stroke-width="1.5" pointer-events="none"/>
                </g>
                <g id="zoomMin">
                        <use xlink:href="#rim" fill="#404040">
                                <set attributeName="fill" to="#808080" begin="zoomminus.mouseover" end="zoomminus.mouseout"/>
                        </use>
                        <path d="M-4,0h8" fill="none" stroke="white" stroke-width="1.5" pointer-events="none"/>
                </g>
                <g id="dirArrow">
                        <path fill="none" stroke="white" stroke-width="1.5" d="M0,-3.0v7 M-2.5,-0.5L0,-3.0L2.5,-0.5"/>
                </g>
               <g id="resetDef">
                       <use xlink:href="#rim2" fill="#404040">
                               <set attributeName="fill" to="#808080" begin="reset.mouseover" end="reset.mouseout"/>
                       </use>
               </g>
        </defs>

<script type="text/javascript">
var viewWidth = 756;
var viewHeight = 378;
var sectionId = 'dynsection-0';
</script>
<script xlink:href="../../svgpan.js"/>
<svg id="graph" class="graph">
<g id="viewport">
<title>timemory/namespace.hpp</title>
<polygon fill="#ffffff" stroke="transparent" points="-4,4 -4,-374 752.4749,-374 752.4749,4 -4,4"/>
<!-- Node1 -->
<g id="node1" class="node">
<title>Node1</title>
<polygon fill="#bfbfbf" stroke="#000000" points="268,-348.5 268,-369.5 388,-369.5 388,-348.5 268,-348.5"/>
<text text-anchor="middle" x="328" y="-355.9" font-family="Helvetica,sans-Serif" font-size="12.00" fill="#000000">timemory/namespace.hpp</text>
</g>
<!-- Node2 -->
<g id="node2" class="node">
<title>Node2</title>
<g id="a_node2"><a xlink:href="../../d6/d01/base__timer_8hpp.html" target="_top" xlink:title="timemory/base_timer.hpp">
<polygon fill="#ffffff" stroke="#000000" points="71,-232.5 71,-253.5 189,-253.5 189,-232.5 71,-232.5"/>
<text text-anchor="middle" x="130" y="-239.9" font-family="Helvetica,sans-Serif" font-size="12.00" fill="#000000">timemory/base_timer.hpp</text>
</a>
</g>
</g>
<!-- Node1&#45;&gt;Node2 -->
<g id="edge1" class="edge">
<title>Node1&#45;&gt;Node2</title>
<path fill="none" stroke="#191970" d="M257.914,-351.0087C208.7065,-343.82 148.9462,-331.3655 133,-312 119.433,-295.5239 123.2822,-268.6011 126.8873,-253.7247"/>
<polygon fill="#191970" stroke="#191970" points="257.5252,-354.4885 267.9162,-352.4201 258.5033,-347.5571 257.5252,-354.4885"/>
</g>
<!-- Node4 -->
<g id="node4" class="node">
<title>Node4</title>
<g id="a_node4"><a xlink:href="../../df/d05/timer_8hpp.html" target="_top" xlink:title="timemory/timer.hpp">
<polygon fill="#ffffff" stroke="#000000" points="186,-174.5 186,-195.5 280,-195.5 280,-174.5 186,-174.5"/>
<text text-anchor="middle" x="233" y="-181.9" font-family="Helvetica,sans-Serif" font-size="12.00" fill="#000000">timemory/timer.hpp</text>
</a>
</g>
</g>
<!-- Node1&#45;&gt;Node4 -->
<g id="edge23" class="edge">
<title>Node1&#45;&gt;Node4</title>
<path fill="none" stroke="#191970" d="M317.1642,-339.1534C297.0637,-302.3378 254.6237,-224.6056 238.9663,-195.9277"/>
<polygon fill="#191970" stroke="#191970" points="314.3363,-341.2776 322.2003,-348.3774 320.4802,-337.9232 314.3363,-341.2776"/>
</g>
<!-- Node5 -->
<g id="node5" class="node">
<title>Node5</title>
<g id="a_node5"><a xlink:href="../../df/df2/timing__manager_8hpp.html" target="_top" xlink:title="timemory/timing_manager.hpp">
<polygon fill="#ffffff" stroke="#000000" points="315,-116.5 315,-137.5 453,-137.5 453,-116.5 315,-116.5"/>
<text text-anchor="middle" x="384" y="-123.9" font-family="Helvetica,sans-Serif" font-size="12.00" fill="#000000">timemory/timing_manager.hpp</text>
</a>
</g>
</g>
<!-- Node1&#45;&gt;Node5 -->
<g id="edge24" class="edge">
<title>Node1&#45;&gt;Node5</title>
<path fill="none" stroke="#191970" d="M334.4519,-338.42C336.9344,-330.232 339.7183,-320.7042 342,-312 359.2042,-246.3707 375.9163,-166.572 381.7882,-137.9042"/>
<polygon fill="#191970" stroke="#191970" points="331.0291,-337.6427 331.4296,-348.23 337.7188,-339.7038 331.0291,-337.6427"/>
</g>
<!-- Node6 -->
<g id="node6" class="node">
<title>Node6</title>
<g id="a_node6"><a xlink:href="../../d8/d07/auto__timer_8hpp.html" target="_top" xlink:title="timemory/auto_timer.hpp">
<polygon fill="#ffffff" stroke="#000000" points="461,-58.5 461,-79.5 577,-79.5 577,-58.5 461,-58.5"/>
<text text-anchor="middle" x="519" y="-65.9" font-family="Helvetica,sans-Serif" font-size="12.00" fill="#000000">timemory/auto_timer.hpp</text>
</a>
</g>
</g>
<!-- Node1&#45;&gt;Node6 -->
<g id="edge17" class="edge">
<title>Node1&#45;&gt;Node6</title>
<path fill="none" stroke="#191970" d="M398.1881,-345.9895C452.671,-331.3587 519,-301.528 519,-243 519,-243 519,-243 519,-185 519,-146.1319 519,-99.9382 519,-79.5561"/>
<polygon fill="#191970" stroke="#191970" points="396.9942,-342.682 388.1714,-348.548 398.7266,-349.4643 396.9942,-342.682"/>
</g>
<!-- Node7 -->
<g id="node7" class="node">
<title>Node7</title>
<g id="a_node7"><a xlink:href="../../d2/dfd/timemory_8cc.html" target="_top" xlink:title="timemory.cc">
<polygon fill="#ffffff" stroke="#000000" points="227.5,-.5 227.5,-21.5 292.5,-21.5 292.5,-.5 227.5,-.5"/>
<text text-anchor="middle" x="260" y="-7.9" font-family="Helvetica,sans-Serif" font-size="12.00" fill="#000000">timemory.cc</text>
</a>
</g>
</g>
<!-- Node1&#45;&gt;Node7 -->
<g id="edge29" class="edge">
<title>Node1&#45;&gt;Node7</title>
<path fill="none" stroke="#191970" d="M323.9387,-338.2156C311.0898,-272.4596 271.6122,-70.4271 262.0851,-21.6706"/>
<polygon fill="#191970" stroke="#191970" points="320.5375,-339.0603 325.8903,-348.2034 327.4075,-337.7178 320.5375,-339.0603"/>
</g>
<!-- Node11 -->
<g id="node11" class="node">
<title>Node11</title>
<g id="a_node11"><a xlink:href="../../da/d8e/signal__detection_8hpp.html" target="_top" xlink:title="timemory/signal_detection.hpp">
<polygon fill="#ffffff" stroke="#000000" points="547.5,-116.5 547.5,-137.5 686.5,-137.5 686.5,-116.5 547.5,-116.5"/>
<text text-anchor="middle" x="617" y="-123.9" font-family="Helvetica,sans-Serif" font-size="12.00" fill="#000000">timemory/signal_detection.hpp</text>
</a>
</g>
</g>
<!-- Node1&#45;&gt;Node11 -->
<g id="edge13" class="edge">
<title>Node1&#45;&gt;Node11</title>
<path fill="none" stroke="#191970" d="M398.0628,-349.6904C448.9782,-341.6988 512.4215,-328.811 533,-312 590.6395,-264.913 610.3282,-169.7687 615.4689,-137.7745"/>
<polygon fill="#191970" stroke="#191970" points="397.4174,-346.2483 388.0632,-351.2231 398.4781,-353.1675 397.4174,-346.2483"/>
</g>
<!-- Node13 -->
<g id="node13" class="node">
<title>Node13</title>
<g id="a_node13"><a xlink:href="../../d8/d4e/base__clock_8hpp.html" target="_top" xlink:title="timemory/base_clock.hpp">
<polygon fill="#ffffff" stroke="#000000" points="142.5,-290.5 142.5,-311.5 261.5,-311.5 261.5,-290.5 142.5,-290.5"/>
<text text-anchor="middle" x="202" y="-297.9" font-family="Helvetica,sans-Serif" font-size="12.00" fill="#000000">timemory/base_clock.hpp</text>
</a>
</g>
</g>
<!-- Node1&#45;&gt;Node13 -->
<g id="edge18" class="edge">
<title>Node1&#45;&gt;Node13</title>
<path fill="none" stroke="#191970" d="M295.8621,-344.2064C273.757,-334.031 244.9197,-320.7567 225.0737,-311.6212"/>
<polygon fill="#191970" stroke="#191970" points="294.635,-347.4945 305.1824,-348.4966 297.5621,-341.1358 294.635,-347.4945"/>
</g>
<!-- Node14 -->
<g id="node14" class="node">
<title>Node14</title>
<g id="a_node14"><a xlink:href="../../d9/dd2/rss_8hpp.html" target="_top" xlink:title="timemory/rss.hpp">
<polygon fill="#ffffff" stroke="#000000" points="0,-290.5 0,-311.5 86,-311.5 86,-290.5 0,-290.5"/>
<text text-anchor="middle" x="43" y="-297.9" font-family="Helvetica,sans-Serif" font-size="12.00" fill="#000000">timemory/rss.hpp</text>
</a>
</g>
</g>
<!-- Node1&#45;&gt;Node14 -->
<g id="edge20" class="edge">
<title>Node1&#45;&gt;Node14</title>
<path fill="none" stroke="#191970" d="M266.5307,-346.4904C212.2018,-335.434 134.3363,-319.5877 86.3059,-309.8131"/>
<polygon fill="#191970" stroke="#191970" points="265.8915,-349.932 276.3887,-348.4966 267.2875,-343.0726 265.8915,-349.932"/>
</g>
<!-- Node15 -->
<g id="node15" class="node">
<title>Node15</title>
<g id="a_node15"><a xlink:href="../../d1/d4e/utility_8hpp.html" target="_top" xlink:title="timemory/utility.hpp">
<polygon fill="#ffffff" stroke="#000000" points="397,-174.5 397,-195.5 491,-195.5 491,-174.5 397,-174.5"/>
<text text-anchor="middle" x="444" y="-181.9" font-family="Helvetica,sans-Serif" font-size="12.00" fill="#000000">timemory/utility.hpp</text>
</a>
</g>
</g>
<!-- Node1&#45;&gt;Node15 -->
<g id="edge25" class="edge">
<title>Node1&#45;&gt;Node15</title>
<path fill="none" stroke="#191970" d="M351.4349,-342.0501C361.7117,-333.8032 373.3713,-323.248 382,-312 411.5693,-273.4546 432.4873,-218.562 440.448,-195.6674"/>
<polygon fill="#191970" stroke="#191970" points="348.9943,-339.513 343.2246,-348.399 353.2764,-345.0505 348.9943,-339.513"/>
</g>
<!-- Node3 -->
<g id="node3" class="node">
<title>Node3</title>
<g id="a_node3"><a xlink:href="../../dd/d84/base__timer_8cpp.html" target="_top" xlink:title="base_timer.cpp">
<polygon fill="#ffffff" stroke="#000000" points="90,-174.5 90,-195.5 168,-195.5 168,-174.5 90,-174.5"/>
<text text-anchor="middle" x="129" y="-181.9" font-family="Helvetica,sans-Serif" font-size="12.00" fill="#000000">base_timer.cpp</text>
</a>
</g>
</g>
<!-- Node2&#45;&gt;Node3 -->
<g id="edge2" class="edge">
<title>Node2&#45;&gt;Node3</title>
<path fill="none" stroke="#191970" d="M129.6412,-222.1906C129.4857,-213.1684 129.3102,-202.9941 129.1823,-195.5707"/>
<polygon fill="#191970" stroke="#191970" points="126.1446,-222.4238 129.8166,-232.3619 133.1436,-222.303 126.1446,-222.4238"/>
</g>
<!-- Node2&#45;&gt;Node4 -->
<g id="edge3" class="edge">
<title>Node2&#45;&gt;Node4</title>
<path fill="none" stroke="#191970" d="M157.7408,-227.379C175.6378,-217.3011 198.4374,-204.4624 214.228,-195.5707"/>
<polygon fill="#191970" stroke="#191970" points="155.888,-224.4055 148.8918,-232.3619 159.3226,-230.505 155.888,-224.4055"/>
</g>
<!-- Node4&#45;&gt;Node5 -->
<g id="edge4" class="edge">
<title>Node4&#45;&gt;Node5</title>
<path fill="none" stroke="#191970" d="M269.7757,-170.8742C296.5713,-160.5819 332.2903,-146.862 356.6038,-137.5231"/>
<polygon fill="#191970" stroke="#191970" points="268.425,-167.6437 260.345,-174.4966 270.935,-174.1782 268.425,-167.6437"/>
</g>
<!-- Node4&#45;&gt;Node7 -->
<g id="edge11" class="edge">
<title>Node4&#45;&gt;Node7</title>
<path fill="none" stroke="#191970" d="M214.1739,-166.9973C207.0293,-158.8969 199.7219,-148.745 196,-138 192.7996,-128.7608 193.6243,-125.4848 196,-116 205.6479,-77.4817 235.0613,-39.5065 250.4255,-21.6188"/>
<polygon fill="#191970" stroke="#191970" points="211.7152,-169.4915 221.1254,-174.3598 216.805,-164.6858 211.7152,-169.4915"/>
</g>
<!-- Node10 -->
<g id="node10" class="node">
<title>Node10</title>
<g id="a_node10"><a xlink:href="../../dc/de5/timer_8cpp.html" target="_top" xlink:title="timer.cpp">
<polygon fill="#ffffff" stroke="#000000" points="205,-116.5 205,-137.5 259,-137.5 259,-116.5 205,-116.5"/>
<text text-anchor="middle" x="232" y="-123.9" font-family="Helvetica,sans-Serif" font-size="12.00" fill="#000000">timer.cpp</text>
</a>
</g>
</g>
<!-- Node4&#45;&gt;Node10 -->
<g id="edge12" class="edge">
<title>Node4&#45;&gt;Node10</title>
<path fill="none" stroke="#191970" d="M232.6412,-164.1906C232.4857,-155.1684 232.3102,-144.9941 232.1823,-137.5707"/>
<polygon fill="#191970" stroke="#191970" points="229.1446,-164.4238 232.8166,-174.3619 236.1436,-164.303 229.1446,-164.4238"/>
</g>
<!-- Node5&#45;&gt;Node6 -->
<g id="edge5" class="edge">
<title>Node5&#45;&gt;Node6</title>
<path fill="none" stroke="#191970" d="M417.798,-112.4794C441.5625,-102.2695 472.8239,-88.8386 494.2782,-79.6212"/>
<polygon fill="#191970" stroke="#191970" points="416.2538,-109.3334 408.4475,-116.4966 419.017,-115.7649 416.2538,-109.3334"/>
</g>
<!-- Node5&#45;&gt;Node7 -->
<g id="edge8" class="edge">
<title>Node5&#45;&gt;Node7</title>
<path fill="none" stroke="#191970" d="M346.5194,-112.2353C330.1928,-104.4521 311.7002,-93.6559 298,-80 280.7593,-62.815 269.1225,-36.1692 263.6318,-21.5273"/>
<polygon fill="#191970" stroke="#191970" points="345.2774,-115.5154 355.8293,-116.4686 348.175,-109.1432 345.2774,-115.5154"/>
</g>
<!-- Node8 -->
<g id="node8" class="node">
<title>Node8</title>
<g id="a_node8"><a xlink:href="../../d6/d8e/test__timing_8cpp.html" target="_top" xlink:title="examples/ex1/test_timing.cpp">
<polygon fill="#ffffff" stroke="#000000" points="451.5,-.5 451.5,-21.5 586.5,-21.5 586.5,-.5 451.5,-.5"/>
<text text-anchor="middle" x="519" y="-7.9" font-family="Helvetica,sans-Serif" font-size="12.00" fill="#000000">examples/ex1/test_timing.cpp</text>
</a>
</g>
</g>
<!-- Node5&#45;&gt;Node8 -->
<g id="edge10" class="edge">
<title>Node5&#45;&gt;Node8</title>
<path fill="none" stroke="#191970" d="M400.6416,-108.3519C413.9187,-93.9215 433.3242,-73.8011 452,-58 468.1621,-44.3256 488.2074,-30.6474 502.1406,-21.602"/>
<polygon fill="#191970" stroke="#191970" points="397.7211,-106.3613 393.5843,-116.1152 402.9008,-111.07 397.7211,-106.3613"/>
</g>
<!-- Node9 -->
<g id="node9" class="node">
<title>Node9</title>
<g id="a_node9"><a xlink:href="../../d9/dad/timing__manager_8cpp.html" target="_top" xlink:title="timing_manager.cpp">
<polygon fill="#ffffff" stroke="#000000" points="307,-58.5 307,-79.5 405,-79.5 405,-58.5 307,-58.5"/>
<text text-anchor="middle" x="356" y="-65.9" font-family="Helvetica,sans-Serif" font-size="12.00" fill="#000000">timing_manager.cpp</text>
</a>
</g>
</g>
<!-- Node5&#45;&gt;Node9 -->
<g id="edge9" class="edge">
<title>Node5&#45;&gt;Node9</title>
<path fill="none" stroke="#191970" d="M374.383,-107.079C369.9238,-97.8422 364.8049,-87.2388 361.1031,-79.5707"/>
<polygon fill="#191970" stroke="#191970" points="371.3649,-108.878 378.8644,-116.3619 377.6688,-105.8347 371.3649,-108.878"/>
</g>
<!-- Node6&#45;&gt;Node7 -->
<g id="edge6" class="edge">
<title>Node6&#45;&gt;Node7</title>
<path fill="none" stroke="#191970" d="M462.0271,-56.2416C410.062,-44.6046 335.1005,-27.8179 292.618,-18.3044"/>
<polygon fill="#191970" stroke="#191970" points="461.5739,-59.7267 472.0971,-58.4966 463.1036,-52.8959 461.5739,-59.7267"/>
</g>
<!-- Node6&#45;&gt;Node8 -->
<g id="edge7" class="edge">
<title>Node6&#45;&gt;Node8</title>
<path fill="none" stroke="#191970" d="M519,-48.1906C519,-39.1684 519,-28.9941 519,-21.5707"/>
<polygon fill="#191970" stroke="#191970" points="515.5001,-48.3619 519,-58.3619 522.5001,-48.3619 515.5001,-48.3619"/>
</g>
<!-- Node11&#45;&gt;Node7 -->
<g id="edge15" class="edge">
<title>Node11&#45;&gt;Node7</title>
<path fill="none" stroke="#191970" d="M613.3155,-106.4648C609.3564,-90.6637 601.4231,-69.6244 586,-58 540.1641,-23.4534 365.7456,-14.1862 292.5945,-11.7952"/>
<polygon fill="#191970" stroke="#191970" points="609.9269,-107.3546 615.4646,-116.3871 616.7683,-105.8728 609.9269,-107.3546"/>
</g>
<!-- Node11&#45;&gt;Node8 -->
<g id="edge16" class="edge">
<title>Node11&#45;&gt;Node8</title>
<path fill="none" stroke="#191970" d="M684.2379,-113.9288C724.4516,-103.0498 763.8564,-84.9431 742,-58 722.6824,-34.1866 645.0071,-21.9799 586.7233,-16.0547"/>
<polygon fill="#191970" stroke="#191970" points="683.1263,-110.6005 674.3081,-116.4733 684.864,-117.3814 683.1263,-110.6005"/>
</g>
<!-- Node12 -->
<g id="node12" class="node">
<title>Node12</title>
<g id="a_node12"><a xlink:href="../../dc/d43/signal__detection_8cpp.html" target="_top" xlink:title="signal_detection.cpp">
<polygon fill="#ffffff" stroke="#000000" points="633.5,-58.5 633.5,-79.5 732.5,-79.5 732.5,-58.5 633.5,-58.5"/>
<text text-anchor="middle" x="683" y="-65.9" font-family="Helvetica,sans-Serif" font-size="12.00" fill="#000000">signal_detection.cpp</text>
</a>
</g>
</g>
<!-- Node11&#45;&gt;Node12 -->
<g id="edge14" class="edge">
<title>Node11&#45;&gt;Node12</title>
<path fill="none" stroke="#191970" d="M636.6967,-109.6908C647.8384,-99.8996 661.4101,-87.973 670.9713,-79.5707"/>
<polygon fill="#191970" stroke="#191970" points="634.3067,-107.1316 629.1054,-116.3619 638.9275,-112.3898 634.3067,-107.1316"/>
</g>
<!-- Node13&#45;&gt;Node2 -->
<g id="edge19" class="edge">
<title>Node13&#45;&gt;Node2</title>
<path fill="none" stroke="#191970" d="M180.8659,-283.9753C168.646,-274.1315 153.6539,-262.0545 143.1222,-253.5707"/>
<polygon fill="#191970" stroke="#191970" points="178.8109,-286.8142 188.7941,-290.3619 183.2022,-281.3629 178.8109,-286.8142"/>
</g>
<!-- Node14&#45;&gt;Node2 -->
<g id="edge21" class="edge">
<title>Node14&#45;&gt;Node2</title>
<path fill="none" stroke="#191970" d="M67.6889,-284.5407C82.604,-274.5973 101.1735,-262.2177 114.144,-253.5707"/>
<polygon fill="#191970" stroke="#191970" points="65.3362,-281.9027 58.9571,-290.3619 69.2191,-287.727 65.3362,-281.9027"/>
</g>
<!-- Node14&#45;&gt;Node7 -->
<g id="edge22" class="edge">
<title>Node14&#45;&gt;Node7</title>
<path fill="none" stroke="#191970" d="M43,-280.4061C43,-257.2147 43,-218.4022 43,-185 43,-185 43,-185 43,-127 43,-44.5532 166.3373,-20.4892 227.0424,-13.6384"/>
<polygon fill="#191970" stroke="#191970" points="39.5001,-280.4439 43,-290.4439 46.5001,-280.4439 39.5001,-280.4439"/>
</g>
<!-- Node15&#45;&gt;Node5 -->
<g id="edge28" class="edge">
<title>Node15&#45;&gt;Node5</title>
<path fill="none" stroke="#191970" d="M425.7983,-167.405C415.7259,-157.6683 403.5428,-145.8914 394.9352,-137.5707"/>
<polygon fill="#191970" stroke="#191970" points="423.3726,-169.9281 432.9951,-174.3619 428.2378,-164.8952 423.3726,-169.9281"/>
</g>
<!-- Node15&#45;&gt;Node6 -->
<g id="edge27" class="edge">
<title>Node15&#45;&gt;Node6</title>
<path fill="none" stroke="#191970" d="M456.4292,-165.7762C472.3627,-141.1324 499.4388,-99.2547 512.0953,-79.6792"/>
<polygon fill="#191970" stroke="#191970" points="453.4118,-163.9969 450.9214,-174.2949 459.2901,-167.7976 453.4118,-163.9969"/>
</g>
<!-- Node15&#45;&gt;Node11 -->
<g id="edge26" class="edge">
<title>Node15&#45;&gt;Node11</title>
<path fill="none" stroke="#191970" d="M484.9272,-171.2787C515.7542,-160.9437 557.3899,-146.9849 585.6122,-137.5231"/>
<polygon fill="#191970" stroke="#191970" points="483.6978,-167.9994 475.329,-174.4966 485.9229,-174.6363 483.6978,-167.9994"/>
</g>
</g>
</svg>
        <g id="navigator" transform="translate(0 0)" fill="#404254">
                <rect fill="#f2f5e9" fill-opacity="0.5" stroke="#606060" stroke-width=".5" x="0" y="0" width="60" height="60"/>
                <use id="zoomplus" xlink:href="#zoomPlus" x="17" y="9" onmousedown="handleZoom(evt,'in')"/>
                <use id="zoomminus" xlink:href="#zoomMin" x="42" y="9" onmousedown="handleZoom(evt,'out')"/>
                <use id="reset" xlink:href="#resetDef" x="30" y="36" onmousedown="handleReset()"/>
                <g id="arrowUp" xlink:href="#dirArrow" transform="translate(30 24)" onmousedown="handlePan(0,-1)">
                  <use xlink:href="#rim" fill="#404040">
                        <set attributeName="fill" to="#808080" begin="arrowUp.mouseover" end="arrowUp.mouseout"/>
                  </use>
                  <path fill="none" stroke="white" stroke-width="1.5" d="M0,-3.0v7 M-2.5,-0.5L0,-3.0L2.5,-0.5"/>
                </g>
                <g id="arrowRight" xlink:href="#dirArrow" transform="rotate(90) translate(36 -43)" onmousedown="handlePan(1,0)">
                  <use xlink:href="#rim" fill="#404040">
                        <set attributeName="fill" to="#808080" begin="arrowRight.mouseover" end="arrowRight.mouseout"/>
                  </use>
                  <path fill="none" stroke="white" stroke-width="1.5" d="M0,-3.0v7 M-2.5,-0.5L0,-3.0L2.5,-0.5"/>
                </g>
                <g id="arrowDown" xlink:href="#dirArrow" transform="rotate(180) translate(-30 -48)" onmousedown="handlePan(0,1)">
                  <use xlink:href="#rim" fill="#404040">
                        <set attributeName="fill" to="#808080" begin="arrowDown.mouseover" end="arrowDown.mouseout"/>
                  </use>
                  <path fill="none" stroke="white" stroke-width="1.5" d="M0,-3.0v7 M-2.5,-0.5L0,-3.0L2.5,-0.5"/>
                </g>
                <g id="arrowLeft" xlink:href="#dirArrow" transform="rotate(270) translate(-36 17)" onmousedown="handlePan(-1,0)">
                  <use xlink:href="#rim" fill="#404040">
                        <set attributeName="fill" to="#808080" begin="arrowLeft.mouseover" end="arrowLeft.mouseout"/>
                  </use>
                  <path fill="none" stroke="white" stroke-width="1.5" d="M0,-3.0v7 M-2.5,-0.5L0,-3.0L2.5,-0.5"/>
                </g>
        </g>
        <svg viewBox="0 0 15 15" width="100%" height="30px" preserveAspectRatio="xMaxYMin meet">
         <g id="arrow_out" transform="scale(0.3 0.3)">
          <a xlink:href="namespace_8hpp__dep__incl_org.svg" target="_base">
           <rect id="button" ry="5" rx="5" y="6" x="6" height="38" width="38"
                fill="#f2f5e9" fill-opacity="0.5" stroke="#606060" stroke-width="1.0"/>
           <path id="arrow"
             d="M 11.500037,31.436501 C 11.940474,20.09759 22.043105,11.32322 32.158766,21.979434 L 37.068811,17.246167 C 37.068811,17.246167 37.088388,32 37.088388,32 L 22.160133,31.978069 C 22.160133,31.978069 26.997745,27.140456 26.997745,27.140456 C 18.528582,18.264221 13.291696,25.230495 11.500037,31.436501 z"
             style="fill:#404040;"/>
          </a>
         </g>
        </svg>
</svg>
