<?xml version="1.0" encoding="UTF-8" standalone="no"?>
<!DOCTYPE svg PUBLIC "-//W3C//DTD SVG 1.1//EN"
 "http://www.w3.org/Graphics/SVG/1.1/DTD/svg11.dtd">
<!-- Generated by graphviz version 2.40.1 (20161225.0304)
 -->
<!-- Title: timemory/namespace.hpp Pages: 1 -->
<!--zoomable 449 -->
<svg id="main" version="1.1" xmlns="http://www.w3.org/2000/svg" xmlns:xlink="http://www.w3.org/1999/xlink" xml:space="preserve" onload="init(evt)">
<style type="text/css"><![CDATA[
.edge:hover path { stroke: red; }
.edge:hover polygon { stroke: red; fill: red; }
]]></style>
<script type="text/javascript"><![CDATA[
var edges = document.getElementsByTagName('g');
if (edges && edges.length) {
  for (var i=0;i<edges.length;i++) {
    if (edges[i].id.substr(0,4)=='edge') {
      edges[i].setAttribute('class','edge');
    }
  }
}
]]></script>
        <defs>
                <circle id="rim" cx="0" cy="0" r="7"/>
                <circle id="rim2" cx="0" cy="0" r="3.5"/>
                <g id="zoomPlus">
                        <use xlink:href="#rim" fill="#404040">
                                <set attributeName="fill" to="#808080" begin="zoomplus.mouseover" end="zoomplus.mouseout"/>
                        </use>
                        <path d="M-4,0h8M0,-4v8" fill="none" stroke="white" stroke-width="1.5" pointer-events="none"/>
                </g>
                <g id="zoomMin">
                        <use xlink:href="#rim" fill="#404040">
                                <set attributeName="fill" to="#808080" begin="zoomminus.mouseover" end="zoomminus.mouseout"/>
                        </use>
                        <path d="M-4,0h8" fill="none" stroke="white" stroke-width="1.5" pointer-events="none"/>
                </g>
                <g id="dirArrow">
                        <path fill="none" stroke="white" stroke-width="1.5" d="M0,-3.0v7 M-2.5,-0.5L0,-3.0L2.5,-0.5"/>
                </g>
               <g id="resetDef">
                       <use xlink:href="#rim2" fill="#404040">
                               <set attributeName="fill" to="#808080" begin="reset.mouseover" end="reset.mouseout"/>
                       </use>
               </g>
        </defs>

<script type="text/javascript">
var viewWidth = 876;
var viewHeight = 449;
var sectionId = 'dynsection-0';
</script>
<script xlink:href="../../svgpan.js"/>
<svg id="graph" class="graph">
<g id="viewport">
<title>timemory/namespace.hpp</title>
<polygon fill="#ffffff" stroke="transparent" points="-4,4 -4,-445 872,-445 872,4 -4,4"/>
<!-- Node1 -->
<g id="node1" class="node">
<title>Node1</title>
<polygon fill="#bfbfbf" stroke="#000000" points="457,-419.5 457,-440.5 577,-440.5 577,-419.5 457,-419.5"/>
<text text-anchor="middle" x="517" y="-426.9" font-family="Helvetica,sans-Serif" font-size="12.00" fill="#000000">timemory/namespace.hpp</text>
</g>
<!-- Node2 -->
<g id="node2" class="node">
<title>Node2</title>
<g id="a_node2"><a xlink:href="../../d8/d07/auto__timer_8hpp.html" target="_top" xlink:title="timemory/auto_timer.hpp">
<polygon fill="#ffffff" stroke="#000000" points="220,-71.5 220,-92.5 336,-92.5 336,-71.5 220,-71.5"/>
<text text-anchor="middle" x="278" y="-78.9" font-family="Helvetica,sans-Serif" font-size="12.00" fill="#000000">timemory/auto_timer.hpp</text>
</a>
</g>
</g>
<!-- Node1&#45;&gt;Node2 -->
<g id="edge1" class="edge">
<title>Node1&#45;&gt;Node2</title>
<path fill="none" stroke="#191970" d="M446.6167,-422.4516C339.2805,-408.9583 147,-376.1176 147,-314 147,-314 147,-314 147,-198 147,-143.7753 210.6895,-108.7718 249.2515,-92.5479"/>
<polygon fill="#191970" stroke="#191970" points="446.3767,-425.9484 456.7296,-423.6974 447.2326,-419.0009 446.3767,-425.9484"/>
</g>
<!-- Node6 -->
<g id="node6" class="node">
<title>Node6</title>
<g id="a_node6"><a xlink:href="../../d2/d80/auto__timer_8cpp.html" target="_top" xlink:title="auto_timer.cpp">
<polygon fill="#ffffff" stroke="#000000" points="0,-7 0,-28 76,-28 76,-7 0,-7"/>
<text text-anchor="middle" x="38" y="-14.4" font-family="Helvetica,sans-Serif" font-size="12.00" fill="#000000">auto_timer.cpp</text>
</a>
</g>
</g>
<!-- Node1&#45;&gt;Node6 -->
<g id="edge31" class="edge">
<title>Node1&#45;&gt;Node6</title>
<path fill="none" stroke="#191970" d="M446.9521,-427.3386C315.0607,-420.4085 43,-396.1561 43,-314 43,-314 43,-314 43,-140 43,-98.707 40.1286,-49.6494 38.7378,-28.3092"/>
<polygon fill="#191970" stroke="#191970" points="446.8034,-430.8355 456.9676,-427.8457 447.1574,-423.8444 446.8034,-430.8355"/>
</g>
<!-- Node7 -->
<g id="node7" class="node">
<title>Node7</title>
<g id="a_node7"><a xlink:href="../../d2/dfd/timemory_8cc.html" target="_top" xlink:title="timemory.cc">
<polygon fill="#ffffff" stroke="#000000" points="645.5,-7 645.5,-28 710.5,-28 710.5,-7 645.5,-7"/>
<text text-anchor="middle" x="678" y="-14.4" font-family="Helvetica,sans-Serif" font-size="12.00" fill="#000000">timemory.cc</text>
</a>
</g>
</g>
<!-- Node1&#45;&gt;Node7 -->
<g id="edge42" class="edge">
<title>Node1&#45;&gt;Node7</title>
<path fill="none" stroke="#191970" d="M587.3123,-421.2689C689.7632,-406.5531 868,-372.5394 868,-314 868,-314 868,-314 868,-140 868,-66.018 764.986,-34.5691 710.6622,-23.1282"/>
<polygon fill="#191970" stroke="#191970" points="586.7525,-417.8131 577.3391,-422.6749 587.7298,-424.7445 586.7525,-417.8131"/>
</g>
<!-- Node9 -->
<g id="node9" class="node">
<title>Node9</title>
<g id="a_node9"><a xlink:href="../../d1/d4e/utility_8hpp.html" target="_top" xlink:title="timemory/utility.hpp">
<polygon fill="#ffffff" stroke="#000000" points="319,-361.5 319,-382.5 413,-382.5 413,-361.5 319,-361.5"/>
<text text-anchor="middle" x="366" y="-368.9" font-family="Helvetica,sans-Serif" font-size="12.00" fill="#000000">timemory/utility.hpp</text>
</a>
</g>
</g>
<!-- Node1&#45;&gt;Node9 -->
<g id="edge8" class="edge">
<title>Node1&#45;&gt;Node9</title>
<path fill="none" stroke="#191970" d="M480.2243,-415.8742C453.4287,-405.5819 417.7097,-391.862 393.3962,-382.5231"/>
<polygon fill="#191970" stroke="#191970" points="479.065,-419.1782 489.655,-419.4966 481.575,-412.6437 479.065,-419.1782"/>
</g>
<!-- Node10 -->
<g id="node10" class="node">
<title>Node10</title>
<g id="a_node10"><a xlink:href="../../d6/d01/base__timer_8hpp.html" target="_top" xlink:title="timemory/base_timer.hpp">
<polygon fill="#ffffff" stroke="#000000" points="597,-245.5 597,-266.5 715,-266.5 715,-245.5 597,-245.5"/>
<text text-anchor="middle" x="656" y="-252.9" font-family="Helvetica,sans-Serif" font-size="12.00" fill="#000000">timemory/base_timer.hpp</text>
</a>
</g>
</g>
<!-- Node1&#45;&gt;Node10 -->
<g id="edge35" class="edge">
<title>Node1&#45;&gt;Node10</title>
<path fill="none" stroke="#191970" d="M523.7308,-409.868C533.4675,-383.0557 553.5967,-335.2654 583,-303 597.2139,-287.4025 617.7136,-274.8084 633.373,-266.5975"/>
<polygon fill="#191970" stroke="#191970" points="520.4118,-408.7563 520.4054,-419.3511 527.0174,-411.0727 520.4118,-408.7563"/>
</g>
<!-- Node12 -->
<g id="node12" class="node">
<title>Node12</title>
<g id="a_node12"><a xlink:href="../../df/d05/timer_8hpp.html" target="_top" xlink:title="timemory/timer.hpp">
<polygon fill="#ffffff" stroke="#000000" points="746,-187.5 746,-208.5 840,-208.5 840,-187.5 746,-187.5"/>
<text text-anchor="middle" x="793" y="-194.9" font-family="Helvetica,sans-Serif" font-size="12.00" fill="#000000">timemory/timer.hpp</text>
</a>
</g>
</g>
<!-- Node1&#45;&gt;Node12 -->
<g id="edge40" class="edge">
<title>Node1&#45;&gt;Node12</title>
<path fill="none" stroke="#191970" d="M587.3966,-420.3312C626.0409,-413.2909 674.0784,-401.6381 714,-383 753.1444,-364.7247 772.4489,-363.5231 792,-325 811.758,-286.0692 801.551,-231.3874 795.9118,-208.608"/>
<polygon fill="#191970" stroke="#191970" points="586.5176,-416.932 577.2742,-422.1099 587.7291,-423.8264 586.5176,-416.932"/>
</g>
<!-- Node13 -->
<g id="node13" class="node">
<title>Node13</title>
<g id="a_node13"><a xlink:href="../../df/df2/timing__manager_8hpp.html" target="_top" xlink:title="timemory/timing_manager.hpp">
<polygon fill="#ffffff" stroke="#000000" points="274,-129.5 274,-150.5 412,-150.5 412,-129.5 274,-129.5"/>
<text text-anchor="middle" x="343" y="-136.9" font-family="Helvetica,sans-Serif" font-size="12.00" fill="#000000">timemory/timing_manager.hpp</text>
</a>
</g>
</g>
<!-- Node1&#45;&gt;Node13 -->
<g id="edge41" class="edge">
<title>Node1&#45;&gt;Node13</title>
<path fill="none" stroke="#191970" d="M446.8625,-419.5719C395.9571,-410.9923 332.2744,-397.8585 310,-383 278.7101,-362.1275 261,-351.6127 261,-314 261,-314 261,-314 261,-256 261,-209.881 304.7539,-169.2432 328.34,-150.6872"/>
<polygon fill="#191970" stroke="#191970" points="446.4198,-423.0461 456.8571,-421.2262 447.5629,-416.1401 446.4198,-423.0461"/>
</g>
<!-- Node15 -->
<g id="node15" class="node">
<title>Node15</title>
<g id="a_node15"><a xlink:href="../../da/d8e/signal__detection_8hpp.html" target="_top" xlink:title="timemory/signal_detection.hpp">
<polygon fill="#ffffff" stroke="#000000" points="327.5,-303.5 327.5,-324.5 466.5,-324.5 466.5,-303.5 327.5,-303.5"/>
<text text-anchor="middle" x="397" y="-310.9" font-family="Helvetica,sans-Serif" font-size="12.00" fill="#000000">timemory/signal_detection.hpp</text>
</a>
</g>
</g>
<!-- Node1&#45;&gt;Node15 -->
<g id="edge36" class="edge">
<title>Node1&#45;&gt;Node15</title>
<path fill="none" stroke="#191970" d="M498.4442,-412.0627C473.1537,-387.6152 428.6548,-344.5996 408.0475,-324.6792"/>
<polygon fill="#191970" stroke="#191970" points="496.3033,-414.8611 505.9258,-419.2949 501.1685,-409.8282 496.3033,-414.8611"/>
</g>
<!-- Node17 -->
<g id="node17" class="node">
<title>Node17</title>
<g id="a_node17"><a xlink:href="../../d8/d4e/base__clock_8hpp.html" target="_top" xlink:title="timemory/base_clock.hpp">
<polygon fill="#ffffff" stroke="#000000" points="561.5,-361.5 561.5,-382.5 680.5,-382.5 680.5,-361.5 561.5,-361.5"/>
<text text-anchor="middle" x="621" y="-368.9" font-family="Helvetica,sans-Serif" font-size="12.00" fill="#000000">timemory/base_clock.hpp</text>
</a>
</g>
</g>
<!-- Node1&#45;&gt;Node17 -->
<g id="edge32" class="edge">
<title>Node1&#45;&gt;Node17</title>
<path fill="none" stroke="#191970" d="M545.0101,-414.379C563.0809,-404.3011 586.1019,-391.4624 602.0457,-382.5707"/>
<polygon fill="#191970" stroke="#191970" points="543.1041,-411.4344 536.0752,-419.3619 546.5136,-417.548 543.1041,-411.4344"/>
</g>
<!-- Node19 -->
<g id="node19" class="node">
<title>Node19</title>
<g id="a_node19"><a xlink:href="../../d9/dd2/rss_8hpp.html" target="_top" xlink:title="timemory/rss.hpp">
<polygon fill="#ffffff" stroke="#000000" points="697,-303.5 697,-324.5 783,-324.5 783,-303.5 697,-303.5"/>
<text text-anchor="middle" x="740" y="-310.9" font-family="Helvetica,sans-Serif" font-size="12.00" fill="#000000">timemory/rss.hpp</text>
</a>
</g>
</g>
<!-- Node1&#45;&gt;Node19 -->
<g id="edge37" class="edge">
<title>Node1&#45;&gt;Node19</title>
<path fill="none" stroke="#191970" d="M587.4329,-421.9172C620.7901,-415.4526 659.8307,-403.8398 690,-383 711.9097,-367.8656 727.7281,-339.9014 735.1893,-324.6315"/>
<polygon fill="#191970" stroke="#191970" points="586.4921,-418.5308 577.2793,-423.7628 587.744,-425.418 586.4921,-418.5308"/>
</g>
<!-- Node3 -->
<g id="node3" class="node">
<title>Node3</title>
<g id="a_node3"><a xlink:href="../../d0/d90/ex1_2test__timing_8cpp.html" target="_top" xlink:title="examples/ex1/test_timing.cpp">
<polygon fill="#ffffff" stroke="#000000" points="364.5,-7 364.5,-28 499.5,-28 499.5,-7 364.5,-7"/>
<text text-anchor="middle" x="432" y="-14.4" font-family="Helvetica,sans-Serif" font-size="12.00" fill="#000000">examples/ex1/test_timing.cpp</text>
</a>
</g>
</g>
<!-- Node2&#45;&gt;Node3 -->
<g id="edge2" class="edge">
<title>Node2&#45;&gt;Node3</title>
<path fill="none" stroke="#191970" d="M312.3283,-67.6223C340.9972,-55.6148 381.2005,-38.7764 406.9252,-28.0021"/>
<polygon fill="#191970" stroke="#191970" points="310.9571,-64.4019 303.0855,-71.4934 313.6613,-70.8585 310.9571,-64.4019"/>
</g>
<!-- Node4 -->
<g id="node4" class="node">
<title>Node4</title>
<g id="a_node4"><a xlink:href="../../dd/d0a/mpi__test__timing_8cpp.html" target="_top" xlink:title="examples/ex2/mpi_test\l_timing.cpp">
<polygon fill="#ffffff" stroke="#000000" points="517.5,-.5 517.5,-34.5 626.5,-34.5 626.5,-.5 517.5,-.5"/>
<text text-anchor="start" x="525.5" y="-20.9" font-family="Helvetica,sans-Serif" font-size="12.00" fill="#000000">examples/ex2/mpi_test</text>
<text text-anchor="middle" x="572" y="-7.9" font-family="Helvetica,sans-Serif" font-size="12.00" fill="#000000">_timing.cpp</text>
</a>
</g>
</g>
<!-- Node2&#45;&gt;Node4 -->
<g id="edge3" class="edge">
<title>Node2&#45;&gt;Node4</title>
<path fill="none" stroke="#191970" d="M345.5777,-69.5473C391.7807,-60.7163 454.3176,-48.1405 509,-35 511.7594,-34.3369 514.5806,-33.6364 517.4253,-32.9122"/>
<polygon fill="#191970" stroke="#191970" points="344.8506,-66.1228 335.6806,-71.4295 346.1585,-72.9995 344.8506,-66.1228"/>
</g>
<!-- Node5 -->
<g id="node5" class="node">
<title>Node5</title>
<g id="a_node5"><a xlink:href="../../d2/dc1/ex3_2test__timing_8cpp.html" target="_top" xlink:title="examples/ex3/test_timing.cpp">
<polygon fill="#ffffff" stroke="#000000" points="94.5,-7 94.5,-28 229.5,-28 229.5,-7 94.5,-7"/>
<text text-anchor="middle" x="162" y="-14.4" font-family="Helvetica,sans-Serif" font-size="12.00" fill="#000000">examples/ex3/test_timing.cpp</text>
</a>
</g>
</g>
<!-- Node2&#45;&gt;Node5 -->
<g id="edge4" class="edge">
<title>Node2&#45;&gt;Node5</title>
<path fill="none" stroke="#191970" d="M250.1471,-66.5128C228.7143,-54.5955 199.6748,-38.4485 180.8875,-28.0021"/>
<polygon fill="#191970" stroke="#191970" points="248.6637,-69.6927 259.1044,-71.4934 252.0655,-63.5748 248.6637,-69.6927"/>
</g>
<!-- Node2&#45;&gt;Node6 -->
<g id="edge5" class="edge">
<title>Node2&#45;&gt;Node6</title>
<path fill="none" stroke="#191970" d="M217.6106,-69.2127C179.3099,-60.6315 128.8845,-48.4624 85,-35 78.3407,-32.9571 71.2536,-30.4821 64.6565,-28.0444"/>
<polygon fill="#191970" stroke="#191970" points="217.0537,-72.6742 227.5747,-71.4256 218.5714,-65.8407 217.0537,-72.6742"/>
</g>
<!-- Node2&#45;&gt;Node7 -->
<g id="edge6" class="edge">
<title>Node2&#45;&gt;Node7</title>
<path fill="none" stroke="#191970" d="M346.6855,-78.3789C419.5383,-73.294 537.4799,-61.4898 636,-35 642.5604,-33.2361 649.4529,-30.6823 655.714,-28.0685"/>
<polygon fill="#191970" stroke="#191970" points="346.0134,-74.9162 336.2716,-79.0813 346.4845,-81.9003 346.0134,-74.9162"/>
</g>
<!-- Node8 -->
<g id="node8" class="node">
<title>Node8</title>
<g id="a_node8"><a xlink:href="../../d9/dad/timing__manager_8cpp.html" target="_top" xlink:title="timing_manager.cpp">
<polygon fill="#ffffff" stroke="#000000" points="248,-7 248,-28 346,-28 346,-7 248,-7"/>
<text text-anchor="middle" x="297" y="-14.4" font-family="Helvetica,sans-Serif" font-size="12.00" fill="#000000">timing_manager.cpp</text>
</a>
</g>
</g>
<!-- Node2&#45;&gt;Node8 -->
<g id="edge7" class="edge">
<title>Node2&#45;&gt;Node8</title>
<path fill="none" stroke="#191970" d="M283.9948,-61.6491C287.2408,-50.6299 291.1218,-37.455 293.7944,-28.3823"/>
<polygon fill="#191970" stroke="#191970" points="280.6059,-60.7676 281.1375,-71.3491 287.3206,-62.7457 280.6059,-60.7676"/>
</g>
<!-- Node9&#45;&gt;Node2 -->
<g id="edge9" class="edge">
<title>Node9&#45;&gt;Node2</title>
<path fill="none" stroke="#191970" d="M322.9537,-357.7694C280.8439,-340.8132 223,-308.0487 223,-256 223,-256 223,-256 223,-198 223,-155.653 253.2963,-112.2671 268.9179,-92.711"/>
<polygon fill="#191970" stroke="#191970" points="321.8834,-361.108 332.4729,-361.4457 324.4053,-354.578 321.8834,-361.108"/>
</g>
<!-- Node9&#45;&gt;Node6 -->
<g id="edge10" class="edge">
<title>Node9&#45;&gt;Node6</title>
<path fill="none" stroke="#191970" d="M308.9386,-360.6836C226.2772,-342.6294 83,-304.3608 83,-256 83,-256 83,-256 83,-140 83,-96.2722 57.4231,-48.8518 44.8345,-28.1604"/>
<polygon fill="#191970" stroke="#191970" points="308.4383,-364.1559 318.9506,-362.8364 309.9099,-357.3124 308.4383,-364.1559"/>
</g>
<!-- Node9&#45;&gt;Node10 -->
<g id="edge11" class="edge">
<title>Node9&#45;&gt;Node10</title>
<path fill="none" stroke="#191970" d="M401.475,-357.5739C423.1636,-348.5737 451.3772,-336.5424 476,-325 495.4375,-315.8883 499.2416,-311.3932 519,-303 552.9058,-288.5971 592.8712,-275.2868 620.857,-266.5354"/>
<polygon fill="#191970" stroke="#191970" points="399.9131,-354.4321 392.0054,-361.4832 402.5843,-360.9025 399.9131,-354.4321"/>
</g>
<!-- Node9&#45;&gt;Node13 -->
<g id="edge30" class="edge">
<title>Node9&#45;&gt;Node13</title>
<path fill="none" stroke="#191970" d="M341.7787,-355.0785C332.5035,-347.1352 322.9641,-336.8082 318,-325 291.8748,-262.8553 324.707,-179.5668 337.9375,-150.5184"/>
<polygon fill="#191970" stroke="#191970" points="339.7382,-357.9279 349.7401,-361.4227 344.1007,-352.4534 339.7382,-357.9279"/>
</g>
<!-- Node9&#45;&gt;Node15 -->
<g id="edge23" class="edge">
<title>Node9&#45;&gt;Node15</title>
<path fill="none" stroke="#191970" d="M376.4901,-352.3733C381.4636,-343.0682 387.2081,-332.3204 391.3502,-324.5707"/>
<polygon fill="#191970" stroke="#191970" points="373.3129,-350.8927 371.6859,-361.3619 379.4865,-354.1924 373.3129,-350.8927"/>
</g>
<!-- Node11 -->
<g id="node11" class="node">
<title>Node11</title>
<g id="a_node11"><a xlink:href="../../dd/d84/base__timer_8cpp.html" target="_top" xlink:title="base_timer.cpp">
<polygon fill="#ffffff" stroke="#000000" points="612,-187.5 612,-208.5 690,-208.5 690,-187.5 612,-187.5"/>
<text text-anchor="middle" x="651" y="-194.9" font-family="Helvetica,sans-Serif" font-size="12.00" fill="#000000">base_timer.cpp</text>
</a>
</g>
</g>
<!-- Node10&#45;&gt;Node11 -->
<g id="edge12" class="edge">
<title>Node10&#45;&gt;Node11</title>
<path fill="none" stroke="#191970" d="M654.2061,-235.1906C653.4283,-226.1684 652.5512,-215.9941 651.9113,-208.5707"/>
<polygon fill="#191970" stroke="#191970" points="650.7369,-235.6995 655.0829,-245.3619 657.711,-235.0982 650.7369,-235.6995"/>
</g>
<!-- Node10&#45;&gt;Node12 -->
<g id="edge13" class="edge">
<title>Node10&#45;&gt;Node12</title>
<path fill="none" stroke="#191970" d="M690.2987,-241.4794C714.4152,-231.2695 746.1398,-217.8386 767.9119,-208.6212"/>
<polygon fill="#191970" stroke="#191970" points="688.6539,-238.3749 680.8097,-245.4966 691.3829,-244.821 688.6539,-238.3749"/>
</g>
<!-- Node12&#45;&gt;Node7 -->
<g id="edge21" class="edge">
<title>Node12&#45;&gt;Node7</title>
<path fill="none" stroke="#191970" d="M804.3239,-177.9686C810.7575,-163.8034 816.2217,-144.63 809,-129 786.3894,-80.0633 730.5386,-44.7044 699.562,-28.1047"/>
<polygon fill="#191970" stroke="#191970" points="801.0087,-176.7702 799.6355,-187.2757 807.2603,-179.9195 801.0087,-176.7702"/>
</g>
<!-- Node12&#45;&gt;Node13 -->
<g id="edge14" class="edge">
<title>Node12&#45;&gt;Node13</title>
<path fill="none" stroke="#191970" d="M735.7418,-190.6201C653.2349,-179.9858 501.0983,-160.3771 412.3398,-148.9371"/>
<polygon fill="#191970" stroke="#191970" points="735.3272,-194.0955 745.6926,-191.9026 736.2221,-187.1529 735.3272,-194.0955"/>
</g>
<!-- Node14 -->
<g id="node14" class="node">
<title>Node14</title>
<g id="a_node14"><a xlink:href="../../dc/de5/timer_8cpp.html" target="_top" xlink:title="timer.cpp">
<polygon fill="#ffffff" stroke="#000000" points="746,-129.5 746,-150.5 800,-150.5 800,-129.5 746,-129.5"/>
<text text-anchor="middle" x="773" y="-136.9" font-family="Helvetica,sans-Serif" font-size="12.00" fill="#000000">timer.cpp</text>
</a>
</g>
</g>
<!-- Node12&#45;&gt;Node14 -->
<g id="edge22" class="edge">
<title>Node12&#45;&gt;Node14</title>
<path fill="none" stroke="#191970" d="M786.0289,-177.7838C782.8679,-168.617 779.2611,-158.1572 776.6451,-150.5707"/>
<polygon fill="#191970" stroke="#191970" points="782.7629,-179.0492 789.3317,-187.3619 789.3805,-176.7672 782.7629,-179.0492"/>
</g>
<!-- Node13&#45;&gt;Node2 -->
<g id="edge18" class="edge">
<title>Node13&#45;&gt;Node2</title>
<path fill="none" stroke="#191970" d="M323.6017,-122.6908C312.6289,-112.8996 299.2628,-100.973 289.8464,-92.5707"/>
<polygon fill="#191970" stroke="#191970" points="321.2863,-125.3155 331.078,-129.3619 325.9468,-120.0925 321.2863,-125.3155"/>
</g>
<!-- Node13&#45;&gt;Node3 -->
<g id="edge15" class="edge">
<title>Node13&#45;&gt;Node3</title>
<path fill="none" stroke="#191970" d="M356.9591,-120.7867C375.9325,-94.6716 409.217,-48.8586 424.2466,-28.1718"/>
<polygon fill="#191970" stroke="#191970" points="353.9444,-118.9815 350.8982,-129.1289 359.6076,-123.0959 353.9444,-118.9815"/>
</g>
<!-- Node13&#45;&gt;Node4 -->
<g id="edge16" class="edge">
<title>Node13&#45;&gt;Node4</title>
<path fill="none" stroke="#191970" d="M372.0041,-124.4847C414.9997,-101.4849 495.362,-58.4963 540.0145,-34.6101"/>
<polygon fill="#191970" stroke="#191970" points="370.0884,-121.5401 362.9216,-129.3432 373.3902,-127.7125 370.0884,-121.5401"/>
</g>
<!-- Node13&#45;&gt;Node5 -->
<g id="edge17" class="edge">
<title>Node13&#45;&gt;Node5</title>
<path fill="none" stroke="#191970" d="M279.7349,-126.5799C256.4208,-119.4054 230.8759,-108.7013 211,-93 188.5609,-75.2739 173.1636,-44.31 166.207,-28.0922"/>
<polygon fill="#191970" stroke="#191970" points="278.9872,-130.0075 289.567,-129.4429 280.9443,-123.2867 278.9872,-130.0075"/>
</g>
<!-- Node13&#45;&gt;Node7 -->
<g id="edge19" class="edge">
<title>Node13&#45;&gt;Node7</title>
<path fill="none" stroke="#191970" d="M383.6672,-126.1569C440.4658,-106.6571 546.6329,-69.6054 636,-35 641.5984,-32.8321 647.5744,-30.4091 653.2104,-28.0734"/>
<polygon fill="#191970" stroke="#191970" points="382.3098,-122.9222 373.9846,-129.4751 384.5792,-129.5441 382.3098,-122.9222"/>
</g>
<!-- Node13&#45;&gt;Node8 -->
<g id="edge20" class="edge">
<title>Node13&#45;&gt;Node8</title>
<path fill="none" stroke="#191970" d="M347.6858,-119.1635C349.8804,-105.097 350.8829,-86.3663 345,-71 338.2184,-53.2863 322.5681,-37.7468 310.9714,-28.0444"/>
<polygon fill="#191970" stroke="#191970" points="344.1897,-118.8162 345.779,-129.2912 351.0689,-120.1114 344.1897,-118.8162"/>
</g>
<!-- Node15&#45;&gt;Node3 -->
<g id="edge24" class="edge">
<title>Node15&#45;&gt;Node3</title>
<path fill="none" stroke="#191970" d="M394.6078,-292.8809C393.4927,-279.1737 392.8338,-260.9574 395,-245 400.8308,-202.0475 413.4091,-193.6766 421,-151 429.023,-105.8944 431.2121,-51.1533 431.7949,-28.3169"/>
<polygon fill="#191970" stroke="#191970" points="391.1576,-293.5672 395.5997,-303.1858 398.1254,-292.8964 391.1576,-293.5672"/>
</g>
<!-- Node15&#45;&gt;Node4 -->
<g id="edge25" class="edge">
<title>Node15&#45;&gt;Node4</title>
<path fill="none" stroke="#191970" d="M459.1094,-300.1674C478.377,-293.1146 498.162,-282.5955 512,-267 533.1111,-243.2077 531,-229.8081 531,-198 531,-198 531,-198 531,-140 531,-100.7529 550.1593,-57.9196 562.2836,-34.7434"/>
<polygon fill="#191970" stroke="#191970" points="457.7657,-296.9273 449.4192,-303.4531 460.0135,-303.5566 457.7657,-296.9273"/>
</g>
<!-- Node15&#45;&gt;Node5 -->
<g id="edge26" class="edge">
<title>Node15&#45;&gt;Node5</title>
<path fill="none" stroke="#191970" d="M375.3824,-296.9561C333.2832,-262.6846 239.8097,-181.1355 187,-93 174.2966,-71.799 167.1355,-43.3338 163.9768,-28.1283"/>
<polygon fill="#191970" stroke="#191970" points="373.3389,-299.8044 383.3219,-303.3529 377.7307,-294.3534 373.3389,-299.8044"/>
</g>
<!-- Node15&#45;&gt;Node7 -->
<g id="edge29" class="edge">
<title>Node15&#45;&gt;Node7</title>
<path fill="none" stroke="#191970" d="M465.3365,-300.635C488.6448,-293.5572 513.6739,-282.9032 533,-267 617.1414,-197.7612 662.9744,-66.0762 674.857,-28.0338"/>
<polygon fill="#191970" stroke="#191970" points="464.1271,-297.3405 455.4742,-303.4543 466.0511,-304.0709 464.1271,-297.3405"/>
</g>
<!-- Node15&#45;&gt;Node10 -->
<g id="edge27" class="edge">
<title>Node15&#45;&gt;Node10</title>
<path fill="none" stroke="#191970" d="M453.8297,-301.2737C500.3551,-290.8548 565.3854,-276.2921 609.0091,-266.5231"/>
<polygon fill="#191970" stroke="#191970" points="452.8964,-297.8959 443.9029,-303.4966 454.4261,-304.7267 452.8964,-297.8959"/>
</g>
<!-- Node16 -->
<g id="node16" class="node">
<title>Node16</title>
<g id="a_node16"><a xlink:href="../../dc/d43/signal__detection_8cpp.html" target="_top" xlink:title="signal_detection.cpp">
<polygon fill="#ffffff" stroke="#000000" points="403.5,-245.5 403.5,-266.5 502.5,-266.5 502.5,-245.5 403.5,-245.5"/>
<text text-anchor="middle" x="453" y="-252.9" font-family="Helvetica,sans-Serif" font-size="12.00" fill="#000000">signal_detection.cpp</text>
</a>
</g>
</g>
<!-- Node15&#45;&gt;Node16 -->
<g id="edge28" class="edge">
<title>Node15&#45;&gt;Node16</title>
<path fill="none" stroke="#191970" d="M414.2654,-296.118C423.6118,-286.4377 434.8388,-274.8098 442.7939,-266.5707"/>
<polygon fill="#191970" stroke="#191970" points="411.6993,-293.7368 407.2713,-303.3619 416.7352,-298.599 411.6993,-293.7368"/>
</g>
<!-- Node17&#45;&gt;Node10 -->
<g id="edge34" class="edge">
<title>Node17&#45;&gt;Node10</title>
<path fill="none" stroke="#191970" d="M603.5293,-353.0934C592.7765,-339.0603 582.5343,-319.5683 591,-303 599.4906,-286.383 616.9017,-274.2846 631.5684,-266.5271"/>
<polygon fill="#191970" stroke="#191970" points="601.0503,-355.5871 610.1278,-361.0506 606.4387,-351.1188 601.0503,-355.5871"/>
</g>
<!-- Node18 -->
<g id="node18" class="node">
<title>Node18</title>
<g id="a_node18"><a xlink:href="../../d5/db8/base__clock_8cpp.html" target="_top" xlink:title="base_clock.cpp">
<polygon fill="#ffffff" stroke="#000000" points="599.5,-303.5 599.5,-324.5 678.5,-324.5 678.5,-303.5 599.5,-303.5"/>
<text text-anchor="middle" x="639" y="-310.9" font-family="Helvetica,sans-Serif" font-size="12.00" fill="#000000">base_clock.cpp</text>
</a>
</g>
</g>
<!-- Node17&#45;&gt;Node18 -->
<g id="edge33" class="edge">
<title>Node17&#45;&gt;Node18</title>
<path fill="none" stroke="#191970" d="M627.274,-351.7838C630.1189,-342.617 633.365,-332.1572 635.7195,-324.5707"/>
<polygon fill="#191970" stroke="#191970" points="623.9228,-350.7738 624.3015,-361.3619 630.6083,-352.8487 623.9228,-350.7738"/>
</g>
<!-- Node19&#45;&gt;Node7 -->
<g id="edge39" class="edge">
<title>Node19&#45;&gt;Node7</title>
<path fill="none" stroke="#191970" d="M735.7439,-293.6461C723.6475,-235.7983 689.3544,-71.7998 680.245,-28.236"/>
<polygon fill="#191970" stroke="#191970" points="732.3206,-294.3755 737.7934,-303.4474 739.1724,-292.9427 732.3206,-294.3755"/>
</g>
<!-- Node19&#45;&gt;Node10 -->
<g id="edge38" class="edge">
<title>Node19&#45;&gt;Node10</title>
<path fill="none" stroke="#191970" d="M716.1624,-297.5407C701.7617,-287.5973 683.8325,-275.2177 671.3092,-266.5707"/>
<polygon fill="#191970" stroke="#191970" points="714.3754,-300.5601 724.5931,-303.3619 718.3528,-294.7998 714.3754,-300.5601"/>
</g>
</g>
</svg>
        <g id="navigator" transform="translate(0 0)" fill="#404254">
                <rect fill="#f2f5e9" fill-opacity="0.5" stroke="#606060" stroke-width=".5" x="0" y="0" width="60" height="60"/>
                <use id="zoomplus" xlink:href="#zoomPlus" x="17" y="9" onmousedown="handleZoom(evt,'in')"/>
                <use id="zoomminus" xlink:href="#zoomMin" x="42" y="9" onmousedown="handleZoom(evt,'out')"/>
                <use id="reset" xlink:href="#resetDef" x="30" y="36" onmousedown="handleReset()"/>
                <g id="arrowUp" xlink:href="#dirArrow" transform="translate(30 24)" onmousedown="handlePan(0,-1)">
                  <use xlink:href="#rim" fill="#404040">
                        <set attributeName="fill" to="#808080" begin="arrowUp.mouseover" end="arrowUp.mouseout"/>
                  </use>
                  <path fill="none" stroke="white" stroke-width="1.5" d="M0,-3.0v7 M-2.5,-0.5L0,-3.0L2.5,-0.5"/>
                </g>
                <g id="arrowRight" xlink:href="#dirArrow" transform="rotate(90) translate(36 -43)" onmousedown="handlePan(1,0)">
                  <use xlink:href="#rim" fill="#404040">
                        <set attributeName="fill" to="#808080" begin="arrowRight.mouseover" end="arrowRight.mouseout"/>
                  </use>
                  <path fill="none" stroke="white" stroke-width="1.5" d="M0,-3.0v7 M-2.5,-0.5L0,-3.0L2.5,-0.5"/>
                </g>
                <g id="arrowDown" xlink:href="#dirArrow" transform="rotate(180) translate(-30 -48)" onmousedown="handlePan(0,1)">
                  <use xlink:href="#rim" fill="#404040">
                        <set attributeName="fill" to="#808080" begin="arrowDown.mouseover" end="arrowDown.mouseout"/>
                  </use>
                  <path fill="none" stroke="white" stroke-width="1.5" d="M0,-3.0v7 M-2.5,-0.5L0,-3.0L2.5,-0.5"/>
                </g>
                <g id="arrowLeft" xlink:href="#dirArrow" transform="rotate(270) translate(-36 17)" onmousedown="handlePan(-1,0)">
                  <use xlink:href="#rim" fill="#404040">
                        <set attributeName="fill" to="#808080" begin="arrowLeft.mouseover" end="arrowLeft.mouseout"/>
                  </use>
                  <path fill="none" stroke="white" stroke-width="1.5" d="M0,-3.0v7 M-2.5,-0.5L0,-3.0L2.5,-0.5"/>
                </g>
        </g>
        <svg viewBox="0 0 15 15" width="100%" height="30px" preserveAspectRatio="xMaxYMin meet">
         <g id="arrow_out" transform="scale(0.3 0.3)">
          <a xlink:href="namespace_8hpp__dep__incl_org.svg" target="_base">
           <rect id="button" ry="5" rx="5" y="6" x="6" height="38" width="38"
                fill="#f2f5e9" fill-opacity="0.5" stroke="#606060" stroke-width="1.0"/>
           <path id="arrow"
             d="M 11.500037,31.436501 C 11.940474,20.09759 22.043105,11.32322 32.158766,21.979434 L 37.068811,17.246167 C 37.068811,17.246167 37.088388,32 37.088388,32 L 22.160133,31.978069 C 22.160133,31.978069 26.997745,27.140456 26.997745,27.140456 C 18.528582,18.264221 13.291696,25.230495 11.500037,31.436501 z"
             style="fill:#404040;"/>
          </a>
         </g>
        </svg>
</svg>
