<?xml version="1.0" encoding="UTF-8" standalone="no"?>
<!DOCTYPE svg PUBLIC "-//W3C//DTD SVG 1.1//EN"
 "http://www.w3.org/Graphics/SVG/1.1/DTD/svg11.dtd">
<!-- Generated by graphviz version 2.40.1 (20161225.0304)
 -->
<!-- Title: timemory/namespace.hpp Pages: 1 -->
<svg width="643pt" height="378pt"
 viewBox="0.00 0.00 643.21 378.00" xmlns="http://www.w3.org/2000/svg" xmlns:xlink="http://www.w3.org/1999/xlink">
<g id="graph0" class="graph" transform="scale(1 1) rotate(0) translate(4 374)">
<title>timemory/namespace.hpp</title>
<polygon fill="#ffffff" stroke="transparent" points="-4,4 -4,-374 639.2052,-374 639.2052,4 -4,4"/>
<!-- Node1 -->
<g id="node1" class="node">
<title>Node1</title>
<polygon fill="#bfbfbf" stroke="#000000" points="237,-348.5 237,-369.5 357,-369.5 357,-348.5 237,-348.5"/>
<text text-anchor="middle" x="297" y="-355.9" font-family="Helvetica,sans-Serif" font-size="12.00" fill="#000000">timemory/namespace.hpp</text>
</g>
<!-- Node2 -->
<g id="node2" class="node">
<title>Node2</title>
<g id="a_node2"><a xlink:href="../../d8/d07/auto__timer_8hpp.html" target="_top" xlink:title="timemory/auto_timer.hpp">
<polygon fill="#ffffff" stroke="#000000" points="76,-58.5 76,-79.5 192,-79.5 192,-58.5 76,-58.5"/>
<text text-anchor="middle" x="134" y="-65.9" font-family="Helvetica,sans-Serif" font-size="12.00" fill="#000000">timemory/auto_timer.hpp</text>
</a>
</g>
</g>
<!-- Node1&#45;&gt;Node2 -->
<g id="edge1" class="edge">
<title>Node1&#45;&gt;Node2</title>
<path fill="none" stroke="#191970" d="M244.2328,-345.7586C171.1459,-325.8473 48,-285.9287 48,-243 48,-243 48,-243 48,-185 48,-138.1194 93.8883,-97.8326 118.6249,-79.5213"/>
<polygon fill="#191970" stroke="#191970" points="243.6298,-349.2206 254.1954,-348.4336 245.4451,-342.46 243.6298,-349.2206"/>
</g>
<!-- Node4 -->
<g id="node4" class="node">
<title>Node4</title>
<g id="a_node4"><a xlink:href="../../d2/d80/auto__timer_8cpp.html" target="_top" xlink:title="auto_timer.cpp">
<polygon fill="#ffffff" stroke="#000000" points="0,-.5 0,-21.5 76,-21.5 76,-.5 0,-.5"/>
<text text-anchor="middle" x="38" y="-7.9" font-family="Helvetica,sans-Serif" font-size="12.00" fill="#000000">auto_timer.cpp</text>
</a>
</g>
</g>
<!-- Node1&#45;&gt;Node4 -->
<g id="edge18" class="edge">
<title>Node1&#45;&gt;Node4</title>
<path fill="none" stroke="#191970" d="M226.7055,-351.2717C185.7787,-344.7614 134.114,-332.9938 92,-312 49.3726,-290.7503 10,-290.6303 10,-243 10,-243 10,-243 10,-127 10,-87.2228 25.75,-41.8614 33.625,-21.6668"/>
<polygon fill="#191970" stroke="#191970" points="226.1859,-354.7329 236.5986,-352.7771 227.239,-347.8125 226.1859,-354.7329"/>
</g>
<!-- Node5 -->
<g id="node5" class="node">
<title>Node5</title>
<g id="a_node5"><a xlink:href="../../d2/dfd/timemory_8cc.html" target="_top" xlink:title="timemory.cc">
<polygon fill="#ffffff" stroke="#000000" points="476.5,-.5 476.5,-21.5 541.5,-21.5 541.5,-.5 476.5,-.5"/>
<text text-anchor="middle" x="509" y="-7.9" font-family="Helvetica,sans-Serif" font-size="12.00" fill="#000000">timemory.cc</text>
</a>
</g>
</g>
<!-- Node1&#45;&gt;Node5 -->
<g id="edge33" class="edge">
<title>Node1&#45;&gt;Node5</title>
<path fill="none" stroke="#191970" d="M367.4929,-352.6609C455.496,-344.1268 596.7583,-328.1423 615,-312 638.8207,-290.9209 634,-274.8081 634,-243 634,-243 634,-243 634,-127 634,-73.7089 572.2019,-38.0098 535.5093,-21.5102"/>
<polygon fill="#191970" stroke="#191970" points="366.921,-349.1996 357.3012,-353.6391 367.5899,-356.1676 366.921,-349.1996"/>
</g>
<!-- Node7 -->
<g id="node7" class="node">
<title>Node7</title>
<g id="a_node7"><a xlink:href="../../d1/d4e/utility_8hpp.html" target="_top" xlink:title="timemory/utility.hpp">
<polygon fill="#ffffff" stroke="#000000" points="118,-174.5 118,-195.5 212,-195.5 212,-174.5 118,-174.5"/>
<text text-anchor="middle" x="165" y="-181.9" font-family="Helvetica,sans-Serif" font-size="12.00" fill="#000000">timemory/utility.hpp</text>
</a>
</g>
</g>
<!-- Node1&#45;&gt;Node7 -->
<g id="edge6" class="edge">
<title>Node1&#45;&gt;Node7</title>
<path fill="none" stroke="#191970" d="M265.8304,-343.3333C252.2964,-335.3664 237.0485,-324.6758 226,-312 194.0172,-275.3066 174.8976,-218.9185 167.969,-195.6273"/>
<polygon fill="#191970" stroke="#191970" points="264.4212,-346.5562 274.8536,-348.4047 267.8509,-340.454 264.4212,-346.5562"/>
</g>
<!-- Node8 -->
<g id="node8" class="node">
<title>Node8</title>
<g id="a_node8"><a xlink:href="../../da/d8e/signal__detection_8hpp.html" target="_top" xlink:title="timemory/signal_detection.hpp">
<polygon fill="#ffffff" stroke="#000000" points="318.5,-116.5 318.5,-137.5 457.5,-137.5 457.5,-116.5 318.5,-116.5"/>
<text text-anchor="middle" x="388" y="-123.9" font-family="Helvetica,sans-Serif" font-size="12.00" fill="#000000">timemory/signal_detection.hpp</text>
</a>
</g>
</g>
<!-- Node1&#45;&gt;Node8 -->
<g id="edge25" class="edge">
<title>Node1&#45;&gt;Node8</title>
<path fill="none" stroke="#191970" d="M300.3429,-338.4376C306.6333,-303.2373 322.2551,-229.8319 351,-174 358.0353,-160.3352 369.3025,-146.7616 377.557,-137.7409"/>
<polygon fill="#191970" stroke="#191970" points="296.866,-338.005 298.6236,-348.4531 303.7651,-339.1894 296.866,-338.005"/>
</g>
<!-- Node10 -->
<g id="node10" class="node">
<title>Node10</title>
<g id="a_node10"><a xlink:href="../../df/df2/timing__manager_8hpp.html" target="_top" xlink:title="timemory/timing_manager.hpp">
<polygon fill="#ffffff" stroke="#000000" points="162,-116.5 162,-137.5 300,-137.5 300,-116.5 162,-116.5"/>
<text text-anchor="middle" x="231" y="-123.9" font-family="Helvetica,sans-Serif" font-size="12.00" fill="#000000">timemory/timing_manager.hpp</text>
</a>
</g>
</g>
<!-- Node1&#45;&gt;Node10 -->
<g id="edge32" class="edge">
<title>Node1&#45;&gt;Node10</title>
<path fill="none" stroke="#191970" d="M280.9299,-340.1604C274.7397,-331.986 268.1633,-322.0047 264,-312 238.0538,-249.6493 232.4913,-167.174 231.3125,-137.8857"/>
<polygon fill="#191970" stroke="#191970" points="278.3947,-342.5954 287.3627,-348.237 283.8702,-338.2343 278.3947,-342.5954"/>
</g>
<!-- Node11 -->
<g id="node11" class="node">
<title>Node11</title>
<g id="a_node11"><a xlink:href="../../d6/d01/base__timer_8hpp.html" target="_top" xlink:title="timemory/base_timer.hpp">
<polygon fill="#ffffff" stroke="#000000" points="433,-232.5 433,-253.5 551,-253.5 551,-232.5 433,-232.5"/>
<text text-anchor="middle" x="492" y="-239.9" font-family="Helvetica,sans-Serif" font-size="12.00" fill="#000000">timemory/base_timer.hpp</text>
</a>
</g>
</g>
<!-- Node1&#45;&gt;Node11 -->
<g id="edge19" class="edge">
<title>Node1&#45;&gt;Node11</title>
<path fill="none" stroke="#191970" d="M367.0463,-347.6177C409.2835,-339.3982 457.7761,-327.1064 473,-312 488.7874,-296.3344 491.7863,-268.8416 492.1621,-253.7202"/>
<polygon fill="#191970" stroke="#191970" points="366.2027,-344.2152 357.0289,-349.5154 367.5056,-351.0929 366.2027,-344.2152"/>
</g>
<!-- Node13 -->
<g id="node13" class="node">
<title>Node13</title>
<g id="a_node13"><a xlink:href="../../df/d05/timer_8hpp.html" target="_top" xlink:title="timemory/timer.hpp">
<polygon fill="#ffffff" stroke="#000000" points="360,-174.5 360,-195.5 454,-195.5 454,-174.5 360,-174.5"/>
<text text-anchor="middle" x="407" y="-181.9" font-family="Helvetica,sans-Serif" font-size="12.00" fill="#000000">timemory/timer.hpp</text>
</a>
</g>
</g>
<!-- Node1&#45;&gt;Node13 -->
<g id="edge31" class="edge">
<title>Node1&#45;&gt;Node13</title>
<path fill="none" stroke="#191970" d="M307.7796,-338.9472C315.3878,-325.0438 325.9723,-306.1913 336,-290 357.8984,-254.6415 386.1617,-214.2608 399.4557,-195.546"/>
<polygon fill="#191970" stroke="#191970" points="304.5125,-337.6293 302.8163,-348.0875 310.6641,-340.9698 304.5125,-337.6293"/>
</g>
<!-- Node15 -->
<g id="node15" class="node">
<title>Node15</title>
<g id="a_node15"><a xlink:href="../../d8/d4e/base__clock_8hpp.html" target="_top" xlink:title="timemory/base_clock.hpp">
<polygon fill="#ffffff" stroke="#000000" points="344.5,-290.5 344.5,-311.5 463.5,-311.5 463.5,-290.5 344.5,-290.5"/>
<text text-anchor="middle" x="404" y="-297.9" font-family="Helvetica,sans-Serif" font-size="12.00" fill="#000000">timemory/base_clock.hpp</text>
</a>
</g>
</g>
<!-- Node1&#45;&gt;Node15 -->
<g id="edge26" class="edge">
<title>Node1&#45;&gt;Node15</title>
<path fill="none" stroke="#191970" d="M325.5626,-343.5175C344.1927,-333.4189 368.0199,-320.5032 384.499,-311.5707"/>
<polygon fill="#191970" stroke="#191970" points="323.749,-340.5194 316.6254,-348.3619 327.0849,-346.6734 323.749,-340.5194"/>
</g>
<!-- Node16 -->
<g id="node16" class="node">
<title>Node16</title>
<g id="a_node16"><a xlink:href="../../d9/dd2/rss_8hpp.html" target="_top" xlink:title="timemory/rss.hpp">
<polygon fill="#ffffff" stroke="#000000" points="520,-290.5 520,-311.5 606,-311.5 606,-290.5 520,-290.5"/>
<text text-anchor="middle" x="563" y="-297.9" font-family="Helvetica,sans-Serif" font-size="12.00" fill="#000000">timemory/rss.hpp</text>
</a>
</g>
</g>
<!-- Node1&#45;&gt;Node16 -->
<g id="edge28" class="edge">
<title>Node1&#45;&gt;Node16</title>
<path fill="none" stroke="#191970" d="M355.1047,-346.3306C404.6601,-335.5253 474.7967,-320.2323 519.5916,-310.465"/>
<polygon fill="#191970" stroke="#191970" points="354.1954,-342.9465 345.1706,-348.4966 355.6867,-349.7858 354.1954,-342.9465"/>
</g>
<!-- Node3 -->
<g id="node3" class="node">
<title>Node3</title>
<g id="a_node3"><a xlink:href="../../d6/d8e/test__timing_8cpp.html" target="_top" xlink:title="examples/ex1/test_timing.cpp">
<polygon fill="#ffffff" stroke="#000000" points="210.5,-.5 210.5,-21.5 345.5,-21.5 345.5,-.5 210.5,-.5"/>
<text text-anchor="middle" x="278" y="-7.9" font-family="Helvetica,sans-Serif" font-size="12.00" fill="#000000">examples/ex1/test_timing.cpp</text>
</a>
</g>
</g>
<!-- Node2&#45;&gt;Node3 -->
<g id="edge2" class="edge">
<title>Node2&#45;&gt;Node3</title>
<path fill="none" stroke="#191970" d="M169.3771,-54.7509C194.8063,-44.5086 228.5421,-30.9206 251.6301,-21.6212"/>
<polygon fill="#191970" stroke="#191970" points="168.0455,-51.5139 160.0773,-58.4966 170.6608,-58.007 168.0455,-51.5139"/>
</g>
<!-- Node2&#45;&gt;Node4 -->
<g id="edge3" class="edge">
<title>Node2&#45;&gt;Node4</title>
<path fill="none" stroke="#191970" d="M107.6843,-53.1009C91.0745,-43.0658 70.0786,-30.3808 55.4963,-21.5707"/>
<polygon fill="#191970" stroke="#191970" points="106.023,-56.1864 116.3921,-58.3619 109.6429,-50.195 106.023,-56.1864"/>
</g>
<!-- Node2&#45;&gt;Node5 -->
<g id="edge4" class="edge">
<title>Node2&#45;&gt;Node5</title>
<path fill="none" stroke="#191970" d="M202.3021,-58.4359C283.4218,-45.8894 415.3924,-25.478 476.2981,-16.0579"/>
<polygon fill="#191970" stroke="#191970" points="201.5298,-55.0137 192.1823,-60.0011 202.5998,-61.9314 201.5298,-55.0137"/>
</g>
<!-- Node6 -->
<g id="node6" class="node">
<title>Node6</title>
<g id="a_node6"><a xlink:href="../../d9/dad/timing__manager_8cpp.html" target="_top" xlink:title="timing_manager.cpp">
<polygon fill="#ffffff" stroke="#000000" points="94,-.5 94,-21.5 192,-21.5 192,-.5 94,-.5"/>
<text text-anchor="middle" x="143" y="-7.9" font-family="Helvetica,sans-Serif" font-size="12.00" fill="#000000">timing_manager.cpp</text>
</a>
</g>
</g>
<!-- Node2&#45;&gt;Node6 -->
<g id="edge5" class="edge">
<title>Node2&#45;&gt;Node6</title>
<path fill="none" stroke="#191970" d="M137.229,-48.1906C138.629,-39.1684 140.2078,-28.9941 141.3597,-21.5707"/>
<polygon fill="#191970" stroke="#191970" points="133.7256,-47.9435 135.6507,-58.3619 140.6428,-49.0169 133.7256,-47.9435"/>
</g>
<!-- Node7&#45;&gt;Node2 -->
<g id="edge7" class="edge">
<title>Node7&#45;&gt;Node2</title>
<path fill="none" stroke="#191970" d="M159.5102,-164.4576C152.8842,-139.6635 141.9931,-98.9098 136.8539,-79.6792"/>
<polygon fill="#191970" stroke="#191970" points="156.1759,-165.5376 162.1392,-174.2949 162.9386,-163.7303 156.1759,-165.5376"/>
</g>
<!-- Node7&#45;&gt;Node4 -->
<g id="edge8" class="edge">
<title>Node7&#45;&gt;Node4</title>
<path fill="none" stroke="#191970" d="M145.1009,-167.6981C123.5747,-148.1467 89.345,-114.5259 67,-80 54.7153,-61.0186 45.7328,-35.9638 41.2389,-21.8605"/>
<polygon fill="#191970" stroke="#191970" points="142.8908,-170.4171 152.6777,-174.4751 147.5575,-165.1996 142.8908,-170.4171"/>
</g>
<!-- Node7&#45;&gt;Node8 -->
<g id="edge9" class="edge">
<title>Node7&#45;&gt;Node8</title>
<path fill="none" stroke="#191970" d="M215.1955,-171.9447C255.161,-161.5501 310.3742,-147.1897 347.5406,-137.5231"/>
<polygon fill="#191970" stroke="#191970" points="214.1806,-168.5921 205.3836,-174.4966 215.9427,-175.3667 214.1806,-168.5921"/>
</g>
<!-- Node7&#45;&gt;Node10 -->
<g id="edge13" class="edge">
<title>Node7&#45;&gt;Node10</title>
<path fill="none" stroke="#191970" d="M184.6967,-167.6908C195.8384,-157.8996 209.4101,-145.973 218.9713,-137.5707"/>
<polygon fill="#191970" stroke="#191970" points="182.3067,-165.1316 177.1054,-174.3619 186.9275,-170.3898 182.3067,-165.1316"/>
</g>
<!-- Node8&#45;&gt;Node3 -->
<g id="edge10" class="edge">
<title>Node8&#45;&gt;Node3</title>
<path fill="none" stroke="#191970" d="M370.6884,-108.7441C347.4548,-84.2432 306.9351,-41.5134 288.1268,-21.6792"/>
<polygon fill="#191970" stroke="#191970" points="368.428,-111.447 377.8486,-116.2949 373.5074,-106.6303 368.428,-111.447"/>
</g>
<!-- Node8&#45;&gt;Node5 -->
<g id="edge12" class="edge">
<title>Node8&#45;&gt;Node5</title>
<path fill="none" stroke="#191970" d="M424.2606,-111.941C439.9918,-104.1129 457.7942,-93.3632 471,-80 487.9184,-62.88 499.5349,-36.6867 505.1431,-21.9878"/>
<polygon fill="#191970" stroke="#191970" points="422.3262,-108.9849 414.793,-116.4348 425.3279,-115.3087 422.3262,-108.9849"/>
</g>
<!-- Node9 -->
<g id="node9" class="node">
<title>Node9</title>
<g id="a_node9"><a xlink:href="../../dc/d43/signal__detection_8cpp.html" target="_top" xlink:title="signal_detection.cpp">
<polygon fill="#ffffff" stroke="#000000" points="362.5,-58.5 362.5,-79.5 461.5,-79.5 461.5,-58.5 362.5,-58.5"/>
<text text-anchor="middle" x="412" y="-65.9" font-family="Helvetica,sans-Serif" font-size="12.00" fill="#000000">signal_detection.cpp</text>
</a>
</g>
</g>
<!-- Node8&#45;&gt;Node9 -->
<g id="edge11" class="edge">
<title>Node8&#45;&gt;Node9</title>
<path fill="none" stroke="#191970" d="M396.2432,-107.079C400.0653,-97.8422 404.4529,-87.2388 407.6259,-79.5707"/>
<polygon fill="#191970" stroke="#191970" points="392.9915,-105.7835 392.402,-116.3619 399.4596,-108.46 392.9915,-105.7835"/>
</g>
<!-- Node10&#45;&gt;Node2 -->
<g id="edge15" class="edge">
<title>Node10&#45;&gt;Node2</title>
<path fill="none" stroke="#191970" d="M204.4101,-111.1009C187.6273,-101.0658 166.4128,-88.3808 151.6785,-79.5707"/>
<polygon fill="#191970" stroke="#191970" points="202.8298,-114.2339 213.2087,-116.3619 206.4222,-108.226 202.8298,-114.2339"/>
</g>
<!-- Node10&#45;&gt;Node3 -->
<g id="edge14" class="edge">
<title>Node10&#45;&gt;Node3</title>
<path fill="none" stroke="#191970" d="M239.1885,-106.7902C249.2208,-82.0294 265.8465,-40.996 273.6731,-21.6792"/>
<polygon fill="#191970" stroke="#191970" points="235.8488,-105.7124 235.3374,-116.2949 242.3365,-108.3411 235.8488,-105.7124"/>
</g>
<!-- Node10&#45;&gt;Node5 -->
<g id="edge16" class="edge">
<title>Node10&#45;&gt;Node5</title>
<path fill="none" stroke="#191970" d="M255.7041,-111.0268C279.9787,-95.8474 318.4476,-73.1497 354,-58 394.8729,-40.5831 444.3359,-26.7619 476.2164,-18.7325"/>
<polygon fill="#191970" stroke="#191970" points="253.7146,-108.1437 247.1313,-116.4449 257.4544,-114.061 253.7146,-108.1437"/>
</g>
<!-- Node10&#45;&gt;Node6 -->
<g id="edge17" class="edge">
<title>Node10&#45;&gt;Node6</title>
<path fill="none" stroke="#191970" d="M225.0899,-106.8072C220.1851,-92.2779 212.1951,-72.7278 201,-58 189.706,-43.1421 172.7662,-30.1282 160.1056,-21.585"/>
<polygon fill="#191970" stroke="#191970" points="221.7595,-107.8839 228.1179,-116.3586 228.4322,-105.7685 221.7595,-107.8839"/>
</g>
<!-- Node12 -->
<g id="node12" class="node">
<title>Node12</title>
<g id="a_node12"><a xlink:href="../../dd/d84/base__timer_8cpp.html" target="_top" xlink:title="base_timer.cpp">
<polygon fill="#ffffff" stroke="#000000" points="472,-174.5 472,-195.5 550,-195.5 550,-174.5 472,-174.5"/>
<text text-anchor="middle" x="511" y="-181.9" font-family="Helvetica,sans-Serif" font-size="12.00" fill="#000000">base_timer.cpp</text>
</a>
</g>
</g>
<!-- Node11&#45;&gt;Node12 -->
<g id="edge20" class="edge">
<title>Node11&#45;&gt;Node12</title>
<path fill="none" stroke="#191970" d="M498.6226,-222.7838C501.6255,-213.617 505.0519,-203.1572 507.5372,-195.5707"/>
<polygon fill="#191970" stroke="#191970" points="495.272,-221.7692 495.4849,-232.3619 501.9241,-223.9484 495.272,-221.7692"/>
</g>
<!-- Node11&#45;&gt;Node13 -->
<g id="edge21" class="edge">
<title>Node11&#45;&gt;Node13</title>
<path fill="none" stroke="#191970" d="M467.8786,-226.5407C453.3064,-216.5973 435.1639,-204.2177 422.4915,-195.5707"/>
<polygon fill="#191970" stroke="#191970" points="466.1767,-229.6166 476.4097,-232.3619 470.1222,-223.8344 466.1767,-229.6166"/>
</g>
<!-- Node13&#45;&gt;Node5 -->
<g id="edge23" class="edge">
<title>Node13&#45;&gt;Node5</title>
<path fill="none" stroke="#191970" d="M433.4167,-168.6781C444.8968,-160.566 457.7953,-149.9428 467,-138 495.2115,-101.3963 504.942,-44.9585 507.8765,-21.6407"/>
<polygon fill="#191970" stroke="#191970" points="431.3209,-165.8702 424.9989,-174.3722 435.243,-171.6682 431.3209,-165.8702"/>
</g>
<!-- Node13&#45;&gt;Node10 -->
<g id="edge22" class="edge">
<title>Node13&#45;&gt;Node10</title>
<path fill="none" stroke="#191970" d="M365.363,-171.2787C334.0015,-160.9437 291.6438,-146.9849 262.932,-137.5231"/>
<polygon fill="#191970" stroke="#191970" points="364.5347,-174.6908 375.1277,-174.4966 366.7256,-168.0425 364.5347,-174.6908"/>
</g>
<!-- Node14 -->
<g id="node14" class="node">
<title>Node14</title>
<g id="a_node14"><a xlink:href="../../dc/de5/timer_8cpp.html" target="_top" xlink:title="timer.cpp">
<polygon fill="#ffffff" stroke="#000000" points="514,-116.5 514,-137.5 568,-137.5 568,-116.5 514,-116.5"/>
<text text-anchor="middle" x="541" y="-123.9" font-family="Helvetica,sans-Serif" font-size="12.00" fill="#000000">timer.cpp</text>
</a>
</g>
</g>
<!-- Node13&#45;&gt;Node14 -->
<g id="edge24" class="edge">
<title>Node13&#45;&gt;Node14</title>
<path fill="none" stroke="#191970" d="M440.5476,-170.4794C464.1361,-160.2695 495.1659,-146.8386 516.4613,-137.6212"/>
<polygon fill="#191970" stroke="#191970" points="439.0533,-167.3123 431.2664,-174.4966 441.8339,-173.7364 439.0533,-167.3123"/>
</g>
<!-- Node15&#45;&gt;Node11 -->
<g id="edge27" class="edge">
<title>Node15&#45;&gt;Node11</title>
<path fill="none" stroke="#191970" d="M428.5467,-284.8215C443.7043,-274.8312 462.7184,-262.2993 475.9618,-253.5707"/>
<polygon fill="#191970" stroke="#191970" points="426.564,-281.9364 420.1406,-290.3619 430.4163,-287.7811 426.564,-281.9364"/>
</g>
<!-- Node16&#45;&gt;Node5 -->
<g id="edge30" class="edge">
<title>Node16&#45;&gt;Node5</title>
<path fill="none" stroke="#191970" d="M572.2802,-281.1619C582.0407,-258.4449 596,-219.8617 596,-185 596,-185 596,-185 596,-127 596,-80.1771 550.0733,-40.1581 524.9571,-21.7736"/>
<polygon fill="#191970" stroke="#191970" points="569.0312,-279.854 568.1563,-290.4127 575.4247,-282.7042 569.0312,-279.854"/>
</g>
<!-- Node16&#45;&gt;Node11 -->
<g id="edge29" class="edge">
<title>Node16&#45;&gt;Node11</title>
<path fill="none" stroke="#191970" d="M542.1595,-283.9753C530.1093,-274.1315 515.3254,-262.0545 504.9399,-253.5707"/>
<polygon fill="#191970" stroke="#191970" points="540.0188,-286.746 549.9775,-290.3619 544.4473,-281.3249 540.0188,-286.746"/>
</g>
</g>
</svg>
