<?xml version="1.0" encoding="UTF-8" standalone="no"?>
<!DOCTYPE svg PUBLIC "-//W3C//DTD SVG 1.1//EN"
 "http://www.w3.org/Graphics/SVG/1.1/DTD/svg11.dtd">
<!-- Generated by graphviz version 2.40.1 (20161225.0304)
 -->
<!-- Title: timemory/namespace.hpp Pages: 1 -->
<svg width="751pt" height="449pt"
 viewBox="0.00 0.00 751.00 449.00" xmlns="http://www.w3.org/2000/svg" xmlns:xlink="http://www.w3.org/1999/xlink">
<g id="graph0" class="graph" transform="scale(1 1) rotate(0) translate(4 445)">
<title>timemory/namespace.hpp</title>
<polygon fill="#ffffff" stroke="transparent" points="-4,4 -4,-445 747,-445 747,4 -4,4"/>
<!-- Node1 -->
<g id="node1" class="node">
<title>Node1</title>
<polygon fill="#bfbfbf" stroke="#000000" points="273,-419.5 273,-440.5 393,-440.5 393,-419.5 273,-419.5"/>
<text text-anchor="middle" x="333" y="-426.9" font-family="Helvetica,sans-Serif" font-size="12.00" fill="#000000">timemory/namespace.hpp</text>
</g>
<!-- Node2 -->
<g id="node2" class="node">
<title>Node2</title>
<g id="a_node2"><a xlink:href="../../d8/d07/auto__timer_8hpp.html" target="_top" xlink:title="timemory/auto_timer.hpp">
<polygon fill="#ffffff" stroke="#000000" points="485,-71.5 485,-92.5 601,-92.5 601,-71.5 485,-71.5"/>
<text text-anchor="middle" x="543" y="-78.9" font-family="Helvetica,sans-Serif" font-size="12.00" fill="#000000">timemory/auto_timer.hpp</text>
</a>
</g>
</g>
<!-- Node1&#45;&gt;Node2 -->
<g id="edge1" class="edge">
<title>Node1&#45;&gt;Node2</title>
<path fill="none" stroke="#191970" d="M403.3393,-422.5757C511.1724,-409.2148 705,-376.5053 705,-314 705,-314 705,-314 705,-198 705,-139.194 633.5614,-107.3361 585.5636,-92.5682"/>
<polygon fill="#191970" stroke="#191970" points="402.687,-419.1291 393.1817,-423.8087 403.5306,-426.0781 402.687,-419.1291"/>
</g>
<!-- Node5 -->
<g id="node5" class="node">
<title>Node5</title>
<g id="a_node5"><a xlink:href="../../d2/d80/auto__timer_8cpp.html" target="_top" xlink:title="auto_timer.cpp">
<polygon fill="#ffffff" stroke="#000000" points="635,-7 635,-28 711,-28 711,-7 635,-7"/>
<text text-anchor="middle" x="673" y="-14.4" font-family="Helvetica,sans-Serif" font-size="12.00" fill="#000000">auto_timer.cpp</text>
</a>
</g>
</g>
<!-- Node1&#45;&gt;Node5 -->
<g id="edge28" class="edge">
<title>Node1&#45;&gt;Node5</title>
<path fill="none" stroke="#191970" d="M403.1081,-423.6971C482.7997,-415.8241 607.4702,-401.1541 651,-383 698.173,-363.3264 743,-365.1111 743,-314 743,-314 743,-314 743,-140 743,-93.2151 704.0341,-48.0517 684.2467,-28.1333"/>
<polygon fill="#191970" stroke="#191970" points="402.7524,-420.2151 393.1396,-424.6697 403.4322,-427.182 402.7524,-420.2151"/>
</g>
<!-- Node6 -->
<g id="node6" class="node">
<title>Node6</title>
<g id="a_node6"><a xlink:href="../../d2/dfd/timemory_8cc.html" target="_top" xlink:title="timemory.cc">
<polygon fill="#ffffff" stroke="#000000" points="149.5,-7 149.5,-28 214.5,-28 214.5,-7 149.5,-7"/>
<text text-anchor="middle" x="182" y="-14.4" font-family="Helvetica,sans-Serif" font-size="12.00" fill="#000000">timemory.cc</text>
</a>
</g>
</g>
<!-- Node1&#45;&gt;Node6 -->
<g id="edge38" class="edge">
<title>Node1&#45;&gt;Node6</title>
<path fill="none" stroke="#191970" d="M262.5836,-420.0007C164.8598,-404.1117 0,-369.1362 0,-314 0,-314 0,-314 0,-140 0,-68.7757 97.1124,-36.2415 149.462,-23.8778"/>
<polygon fill="#191970" stroke="#191970" points="262.2693,-423.4948 272.6962,-421.616 263.3735,-416.5824 262.2693,-423.4948"/>
</g>
<!-- Node8 -->
<g id="node8" class="node">
<title>Node8</title>
<g id="a_node8"><a xlink:href="../../d1/d4e/utility_8hpp.html" target="_top" xlink:title="timemory/utility.hpp">
<polygon fill="#ffffff" stroke="#000000" points="420,-361.5 420,-382.5 514,-382.5 514,-361.5 420,-361.5"/>
<text text-anchor="middle" x="467" y="-368.9" font-family="Helvetica,sans-Serif" font-size="12.00" fill="#000000">timemory/utility.hpp</text>
</a>
</g>
</g>
<!-- Node1&#45;&gt;Node8 -->
<g id="edge7" class="edge">
<title>Node1&#45;&gt;Node8</title>
<path fill="none" stroke="#191970" d="M366.5476,-415.4794C390.1361,-405.2695 421.1659,-391.8386 442.4613,-382.6212"/>
<polygon fill="#191970" stroke="#191970" points="365.0533,-412.3123 357.2664,-419.4966 367.8339,-418.7364 365.0533,-412.3123"/>
</g>
<!-- Node9 -->
<g id="node9" class="node">
<title>Node9</title>
<g id="a_node9"><a xlink:href="../../d6/d01/base__timer_8hpp.html" target="_top" xlink:title="timemory/base_timer.hpp">
<polygon fill="#ffffff" stroke="#000000" points="138,-245.5 138,-266.5 256,-266.5 256,-245.5 138,-245.5"/>
<text text-anchor="middle" x="197" y="-252.9" font-family="Helvetica,sans-Serif" font-size="12.00" fill="#000000">timemory/base_timer.hpp</text>
</a>
</g>
</g>
<!-- Node1&#45;&gt;Node9 -->
<g id="edge29" class="edge">
<title>Node1&#45;&gt;Node9</title>
<path fill="none" stroke="#191970" d="M269.6233,-416.0676C251.1271,-409.0472 232.5389,-398.5726 220,-383 191.8943,-348.0943 193.6657,-290.2141 195.7855,-266.5618"/>
<polygon fill="#191970" stroke="#191970" points="268.66,-419.4384 279.2548,-419.4327 270.9688,-412.8302 268.66,-419.4384"/>
</g>
<!-- Node11 -->
<g id="node11" class="node">
<title>Node11</title>
<g id="a_node11"><a xlink:href="../../df/d05/timer_8hpp.html" target="_top" xlink:title="timemory/timer.hpp">
<polygon fill="#ffffff" stroke="#000000" points="66,-187.5 66,-208.5 160,-208.5 160,-187.5 66,-187.5"/>
<text text-anchor="middle" x="113" y="-194.9" font-family="Helvetica,sans-Serif" font-size="12.00" fill="#000000">timemory/timer.hpp</text>
</a>
</g>
</g>
<!-- Node1&#45;&gt;Node11 -->
<g id="edge36" class="edge">
<title>Node1&#45;&gt;Node11</title>
<path fill="none" stroke="#191970" d="M264.4314,-417.1911C231.8431,-409.6586 192.9126,-398.5126 160,-383 119.6208,-363.9682 98.5181,-364.6447 78,-325 57.291,-284.9863 89.1807,-231.3495 104.9798,-208.7517"/>
<polygon fill="#191970" stroke="#191970" points="263.8038,-420.6372 274.3278,-419.4136 265.3377,-413.8074 263.8038,-420.6372"/>
</g>
<!-- Node12 -->
<g id="node12" class="node">
<title>Node12</title>
<g id="a_node12"><a xlink:href="../../df/df2/timing__manager_8hpp.html" target="_top" xlink:title="timemory/timing_manager.hpp">
<polygon fill="#ffffff" stroke="#000000" points="350,-129.5 350,-150.5 488,-150.5 488,-129.5 350,-129.5"/>
<text text-anchor="middle" x="419" y="-136.9" font-family="Helvetica,sans-Serif" font-size="12.00" fill="#000000">timemory/timing_manager.hpp</text>
</a>
</g>
</g>
<!-- Node1&#45;&gt;Node12 -->
<g id="edge37" class="edge">
<title>Node1&#45;&gt;Node12</title>
<path fill="none" stroke="#191970" d="M403.2218,-419.2212C449.4602,-410.9076 504.7112,-398.265 523,-383 548.8103,-361.4571 554,-347.6195 554,-314 554,-314 554,-314 554,-256 554,-201.1502 489.0991,-166.5949 449.2966,-150.5603"/>
<polygon fill="#191970" stroke="#191970" points="402.4507,-415.803 393.2073,-420.9807 403.6621,-422.6974 402.4507,-415.803"/>
</g>
<!-- Node14 -->
<g id="node14" class="node">
<title>Node14</title>
<g id="a_node14"><a xlink:href="../../da/d8e/signal__detection_8hpp.html" target="_top" xlink:title="timemory/signal_detection.hpp">
<polygon fill="#ffffff" stroke="#000000" points="307.5,-303.5 307.5,-324.5 446.5,-324.5 446.5,-303.5 307.5,-303.5"/>
<text text-anchor="middle" x="377" y="-310.9" font-family="Helvetica,sans-Serif" font-size="12.00" fill="#000000">timemory/signal_detection.hpp</text>
</a>
</g>
</g>
<!-- Node1&#45;&gt;Node14 -->
<g id="edge30" class="edge">
<title>Node1&#45;&gt;Node14</title>
<path fill="none" stroke="#191970" d="M343.9842,-410.5475C348.4032,-402.229 353.314,-392.3061 357,-383 364.8997,-363.0552 371.2125,-338.7635 374.5048,-324.9695"/>
<polygon fill="#191970" stroke="#191970" points="340.8476,-408.9886 339.1254,-419.4425 346.9909,-412.3442 340.8476,-408.9886"/>
</g>
<!-- Node16 -->
<g id="node16" class="node">
<title>Node16</title>
<g id="a_node16"><a xlink:href="../../d8/d4e/base__clock_8hpp.html" target="_top" xlink:title="timemory/base_clock.hpp">
<polygon fill="#ffffff" stroke="#000000" points="229.5,-361.5 229.5,-382.5 348.5,-382.5 348.5,-361.5 229.5,-361.5"/>
<text text-anchor="middle" x="289" y="-368.9" font-family="Helvetica,sans-Serif" font-size="12.00" fill="#000000">timemory/base_clock.hpp</text>
</a>
</g>
</g>
<!-- Node1&#45;&gt;Node16 -->
<g id="edge31" class="edge">
<title>Node1&#45;&gt;Node16</title>
<path fill="none" stroke="#191970" d="M318.7762,-411.2504C311.5689,-401.75 303.0839,-390.5651 297.0191,-382.5707"/>
<polygon fill="#191970" stroke="#191970" points="316.0974,-413.5103 324.9297,-419.3619 321.6742,-409.2796 316.0974,-413.5103"/>
</g>
<!-- Node17 -->
<g id="node17" class="node">
<title>Node17</title>
<g id="a_node17"><a xlink:href="../../d9/dd2/rss_8hpp.html" target="_top" xlink:title="timemory/rss.hpp">
<polygon fill="#ffffff" stroke="#000000" points="87,-303.5 87,-324.5 173,-324.5 173,-303.5 87,-303.5"/>
<text text-anchor="middle" x="130" y="-310.9" font-family="Helvetica,sans-Serif" font-size="12.00" fill="#000000">timemory/rss.hpp</text>
</a>
</g>
</g>
<!-- Node1&#45;&gt;Node17 -->
<g id="edge33" class="edge">
<title>Node1&#45;&gt;Node17</title>
<path fill="none" stroke="#191970" d="M265.7252,-416.9002C239.6304,-409.7052 210.4506,-398.9025 187,-383 163.9807,-367.39 145.2848,-339.875 136.1205,-324.7353"/>
<polygon fill="#191970" stroke="#191970" points="264.9956,-420.3273 275.5569,-419.4842 266.775,-413.5572 264.9956,-420.3273"/>
</g>
<!-- Node3 -->
<g id="node3" class="node">
<title>Node3</title>
<g id="a_node3"><a xlink:href="../../d6/d8e/test__timing_8cpp.html" target="_top" xlink:title="examples/ex1/test_timing.cpp">
<polygon fill="#ffffff" stroke="#000000" points="237.5,-7 237.5,-28 372.5,-28 372.5,-7 237.5,-7"/>
<text text-anchor="middle" x="305" y="-14.4" font-family="Helvetica,sans-Serif" font-size="12.00" fill="#000000">examples/ex1/test_timing.cpp</text>
</a>
</g>
</g>
<!-- Node2&#45;&gt;Node3 -->
<g id="edge2" class="edge">
<title>Node2&#45;&gt;Node3</title>
<path fill="none" stroke="#191970" d="M494.5041,-68.8572C449.99,-56.7935 384.8912,-39.1512 343.7519,-28.0021"/>
<polygon fill="#191970" stroke="#191970" points="493.6641,-72.2558 504.2315,-71.4934 495.4952,-65.4995 493.6641,-72.2558"/>
</g>
<!-- Node4 -->
<g id="node4" class="node">
<title>Node4</title>
<g id="a_node4"><a xlink:href="../../dd/d0a/mpi__test__timing_8cpp.html" target="_top" xlink:title="examples/ex2/mpi_test\l_timing.cpp">
<polygon fill="#ffffff" stroke="#000000" points="507.5,-.5 507.5,-34.5 616.5,-34.5 616.5,-.5 507.5,-.5"/>
<text text-anchor="start" x="515.5" y="-20.9" font-family="Helvetica,sans-Serif" font-size="12.00" fill="#000000">examples/ex2/mpi_test</text>
<text text-anchor="middle" x="562" y="-7.9" font-family="Helvetica,sans-Serif" font-size="12.00" fill="#000000">_timing.cpp</text>
</a>
</g>
</g>
<!-- Node2&#45;&gt;Node4 -->
<g id="edge3" class="edge">
<title>Node2&#45;&gt;Node4</title>
<path fill="none" stroke="#191970" d="M548.993,-61.6552C551.5427,-52.9997 554.4845,-43.0131 556.9247,-34.7292"/>
<polygon fill="#191970" stroke="#191970" points="545.6059,-60.7676 546.1375,-71.3491 552.3206,-62.7457 545.6059,-60.7676"/>
</g>
<!-- Node2&#45;&gt;Node5 -->
<g id="edge4" class="edge">
<title>Node2&#45;&gt;Node5</title>
<path fill="none" stroke="#191970" d="M573.2498,-66.9915C597.3562,-55.031 630.4949,-38.589 651.833,-28.0021"/>
<polygon fill="#191970" stroke="#191970" points="571.5785,-63.9135 564.1761,-71.4934 574.6897,-70.1841 571.5785,-63.9135"/>
</g>
<!-- Node2&#45;&gt;Node6 -->
<g id="edge5" class="edge">
<title>Node2&#45;&gt;Node6</title>
<path fill="none" stroke="#191970" d="M474.7369,-76.0978C410.352,-69.5285 311.5281,-56.8469 228,-35 221.0562,-33.1838 213.7166,-30.6754 206.9886,-28.1245"/>
<polygon fill="#191970" stroke="#191970" points="474.4685,-79.5883 484.767,-77.1001 475.1646,-72.623 474.4685,-79.5883"/>
</g>
<!-- Node7 -->
<g id="node7" class="node">
<title>Node7</title>
<g id="a_node7"><a xlink:href="../../d9/dad/timing__manager_8cpp.html" target="_top" xlink:title="timing_manager.cpp">
<polygon fill="#ffffff" stroke="#000000" points="391,-7 391,-28 489,-28 489,-7 391,-7"/>
<text text-anchor="middle" x="440" y="-14.4" font-family="Helvetica,sans-Serif" font-size="12.00" fill="#000000">timing_manager.cpp</text>
</a>
</g>
</g>
<!-- Node2&#45;&gt;Node7 -->
<g id="edge6" class="edge">
<title>Node2&#45;&gt;Node7</title>
<path fill="none" stroke="#191970" d="M517.3117,-65.9136C498.4818,-54.1221 473.443,-38.4425 457.0336,-28.1667"/>
<polygon fill="#191970" stroke="#191970" points="515.6587,-69.0081 525.9916,-71.3491 519.3739,-63.0753 515.6587,-69.0081"/>
</g>
<!-- Node8&#45;&gt;Node2 -->
<g id="edge8" class="edge">
<title>Node8&#45;&gt;Node2</title>
<path fill="none" stroke="#191970" d="M480.6167,-352.9754C495.1167,-330.8068 516,-292.5367 516,-256 516,-256 516,-256 516,-198 516,-158.2997 531.1875,-112.8999 538.7813,-92.6812"/>
<polygon fill="#191970" stroke="#191970" points="477.5926,-351.1987 474.8727,-361.4385 483.3845,-355.1298 477.5926,-351.1987"/>
</g>
<!-- Node8&#45;&gt;Node5 -->
<g id="edge9" class="edge">
<title>Node8&#45;&gt;Node5</title>
<path fill="none" stroke="#191970" d="M524.1342,-363.7022C583.2438,-351.5086 667,-322.4981 667,-256 667,-256 667,-256 667,-140 667,-98.6919 670.4457,-49.6421 672.1147,-28.3065"/>
<polygon fill="#191970" stroke="#191970" points="523.2875,-360.3014 514.1439,-365.6536 524.6295,-367.1716 523.2875,-360.3014"/>
</g>
<!-- Node8&#45;&gt;Node9 -->
<g id="edge10" class="edge">
<title>Node8&#45;&gt;Node9</title>
<path fill="none" stroke="#191970" d="M409.5469,-360.9508C376.0498,-353.3135 333.5355,-341.5257 298,-325 263.5324,-308.971 227.886,-281.623 209.5607,-266.6216"/>
<polygon fill="#191970" stroke="#191970" points="409.1147,-364.4399 419.6354,-363.1884 410.6305,-357.606 409.1147,-364.4399"/>
</g>
<!-- Node8&#45;&gt;Node12 -->
<g id="edge27" class="edge">
<title>Node8&#45;&gt;Node12</title>
<path fill="none" stroke="#191970" d="M466.2664,-351.0895C465.0553,-325.7373 461.9222,-281.8291 454,-245 446.3627,-209.4953 430.9253,-169.1843 423.3679,-150.516"/>
<polygon fill="#191970" stroke="#191970" points="462.7803,-351.4961 466.6979,-361.34 469.7741,-351.2016 462.7803,-351.4961"/>
</g>
<!-- Node8&#45;&gt;Node14 -->
<g id="edge21" class="edge">
<title>Node8&#45;&gt;Node14</title>
<path fill="none" stroke="#191970" d="M441.8954,-355.8215C426.3933,-345.8312 406.9471,-333.2993 393.4027,-324.5707"/>
<polygon fill="#191970" stroke="#191970" points="440.1909,-358.8869 450.4926,-361.3619 443.9829,-353.0028 440.1909,-358.8869"/>
</g>
<!-- Node10 -->
<g id="node10" class="node">
<title>Node10</title>
<g id="a_node10"><a xlink:href="../../dd/d84/base__timer_8cpp.html" target="_top" xlink:title="base_timer.cpp">
<polygon fill="#ffffff" stroke="#000000" points="178,-187.5 178,-208.5 256,-208.5 256,-187.5 178,-187.5"/>
<text text-anchor="middle" x="217" y="-194.9" font-family="Helvetica,sans-Serif" font-size="12.00" fill="#000000">base_timer.cpp</text>
</a>
</g>
</g>
<!-- Node9&#45;&gt;Node10 -->
<g id="edge11" class="edge">
<title>Node9&#45;&gt;Node10</title>
<path fill="none" stroke="#191970" d="M203.9711,-235.7838C207.1321,-226.617 210.7389,-216.1572 213.3549,-208.5707"/>
<polygon fill="#191970" stroke="#191970" points="200.6195,-234.7672 200.6683,-245.3619 207.2371,-237.0492 200.6195,-234.7672"/>
</g>
<!-- Node9&#45;&gt;Node11 -->
<g id="edge12" class="edge">
<title>Node9&#45;&gt;Node11</title>
<path fill="none" stroke="#191970" d="M173.1624,-239.5407C158.7617,-229.5973 140.8325,-217.2177 128.3092,-208.5707"/>
<polygon fill="#191970" stroke="#191970" points="171.3754,-242.5601 181.5931,-245.3619 175.3528,-236.7998 171.3754,-242.5601"/>
</g>
<!-- Node11&#45;&gt;Node6 -->
<g id="edge19" class="edge">
<title>Node11&#45;&gt;Node6</title>
<path fill="none" stroke="#191970" d="M130.0221,-179.4842C136.7882,-171.2725 144.1097,-161.176 149,-151 169.5792,-108.1776 178.1049,-51.2615 180.8812,-28.039"/>
<polygon fill="#191970" stroke="#191970" points="127.1766,-177.4245 123.2975,-187.2837 132.4782,-181.9955 127.1766,-177.4245"/>
</g>
<!-- Node11&#45;&gt;Node12 -->
<g id="edge13" class="edge">
<title>Node11&#45;&gt;Node12</title>
<path fill="none" stroke="#191970" d="M170.2009,-186.7792C242.1617,-172.9711 313.9702,-159.5248 362.3802,-150.5088"/>
<polygon fill="#191970" stroke="#191970" points="169.2085,-183.4058 160.0483,-188.7296 170.5291,-190.2801 169.2085,-183.4058"/>
</g>
<!-- Node13 -->
<g id="node13" class="node">
<title>Node13</title>
<g id="a_node13"><a xlink:href="../../dc/de5/timer_8cpp.html" target="_top" xlink:title="timer.cpp">
<polygon fill="#ffffff" stroke="#000000" points="86,-129.5 86,-150.5 140,-150.5 140,-129.5 86,-129.5"/>
<text text-anchor="middle" x="113" y="-136.9" font-family="Helvetica,sans-Serif" font-size="12.00" fill="#000000">timer.cpp</text>
</a>
</g>
</g>
<!-- Node11&#45;&gt;Node13 -->
<g id="edge20" class="edge">
<title>Node11&#45;&gt;Node13</title>
<path fill="none" stroke="#191970" d="M113,-177.1906C113,-168.1684 113,-157.9941 113,-150.5707"/>
<polygon fill="#191970" stroke="#191970" points="109.5001,-177.3619 113,-187.3619 116.5001,-177.3619 109.5001,-177.3619"/>
</g>
<!-- Node12&#45;&gt;Node2 -->
<g id="edge16" class="edge">
<title>Node12&#45;&gt;Node2</title>
<path fill="none" stroke="#191970" d="M450.6278,-125.2064C472.382,-115.031 500.7616,-101.7567 520.2926,-92.6212"/>
<polygon fill="#191970" stroke="#191970" points="449.0307,-122.0894 441.4555,-129.4966 451.9965,-128.4301 449.0307,-122.0894"/>
</g>
<!-- Node12&#45;&gt;Node3 -->
<g id="edge14" class="edge">
<title>Node12&#45;&gt;Node3</title>
<path fill="none" stroke="#191970" d="M402.8183,-121.6003C390.4191,-107.5974 372.8108,-87.9174 357,-71 342.8493,-55.8589 326.0745,-38.7457 315.4833,-28.0401"/>
<polygon fill="#191970" stroke="#191970" points="400.2209,-123.9466 409.4639,-129.1251 405.4677,-119.3128 400.2209,-123.9466"/>
</g>
<!-- Node12&#45;&gt;Node4 -->
<g id="edge15" class="edge">
<title>Node12&#45;&gt;Node4</title>
<path fill="none" stroke="#191970" d="M432.1233,-120.9242C442.8388,-106.2049 458.9507,-85.906 476,-71 492.1502,-56.88 512.4388,-44.0677 529.2536,-34.5234"/>
<polygon fill="#191970" stroke="#191970" points="429.1315,-119.092 426.1886,-129.2699 434.8362,-123.1487 429.1315,-119.092"/>
</g>
<!-- Node12&#45;&gt;Node6 -->
<g id="edge17" class="edge">
<title>Node12&#45;&gt;Node6</title>
<path fill="none" stroke="#191970" d="M389.2679,-124.6321C340.3995,-99.3731 244.342,-49.7232 202.4012,-28.0449"/>
<polygon fill="#191970" stroke="#191970" points="387.8918,-127.8607 398.3824,-129.3432 391.106,-121.6423 387.8918,-127.8607"/>
</g>
<!-- Node12&#45;&gt;Node7 -->
<g id="edge18" class="edge">
<title>Node12&#45;&gt;Node7</title>
<path fill="none" stroke="#191970" d="M422.5917,-119.0484C427.1115,-92.683 434.7017,-48.4069 438.1706,-28.1718"/>
<polygon fill="#191970" stroke="#191970" points="419.1037,-118.6813 420.8636,-129.1289 426.003,-119.8641 419.1037,-118.6813"/>
</g>
<!-- Node14&#45;&gt;Node3 -->
<g id="edge22" class="edge">
<title>Node14&#45;&gt;Node3</title>
<path fill="none" stroke="#191970" d="M398.6504,-296.6955C406.9977,-288.659 415.5852,-278.3657 420,-267 423.5403,-257.8856 423.3478,-254.1868 420,-245 401.3151,-193.7258 366.2563,-199.3766 341,-151 318.892,-108.6538 309.4015,-51.4735 306.2714,-28.1098"/>
<polygon fill="#191970" stroke="#191970" points="396.2789,-294.1211 391.1787,-303.4076 400.9568,-299.3285 396.2789,-294.1211"/>
</g>
<!-- Node14&#45;&gt;Node4 -->
<g id="edge23" class="edge">
<title>Node14&#45;&gt;Node4</title>
<path fill="none" stroke="#191970" d="M430.6976,-300.7922C504.7008,-280.9943 629,-241.2966 629,-198 629,-198 629,-198 629,-140 629,-108.1919 625.2491,-98.9145 610,-71 602.5819,-57.4207 591.0883,-44.4442 581.2079,-34.6725"/>
<polygon fill="#191970" stroke="#191970" points="429.3849,-297.5186 420.6074,-303.452 431.1692,-304.2874 429.3849,-297.5186"/>
</g>
<!-- Node14&#45;&gt;Node6 -->
<g id="edge26" class="edge">
<title>Node14&#45;&gt;Node6</title>
<path fill="none" stroke="#191970" d="M344.573,-298.6604C330.4333,-290.742 314.4974,-279.9985 303,-267 276.9208,-237.5159 282.1002,-222.4544 265,-187 235.962,-126.7948 200.4975,-54.9075 187.2882,-28.1873"/>
<polygon fill="#191970" stroke="#191970" points="343.0712,-301.8262 353.5406,-303.4514 346.3697,-295.6521 343.0712,-301.8262"/>
</g>
<!-- Node14&#45;&gt;Node9 -->
<g id="edge24" class="edge">
<title>Node14&#45;&gt;Node9</title>
<path fill="none" stroke="#191970" d="M334.8327,-300.4127C302.7178,-290.0646 259.1491,-276.0258 229.6578,-266.5231"/>
<polygon fill="#191970" stroke="#191970" points="333.8118,-303.761 344.4034,-303.4966 335.9587,-297.0983 333.8118,-303.761"/>
</g>
<!-- Node15 -->
<g id="node15" class="node">
<title>Node15</title>
<g id="a_node15"><a xlink:href="../../dc/d43/signal__detection_8cpp.html" target="_top" xlink:title="signal_detection.cpp">
<polygon fill="#ffffff" stroke="#000000" points="312.5,-245.5 312.5,-266.5 411.5,-266.5 411.5,-245.5 312.5,-245.5"/>
<text text-anchor="middle" x="362" y="-252.9" font-family="Helvetica,sans-Serif" font-size="12.00" fill="#000000">signal_detection.cpp</text>
</a>
</g>
</g>
<!-- Node14&#45;&gt;Node15 -->
<g id="edge25" class="edge">
<title>Node14&#45;&gt;Node15</title>
<path fill="none" stroke="#191970" d="M371.6951,-293.4876C369.3428,-284.3924 366.6747,-274.0756 364.7338,-266.5707"/>
<polygon fill="#191970" stroke="#191970" points="368.3564,-294.5568 374.2488,-303.3619 375.1334,-292.8041 368.3564,-294.5568"/>
</g>
<!-- Node16&#45;&gt;Node9 -->
<g id="edge32" class="edge">
<title>Node16&#45;&gt;Node9</title>
<path fill="none" stroke="#191970" d="M274.2669,-353.4235C254.7951,-328.8721 221.1319,-286.4272 205.4697,-266.6792"/>
<polygon fill="#191970" stroke="#191970" points="271.5535,-355.6348 280.5098,-361.2949 277.038,-351.285 271.5535,-355.6348"/>
</g>
<!-- Node17&#45;&gt;Node6 -->
<g id="edge35" class="edge">
<title>Node17&#45;&gt;Node6</title>
<path fill="none" stroke="#191970" d="M109.4533,-296.0891C85.4156,-272.888 49.7498,-230.2661 57,-187 61.5064,-160.1077 62.8939,-152.3351 77,-129 102.723,-86.4476 146.8927,-46.5669 168.8342,-28.16"/>
<polygon fill="#191970" stroke="#191970" points="107.3753,-298.9364 117.0807,-303.1857 112.1435,-293.8115 107.3753,-298.9364"/>
</g>
<!-- Node17&#45;&gt;Node9 -->
<g id="edge34" class="edge">
<title>Node17&#45;&gt;Node9</title>
<path fill="none" stroke="#191970" d="M149.9952,-296.6908C161.3056,-286.8996 175.083,-274.973 184.7891,-266.5707"/>
<polygon fill="#191970" stroke="#191970" points="147.5587,-294.1706 142.2888,-303.3619 152.1402,-299.4631 147.5587,-294.1706"/>
</g>
</g>
</svg>
