<?xml version="1.0" encoding="UTF-8" standalone="no"?>
<!DOCTYPE svg PUBLIC "-//W3C//DTD SVG 1.1//EN"
 "http://www.w3.org/Graphics/SVG/1.1/DTD/svg11.dtd">
<!-- Generated by graphviz version 2.40.1 (20161225.0304)
 -->
<!-- Title: timemory/namespace.hpp Pages: 1 -->
<svg width="795pt" height="449pt"
 viewBox="0.00 0.00 795.00 449.00" xmlns="http://www.w3.org/2000/svg" xmlns:xlink="http://www.w3.org/1999/xlink">
<g id="graph0" class="graph" transform="scale(1 1) rotate(0) translate(4 445)">
<title>timemory/namespace.hpp</title>
<polygon fill="#ffffff" stroke="transparent" points="-4,4 -4,-445 791,-445 791,4 -4,4"/>
<!-- Node1 -->
<g id="node1" class="node">
<title>Node1</title>
<polygon fill="#bfbfbf" stroke="#000000" points="373,-419.5 373,-440.5 493,-440.5 493,-419.5 373,-419.5"/>
<text text-anchor="middle" x="433" y="-426.9" font-family="Helvetica,sans-Serif" font-size="12.00" fill="#000000">timemory/namespace.hpp</text>
</g>
<!-- Node2 -->
<g id="node2" class="node">
<title>Node2</title>
<g id="a_node2"><a xlink:href="../../d8/d07/auto__timer_8hpp.html" target="_top" xlink:title="timemory/auto_timer.hpp">
<polygon fill="#ffffff" stroke="#000000" points="244,-71.5 244,-92.5 360,-92.5 360,-71.5 244,-71.5"/>
<text text-anchor="middle" x="302" y="-78.9" font-family="Helvetica,sans-Serif" font-size="12.00" fill="#000000">timemory/auto_timer.hpp</text>
</a>
</g>
</g>
<!-- Node1&#45;&gt;Node2 -->
<g id="edge1" class="edge">
<title>Node1&#45;&gt;Node2</title>
<path fill="none" stroke="#191970" d="M362.7259,-421.6638C258.729,-407.3392 76,-373.6788 76,-314 76,-314 76,-314 76,-198 76,-122.5844 176.8372,-96.1622 243.7994,-86.9304"/>
<polygon fill="#191970" stroke="#191970" points="362.4649,-425.1603 372.8435,-423.0307 363.4022,-418.2233 362.4649,-425.1603"/>
</g>
<!-- Node5 -->
<g id="node5" class="node">
<title>Node5</title>
<g id="a_node5"><a xlink:href="../../d2/d80/auto__timer_8cpp.html" target="_top" xlink:title="auto_timer.cpp">
<polygon fill="#ffffff" stroke="#000000" points="0,-7 0,-28 76,-28 76,-7 0,-7"/>
<text text-anchor="middle" x="38" y="-14.4" font-family="Helvetica,sans-Serif" font-size="12.00" fill="#000000">auto_timer.cpp</text>
</a>
</g>
</g>
<!-- Node1&#45;&gt;Node5 -->
<g id="edge28" class="edge">
<title>Node1&#45;&gt;Node5</title>
<path fill="none" stroke="#191970" d="M362.7389,-425.6835C240.1258,-416.2084 0,-388.1825 0,-314 0,-314 0,-314 0,-140 0,-97.0245 21.5982,-49.2221 32.2286,-28.297"/>
<polygon fill="#191970" stroke="#191970" points="362.559,-429.1798 372.7932,-426.4393 363.0837,-422.1995 362.559,-429.1798"/>
</g>
<!-- Node6 -->
<g id="node6" class="node">
<title>Node6</title>
<g id="a_node6"><a xlink:href="../../d2/dfd/timemory_8cc.html" target="_top" xlink:title="timemory.cc">
<polygon fill="#ffffff" stroke="#000000" points="527.5,-7 527.5,-28 592.5,-28 592.5,-7 527.5,-7"/>
<text text-anchor="middle" x="560" y="-14.4" font-family="Helvetica,sans-Serif" font-size="12.00" fill="#000000">timemory.cc</text>
</a>
</g>
</g>
<!-- Node1&#45;&gt;Node6 -->
<g id="edge39" class="edge">
<title>Node1&#45;&gt;Node6</title>
<path fill="none" stroke="#191970" d="M503.2943,-425.2841C556.0776,-419.8209 629.2385,-408.092 689,-383 738.1149,-362.3782 787,-367.2685 787,-314 787,-314 787,-314 787,-140 787,-52.6751 655.2911,-27.3078 592.5236,-20.1769"/>
<polygon fill="#191970" stroke="#191970" points="502.6284,-421.8326 493.0193,-426.2953 503.3141,-428.799 502.6284,-421.8326"/>
</g>
<!-- Node8 -->
<g id="node8" class="node">
<title>Node8</title>
<g id="a_node8"><a xlink:href="../../d1/d4e/utility_8hpp.html" target="_top" xlink:title="timemory/utility.hpp">
<polygon fill="#ffffff" stroke="#000000" points="267,-361.5 267,-382.5 361,-382.5 361,-361.5 267,-361.5"/>
<text text-anchor="middle" x="314" y="-368.9" font-family="Helvetica,sans-Serif" font-size="12.00" fill="#000000">timemory/utility.hpp</text>
</a>
</g>
</g>
<!-- Node1&#45;&gt;Node8 -->
<g id="edge7" class="edge">
<title>Node1&#45;&gt;Node8</title>
<path fill="none" stroke="#191970" d="M402.3663,-415.0693C381.5265,-404.9121 354.4512,-391.7157 335.7918,-382.6212"/>
<polygon fill="#191970" stroke="#191970" points="400.9274,-418.2615 411.45,-419.4966 403.9943,-411.9691 400.9274,-418.2615"/>
</g>
<!-- Node9 -->
<g id="node9" class="node">
<title>Node9</title>
<g id="a_node9"><a xlink:href="../../d6/d01/base__timer_8hpp.html" target="_top" xlink:title="timemory/base_timer.hpp">
<polygon fill="#ffffff" stroke="#000000" points="450,-245.5 450,-266.5 568,-266.5 568,-245.5 450,-245.5"/>
<text text-anchor="middle" x="509" y="-252.9" font-family="Helvetica,sans-Serif" font-size="12.00" fill="#000000">timemory/base_timer.hpp</text>
</a>
</g>
</g>
<!-- Node1&#45;&gt;Node9 -->
<g id="edge32" class="edge">
<title>Node1&#45;&gt;Node9</title>
<path fill="none" stroke="#191970" d="M441.6687,-410.1534C457.749,-373.3378 491.701,-295.6056 504.227,-266.9277"/>
<polygon fill="#191970" stroke="#191970" points="438.4351,-408.8125 437.6397,-419.3774 444.8499,-411.6144 438.4351,-408.8125"/>
</g>
<!-- Node11 -->
<g id="node11" class="node">
<title>Node11</title>
<g id="a_node11"><a xlink:href="../../df/d05/timer_8hpp.html" target="_top" xlink:title="timemory/timer.hpp">
<polygon fill="#ffffff" stroke="#000000" points="624,-187.5 624,-208.5 718,-208.5 718,-187.5 624,-187.5"/>
<text text-anchor="middle" x="671" y="-194.9" font-family="Helvetica,sans-Serif" font-size="12.00" fill="#000000">timemory/timer.hpp</text>
</a>
</g>
</g>
<!-- Node1&#45;&gt;Node11 -->
<g id="edge37" class="edge">
<title>Node1&#45;&gt;Node11</title>
<path fill="none" stroke="#191970" d="M503.3321,-422.6766C547.5078,-416.2188 604.8443,-404.3644 652,-383 691.3502,-365.172 710.6007,-363.5997 730,-325 751.3978,-282.4236 705.4455,-230.5972 682.73,-208.6424"/>
<polygon fill="#191970" stroke="#191970" points="502.6764,-419.2342 493.2595,-424.0894 503.6487,-426.1664 502.6764,-419.2342"/>
</g>
<!-- Node12 -->
<g id="node12" class="node">
<title>Node12</title>
<g id="a_node12"><a xlink:href="../../df/df2/timing__manager_8hpp.html" target="_top" xlink:title="timemory/timing_manager.hpp">
<polygon fill="#ffffff" stroke="#000000" points="336,-129.5 336,-150.5 474,-150.5 474,-129.5 336,-129.5"/>
<text text-anchor="middle" x="405" y="-136.9" font-family="Helvetica,sans-Serif" font-size="12.00" fill="#000000">timemory/timing_manager.hpp</text>
</a>
</g>
</g>
<!-- Node1&#45;&gt;Node12 -->
<g id="edge38" class="edge">
<title>Node1&#45;&gt;Node12</title>
<path fill="none" stroke="#191970" d="M431.0039,-409.3265C425.4879,-352.1964 410.1722,-193.5688 406.0391,-150.7622"/>
<polygon fill="#191970" stroke="#191970" points="427.5253,-409.7175 431.9703,-419.3348 434.4929,-409.0447 427.5253,-409.7175"/>
</g>
<!-- Node14 -->
<g id="node14" class="node">
<title>Node14</title>
<g id="a_node14"><a xlink:href="../../da/d8e/signal__detection_8hpp.html" target="_top" xlink:title="timemory/signal_detection.hpp">
<polygon fill="#ffffff" stroke="#000000" points="143.5,-303.5 143.5,-324.5 282.5,-324.5 282.5,-303.5 143.5,-303.5"/>
<text text-anchor="middle" x="213" y="-310.9" font-family="Helvetica,sans-Serif" font-size="12.00" fill="#000000">timemory/signal_detection.hpp</text>
</a>
</g>
</g>
<!-- Node1&#45;&gt;Node14 -->
<g id="edge33" class="edge">
<title>Node1&#45;&gt;Node14</title>
<path fill="none" stroke="#191970" d="M366.8784,-417.3615C325.0079,-408.3978 275.5621,-395.7413 258,-383 237.1633,-367.8829 223.3809,-339.9117 217.034,-324.6361"/>
<polygon fill="#191970" stroke="#191970" points="366.2758,-420.8113 376.7821,-419.4443 367.7165,-413.9611 366.2758,-420.8113"/>
</g>
<!-- Node16 -->
<g id="node16" class="node">
<title>Node16</title>
<g id="a_node16"><a xlink:href="../../d8/d4e/base__clock_8hpp.html" target="_top" xlink:title="timemory/base_clock.hpp">
<polygon fill="#ffffff" stroke="#000000" points="499.5,-361.5 499.5,-382.5 618.5,-382.5 618.5,-361.5 499.5,-361.5"/>
<text text-anchor="middle" x="559" y="-368.9" font-family="Helvetica,sans-Serif" font-size="12.00" fill="#000000">timemory/base_clock.hpp</text>
</a>
</g>
</g>
<!-- Node1&#45;&gt;Node16 -->
<g id="edge29" class="edge">
<title>Node1&#45;&gt;Node16</title>
<path fill="none" stroke="#191970" d="M465.1379,-415.2064C487.243,-405.031 516.0803,-391.7567 535.9263,-382.6212"/>
<polygon fill="#191970" stroke="#191970" points="463.4379,-412.1358 455.8176,-419.4966 466.365,-418.4945 463.4379,-412.1358"/>
</g>
<!-- Node18 -->
<g id="node18" class="node">
<title>Node18</title>
<g id="a_node18"><a xlink:href="../../d9/dd2/rss_8hpp.html" target="_top" xlink:title="timemory/rss.hpp">
<polygon fill="#ffffff" stroke="#000000" points="635,-303.5 635,-324.5 721,-324.5 721,-303.5 635,-303.5"/>
<text text-anchor="middle" x="678" y="-310.9" font-family="Helvetica,sans-Serif" font-size="12.00" fill="#000000">timemory/rss.hpp</text>
</a>
</g>
</g>
<!-- Node1&#45;&gt;Node18 -->
<g id="edge34" class="edge">
<title>Node1&#45;&gt;Node18</title>
<path fill="none" stroke="#191970" d="M503.3759,-418.3332C550.5402,-409.5269 607.6055,-396.6588 628,-383 650.125,-368.1822 665.856,-340.0894 673.2462,-324.7152"/>
<polygon fill="#191970" stroke="#191970" points="502.6825,-414.9019 493.4786,-420.1495 503.9461,-421.7869 502.6825,-414.9019"/>
</g>
<!-- Node3 -->
<g id="node3" class="node">
<title>Node3</title>
<g id="a_node3"><a xlink:href="../../d6/d8e/test__timing_8cpp.html" target="_top" xlink:title="examples/ex1/test_timing.cpp">
<polygon fill="#ffffff" stroke="#000000" points="94.5,-7 94.5,-28 229.5,-28 229.5,-7 94.5,-7"/>
<text text-anchor="middle" x="162" y="-14.4" font-family="Helvetica,sans-Serif" font-size="12.00" fill="#000000">examples/ex1/test_timing.cpp</text>
</a>
</g>
</g>
<!-- Node2&#45;&gt;Node3 -->
<g id="edge2" class="edge">
<title>Node2&#45;&gt;Node3</title>
<path fill="none" stroke="#191970" d="M270.1102,-67.3079C244.0952,-55.3224 207.978,-38.6827 184.7952,-28.0021"/>
<polygon fill="#191970" stroke="#191970" points="268.648,-70.4878 279.195,-71.4934 271.5771,-64.1301 268.648,-70.4878"/>
</g>
<!-- Node4 -->
<g id="node4" class="node">
<title>Node4</title>
<g id="a_node4"><a xlink:href="../../dd/d0a/mpi__test__timing_8cpp.html" target="_top" xlink:title="examples/ex2/mpi_test\l_timing.cpp">
<polygon fill="#ffffff" stroke="#000000" points="247.5,-.5 247.5,-34.5 356.5,-34.5 356.5,-.5 247.5,-.5"/>
<text text-anchor="start" x="255.5" y="-20.9" font-family="Helvetica,sans-Serif" font-size="12.00" fill="#000000">examples/ex2/mpi_test</text>
<text text-anchor="middle" x="302" y="-7.9" font-family="Helvetica,sans-Serif" font-size="12.00" fill="#000000">_timing.cpp</text>
</a>
</g>
</g>
<!-- Node2&#45;&gt;Node4 -->
<g id="edge3" class="edge">
<title>Node2&#45;&gt;Node4</title>
<path fill="none" stroke="#191970" d="M302,-61.0826C302,-52.5615 302,-42.8311 302,-34.7292"/>
<polygon fill="#191970" stroke="#191970" points="298.5001,-61.3491 302,-71.3491 305.5001,-61.3492 298.5001,-61.3491"/>
</g>
<!-- Node2&#45;&gt;Node5 -->
<g id="edge4" class="edge">
<title>Node2&#45;&gt;Node5</title>
<path fill="none" stroke="#191970" d="M233.7826,-69.8261C190.7226,-61.5034 134.1459,-49.3914 85,-35 78.3151,-33.0425 71.2185,-30.5994 64.6202,-28.1654"/>
<polygon fill="#191970" stroke="#191970" points="233.388,-73.314 243.8674,-71.7539 234.7024,-66.4384 233.388,-73.314"/>
</g>
<!-- Node2&#45;&gt;Node6 -->
<g id="edge5" class="edge">
<title>Node2&#45;&gt;Node6</title>
<path fill="none" stroke="#191970" d="M354.0218,-68.9946C405.8295,-56.0426 483.7542,-36.5615 527.4007,-25.6498"/>
<polygon fill="#191970" stroke="#191970" points="352.8789,-65.6725 344.0264,-71.4934 354.5767,-72.4635 352.8789,-65.6725"/>
</g>
<!-- Node7 -->
<g id="node7" class="node">
<title>Node7</title>
<g id="a_node7"><a xlink:href="../../d9/dad/timing__manager_8cpp.html" target="_top" xlink:title="timing_manager.cpp">
<polygon fill="#ffffff" stroke="#000000" points="376,-7 376,-28 474,-28 474,-7 376,-7"/>
<text text-anchor="middle" x="425" y="-14.4" font-family="Helvetica,sans-Serif" font-size="12.00" fill="#000000">timing_manager.cpp</text>
</a>
</g>
</g>
<!-- Node2&#45;&gt;Node7 -->
<g id="edge6" class="edge">
<title>Node2&#45;&gt;Node7</title>
<path fill="none" stroke="#191970" d="M330.9242,-66.8324C353.7066,-54.8856 384.873,-38.5422 404.9727,-28.0021"/>
<polygon fill="#191970" stroke="#191970" points="329.2666,-63.7496 322.0358,-71.4934 332.5175,-69.9489 329.2666,-63.7496"/>
</g>
<!-- Node8&#45;&gt;Node2 -->
<g id="edge8" class="edge">
<title>Node8&#45;&gt;Node2</title>
<path fill="none" stroke="#191970" d="M313.1445,-351.3265C310.7805,-294.1964 304.2166,-135.5688 302.4453,-92.7622"/>
<polygon fill="#191970" stroke="#191970" points="309.6481,-351.4881 313.5587,-361.3348 316.6422,-351.1986 309.6481,-351.4881"/>
</g>
<!-- Node8&#45;&gt;Node5 -->
<g id="edge9" class="edge">
<title>Node8&#45;&gt;Node5</title>
<path fill="none" stroke="#191970" d="M256.8237,-360.0794C175.9832,-341.553 38,-303.0411 38,-256 38,-256 38,-256 38,-140 38,-98.7413 38,-49.6661 38,-28.3152"/>
<polygon fill="#191970" stroke="#191970" points="256.3423,-363.5587 266.8675,-362.346 257.8833,-356.7304 256.3423,-363.5587"/>
</g>
<!-- Node8&#45;&gt;Node9 -->
<g id="edge10" class="edge">
<title>Node8&#45;&gt;Node9</title>
<path fill="none" stroke="#191970" d="M340.7837,-356.0671C381.2905,-331.9708 457.0386,-286.9104 491.3295,-266.5117"/>
<polygon fill="#191970" stroke="#191970" points="338.8005,-353.1743 331.9956,-361.2949 342.3793,-359.1904 338.8005,-353.1743"/>
</g>
<!-- Node8&#45;&gt;Node12 -->
<g id="edge27" class="edge">
<title>Node8&#45;&gt;Node12</title>
<path fill="none" stroke="#191970" d="M321.8697,-351.9367C340.4807,-304.4887 386.6983,-186.6592 400.8291,-150.6335"/>
<polygon fill="#191970" stroke="#191970" points="318.5399,-350.841 318.1465,-361.4286 325.0565,-353.3972 318.5399,-350.841"/>
</g>
<!-- Node8&#45;&gt;Node14 -->
<g id="edge21" class="edge">
<title>Node8&#45;&gt;Node14</title>
<path fill="none" stroke="#191970" d="M286.7979,-356.379C269.2484,-346.3011 246.8915,-333.4624 231.4075,-324.5707"/>
<polygon fill="#191970" stroke="#191970" points="285.0602,-359.4171 295.475,-361.3619 288.5462,-353.3468 285.0602,-359.4171"/>
</g>
<!-- Node10 -->
<g id="node10" class="node">
<title>Node10</title>
<g id="a_node10"><a xlink:href="../../dd/d84/base__timer_8cpp.html" target="_top" xlink:title="base_timer.cpp">
<polygon fill="#ffffff" stroke="#000000" points="470,-187.5 470,-208.5 548,-208.5 548,-187.5 470,-187.5"/>
<text text-anchor="middle" x="509" y="-194.9" font-family="Helvetica,sans-Serif" font-size="12.00" fill="#000000">base_timer.cpp</text>
</a>
</g>
</g>
<!-- Node9&#45;&gt;Node10 -->
<g id="edge11" class="edge">
<title>Node9&#45;&gt;Node10</title>
<path fill="none" stroke="#191970" d="M509,-235.1906C509,-226.1684 509,-215.9941 509,-208.5707"/>
<polygon fill="#191970" stroke="#191970" points="505.5001,-235.3619 509,-245.3619 512.5001,-235.3619 505.5001,-235.3619"/>
</g>
<!-- Node9&#45;&gt;Node11 -->
<g id="edge12" class="edge">
<title>Node9&#45;&gt;Node11</title>
<path fill="none" stroke="#191970" d="M548.077,-242.0095C576.866,-231.7023 615.409,-217.903 641.608,-208.5231"/>
<polygon fill="#191970" stroke="#191970" points="546.572,-238.8307 538.337,-245.4966 548.9315,-245.421 546.572,-238.8307"/>
</g>
<!-- Node11&#45;&gt;Node6 -->
<g id="edge19" class="edge">
<title>Node11&#45;&gt;Node6</title>
<path fill="none" stroke="#191970" d="M682.25,-178.0024C688.6487,-163.8532 694.1016,-144.685 687,-129 665.0961,-80.6215 610.6792,-44.9151 580.6744,-28.1458"/>
<polygon fill="#191970" stroke="#191970" points="678.9433,-176.7887 677.5896,-187.2967 685.2007,-179.9264 678.9433,-176.7887"/>
</g>
<!-- Node11&#45;&gt;Node12 -->
<g id="edge13" class="edge">
<title>Node11&#45;&gt;Node12</title>
<path fill="none" stroke="#191970" d="M613.8764,-185.5445C566.1364,-175.135 498.7971,-160.452 453.6066,-150.5984"/>
<polygon fill="#191970" stroke="#191970" points="613.2349,-188.9868 623.751,-187.6976 614.7263,-182.1475 613.2349,-188.9868"/>
</g>
<!-- Node13 -->
<g id="node13" class="node">
<title>Node13</title>
<g id="a_node13"><a xlink:href="../../dc/de5/timer_8cpp.html" target="_top" xlink:title="timer.cpp">
<polygon fill="#ffffff" stroke="#000000" points="624,-129.5 624,-150.5 678,-150.5 678,-129.5 624,-129.5"/>
<text text-anchor="middle" x="651" y="-136.9" font-family="Helvetica,sans-Serif" font-size="12.00" fill="#000000">timer.cpp</text>
</a>
</g>
</g>
<!-- Node11&#45;&gt;Node13 -->
<g id="edge20" class="edge">
<title>Node11&#45;&gt;Node13</title>
<path fill="none" stroke="#191970" d="M664.0289,-177.7838C660.8679,-168.617 657.2611,-158.1572 654.6451,-150.5707"/>
<polygon fill="#191970" stroke="#191970" points="660.7629,-179.0492 667.3317,-187.3619 667.3805,-176.7672 660.7629,-179.0492"/>
</g>
<!-- Node12&#45;&gt;Node2 -->
<g id="edge16" class="edge">
<title>Node12&#45;&gt;Node2</title>
<path fill="none" stroke="#191970" d="M377.2592,-124.379C359.3622,-114.3011 336.5626,-101.4624 320.772,-92.5707"/>
<polygon fill="#191970" stroke="#191970" points="375.6774,-127.505 386.1082,-129.3619 379.112,-121.4055 375.6774,-127.505"/>
</g>
<!-- Node12&#45;&gt;Node3 -->
<g id="edge14" class="edge">
<title>Node12&#45;&gt;Node3</title>
<path fill="none" stroke="#191970" d="M325.9046,-127.3047C295.9971,-120.208 262.5559,-109.3677 235,-93 206.3132,-75.9606 181.3364,-44.7016 169.4245,-28.2597"/>
<polygon fill="#191970" stroke="#191970" points="325.3716,-130.7726 335.898,-129.5705 326.9195,-123.9459 325.3716,-130.7726"/>
</g>
<!-- Node12&#45;&gt;Node4 -->
<g id="edge15" class="edge">
<title>Node12&#45;&gt;Node4</title>
<path fill="none" stroke="#191970" d="M397.1478,-119.8333C390.8879,-105.3169 381.1648,-85.7715 369,-71 357.4555,-56.9817 341.6978,-44.1741 328.3646,-34.607"/>
<polygon fill="#191970" stroke="#191970" points="394.0334,-121.4622 401.0793,-129.3745 400.5055,-118.7952 394.0334,-121.4622"/>
</g>
<!-- Node12&#45;&gt;Node6 -->
<g id="edge17" class="edge">
<title>Node12&#45;&gt;Node6</title>
<path fill="none" stroke="#191970" d="M425.4418,-122.4772C442.0874,-108.3377 466.2985,-88.0627 488,-71 507.4652,-55.6956 530.5255,-38.7641 545.2063,-28.1305"/>
<polygon fill="#191970" stroke="#191970" points="422.8209,-120.1122 417.4803,-129.2625 427.3615,-125.4399 422.8209,-120.1122"/>
</g>
<!-- Node12&#45;&gt;Node7 -->
<g id="edge18" class="edge">
<title>Node12&#45;&gt;Node7</title>
<path fill="none" stroke="#191970" d="M408.4207,-119.0484C412.7252,-92.683 419.954,-48.4069 423.2577,-28.1718"/>
<polygon fill="#191970" stroke="#191970" points="404.932,-118.6956 406.7749,-129.1289 411.8405,-119.8236 404.932,-118.6956"/>
</g>
<!-- Node14&#45;&gt;Node3 -->
<g id="edge22" class="edge">
<title>Node14&#45;&gt;Node3</title>
<path fill="none" stroke="#191970" d="M178.5194,-298.8013C164.2996,-291.0541 148.6841,-280.4065 138,-267 117.7644,-241.6082 114,-230.4688 114,-198 114,-198 114,-198 114,-140 114,-95.9154 141.282,-48.6762 154.7098,-28.0955"/>
<polygon fill="#191970" stroke="#191970" points="177.1033,-302.0088 187.5965,-303.4733 180.3069,-295.7848 177.1033,-302.0088"/>
</g>
<!-- Node14&#45;&gt;Node4 -->
<g id="edge23" class="edge">
<title>Node14&#45;&gt;Node4</title>
<path fill="none" stroke="#191970" d="M193.3581,-296.0314C185.4247,-287.8519 176.7939,-277.6311 171,-267 155.7786,-239.0704 152,-229.8081 152,-198 152,-198 152,-198 152,-140 152,-87.2128 208.4171,-53.0984 252.0522,-34.6075"/>
<polygon fill="#191970" stroke="#191970" points="191.0534,-298.6739 200.6353,-303.1948 195.964,-293.6853 191.0534,-298.6739"/>
</g>
<!-- Node14&#45;&gt;Node6 -->
<g id="edge26" class="edge">
<title>Node14&#45;&gt;Node6</title>
<path fill="none" stroke="#191970" d="M248.7917,-299.4429C304.4568,-275.3804 412.6728,-222.7458 483,-151 520.6463,-112.5944 546.6444,-52.1988 556.0777,-28.0203"/>
<polygon fill="#191970" stroke="#191970" points="247.1797,-296.3253 239.3529,-303.4661 249.9245,-302.7647 247.1797,-296.3253"/>
</g>
<!-- Node14&#45;&gt;Node9 -->
<g id="edge24" class="edge">
<title>Node14&#45;&gt;Node9</title>
<path fill="none" stroke="#191970" d="M276.6151,-301.5349C329.872,-291.0994 405.0223,-276.374 455.2961,-266.5231"/>
<polygon fill="#191970" stroke="#191970" points="275.7437,-298.139 266.6034,-303.4966 277.0898,-305.0084 275.7437,-298.139"/>
</g>
<!-- Node15 -->
<g id="node15" class="node">
<title>Node15</title>
<g id="a_node15"><a xlink:href="../../dc/d43/signal__detection_8cpp.html" target="_top" xlink:title="signal_detection.cpp">
<polygon fill="#ffffff" stroke="#000000" points="180.5,-245.5 180.5,-266.5 279.5,-266.5 279.5,-245.5 180.5,-245.5"/>
<text text-anchor="middle" x="230" y="-252.9" font-family="Helvetica,sans-Serif" font-size="12.00" fill="#000000">signal_detection.cpp</text>
</a>
</g>
</g>
<!-- Node14&#45;&gt;Node15 -->
<g id="edge25" class="edge">
<title>Node14&#45;&gt;Node15</title>
<path fill="none" stroke="#191970" d="M219.0123,-293.4876C221.6781,-284.3924 224.702,-274.0756 226.9017,-266.5707"/>
<polygon fill="#191970" stroke="#191970" points="215.5721,-292.7811 216.1181,-303.3619 222.2895,-294.7501 215.5721,-292.7811"/>
</g>
<!-- Node16&#45;&gt;Node9 -->
<g id="edge31" class="edge">
<title>Node16&#45;&gt;Node9</title>
<path fill="none" stroke="#191970" d="M545.1658,-353.0765C539.5656,-344.7709 533.3979,-334.7143 529,-325 520.0497,-305.2299 514.0267,-280.4585 511.0865,-266.6177"/>
<polygon fill="#191970" stroke="#191970" points="542.3148,-355.107 550.9093,-361.3027 548.0543,-351.0997 542.3148,-355.107"/>
</g>
<!-- Node17 -->
<g id="node17" class="node">
<title>Node17</title>
<g id="a_node17"><a xlink:href="../../d5/db8/base__clock_8cpp.html" target="_top" xlink:title="base_clock.cpp">
<polygon fill="#ffffff" stroke="#000000" points="537.5,-303.5 537.5,-324.5 616.5,-324.5 616.5,-303.5 537.5,-303.5"/>
<text text-anchor="middle" x="577" y="-310.9" font-family="Helvetica,sans-Serif" font-size="12.00" fill="#000000">base_clock.cpp</text>
</a>
</g>
</g>
<!-- Node16&#45;&gt;Node17 -->
<g id="edge30" class="edge">
<title>Node16&#45;&gt;Node17</title>
<path fill="none" stroke="#191970" d="M565.274,-351.7838C568.1189,-342.617 571.365,-332.1572 573.7195,-324.5707"/>
<polygon fill="#191970" stroke="#191970" points="561.9228,-350.7738 562.3015,-361.3619 568.6083,-352.8487 561.9228,-350.7738"/>
</g>
<!-- Node18&#45;&gt;Node6 -->
<g id="edge36" class="edge">
<title>Node18&#45;&gt;Node6</title>
<path fill="none" stroke="#191970" d="M655.2792,-296.7241C631.0113,-276.1238 596,-239.2549 596,-198 596,-198 596,-198 596,-140 596,-96.9966 575.3259,-48.8209 565.3119,-28.0082"/>
<polygon fill="#191970" stroke="#191970" points="653.3823,-299.6941 663.34,-303.3128 657.8124,-294.2742 653.3823,-299.6941"/>
</g>
<!-- Node18&#45;&gt;Node9 -->
<g id="edge35" class="edge">
<title>Node18&#45;&gt;Node9</title>
<path fill="none" stroke="#191970" d="M637.6274,-300.1443C607.553,-289.8229 567.1124,-275.9439 539.662,-266.5231"/>
<polygon fill="#191970" stroke="#191970" points="636.8007,-303.5609 647.3954,-303.4966 639.0731,-296.94 636.8007,-303.5609"/>
</g>
</g>
</svg>
