<?xml version="1.0" encoding="UTF-8" standalone="no"?>
<!DOCTYPE svg PUBLIC "-//W3C//DTD SVG 1.1//EN"
 "http://www.w3.org/Graphics/SVG/1.1/DTD/svg11.dtd">
<!-- Generated by graphviz version 2.40.1 (20161225.0304)
 -->
<!-- Title: timemory/timer.hpp Pages: 1 -->
<!--zoomable 217 -->
<svg id="main" version="1.1" xmlns="http://www.w3.org/2000/svg" xmlns:xlink="http://www.w3.org/1999/xlink" xml:space="preserve" onload="init(evt)">
<style type="text/css"><![CDATA[
.edge:hover path { stroke: red; }
.edge:hover polygon { stroke: red; fill: red; }
]]></style>
<script type="text/javascript"><![CDATA[
var edges = document.getElementsByTagName('g');
if (edges && edges.length) {
  for (var i=0;i<edges.length;i++) {
    if (edges[i].id.substr(0,4)=='edge') {
      edges[i].setAttribute('class','edge');
    }
  }
}
]]></script>
        <defs>
                <circle id="rim" cx="0" cy="0" r="7"/>
                <circle id="rim2" cx="0" cy="0" r="3.5"/>
                <g id="zoomPlus">
                        <use xlink:href="#rim" fill="#404040">
                                <set attributeName="fill" to="#808080" begin="zoomplus.mouseover" end="zoomplus.mouseout"/>
                        </use>
                        <path d="M-4,0h8M0,-4v8" fill="none" stroke="white" stroke-width="1.5" pointer-events="none"/>
                </g>
                <g id="zoomMin">
                        <use xlink:href="#rim" fill="#404040">
                                <set attributeName="fill" to="#808080" begin="zoomminus.mouseover" end="zoomminus.mouseout"/>
                        </use>
                        <path d="M-4,0h8" fill="none" stroke="white" stroke-width="1.5" pointer-events="none"/>
                </g>
                <g id="dirArrow">
                        <path fill="none" stroke="white" stroke-width="1.5" d="M0,-3.0v7 M-2.5,-0.5L0,-3.0L2.5,-0.5"/>
                </g>
               <g id="resetDef">
                       <use xlink:href="#rim2" fill="#404040">
                               <set attributeName="fill" to="#808080" begin="reset.mouseover" end="reset.mouseout"/>
                       </use>
               </g>
        </defs>

<script type="text/javascript">
var viewWidth = 688;
var viewHeight = 217;
var sectionId = 'dynsection-1';
</script>
<script xlink:href="../../svgpan.js"/>
<svg id="graph" class="graph">
<g id="viewport">
<title>timemory/timer.hpp</title>
<polygon fill="#ffffff" stroke="transparent" points="-4,4 -4,-213 684,-213 684,4 -4,4"/>
<!-- Node44 -->
<g id="node1" class="node">
<title>Node44</title>
<polygon fill="#bfbfbf" stroke="#000000" points="308.5,-187.5 308.5,-208.5 402.5,-208.5 402.5,-187.5 308.5,-187.5"/>
<text text-anchor="middle" x="355.5" y="-194.9" font-family="Helvetica,sans-Serif" font-size="12.00" fill="#000000">timemory/timer.hpp</text>
</g>
<!-- Node45 -->
<g id="node2" class="node">
<title>Node45</title>
<g id="a_node2"><a xlink:href="../../da/d04/manager_8hpp.html" target="_top" xlink:title="timemory/manager.hpp">
<polygon fill="#ffffff" stroke="#000000" points="301,-129.5 301,-150.5 410,-150.5 410,-129.5 301,-129.5"/>
<text text-anchor="middle" x="355.5" y="-136.9" font-family="Helvetica,sans-Serif" font-size="12.00" fill="#000000">timemory/manager.hpp</text>
</a>
</g>
</g>
<!-- Node44&#45;&gt;Node45 -->
<g id="edge1" class="edge">
<title>Node44&#45;&gt;Node45</title>
<path fill="none" stroke="#191970" d="M355.5,-177.1906C355.5,-168.1684 355.5,-157.9941 355.5,-150.5707"/>
<polygon fill="#191970" stroke="#191970" points="352.0001,-177.3619 355.5,-187.3619 359.0001,-177.3619 352.0001,-177.3619"/>
</g>
<!-- Node49 -->
<g id="node6" class="node">
<title>Node49</title>
<g id="a_node6"><a xlink:href="../../d2/dfd/timemory_8cc.html" target="_top" xlink:title="timemory.cc">
<polygon fill="#ffffff" stroke="#000000" points="0,-7 0,-28 65,-28 65,-7 0,-7"/>
<text text-anchor="middle" x="32.5" y="-14.4" font-family="Helvetica,sans-Serif" font-size="12.00" fill="#000000">timemory.cc</text>
</a>
</g>
</g>
<!-- Node44&#45;&gt;Node49 -->
<g id="edge13" class="edge">
<title>Node44&#45;&gt;Node49</title>
<path fill="none" stroke="#191970" d="M327.4656,-182.3337C263.1365,-146.3851 106.2672,-58.7228 51.637,-28.1942"/>
<polygon fill="#191970" stroke="#191970" points="325.8253,-185.4265 336.2622,-187.2495 329.2401,-179.3159 325.8253,-185.4265"/>
</g>
<!-- Node53 -->
<g id="node10" class="node">
<title>Node53</title>
<g id="a_node10"><a xlink:href="../../dc/de5/timer_8cpp.html" target="_top" xlink:title="timer.cpp">
<polygon fill="#ffffff" stroke="#000000" points="428.5,-129.5 428.5,-150.5 482.5,-150.5 482.5,-129.5 428.5,-129.5"/>
<text text-anchor="middle" x="455.5" y="-136.9" font-family="Helvetica,sans-Serif" font-size="12.00" fill="#000000">timer.cpp</text>
</a>
</g>
</g>
<!-- Node44&#45;&gt;Node53 -->
<g id="edge14" class="edge">
<title>Node44&#45;&gt;Node53</title>
<path fill="none" stroke="#191970" d="M382.9122,-182.1009C400.2141,-172.0658 422.0848,-159.3808 437.2747,-150.5707"/>
<polygon fill="#191970" stroke="#191970" points="380.7358,-179.3171 373.8415,-187.3619 384.2479,-185.3723 380.7358,-179.3171"/>
</g>
<!-- Node46 -->
<g id="node3" class="node">
<title>Node46</title>
<g id="a_node3"><a xlink:href="../../d8/d07/auto__timer_8hpp.html" target="_top" xlink:title="timemory/auto_timer.hpp">
<polygon fill="#ffffff" stroke="#000000" points="254.5,-71.5 254.5,-92.5 370.5,-92.5 370.5,-71.5 254.5,-71.5"/>
<text text-anchor="middle" x="312.5" y="-78.9" font-family="Helvetica,sans-Serif" font-size="12.00" fill="#000000">timemory/auto_timer.hpp</text>
</a>
</g>
</g>
<!-- Node45&#45;&gt;Node46 -->
<g id="edge2" class="edge">
<title>Node45&#45;&gt;Node46</title>
<path fill="none" stroke="#191970" d="M341.5994,-121.2504C334.556,-111.75 326.2638,-100.5651 320.3369,-92.5707"/>
<polygon fill="#191970" stroke="#191970" points="338.8459,-123.4132 347.6131,-129.3619 344.4691,-119.2443 338.8459,-123.4132"/>
</g>
<!-- Node48 -->
<g id="node5" class="node">
<title>Node48</title>
<g id="a_node5"><a xlink:href="../../d0/db0/manager_8cpp.html" target="_top" xlink:title="manager.cpp">
<polygon fill="#ffffff" stroke="#000000" points="611,-7 611,-28 680,-28 680,-7 611,-7"/>
<text text-anchor="middle" x="645.5" y="-14.4" font-family="Helvetica,sans-Serif" font-size="12.00" fill="#000000">manager.cpp</text>
</a>
</g>
</g>
<!-- Node45&#45;&gt;Node48 -->
<g id="edge9" class="edge">
<title>Node45&#45;&gt;Node48</title>
<path fill="none" stroke="#191970" d="M389.7565,-125.5296C448.8304,-100.576 568.5162,-50.019 620.481,-28.0684"/>
<polygon fill="#191970" stroke="#191970" points="388.3262,-122.3343 380.4762,-129.4497 391.0501,-128.7826 388.3262,-122.3343"/>
</g>
<!-- Node45&#45;&gt;Node49 -->
<g id="edge10" class="edge">
<title>Node45&#45;&gt;Node49</title>
<path fill="none" stroke="#191970" d="M316.0288,-125.9656C261.2907,-106.3526 159.3669,-69.2892 73.5,-35 68.0375,-32.8187 62.2049,-30.3902 56.7033,-28.0535"/>
<polygon fill="#191970" stroke="#191970" points="315.0914,-129.3474 325.686,-129.4201 317.4492,-122.7564 315.0914,-129.3474"/>
</g>
<!-- Node50 -->
<g id="node7" class="node">
<title>Node50</title>
<g id="a_node7"><a xlink:href="../../d0/d90/ex1_2test__timing_8cpp.html" target="_top" xlink:title="examples/ex1/test_timing.cpp">
<polygon fill="#ffffff" stroke="#000000" points="331,-7 331,-28 466,-28 466,-7 331,-7"/>
<text text-anchor="middle" x="398.5" y="-14.4" font-family="Helvetica,sans-Serif" font-size="12.00" fill="#000000">examples/ex1/test_timing.cpp</text>
</a>
</g>
</g>
<!-- Node45&#45;&gt;Node50 -->
<g id="edge11" class="edge">
<title>Node45&#45;&gt;Node50</title>
<path fill="none" stroke="#191970" d="M366.648,-120.6107C371.0937,-112.3025 375.9802,-102.3702 379.5,-93 387.8652,-70.7306 393.7087,-43.3961 396.544,-28.4867"/>
<polygon fill="#191970" stroke="#191970" points="363.5161,-119.0418 361.7399,-129.4867 369.6419,-122.4292 363.5161,-119.0418"/>
</g>
<!-- Node51 -->
<g id="node8" class="node">
<title>Node51</title>
<g id="a_node8"><a xlink:href="../../dd/d0a/mpi__test__timing_8cpp.html" target="_top" xlink:title="examples/ex2/mpi_test\l_timing.cpp">
<polygon fill="#ffffff" stroke="#000000" points="484,-.5 484,-34.5 593,-34.5 593,-.5 484,-.5"/>
<text text-anchor="start" x="492" y="-20.9" font-family="Helvetica,sans-Serif" font-size="12.00" fill="#000000">examples/ex2/mpi_test</text>
<text text-anchor="middle" x="538.5" y="-7.9" font-family="Helvetica,sans-Serif" font-size="12.00" fill="#000000">_timing.cpp</text>
</a>
</g>
</g>
<!-- Node45&#45;&gt;Node51 -->
<g id="edge12" class="edge">
<title>Node45&#45;&gt;Node51</title>
<path fill="none" stroke="#191970" d="M379.9914,-123.6055C414.6514,-100.4041 477.7063,-58.1952 512.9395,-34.6101"/>
<polygon fill="#191970" stroke="#191970" points="377.783,-120.872 371.4199,-129.3432 381.6769,-126.689 377.783,-120.872"/>
</g>
<!-- Node47 -->
<g id="node4" class="node">
<title>Node47</title>
<g id="a_node4"><a xlink:href="../../d2/d80/auto__timer_8cpp.html" target="_top" xlink:title="auto_timer.cpp">
<polygon fill="#ffffff" stroke="#000000" points="236.5,-7 236.5,-28 312.5,-28 312.5,-7 236.5,-7"/>
<text text-anchor="middle" x="274.5" y="-14.4" font-family="Helvetica,sans-Serif" font-size="12.00" fill="#000000">auto_timer.cpp</text>
</a>
</g>
</g>
<!-- Node46&#45;&gt;Node47 -->
<g id="edge3" class="edge">
<title>Node46&#45;&gt;Node47</title>
<path fill="none" stroke="#191970" d="M301.1089,-62.6651C294.5008,-51.4487 286.4217,-37.7356 280.9113,-28.3823"/>
<polygon fill="#191970" stroke="#191970" points="298.1334,-64.5098 306.2251,-71.3491 304.1646,-60.9566 298.1334,-64.5098"/>
</g>
<!-- Node46&#45;&gt;Node48 -->
<g id="edge4" class="edge">
<title>Node46&#45;&gt;Node48</title>
<path fill="none" stroke="#191970" d="M380.565,-75.3657C439.9383,-68.5424 527.9933,-55.9085 602.5,-35 609.0185,-33.1708 615.8888,-30.6578 622.1783,-28.1068"/>
<polygon fill="#191970" stroke="#191970" points="380.1025,-71.8955 370.5567,-76.492 380.8854,-78.8516 380.1025,-71.8955"/>
</g>
<!-- Node46&#45;&gt;Node49 -->
<g id="edge5" class="edge">
<title>Node46&#45;&gt;Node49</title>
<path fill="none" stroke="#191970" d="M244.163,-72.4593C195.8493,-64.7742 129.9068,-52.3743 73.5,-35 67.4349,-33.1318 61.0487,-30.665 55.1693,-28.1746"/>
<polygon fill="#191970" stroke="#191970" points="243.7746,-75.941 254.1952,-74.0277 244.8559,-69.025 243.7746,-75.941"/>
</g>
<!-- Node46&#45;&gt;Node50 -->
<g id="edge6" class="edge">
<title>Node46&#45;&gt;Node50</title>
<path fill="none" stroke="#191970" d="M334.8111,-65.2666C350.4284,-53.5537 370.8258,-38.2556 384.2778,-28.1667"/>
<polygon fill="#191970" stroke="#191970" points="332.6012,-62.5491 326.7012,-71.3491 336.8012,-68.1491 332.6012,-62.5491"/>
</g>
<!-- Node46&#45;&gt;Node51 -->
<g id="edge7" class="edge">
<title>Node46&#45;&gt;Node51</title>
<path fill="none" stroke="#191970" d="M359.1482,-68.6867C395.4215,-58.3343 445.8201,-43.9507 483.9583,-33.0661"/>
<polygon fill="#191970" stroke="#191970" points="357.9693,-65.3833 349.3138,-71.4934 359.8904,-72.1146 357.9693,-65.3833"/>
</g>
<!-- Node52 -->
<g id="node9" class="node">
<title>Node52</title>
<g id="a_node9"><a xlink:href="../../d2/dc1/ex3_2test__timing_8cpp.html" target="_top" xlink:title="examples/ex3/test_timing.cpp">
<polygon fill="#ffffff" stroke="#000000" points="83,-7 83,-28 218,-28 218,-7 83,-7"/>
<text text-anchor="middle" x="150.5" y="-14.4" font-family="Helvetica,sans-Serif" font-size="12.00" fill="#000000">examples/ex3/test_timing.cpp</text>
</a>
</g>
</g>
<!-- Node46&#45;&gt;Node52 -->
<g id="edge8" class="edge">
<title>Node46&#45;&gt;Node52</title>
<path fill="none" stroke="#191970" d="M276.7811,-67.7786C246.5982,-55.7613 204.0561,-38.8233 176.8774,-28.0021"/>
<polygon fill="#191970" stroke="#191970" points="275.526,-71.046 286.1114,-71.4934 278.1154,-64.5425 275.526,-71.046"/>
</g>
</g>
</svg>
        <g id="navigator" transform="translate(0 0)" fill="#404254">
                <rect fill="#f2f5e9" fill-opacity="0.5" stroke="#606060" stroke-width=".5" x="0" y="0" width="60" height="60"/>
                <use id="zoomplus" xlink:href="#zoomPlus" x="17" y="9" onmousedown="handleZoom(evt,'in')"/>
                <use id="zoomminus" xlink:href="#zoomMin" x="42" y="9" onmousedown="handleZoom(evt,'out')"/>
                <use id="reset" xlink:href="#resetDef" x="30" y="36" onmousedown="handleReset()"/>
                <g id="arrowUp" xlink:href="#dirArrow" transform="translate(30 24)" onmousedown="handlePan(0,-1)">
                  <use xlink:href="#rim" fill="#404040">
                        <set attributeName="fill" to="#808080" begin="arrowUp.mouseover" end="arrowUp.mouseout"/>
                  </use>
                  <path fill="none" stroke="white" stroke-width="1.5" d="M0,-3.0v7 M-2.5,-0.5L0,-3.0L2.5,-0.5"/>
                </g>
                <g id="arrowRight" xlink:href="#dirArrow" transform="rotate(90) translate(36 -43)" onmousedown="handlePan(1,0)">
                  <use xlink:href="#rim" fill="#404040">
                        <set attributeName="fill" to="#808080" begin="arrowRight.mouseover" end="arrowRight.mouseout"/>
                  </use>
                  <path fill="none" stroke="white" stroke-width="1.5" d="M0,-3.0v7 M-2.5,-0.5L0,-3.0L2.5,-0.5"/>
                </g>
                <g id="arrowDown" xlink:href="#dirArrow" transform="rotate(180) translate(-30 -48)" onmousedown="handlePan(0,1)">
                  <use xlink:href="#rim" fill="#404040">
                        <set attributeName="fill" to="#808080" begin="arrowDown.mouseover" end="arrowDown.mouseout"/>
                  </use>
                  <path fill="none" stroke="white" stroke-width="1.5" d="M0,-3.0v7 M-2.5,-0.5L0,-3.0L2.5,-0.5"/>
                </g>
                <g id="arrowLeft" xlink:href="#dirArrow" transform="rotate(270) translate(-36 17)" onmousedown="handlePan(-1,0)">
                  <use xlink:href="#rim" fill="#404040">
                        <set attributeName="fill" to="#808080" begin="arrowLeft.mouseover" end="arrowLeft.mouseout"/>
                  </use>
                  <path fill="none" stroke="white" stroke-width="1.5" d="M0,-3.0v7 M-2.5,-0.5L0,-3.0L2.5,-0.5"/>
                </g>
        </g>
        <svg viewBox="0 0 15 15" width="100%" height="30px" preserveAspectRatio="xMaxYMin meet">
         <g id="arrow_out" transform="scale(0.3 0.3)">
          <a xlink:href="timer_8hpp__dep__incl_org.svg" target="_base">
           <rect id="button" ry="5" rx="5" y="6" x="6" height="38" width="38"
                fill="#f2f5e9" fill-opacity="0.5" stroke="#606060" stroke-width="1.0"/>
           <path id="arrow"
             d="M 11.500037,31.436501 C 11.940474,20.09759 22.043105,11.32322 32.158766,21.979434 L 37.068811,17.246167 C 37.068811,17.246167 37.088388,32 37.088388,32 L 22.160133,31.978069 C 22.160133,31.978069 26.997745,27.140456 26.997745,27.140456 C 18.528582,18.264221 13.291696,25.230495 11.500037,31.436501 z"
             style="fill:#404040;"/>
          </a>
         </g>
        </svg>
</svg>
