<?xml version="1.0" encoding="UTF-8" standalone="no"?>
<!DOCTYPE svg PUBLIC "-//W3C//DTD SVG 1.1//EN"
 "http://www.w3.org/Graphics/SVG/1.1/DTD/svg11.dtd">
<!-- Generated by graphviz version 2.40.1 (20161225.0304)
 -->
<!-- Title: timemory/timer.hpp Pages: 1 -->
<svg width="486pt" height="204pt"
 viewBox="0.00 0.00 485.50 204.00" xmlns="http://www.w3.org/2000/svg" xmlns:xlink="http://www.w3.org/1999/xlink">
<g id="graph0" class="graph" transform="scale(1 1) rotate(0) translate(4 200)">
<title>timemory/timer.hpp</title>
<polygon fill="#ffffff" stroke="transparent" points="-4,4 -4,-200 481.5,-200 481.5,4 -4,4"/>
<!-- Node32 -->
<g id="node1" class="node">
<title>Node32</title>
<polygon fill="#bfbfbf" stroke="#000000" points="348.5,-174.5 348.5,-195.5 442.5,-195.5 442.5,-174.5 348.5,-174.5"/>
<text text-anchor="middle" x="395.5" y="-181.9" font-family="Helvetica,sans-Serif" font-size="12.00" fill="#000000">timemory/timer.hpp</text>
</g>
<!-- Node33 -->
<g id="node2" class="node">
<title>Node33</title>
<g id="a_node2"><a xlink:href="../../df/df2/timing__manager_8hpp.html" target="_top" xlink:title="timemory/timing_manager.hpp">
<polygon fill="#ffffff" stroke="#000000" points="228.5,-116.5 228.5,-137.5 366.5,-137.5 366.5,-116.5 228.5,-116.5"/>
<text text-anchor="middle" x="297.5" y="-123.9" font-family="Helvetica,sans-Serif" font-size="12.00" fill="#000000">timemory/timing_manager.hpp</text>
</a>
</g>
</g>
<!-- Node32&#45;&gt;Node33 -->
<g id="edge1" class="edge">
<title>Node32&#45;&gt;Node33</title>
<path fill="none" stroke="#191970" d="M368.636,-169.1009C351.6802,-159.0658 330.2469,-146.3808 315.3608,-137.5707"/>
<polygon fill="#191970" stroke="#191970" points="367.1369,-172.2807 377.5253,-174.3619 370.7021,-166.2566 367.1369,-172.2807"/>
</g>
<!-- Node37 -->
<g id="node6" class="node">
<title>Node37</title>
<g id="a_node6"><a xlink:href="../../d2/dfd/timemory_8cc.html" target="_top" xlink:title="timemory.cc">
<polygon fill="#ffffff" stroke="#000000" points="364,-.5 364,-21.5 429,-21.5 429,-.5 364,-.5"/>
<text text-anchor="middle" x="396.5" y="-7.9" font-family="Helvetica,sans-Serif" font-size="12.00" fill="#000000">timemory.cc</text>
</a>
</g>
</g>
<!-- Node32&#45;&gt;Node37 -->
<g id="edge10" class="edge">
<title>Node32&#45;&gt;Node37</title>
<path fill="none" stroke="#191970" d="M395.6195,-164.2005C395.8333,-127.0126 396.2738,-50.3605 396.4372,-21.9277"/>
<polygon fill="#191970" stroke="#191970" points="392.1187,-164.3575 395.561,-174.3774 399.1186,-164.3978 392.1187,-164.3575"/>
</g>
<!-- Node39 -->
<g id="node8" class="node">
<title>Node39</title>
<g id="a_node8"><a xlink:href="../../dc/de5/timer_8cpp.html" target="_top" xlink:title="timer.cpp">
<polygon fill="#ffffff" stroke="#000000" points="423.5,-116.5 423.5,-137.5 477.5,-137.5 477.5,-116.5 423.5,-116.5"/>
<text text-anchor="middle" x="450.5" y="-123.9" font-family="Helvetica,sans-Serif" font-size="12.00" fill="#000000">timer.cpp</text>
</a>
</g>
</g>
<!-- Node32&#45;&gt;Node39 -->
<g id="edge11" class="edge">
<title>Node32&#45;&gt;Node39</title>
<path fill="none" stroke="#191970" d="M412.7302,-166.8299C421.8546,-157.2078 432.7405,-145.7282 440.4761,-137.5707"/>
<polygon fill="#191970" stroke="#191970" points="409.9291,-164.6973 405.5878,-174.3619 415.0085,-169.514 409.9291,-164.6973"/>
</g>
<!-- Node34 -->
<g id="node3" class="node">
<title>Node34</title>
<g id="a_node3"><a xlink:href="../../d6/d8e/test__timing_8cpp.html" target="_top" xlink:title="examples/ex1/test_timing.cpp">
<polygon fill="#ffffff" stroke="#000000" points="0,-.5 0,-21.5 135,-21.5 135,-.5 0,-.5"/>
<text text-anchor="middle" x="67.5" y="-7.9" font-family="Helvetica,sans-Serif" font-size="12.00" fill="#000000">examples/ex1/test_timing.cpp</text>
</a>
</g>
</g>
<!-- Node33&#45;&gt;Node34 -->
<g id="edge2" class="edge">
<title>Node33&#45;&gt;Node34</title>
<path fill="none" stroke="#191970" d="M233.6595,-113.9676C205.2052,-106.5329 171.9837,-95.5305 144.5,-80 116.5266,-64.1927 90.0264,-36.7564 76.6157,-21.6818"/>
<polygon fill="#191970" stroke="#191970" points="232.9559,-117.3996 243.5081,-116.4501 234.6669,-110.612 232.9559,-117.3996"/>
</g>
<!-- Node35 -->
<g id="node4" class="node">
<title>Node35</title>
<g id="a_node4"><a xlink:href="../../d8/d07/auto__timer_8hpp.html" target="_top" xlink:title="timemory/auto_timer.hpp">
<polygon fill="#ffffff" stroke="#000000" points="153.5,-58.5 153.5,-79.5 269.5,-79.5 269.5,-58.5 153.5,-58.5"/>
<text text-anchor="middle" x="211.5" y="-65.9" font-family="Helvetica,sans-Serif" font-size="12.00" fill="#000000">timemory/auto_timer.hpp</text>
</a>
</g>
</g>
<!-- Node33&#45;&gt;Node35 -->
<g id="edge3" class="edge">
<title>Node33&#45;&gt;Node35</title>
<path fill="none" stroke="#191970" d="M273.0949,-110.5407C258.3512,-100.5973 239.9952,-88.2177 227.1737,-79.5707"/>
<polygon fill="#191970" stroke="#191970" points="271.4785,-113.6722 281.7263,-116.3619 275.3925,-107.8687 271.4785,-113.6722"/>
</g>
<!-- Node33&#45;&gt;Node37 -->
<g id="edge8" class="edge">
<title>Node33&#45;&gt;Node37</title>
<path fill="none" stroke="#191970" d="M313.354,-108.4235C334.3074,-83.8721 370.532,-41.4272 387.3859,-21.6792"/>
<polygon fill="#191970" stroke="#191970" points="310.4657,-106.4164 306.6362,-116.2949 315.7902,-110.9606 310.4657,-106.4164"/>
</g>
<!-- Node38 -->
<g id="node7" class="node">
<title>Node38</title>
<g id="a_node7"><a xlink:href="../../d9/dad/timing__manager_8cpp.html" target="_top" xlink:title="timing_manager.cpp">
<polygon fill="#ffffff" stroke="#000000" points="247.5,-.5 247.5,-21.5 345.5,-21.5 345.5,-.5 247.5,-.5"/>
<text text-anchor="middle" x="296.5" y="-7.9" font-family="Helvetica,sans-Serif" font-size="12.00" fill="#000000">timing_manager.cpp</text>
</a>
</g>
</g>
<!-- Node33&#45;&gt;Node38 -->
<g id="edge9" class="edge">
<title>Node33&#45;&gt;Node38</title>
<path fill="none" stroke="#191970" d="M297.32,-106.1231C297.106,-81.2984 296.7571,-40.8235 296.5921,-21.6792"/>
<polygon fill="#191970" stroke="#191970" points="293.8215,-106.3255 297.4077,-116.2949 300.8213,-106.2651 293.8215,-106.3255"/>
</g>
<!-- Node35&#45;&gt;Node34 -->
<g id="edge4" class="edge">
<title>Node35&#45;&gt;Node34</title>
<path fill="none" stroke="#191970" d="M176.1229,-54.7509C150.6937,-44.5086 116.9579,-30.9206 93.8699,-21.6212"/>
<polygon fill="#191970" stroke="#191970" points="174.8392,-58.007 185.4227,-58.4966 177.4545,-51.5139 174.8392,-58.007"/>
</g>
<!-- Node36 -->
<g id="node5" class="node">
<title>Node36</title>
<g id="a_node5"><a xlink:href="../../d2/d80/auto__timer_8cpp.html" target="_top" xlink:title="auto_timer.cpp">
<polygon fill="#ffffff" stroke="#000000" points="153.5,-.5 153.5,-21.5 229.5,-21.5 229.5,-.5 153.5,-.5"/>
<text text-anchor="middle" x="191.5" y="-7.9" font-family="Helvetica,sans-Serif" font-size="12.00" fill="#000000">auto_timer.cpp</text>
</a>
</g>
</g>
<!-- Node35&#45;&gt;Node36 -->
<g id="edge5" class="edge">
<title>Node35&#45;&gt;Node36</title>
<path fill="none" stroke="#191970" d="M204.5289,-48.7838C201.3679,-39.617 197.7611,-29.1572 195.1451,-21.5707"/>
<polygon fill="#191970" stroke="#191970" points="201.2629,-50.0492 207.8317,-58.3619 207.8805,-47.7672 201.2629,-50.0492"/>
</g>
<!-- Node35&#45;&gt;Node37 -->
<g id="edge6" class="edge">
<title>Node35&#45;&gt;Node37</title>
<path fill="none" stroke="#191970" d="M254.9344,-55.3827C288.2728,-44.9307 333.5783,-30.7268 363.8682,-21.2305"/>
<polygon fill="#191970" stroke="#191970" points="253.4971,-52.1653 245.0021,-58.4966 255.5912,-58.8447 253.4971,-52.1653"/>
</g>
<!-- Node35&#45;&gt;Node38 -->
<g id="edge7" class="edge">
<title>Node35&#45;&gt;Node38</title>
<path fill="none" stroke="#191970" d="M235.6214,-52.5407C250.1936,-42.5973 268.3361,-30.2177 281.0085,-21.5707"/>
<polygon fill="#191970" stroke="#191970" points="233.3778,-49.8344 227.0903,-58.3619 237.3233,-55.6166 233.3778,-49.8344"/>
</g>
</g>
</svg>
