<?xml version="1.0" encoding="UTF-8" standalone="no"?>
<!DOCTYPE svg PUBLIC "-//W3C//DTD SVG 1.1//EN"
 "http://www.w3.org/Graphics/SVG/1.1/DTD/svg11.dtd">
<!-- Generated by graphviz version 2.40.1 (20161225.0304)
 -->
<!-- Title: timemory/timer.hpp Pages: 1 -->
<svg width="441pt" height="204pt"
 viewBox="0.00 0.00 440.50 204.00" xmlns="http://www.w3.org/2000/svg" xmlns:xlink="http://www.w3.org/1999/xlink">
<g id="graph0" class="graph" transform="scale(1 1) rotate(0) translate(4 200)">
<title>timemory/timer.hpp</title>
<polygon fill="#ffffff" stroke="transparent" points="-4,4 -4,-200 436.5,-200 436.5,4 -4,4"/>
<!-- Node32 -->
<g id="node1" class="node">
<title>Node32</title>
<polygon fill="#bfbfbf" stroke="#000000" points="303.5,-174.5 303.5,-195.5 397.5,-195.5 397.5,-174.5 303.5,-174.5"/>
<text text-anchor="middle" x="350.5" y="-181.9" font-family="Helvetica,sans-Serif" font-size="12.00" fill="#000000">timemory/timer.hpp</text>
</g>
<!-- Node33 -->
<g id="node2" class="node">
<title>Node33</title>
<g id="a_node2"><a xlink:href="../../df/df2/timing__manager_8hpp.html" target="_top" xlink:title="timemory/timing_manager.hpp">
<polygon fill="#ffffff" stroke="#000000" points="166.5,-116.5 166.5,-137.5 304.5,-137.5 304.5,-116.5 166.5,-116.5"/>
<text text-anchor="middle" x="235.5" y="-123.9" font-family="Helvetica,sans-Serif" font-size="12.00" fill="#000000">timemory/timing_manager.hpp</text>
</a>
</g>
</g>
<!-- Node32&#45;&gt;Node33 -->
<g id="edge1" class="edge">
<title>Node32&#45;&gt;Node33</title>
<path fill="none" stroke="#191970" d="M320.6235,-169.9319C300.5211,-159.7932 274.5103,-146.6748 256.5593,-137.6212"/>
<polygon fill="#191970" stroke="#191970" points="319.1695,-173.1185 329.6744,-174.4966 322.3218,-166.8684 319.1695,-173.1185"/>
</g>
<!-- Node35 -->
<g id="node4" class="node">
<title>Node35</title>
<g id="a_node4"><a xlink:href="../../d2/dfd/timemory_8cc.html" target="_top" xlink:title="timemory.cc">
<polygon fill="#ffffff" stroke="#000000" points="280,-.5 280,-21.5 345,-21.5 345,-.5 280,-.5"/>
<text text-anchor="middle" x="312.5" y="-7.9" font-family="Helvetica,sans-Serif" font-size="12.00" fill="#000000">timemory.cc</text>
</a>
</g>
</g>
<!-- Node32&#45;&gt;Node35 -->
<g id="edge8" class="edge">
<title>Node32&#45;&gt;Node35</title>
<path fill="none" stroke="#191970" d="M345.9576,-164.2005C337.8361,-127.0126 321.096,-50.3605 314.8865,-21.9277"/>
<polygon fill="#191970" stroke="#191970" points="342.627,-165.3545 348.1801,-174.3774 349.4658,-163.8609 342.627,-165.3545"/>
</g>
<!-- Node38 -->
<g id="node7" class="node">
<title>Node38</title>
<g id="a_node7"><a xlink:href="../../dc/de5/timer_8cpp.html" target="_top" xlink:title="timer.cpp">
<polygon fill="#ffffff" stroke="#000000" points="378.5,-116.5 378.5,-137.5 432.5,-137.5 432.5,-116.5 378.5,-116.5"/>
<text text-anchor="middle" x="405.5" y="-123.9" font-family="Helvetica,sans-Serif" font-size="12.00" fill="#000000">timer.cpp</text>
</a>
</g>
</g>
<!-- Node32&#45;&gt;Node38 -->
<g id="edge9" class="edge">
<title>Node32&#45;&gt;Node38</title>
<path fill="none" stroke="#191970" d="M367.7302,-166.8299C376.8546,-157.2078 387.7405,-145.7282 395.4761,-137.5707"/>
<polygon fill="#191970" stroke="#191970" points="364.9291,-164.6973 360.5878,-174.3619 370.0085,-169.514 364.9291,-164.6973"/>
</g>
<!-- Node34 -->
<g id="node3" class="node">
<title>Node34</title>
<g id="a_node3"><a xlink:href="../../d8/d07/auto__timer_8hpp.html" target="_top" xlink:title="timemory/auto_timer.hpp">
<polygon fill="#ffffff" stroke="#000000" points="52.5,-58.5 52.5,-79.5 168.5,-79.5 168.5,-58.5 52.5,-58.5"/>
<text text-anchor="middle" x="110.5" y="-65.9" font-family="Helvetica,sans-Serif" font-size="12.00" fill="#000000">timemory/auto_timer.hpp</text>
</a>
</g>
</g>
<!-- Node33&#45;&gt;Node34 -->
<g id="edge2" class="edge">
<title>Node33&#45;&gt;Node34</title>
<path fill="none" stroke="#191970" d="M203.6172,-112.2064C181.6875,-102.031 153.0791,-88.7567 133.3906,-79.6212"/>
<polygon fill="#191970" stroke="#191970" points="202.3192,-115.4625 212.8634,-116.4966 205.2655,-109.1127 202.3192,-115.4625"/>
</g>
<!-- Node33&#45;&gt;Node35 -->
<g id="edge5" class="edge">
<title>Node33&#45;&gt;Node35</title>
<path fill="none" stroke="#191970" d="M262.5876,-110.4887C273.6196,-102.5231 285.6069,-92.0674 293.5,-80 305.4703,-61.6991 309.9619,-35.9487 311.6002,-21.6418"/>
<polygon fill="#191970" stroke="#191970" points="260.3247,-107.7957 254.0414,-116.3263 264.273,-113.5759 260.3247,-107.7957"/>
</g>
<!-- Node36 -->
<g id="node5" class="node">
<title>Node36</title>
<g id="a_node5"><a xlink:href="../../d6/d8e/test__timing_8cpp.html" target="_top" xlink:title="examples/ex1/test_timing.cpp">
<polygon fill="#ffffff" stroke="#000000" points="0,-.5 0,-21.5 135,-21.5 135,-.5 0,-.5"/>
<text text-anchor="middle" x="67.5" y="-7.9" font-family="Helvetica,sans-Serif" font-size="12.00" fill="#000000">examples/ex1/test_timing.cpp</text>
</a>
</g>
</g>
<!-- Node33&#45;&gt;Node36 -->
<g id="edge7" class="edge">
<title>Node33&#45;&gt;Node36</title>
<path fill="none" stroke="#191970" d="M156.3193,-117.5393C109.9366,-110.1875 57.7357,-98.1408 43.5,-80 29.7195,-62.4392 46.2309,-36.4112 57.8963,-21.8587"/>
<polygon fill="#191970" stroke="#191970" points="156.0041,-121.0317 166.4181,-119.0823 157.0615,-114.112 156.0041,-121.0317"/>
</g>
<!-- Node37 -->
<g id="node6" class="node">
<title>Node37</title>
<g id="a_node6"><a xlink:href="../../d9/dad/timing__manager_8cpp.html" target="_top" xlink:title="timing_manager.cpp">
<polygon fill="#ffffff" stroke="#000000" points="186.5,-58.5 186.5,-79.5 284.5,-79.5 284.5,-58.5 186.5,-58.5"/>
<text text-anchor="middle" x="235.5" y="-65.9" font-family="Helvetica,sans-Serif" font-size="12.00" fill="#000000">timing_manager.cpp</text>
</a>
</g>
</g>
<!-- Node33&#45;&gt;Node37 -->
<g id="edge6" class="edge">
<title>Node33&#45;&gt;Node37</title>
<path fill="none" stroke="#191970" d="M235.5,-106.1906C235.5,-97.1684 235.5,-86.9941 235.5,-79.5707"/>
<polygon fill="#191970" stroke="#191970" points="232.0001,-106.3619 235.5,-116.3619 239.0001,-106.3619 232.0001,-106.3619"/>
</g>
<!-- Node34&#45;&gt;Node35 -->
<g id="edge3" class="edge">
<title>Node34&#45;&gt;Node35</title>
<path fill="none" stroke="#191970" d="M156.7924,-55.7081C194.4025,-44.9092 246.5074,-29.9484 279.8637,-20.3708"/>
<polygon fill="#191970" stroke="#191970" points="155.7264,-52.3727 147.0807,-58.4966 157.6583,-59.1009 155.7264,-52.3727"/>
</g>
<!-- Node34&#45;&gt;Node36 -->
<g id="edge4" class="edge">
<title>Node34&#45;&gt;Node36</title>
<path fill="none" stroke="#191970" d="M96.5994,-50.2504C89.556,-40.75 81.2638,-29.5651 75.3369,-21.5707"/>
<polygon fill="#191970" stroke="#191970" points="93.8459,-52.4132 102.6131,-58.3619 99.4691,-48.2443 93.8459,-52.4132"/>
</g>
</g>
</svg>
