<?xml version="1.0" encoding="UTF-8" standalone="no"?>
<!DOCTYPE svg PUBLIC "-//W3C//DTD SVG 1.1//EN"
 "http://www.w3.org/Graphics/SVG/1.1/DTD/svg11.dtd">
<!-- Generated by graphviz version 2.40.1 (20161225.0304)
 -->
<!-- Title: tim::manager Pages: 1 -->
<!--zoomable 1044 -->
<svg id="main" version="1.1" xmlns="http://www.w3.org/2000/svg" xmlns:xlink="http://www.w3.org/1999/xlink" xml:space="preserve" onload="init(evt)">
<style type="text/css"><![CDATA[
.edge:hover path { stroke: red; }
.edge:hover polygon { stroke: red; fill: red; }
]]></style>
<script type="text/javascript"><![CDATA[
var edges = document.getElementsByTagName('g');
if (edges && edges.length) {
  for (var i=0;i<edges.length;i++) {
    if (edges[i].id.substr(0,4)=='edge') {
      edges[i].setAttribute('class','edge');
    }
  }
}
]]></script>
        <defs>
                <circle id="rim" cx="0" cy="0" r="7"/>
                <circle id="rim2" cx="0" cy="0" r="3.5"/>
                <g id="zoomPlus">
                        <use xlink:href="#rim" fill="#404040">
                                <set attributeName="fill" to="#808080" begin="zoomplus.mouseover" end="zoomplus.mouseout"/>
                        </use>
                        <path d="M-4,0h8M0,-4v8" fill="none" stroke="white" stroke-width="1.5" pointer-events="none"/>
                </g>
                <g id="zoomMin">
                        <use xlink:href="#rim" fill="#404040">
                                <set attributeName="fill" to="#808080" begin="zoomminus.mouseover" end="zoomminus.mouseout"/>
                        </use>
                        <path d="M-4,0h8" fill="none" stroke="white" stroke-width="1.5" pointer-events="none"/>
                </g>
                <g id="dirArrow">
                        <path fill="none" stroke="white" stroke-width="1.5" d="M0,-3.0v7 M-2.5,-0.5L0,-3.0L2.5,-0.5"/>
                </g>
               <g id="resetDef">
                       <use xlink:href="#rim2" fill="#404040">
                               <set attributeName="fill" to="#808080" begin="reset.mouseover" end="reset.mouseout"/>
                       </use>
               </g>
        </defs>

<script type="text/javascript">
var viewWidth = 1051;
var viewHeight = 1044;
var sectionId = 'dynsection-0';
</script>
<script xlink:href="../../svgpan.js"/>
<svg id="graph" class="graph">
<g id="viewport">
<title>tim::manager</title>
<polygon fill="#ffffff" stroke="transparent" points="-4,4 -4,-1040 1046.5,-1040 1046.5,4 -4,4"/>
<!-- Node1 -->
<g id="node1" class="node">
<title>Node1</title>
<polygon fill="#bfbfbf" stroke="#000000" points="425,-113.5 425,-527.5 564,-527.5 564,-113.5 425,-113.5"/>
<text text-anchor="middle" x="494.5" y="-513.9" font-family="Helvetica,sans-Serif" font-size="12.00" fill="#000000">tim::manager</text>
<polyline fill="none" stroke="#000000" points="425,-506.5 564,-506.5 "/>
<text text-anchor="middle" x="494.5" y="-492.9" font-family="Helvetica,sans-Serif" font-size="12.00" fill="#000000"> </text>
<polyline fill="none" stroke="#000000" points="425,-485.5 564,-485.5 "/>
<text text-anchor="start" x="433" y="-471.9" font-family="Helvetica,sans-Serif" font-size="12.00" fill="#000000">+ manager()</text>
<text text-anchor="start" x="433" y="-458.9" font-family="Helvetica,sans-Serif" font-size="12.00" fill="#000000">+ ~manager()</text>
<text text-anchor="start" x="433" y="-445.9" font-family="Helvetica,sans-Serif" font-size="12.00" fill="#000000">+ merge()</text>
<text text-anchor="start" x="433" y="-432.9" font-family="Helvetica,sans-Serif" font-size="12.00" fill="#000000">+ size()</text>
<text text-anchor="start" x="433" y="-419.9" font-family="Helvetica,sans-Serif" font-size="12.00" fill="#000000">+ clear()</text>
<text text-anchor="start" x="433" y="-406.9" font-family="Helvetica,sans-Serif" font-size="12.00" fill="#000000">+ timer()</text>
<text text-anchor="start" x="433" y="-393.9" font-family="Helvetica,sans-Serif" font-size="12.00" fill="#000000">+ at()</text>
<text text-anchor="start" x="433" y="-380.9" font-family="Helvetica,sans-Serif" font-size="12.00" fill="#000000">+ time()</text>
<text text-anchor="start" x="433" y="-367.9" font-family="Helvetica,sans-Serif" font-size="12.00" fill="#000000">+ time()</text>
<text text-anchor="start" x="433" y="-354.9" font-family="Helvetica,sans-Serif" font-size="12.00" fill="#000000">+ time()</text>
<text text-anchor="start" x="433" y="-341.9" font-family="Helvetica,sans-Serif" font-size="12.00" fill="#000000">and 31 more...</text>
<text text-anchor="start" x="433" y="-328.9" font-family="Helvetica,sans-Serif" font-size="12.00" fill="#000000">+ instance()</text>
<text text-anchor="start" x="433" y="-315.9" font-family="Helvetica,sans-Serif" font-size="12.00" fill="#000000">+ is_enabled()</text>
<text text-anchor="start" x="433" y="-302.9" font-family="Helvetica,sans-Serif" font-size="12.00" fill="#000000">+ enable()</text>
<text text-anchor="start" x="433" y="-289.9" font-family="Helvetica,sans-Serif" font-size="12.00" fill="#000000">+ write_json()</text>
<text text-anchor="start" x="433" y="-276.9" font-family="Helvetica,sans-Serif" font-size="12.00" fill="#000000">+ write_json()</text>
<text text-anchor="start" x="433" y="-263.9" font-family="Helvetica,sans-Serif" font-size="12.00" fill="#000000">+ max_depth()</text>
<text text-anchor="start" x="433" y="-250.9" font-family="Helvetica,sans-Serif" font-size="12.00" fill="#000000">+ set_get_num_threads_func()</text>
<text text-anchor="start" x="433" y="-237.9" font-family="Helvetica,sans-Serif" font-size="12.00" fill="#000000"># string_hash()</text>
<text text-anchor="start" x="433" y="-224.9" font-family="Helvetica,sans-Serif" font-size="12.00" fill="#000000"># const_merge()</text>
<text text-anchor="start" x="433" y="-211.9" font-family="Helvetica,sans-Serif" font-size="12.00" fill="#000000"># get_prefix()</text>
<text text-anchor="start" x="433" y="-198.9" font-family="Helvetica,sans-Serif" font-size="12.00" fill="#000000"># write_json_no_mpi()</text>
<text text-anchor="start" x="433" y="-185.9" font-family="Helvetica,sans-Serif" font-size="12.00" fill="#000000"># write_json_mpi()</text>
<text text-anchor="start" x="433" y="-172.9" font-family="Helvetica,sans-Serif" font-size="12.00" fill="#000000"># write_json_no_mpi()</text>
<text text-anchor="start" x="433" y="-159.9" font-family="Helvetica,sans-Serif" font-size="12.00" fill="#000000"># write_json_mpi()</text>
<text text-anchor="start" x="433" y="-146.9" font-family="Helvetica,sans-Serif" font-size="12.00" fill="#000000"># get_communicator_group()</text>
<text text-anchor="start" x="433" y="-133.9" font-family="Helvetica,sans-Serif" font-size="12.00" fill="#000000">&#45; get_ofstream()</text>
<text text-anchor="start" x="433" y="-120.9" font-family="Helvetica,sans-Serif" font-size="12.00" fill="#000000">&#45; report()</text>
</g>
<!-- Node1&#45;&gt;Node1 -->
<g id="edge17" class="edge">
<title>Node1&#45;&gt;Node1</title>
<path fill="none" stroke="#404040" d="M564.1727,-360.1661C574.7902,-354.1127 582,-340.8906 582,-320.5 582,-306.6407 578.6693,-296.0932 573.2016,-288.8574"/>
<polygon fill="none" stroke="#404040" points="573.1427,-288.805 566.0007,-287.8095 564.1727,-280.8339 571.3148,-281.8294 573.1427,-288.805"/>
<text text-anchor="middle" x="605.5" y="-317.4" font-family="Helvetica,sans-Serif" font-size="12.00" fill="#000000"> &#45;f_instance</text>
</g>
<!-- Node12 -->
<g id="node12" class="node">
<title>Node12</title>
<polygon fill="#ffffff" stroke="#bfbfbf" points="393,-.5 393,-63.5 496,-63.5 496,-.5 393,-.5"/>
<text text-anchor="middle" x="444.5" y="-49.9" font-family="Helvetica,sans-Serif" font-size="12.00" fill="#000000">std::set&lt; this_type * &gt;</text>
<polyline fill="none" stroke="#bfbfbf" points="393,-42.5 496,-42.5 "/>
<text text-anchor="middle" x="444.5" y="-28.9" font-family="Helvetica,sans-Serif" font-size="12.00" fill="#000000"> </text>
<polyline fill="none" stroke="#bfbfbf" points="393,-21.5 496,-21.5 "/>
<text text-anchor="middle" x="444.5" y="-7.9" font-family="Helvetica,sans-Serif" font-size="12.00" fill="#000000"> </text>
</g>
<!-- Node1&#45;&gt;Node12 -->
<g id="edge12" class="edge">
<title>Node1&#45;&gt;Node12</title>
<path fill="none" stroke="#404040" d="M443.9158,-113.4691C443.0165,-107.2587 442.2063,-101.0921 441.5,-95 440.7853,-88.8358 440.5341,-82.3133 440.5762,-75.8934"/>
<polygon fill="none" stroke="#404040" points="440.5795,-75.7885 436.7788,-69.6603 440.9737,-63.7949 444.7745,-69.9231 440.5795,-75.7885"/>
<text text-anchor="middle" x="455" y="-85.4" font-family="Helvetica,sans-Serif" font-size="12.00" fill="#000000"> +keys</text>
</g>
<!-- Node2 -->
<g id="node2" class="node">
<title>Node2</title>
<polygon fill="#ffffff" stroke="#bfbfbf" points="47,-597 47,-660 96,-660 96,-597 47,-597"/>
<text text-anchor="middle" x="71.5" y="-646.4" font-family="Helvetica,sans-Serif" font-size="12.00" fill="#000000">uint64_t</text>
<polyline fill="none" stroke="#bfbfbf" points="47,-639 96,-639 "/>
<text text-anchor="middle" x="71.5" y="-625.4" font-family="Helvetica,sans-Serif" font-size="12.00" fill="#000000"> </text>
<polyline fill="none" stroke="#bfbfbf" points="47,-618 96,-618 "/>
<text text-anchor="middle" x="71.5" y="-604.4" font-family="Helvetica,sans-Serif" font-size="12.00" fill="#000000"> </text>
</g>
<!-- Node2&#45;&gt;Node1 -->
<g id="edge1" class="edge">
<title>Node2&#45;&gt;Node1</title>
<path fill="none" stroke="#404040" d="M91.6478,-596.9018C103.7956,-579.9257 120.5643,-559.7257 139.5,-546 157.2753,-533.1154 166.049,-538.1801 185.5,-528 267.3914,-485.1401 354.2374,-425.396 414.9357,-381.0158"/>
<polygon fill="none" stroke="#404040" points="415.1531,-380.8561 417.6209,-374.0804 424.8245,-373.7522 422.3568,-380.5279 415.1531,-380.8561"/>
<text text-anchor="middle" x="160" y="-562.4" font-family="Helvetica,sans-Serif" font-size="12.00" fill="#000000"> &#45;m_count</text>
<text text-anchor="middle" x="160" y="-549.4" font-family="Helvetica,sans-Serif" font-size="12.00" fill="#000000">&#45;m_hash</text>
</g>
<!-- Node3 -->
<g id="node3" class="node">
<title>Node3</title>
<polygon fill="#ffffff" stroke="#bfbfbf" points="114.5,-597 114.5,-660 180.5,-660 180.5,-597 114.5,-597"/>
<text text-anchor="middle" x="147.5" y="-646.4" font-family="Helvetica,sans-Serif" font-size="12.00" fill="#000000">rss_usage_t</text>
<polyline fill="none" stroke="#bfbfbf" points="114.5,-639 180.5,-639 "/>
<text text-anchor="middle" x="147.5" y="-625.4" font-family="Helvetica,sans-Serif" font-size="12.00" fill="#000000"> </text>
<polyline fill="none" stroke="#bfbfbf" points="114.5,-618 180.5,-618 "/>
<text text-anchor="middle" x="147.5" y="-604.4" font-family="Helvetica,sans-Serif" font-size="12.00" fill="#000000"> </text>
</g>
<!-- Node3&#45;&gt;Node1 -->
<g id="edge2" class="edge">
<title>Node3&#45;&gt;Node1</title>
<path fill="none" stroke="#404040" d="M166.6943,-596.6746C177.1419,-580.6189 190.8979,-561.3487 205.5,-546 269.2821,-478.957 353.8439,-415.3244 415.0033,-372.857"/>
<polygon fill="none" stroke="#404040" points="415.1154,-372.7796 417.7821,-366.0797 424.9923,-365.9643 422.3256,-372.6643 415.1154,-372.7796"/>
<text text-anchor="middle" x="235.5" y="-555.9" font-family="Helvetica,sans-Serif" font-size="12.00" fill="#000000"> &#45;m_rss_usage</text>
</g>
<!-- Node4 -->
<g id="node4" class="node">
<title>Node4</title>
<polygon fill="#ffffff" stroke="#bfbfbf" points="199,-597 199,-660 240,-660 240,-597 199,-597"/>
<text text-anchor="middle" x="219.5" y="-646.4" font-family="Helvetica,sans-Serif" font-size="12.00" fill="#000000">mutex</text>
<polyline fill="none" stroke="#bfbfbf" points="199,-639 240,-639 "/>
<text text-anchor="middle" x="219.5" y="-625.4" font-family="Helvetica,sans-Serif" font-size="12.00" fill="#000000"> </text>
<polyline fill="none" stroke="#bfbfbf" points="199,-618 240,-618 "/>
<text text-anchor="middle" x="219.5" y="-604.4" font-family="Helvetica,sans-Serif" font-size="12.00" fill="#000000"> </text>
</g>
<!-- Node4&#45;&gt;Node1 -->
<g id="edge3" class="edge">
<title>Node4&#45;&gt;Node1</title>
<path fill="none" stroke="#404040" d="M240.2247,-601.3671C243.2886,-597.5138 246.4435,-593.6297 249.5,-590 303.5955,-525.7597 367.5062,-455.6361 416.4867,-403.0254"/>
<polygon fill="none" stroke="#404040" points="416.649,-402.8514 417.8154,-395.7352 424.8328,-394.075 423.6664,-401.1911 416.649,-402.8514"/>
<text text-anchor="middle" x="304" y="-555.9" font-family="Helvetica,sans-Serif" font-size="12.00" fill="#000000"> &#45;m_mutex</text>
</g>
<!-- Node5 -->
<g id="node5" class="node">
<title>Node5</title>
<polygon fill="#ffffff" stroke="#bfbfbf" points="258.5,-597 258.5,-660 384.5,-660 384.5,-597 258.5,-597"/>
<text text-anchor="middle" x="321.5" y="-646.4" font-family="Helvetica,sans-Serif" font-size="12.00" fill="#000000">std::deque&lt; timer_tuple_t &gt;</text>
<polyline fill="none" stroke="#bfbfbf" points="258.5,-639 384.5,-639 "/>
<text text-anchor="middle" x="321.5" y="-625.4" font-family="Helvetica,sans-Serif" font-size="12.00" fill="#000000"> </text>
<polyline fill="none" stroke="#bfbfbf" points="258.5,-618 384.5,-618 "/>
<text text-anchor="middle" x="321.5" y="-604.4" font-family="Helvetica,sans-Serif" font-size="12.00" fill="#000000"> </text>
</g>
<!-- Node5&#45;&gt;Node1 -->
<g id="edge4" class="edge">
<title>Node5&#45;&gt;Node1</title>
<path fill="none" stroke="#404040" d="M339.201,-596.986C358.1333,-563.28 389.4395,-507.544 419.0029,-454.911"/>
<polygon fill="none" stroke="#404040" points="419.0114,-454.8958 418.4623,-447.7056 424.8882,-444.4332 425.4373,-451.6234 419.0114,-454.8958"/>
<text text-anchor="middle" x="390" y="-555.9" font-family="Helvetica,sans-Serif" font-size="12.00" fill="#000000"> &#45;m_timer_list</text>
</g>
<!-- Node6 -->
<g id="node6" class="node">
<title>Node6</title>
<g id="a_node6"><a xlink:href="../../df/d44/structtim_1_1timer__tuple.html" target="_top" xlink:title="{tim::timer_tuple\n||+ timer_tuple()\l+ timer_tuple()\l+ operator=()\l+ operator==()\l+ operator!=()\l+ operator+=()\l+ operator+()\l+ key()\l+ key()\l+ level()\land 6 more...\l}">
<polygon fill="#ffffff" stroke="#000000" points="230.5,-716.5 230.5,-909.5 308.5,-909.5 308.5,-716.5 230.5,-716.5"/>
<text text-anchor="middle" x="269.5" y="-895.9" font-family="Helvetica,sans-Serif" font-size="12.00" fill="#000000">tim::timer_tuple</text>
<polyline fill="none" stroke="#000000" points="230.5,-888.5 308.5,-888.5 "/>
<text text-anchor="middle" x="269.5" y="-874.9" font-family="Helvetica,sans-Serif" font-size="12.00" fill="#000000"> </text>
<polyline fill="none" stroke="#000000" points="230.5,-867.5 308.5,-867.5 "/>
<text text-anchor="start" x="238.5" y="-853.9" font-family="Helvetica,sans-Serif" font-size="12.00" fill="#000000">+ timer_tuple()</text>
<text text-anchor="start" x="238.5" y="-840.9" font-family="Helvetica,sans-Serif" font-size="12.00" fill="#000000">+ timer_tuple()</text>
<text text-anchor="start" x="238.5" y="-827.9" font-family="Helvetica,sans-Serif" font-size="12.00" fill="#000000">+ operator=()</text>
<text text-anchor="start" x="238.5" y="-814.9" font-family="Helvetica,sans-Serif" font-size="12.00" fill="#000000">+ operator==()</text>
<text text-anchor="start" x="238.5" y="-801.9" font-family="Helvetica,sans-Serif" font-size="12.00" fill="#000000">+ operator!=()</text>
<text text-anchor="start" x="238.5" y="-788.9" font-family="Helvetica,sans-Serif" font-size="12.00" fill="#000000">+ operator+=()</text>
<text text-anchor="start" x="238.5" y="-775.9" font-family="Helvetica,sans-Serif" font-size="12.00" fill="#000000">+ operator+()</text>
<text text-anchor="start" x="238.5" y="-762.9" font-family="Helvetica,sans-Serif" font-size="12.00" fill="#000000">+ key()</text>
<text text-anchor="start" x="238.5" y="-749.9" font-family="Helvetica,sans-Serif" font-size="12.00" fill="#000000">+ key()</text>
<text text-anchor="start" x="238.5" y="-736.9" font-family="Helvetica,sans-Serif" font-size="12.00" fill="#000000">+ level()</text>
<text text-anchor="start" x="238.5" y="-723.9" font-family="Helvetica,sans-Serif" font-size="12.00" fill="#000000">and 6 more...</text>
</a>
</g>
</g>
<!-- Node6&#45;&gt;Node5 -->
<g id="edge5" class="edge">
<title>Node6&#45;&gt;Node5</title>
<path fill="none" stroke="#404040" d="M277.8996,-716.1973C280.1359,-705.514 282.9533,-694.9213 286.5,-685 288.2042,-680.2329 290.3523,-675.4402 292.7421,-670.7708"/>
<polygon fill="none" stroke="#404040" points="292.8115,-670.6464 292.2441,-663.4576 298.6617,-660.169 299.229,-667.3578 292.8115,-670.6464"/>
<text text-anchor="middle" x="309" y="-688.4" font-family="Helvetica,sans-Serif" font-size="12.00" fill="#000000"> +elements</text>
</g>
<!-- Node7 -->
<g id="node7" class="node">
<title>Node7</title>
<polygon fill="#ffffff" stroke="#bfbfbf" points="221.5,-959.5 221.5,-1035.5 317.5,-1035.5 317.5,-959.5 221.5,-959.5"/>
<text text-anchor="start" x="229.5" y="-1021.9" font-family="Helvetica,sans-Serif" font-size="12.00" fill="#000000">internal::base_timer</text>
<text text-anchor="middle" x="269.5" y="-1008.9" font-family="Helvetica,sans-Serif" font-size="12.00" fill="#000000">_tuple_t</text>
<polyline fill="none" stroke="#bfbfbf" points="221.5,-1001.5 317.5,-1001.5 "/>
<text text-anchor="middle" x="269.5" y="-987.9" font-family="Helvetica,sans-Serif" font-size="12.00" fill="#000000"> </text>
<polyline fill="none" stroke="#bfbfbf" points="221.5,-980.5 317.5,-980.5 "/>
<text text-anchor="middle" x="269.5" y="-966.9" font-family="Helvetica,sans-Serif" font-size="12.00" fill="#000000"> </text>
</g>
<!-- Node7&#45;&gt;Node6 -->
<g id="edge6" class="edge">
<title>Node7&#45;&gt;Node6</title>
<path fill="none" stroke="#191970" d="M269.5,-948.9738C269.5,-936.8371 269.5,-923.387 269.5,-909.8048"/>
<polygon fill="none" stroke="#191970" points="266.0001,-949.2714 269.5,-959.2715 273.0001,-949.2715 266.0001,-949.2714"/>
</g>
<!-- Node8 -->
<g id="node8" class="node">
<title>Node8</title>
<g id="a_node8"><a xlink:title="STL class. ">
<polygon fill="#ffffff" stroke="#bfbfbf" points="326.5,-781.5 326.5,-844.5 406.5,-844.5 406.5,-781.5 326.5,-781.5"/>
<text text-anchor="middle" x="366.5" y="-830.9" font-family="Helvetica,sans-Serif" font-size="12.00" fill="#000000">std::deque&lt; T &gt;</text>
<polyline fill="none" stroke="#bfbfbf" points="326.5,-823.5 406.5,-823.5 "/>
<text text-anchor="middle" x="366.5" y="-809.9" font-family="Helvetica,sans-Serif" font-size="12.00" fill="#000000"> </text>
<polyline fill="none" stroke="#bfbfbf" points="326.5,-802.5 406.5,-802.5 "/>
<text text-anchor="middle" x="366.5" y="-788.9" font-family="Helvetica,sans-Serif" font-size="12.00" fill="#000000"> </text>
</a>
</g>
</g>
<!-- Node8&#45;&gt;Node5 -->
<g id="edge7" class="edge">
<title>Node8&#45;&gt;Node5</title>
<path fill="none" stroke="#ffa500" d="M356.3213,-771.2673C348.0957,-737.5423 336.6934,-690.7931 329.21,-660.111"/>
<polygon fill="#ffa500" stroke="#ffa500" points="352.9943,-772.3975 358.7642,-781.2833 359.7949,-770.7387 352.9943,-772.3975"/>
<text text-anchor="middle" x="372" y="-688.4" font-family="Helvetica,sans-Serif" font-size="12.00" fill="#000000"> &lt; timer_tuple_t &gt;</text>
</g>
<!-- Node9 -->
<g id="node9" class="node">
<title>Node9</title>
<polygon fill="#ffffff" stroke="#bfbfbf" points="352,-966 352,-1029 381,-1029 381,-966 352,-966"/>
<text text-anchor="middle" x="366.5" y="-1015.4" font-family="Helvetica,sans-Serif" font-size="12.00" fill="#000000">T</text>
<polyline fill="none" stroke="#bfbfbf" points="352,-1008 381,-1008 "/>
<text text-anchor="middle" x="366.5" y="-994.4" font-family="Helvetica,sans-Serif" font-size="12.00" fill="#000000"> </text>
<polyline fill="none" stroke="#bfbfbf" points="352,-987 381,-987 "/>
<text text-anchor="middle" x="366.5" y="-973.4" font-family="Helvetica,sans-Serif" font-size="12.00" fill="#000000"> </text>
</g>
<!-- Node9&#45;&gt;Node8 -->
<g id="edge8" class="edge">
<title>Node9&#45;&gt;Node8</title>
<path fill="none" stroke="#404040" d="M366.5,-965.7833C366.5,-935.7264 366.5,-890.3194 366.5,-856.8131"/>
<polygon fill="none" stroke="#404040" points="366.5001,-856.611 362.5,-850.611 366.5,-844.611 370.5,-850.6109 366.5001,-856.611"/>
<text text-anchor="middle" x="389" y="-931.4" font-family="Helvetica,sans-Serif" font-size="12.00" fill="#000000"> +elements</text>
</g>
<!-- Node10 -->
<g id="node10" class="node">
<title>Node10</title>
<polygon fill="#ffffff" stroke="#bfbfbf" points="402.5,-590.5 402.5,-666.5 512.5,-666.5 512.5,-590.5 402.5,-590.5"/>
<text text-anchor="start" x="410.5" y="-652.9" font-family="Helvetica,sans-Serif" font-size="12.00" fill="#000000">static get_num_threads</text>
<text text-anchor="middle" x="457.5" y="-639.9" font-family="Helvetica,sans-Serif" font-size="12.00" fill="#000000">_func_t</text>
<polyline fill="none" stroke="#bfbfbf" points="402.5,-632.5 512.5,-632.5 "/>
<text text-anchor="middle" x="457.5" y="-618.9" font-family="Helvetica,sans-Serif" font-size="12.00" fill="#000000"> </text>
<polyline fill="none" stroke="#bfbfbf" points="402.5,-611.5 512.5,-611.5 "/>
<text text-anchor="middle" x="457.5" y="-597.9" font-family="Helvetica,sans-Serif" font-size="12.00" fill="#000000"> </text>
</g>
<!-- Node10&#45;&gt;Node1 -->
<g id="edge9" class="edge">
<title>Node10&#45;&gt;Node1</title>
<path fill="none" stroke="#404040" d="M445.1276,-590.204C443.6231,-584.1704 442.3273,-577.9577 441.5,-572 439.9106,-560.5543 440.1692,-557.4787 441.5,-546 441.7428,-543.9058 441.9979,-541.8029 442.2646,-539.6923"/>
<polygon fill="none" stroke="#404040" points="442.3013,-539.4218 439.1449,-532.9381 443.9158,-527.5309 447.0722,-534.0145 442.3013,-539.4218"/>
<text text-anchor="middle" x="484.5" y="-555.9" font-family="Helvetica,sans-Serif" font-size="12.00" fill="#000000"> #f_get_num_threads</text>
</g>
<!-- Node11 -->
<g id="node11" class="node">
<title>Node11</title>
<polygon fill="#ffffff" stroke="#bfbfbf" points="530.5,-597 530.5,-660 564.5,-660 564.5,-597 530.5,-597"/>
<text text-anchor="middle" x="547.5" y="-646.4" font-family="Helvetica,sans-Serif" font-size="12.00" fill="#000000">bool</text>
<polyline fill="none" stroke="#bfbfbf" points="530.5,-639 564.5,-639 "/>
<text text-anchor="middle" x="547.5" y="-625.4" font-family="Helvetica,sans-Serif" font-size="12.00" fill="#000000"> </text>
<polyline fill="none" stroke="#bfbfbf" points="530.5,-618 564.5,-618 "/>
<text text-anchor="middle" x="547.5" y="-604.4" font-family="Helvetica,sans-Serif" font-size="12.00" fill="#000000"> </text>
</g>
<!-- Node11&#45;&gt;Node1 -->
<g id="edge10" class="edge">
<title>Node11&#45;&gt;Node1</title>
<path fill="none" stroke="#404040" d="M542.0771,-596.986C539.4383,-581.6506 536.0147,-561.755 532.2136,-539.6661"/>
<polygon fill="none" stroke="#404040" points="532.1652,-539.3839 527.2055,-534.1491 530.1301,-527.5577 535.0897,-532.7924 532.1652,-539.3839"/>
<text text-anchor="middle" x="559.5" y="-555.9" font-family="Helvetica,sans-Serif" font-size="12.00" fill="#000000"> &#45;f_enabled</text>
</g>
<!-- Node12&#45;&gt;Node1 -->
<g id="edge11" class="edge">
<title>Node12&#45;&gt;Node1</title>
<path fill="none" stroke="#404040" d="M464.7971,-63.6535C467.8318,-69.5614 470.5813,-75.8244 472.5,-82 474.4663,-88.3287 476.273,-94.7938 477.9324,-101.3538"/>
<polygon fill="none" stroke="#404040" points="477.9863,-101.5808 483.2661,-106.4925 480.7629,-113.2552 475.4831,-108.3435 477.9863,-101.5808"/>
<text text-anchor="middle" x="505" y="-85.4" font-family="Helvetica,sans-Serif" font-size="12.00" fill="#000000"> &#45;m_daughters</text>
</g>
<!-- Node13 -->
<g id="node13" class="node">
<title>Node13</title>
<g id="a_node13"><a xlink:title="STL class. ">
<polygon fill="#ffffff" stroke="#bfbfbf" points="110,-289 110,-352 177,-352 177,-289 110,-289"/>
<text text-anchor="middle" x="143.5" y="-338.4" font-family="Helvetica,sans-Serif" font-size="12.00" fill="#000000">std::set&lt; K &gt;</text>
<polyline fill="none" stroke="#bfbfbf" points="110,-331 177,-331 "/>
<text text-anchor="middle" x="143.5" y="-317.4" font-family="Helvetica,sans-Serif" font-size="12.00" fill="#000000"> </text>
<polyline fill="none" stroke="#bfbfbf" points="110,-310 177,-310 "/>
<text text-anchor="middle" x="143.5" y="-296.4" font-family="Helvetica,sans-Serif" font-size="12.00" fill="#000000"> </text>
</a>
</g>
</g>
<!-- Node13&#45;&gt;Node12 -->
<g id="edge13" class="edge">
<title>Node13&#45;&gt;Node12</title>
<path fill="none" stroke="#ffa500" d="M177.9181,-281.1475C221.6341,-232.1289 300.44,-146.9273 375.5,-82 382.6607,-75.8059 390.5536,-69.5839 398.3649,-63.735"/>
<polygon fill="#ffa500" stroke="#ffa500" points="175.2367,-278.8958 171.2092,-288.6953 180.4687,-283.5463 175.2367,-278.8958"/>
<text text-anchor="middle" x="406" y="-85.4" font-family="Helvetica,sans-Serif" font-size="12.00" fill="#000000"> &lt; this_type * &gt;</text>
</g>
<!-- Node14 -->
<g id="node14" class="node">
<title>Node14</title>
<polygon fill="#ffffff" stroke="#bfbfbf" points="0,-597 0,-660 29,-660 29,-597 0,-597"/>
<text text-anchor="middle" x="14.5" y="-646.4" font-family="Helvetica,sans-Serif" font-size="12.00" fill="#000000">K</text>
<polyline fill="none" stroke="#bfbfbf" points="0,-639 29,-639 "/>
<text text-anchor="middle" x="14.5" y="-625.4" font-family="Helvetica,sans-Serif" font-size="12.00" fill="#000000"> </text>
<polyline fill="none" stroke="#bfbfbf" points="0,-618 29,-618 "/>
<text text-anchor="middle" x="14.5" y="-604.4" font-family="Helvetica,sans-Serif" font-size="12.00" fill="#000000"> </text>
</g>
<!-- Node14&#45;&gt;Node13 -->
<g id="edge14" class="edge">
<title>Node14&#45;&gt;Node13</title>
<path fill="none" stroke="#404040" d="M14.6496,-596.9856C15.45,-581.3654 17.5282,-562.3866 22.5,-546 43.2352,-477.658 85.638,-406.2325 114.3222,-362.5415"/>
<polygon fill="none" stroke="#404040" points="114.4753,-362.3111 114.4653,-355.0999 121.1178,-352.3171 121.1279,-359.5283 114.4753,-362.3111"/>
<text text-anchor="middle" x="36" y="-555.9" font-family="Helvetica,sans-Serif" font-size="12.00" fill="#000000"> +keys</text>
</g>
<!-- Node15 -->
<g id="node15" class="node">
<title>Node15</title>
<polygon fill="#ffffff" stroke="#bfbfbf" points="582.5,-597 582.5,-660 658.5,-660 658.5,-597 582.5,-597"/>
<text text-anchor="middle" x="620.5" y="-646.4" font-family="Helvetica,sans-Serif" font-size="12.00" fill="#000000">atomic&lt; bool &gt;</text>
<polyline fill="none" stroke="#bfbfbf" points="582.5,-639 658.5,-639 "/>
<text text-anchor="middle" x="620.5" y="-625.4" font-family="Helvetica,sans-Serif" font-size="12.00" fill="#000000"> </text>
<polyline fill="none" stroke="#bfbfbf" points="582.5,-618 658.5,-618 "/>
<text text-anchor="middle" x="620.5" y="-604.4" font-family="Helvetica,sans-Serif" font-size="12.00" fill="#000000"> </text>
</g>
<!-- Node15&#45;&gt;Node1 -->
<g id="edge15" class="edge">
<title>Node15&#45;&gt;Node1</title>
<path fill="none" stroke="#404040" d="M607.6079,-596.986C597.9165,-573.296 583.7732,-538.7234 568.7477,-501.9943"/>
<polygon fill="none" stroke="#404040" points="568.6039,-501.6427 562.6299,-497.6039 564.0602,-490.5361 570.0342,-494.5748 568.6039,-501.6427"/>
<text text-anchor="middle" x="617.5" y="-555.9" font-family="Helvetica,sans-Serif" font-size="12.00" fill="#000000"> &#45;m_merge</text>
</g>
<!-- Node16 -->
<g id="node16" class="node">
<title>Node16</title>
<polygon fill="#ffffff" stroke="#bfbfbf" points="677,-597 677,-660 744,-660 744,-597 677,-597"/>
<text text-anchor="middle" x="710.5" y="-646.4" font-family="Helvetica,sans-Serif" font-size="12.00" fill="#000000">static int32_t</text>
<polyline fill="none" stroke="#bfbfbf" points="677,-639 744,-639 "/>
<text text-anchor="middle" x="710.5" y="-625.4" font-family="Helvetica,sans-Serif" font-size="12.00" fill="#000000"> </text>
<polyline fill="none" stroke="#bfbfbf" points="677,-618 744,-618 "/>
<text text-anchor="middle" x="710.5" y="-604.4" font-family="Helvetica,sans-Serif" font-size="12.00" fill="#000000"> </text>
</g>
<!-- Node16&#45;&gt;Node1 -->
<g id="edge16" class="edge">
<title>Node16&#45;&gt;Node1</title>
<path fill="none" stroke="#404040" d="M688.3993,-596.986C660.9561,-557.854 612.6887,-489.0283 571.1788,-429.8383"/>
<polygon fill="none" stroke="#404040" points="570.938,-429.4949 564.218,-426.8792 564.0478,-419.6701 570.7679,-422.2858 570.938,-429.4949"/>
<text text-anchor="middle" x="697.5" y="-555.9" font-family="Helvetica,sans-Serif" font-size="12.00" fill="#000000"> &#45;f_max_depth</text>
</g>
<!-- Node17 -->
<g id="node17" class="node">
<title>Node17</title>
<polygon fill="#ffffff" stroke="#bfbfbf" points="762,-597 762,-660 825,-660 825,-597 762,-597"/>
<text text-anchor="middle" x="793.5" y="-646.4" font-family="Helvetica,sans-Serif" font-size="12.00" fill="#000000">ostream_t *</text>
<polyline fill="none" stroke="#bfbfbf" points="762,-639 825,-639 "/>
<text text-anchor="middle" x="793.5" y="-625.4" font-family="Helvetica,sans-Serif" font-size="12.00" fill="#000000"> </text>
<polyline fill="none" stroke="#bfbfbf" points="762,-618 825,-618 "/>
<text text-anchor="middle" x="793.5" y="-604.4" font-family="Helvetica,sans-Serif" font-size="12.00" fill="#000000"> </text>
</g>
<!-- Node17&#45;&gt;Node1 -->
<g id="edge18" class="edge">
<title>Node17&#45;&gt;Node1</title>
<path fill="none" stroke="#404040" d="M770.9728,-596.6349C759.4227,-580.9285 744.804,-561.9784 730.5,-546 681.0536,-490.7652 620.5153,-433.0962 573.1333,-389.9045"/>
<polygon fill="none" stroke="#404040" points="573.0254,-389.8065 565.8946,-388.7334 564.1425,-381.7384 571.2734,-382.8115 573.0254,-389.8065"/>
<text text-anchor="middle" x="771.5" y="-555.9" font-family="Helvetica,sans-Serif" font-size="12.00" fill="#000000"> &#45;m_report</text>
</g>
<!-- Node18 -->
<g id="node18" class="node">
<title>Node18</title>
<polygon fill="#ffffff" stroke="#bfbfbf" points="843,-590.5 843,-666.5 952,-666.5 952,-590.5 843,-590.5"/>
<text text-anchor="start" x="851" y="-652.9" font-family="Helvetica,sans-Serif" font-size="12.00" fill="#000000">uomap&lt; uint64_t, timer</text>
<text text-anchor="middle" x="897.5" y="-639.9" font-family="Helvetica,sans-Serif" font-size="12.00" fill="#000000">_ptr_t &gt;</text>
<polyline fill="none" stroke="#bfbfbf" points="843,-632.5 952,-632.5 "/>
<text text-anchor="middle" x="897.5" y="-618.9" font-family="Helvetica,sans-Serif" font-size="12.00" fill="#000000"> </text>
<polyline fill="none" stroke="#bfbfbf" points="843,-611.5 952,-611.5 "/>
<text text-anchor="middle" x="897.5" y="-597.9" font-family="Helvetica,sans-Serif" font-size="12.00" fill="#000000"> </text>
</g>
<!-- Node18&#45;&gt;Node1 -->
<g id="edge19" class="edge">
<title>Node18&#45;&gt;Node1</title>
<path fill="none" stroke="#404040" d="M851.8346,-590.4955C834.6234,-576.3581 814.7884,-560.2863 796.5,-546 722.009,-487.8103 635.4234,-423.488 574.1125,-378.4832"/>
<polygon fill="none" stroke="#404040" points="573.7911,-378.2475 566.5872,-377.9248 564.1144,-371.1509 571.3183,-371.4736 573.7911,-378.2475"/>
<text text-anchor="middle" x="857" y="-555.9" font-family="Helvetica,sans-Serif" font-size="12.00" fill="#000000"> &#45;m_timer_map</text>
</g>
<!-- Node19 -->
<g id="node19" class="node">
<title>Node19</title>
<polygon fill="#ffffff" stroke="#bfbfbf" points="970.5,-597 970.5,-660 1042.5,-660 1042.5,-597 970.5,-597"/>
<text text-anchor="middle" x="1006.5" y="-646.4" font-family="Helvetica,sans-Serif" font-size="12.00" fill="#000000">static mutex_t</text>
<polyline fill="none" stroke="#bfbfbf" points="970.5,-639 1042.5,-639 "/>
<text text-anchor="middle" x="1006.5" y="-625.4" font-family="Helvetica,sans-Serif" font-size="12.00" fill="#000000"> </text>
<polyline fill="none" stroke="#bfbfbf" points="970.5,-618 1042.5,-618 "/>
<text text-anchor="middle" x="1006.5" y="-604.4" font-family="Helvetica,sans-Serif" font-size="12.00" fill="#000000"> </text>
</g>
<!-- Node19&#45;&gt;Node1 -->
<g id="edge20" class="edge">
<title>Node19&#45;&gt;Node1</title>
<path fill="none" stroke="#404040" d="M970.5243,-596.9307C967.5137,-594.5321 964.4811,-592.1939 961.5,-590 931.904,-568.2193 923.0394,-564.857 891.5,-546 782.9287,-481.0866 655.4448,-409.4749 574.8187,-364.7415"/>
<polygon fill="none" stroke="#404040" points="574.7435,-364.6999 567.5565,-365.2893 564.2482,-358.8818 571.4352,-358.2924 574.7435,-364.6999"/>
<text text-anchor="middle" x="953.5" y="-555.9" font-family="Helvetica,sans-Serif" font-size="12.00" fill="#000000"> #f_mutex</text>
</g>
</g>
</svg>
        <g id="navigator" transform="translate(0 0)" fill="#404254">
                <rect fill="#f2f5e9" fill-opacity="0.5" stroke="#606060" stroke-width=".5" x="0" y="0" width="60" height="60"/>
                <use id="zoomplus" xlink:href="#zoomPlus" x="17" y="9" onmousedown="handleZoom(evt,'in')"/>
                <use id="zoomminus" xlink:href="#zoomMin" x="42" y="9" onmousedown="handleZoom(evt,'out')"/>
                <use id="reset" xlink:href="#resetDef" x="30" y="36" onmousedown="handleReset()"/>
                <g id="arrowUp" xlink:href="#dirArrow" transform="translate(30 24)" onmousedown="handlePan(0,-1)">
                  <use xlink:href="#rim" fill="#404040">
                        <set attributeName="fill" to="#808080" begin="arrowUp.mouseover" end="arrowUp.mouseout"/>
                  </use>
                  <path fill="none" stroke="white" stroke-width="1.5" d="M0,-3.0v7 M-2.5,-0.5L0,-3.0L2.5,-0.5"/>
                </g>
                <g id="arrowRight" xlink:href="#dirArrow" transform="rotate(90) translate(36 -43)" onmousedown="handlePan(1,0)">
                  <use xlink:href="#rim" fill="#404040">
                        <set attributeName="fill" to="#808080" begin="arrowRight.mouseover" end="arrowRight.mouseout"/>
                  </use>
                  <path fill="none" stroke="white" stroke-width="1.5" d="M0,-3.0v7 M-2.5,-0.5L0,-3.0L2.5,-0.5"/>
                </g>
                <g id="arrowDown" xlink:href="#dirArrow" transform="rotate(180) translate(-30 -48)" onmousedown="handlePan(0,1)">
                  <use xlink:href="#rim" fill="#404040">
                        <set attributeName="fill" to="#808080" begin="arrowDown.mouseover" end="arrowDown.mouseout"/>
                  </use>
                  <path fill="none" stroke="white" stroke-width="1.5" d="M0,-3.0v7 M-2.5,-0.5L0,-3.0L2.5,-0.5"/>
                </g>
                <g id="arrowLeft" xlink:href="#dirArrow" transform="rotate(270) translate(-36 17)" onmousedown="handlePan(-1,0)">
                  <use xlink:href="#rim" fill="#404040">
                        <set attributeName="fill" to="#808080" begin="arrowLeft.mouseover" end="arrowLeft.mouseout"/>
                  </use>
                  <path fill="none" stroke="white" stroke-width="1.5" d="M0,-3.0v7 M-2.5,-0.5L0,-3.0L2.5,-0.5"/>
                </g>
        </g>
        <svg viewBox="0 0 15 15" width="100%" height="30px" preserveAspectRatio="xMaxYMin meet">
         <g id="arrow_out" transform="scale(0.3 0.3)">
          <a xlink:href="classtim_1_1manager__coll__graph_org.svg" target="_base">
           <rect id="button" ry="5" rx="5" y="6" x="6" height="38" width="38"
                fill="#f2f5e9" fill-opacity="0.5" stroke="#606060" stroke-width="1.0"/>
           <path id="arrow"
             d="M 11.500037,31.436501 C 11.940474,20.09759 22.043105,11.32322 32.158766,21.979434 L 37.068811,17.246167 C 37.068811,17.246167 37.088388,32 37.088388,32 L 22.160133,31.978069 C 22.160133,31.978069 26.997745,27.140456 26.997745,27.140456 C 18.528582,18.264221 13.291696,25.230495 11.500037,31.436501 z"
             style="fill:#404040;"/>
          </a>
         </g>
        </svg>
</svg>
