<?xml version="1.0" encoding="UTF-8" standalone="no"?>
<!DOCTYPE svg PUBLIC "-//W3C//DTD SVG 1.1//EN"
 "http://www.w3.org/Graphics/SVG/1.1/DTD/svg11.dtd">
<!-- Generated by graphviz version 2.40.1 (20161225.0304)
 -->
<!-- Title: NAME_TIM::util::timing_manager Pages: 1 -->
<svg width="617pt" height="905pt"
 viewBox="0.00 0.00 616.50 905.00" xmlns="http://www.w3.org/2000/svg" xmlns:xlink="http://www.w3.org/1999/xlink">
<g id="graph0" class="graph" transform="scale(1 1) rotate(0) translate(4 901)">
<title>NAME_TIM::util::timing_manager</title>
<polygon fill="#ffffff" stroke="transparent" points="-4,4 -4,-901 612.5,-901 612.5,4 -4,4"/>
<!-- Node1 -->
<g id="node1" class="node">
<title>Node1</title>
<polygon fill="#bfbfbf" stroke="#000000" points="302.5,-.5 302.5,-362.5 434.5,-362.5 434.5,-.5 302.5,-.5"/>
<text text-anchor="start" x="310.5" y="-348.9" font-family="Helvetica,sans-Serif" font-size="12.00" fill="#000000">NAME_TIM::util::timing</text>
<text text-anchor="middle" x="368.5" y="-335.9" font-family="Helvetica,sans-Serif" font-size="12.00" fill="#000000">_manager</text>
<polyline fill="none" stroke="#000000" points="302.5,-328.5 434.5,-328.5 "/>
<text text-anchor="middle" x="368.5" y="-314.9" font-family="Helvetica,sans-Serif" font-size="12.00" fill="#000000"> </text>
<polyline fill="none" stroke="#000000" points="302.5,-307.5 434.5,-307.5 "/>
<text text-anchor="start" x="310.5" y="-293.9" font-family="Helvetica,sans-Serif" font-size="12.00" fill="#000000">+ timing_manager()</text>
<text text-anchor="start" x="310.5" y="-280.9" font-family="Helvetica,sans-Serif" font-size="12.00" fill="#000000">+ ~timing_manager()</text>
<text text-anchor="start" x="310.5" y="-267.9" font-family="Helvetica,sans-Serif" font-size="12.00" fill="#000000">+ size()</text>
<text text-anchor="start" x="310.5" y="-254.9" font-family="Helvetica,sans-Serif" font-size="12.00" fill="#000000">+ clear()</text>
<text text-anchor="start" x="310.5" y="-241.9" font-family="Helvetica,sans-Serif" font-size="12.00" fill="#000000">+ timer()</text>
<text text-anchor="start" x="310.5" y="-228.9" font-family="Helvetica,sans-Serif" font-size="12.00" fill="#000000">+ at()</text>
<text text-anchor="start" x="310.5" y="-215.9" font-family="Helvetica,sans-Serif" font-size="12.00" fill="#000000">+ time()</text>
<text text-anchor="start" x="310.5" y="-202.9" font-family="Helvetica,sans-Serif" font-size="12.00" fill="#000000">+ time()</text>
<text text-anchor="start" x="310.5" y="-189.9" font-family="Helvetica,sans-Serif" font-size="12.00" fill="#000000">+ time()</text>
<text text-anchor="start" x="310.5" y="-176.9" font-family="Helvetica,sans-Serif" font-size="12.00" fill="#000000">+ time()</text>
<text text-anchor="start" x="310.5" y="-163.9" font-family="Helvetica,sans-Serif" font-size="12.00" fill="#000000">and 15 more...</text>
<text text-anchor="start" x="310.5" y="-150.9" font-family="Helvetica,sans-Serif" font-size="12.00" fill="#000000">+ instance()</text>
<text text-anchor="start" x="310.5" y="-137.9" font-family="Helvetica,sans-Serif" font-size="12.00" fill="#000000">+ is_enabled()</text>
<text text-anchor="start" x="310.5" y="-124.9" font-family="Helvetica,sans-Serif" font-size="12.00" fill="#000000">+ enable()</text>
<text text-anchor="start" x="310.5" y="-111.9" font-family="Helvetica,sans-Serif" font-size="12.00" fill="#000000">+ write_json()</text>
<text text-anchor="start" x="310.5" y="-98.9" font-family="Helvetica,sans-Serif" font-size="12.00" fill="#000000">+ max_depth()</text>
<text text-anchor="start" x="310.5" y="-85.9" font-family="Helvetica,sans-Serif" font-size="12.00" fill="#000000"># string_hash()</text>
<text text-anchor="start" x="310.5" y="-72.9" font-family="Helvetica,sans-Serif" font-size="12.00" fill="#000000"># get_prefix()</text>
<text text-anchor="start" x="310.5" y="-59.9" font-family="Helvetica,sans-Serif" font-size="12.00" fill="#000000"># write_json_mpi()</text>
<text text-anchor="start" x="310.5" y="-46.9" font-family="Helvetica,sans-Serif" font-size="12.00" fill="#000000"># write_json_no_mpi()</text>
<text text-anchor="start" x="310.5" y="-33.9" font-family="Helvetica,sans-Serif" font-size="12.00" fill="#000000"># get_communicator_group()</text>
<text text-anchor="start" x="310.5" y="-20.9" font-family="Helvetica,sans-Serif" font-size="12.00" fill="#000000">&#45; get_ofstream()</text>
<text text-anchor="start" x="310.5" y="-7.9" font-family="Helvetica,sans-Serif" font-size="12.00" fill="#000000">&#45; report()</text>
</g>
<!-- Node1&#45;&gt;Node1 -->
<g id="edge6" class="edge">
<title>Node1&#45;&gt;Node1</title>
<path fill="none" stroke="#404040" d="M434.7015,-217.0697C445.2676,-211.8644 452.5,-200.0078 452.5,-181.5 452.5,-169.3542 449.3853,-160.0729 444.2576,-153.6561"/>
<polygon fill="none" stroke="#404040" points="444.0333,-153.4747 436.8526,-152.8131 434.7015,-145.9303 441.8822,-146.5919 444.0333,-153.4747"/>
<text text-anchor="middle" x="476.5" y="-178.4" font-family="Helvetica,sans-Serif" font-size="12.00" fill="#000000"> &#45;fgInstance</text>
</g>
<!-- Node2 -->
<g id="node2" class="node">
<title>Node2</title>
<polygon fill="#ffffff" stroke="#bfbfbf" points="53.5,-419 53.5,-482 179.5,-482 179.5,-419 53.5,-419"/>
<text text-anchor="middle" x="116.5" y="-468.4" font-family="Helvetica,sans-Serif" font-size="12.00" fill="#000000">std::deque&lt; timer_tuple_t &gt;</text>
<polyline fill="none" stroke="#bfbfbf" points="53.5,-461 179.5,-461 "/>
<text text-anchor="middle" x="116.5" y="-447.4" font-family="Helvetica,sans-Serif" font-size="12.00" fill="#000000"> </text>
<polyline fill="none" stroke="#bfbfbf" points="53.5,-440 179.5,-440 "/>
<text text-anchor="middle" x="116.5" y="-426.4" font-family="Helvetica,sans-Serif" font-size="12.00" fill="#000000"> </text>
</g>
<!-- Node2&#45;&gt;Node1 -->
<g id="edge1" class="edge">
<title>Node2&#45;&gt;Node1</title>
<path fill="none" stroke="#404040" d="M146.1486,-418.8513C182.2464,-380.3183 244.5149,-313.8491 293.9907,-261.0357"/>
<polygon fill="none" stroke="#404040" points="294.2374,-260.7724 295.4202,-253.659 302.4414,-252.0149 301.2586,-259.1284 294.2374,-260.7724"/>
<text text-anchor="middle" x="205" y="-384.4" font-family="Helvetica,sans-Serif" font-size="12.00" fill="#000000"> &#45;m_timer_list</text>
</g>
<!-- Node3 -->
<g id="node3" class="node">
<title>Node3</title>
<g id="a_node3"><a xlink:href="../../da/de9/struct_n_a_m_e___t_i_m_1_1util_1_1timer__tuple.html" target="_top" xlink:title="{NAME_TIM::util::timer\l_tuple\n||+ timer_tuple()\l+ timer_tuple()\l+ operator=()\l+ key()\l+ key()\l+ level()\l+ level()\l+ tag()\l+ tag()\l+ timer()\l+ timer()\l+ serialize()\l}">
<polygon fill="#ffffff" stroke="#000000" points="9,-538.5 9,-757.5 114,-757.5 114,-538.5 9,-538.5"/>
<text text-anchor="start" x="17" y="-743.9" font-family="Helvetica,sans-Serif" font-size="12.00" fill="#000000">NAME_TIM::util::timer</text>
<text text-anchor="middle" x="61.5" y="-730.9" font-family="Helvetica,sans-Serif" font-size="12.00" fill="#000000">_tuple</text>
<polyline fill="none" stroke="#000000" points="9,-723.5 114,-723.5 "/>
<text text-anchor="middle" x="61.5" y="-709.9" font-family="Helvetica,sans-Serif" font-size="12.00" fill="#000000"> </text>
<polyline fill="none" stroke="#000000" points="9,-702.5 114,-702.5 "/>
<text text-anchor="start" x="17" y="-688.9" font-family="Helvetica,sans-Serif" font-size="12.00" fill="#000000">+ timer_tuple()</text>
<text text-anchor="start" x="17" y="-675.9" font-family="Helvetica,sans-Serif" font-size="12.00" fill="#000000">+ timer_tuple()</text>
<text text-anchor="start" x="17" y="-662.9" font-family="Helvetica,sans-Serif" font-size="12.00" fill="#000000">+ operator=()</text>
<text text-anchor="start" x="17" y="-649.9" font-family="Helvetica,sans-Serif" font-size="12.00" fill="#000000">+ key()</text>
<text text-anchor="start" x="17" y="-636.9" font-family="Helvetica,sans-Serif" font-size="12.00" fill="#000000">+ key()</text>
<text text-anchor="start" x="17" y="-623.9" font-family="Helvetica,sans-Serif" font-size="12.00" fill="#000000">+ level()</text>
<text text-anchor="start" x="17" y="-610.9" font-family="Helvetica,sans-Serif" font-size="12.00" fill="#000000">+ level()</text>
<text text-anchor="start" x="17" y="-597.9" font-family="Helvetica,sans-Serif" font-size="12.00" fill="#000000">+ tag()</text>
<text text-anchor="start" x="17" y="-584.9" font-family="Helvetica,sans-Serif" font-size="12.00" fill="#000000">+ tag()</text>
<text text-anchor="start" x="17" y="-571.9" font-family="Helvetica,sans-Serif" font-size="12.00" fill="#000000">+ timer()</text>
<text text-anchor="start" x="17" y="-558.9" font-family="Helvetica,sans-Serif" font-size="12.00" fill="#000000">+ timer()</text>
<text text-anchor="start" x="17" y="-545.9" font-family="Helvetica,sans-Serif" font-size="12.00" fill="#000000">+ serialize()</text>
</a>
</g>
</g>
<!-- Node3&#45;&gt;Node2 -->
<g id="edge2" class="edge">
<title>Node3&#45;&gt;Node2</title>
<path fill="none" stroke="#404040" d="M85.5722,-538.2835C88.3845,-527.657 91.3734,-517.0856 94.5,-507 95.8412,-502.6735 97.3532,-498.2051 98.9405,-493.7647"/>
<polygon fill="none" stroke="#404040" points="99.0624,-493.4377 97.4096,-486.4185 103.2531,-482.1932 104.9059,-489.2123 99.0624,-493.4377"/>
<text text-anchor="middle" x="117" y="-510.4" font-family="Helvetica,sans-Serif" font-size="12.00" fill="#000000"> +elements</text>
</g>
<!-- Node4 -->
<g id="node4" class="node">
<title>Node4</title>
<polygon fill="#ffffff" stroke="#bfbfbf" points="0,-807.5 0,-896.5 123,-896.5 123,-807.5 0,-807.5"/>
<text text-anchor="start" x="8" y="-882.9" font-family="Helvetica,sans-Serif" font-size="12.00" fill="#000000">std::tuple&lt; uint64</text>
<text text-anchor="start" x="8" y="-869.9" font-family="Helvetica,sans-Serif" font-size="12.00" fill="#000000">_t, uint64_t, std::string,</text>
<text text-anchor="middle" x="61.5" y="-856.9" font-family="Helvetica,sans-Serif" font-size="12.00" fill="#000000"> NAME_TIM::util::timer &amp; &gt;</text>
<polyline fill="none" stroke="#bfbfbf" points="0,-849.5 123,-849.5 "/>
<text text-anchor="middle" x="61.5" y="-835.9" font-family="Helvetica,sans-Serif" font-size="12.00" fill="#000000"> </text>
<polyline fill="none" stroke="#bfbfbf" points="0,-828.5 123,-828.5 "/>
<text text-anchor="middle" x="61.5" y="-814.9" font-family="Helvetica,sans-Serif" font-size="12.00" fill="#000000"> </text>
</g>
<!-- Node4&#45;&gt;Node3 -->
<g id="edge3" class="edge">
<title>Node4&#45;&gt;Node3</title>
<path fill="none" stroke="#191970" d="M61.5,-797.3864C61.5,-785.0044 61.5,-771.4245 61.5,-757.6575"/>
<polygon fill="none" stroke="#191970" points="58.0001,-797.4834 61.5,-807.4834 65.0001,-797.4835 58.0001,-797.4834"/>
</g>
<!-- Node5 -->
<g id="node5" class="node">
<title>Node5</title>
<g id="a_node5"><a xlink:title="STL class. ">
<polygon fill="#ffffff" stroke="#bfbfbf" points="132.5,-616.5 132.5,-679.5 212.5,-679.5 212.5,-616.5 132.5,-616.5"/>
<text text-anchor="middle" x="172.5" y="-665.9" font-family="Helvetica,sans-Serif" font-size="12.00" fill="#000000">std::deque&lt; T &gt;</text>
<polyline fill="none" stroke="#bfbfbf" points="132.5,-658.5 212.5,-658.5 "/>
<text text-anchor="middle" x="172.5" y="-644.9" font-family="Helvetica,sans-Serif" font-size="12.00" fill="#000000"> </text>
<polyline fill="none" stroke="#bfbfbf" points="132.5,-637.5 212.5,-637.5 "/>
<text text-anchor="middle" x="172.5" y="-623.9" font-family="Helvetica,sans-Serif" font-size="12.00" fill="#000000"> </text>
</a>
</g>
</g>
<!-- Node5&#45;&gt;Node2 -->
<g id="edge4" class="edge">
<title>Node5&#45;&gt;Node2</title>
<path fill="none" stroke="#ffa500" d="M164.5312,-606.2949C158.6857,-577.9798 149.9615,-539.8567 139.5,-507 136.8974,-498.8259 133.6391,-490.1681 130.4007,-482.151"/>
<polygon fill="#ffa500" stroke="#ffa500" points="161.1335,-607.1509 166.5525,-616.255 167.9937,-605.7587 161.1335,-607.1509"/>
<text text-anchor="middle" x="179" y="-510.4" font-family="Helvetica,sans-Serif" font-size="12.00" fill="#000000"> &lt; timer_tuple_t &gt;</text>
</g>
<!-- Node6 -->
<g id="node6" class="node">
<title>Node6</title>
<polygon fill="#ffffff" stroke="#bfbfbf" points="158,-820.5 158,-883.5 187,-883.5 187,-820.5 158,-820.5"/>
<text text-anchor="middle" x="172.5" y="-869.9" font-family="Helvetica,sans-Serif" font-size="12.00" fill="#000000">T</text>
<polyline fill="none" stroke="#bfbfbf" points="158,-862.5 187,-862.5 "/>
<text text-anchor="middle" x="172.5" y="-848.9" font-family="Helvetica,sans-Serif" font-size="12.00" fill="#000000"> </text>
<polyline fill="none" stroke="#bfbfbf" points="158,-841.5 187,-841.5 "/>
<text text-anchor="middle" x="172.5" y="-827.9" font-family="Helvetica,sans-Serif" font-size="12.00" fill="#000000"> </text>
</g>
<!-- Node6&#45;&gt;Node5 -->
<g id="edge5" class="edge">
<title>Node6&#45;&gt;Node5</title>
<path fill="none" stroke="#404040" d="M172.5,-820.125C172.5,-785.6178 172.5,-730.3568 172.5,-691.7881"/>
<polygon fill="none" stroke="#404040" points="172.5001,-691.6512 168.5,-685.6512 172.5,-679.6512 176.5,-685.6511 172.5001,-691.6512"/>
<text text-anchor="middle" x="195" y="-779.4" font-family="Helvetica,sans-Serif" font-size="12.00" fill="#000000"> +elements</text>
</g>
<!-- Node7 -->
<g id="node7" class="node">
<title>Node7</title>
<polygon fill="#ffffff" stroke="#bfbfbf" points="198,-412.5 198,-488.5 299,-488.5 299,-412.5 198,-412.5"/>
<text text-anchor="start" x="206" y="-474.9" font-family="Helvetica,sans-Serif" font-size="12.00" fill="#000000">uomap&lt; uint64_t, tim</text>
<text text-anchor="middle" x="248.5" y="-461.9" font-family="Helvetica,sans-Serif" font-size="12.00" fill="#000000">_timer_t &gt;</text>
<polyline fill="none" stroke="#bfbfbf" points="198,-454.5 299,-454.5 "/>
<text text-anchor="middle" x="248.5" y="-440.9" font-family="Helvetica,sans-Serif" font-size="12.00" fill="#000000"> </text>
<polyline fill="none" stroke="#bfbfbf" points="198,-433.5 299,-433.5 "/>
<text text-anchor="middle" x="248.5" y="-419.9" font-family="Helvetica,sans-Serif" font-size="12.00" fill="#000000"> </text>
</g>
<!-- Node7&#45;&gt;Node1 -->
<g id="edge7" class="edge">
<title>Node7&#45;&gt;Node1</title>
<path fill="none" stroke="#404040" d="M258.1514,-412.204C261.1072,-401.9421 264.6166,-390.9407 268.5,-381 276.942,-359.39 286.9063,-336.9739 297.2188,-315.3111"/>
<polygon fill="none" stroke="#404040" points="297.2646,-315.2157 296.2631,-308.0745 302.4698,-304.4034 303.4713,-311.5446 297.2646,-315.2157"/>
<text text-anchor="middle" x="299" y="-384.4" font-family="Helvetica,sans-Serif" font-size="12.00" fill="#000000"> &#45;m_timer_map</text>
</g>
<!-- Node8 -->
<g id="node8" class="node">
<title>Node8</title>
<polygon fill="#ffffff" stroke="#bfbfbf" points="317.5,-419 317.5,-482 351.5,-482 351.5,-419 317.5,-419"/>
<text text-anchor="middle" x="334.5" y="-468.4" font-family="Helvetica,sans-Serif" font-size="12.00" fill="#000000">bool</text>
<polyline fill="none" stroke="#bfbfbf" points="317.5,-461 351.5,-461 "/>
<text text-anchor="middle" x="334.5" y="-447.4" font-family="Helvetica,sans-Serif" font-size="12.00" fill="#000000"> </text>
<polyline fill="none" stroke="#bfbfbf" points="317.5,-440 351.5,-440 "/>
<text text-anchor="middle" x="334.5" y="-426.4" font-family="Helvetica,sans-Serif" font-size="12.00" fill="#000000"> </text>
</g>
<!-- Node8&#45;&gt;Node1 -->
<g id="edge8" class="edge">
<title>Node8&#45;&gt;Node1</title>
<path fill="none" stroke="#404040" d="M333.3773,-418.9689C333.2477,-407.0531 333.4523,-393.3837 334.5,-381 334.6756,-378.924 334.8614,-376.8372 335.0567,-374.7411"/>
<polygon fill="none" stroke="#404040" points="335.0722,-374.586 331.694,-368.2151 336.2755,-362.6464 339.6537,-369.0173 335.0722,-374.586"/>
<text text-anchor="middle" x="358" y="-384.4" font-family="Helvetica,sans-Serif" font-size="12.00" fill="#000000"> &#45;fgEnabled</text>
</g>
<!-- Node9 -->
<g id="node9" class="node">
<title>Node9</title>
<polygon fill="#ffffff" stroke="#bfbfbf" points="370,-419 370,-482 437,-482 437,-419 370,-419"/>
<text text-anchor="middle" x="403.5" y="-468.4" font-family="Helvetica,sans-Serif" font-size="12.00" fill="#000000">static int32_t</text>
<polyline fill="none" stroke="#bfbfbf" points="370,-461 437,-461 "/>
<text text-anchor="middle" x="403.5" y="-447.4" font-family="Helvetica,sans-Serif" font-size="12.00" fill="#000000"> </text>
<polyline fill="none" stroke="#bfbfbf" points="370,-440 437,-440 "/>
<text text-anchor="middle" x="403.5" y="-426.4" font-family="Helvetica,sans-Serif" font-size="12.00" fill="#000000"> </text>
</g>
<!-- Node9&#45;&gt;Node1 -->
<g id="edge9" class="edge">
<title>Node9&#45;&gt;Node1</title>
<path fill="none" stroke="#404040" d="M399.3821,-418.8513C397.7899,-406.6138 395.8311,-391.5588 393.679,-375.0184"/>
<polygon fill="none" stroke="#404040" points="393.6286,-374.6306 388.8878,-369.1969 392.0802,-362.7309 396.821,-368.1646 393.6286,-374.6306"/>
<text text-anchor="middle" x="423" y="-384.4" font-family="Helvetica,sans-Serif" font-size="12.00" fill="#000000"> &#45;fgMaxDepth</text>
</g>
<!-- Node10 -->
<g id="node10" class="node">
<title>Node10</title>
<polygon fill="#ffffff" stroke="#bfbfbf" points="455,-419 455,-482 518,-482 518,-419 455,-419"/>
<text text-anchor="middle" x="486.5" y="-468.4" font-family="Helvetica,sans-Serif" font-size="12.00" fill="#000000">ostream_t *</text>
<polyline fill="none" stroke="#bfbfbf" points="455,-461 518,-461 "/>
<text text-anchor="middle" x="486.5" y="-447.4" font-family="Helvetica,sans-Serif" font-size="12.00" fill="#000000"> </text>
<polyline fill="none" stroke="#bfbfbf" points="455,-440 518,-440 "/>
<text text-anchor="middle" x="486.5" y="-426.4" font-family="Helvetica,sans-Serif" font-size="12.00" fill="#000000"> </text>
</g>
<!-- Node10&#45;&gt;Node1 -->
<g id="edge10" class="edge">
<title>Node10&#45;&gt;Node1</title>
<path fill="none" stroke="#404040" d="M472.6169,-418.8513C463.9465,-399.0857 452.0517,-371.9695 439.3949,-343.1163"/>
<polygon fill="none" stroke="#404040" points="439.3325,-342.9739 433.2591,-339.0862 434.5119,-331.9847 440.5853,-335.8725 439.3325,-342.9739"/>
<text text-anchor="middle" x="481.5" y="-384.4" font-family="Helvetica,sans-Serif" font-size="12.00" fill="#000000"> &#45;m_report</text>
</g>
<!-- Node11 -->
<g id="node11" class="node">
<title>Node11</title>
<polygon fill="#ffffff" stroke="#bfbfbf" points="536.5,-419 536.5,-482 608.5,-482 608.5,-419 536.5,-419"/>
<text text-anchor="middle" x="572.5" y="-468.4" font-family="Helvetica,sans-Serif" font-size="12.00" fill="#000000">static mutex_t</text>
<polyline fill="none" stroke="#bfbfbf" points="536.5,-461 608.5,-461 "/>
<text text-anchor="middle" x="572.5" y="-447.4" font-family="Helvetica,sans-Serif" font-size="12.00" fill="#000000"> </text>
<polyline fill="none" stroke="#bfbfbf" points="536.5,-440 608.5,-440 "/>
<text text-anchor="middle" x="572.5" y="-426.4" font-family="Helvetica,sans-Serif" font-size="12.00" fill="#000000"> </text>
</g>
<!-- Node11&#45;&gt;Node1 -->
<g id="edge11" class="edge">
<title>Node11&#45;&gt;Node1</title>
<path fill="none" stroke="#404040" d="M548.4987,-418.8513C522.4311,-384.4778 479.5045,-327.8736 442.1095,-278.5636"/>
<polygon fill="none" stroke="#404040" points="441.9621,-278.3691 435.1493,-276.0053 434.7109,-268.8076 441.5237,-271.1713 441.9621,-278.3691"/>
<text text-anchor="middle" x="547.5" y="-384.4" font-family="Helvetica,sans-Serif" font-size="12.00" fill="#000000"> #f_mutex</text>
</g>
</g>
</svg>
