<?xml version="1.0" encoding="UTF-8" standalone="no"?>
<!DOCTYPE svg PUBLIC "-//W3C//DTD SVG 1.1//EN"
 "http://www.w3.org/Graphics/SVG/1.1/DTD/svg11.dtd">
<!-- Generated by graphviz version 2.40.1 (20161225.0304)
 -->
<!-- Title: NAME_TIM::util::timing_manager Pages: 1 -->
<!--zoomable 1018 -->
<svg id="main" version="1.1" xmlns="http://www.w3.org/2000/svg" xmlns:xlink="http://www.w3.org/1999/xlink" xml:space="preserve" onload="init(evt)">
<style type="text/css"><![CDATA[
.edge:hover path { stroke: red; }
.edge:hover polygon { stroke: red; fill: red; }
]]></style>
<script type="text/javascript"><![CDATA[
var edges = document.getElementsByTagName('g');
if (edges && edges.length) {
  for (var i=0;i<edges.length;i++) {
    if (edges[i].id.substr(0,4)=='edge') {
      edges[i].setAttribute('class','edge');
    }
  }
}
]]></script>
        <defs>
                <circle id="rim" cx="0" cy="0" r="7"/>
                <circle id="rim2" cx="0" cy="0" r="3.5"/>
                <g id="zoomPlus">
                        <use xlink:href="#rim" fill="#404040">
                                <set attributeName="fill" to="#808080" begin="zoomplus.mouseover" end="zoomplus.mouseout"/>
                        </use>
                        <path d="M-4,0h8M0,-4v8" fill="none" stroke="white" stroke-width="1.5" pointer-events="none"/>
                </g>
                <g id="zoomMin">
                        <use xlink:href="#rim" fill="#404040">
                                <set attributeName="fill" to="#808080" begin="zoomminus.mouseover" end="zoomminus.mouseout"/>
                        </use>
                        <path d="M-4,0h8" fill="none" stroke="white" stroke-width="1.5" pointer-events="none"/>
                </g>
                <g id="dirArrow">
                        <path fill="none" stroke="white" stroke-width="1.5" d="M0,-3.0v7 M-2.5,-0.5L0,-3.0L2.5,-0.5"/>
                </g>
               <g id="resetDef">
                       <use xlink:href="#rim2" fill="#404040">
                               <set attributeName="fill" to="#808080" begin="reset.mouseover" end="reset.mouseout"/>
                       </use>
               </g>
        </defs>

<script type="text/javascript">
var viewWidth = 838;
var viewHeight = 1018;
var sectionId = 'dynsection-0';
</script>
<script xlink:href="../../svgpan.js"/>
<svg id="graph" class="graph">
<g id="viewport">
<title>NAME_TIM::util::timing_manager</title>
<polygon fill="#ffffff" stroke="transparent" points="-4,4 -4,-1014 833.5,-1014 833.5,4 -4,4"/>
<!-- Node1 -->
<g id="node1" class="node">
<title>Node1</title>
<polygon fill="#bfbfbf" stroke="#000000" points="304.5,-113.5 304.5,-488.5 436.5,-488.5 436.5,-113.5 304.5,-113.5"/>
<text text-anchor="start" x="312.5" y="-474.9" font-family="Helvetica,sans-Serif" font-size="12.00" fill="#000000">NAME_TIM::util::timing</text>
<text text-anchor="middle" x="370.5" y="-461.9" font-family="Helvetica,sans-Serif" font-size="12.00" fill="#000000">_manager</text>
<polyline fill="none" stroke="#000000" points="304.5,-454.5 436.5,-454.5 "/>
<text text-anchor="middle" x="370.5" y="-440.9" font-family="Helvetica,sans-Serif" font-size="12.00" fill="#000000"> </text>
<polyline fill="none" stroke="#000000" points="304.5,-433.5 436.5,-433.5 "/>
<text text-anchor="start" x="312.5" y="-419.9" font-family="Helvetica,sans-Serif" font-size="12.00" fill="#000000">+ timing_manager()</text>
<text text-anchor="start" x="312.5" y="-406.9" font-family="Helvetica,sans-Serif" font-size="12.00" fill="#000000">+ ~timing_manager()</text>
<text text-anchor="start" x="312.5" y="-393.9" font-family="Helvetica,sans-Serif" font-size="12.00" fill="#000000">+ merge()</text>
<text text-anchor="start" x="312.5" y="-380.9" font-family="Helvetica,sans-Serif" font-size="12.00" fill="#000000">+ size()</text>
<text text-anchor="start" x="312.5" y="-367.9" font-family="Helvetica,sans-Serif" font-size="12.00" fill="#000000">+ clear()</text>
<text text-anchor="start" x="312.5" y="-354.9" font-family="Helvetica,sans-Serif" font-size="12.00" fill="#000000">+ timer()</text>
<text text-anchor="start" x="312.5" y="-341.9" font-family="Helvetica,sans-Serif" font-size="12.00" fill="#000000">+ at()</text>
<text text-anchor="start" x="312.5" y="-328.9" font-family="Helvetica,sans-Serif" font-size="12.00" fill="#000000">+ time()</text>
<text text-anchor="start" x="312.5" y="-315.9" font-family="Helvetica,sans-Serif" font-size="12.00" fill="#000000">+ time()</text>
<text text-anchor="start" x="312.5" y="-302.9" font-family="Helvetica,sans-Serif" font-size="12.00" fill="#000000">+ time()</text>
<text text-anchor="start" x="312.5" y="-289.9" font-family="Helvetica,sans-Serif" font-size="12.00" fill="#000000">and 28 more...</text>
<text text-anchor="start" x="312.5" y="-276.9" font-family="Helvetica,sans-Serif" font-size="12.00" fill="#000000">+ instance()</text>
<text text-anchor="start" x="312.5" y="-263.9" font-family="Helvetica,sans-Serif" font-size="12.00" fill="#000000">+ is_enabled()</text>
<text text-anchor="start" x="312.5" y="-250.9" font-family="Helvetica,sans-Serif" font-size="12.00" fill="#000000">+ enable()</text>
<text text-anchor="start" x="312.5" y="-237.9" font-family="Helvetica,sans-Serif" font-size="12.00" fill="#000000">+ write_json()</text>
<text text-anchor="start" x="312.5" y="-224.9" font-family="Helvetica,sans-Serif" font-size="12.00" fill="#000000">+ max_depth()</text>
<text text-anchor="start" x="312.5" y="-211.9" font-family="Helvetica,sans-Serif" font-size="12.00" fill="#000000"># string_hash()</text>
<text text-anchor="start" x="312.5" y="-198.9" font-family="Helvetica,sans-Serif" font-size="12.00" fill="#000000"># get_prefix()</text>
<text text-anchor="start" x="312.5" y="-185.9" font-family="Helvetica,sans-Serif" font-size="12.00" fill="#000000"># const_merge()</text>
<text text-anchor="start" x="312.5" y="-172.9" font-family="Helvetica,sans-Serif" font-size="12.00" fill="#000000"># write_json_mpi()</text>
<text text-anchor="start" x="312.5" y="-159.9" font-family="Helvetica,sans-Serif" font-size="12.00" fill="#000000"># write_json_no_mpi()</text>
<text text-anchor="start" x="312.5" y="-146.9" font-family="Helvetica,sans-Serif" font-size="12.00" fill="#000000"># get_communicator_group()</text>
<text text-anchor="start" x="312.5" y="-133.9" font-family="Helvetica,sans-Serif" font-size="12.00" fill="#000000">&#45; get_ofstream()</text>
<text text-anchor="start" x="312.5" y="-120.9" font-family="Helvetica,sans-Serif" font-size="12.00" fill="#000000">&#45; report()</text>
</g>
<!-- Node1&#45;&gt;Node1 -->
<g id="edge8" class="edge">
<title>Node1&#45;&gt;Node1</title>
<path fill="none" stroke="#404040" d="M436.7015,-337.6057C447.2676,-332.2488 454.5,-320.0469 454.5,-301 454.5,-288.5005 451.3853,-278.9489 446.2576,-272.3451"/>
<polygon fill="none" stroke="#404040" points="445.9261,-272.0693 438.7555,-271.3067 436.7015,-264.3943 443.8721,-265.1569 445.9261,-272.0693"/>
<text text-anchor="middle" x="478" y="-297.9" font-family="Helvetica,sans-Serif" font-size="12.00" fill="#000000"> &#45;f_instance</text>
</g>
<!-- Node10 -->
<g id="node10" class="node">
<title>Node10</title>
<polygon fill="#ffffff" stroke="#bfbfbf" points="269,-.5 269,-63.5 372,-63.5 372,-.5 269,-.5"/>
<text text-anchor="middle" x="320.5" y="-49.9" font-family="Helvetica,sans-Serif" font-size="12.00" fill="#000000">std::set&lt; this_type * &gt;</text>
<polyline fill="none" stroke="#bfbfbf" points="269,-42.5 372,-42.5 "/>
<text text-anchor="middle" x="320.5" y="-28.9" font-family="Helvetica,sans-Serif" font-size="12.00" fill="#000000"> </text>
<polyline fill="none" stroke="#bfbfbf" points="269,-21.5 372,-21.5 "/>
<text text-anchor="middle" x="320.5" y="-7.9" font-family="Helvetica,sans-Serif" font-size="12.00" fill="#000000"> </text>
</g>
<!-- Node1&#45;&gt;Node10 -->
<g id="edge11" class="edge">
<title>Node1&#45;&gt;Node10</title>
<path fill="none" stroke="#404040" d="M320.1413,-113.3296C319.1519,-107.1665 318.2652,-101.045 317.5,-95 316.7207,-88.8436 316.4335,-82.3255 316.4586,-75.9076"/>
<polygon fill="none" stroke="#404040" points="316.4618,-75.8045 312.6553,-69.6799 316.8448,-63.8106 320.6513,-69.9352 316.4618,-75.8045"/>
<text text-anchor="middle" x="331" y="-85.4" font-family="Helvetica,sans-Serif" font-size="12.00" fill="#000000"> +keys</text>
</g>
<!-- Node2 -->
<g id="node2" class="node">
<title>Node2</title>
<polygon fill="#ffffff" stroke="#bfbfbf" points="47,-558 47,-621 96,-621 96,-558 47,-558"/>
<text text-anchor="middle" x="71.5" y="-607.4" font-family="Helvetica,sans-Serif" font-size="12.00" fill="#000000">uint64_t</text>
<polyline fill="none" stroke="#bfbfbf" points="47,-600 96,-600 "/>
<text text-anchor="middle" x="71.5" y="-586.4" font-family="Helvetica,sans-Serif" font-size="12.00" fill="#000000"> </text>
<polyline fill="none" stroke="#bfbfbf" points="47,-579 96,-579 "/>
<text text-anchor="middle" x="71.5" y="-565.4" font-family="Helvetica,sans-Serif" font-size="12.00" fill="#000000"> </text>
</g>
<!-- Node2&#45;&gt;Node1 -->
<g id="edge1" class="edge">
<title>Node2&#45;&gt;Node1</title>
<path fill="none" stroke="#404040" d="M94.3049,-557.8403C106.2328,-542.009 121.4553,-522.8885 136.5,-507 186.1282,-454.5884 247.5517,-400.88 295.0134,-361.4489"/>
<polygon fill="none" stroke="#404040" points="295.0652,-361.4061 297.1391,-354.4997 304.312,-353.7577 302.2381,-360.6642 295.0652,-361.4061"/>
<text text-anchor="middle" x="157" y="-523.4" font-family="Helvetica,sans-Serif" font-size="12.00" fill="#000000"> &#45;m_count</text>
<text text-anchor="middle" x="157" y="-510.4" font-family="Helvetica,sans-Serif" font-size="12.00" fill="#000000">&#45;m_hash</text>
</g>
<!-- Node3 -->
<g id="node3" class="node">
<title>Node3</title>
<polygon fill="#ffffff" stroke="#bfbfbf" points="114,-558 114,-621 155,-621 155,-558 114,-558"/>
<text text-anchor="middle" x="134.5" y="-607.4" font-family="Helvetica,sans-Serif" font-size="12.00" fill="#000000">mutex</text>
<polyline fill="none" stroke="#bfbfbf" points="114,-600 155,-600 "/>
<text text-anchor="middle" x="134.5" y="-586.4" font-family="Helvetica,sans-Serif" font-size="12.00" fill="#000000"> </text>
<polyline fill="none" stroke="#bfbfbf" points="114,-579 155,-579 "/>
<text text-anchor="middle" x="134.5" y="-565.4" font-family="Helvetica,sans-Serif" font-size="12.00" fill="#000000"> </text>
</g>
<!-- Node3&#45;&gt;Node1 -->
<g id="edge2" class="edge">
<title>Node3&#45;&gt;Node1</title>
<path fill="none" stroke="#404040" d="M155.0625,-562.9159C158.2059,-558.9088 161.4266,-554.8352 164.5,-551 207.7743,-496.9993 257.0402,-437.1532 296.5405,-389.5564"/>
<polygon fill="none" stroke="#404040" points="296.6393,-389.4375 297.3952,-382.2661 304.3057,-380.2057 303.5498,-387.3771 296.6393,-389.4375"/>
<text text-anchor="middle" x="220" y="-516.9" font-family="Helvetica,sans-Serif" font-size="12.00" fill="#000000"> &#45;m_mutex</text>
</g>
<!-- Node4 -->
<g id="node4" class="node">
<title>Node4</title>
<polygon fill="#ffffff" stroke="#bfbfbf" points="173.5,-558 173.5,-621 299.5,-621 299.5,-558 173.5,-558"/>
<text text-anchor="middle" x="236.5" y="-607.4" font-family="Helvetica,sans-Serif" font-size="12.00" fill="#000000">std::deque&lt; timer_tuple_t &gt;</text>
<polyline fill="none" stroke="#bfbfbf" points="173.5,-600 299.5,-600 "/>
<text text-anchor="middle" x="236.5" y="-586.4" font-family="Helvetica,sans-Serif" font-size="12.00" fill="#000000"> </text>
<polyline fill="none" stroke="#bfbfbf" points="173.5,-579 299.5,-579 "/>
<text text-anchor="middle" x="236.5" y="-565.4" font-family="Helvetica,sans-Serif" font-size="12.00" fill="#000000"> </text>
</g>
<!-- Node4&#45;&gt;Node1 -->
<g id="edge3" class="edge">
<title>Node4&#45;&gt;Node1</title>
<path fill="none" stroke="#404040" d="M251.2237,-557.8002C263.1865,-532.0443 281.0142,-493.6615 299.2628,-454.3727"/>
<polygon fill="none" stroke="#404040" points="299.3614,-454.1603 298.2611,-447.0336 304.4164,-443.2769 305.5167,-450.4036 299.3614,-454.1603"/>
<text text-anchor="middle" x="300" y="-516.9" font-family="Helvetica,sans-Serif" font-size="12.00" fill="#000000"> &#45;m_timer_list</text>
</g>
<!-- Node5 -->
<g id="node5" class="node">
<title>Node5</title>
<g id="a_node5"><a xlink:href="../../da/de9/struct_n_a_m_e___t_i_m_1_1util_1_1timer__tuple.html" target="_top" xlink:title="{NAME_TIM::util::timer\l_tuple\n||+ timer_tuple()\l+ timer_tuple()\l+ operator=()\l+ operator==()\l+ operator!=()\l+ operator+=()\l+ operator+()\l+ key()\l+ key()\l+ level()\land 6 more...\l}">
<polygon fill="#ffffff" stroke="#000000" points="123,-677.5 123,-883.5 228,-883.5 228,-677.5 123,-677.5"/>
<text text-anchor="start" x="131" y="-869.9" font-family="Helvetica,sans-Serif" font-size="12.00" fill="#000000">NAME_TIM::util::timer</text>
<text text-anchor="middle" x="175.5" y="-856.9" font-family="Helvetica,sans-Serif" font-size="12.00" fill="#000000">_tuple</text>
<polyline fill="none" stroke="#000000" points="123,-849.5 228,-849.5 "/>
<text text-anchor="middle" x="175.5" y="-835.9" font-family="Helvetica,sans-Serif" font-size="12.00" fill="#000000"> </text>
<polyline fill="none" stroke="#000000" points="123,-828.5 228,-828.5 "/>
<text text-anchor="start" x="131" y="-814.9" font-family="Helvetica,sans-Serif" font-size="12.00" fill="#000000">+ timer_tuple()</text>
<text text-anchor="start" x="131" y="-801.9" font-family="Helvetica,sans-Serif" font-size="12.00" fill="#000000">+ timer_tuple()</text>
<text text-anchor="start" x="131" y="-788.9" font-family="Helvetica,sans-Serif" font-size="12.00" fill="#000000">+ operator=()</text>
<text text-anchor="start" x="131" y="-775.9" font-family="Helvetica,sans-Serif" font-size="12.00" fill="#000000">+ operator==()</text>
<text text-anchor="start" x="131" y="-762.9" font-family="Helvetica,sans-Serif" font-size="12.00" fill="#000000">+ operator!=()</text>
<text text-anchor="start" x="131" y="-749.9" font-family="Helvetica,sans-Serif" font-size="12.00" fill="#000000">+ operator+=()</text>
<text text-anchor="start" x="131" y="-736.9" font-family="Helvetica,sans-Serif" font-size="12.00" fill="#000000">+ operator+()</text>
<text text-anchor="start" x="131" y="-723.9" font-family="Helvetica,sans-Serif" font-size="12.00" fill="#000000">+ key()</text>
<text text-anchor="start" x="131" y="-710.9" font-family="Helvetica,sans-Serif" font-size="12.00" fill="#000000">+ key()</text>
<text text-anchor="start" x="131" y="-697.9" font-family="Helvetica,sans-Serif" font-size="12.00" fill="#000000">+ level()</text>
<text text-anchor="start" x="131" y="-684.9" font-family="Helvetica,sans-Serif" font-size="12.00" fill="#000000">and 6 more...</text>
</a>
</g>
</g>
<!-- Node5&#45;&gt;Node4 -->
<g id="edge4" class="edge">
<title>Node5&#45;&gt;Node4</title>
<path fill="none" stroke="#404040" d="M194.3307,-677.4797C197.2981,-666.7155 200.6747,-656.0456 204.5,-646 206.2827,-641.3185 208.4107,-636.5598 210.7105,-631.8918"/>
<polygon fill="none" stroke="#404040" points="210.724,-631.866 209.9744,-624.6939 216.3064,-621.2435 217.056,-628.4155 210.724,-631.866"/>
<text text-anchor="middle" x="227" y="-649.4" font-family="Helvetica,sans-Serif" font-size="12.00" fill="#000000"> +elements</text>
</g>
<!-- Node6 -->
<g id="node6" class="node">
<title>Node6</title>
<polygon fill="#ffffff" stroke="#bfbfbf" points="129.5,-933.5 129.5,-1009.5 221.5,-1009.5 221.5,-933.5 129.5,-933.5"/>
<text text-anchor="start" x="137.5" y="-995.9" font-family="Helvetica,sans-Serif" font-size="12.00" fill="#000000">details::base_timer</text>
<text text-anchor="middle" x="175.5" y="-982.9" font-family="Helvetica,sans-Serif" font-size="12.00" fill="#000000">_tuple_t</text>
<polyline fill="none" stroke="#bfbfbf" points="129.5,-975.5 221.5,-975.5 "/>
<text text-anchor="middle" x="175.5" y="-961.9" font-family="Helvetica,sans-Serif" font-size="12.00" fill="#000000"> </text>
<polyline fill="none" stroke="#bfbfbf" points="129.5,-954.5 221.5,-954.5 "/>
<text text-anchor="middle" x="175.5" y="-940.9" font-family="Helvetica,sans-Serif" font-size="12.00" fill="#000000"> </text>
</g>
<!-- Node6&#45;&gt;Node5 -->
<g id="edge5" class="edge">
<title>Node6&#45;&gt;Node5</title>
<path fill="none" stroke="#191970" d="M175.5,-922.9851C175.5,-910.8086 175.5,-897.2749 175.5,-883.5319"/>
<polygon fill="none" stroke="#191970" points="172.0001,-923.3073 175.5,-933.3074 179.0001,-923.3074 172.0001,-923.3073"/>
</g>
<!-- Node7 -->
<g id="node7" class="node">
<title>Node7</title>
<g id="a_node7"><a xlink:title="STL class. ">
<polygon fill="#ffffff" stroke="#bfbfbf" points="246.5,-749 246.5,-812 326.5,-812 326.5,-749 246.5,-749"/>
<text text-anchor="middle" x="286.5" y="-798.4" font-family="Helvetica,sans-Serif" font-size="12.00" fill="#000000">std::deque&lt; T &gt;</text>
<polyline fill="none" stroke="#bfbfbf" points="246.5,-791 326.5,-791 "/>
<text text-anchor="middle" x="286.5" y="-777.4" font-family="Helvetica,sans-Serif" font-size="12.00" fill="#000000"> </text>
<polyline fill="none" stroke="#bfbfbf" points="246.5,-770 326.5,-770 "/>
<text text-anchor="middle" x="286.5" y="-756.4" font-family="Helvetica,sans-Serif" font-size="12.00" fill="#000000"> </text>
</a>
</g>
</g>
<!-- Node7&#45;&gt;Node4 -->
<g id="edge6" class="edge">
<title>Node7&#45;&gt;Node4</title>
<path fill="none" stroke="#ffa500" d="M275.6173,-738.928C266.3403,-703.4901 253.2052,-653.3138 244.7687,-621.0866"/>
<polygon fill="#ffa500" stroke="#ffa500" points="272.3251,-740.1726 278.2435,-748.9602 279.0969,-738.3998 272.3251,-740.1726"/>
<text text-anchor="middle" x="290" y="-649.4" font-family="Helvetica,sans-Serif" font-size="12.00" fill="#000000"> &lt; timer_tuple_t &gt;</text>
</g>
<!-- Node8 -->
<g id="node8" class="node">
<title>Node8</title>
<polygon fill="#ffffff" stroke="#bfbfbf" points="272,-940 272,-1003 301,-1003 301,-940 272,-940"/>
<text text-anchor="middle" x="286.5" y="-989.4" font-family="Helvetica,sans-Serif" font-size="12.00" fill="#000000">T</text>
<polyline fill="none" stroke="#bfbfbf" points="272,-982 301,-982 "/>
<text text-anchor="middle" x="286.5" y="-968.4" font-family="Helvetica,sans-Serif" font-size="12.00" fill="#000000"> </text>
<polyline fill="none" stroke="#bfbfbf" points="272,-961 301,-961 "/>
<text text-anchor="middle" x="286.5" y="-947.4" font-family="Helvetica,sans-Serif" font-size="12.00" fill="#000000"> </text>
</g>
<!-- Node8&#45;&gt;Node7 -->
<g id="edge7" class="edge">
<title>Node8&#45;&gt;Node7</title>
<path fill="none" stroke="#404040" d="M286.5,-939.9602C286.5,-908.4417 286.5,-859.7209 286.5,-824.4259"/>
<polygon fill="none" stroke="#404040" points="286.5001,-824.0866 282.5,-818.0867 286.5,-812.0866 290.5,-818.0866 286.5001,-824.0866"/>
<text text-anchor="middle" x="309" y="-905.4" font-family="Helvetica,sans-Serif" font-size="12.00" fill="#000000"> +elements</text>
</g>
<!-- Node9 -->
<g id="node9" class="node">
<title>Node9</title>
<polygon fill="#ffffff" stroke="#bfbfbf" points="317.5,-558 317.5,-621 351.5,-621 351.5,-558 317.5,-558"/>
<text text-anchor="middle" x="334.5" y="-607.4" font-family="Helvetica,sans-Serif" font-size="12.00" fill="#000000">bool</text>
<polyline fill="none" stroke="#bfbfbf" points="317.5,-600 351.5,-600 "/>
<text text-anchor="middle" x="334.5" y="-586.4" font-family="Helvetica,sans-Serif" font-size="12.00" fill="#000000"> </text>
<polyline fill="none" stroke="#bfbfbf" points="317.5,-579 351.5,-579 "/>
<text text-anchor="middle" x="334.5" y="-565.4" font-family="Helvetica,sans-Serif" font-size="12.00" fill="#000000"> </text>
</g>
<!-- Node9&#45;&gt;Node1 -->
<g id="edge9" class="edge">
<title>Node9&#45;&gt;Node1</title>
<path fill="none" stroke="#404040" d="M335.766,-557.7126C336.5458,-542.3634 337.7413,-523.6962 339.5,-507 339.7181,-504.9291 339.9422,-502.8471 340.1717,-500.7556"/>
<polygon fill="none" stroke="#404040" points="340.1885,-500.607 336.8916,-494.1937 341.5436,-488.6837 344.8404,-495.0971 340.1885,-500.607"/>
<text text-anchor="middle" x="362.5" y="-516.9" font-family="Helvetica,sans-Serif" font-size="12.00" fill="#000000"> &#45;f_enabled</text>
</g>
<!-- Node10&#45;&gt;Node1 -->
<g id="edge10" class="edge">
<title>Node10&#45;&gt;Node1</title>
<path fill="none" stroke="#404040" d="M340.7552,-63.6666C343.7943,-69.5731 346.5562,-75.8322 348.5,-82 350.4921,-88.3209 352.3152,-94.7906 353.9832,-101.3598"/>
<polygon fill="none" stroke="#404040" points="354.0421,-101.6075 359.3228,-106.5181 356.8209,-113.2813 351.5402,-108.3707 354.0421,-101.6075"/>
<text text-anchor="middle" x="381" y="-85.4" font-family="Helvetica,sans-Serif" font-size="12.00" fill="#000000"> &#45;m_daughters</text>
</g>
<!-- Node11 -->
<g id="node11" class="node">
<title>Node11</title>
<g id="a_node11"><a xlink:title="STL class. ">
<polygon fill="#ffffff" stroke="#bfbfbf" points="64,-269.5 64,-332.5 131,-332.5 131,-269.5 64,-269.5"/>
<text text-anchor="middle" x="97.5" y="-318.9" font-family="Helvetica,sans-Serif" font-size="12.00" fill="#000000">std::set&lt; K &gt;</text>
<polyline fill="none" stroke="#bfbfbf" points="64,-311.5 131,-311.5 "/>
<text text-anchor="middle" x="97.5" y="-297.9" font-family="Helvetica,sans-Serif" font-size="12.00" fill="#000000"> </text>
<polyline fill="none" stroke="#bfbfbf" points="64,-290.5 131,-290.5 "/>
<text text-anchor="middle" x="97.5" y="-276.9" font-family="Helvetica,sans-Serif" font-size="12.00" fill="#000000"> </text>
</a>
</g>
</g>
<!-- Node11&#45;&gt;Node10 -->
<g id="edge12" class="edge">
<title>Node11&#45;&gt;Node10</title>
<path fill="none" stroke="#ffa500" d="M120.4686,-260.325C147.8719,-213.944 196.8921,-137.3891 251.5,-82 257.8356,-75.5738 265.0695,-69.3712 272.414,-63.6505"/>
<polygon fill="#ffa500" stroke="#ffa500" points="117.314,-258.7858 115.2809,-269.1837 123.3545,-262.3231 117.314,-258.7858"/>
<text text-anchor="middle" x="282" y="-85.4" font-family="Helvetica,sans-Serif" font-size="12.00" fill="#000000"> &lt; this_type * &gt;</text>
</g>
<!-- Node12 -->
<g id="node12" class="node">
<title>Node12</title>
<polygon fill="#ffffff" stroke="#bfbfbf" points="0,-558 0,-621 29,-621 29,-558 0,-558"/>
<text text-anchor="middle" x="14.5" y="-607.4" font-family="Helvetica,sans-Serif" font-size="12.00" fill="#000000">K</text>
<polyline fill="none" stroke="#bfbfbf" points="0,-600 29,-600 "/>
<text text-anchor="middle" x="14.5" y="-586.4" font-family="Helvetica,sans-Serif" font-size="12.00" fill="#000000"> </text>
<polyline fill="none" stroke="#bfbfbf" points="0,-579 29,-579 "/>
<text text-anchor="middle" x="14.5" y="-565.4" font-family="Helvetica,sans-Serif" font-size="12.00" fill="#000000"> </text>
</g>
<!-- Node12&#45;&gt;Node11 -->
<g id="edge13" class="edge">
<title>Node12&#45;&gt;Node11</title>
<path fill="none" stroke="#404040" d="M15.6953,-557.8624C16.7531,-542.3822 18.7461,-523.5602 22.5,-507 35.6619,-448.9364 60.7418,-384.9167 78.2606,-343.8991"/>
<polygon fill="none" stroke="#404040" points="78.3363,-343.7237 77.0448,-336.6292 83.0969,-332.7084 84.3884,-339.8029 78.3363,-343.7237"/>
<text text-anchor="middle" x="36" y="-516.9" font-family="Helvetica,sans-Serif" font-size="12.00" fill="#000000"> +keys</text>
</g>
<!-- Node13 -->
<g id="node13" class="node">
<title>Node13</title>
<polygon fill="#ffffff" stroke="#bfbfbf" points="369.5,-558 369.5,-621 445.5,-621 445.5,-558 369.5,-558"/>
<text text-anchor="middle" x="407.5" y="-607.4" font-family="Helvetica,sans-Serif" font-size="12.00" fill="#000000">atomic&lt; bool &gt;</text>
<polyline fill="none" stroke="#bfbfbf" points="369.5,-600 445.5,-600 "/>
<text text-anchor="middle" x="407.5" y="-586.4" font-family="Helvetica,sans-Serif" font-size="12.00" fill="#000000"> </text>
<polyline fill="none" stroke="#bfbfbf" points="369.5,-579 445.5,-579 "/>
<text text-anchor="middle" x="407.5" y="-565.4" font-family="Helvetica,sans-Serif" font-size="12.00" fill="#000000"> </text>
</g>
<!-- Node13&#45;&gt;Node1 -->
<g id="edge14" class="edge">
<title>Node13&#45;&gt;Node1</title>
<path fill="none" stroke="#404040" d="M403.4345,-557.8002C401.4613,-542.4147 398.9103,-522.5235 396.1018,-500.6249"/>
<polygon fill="none" stroke="#404040" points="396.0911,-500.5404 391.3603,-495.098 394.5645,-488.6378 399.2953,-494.0802 396.0911,-500.5404"/>
<text text-anchor="middle" x="421.5" y="-516.9" font-family="Helvetica,sans-Serif" font-size="12.00" fill="#000000"> &#45;m_merge</text>
</g>
<!-- Node14 -->
<g id="node14" class="node">
<title>Node14</title>
<polygon fill="#ffffff" stroke="#bfbfbf" points="464,-558 464,-621 531,-621 531,-558 464,-558"/>
<text text-anchor="middle" x="497.5" y="-607.4" font-family="Helvetica,sans-Serif" font-size="12.00" fill="#000000">static int32_t</text>
<polyline fill="none" stroke="#bfbfbf" points="464,-600 531,-600 "/>
<text text-anchor="middle" x="497.5" y="-586.4" font-family="Helvetica,sans-Serif" font-size="12.00" fill="#000000"> </text>
<polyline fill="none" stroke="#bfbfbf" points="464,-579 531,-579 "/>
<text text-anchor="middle" x="497.5" y="-565.4" font-family="Helvetica,sans-Serif" font-size="12.00" fill="#000000"> </text>
</g>
<!-- Node14&#45;&gt;Node1 -->
<g id="edge15" class="edge">
<title>Node14&#45;&gt;Node1</title>
<path fill="none" stroke="#404040" d="M483.5455,-557.8002C472.976,-533.79 457.576,-498.8065 441.5254,-462.3452"/>
<polygon fill="none" stroke="#404040" points="441.3628,-461.9756 435.2844,-458.0957 436.528,-450.9926 442.6064,-454.8725 441.3628,-461.9756"/>
<text text-anchor="middle" x="498.5" y="-516.9" font-family="Helvetica,sans-Serif" font-size="12.00" fill="#000000"> &#45;f_max_depth</text>
</g>
<!-- Node15 -->
<g id="node15" class="node">
<title>Node15</title>
<polygon fill="#ffffff" stroke="#bfbfbf" points="549,-558 549,-621 612,-621 612,-558 549,-558"/>
<text text-anchor="middle" x="580.5" y="-607.4" font-family="Helvetica,sans-Serif" font-size="12.00" fill="#000000">ostream_t *</text>
<polyline fill="none" stroke="#bfbfbf" points="549,-600 612,-600 "/>
<text text-anchor="middle" x="580.5" y="-586.4" font-family="Helvetica,sans-Serif" font-size="12.00" fill="#000000"> </text>
<polyline fill="none" stroke="#bfbfbf" points="549,-579 612,-579 "/>
<text text-anchor="middle" x="580.5" y="-565.4" font-family="Helvetica,sans-Serif" font-size="12.00" fill="#000000"> </text>
</g>
<!-- Node15&#45;&gt;Node1 -->
<g id="edge16" class="edge">
<title>Node15&#45;&gt;Node1</title>
<path fill="none" stroke="#404040" d="M563.0328,-557.9671C554.0626,-542.3423 542.688,-523.3651 531.5,-507 504.5743,-467.615 472.6185,-425.8451 444.302,-390.288"/>
<polygon fill="none" stroke="#404040" points="444.2981,-390.283 437.427,-388.0948 436.8042,-380.9106 443.6752,-383.0988 444.2981,-390.283"/>
<text text-anchor="middle" x="567.5" y="-516.9" font-family="Helvetica,sans-Serif" font-size="12.00" fill="#000000"> &#45;m_report</text>
</g>
<!-- Node16 -->
<g id="node16" class="node">
<title>Node16</title>
<polygon fill="#ffffff" stroke="#bfbfbf" points="630,-551.5 630,-627.5 739,-627.5 739,-551.5 630,-551.5"/>
<text text-anchor="start" x="638" y="-613.9" font-family="Helvetica,sans-Serif" font-size="12.00" fill="#000000">uomap&lt; uint64_t, timer</text>
<text text-anchor="middle" x="684.5" y="-600.9" font-family="Helvetica,sans-Serif" font-size="12.00" fill="#000000">_ptr_t &gt;</text>
<polyline fill="none" stroke="#bfbfbf" points="630,-593.5 739,-593.5 "/>
<text text-anchor="middle" x="684.5" y="-579.9" font-family="Helvetica,sans-Serif" font-size="12.00" fill="#000000"> </text>
<polyline fill="none" stroke="#bfbfbf" points="630,-572.5 739,-572.5 "/>
<text text-anchor="middle" x="684.5" y="-558.9" font-family="Helvetica,sans-Serif" font-size="12.00" fill="#000000"> </text>
</g>
<!-- Node16&#45;&gt;Node1 -->
<g id="edge17" class="edge">
<title>Node16&#45;&gt;Node1</title>
<path fill="none" stroke="#404040" d="M643.1271,-551.487C592.9696,-505.4028 507.4816,-426.8573 445.5866,-369.9888"/>
<polygon fill="none" stroke="#404040" points="445.4693,-369.881 438.3447,-368.7671 436.6328,-361.7621 443.7574,-362.8761 445.4693,-369.881"/>
<text text-anchor="middle" x="647" y="-516.9" font-family="Helvetica,sans-Serif" font-size="12.00" fill="#000000"> &#45;m_timer_map</text>
</g>
<!-- Node17 -->
<g id="node17" class="node">
<title>Node17</title>
<polygon fill="#ffffff" stroke="#bfbfbf" points="757.5,-558 757.5,-621 829.5,-621 829.5,-558 757.5,-558"/>
<text text-anchor="middle" x="793.5" y="-607.4" font-family="Helvetica,sans-Serif" font-size="12.00" fill="#000000">static mutex_t</text>
<polyline fill="none" stroke="#bfbfbf" points="757.5,-600 829.5,-600 "/>
<text text-anchor="middle" x="793.5" y="-586.4" font-family="Helvetica,sans-Serif" font-size="12.00" fill="#000000"> </text>
<polyline fill="none" stroke="#bfbfbf" points="757.5,-579 829.5,-579 "/>
<text text-anchor="middle" x="793.5" y="-565.4" font-family="Helvetica,sans-Serif" font-size="12.00" fill="#000000"> </text>
</g>
<!-- Node17&#45;&gt;Node1 -->
<g id="edge18" class="edge">
<title>Node17&#45;&gt;Node1</title>
<path fill="none" stroke="#404040" d="M757.4675,-558.0069C754.4697,-555.5912 751.4555,-553.2283 748.5,-551 647.8464,-475.1128 525.1262,-396.2936 447.3828,-347.9352"/>
<polygon fill="none" stroke="#404040" points="446.9147,-347.6447 439.7074,-347.8798 436.7184,-341.3173 443.9257,-341.0822 446.9147,-347.6447"/>
<text text-anchor="middle" x="738.5" y="-516.9" font-family="Helvetica,sans-Serif" font-size="12.00" fill="#000000"> #f_mutex</text>
</g>
</g>
</svg>
        <g id="navigator" transform="translate(0 0)" fill="#404254">
                <rect fill="#f2f5e9" fill-opacity="0.5" stroke="#606060" stroke-width=".5" x="0" y="0" width="60" height="60"/>
                <use id="zoomplus" xlink:href="#zoomPlus" x="17" y="9" onmousedown="handleZoom(evt,'in')"/>
                <use id="zoomminus" xlink:href="#zoomMin" x="42" y="9" onmousedown="handleZoom(evt,'out')"/>
                <use id="reset" xlink:href="#resetDef" x="30" y="36" onmousedown="handleReset()"/>
                <g id="arrowUp" xlink:href="#dirArrow" transform="translate(30 24)" onmousedown="handlePan(0,-1)">
                  <use xlink:href="#rim" fill="#404040">
                        <set attributeName="fill" to="#808080" begin="arrowUp.mouseover" end="arrowUp.mouseout"/>
                  </use>
                  <path fill="none" stroke="white" stroke-width="1.5" d="M0,-3.0v7 M-2.5,-0.5L0,-3.0L2.5,-0.5"/>
                </g>
                <g id="arrowRight" xlink:href="#dirArrow" transform="rotate(90) translate(36 -43)" onmousedown="handlePan(1,0)">
                  <use xlink:href="#rim" fill="#404040">
                        <set attributeName="fill" to="#808080" begin="arrowRight.mouseover" end="arrowRight.mouseout"/>
                  </use>
                  <path fill="none" stroke="white" stroke-width="1.5" d="M0,-3.0v7 M-2.5,-0.5L0,-3.0L2.5,-0.5"/>
                </g>
                <g id="arrowDown" xlink:href="#dirArrow" transform="rotate(180) translate(-30 -48)" onmousedown="handlePan(0,1)">
                  <use xlink:href="#rim" fill="#404040">
                        <set attributeName="fill" to="#808080" begin="arrowDown.mouseover" end="arrowDown.mouseout"/>
                  </use>
                  <path fill="none" stroke="white" stroke-width="1.5" d="M0,-3.0v7 M-2.5,-0.5L0,-3.0L2.5,-0.5"/>
                </g>
                <g id="arrowLeft" xlink:href="#dirArrow" transform="rotate(270) translate(-36 17)" onmousedown="handlePan(-1,0)">
                  <use xlink:href="#rim" fill="#404040">
                        <set attributeName="fill" to="#808080" begin="arrowLeft.mouseover" end="arrowLeft.mouseout"/>
                  </use>
                  <path fill="none" stroke="white" stroke-width="1.5" d="M0,-3.0v7 M-2.5,-0.5L0,-3.0L2.5,-0.5"/>
                </g>
        </g>
        <svg viewBox="0 0 15 15" width="100%" height="30px" preserveAspectRatio="xMaxYMin meet">
         <g id="arrow_out" transform="scale(0.3 0.3)">
          <a xlink:href="class_n_a_m_e___t_i_m_1_1util_1_1timing__manager__coll__graph_org.svg" target="_base">
           <rect id="button" ry="5" rx="5" y="6" x="6" height="38" width="38"
                fill="#f2f5e9" fill-opacity="0.5" stroke="#606060" stroke-width="1.0"/>
           <path id="arrow"
             d="M 11.500037,31.436501 C 11.940474,20.09759 22.043105,11.32322 32.158766,21.979434 L 37.068811,17.246167 C 37.068811,17.246167 37.088388,32 37.088388,32 L 22.160133,31.978069 C 22.160133,31.978069 26.997745,27.140456 26.997745,27.140456 C 18.528582,18.264221 13.291696,25.230495 11.500037,31.436501 z"
             style="fill:#404040;"/>
          </a>
         </g>
        </svg>
</svg>
