<?xml version="1.0" encoding="UTF-8" standalone="no"?>
<!DOCTYPE svg PUBLIC "-//W3C//DTD SVG 1.1//EN"
 "http://www.w3.org/Graphics/SVG/1.1/DTD/svg11.dtd">
<!-- Generated by graphviz version 2.40.1 (20161225.0304)
 -->
<!-- Title: timemory/manager.hpp Pages: 1 -->
<svg width="688pt" height="159pt"
 viewBox="0.00 0.00 688.00 159.00" xmlns="http://www.w3.org/2000/svg" xmlns:xlink="http://www.w3.org/1999/xlink">
<g id="graph0" class="graph" transform="scale(1 1) rotate(0) translate(4 155)">
<title>timemory/manager.hpp</title>
<polygon fill="#ffffff" stroke="transparent" points="-4,4 -4,-155 684,-155 684,4 -4,4"/>
<!-- Node51 -->
<g id="node1" class="node">
<title>Node51</title>
<polygon fill="#bfbfbf" stroke="#000000" points="202,-129.5 202,-150.5 311,-150.5 311,-129.5 202,-129.5"/>
<text text-anchor="middle" x="256.5" y="-136.9" font-family="Helvetica,sans-Serif" font-size="12.00" fill="#000000">timemory/manager.hpp</text>
</g>
<!-- Node52 -->
<g id="node2" class="node">
<title>Node52</title>
<g id="a_node2"><a xlink:href="../../d8/d07/auto__timer_8hpp.html" target="_top" xlink:title="timemory/auto_timer.hpp">
<polygon fill="#ffffff" stroke="#000000" points="198.5,-71.5 198.5,-92.5 314.5,-92.5 314.5,-71.5 198.5,-71.5"/>
<text text-anchor="middle" x="256.5" y="-78.9" font-family="Helvetica,sans-Serif" font-size="12.00" fill="#000000">timemory/auto_timer.hpp</text>
</a>
</g>
</g>
<!-- Node51&#45;&gt;Node52 -->
<g id="edge1" class="edge">
<title>Node51&#45;&gt;Node52</title>
<path fill="none" stroke="#191970" d="M256.5,-119.1906C256.5,-110.1684 256.5,-99.9941 256.5,-92.5707"/>
<polygon fill="#191970" stroke="#191970" points="253.0001,-119.3619 256.5,-129.3619 260.0001,-119.3619 253.0001,-119.3619"/>
</g>
<!-- Node54 -->
<g id="node4" class="node">
<title>Node54</title>
<g id="a_node4"><a xlink:href="../../d0/db0/manager_8cpp.html" target="_top" xlink:title="manager.cpp">
<polygon fill="#ffffff" stroke="#000000" points="0,-7 0,-28 69,-28 69,-7 0,-7"/>
<text text-anchor="middle" x="34.5" y="-14.4" font-family="Helvetica,sans-Serif" font-size="12.00" fill="#000000">manager.cpp</text>
</a>
</g>
</g>
<!-- Node51&#45;&gt;Node54 -->
<g id="edge8" class="edge">
<title>Node51&#45;&gt;Node54</title>
<path fill="none" stroke="#191970" d="M225.5007,-124.93C207.2983,-115.9333 183.9284,-104.1264 163.5,-93 122.936,-70.9067 76.4151,-43.0357 51.8321,-28.1028"/>
<polygon fill="#191970" stroke="#191970" points="223.9874,-128.0861 234.5054,-129.36 227.0775,-121.805 223.9874,-128.0861"/>
</g>
<!-- Node55 -->
<g id="node5" class="node">
<title>Node55</title>
<g id="a_node5"><a xlink:href="../../d2/dfd/timemory_8cc.html" target="_top" xlink:title="timemory.cc">
<polygon fill="#ffffff" stroke="#000000" points="87,-7 87,-28 152,-28 152,-7 87,-7"/>
<text text-anchor="middle" x="119.5" y="-14.4" font-family="Helvetica,sans-Serif" font-size="12.00" fill="#000000">timemory.cc</text>
</a>
</g>
</g>
<!-- Node51&#45;&gt;Node55 -->
<g id="edge9" class="edge">
<title>Node51&#45;&gt;Node55</title>
<path fill="none" stroke="#191970" d="M230.8212,-123.8445C217.9364,-115.2837 202.3738,-104.2334 189.5,-93 165.392,-71.964 140.774,-43.4331 128.1458,-28.173"/>
<polygon fill="#191970" stroke="#191970" points="228.9607,-126.8096 239.2477,-129.345 232.7871,-120.948 228.9607,-126.8096"/>
</g>
<!-- Node56 -->
<g id="node6" class="node">
<title>Node56</title>
<g id="a_node6"><a xlink:href="../../d0/d90/ex1_2test__timing_8cpp.html" target="_top" xlink:title="examples/ex1/test_timing.cpp">
<polygon fill="#ffffff" stroke="#000000" points="418,-7 418,-28 553,-28 553,-7 418,-7"/>
<text text-anchor="middle" x="485.5" y="-14.4" font-family="Helvetica,sans-Serif" font-size="12.00" fill="#000000">examples/ex1/test_timing.cpp</text>
</a>
</g>
</g>
<!-- Node51&#45;&gt;Node56 -->
<g id="edge10" class="edge">
<title>Node51&#45;&gt;Node56</title>
<path fill="none" stroke="#191970" d="M285.5242,-124.474C332.8339,-99.1664 425.3468,-49.678 465.7875,-28.0449"/>
<polygon fill="#191970" stroke="#191970" points="283.5884,-121.5401 276.4216,-129.3432 286.8902,-127.7125 283.5884,-121.5401"/>
</g>
<!-- Node57 -->
<g id="node7" class="node">
<title>Node57</title>
<g id="a_node7"><a xlink:href="../../dd/d0a/mpi__test__timing_8cpp.html" target="_top" xlink:title="examples/ex2/mpi_test\l_timing.cpp">
<polygon fill="#ffffff" stroke="#000000" points="571,-.5 571,-34.5 680,-34.5 680,-.5 571,-.5"/>
<text text-anchor="start" x="579" y="-20.9" font-family="Helvetica,sans-Serif" font-size="12.00" fill="#000000">examples/ex2/mpi_test</text>
<text text-anchor="middle" x="625.5" y="-7.9" font-family="Helvetica,sans-Serif" font-size="12.00" fill="#000000">_timing.cpp</text>
</a>
</g>
</g>
<!-- Node51&#45;&gt;Node57 -->
<g id="edge11" class="edge">
<title>Node51&#45;&gt;Node57</title>
<path fill="none" stroke="#191970" d="M297.7816,-126.2954C365.5768,-103.7889 500.3262,-59.055 574.1667,-34.5415"/>
<polygon fill="#191970" stroke="#191970" points="296.668,-122.9772 288.2801,-129.4497 298.8736,-129.6207 296.668,-122.9772"/>
</g>
<!-- Node53 -->
<g id="node3" class="node">
<title>Node53</title>
<g id="a_node3"><a xlink:href="../../d2/d80/auto__timer_8cpp.html" target="_top" xlink:title="auto_timer.cpp">
<polygon fill="#ffffff" stroke="#000000" points="170.5,-7 170.5,-28 246.5,-28 246.5,-7 170.5,-7"/>
<text text-anchor="middle" x="208.5" y="-14.4" font-family="Helvetica,sans-Serif" font-size="12.00" fill="#000000">auto_timer.cpp</text>
</a>
</g>
</g>
<!-- Node52&#45;&gt;Node53 -->
<g id="edge2" class="edge">
<title>Node52&#45;&gt;Node53</title>
<path fill="none" stroke="#191970" d="M242.3611,-63.0009C233.9686,-51.7234 223.6287,-37.8291 216.5984,-28.3823"/>
<polygon fill="#191970" stroke="#191970" points="239.7958,-65.4163 248.5738,-71.3491 245.4115,-61.2372 239.7958,-65.4163"/>
</g>
<!-- Node52&#45;&gt;Node54 -->
<g id="edge3" class="edge">
<title>Node52&#45;&gt;Node54</title>
<path fill="none" stroke="#191970" d="M199.4926,-69.0326C164.0504,-60.4791 117.7281,-48.4044 77.5,-35 71.3828,-32.9617 64.8896,-30.4883 58.8528,-28.0509"/>
<polygon fill="#191970" stroke="#191970" points="199.1144,-72.5407 209.654,-71.4606 200.7412,-65.7324 199.1144,-72.5407"/>
</g>
<!-- Node52&#45;&gt;Node55 -->
<g id="edge4" class="edge">
<title>Node52&#45;&gt;Node55</title>
<path fill="none" stroke="#191970" d="M224.958,-67.15C199.5262,-55.1766 164.3933,-38.6359 141.8068,-28.0021"/>
<polygon fill="#191970" stroke="#191970" points="223.6454,-70.4004 234.1837,-71.4934 226.6271,-64.0672 223.6454,-70.4004"/>
</g>
<!-- Node52&#45;&gt;Node56 -->
<g id="edge5" class="edge">
<title>Node52&#45;&gt;Node56</title>
<path fill="none" stroke="#191970" d="M303.4322,-68.7811C346.2559,-56.7194 408.7131,-39.1278 448.2135,-28.0021"/>
<polygon fill="#191970" stroke="#191970" points="302.479,-65.4133 293.8025,-71.4934 304.3769,-72.1511 302.479,-65.4133"/>
</g>
<!-- Node52&#45;&gt;Node57 -->
<g id="edge6" class="edge">
<title>Node52&#45;&gt;Node57</title>
<path fill="none" stroke="#191970" d="M324.7799,-73.8699C387.0737,-65.8954 481.4875,-52.4091 562.5,-35 565.2746,-34.4038 568.108,-33.7571 570.9625,-33.0755"/>
<polygon fill="#191970" stroke="#191970" points="324.163,-70.42 314.6827,-75.1502 325.0436,-77.3644 324.163,-70.42"/>
</g>
<!-- Node58 -->
<g id="node8" class="node">
<title>Node58</title>
<g id="a_node8"><a xlink:href="../../d2/dc1/ex3_2test__timing_8cpp.html" target="_top" xlink:title="examples/ex3/test_timing.cpp">
<polygon fill="#ffffff" stroke="#000000" points="265,-7 265,-28 400,-28 400,-7 265,-7"/>
<text text-anchor="middle" x="332.5" y="-14.4" font-family="Helvetica,sans-Serif" font-size="12.00" fill="#000000">examples/ex3/test_timing.cpp</text>
</a>
</g>
</g>
<!-- Node52&#45;&gt;Node58 -->
<g id="edge7" class="edge">
<title>Node52&#45;&gt;Node58</title>
<path fill="none" stroke="#191970" d="M276.9878,-64.6123C290.6836,-52.9889 308.2639,-38.0688 319.9315,-28.1667"/>
<polygon fill="#191970" stroke="#191970" points="274.4095,-62.2099 269.0499,-71.3491 278.939,-67.547 274.4095,-62.2099"/>
</g>
</g>
</svg>
