<?xml version="1.0" encoding="UTF-8" standalone="no"?>
<!DOCTYPE svg PUBLIC "-//W3C//DTD SVG 1.1//EN"
 "http://www.w3.org/Graphics/SVG/1.1/DTD/svg11.dtd">
<!-- Generated by graphviz version 2.40.1 (20161225.0304)
 -->
<!-- Title: timemory/manager.hpp Pages: 1 -->
<svg width="688pt" height="159pt"
 viewBox="0.00 0.00 688.00 159.00" xmlns="http://www.w3.org/2000/svg" xmlns:xlink="http://www.w3.org/1999/xlink">
<g id="graph0" class="graph" transform="scale(1 1) rotate(0) translate(4 155)">
<title>timemory/manager.hpp</title>
<polygon fill="#ffffff" stroke="transparent" points="-4,4 -4,-155 684,-155 684,4 -4,4"/>
<!-- Node49 -->
<g id="node1" class="node">
<title>Node49</title>
<polygon fill="#bfbfbf" stroke="#000000" points="321,-129.5 321,-150.5 430,-150.5 430,-129.5 321,-129.5"/>
<text text-anchor="middle" x="375.5" y="-136.9" font-family="Helvetica,sans-Serif" font-size="12.00" fill="#000000">timemory/manager.hpp</text>
</g>
<!-- Node50 -->
<g id="node2" class="node">
<title>Node50</title>
<g id="a_node2"><a xlink:href="../../d0/d90/ex1_2test__timing_8cpp.html" target="_top" xlink:title="examples/ex1/test_timing.cpp">
<polygon fill="#ffffff" stroke="#000000" points="0,-7 0,-28 135,-28 135,-7 0,-7"/>
<text text-anchor="middle" x="67.5" y="-14.4" font-family="Helvetica,sans-Serif" font-size="12.00" fill="#000000">examples/ex1/test_timing.cpp</text>
</a>
</g>
</g>
<!-- Node49&#45;&gt;Node50 -->
<g id="edge1" class="edge">
<title>Node49&#45;&gt;Node50</title>
<path fill="none" stroke="#191970" d="M339.5045,-125.6836C276.9012,-100.7846 149.3759,-50.0643 94.0719,-28.0684"/>
<polygon fill="#191970" stroke="#191970" points="338.388,-129.0062 348.9735,-129.4497 340.975,-122.5017 338.388,-129.0062"/>
</g>
<!-- Node51 -->
<g id="node3" class="node">
<title>Node51</title>
<g id="a_node3"><a xlink:href="../../dd/d0a/mpi__test__timing_8cpp.html" target="_top" xlink:title="examples/ex2/mpi_test\l_timing.cpp">
<polygon fill="#ffffff" stroke="#000000" points="153,-.5 153,-34.5 262,-34.5 262,-.5 153,-.5"/>
<text text-anchor="start" x="161" y="-20.9" font-family="Helvetica,sans-Serif" font-size="12.00" fill="#000000">examples/ex2/mpi_test</text>
<text text-anchor="middle" x="207.5" y="-7.9" font-family="Helvetica,sans-Serif" font-size="12.00" fill="#000000">_timing.cpp</text>
</a>
</g>
</g>
<!-- Node49&#45;&gt;Node51 -->
<g id="edge2" class="edge">
<title>Node49&#45;&gt;Node51</title>
<path fill="none" stroke="#191970" d="M351.9088,-123.7094C339.0161,-114.7419 322.8052,-103.3607 308.5,-93 281.3722,-73.3525 250.5941,-50.2219 230.2188,-34.7894"/>
<polygon fill="#191970" stroke="#191970" points="350.0288,-126.665 360.2401,-129.4899 354.0192,-120.9137 350.0288,-126.665"/>
</g>
<!-- Node52 -->
<g id="node4" class="node">
<title>Node52</title>
<g id="a_node4"><a xlink:href="../../d8/d07/auto__timer_8hpp.html" target="_top" xlink:title="timemory/auto_timer.hpp">
<polygon fill="#ffffff" stroke="#000000" points="317.5,-71.5 317.5,-92.5 433.5,-92.5 433.5,-71.5 317.5,-71.5"/>
<text text-anchor="middle" x="375.5" y="-78.9" font-family="Helvetica,sans-Serif" font-size="12.00" fill="#000000">timemory/auto_timer.hpp</text>
</a>
</g>
</g>
<!-- Node49&#45;&gt;Node52 -->
<g id="edge3" class="edge">
<title>Node49&#45;&gt;Node52</title>
<path fill="none" stroke="#191970" d="M375.5,-119.1906C375.5,-110.1684 375.5,-99.9941 375.5,-92.5707"/>
<polygon fill="#191970" stroke="#191970" points="372.0001,-119.3619 375.5,-129.3619 379.0001,-119.3619 372.0001,-119.3619"/>
</g>
<!-- Node55 -->
<g id="node7" class="node">
<title>Node55</title>
<g id="a_node7"><a xlink:href="../../d0/db0/manager_8cpp.html" target="_top" xlink:title="manager.cpp">
<polygon fill="#ffffff" stroke="#000000" points="528,-7 528,-28 597,-28 597,-7 528,-7"/>
<text text-anchor="middle" x="562.5" y="-14.4" font-family="Helvetica,sans-Serif" font-size="12.00" fill="#000000">manager.cpp</text>
</a>
</g>
</g>
<!-- Node49&#45;&gt;Node55 -->
<g id="edge10" class="edge">
<title>Node49&#45;&gt;Node55</title>
<path fill="none" stroke="#191970" d="M400.4227,-123.6736C439.4063,-98.1363 513.7239,-49.4522 546.4029,-28.0449"/>
<polygon fill="#191970" stroke="#191970" points="398.215,-120.9357 391.7679,-129.3432 402.0508,-126.7912 398.215,-120.9357"/>
</g>
<!-- Node56 -->
<g id="node8" class="node">
<title>Node56</title>
<g id="a_node8"><a xlink:href="../../d2/dfd/timemory_8cc.html" target="_top" xlink:title="timemory.cc">
<polygon fill="#ffffff" stroke="#000000" points="615,-7 615,-28 680,-28 680,-7 615,-7"/>
<text text-anchor="middle" x="647.5" y="-14.4" font-family="Helvetica,sans-Serif" font-size="12.00" fill="#000000">timemory.cc</text>
</a>
</g>
</g>
<!-- Node49&#45;&gt;Node56 -->
<g id="edge11" class="edge">
<title>Node49&#45;&gt;Node56</title>
<path fill="none" stroke="#191970" d="M408.5789,-125.2311C429.2589,-115.9886 456.4427,-103.8223 480.5,-93 531.8608,-69.8951 592.0324,-42.6477 624.2784,-28.0313"/>
<polygon fill="#191970" stroke="#191970" points="406.9835,-122.1104 399.2812,-129.3854 409.8391,-128.5014 406.9835,-122.1104"/>
</g>
<!-- Node52&#45;&gt;Node50 -->
<g id="edge4" class="edge">
<title>Node52&#45;&gt;Node50</title>
<path fill="none" stroke="#191970" d="M311.5397,-69.5149C264.8938,-60.2947 200.1923,-47.2674 143.5,-35 133.4426,-32.8237 122.6585,-30.3973 112.4656,-28.0609"/>
<polygon fill="#191970" stroke="#191970" points="311.0173,-72.9793 321.5057,-71.4813 312.3724,-66.1117 311.0173,-72.9793"/>
</g>
<!-- Node52&#45;&gt;Node51 -->
<g id="edge5" class="edge">
<title>Node52&#45;&gt;Node51</title>
<path fill="none" stroke="#191970" d="M338.7965,-67.9085C313.2402,-58.0967 279.0193,-44.9583 251.9216,-34.5547"/>
<polygon fill="#191970" stroke="#191970" points="337.5439,-71.1766 348.134,-71.4934 340.0529,-64.6417 337.5439,-71.1766"/>
</g>
<!-- Node53 -->
<g id="node5" class="node">
<title>Node53</title>
<g id="a_node5"><a xlink:href="../../d2/dc1/ex3_2test__timing_8cpp.html" target="_top" xlink:title="examples/ex3/test_timing.cpp">
<polygon fill="#ffffff" stroke="#000000" points="280,-7 280,-28 415,-28 415,-7 280,-7"/>
<text text-anchor="middle" x="347.5" y="-14.4" font-family="Helvetica,sans-Serif" font-size="12.00" fill="#000000">examples/ex3/test_timing.cpp</text>
</a>
</g>
</g>
<!-- Node52&#45;&gt;Node53 -->
<g id="edge6" class="edge">
<title>Node52&#45;&gt;Node53</title>
<path fill="none" stroke="#191970" d="M366.8131,-61.9892C362.0001,-50.9019 356.2032,-37.5485 352.2241,-28.3823"/>
<polygon fill="#191970" stroke="#191970" points="363.6837,-63.5699 370.8764,-71.3491 370.1048,-60.7824 363.6837,-63.5699"/>
</g>
<!-- Node54 -->
<g id="node6" class="node">
<title>Node54</title>
<g id="a_node6"><a xlink:href="../../d2/d80/auto__timer_8cpp.html" target="_top" xlink:title="auto_timer.cpp">
<polygon fill="#ffffff" stroke="#000000" points="433.5,-7 433.5,-28 509.5,-28 509.5,-7 433.5,-7"/>
<text text-anchor="middle" x="471.5" y="-14.4" font-family="Helvetica,sans-Serif" font-size="12.00" fill="#000000">auto_timer.cpp</text>
</a>
</g>
</g>
<!-- Node52&#45;&gt;Node54 -->
<g id="edge7" class="edge">
<title>Node52&#45;&gt;Node54</title>
<path fill="none" stroke="#191970" d="M399.9226,-65.5911C417.4163,-53.8375 440.4689,-38.3491 455.624,-28.1667"/>
<polygon fill="#191970" stroke="#191970" points="397.701,-62.867 391.3524,-71.3491 401.6049,-68.6774 397.701,-62.867"/>
</g>
<!-- Node52&#45;&gt;Node55 -->
<g id="edge8" class="edge">
<title>Node52&#45;&gt;Node55</title>
<path fill="none" stroke="#191970" d="M419.1498,-68.4151C447.5922,-59.3762 485.4275,-46.9993 518.5,-35 524.3733,-32.8691 530.6372,-30.461 536.5422,-28.1282"/>
<polygon fill="#191970" stroke="#191970" points="417.9827,-65.1133 409.5044,-71.4669 420.0944,-71.7872 417.9827,-65.1133"/>
</g>
<!-- Node52&#45;&gt;Node56 -->
<g id="edge9" class="edge">
<title>Node52&#45;&gt;Node56</title>
<path fill="none" stroke="#191970" d="M443.7147,-71.8585C490.1975,-64.0426 552.8073,-51.731 606.5,-35 612.5589,-33.112 618.9429,-30.638 624.8222,-28.1471"/>
<polygon fill="#191970" stroke="#191970" points="443.0478,-68.4212 433.753,-73.5063 444.1902,-75.3273 443.0478,-68.4212"/>
</g>
</g>
</svg>
