<?xml version="1.0" encoding="UTF-8" standalone="no"?>
<!DOCTYPE svg PUBLIC "-//W3C//DTD SVG 1.1//EN"
 "http://www.w3.org/Graphics/SVG/1.1/DTD/svg11.dtd">
<!-- Generated by graphviz version 2.40.1 (20161225.0304)
 -->
<!-- Title: NAME_TIM::timer Pages: 1 -->
<svg width="1162pt" height="1586pt"
 viewBox="0.00 0.00 1161.50 1586.00" xmlns="http://www.w3.org/2000/svg" xmlns:xlink="http://www.w3.org/1999/xlink">
<g id="graph0" class="graph" transform="scale(1 1) rotate(0) translate(4 1582)">
<title>NAME_TIM::timer</title>
<polygon fill="#ffffff" stroke="transparent" points="-4,4 -4,-1582 1157.5,-1582 1157.5,4 -4,4"/>
<!-- Node2 -->
<g id="node1" class="node">
<title>Node2</title>
<polygon fill="#bfbfbf" stroke="#000000" points="762,-.5 762,-245.5 881,-245.5 881,-.5 762,-.5"/>
<text text-anchor="middle" x="821.5" y="-231.9" font-family="Helvetica,sans-Serif" font-size="12.00" fill="#000000">NAME_TIM::timer</text>
<polyline fill="none" stroke="#000000" points="762,-224.5 881,-224.5 "/>
<text text-anchor="middle" x="821.5" y="-210.9" font-family="Helvetica,sans-Serif" font-size="12.00" fill="#000000"> </text>
<polyline fill="none" stroke="#000000" points="762,-203.5 881,-203.5 "/>
<text text-anchor="start" x="770" y="-189.9" font-family="Helvetica,sans-Serif" font-size="12.00" fill="#000000">+ timer()</text>
<text text-anchor="start" x="770" y="-176.9" font-family="Helvetica,sans-Serif" font-size="12.00" fill="#000000">+ timer()</text>
<text text-anchor="start" x="770" y="-163.9" font-family="Helvetica,sans-Serif" font-size="12.00" fill="#000000">+ ~timer()</text>
<text text-anchor="start" x="770" y="-150.9" font-family="Helvetica,sans-Serif" font-size="12.00" fill="#000000">+ stop_and_return()</text>
<text text-anchor="start" x="770" y="-137.9" font-family="Helvetica,sans-Serif" font-size="12.00" fill="#000000">+ begin()</text>
<text text-anchor="start" x="770" y="-124.9" font-family="Helvetica,sans-Serif" font-size="12.00" fill="#000000">+ close()</text>
<text text-anchor="start" x="770" y="-111.9" font-family="Helvetica,sans-Serif" font-size="12.00" fill="#000000">+ as_string()</text>
<text text-anchor="start" x="770" y="-98.9" font-family="Helvetica,sans-Serif" font-size="12.00" fill="#000000">+ print()</text>
<text text-anchor="start" x="770" y="-85.9" font-family="Helvetica,sans-Serif" font-size="12.00" fill="#000000">+ clone()</text>
<text text-anchor="start" x="770" y="-72.9" font-family="Helvetica,sans-Serif" font-size="12.00" fill="#000000">+ clone_to_unique_ptr()</text>
<text text-anchor="start" x="770" y="-59.9" font-family="Helvetica,sans-Serif" font-size="12.00" fill="#000000">and 7 more...</text>
<text text-anchor="start" x="770" y="-46.9" font-family="Helvetica,sans-Serif" font-size="12.00" fill="#000000">+ propose_output_width()</text>
<text text-anchor="start" x="770" y="-33.9" font-family="Helvetica,sans-Serif" font-size="12.00" fill="#000000">+ set_default_format()</text>
<text text-anchor="start" x="770" y="-20.9" font-family="Helvetica,sans-Serif" font-size="12.00" fill="#000000"># compose()</text>
<text text-anchor="start" x="770" y="-7.9" font-family="Helvetica,sans-Serif" font-size="12.00" fill="#000000"># set_parent()</text>
</g>
<!-- Node2&#45;&gt;Node2 -->
<g id="edge28" class="edge">
<title>Node2&#45;&gt;Node2</title>
<path fill="none" stroke="#404040" d="M881.29,-148.6641C891.7344,-145.2422 899,-136.6875 899,-123 899,-114.6592 896.302,-108.2244 891.8308,-103.6956"/>
<polygon fill="none" stroke="#404040" points="891.5648,-103.5351 884.361,-103.8605 881.29,-97.3359 888.4938,-97.0106 891.5648,-103.5351"/>
<text text-anchor="middle" x="922" y="-119.9" font-family="Helvetica,sans-Serif" font-size="12.00" fill="#000000"> #m_parent</text>
</g>
<!-- Node3 -->
<g id="node2" class="node">
<title>Node3</title>
<g id="a_node2"><a xlink:href="../../dd/dea/class_n_a_m_e___t_i_m_1_1internal_1_1base__timer.html" target="_top" xlink:title="{NAME_TIM::internal\l::base_timer\n||+ base_timer()\l+ ~base_timer()\l+ base_timer()\l+ operator=()\l+ start()\l+ stop()\l+ is_valid()\l+ real_elapsed()\l+ system_elapsed()\l+ user_elapsed()\land 12 more...\l# parse_format()\l# compose()\l# m_timer()\l# get_accum()\l# get_accum()\l}">
<polygon fill="#ffffff" stroke="#000000" points="525.5,-295.5 525.5,-566.5 623.5,-566.5 623.5,-295.5 525.5,-295.5"/>
<text text-anchor="start" x="533.5" y="-552.9" font-family="Helvetica,sans-Serif" font-size="12.00" fill="#000000">NAME_TIM::internal</text>
<text text-anchor="middle" x="574.5" y="-539.9" font-family="Helvetica,sans-Serif" font-size="12.00" fill="#000000">::base_timer</text>
<polyline fill="none" stroke="#000000" points="525.5,-532.5 623.5,-532.5 "/>
<text text-anchor="middle" x="574.5" y="-518.9" font-family="Helvetica,sans-Serif" font-size="12.00" fill="#000000"> </text>
<polyline fill="none" stroke="#000000" points="525.5,-511.5 623.5,-511.5 "/>
<text text-anchor="start" x="533.5" y="-497.9" font-family="Helvetica,sans-Serif" font-size="12.00" fill="#000000">+ base_timer()</text>
<text text-anchor="start" x="533.5" y="-484.9" font-family="Helvetica,sans-Serif" font-size="12.00" fill="#000000">+ ~base_timer()</text>
<text text-anchor="start" x="533.5" y="-471.9" font-family="Helvetica,sans-Serif" font-size="12.00" fill="#000000">+ base_timer()</text>
<text text-anchor="start" x="533.5" y="-458.9" font-family="Helvetica,sans-Serif" font-size="12.00" fill="#000000">+ operator=()</text>
<text text-anchor="start" x="533.5" y="-445.9" font-family="Helvetica,sans-Serif" font-size="12.00" fill="#000000">+ start()</text>
<text text-anchor="start" x="533.5" y="-432.9" font-family="Helvetica,sans-Serif" font-size="12.00" fill="#000000">+ stop()</text>
<text text-anchor="start" x="533.5" y="-419.9" font-family="Helvetica,sans-Serif" font-size="12.00" fill="#000000">+ is_valid()</text>
<text text-anchor="start" x="533.5" y="-406.9" font-family="Helvetica,sans-Serif" font-size="12.00" fill="#000000">+ real_elapsed()</text>
<text text-anchor="start" x="533.5" y="-393.9" font-family="Helvetica,sans-Serif" font-size="12.00" fill="#000000">+ system_elapsed()</text>
<text text-anchor="start" x="533.5" y="-380.9" font-family="Helvetica,sans-Serif" font-size="12.00" fill="#000000">+ user_elapsed()</text>
<text text-anchor="start" x="533.5" y="-367.9" font-family="Helvetica,sans-Serif" font-size="12.00" fill="#000000">and 12 more...</text>
<text text-anchor="start" x="533.5" y="-354.9" font-family="Helvetica,sans-Serif" font-size="12.00" fill="#000000"># parse_format()</text>
<text text-anchor="start" x="533.5" y="-341.9" font-family="Helvetica,sans-Serif" font-size="12.00" fill="#000000"># compose()</text>
<text text-anchor="start" x="533.5" y="-328.9" font-family="Helvetica,sans-Serif" font-size="12.00" fill="#000000"># m_timer()</text>
<text text-anchor="start" x="533.5" y="-315.9" font-family="Helvetica,sans-Serif" font-size="12.00" fill="#000000"># get_accum()</text>
<text text-anchor="start" x="533.5" y="-302.9" font-family="Helvetica,sans-Serif" font-size="12.00" fill="#000000"># get_accum()</text>
</a>
</g>
</g>
<!-- Node3&#45;&gt;Node2 -->
<g id="edge1" class="edge">
<title>Node3&#45;&gt;Node2</title>
<path fill="none" stroke="#191970" d="M630.0146,-361.7753C669.2213,-312.886 721.7074,-247.4378 761.8137,-197.4266"/>
<polygon fill="none" stroke="#191970" points="627.1204,-359.7899 623.5946,-369.7809 632.5813,-364.1693 627.1204,-359.7899"/>
</g>
<!-- Node4 -->
<g id="node3" class="node">
<title>Node4</title>
<g id="a_node3"><a xlink:href="../../dc/d73/class_n_a_m_e___t_i_m_1_1internal_1_1base__timer__delta.html" target="_top" xlink:title="{NAME_TIM::internal\l::base_timer_delta\n||+ base_timer_delta()\l+ reset()\l+ operator+=()\l+ operator+=()\l+ operator+=()\l+ operator&#45;=()\l+ operator/=()\l+ get_sum()\l+ get_sqr()\l+ size()\l+ rss()\l+ rss()\l# compute()\l# compute_sum()\l# compute_sqr()\l# divide_sum()\l# divide_sqr()\l}">
<polygon fill="#ffffff" stroke="#000000" points="626,-616.5 626,-900.5 725,-900.5 725,-616.5 626,-616.5"/>
<text text-anchor="start" x="634" y="-886.9" font-family="Helvetica,sans-Serif" font-size="12.00" fill="#000000">NAME_TIM::internal</text>
<text text-anchor="middle" x="675.5" y="-873.9" font-family="Helvetica,sans-Serif" font-size="12.00" fill="#000000">::base_timer_delta</text>
<polyline fill="none" stroke="#000000" points="626,-866.5 725,-866.5 "/>
<text text-anchor="middle" x="675.5" y="-852.9" font-family="Helvetica,sans-Serif" font-size="12.00" fill="#000000"> </text>
<polyline fill="none" stroke="#000000" points="626,-845.5 725,-845.5 "/>
<text text-anchor="start" x="634" y="-831.9" font-family="Helvetica,sans-Serif" font-size="12.00" fill="#000000">+ base_timer_delta()</text>
<text text-anchor="start" x="634" y="-818.9" font-family="Helvetica,sans-Serif" font-size="12.00" fill="#000000">+ reset()</text>
<text text-anchor="start" x="634" y="-805.9" font-family="Helvetica,sans-Serif" font-size="12.00" fill="#000000">+ operator+=()</text>
<text text-anchor="start" x="634" y="-792.9" font-family="Helvetica,sans-Serif" font-size="12.00" fill="#000000">+ operator+=()</text>
<text text-anchor="start" x="634" y="-779.9" font-family="Helvetica,sans-Serif" font-size="12.00" fill="#000000">+ operator+=()</text>
<text text-anchor="start" x="634" y="-766.9" font-family="Helvetica,sans-Serif" font-size="12.00" fill="#000000">+ operator&#45;=()</text>
<text text-anchor="start" x="634" y="-753.9" font-family="Helvetica,sans-Serif" font-size="12.00" fill="#000000">+ operator/=()</text>
<text text-anchor="start" x="634" y="-740.9" font-family="Helvetica,sans-Serif" font-size="12.00" fill="#000000">+ get_sum()</text>
<text text-anchor="start" x="634" y="-727.9" font-family="Helvetica,sans-Serif" font-size="12.00" fill="#000000">+ get_sqr()</text>
<text text-anchor="start" x="634" y="-714.9" font-family="Helvetica,sans-Serif" font-size="12.00" fill="#000000">+ size()</text>
<text text-anchor="start" x="634" y="-701.9" font-family="Helvetica,sans-Serif" font-size="12.00" fill="#000000">+ rss()</text>
<text text-anchor="start" x="634" y="-688.9" font-family="Helvetica,sans-Serif" font-size="12.00" fill="#000000">+ rss()</text>
<text text-anchor="start" x="634" y="-675.9" font-family="Helvetica,sans-Serif" font-size="12.00" fill="#000000"># compute()</text>
<text text-anchor="start" x="634" y="-662.9" font-family="Helvetica,sans-Serif" font-size="12.00" fill="#000000"># compute_sum()</text>
<text text-anchor="start" x="634" y="-649.9" font-family="Helvetica,sans-Serif" font-size="12.00" fill="#000000"># compute_sqr()</text>
<text text-anchor="start" x="634" y="-636.9" font-family="Helvetica,sans-Serif" font-size="12.00" fill="#000000"># divide_sum()</text>
<text text-anchor="start" x="634" y="-623.9" font-family="Helvetica,sans-Serif" font-size="12.00" fill="#000000"># divide_sqr()</text>
</a>
</g>
</g>
<!-- Node4&#45;&gt;Node3 -->
<g id="edge2" class="edge">
<title>Node4&#45;&gt;Node3</title>
<path fill="none" stroke="#404040" d="M631.6406,-616.2825C627.7481,-603.6608 623.802,-590.8654 619.8971,-578.2034"/>
<polygon fill="none" stroke="#404040" points="619.8617,-578.0883 614.2711,-573.5336 616.3252,-566.6212 621.9158,-571.1759 619.8617,-578.0883"/>
<text text-anchor="middle" x="649" y="-588.4" font-family="Helvetica,sans-Serif" font-size="12.00" fill="#000000"> #m_accum</text>
</g>
<!-- Node5 -->
<g id="node4" class="node">
<title>Node5</title>
<polygon fill="#ffffff" stroke="#bfbfbf" points="805,-1022 805,-1085 854,-1085 854,-1022 805,-1022"/>
<text text-anchor="middle" x="829.5" y="-1071.4" font-family="Helvetica,sans-Serif" font-size="12.00" fill="#000000">uint64_t</text>
<polyline fill="none" stroke="#bfbfbf" points="805,-1064 854,-1064 "/>
<text text-anchor="middle" x="829.5" y="-1050.4" font-family="Helvetica,sans-Serif" font-size="12.00" fill="#000000"> </text>
<polyline fill="none" stroke="#bfbfbf" points="805,-1043 854,-1043 "/>
<text text-anchor="middle" x="829.5" y="-1029.4" font-family="Helvetica,sans-Serif" font-size="12.00" fill="#000000"> </text>
</g>
<!-- Node5&#45;&gt;Node2 -->
<g id="edge27" class="edge">
<title>Node5&#45;&gt;Node2</title>
<path fill="none" stroke="#404040" d="M828.4695,-1021.7516C826.1201,-947.5892 820.4218,-757.183 818.5,-598 817.1133,-483.1381 818.1238,-352.6444 819.3334,-257.5355"/>
<polygon fill="none" stroke="#404040" points="819.3333,-257.5293 815.4118,-251.4777 819.4895,-245.5303 823.4111,-251.5818 819.3333,-257.5293"/>
<text text-anchor="middle" x="851" y="-588.4" font-family="Helvetica,sans-Serif" font-size="12.00" fill="#000000"> &#45;f_output_width</text>
</g>
<!-- Node5&#45;&gt;Node4 -->
<g id="edge3" class="edge">
<title>Node5&#45;&gt;Node4</title>
<path fill="none" stroke="#404040" d="M821.8671,-1021.8759C816.4534,-1003.5783 807.9171,-980.7369 795.5,-963 788.4501,-952.9297 783.2599,-953.6241 774.5,-945 763.5058,-934.1763 762.0707,-930.2377 751.5,-919 743.7483,-910.7592 739.7566,-910.4263 733.5,-901 732.8699,-900.0507 732.2447,-899.0935 731.6245,-898.1289"/>
<polygon fill="none" stroke="#404040" points="731.4125,-897.7811 724.8742,-894.7397 725.1669,-887.5345 731.7053,-890.5759 731.4125,-897.7811"/>
<text text-anchor="middle" x="791" y="-928.9" font-family="Helvetica,sans-Serif" font-size="12.00" fill="#000000"> #m_lap</text>
</g>
<!-- Node6 -->
<g id="node5" class="node">
<title>Node6</title>
<g id="a_node5"><a xlink:href="../../d5/d6c/class_n_a_m_e___t_i_m_1_1internal_1_1base__rss__usage.html" target="_top" xlink:title="{NAME_TIM::internal\l::base_rss_usage\n||+ init()\l+ record()\l+ total()\l+ self()\l+ total()\l+ self()\l+ max()\l+ operator+=()\l+ operator&#45;=()\l}">
<polygon fill="#ffffff" stroke="#000000" points="570.5,-963.5 570.5,-1143.5 668.5,-1143.5 668.5,-963.5 570.5,-963.5"/>
<text text-anchor="start" x="578.5" y="-1129.9" font-family="Helvetica,sans-Serif" font-size="12.00" fill="#000000">NAME_TIM::internal</text>
<text text-anchor="middle" x="619.5" y="-1116.9" font-family="Helvetica,sans-Serif" font-size="12.00" fill="#000000">::base_rss_usage</text>
<polyline fill="none" stroke="#000000" points="570.5,-1109.5 668.5,-1109.5 "/>
<text text-anchor="middle" x="619.5" y="-1095.9" font-family="Helvetica,sans-Serif" font-size="12.00" fill="#000000"> </text>
<polyline fill="none" stroke="#000000" points="570.5,-1088.5 668.5,-1088.5 "/>
<text text-anchor="start" x="578.5" y="-1074.9" font-family="Helvetica,sans-Serif" font-size="12.00" fill="#000000">+ init()</text>
<text text-anchor="start" x="578.5" y="-1061.9" font-family="Helvetica,sans-Serif" font-size="12.00" fill="#000000">+ record()</text>
<text text-anchor="start" x="578.5" y="-1048.9" font-family="Helvetica,sans-Serif" font-size="12.00" fill="#000000">+ total()</text>
<text text-anchor="start" x="578.5" y="-1035.9" font-family="Helvetica,sans-Serif" font-size="12.00" fill="#000000">+ self()</text>
<text text-anchor="start" x="578.5" y="-1022.9" font-family="Helvetica,sans-Serif" font-size="12.00" fill="#000000">+ total()</text>
<text text-anchor="start" x="578.5" y="-1009.9" font-family="Helvetica,sans-Serif" font-size="12.00" fill="#000000">+ self()</text>
<text text-anchor="start" x="578.5" y="-996.9" font-family="Helvetica,sans-Serif" font-size="12.00" fill="#000000">+ max()</text>
<text text-anchor="start" x="578.5" y="-983.9" font-family="Helvetica,sans-Serif" font-size="12.00" fill="#000000">+ operator+=()</text>
<text text-anchor="start" x="578.5" y="-970.9" font-family="Helvetica,sans-Serif" font-size="12.00" fill="#000000">+ operator&#45;=()</text>
</a>
</g>
</g>
<!-- Node6&#45;&gt;Node4 -->
<g id="edge4" class="edge">
<title>Node6&#45;&gt;Node4</title>
<path fill="none" stroke="#404040" d="M636.6061,-963.3873C639.6917,-947.1332 642.9863,-929.7775 646.3034,-912.3037"/>
<polygon fill="none" stroke="#404040" points="646.3044,-912.2978 643.4936,-905.6571 648.5425,-900.5084 651.3533,-907.1491 646.3044,-912.2978"/>
<text text-anchor="middle" x="661" y="-928.9" font-family="Helvetica,sans-Serif" font-size="12.00" fill="#000000"> #m_rss</text>
</g>
<!-- Node10 -->
<g id="node9" class="node">
<title>Node10</title>
<g id="a_node9"><a xlink:href="../../d0/d62/class_n_a_m_e___t_i_m_1_1internal_1_1base__timer__data.html" target="_top" xlink:title="{NAME_TIM::internal\l::base_timer_data\n||+ base_timer_data()\l+ start()\l+ stop()\l+ start()\l+ stop()\l+ running()\l+ serialize()\l+ rss_init()\l+ rss_record()\l+ rss()\l+ rss()\l}">
<polygon fill="#ffffff" stroke="#000000" points="365.5,-655.5 365.5,-861.5 463.5,-861.5 463.5,-655.5 365.5,-655.5"/>
<text text-anchor="start" x="373.5" y="-847.9" font-family="Helvetica,sans-Serif" font-size="12.00" fill="#000000">NAME_TIM::internal</text>
<text text-anchor="middle" x="414.5" y="-834.9" font-family="Helvetica,sans-Serif" font-size="12.00" fill="#000000">::base_timer_data</text>
<polyline fill="none" stroke="#000000" points="365.5,-827.5 463.5,-827.5 "/>
<text text-anchor="middle" x="414.5" y="-813.9" font-family="Helvetica,sans-Serif" font-size="12.00" fill="#000000"> </text>
<polyline fill="none" stroke="#000000" points="365.5,-806.5 463.5,-806.5 "/>
<text text-anchor="start" x="373.5" y="-792.9" font-family="Helvetica,sans-Serif" font-size="12.00" fill="#000000">+ base_timer_data()</text>
<text text-anchor="start" x="373.5" y="-779.9" font-family="Helvetica,sans-Serif" font-size="12.00" fill="#000000">+ start()</text>
<text text-anchor="start" x="373.5" y="-766.9" font-family="Helvetica,sans-Serif" font-size="12.00" fill="#000000">+ stop()</text>
<text text-anchor="start" x="373.5" y="-753.9" font-family="Helvetica,sans-Serif" font-size="12.00" fill="#000000">+ start()</text>
<text text-anchor="start" x="373.5" y="-740.9" font-family="Helvetica,sans-Serif" font-size="12.00" fill="#000000">+ stop()</text>
<text text-anchor="start" x="373.5" y="-727.9" font-family="Helvetica,sans-Serif" font-size="12.00" fill="#000000">+ running()</text>
<text text-anchor="start" x="373.5" y="-714.9" font-family="Helvetica,sans-Serif" font-size="12.00" fill="#000000">+ serialize()</text>
<text text-anchor="start" x="373.5" y="-701.9" font-family="Helvetica,sans-Serif" font-size="12.00" fill="#000000">+ rss_init()</text>
<text text-anchor="start" x="373.5" y="-688.9" font-family="Helvetica,sans-Serif" font-size="12.00" fill="#000000">+ rss_record()</text>
<text text-anchor="start" x="373.5" y="-675.9" font-family="Helvetica,sans-Serif" font-size="12.00" fill="#000000">+ rss()</text>
<text text-anchor="start" x="373.5" y="-662.9" font-family="Helvetica,sans-Serif" font-size="12.00" fill="#000000">+ rss()</text>
</a>
</g>
</g>
<!-- Node6&#45;&gt;Node10 -->
<g id="edge9" class="edge">
<title>Node6&#45;&gt;Node10</title>
<path fill="none" stroke="#404040" d="M570.2162,-972.7466C567.3854,-969.3606 564.476,-966.0929 561.5,-963 528.0751,-928.2621 502.6035,-938.6527 472.5,-901 465.5057,-892.2517 459.2465,-882.5459 453.6694,-872.431"/>
<polygon fill="none" stroke="#404040" points="453.6549,-872.4032 447.3324,-868.9351 448.102,-861.7652 454.4244,-865.2332 453.6549,-872.4032"/>
<text text-anchor="middle" x="556" y="-928.9" font-family="Helvetica,sans-Serif" font-size="12.00" fill="#000000"> #m_rss</text>
</g>
<!-- Node7 -->
<g id="node6" class="node">
<title>Node7</title>
<g id="a_node6"><a xlink:href="../../df/d64/struct_n_a_m_e___t_i_m_1_1rss_1_1usage.html" target="_top" xlink:title="{NAME_TIM::rss::usage\n||+ usage()\l+ usage()\l+ usage()\l+ operator=()\l+ record()\l+ record()\l+ operator()()\l+ operator+=()\l+ operator&#45;=()\l+ current()\l+ peak()\l+ serialize()\l+ max()\l+ min()\l}">
<polygon fill="#ffffff" stroke="#000000" points="572.5,-1219.5 572.5,-1451.5 682.5,-1451.5 682.5,-1219.5 572.5,-1219.5"/>
<text text-anchor="middle" x="627.5" y="-1437.9" font-family="Helvetica,sans-Serif" font-size="12.00" fill="#000000">NAME_TIM::rss::usage</text>
<polyline fill="none" stroke="#000000" points="572.5,-1430.5 682.5,-1430.5 "/>
<text text-anchor="middle" x="627.5" y="-1416.9" font-family="Helvetica,sans-Serif" font-size="12.00" fill="#000000"> </text>
<polyline fill="none" stroke="#000000" points="572.5,-1409.5 682.5,-1409.5 "/>
<text text-anchor="start" x="580.5" y="-1395.9" font-family="Helvetica,sans-Serif" font-size="12.00" fill="#000000">+ usage()</text>
<text text-anchor="start" x="580.5" y="-1382.9" font-family="Helvetica,sans-Serif" font-size="12.00" fill="#000000">+ usage()</text>
<text text-anchor="start" x="580.5" y="-1369.9" font-family="Helvetica,sans-Serif" font-size="12.00" fill="#000000">+ usage()</text>
<text text-anchor="start" x="580.5" y="-1356.9" font-family="Helvetica,sans-Serif" font-size="12.00" fill="#000000">+ operator=()</text>
<text text-anchor="start" x="580.5" y="-1343.9" font-family="Helvetica,sans-Serif" font-size="12.00" fill="#000000">+ record()</text>
<text text-anchor="start" x="580.5" y="-1330.9" font-family="Helvetica,sans-Serif" font-size="12.00" fill="#000000">+ record()</text>
<text text-anchor="start" x="580.5" y="-1317.9" font-family="Helvetica,sans-Serif" font-size="12.00" fill="#000000">+ operator()()</text>
<text text-anchor="start" x="580.5" y="-1304.9" font-family="Helvetica,sans-Serif" font-size="12.00" fill="#000000">+ operator+=()</text>
<text text-anchor="start" x="580.5" y="-1291.9" font-family="Helvetica,sans-Serif" font-size="12.00" fill="#000000">+ operator&#45;=()</text>
<text text-anchor="start" x="580.5" y="-1278.9" font-family="Helvetica,sans-Serif" font-size="12.00" fill="#000000">+ current()</text>
<text text-anchor="start" x="580.5" y="-1265.9" font-family="Helvetica,sans-Serif" font-size="12.00" fill="#000000">+ peak()</text>
<text text-anchor="start" x="580.5" y="-1252.9" font-family="Helvetica,sans-Serif" font-size="12.00" fill="#000000">+ serialize()</text>
<text text-anchor="start" x="580.5" y="-1239.9" font-family="Helvetica,sans-Serif" font-size="12.00" fill="#000000">+ max()</text>
<text text-anchor="start" x="580.5" y="-1226.9" font-family="Helvetica,sans-Serif" font-size="12.00" fill="#000000">+ min()</text>
</a>
</g>
</g>
<!-- Node7&#45;&gt;Node6 -->
<g id="edge5" class="edge">
<title>Node7&#45;&gt;Node6</title>
<path fill="none" stroke="#404040" d="M624.1999,-1219.1717C623.6054,-1198.2167 622.9897,-1176.5113 622.4074,-1155.9853"/>
<polygon fill="none" stroke="#404040" points="622.3997,-1155.7094 618.2311,-1149.8252 622.0593,-1143.7142 626.2279,-1149.5983 622.3997,-1155.7094"/>
<text text-anchor="middle" x="650" y="-1191.4" font-family="Helvetica,sans-Serif" font-size="12.00" fill="#000000"> #m_rss_tmp</text>
<text text-anchor="middle" x="650" y="-1178.4" font-family="Helvetica,sans-Serif" font-size="12.00" fill="#000000">#m_rss_self</text>
<text text-anchor="middle" x="650" y="-1165.4" font-family="Helvetica,sans-Serif" font-size="12.00" fill="#000000">#m_rss_tot</text>
</g>
<!-- Node8 -->
<g id="node7" class="node">
<title>Node8</title>
<polygon fill="#ffffff" stroke="#bfbfbf" points="605.5,-1514.5 605.5,-1577.5 649.5,-1577.5 649.5,-1514.5 605.5,-1514.5"/>
<text text-anchor="middle" x="627.5" y="-1563.9" font-family="Helvetica,sans-Serif" font-size="12.00" fill="#000000">int64_t</text>
<polyline fill="none" stroke="#bfbfbf" points="605.5,-1556.5 649.5,-1556.5 "/>
<text text-anchor="middle" x="627.5" y="-1542.9" font-family="Helvetica,sans-Serif" font-size="12.00" fill="#000000"> </text>
<polyline fill="none" stroke="#bfbfbf" points="605.5,-1535.5 649.5,-1535.5 "/>
<text text-anchor="middle" x="627.5" y="-1521.9" font-family="Helvetica,sans-Serif" font-size="12.00" fill="#000000"> </text>
</g>
<!-- Node8&#45;&gt;Node7 -->
<g id="edge6" class="edge">
<title>Node8&#45;&gt;Node7</title>
<path fill="none" stroke="#404040" d="M627.5,-1514.486C627.5,-1500.3063 627.5,-1482.5382 627.5,-1463.7416"/>
<polygon fill="none" stroke="#404040" points="627.5001,-1463.5998 623.5,-1457.5998 627.5,-1451.5998 631.5,-1457.5997 627.5001,-1463.5998"/>
<text text-anchor="middle" x="655" y="-1486.4" font-family="Helvetica,sans-Serif" font-size="12.00" fill="#000000"> +m_curr_rss</text>
<text text-anchor="middle" x="655" y="-1473.4" font-family="Helvetica,sans-Serif" font-size="12.00" fill="#000000">+m_peak_rss</text>
</g>
<!-- Node9 -->
<g id="node8" class="node">
<title>Node9</title>
<polygon fill="#ffffff" stroke="#bfbfbf" points="686.5,-1015.5 686.5,-1091.5 786.5,-1091.5 786.5,-1015.5 686.5,-1015.5"/>
<text text-anchor="start" x="694.5" y="-1077.9" font-family="Helvetica,sans-Serif" font-size="12.00" fill="#000000">tuple&lt; uint_type, uint</text>
<text text-anchor="middle" x="736.5" y="-1064.9" font-family="Helvetica,sans-Serif" font-size="12.00" fill="#000000">_type, uint_type &gt;</text>
<polyline fill="none" stroke="#bfbfbf" points="686.5,-1057.5 786.5,-1057.5 "/>
<text text-anchor="middle" x="736.5" y="-1043.9" font-family="Helvetica,sans-Serif" font-size="12.00" fill="#000000"> </text>
<polyline fill="none" stroke="#bfbfbf" points="686.5,-1036.5 786.5,-1036.5 "/>
<text text-anchor="middle" x="736.5" y="-1022.9" font-family="Helvetica,sans-Serif" font-size="12.00" fill="#000000"> </text>
</g>
<!-- Node9&#45;&gt;Node4 -->
<g id="edge7" class="edge">
<title>Node9&#45;&gt;Node4</title>
<path fill="none" stroke="#404040" d="M728.3369,-1015.3535C723.9073,-994.5637 718.3592,-968.377 713.5,-945 711.3023,-934.4274 709.0465,-923.5149 706.7832,-912.5216"/>
<polygon fill="none" stroke="#404040" points="706.7434,-912.3274 701.617,-907.2559 704.3267,-900.5733 709.4531,-905.6448 706.7434,-912.3274"/>
<text text-anchor="middle" x="732.5" y="-935.4" font-family="Helvetica,sans-Serif" font-size="12.00" fill="#000000"> #m_sum</text>
<text text-anchor="middle" x="732.5" y="-922.4" font-family="Helvetica,sans-Serif" font-size="12.00" fill="#000000">#m_sqr</text>
</g>
<!-- Node10&#45;&gt;Node3 -->
<g id="edge8" class="edge">
<title>Node10&#45;&gt;Node3</title>
<path fill="none" stroke="#404040" d="M451.6545,-655.4512C461.0067,-631.9735 471.5296,-607.3657 482.5,-585 493.4024,-562.773 506.4047,-539.501 519.1516,-517.976"/>
<polygon fill="none" stroke="#404040" points="519.2202,-517.8612 518.8661,-510.6588 525.3783,-507.5618 525.7324,-514.7642 519.2202,-517.8612"/>
<text text-anchor="middle" x="501.5" y="-588.4" font-family="Helvetica,sans-Serif" font-size="12.00" fill="#000000"> #m_data</text>
</g>
<!-- Node11 -->
<g id="node10" class="node">
<title>Node11</title>
<polygon fill="#ffffff" stroke="#bfbfbf" points="347,-1015.5 347,-1091.5 442,-1091.5 442,-1015.5 347,-1015.5"/>
<text text-anchor="start" x="355" y="-1077.9" font-family="Helvetica,sans-Serif" font-size="12.00" fill="#000000">tuple&lt; time_point_t,</text>
<text text-anchor="middle" x="394.5" y="-1064.9" font-family="Helvetica,sans-Serif" font-size="12.00" fill="#000000"> time_point_t &gt;</text>
<polyline fill="none" stroke="#bfbfbf" points="347,-1057.5 442,-1057.5 "/>
<text text-anchor="middle" x="394.5" y="-1043.9" font-family="Helvetica,sans-Serif" font-size="12.00" fill="#000000"> </text>
<polyline fill="none" stroke="#bfbfbf" points="347,-1036.5 442,-1036.5 "/>
<text text-anchor="middle" x="394.5" y="-1022.9" font-family="Helvetica,sans-Serif" font-size="12.00" fill="#000000"> </text>
</g>
<!-- Node11&#45;&gt;Node10 -->
<g id="edge10" class="edge">
<title>Node11&#45;&gt;Node10</title>
<path fill="none" stroke="#404040" d="M397.0941,-1015.2363C399.5206,-979.4466 403.2704,-924.136 406.6691,-874.0055"/>
<polygon fill="none" stroke="#404040" points="406.6899,-873.6973 403.105,-867.4405 407.5017,-861.7248 411.0867,-867.9817 406.6899,-873.6973"/>
<text text-anchor="middle" x="422.5" y="-928.9" font-family="Helvetica,sans-Serif" font-size="12.00" fill="#000000"> #m_data</text>
</g>
<!-- Node12 -->
<g id="node11" class="node">
<title>Node12</title>
<polygon fill="#ffffff" stroke="#bfbfbf" points="294.5,-1022 294.5,-1085 328.5,-1085 328.5,-1022 294.5,-1022"/>
<text text-anchor="middle" x="311.5" y="-1071.4" font-family="Helvetica,sans-Serif" font-size="12.00" fill="#000000">bool</text>
<polyline fill="none" stroke="#bfbfbf" points="294.5,-1064 328.5,-1064 "/>
<text text-anchor="middle" x="311.5" y="-1050.4" font-family="Helvetica,sans-Serif" font-size="12.00" fill="#000000"> </text>
<polyline fill="none" stroke="#bfbfbf" points="294.5,-1043 328.5,-1043 "/>
<text text-anchor="middle" x="311.5" y="-1029.4" font-family="Helvetica,sans-Serif" font-size="12.00" fill="#000000"> </text>
</g>
<!-- Node12&#45;&gt;Node2 -->
<g id="edge29" class="edge">
<title>Node12&#45;&gt;Node2</title>
<path fill="none" stroke="#404040" d="M310.1485,-1021.7878C307.0544,-907.2046 312.1348,-510.0797 516.5,-295 582.6053,-225.429 683.1659,-176.2543 750.5483,-148.7769"/>
<polygon fill="none" stroke="#404040" points="750.7587,-148.6926 754.8388,-142.7467 761.8966,-144.2262 757.8164,-150.172 750.7587,-148.6926"/>
<text text-anchor="middle" x="406" y="-588.4" font-family="Helvetica,sans-Serif" font-size="12.00" fill="#000000"> #m_use_static_width</text>
</g>
<!-- Node12&#45;&gt;Node10 -->
<g id="edge11" class="edge">
<title>Node12&#45;&gt;Node10</title>
<path fill="none" stroke="#404040" d="M318.6926,-1021.8898C325.2464,-994.4045 335.6853,-953.6634 347.5,-919 352.5845,-904.0823 358.3809,-888.5757 364.3875,-873.3404"/>
<polygon fill="none" stroke="#404040" points="364.5629,-872.9012 363.0735,-865.8456 369.0135,-861.757 370.5029,-868.8126 364.5629,-872.9012"/>
<text text-anchor="middle" x="373" y="-928.9" font-family="Helvetica,sans-Serif" font-size="12.00" fill="#000000"> #m_running</text>
</g>
<!-- Node13 -->
<g id="node12" class="node">
<title>Node13</title>
<polygon fill="#ffffff" stroke="#bfbfbf" points="743,-727 743,-790 792,-790 792,-727 743,-727"/>
<text text-anchor="middle" x="767.5" y="-776.4" font-family="Helvetica,sans-Serif" font-size="12.00" fill="#000000">uint16_t</text>
<polyline fill="none" stroke="#bfbfbf" points="743,-769 792,-769 "/>
<text text-anchor="middle" x="767.5" y="-755.4" font-family="Helvetica,sans-Serif" font-size="12.00" fill="#000000"> </text>
<polyline fill="none" stroke="#bfbfbf" points="743,-748 792,-748 "/>
<text text-anchor="middle" x="767.5" y="-734.4" font-family="Helvetica,sans-Serif" font-size="12.00" fill="#000000"> </text>
</g>
<!-- Node13&#45;&gt;Node3 -->
<g id="edge12" class="edge">
<title>Node13&#45;&gt;Node3</title>
<path fill="none" stroke="#404040" d="M764.2872,-726.7192C760.2772,-696.8126 751.6009,-651.4505 733.5,-616 708.0228,-566.103 666.4179,-518.3735 632.1568,-483.8956"/>
<polygon fill="none" stroke="#404040" points="632.1363,-483.8753 625.0599,-482.488 623.6189,-475.4223 630.6953,-476.8097 632.1363,-483.8753"/>
<text text-anchor="middle" x="750" y="-588.4" font-family="Helvetica,sans-Serif" font-size="12.00" fill="#000000"> #m_precision</text>
</g>
<!-- Node14 -->
<g id="node13" class="node">
<title>Node14</title>
<polygon fill="#ffffff" stroke="#bfbfbf" points="482,-727 482,-790 523,-790 523,-727 482,-727"/>
<text text-anchor="middle" x="502.5" y="-776.4" font-family="Helvetica,sans-Serif" font-size="12.00" fill="#000000">mutex</text>
<polyline fill="none" stroke="#bfbfbf" points="482,-769 523,-769 "/>
<text text-anchor="middle" x="502.5" y="-755.4" font-family="Helvetica,sans-Serif" font-size="12.00" fill="#000000"> </text>
<polyline fill="none" stroke="#bfbfbf" points="482,-748 523,-748 "/>
<text text-anchor="middle" x="502.5" y="-734.4" font-family="Helvetica,sans-Serif" font-size="12.00" fill="#000000"> </text>
</g>
<!-- Node14&#45;&gt;Node3 -->
<g id="edge13" class="edge">
<title>Node14&#45;&gt;Node3</title>
<path fill="none" stroke="#404040" d="M505.0065,-726.8639C508.1696,-691.86 514.5627,-633.9278 525.5,-585 525.9839,-582.8352 526.4847,-580.6572 527.0008,-578.4689"/>
<polygon fill="none" stroke="#404040" points="527.0331,-578.3374 524.5816,-571.5558 529.8987,-566.6846 532.3501,-573.4662 527.0331,-578.3374"/>
<text text-anchor="middle" x="548" y="-588.4" font-family="Helvetica,sans-Serif" font-size="12.00" fill="#000000"> #m_mutex</text>
</g>
<!-- Node15 -->
<g id="node14" class="node">
<title>Node15</title>
<polygon fill="#ffffff" stroke="#bfbfbf" points="60.5,-727 60.5,-790 172.5,-790 172.5,-727 60.5,-727"/>
<text text-anchor="middle" x="116.5" y="-776.4" font-family="Helvetica,sans-Serif" font-size="12.00" fill="#000000">std::vector&lt; fieldpos_t &gt;</text>
<polyline fill="none" stroke="#bfbfbf" points="60.5,-769 172.5,-769 "/>
<text text-anchor="middle" x="116.5" y="-755.4" font-family="Helvetica,sans-Serif" font-size="12.00" fill="#000000"> </text>
<polyline fill="none" stroke="#bfbfbf" points="60.5,-748 172.5,-748 "/>
<text text-anchor="middle" x="116.5" y="-734.4" font-family="Helvetica,sans-Serif" font-size="12.00" fill="#000000"> </text>
</g>
<!-- Node15&#45;&gt;Node3 -->
<g id="edge14" class="edge">
<title>Node15&#45;&gt;Node3</title>
<path fill="none" stroke="#404040" d="M106.6082,-726.9667C96.9074,-689.3956 87.5069,-626.5044 117.5,-585 164.7554,-519.608 399.8735,-465.393 513.2094,-442.5882"/>
<polygon fill="none" stroke="#404040" points="513.3292,-442.5644 518.4328,-437.4699 525.0983,-440.2214 519.9948,-445.3159 513.3292,-442.5644"/>
<text text-anchor="middle" x="161" y="-588.4" font-family="Helvetica,sans-Serif" font-size="12.00" fill="#000000"> #m_format_positions</text>
</g>
<!-- Node16 -->
<g id="node15" class="node">
<title>Node16</title>
<polygon fill="#ffffff" stroke="#bfbfbf" points="97,-1022 97,-1085 152,-1085 152,-1022 97,-1022"/>
<text text-anchor="middle" x="124.5" y="-1071.4" font-family="Helvetica,sans-Serif" font-size="12.00" fill="#000000">fieldpos_t</text>
<polyline fill="none" stroke="#bfbfbf" points="97,-1064 152,-1064 "/>
<text text-anchor="middle" x="124.5" y="-1050.4" font-family="Helvetica,sans-Serif" font-size="12.00" fill="#000000"> </text>
<polyline fill="none" stroke="#bfbfbf" points="97,-1043 152,-1043 "/>
<text text-anchor="middle" x="124.5" y="-1029.4" font-family="Helvetica,sans-Serif" font-size="12.00" fill="#000000"> </text>
</g>
<!-- Node16&#45;&gt;Node15 -->
<g id="edge15" class="edge">
<title>Node16&#45;&gt;Node15</title>
<path fill="none" stroke="#404040" d="M123.6439,-1021.9298C122.2101,-969.0599 119.3205,-862.5076 117.6899,-802.3791"/>
<polygon fill="none" stroke="#404040" points="117.6875,-802.2846 113.5262,-796.3953 117.3621,-790.2891 121.5233,-796.1784 117.6875,-802.2846"/>
<text text-anchor="middle" x="144" y="-928.9" font-family="Helvetica,sans-Serif" font-size="12.00" fill="#000000"> +elements</text>
</g>
<!-- Node17 -->
<g id="node16" class="node">
<title>Node17</title>
<g id="a_node16"><a xlink:title="STL class. ">
<polygon fill="#ffffff" stroke="#bfbfbf" points="0,-1022 0,-1085 79,-1085 79,-1022 0,-1022"/>
<text text-anchor="middle" x="39.5" y="-1071.4" font-family="Helvetica,sans-Serif" font-size="12.00" fill="#000000">std::vector&lt; T &gt;</text>
<polyline fill="none" stroke="#bfbfbf" points="0,-1064 79,-1064 "/>
<text text-anchor="middle" x="39.5" y="-1050.4" font-family="Helvetica,sans-Serif" font-size="12.00" fill="#000000"> </text>
<polyline fill="none" stroke="#bfbfbf" points="0,-1043 79,-1043 "/>
<text text-anchor="middle" x="39.5" y="-1029.4" font-family="Helvetica,sans-Serif" font-size="12.00" fill="#000000"> </text>
</a>
</g>
</g>
<!-- Node17&#45;&gt;Node15 -->
<g id="edge16" class="edge">
<title>Node17&#45;&gt;Node15</title>
<path fill="none" stroke="#ffa500" d="M44.0417,-1011.7541C47.4367,-984.998 52.824,-949.6628 60.5,-919 71.9309,-873.3374 90.8563,-822.2706 103.5001,-790.2594"/>
<polygon fill="#ffa500" stroke="#ffa500" points="40.5378,-1011.5729 42.7944,-1021.9247 47.4858,-1012.4251 40.5378,-1011.5729"/>
<text text-anchor="middle" x="89" y="-928.9" font-family="Helvetica,sans-Serif" font-size="12.00" fill="#000000"> &lt; fieldpos_t &gt;</text>
</g>
<!-- Node18 -->
<g id="node17" class="node">
<title>Node18</title>
<polygon fill="#ffffff" stroke="#bfbfbf" points="70,-1304 70,-1367 99,-1367 99,-1304 70,-1304"/>
<text text-anchor="middle" x="84.5" y="-1353.4" font-family="Helvetica,sans-Serif" font-size="12.00" fill="#000000">T</text>
<polyline fill="none" stroke="#bfbfbf" points="70,-1346 99,-1346 "/>
<text text-anchor="middle" x="84.5" y="-1332.4" font-family="Helvetica,sans-Serif" font-size="12.00" fill="#000000"> </text>
<polyline fill="none" stroke="#bfbfbf" points="70,-1325 99,-1325 "/>
<text text-anchor="middle" x="84.5" y="-1311.4" font-family="Helvetica,sans-Serif" font-size="12.00" fill="#000000"> </text>
</g>
<!-- Node18&#45;&gt;Node17 -->
<g id="edge17" class="edge">
<title>Node18&#45;&gt;Node17</title>
<path fill="none" stroke="#404040" d="M79.4689,-1303.9719C71.4136,-1253.4917 55.6012,-1154.4009 46.4651,-1097.1479"/>
<polygon fill="none" stroke="#404040" points="46.4586,-1097.1066 41.563,-1091.8119 44.5675,-1085.2565 49.4631,-1090.5512 46.4586,-1097.1066"/>
<text text-anchor="middle" x="85" y="-1178.4" font-family="Helvetica,sans-Serif" font-size="12.00" fill="#000000"> +elements</text>
</g>
<!-- Node21 -->
<g id="node20" class="node">
<title>Node21</title>
<g id="a_node20"><a xlink:title="STL class. ">
<polygon fill="#ffffff" stroke="#bfbfbf" points="170,-1015.5 170,-1091.5 267,-1091.5 267,-1015.5 170,-1015.5"/>
<text text-anchor="start" x="178" y="-1077.9" font-family="Helvetica,sans-Serif" font-size="12.00" fill="#000000">std::unordered_map</text>
<text text-anchor="middle" x="218.5" y="-1064.9" font-family="Helvetica,sans-Serif" font-size="12.00" fill="#000000">&lt; K, T &gt;</text>
<polyline fill="none" stroke="#bfbfbf" points="170,-1057.5 267,-1057.5 "/>
<text text-anchor="middle" x="218.5" y="-1043.9" font-family="Helvetica,sans-Serif" font-size="12.00" fill="#000000"> </text>
<polyline fill="none" stroke="#bfbfbf" points="170,-1036.5 267,-1036.5 "/>
<text text-anchor="middle" x="218.5" y="-1022.9" font-family="Helvetica,sans-Serif" font-size="12.00" fill="#000000"> </text>
</a>
</g>
</g>
<!-- Node18&#45;&gt;Node21 -->
<g id="edge22" class="edge">
<title>Node18&#45;&gt;Node21</title>
<path fill="none" stroke="#404040" d="M99.0954,-1304.7842C122.1794,-1256.2045 167.3286,-1161.1892 195.0124,-1102.9292"/>
<polygon fill="none" stroke="#404040" points="195.1542,-1102.6306 194.1165,-1095.4945 200.3045,-1091.792 201.3422,-1098.928 195.1542,-1102.6306"/>
<text text-anchor="middle" x="187" y="-1178.4" font-family="Helvetica,sans-Serif" font-size="12.00" fill="#000000"> +elements</text>
</g>
<!-- Node19 -->
<g id="node18" class="node">
<title>Node19</title>
<g id="a_node18"><a xlink:title="STL class. ">
<polygon fill="#ffffff" stroke="#bfbfbf" points="928.5,-727 928.5,-790 984.5,-790 984.5,-727 928.5,-727"/>
<text text-anchor="middle" x="956.5" y="-776.4" font-family="Helvetica,sans-Serif" font-size="12.00" fill="#000000">std::string</text>
<polyline fill="none" stroke="#bfbfbf" points="928.5,-769 984.5,-769 "/>
<text text-anchor="middle" x="956.5" y="-755.4" font-family="Helvetica,sans-Serif" font-size="12.00" fill="#000000"> </text>
<polyline fill="none" stroke="#bfbfbf" points="928.5,-748 984.5,-748 "/>
<text text-anchor="middle" x="956.5" y="-734.4" font-family="Helvetica,sans-Serif" font-size="12.00" fill="#000000"> </text>
</a>
</g>
</g>
<!-- Node19&#45;&gt;Node2 -->
<g id="edge30" class="edge">
<title>Node19&#45;&gt;Node2</title>
<path fill="none" stroke="#404040" d="M964.7946,-726.6986C972.7376,-691.7956 982.4317,-634.1804 974.5,-585 956.1618,-471.2941 913.9724,-347.6877 878.5318,-256.9639"/>
<polygon fill="none" stroke="#404040" points="878.5278,-256.9535 872.6089,-252.8344 874.1347,-245.7866 880.0536,-249.9057 878.5278,-256.9535"/>
<text text-anchor="middle" x="1004.5" y="-440.9" font-family="Helvetica,sans-Serif" font-size="12.00" fill="#000000"> +default_format</text>
<text text-anchor="middle" x="1004.5" y="-427.9" font-family="Helvetica,sans-Serif" font-size="12.00" fill="#000000">#m_begin</text>
<text text-anchor="middle" x="1004.5" y="-414.9" font-family="Helvetica,sans-Serif" font-size="12.00" fill="#000000">#m_close</text>
</g>
<!-- Node19&#45;&gt;Node3 -->
<g id="edge18" class="edge">
<title>Node19&#45;&gt;Node3</title>
<path fill="none" stroke="#404040" d="M951.1045,-726.9504C943.1645,-689.0728 925.0133,-625.589 887.5,-585 818.3342,-510.1633 704.8676,-467.1729 635.2184,-446.496"/>
<polygon fill="none" stroke="#404040" points="635.1144,-446.4659 628.2389,-448.64 623.5876,-443.1296 630.4631,-440.9555 635.1144,-446.4659"/>
<text text-anchor="middle" x="934" y="-588.4" font-family="Helvetica,sans-Serif" font-size="12.00" fill="#000000"> #m_format_string</text>
</g>
<!-- Node20 -->
<g id="node19" class="node">
<title>Node20</title>
<g id="a_node19"><a xlink:title="STL class. ">
<polygon fill="#ffffff" stroke="#bfbfbf" points="913,-1015.5 913,-1091.5 1000,-1091.5 1000,-1015.5 913,-1015.5"/>
<text text-anchor="start" x="921" y="-1077.9" font-family="Helvetica,sans-Serif" font-size="12.00" fill="#000000">std::basic_string&lt;</text>
<text text-anchor="middle" x="956.5" y="-1064.9" font-family="Helvetica,sans-Serif" font-size="12.00" fill="#000000"> char &gt;</text>
<polyline fill="none" stroke="#bfbfbf" points="913,-1057.5 1000,-1057.5 "/>
<text text-anchor="middle" x="956.5" y="-1043.9" font-family="Helvetica,sans-Serif" font-size="12.00" fill="#000000"> </text>
<polyline fill="none" stroke="#bfbfbf" points="913,-1036.5 1000,-1036.5 "/>
<text text-anchor="middle" x="956.5" y="-1022.9" font-family="Helvetica,sans-Serif" font-size="12.00" fill="#000000"> </text>
</a>
</g>
</g>
<!-- Node20&#45;&gt;Node19 -->
<g id="edge19" class="edge">
<title>Node20&#45;&gt;Node19</title>
<path fill="none" stroke="#191970" d="M956.5,-1005.1394C956.5,-944.4462 956.5,-842.0557 956.5,-790.3762"/>
<polygon fill="none" stroke="#191970" points="953.0001,-1005.2363 956.5,-1015.2363 960.0001,-1005.2364 953.0001,-1005.2363"/>
</g>
<!-- Node21&#45;&gt;Node3 -->
<g id="edge20" class="edge">
<title>Node21&#45;&gt;Node3</title>
<path fill="none" stroke="#404040" d="M213.6193,-1015.3729C204.7579,-929.8302 194.8552,-719.5839 289.5,-585 343.2905,-508.5105 447.4294,-466.4168 513.8259,-446.3053"/>
<polygon fill="none" stroke="#404040" points="513.8447,-446.2999 518.4741,-440.771 525.3583,-442.9178 520.7288,-448.4467 513.8447,-446.2999"/>
<text text-anchor="middle" x="300" y="-755.4" font-family="Helvetica,sans-Serif" font-size="12.00" fill="#000000"> &#45;w_mutex_map</text>
</g>
<!-- Node22 -->
<g id="node21" class="node">
<title>Node22</title>
<polygon fill="#ffffff" stroke="#bfbfbf" points="204,-1304 204,-1367 233,-1367 233,-1304 204,-1304"/>
<text text-anchor="middle" x="218.5" y="-1353.4" font-family="Helvetica,sans-Serif" font-size="12.00" fill="#000000">K</text>
<polyline fill="none" stroke="#bfbfbf" points="204,-1346 233,-1346 "/>
<text text-anchor="middle" x="218.5" y="-1332.4" font-family="Helvetica,sans-Serif" font-size="12.00" fill="#000000"> </text>
<polyline fill="none" stroke="#bfbfbf" points="204,-1325 233,-1325 "/>
<text text-anchor="middle" x="218.5" y="-1311.4" font-family="Helvetica,sans-Serif" font-size="12.00" fill="#000000"> </text>
</g>
<!-- Node22&#45;&gt;Node21 -->
<g id="edge21" class="edge">
<title>Node22&#45;&gt;Node21</title>
<path fill="none" stroke="#404040" d="M218.5,-1303.9719C218.5,-1255.3663 218.5,-1161.6934 218.5,-1103.6947"/>
<polygon fill="none" stroke="#404040" points="218.5001,-1103.5358 214.5,-1097.5358 218.5,-1091.5358 222.5,-1097.5357 218.5001,-1103.5358"/>
<text text-anchor="middle" x="232" y="-1178.4" font-family="Helvetica,sans-Serif" font-size="12.00" fill="#000000"> +keys</text>
</g>
<!-- Node23 -->
<g id="node22" class="node">
<title>Node23</title>
<g id="a_node22"><a xlink:title="STL class. ">
<polygon fill="#ffffff" stroke="#bfbfbf" points="541.5,-727 541.5,-790 607.5,-790 607.5,-727 541.5,-727"/>
<text text-anchor="middle" x="574.5" y="-776.4" font-family="Helvetica,sans-Serif" font-size="12.00" fill="#000000">std::ostream</text>
<polyline fill="none" stroke="#bfbfbf" points="541.5,-769 607.5,-769 "/>
<text text-anchor="middle" x="574.5" y="-755.4" font-family="Helvetica,sans-Serif" font-size="12.00" fill="#000000"> </text>
<polyline fill="none" stroke="#bfbfbf" points="541.5,-748 607.5,-748 "/>
<text text-anchor="middle" x="574.5" y="-734.4" font-family="Helvetica,sans-Serif" font-size="12.00" fill="#000000"> </text>
</a>
</g>
</g>
<!-- Node23&#45;&gt;Node3 -->
<g id="edge23" class="edge">
<title>Node23&#45;&gt;Node3</title>
<path fill="none" stroke="#404040" d="M574.5,-726.8004C574.5,-692.1787 574.5,-634.2373 574.5,-578.7661"/>
<polygon fill="none" stroke="#404040" points="574.5001,-578.6055 570.5,-572.6055 574.5,-566.6055 578.5,-572.6055 574.5001,-578.6055"/>
<text text-anchor="middle" x="589.5" y="-588.4" font-family="Helvetica,sans-Serif" font-size="12.00" fill="#000000"> #m_os</text>
</g>
<!-- Node24 -->
<g id="node23" class="node">
<title>Node24</title>
<g id="a_node23"><a xlink:title="STL class. ">
<polygon fill="#ffffff" stroke="#bfbfbf" points="460.5,-1015.5 460.5,-1091.5 552.5,-1091.5 552.5,-1015.5 460.5,-1015.5"/>
<text text-anchor="start" x="468.5" y="-1077.9" font-family="Helvetica,sans-Serif" font-size="12.00" fill="#000000">std::basic_ostream</text>
<text text-anchor="middle" x="506.5" y="-1064.9" font-family="Helvetica,sans-Serif" font-size="12.00" fill="#000000">&lt; char &gt;</text>
<polyline fill="none" stroke="#bfbfbf" points="460.5,-1057.5 552.5,-1057.5 "/>
<text text-anchor="middle" x="506.5" y="-1043.9" font-family="Helvetica,sans-Serif" font-size="12.00" fill="#000000"> </text>
<polyline fill="none" stroke="#bfbfbf" points="460.5,-1036.5 552.5,-1036.5 "/>
<text text-anchor="middle" x="506.5" y="-1022.9" font-family="Helvetica,sans-Serif" font-size="12.00" fill="#000000"> </text>
</a>
</g>
</g>
<!-- Node24&#45;&gt;Node23 -->
<g id="edge24" class="edge">
<title>Node24&#45;&gt;Node23</title>
<path fill="none" stroke="#191970" d="M517.6475,-1005.1394C531.6378,-944.4462 555.2397,-842.0557 567.1523,-790.3762"/>
<polygon fill="none" stroke="#191970" points="514.1558,-1004.7057 515.3201,-1015.2363 520.9769,-1006.2781 514.1558,-1004.7057"/>
</g>
<!-- Node25 -->
<g id="node24" class="node">
<title>Node25</title>
<g id="a_node24"><a xlink:title="STL class. ">
<polygon fill="#ffffff" stroke="#bfbfbf" points="448.5,-1304 448.5,-1367 554.5,-1367 554.5,-1304 448.5,-1304"/>
<text text-anchor="middle" x="501.5" y="-1353.4" font-family="Helvetica,sans-Serif" font-size="12.00" fill="#000000">std::basic_ios&lt; Char &gt;</text>
<polyline fill="none" stroke="#bfbfbf" points="448.5,-1346 554.5,-1346 "/>
<text text-anchor="middle" x="501.5" y="-1332.4" font-family="Helvetica,sans-Serif" font-size="12.00" fill="#000000"> </text>
<polyline fill="none" stroke="#bfbfbf" points="448.5,-1325 554.5,-1325 "/>
<text text-anchor="middle" x="501.5" y="-1311.4" font-family="Helvetica,sans-Serif" font-size="12.00" fill="#000000"> </text>
</a>
</g>
</g>
<!-- Node25&#45;&gt;Node24 -->
<g id="edge25" class="edge">
<title>Node25&#45;&gt;Node24</title>
<path fill="none" stroke="#191970" d="M502.2368,-1293.9464C503.2044,-1239.3703 504.89,-1144.3034 505.8256,-1091.5358"/>
<polygon fill="none" stroke="#191970" points="498.7369,-1293.9114 502.059,-1303.9719 505.7358,-1294.0355 498.7369,-1293.9114"/>
</g>
<!-- Node26 -->
<g id="node25" class="node">
<title>Node26</title>
<g id="a_node25"><a xlink:title="STL class. ">
<polygon fill="#ffffff" stroke="#bfbfbf" points="466.5,-1514.5 466.5,-1577.5 536.5,-1577.5 536.5,-1514.5 466.5,-1514.5"/>
<text text-anchor="middle" x="501.5" y="-1563.9" font-family="Helvetica,sans-Serif" font-size="12.00" fill="#000000">std::ios_base</text>
<polyline fill="none" stroke="#bfbfbf" points="466.5,-1556.5 536.5,-1556.5 "/>
<text text-anchor="middle" x="501.5" y="-1542.9" font-family="Helvetica,sans-Serif" font-size="12.00" fill="#000000"> </text>
<polyline fill="none" stroke="#bfbfbf" points="466.5,-1535.5 536.5,-1535.5 "/>
<text text-anchor="middle" x="501.5" y="-1521.9" font-family="Helvetica,sans-Serif" font-size="12.00" fill="#000000"> </text>
</a>
</g>
</g>
<!-- Node26&#45;&gt;Node25 -->
<g id="edge26" class="edge">
<title>Node26&#45;&gt;Node25</title>
<path fill="none" stroke="#191970" d="M501.5,-1504.4408C501.5,-1464.1254 501.5,-1403.8284 501.5,-1367.2294"/>
<polygon fill="none" stroke="#191970" points="498.0001,-1504.486 501.5,-1514.486 505.0001,-1504.4861 498.0001,-1504.486"/>
</g>
<!-- Node27 -->
<g id="node26" class="node">
<title>Node27</title>
<polygon fill="#ffffff" stroke="#bfbfbf" points="1081.5,-399.5 1081.5,-462.5 1153.5,-462.5 1153.5,-399.5 1081.5,-399.5"/>
<text text-anchor="middle" x="1117.5" y="-448.9" font-family="Helvetica,sans-Serif" font-size="12.00" fill="#000000">static uint16_t</text>
<polyline fill="none" stroke="#bfbfbf" points="1081.5,-441.5 1153.5,-441.5 "/>
<text text-anchor="middle" x="1117.5" y="-427.9" font-family="Helvetica,sans-Serif" font-size="12.00" fill="#000000"> </text>
<polyline fill="none" stroke="#bfbfbf" points="1081.5,-420.5 1153.5,-420.5 "/>
<text text-anchor="middle" x="1117.5" y="-406.9" font-family="Helvetica,sans-Serif" font-size="12.00" fill="#000000"> </text>
</g>
<!-- Node27&#45;&gt;Node2 -->
<g id="edge31" class="edge">
<title>Node27&#45;&gt;Node2</title>
<path fill="none" stroke="#404040" d="M1111.601,-399.4694C1104.8641,-370.0691 1091.5279,-326.1868 1067.5,-295 1020.6869,-234.2395 946.3844,-186.4898 891.6775,-156.8753"/>
<polygon fill="none" stroke="#404040" points="891.6033,-156.8358 884.4273,-157.5464 881.0114,-151.1957 888.1874,-150.4851 891.6033,-156.8358"/>
<text text-anchor="middle" x="1089.5" y="-267.4" font-family="Helvetica,sans-Serif" font-size="12.00" fill="#000000"> +default_precision</text>
</g>
</g>
</svg>
