<?xml version="1.0" encoding="UTF-8" standalone="no"?>
<!DOCTYPE svg PUBLIC "-//W3C//DTD SVG 1.1//EN"
 "http://www.w3.org/Graphics/SVG/1.1/DTD/svg11.dtd">
<!-- Generated by graphviz version 2.40.1 (20161225.0304)
 -->
<!-- Title: NAME_TIM::timer Pages: 1 -->
<svg width="1162pt" height="1612pt"
 viewBox="0.00 0.00 1161.50 1612.00" xmlns="http://www.w3.org/2000/svg" xmlns:xlink="http://www.w3.org/1999/xlink">
<g id="graph0" class="graph" transform="scale(1 1) rotate(0) translate(4 1608)">
<title>NAME_TIM::timer</title>
<polygon fill="#ffffff" stroke="transparent" points="-4,4 -4,-1608 1157.5,-1608 1157.5,4 -4,4"/>
<!-- Node2 -->
<g id="node1" class="node">
<title>Node2</title>
<polygon fill="#bfbfbf" stroke="#000000" points="762,-.5 762,-271.5 881,-271.5 881,-.5 762,-.5"/>
<text text-anchor="middle" x="821.5" y="-257.9" font-family="Helvetica,sans-Serif" font-size="12.00" fill="#000000">NAME_TIM::timer</text>
<polyline fill="none" stroke="#000000" points="762,-250.5 881,-250.5 "/>
<text text-anchor="middle" x="821.5" y="-236.9" font-family="Helvetica,sans-Serif" font-size="12.00" fill="#000000"> </text>
<polyline fill="none" stroke="#000000" points="762,-229.5 881,-229.5 "/>
<text text-anchor="start" x="770" y="-215.9" font-family="Helvetica,sans-Serif" font-size="12.00" fill="#000000">+ timer()</text>
<text text-anchor="start" x="770" y="-202.9" font-family="Helvetica,sans-Serif" font-size="12.00" fill="#000000">+ timer()</text>
<text text-anchor="start" x="770" y="-189.9" font-family="Helvetica,sans-Serif" font-size="12.00" fill="#000000">+ ~timer()</text>
<text text-anchor="start" x="770" y="-176.9" font-family="Helvetica,sans-Serif" font-size="12.00" fill="#000000">+ stop_and_return()</text>
<text text-anchor="start" x="770" y="-163.9" font-family="Helvetica,sans-Serif" font-size="12.00" fill="#000000">+ begin()</text>
<text text-anchor="start" x="770" y="-150.9" font-family="Helvetica,sans-Serif" font-size="12.00" fill="#000000">+ close()</text>
<text text-anchor="start" x="770" y="-137.9" font-family="Helvetica,sans-Serif" font-size="12.00" fill="#000000">+ as_string()</text>
<text text-anchor="start" x="770" y="-124.9" font-family="Helvetica,sans-Serif" font-size="12.00" fill="#000000">+ print()</text>
<text text-anchor="start" x="770" y="-111.9" font-family="Helvetica,sans-Serif" font-size="12.00" fill="#000000">+ clone()</text>
<text text-anchor="start" x="770" y="-98.9" font-family="Helvetica,sans-Serif" font-size="12.00" fill="#000000">+ clone_to_unique_ptr()</text>
<text text-anchor="start" x="770" y="-85.9" font-family="Helvetica,sans-Serif" font-size="12.00" fill="#000000">and 11 more...</text>
<text text-anchor="start" x="770" y="-72.9" font-family="Helvetica,sans-Serif" font-size="12.00" fill="#000000">+ propose_output_width()</text>
<text text-anchor="start" x="770" y="-59.9" font-family="Helvetica,sans-Serif" font-size="12.00" fill="#000000">+ get_output_width()</text>
<text text-anchor="start" x="770" y="-46.9" font-family="Helvetica,sans-Serif" font-size="12.00" fill="#000000">+ set_output_width()</text>
<text text-anchor="start" x="770" y="-33.9" font-family="Helvetica,sans-Serif" font-size="12.00" fill="#000000">+ set_default_format()</text>
<text text-anchor="start" x="770" y="-20.9" font-family="Helvetica,sans-Serif" font-size="12.00" fill="#000000"># compose()</text>
<text text-anchor="start" x="770" y="-7.9" font-family="Helvetica,sans-Serif" font-size="12.00" fill="#000000"># set_parent()</text>
</g>
<!-- Node2&#45;&gt;Node2 -->
<g id="edge28" class="edge">
<title>Node2&#45;&gt;Node2</title>
<path fill="none" stroke="#404040" d="M881.29,-164.125C891.7344,-160.375 899,-151 899,-136 899,-126.625 896.1619,-119.4473 891.4834,-114.4668"/>
<polygon fill="none" stroke="#404040" points="891.3667,-114.3913 884.1562,-114.492 881.29,-107.875 888.5005,-107.7743 891.3667,-114.3913"/>
<text text-anchor="middle" x="922" y="-132.9" font-family="Helvetica,sans-Serif" font-size="12.00" fill="#000000"> #m_parent</text>
</g>
<!-- Node3 -->
<g id="node2" class="node">
<title>Node3</title>
<g id="a_node2"><a xlink:href="../../dd/dea/class_n_a_m_e___t_i_m_1_1internal_1_1base__timer.html" target="_top" xlink:title="{NAME_TIM::internal\l::base_timer\n||+ base_timer()\l+ ~base_timer()\l+ base_timer()\l+ operator=()\l+ start()\l+ stop()\l+ is_valid()\l+ real_elapsed()\l+ system_elapsed()\l+ user_elapsed()\land 13 more...\l# parse_format()\l# compose()\l# m_timer()\l# get_accum()\l# get_accum()\l}">
<polygon fill="#ffffff" stroke="#000000" points="525.5,-321.5 525.5,-592.5 623.5,-592.5 623.5,-321.5 525.5,-321.5"/>
<text text-anchor="start" x="533.5" y="-578.9" font-family="Helvetica,sans-Serif" font-size="12.00" fill="#000000">NAME_TIM::internal</text>
<text text-anchor="middle" x="574.5" y="-565.9" font-family="Helvetica,sans-Serif" font-size="12.00" fill="#000000">::base_timer</text>
<polyline fill="none" stroke="#000000" points="525.5,-558.5 623.5,-558.5 "/>
<text text-anchor="middle" x="574.5" y="-544.9" font-family="Helvetica,sans-Serif" font-size="12.00" fill="#000000"> </text>
<polyline fill="none" stroke="#000000" points="525.5,-537.5 623.5,-537.5 "/>
<text text-anchor="start" x="533.5" y="-523.9" font-family="Helvetica,sans-Serif" font-size="12.00" fill="#000000">+ base_timer()</text>
<text text-anchor="start" x="533.5" y="-510.9" font-family="Helvetica,sans-Serif" font-size="12.00" fill="#000000">+ ~base_timer()</text>
<text text-anchor="start" x="533.5" y="-497.9" font-family="Helvetica,sans-Serif" font-size="12.00" fill="#000000">+ base_timer()</text>
<text text-anchor="start" x="533.5" y="-484.9" font-family="Helvetica,sans-Serif" font-size="12.00" fill="#000000">+ operator=()</text>
<text text-anchor="start" x="533.5" y="-471.9" font-family="Helvetica,sans-Serif" font-size="12.00" fill="#000000">+ start()</text>
<text text-anchor="start" x="533.5" y="-458.9" font-family="Helvetica,sans-Serif" font-size="12.00" fill="#000000">+ stop()</text>
<text text-anchor="start" x="533.5" y="-445.9" font-family="Helvetica,sans-Serif" font-size="12.00" fill="#000000">+ is_valid()</text>
<text text-anchor="start" x="533.5" y="-432.9" font-family="Helvetica,sans-Serif" font-size="12.00" fill="#000000">+ real_elapsed()</text>
<text text-anchor="start" x="533.5" y="-419.9" font-family="Helvetica,sans-Serif" font-size="12.00" fill="#000000">+ system_elapsed()</text>
<text text-anchor="start" x="533.5" y="-406.9" font-family="Helvetica,sans-Serif" font-size="12.00" fill="#000000">+ user_elapsed()</text>
<text text-anchor="start" x="533.5" y="-393.9" font-family="Helvetica,sans-Serif" font-size="12.00" fill="#000000">and 13 more...</text>
<text text-anchor="start" x="533.5" y="-380.9" font-family="Helvetica,sans-Serif" font-size="12.00" fill="#000000"># parse_format()</text>
<text text-anchor="start" x="533.5" y="-367.9" font-family="Helvetica,sans-Serif" font-size="12.00" fill="#000000"># compose()</text>
<text text-anchor="start" x="533.5" y="-354.9" font-family="Helvetica,sans-Serif" font-size="12.00" fill="#000000"># m_timer()</text>
<text text-anchor="start" x="533.5" y="-341.9" font-family="Helvetica,sans-Serif" font-size="12.00" fill="#000000"># get_accum()</text>
<text text-anchor="start" x="533.5" y="-328.9" font-family="Helvetica,sans-Serif" font-size="12.00" fill="#000000"># get_accum()</text>
</a>
</g>
</g>
<!-- Node3&#45;&gt;Node2 -->
<g id="edge1" class="edge">
<title>Node3&#45;&gt;Node2</title>
<path fill="none" stroke="#191970" d="M629.7723,-385.1684C669.0048,-334.182 721.6247,-265.7975 761.8137,-213.568"/>
<polygon fill="none" stroke="#191970" points="626.919,-383.1372 623.5946,-393.1969 632.4668,-387.406 626.919,-383.1372"/>
</g>
<!-- Node4 -->
<g id="node3" class="node">
<title>Node4</title>
<g id="a_node3"><a xlink:href="../../dc/d73/class_n_a_m_e___t_i_m_1_1internal_1_1base__timer__delta.html" target="_top" xlink:title="{NAME_TIM::internal\l::base_timer_delta\n||+ base_timer_delta()\l+ reset()\l+ operator+=()\l+ operator+=()\l+ operator+=()\l+ operator&#45;=()\l+ operator/=()\l+ get_sum()\l+ get_sqr()\l+ size()\l+ rss()\l+ rss()\l# compute()\l# compute_sum()\l# compute_sqr()\l# divide_sum()\l# divide_sqr()\l}">
<polygon fill="#ffffff" stroke="#000000" points="626,-642.5 626,-926.5 725,-926.5 725,-642.5 626,-642.5"/>
<text text-anchor="start" x="634" y="-912.9" font-family="Helvetica,sans-Serif" font-size="12.00" fill="#000000">NAME_TIM::internal</text>
<text text-anchor="middle" x="675.5" y="-899.9" font-family="Helvetica,sans-Serif" font-size="12.00" fill="#000000">::base_timer_delta</text>
<polyline fill="none" stroke="#000000" points="626,-892.5 725,-892.5 "/>
<text text-anchor="middle" x="675.5" y="-878.9" font-family="Helvetica,sans-Serif" font-size="12.00" fill="#000000"> </text>
<polyline fill="none" stroke="#000000" points="626,-871.5 725,-871.5 "/>
<text text-anchor="start" x="634" y="-857.9" font-family="Helvetica,sans-Serif" font-size="12.00" fill="#000000">+ base_timer_delta()</text>
<text text-anchor="start" x="634" y="-844.9" font-family="Helvetica,sans-Serif" font-size="12.00" fill="#000000">+ reset()</text>
<text text-anchor="start" x="634" y="-831.9" font-family="Helvetica,sans-Serif" font-size="12.00" fill="#000000">+ operator+=()</text>
<text text-anchor="start" x="634" y="-818.9" font-family="Helvetica,sans-Serif" font-size="12.00" fill="#000000">+ operator+=()</text>
<text text-anchor="start" x="634" y="-805.9" font-family="Helvetica,sans-Serif" font-size="12.00" fill="#000000">+ operator+=()</text>
<text text-anchor="start" x="634" y="-792.9" font-family="Helvetica,sans-Serif" font-size="12.00" fill="#000000">+ operator&#45;=()</text>
<text text-anchor="start" x="634" y="-779.9" font-family="Helvetica,sans-Serif" font-size="12.00" fill="#000000">+ operator/=()</text>
<text text-anchor="start" x="634" y="-766.9" font-family="Helvetica,sans-Serif" font-size="12.00" fill="#000000">+ get_sum()</text>
<text text-anchor="start" x="634" y="-753.9" font-family="Helvetica,sans-Serif" font-size="12.00" fill="#000000">+ get_sqr()</text>
<text text-anchor="start" x="634" y="-740.9" font-family="Helvetica,sans-Serif" font-size="12.00" fill="#000000">+ size()</text>
<text text-anchor="start" x="634" y="-727.9" font-family="Helvetica,sans-Serif" font-size="12.00" fill="#000000">+ rss()</text>
<text text-anchor="start" x="634" y="-714.9" font-family="Helvetica,sans-Serif" font-size="12.00" fill="#000000">+ rss()</text>
<text text-anchor="start" x="634" y="-701.9" font-family="Helvetica,sans-Serif" font-size="12.00" fill="#000000"># compute()</text>
<text text-anchor="start" x="634" y="-688.9" font-family="Helvetica,sans-Serif" font-size="12.00" fill="#000000"># compute_sum()</text>
<text text-anchor="start" x="634" y="-675.9" font-family="Helvetica,sans-Serif" font-size="12.00" fill="#000000"># compute_sqr()</text>
<text text-anchor="start" x="634" y="-662.9" font-family="Helvetica,sans-Serif" font-size="12.00" fill="#000000"># divide_sum()</text>
<text text-anchor="start" x="634" y="-649.9" font-family="Helvetica,sans-Serif" font-size="12.00" fill="#000000"># divide_sqr()</text>
</a>
</g>
</g>
<!-- Node4&#45;&gt;Node3 -->
<g id="edge2" class="edge">
<title>Node4&#45;&gt;Node3</title>
<path fill="none" stroke="#404040" d="M631.6406,-642.2825C627.7481,-629.6608 623.802,-616.8654 619.8971,-604.2034"/>
<polygon fill="none" stroke="#404040" points="619.8617,-604.0883 614.2711,-599.5336 616.3252,-592.6212 621.9158,-597.1759 619.8617,-604.0883"/>
<text text-anchor="middle" x="649" y="-614.4" font-family="Helvetica,sans-Serif" font-size="12.00" fill="#000000"> #m_accum</text>
</g>
<!-- Node5 -->
<g id="node4" class="node">
<title>Node5</title>
<polygon fill="#ffffff" stroke="#bfbfbf" points="805,-1048 805,-1111 854,-1111 854,-1048 805,-1048"/>
<text text-anchor="middle" x="829.5" y="-1097.4" font-family="Helvetica,sans-Serif" font-size="12.00" fill="#000000">uint64_t</text>
<polyline fill="none" stroke="#bfbfbf" points="805,-1090 854,-1090 "/>
<text text-anchor="middle" x="829.5" y="-1076.4" font-family="Helvetica,sans-Serif" font-size="12.00" fill="#000000"> </text>
<polyline fill="none" stroke="#bfbfbf" points="805,-1069 854,-1069 "/>
<text text-anchor="middle" x="829.5" y="-1055.4" font-family="Helvetica,sans-Serif" font-size="12.00" fill="#000000"> </text>
</g>
<!-- Node5&#45;&gt;Node2 -->
<g id="edge27" class="edge">
<title>Node5&#45;&gt;Node2</title>
<path fill="none" stroke="#404040" d="M828.4695,-1047.7516C826.1201,-973.5892 820.4218,-783.183 818.5,-624 817.1219,-509.8537 818.0255,-380.6809 819.1907,-283.9186"/>
<polygon fill="none" stroke="#404040" points="819.1935,-283.6837 815.2678,-277.6349 819.3415,-271.6846 823.2672,-277.7335 819.1935,-283.6837"/>
<text text-anchor="middle" x="851" y="-614.4" font-family="Helvetica,sans-Serif" font-size="12.00" fill="#000000"> &#45;f_output_width</text>
</g>
<!-- Node5&#45;&gt;Node4 -->
<g id="edge3" class="edge">
<title>Node5&#45;&gt;Node4</title>
<path fill="none" stroke="#404040" d="M821.8671,-1047.8759C816.4534,-1029.5783 807.9171,-1006.7369 795.5,-989 788.4501,-978.9297 783.2599,-979.6241 774.5,-971 763.5058,-960.1763 762.0707,-956.2377 751.5,-945 743.7483,-936.7592 739.7566,-936.4263 733.5,-927 732.8699,-926.0507 732.2447,-925.0935 731.6245,-924.1289"/>
<polygon fill="none" stroke="#404040" points="731.4125,-923.7811 724.8742,-920.7397 725.1669,-913.5345 731.7053,-916.5759 731.4125,-923.7811"/>
<text text-anchor="middle" x="791" y="-954.9" font-family="Helvetica,sans-Serif" font-size="12.00" fill="#000000"> #m_lap</text>
</g>
<!-- Node6 -->
<g id="node5" class="node">
<title>Node6</title>
<g id="a_node5"><a xlink:href="../../d5/d6c/class_n_a_m_e___t_i_m_1_1internal_1_1base__rss__usage.html" target="_top" xlink:title="{NAME_TIM::internal\l::base_rss_usage\n||+ init()\l+ record()\l+ total()\l+ self()\l+ total()\l+ self()\l+ max()\l+ operator+=()\l+ operator&#45;=()\l}">
<polygon fill="#ffffff" stroke="#000000" points="570.5,-989.5 570.5,-1169.5 668.5,-1169.5 668.5,-989.5 570.5,-989.5"/>
<text text-anchor="start" x="578.5" y="-1155.9" font-family="Helvetica,sans-Serif" font-size="12.00" fill="#000000">NAME_TIM::internal</text>
<text text-anchor="middle" x="619.5" y="-1142.9" font-family="Helvetica,sans-Serif" font-size="12.00" fill="#000000">::base_rss_usage</text>
<polyline fill="none" stroke="#000000" points="570.5,-1135.5 668.5,-1135.5 "/>
<text text-anchor="middle" x="619.5" y="-1121.9" font-family="Helvetica,sans-Serif" font-size="12.00" fill="#000000"> </text>
<polyline fill="none" stroke="#000000" points="570.5,-1114.5 668.5,-1114.5 "/>
<text text-anchor="start" x="578.5" y="-1100.9" font-family="Helvetica,sans-Serif" font-size="12.00" fill="#000000">+ init()</text>
<text text-anchor="start" x="578.5" y="-1087.9" font-family="Helvetica,sans-Serif" font-size="12.00" fill="#000000">+ record()</text>
<text text-anchor="start" x="578.5" y="-1074.9" font-family="Helvetica,sans-Serif" font-size="12.00" fill="#000000">+ total()</text>
<text text-anchor="start" x="578.5" y="-1061.9" font-family="Helvetica,sans-Serif" font-size="12.00" fill="#000000">+ self()</text>
<text text-anchor="start" x="578.5" y="-1048.9" font-family="Helvetica,sans-Serif" font-size="12.00" fill="#000000">+ total()</text>
<text text-anchor="start" x="578.5" y="-1035.9" font-family="Helvetica,sans-Serif" font-size="12.00" fill="#000000">+ self()</text>
<text text-anchor="start" x="578.5" y="-1022.9" font-family="Helvetica,sans-Serif" font-size="12.00" fill="#000000">+ max()</text>
<text text-anchor="start" x="578.5" y="-1009.9" font-family="Helvetica,sans-Serif" font-size="12.00" fill="#000000">+ operator+=()</text>
<text text-anchor="start" x="578.5" y="-996.9" font-family="Helvetica,sans-Serif" font-size="12.00" fill="#000000">+ operator&#45;=()</text>
</a>
</g>
</g>
<!-- Node6&#45;&gt;Node4 -->
<g id="edge4" class="edge">
<title>Node6&#45;&gt;Node4</title>
<path fill="none" stroke="#404040" d="M636.6061,-989.3873C639.6917,-973.1332 642.9863,-955.7775 646.3034,-938.3037"/>
<polygon fill="none" stroke="#404040" points="646.3044,-938.2978 643.4936,-931.6571 648.5425,-926.5084 651.3533,-933.1491 646.3044,-938.2978"/>
<text text-anchor="middle" x="661" y="-954.9" font-family="Helvetica,sans-Serif" font-size="12.00" fill="#000000"> #m_rss</text>
</g>
<!-- Node10 -->
<g id="node9" class="node">
<title>Node10</title>
<g id="a_node9"><a xlink:href="../../d0/d62/class_n_a_m_e___t_i_m_1_1internal_1_1base__timer__data.html" target="_top" xlink:title="{NAME_TIM::internal\l::base_timer_data\n||+ base_timer_data()\l+ start()\l+ stop()\l+ start()\l+ stop()\l+ running()\l+ serialize()\l+ rss_init()\l+ rss_record()\l+ rss()\l+ rss()\l}">
<polygon fill="#ffffff" stroke="#000000" points="365.5,-681.5 365.5,-887.5 463.5,-887.5 463.5,-681.5 365.5,-681.5"/>
<text text-anchor="start" x="373.5" y="-873.9" font-family="Helvetica,sans-Serif" font-size="12.00" fill="#000000">NAME_TIM::internal</text>
<text text-anchor="middle" x="414.5" y="-860.9" font-family="Helvetica,sans-Serif" font-size="12.00" fill="#000000">::base_timer_data</text>
<polyline fill="none" stroke="#000000" points="365.5,-853.5 463.5,-853.5 "/>
<text text-anchor="middle" x="414.5" y="-839.9" font-family="Helvetica,sans-Serif" font-size="12.00" fill="#000000"> </text>
<polyline fill="none" stroke="#000000" points="365.5,-832.5 463.5,-832.5 "/>
<text text-anchor="start" x="373.5" y="-818.9" font-family="Helvetica,sans-Serif" font-size="12.00" fill="#000000">+ base_timer_data()</text>
<text text-anchor="start" x="373.5" y="-805.9" font-family="Helvetica,sans-Serif" font-size="12.00" fill="#000000">+ start()</text>
<text text-anchor="start" x="373.5" y="-792.9" font-family="Helvetica,sans-Serif" font-size="12.00" fill="#000000">+ stop()</text>
<text text-anchor="start" x="373.5" y="-779.9" font-family="Helvetica,sans-Serif" font-size="12.00" fill="#000000">+ start()</text>
<text text-anchor="start" x="373.5" y="-766.9" font-family="Helvetica,sans-Serif" font-size="12.00" fill="#000000">+ stop()</text>
<text text-anchor="start" x="373.5" y="-753.9" font-family="Helvetica,sans-Serif" font-size="12.00" fill="#000000">+ running()</text>
<text text-anchor="start" x="373.5" y="-740.9" font-family="Helvetica,sans-Serif" font-size="12.00" fill="#000000">+ serialize()</text>
<text text-anchor="start" x="373.5" y="-727.9" font-family="Helvetica,sans-Serif" font-size="12.00" fill="#000000">+ rss_init()</text>
<text text-anchor="start" x="373.5" y="-714.9" font-family="Helvetica,sans-Serif" font-size="12.00" fill="#000000">+ rss_record()</text>
<text text-anchor="start" x="373.5" y="-701.9" font-family="Helvetica,sans-Serif" font-size="12.00" fill="#000000">+ rss()</text>
<text text-anchor="start" x="373.5" y="-688.9" font-family="Helvetica,sans-Serif" font-size="12.00" fill="#000000">+ rss()</text>
</a>
</g>
</g>
<!-- Node6&#45;&gt;Node10 -->
<g id="edge9" class="edge">
<title>Node6&#45;&gt;Node10</title>
<path fill="none" stroke="#404040" d="M570.2162,-998.7466C567.3854,-995.3606 564.476,-992.0929 561.5,-989 528.0751,-954.2621 502.6035,-964.6527 472.5,-927 465.5057,-918.2517 459.2465,-908.5459 453.6694,-898.431"/>
<polygon fill="none" stroke="#404040" points="453.6549,-898.4032 447.3324,-894.9351 448.102,-887.7652 454.4244,-891.2332 453.6549,-898.4032"/>
<text text-anchor="middle" x="556" y="-954.9" font-family="Helvetica,sans-Serif" font-size="12.00" fill="#000000"> #m_rss</text>
</g>
<!-- Node7 -->
<g id="node6" class="node">
<title>Node7</title>
<g id="a_node6"><a xlink:href="../../df/d64/struct_n_a_m_e___t_i_m_1_1rss_1_1usage.html" target="_top" xlink:title="{NAME_TIM::rss::usage\n||+ usage()\l+ usage()\l+ usage()\l+ operator=()\l+ record()\l+ record()\l+ operator()()\l+ operator+=()\l+ operator&#45;=()\l+ current()\l+ peak()\l+ serialize()\l+ max()\l+ min()\l}">
<polygon fill="#ffffff" stroke="#000000" points="572.5,-1245.5 572.5,-1477.5 682.5,-1477.5 682.5,-1245.5 572.5,-1245.5"/>
<text text-anchor="middle" x="627.5" y="-1463.9" font-family="Helvetica,sans-Serif" font-size="12.00" fill="#000000">NAME_TIM::rss::usage</text>
<polyline fill="none" stroke="#000000" points="572.5,-1456.5 682.5,-1456.5 "/>
<text text-anchor="middle" x="627.5" y="-1442.9" font-family="Helvetica,sans-Serif" font-size="12.00" fill="#000000"> </text>
<polyline fill="none" stroke="#000000" points="572.5,-1435.5 682.5,-1435.5 "/>
<text text-anchor="start" x="580.5" y="-1421.9" font-family="Helvetica,sans-Serif" font-size="12.00" fill="#000000">+ usage()</text>
<text text-anchor="start" x="580.5" y="-1408.9" font-family="Helvetica,sans-Serif" font-size="12.00" fill="#000000">+ usage()</text>
<text text-anchor="start" x="580.5" y="-1395.9" font-family="Helvetica,sans-Serif" font-size="12.00" fill="#000000">+ usage()</text>
<text text-anchor="start" x="580.5" y="-1382.9" font-family="Helvetica,sans-Serif" font-size="12.00" fill="#000000">+ operator=()</text>
<text text-anchor="start" x="580.5" y="-1369.9" font-family="Helvetica,sans-Serif" font-size="12.00" fill="#000000">+ record()</text>
<text text-anchor="start" x="580.5" y="-1356.9" font-family="Helvetica,sans-Serif" font-size="12.00" fill="#000000">+ record()</text>
<text text-anchor="start" x="580.5" y="-1343.9" font-family="Helvetica,sans-Serif" font-size="12.00" fill="#000000">+ operator()()</text>
<text text-anchor="start" x="580.5" y="-1330.9" font-family="Helvetica,sans-Serif" font-size="12.00" fill="#000000">+ operator+=()</text>
<text text-anchor="start" x="580.5" y="-1317.9" font-family="Helvetica,sans-Serif" font-size="12.00" fill="#000000">+ operator&#45;=()</text>
<text text-anchor="start" x="580.5" y="-1304.9" font-family="Helvetica,sans-Serif" font-size="12.00" fill="#000000">+ current()</text>
<text text-anchor="start" x="580.5" y="-1291.9" font-family="Helvetica,sans-Serif" font-size="12.00" fill="#000000">+ peak()</text>
<text text-anchor="start" x="580.5" y="-1278.9" font-family="Helvetica,sans-Serif" font-size="12.00" fill="#000000">+ serialize()</text>
<text text-anchor="start" x="580.5" y="-1265.9" font-family="Helvetica,sans-Serif" font-size="12.00" fill="#000000">+ max()</text>
<text text-anchor="start" x="580.5" y="-1252.9" font-family="Helvetica,sans-Serif" font-size="12.00" fill="#000000">+ min()</text>
</a>
</g>
</g>
<!-- Node7&#45;&gt;Node6 -->
<g id="edge5" class="edge">
<title>Node7&#45;&gt;Node6</title>
<path fill="none" stroke="#404040" d="M624.1999,-1245.1717C623.6054,-1224.2167 622.9897,-1202.5113 622.4074,-1181.9853"/>
<polygon fill="none" stroke="#404040" points="622.3997,-1181.7094 618.2311,-1175.8252 622.0593,-1169.7142 626.2279,-1175.5983 622.3997,-1181.7094"/>
<text text-anchor="middle" x="650" y="-1217.4" font-family="Helvetica,sans-Serif" font-size="12.00" fill="#000000"> #m_rss_tmp</text>
<text text-anchor="middle" x="650" y="-1204.4" font-family="Helvetica,sans-Serif" font-size="12.00" fill="#000000">#m_rss_self</text>
<text text-anchor="middle" x="650" y="-1191.4" font-family="Helvetica,sans-Serif" font-size="12.00" fill="#000000">#m_rss_tot</text>
</g>
<!-- Node8 -->
<g id="node7" class="node">
<title>Node8</title>
<polygon fill="#ffffff" stroke="#bfbfbf" points="605.5,-1540.5 605.5,-1603.5 649.5,-1603.5 649.5,-1540.5 605.5,-1540.5"/>
<text text-anchor="middle" x="627.5" y="-1589.9" font-family="Helvetica,sans-Serif" font-size="12.00" fill="#000000">int64_t</text>
<polyline fill="none" stroke="#bfbfbf" points="605.5,-1582.5 649.5,-1582.5 "/>
<text text-anchor="middle" x="627.5" y="-1568.9" font-family="Helvetica,sans-Serif" font-size="12.00" fill="#000000"> </text>
<polyline fill="none" stroke="#bfbfbf" points="605.5,-1561.5 649.5,-1561.5 "/>
<text text-anchor="middle" x="627.5" y="-1547.9" font-family="Helvetica,sans-Serif" font-size="12.00" fill="#000000"> </text>
</g>
<!-- Node8&#45;&gt;Node7 -->
<g id="edge6" class="edge">
<title>Node8&#45;&gt;Node7</title>
<path fill="none" stroke="#404040" d="M627.5,-1540.486C627.5,-1526.3063 627.5,-1508.5382 627.5,-1489.7416"/>
<polygon fill="none" stroke="#404040" points="627.5001,-1489.5998 623.5,-1483.5998 627.5,-1477.5998 631.5,-1483.5997 627.5001,-1489.5998"/>
<text text-anchor="middle" x="655" y="-1512.4" font-family="Helvetica,sans-Serif" font-size="12.00" fill="#000000"> +m_curr_rss</text>
<text text-anchor="middle" x="655" y="-1499.4" font-family="Helvetica,sans-Serif" font-size="12.00" fill="#000000">+m_peak_rss</text>
</g>
<!-- Node9 -->
<g id="node8" class="node">
<title>Node9</title>
<polygon fill="#ffffff" stroke="#bfbfbf" points="686.5,-1041.5 686.5,-1117.5 786.5,-1117.5 786.5,-1041.5 686.5,-1041.5"/>
<text text-anchor="start" x="694.5" y="-1103.9" font-family="Helvetica,sans-Serif" font-size="12.00" fill="#000000">tuple&lt; uint_type, uint</text>
<text text-anchor="middle" x="736.5" y="-1090.9" font-family="Helvetica,sans-Serif" font-size="12.00" fill="#000000">_type, uint_type &gt;</text>
<polyline fill="none" stroke="#bfbfbf" points="686.5,-1083.5 786.5,-1083.5 "/>
<text text-anchor="middle" x="736.5" y="-1069.9" font-family="Helvetica,sans-Serif" font-size="12.00" fill="#000000"> </text>
<polyline fill="none" stroke="#bfbfbf" points="686.5,-1062.5 786.5,-1062.5 "/>
<text text-anchor="middle" x="736.5" y="-1048.9" font-family="Helvetica,sans-Serif" font-size="12.00" fill="#000000"> </text>
</g>
<!-- Node9&#45;&gt;Node4 -->
<g id="edge7" class="edge">
<title>Node9&#45;&gt;Node4</title>
<path fill="none" stroke="#404040" d="M728.3369,-1041.3535C723.9073,-1020.5637 718.3592,-994.377 713.5,-971 711.3023,-960.4274 709.0465,-949.5149 706.7832,-938.5216"/>
<polygon fill="none" stroke="#404040" points="706.7434,-938.3274 701.617,-933.2559 704.3267,-926.5733 709.4531,-931.6448 706.7434,-938.3274"/>
<text text-anchor="middle" x="732.5" y="-961.4" font-family="Helvetica,sans-Serif" font-size="12.00" fill="#000000"> #m_sum</text>
<text text-anchor="middle" x="732.5" y="-948.4" font-family="Helvetica,sans-Serif" font-size="12.00" fill="#000000">#m_sqr</text>
</g>
<!-- Node10&#45;&gt;Node3 -->
<g id="edge8" class="edge">
<title>Node10&#45;&gt;Node3</title>
<path fill="none" stroke="#404040" d="M451.6545,-681.4512C461.0067,-657.9735 471.5296,-633.3657 482.5,-611 493.4024,-588.773 506.4047,-565.501 519.1516,-543.976"/>
<polygon fill="none" stroke="#404040" points="519.2202,-543.8612 518.8661,-536.6588 525.3783,-533.5618 525.7324,-540.7642 519.2202,-543.8612"/>
<text text-anchor="middle" x="501.5" y="-614.4" font-family="Helvetica,sans-Serif" font-size="12.00" fill="#000000"> #m_data</text>
</g>
<!-- Node11 -->
<g id="node10" class="node">
<title>Node11</title>
<polygon fill="#ffffff" stroke="#bfbfbf" points="347,-1041.5 347,-1117.5 442,-1117.5 442,-1041.5 347,-1041.5"/>
<text text-anchor="start" x="355" y="-1103.9" font-family="Helvetica,sans-Serif" font-size="12.00" fill="#000000">tuple&lt; time_point_t,</text>
<text text-anchor="middle" x="394.5" y="-1090.9" font-family="Helvetica,sans-Serif" font-size="12.00" fill="#000000"> time_point_t &gt;</text>
<polyline fill="none" stroke="#bfbfbf" points="347,-1083.5 442,-1083.5 "/>
<text text-anchor="middle" x="394.5" y="-1069.9" font-family="Helvetica,sans-Serif" font-size="12.00" fill="#000000"> </text>
<polyline fill="none" stroke="#bfbfbf" points="347,-1062.5 442,-1062.5 "/>
<text text-anchor="middle" x="394.5" y="-1048.9" font-family="Helvetica,sans-Serif" font-size="12.00" fill="#000000"> </text>
</g>
<!-- Node11&#45;&gt;Node10 -->
<g id="edge10" class="edge">
<title>Node11&#45;&gt;Node10</title>
<path fill="none" stroke="#404040" d="M397.0941,-1041.2363C399.5206,-1005.4466 403.2704,-950.136 406.6691,-900.0055"/>
<polygon fill="none" stroke="#404040" points="406.6899,-899.6973 403.105,-893.4405 407.5017,-887.7248 411.0867,-893.9817 406.6899,-899.6973"/>
<text text-anchor="middle" x="422.5" y="-954.9" font-family="Helvetica,sans-Serif" font-size="12.00" fill="#000000"> #m_data</text>
</g>
<!-- Node12 -->
<g id="node11" class="node">
<title>Node12</title>
<polygon fill="#ffffff" stroke="#bfbfbf" points="294.5,-1048 294.5,-1111 328.5,-1111 328.5,-1048 294.5,-1048"/>
<text text-anchor="middle" x="311.5" y="-1097.4" font-family="Helvetica,sans-Serif" font-size="12.00" fill="#000000">bool</text>
<polyline fill="none" stroke="#bfbfbf" points="294.5,-1090 328.5,-1090 "/>
<text text-anchor="middle" x="311.5" y="-1076.4" font-family="Helvetica,sans-Serif" font-size="12.00" fill="#000000"> </text>
<polyline fill="none" stroke="#bfbfbf" points="294.5,-1069 328.5,-1069 "/>
<text text-anchor="middle" x="311.5" y="-1055.4" font-family="Helvetica,sans-Serif" font-size="12.00" fill="#000000"> </text>
</g>
<!-- Node12&#45;&gt;Node2 -->
<g id="edge29" class="edge">
<title>Node12&#45;&gt;Node2</title>
<path fill="none" stroke="#404040" d="M310.374,-1047.6124C308.1065,-933.2647 315.8056,-539.0457 516.5,-321 582.7112,-249.0644 683.2471,-195.4978 750.595,-165.0007"/>
<polygon fill="none" stroke="#404040" points="750.9784,-164.8297 754.828,-158.7321 761.9372,-159.9404 758.0876,-166.038 750.9784,-164.8297"/>
<text text-anchor="middle" x="407" y="-614.4" font-family="Helvetica,sans-Serif" font-size="12.00" fill="#000000"> #m_use_static_width</text>
</g>
<!-- Node12&#45;&gt;Node10 -->
<g id="edge11" class="edge">
<title>Node12&#45;&gt;Node10</title>
<path fill="none" stroke="#404040" d="M318.6926,-1047.8898C325.2464,-1020.4045 335.6853,-979.6634 347.5,-945 352.5845,-930.0823 358.3809,-914.5757 364.3875,-899.3404"/>
<polygon fill="none" stroke="#404040" points="364.5629,-898.9012 363.0735,-891.8456 369.0135,-887.757 370.5029,-894.8126 364.5629,-898.9012"/>
<text text-anchor="middle" x="373" y="-954.9" font-family="Helvetica,sans-Serif" font-size="12.00" fill="#000000"> #m_running</text>
</g>
<!-- Node13 -->
<g id="node12" class="node">
<title>Node13</title>
<polygon fill="#ffffff" stroke="#bfbfbf" points="743,-753 743,-816 792,-816 792,-753 743,-753"/>
<text text-anchor="middle" x="767.5" y="-802.4" font-family="Helvetica,sans-Serif" font-size="12.00" fill="#000000">uint16_t</text>
<polyline fill="none" stroke="#bfbfbf" points="743,-795 792,-795 "/>
<text text-anchor="middle" x="767.5" y="-781.4" font-family="Helvetica,sans-Serif" font-size="12.00" fill="#000000"> </text>
<polyline fill="none" stroke="#bfbfbf" points="743,-774 792,-774 "/>
<text text-anchor="middle" x="767.5" y="-760.4" font-family="Helvetica,sans-Serif" font-size="12.00" fill="#000000"> </text>
</g>
<!-- Node13&#45;&gt;Node3 -->
<g id="edge12" class="edge">
<title>Node13&#45;&gt;Node3</title>
<path fill="none" stroke="#404040" d="M764.2872,-752.7192C760.2772,-722.8126 751.6009,-677.4505 733.5,-642 708.0228,-592.103 666.4179,-544.3735 632.1568,-509.8956"/>
<polygon fill="none" stroke="#404040" points="632.1363,-509.8753 625.0599,-508.488 623.6189,-501.4223 630.6953,-502.8097 632.1363,-509.8753"/>
<text text-anchor="middle" x="750" y="-614.4" font-family="Helvetica,sans-Serif" font-size="12.00" fill="#000000"> #m_precision</text>
</g>
<!-- Node14 -->
<g id="node13" class="node">
<title>Node14</title>
<polygon fill="#ffffff" stroke="#bfbfbf" points="482,-753 482,-816 523,-816 523,-753 482,-753"/>
<text text-anchor="middle" x="502.5" y="-802.4" font-family="Helvetica,sans-Serif" font-size="12.00" fill="#000000">mutex</text>
<polyline fill="none" stroke="#bfbfbf" points="482,-795 523,-795 "/>
<text text-anchor="middle" x="502.5" y="-781.4" font-family="Helvetica,sans-Serif" font-size="12.00" fill="#000000"> </text>
<polyline fill="none" stroke="#bfbfbf" points="482,-774 523,-774 "/>
<text text-anchor="middle" x="502.5" y="-760.4" font-family="Helvetica,sans-Serif" font-size="12.00" fill="#000000"> </text>
</g>
<!-- Node14&#45;&gt;Node3 -->
<g id="edge13" class="edge">
<title>Node14&#45;&gt;Node3</title>
<path fill="none" stroke="#404040" d="M505.0065,-752.8639C508.1696,-717.86 514.5627,-659.9278 525.5,-611 525.9839,-608.8352 526.4847,-606.6572 527.0008,-604.4689"/>
<polygon fill="none" stroke="#404040" points="527.0331,-604.3374 524.5816,-597.5558 529.8987,-592.6846 532.3501,-599.4662 527.0331,-604.3374"/>
<text text-anchor="middle" x="548" y="-614.4" font-family="Helvetica,sans-Serif" font-size="12.00" fill="#000000"> #m_mutex</text>
</g>
<!-- Node15 -->
<g id="node14" class="node">
<title>Node15</title>
<polygon fill="#ffffff" stroke="#bfbfbf" points="60.5,-753 60.5,-816 172.5,-816 172.5,-753 60.5,-753"/>
<text text-anchor="middle" x="116.5" y="-802.4" font-family="Helvetica,sans-Serif" font-size="12.00" fill="#000000">std::vector&lt; fieldpos_t &gt;</text>
<polyline fill="none" stroke="#bfbfbf" points="60.5,-795 172.5,-795 "/>
<text text-anchor="middle" x="116.5" y="-781.4" font-family="Helvetica,sans-Serif" font-size="12.00" fill="#000000"> </text>
<polyline fill="none" stroke="#bfbfbf" points="60.5,-774 172.5,-774 "/>
<text text-anchor="middle" x="116.5" y="-760.4" font-family="Helvetica,sans-Serif" font-size="12.00" fill="#000000"> </text>
</g>
<!-- Node15&#45;&gt;Node3 -->
<g id="edge14" class="edge">
<title>Node15&#45;&gt;Node3</title>
<path fill="none" stroke="#404040" d="M106.6082,-752.9667C96.9074,-715.3956 87.5069,-652.5044 117.5,-611 164.7554,-545.608 399.8735,-491.393 513.2094,-468.5882"/>
<polygon fill="none" stroke="#404040" points="513.3292,-468.5644 518.4328,-463.4699 525.0983,-466.2214 519.9948,-471.3159 513.3292,-468.5644"/>
<text text-anchor="middle" x="161" y="-614.4" font-family="Helvetica,sans-Serif" font-size="12.00" fill="#000000"> #m_format_positions</text>
</g>
<!-- Node16 -->
<g id="node15" class="node">
<title>Node16</title>
<polygon fill="#ffffff" stroke="#bfbfbf" points="97,-1048 97,-1111 152,-1111 152,-1048 97,-1048"/>
<text text-anchor="middle" x="124.5" y="-1097.4" font-family="Helvetica,sans-Serif" font-size="12.00" fill="#000000">fieldpos_t</text>
<polyline fill="none" stroke="#bfbfbf" points="97,-1090 152,-1090 "/>
<text text-anchor="middle" x="124.5" y="-1076.4" font-family="Helvetica,sans-Serif" font-size="12.00" fill="#000000"> </text>
<polyline fill="none" stroke="#bfbfbf" points="97,-1069 152,-1069 "/>
<text text-anchor="middle" x="124.5" y="-1055.4" font-family="Helvetica,sans-Serif" font-size="12.00" fill="#000000"> </text>
</g>
<!-- Node16&#45;&gt;Node15 -->
<g id="edge15" class="edge">
<title>Node16&#45;&gt;Node15</title>
<path fill="none" stroke="#404040" d="M123.6439,-1047.9298C122.2101,-995.0599 119.3205,-888.5076 117.6899,-828.3791"/>
<polygon fill="none" stroke="#404040" points="117.6875,-828.2846 113.5262,-822.3953 117.3621,-816.2891 121.5233,-822.1784 117.6875,-828.2846"/>
<text text-anchor="middle" x="144" y="-954.9" font-family="Helvetica,sans-Serif" font-size="12.00" fill="#000000"> +elements</text>
</g>
<!-- Node17 -->
<g id="node16" class="node">
<title>Node17</title>
<g id="a_node16"><a xlink:title="STL class. ">
<polygon fill="#ffffff" stroke="#bfbfbf" points="0,-1048 0,-1111 79,-1111 79,-1048 0,-1048"/>
<text text-anchor="middle" x="39.5" y="-1097.4" font-family="Helvetica,sans-Serif" font-size="12.00" fill="#000000">std::vector&lt; T &gt;</text>
<polyline fill="none" stroke="#bfbfbf" points="0,-1090 79,-1090 "/>
<text text-anchor="middle" x="39.5" y="-1076.4" font-family="Helvetica,sans-Serif" font-size="12.00" fill="#000000"> </text>
<polyline fill="none" stroke="#bfbfbf" points="0,-1069 79,-1069 "/>
<text text-anchor="middle" x="39.5" y="-1055.4" font-family="Helvetica,sans-Serif" font-size="12.00" fill="#000000"> </text>
</a>
</g>
</g>
<!-- Node17&#45;&gt;Node15 -->
<g id="edge16" class="edge">
<title>Node17&#45;&gt;Node15</title>
<path fill="none" stroke="#ffa500" d="M44.0417,-1037.7541C47.4367,-1010.998 52.824,-975.6628 60.5,-945 71.9309,-899.3374 90.8563,-848.2706 103.5001,-816.2594"/>
<polygon fill="#ffa500" stroke="#ffa500" points="40.5378,-1037.5729 42.7944,-1047.9247 47.4858,-1038.4251 40.5378,-1037.5729"/>
<text text-anchor="middle" x="89" y="-954.9" font-family="Helvetica,sans-Serif" font-size="12.00" fill="#000000"> &lt; fieldpos_t &gt;</text>
</g>
<!-- Node18 -->
<g id="node17" class="node">
<title>Node18</title>
<polygon fill="#ffffff" stroke="#bfbfbf" points="70,-1330 70,-1393 99,-1393 99,-1330 70,-1330"/>
<text text-anchor="middle" x="84.5" y="-1379.4" font-family="Helvetica,sans-Serif" font-size="12.00" fill="#000000">T</text>
<polyline fill="none" stroke="#bfbfbf" points="70,-1372 99,-1372 "/>
<text text-anchor="middle" x="84.5" y="-1358.4" font-family="Helvetica,sans-Serif" font-size="12.00" fill="#000000"> </text>
<polyline fill="none" stroke="#bfbfbf" points="70,-1351 99,-1351 "/>
<text text-anchor="middle" x="84.5" y="-1337.4" font-family="Helvetica,sans-Serif" font-size="12.00" fill="#000000"> </text>
</g>
<!-- Node18&#45;&gt;Node17 -->
<g id="edge17" class="edge">
<title>Node18&#45;&gt;Node17</title>
<path fill="none" stroke="#404040" d="M79.4689,-1329.9719C71.4136,-1279.4917 55.6012,-1180.4009 46.4651,-1123.1479"/>
<polygon fill="none" stroke="#404040" points="46.4586,-1123.1066 41.563,-1117.8119 44.5675,-1111.2565 49.4631,-1116.5512 46.4586,-1123.1066"/>
<text text-anchor="middle" x="85" y="-1204.4" font-family="Helvetica,sans-Serif" font-size="12.00" fill="#000000"> +elements</text>
</g>
<!-- Node21 -->
<g id="node20" class="node">
<title>Node21</title>
<g id="a_node20"><a xlink:title="STL class. ">
<polygon fill="#ffffff" stroke="#bfbfbf" points="170,-1041.5 170,-1117.5 267,-1117.5 267,-1041.5 170,-1041.5"/>
<text text-anchor="start" x="178" y="-1103.9" font-family="Helvetica,sans-Serif" font-size="12.00" fill="#000000">std::unordered_map</text>
<text text-anchor="middle" x="218.5" y="-1090.9" font-family="Helvetica,sans-Serif" font-size="12.00" fill="#000000">&lt; K, T &gt;</text>
<polyline fill="none" stroke="#bfbfbf" points="170,-1083.5 267,-1083.5 "/>
<text text-anchor="middle" x="218.5" y="-1069.9" font-family="Helvetica,sans-Serif" font-size="12.00" fill="#000000"> </text>
<polyline fill="none" stroke="#bfbfbf" points="170,-1062.5 267,-1062.5 "/>
<text text-anchor="middle" x="218.5" y="-1048.9" font-family="Helvetica,sans-Serif" font-size="12.00" fill="#000000"> </text>
</a>
</g>
</g>
<!-- Node18&#45;&gt;Node21 -->
<g id="edge22" class="edge">
<title>Node18&#45;&gt;Node21</title>
<path fill="none" stroke="#404040" d="M99.0954,-1330.7842C122.1794,-1282.2045 167.3286,-1187.1892 195.0124,-1128.9292"/>
<polygon fill="none" stroke="#404040" points="195.1542,-1128.6306 194.1165,-1121.4945 200.3045,-1117.792 201.3422,-1124.928 195.1542,-1128.6306"/>
<text text-anchor="middle" x="187" y="-1204.4" font-family="Helvetica,sans-Serif" font-size="12.00" fill="#000000"> +elements</text>
</g>
<!-- Node19 -->
<g id="node18" class="node">
<title>Node19</title>
<g id="a_node18"><a xlink:title="STL class. ">
<polygon fill="#ffffff" stroke="#bfbfbf" points="928.5,-753 928.5,-816 984.5,-816 984.5,-753 928.5,-753"/>
<text text-anchor="middle" x="956.5" y="-802.4" font-family="Helvetica,sans-Serif" font-size="12.00" fill="#000000">std::string</text>
<polyline fill="none" stroke="#bfbfbf" points="928.5,-795 984.5,-795 "/>
<text text-anchor="middle" x="956.5" y="-781.4" font-family="Helvetica,sans-Serif" font-size="12.00" fill="#000000"> </text>
<polyline fill="none" stroke="#bfbfbf" points="928.5,-774 984.5,-774 "/>
<text text-anchor="middle" x="956.5" y="-760.4" font-family="Helvetica,sans-Serif" font-size="12.00" fill="#000000"> </text>
</a>
</g>
</g>
<!-- Node19&#45;&gt;Node2 -->
<g id="edge30" class="edge">
<title>Node19&#45;&gt;Node2</title>
<path fill="none" stroke="#404040" d="M964.7174,-752.7109C972.5936,-717.8185 982.2302,-660.2124 974.5,-611 956.7706,-498.1308 916.7066,-375.4994 882.0233,-283.1149"/>
<polygon fill="none" stroke="#404040" points="881.9574,-282.9404 876.094,-278.7427 877.7136,-271.7158 883.577,-275.9135 881.9574,-282.9404"/>
<text text-anchor="middle" x="1004.5" y="-466.9" font-family="Helvetica,sans-Serif" font-size="12.00" fill="#000000"> +default_format</text>
<text text-anchor="middle" x="1004.5" y="-453.9" font-family="Helvetica,sans-Serif" font-size="12.00" fill="#000000">#m_begin</text>
<text text-anchor="middle" x="1004.5" y="-440.9" font-family="Helvetica,sans-Serif" font-size="12.00" fill="#000000">#m_close</text>
</g>
<!-- Node19&#45;&gt;Node3 -->
<g id="edge18" class="edge">
<title>Node19&#45;&gt;Node3</title>
<path fill="none" stroke="#404040" d="M951.1045,-752.9504C943.1645,-715.0728 925.0133,-651.589 887.5,-611 818.3342,-536.1633 704.8676,-493.1729 635.2184,-472.496"/>
<polygon fill="none" stroke="#404040" points="635.1144,-472.4659 628.2389,-474.64 623.5876,-469.1296 630.4631,-466.9555 635.1144,-472.4659"/>
<text text-anchor="middle" x="934" y="-614.4" font-family="Helvetica,sans-Serif" font-size="12.00" fill="#000000"> #m_format_string</text>
</g>
<!-- Node20 -->
<g id="node19" class="node">
<title>Node20</title>
<g id="a_node19"><a xlink:title="STL class. ">
<polygon fill="#ffffff" stroke="#bfbfbf" points="913,-1041.5 913,-1117.5 1000,-1117.5 1000,-1041.5 913,-1041.5"/>
<text text-anchor="start" x="921" y="-1103.9" font-family="Helvetica,sans-Serif" font-size="12.00" fill="#000000">std::basic_string&lt;</text>
<text text-anchor="middle" x="956.5" y="-1090.9" font-family="Helvetica,sans-Serif" font-size="12.00" fill="#000000"> char &gt;</text>
<polyline fill="none" stroke="#bfbfbf" points="913,-1083.5 1000,-1083.5 "/>
<text text-anchor="middle" x="956.5" y="-1069.9" font-family="Helvetica,sans-Serif" font-size="12.00" fill="#000000"> </text>
<polyline fill="none" stroke="#bfbfbf" points="913,-1062.5 1000,-1062.5 "/>
<text text-anchor="middle" x="956.5" y="-1048.9" font-family="Helvetica,sans-Serif" font-size="12.00" fill="#000000"> </text>
</a>
</g>
</g>
<!-- Node20&#45;&gt;Node19 -->
<g id="edge19" class="edge">
<title>Node20&#45;&gt;Node19</title>
<path fill="none" stroke="#191970" d="M956.5,-1031.1394C956.5,-970.4462 956.5,-868.0557 956.5,-816.3762"/>
<polygon fill="none" stroke="#191970" points="953.0001,-1031.2363 956.5,-1041.2363 960.0001,-1031.2364 953.0001,-1031.2363"/>
</g>
<!-- Node21&#45;&gt;Node3 -->
<g id="edge20" class="edge">
<title>Node21&#45;&gt;Node3</title>
<path fill="none" stroke="#404040" d="M213.6193,-1041.3729C204.7579,-955.8302 194.8552,-745.5839 289.5,-611 343.2905,-534.5105 447.4294,-492.4168 513.8259,-472.3053"/>
<polygon fill="none" stroke="#404040" points="513.8447,-472.2999 518.4741,-466.771 525.3583,-468.9178 520.7288,-474.4467 513.8447,-472.2999"/>
<text text-anchor="middle" x="300" y="-781.4" font-family="Helvetica,sans-Serif" font-size="12.00" fill="#000000"> &#45;w_mutex_map</text>
</g>
<!-- Node22 -->
<g id="node21" class="node">
<title>Node22</title>
<polygon fill="#ffffff" stroke="#bfbfbf" points="204,-1330 204,-1393 233,-1393 233,-1330 204,-1330"/>
<text text-anchor="middle" x="218.5" y="-1379.4" font-family="Helvetica,sans-Serif" font-size="12.00" fill="#000000">K</text>
<polyline fill="none" stroke="#bfbfbf" points="204,-1372 233,-1372 "/>
<text text-anchor="middle" x="218.5" y="-1358.4" font-family="Helvetica,sans-Serif" font-size="12.00" fill="#000000"> </text>
<polyline fill="none" stroke="#bfbfbf" points="204,-1351 233,-1351 "/>
<text text-anchor="middle" x="218.5" y="-1337.4" font-family="Helvetica,sans-Serif" font-size="12.00" fill="#000000"> </text>
</g>
<!-- Node22&#45;&gt;Node21 -->
<g id="edge21" class="edge">
<title>Node22&#45;&gt;Node21</title>
<path fill="none" stroke="#404040" d="M218.5,-1329.9719C218.5,-1281.3663 218.5,-1187.6934 218.5,-1129.6947"/>
<polygon fill="none" stroke="#404040" points="218.5001,-1129.5358 214.5,-1123.5358 218.5,-1117.5358 222.5,-1123.5357 218.5001,-1129.5358"/>
<text text-anchor="middle" x="232" y="-1204.4" font-family="Helvetica,sans-Serif" font-size="12.00" fill="#000000"> +keys</text>
</g>
<!-- Node23 -->
<g id="node22" class="node">
<title>Node23</title>
<g id="a_node22"><a xlink:title="STL class. ">
<polygon fill="#ffffff" stroke="#bfbfbf" points="541.5,-753 541.5,-816 607.5,-816 607.5,-753 541.5,-753"/>
<text text-anchor="middle" x="574.5" y="-802.4" font-family="Helvetica,sans-Serif" font-size="12.00" fill="#000000">std::ostream</text>
<polyline fill="none" stroke="#bfbfbf" points="541.5,-795 607.5,-795 "/>
<text text-anchor="middle" x="574.5" y="-781.4" font-family="Helvetica,sans-Serif" font-size="12.00" fill="#000000"> </text>
<polyline fill="none" stroke="#bfbfbf" points="541.5,-774 607.5,-774 "/>
<text text-anchor="middle" x="574.5" y="-760.4" font-family="Helvetica,sans-Serif" font-size="12.00" fill="#000000"> </text>
</a>
</g>
</g>
<!-- Node23&#45;&gt;Node3 -->
<g id="edge23" class="edge">
<title>Node23&#45;&gt;Node3</title>
<path fill="none" stroke="#404040" d="M574.5,-752.8004C574.5,-718.1787 574.5,-660.2373 574.5,-604.7661"/>
<polygon fill="none" stroke="#404040" points="574.5001,-604.6055 570.5,-598.6055 574.5,-592.6055 578.5,-598.6055 574.5001,-604.6055"/>
<text text-anchor="middle" x="589.5" y="-614.4" font-family="Helvetica,sans-Serif" font-size="12.00" fill="#000000"> #m_os</text>
</g>
<!-- Node24 -->
<g id="node23" class="node">
<title>Node24</title>
<g id="a_node23"><a xlink:title="STL class. ">
<polygon fill="#ffffff" stroke="#bfbfbf" points="460.5,-1041.5 460.5,-1117.5 552.5,-1117.5 552.5,-1041.5 460.5,-1041.5"/>
<text text-anchor="start" x="468.5" y="-1103.9" font-family="Helvetica,sans-Serif" font-size="12.00" fill="#000000">std::basic_ostream</text>
<text text-anchor="middle" x="506.5" y="-1090.9" font-family="Helvetica,sans-Serif" font-size="12.00" fill="#000000">&lt; char &gt;</text>
<polyline fill="none" stroke="#bfbfbf" points="460.5,-1083.5 552.5,-1083.5 "/>
<text text-anchor="middle" x="506.5" y="-1069.9" font-family="Helvetica,sans-Serif" font-size="12.00" fill="#000000"> </text>
<polyline fill="none" stroke="#bfbfbf" points="460.5,-1062.5 552.5,-1062.5 "/>
<text text-anchor="middle" x="506.5" y="-1048.9" font-family="Helvetica,sans-Serif" font-size="12.00" fill="#000000"> </text>
</a>
</g>
</g>
<!-- Node24&#45;&gt;Node23 -->
<g id="edge24" class="edge">
<title>Node24&#45;&gt;Node23</title>
<path fill="none" stroke="#191970" d="M517.6475,-1031.1394C531.6378,-970.4462 555.2397,-868.0557 567.1523,-816.3762"/>
<polygon fill="none" stroke="#191970" points="514.1558,-1030.7057 515.3201,-1041.2363 520.9769,-1032.2781 514.1558,-1030.7057"/>
</g>
<!-- Node25 -->
<g id="node24" class="node">
<title>Node25</title>
<g id="a_node24"><a xlink:title="STL class. ">
<polygon fill="#ffffff" stroke="#bfbfbf" points="448.5,-1330 448.5,-1393 554.5,-1393 554.5,-1330 448.5,-1330"/>
<text text-anchor="middle" x="501.5" y="-1379.4" font-family="Helvetica,sans-Serif" font-size="12.00" fill="#000000">std::basic_ios&lt; Char &gt;</text>
<polyline fill="none" stroke="#bfbfbf" points="448.5,-1372 554.5,-1372 "/>
<text text-anchor="middle" x="501.5" y="-1358.4" font-family="Helvetica,sans-Serif" font-size="12.00" fill="#000000"> </text>
<polyline fill="none" stroke="#bfbfbf" points="448.5,-1351 554.5,-1351 "/>
<text text-anchor="middle" x="501.5" y="-1337.4" font-family="Helvetica,sans-Serif" font-size="12.00" fill="#000000"> </text>
</a>
</g>
</g>
<!-- Node25&#45;&gt;Node24 -->
<g id="edge25" class="edge">
<title>Node25&#45;&gt;Node24</title>
<path fill="none" stroke="#191970" d="M502.2368,-1319.9464C503.2044,-1265.3703 504.89,-1170.3034 505.8256,-1117.5358"/>
<polygon fill="none" stroke="#191970" points="498.7369,-1319.9114 502.059,-1329.9719 505.7358,-1320.0355 498.7369,-1319.9114"/>
</g>
<!-- Node26 -->
<g id="node25" class="node">
<title>Node26</title>
<g id="a_node25"><a xlink:title="STL class. ">
<polygon fill="#ffffff" stroke="#bfbfbf" points="466.5,-1540.5 466.5,-1603.5 536.5,-1603.5 536.5,-1540.5 466.5,-1540.5"/>
<text text-anchor="middle" x="501.5" y="-1589.9" font-family="Helvetica,sans-Serif" font-size="12.00" fill="#000000">std::ios_base</text>
<polyline fill="none" stroke="#bfbfbf" points="466.5,-1582.5 536.5,-1582.5 "/>
<text text-anchor="middle" x="501.5" y="-1568.9" font-family="Helvetica,sans-Serif" font-size="12.00" fill="#000000"> </text>
<polyline fill="none" stroke="#bfbfbf" points="466.5,-1561.5 536.5,-1561.5 "/>
<text text-anchor="middle" x="501.5" y="-1547.9" font-family="Helvetica,sans-Serif" font-size="12.00" fill="#000000"> </text>
</a>
</g>
</g>
<!-- Node26&#45;&gt;Node25 -->
<g id="edge26" class="edge">
<title>Node26&#45;&gt;Node25</title>
<path fill="none" stroke="#191970" d="M501.5,-1530.4408C501.5,-1490.1254 501.5,-1429.8284 501.5,-1393.2294"/>
<polygon fill="none" stroke="#191970" points="498.0001,-1530.486 501.5,-1540.486 505.0001,-1530.4861 498.0001,-1530.486"/>
</g>
<!-- Node27 -->
<g id="node26" class="node">
<title>Node27</title>
<polygon fill="#ffffff" stroke="#bfbfbf" points="1081.5,-425.5 1081.5,-488.5 1153.5,-488.5 1153.5,-425.5 1081.5,-425.5"/>
<text text-anchor="middle" x="1117.5" y="-474.9" font-family="Helvetica,sans-Serif" font-size="12.00" fill="#000000">static uint16_t</text>
<polyline fill="none" stroke="#bfbfbf" points="1081.5,-467.5 1153.5,-467.5 "/>
<text text-anchor="middle" x="1117.5" y="-453.9" font-family="Helvetica,sans-Serif" font-size="12.00" fill="#000000"> </text>
<polyline fill="none" stroke="#bfbfbf" points="1081.5,-446.5 1153.5,-446.5 "/>
<text text-anchor="middle" x="1117.5" y="-432.9" font-family="Helvetica,sans-Serif" font-size="12.00" fill="#000000"> </text>
</g>
<!-- Node27&#45;&gt;Node2 -->
<g id="edge31" class="edge">
<title>Node27&#45;&gt;Node2</title>
<path fill="none" stroke="#404040" d="M1111.2883,-425.3748C1104.3556,-396.1091 1090.9095,-352.4971 1067.5,-321 1020.6568,-257.9732 946.5317,-206.345 891.882,-173.7974"/>
<polygon fill="none" stroke="#404040" points="891.5754,-173.6176 884.3762,-174.031 881.2256,-167.5446 888.4248,-167.1311 891.5754,-173.6176"/>
<text text-anchor="middle" x="1089.5" y="-293.4" font-family="Helvetica,sans-Serif" font-size="12.00" fill="#000000"> +default_precision</text>
</g>
</g>
</svg>
