<?xml version="1.0" encoding="UTF-8" standalone="no"?>
<!DOCTYPE svg PUBLIC "-//W3C//DTD SVG 1.1//EN"
 "http://www.w3.org/Graphics/SVG/1.1/DTD/svg11.dtd">
<!-- Generated by graphviz version 2.40.1 (20161225.0304)
 -->
<!-- Title: NAME_TIM::util::details::base_timer Pages: 1 -->
<!--zoomable 1213 -->
<svg id="main" version="1.1" xmlns="http://www.w3.org/2000/svg" xmlns:xlink="http://www.w3.org/1999/xlink" xml:space="preserve" onload="init(evt)">
<style type="text/css"><![CDATA[
.edge:hover path { stroke: red; }
.edge:hover polygon { stroke: red; fill: red; }
]]></style>
<script type="text/javascript"><![CDATA[
var edges = document.getElementsByTagName('g');
if (edges && edges.length) {
  for (var i=0;i<edges.length;i++) {
    if (edges[i].id.substr(0,4)=='edge') {
      edges[i].setAttribute('class','edge');
    }
  }
}
]]></script>
        <defs>
                <circle id="rim" cx="0" cy="0" r="7"/>
                <circle id="rim2" cx="0" cy="0" r="3.5"/>
                <g id="zoomPlus">
                        <use xlink:href="#rim" fill="#404040">
                                <set attributeName="fill" to="#808080" begin="zoomplus.mouseover" end="zoomplus.mouseout"/>
                        </use>
                        <path d="M-4,0h8M0,-4v8" fill="none" stroke="white" stroke-width="1.5" pointer-events="none"/>
                </g>
                <g id="zoomMin">
                        <use xlink:href="#rim" fill="#404040">
                                <set attributeName="fill" to="#808080" begin="zoomminus.mouseover" end="zoomminus.mouseout"/>
                        </use>
                        <path d="M-4,0h8" fill="none" stroke="white" stroke-width="1.5" pointer-events="none"/>
                </g>
                <g id="dirArrow">
                        <path fill="none" stroke="white" stroke-width="1.5" d="M0,-3.0v7 M-2.5,-0.5L0,-3.0L2.5,-0.5"/>
                </g>
               <g id="resetDef">
                       <use xlink:href="#rim2" fill="#404040">
                               <set attributeName="fill" to="#808080" begin="reset.mouseover" end="reset.mouseout"/>
                       </use>
               </g>
        </defs>

<script type="text/javascript">
var viewWidth = 996;
var viewHeight = 1213;
var sectionId = 'dynsection-1';
</script>
<script xlink:href="../../svgpan.js"/>
<svg id="graph" class="graph">
<g id="viewport">
<title>NAME_TIM::util::details::base_timer</title>
<polygon fill="#ffffff" stroke="transparent" points="-4,4 -4,-1209 991.5192,-1209 991.5192,4 -4,4"/>
<!-- Node2 -->
<g id="node1" class="node">
<title>Node2</title>
<polygon fill="#bfbfbf" stroke="#000000" points="376.0192,-.5 376.0192,-297.5 487.0192,-297.5 487.0192,-.5 376.0192,-.5"/>
<text text-anchor="start" x="384.0192" y="-283.9" font-family="Helvetica,sans-Serif" font-size="12.00" fill="#000000">NAME_TIM::util::details</text>
<text text-anchor="middle" x="431.5192" y="-270.9" font-family="Helvetica,sans-Serif" font-size="12.00" fill="#000000">::base_timer</text>
<polyline fill="none" stroke="#000000" points="376.0192,-263.5 487.0192,-263.5 "/>
<text text-anchor="middle" x="431.5192" y="-249.9" font-family="Helvetica,sans-Serif" font-size="12.00" fill="#000000"> </text>
<polyline fill="none" stroke="#000000" points="376.0192,-242.5 487.0192,-242.5 "/>
<text text-anchor="start" x="384.0192" y="-228.9" font-family="Helvetica,sans-Serif" font-size="12.00" fill="#000000">+ base_timer()</text>
<text text-anchor="start" x="384.0192" y="-215.9" font-family="Helvetica,sans-Serif" font-size="12.00" fill="#000000">+ ~base_timer()</text>
<text text-anchor="start" x="384.0192" y="-202.9" font-family="Helvetica,sans-Serif" font-size="12.00" fill="#000000">+ base_timer()</text>
<text text-anchor="start" x="384.0192" y="-189.9" font-family="Helvetica,sans-Serif" font-size="12.00" fill="#000000">+ operator=()</text>
<text text-anchor="start" x="384.0192" y="-176.9" font-family="Helvetica,sans-Serif" font-size="12.00" fill="#000000">+ start()</text>
<text text-anchor="start" x="384.0192" y="-163.9" font-family="Helvetica,sans-Serif" font-size="12.00" fill="#000000">+ stop()</text>
<text text-anchor="start" x="384.0192" y="-150.9" font-family="Helvetica,sans-Serif" font-size="12.00" fill="#000000">+ is_valid()</text>
<text text-anchor="start" x="384.0192" y="-137.9" font-family="Helvetica,sans-Serif" font-size="12.00" fill="#000000">+ real_elapsed()</text>
<text text-anchor="start" x="384.0192" y="-124.9" font-family="Helvetica,sans-Serif" font-size="12.00" fill="#000000">+ system_elapsed()</text>
<text text-anchor="start" x="384.0192" y="-111.9" font-family="Helvetica,sans-Serif" font-size="12.00" fill="#000000">+ user_elapsed()</text>
<text text-anchor="start" x="384.0192" y="-98.9" font-family="Helvetica,sans-Serif" font-size="12.00" fill="#000000">and 12 more...</text>
<text text-anchor="start" x="384.0192" y="-85.9" font-family="Helvetica,sans-Serif" font-size="12.00" fill="#000000">+ get_instance_count()</text>
<text text-anchor="start" x="384.0192" y="-72.9" font-family="Helvetica,sans-Serif" font-size="12.00" fill="#000000">+ get_instance_hash()</text>
<text text-anchor="start" x="384.0192" y="-59.9" font-family="Helvetica,sans-Serif" font-size="12.00" fill="#000000"># parse_format()</text>
<text text-anchor="start" x="384.0192" y="-46.9" font-family="Helvetica,sans-Serif" font-size="12.00" fill="#000000"># compose()</text>
<text text-anchor="start" x="384.0192" y="-33.9" font-family="Helvetica,sans-Serif" font-size="12.00" fill="#000000"># m_timer()</text>
<text text-anchor="start" x="384.0192" y="-20.9" font-family="Helvetica,sans-Serif" font-size="12.00" fill="#000000"># get_accum()</text>
<text text-anchor="start" x="384.0192" y="-7.9" font-family="Helvetica,sans-Serif" font-size="12.00" fill="#000000"># get_accum()</text>
</g>
<!-- Node3 -->
<g id="node2" class="node">
<title>Node3</title>
<polygon fill="#ffffff" stroke="#bfbfbf" points="13.0192,-675 13.0192,-738 62.0192,-738 62.0192,-675 13.0192,-675"/>
<text text-anchor="middle" x="37.5192" y="-724.4" font-family="Helvetica,sans-Serif" font-size="12.00" fill="#000000">uint64_t</text>
<polyline fill="none" stroke="#bfbfbf" points="13.0192,-717 62.0192,-717 "/>
<text text-anchor="middle" x="37.5192" y="-703.4" font-family="Helvetica,sans-Serif" font-size="12.00" fill="#000000"> </text>
<polyline fill="none" stroke="#bfbfbf" points="13.0192,-696 62.0192,-696 "/>
<text text-anchor="middle" x="37.5192" y="-682.4" font-family="Helvetica,sans-Serif" font-size="12.00" fill="#000000"> </text>
</g>
<!-- Node3&#45;&gt;Node2 -->
<g id="edge1" class="edge">
<title>Node3&#45;&gt;Node2</title>
<path fill="none" stroke="#404040" d="M27.3098,-674.946C7.8612,-608.5254 -27.0973,-451.7892 37.5192,-347 109.0445,-231.0068 271.6003,-180.5903 364.0091,-160.6369"/>
<polygon fill="none" stroke="#404040" points="364.2704,-160.5824 369.3265,-155.4408 376.0172,-158.1303 370.9612,-163.272 364.2704,-160.5824"/>
<text text-anchor="middle" x="74.5192" y="-460.4" font-family="Helvetica,sans-Serif" font-size="12.00" fill="#000000"> &#45;f_instance_count</text>
<text text-anchor="middle" x="74.5192" y="-447.4" font-family="Helvetica,sans-Serif" font-size="12.00" fill="#000000">&#45;f_instance_hash</text>
</g>
<!-- Node12 -->
<g id="node11" class="node">
<title>Node12</title>
<g id="a_node11"><a xlink:href="../../d7/db7/class_n_a_m_e___t_i_m_1_1util_1_1details_1_1base__timer__delta.html" target="_top" xlink:title="{NAME_TIM::util::details\l::base_timer_delta\n||+ base_timer_delta()\l+ reset()\l+ operator+=()\l+ operator+=()\l+ get_sum()\l+ get_sqr()\l+ size()\l+ rss()\l+ rss()\l# compute()\l# compute_sum()\l# compute_sqr()\l}">
<polygon fill="#ffffff" stroke="#000000" points="247.0192,-347.5 247.0192,-566.5 358.0192,-566.5 358.0192,-347.5 247.0192,-347.5"/>
<text text-anchor="start" x="255.0192" y="-552.9" font-family="Helvetica,sans-Serif" font-size="12.00" fill="#000000">NAME_TIM::util::details</text>
<text text-anchor="middle" x="302.5192" y="-539.9" font-family="Helvetica,sans-Serif" font-size="12.00" fill="#000000">::base_timer_delta</text>
<polyline fill="none" stroke="#000000" points="247.0192,-532.5 358.0192,-532.5 "/>
<text text-anchor="middle" x="302.5192" y="-518.9" font-family="Helvetica,sans-Serif" font-size="12.00" fill="#000000"> </text>
<polyline fill="none" stroke="#000000" points="247.0192,-511.5 358.0192,-511.5 "/>
<text text-anchor="start" x="255.0192" y="-497.9" font-family="Helvetica,sans-Serif" font-size="12.00" fill="#000000">+ base_timer_delta()</text>
<text text-anchor="start" x="255.0192" y="-484.9" font-family="Helvetica,sans-Serif" font-size="12.00" fill="#000000">+ reset()</text>
<text text-anchor="start" x="255.0192" y="-471.9" font-family="Helvetica,sans-Serif" font-size="12.00" fill="#000000">+ operator+=()</text>
<text text-anchor="start" x="255.0192" y="-458.9" font-family="Helvetica,sans-Serif" font-size="12.00" fill="#000000">+ operator+=()</text>
<text text-anchor="start" x="255.0192" y="-445.9" font-family="Helvetica,sans-Serif" font-size="12.00" fill="#000000">+ get_sum()</text>
<text text-anchor="start" x="255.0192" y="-432.9" font-family="Helvetica,sans-Serif" font-size="12.00" fill="#000000">+ get_sqr()</text>
<text text-anchor="start" x="255.0192" y="-419.9" font-family="Helvetica,sans-Serif" font-size="12.00" fill="#000000">+ size()</text>
<text text-anchor="start" x="255.0192" y="-406.9" font-family="Helvetica,sans-Serif" font-size="12.00" fill="#000000">+ rss()</text>
<text text-anchor="start" x="255.0192" y="-393.9" font-family="Helvetica,sans-Serif" font-size="12.00" fill="#000000">+ rss()</text>
<text text-anchor="start" x="255.0192" y="-380.9" font-family="Helvetica,sans-Serif" font-size="12.00" fill="#000000"># compute()</text>
<text text-anchor="start" x="255.0192" y="-367.9" font-family="Helvetica,sans-Serif" font-size="12.00" fill="#000000"># compute_sum()</text>
<text text-anchor="start" x="255.0192" y="-354.9" font-family="Helvetica,sans-Serif" font-size="12.00" fill="#000000"># compute_sqr()</text>
</a>
</g>
</g>
<!-- Node3&#45;&gt;Node12 -->
<g id="edge11" class="edge">
<title>Node3&#45;&gt;Node12</title>
<path fill="none" stroke="#404040" d="M46.7254,-674.9567C52.4588,-659.6254 61.1425,-641.7968 73.5192,-629 103.6429,-597.8537 119.8,-599.8147 160.5192,-585 193.5461,-572.984 209.191,-587.8009 237.5192,-567 237.6198,-566.9262 237.7202,-566.8521 237.8205,-566.7778"/>
<polygon fill="none" stroke="#404040" points="237.5602,-566.9946 239.6126,-560.0817 246.7831,-559.3174 244.7307,-566.2303 237.5602,-566.9946"/>
<text text-anchor="middle" x="177.0192" y="-594.9" font-family="Helvetica,sans-Serif" font-size="12.00" fill="#000000"> #m_lap</text>
</g>
<!-- Node4 -->
<g id="node3" class="node">
<title>Node4</title>
<polygon fill="#ffffff" stroke="#bfbfbf" points="121.0192,-425.5 121.0192,-488.5 170.0192,-488.5 170.0192,-425.5 121.0192,-425.5"/>
<text text-anchor="middle" x="145.5192" y="-474.9" font-family="Helvetica,sans-Serif" font-size="12.00" fill="#000000">uint16_t</text>
<polyline fill="none" stroke="#bfbfbf" points="121.0192,-467.5 170.0192,-467.5 "/>
<text text-anchor="middle" x="145.5192" y="-453.9" font-family="Helvetica,sans-Serif" font-size="12.00" fill="#000000"> </text>
<polyline fill="none" stroke="#bfbfbf" points="121.0192,-446.5 170.0192,-446.5 "/>
<text text-anchor="middle" x="145.5192" y="-432.9" font-family="Helvetica,sans-Serif" font-size="12.00" fill="#000000"> </text>
</g>
<!-- Node4&#45;&gt;Node2 -->
<g id="edge2" class="edge">
<title>Node4&#45;&gt;Node2</title>
<path fill="none" stroke="#404040" d="M148.9334,-425.3759C153.5746,-394.8268 164.283,-348.5271 188.5192,-316 234.4444,-254.3644 310.0955,-207.5791 364.8016,-179.4282"/>
<polygon fill="none" stroke="#404040" points="365.0822,-179.2865 368.6345,-173.0111 375.7935,-173.8765 372.2412,-180.1519 365.0822,-179.2865"/>
<text text-anchor="middle" x="217.0192" y="-319.4" font-family="Helvetica,sans-Serif" font-size="12.00" fill="#000000"> #m_precision</text>
</g>
<!-- Node5 -->
<g id="node4" class="node">
<title>Node5</title>
<polygon fill="#ffffff" stroke="#bfbfbf" points="188.0192,-425.5 188.0192,-488.5 229.0192,-488.5 229.0192,-425.5 188.0192,-425.5"/>
<text text-anchor="middle" x="208.5192" y="-474.9" font-family="Helvetica,sans-Serif" font-size="12.00" fill="#000000">mutex</text>
<polyline fill="none" stroke="#bfbfbf" points="188.0192,-467.5 229.0192,-467.5 "/>
<text text-anchor="middle" x="208.5192" y="-453.9" font-family="Helvetica,sans-Serif" font-size="12.00" fill="#000000"> </text>
<polyline fill="none" stroke="#bfbfbf" points="188.0192,-446.5 229.0192,-446.5 "/>
<text text-anchor="middle" x="208.5192" y="-432.9" font-family="Helvetica,sans-Serif" font-size="12.00" fill="#000000"> </text>
</g>
<!-- Node5&#45;&gt;Node2 -->
<g id="edge3" class="edge">
<title>Node5&#45;&gt;Node2</title>
<path fill="none" stroke="#404040" d="M212.4108,-425.4952C216.2621,-402.5639 223.67,-371.3865 237.5192,-347 270.2875,-289.2992 324.0359,-236.3155 366.6585,-199.7062"/>
<polygon fill="none" stroke="#404040" points="366.6944,-199.6758 368.6851,-192.7449 375.8485,-191.9166 373.8579,-198.8476 366.6944,-199.6758"/>
<text text-anchor="middle" x="276.0192" y="-319.4" font-family="Helvetica,sans-Serif" font-size="12.00" fill="#000000"> #m_mutex</text>
</g>
<!-- Node6 -->
<g id="node5" class="node">
<title>Node6</title>
<g id="a_node5"><a xlink:href="../../d0/dc7/class_n_a_m_e___t_i_m_1_1util_1_1details_1_1base__timer__data.html" target="_top" xlink:title="{NAME_TIM::util::details\l::base_timer_data\n||+ base_timer_data()\l+ start()\l+ stop()\l+ start()\l+ stop()\l+ running()\l+ serialize()\l+ rss_init()\l+ rss_record()\l+ rss()\l+ rss()\l}">
<polygon fill="#ffffff" stroke="#000000" points="376.0192,-354 376.0192,-560 487.0192,-560 487.0192,-354 376.0192,-354"/>
<text text-anchor="start" x="384.0192" y="-546.4" font-family="Helvetica,sans-Serif" font-size="12.00" fill="#000000">NAME_TIM::util::details</text>
<text text-anchor="middle" x="431.5192" y="-533.4" font-family="Helvetica,sans-Serif" font-size="12.00" fill="#000000">::base_timer_data</text>
<polyline fill="none" stroke="#000000" points="376.0192,-526 487.0192,-526 "/>
<text text-anchor="middle" x="431.5192" y="-512.4" font-family="Helvetica,sans-Serif" font-size="12.00" fill="#000000"> </text>
<polyline fill="none" stroke="#000000" points="376.0192,-505 487.0192,-505 "/>
<text text-anchor="start" x="384.0192" y="-491.4" font-family="Helvetica,sans-Serif" font-size="12.00" fill="#000000">+ base_timer_data()</text>
<text text-anchor="start" x="384.0192" y="-478.4" font-family="Helvetica,sans-Serif" font-size="12.00" fill="#000000">+ start()</text>
<text text-anchor="start" x="384.0192" y="-465.4" font-family="Helvetica,sans-Serif" font-size="12.00" fill="#000000">+ stop()</text>
<text text-anchor="start" x="384.0192" y="-452.4" font-family="Helvetica,sans-Serif" font-size="12.00" fill="#000000">+ start()</text>
<text text-anchor="start" x="384.0192" y="-439.4" font-family="Helvetica,sans-Serif" font-size="12.00" fill="#000000">+ stop()</text>
<text text-anchor="start" x="384.0192" y="-426.4" font-family="Helvetica,sans-Serif" font-size="12.00" fill="#000000">+ running()</text>
<text text-anchor="start" x="384.0192" y="-413.4" font-family="Helvetica,sans-Serif" font-size="12.00" fill="#000000">+ serialize()</text>
<text text-anchor="start" x="384.0192" y="-400.4" font-family="Helvetica,sans-Serif" font-size="12.00" fill="#000000">+ rss_init()</text>
<text text-anchor="start" x="384.0192" y="-387.4" font-family="Helvetica,sans-Serif" font-size="12.00" fill="#000000">+ rss_record()</text>
<text text-anchor="start" x="384.0192" y="-374.4" font-family="Helvetica,sans-Serif" font-size="12.00" fill="#000000">+ rss()</text>
<text text-anchor="start" x="384.0192" y="-361.4" font-family="Helvetica,sans-Serif" font-size="12.00" fill="#000000">+ rss()</text>
</a>
</g>
</g>
<!-- Node6&#45;&gt;Node2 -->
<g id="edge4" class="edge">
<title>Node6&#45;&gt;Node2</title>
<path fill="none" stroke="#404040" d="M431.5192,-353.5836C431.5192,-339.5209 431.5192,-324.8251 431.5192,-310.0426"/>
<polygon fill="none" stroke="#404040" points="431.5193,-309.6169 427.5192,-303.6169 431.5192,-297.6169 435.5192,-303.6168 431.5193,-309.6169"/>
<text text-anchor="middle" x="450.5192" y="-319.4" font-family="Helvetica,sans-Serif" font-size="12.00" fill="#000000"> #m_data</text>
</g>
<!-- Node7 -->
<g id="node6" class="node">
<title>Node7</title>
<g id="a_node6"><a xlink:href="../../d6/d49/class_n_a_m_e___t_i_m_1_1util_1_1details_1_1base__rss__usage.html" target="_top" xlink:title="{NAME_TIM::util::details\l::base_rss_usage\n||+ init()\l+ record()\l+ total()\l+ self()\l+ total()\l+ self()\l+ max()\l}">
<polygon fill="#ffffff" stroke="#000000" points="201.0192,-629.5 201.0192,-783.5 312.0192,-783.5 312.0192,-629.5 201.0192,-629.5"/>
<text text-anchor="start" x="209.0192" y="-769.9" font-family="Helvetica,sans-Serif" font-size="12.00" fill="#000000">NAME_TIM::util::details</text>
<text text-anchor="middle" x="256.5192" y="-756.9" font-family="Helvetica,sans-Serif" font-size="12.00" fill="#000000">::base_rss_usage</text>
<polyline fill="none" stroke="#000000" points="201.0192,-749.5 312.0192,-749.5 "/>
<text text-anchor="middle" x="256.5192" y="-735.9" font-family="Helvetica,sans-Serif" font-size="12.00" fill="#000000"> </text>
<polyline fill="none" stroke="#000000" points="201.0192,-728.5 312.0192,-728.5 "/>
<text text-anchor="start" x="209.0192" y="-714.9" font-family="Helvetica,sans-Serif" font-size="12.00" fill="#000000">+ init()</text>
<text text-anchor="start" x="209.0192" y="-701.9" font-family="Helvetica,sans-Serif" font-size="12.00" fill="#000000">+ record()</text>
<text text-anchor="start" x="209.0192" y="-688.9" font-family="Helvetica,sans-Serif" font-size="12.00" fill="#000000">+ total()</text>
<text text-anchor="start" x="209.0192" y="-675.9" font-family="Helvetica,sans-Serif" font-size="12.00" fill="#000000">+ self()</text>
<text text-anchor="start" x="209.0192" y="-662.9" font-family="Helvetica,sans-Serif" font-size="12.00" fill="#000000">+ total()</text>
<text text-anchor="start" x="209.0192" y="-649.9" font-family="Helvetica,sans-Serif" font-size="12.00" fill="#000000">+ self()</text>
<text text-anchor="start" x="209.0192" y="-636.9" font-family="Helvetica,sans-Serif" font-size="12.00" fill="#000000">+ max()</text>
</a>
</g>
</g>
<!-- Node7&#45;&gt;Node6 -->
<g id="edge5" class="edge">
<title>Node7&#45;&gt;Node6</title>
<path fill="none" stroke="#404040" d="M312.217,-637.6332C334.2826,-609.9848 356.7132,-581.3117 366.5192,-567 367.4008,-565.7134 368.2829,-564.4144 369.165,-563.1048"/>
<polygon fill="none" stroke="#404040" points="369.3021,-562.8972 369.2702,-555.6861 375.9143,-552.8832 375.9462,-560.0943 369.3021,-562.8972"/>
<text text-anchor="middle" x="368.0192" y="-594.9" font-family="Helvetica,sans-Serif" font-size="12.00" fill="#000000"> #m_rss</text>
</g>
<!-- Node7&#45;&gt;Node12 -->
<g id="edge12" class="edge">
<title>Node7&#45;&gt;Node12</title>
<path fill="none" stroke="#404040" d="M257.3812,-629.3638C258.3767,-614.563 259.9845,-599.2431 262.5192,-585 262.9077,-582.817 263.3226,-580.6194 263.7614,-578.4111"/>
<polygon fill="none" stroke="#404040" points="263.7951,-578.2546 261.1486,-571.5467 266.3226,-566.5238 268.9691,-573.2317 263.7951,-578.2546"/>
<text text-anchor="middle" x="279.0192" y="-594.9" font-family="Helvetica,sans-Serif" font-size="12.00" fill="#000000"> #m_rss</text>
</g>
<!-- Node8 -->
<g id="node7" class="node">
<title>Node8</title>
<g id="a_node7"><a xlink:href="../../df/d64/struct_n_a_m_e___t_i_m_1_1rss_1_1usage.html" target="_top" xlink:title="{NAME_TIM::rss::usage\n||+ usage()\l+ usage()\l+ usage()\l+ operator=()\l+ record()\l+ record()\l+ operator()()\l+ operator&#45;=()\l+ current()\l+ peak()\l+ serialize()\l+ max()\l+ min()\l}">
<polygon fill="#ffffff" stroke="#000000" points="201.5192,-859.5 201.5192,-1078.5 311.5192,-1078.5 311.5192,-859.5 201.5192,-859.5"/>
<text text-anchor="middle" x="256.5192" y="-1064.9" font-family="Helvetica,sans-Serif" font-size="12.00" fill="#000000">NAME_TIM::rss::usage</text>
<polyline fill="none" stroke="#000000" points="201.5192,-1057.5 311.5192,-1057.5 "/>
<text text-anchor="middle" x="256.5192" y="-1043.9" font-family="Helvetica,sans-Serif" font-size="12.00" fill="#000000"> </text>
<polyline fill="none" stroke="#000000" points="201.5192,-1036.5 311.5192,-1036.5 "/>
<text text-anchor="start" x="209.5192" y="-1022.9" font-family="Helvetica,sans-Serif" font-size="12.00" fill="#000000">+ usage()</text>
<text text-anchor="start" x="209.5192" y="-1009.9" font-family="Helvetica,sans-Serif" font-size="12.00" fill="#000000">+ usage()</text>
<text text-anchor="start" x="209.5192" y="-996.9" font-family="Helvetica,sans-Serif" font-size="12.00" fill="#000000">+ usage()</text>
<text text-anchor="start" x="209.5192" y="-983.9" font-family="Helvetica,sans-Serif" font-size="12.00" fill="#000000">+ operator=()</text>
<text text-anchor="start" x="209.5192" y="-970.9" font-family="Helvetica,sans-Serif" font-size="12.00" fill="#000000">+ record()</text>
<text text-anchor="start" x="209.5192" y="-957.9" font-family="Helvetica,sans-Serif" font-size="12.00" fill="#000000">+ record()</text>
<text text-anchor="start" x="209.5192" y="-944.9" font-family="Helvetica,sans-Serif" font-size="12.00" fill="#000000">+ operator()()</text>
<text text-anchor="start" x="209.5192" y="-931.9" font-family="Helvetica,sans-Serif" font-size="12.00" fill="#000000">+ operator&#45;=()</text>
<text text-anchor="start" x="209.5192" y="-918.9" font-family="Helvetica,sans-Serif" font-size="12.00" fill="#000000">+ current()</text>
<text text-anchor="start" x="209.5192" y="-905.9" font-family="Helvetica,sans-Serif" font-size="12.00" fill="#000000">+ peak()</text>
<text text-anchor="start" x="209.5192" y="-892.9" font-family="Helvetica,sans-Serif" font-size="12.00" fill="#000000">+ serialize()</text>
<text text-anchor="start" x="209.5192" y="-879.9" font-family="Helvetica,sans-Serif" font-size="12.00" fill="#000000">+ max()</text>
<text text-anchor="start" x="209.5192" y="-866.9" font-family="Helvetica,sans-Serif" font-size="12.00" fill="#000000">+ min()</text>
</a>
</g>
</g>
<!-- Node8&#45;&gt;Node7 -->
<g id="edge6" class="edge">
<title>Node8&#45;&gt;Node7</title>
<path fill="none" stroke="#404040" d="M256.5192,-859.1973C256.5192,-838.0396 256.5192,-816.1176 256.5192,-795.7114"/>
<polygon fill="none" stroke="#404040" points="256.5193,-795.5568 252.5192,-789.5569 256.5192,-783.5568 260.5192,-789.5568 256.5193,-795.5568"/>
<text text-anchor="middle" x="283.0192" y="-831.4" font-family="Helvetica,sans-Serif" font-size="12.00" fill="#000000"> #m_rss_tmp</text>
<text text-anchor="middle" x="283.0192" y="-818.4" font-family="Helvetica,sans-Serif" font-size="12.00" fill="#000000">#m_rss_self</text>
<text text-anchor="middle" x="283.0192" y="-805.4" font-family="Helvetica,sans-Serif" font-size="12.00" fill="#000000">#m_rss_tot</text>
</g>
<!-- Node9 -->
<g id="node8" class="node">
<title>Node9</title>
<polygon fill="#ffffff" stroke="#bfbfbf" points="234.5192,-1141.5 234.5192,-1204.5 278.5192,-1204.5 278.5192,-1141.5 234.5192,-1141.5"/>
<text text-anchor="middle" x="256.5192" y="-1190.9" font-family="Helvetica,sans-Serif" font-size="12.00" fill="#000000">int64_t</text>
<polyline fill="none" stroke="#bfbfbf" points="234.5192,-1183.5 278.5192,-1183.5 "/>
<text text-anchor="middle" x="256.5192" y="-1169.9" font-family="Helvetica,sans-Serif" font-size="12.00" fill="#000000"> </text>
<polyline fill="none" stroke="#bfbfbf" points="234.5192,-1162.5 278.5192,-1162.5 "/>
<text text-anchor="middle" x="256.5192" y="-1148.9" font-family="Helvetica,sans-Serif" font-size="12.00" fill="#000000"> </text>
</g>
<!-- Node9&#45;&gt;Node8 -->
<g id="edge7" class="edge">
<title>Node9&#45;&gt;Node8</title>
<path fill="none" stroke="#404040" d="M256.5192,-1141.125C256.5192,-1127.0605 256.5192,-1109.5484 256.5192,-1091.124"/>
<polygon fill="none" stroke="#404040" points="256.5193,-1090.9119 252.5192,-1084.9119 256.5192,-1078.9119 260.5192,-1084.9118 256.5193,-1090.9119"/>
<text text-anchor="middle" x="284.0192" y="-1113.4" font-family="Helvetica,sans-Serif" font-size="12.00" fill="#000000"> +m_curr_rss</text>
<text text-anchor="middle" x="284.0192" y="-1100.4" font-family="Helvetica,sans-Serif" font-size="12.00" fill="#000000">+m_peak_rss</text>
</g>
<!-- Node10 -->
<g id="node9" class="node">
<title>Node10</title>
<polygon fill="#ffffff" stroke="#bfbfbf" points="330.0192,-668.5 330.0192,-744.5 425.0192,-744.5 425.0192,-668.5 330.0192,-668.5"/>
<text text-anchor="start" x="338.0192" y="-730.9" font-family="Helvetica,sans-Serif" font-size="12.00" fill="#000000">tuple&lt; time_point_t,</text>
<text text-anchor="middle" x="377.5192" y="-717.9" font-family="Helvetica,sans-Serif" font-size="12.00" fill="#000000"> time_point_t &gt;</text>
<polyline fill="none" stroke="#bfbfbf" points="330.0192,-710.5 425.0192,-710.5 "/>
<text text-anchor="middle" x="377.5192" y="-696.9" font-family="Helvetica,sans-Serif" font-size="12.00" fill="#000000"> </text>
<polyline fill="none" stroke="#bfbfbf" points="330.0192,-689.5 425.0192,-689.5 "/>
<text text-anchor="middle" x="377.5192" y="-675.9" font-family="Helvetica,sans-Serif" font-size="12.00" fill="#000000"> </text>
</g>
<!-- Node10&#45;&gt;Node6 -->
<g id="edge8" class="edge">
<title>Node10&#45;&gt;Node6</title>
<path fill="none" stroke="#404040" d="M385.7794,-668.3347C391.3935,-642.3954 399.1406,-606.6009 406.6642,-571.8392"/>
<polygon fill="none" stroke="#404040" points="406.6652,-571.8342 404.025,-565.1239 409.2037,-560.1058 411.8439,-566.8162 406.6652,-571.8342"/>
<text text-anchor="middle" x="422.5192" y="-594.9" font-family="Helvetica,sans-Serif" font-size="12.00" fill="#000000"> #m_data</text>
</g>
<!-- Node11 -->
<g id="node10" class="node">
<title>Node11</title>
<polygon fill="#ffffff" stroke="#bfbfbf" points="443.5192,-675 443.5192,-738 477.5192,-738 477.5192,-675 443.5192,-675"/>
<text text-anchor="middle" x="460.5192" y="-724.4" font-family="Helvetica,sans-Serif" font-size="12.00" fill="#000000">bool</text>
<polyline fill="none" stroke="#bfbfbf" points="443.5192,-717 477.5192,-717 "/>
<text text-anchor="middle" x="460.5192" y="-703.4" font-family="Helvetica,sans-Serif" font-size="12.00" fill="#000000"> </text>
<polyline fill="none" stroke="#bfbfbf" points="443.5192,-696 477.5192,-696 "/>
<text text-anchor="middle" x="460.5192" y="-682.4" font-family="Helvetica,sans-Serif" font-size="12.00" fill="#000000"> </text>
</g>
<!-- Node11&#45;&gt;Node6 -->
<g id="edge9" class="edge">
<title>Node11&#45;&gt;Node6</title>
<path fill="none" stroke="#404040" d="M456.8463,-674.9007C453.8069,-648.7516 449.293,-609.9163 444.9143,-572.2438"/>
<polygon fill="none" stroke="#404040" points="444.8849,-571.9907 440.2189,-566.4927 443.4994,-560.0709 448.1654,-565.569 444.8849,-571.9907"/>
<text text-anchor="middle" x="475.0192" y="-594.9" font-family="Helvetica,sans-Serif" font-size="12.00" fill="#000000"> #m_running</text>
</g>
<!-- Node12&#45;&gt;Node2 -->
<g id="edge10" class="edge">
<title>Node12&#45;&gt;Node2</title>
<path fill="none" stroke="#404040" d="M348.5448,-347.1094C355.8851,-329.5837 363.574,-311.2256 371.1853,-293.053"/>
<polygon fill="none" stroke="#404040" points="371.2747,-292.8394 369.9031,-285.76 375.9105,-281.771 377.2821,-288.8505 371.2747,-292.8394"/>
<text text-anchor="middle" x="383.0192" y="-319.4" font-family="Helvetica,sans-Serif" font-size="12.00" fill="#000000"> #m_accum</text>
</g>
<!-- Node13 -->
<g id="node12" class="node">
<title>Node13</title>
<polygon fill="#ffffff" stroke="#bfbfbf" points="82.5192,-668.5 82.5192,-744.5 182.5192,-744.5 182.5192,-668.5 82.5192,-668.5"/>
<text text-anchor="start" x="90.5192" y="-730.9" font-family="Helvetica,sans-Serif" font-size="12.00" fill="#000000">tuple&lt; uint_type, uint</text>
<text text-anchor="middle" x="132.5192" y="-717.9" font-family="Helvetica,sans-Serif" font-size="12.00" fill="#000000">_type, uint_type &gt;</text>
<polyline fill="none" stroke="#bfbfbf" points="82.5192,-710.5 182.5192,-710.5 "/>
<text text-anchor="middle" x="132.5192" y="-696.9" font-family="Helvetica,sans-Serif" font-size="12.00" fill="#000000"> </text>
<polyline fill="none" stroke="#bfbfbf" points="82.5192,-689.5 182.5192,-689.5 "/>
<text text-anchor="middle" x="132.5192" y="-675.9" font-family="Helvetica,sans-Serif" font-size="12.00" fill="#000000"> </text>
</g>
<!-- Node13&#45;&gt;Node12 -->
<g id="edge13" class="edge">
<title>Node13&#45;&gt;Node12</title>
<path fill="none" stroke="#404040" d="M155.9266,-668.4497C171.9491,-643.6353 194.4081,-611.1273 217.5192,-585 225.4424,-576.0426 229.9454,-576.2547 237.5192,-567 238.1119,-566.2758 238.7026,-565.5456 239.2915,-564.8098"/>
<polygon fill="none" stroke="#404040" points="239.5352,-564.4911 240.0038,-557.2953 246.8264,-554.9602 246.3578,-562.1561 239.5352,-564.4911"/>
<text text-anchor="middle" x="236.5192" y="-601.4" font-family="Helvetica,sans-Serif" font-size="12.00" fill="#000000"> #m_sum</text>
<text text-anchor="middle" x="236.5192" y="-588.4" font-family="Helvetica,sans-Serif" font-size="12.00" fill="#000000">#m_sqr</text>
</g>
<!-- Node14 -->
<g id="node13" class="node">
<title>Node14</title>
<g id="a_node13"><a xlink:title="STL class. ">
<polygon fill="#ffffff" stroke="#bfbfbf" points="505.5192,-425.5 505.5192,-488.5 561.5192,-488.5 561.5192,-425.5 505.5192,-425.5"/>
<text text-anchor="middle" x="533.5192" y="-474.9" font-family="Helvetica,sans-Serif" font-size="12.00" fill="#000000">std::string</text>
<polyline fill="none" stroke="#bfbfbf" points="505.5192,-467.5 561.5192,-467.5 "/>
<text text-anchor="middle" x="533.5192" y="-453.9" font-family="Helvetica,sans-Serif" font-size="12.00" fill="#000000"> </text>
<polyline fill="none" stroke="#bfbfbf" points="505.5192,-446.5 561.5192,-446.5 "/>
<text text-anchor="middle" x="533.5192" y="-432.9" font-family="Helvetica,sans-Serif" font-size="12.00" fill="#000000"> </text>
</a>
</g>
</g>
<!-- Node14&#45;&gt;Node2 -->
<g id="edge14" class="edge">
<title>Node14&#45;&gt;Node2</title>
<path fill="none" stroke="#404040" d="M523.0827,-425.486C513.7411,-397.2779 499.2897,-353.6404 484.6072,-309.305"/>
<polygon fill="none" stroke="#404040" points="484.5435,-309.1124 478.86,-304.6741 480.7709,-297.7208 486.4544,-302.1591 484.5435,-309.1124"/>
<text text-anchor="middle" x="526.0192" y="-319.4" font-family="Helvetica,sans-Serif" font-size="12.00" fill="#000000"> #m_format_string</text>
</g>
<!-- Node15 -->
<g id="node14" class="node">
<title>Node15</title>
<g id="a_node14"><a xlink:title="STL class. ">
<polygon fill="#ffffff" stroke="#bfbfbf" points="496.0192,-668.5 496.0192,-744.5 583.0192,-744.5 583.0192,-668.5 496.0192,-668.5"/>
<text text-anchor="start" x="504.0192" y="-730.9" font-family="Helvetica,sans-Serif" font-size="12.00" fill="#000000">std::basic_string&lt;</text>
<text text-anchor="middle" x="539.5192" y="-717.9" font-family="Helvetica,sans-Serif" font-size="12.00" fill="#000000"> char &gt;</text>
<polyline fill="none" stroke="#bfbfbf" points="496.0192,-710.5 583.0192,-710.5 "/>
<text text-anchor="middle" x="539.5192" y="-696.9" font-family="Helvetica,sans-Serif" font-size="12.00" fill="#000000"> </text>
<polyline fill="none" stroke="#bfbfbf" points="496.0192,-689.5 583.0192,-689.5 "/>
<text text-anchor="middle" x="539.5192" y="-675.9" font-family="Helvetica,sans-Serif" font-size="12.00" fill="#000000"> </text>
</a>
</g>
</g>
<!-- Node15&#45;&gt;Node14 -->
<g id="edge15" class="edge">
<title>Node15&#45;&gt;Node14</title>
<path fill="none" stroke="#191970" d="M538.3552,-658.0982C537.1537,-608.1373 535.3139,-531.6306 534.2845,-488.825"/>
<polygon fill="none" stroke="#191970" points="534.8619,-658.4218 538.6014,-668.3347 541.8599,-658.2534 534.8619,-658.4218"/>
</g>
<!-- Node16 -->
<g id="node15" class="node">
<title>Node16</title>
<polygon fill="#ffffff" stroke="#bfbfbf" points="579.5192,-425.5 579.5192,-488.5 691.5192,-488.5 691.5192,-425.5 579.5192,-425.5"/>
<text text-anchor="middle" x="635.5192" y="-474.9" font-family="Helvetica,sans-Serif" font-size="12.00" fill="#000000">std::vector&lt; fieldpos_t &gt;</text>
<polyline fill="none" stroke="#bfbfbf" points="579.5192,-467.5 691.5192,-467.5 "/>
<text text-anchor="middle" x="635.5192" y="-453.9" font-family="Helvetica,sans-Serif" font-size="12.00" fill="#000000"> </text>
<polyline fill="none" stroke="#bfbfbf" points="579.5192,-446.5 691.5192,-446.5 "/>
<text text-anchor="middle" x="635.5192" y="-432.9" font-family="Helvetica,sans-Serif" font-size="12.00" fill="#000000"> </text>
</g>
<!-- Node16&#45;&gt;Node2 -->
<g id="edge16" class="edge">
<title>Node16&#45;&gt;Node2</title>
<path fill="none" stroke="#404040" d="M622.4979,-425.393C609.8621,-396.0822 589.2975,-351.7364 566.5192,-316 545.545,-283.0942 519.1545,-249.1794 495.2827,-220.5814"/>
<polygon fill="none" stroke="#404040" points="495.0247,-220.2749 488.1002,-218.2619 487.2951,-211.0959 494.2196,-213.1089 495.0247,-220.2749"/>
<text text-anchor="middle" x="617.0192" y="-319.4" font-family="Helvetica,sans-Serif" font-size="12.00" fill="#000000"> #m_format_positions</text>
</g>
<!-- Node17 -->
<g id="node16" class="node">
<title>Node17</title>
<polygon fill="#ffffff" stroke="#bfbfbf" points="601.0192,-675 601.0192,-738 656.0192,-738 656.0192,-675 601.0192,-675"/>
<text text-anchor="middle" x="628.5192" y="-724.4" font-family="Helvetica,sans-Serif" font-size="12.00" fill="#000000">fieldpos_t</text>
<polyline fill="none" stroke="#bfbfbf" points="601.0192,-717 656.0192,-717 "/>
<text text-anchor="middle" x="628.5192" y="-703.4" font-family="Helvetica,sans-Serif" font-size="12.00" fill="#000000"> </text>
<polyline fill="none" stroke="#bfbfbf" points="601.0192,-696 656.0192,-696 "/>
<text text-anchor="middle" x="628.5192" y="-682.4" font-family="Helvetica,sans-Serif" font-size="12.00" fill="#000000"> </text>
</g>
<!-- Node17&#45;&gt;Node16 -->
<g id="edge17" class="edge">
<title>Node17&#45;&gt;Node16</title>
<path fill="none" stroke="#404040" d="M629.4057,-674.9007C630.641,-630.872 632.8853,-550.8773 634.284,-501.0256"/>
<polygon fill="none" stroke="#404040" points="634.2922,-500.7311 630.462,-494.6213 634.6288,-488.7359 638.4589,-494.8457 634.2922,-500.7311"/>
<text text-anchor="middle" x="655.0192" y="-594.9" font-family="Helvetica,sans-Serif" font-size="12.00" fill="#000000"> +elements</text>
</g>
<!-- Node18 -->
<g id="node17" class="node">
<title>Node18</title>
<g id="a_node17"><a xlink:title="STL class. ">
<polygon fill="#ffffff" stroke="#bfbfbf" points="674.0192,-675 674.0192,-738 753.0192,-738 753.0192,-675 674.0192,-675"/>
<text text-anchor="middle" x="713.5192" y="-724.4" font-family="Helvetica,sans-Serif" font-size="12.00" fill="#000000">std::vector&lt; T &gt;</text>
<polyline fill="none" stroke="#bfbfbf" points="674.0192,-717 753.0192,-717 "/>
<text text-anchor="middle" x="713.5192" y="-703.4" font-family="Helvetica,sans-Serif" font-size="12.00" fill="#000000"> </text>
<polyline fill="none" stroke="#bfbfbf" points="674.0192,-696 753.0192,-696 "/>
<text text-anchor="middle" x="713.5192" y="-682.4" font-family="Helvetica,sans-Serif" font-size="12.00" fill="#000000"> </text>
</a>
</g>
</g>
<!-- Node18&#45;&gt;Node16 -->
<g id="edge18" class="edge">
<title>Node18&#45;&gt;Node16</title>
<path fill="none" stroke="#ffa500" d="M703.4967,-664.8041C697.5926,-641.2361 689.6946,-611.3109 681.5192,-585 671.1841,-551.7385 657.4878,-514.313 647.7345,-488.5638"/>
<polygon fill="#ffa500" stroke="#ffa500" points="700.1759,-665.9543 705.9813,-674.817 706.9699,-664.2684 700.1759,-665.9543"/>
<text text-anchor="middle" x="717.0192" y="-594.9" font-family="Helvetica,sans-Serif" font-size="12.00" fill="#000000"> &lt; fieldpos_t &gt;</text>
</g>
<!-- Node19 -->
<g id="node18" class="node">
<title>Node19</title>
<polygon fill="#ffffff" stroke="#bfbfbf" points="732.0192,-937.5 732.0192,-1000.5 761.0192,-1000.5 761.0192,-937.5 732.0192,-937.5"/>
<text text-anchor="middle" x="746.5192" y="-986.9" font-family="Helvetica,sans-Serif" font-size="12.00" fill="#000000">T</text>
<polyline fill="none" stroke="#bfbfbf" points="732.0192,-979.5 761.0192,-979.5 "/>
<text text-anchor="middle" x="746.5192" y="-965.9" font-family="Helvetica,sans-Serif" font-size="12.00" fill="#000000"> </text>
<polyline fill="none" stroke="#bfbfbf" points="732.0192,-958.5 761.0192,-958.5 "/>
<text text-anchor="middle" x="746.5192" y="-944.9" font-family="Helvetica,sans-Serif" font-size="12.00" fill="#000000"> </text>
</g>
<!-- Node19&#45;&gt;Node18 -->
<g id="edge19" class="edge">
<title>Node19&#45;&gt;Node18</title>
<path fill="none" stroke="#404040" d="M735.9746,-937.3469C728.0148,-911.7041 717.7638,-874.4667 713.5192,-841 709.7065,-810.9396 709.7591,-776.7953 710.738,-750.431"/>
<polygon fill="none" stroke="#404040" points="710.7502,-750.1539 707.0191,-743.9831 711.2801,-738.1656 715.0113,-744.3364 710.7502,-750.1539"/>
<text text-anchor="middle" x="736.0192" y="-818.4" font-family="Helvetica,sans-Serif" font-size="12.00" fill="#000000"> +elements</text>
</g>
<!-- Node20 -->
<g id="node19" class="node">
<title>Node20</title>
<g id="a_node19"><a xlink:title="STL class. ">
<polygon fill="#ffffff" stroke="#bfbfbf" points="771.0192,-668.5 771.0192,-744.5 868.0192,-744.5 868.0192,-668.5 771.0192,-668.5"/>
<text text-anchor="start" x="779.0192" y="-730.9" font-family="Helvetica,sans-Serif" font-size="12.00" fill="#000000">std::unordered_map</text>
<text text-anchor="middle" x="819.5192" y="-717.9" font-family="Helvetica,sans-Serif" font-size="12.00" fill="#000000">&lt; K, T &gt;</text>
<polyline fill="none" stroke="#bfbfbf" points="771.0192,-710.5 868.0192,-710.5 "/>
<text text-anchor="middle" x="819.5192" y="-696.9" font-family="Helvetica,sans-Serif" font-size="12.00" fill="#000000"> </text>
<polyline fill="none" stroke="#bfbfbf" points="771.0192,-689.5 868.0192,-689.5 "/>
<text text-anchor="middle" x="819.5192" y="-675.9" font-family="Helvetica,sans-Serif" font-size="12.00" fill="#000000"> </text>
</a>
</g>
</g>
<!-- Node19&#45;&gt;Node20 -->
<g id="edge22" class="edge">
<title>Node19&#45;&gt;Node20</title>
<path fill="none" stroke="#404040" d="M751.8293,-937.2304C757.8475,-903.3522 768.6499,-848.3121 782.5192,-802 787.0675,-786.8124 792.9359,-770.6192 798.6532,-755.9633"/>
<polygon fill="none" stroke="#404040" points="798.7427,-755.7381 797.2435,-748.6846 803.1778,-744.5878 804.6771,-751.6413 798.7427,-755.7381"/>
<text text-anchor="middle" x="805.0192" y="-818.4" font-family="Helvetica,sans-Serif" font-size="12.00" fill="#000000"> +elements</text>
</g>
<!-- Node20&#45;&gt;Node2 -->
<g id="edge20" class="edge">
<title>Node20&#45;&gt;Node2</title>
<path fill="none" stroke="#404040" d="M813.8148,-668.3813C802.0592,-599.3332 770.1754,-451.0841 700.5192,-347 649.7856,-271.1911 559.8326,-213.787 498.0145,-180.7929"/>
<polygon fill="none" stroke="#404040" points="497.8235,-180.6926 490.6518,-181.4456 487.1985,-175.1151 494.3702,-174.3622 497.8235,-180.6926"/>
<text text-anchor="middle" x="824.0192" y="-453.9" font-family="Helvetica,sans-Serif" font-size="12.00" fill="#000000"> &#45;w_mutex_map</text>
</g>
<!-- Node21 -->
<g id="node20" class="node">
<title>Node21</title>
<polygon fill="#ffffff" stroke="#bfbfbf" points="834.0192,-937.5 834.0192,-1000.5 863.0192,-1000.5 863.0192,-937.5 834.0192,-937.5"/>
<text text-anchor="middle" x="848.5192" y="-986.9" font-family="Helvetica,sans-Serif" font-size="12.00" fill="#000000">K</text>
<polyline fill="none" stroke="#bfbfbf" points="834.0192,-979.5 863.0192,-979.5 "/>
<text text-anchor="middle" x="848.5192" y="-965.9" font-family="Helvetica,sans-Serif" font-size="12.00" fill="#000000"> </text>
<polyline fill="none" stroke="#bfbfbf" points="834.0192,-958.5 863.0192,-958.5 "/>
<text text-anchor="middle" x="848.5192" y="-944.9" font-family="Helvetica,sans-Serif" font-size="12.00" fill="#000000"> </text>
</g>
<!-- Node21&#45;&gt;Node20 -->
<g id="edge21" class="edge">
<title>Node21&#45;&gt;Node20</title>
<path fill="none" stroke="#404040" d="M845.0211,-937.3364C840.0701,-892.5209 830.9675,-810.1269 825.0831,-756.8632"/>
<polygon fill="none" stroke="#404040" points="825.0515,-756.5764 820.4168,-751.0519 823.7337,-744.6489 828.3684,-750.1734 825.0515,-756.5764"/>
<text text-anchor="middle" x="848.0192" y="-818.4" font-family="Helvetica,sans-Serif" font-size="12.00" fill="#000000"> +keys</text>
</g>
<!-- Node22 -->
<g id="node21" class="node">
<title>Node22</title>
<g id="a_node21"><a xlink:title="STL class. ">
<polygon fill="#ffffff" stroke="#bfbfbf" points="889.5192,-425.5 889.5192,-488.5 955.5192,-488.5 955.5192,-425.5 889.5192,-425.5"/>
<text text-anchor="middle" x="922.5192" y="-474.9" font-family="Helvetica,sans-Serif" font-size="12.00" fill="#000000">std::ostream</text>
<polyline fill="none" stroke="#bfbfbf" points="889.5192,-467.5 955.5192,-467.5 "/>
<text text-anchor="middle" x="922.5192" y="-453.9" font-family="Helvetica,sans-Serif" font-size="12.00" fill="#000000"> </text>
<polyline fill="none" stroke="#bfbfbf" points="889.5192,-446.5 955.5192,-446.5 "/>
<text text-anchor="middle" x="922.5192" y="-432.9" font-family="Helvetica,sans-Serif" font-size="12.00" fill="#000000"> </text>
</a>
</g>
</g>
<!-- Node22&#45;&gt;Node2 -->
<g id="edge23" class="edge">
<title>Node22&#45;&gt;Node2</title>
<path fill="none" stroke="#404040" d="M911.688,-425.0539C902.3779,-401.3021 887.0318,-369.2827 865.5192,-347 763.02,-240.8315 592.9421,-186.5318 499.022,-163.3317"/>
<polygon fill="none" stroke="#404040" points="498.7875,-163.2751 492.0162,-165.755 487.1227,-160.4584 493.894,-157.9785 498.7875,-163.2751"/>
<text text-anchor="middle" x="853.5192" y="-319.4" font-family="Helvetica,sans-Serif" font-size="12.00" fill="#000000"> #m_os</text>
</g>
<!-- Node23 -->
<g id="node22" class="node">
<title>Node23</title>
<g id="a_node22"><a xlink:title="STL class. ">
<polygon fill="#ffffff" stroke="#bfbfbf" points="887.5192,-668.5 887.5192,-744.5 979.5192,-744.5 979.5192,-668.5 887.5192,-668.5"/>
<text text-anchor="start" x="895.5192" y="-730.9" font-family="Helvetica,sans-Serif" font-size="12.00" fill="#000000">std::basic_ostream</text>
<text text-anchor="middle" x="933.5192" y="-717.9" font-family="Helvetica,sans-Serif" font-size="12.00" fill="#000000">&lt; char &gt;</text>
<polyline fill="none" stroke="#bfbfbf" points="887.5192,-710.5 979.5192,-710.5 "/>
<text text-anchor="middle" x="933.5192" y="-696.9" font-family="Helvetica,sans-Serif" font-size="12.00" fill="#000000"> </text>
<polyline fill="none" stroke="#bfbfbf" points="887.5192,-689.5 979.5192,-689.5 "/>
<text text-anchor="middle" x="933.5192" y="-675.9" font-family="Helvetica,sans-Serif" font-size="12.00" fill="#000000"> </text>
</a>
</g>
</g>
<!-- Node23&#45;&gt;Node22 -->
<g id="edge24" class="edge">
<title>Node23&#45;&gt;Node22</title>
<path fill="none" stroke="#191970" d="M931.3852,-658.0982C929.1825,-608.1373 925.8095,-531.6306 923.9223,-488.825"/>
<polygon fill="none" stroke="#191970" points="927.8994,-658.4986 931.8365,-668.3347 934.8926,-658.1902 927.8994,-658.4986"/>
</g>
<!-- Node24 -->
<g id="node23" class="node">
<title>Node24</title>
<g id="a_node23"><a xlink:title="STL class. ">
<polygon fill="#ffffff" stroke="#bfbfbf" points="881.5192,-937.5 881.5192,-1000.5 987.5192,-1000.5 987.5192,-937.5 881.5192,-937.5"/>
<text text-anchor="middle" x="934.5192" y="-986.9" font-family="Helvetica,sans-Serif" font-size="12.00" fill="#000000">std::basic_ios&lt; Char &gt;</text>
<polyline fill="none" stroke="#bfbfbf" points="881.5192,-979.5 987.5192,-979.5 "/>
<text text-anchor="middle" x="934.5192" y="-965.9" font-family="Helvetica,sans-Serif" font-size="12.00" fill="#000000"> </text>
<polyline fill="none" stroke="#bfbfbf" points="881.5192,-958.5 987.5192,-958.5 "/>
<text text-anchor="middle" x="934.5192" y="-944.9" font-family="Helvetica,sans-Serif" font-size="12.00" fill="#000000"> </text>
</a>
</g>
</g>
<!-- Node24&#45;&gt;Node23 -->
<g id="edge25" class="edge">
<title>Node24&#45;&gt;Node23</title>
<path fill="none" stroke="#191970" d="M934.3597,-927.1371C934.1681,-876.8531 933.8495,-793.2197 933.6645,-744.6489"/>
<polygon fill="none" stroke="#191970" points="930.8604,-927.3498 934.3986,-937.3364 937.8603,-927.3231 930.8604,-927.3498"/>
</g>
<!-- Node25 -->
<g id="node24" class="node">
<title>Node25</title>
<g id="a_node24"><a xlink:title="STL class. ">
<polygon fill="#ffffff" stroke="#bfbfbf" points="899.5192,-1141.5 899.5192,-1204.5 969.5192,-1204.5 969.5192,-1141.5 899.5192,-1141.5"/>
<text text-anchor="middle" x="934.5192" y="-1190.9" font-family="Helvetica,sans-Serif" font-size="12.00" fill="#000000">std::ios_base</text>
<polyline fill="none" stroke="#bfbfbf" points="899.5192,-1183.5 969.5192,-1183.5 "/>
<text text-anchor="middle" x="934.5192" y="-1169.9" font-family="Helvetica,sans-Serif" font-size="12.00" fill="#000000"> </text>
<polyline fill="none" stroke="#bfbfbf" points="899.5192,-1162.5 969.5192,-1162.5 "/>
<text text-anchor="middle" x="934.5192" y="-1148.9" font-family="Helvetica,sans-Serif" font-size="12.00" fill="#000000"> </text>
</a>
</g>
</g>
<!-- Node25&#45;&gt;Node24 -->
<g id="edge26" class="edge">
<title>Node25&#45;&gt;Node24</title>
<path fill="none" stroke="#191970" d="M934.5192,-1130.7098C934.5192,-1092.0031 934.5192,-1035.5909 934.5192,-1000.6512"/>
<polygon fill="none" stroke="#191970" points="931.0193,-1131.125 934.5192,-1141.125 938.0193,-1131.125 931.0193,-1131.125"/>
</g>
</g>
</svg>
        <g id="navigator" transform="translate(0 0)" fill="#404254">
                <rect fill="#f2f5e9" fill-opacity="0.5" stroke="#606060" stroke-width=".5" x="0" y="0" width="60" height="60"/>
                <use id="zoomplus" xlink:href="#zoomPlus" x="17" y="9" onmousedown="handleZoom(evt,'in')"/>
                <use id="zoomminus" xlink:href="#zoomMin" x="42" y="9" onmousedown="handleZoom(evt,'out')"/>
                <use id="reset" xlink:href="#resetDef" x="30" y="36" onmousedown="handleReset()"/>
                <g id="arrowUp" xlink:href="#dirArrow" transform="translate(30 24)" onmousedown="handlePan(0,-1)">
                  <use xlink:href="#rim" fill="#404040">
                        <set attributeName="fill" to="#808080" begin="arrowUp.mouseover" end="arrowUp.mouseout"/>
                  </use>
                  <path fill="none" stroke="white" stroke-width="1.5" d="M0,-3.0v7 M-2.5,-0.5L0,-3.0L2.5,-0.5"/>
                </g>
                <g id="arrowRight" xlink:href="#dirArrow" transform="rotate(90) translate(36 -43)" onmousedown="handlePan(1,0)">
                  <use xlink:href="#rim" fill="#404040">
                        <set attributeName="fill" to="#808080" begin="arrowRight.mouseover" end="arrowRight.mouseout"/>
                  </use>
                  <path fill="none" stroke="white" stroke-width="1.5" d="M0,-3.0v7 M-2.5,-0.5L0,-3.0L2.5,-0.5"/>
                </g>
                <g id="arrowDown" xlink:href="#dirArrow" transform="rotate(180) translate(-30 -48)" onmousedown="handlePan(0,1)">
                  <use xlink:href="#rim" fill="#404040">
                        <set attributeName="fill" to="#808080" begin="arrowDown.mouseover" end="arrowDown.mouseout"/>
                  </use>
                  <path fill="none" stroke="white" stroke-width="1.5" d="M0,-3.0v7 M-2.5,-0.5L0,-3.0L2.5,-0.5"/>
                </g>
                <g id="arrowLeft" xlink:href="#dirArrow" transform="rotate(270) translate(-36 17)" onmousedown="handlePan(-1,0)">
                  <use xlink:href="#rim" fill="#404040">
                        <set attributeName="fill" to="#808080" begin="arrowLeft.mouseover" end="arrowLeft.mouseout"/>
                  </use>
                  <path fill="none" stroke="white" stroke-width="1.5" d="M0,-3.0v7 M-2.5,-0.5L0,-3.0L2.5,-0.5"/>
                </g>
        </g>
        <svg viewBox="0 0 15 15" width="100%" height="30px" preserveAspectRatio="xMaxYMin meet">
         <g id="arrow_out" transform="scale(0.3 0.3)">
          <a xlink:href="class_n_a_m_e___t_i_m_1_1util_1_1details_1_1base__timer__coll__graph_org.svg" target="_base">
           <rect id="button" ry="5" rx="5" y="6" x="6" height="38" width="38"
                fill="#f2f5e9" fill-opacity="0.5" stroke="#606060" stroke-width="1.0"/>
           <path id="arrow"
             d="M 11.500037,31.436501 C 11.940474,20.09759 22.043105,11.32322 32.158766,21.979434 L 37.068811,17.246167 C 37.068811,17.246167 37.088388,32 37.088388,32 L 22.160133,31.978069 C 22.160133,31.978069 26.997745,27.140456 26.997745,27.140456 C 18.528582,18.264221 13.291696,25.230495 11.500037,31.436501 z"
             style="fill:#404040;"/>
          </a>
         </g>
        </svg>
</svg>
