<?xml version="1.0" encoding="UTF-8" standalone="no"?>
<!DOCTYPE svg PUBLIC "-//W3C//DTD SVG 1.1//EN"
 "http://www.w3.org/Graphics/SVG/1.1/DTD/svg11.dtd">
<!-- Generated by graphviz version 2.40.1 (20161225.0304)
 -->
<!-- Title: NAME_TIM::util::details::base_timer Pages: 1 -->
<svg width="981pt" height="1200pt"
 viewBox="0.00 0.00 980.50 1200.00" xmlns="http://www.w3.org/2000/svg" xmlns:xlink="http://www.w3.org/1999/xlink">
<g id="graph0" class="graph" transform="scale(1 1) rotate(0) translate(4 1196)">
<title>NAME_TIM::util::details::base_timer</title>
<polygon fill="#ffffff" stroke="transparent" points="-4,4 -4,-1196 976.5,-1196 976.5,4 -4,4"/>
<!-- Node2 -->
<g id="node1" class="node">
<title>Node2</title>
<polygon fill="#bfbfbf" stroke="#000000" points="397,-.5 397,-271.5 508,-271.5 508,-.5 397,-.5"/>
<text text-anchor="start" x="405" y="-257.9" font-family="Helvetica,sans-Serif" font-size="12.00" fill="#000000">NAME_TIM::util::details</text>
<text text-anchor="middle" x="452.5" y="-244.9" font-family="Helvetica,sans-Serif" font-size="12.00" fill="#000000">::base_timer</text>
<polyline fill="none" stroke="#000000" points="397,-237.5 508,-237.5 "/>
<text text-anchor="middle" x="452.5" y="-223.9" font-family="Helvetica,sans-Serif" font-size="12.00" fill="#000000"> </text>
<polyline fill="none" stroke="#000000" points="397,-216.5 508,-216.5 "/>
<text text-anchor="start" x="405" y="-202.9" font-family="Helvetica,sans-Serif" font-size="12.00" fill="#000000">+ base_timer()</text>
<text text-anchor="start" x="405" y="-189.9" font-family="Helvetica,sans-Serif" font-size="12.00" fill="#000000">+ ~base_timer()</text>
<text text-anchor="start" x="405" y="-176.9" font-family="Helvetica,sans-Serif" font-size="12.00" fill="#000000">+ base_timer()</text>
<text text-anchor="start" x="405" y="-163.9" font-family="Helvetica,sans-Serif" font-size="12.00" fill="#000000">+ operator=()</text>
<text text-anchor="start" x="405" y="-150.9" font-family="Helvetica,sans-Serif" font-size="12.00" fill="#000000">+ start()</text>
<text text-anchor="start" x="405" y="-137.9" font-family="Helvetica,sans-Serif" font-size="12.00" fill="#000000">+ stop()</text>
<text text-anchor="start" x="405" y="-124.9" font-family="Helvetica,sans-Serif" font-size="12.00" fill="#000000">+ is_valid()</text>
<text text-anchor="start" x="405" y="-111.9" font-family="Helvetica,sans-Serif" font-size="12.00" fill="#000000">+ real_elapsed()</text>
<text text-anchor="start" x="405" y="-98.9" font-family="Helvetica,sans-Serif" font-size="12.00" fill="#000000">+ system_elapsed()</text>
<text text-anchor="start" x="405" y="-85.9" font-family="Helvetica,sans-Serif" font-size="12.00" fill="#000000">+ user_elapsed()</text>
<text text-anchor="start" x="405" y="-72.9" font-family="Helvetica,sans-Serif" font-size="12.00" fill="#000000">and 12 more...</text>
<text text-anchor="start" x="405" y="-59.9" font-family="Helvetica,sans-Serif" font-size="12.00" fill="#000000"># parse_format()</text>
<text text-anchor="start" x="405" y="-46.9" font-family="Helvetica,sans-Serif" font-size="12.00" fill="#000000"># compose()</text>
<text text-anchor="start" x="405" y="-33.9" font-family="Helvetica,sans-Serif" font-size="12.00" fill="#000000"># m_timer()</text>
<text text-anchor="start" x="405" y="-20.9" font-family="Helvetica,sans-Serif" font-size="12.00" fill="#000000"># get_accum()</text>
<text text-anchor="start" x="405" y="-7.9" font-family="Helvetica,sans-Serif" font-size="12.00" fill="#000000"># get_accum()</text>
</g>
<!-- Node3 -->
<g id="node2" class="node">
<title>Node3</title>
<polygon fill="#ffffff" stroke="#bfbfbf" points="65,-406 65,-469 114,-469 114,-406 65,-406"/>
<text text-anchor="middle" x="89.5" y="-455.4" font-family="Helvetica,sans-Serif" font-size="12.00" fill="#000000">uint16_t</text>
<polyline fill="none" stroke="#bfbfbf" points="65,-448 114,-448 "/>
<text text-anchor="middle" x="89.5" y="-434.4" font-family="Helvetica,sans-Serif" font-size="12.00" fill="#000000"> </text>
<polyline fill="none" stroke="#bfbfbf" points="65,-427 114,-427 "/>
<text text-anchor="middle" x="89.5" y="-413.4" font-family="Helvetica,sans-Serif" font-size="12.00" fill="#000000"> </text>
</g>
<!-- Node3&#45;&gt;Node2 -->
<g id="edge1" class="edge">
<title>Node3&#45;&gt;Node2</title>
<path fill="none" stroke="#404040" d="M93.7787,-405.9602C99.7715,-373.1319 113.6274,-322.1153 144.5,-290 211.5712,-220.2291 316.9795,-177.1173 385.4184,-154.8484"/>
<polygon fill="none" stroke="#404040" points="385.4754,-154.8303 389.9801,-149.1993 396.9105,-151.1916 392.4058,-156.8226 385.4754,-154.8303"/>
<text text-anchor="middle" x="173" y="-293.4" font-family="Helvetica,sans-Serif" font-size="12.00" fill="#000000"> #m_precision</text>
</g>
<!-- Node4 -->
<g id="node3" class="node">
<title>Node4</title>
<polygon fill="#ffffff" stroke="#bfbfbf" points="140,-406 140,-469 181,-469 181,-406 140,-406"/>
<text text-anchor="middle" x="160.5" y="-455.4" font-family="Helvetica,sans-Serif" font-size="12.00" fill="#000000">mutex</text>
<polyline fill="none" stroke="#bfbfbf" points="140,-448 181,-448 "/>
<text text-anchor="middle" x="160.5" y="-434.4" font-family="Helvetica,sans-Serif" font-size="12.00" fill="#000000"> </text>
<polyline fill="none" stroke="#bfbfbf" points="140,-427 181,-427 "/>
<text text-anchor="middle" x="160.5" y="-413.4" font-family="Helvetica,sans-Serif" font-size="12.00" fill="#000000"> </text>
</g>
<!-- Node4&#45;&gt;Node2 -->
<g id="edge2" class="edge">
<title>Node4&#45;&gt;Node2</title>
<path fill="none" stroke="#404040" d="M162.3742,-405.8694C165.187,-380.9343 172.1778,-346.2724 189.5,-321 238.7474,-249.15 325.6694,-196.1575 386.0426,-165.728"/>
<polygon fill="none" stroke="#404040" points="386.2366,-165.632 389.8398,-159.3856 396.9915,-160.3092 393.3883,-166.5556 386.2366,-165.632"/>
<text text-anchor="middle" x="234" y="-293.4" font-family="Helvetica,sans-Serif" font-size="12.00" fill="#000000"> #m_mutex</text>
</g>
<!-- Node5 -->
<g id="node4" class="node">
<title>Node5</title>
<g id="a_node4"><a xlink:href="../../d0/dc7/class_n_a_m_e___t_i_m_1_1util_1_1details_1_1base__timer__data.html" target="_top" xlink:title="{NAME_TIM::util::details\l::base_timer_data\n||+ base_timer_data()\l+ start()\l+ stop()\l+ start()\l+ stop()\l+ running()\l+ serialize()\l+ rss_init()\l+ rss_record()\l+ rss()\l+ rss()\l}">
<polygon fill="#ffffff" stroke="#000000" points="343,-334.5 343,-540.5 454,-540.5 454,-334.5 343,-334.5"/>
<text text-anchor="start" x="351" y="-526.9" font-family="Helvetica,sans-Serif" font-size="12.00" fill="#000000">NAME_TIM::util::details</text>
<text text-anchor="middle" x="398.5" y="-513.9" font-family="Helvetica,sans-Serif" font-size="12.00" fill="#000000">::base_timer_data</text>
<polyline fill="none" stroke="#000000" points="343,-506.5 454,-506.5 "/>
<text text-anchor="middle" x="398.5" y="-492.9" font-family="Helvetica,sans-Serif" font-size="12.00" fill="#000000"> </text>
<polyline fill="none" stroke="#000000" points="343,-485.5 454,-485.5 "/>
<text text-anchor="start" x="351" y="-471.9" font-family="Helvetica,sans-Serif" font-size="12.00" fill="#000000">+ base_timer_data()</text>
<text text-anchor="start" x="351" y="-458.9" font-family="Helvetica,sans-Serif" font-size="12.00" fill="#000000">+ start()</text>
<text text-anchor="start" x="351" y="-445.9" font-family="Helvetica,sans-Serif" font-size="12.00" fill="#000000">+ stop()</text>
<text text-anchor="start" x="351" y="-432.9" font-family="Helvetica,sans-Serif" font-size="12.00" fill="#000000">+ start()</text>
<text text-anchor="start" x="351" y="-419.9" font-family="Helvetica,sans-Serif" font-size="12.00" fill="#000000">+ stop()</text>
<text text-anchor="start" x="351" y="-406.9" font-family="Helvetica,sans-Serif" font-size="12.00" fill="#000000">+ running()</text>
<text text-anchor="start" x="351" y="-393.9" font-family="Helvetica,sans-Serif" font-size="12.00" fill="#000000">+ serialize()</text>
<text text-anchor="start" x="351" y="-380.9" font-family="Helvetica,sans-Serif" font-size="12.00" fill="#000000">+ rss_init()</text>
<text text-anchor="start" x="351" y="-367.9" font-family="Helvetica,sans-Serif" font-size="12.00" fill="#000000">+ rss_record()</text>
<text text-anchor="start" x="351" y="-354.9" font-family="Helvetica,sans-Serif" font-size="12.00" fill="#000000">+ rss()</text>
<text text-anchor="start" x="351" y="-341.9" font-family="Helvetica,sans-Serif" font-size="12.00" fill="#000000">+ rss()</text>
</a>
</g>
</g>
<!-- Node5&#45;&gt;Node2 -->
<g id="edge3" class="edge">
<title>Node5&#45;&gt;Node2</title>
<path fill="none" stroke="#404040" d="M415.7448,-334.3026C418.3018,-319.4292 420.9388,-304.3175 423.5,-290 423.8874,-287.8345 424.2792,-285.6522 424.6748,-283.4562"/>
<polygon fill="none" stroke="#404040" points="424.6833,-283.4089 421.8172,-276.7918 426.823,-271.6011 429.6891,-278.2182 424.6833,-283.4089"/>
<text text-anchor="middle" x="442.5" y="-293.4" font-family="Helvetica,sans-Serif" font-size="12.00" fill="#000000"> #m_data</text>
</g>
<!-- Node6 -->
<g id="node5" class="node">
<title>Node6</title>
<g id="a_node5"><a xlink:href="../../d6/d49/class_n_a_m_e___t_i_m_1_1util_1_1details_1_1base__rss__usage.html" target="_top" xlink:title="{NAME_TIM::util::details\l::base_rss_usage\n||+ init()\l+ record()\l+ total()\l+ self()\l+ total()\l+ self()\l+ max()\l}">
<polygon fill="#ffffff" stroke="#000000" points="186,-616.5 186,-770.5 297,-770.5 297,-616.5 186,-616.5"/>
<text text-anchor="start" x="194" y="-756.9" font-family="Helvetica,sans-Serif" font-size="12.00" fill="#000000">NAME_TIM::util::details</text>
<text text-anchor="middle" x="241.5" y="-743.9" font-family="Helvetica,sans-Serif" font-size="12.00" fill="#000000">::base_rss_usage</text>
<polyline fill="none" stroke="#000000" points="186,-736.5 297,-736.5 "/>
<text text-anchor="middle" x="241.5" y="-722.9" font-family="Helvetica,sans-Serif" font-size="12.00" fill="#000000"> </text>
<polyline fill="none" stroke="#000000" points="186,-715.5 297,-715.5 "/>
<text text-anchor="start" x="194" y="-701.9" font-family="Helvetica,sans-Serif" font-size="12.00" fill="#000000">+ init()</text>
<text text-anchor="start" x="194" y="-688.9" font-family="Helvetica,sans-Serif" font-size="12.00" fill="#000000">+ record()</text>
<text text-anchor="start" x="194" y="-675.9" font-family="Helvetica,sans-Serif" font-size="12.00" fill="#000000">+ total()</text>
<text text-anchor="start" x="194" y="-662.9" font-family="Helvetica,sans-Serif" font-size="12.00" fill="#000000">+ self()</text>
<text text-anchor="start" x="194" y="-649.9" font-family="Helvetica,sans-Serif" font-size="12.00" fill="#000000">+ total()</text>
<text text-anchor="start" x="194" y="-636.9" font-family="Helvetica,sans-Serif" font-size="12.00" fill="#000000">+ self()</text>
<text text-anchor="start" x="194" y="-623.9" font-family="Helvetica,sans-Serif" font-size="12.00" fill="#000000">+ max()</text>
</a>
</g>
</g>
<!-- Node6&#45;&gt;Node5 -->
<g id="edge4" class="edge">
<title>Node6&#45;&gt;Node5</title>
<path fill="none" stroke="#404040" d="M288.8181,-616.3444C303.8828,-591.7803 320.777,-564.2331 336.7084,-538.2557"/>
<polygon fill="none" stroke="#404040" points="336.7218,-538.2339 336.4487,-531.0279 342.9954,-528.0044 343.2684,-535.2103 336.7218,-538.2339"/>
<text text-anchor="middle" x="332" y="-581.9" font-family="Helvetica,sans-Serif" font-size="12.00" fill="#000000"> #m_rss</text>
</g>
<!-- Node11 -->
<g id="node10" class="node">
<title>Node11</title>
<g id="a_node10"><a xlink:href="../../d7/db7/class_n_a_m_e___t_i_m_1_1util_1_1details_1_1base__timer__delta.html" target="_top" xlink:title="{NAME_TIM::util::details\l::base_timer_delta\n||+ base_timer_delta()\l+ reset()\l+ operator+=()\l+ operator+=()\l+ operator/=()\l+ get_sum()\l+ get_sqr()\l+ size()\l+ rss()\l+ rss()\l# compute()\l# compute_sum()\l# compute_sqr()\l}">
<polygon fill="#ffffff" stroke="#000000" points="199,-321.5 199,-553.5 310,-553.5 310,-321.5 199,-321.5"/>
<text text-anchor="start" x="207" y="-539.9" font-family="Helvetica,sans-Serif" font-size="12.00" fill="#000000">NAME_TIM::util::details</text>
<text text-anchor="middle" x="254.5" y="-526.9" font-family="Helvetica,sans-Serif" font-size="12.00" fill="#000000">::base_timer_delta</text>
<polyline fill="none" stroke="#000000" points="199,-519.5 310,-519.5 "/>
<text text-anchor="middle" x="254.5" y="-505.9" font-family="Helvetica,sans-Serif" font-size="12.00" fill="#000000"> </text>
<polyline fill="none" stroke="#000000" points="199,-498.5 310,-498.5 "/>
<text text-anchor="start" x="207" y="-484.9" font-family="Helvetica,sans-Serif" font-size="12.00" fill="#000000">+ base_timer_delta()</text>
<text text-anchor="start" x="207" y="-471.9" font-family="Helvetica,sans-Serif" font-size="12.00" fill="#000000">+ reset()</text>
<text text-anchor="start" x="207" y="-458.9" font-family="Helvetica,sans-Serif" font-size="12.00" fill="#000000">+ operator+=()</text>
<text text-anchor="start" x="207" y="-445.9" font-family="Helvetica,sans-Serif" font-size="12.00" fill="#000000">+ operator+=()</text>
<text text-anchor="start" x="207" y="-432.9" font-family="Helvetica,sans-Serif" font-size="12.00" fill="#000000">+ operator/=()</text>
<text text-anchor="start" x="207" y="-419.9" font-family="Helvetica,sans-Serif" font-size="12.00" fill="#000000">+ get_sum()</text>
<text text-anchor="start" x="207" y="-406.9" font-family="Helvetica,sans-Serif" font-size="12.00" fill="#000000">+ get_sqr()</text>
<text text-anchor="start" x="207" y="-393.9" font-family="Helvetica,sans-Serif" font-size="12.00" fill="#000000">+ size()</text>
<text text-anchor="start" x="207" y="-380.9" font-family="Helvetica,sans-Serif" font-size="12.00" fill="#000000">+ rss()</text>
<text text-anchor="start" x="207" y="-367.9" font-family="Helvetica,sans-Serif" font-size="12.00" fill="#000000">+ rss()</text>
<text text-anchor="start" x="207" y="-354.9" font-family="Helvetica,sans-Serif" font-size="12.00" fill="#000000"># compute()</text>
<text text-anchor="start" x="207" y="-341.9" font-family="Helvetica,sans-Serif" font-size="12.00" fill="#000000"># compute_sum()</text>
<text text-anchor="start" x="207" y="-328.9" font-family="Helvetica,sans-Serif" font-size="12.00" fill="#000000"># compute_sqr()</text>
</a>
</g>
</g>
<!-- Node6&#45;&gt;Node11 -->
<g id="edge11" class="edge">
<title>Node6&#45;&gt;Node11</title>
<path fill="none" stroke="#404040" d="M245.4181,-616.3444C246.2242,-600.4698 247.0936,-583.3493 247.9639,-566.2118"/>
<polygon fill="none" stroke="#404040" points="247.9881,-565.7322 244.2976,-559.537 248.5968,-553.7476 252.2873,-559.9428 247.9881,-565.7322"/>
<text text-anchor="middle" x="265" y="-581.9" font-family="Helvetica,sans-Serif" font-size="12.00" fill="#000000"> #m_rss</text>
</g>
<!-- Node7 -->
<g id="node6" class="node">
<title>Node7</title>
<g id="a_node6"><a xlink:href="../../df/d64/struct_n_a_m_e___t_i_m_1_1rss_1_1usage.html" target="_top" xlink:title="{NAME_TIM::rss::usage\n||+ usage()\l+ usage()\l+ usage()\l+ operator=()\l+ record()\l+ record()\l+ operator()()\l+ operator&#45;=()\l+ current()\l+ peak()\l+ serialize()\l+ max()\l+ min()\l}">
<polygon fill="#ffffff" stroke="#000000" points="186.5,-846.5 186.5,-1065.5 296.5,-1065.5 296.5,-846.5 186.5,-846.5"/>
<text text-anchor="middle" x="241.5" y="-1051.9" font-family="Helvetica,sans-Serif" font-size="12.00" fill="#000000">NAME_TIM::rss::usage</text>
<polyline fill="none" stroke="#000000" points="186.5,-1044.5 296.5,-1044.5 "/>
<text text-anchor="middle" x="241.5" y="-1030.9" font-family="Helvetica,sans-Serif" font-size="12.00" fill="#000000"> </text>
<polyline fill="none" stroke="#000000" points="186.5,-1023.5 296.5,-1023.5 "/>
<text text-anchor="start" x="194.5" y="-1009.9" font-family="Helvetica,sans-Serif" font-size="12.00" fill="#000000">+ usage()</text>
<text text-anchor="start" x="194.5" y="-996.9" font-family="Helvetica,sans-Serif" font-size="12.00" fill="#000000">+ usage()</text>
<text text-anchor="start" x="194.5" y="-983.9" font-family="Helvetica,sans-Serif" font-size="12.00" fill="#000000">+ usage()</text>
<text text-anchor="start" x="194.5" y="-970.9" font-family="Helvetica,sans-Serif" font-size="12.00" fill="#000000">+ operator=()</text>
<text text-anchor="start" x="194.5" y="-957.9" font-family="Helvetica,sans-Serif" font-size="12.00" fill="#000000">+ record()</text>
<text text-anchor="start" x="194.5" y="-944.9" font-family="Helvetica,sans-Serif" font-size="12.00" fill="#000000">+ record()</text>
<text text-anchor="start" x="194.5" y="-931.9" font-family="Helvetica,sans-Serif" font-size="12.00" fill="#000000">+ operator()()</text>
<text text-anchor="start" x="194.5" y="-918.9" font-family="Helvetica,sans-Serif" font-size="12.00" fill="#000000">+ operator&#45;=()</text>
<text text-anchor="start" x="194.5" y="-905.9" font-family="Helvetica,sans-Serif" font-size="12.00" fill="#000000">+ current()</text>
<text text-anchor="start" x="194.5" y="-892.9" font-family="Helvetica,sans-Serif" font-size="12.00" fill="#000000">+ peak()</text>
<text text-anchor="start" x="194.5" y="-879.9" font-family="Helvetica,sans-Serif" font-size="12.00" fill="#000000">+ serialize()</text>
<text text-anchor="start" x="194.5" y="-866.9" font-family="Helvetica,sans-Serif" font-size="12.00" fill="#000000">+ max()</text>
<text text-anchor="start" x="194.5" y="-853.9" font-family="Helvetica,sans-Serif" font-size="12.00" fill="#000000">+ min()</text>
</a>
</g>
</g>
<!-- Node7&#45;&gt;Node6 -->
<g id="edge5" class="edge">
<title>Node7&#45;&gt;Node6</title>
<path fill="none" stroke="#404040" d="M241.5,-846.1973C241.5,-825.0396 241.5,-803.1176 241.5,-782.7114"/>
<polygon fill="none" stroke="#404040" points="241.5001,-782.5568 237.5,-776.5569 241.5,-770.5568 245.5,-776.5568 241.5001,-782.5568"/>
<text text-anchor="middle" x="268" y="-818.4" font-family="Helvetica,sans-Serif" font-size="12.00" fill="#000000"> #m_rss_tmp</text>
<text text-anchor="middle" x="268" y="-805.4" font-family="Helvetica,sans-Serif" font-size="12.00" fill="#000000">#m_rss_self</text>
<text text-anchor="middle" x="268" y="-792.4" font-family="Helvetica,sans-Serif" font-size="12.00" fill="#000000">#m_rss_tot</text>
</g>
<!-- Node8 -->
<g id="node7" class="node">
<title>Node8</title>
<polygon fill="#ffffff" stroke="#bfbfbf" points="219.5,-1128.5 219.5,-1191.5 263.5,-1191.5 263.5,-1128.5 219.5,-1128.5"/>
<text text-anchor="middle" x="241.5" y="-1177.9" font-family="Helvetica,sans-Serif" font-size="12.00" fill="#000000">int64_t</text>
<polyline fill="none" stroke="#bfbfbf" points="219.5,-1170.5 263.5,-1170.5 "/>
<text text-anchor="middle" x="241.5" y="-1156.9" font-family="Helvetica,sans-Serif" font-size="12.00" fill="#000000"> </text>
<polyline fill="none" stroke="#bfbfbf" points="219.5,-1149.5 263.5,-1149.5 "/>
<text text-anchor="middle" x="241.5" y="-1135.9" font-family="Helvetica,sans-Serif" font-size="12.00" fill="#000000"> </text>
</g>
<!-- Node8&#45;&gt;Node7 -->
<g id="edge6" class="edge">
<title>Node8&#45;&gt;Node7</title>
<path fill="none" stroke="#404040" d="M241.5,-1128.125C241.5,-1114.0605 241.5,-1096.5484 241.5,-1078.124"/>
<polygon fill="none" stroke="#404040" points="241.5001,-1077.9119 237.5,-1071.9119 241.5,-1065.9119 245.5,-1071.9118 241.5001,-1077.9119"/>
<text text-anchor="middle" x="269" y="-1100.4" font-family="Helvetica,sans-Serif" font-size="12.00" fill="#000000"> +m_curr_rss</text>
<text text-anchor="middle" x="269" y="-1087.4" font-family="Helvetica,sans-Serif" font-size="12.00" fill="#000000">+m_peak_rss</text>
</g>
<!-- Node9 -->
<g id="node8" class="node">
<title>Node9</title>
<polygon fill="#ffffff" stroke="#bfbfbf" points="315,-655.5 315,-731.5 410,-731.5 410,-655.5 315,-655.5"/>
<text text-anchor="start" x="323" y="-717.9" font-family="Helvetica,sans-Serif" font-size="12.00" fill="#000000">tuple&lt; time_point_t,</text>
<text text-anchor="middle" x="362.5" y="-704.9" font-family="Helvetica,sans-Serif" font-size="12.00" fill="#000000"> time_point_t &gt;</text>
<polyline fill="none" stroke="#bfbfbf" points="315,-697.5 410,-697.5 "/>
<text text-anchor="middle" x="362.5" y="-683.9" font-family="Helvetica,sans-Serif" font-size="12.00" fill="#000000"> </text>
<polyline fill="none" stroke="#bfbfbf" points="315,-676.5 410,-676.5 "/>
<text text-anchor="middle" x="362.5" y="-662.9" font-family="Helvetica,sans-Serif" font-size="12.00" fill="#000000"> </text>
</g>
<!-- Node9&#45;&gt;Node5 -->
<g id="edge7" class="edge">
<title>Node9&#45;&gt;Node5</title>
<path fill="none" stroke="#404040" d="M367.8507,-655.4506C371.7036,-628.0519 377.1201,-589.5346 382.33,-552.4866"/>
<polygon fill="none" stroke="#404040" points="382.3409,-552.4087 379.2154,-545.9101 384.012,-540.5256 387.1375,-547.0242 382.3409,-552.4087"/>
<text text-anchor="middle" x="398.5" y="-581.9" font-family="Helvetica,sans-Serif" font-size="12.00" fill="#000000"> #m_data</text>
</g>
<!-- Node10 -->
<g id="node9" class="node">
<title>Node10</title>
<polygon fill="#ffffff" stroke="#bfbfbf" points="428.5,-662 428.5,-725 462.5,-725 462.5,-662 428.5,-662"/>
<text text-anchor="middle" x="445.5" y="-711.4" font-family="Helvetica,sans-Serif" font-size="12.00" fill="#000000">bool</text>
<polyline fill="none" stroke="#bfbfbf" points="428.5,-704 462.5,-704 "/>
<text text-anchor="middle" x="445.5" y="-690.4" font-family="Helvetica,sans-Serif" font-size="12.00" fill="#000000"> </text>
<polyline fill="none" stroke="#bfbfbf" points="428.5,-683 462.5,-683 "/>
<text text-anchor="middle" x="445.5" y="-669.4" font-family="Helvetica,sans-Serif" font-size="12.00" fill="#000000"> </text>
</g>
<!-- Node10&#45;&gt;Node5 -->
<g id="edge8" class="edge">
<title>Node10&#45;&gt;Node5</title>
<path fill="none" stroke="#404040" d="M439.6897,-661.8526C434.6375,-634.3339 426.996,-592.7124 419.6615,-552.7624"/>
<polygon fill="none" stroke="#404040" points="419.6168,-552.5188 414.5991,-547.3397 417.4498,-540.716 422.4676,-545.8951 419.6168,-552.5188"/>
<text text-anchor="middle" x="454" y="-581.9" font-family="Helvetica,sans-Serif" font-size="12.00" fill="#000000"> #m_running</text>
</g>
<!-- Node11&#45;&gt;Node2 -->
<g id="edge9" class="edge">
<title>Node11&#45;&gt;Node2</title>
<path fill="none" stroke="#404040" d="M310.181,-352.7131C335.0657,-314.8204 364.499,-270.0015 390.1223,-230.9843"/>
<polygon fill="none" stroke="#404040" points="390.3071,-230.7028 390.2572,-223.4919 396.8943,-220.6724 396.9441,-227.8833 390.3071,-230.7028"/>
<text text-anchor="middle" x="372" y="-293.4" font-family="Helvetica,sans-Serif" font-size="12.00" fill="#000000"> #m_accum</text>
</g>
<!-- Node12 -->
<g id="node11" class="node">
<title>Node12</title>
<polygon fill="#ffffff" stroke="#bfbfbf" points="0,-662 0,-725 49,-725 49,-662 0,-662"/>
<text text-anchor="middle" x="24.5" y="-711.4" font-family="Helvetica,sans-Serif" font-size="12.00" fill="#000000">uint64_t</text>
<polyline fill="none" stroke="#bfbfbf" points="0,-704 49,-704 "/>
<text text-anchor="middle" x="24.5" y="-690.4" font-family="Helvetica,sans-Serif" font-size="12.00" fill="#000000"> </text>
<polyline fill="none" stroke="#bfbfbf" points="0,-683 49,-683 "/>
<text text-anchor="middle" x="24.5" y="-669.4" font-family="Helvetica,sans-Serif" font-size="12.00" fill="#000000"> </text>
</g>
<!-- Node12&#45;&gt;Node11 -->
<g id="edge10" class="edge">
<title>Node12&#45;&gt;Node11</title>
<path fill="none" stroke="#404040" d="M33.3077,-661.8956C38.7179,-646.7306 46.8816,-629.0658 58.5,-616 84.1806,-587.1203 98.2248,-587.7859 133.5,-572 157.3626,-561.3213 169.2782,-570.5691 189.5,-554 189.6008,-553.9174 189.7014,-553.8347 189.8019,-553.7517"/>
<polygon fill="none" stroke="#404040" points="189.9441,-553.6211 191.6559,-546.6161 198.7804,-545.502 197.0686,-552.507 189.9441,-553.6211"/>
<text text-anchor="middle" x="150" y="-581.9" font-family="Helvetica,sans-Serif" font-size="12.00" fill="#000000"> #m_lap</text>
</g>
<!-- Node13 -->
<g id="node12" class="node">
<title>Node13</title>
<polygon fill="#ffffff" stroke="#bfbfbf" points="67.5,-655.5 67.5,-731.5 167.5,-731.5 167.5,-655.5 67.5,-655.5"/>
<text text-anchor="start" x="75.5" y="-717.9" font-family="Helvetica,sans-Serif" font-size="12.00" fill="#000000">tuple&lt; uint_type, uint</text>
<text text-anchor="middle" x="117.5" y="-704.9" font-family="Helvetica,sans-Serif" font-size="12.00" fill="#000000">_type, uint_type &gt;</text>
<polyline fill="none" stroke="#bfbfbf" points="67.5,-697.5 167.5,-697.5 "/>
<text text-anchor="middle" x="117.5" y="-683.9" font-family="Helvetica,sans-Serif" font-size="12.00" fill="#000000"> </text>
<polyline fill="none" stroke="#bfbfbf" points="67.5,-676.5 167.5,-676.5 "/>
<text text-anchor="middle" x="117.5" y="-662.9" font-family="Helvetica,sans-Serif" font-size="12.00" fill="#000000"> </text>
</g>
<!-- Node13&#45;&gt;Node11 -->
<g id="edge12" class="edge">
<title>Node13&#45;&gt;Node11</title>
<path fill="none" stroke="#404040" d="M137.8624,-655.4506C152.5502,-628.0048 173.2086,-589.4022 193.0664,-552.2957"/>
<polygon fill="none" stroke="#404040" points="193.255,-551.9432 192.5593,-544.7657 198.9171,-541.363 199.6128,-548.5405 193.255,-551.9432"/>
<text text-anchor="middle" x="201.5" y="-588.4" font-family="Helvetica,sans-Serif" font-size="12.00" fill="#000000"> #m_sum</text>
<text text-anchor="middle" x="201.5" y="-575.4" font-family="Helvetica,sans-Serif" font-size="12.00" fill="#000000">#m_sqr</text>
</g>
<!-- Node14 -->
<g id="node13" class="node">
<title>Node14</title>
<g id="a_node13"><a xlink:title="STL class. ">
<polygon fill="#ffffff" stroke="#bfbfbf" points="479.5,-406 479.5,-469 535.5,-469 535.5,-406 479.5,-406"/>
<text text-anchor="middle" x="507.5" y="-455.4" font-family="Helvetica,sans-Serif" font-size="12.00" fill="#000000">std::string</text>
<polyline fill="none" stroke="#bfbfbf" points="479.5,-448 535.5,-448 "/>
<text text-anchor="middle" x="507.5" y="-434.4" font-family="Helvetica,sans-Serif" font-size="12.00" fill="#000000"> </text>
<polyline fill="none" stroke="#bfbfbf" points="479.5,-427 535.5,-427 "/>
<text text-anchor="middle" x="507.5" y="-413.4" font-family="Helvetica,sans-Serif" font-size="12.00" fill="#000000"> </text>
</a>
</g>
</g>
<!-- Node14&#45;&gt;Node2 -->
<g id="edge13" class="edge">
<title>Node14&#45;&gt;Node2</title>
<path fill="none" stroke="#404040" d="M501.718,-405.8041C496.3138,-376.1795 487.8375,-329.714 479.432,-283.6365"/>
<polygon fill="none" stroke="#404040" points="479.3942,-283.4289 474.3824,-278.2442 477.2406,-271.6237 482.2525,-276.8084 479.3942,-283.4289"/>
<text text-anchor="middle" x="519" y="-293.4" font-family="Helvetica,sans-Serif" font-size="12.00" fill="#000000"> #m_format_string</text>
</g>
<!-- Node15 -->
<g id="node14" class="node">
<title>Node15</title>
<g id="a_node14"><a xlink:title="STL class. ">
<polygon fill="#ffffff" stroke="#bfbfbf" points="481,-655.5 481,-731.5 568,-731.5 568,-655.5 481,-655.5"/>
<text text-anchor="start" x="489" y="-717.9" font-family="Helvetica,sans-Serif" font-size="12.00" fill="#000000">std::basic_string&lt;</text>
<text text-anchor="middle" x="524.5" y="-704.9" font-family="Helvetica,sans-Serif" font-size="12.00" fill="#000000"> char &gt;</text>
<polyline fill="none" stroke="#bfbfbf" points="481,-697.5 568,-697.5 "/>
<text text-anchor="middle" x="524.5" y="-683.9" font-family="Helvetica,sans-Serif" font-size="12.00" fill="#000000"> </text>
<polyline fill="none" stroke="#bfbfbf" points="481,-676.5 568,-676.5 "/>
<text text-anchor="middle" x="524.5" y="-662.9" font-family="Helvetica,sans-Serif" font-size="12.00" fill="#000000"> </text>
</a>
</g>
</g>
<!-- Node15&#45;&gt;Node14 -->
<g id="edge14" class="edge">
<title>Node15&#45;&gt;Node14</title>
<path fill="none" stroke="#191970" d="M521.2941,-645.2237C517.8702,-593.6635 512.542,-513.4271 509.6108,-469.2856"/>
<polygon fill="none" stroke="#191970" points="517.8183,-645.7046 521.9733,-655.4506 524.8029,-645.2407 517.8183,-645.7046"/>
</g>
<!-- Node16 -->
<g id="node15" class="node">
<title>Node16</title>
<polygon fill="#ffffff" stroke="#bfbfbf" points="557.5,-406 557.5,-469 669.5,-469 669.5,-406 557.5,-406"/>
<text text-anchor="middle" x="613.5" y="-455.4" font-family="Helvetica,sans-Serif" font-size="12.00" fill="#000000">std::vector&lt; fieldpos_t &gt;</text>
<polyline fill="none" stroke="#bfbfbf" points="557.5,-448 669.5,-448 "/>
<text text-anchor="middle" x="613.5" y="-434.4" font-family="Helvetica,sans-Serif" font-size="12.00" fill="#000000"> </text>
<polyline fill="none" stroke="#bfbfbf" points="557.5,-427 669.5,-427 "/>
<text text-anchor="middle" x="613.5" y="-413.4" font-family="Helvetica,sans-Serif" font-size="12.00" fill="#000000"> </text>
</g>
<!-- Node16&#45;&gt;Node2 -->
<g id="edge15" class="edge">
<title>Node16&#45;&gt;Node2</title>
<path fill="none" stroke="#404040" d="M604.462,-405.7221C595.1754,-375.161 579.2987,-328.1144 559.5,-290 546.8193,-265.5884 530.8527,-240.5145 515.1508,-217.875"/>
<polygon fill="none" stroke="#404040" points="515.1074,-217.8132 508.3852,-215.2032 508.2089,-207.9942 514.9311,-210.6042 515.1074,-217.8132"/>
<text text-anchor="middle" x="609" y="-293.4" font-family="Helvetica,sans-Serif" font-size="12.00" fill="#000000"> #m_format_positions</text>
</g>
<!-- Node17 -->
<g id="node16" class="node">
<title>Node17</title>
<polygon fill="#ffffff" stroke="#bfbfbf" points="586,-662 586,-725 641,-725 641,-662 586,-662"/>
<text text-anchor="middle" x="613.5" y="-711.4" font-family="Helvetica,sans-Serif" font-size="12.00" fill="#000000">fieldpos_t</text>
<polyline fill="none" stroke="#bfbfbf" points="586,-704 641,-704 "/>
<text text-anchor="middle" x="613.5" y="-690.4" font-family="Helvetica,sans-Serif" font-size="12.00" fill="#000000"> </text>
<polyline fill="none" stroke="#bfbfbf" points="586,-683 641,-683 "/>
<text text-anchor="middle" x="613.5" y="-669.4" font-family="Helvetica,sans-Serif" font-size="12.00" fill="#000000"> </text>
</g>
<!-- Node17&#45;&gt;Node16 -->
<g id="edge16" class="edge">
<title>Node17&#45;&gt;Node16</title>
<path fill="none" stroke="#404040" d="M613.5,-661.8526C613.5,-616.4693 613.5,-532.729 613.5,-481.387"/>
<polygon fill="none" stroke="#404040" points="613.5001,-481.0751 609.5,-475.0751 613.5,-469.0751 617.5,-475.0751 613.5001,-481.0751"/>
<text text-anchor="middle" x="636" y="-581.9" font-family="Helvetica,sans-Serif" font-size="12.00" fill="#000000"> +elements</text>
</g>
<!-- Node18 -->
<g id="node17" class="node">
<title>Node18</title>
<g id="a_node17"><a xlink:title="STL class. ">
<polygon fill="#ffffff" stroke="#bfbfbf" points="659,-662 659,-725 738,-725 738,-662 659,-662"/>
<text text-anchor="middle" x="698.5" y="-711.4" font-family="Helvetica,sans-Serif" font-size="12.00" fill="#000000">std::vector&lt; T &gt;</text>
<polyline fill="none" stroke="#bfbfbf" points="659,-704 738,-704 "/>
<text text-anchor="middle" x="698.5" y="-690.4" font-family="Helvetica,sans-Serif" font-size="12.00" fill="#000000"> </text>
<polyline fill="none" stroke="#bfbfbf" points="659,-683 738,-683 "/>
<text text-anchor="middle" x="698.5" y="-669.4" font-family="Helvetica,sans-Serif" font-size="12.00" fill="#000000"> </text>
</a>
</g>
</g>
<!-- Node18&#45;&gt;Node16 -->
<g id="edge17" class="edge">
<title>Node18&#45;&gt;Node16</title>
<path fill="none" stroke="#ffa500" d="M686.9382,-652.1804C680.1656,-628.5834 671.2463,-598.5071 662.5,-572 650.7802,-536.4813 635.9052,-496.2395 625.6353,-469.1038"/>
<polygon fill="#ffa500" stroke="#ffa500" points="683.5927,-653.2117 689.7026,-661.8674 690.324,-651.2908 683.5927,-653.2117"/>
<text text-anchor="middle" x="699" y="-581.9" font-family="Helvetica,sans-Serif" font-size="12.00" fill="#000000"> &lt; fieldpos_t &gt;</text>
</g>
<!-- Node19 -->
<g id="node18" class="node">
<title>Node19</title>
<polygon fill="#ffffff" stroke="#bfbfbf" points="717,-924.5 717,-987.5 746,-987.5 746,-924.5 717,-924.5"/>
<text text-anchor="middle" x="731.5" y="-973.9" font-family="Helvetica,sans-Serif" font-size="12.00" fill="#000000">T</text>
<polyline fill="none" stroke="#bfbfbf" points="717,-966.5 746,-966.5 "/>
<text text-anchor="middle" x="731.5" y="-952.9" font-family="Helvetica,sans-Serif" font-size="12.00" fill="#000000"> </text>
<polyline fill="none" stroke="#bfbfbf" points="717,-945.5 746,-945.5 "/>
<text text-anchor="middle" x="731.5" y="-931.9" font-family="Helvetica,sans-Serif" font-size="12.00" fill="#000000"> </text>
</g>
<!-- Node19&#45;&gt;Node18 -->
<g id="edge18" class="edge">
<title>Node19&#45;&gt;Node18</title>
<path fill="none" stroke="#404040" d="M720.9554,-924.3469C712.9956,-898.7041 702.7447,-861.4667 698.5,-828 694.6874,-797.9396 694.74,-763.7953 695.7189,-737.431"/>
<polygon fill="none" stroke="#404040" points="695.731,-737.1539 691.9999,-730.9831 696.261,-725.1656 699.9921,-731.3364 695.731,-737.1539"/>
<text text-anchor="middle" x="721" y="-805.4" font-family="Helvetica,sans-Serif" font-size="12.00" fill="#000000"> +elements</text>
</g>
<!-- Node20 -->
<g id="node19" class="node">
<title>Node20</title>
<g id="a_node19"><a xlink:title="STL class. ">
<polygon fill="#ffffff" stroke="#bfbfbf" points="756,-655.5 756,-731.5 853,-731.5 853,-655.5 756,-655.5"/>
<text text-anchor="start" x="764" y="-717.9" font-family="Helvetica,sans-Serif" font-size="12.00" fill="#000000">std::unordered_map</text>
<text text-anchor="middle" x="804.5" y="-704.9" font-family="Helvetica,sans-Serif" font-size="12.00" fill="#000000">&lt; K, T &gt;</text>
<polyline fill="none" stroke="#bfbfbf" points="756,-697.5 853,-697.5 "/>
<text text-anchor="middle" x="804.5" y="-683.9" font-family="Helvetica,sans-Serif" font-size="12.00" fill="#000000"> </text>
<polyline fill="none" stroke="#bfbfbf" points="756,-676.5 853,-676.5 "/>
<text text-anchor="middle" x="804.5" y="-662.9" font-family="Helvetica,sans-Serif" font-size="12.00" fill="#000000"> </text>
</a>
</g>
</g>
<!-- Node19&#45;&gt;Node20 -->
<g id="edge21" class="edge">
<title>Node19&#45;&gt;Node20</title>
<path fill="none" stroke="#404040" d="M736.8101,-924.2304C742.8283,-890.3522 753.6308,-835.3121 767.5,-789 772.0483,-773.8124 777.9168,-757.6192 783.634,-742.9633"/>
<polygon fill="none" stroke="#404040" points="783.7235,-742.7381 782.2243,-735.6846 788.1587,-731.5878 789.6579,-738.6413 783.7235,-742.7381"/>
<text text-anchor="middle" x="790" y="-805.4" font-family="Helvetica,sans-Serif" font-size="12.00" fill="#000000"> +elements</text>
</g>
<!-- Node20&#45;&gt;Node2 -->
<g id="edge19" class="edge">
<title>Node20&#45;&gt;Node2</title>
<path fill="none" stroke="#404040" d="M800.7841,-655.2883C791.1766,-576.6298 758.6386,-395.1907 656.5,-290 614.8052,-247.0593 560.417,-206.6177 518.2852,-177.9618"/>
<polygon fill="none" stroke="#404040" points="518.08,-177.8236 510.8689,-177.7889 508.1275,-171.1192 515.3386,-171.1539 518.08,-177.8236"/>
<text text-anchor="middle" x="815" y="-434.4" font-family="Helvetica,sans-Serif" font-size="12.00" fill="#000000"> &#45;w_mutex_map</text>
</g>
<!-- Node21 -->
<g id="node20" class="node">
<title>Node21</title>
<polygon fill="#ffffff" stroke="#bfbfbf" points="819,-924.5 819,-987.5 848,-987.5 848,-924.5 819,-924.5"/>
<text text-anchor="middle" x="833.5" y="-973.9" font-family="Helvetica,sans-Serif" font-size="12.00" fill="#000000">K</text>
<polyline fill="none" stroke="#bfbfbf" points="819,-966.5 848,-966.5 "/>
<text text-anchor="middle" x="833.5" y="-952.9" font-family="Helvetica,sans-Serif" font-size="12.00" fill="#000000"> </text>
<polyline fill="none" stroke="#bfbfbf" points="819,-945.5 848,-945.5 "/>
<text text-anchor="middle" x="833.5" y="-931.9" font-family="Helvetica,sans-Serif" font-size="12.00" fill="#000000"> </text>
</g>
<!-- Node21&#45;&gt;Node20 -->
<g id="edge20" class="edge">
<title>Node21&#45;&gt;Node20</title>
<path fill="none" stroke="#404040" d="M830.0019,-924.3364C825.0509,-879.5209 815.9483,-797.1269 810.0639,-743.8632"/>
<polygon fill="none" stroke="#404040" points="810.0323,-743.5764 805.3976,-738.0519 808.7145,-731.6489 813.3493,-737.1734 810.0323,-743.5764"/>
<text text-anchor="middle" x="833" y="-805.4" font-family="Helvetica,sans-Serif" font-size="12.00" fill="#000000"> +keys</text>
</g>
<!-- Node22 -->
<g id="node21" class="node">
<title>Node22</title>
<g id="a_node21"><a xlink:title="STL class. ">
<polygon fill="#ffffff" stroke="#bfbfbf" points="876.5,-406 876.5,-469 942.5,-469 942.5,-406 876.5,-406"/>
<text text-anchor="middle" x="909.5" y="-455.4" font-family="Helvetica,sans-Serif" font-size="12.00" fill="#000000">std::ostream</text>
<polyline fill="none" stroke="#bfbfbf" points="876.5,-448 942.5,-448 "/>
<text text-anchor="middle" x="909.5" y="-434.4" font-family="Helvetica,sans-Serif" font-size="12.00" fill="#000000"> </text>
<polyline fill="none" stroke="#bfbfbf" points="876.5,-427 942.5,-427 "/>
<text text-anchor="middle" x="909.5" y="-413.4" font-family="Helvetica,sans-Serif" font-size="12.00" fill="#000000"> </text>
</a>
</g>
</g>
<!-- Node22&#45;&gt;Node2 -->
<g id="edge22" class="edge">
<title>Node22&#45;&gt;Node2</title>
<path fill="none" stroke="#404040" d="M895.7112,-405.7988C883.4981,-380.4928 863.7064,-345.3617 838.5,-321 746.4767,-232.0607 603.5814,-179.062 519.9038,-153.8975"/>
<polygon fill="none" stroke="#404040" points="519.76,-153.8551 512.8731,-155.993 508.2508,-150.4581 515.1378,-148.3202 519.76,-153.8551"/>
<text text-anchor="middle" x="828.5" y="-293.4" font-family="Helvetica,sans-Serif" font-size="12.00" fill="#000000"> #m_os</text>
</g>
<!-- Node23 -->
<g id="node22" class="node">
<title>Node23</title>
<g id="a_node22"><a xlink:title="STL class. ">
<polygon fill="#ffffff" stroke="#bfbfbf" points="872.5,-655.5 872.5,-731.5 964.5,-731.5 964.5,-655.5 872.5,-655.5"/>
<text text-anchor="start" x="880.5" y="-717.9" font-family="Helvetica,sans-Serif" font-size="12.00" fill="#000000">std::basic_ostream</text>
<text text-anchor="middle" x="918.5" y="-704.9" font-family="Helvetica,sans-Serif" font-size="12.00" fill="#000000">&lt; char &gt;</text>
<polyline fill="none" stroke="#bfbfbf" points="872.5,-697.5 964.5,-697.5 "/>
<text text-anchor="middle" x="918.5" y="-683.9" font-family="Helvetica,sans-Serif" font-size="12.00" fill="#000000"> </text>
<polyline fill="none" stroke="#bfbfbf" points="872.5,-676.5 964.5,-676.5 "/>
<text text-anchor="middle" x="918.5" y="-662.9" font-family="Helvetica,sans-Serif" font-size="12.00" fill="#000000"> </text>
</a>
</g>
</g>
<!-- Node23&#45;&gt;Node22 -->
<g id="edge23" class="edge">
<title>Node23&#45;&gt;Node22</title>
<path fill="none" stroke="#191970" d="M916.8028,-645.2237C914.9901,-593.6635 912.1693,-513.4271 910.6175,-469.2856"/>
<polygon fill="none" stroke="#191970" points="913.313,-645.5798 917.1623,-655.4506 920.3087,-645.3338 913.313,-645.5798"/>
</g>
<!-- Node24 -->
<g id="node23" class="node">
<title>Node24</title>
<g id="a_node23"><a xlink:title="STL class. ">
<polygon fill="#ffffff" stroke="#bfbfbf" points="866.5,-924.5 866.5,-987.5 972.5,-987.5 972.5,-924.5 866.5,-924.5"/>
<text text-anchor="middle" x="919.5" y="-973.9" font-family="Helvetica,sans-Serif" font-size="12.00" fill="#000000">std::basic_ios&lt; Char &gt;</text>
<polyline fill="none" stroke="#bfbfbf" points="866.5,-966.5 972.5,-966.5 "/>
<text text-anchor="middle" x="919.5" y="-952.9" font-family="Helvetica,sans-Serif" font-size="12.00" fill="#000000"> </text>
<polyline fill="none" stroke="#bfbfbf" points="866.5,-945.5 972.5,-945.5 "/>
<text text-anchor="middle" x="919.5" y="-931.9" font-family="Helvetica,sans-Serif" font-size="12.00" fill="#000000"> </text>
</a>
</g>
</g>
<!-- Node24&#45;&gt;Node23 -->
<g id="edge24" class="edge">
<title>Node24&#45;&gt;Node23</title>
<path fill="none" stroke="#191970" d="M919.3405,-914.1371C919.149,-863.8531 918.8304,-780.2197 918.6453,-731.6489"/>
<polygon fill="none" stroke="#191970" points="915.8412,-914.3498 919.3794,-924.3364 922.8412,-914.3231 915.8412,-914.3498"/>
</g>
<!-- Node25 -->
<g id="node24" class="node">
<title>Node25</title>
<g id="a_node24"><a xlink:title="STL class. ">
<polygon fill="#ffffff" stroke="#bfbfbf" points="884.5,-1128.5 884.5,-1191.5 954.5,-1191.5 954.5,-1128.5 884.5,-1128.5"/>
<text text-anchor="middle" x="919.5" y="-1177.9" font-family="Helvetica,sans-Serif" font-size="12.00" fill="#000000">std::ios_base</text>
<polyline fill="none" stroke="#bfbfbf" points="884.5,-1170.5 954.5,-1170.5 "/>
<text text-anchor="middle" x="919.5" y="-1156.9" font-family="Helvetica,sans-Serif" font-size="12.00" fill="#000000"> </text>
<polyline fill="none" stroke="#bfbfbf" points="884.5,-1149.5 954.5,-1149.5 "/>
<text text-anchor="middle" x="919.5" y="-1135.9" font-family="Helvetica,sans-Serif" font-size="12.00" fill="#000000"> </text>
</a>
</g>
</g>
<!-- Node25&#45;&gt;Node24 -->
<g id="edge25" class="edge">
<title>Node25&#45;&gt;Node24</title>
<path fill="none" stroke="#191970" d="M919.5,-1117.7098C919.5,-1079.0031 919.5,-1022.5909 919.5,-987.6512"/>
<polygon fill="none" stroke="#191970" points="916.0001,-1118.125 919.5,-1128.125 923.0001,-1118.125 916.0001,-1118.125"/>
</g>
</g>
</svg>
