<?xml version="1.0" encoding="UTF-8" standalone="no"?>
<!DOCTYPE svg PUBLIC "-//W3C//DTD SVG 1.1//EN"
 "http://www.w3.org/Graphics/SVG/1.1/DTD/svg11.dtd">
<!-- Generated by graphviz version 2.40.1 (20161225.0304)
 -->
<!-- Title: timemory/timing_manager.hpp Pages: 1 -->
<svg width="718pt" height="159pt"
 viewBox="0.00 0.00 717.50 159.00" xmlns="http://www.w3.org/2000/svg" xmlns:xlink="http://www.w3.org/1999/xlink">
<g id="graph0" class="graph" transform="scale(1 1) rotate(0) translate(4 155)">
<title>timemory/timing_manager.hpp</title>
<polygon fill="#ffffff" stroke="transparent" points="-4,4 -4,-155 713.5,-155 713.5,4 -4,4"/>
<!-- Node49 -->
<g id="node1" class="node">
<title>Node49</title>
<polygon fill="#bfbfbf" stroke="#000000" points="321.5,-129.5 321.5,-150.5 459.5,-150.5 459.5,-129.5 321.5,-129.5"/>
<text text-anchor="middle" x="390.5" y="-136.9" font-family="Helvetica,sans-Serif" font-size="12.00" fill="#000000">timemory/timing_manager.hpp</text>
</g>
<!-- Node50 -->
<g id="node2" class="node">
<title>Node50</title>
<g id="a_node2"><a xlink:href="../../d0/d90/ex1_2test__timing_8cpp.html" target="_top" xlink:title="examples/ex1/test_timing.cpp">
<polygon fill="#ffffff" stroke="#000000" points="0,-7 0,-28 135,-28 135,-7 0,-7"/>
<text text-anchor="middle" x="67.5" y="-14.4" font-family="Helvetica,sans-Serif" font-size="12.00" fill="#000000">examples/ex1/test_timing.cpp</text>
</a>
</g>
</g>
<!-- Node49&#45;&gt;Node50 -->
<g id="edge1" class="edge">
<title>Node49&#45;&gt;Node50</title>
<path fill="none" stroke="#191970" d="M353.1559,-125.837C287.65,-100.9934 153.4827,-50.1095 95.366,-28.0684"/>
<polygon fill="#191970" stroke="#191970" points="352.0903,-129.1761 362.6816,-129.4497 354.5727,-122.631 352.0903,-129.1761"/>
</g>
<!-- Node51 -->
<g id="node3" class="node">
<title>Node51</title>
<g id="a_node3"><a xlink:href="../../dd/d0a/mpi__test__timing_8cpp.html" target="_top" xlink:title="examples/ex2/mpi_test\l_timing.cpp">
<polygon fill="#ffffff" stroke="#000000" points="153,-.5 153,-34.5 262,-34.5 262,-.5 153,-.5"/>
<text text-anchor="start" x="161" y="-20.9" font-family="Helvetica,sans-Serif" font-size="12.00" fill="#000000">examples/ex2/mpi_test</text>
<text text-anchor="middle" x="207.5" y="-7.9" font-family="Helvetica,sans-Serif" font-size="12.00" fill="#000000">_timing.cpp</text>
</a>
</g>
</g>
<!-- Node49&#45;&gt;Node51 -->
<g id="edge2" class="edge">
<title>Node49&#45;&gt;Node51</title>
<path fill="none" stroke="#191970" d="M366.0086,-123.6055C331.3486,-100.4041 268.2937,-58.1952 233.0605,-34.6101"/>
<polygon fill="#191970" stroke="#191970" points="364.3231,-126.689 374.5801,-129.3432 368.217,-120.872 364.3231,-126.689"/>
</g>
<!-- Node52 -->
<g id="node4" class="node">
<title>Node52</title>
<g id="a_node4"><a xlink:href="../../d2/dc1/ex3_2test__timing_8cpp.html" target="_top" xlink:title="examples/ex3/test_timing.cpp">
<polygon fill="#ffffff" stroke="#000000" points="280,-7 280,-28 415,-28 415,-7 280,-7"/>
<text text-anchor="middle" x="347.5" y="-14.4" font-family="Helvetica,sans-Serif" font-size="12.00" fill="#000000">examples/ex3/test_timing.cpp</text>
</a>
</g>
</g>
<!-- Node49&#45;&gt;Node52 -->
<g id="edge3" class="edge">
<title>Node49&#45;&gt;Node52</title>
<path fill="none" stroke="#191970" d="M379.352,-120.6107C374.9063,-112.3025 370.0198,-102.3702 366.5,-93 358.1348,-70.7306 352.2913,-43.3961 349.456,-28.4867"/>
<polygon fill="#191970" stroke="#191970" points="376.3581,-122.4292 384.2601,-129.4867 382.4839,-119.0418 376.3581,-122.4292"/>
</g>
<!-- Node53 -->
<g id="node5" class="node">
<title>Node53</title>
<g id="a_node5"><a xlink:href="../../d8/d07/auto__timer_8hpp.html" target="_top" xlink:title="timemory/auto_timer.hpp">
<polygon fill="#ffffff" stroke="#000000" points="375.5,-71.5 375.5,-92.5 491.5,-92.5 491.5,-71.5 375.5,-71.5"/>
<text text-anchor="middle" x="433.5" y="-78.9" font-family="Helvetica,sans-Serif" font-size="12.00" fill="#000000">timemory/auto_timer.hpp</text>
</a>
</g>
</g>
<!-- Node49&#45;&gt;Node53 -->
<g id="edge4" class="edge">
<title>Node49&#45;&gt;Node53</title>
<path fill="none" stroke="#191970" d="M404.4006,-121.2504C411.444,-111.75 419.7362,-100.5651 425.6631,-92.5707"/>
<polygon fill="#191970" stroke="#191970" points="401.5309,-119.2443 398.3869,-129.3619 407.1541,-123.4132 401.5309,-119.2443"/>
</g>
<!-- Node55 -->
<g id="node7" class="node">
<title>Node55</title>
<g id="a_node7"><a xlink:href="../../d2/dfd/timemory_8cc.html" target="_top" xlink:title="timemory.cc">
<polygon fill="#ffffff" stroke="#000000" points="528,-7 528,-28 593,-28 593,-7 528,-7"/>
<text text-anchor="middle" x="560.5" y="-14.4" font-family="Helvetica,sans-Serif" font-size="12.00" fill="#000000">timemory.cc</text>
</a>
</g>
</g>
<!-- Node49&#45;&gt;Node55 -->
<g id="edge11" class="edge">
<title>Node49&#45;&gt;Node55</title>
<path fill="none" stroke="#191970" d="M436.6673,-126.0759C457.4605,-118.4031 481.5402,-107.4596 500.5,-93 524.7295,-74.5215 544.8336,-44.157 554.4317,-28.1465"/>
<polygon fill="#191970" stroke="#191970" points="435.3261,-122.8378 427.0688,-129.4762 437.6636,-129.436 435.3261,-122.8378"/>
</g>
<!-- Node56 -->
<g id="node8" class="node">
<title>Node56</title>
<g id="a_node8"><a xlink:href="../../d9/dad/timing__manager_8cpp.html" target="_top" xlink:title="timing_manager.cpp">
<polygon fill="#ffffff" stroke="#000000" points="611.5,-7 611.5,-28 709.5,-28 709.5,-7 611.5,-7"/>
<text text-anchor="middle" x="660.5" y="-14.4" font-family="Helvetica,sans-Serif" font-size="12.00" fill="#000000">timing_manager.cpp</text>
</a>
</g>
</g>
<!-- Node49&#45;&gt;Node56 -->
<g id="edge12" class="edge">
<title>Node49&#45;&gt;Node56</title>
<path fill="none" stroke="#191970" d="M436.549,-126.3688C463.2717,-117.8978 497.3114,-106.1371 526.5,-93 570.5731,-73.1637 619.3098,-43.6352 644.0836,-28.036"/>
<polygon fill="#191970" stroke="#191970" points="435.1912,-123.1261 426.6909,-129.4503 437.2797,-129.8073 435.1912,-123.1261"/>
</g>
<!-- Node53&#45;&gt;Node50 -->
<g id="edge5" class="edge">
<title>Node53&#45;&gt;Node50</title>
<path fill="none" stroke="#191970" d="M365.321,-72.2423C306.4098,-63.5029 219.0859,-49.8108 143.5,-35 133.0032,-32.9432 121.7475,-30.4893 111.2007,-28.0793"/>
<polygon fill="#191970" stroke="#191970" points="364.8482,-75.7103 375.2522,-73.7086 365.8707,-68.7854 364.8482,-75.7103"/>
</g>
<!-- Node53&#45;&gt;Node51 -->
<g id="edge6" class="edge">
<title>Node53&#45;&gt;Node51</title>
<path fill="none" stroke="#191970" d="M386.8518,-68.6867C350.5785,-58.3343 300.1799,-43.9507 262.0417,-33.0661"/>
<polygon fill="#191970" stroke="#191970" points="386.1096,-72.1146 396.6862,-71.4934 388.0307,-65.3833 386.1096,-72.1146"/>
</g>
<!-- Node53&#45;&gt;Node52 -->
<g id="edge7" class="edge">
<title>Node53&#45;&gt;Node52</title>
<path fill="none" stroke="#191970" d="M411.1889,-65.2666C395.5716,-53.5537 375.1742,-38.2556 361.7222,-28.1667"/>
<polygon fill="#191970" stroke="#191970" points="409.1988,-68.1491 419.2988,-71.3491 413.3988,-62.5491 409.1988,-68.1491"/>
</g>
<!-- Node54 -->
<g id="node6" class="node">
<title>Node54</title>
<g id="a_node6"><a xlink:href="../../d2/d80/auto__timer_8cpp.html" target="_top" xlink:title="auto_timer.cpp">
<polygon fill="#ffffff" stroke="#000000" points="433.5,-7 433.5,-28 509.5,-28 509.5,-7 433.5,-7"/>
<text text-anchor="middle" x="471.5" y="-14.4" font-family="Helvetica,sans-Serif" font-size="12.00" fill="#000000">auto_timer.cpp</text>
</a>
</g>
</g>
<!-- Node53&#45;&gt;Node54 -->
<g id="edge8" class="edge">
<title>Node53&#45;&gt;Node54</title>
<path fill="none" stroke="#191970" d="M444.8911,-62.6651C451.4992,-51.4487 459.5783,-37.7356 465.0887,-28.3823"/>
<polygon fill="#191970" stroke="#191970" points="441.8354,-60.9566 439.7749,-71.3491 447.8666,-64.5098 441.8354,-60.9566"/>
</g>
<!-- Node53&#45;&gt;Node55 -->
<g id="edge9" class="edge">
<title>Node53&#45;&gt;Node55</title>
<path fill="none" stroke="#191970" d="M463.3648,-66.8324C486.8881,-54.8856 519.0681,-38.5422 539.8215,-28.0021"/>
<polygon fill="#191970" stroke="#191970" points="461.5185,-63.8445 454.1874,-71.4934 464.6883,-70.0858 461.5185,-63.8445"/>
</g>
<!-- Node53&#45;&gt;Node56 -->
<g id="edge10" class="edge">
<title>Node53&#45;&gt;Node56</title>
<path fill="none" stroke="#191970" d="M482.5736,-68.6559C516.346,-59.3982 562.2086,-46.6796 602.5,-35 610.0765,-32.8038 618.1918,-30.3923 625.8799,-28.0803"/>
<polygon fill="#191970" stroke="#191970" points="481.2215,-65.3972 472.5002,-71.4129 483.0695,-72.1488 481.2215,-65.3972"/>
</g>
</g>
</svg>
