<?xml version="1.0" encoding="UTF-8" standalone="no"?>
<!DOCTYPE svg PUBLIC "-//W3C//DTD SVG 1.1//EN"
 "http://www.w3.org/Graphics/SVG/1.1/DTD/svg11.dtd">
<!-- Generated by graphviz version 2.40.1 (20161225.0304)
 -->
<!-- Title: timemory/timing_manager.hpp Pages: 1 -->
<svg width="438pt" height="146pt"
 viewBox="0.00 0.00 437.50 146.00" xmlns="http://www.w3.org/2000/svg" xmlns:xlink="http://www.w3.org/1999/xlink">
<g id="graph0" class="graph" transform="scale(1 1) rotate(0) translate(4 142)">
<title>timemory/timing_manager.hpp</title>
<polygon fill="#ffffff" stroke="transparent" points="-4,4 -4,-142 433.5,-142 433.5,4 -4,4"/>
<!-- Node48 -->
<g id="node1" class="node">
<title>Node48</title>
<polygon fill="#bfbfbf" stroke="#000000" points="168.5,-116.5 168.5,-137.5 306.5,-137.5 306.5,-116.5 168.5,-116.5"/>
<text text-anchor="middle" x="237.5" y="-123.9" font-family="Helvetica,sans-Serif" font-size="12.00" fill="#000000">timemory/timing_manager.hpp</text>
</g>
<!-- Node49 -->
<g id="node2" class="node">
<title>Node49</title>
<g id="a_node2"><a xlink:href="../../d6/d8e/test__timing_8cpp.html" target="_top" xlink:title="examples/ex1/test_timing.cpp">
<polygon fill="#ffffff" stroke="#000000" points="0,-.5 0,-21.5 135,-21.5 135,-.5 0,-.5"/>
<text text-anchor="middle" x="67.5" y="-7.9" font-family="Helvetica,sans-Serif" font-size="12.00" fill="#000000">examples/ex1/test_timing.cpp</text>
</a>
</g>
</g>
<!-- Node48&#45;&gt;Node49 -->
<g id="edge1" class="edge">
<title>Node48&#45;&gt;Node49</title>
<path fill="none" stroke="#191970" d="M192.5533,-113.0376C171.6135,-105.2637 147.0649,-94.2478 127.5,-80 104.6579,-63.3657 84.5731,-36.5048 74.4544,-21.6806"/>
<polygon fill="#191970" stroke="#191970" points="191.6019,-116.4144 202.1965,-116.4871 193.9596,-109.8234 191.6019,-116.4144"/>
</g>
<!-- Node50 -->
<g id="node3" class="node">
<title>Node50</title>
<g id="a_node3"><a xlink:href="../../d8/d07/auto__timer_8hpp.html" target="_top" xlink:title="timemory/auto_timer.hpp">
<polygon fill="#ffffff" stroke="#000000" points="136.5,-58.5 136.5,-79.5 252.5,-79.5 252.5,-58.5 136.5,-58.5"/>
<text text-anchor="middle" x="194.5" y="-65.9" font-family="Helvetica,sans-Serif" font-size="12.00" fill="#000000">timemory/auto_timer.hpp</text>
</a>
</g>
</g>
<!-- Node48&#45;&gt;Node50 -->
<g id="edge2" class="edge">
<title>Node48&#45;&gt;Node50</title>
<path fill="none" stroke="#191970" d="M223.5994,-108.2504C216.556,-98.75 208.2638,-87.5651 202.3369,-79.5707"/>
<polygon fill="#191970" stroke="#191970" points="220.8459,-110.4132 229.6131,-116.3619 226.4691,-106.2443 220.8459,-110.4132"/>
</g>
<!-- Node52 -->
<g id="node5" class="node">
<title>Node52</title>
<g id="a_node5"><a xlink:href="../../d2/dfd/timemory_8cc.html" target="_top" xlink:title="timemory.cc">
<polygon fill="#ffffff" stroke="#000000" points="248,-.5 248,-21.5 313,-21.5 313,-.5 248,-.5"/>
<text text-anchor="middle" x="280.5" y="-7.9" font-family="Helvetica,sans-Serif" font-size="12.00" fill="#000000">timemory.cc</text>
</a>
</g>
</g>
<!-- Node48&#45;&gt;Node52 -->
<g id="edge7" class="edge">
<title>Node48&#45;&gt;Node52</title>
<path fill="none" stroke="#191970" d="M248.5458,-107.5717C252.9749,-99.2572 257.8766,-89.3306 261.5,-80 269.2363,-60.0784 275.1539,-35.7787 278.2043,-21.977"/>
<polygon fill="#191970" stroke="#191970" points="245.4111,-106.0088 243.6685,-116.4594 251.5478,-109.3765 245.4111,-106.0088"/>
</g>
<!-- Node53 -->
<g id="node6" class="node">
<title>Node53</title>
<g id="a_node6"><a xlink:href="../../d9/dad/timing__manager_8cpp.html" target="_top" xlink:title="timing_manager.cpp">
<polygon fill="#ffffff" stroke="#000000" points="331.5,-.5 331.5,-21.5 429.5,-21.5 429.5,-.5 331.5,-.5"/>
<text text-anchor="middle" x="380.5" y="-7.9" font-family="Helvetica,sans-Serif" font-size="12.00" fill="#000000">timing_manager.cpp</text>
</a>
</g>
</g>
<!-- Node48&#45;&gt;Node53 -->
<g id="edge8" class="edge">
<title>Node48&#45;&gt;Node53</title>
<path fill="none" stroke="#191970" d="M258.8348,-109.6935C288.8298,-85.3618 342.5654,-41.7721 367.3351,-21.6792"/>
<polygon fill="#191970" stroke="#191970" points="256.258,-107.2769 250.6968,-116.2949 260.6679,-112.7132 256.258,-107.2769"/>
</g>
<!-- Node50&#45;&gt;Node49 -->
<g id="edge3" class="edge">
<title>Node50&#45;&gt;Node49</title>
<path fill="none" stroke="#191970" d="M162.1071,-54.2064C139.8265,-44.031 110.7603,-30.7567 90.7568,-21.6212"/>
<polygon fill="#191970" stroke="#191970" points="160.951,-57.5261 171.5013,-58.4966 163.859,-51.1587 160.951,-57.5261"/>
</g>
<!-- Node51 -->
<g id="node4" class="node">
<title>Node51</title>
<g id="a_node4"><a xlink:href="../../d2/d80/auto__timer_8cpp.html" target="_top" xlink:title="auto_timer.cpp">
<polygon fill="#ffffff" stroke="#000000" points="153.5,-.5 153.5,-21.5 229.5,-21.5 229.5,-.5 153.5,-.5"/>
<text text-anchor="middle" x="191.5" y="-7.9" font-family="Helvetica,sans-Serif" font-size="12.00" fill="#000000">auto_timer.cpp</text>
</a>
</g>
</g>
<!-- Node50&#45;&gt;Node51 -->
<g id="edge4" class="edge">
<title>Node50&#45;&gt;Node51</title>
<path fill="none" stroke="#191970" d="M193.4237,-48.1906C192.957,-39.1684 192.4307,-28.9941 192.0468,-21.5707"/>
<polygon fill="#191970" stroke="#191970" points="189.9378,-48.5561 193.9498,-58.3619 196.9284,-48.1944 189.9378,-48.5561"/>
</g>
<!-- Node50&#45;&gt;Node52 -->
<g id="edge5" class="edge">
<title>Node50&#45;&gt;Node52</title>
<path fill="none" stroke="#191970" d="M218.9051,-52.5407C233.6488,-42.5973 252.0048,-30.2177 264.8263,-21.5707"/>
<polygon fill="#191970" stroke="#191970" points="216.6075,-49.8687 210.2737,-58.3619 220.5215,-55.6722 216.6075,-49.8687"/>
</g>
<!-- Node50&#45;&gt;Node53 -->
<g id="edge6" class="edge">
<title>Node50&#45;&gt;Node53</title>
<path fill="none" stroke="#191970" d="M238.0729,-55.4127C271.2583,-45.0646 316.2792,-31.0258 346.7536,-21.5231"/>
<polygon fill="#191970" stroke="#191970" points="236.6879,-52.1783 228.1832,-58.4966 238.7718,-58.861 236.6879,-52.1783"/>
</g>
</g>
</svg>
