<?xml version="1.0" encoding="UTF-8" standalone="no"?>
<!DOCTYPE svg PUBLIC "-//W3C//DTD SVG 1.1//EN"
 "http://www.w3.org/Graphics/SVG/1.1/DTD/svg11.dtd">
<!-- Generated by graphviz version 2.40.1 (20161225.0304)
 -->
<!-- Title: timemory/timing_manager.hpp Pages: 1 -->
<svg width="326pt" height="146pt"
 viewBox="0.00 0.00 325.50 146.00" xmlns="http://www.w3.org/2000/svg" xmlns:xlink="http://www.w3.org/1999/xlink">
<g id="graph0" class="graph" transform="scale(1 1) rotate(0) translate(4 142)">
<title>timemory/timing_manager.hpp</title>
<polygon fill="#ffffff" stroke="transparent" points="-4,4 -4,-142 321.5,-142 321.5,4 -4,4"/>
<!-- Node48 -->
<g id="node1" class="node">
<title>Node48</title>
<polygon fill="#bfbfbf" stroke="#000000" points="79.5,-116.5 79.5,-137.5 217.5,-137.5 217.5,-116.5 79.5,-116.5"/>
<text text-anchor="middle" x="148.5" y="-123.9" font-family="Helvetica,sans-Serif" font-size="12.00" fill="#000000">timemory/timing_manager.hpp</text>
</g>
<!-- Node49 -->
<g id="node2" class="node">
<title>Node49</title>
<g id="a_node2"><a xlink:href="../../d8/d07/auto__timer_8hpp.html" target="_top" xlink:title="timemory/auto_timer.hpp">
<polygon fill="#ffffff" stroke="#000000" points="47.5,-58.5 47.5,-79.5 163.5,-79.5 163.5,-58.5 47.5,-58.5"/>
<text text-anchor="middle" x="105.5" y="-65.9" font-family="Helvetica,sans-Serif" font-size="12.00" fill="#000000">timemory/auto_timer.hpp</text>
</a>
</g>
</g>
<!-- Node48&#45;&gt;Node49 -->
<g id="edge1" class="edge">
<title>Node48&#45;&gt;Node49</title>
<path fill="none" stroke="#191970" d="M134.5994,-108.2504C127.556,-98.75 119.2638,-87.5651 113.3369,-79.5707"/>
<polygon fill="#191970" stroke="#191970" points="131.8459,-110.4132 140.6131,-116.3619 137.4691,-106.2443 131.8459,-110.4132"/>
</g>
<!-- Node50 -->
<g id="node3" class="node">
<title>Node50</title>
<g id="a_node3"><a xlink:href="../../d2/dfd/timemory_8cc.html" target="_top" xlink:title="timemory.cc">
<polygon fill="#ffffff" stroke="#000000" points="0,-.5 0,-21.5 65,-21.5 65,-.5 0,-.5"/>
<text text-anchor="middle" x="32.5" y="-7.9" font-family="Helvetica,sans-Serif" font-size="12.00" fill="#000000">timemory.cc</text>
</a>
</g>
</g>
<!-- Node48&#45;&gt;Node50 -->
<g id="edge4" class="edge">
<title>Node48&#45;&gt;Node50</title>
<path fill="none" stroke="#191970" d="M84.6898,-112.891C67.0548,-105.8882 49.704,-95.4681 38.5,-80 26.0856,-62.8609 27.905,-36.6748 30.2546,-21.9822"/>
<polygon fill="#191970" stroke="#191970" points="83.8849,-116.322 94.479,-116.4402 86.2709,-109.7412 83.8849,-116.322"/>
</g>
<!-- Node51 -->
<g id="node4" class="node">
<title>Node51</title>
<g id="a_node4"><a xlink:href="../../d6/d8e/test__timing_8cpp.html" target="_top" xlink:title="examples/ex1/test_timing.cpp">
<polygon fill="#ffffff" stroke="#000000" points="110,-.5 110,-21.5 245,-21.5 245,-.5 110,-.5"/>
<text text-anchor="middle" x="177.5" y="-7.9" font-family="Helvetica,sans-Serif" font-size="12.00" fill="#000000">examples/ex1/test_timing.cpp</text>
</a>
</g>
</g>
<!-- Node48&#45;&gt;Node51 -->
<g id="edge6" class="edge">
<title>Node48&#45;&gt;Node51</title>
<path fill="none" stroke="#191970" d="M160.6455,-107.5504C165.1685,-99.3505 169.8441,-89.514 172.5,-80 178.1192,-59.8712 178.4096,-35.2287 178.0192,-21.5073"/>
<polygon fill="#191970" stroke="#191970" points="157.5527,-105.9061 155.5361,-116.3072 163.5988,-109.4339 157.5527,-105.9061"/>
</g>
<!-- Node52 -->
<g id="node5" class="node">
<title>Node52</title>
<g id="a_node5"><a xlink:href="../../d9/dad/timing__manager_8cpp.html" target="_top" xlink:title="timing_manager.cpp">
<polygon fill="#ffffff" stroke="#000000" points="219.5,-58.5 219.5,-79.5 317.5,-79.5 317.5,-58.5 219.5,-58.5"/>
<text text-anchor="middle" x="268.5" y="-65.9" font-family="Helvetica,sans-Serif" font-size="12.00" fill="#000000">timing_manager.cpp</text>
</a>
</g>
</g>
<!-- Node48&#45;&gt;Node52 -->
<g id="edge5" class="edge">
<title>Node48&#45;&gt;Node52</title>
<path fill="none" stroke="#191970" d="M179.3911,-112.0693C200.4061,-101.9121 227.7089,-88.7157 246.5251,-79.6212"/>
<polygon fill="#191970" stroke="#191970" points="177.7115,-108.9937 170.2311,-116.4966 180.7577,-115.2961 177.7115,-108.9937"/>
</g>
<!-- Node49&#45;&gt;Node50 -->
<g id="edge2" class="edge">
<title>Node49&#45;&gt;Node50</title>
<path fill="none" stroke="#191970" d="M84.0724,-51.9753C71.6828,-42.1315 56.4824,-30.0545 45.8044,-21.5707"/>
<polygon fill="#191970" stroke="#191970" points="82.1038,-54.8815 92.1107,-58.3619 86.4584,-49.4008 82.1038,-54.8815"/>
</g>
<!-- Node49&#45;&gt;Node51 -->
<g id="edge3" class="edge">
<title>Node49&#45;&gt;Node51</title>
<path fill="none" stroke="#191970" d="M126.6341,-51.9753C138.854,-42.1315 153.8461,-30.0545 164.3778,-21.5707"/>
<polygon fill="#191970" stroke="#191970" points="124.2978,-49.3629 118.7059,-58.3619 128.6891,-54.8142 124.2978,-49.3629"/>
</g>
</g>
</svg>
