<?xml version="1.0" encoding="UTF-8" standalone="no"?>
<!DOCTYPE svg PUBLIC "-//W3C//DTD SVG 1.1//EN"
 "http://www.w3.org/Graphics/SVG/1.1/DTD/svg11.dtd">
<!-- Generated by graphviz version 2.40.1 (20161225.0304)
 -->
<!-- Title: tim::internal::base_timer_data Pages: 1 -->
<svg width="287pt" height="983pt"
 viewBox="0.00 0.00 286.50 983.00" xmlns="http://www.w3.org/2000/svg" xmlns:xlink="http://www.w3.org/1999/xlink">
<g id="graph0" class="graph" transform="scale(1 1) rotate(0) translate(4 979)">
<title>tim::internal::base_timer_data</title>
<polygon fill="#ffffff" stroke="transparent" points="-4,4 -4,-979 282.5,-979 282.5,4 -4,4"/>
<!-- Node1 -->
<g id="node1" class="node">
<title>Node1</title>
<polygon fill="#bfbfbf" stroke="#000000" points="82,-.5 82,-219.5 179,-219.5 179,-.5 82,-.5"/>
<text text-anchor="start" x="90" y="-205.9" font-family="Helvetica,sans-Serif" font-size="12.00" fill="#000000">tim::internal::base</text>
<text text-anchor="middle" x="130.5" y="-192.9" font-family="Helvetica,sans-Serif" font-size="12.00" fill="#000000">_timer_data</text>
<polyline fill="none" stroke="#000000" points="82,-185.5 179,-185.5 "/>
<text text-anchor="middle" x="130.5" y="-171.9" font-family="Helvetica,sans-Serif" font-size="12.00" fill="#000000"> </text>
<polyline fill="none" stroke="#000000" points="82,-164.5 179,-164.5 "/>
<text text-anchor="start" x="90" y="-150.9" font-family="Helvetica,sans-Serif" font-size="12.00" fill="#000000">+ base_timer_data()</text>
<text text-anchor="start" x="90" y="-137.9" font-family="Helvetica,sans-Serif" font-size="12.00" fill="#000000">+ start()</text>
<text text-anchor="start" x="90" y="-124.9" font-family="Helvetica,sans-Serif" font-size="12.00" fill="#000000">+ stop()</text>
<text text-anchor="start" x="90" y="-111.9" font-family="Helvetica,sans-Serif" font-size="12.00" fill="#000000">+ start()</text>
<text text-anchor="start" x="90" y="-98.9" font-family="Helvetica,sans-Serif" font-size="12.00" fill="#000000">+ stop()</text>
<text text-anchor="start" x="90" y="-85.9" font-family="Helvetica,sans-Serif" font-size="12.00" fill="#000000">+ running()</text>
<text text-anchor="start" x="90" y="-72.9" font-family="Helvetica,sans-Serif" font-size="12.00" fill="#000000">+ serialize()</text>
<text text-anchor="start" x="90" y="-59.9" font-family="Helvetica,sans-Serif" font-size="12.00" fill="#000000">+ rss_init()</text>
<text text-anchor="start" x="90" y="-46.9" font-family="Helvetica,sans-Serif" font-size="12.00" fill="#000000">+ rss_record()</text>
<text text-anchor="start" x="90" y="-33.9" font-family="Helvetica,sans-Serif" font-size="12.00" fill="#000000">+ rss()</text>
<text text-anchor="start" x="90" y="-20.9" font-family="Helvetica,sans-Serif" font-size="12.00" fill="#000000">+ rss()</text>
<text text-anchor="start" x="90" y="-7.9" font-family="Helvetica,sans-Serif" font-size="12.00" fill="#000000">+ operator=()</text>
</g>
<!-- Node2 -->
<g id="node2" class="node">
<title>Node2</title>
<polygon fill="#ffffff" stroke="#bfbfbf" points="0,-354 0,-430 95,-430 95,-354 0,-354"/>
<text text-anchor="start" x="8" y="-416.4" font-family="Helvetica,sans-Serif" font-size="12.00" fill="#000000">tuple&lt; time_point_t,</text>
<text text-anchor="middle" x="47.5" y="-403.4" font-family="Helvetica,sans-Serif" font-size="12.00" fill="#000000"> time_point_t &gt;</text>
<polyline fill="none" stroke="#bfbfbf" points="0,-396 95,-396 "/>
<text text-anchor="middle" x="47.5" y="-382.4" font-family="Helvetica,sans-Serif" font-size="12.00" fill="#000000"> </text>
<polyline fill="none" stroke="#bfbfbf" points="0,-375 95,-375 "/>
<text text-anchor="middle" x="47.5" y="-361.4" font-family="Helvetica,sans-Serif" font-size="12.00" fill="#000000"> </text>
</g>
<!-- Node2&#45;&gt;Node1 -->
<g id="edge1" class="edge">
<title>Node2&#45;&gt;Node1</title>
<path fill="none" stroke="#404040" d="M57.0113,-353.8591C64.9625,-322.5918 76.8448,-277.254 88.5,-238 89.134,-235.8648 89.7789,-233.7113 90.4331,-231.5439"/>
<polygon fill="none" stroke="#404040" points="90.5016,-231.3197 88.4308,-224.4123 94.0104,-219.8441 96.0812,-226.7515 90.5016,-231.3197"/>
<text text-anchor="middle" x="107.5" y="-241.4" font-family="Helvetica,sans-Serif" font-size="12.00" fill="#000000"> #m_data</text>
</g>
<!-- Node3 -->
<g id="node3" class="node">
<title>Node3</title>
<polygon fill="#ffffff" stroke="#bfbfbf" points="113.5,-360.5 113.5,-423.5 147.5,-423.5 147.5,-360.5 113.5,-360.5"/>
<text text-anchor="middle" x="130.5" y="-409.9" font-family="Helvetica,sans-Serif" font-size="12.00" fill="#000000">bool</text>
<polyline fill="none" stroke="#bfbfbf" points="113.5,-402.5 147.5,-402.5 "/>
<text text-anchor="middle" x="130.5" y="-388.9" font-family="Helvetica,sans-Serif" font-size="12.00" fill="#000000"> </text>
<polyline fill="none" stroke="#bfbfbf" points="113.5,-381.5 147.5,-381.5 "/>
<text text-anchor="middle" x="130.5" y="-367.9" font-family="Helvetica,sans-Serif" font-size="12.00" fill="#000000"> </text>
</g>
<!-- Node3&#45;&gt;Node1 -->
<g id="edge2" class="edge">
<title>Node3&#45;&gt;Node1</title>
<path fill="none" stroke="#404040" d="M130.5,-360.4719C130.5,-329.1369 130.5,-279.0713 130.5,-231.9088"/>
<polygon fill="none" stroke="#404040" points="130.5001,-231.6727 126.5,-225.6728 130.5,-219.6727 134.5,-225.6727 130.5001,-231.6727"/>
<text text-anchor="middle" x="156" y="-241.4" font-family="Helvetica,sans-Serif" font-size="12.00" fill="#000000"> #m_running</text>
</g>
<!-- Node4 -->
<g id="node4" class="node">
<title>Node4</title>
<g id="a_node4"><a xlink:href="../../d9/d4f/classtim_1_1internal_1_1base__rss__usage.html" target="_top" xlink:title="{tim::internal::base\l_rss_usage\n||+ init()\l+ record()\l+ total()\l+ self()\l+ total()\l+ self()\l+ total_min()\l+ self_min()\l+ total_min()\l+ self_min()\l+ max()\l+ operator+=()\l+ operator&#45;=()\l+ operator=()\l}">
<polygon fill="#ffffff" stroke="#000000" points="165.5,-269.5 165.5,-514.5 253.5,-514.5 253.5,-269.5 165.5,-269.5"/>
<text text-anchor="start" x="173.5" y="-500.9" font-family="Helvetica,sans-Serif" font-size="12.00" fill="#000000">tim::internal::base</text>
<text text-anchor="middle" x="209.5" y="-487.9" font-family="Helvetica,sans-Serif" font-size="12.00" fill="#000000">_rss_usage</text>
<polyline fill="none" stroke="#000000" points="165.5,-480.5 253.5,-480.5 "/>
<text text-anchor="middle" x="209.5" y="-466.9" font-family="Helvetica,sans-Serif" font-size="12.00" fill="#000000"> </text>
<polyline fill="none" stroke="#000000" points="165.5,-459.5 253.5,-459.5 "/>
<text text-anchor="start" x="173.5" y="-445.9" font-family="Helvetica,sans-Serif" font-size="12.00" fill="#000000">+ init()</text>
<text text-anchor="start" x="173.5" y="-432.9" font-family="Helvetica,sans-Serif" font-size="12.00" fill="#000000">+ record()</text>
<text text-anchor="start" x="173.5" y="-419.9" font-family="Helvetica,sans-Serif" font-size="12.00" fill="#000000">+ total()</text>
<text text-anchor="start" x="173.5" y="-406.9" font-family="Helvetica,sans-Serif" font-size="12.00" fill="#000000">+ self()</text>
<text text-anchor="start" x="173.5" y="-393.9" font-family="Helvetica,sans-Serif" font-size="12.00" fill="#000000">+ total()</text>
<text text-anchor="start" x="173.5" y="-380.9" font-family="Helvetica,sans-Serif" font-size="12.00" fill="#000000">+ self()</text>
<text text-anchor="start" x="173.5" y="-367.9" font-family="Helvetica,sans-Serif" font-size="12.00" fill="#000000">+ total_min()</text>
<text text-anchor="start" x="173.5" y="-354.9" font-family="Helvetica,sans-Serif" font-size="12.00" fill="#000000">+ self_min()</text>
<text text-anchor="start" x="173.5" y="-341.9" font-family="Helvetica,sans-Serif" font-size="12.00" fill="#000000">+ total_min()</text>
<text text-anchor="start" x="173.5" y="-328.9" font-family="Helvetica,sans-Serif" font-size="12.00" fill="#000000">+ self_min()</text>
<text text-anchor="start" x="173.5" y="-315.9" font-family="Helvetica,sans-Serif" font-size="12.00" fill="#000000">+ max()</text>
<text text-anchor="start" x="173.5" y="-302.9" font-family="Helvetica,sans-Serif" font-size="12.00" fill="#000000">+ operator+=()</text>
<text text-anchor="start" x="173.5" y="-289.9" font-family="Helvetica,sans-Serif" font-size="12.00" fill="#000000">+ operator&#45;=()</text>
<text text-anchor="start" x="173.5" y="-276.9" font-family="Helvetica,sans-Serif" font-size="12.00" fill="#000000">+ operator=()</text>
</a>
</g>
</g>
<!-- Node4&#45;&gt;Node1 -->
<g id="edge3" class="edge">
<title>Node4&#45;&gt;Node1</title>
<path fill="none" stroke="#404040" d="M192.2686,-269.1039C189.9637,-258.5123 187.3827,-248.0218 184.5,-238 183.85,-235.74 183.1711,-233.4666 182.4666,-231.1839"/>
<polygon fill="none" stroke="#404040" points="182.4484,-231.1276 176.7917,-226.6552 178.7444,-219.7136 184.4011,-224.1859 182.4484,-231.1276"/>
<text text-anchor="middle" x="204" y="-241.4" font-family="Helvetica,sans-Serif" font-size="12.00" fill="#000000"> #m_rss</text>
</g>
<!-- Node5 -->
<g id="node5" class="node">
<title>Node5</title>
<g id="a_node5"><a xlink:href="../../de/df3/structtim_1_1rss_1_1usage.html" target="_top" xlink:title="{tim::rss::usage\n||+ usage()\l+ usage()\l+ usage()\l+ operator=()\l+ record()\l+ record()\l+ operator()()\l+ operator+=()\l+ operator&#45;=()\l+ current()\l+ peak()\l+ serialize()\l+ max()\l+ min()\l}">
<polygon fill="#ffffff" stroke="#000000" points="172,-616.5 172,-848.5 247,-848.5 247,-616.5 172,-616.5"/>
<text text-anchor="middle" x="209.5" y="-834.9" font-family="Helvetica,sans-Serif" font-size="12.00" fill="#000000">tim::rss::usage</text>
<polyline fill="none" stroke="#000000" points="172,-827.5 247,-827.5 "/>
<text text-anchor="middle" x="209.5" y="-813.9" font-family="Helvetica,sans-Serif" font-size="12.00" fill="#000000"> </text>
<polyline fill="none" stroke="#000000" points="172,-806.5 247,-806.5 "/>
<text text-anchor="start" x="180" y="-792.9" font-family="Helvetica,sans-Serif" font-size="12.00" fill="#000000">+ usage()</text>
<text text-anchor="start" x="180" y="-779.9" font-family="Helvetica,sans-Serif" font-size="12.00" fill="#000000">+ usage()</text>
<text text-anchor="start" x="180" y="-766.9" font-family="Helvetica,sans-Serif" font-size="12.00" fill="#000000">+ usage()</text>
<text text-anchor="start" x="180" y="-753.9" font-family="Helvetica,sans-Serif" font-size="12.00" fill="#000000">+ operator=()</text>
<text text-anchor="start" x="180" y="-740.9" font-family="Helvetica,sans-Serif" font-size="12.00" fill="#000000">+ record()</text>
<text text-anchor="start" x="180" y="-727.9" font-family="Helvetica,sans-Serif" font-size="12.00" fill="#000000">+ record()</text>
<text text-anchor="start" x="180" y="-714.9" font-family="Helvetica,sans-Serif" font-size="12.00" fill="#000000">+ operator()()</text>
<text text-anchor="start" x="180" y="-701.9" font-family="Helvetica,sans-Serif" font-size="12.00" fill="#000000">+ operator+=()</text>
<text text-anchor="start" x="180" y="-688.9" font-family="Helvetica,sans-Serif" font-size="12.00" fill="#000000">+ operator&#45;=()</text>
<text text-anchor="start" x="180" y="-675.9" font-family="Helvetica,sans-Serif" font-size="12.00" fill="#000000">+ current()</text>
<text text-anchor="start" x="180" y="-662.9" font-family="Helvetica,sans-Serif" font-size="12.00" fill="#000000">+ peak()</text>
<text text-anchor="start" x="180" y="-649.9" font-family="Helvetica,sans-Serif" font-size="12.00" fill="#000000">+ serialize()</text>
<text text-anchor="start" x="180" y="-636.9" font-family="Helvetica,sans-Serif" font-size="12.00" fill="#000000">+ max()</text>
<text text-anchor="start" x="180" y="-623.9" font-family="Helvetica,sans-Serif" font-size="12.00" fill="#000000">+ min()</text>
</a>
</g>
</g>
<!-- Node5&#45;&gt;Node4 -->
<g id="edge4" class="edge">
<title>Node5&#45;&gt;Node4</title>
<path fill="none" stroke="#404040" d="M209.5,-616.2716C209.5,-587.4859 209.5,-556.4017 209.5,-526.8119"/>
<polygon fill="none" stroke="#404040" points="209.5001,-526.6765 205.5,-520.6765 209.5,-514.6765 213.5,-520.6764 209.5001,-526.6765"/>
<text text-anchor="middle" x="244" y="-588.4" font-family="Helvetica,sans-Serif" font-size="12.00" fill="#000000"> #m_rss_tmp</text>
<text text-anchor="middle" x="244" y="-575.4" font-family="Helvetica,sans-Serif" font-size="12.00" fill="#000000">#m_rss_self</text>
<text text-anchor="middle" x="244" y="-562.4" font-family="Helvetica,sans-Serif" font-size="12.00" fill="#000000">#m_rss_tot</text>
<text text-anchor="middle" x="244" y="-549.4" font-family="Helvetica,sans-Serif" font-size="12.00" fill="#000000">#m_rss_self_min</text>
<text text-anchor="middle" x="244" y="-536.4" font-family="Helvetica,sans-Serif" font-size="12.00" fill="#000000">#m_rss_tot_min</text>
</g>
<!-- Node6 -->
<g id="node6" class="node">
<title>Node6</title>
<polygon fill="#ffffff" stroke="#bfbfbf" points="187.5,-911.5 187.5,-974.5 231.5,-974.5 231.5,-911.5 187.5,-911.5"/>
<text text-anchor="middle" x="209.5" y="-960.9" font-family="Helvetica,sans-Serif" font-size="12.00" fill="#000000">int64_t</text>
<polyline fill="none" stroke="#bfbfbf" points="187.5,-953.5 231.5,-953.5 "/>
<text text-anchor="middle" x="209.5" y="-939.9" font-family="Helvetica,sans-Serif" font-size="12.00" fill="#000000"> </text>
<polyline fill="none" stroke="#bfbfbf" points="187.5,-932.5 231.5,-932.5 "/>
<text text-anchor="middle" x="209.5" y="-918.9" font-family="Helvetica,sans-Serif" font-size="12.00" fill="#000000"> </text>
</g>
<!-- Node6&#45;&gt;Node5 -->
<g id="edge5" class="edge">
<title>Node6&#45;&gt;Node5</title>
<path fill="none" stroke="#404040" d="M209.5,-911.486C209.5,-897.3063 209.5,-879.5382 209.5,-860.7416"/>
<polygon fill="none" stroke="#404040" points="209.5001,-860.5998 205.5,-854.5998 209.5,-848.5998 213.5,-854.5997 209.5001,-860.5998"/>
<text text-anchor="middle" x="237" y="-883.4" font-family="Helvetica,sans-Serif" font-size="12.00" fill="#000000"> +m_curr_rss</text>
<text text-anchor="middle" x="237" y="-870.4" font-family="Helvetica,sans-Serif" font-size="12.00" fill="#000000">+m_peak_rss</text>
</g>
</g>
</svg>
