<?xml version="1.0" encoding="UTF-8" standalone="no"?>
<!DOCTYPE svg PUBLIC "-//W3C//DTD SVG 1.1//EN"
 "http://www.w3.org/Graphics/SVG/1.1/DTD/svg11.dtd">
<!-- Generated by graphviz version 2.40.1 (20161225.0304)
 -->
<!-- Title: object Pages: 1 -->
<svg width="428pt" height="441pt"
 viewBox="0.00 0.00 428.00 441.00" xmlns="http://www.w3.org/2000/svg" xmlns:xlink="http://www.w3.org/1999/xlink">
<g id="graph0" class="graph" transform="scale(1 1) rotate(0) translate(4 437)">
<title>object</title>
<polygon fill="#ffffff" stroke="transparent" points="-4,4 -4,-437 424,-437 424,4 -4,4"/>
<!-- Node0 -->
<g id="node1" class="node">
<title>Node0</title>
<polygon fill="#bfbfbf" stroke="#000000" points="165.5,-369.5 165.5,-432.5 206.5,-432.5 206.5,-369.5 165.5,-369.5"/>
<text text-anchor="middle" x="186" y="-418.9" font-family="Helvetica,sans-Serif" font-size="12.00" fill="#000000">object</text>
<polyline fill="none" stroke="#000000" points="165.5,-411.5 206.5,-411.5 "/>
<text text-anchor="middle" x="186" y="-397.9" font-family="Helvetica,sans-Serif" font-size="12.00" fill="#000000"> </text>
<polyline fill="none" stroke="#000000" points="165.5,-390.5 206.5,-390.5 "/>
<text text-anchor="middle" x="186" y="-376.9" font-family="Helvetica,sans-Serif" font-size="12.00" fill="#000000"> </text>
</g>
<!-- Node1 -->
<g id="node2" class="node">
<title>Node1</title>
<g id="a_node2"><a xlink:href="../../db/db6/classarray__test_1_1auto__disk__array__weakref.html" target="_top" xlink:title="{array_test.auto_disk\l_array_weakref\n|+ resource\l+ finished\l+ ghost_attributes\l+ is_class\l&#45; __wr_map\l&#45; __wr_id\l|+ bind_finalizer()\l+ remove_finalizer()\l+ enable_auto_rollback()\l+ __finalize__()\l+ __init__()\l+ do_commit()\l+ do_rollback()\l}">
<polygon fill="#ffffff" stroke="#000000" points="0,-113.5 0,-332.5 116,-332.5 116,-113.5 0,-113.5"/>
<text text-anchor="start" x="8" y="-318.9" font-family="Helvetica,sans-Serif" font-size="12.00" fill="#000000">array_test.auto_disk</text>
<text text-anchor="middle" x="58" y="-305.9" font-family="Helvetica,sans-Serif" font-size="12.00" fill="#000000">_array_weakref</text>
<polyline fill="none" stroke="#000000" points="0,-298.5 116,-298.5 "/>
<text text-anchor="start" x="8" y="-284.9" font-family="Helvetica,sans-Serif" font-size="12.00" fill="#000000">+ resource</text>
<text text-anchor="start" x="8" y="-271.9" font-family="Helvetica,sans-Serif" font-size="12.00" fill="#000000">+ finished</text>
<text text-anchor="start" x="8" y="-258.9" font-family="Helvetica,sans-Serif" font-size="12.00" fill="#000000">+ ghost_attributes</text>
<text text-anchor="start" x="8" y="-245.9" font-family="Helvetica,sans-Serif" font-size="12.00" fill="#000000">+ is_class</text>
<text text-anchor="start" x="8" y="-232.9" font-family="Helvetica,sans-Serif" font-size="12.00" fill="#000000">&#45; __wr_map</text>
<text text-anchor="start" x="8" y="-219.9" font-family="Helvetica,sans-Serif" font-size="12.00" fill="#000000">&#45; __wr_id</text>
<polyline fill="none" stroke="#000000" points="0,-212.5 116,-212.5 "/>
<text text-anchor="start" x="8" y="-198.9" font-family="Helvetica,sans-Serif" font-size="12.00" fill="#000000">+ bind_finalizer()</text>
<text text-anchor="start" x="8" y="-185.9" font-family="Helvetica,sans-Serif" font-size="12.00" fill="#000000">+ remove_finalizer()</text>
<text text-anchor="start" x="8" y="-172.9" font-family="Helvetica,sans-Serif" font-size="12.00" fill="#000000">+ enable_auto_rollback()</text>
<text text-anchor="start" x="8" y="-159.9" font-family="Helvetica,sans-Serif" font-size="12.00" fill="#000000">+ __finalize__()</text>
<text text-anchor="start" x="8" y="-146.9" font-family="Helvetica,sans-Serif" font-size="12.00" fill="#000000">+ __init__()</text>
<text text-anchor="start" x="8" y="-133.9" font-family="Helvetica,sans-Serif" font-size="12.00" fill="#000000">+ do_commit()</text>
<text text-anchor="start" x="8" y="-120.9" font-family="Helvetica,sans-Serif" font-size="12.00" fill="#000000">+ do_rollback()</text>
</a>
</g>
</g>
<!-- Node0&#45;&gt;Node1 -->
<g id="edge1" class="edge">
<title>Node0&#45;&gt;Node1</title>
<path fill="none" stroke="#191970" d="M158.4896,-372.7023C147.5459,-360.8557 135.166,-346.6788 125,-333 121.9989,-328.9619 119.0078,-324.7839 116.0481,-320.5218"/>
<polygon fill="none" stroke="#191970" points="156.0466,-375.2141 165.4361,-380.1221 161.1567,-370.4299 156.0466,-375.2141"/>
</g>
<!-- Node2 -->
<g id="node3" class="node">
<title>Node2</title>
<g id="a_node3"><a xlink:href="../../db/d13/classsimple__test_1_1_fibonacci.html" target="_top" xlink:title="{simple_test.Fibonacci\n|+ n\l+ is_class\l|+ __init__()\l+ calculate()\l}">
<polygon fill="#ffffff" stroke="#000000" points="134.5,-178.5 134.5,-267.5 237.5,-267.5 237.5,-178.5 134.5,-178.5"/>
<text text-anchor="middle" x="186" y="-253.9" font-family="Helvetica,sans-Serif" font-size="12.00" fill="#000000">simple_test.Fibonacci</text>
<polyline fill="none" stroke="#000000" points="134.5,-246.5 237.5,-246.5 "/>
<text text-anchor="start" x="142.5" y="-232.9" font-family="Helvetica,sans-Serif" font-size="12.00" fill="#000000">+ n</text>
<text text-anchor="start" x="142.5" y="-219.9" font-family="Helvetica,sans-Serif" font-size="12.00" fill="#000000">+ is_class</text>
<polyline fill="none" stroke="#000000" points="134.5,-212.5 237.5,-212.5 "/>
<text text-anchor="start" x="142.5" y="-198.9" font-family="Helvetica,sans-Serif" font-size="12.00" fill="#000000">+ __init__()</text>
<text text-anchor="start" x="142.5" y="-185.9" font-family="Helvetica,sans-Serif" font-size="12.00" fill="#000000">+ calculate()</text>
</a>
</g>
</g>
<!-- Node0&#45;&gt;Node2 -->
<g id="edge2" class="edge">
<title>Node0&#45;&gt;Node2</title>
<path fill="none" stroke="#191970" d="M186,-359.0789C186,-331.5648 186,-295.6213 186,-267.585"/>
<polygon fill="none" stroke="#191970" points="182.5001,-359.1771 186,-369.1772 189.5001,-359.1772 182.5001,-359.1771"/>
</g>
<!-- Node3 -->
<g id="node4" class="node">
<title>Node3</title>
<g id="a_node4"><a xlink:href="../../dc/d4e/classutil_1_1base__decorator.html" target="_top" xlink:title="{util.base_decorator\n|+ key\l+ add_args\l+ is_class\l|+ __init__()\l+ class_string()\l+ arg_string()\l}">
<polygon fill="#ffffff" stroke="#000000" points="255.5,-165.5 255.5,-280.5 348.5,-280.5 348.5,-165.5 255.5,-165.5"/>
<text text-anchor="middle" x="302" y="-266.9" font-family="Helvetica,sans-Serif" font-size="12.00" fill="#000000">util.base_decorator</text>
<polyline fill="none" stroke="#000000" points="255.5,-259.5 348.5,-259.5 "/>
<text text-anchor="start" x="263.5" y="-245.9" font-family="Helvetica,sans-Serif" font-size="12.00" fill="#000000">+ key</text>
<text text-anchor="start" x="263.5" y="-232.9" font-family="Helvetica,sans-Serif" font-size="12.00" fill="#000000">+ add_args</text>
<text text-anchor="start" x="263.5" y="-219.9" font-family="Helvetica,sans-Serif" font-size="12.00" fill="#000000">+ is_class</text>
<polyline fill="none" stroke="#000000" points="255.5,-212.5 348.5,-212.5 "/>
<text text-anchor="start" x="263.5" y="-198.9" font-family="Helvetica,sans-Serif" font-size="12.00" fill="#000000">+ __init__()</text>
<text text-anchor="start" x="263.5" y="-185.9" font-family="Helvetica,sans-Serif" font-size="12.00" fill="#000000">+ class_string()</text>
<text text-anchor="start" x="263.5" y="-172.9" font-family="Helvetica,sans-Serif" font-size="12.00" fill="#000000">+ arg_string()</text>
</a>
</g>
</g>
<!-- Node0&#45;&gt;Node3 -->
<g id="edge3" class="edge">
<title>Node0&#45;&gt;Node3</title>
<path fill="none" stroke="#191970" d="M213.8431,-373.3879C224.9386,-361.5514 237.3401,-347.1984 247,-333 258.0495,-316.7592 268.2604,-297.9849 276.8085,-280.5956"/>
<polygon fill="none" stroke="#191970" points="211.1612,-371.1284 206.7822,-380.776 216.2217,-375.9648 211.1612,-371.1284"/>
</g>
<!-- Node4 -->
<g id="node5" class="node">
<title>Node4</title>
<g id="a_node5"><a xlink:href="../../d1/d0b/classutil_1_1auto__timer.html" target="_top" xlink:title="{util.auto_timer\n||+ __init__()\l+ __call__()\l}">
<polygon fill="#ffffff" stroke="#000000" points="174.5,-.5 174.5,-76.5 247.5,-76.5 247.5,-.5 174.5,-.5"/>
<text text-anchor="middle" x="211" y="-62.9" font-family="Helvetica,sans-Serif" font-size="12.00" fill="#000000">util.auto_timer</text>
<polyline fill="none" stroke="#000000" points="174.5,-55.5 247.5,-55.5 "/>
<text text-anchor="middle" x="211" y="-41.9" font-family="Helvetica,sans-Serif" font-size="12.00" fill="#000000"> </text>
<polyline fill="none" stroke="#000000" points="174.5,-34.5 247.5,-34.5 "/>
<text text-anchor="start" x="182.5" y="-20.9" font-family="Helvetica,sans-Serif" font-size="12.00" fill="#000000">+ __init__()</text>
<text text-anchor="start" x="182.5" y="-7.9" font-family="Helvetica,sans-Serif" font-size="12.00" fill="#000000">+ __call__()</text>
</a>
</g>
</g>
<!-- Node3&#45;&gt;Node4 -->
<g id="edge4" class="edge">
<title>Node3&#45;&gt;Node4</title>
<path fill="none" stroke="#191970" d="M268.9977,-156.0887C255.8379,-129.4076 241.1661,-99.661 229.8719,-76.7622"/>
<polygon fill="none" stroke="#191970" points="266.0189,-157.9617 273.5813,-165.382 272.2968,-154.8653 266.0189,-157.9617"/>
</g>
<!-- Node5 -->
<g id="node6" class="node">
<title>Node5</title>
<g id="a_node6"><a xlink:href="../../d7/d4b/classutil_1_1rss__usage.html" target="_top" xlink:title="{util.rss_usage\n|+ key\l|+ __init__()\l+ __call__()\l}">
<polygon fill="#ffffff" stroke="#000000" points="266,-.5 266,-76.5 338,-76.5 338,-.5 266,-.5"/>
<text text-anchor="middle" x="302" y="-62.9" font-family="Helvetica,sans-Serif" font-size="12.00" fill="#000000">util.rss_usage</text>
<polyline fill="none" stroke="#000000" points="266,-55.5 338,-55.5 "/>
<text text-anchor="start" x="274" y="-41.9" font-family="Helvetica,sans-Serif" font-size="12.00" fill="#000000">+ key</text>
<polyline fill="none" stroke="#000000" points="266,-34.5 338,-34.5 "/>
<text text-anchor="start" x="274" y="-20.9" font-family="Helvetica,sans-Serif" font-size="12.00" fill="#000000">+ __init__()</text>
<text text-anchor="start" x="274" y="-7.9" font-family="Helvetica,sans-Serif" font-size="12.00" fill="#000000">+ __call__()</text>
</a>
</g>
</g>
<!-- Node3&#45;&gt;Node5 -->
<g id="edge5" class="edge">
<title>Node3&#45;&gt;Node5</title>
<path fill="none" stroke="#191970" d="M302,-155.0385C302,-128.6294 302,-99.361 302,-76.7622"/>
<polygon fill="none" stroke="#191970" points="298.5001,-155.3819 302,-165.382 305.5001,-155.382 298.5001,-155.3819"/>
</g>
<!-- Node6 -->
<g id="node7" class="node">
<title>Node6</title>
<g id="a_node7"><a xlink:href="../../de/d81/classutil_1_1timer.html" target="_top" xlink:title="{util.timer\n|+ key\l|+ __init__()\l+ __call__()\l}">
<polygon fill="#ffffff" stroke="#000000" points="356,-.5 356,-76.5 420,-76.5 420,-.5 356,-.5"/>
<text text-anchor="middle" x="388" y="-62.9" font-family="Helvetica,sans-Serif" font-size="12.00" fill="#000000">util.timer</text>
<polyline fill="none" stroke="#000000" points="356,-55.5 420,-55.5 "/>
<text text-anchor="start" x="364" y="-41.9" font-family="Helvetica,sans-Serif" font-size="12.00" fill="#000000">+ key</text>
<polyline fill="none" stroke="#000000" points="356,-34.5 420,-34.5 "/>
<text text-anchor="start" x="364" y="-20.9" font-family="Helvetica,sans-Serif" font-size="12.00" fill="#000000">+ __init__()</text>
<text text-anchor="start" x="364" y="-7.9" font-family="Helvetica,sans-Serif" font-size="12.00" fill="#000000">+ __call__()</text>
</a>
</g>
</g>
<!-- Node3&#45;&gt;Node6 -->
<g id="edge6" class="edge">
<title>Node3&#45;&gt;Node6</title>
<path fill="none" stroke="#191970" d="M333.189,-156.0887C345.6257,-129.4076 359.4913,-99.661 370.165,-76.7622"/>
<polygon fill="none" stroke="#191970" points="329.9098,-154.8395 328.8572,-165.382 336.2544,-157.797 329.9098,-154.8395"/>
</g>
</g>
</svg>
