<?xml version="1.0" encoding="UTF-8" standalone="no"?>
<!DOCTYPE svg PUBLIC "-//W3C//DTD SVG 1.1//EN"
 "http://www.w3.org/Graphics/SVG/1.1/DTD/svg11.dtd">
<!-- Generated by graphviz version 2.40.1 (20161225.0304)
 -->
<!-- Title: object Pages: 1 -->
<svg width="466pt" height="441pt"
 viewBox="0.00 0.00 465.50 441.00" xmlns="http://www.w3.org/2000/svg" xmlns:xlink="http://www.w3.org/1999/xlink">
<g id="graph0" class="graph" transform="scale(1 1) rotate(0) translate(4 437)">
<title>object</title>
<polygon fill="#ffffff" stroke="transparent" points="-4,4 -4,-437 461.5,-437 461.5,4 -4,4"/>
<!-- Node0 -->
<g id="node1" class="node">
<title>Node0</title>
<polygon fill="#bfbfbf" stroke="#000000" points="176.5,-369.5 176.5,-432.5 217.5,-432.5 217.5,-369.5 176.5,-369.5"/>
<text text-anchor="middle" x="197" y="-418.9" font-family="Helvetica,sans-Serif" font-size="12.00" fill="#000000">object</text>
<polyline fill="none" stroke="#000000" points="176.5,-411.5 217.5,-411.5 "/>
<text text-anchor="middle" x="197" y="-397.9" font-family="Helvetica,sans-Serif" font-size="12.00" fill="#000000"> </text>
<polyline fill="none" stroke="#000000" points="176.5,-390.5 217.5,-390.5 "/>
<text text-anchor="middle" x="197" y="-376.9" font-family="Helvetica,sans-Serif" font-size="12.00" fill="#000000"> </text>
</g>
<!-- Node1 -->
<g id="node2" class="node">
<title>Node1</title>
<g id="a_node2"><a xlink:href="../../da/d5d/classtests_1_1array__test_1_1auto__array__weakref.html" target="_top" xlink:title="{tests.array_test.auto\l_array_weakref\n|+ resource\l+ finished\l+ ghost_attributes\l+ is_class\l&#45; __wr_map\l&#45; __wr_id\l|+ bind_finalizer()\l+ remove_finalizer()\l+ enable_auto_rollback()\l+ __finalize__()\l+ __init__()\l+ do_commit()\l+ do_rollback()\l}">
<polygon fill="#ffffff" stroke="#000000" points="0,-113.5 0,-332.5 116,-332.5 116,-113.5 0,-113.5"/>
<text text-anchor="start" x="8" y="-318.9" font-family="Helvetica,sans-Serif" font-size="12.00" fill="#000000">tests.array_test.auto</text>
<text text-anchor="middle" x="58" y="-305.9" font-family="Helvetica,sans-Serif" font-size="12.00" fill="#000000">_array_weakref</text>
<polyline fill="none" stroke="#000000" points="0,-298.5 116,-298.5 "/>
<text text-anchor="start" x="8" y="-284.9" font-family="Helvetica,sans-Serif" font-size="12.00" fill="#000000">+ resource</text>
<text text-anchor="start" x="8" y="-271.9" font-family="Helvetica,sans-Serif" font-size="12.00" fill="#000000">+ finished</text>
<text text-anchor="start" x="8" y="-258.9" font-family="Helvetica,sans-Serif" font-size="12.00" fill="#000000">+ ghost_attributes</text>
<text text-anchor="start" x="8" y="-245.9" font-family="Helvetica,sans-Serif" font-size="12.00" fill="#000000">+ is_class</text>
<text text-anchor="start" x="8" y="-232.9" font-family="Helvetica,sans-Serif" font-size="12.00" fill="#000000">&#45; __wr_map</text>
<text text-anchor="start" x="8" y="-219.9" font-family="Helvetica,sans-Serif" font-size="12.00" fill="#000000">&#45; __wr_id</text>
<polyline fill="none" stroke="#000000" points="0,-212.5 116,-212.5 "/>
<text text-anchor="start" x="8" y="-198.9" font-family="Helvetica,sans-Serif" font-size="12.00" fill="#000000">+ bind_finalizer()</text>
<text text-anchor="start" x="8" y="-185.9" font-family="Helvetica,sans-Serif" font-size="12.00" fill="#000000">+ remove_finalizer()</text>
<text text-anchor="start" x="8" y="-172.9" font-family="Helvetica,sans-Serif" font-size="12.00" fill="#000000">+ enable_auto_rollback()</text>
<text text-anchor="start" x="8" y="-159.9" font-family="Helvetica,sans-Serif" font-size="12.00" fill="#000000">+ __finalize__()</text>
<text text-anchor="start" x="8" y="-146.9" font-family="Helvetica,sans-Serif" font-size="12.00" fill="#000000">+ __init__()</text>
<text text-anchor="start" x="8" y="-133.9" font-family="Helvetica,sans-Serif" font-size="12.00" fill="#000000">+ do_commit()</text>
<text text-anchor="start" x="8" y="-120.9" font-family="Helvetica,sans-Serif" font-size="12.00" fill="#000000">+ do_rollback()</text>
</a>
</g>
</g>
<!-- Node0&#45;&gt;Node1 -->
<g id="edge1" class="edge">
<title>Node0&#45;&gt;Node1</title>
<path fill="none" stroke="#191970" d="M168.4593,-377.2512C154.4858,-364.8576 137.932,-348.9748 125,-333 121.9751,-329.2633 118.9857,-325.3784 116.0472,-321.3966"/>
<polygon fill="none" stroke="#191970" points="166.5029,-380.1887 176.3417,-384.1194 171.1015,-374.9111 166.5029,-380.1887"/>
</g>
<!-- Node2 -->
<g id="node3" class="node">
<title>Node2</title>
<g id="a_node3"><a xlink:href="../../da/d81/classtests_1_1simple__test_1_1_fibonacci.html" target="_top" xlink:title="{tests.simple_test.Fibonacci\n|+ n\l+ is_class\l|+ __init__()\l+ calculate()\l}">
<polygon fill="#ffffff" stroke="#000000" points="134.5,-178.5 134.5,-267.5 259.5,-267.5 259.5,-178.5 134.5,-178.5"/>
<text text-anchor="middle" x="197" y="-253.9" font-family="Helvetica,sans-Serif" font-size="12.00" fill="#000000">tests.simple_test.Fibonacci</text>
<polyline fill="none" stroke="#000000" points="134.5,-246.5 259.5,-246.5 "/>
<text text-anchor="start" x="142.5" y="-232.9" font-family="Helvetica,sans-Serif" font-size="12.00" fill="#000000">+ n</text>
<text text-anchor="start" x="142.5" y="-219.9" font-family="Helvetica,sans-Serif" font-size="12.00" fill="#000000">+ is_class</text>
<polyline fill="none" stroke="#000000" points="134.5,-212.5 259.5,-212.5 "/>
<text text-anchor="start" x="142.5" y="-198.9" font-family="Helvetica,sans-Serif" font-size="12.00" fill="#000000">+ __init__()</text>
<text text-anchor="start" x="142.5" y="-185.9" font-family="Helvetica,sans-Serif" font-size="12.00" fill="#000000">+ calculate()</text>
</a>
</g>
</g>
<!-- Node0&#45;&gt;Node2 -->
<g id="edge2" class="edge">
<title>Node0&#45;&gt;Node2</title>
<path fill="none" stroke="#191970" d="M197,-359.0789C197,-331.5648 197,-295.6213 197,-267.585"/>
<polygon fill="none" stroke="#191970" points="193.5001,-359.1771 197,-369.1772 200.5001,-359.1772 193.5001,-359.1771"/>
</g>
<!-- Node3 -->
<g id="node4" class="node">
<title>Node3</title>
<g id="a_node4"><a xlink:href="../../db/df0/classutil_1_1util_1_1base__decorator.html" target="_top" xlink:title="{util.util.base_decorator\n|+ key\l+ add_args\l+ is_class\l|+ __init__()\l+ class_string()\l+ arg_string()\l}">
<polygon fill="#ffffff" stroke="#000000" points="277.5,-165.5 277.5,-280.5 384.5,-280.5 384.5,-165.5 277.5,-165.5"/>
<text text-anchor="middle" x="331" y="-266.9" font-family="Helvetica,sans-Serif" font-size="12.00" fill="#000000">util.util.base_decorator</text>
<polyline fill="none" stroke="#000000" points="277.5,-259.5 384.5,-259.5 "/>
<text text-anchor="start" x="285.5" y="-245.9" font-family="Helvetica,sans-Serif" font-size="12.00" fill="#000000">+ key</text>
<text text-anchor="start" x="285.5" y="-232.9" font-family="Helvetica,sans-Serif" font-size="12.00" fill="#000000">+ add_args</text>
<text text-anchor="start" x="285.5" y="-219.9" font-family="Helvetica,sans-Serif" font-size="12.00" fill="#000000">+ is_class</text>
<polyline fill="none" stroke="#000000" points="277.5,-212.5 384.5,-212.5 "/>
<text text-anchor="start" x="285.5" y="-198.9" font-family="Helvetica,sans-Serif" font-size="12.00" fill="#000000">+ __init__()</text>
<text text-anchor="start" x="285.5" y="-185.9" font-family="Helvetica,sans-Serif" font-size="12.00" fill="#000000">+ class_string()</text>
<text text-anchor="start" x="285.5" y="-172.9" font-family="Helvetica,sans-Serif" font-size="12.00" fill="#000000">+ arg_string()</text>
</a>
</g>
</g>
<!-- Node0&#45;&gt;Node3 -->
<g id="edge3" class="edge">
<title>Node0&#45;&gt;Node3</title>
<path fill="none" stroke="#191970" d="M225.4786,-377.6941C239.5728,-365.3107 256.2515,-349.3045 269,-333 281.4903,-317.0258 293.049,-298.234 302.7186,-280.7464"/>
<polygon fill="none" stroke="#191970" points="222.8211,-375.3637 217.528,-384.5416 227.3893,-380.6677 222.8211,-375.3637"/>
</g>
<!-- Node4 -->
<g id="node5" class="node">
<title>Node4</title>
<g id="a_node5"><a xlink:href="../../d3/df4/classutil_1_1util_1_1auto__timer.html" target="_top" xlink:title="{util.util.auto_timer\n|+ report_at_exit\l|+ __init__()\l+ __call__()\l}">
<polygon fill="#ffffff" stroke="#000000" points="182.5,-.5 182.5,-76.5 269.5,-76.5 269.5,-.5 182.5,-.5"/>
<text text-anchor="middle" x="226" y="-62.9" font-family="Helvetica,sans-Serif" font-size="12.00" fill="#000000">util.util.auto_timer</text>
<polyline fill="none" stroke="#000000" points="182.5,-55.5 269.5,-55.5 "/>
<text text-anchor="start" x="190.5" y="-41.9" font-family="Helvetica,sans-Serif" font-size="12.00" fill="#000000">+ report_at_exit</text>
<polyline fill="none" stroke="#000000" points="182.5,-34.5 269.5,-34.5 "/>
<text text-anchor="start" x="190.5" y="-20.9" font-family="Helvetica,sans-Serif" font-size="12.00" fill="#000000">+ __init__()</text>
<text text-anchor="start" x="190.5" y="-7.9" font-family="Helvetica,sans-Serif" font-size="12.00" fill="#000000">+ __call__()</text>
</a>
</g>
</g>
<!-- Node3&#45;&gt;Node4 -->
<g id="edge4" class="edge">
<title>Node3&#45;&gt;Node4</title>
<path fill="none" stroke="#191970" d="M293.6359,-156.453C285.5399,-142.1056 277.0051,-127.0345 269,-113 262.2668,-101.1955 254.8871,-88.3696 248.1713,-76.74"/>
<polygon fill="none" stroke="#191970" points="290.651,-158.2854 298.6114,-165.2771 296.7485,-154.8473 290.651,-158.2854"/>
</g>
<!-- Node5 -->
<g id="node6" class="node">
<title>Node5</title>
<g id="a_node6"><a xlink:href="../../d1/d2e/classutil_1_1util_1_1rss__usage.html" target="_top" xlink:title="{util.util.rss_usage\n|+ key\l|+ __init__()\l+ __call__()\l}">
<polygon fill="#ffffff" stroke="#000000" points="288,-.5 288,-76.5 374,-76.5 374,-.5 288,-.5"/>
<text text-anchor="middle" x="331" y="-62.9" font-family="Helvetica,sans-Serif" font-size="12.00" fill="#000000">util.util.rss_usage</text>
<polyline fill="none" stroke="#000000" points="288,-55.5 374,-55.5 "/>
<text text-anchor="start" x="296" y="-41.9" font-family="Helvetica,sans-Serif" font-size="12.00" fill="#000000">+ key</text>
<polyline fill="none" stroke="#000000" points="288,-34.5 374,-34.5 "/>
<text text-anchor="start" x="296" y="-20.9" font-family="Helvetica,sans-Serif" font-size="12.00" fill="#000000">+ __init__()</text>
<text text-anchor="start" x="296" y="-7.9" font-family="Helvetica,sans-Serif" font-size="12.00" fill="#000000">+ __call__()</text>
</a>
</g>
</g>
<!-- Node3&#45;&gt;Node5 -->
<g id="edge5" class="edge">
<title>Node3&#45;&gt;Node5</title>
<path fill="none" stroke="#191970" d="M331,-155.0385C331,-128.6294 331,-99.361 331,-76.7622"/>
<polygon fill="none" stroke="#191970" points="327.5001,-155.3819 331,-165.382 334.5001,-155.382 327.5001,-155.3819"/>
</g>
<!-- Node6 -->
<g id="node7" class="node">
<title>Node6</title>
<g id="a_node7"><a xlink:href="../../d9/dca/classutil_1_1util_1_1timer.html" target="_top" xlink:title="{util.util.timer\n|+ key\l|+ __init__()\l+ __call__()\l}">
<polygon fill="#ffffff" stroke="#000000" points="392.5,-.5 392.5,-76.5 457.5,-76.5 457.5,-.5 392.5,-.5"/>
<text text-anchor="middle" x="425" y="-62.9" font-family="Helvetica,sans-Serif" font-size="12.00" fill="#000000">util.util.timer</text>
<polyline fill="none" stroke="#000000" points="392.5,-55.5 457.5,-55.5 "/>
<text text-anchor="start" x="400.5" y="-41.9" font-family="Helvetica,sans-Serif" font-size="12.00" fill="#000000">+ key</text>
<polyline fill="none" stroke="#000000" points="392.5,-34.5 457.5,-34.5 "/>
<text text-anchor="start" x="400.5" y="-20.9" font-family="Helvetica,sans-Serif" font-size="12.00" fill="#000000">+ __init__()</text>
<text text-anchor="start" x="400.5" y="-7.9" font-family="Helvetica,sans-Serif" font-size="12.00" fill="#000000">+ __call__()</text>
</a>
</g>
</g>
<!-- Node3&#45;&gt;Node6 -->
<g id="edge6" class="edge">
<title>Node3&#45;&gt;Node6</title>
<path fill="none" stroke="#191970" d="M364.9123,-156.438C378.5515,-129.6676 393.7884,-99.761 405.506,-76.7622"/>
<polygon fill="none" stroke="#191970" points="361.7766,-154.8829 360.3555,-165.382 368.0138,-158.0606 361.7766,-154.8829"/>
</g>
</g>
</svg>
