<?xml version="1.0" encoding="UTF-8" standalone="no"?>
<!DOCTYPE svg PUBLIC "-//W3C//DTD SVG 1.1//EN"
 "http://www.w3.org/Graphics/SVG/1.1/DTD/svg11.dtd">
<!-- Generated by graphviz version 2.40.1 (20161225.0304)
 -->
<!-- Title: object Pages: 1 -->
<svg width="472pt" height="480pt"
 viewBox="0.00 0.00 471.50 480.00" xmlns="http://www.w3.org/2000/svg" xmlns:xlink="http://www.w3.org/1999/xlink">
<g id="graph0" class="graph" transform="scale(1 1) rotate(0) translate(4 476)">
<title>object</title>
<polygon fill="#ffffff" stroke="transparent" points="-4,4 -4,-476 467.5,-476 467.5,4 -4,4"/>
<!-- Node0 -->
<g id="node1" class="node">
<title>Node0</title>
<polygon fill="#bfbfbf" stroke="#000000" points="176.5,-408.5 176.5,-471.5 217.5,-471.5 217.5,-408.5 176.5,-408.5"/>
<text text-anchor="middle" x="197" y="-457.9" font-family="Helvetica,sans-Serif" font-size="12.00" fill="#000000">object</text>
<polyline fill="none" stroke="#000000" points="176.5,-450.5 217.5,-450.5 "/>
<text text-anchor="middle" x="197" y="-436.9" font-family="Helvetica,sans-Serif" font-size="12.00" fill="#000000"> </text>
<polyline fill="none" stroke="#000000" points="176.5,-429.5 217.5,-429.5 "/>
<text text-anchor="middle" x="197" y="-415.9" font-family="Helvetica,sans-Serif" font-size="12.00" fill="#000000"> </text>
</g>
<!-- Node1 -->
<g id="node2" class="node">
<title>Node1</title>
<g id="a_node2"><a xlink:href="../../da/d5d/classtests_1_1array__test_1_1auto__array__weakref.html" target="_top" xlink:title="{tests.array_test.auto\l_array_weakref\n|+ resource\l+ finished\l+ ghost_attributes\l&#45; __wr_map\l&#45; __wr_id\l|+ bind_finalizer()\l+ remove_finalizer()\l+ enable_auto_rollback()\l+ __finalize__()\l+ __init__()\l+ do_commit()\l+ do_rollback()\l}">
<polygon fill="#ffffff" stroke="#000000" points="0,-165.5 0,-371.5 116,-371.5 116,-165.5 0,-165.5"/>
<text text-anchor="start" x="8" y="-357.9" font-family="Helvetica,sans-Serif" font-size="12.00" fill="#000000">tests.array_test.auto</text>
<text text-anchor="middle" x="58" y="-344.9" font-family="Helvetica,sans-Serif" font-size="12.00" fill="#000000">_array_weakref</text>
<polyline fill="none" stroke="#000000" points="0,-337.5 116,-337.5 "/>
<text text-anchor="start" x="8" y="-323.9" font-family="Helvetica,sans-Serif" font-size="12.00" fill="#000000">+ resource</text>
<text text-anchor="start" x="8" y="-310.9" font-family="Helvetica,sans-Serif" font-size="12.00" fill="#000000">+ finished</text>
<text text-anchor="start" x="8" y="-297.9" font-family="Helvetica,sans-Serif" font-size="12.00" fill="#000000">+ ghost_attributes</text>
<text text-anchor="start" x="8" y="-284.9" font-family="Helvetica,sans-Serif" font-size="12.00" fill="#000000">&#45; __wr_map</text>
<text text-anchor="start" x="8" y="-271.9" font-family="Helvetica,sans-Serif" font-size="12.00" fill="#000000">&#45; __wr_id</text>
<polyline fill="none" stroke="#000000" points="0,-264.5 116,-264.5 "/>
<text text-anchor="start" x="8" y="-250.9" font-family="Helvetica,sans-Serif" font-size="12.00" fill="#000000">+ bind_finalizer()</text>
<text text-anchor="start" x="8" y="-237.9" font-family="Helvetica,sans-Serif" font-size="12.00" fill="#000000">+ remove_finalizer()</text>
<text text-anchor="start" x="8" y="-224.9" font-family="Helvetica,sans-Serif" font-size="12.00" fill="#000000">+ enable_auto_rollback()</text>
<text text-anchor="start" x="8" y="-211.9" font-family="Helvetica,sans-Serif" font-size="12.00" fill="#000000">+ __finalize__()</text>
<text text-anchor="start" x="8" y="-198.9" font-family="Helvetica,sans-Serif" font-size="12.00" fill="#000000">+ __init__()</text>
<text text-anchor="start" x="8" y="-185.9" font-family="Helvetica,sans-Serif" font-size="12.00" fill="#000000">+ do_commit()</text>
<text text-anchor="start" x="8" y="-172.9" font-family="Helvetica,sans-Serif" font-size="12.00" fill="#000000">+ do_rollback()</text>
</a>
</g>
</g>
<!-- Node0&#45;&gt;Node1 -->
<g id="edge1" class="edge">
<title>Node0&#45;&gt;Node1</title>
<path fill="none" stroke="#191970" d="M168.645,-416.0987C154.718,-403.667 138.1498,-387.796 125,-372 121.9871,-368.3808 118.9973,-364.6193 116.0487,-360.7667"/>
<polygon fill="none" stroke="#191970" points="166.6713,-419.0236 176.494,-422.9943 171.2914,-413.7648 166.6713,-419.0236"/>
</g>
<!-- Node2 -->
<g id="node3" class="node">
<title>Node2</title>
<g id="a_node3"><a xlink:href="../../da/d81/classtests_1_1simple__test_1_1_fibonacci.html" target="_top" xlink:title="{tests.simple_test.Fibonacci\n|+ n\l|+ __init__()\l+ calculate()\l}">
<polygon fill="#ffffff" stroke="#000000" points="134.5,-230.5 134.5,-306.5 259.5,-306.5 259.5,-230.5 134.5,-230.5"/>
<text text-anchor="middle" x="197" y="-292.9" font-family="Helvetica,sans-Serif" font-size="12.00" fill="#000000">tests.simple_test.Fibonacci</text>
<polyline fill="none" stroke="#000000" points="134.5,-285.5 259.5,-285.5 "/>
<text text-anchor="start" x="142.5" y="-271.9" font-family="Helvetica,sans-Serif" font-size="12.00" fill="#000000">+ n</text>
<polyline fill="none" stroke="#000000" points="134.5,-264.5 259.5,-264.5 "/>
<text text-anchor="start" x="142.5" y="-250.9" font-family="Helvetica,sans-Serif" font-size="12.00" fill="#000000">+ __init__()</text>
<text text-anchor="start" x="142.5" y="-237.9" font-family="Helvetica,sans-Serif" font-size="12.00" fill="#000000">+ calculate()</text>
</a>
</g>
</g>
<!-- Node0&#45;&gt;Node2 -->
<g id="edge2" class="edge">
<title>Node0&#45;&gt;Node2</title>
<path fill="none" stroke="#191970" d="M197,-397.9159C197,-370.0619 197,-333.8235 197,-306.7812"/>
<polygon fill="none" stroke="#191970" points="193.5001,-398.1441 197,-408.1441 200.5001,-398.1441 193.5001,-398.1441"/>
</g>
<!-- Node3 -->
<g id="node4" class="node">
<title>Node3</title>
<g id="a_node4"><a xlink:href="../../db/df0/classutil_1_1util_1_1base__decorator.html" target="_top" xlink:title="{util.util.base_decorator\n|+ key\l+ add_args\l+ is_class\l|+ __init__()\l+ parse_wrapped()\l+ class_string()\l+ arg_string()\l}">
<polygon fill="#ffffff" stroke="#000000" points="277.5,-204.5 277.5,-332.5 384.5,-332.5 384.5,-204.5 277.5,-204.5"/>
<text text-anchor="middle" x="331" y="-318.9" font-family="Helvetica,sans-Serif" font-size="12.00" fill="#000000">util.util.base_decorator</text>
<polyline fill="none" stroke="#000000" points="277.5,-311.5 384.5,-311.5 "/>
<text text-anchor="start" x="285.5" y="-297.9" font-family="Helvetica,sans-Serif" font-size="12.00" fill="#000000">+ key</text>
<text text-anchor="start" x="285.5" y="-284.9" font-family="Helvetica,sans-Serif" font-size="12.00" fill="#000000">+ add_args</text>
<text text-anchor="start" x="285.5" y="-271.9" font-family="Helvetica,sans-Serif" font-size="12.00" fill="#000000">+ is_class</text>
<polyline fill="none" stroke="#000000" points="277.5,-264.5 384.5,-264.5 "/>
<text text-anchor="start" x="285.5" y="-250.9" font-family="Helvetica,sans-Serif" font-size="12.00" fill="#000000">+ __init__()</text>
<text text-anchor="start" x="285.5" y="-237.9" font-family="Helvetica,sans-Serif" font-size="12.00" fill="#000000">+ parse_wrapped()</text>
<text text-anchor="start" x="285.5" y="-224.9" font-family="Helvetica,sans-Serif" font-size="12.00" fill="#000000">+ class_string()</text>
<text text-anchor="start" x="285.5" y="-211.9" font-family="Helvetica,sans-Serif" font-size="12.00" fill="#000000">+ arg_string()</text>
</a>
</g>
</g>
<!-- Node0&#45;&gt;Node3 -->
<g id="edge3" class="edge">
<title>Node0&#45;&gt;Node3</title>
<path fill="none" stroke="#191970" d="M225.5909,-416.2917C239.5771,-403.9083 256.127,-388.0224 269,-372 278.7082,-359.9168 287.9843,-346.171 296.2671,-332.7335"/>
<polygon fill="none" stroke="#191970" points="222.9497,-413.9501 217.6996,-423.1526 227.5426,-419.2327 222.9497,-413.9501"/>
</g>
<!-- Node4 -->
<g id="node5" class="node">
<title>Node4</title>
<g id="a_node5"><a xlink:href="../../d3/df4/classutil_1_1util_1_1auto__timer.html" target="_top" xlink:title="{util.util.auto_timer\n|+ report_at_exit\l+ key\l&#45; _self_obj\l|+ __init__()\l+ __call__()\l+ __enter__()\l+ __exit__()\l}">
<polygon fill="#ffffff" stroke="#000000" points="182.5,-.5 182.5,-128.5 269.5,-128.5 269.5,-.5 182.5,-.5"/>
<text text-anchor="middle" x="226" y="-114.9" font-family="Helvetica,sans-Serif" font-size="12.00" fill="#000000">util.util.auto_timer</text>
<polyline fill="none" stroke="#000000" points="182.5,-107.5 269.5,-107.5 "/>
<text text-anchor="start" x="190.5" y="-93.9" font-family="Helvetica,sans-Serif" font-size="12.00" fill="#000000">+ report_at_exit</text>
<text text-anchor="start" x="190.5" y="-80.9" font-family="Helvetica,sans-Serif" font-size="12.00" fill="#000000">+ key</text>
<text text-anchor="start" x="190.5" y="-67.9" font-family="Helvetica,sans-Serif" font-size="12.00" fill="#000000">&#45; _self_obj</text>
<polyline fill="none" stroke="#000000" points="182.5,-60.5 269.5,-60.5 "/>
<text text-anchor="start" x="190.5" y="-46.9" font-family="Helvetica,sans-Serif" font-size="12.00" fill="#000000">+ __init__()</text>
<text text-anchor="start" x="190.5" y="-33.9" font-family="Helvetica,sans-Serif" font-size="12.00" fill="#000000">+ __call__()</text>
<text text-anchor="start" x="190.5" y="-20.9" font-family="Helvetica,sans-Serif" font-size="12.00" fill="#000000">+ __enter__()</text>
<text text-anchor="start" x="190.5" y="-7.9" font-family="Helvetica,sans-Serif" font-size="12.00" fill="#000000">+ __exit__()</text>
</a>
</g>
</g>
<!-- Node3&#45;&gt;Node4 -->
<g id="edge4" class="edge">
<title>Node3&#45;&gt;Node4</title>
<path fill="none" stroke="#191970" d="M293.2057,-195.071C282.0492,-173.3956 269.929,-149.8477 259.0926,-128.7942"/>
<polygon fill="none" stroke="#191970" points="290.233,-196.9435 297.9215,-204.2331 296.457,-193.74 290.233,-196.9435"/>
</g>
<!-- Node5 -->
<g id="node6" class="node">
<title>Node5</title>
<g id="a_node6"><a xlink:href="../../d1/d2e/classutil_1_1util_1_1rss__usage.html" target="_top" xlink:title="{util.util.rss_usage\n|+ key\l&#45; _self_obj\l&#45; _self_key\l|+ __init__()\l+ __call__()\l+ __enter__()\l+ __exit__()\l}">
<polygon fill="#ffffff" stroke="#000000" points="288,-.5 288,-128.5 374,-128.5 374,-.5 288,-.5"/>
<text text-anchor="middle" x="331" y="-114.9" font-family="Helvetica,sans-Serif" font-size="12.00" fill="#000000">util.util.rss_usage</text>
<polyline fill="none" stroke="#000000" points="288,-107.5 374,-107.5 "/>
<text text-anchor="start" x="296" y="-93.9" font-family="Helvetica,sans-Serif" font-size="12.00" fill="#000000">+ key</text>
<text text-anchor="start" x="296" y="-80.9" font-family="Helvetica,sans-Serif" font-size="12.00" fill="#000000">&#45; _self_obj</text>
<text text-anchor="start" x="296" y="-67.9" font-family="Helvetica,sans-Serif" font-size="12.00" fill="#000000">&#45; _self_key</text>
<polyline fill="none" stroke="#000000" points="288,-60.5 374,-60.5 "/>
<text text-anchor="start" x="296" y="-46.9" font-family="Helvetica,sans-Serif" font-size="12.00" fill="#000000">+ __init__()</text>
<text text-anchor="start" x="296" y="-33.9" font-family="Helvetica,sans-Serif" font-size="12.00" fill="#000000">+ __call__()</text>
<text text-anchor="start" x="296" y="-20.9" font-family="Helvetica,sans-Serif" font-size="12.00" fill="#000000">+ __enter__()</text>
<text text-anchor="start" x="296" y="-7.9" font-family="Helvetica,sans-Serif" font-size="12.00" fill="#000000">+ __exit__()</text>
</a>
</g>
</g>
<!-- Node3&#45;&gt;Node5 -->
<g id="edge5" class="edge">
<title>Node3&#45;&gt;Node5</title>
<path fill="none" stroke="#191970" d="M331,-194.1991C331,-172.7653 331,-149.5658 331,-128.7942"/>
<polygon fill="none" stroke="#191970" points="327.5001,-194.2331 331,-204.2331 334.5001,-194.2332 327.5001,-194.2331"/>
</g>
<!-- Node6 -->
<g id="node7" class="node">
<title>Node6</title>
<g id="a_node7"><a xlink:href="../../d9/dca/classutil_1_1util_1_1timer.html" target="_top" xlink:title="{util.util.timer\n|+ key\l&#45; _self_obj\l|+ __init__()\l+ __call__()\l+ __enter__()\l+ __exit__()\l}">
<polygon fill="#ffffff" stroke="#000000" points="392.5,-7 392.5,-122 463.5,-122 463.5,-7 392.5,-7"/>
<text text-anchor="middle" x="428" y="-108.4" font-family="Helvetica,sans-Serif" font-size="12.00" fill="#000000">util.util.timer</text>
<polyline fill="none" stroke="#000000" points="392.5,-101 463.5,-101 "/>
<text text-anchor="start" x="400.5" y="-87.4" font-family="Helvetica,sans-Serif" font-size="12.00" fill="#000000">+ key</text>
<text text-anchor="start" x="400.5" y="-74.4" font-family="Helvetica,sans-Serif" font-size="12.00" fill="#000000">&#45; _self_obj</text>
<polyline fill="none" stroke="#000000" points="392.5,-67 463.5,-67 "/>
<text text-anchor="start" x="400.5" y="-53.4" font-family="Helvetica,sans-Serif" font-size="12.00" fill="#000000">+ __init__()</text>
<text text-anchor="start" x="400.5" y="-40.4" font-family="Helvetica,sans-Serif" font-size="12.00" fill="#000000">+ __call__()</text>
<text text-anchor="start" x="400.5" y="-27.4" font-family="Helvetica,sans-Serif" font-size="12.00" fill="#000000">+ __enter__()</text>
<text text-anchor="start" x="400.5" y="-14.4" font-family="Helvetica,sans-Serif" font-size="12.00" fill="#000000">+ __exit__()</text>
</a>
</g>
</g>
<!-- Node3&#45;&gt;Node6 -->
<g id="edge6" class="edge">
<title>Node3&#45;&gt;Node6</title>
<path fill="none" stroke="#191970" d="M365.8699,-195.1654C377.2748,-171.1797 389.7742,-144.8924 400.5524,-122.2248"/>
<polygon fill="none" stroke="#191970" points="362.6916,-193.6991 361.5583,-204.2331 369.0134,-196.705 362.6916,-193.6991"/>
</g>
</g>
</svg>
