<?xml version="1.0" encoding="UTF-8" standalone="no"?>
<!DOCTYPE svg PUBLIC "-//W3C//DTD SVG 1.1//EN"
 "http://www.w3.org/Graphics/SVG/1.1/DTD/svg11.dtd">
<!-- Generated by graphviz version 2.40.1 (20161225.0304)
 -->
<!-- Title: NAME_TIM::util::timer_tuple Pages: 1 -->
<svg width="113pt" height="328pt"
 viewBox="0.00 0.00 113.00 328.00" xmlns="http://www.w3.org/2000/svg" xmlns:xlink="http://www.w3.org/1999/xlink">
<g id="graph0" class="graph" transform="scale(1 1) rotate(0) translate(4 324)">
<title>NAME_TIM::util::timer_tuple</title>
<polygon fill="#ffffff" stroke="transparent" points="-4,4 -4,-324 109,-324 109,4 -4,4"/>
<!-- Node0 -->
<g id="node1" class="node">
<title>Node0</title>
<polygon fill="#bfbfbf" stroke="#000000" points="0,-.5 0,-206.5 105,-206.5 105,-.5 0,-.5"/>
<text text-anchor="start" x="8" y="-192.9" font-family="Helvetica,sans-Serif" font-size="12.00" fill="#000000">NAME_TIM::util::timer</text>
<text text-anchor="middle" x="52.5" y="-179.9" font-family="Helvetica,sans-Serif" font-size="12.00" fill="#000000">_tuple</text>
<polyline fill="none" stroke="#000000" points="0,-172.5 105,-172.5 "/>
<text text-anchor="middle" x="52.5" y="-158.9" font-family="Helvetica,sans-Serif" font-size="12.00" fill="#000000"> </text>
<polyline fill="none" stroke="#000000" points="0,-151.5 105,-151.5 "/>
<text text-anchor="start" x="8" y="-137.9" font-family="Helvetica,sans-Serif" font-size="12.00" fill="#000000">+ timer_tuple()</text>
<text text-anchor="start" x="8" y="-124.9" font-family="Helvetica,sans-Serif" font-size="12.00" fill="#000000">+ timer_tuple()</text>
<text text-anchor="start" x="8" y="-111.9" font-family="Helvetica,sans-Serif" font-size="12.00" fill="#000000">+ operator=()</text>
<text text-anchor="start" x="8" y="-98.9" font-family="Helvetica,sans-Serif" font-size="12.00" fill="#000000">+ operator==()</text>
<text text-anchor="start" x="8" y="-85.9" font-family="Helvetica,sans-Serif" font-size="12.00" fill="#000000">+ operator!=()</text>
<text text-anchor="start" x="8" y="-72.9" font-family="Helvetica,sans-Serif" font-size="12.00" fill="#000000">+ operator+=()</text>
<text text-anchor="start" x="8" y="-59.9" font-family="Helvetica,sans-Serif" font-size="12.00" fill="#000000">+ operator+()</text>
<text text-anchor="start" x="8" y="-46.9" font-family="Helvetica,sans-Serif" font-size="12.00" fill="#000000">+ key()</text>
<text text-anchor="start" x="8" y="-33.9" font-family="Helvetica,sans-Serif" font-size="12.00" fill="#000000">+ key()</text>
<text text-anchor="start" x="8" y="-20.9" font-family="Helvetica,sans-Serif" font-size="12.00" fill="#000000">+ level()</text>
<text text-anchor="start" x="8" y="-7.9" font-family="Helvetica,sans-Serif" font-size="12.00" fill="#000000">and 6 more...</text>
</g>
<!-- Node1 -->
<g id="node2" class="node">
<title>Node1</title>
<polygon fill="#ffffff" stroke="#bfbfbf" points="6.5,-243.5 6.5,-319.5 98.5,-319.5 98.5,-243.5 6.5,-243.5"/>
<text text-anchor="start" x="14.5" y="-305.9" font-family="Helvetica,sans-Serif" font-size="12.00" fill="#000000">details::base_timer</text>
<text text-anchor="middle" x="52.5" y="-292.9" font-family="Helvetica,sans-Serif" font-size="12.00" fill="#000000">_tuple_t</text>
<polyline fill="none" stroke="#bfbfbf" points="6.5,-285.5 98.5,-285.5 "/>
<text text-anchor="middle" x="52.5" y="-271.9" font-family="Helvetica,sans-Serif" font-size="12.00" fill="#000000"> </text>
<polyline fill="none" stroke="#bfbfbf" points="6.5,-264.5 98.5,-264.5 "/>
<text text-anchor="middle" x="52.5" y="-250.9" font-family="Helvetica,sans-Serif" font-size="12.00" fill="#000000"> </text>
</g>
<!-- Node1&#45;&gt;Node0 -->
<g id="edge1" class="edge">
<title>Node1&#45;&gt;Node0</title>
<path fill="none" stroke="#191970" d="M52.5,-233.1046C52.5,-224.7647 52.5,-215.8193 52.5,-206.6689"/>
<polygon fill="none" stroke="#191970" points="49.0001,-233.3145 52.5,-243.3145 56.0001,-233.3146 49.0001,-233.3145"/>
</g>
</g>
</svg>
