<?xml version="1.0" encoding="UTF-8" standalone="no"?>
<!DOCTYPE svg PUBLIC "-//W3C//DTD SVG 1.1//EN"
 "http://www.w3.org/Graphics/SVG/1.1/DTD/svg11.dtd">
<!-- Generated by graphviz version 2.40.1 (20161225.0304)
 -->
<!-- Title: NAME_TIM::util::timer_tuple Pages: 1 -->
<svg width="131pt" height="354pt"
 viewBox="0.00 0.00 131.00 354.00" xmlns="http://www.w3.org/2000/svg" xmlns:xlink="http://www.w3.org/1999/xlink">
<g id="graph0" class="graph" transform="scale(1 1) rotate(0) translate(4 350)">
<title>NAME_TIM::util::timer_tuple</title>
<polygon fill="#ffffff" stroke="transparent" points="-4,4 -4,-350 127,-350 127,4 -4,4"/>
<!-- Node0 -->
<g id="node1" class="node">
<title>Node0</title>
<polygon fill="#bfbfbf" stroke="#000000" points="9,-.5 9,-219.5 114,-219.5 114,-.5 9,-.5"/>
<text text-anchor="start" x="17" y="-205.9" font-family="Helvetica,sans-Serif" font-size="12.00" fill="#000000">NAME_TIM::util::timer</text>
<text text-anchor="middle" x="61.5" y="-192.9" font-family="Helvetica,sans-Serif" font-size="12.00" fill="#000000">_tuple</text>
<polyline fill="none" stroke="#000000" points="9,-185.5 114,-185.5 "/>
<text text-anchor="middle" x="61.5" y="-171.9" font-family="Helvetica,sans-Serif" font-size="12.00" fill="#000000"> </text>
<polyline fill="none" stroke="#000000" points="9,-164.5 114,-164.5 "/>
<text text-anchor="start" x="17" y="-150.9" font-family="Helvetica,sans-Serif" font-size="12.00" fill="#000000">+ timer_tuple()</text>
<text text-anchor="start" x="17" y="-137.9" font-family="Helvetica,sans-Serif" font-size="12.00" fill="#000000">+ timer_tuple()</text>
<text text-anchor="start" x="17" y="-124.9" font-family="Helvetica,sans-Serif" font-size="12.00" fill="#000000">+ operator=()</text>
<text text-anchor="start" x="17" y="-111.9" font-family="Helvetica,sans-Serif" font-size="12.00" fill="#000000">+ key()</text>
<text text-anchor="start" x="17" y="-98.9" font-family="Helvetica,sans-Serif" font-size="12.00" fill="#000000">+ key()</text>
<text text-anchor="start" x="17" y="-85.9" font-family="Helvetica,sans-Serif" font-size="12.00" fill="#000000">+ level()</text>
<text text-anchor="start" x="17" y="-72.9" font-family="Helvetica,sans-Serif" font-size="12.00" fill="#000000">+ level()</text>
<text text-anchor="start" x="17" y="-59.9" font-family="Helvetica,sans-Serif" font-size="12.00" fill="#000000">+ tag()</text>
<text text-anchor="start" x="17" y="-46.9" font-family="Helvetica,sans-Serif" font-size="12.00" fill="#000000">+ tag()</text>
<text text-anchor="start" x="17" y="-33.9" font-family="Helvetica,sans-Serif" font-size="12.00" fill="#000000">+ timer()</text>
<text text-anchor="start" x="17" y="-20.9" font-family="Helvetica,sans-Serif" font-size="12.00" fill="#000000">+ timer()</text>
<text text-anchor="start" x="17" y="-7.9" font-family="Helvetica,sans-Serif" font-size="12.00" fill="#000000">+ serialize()</text>
</g>
<!-- Node1 -->
<g id="node2" class="node">
<title>Node1</title>
<polygon fill="#ffffff" stroke="#bfbfbf" points="0,-256.5 0,-345.5 123,-345.5 123,-256.5 0,-256.5"/>
<text text-anchor="start" x="8" y="-331.9" font-family="Helvetica,sans-Serif" font-size="12.00" fill="#000000">std::tuple&lt; uint64</text>
<text text-anchor="start" x="8" y="-318.9" font-family="Helvetica,sans-Serif" font-size="12.00" fill="#000000">_t, uint64_t, std::string,</text>
<text text-anchor="middle" x="61.5" y="-305.9" font-family="Helvetica,sans-Serif" font-size="12.00" fill="#000000"> NAME_TIM::util::timer &amp; &gt;</text>
<polyline fill="none" stroke="#bfbfbf" points="0,-298.5 123,-298.5 "/>
<text text-anchor="middle" x="61.5" y="-284.9" font-family="Helvetica,sans-Serif" font-size="12.00" fill="#000000"> </text>
<polyline fill="none" stroke="#bfbfbf" points="0,-277.5 123,-277.5 "/>
<text text-anchor="middle" x="61.5" y="-263.9" font-family="Helvetica,sans-Serif" font-size="12.00" fill="#000000"> </text>
</g>
<!-- Node1&#45;&gt;Node0 -->
<g id="edge1" class="edge">
<title>Node1&#45;&gt;Node0</title>
<path fill="none" stroke="#191970" d="M61.5,-245.9826C61.5,-237.6697 61.5,-228.8546 61.5,-219.8658"/>
<polygon fill="none" stroke="#191970" points="58.0001,-246.219 61.5,-256.219 65.0001,-246.219 58.0001,-246.219"/>
</g>
</g>
</svg>
