<?xml version="1.0" encoding="UTF-8" standalone="no"?>
<!DOCTYPE svg PUBLIC "-//W3C//DTD SVG 1.1//EN"
 "http://www.w3.org/Graphics/SVG/1.1/DTD/svg11.dtd">
<!-- Generated by graphviz version 2.40.1 (20161225.0304)
 -->
<!-- Title: timemory/base_clock.hpp Pages: 1 -->
<svg width="441pt" height="320pt"
 viewBox="0.00 0.00 440.50 320.00" xmlns="http://www.w3.org/2000/svg" xmlns:xlink="http://www.w3.org/1999/xlink">
<g id="graph0" class="graph" transform="scale(1 1) rotate(0) translate(4 316)">
<title>timemory/base_clock.hpp</title>
<polygon fill="#ffffff" stroke="transparent" points="-4,4 -4,-316 436.5,-316 436.5,4 -4,4"/>
<!-- Node22 -->
<g id="node1" class="node">
<title>Node22</title>
<polygon fill="#bfbfbf" stroke="#000000" points="239,-290.5 239,-311.5 358,-311.5 358,-290.5 239,-290.5"/>
<text text-anchor="middle" x="298.5" y="-297.9" font-family="Helvetica,sans-Serif" font-size="12.00" fill="#000000">timemory/base_clock.hpp</text>
</g>
<!-- Node23 -->
<g id="node2" class="node">
<title>Node23</title>
<g id="a_node2"><a xlink:href="../../d6/d01/base__timer_8hpp.html" target="_top" xlink:title="timemory/base_timer.hpp">
<polygon fill="#ffffff" stroke="#000000" points="239.5,-232.5 239.5,-253.5 357.5,-253.5 357.5,-232.5 239.5,-232.5"/>
<text text-anchor="middle" x="298.5" y="-239.9" font-family="Helvetica,sans-Serif" font-size="12.00" fill="#000000">timemory/base_timer.hpp</text>
</a>
</g>
</g>
<!-- Node22&#45;&gt;Node23 -->
<g id="edge1" class="edge">
<title>Node22&#45;&gt;Node23</title>
<path fill="none" stroke="#191970" d="M298.5,-280.1906C298.5,-271.1684 298.5,-260.9941 298.5,-253.5707"/>
<polygon fill="#191970" stroke="#191970" points="295.0001,-280.3619 298.5,-290.3619 302.0001,-280.3619 295.0001,-280.3619"/>
</g>
<!-- Node24 -->
<g id="node3" class="node">
<title>Node24</title>
<g id="a_node3"><a xlink:href="../../dd/d84/base__timer_8cpp.html" target="_top" xlink:title="base_timer.cpp">
<polygon fill="#ffffff" stroke="#000000" points="207.5,-174.5 207.5,-195.5 285.5,-195.5 285.5,-174.5 207.5,-174.5"/>
<text text-anchor="middle" x="246.5" y="-181.9" font-family="Helvetica,sans-Serif" font-size="12.00" fill="#000000">base_timer.cpp</text>
</a>
</g>
</g>
<!-- Node23&#45;&gt;Node24 -->
<g id="edge2" class="edge">
<title>Node23&#45;&gt;Node24</title>
<path fill="none" stroke="#191970" d="M282.2096,-224.8299C273.5829,-215.2078 263.2908,-203.7282 255.9771,-195.5707"/>
<polygon fill="#191970" stroke="#191970" points="279.6809,-227.2526 288.9624,-232.3619 284.8929,-222.5798 279.6809,-227.2526"/>
</g>
<!-- Node25 -->
<g id="node4" class="node">
<title>Node25</title>
<g id="a_node4"><a xlink:href="../../df/d05/timer_8hpp.html" target="_top" xlink:title="timemory/timer.hpp">
<polygon fill="#ffffff" stroke="#000000" points="303.5,-174.5 303.5,-195.5 397.5,-195.5 397.5,-174.5 303.5,-174.5"/>
<text text-anchor="middle" x="350.5" y="-181.9" font-family="Helvetica,sans-Serif" font-size="12.00" fill="#000000">timemory/timer.hpp</text>
</a>
</g>
</g>
<!-- Node23&#45;&gt;Node25 -->
<g id="edge3" class="edge">
<title>Node23&#45;&gt;Node25</title>
<path fill="none" stroke="#191970" d="M314.7904,-224.8299C323.4171,-215.2078 333.7092,-203.7282 341.0229,-195.5707"/>
<polygon fill="#191970" stroke="#191970" points="312.1071,-222.5798 308.0376,-232.3619 317.3191,-227.2526 312.1071,-222.5798"/>
</g>
<!-- Node26 -->
<g id="node5" class="node">
<title>Node26</title>
<g id="a_node5"><a xlink:href="../../df/df2/timing__manager_8hpp.html" target="_top" xlink:title="timemory/timing_manager.hpp">
<polygon fill="#ffffff" stroke="#000000" points="166.5,-116.5 166.5,-137.5 304.5,-137.5 304.5,-116.5 166.5,-116.5"/>
<text text-anchor="middle" x="235.5" y="-123.9" font-family="Helvetica,sans-Serif" font-size="12.00" fill="#000000">timemory/timing_manager.hpp</text>
</a>
</g>
</g>
<!-- Node25&#45;&gt;Node26 -->
<g id="edge4" class="edge">
<title>Node25&#45;&gt;Node26</title>
<path fill="none" stroke="#191970" d="M320.6235,-169.9319C300.5211,-159.7932 274.5103,-146.6748 256.5593,-137.6212"/>
<polygon fill="#191970" stroke="#191970" points="319.1695,-173.1185 329.6744,-174.4966 322.3218,-166.8684 319.1695,-173.1185"/>
</g>
<!-- Node28 -->
<g id="node7" class="node">
<title>Node28</title>
<g id="a_node7"><a xlink:href="../../d2/dfd/timemory_8cc.html" target="_top" xlink:title="timemory.cc">
<polygon fill="#ffffff" stroke="#000000" points="280,-.5 280,-21.5 345,-21.5 345,-.5 280,-.5"/>
<text text-anchor="middle" x="312.5" y="-7.9" font-family="Helvetica,sans-Serif" font-size="12.00" fill="#000000">timemory.cc</text>
</a>
</g>
</g>
<!-- Node25&#45;&gt;Node28 -->
<g id="edge11" class="edge">
<title>Node25&#45;&gt;Node28</title>
<path fill="none" stroke="#191970" d="M345.9576,-164.2005C337.8361,-127.0126 321.096,-50.3605 314.8865,-21.9277"/>
<polygon fill="#191970" stroke="#191970" points="342.627,-165.3545 348.1801,-174.3774 349.4658,-163.8609 342.627,-165.3545"/>
</g>
<!-- Node31 -->
<g id="node10" class="node">
<title>Node31</title>
<g id="a_node10"><a xlink:href="../../dc/de5/timer_8cpp.html" target="_top" xlink:title="timer.cpp">
<polygon fill="#ffffff" stroke="#000000" points="378.5,-116.5 378.5,-137.5 432.5,-137.5 432.5,-116.5 378.5,-116.5"/>
<text text-anchor="middle" x="405.5" y="-123.9" font-family="Helvetica,sans-Serif" font-size="12.00" fill="#000000">timer.cpp</text>
</a>
</g>
</g>
<!-- Node25&#45;&gt;Node31 -->
<g id="edge12" class="edge">
<title>Node25&#45;&gt;Node31</title>
<path fill="none" stroke="#191970" d="M367.7302,-166.8299C376.8546,-157.2078 387.7405,-145.7282 395.4761,-137.5707"/>
<polygon fill="#191970" stroke="#191970" points="364.9291,-164.6973 360.5878,-174.3619 370.0085,-169.514 364.9291,-164.6973"/>
</g>
<!-- Node27 -->
<g id="node6" class="node">
<title>Node27</title>
<g id="a_node6"><a xlink:href="../../d8/d07/auto__timer_8hpp.html" target="_top" xlink:title="timemory/auto_timer.hpp">
<polygon fill="#ffffff" stroke="#000000" points="52.5,-58.5 52.5,-79.5 168.5,-79.5 168.5,-58.5 52.5,-58.5"/>
<text text-anchor="middle" x="110.5" y="-65.9" font-family="Helvetica,sans-Serif" font-size="12.00" fill="#000000">timemory/auto_timer.hpp</text>
</a>
</g>
</g>
<!-- Node26&#45;&gt;Node27 -->
<g id="edge5" class="edge">
<title>Node26&#45;&gt;Node27</title>
<path fill="none" stroke="#191970" d="M203.6172,-112.2064C181.6875,-102.031 153.0791,-88.7567 133.3906,-79.6212"/>
<polygon fill="#191970" stroke="#191970" points="202.3192,-115.4625 212.8634,-116.4966 205.2655,-109.1127 202.3192,-115.4625"/>
</g>
<!-- Node26&#45;&gt;Node28 -->
<g id="edge8" class="edge">
<title>Node26&#45;&gt;Node28</title>
<path fill="none" stroke="#191970" d="M262.5876,-110.4887C273.6196,-102.5231 285.6069,-92.0674 293.5,-80 305.4703,-61.6991 309.9619,-35.9487 311.6002,-21.6418"/>
<polygon fill="#191970" stroke="#191970" points="260.3247,-107.7957 254.0414,-116.3263 264.273,-113.5759 260.3247,-107.7957"/>
</g>
<!-- Node29 -->
<g id="node8" class="node">
<title>Node29</title>
<g id="a_node8"><a xlink:href="../../d6/d8e/test__timing_8cpp.html" target="_top" xlink:title="examples/ex1/test_timing.cpp">
<polygon fill="#ffffff" stroke="#000000" points="0,-.5 0,-21.5 135,-21.5 135,-.5 0,-.5"/>
<text text-anchor="middle" x="67.5" y="-7.9" font-family="Helvetica,sans-Serif" font-size="12.00" fill="#000000">examples/ex1/test_timing.cpp</text>
</a>
</g>
</g>
<!-- Node26&#45;&gt;Node29 -->
<g id="edge10" class="edge">
<title>Node26&#45;&gt;Node29</title>
<path fill="none" stroke="#191970" d="M156.3193,-117.5393C109.9366,-110.1875 57.7357,-98.1408 43.5,-80 29.7195,-62.4392 46.2309,-36.4112 57.8963,-21.8587"/>
<polygon fill="#191970" stroke="#191970" points="156.0041,-121.0317 166.4181,-119.0823 157.0615,-114.112 156.0041,-121.0317"/>
</g>
<!-- Node30 -->
<g id="node9" class="node">
<title>Node30</title>
<g id="a_node9"><a xlink:href="../../d9/dad/timing__manager_8cpp.html" target="_top" xlink:title="timing_manager.cpp">
<polygon fill="#ffffff" stroke="#000000" points="186.5,-58.5 186.5,-79.5 284.5,-79.5 284.5,-58.5 186.5,-58.5"/>
<text text-anchor="middle" x="235.5" y="-65.9" font-family="Helvetica,sans-Serif" font-size="12.00" fill="#000000">timing_manager.cpp</text>
</a>
</g>
</g>
<!-- Node26&#45;&gt;Node30 -->
<g id="edge9" class="edge">
<title>Node26&#45;&gt;Node30</title>
<path fill="none" stroke="#191970" d="M235.5,-106.1906C235.5,-97.1684 235.5,-86.9941 235.5,-79.5707"/>
<polygon fill="#191970" stroke="#191970" points="232.0001,-106.3619 235.5,-116.3619 239.0001,-106.3619 232.0001,-106.3619"/>
</g>
<!-- Node27&#45;&gt;Node28 -->
<g id="edge6" class="edge">
<title>Node27&#45;&gt;Node28</title>
<path fill="none" stroke="#191970" d="M156.7924,-55.7081C194.4025,-44.9092 246.5074,-29.9484 279.8637,-20.3708"/>
<polygon fill="#191970" stroke="#191970" points="155.7264,-52.3727 147.0807,-58.4966 157.6583,-59.1009 155.7264,-52.3727"/>
</g>
<!-- Node27&#45;&gt;Node29 -->
<g id="edge7" class="edge">
<title>Node27&#45;&gt;Node29</title>
<path fill="none" stroke="#191970" d="M96.5994,-50.2504C89.556,-40.75 81.2638,-29.5651 75.3369,-21.5707"/>
<polygon fill="#191970" stroke="#191970" points="93.8459,-52.4132 102.6131,-58.3619 99.4691,-48.2443 93.8459,-52.4132"/>
</g>
</g>
</svg>
