<?xml version="1.0" encoding="UTF-8" standalone="no"?>
<!DOCTYPE svg PUBLIC "-//W3C//DTD SVG 1.1//EN"
 "http://www.w3.org/Graphics/SVG/1.1/DTD/svg11.dtd">
<!-- Generated by graphviz version 2.40.1 (20161225.0304)
 -->
<!-- Title: timemory/base_clock.hpp Pages: 1 -->
<svg width="735pt" height="333pt"
 viewBox="0.00 0.00 734.50 333.00" xmlns="http://www.w3.org/2000/svg" xmlns:xlink="http://www.w3.org/1999/xlink">
<g id="graph0" class="graph" transform="scale(1 1) rotate(0) translate(4 329)">
<title>timemory/base_clock.hpp</title>
<polygon fill="#ffffff" stroke="transparent" points="-4,4 -4,-329 730.5,-329 730.5,4 -4,4"/>
<!-- Node20 -->
<g id="node1" class="node">
<title>Node20</title>
<polygon fill="#bfbfbf" stroke="#000000" points="474,-303.5 474,-324.5 593,-324.5 593,-303.5 474,-303.5"/>
<text text-anchor="middle" x="533.5" y="-310.9" font-family="Helvetica,sans-Serif" font-size="12.00" fill="#000000">timemory/base_clock.hpp</text>
</g>
<!-- Node21 -->
<g id="node2" class="node">
<title>Node21</title>
<g id="a_node2"><a xlink:href="../../d5/db8/base__clock_8cpp.html" target="_top" xlink:title="base_clock.cpp">
<polygon fill="#ffffff" stroke="#000000" points="436,-245.5 436,-266.5 515,-266.5 515,-245.5 436,-245.5"/>
<text text-anchor="middle" x="475.5" y="-252.9" font-family="Helvetica,sans-Serif" font-size="12.00" fill="#000000">base_clock.cpp</text>
</a>
</g>
</g>
<!-- Node20&#45;&gt;Node21 -->
<g id="edge1" class="edge">
<title>Node20&#45;&gt;Node21</title>
<path fill="none" stroke="#191970" d="M515.618,-296.118C505.9377,-286.4377 494.3098,-274.8098 486.0707,-266.5707"/>
<polygon fill="#191970" stroke="#191970" points="513.3159,-298.7657 522.8619,-303.3619 518.2657,-293.8159 513.3159,-298.7657"/>
</g>
<!-- Node22 -->
<g id="node3" class="node">
<title>Node22</title>
<g id="a_node3"><a xlink:href="../../d6/d01/base__timer_8hpp.html" target="_top" xlink:title="timemory/base_timer.hpp">
<polygon fill="#ffffff" stroke="#000000" points="533.5,-245.5 533.5,-266.5 651.5,-266.5 651.5,-245.5 533.5,-245.5"/>
<text text-anchor="middle" x="592.5" y="-252.9" font-family="Helvetica,sans-Serif" font-size="12.00" fill="#000000">timemory/base_timer.hpp</text>
</a>
</g>
</g>
<!-- Node20&#45;&gt;Node22 -->
<g id="edge2" class="edge">
<title>Node20&#45;&gt;Node22</title>
<path fill="none" stroke="#191970" d="M551.6903,-296.118C561.5375,-286.4377 573.3659,-274.8098 581.7471,-266.5707"/>
<polygon fill="#191970" stroke="#191970" points="548.9991,-293.8556 544.3215,-303.3619 553.9064,-298.8474 548.9991,-293.8556"/>
</g>
<!-- Node23 -->
<g id="node4" class="node">
<title>Node23</title>
<g id="a_node4"><a xlink:href="../../dd/d84/base__timer_8cpp.html" target="_top" xlink:title="base_timer.cpp">
<polygon fill="#ffffff" stroke="#000000" points="501.5,-187.5 501.5,-208.5 579.5,-208.5 579.5,-187.5 501.5,-187.5"/>
<text text-anchor="middle" x="540.5" y="-194.9" font-family="Helvetica,sans-Serif" font-size="12.00" fill="#000000">base_timer.cpp</text>
</a>
</g>
</g>
<!-- Node22&#45;&gt;Node23 -->
<g id="edge3" class="edge">
<title>Node22&#45;&gt;Node23</title>
<path fill="none" stroke="#191970" d="M576.2096,-237.8299C567.5829,-228.2078 557.2908,-216.7282 549.9771,-208.5707"/>
<polygon fill="#191970" stroke="#191970" points="573.6809,-240.2526 582.9624,-245.3619 578.8929,-235.5798 573.6809,-240.2526"/>
</g>
<!-- Node24 -->
<g id="node5" class="node">
<title>Node24</title>
<g id="a_node5"><a xlink:href="../../df/d05/timer_8hpp.html" target="_top" xlink:title="timemory/timer.hpp">
<polygon fill="#ffffff" stroke="#000000" points="597.5,-187.5 597.5,-208.5 691.5,-208.5 691.5,-187.5 597.5,-187.5"/>
<text text-anchor="middle" x="644.5" y="-194.9" font-family="Helvetica,sans-Serif" font-size="12.00" fill="#000000">timemory/timer.hpp</text>
</a>
</g>
</g>
<!-- Node22&#45;&gt;Node24 -->
<g id="edge4" class="edge">
<title>Node22&#45;&gt;Node24</title>
<path fill="none" stroke="#191970" d="M608.7904,-237.8299C617.4171,-228.2078 627.7092,-216.7282 635.0229,-208.5707"/>
<polygon fill="#191970" stroke="#191970" points="606.1071,-235.5798 602.0376,-245.3619 611.3191,-240.2526 606.1071,-235.5798"/>
</g>
<!-- Node25 -->
<g id="node6" class="node">
<title>Node25</title>
<g id="a_node6"><a xlink:href="../../da/d04/manager_8hpp.html" target="_top" xlink:title="timemory/manager.hpp">
<polygon fill="#ffffff" stroke="#000000" points="468,-129.5 468,-150.5 577,-150.5 577,-129.5 468,-129.5"/>
<text text-anchor="middle" x="522.5" y="-136.9" font-family="Helvetica,sans-Serif" font-size="12.00" fill="#000000">timemory/manager.hpp</text>
</a>
</g>
</g>
<!-- Node24&#45;&gt;Node25 -->
<g id="edge5" class="edge">
<title>Node24&#45;&gt;Node25</title>
<path fill="none" stroke="#191970" d="M613.094,-183.0693C591.7288,-172.9121 563.971,-159.7157 544.8412,-150.6212"/>
<polygon fill="#191970" stroke="#191970" points="611.8726,-186.364 622.4067,-187.4966 614.8781,-180.042 611.8726,-186.364"/>
</g>
<!-- Node32 -->
<g id="node13" class="node">
<title>Node32</title>
<g id="a_node13"><a xlink:href="../../d2/dfd/timemory_8cc.html" target="_top" xlink:title="timemory.cc">
<polygon fill="#ffffff" stroke="#000000" points="615,-7 615,-28 680,-28 680,-7 615,-7"/>
<text text-anchor="middle" x="647.5" y="-14.4" font-family="Helvetica,sans-Serif" font-size="12.00" fill="#000000">timemory.cc</text>
</a>
</g>
</g>
<!-- Node24&#45;&gt;Node32 -->
<g id="edge17" class="edge">
<title>Node24&#45;&gt;Node32</title>
<path fill="none" stroke="#191970" d="M644.8458,-177.1935C645.485,-138.7353 646.8306,-57.7752 647.3185,-28.4224"/>
<polygon fill="#191970" stroke="#191970" points="641.3454,-177.1926 644.6787,-187.2495 648.3445,-177.309 641.3454,-177.1926"/>
</g>
<!-- Node33 -->
<g id="node14" class="node">
<title>Node33</title>
<g id="a_node14"><a xlink:href="../../dc/de5/timer_8cpp.html" target="_top" xlink:title="timer.cpp">
<polygon fill="#ffffff" stroke="#000000" points="672.5,-129.5 672.5,-150.5 726.5,-150.5 726.5,-129.5 672.5,-129.5"/>
<text text-anchor="middle" x="699.5" y="-136.9" font-family="Helvetica,sans-Serif" font-size="12.00" fill="#000000">timer.cpp</text>
</a>
</g>
</g>
<!-- Node24&#45;&gt;Node33 -->
<g id="edge18" class="edge">
<title>Node24&#45;&gt;Node33</title>
<path fill="none" stroke="#191970" d="M661.7302,-179.8299C670.8546,-170.2078 681.7405,-158.7282 689.4761,-150.5707"/>
<polygon fill="#191970" stroke="#191970" points="658.9291,-177.6973 654.5878,-187.3619 664.0085,-182.514 658.9291,-177.6973"/>
</g>
<!-- Node26 -->
<g id="node7" class="node">
<title>Node26</title>
<g id="a_node7"><a xlink:href="../../d0/d90/ex1_2test__timing_8cpp.html" target="_top" xlink:title="examples/ex1/test_timing.cpp">
<polygon fill="#ffffff" stroke="#000000" points="0,-7 0,-28 135,-28 135,-7 0,-7"/>
<text text-anchor="middle" x="67.5" y="-14.4" font-family="Helvetica,sans-Serif" font-size="12.00" fill="#000000">examples/ex1/test_timing.cpp</text>
</a>
</g>
</g>
<!-- Node25&#45;&gt;Node26 -->
<g id="edge6" class="edge">
<title>Node25&#45;&gt;Node26</title>
<path fill="none" stroke="#191970" d="M471.5539,-126.8789C435.4857,-117.5453 385.9886,-104.647 342.5,-93 257.6119,-70.2655 158.2342,-42.761 105.2697,-28.0306"/>
<polygon fill="#191970" stroke="#191970" points="470.7969,-130.2982 481.3547,-129.413 472.5492,-123.5211 470.7969,-130.2982"/>
</g>
<!-- Node27 -->
<g id="node8" class="node">
<title>Node27</title>
<g id="a_node8"><a xlink:href="../../dd/d0a/mpi__test__timing_8cpp.html" target="_top" xlink:title="examples/ex2/mpi_test\l_timing.cpp">
<polygon fill="#ffffff" stroke="#000000" points="153,-.5 153,-34.5 262,-34.5 262,-.5 153,-.5"/>
<text text-anchor="start" x="161" y="-20.9" font-family="Helvetica,sans-Serif" font-size="12.00" fill="#000000">examples/ex2/mpi_test</text>
<text text-anchor="middle" x="207.5" y="-7.9" font-family="Helvetica,sans-Serif" font-size="12.00" fill="#000000">_timing.cpp</text>
</a>
</g>
</g>
<!-- Node25&#45;&gt;Node27 -->
<g id="edge7" class="edge">
<title>Node25&#45;&gt;Node27</title>
<path fill="none" stroke="#191970" d="M485.825,-125.7375C427.5034,-103.0569 313.839,-58.8541 251.3211,-34.5415"/>
<polygon fill="#191970" stroke="#191970" points="484.782,-129.0872 495.3706,-129.4497 487.3192,-122.5632 484.782,-129.0872"/>
</g>
<!-- Node28 -->
<g id="node9" class="node">
<title>Node28</title>
<g id="a_node9"><a xlink:href="../../d8/d07/auto__timer_8hpp.html" target="_top" xlink:title="timemory/auto_timer.hpp">
<polygon fill="#ffffff" stroke="#000000" points="413.5,-71.5 413.5,-92.5 529.5,-92.5 529.5,-71.5 413.5,-71.5"/>
<text text-anchor="middle" x="471.5" y="-78.9" font-family="Helvetica,sans-Serif" font-size="12.00" fill="#000000">timemory/auto_timer.hpp</text>
</a>
</g>
</g>
<!-- Node25&#45;&gt;Node28 -->
<g id="edge8" class="edge">
<title>Node25&#45;&gt;Node28</title>
<path fill="none" stroke="#191970" d="M506.5229,-121.8299C498.0621,-112.2078 487.9679,-100.7282 480.7949,-92.5707"/>
<polygon fill="#191970" stroke="#191970" points="503.914,-124.1634 513.1458,-129.3619 509.1708,-119.541 503.914,-124.1634"/>
</g>
<!-- Node31 -->
<g id="node12" class="node">
<title>Node31</title>
<g id="a_node12"><a xlink:href="../../d0/db0/manager_8cpp.html" target="_top" xlink:title="manager.cpp">
<polygon fill="#ffffff" stroke="#000000" points="528,-7 528,-28 597,-28 597,-7 528,-7"/>
<text text-anchor="middle" x="562.5" y="-14.4" font-family="Helvetica,sans-Serif" font-size="12.00" fill="#000000">manager.cpp</text>
</a>
</g>
</g>
<!-- Node25&#45;&gt;Node31 -->
<g id="edge15" class="edge">
<title>Node25&#45;&gt;Node31</title>
<path fill="none" stroke="#191970" d="M529.5308,-119.643C532.3562,-111.3862 535.6201,-101.7504 538.5,-93 546.0676,-70.0063 554.5735,-42.9434 559.1507,-28.2746"/>
<polygon fill="#191970" stroke="#191970" points="526.1887,-118.599 526.2484,-129.1937 532.8087,-120.8742 526.1887,-118.599"/>
</g>
<!-- Node25&#45;&gt;Node32 -->
<g id="edge16" class="edge">
<title>Node25&#45;&gt;Node32</title>
<path fill="none" stroke="#191970" d="M541.0686,-121.8028C567.5243,-95.8762 615.2249,-49.1296 636.6104,-28.1718"/>
<polygon fill="#191970" stroke="#191970" points="538.2853,-119.6299 533.5929,-129.1289 543.1848,-124.6294 538.2853,-119.6299"/>
</g>
<!-- Node28&#45;&gt;Node26 -->
<g id="edge9" class="edge">
<title>Node28&#45;&gt;Node26</title>
<path fill="none" stroke="#191970" d="M403.5498,-73.9549C337.0259,-65.6808 232.9264,-51.6724 143.5,-35 132.7186,-32.9899 121.1512,-30.4999 110.3746,-28.0348"/>
<polygon fill="#191970" stroke="#191970" points="403.1368,-77.4304 413.4906,-75.1834 403.9954,-70.4832 403.1368,-77.4304"/>
</g>
<!-- Node28&#45;&gt;Node27 -->
<g id="edge10" class="edge">
<title>Node28&#45;&gt;Node27</title>
<path fill="none" stroke="#191970" d="M413.9408,-69.2036C373.667,-60.0882 318.6715,-47.3169 270.5,-35 267.7505,-34.297 264.9373,-33.5644 262.0989,-32.8147"/>
<polygon fill="#191970" stroke="#191970" points="413.3243,-72.6524 423.8495,-71.4398 414.8654,-65.8241 413.3243,-72.6524"/>
</g>
<!-- Node29 -->
<g id="node10" class="node">
<title>Node29</title>
<g id="a_node10"><a xlink:href="../../d2/dc1/ex3_2test__timing_8cpp.html" target="_top" xlink:title="examples/ex3/test_timing.cpp">
<polygon fill="#ffffff" stroke="#000000" points="280,-7 280,-28 415,-28 415,-7 280,-7"/>
<text text-anchor="middle" x="347.5" y="-14.4" font-family="Helvetica,sans-Serif" font-size="12.00" fill="#000000">examples/ex3/test_timing.cpp</text>
</a>
</g>
</g>
<!-- Node28&#45;&gt;Node29 -->
<g id="edge11" class="edge">
<title>Node28&#45;&gt;Node29</title>
<path fill="none" stroke="#191970" d="M442.3406,-66.8324C419.373,-54.8856 387.9532,-38.5422 367.6901,-28.0021"/>
<polygon fill="#191970" stroke="#191970" points="440.8145,-69.9838 451.3013,-71.4934 444.0448,-63.7736 440.8145,-69.9838"/>
</g>
<!-- Node30 -->
<g id="node11" class="node">
<title>Node30</title>
<g id="a_node11"><a xlink:href="../../d2/d80/auto__timer_8cpp.html" target="_top" xlink:title="auto_timer.cpp">
<polygon fill="#ffffff" stroke="#000000" points="433.5,-7 433.5,-28 509.5,-28 509.5,-7 433.5,-7"/>
<text text-anchor="middle" x="471.5" y="-14.4" font-family="Helvetica,sans-Serif" font-size="12.00" fill="#000000">auto_timer.cpp</text>
</a>
</g>
</g>
<!-- Node28&#45;&gt;Node30 -->
<g id="edge12" class="edge">
<title>Node28&#45;&gt;Node30</title>
<path fill="none" stroke="#191970" d="M471.5,-61.3076C471.5,-50.3587 471.5,-37.3615 471.5,-28.3823"/>
<polygon fill="#191970" stroke="#191970" points="468.0001,-61.3491 471.5,-71.3491 475.0001,-61.3492 468.0001,-61.3491"/>
</g>
<!-- Node28&#45;&gt;Node31 -->
<g id="edge13" class="edge">
<title>Node28&#45;&gt;Node31</title>
<path fill="none" stroke="#191970" d="M495.1083,-65.2666C511.6335,-53.5537 533.2169,-38.2556 547.4509,-28.1667"/>
<polygon fill="#191970" stroke="#191970" points="492.6614,-62.711 486.5268,-71.3491 496.7092,-68.4219 492.6614,-62.711"/>
</g>
<!-- Node28&#45;&gt;Node32 -->
<g id="edge14" class="edge">
<title>Node28&#45;&gt;Node32</title>
<path fill="none" stroke="#191970" d="M513.7237,-68.1274C540.4775,-59.1339 575.7156,-46.9126 606.5,-35 611.9855,-32.8773 617.8275,-30.4726 623.3309,-28.1404"/>
<polygon fill="#191970" stroke="#191970" points="512.2859,-64.9177 503.9125,-71.4089 514.5063,-71.5562 512.2859,-64.9177"/>
</g>
</g>
</svg>
