<?xml version="1.0" encoding="UTF-8" standalone="no"?>
<!DOCTYPE svg PUBLIC "-//W3C//DTD SVG 1.1//EN"
 "http://www.w3.org/Graphics/SVG/1.1/DTD/svg11.dtd">
<!-- Generated by graphviz version 2.40.1 (20161225.0304)
 -->
<!-- Title: timemory/timing_manager.hpp Pages: 1 -->
<svg width="2834pt" height="275pt"
 viewBox="0.00 0.00 2833.50 275.00" xmlns="http://www.w3.org/2000/svg" xmlns:xlink="http://www.w3.org/1999/xlink">
<g id="graph0" class="graph" transform="scale(1 1) rotate(0) translate(4 271)">
<title>timemory/timing_manager.hpp</title>
<polygon fill="#ffffff" stroke="transparent" points="-4,4 -4,-271 2829.5,-271 2829.5,4 -4,4"/>
<!-- Node0 -->
<g id="node1" class="node">
<title>Node0</title>
<polygon fill="#bfbfbf" stroke="#000000" points="1782,-245.5 1782,-266.5 1920,-266.5 1920,-245.5 1782,-245.5"/>
<text text-anchor="middle" x="1851" y="-252.9" font-family="Helvetica,sans-Serif" font-size="12.00" fill="#000000">timemory/timing_manager.hpp</text>
</g>
<!-- Node1 -->
<g id="node2" class="node">
<title>Node1</title>
<polygon fill="#ffffff" stroke="#bfbfbf" points="120,-.5 120,-21.5 200,-21.5 200,-.5 120,-.5"/>
<text text-anchor="middle" x="160" y="-7.9" font-family="Helvetica,sans-Serif" font-size="12.00" fill="#000000">unordered_map</text>
</g>
<!-- Node0&#45;&gt;Node1 -->
<g id="edge1" class="edge">
<title>Node0&#45;&gt;Node1</title>
<path fill="none" stroke="#191970" d="M1781.912,-254.7985C1540.1099,-250.3932 740.4459,-234.0655 628,-209 451.5934,-169.6769 257.8179,-66.491 187.4436,-26.8374"/>
<polygon fill="#191970" stroke="#191970" points="188.772,-23.567 178.3471,-21.677 185.318,-29.6556 188.772,-23.567"/>
</g>
<!-- Node2 -->
<g id="node3" class="node">
<title>Node2</title>
<polygon fill="#ffffff" stroke="#bfbfbf" points="0,-.5 0,-21.5 42,-21.5 42,-.5 0,-.5"/>
<text text-anchor="middle" x="21" y="-7.9" font-family="Helvetica,sans-Serif" font-size="12.00" fill="#000000">deque</text>
</g>
<!-- Node0&#45;&gt;Node2 -->
<g id="edge2" class="edge">
<title>Node0&#45;&gt;Node2</title>
<path fill="none" stroke="#191970" d="M1781.7918,-255.0062C1524.4194,-251.1149 630.9362,-235.7942 506,-209 323.4502,-169.8498 121.8028,-66.169 49.0698,-26.6247"/>
<polygon fill="#191970" stroke="#191970" points="50.5188,-23.4279 40.0662,-21.6979 47.1585,-29.5686 50.5188,-23.4279"/>
</g>
<!-- Node3 -->
<g id="node4" class="node">
<title>Node3</title>
<polygon fill="#ffffff" stroke="#bfbfbf" points="789.5,-.5 789.5,-21.5 828.5,-21.5 828.5,-.5 789.5,-.5"/>
<text text-anchor="middle" x="809" y="-7.9" font-family="Helvetica,sans-Serif" font-size="12.00" fill="#000000">string</text>
</g>
<!-- Node0&#45;&gt;Node3 -->
<g id="edge3" class="edge">
<title>Node0&#45;&gt;Node3</title>
<path fill="none" stroke="#191970" d="M1781.8181,-251.512C1697.834,-245.3255 1552.1491,-232.2178 1429,-209 1232.0916,-171.876 1185.7709,-147.206 997,-80 929.0421,-55.8057 910.0369,-48.7964 838.1629,-22.0345"/>
<polygon fill="#191970" stroke="#191970" points="839.2354,-18.6992 828.6427,-18.4894 836.7926,-25.2591 839.2354,-18.6992"/>
</g>
<!-- Node4 -->
<g id="node5" class="node">
<title>Node4</title>
<polygon fill="#ffffff" stroke="#bfbfbf" points="1917,-181 1917,-202 1959,-202 1959,-181 1917,-181"/>
<text text-anchor="middle" x="1938" y="-188.4" font-family="Helvetica,sans-Serif" font-size="12.00" fill="#000000">thread</text>
</g>
<!-- Node0&#45;&gt;Node4 -->
<g id="edge4" class="edge">
<title>Node0&#45;&gt;Node4</title>
<path fill="none" stroke="#191970" d="M1865.3663,-245.3491C1878.9673,-235.2656 1899.6008,-219.9684 1915.4046,-208.2517"/>
<polygon fill="#191970" stroke="#191970" points="1917.6637,-210.9339 1923.6124,-202.1667 1913.4948,-205.3107 1917.6637,-210.9339"/>
</g>
<!-- Node5 -->
<g id="node6" class="node">
<title>Node5</title>
<polygon fill="#ffffff" stroke="#bfbfbf" points="218.5,-.5 218.5,-21.5 259.5,-21.5 259.5,-.5 218.5,-.5"/>
<text text-anchor="middle" x="239" y="-7.9" font-family="Helvetica,sans-Serif" font-size="12.00" fill="#000000">mutex</text>
</g>
<!-- Node0&#45;&gt;Node5 -->
<g id="edge5" class="edge">
<title>Node0&#45;&gt;Node5</title>
<path fill="none" stroke="#191970" d="M1781.762,-254.4737C1553.1968,-249.2447 831.4254,-231.1465 729,-209 680.8262,-198.5838 368.3211,-66.1643 269.1494,-23.8836"/>
<polygon fill="#191970" stroke="#191970" points="270.2773,-20.5597 259.7059,-19.855 267.5305,-26.9982 270.2773,-20.5597"/>
</g>
<!-- Node6 -->
<g id="node7" class="node">
<title>Node6</title>
<polygon fill="#ffffff" stroke="#bfbfbf" points="1977.5,-181 1977.5,-202 2016.5,-202 2016.5,-181 1977.5,-181"/>
<text text-anchor="middle" x="1997" y="-188.4" font-family="Helvetica,sans-Serif" font-size="12.00" fill="#000000">mpi.h</text>
</g>
<!-- Node0&#45;&gt;Node6 -->
<g id="edge6" class="edge">
<title>Node0&#45;&gt;Node6</title>
<path fill="none" stroke="#191970" d="M1881.3988,-245.3223C1905.3648,-236.5408 1939.3976,-223.259 1968,-209 1969.1545,-208.4245 1970.3241,-207.819 1971.4977,-207.1931"/>
<polygon fill="#191970" stroke="#191970" points="1973.4192,-210.1271 1980.3897,-202.1481 1969.9649,-204.0387 1973.4192,-210.1271"/>
</g>
<!-- Node7 -->
<g id="node8" class="node">
<title>Node7</title>
<polygon fill="#ffffff" stroke="#bfbfbf" points="1501,-.5 1501,-21.5 1587,-21.5 1587,-.5 1501,-.5"/>
<text text-anchor="middle" x="1544" y="-7.9" font-family="Helvetica,sans-Serif" font-size="12.00" fill="#000000">cereal/cereal.hpp</text>
</g>
<!-- Node0&#45;&gt;Node7 -->
<g id="edge7" class="edge">
<title>Node0&#45;&gt;Node7</title>
<path fill="none" stroke="#191970" d="M1788.0772,-245.452C1740.5283,-236.5941 1679.9864,-223.1465 1659,-209 1600.3925,-169.494 1597.7979,-143.1225 1566,-80 1558.2336,-64.5829 1552.4698,-45.8559 1548.7943,-31.8037"/>
<polygon fill="#191970" stroke="#191970" points="1552.0919,-30.558 1546.2961,-21.689 1545.2961,-32.2366 1552.0919,-30.558"/>
</g>
<!-- Node8 -->
<g id="node9" class="node">
<title>Node8</title>
<polygon fill="#ffffff" stroke="#bfbfbf" points="1948,-.5 1948,-21.5 2058,-21.5 2058,-.5 1948,-.5"/>
<text text-anchor="middle" x="2003" y="-7.9" font-family="Helvetica,sans-Serif" font-size="12.00" fill="#000000">cereal/types/deque.hpp</text>
</g>
<!-- Node0&#45;&gt;Node8 -->
<g id="edge8" class="edge">
<title>Node0&#45;&gt;Node8</title>
<path fill="none" stroke="#191970" d="M1852.3404,-245.3851C1855.8209,-220.9076 1866.8387,-159.2914 1894,-116 1916.9847,-79.3655 1955.4718,-46.4343 1980.0256,-27.5882"/>
<polygon fill="#191970" stroke="#191970" points="1982.1951,-30.3359 1988.0812,-21.5265 1977.9862,-24.7425 1982.1951,-30.3359"/>
</g>
<!-- Node9 -->
<g id="node10" class="node">
<title>Node9</title>
<polygon fill="#ffffff" stroke="#bfbfbf" points="1840.5,-.5 1840.5,-21.5 1929.5,-21.5 1929.5,-.5 1840.5,-.5"/>
<text text-anchor="middle" x="1885" y="-7.9" font-family="Helvetica,sans-Serif" font-size="12.00" fill="#000000">cereal/access.hpp</text>
</g>
<!-- Node0&#45;&gt;Node9 -->
<g id="edge9" class="edge">
<title>Node0&#45;&gt;Node9</title>
<path fill="none" stroke="#191970" d="M1846.8699,-245.3724C1843.4523,-235.9742 1838.8667,-221.806 1837,-209 1834.7562,-193.6071 1834.7802,-189.3964 1837,-174 1844.6068,-121.2403 1865.3894,-61.752 1876.9579,-31.3193"/>
<polygon fill="#191970" stroke="#191970" points="1880.2869,-32.4146 1880.6289,-21.8252 1873.758,-29.89 1880.2869,-32.4146"/>
</g>
<!-- Node10 -->
<g id="node11" class="node">
<title>Node10</title>
<polygon fill="#ffffff" stroke="#bfbfbf" points="2034.5,-174.5 2034.5,-208.5 2143.5,-208.5 2143.5,-174.5 2034.5,-174.5"/>
<text text-anchor="start" x="2042.5" y="-194.9" font-family="Helvetica,sans-Serif" font-size="12.00" fill="#000000">cereal/types/unordered</text>
<text text-anchor="middle" x="2089" y="-181.9" font-family="Helvetica,sans-Serif" font-size="12.00" fill="#000000">_map.hpp</text>
</g>
<!-- Node0&#45;&gt;Node10 -->
<g id="edge10" class="edge">
<title>Node0&#45;&gt;Node10</title>
<path fill="none" stroke="#191970" d="M1890.6426,-245.4568C1923.9806,-236.5672 1973.1641,-223.3986 2024.4364,-209.4176"/>
<polygon fill="#191970" stroke="#191970" points="2025.6469,-212.7153 2034.3722,-206.7052 2023.8034,-205.9624 2025.6469,-212.7153"/>
</g>
<!-- Node11 -->
<g id="node12" class="node">
<title>Node11</title>
<polygon fill="#ffffff" stroke="#bfbfbf" points="2076.5,-.5 2076.5,-21.5 2189.5,-21.5 2189.5,-.5 2076.5,-.5"/>
<text text-anchor="middle" x="2133" y="-7.9" font-family="Helvetica,sans-Serif" font-size="12.00" fill="#000000">cereal/types/chrono.hpp</text>
</g>
<!-- Node0&#45;&gt;Node11 -->
<g id="edge11" class="edge">
<title>Node0&#45;&gt;Node11</title>
<path fill="none" stroke="#191970" d="M1856.8421,-245.3254C1866.2033,-228.8212 1885.7848,-196.6527 1908,-174 1970.5888,-110.1787 2060.4686,-53.3408 2105.3289,-26.8201"/>
<polygon fill="#191970" stroke="#191970" points="2107.3319,-29.7032 2114.1923,-21.6294 2103.7944,-23.6627 2107.3319,-29.7032"/>
</g>
<!-- Node12 -->
<g id="node13" class="node">
<title>Node12</title>
<polygon fill="#ffffff" stroke="#bfbfbf" points="2162,-181 2162,-202 2294,-202 2294,-181 2162,-181"/>
<text text-anchor="middle" x="2228" y="-188.4" font-family="Helvetica,sans-Serif" font-size="12.00" fill="#000000">cereal/archives/adapters.hpp</text>
</g>
<!-- Node0&#45;&gt;Node12 -->
<g id="edge12" class="edge">
<title>Node0&#45;&gt;Node12</title>
<path fill="none" stroke="#191970" d="M1920.2235,-246.7292C1981.6009,-238.152 2073.5649,-224.4262 2153,-209 2160.301,-207.5822 2167.9702,-205.9542 2175.5028,-204.2745"/>
<polygon fill="#191970" stroke="#191970" points="2176.3094,-207.6805 2185.2841,-202.0497 2174.7569,-200.8548 2176.3094,-207.6805"/>
</g>
<!-- Node13 -->
<g id="node14" class="node">
<title>Node13</title>
<polygon fill="#ffffff" stroke="#bfbfbf" points="2312,-181 2312,-202 2434,-202 2434,-181 2312,-181"/>
<text text-anchor="middle" x="2373" y="-188.4" font-family="Helvetica,sans-Serif" font-size="12.00" fill="#000000">cereal/archives/binary.hpp</text>
</g>
<!-- Node0&#45;&gt;Node13 -->
<g id="edge13" class="edge">
<title>Node0&#45;&gt;Node13</title>
<path fill="none" stroke="#191970" d="M1920.3403,-251.8461C2009.4169,-245.8118 2168.579,-232.669 2303,-209 2310.2094,-207.7306 2317.775,-206.1288 2325.1585,-204.4125"/>
<polygon fill="#191970" stroke="#191970" points="2326.1638,-207.7705 2335.0633,-202.0217 2324.5213,-200.9659 2326.1638,-207.7705"/>
</g>
<!-- Node14 -->
<g id="node15" class="node">
<title>Node14</title>
<polygon fill="#ffffff" stroke="#bfbfbf" points="2452,-181 2452,-202 2566,-202 2566,-181 2452,-181"/>
<text text-anchor="middle" x="2509" y="-188.4" font-family="Helvetica,sans-Serif" font-size="12.00" fill="#000000">cereal/archives/json.hpp</text>
</g>
<!-- Node0&#45;&gt;Node14 -->
<g id="edge14" class="edge">
<title>Node0&#45;&gt;Node14</title>
<path fill="none" stroke="#191970" d="M1920.3156,-254.5323C2031.3773,-251.2782 2255.749,-240.99 2443,-209 2449.8302,-207.8331 2456.9823,-206.2867 2463.9531,-204.595"/>
<polygon fill="#191970" stroke="#191970" points="2465.1523,-207.9013 2473.9779,-202.0397 2463.4232,-201.1182 2465.1523,-207.9013"/>
</g>
<!-- Node15 -->
<g id="node16" class="node">
<title>Node15</title>
<polygon fill="#ffffff" stroke="#bfbfbf" points="2584,-174.5 2584,-208.5 2696,-208.5 2696,-174.5 2584,-174.5"/>
<text text-anchor="start" x="2592" y="-194.9" font-family="Helvetica,sans-Serif" font-size="12.00" fill="#000000">cereal/archives/portable</text>
<text text-anchor="middle" x="2640" y="-181.9" font-family="Helvetica,sans-Serif" font-size="12.00" fill="#000000">_binary.hpp</text>
</g>
<!-- Node0&#45;&gt;Node15 -->
<g id="edge15" class="edge">
<title>Node0&#45;&gt;Node15</title>
<path fill="none" stroke="#191970" d="M1920.1821,-253.2602C2072.1408,-246.9647 2432.1162,-230.4631 2573.5766,-208.9888"/>
<polygon fill="#191970" stroke="#191970" points="2574.4528,-212.3936 2583.7795,-207.3674 2573.3541,-205.4803 2574.4528,-212.3936"/>
</g>
<!-- Node16 -->
<g id="node17" class="node">
<title>Node16</title>
<polygon fill="#ffffff" stroke="#bfbfbf" points="2714.5,-181 2714.5,-202 2825.5,-202 2825.5,-181 2714.5,-181"/>
<text text-anchor="middle" x="2770" y="-188.4" font-family="Helvetica,sans-Serif" font-size="12.00" fill="#000000">cereal/archives/xml.hpp</text>
</g>
<!-- Node0&#45;&gt;Node16 -->
<g id="edge16" class="edge">
<title>Node0&#45;&gt;Node16</title>
<path fill="none" stroke="#191970" d="M1920.3192,-254.045C2095.8206,-248.7968 2554.4442,-233.1402 2705,-209 2711.9001,-207.8936 2719.1231,-206.3493 2726.1417,-204.632"/>
<polygon fill="#191970" stroke="#191970" points="2727.4139,-207.9181 2736.2172,-202.023 2725.6591,-201.1416 2727.4139,-207.9181"/>
</g>
<!-- Node17 -->
<g id="node18" class="node">
<title>Node17</title>
<g id="a_node18"><a xlink:href="../../db/d19/namespace_8hpp.html" target="_top" xlink:title="timemory/namespace.hpp">
<polygon fill="#ffffff" stroke="#000000" points="847,-.5 847,-21.5 967,-21.5 967,-.5 847,-.5"/>
<text text-anchor="middle" x="907" y="-7.9" font-family="Helvetica,sans-Serif" font-size="12.00" fill="#000000">timemory/namespace.hpp</text>
</a>
</g>
</g>
<!-- Node0&#45;&gt;Node17 -->
<g id="edge17" class="edge">
<title>Node0&#45;&gt;Node17</title>
<path fill="none" stroke="#191970" d="M1795.127,-245.4258C1746.8381,-236.1771 1675.2131,-222.1963 1613,-209 1363.5754,-156.0935 1294.7832,-163.8761 1054,-80 1011.4234,-65.1686 964.6758,-41.9406 935.5836,-26.5945"/>
<polygon fill="#191970" stroke="#191970" points="936.8973,-23.3287 926.4259,-21.7158 933.606,-29.5067 936.8973,-23.3287"/>
</g>
<!-- Node18 -->
<g id="node19" class="node">
<title>Node18</title>
<g id="a_node19"><a xlink:href="../../d1/d4e/utility_8hpp.html" target="_top" xlink:title="timemory/utility.hpp">
<polygon fill="#ffffff" stroke="#000000" points="564,-58.5 564,-79.5 658,-79.5 658,-58.5 564,-58.5"/>
<text text-anchor="middle" x="611" y="-65.9" font-family="Helvetica,sans-Serif" font-size="12.00" fill="#000000">timemory/utility.hpp</text>
</a>
</g>
</g>
<!-- Node0&#45;&gt;Node18 -->
<g id="edge18" class="edge">
<title>Node0&#45;&gt;Node18</title>
<path fill="none" stroke="#191970" d="M1781.63,-255.2574C1562.002,-252.5798 890.9712,-241.7788 799,-209 726.2035,-183.0551 657.9548,-118.5613 627.5664,-86.9889"/>
<polygon fill="#191970" stroke="#191970" points="630.0944,-84.5682 620.6766,-79.7148 625.0122,-89.3819 630.0944,-84.5682"/>
</g>
<!-- Node30 -->
<g id="node31" class="node">
<title>Node30</title>
<g id="a_node31"><a xlink:href="../../df/d05/timer_8hpp.html" target="_top" xlink:title="timemory/timer.hpp">
<polygon fill="#ffffff" stroke="#000000" points="1668,-181 1668,-202 1762,-202 1762,-181 1668,-181"/>
<text text-anchor="middle" x="1715" y="-188.4" font-family="Helvetica,sans-Serif" font-size="12.00" fill="#000000">timemory/timer.hpp</text>
</a>
</g>
</g>
<!-- Node0&#45;&gt;Node30 -->
<g id="edge33" class="edge">
<title>Node0&#45;&gt;Node30</title>
<path fill="none" stroke="#191970" d="M1828.8466,-245.4934C1806.4214,-234.8579 1771.5445,-218.3171 1746.301,-206.345"/>
<polygon fill="#191970" stroke="#191970" points="1747.6791,-203.1249 1737.144,-202.0021 1744.6795,-209.4497 1747.6791,-203.1249"/>
</g>
<!-- Node18&#45;&gt;Node2 -->
<g id="edge29" class="edge">
<title>Node18&#45;&gt;Node2</title>
<path fill="none" stroke="#191970" d="M563.9548,-66.6737C450.9524,-60.8329 165.7776,-44.5292 51.9261,-21.6223"/>
<polygon fill="#191970" stroke="#191970" points="52.6047,-18.1884 42.0952,-19.5303 51.1477,-25.0351 52.6047,-18.1884"/>
</g>
<!-- Node18&#45;&gt;Node3 -->
<g id="edge22" class="edge">
<title>Node18&#45;&gt;Node3</title>
<path fill="none" stroke="#191970" d="M653.9905,-58.4422C686.4233,-50.1797 732.1456,-37.9014 779.6812,-22.2467"/>
<polygon fill="#191970" stroke="#191970" points="780.8289,-25.5535 789.2091,-19.0709 778.6154,-18.9126 780.8289,-25.5535"/>
</g>
<!-- Node18&#45;&gt;Node17 -->
<g id="edge32" class="edge">
<title>Node18&#45;&gt;Node17</title>
<path fill="none" stroke="#191970" d="M658.2294,-59.7456C708.2446,-49.9453 787.5002,-34.4155 843.0808,-23.5247"/>
<polygon fill="#191970" stroke="#191970" points="844.0307,-26.9052 853.171,-21.5476 842.6846,-20.0359 844.0307,-26.9052"/>
</g>
<!-- Node19 -->
<g id="node20" class="node">
<title>Node19</title>
<polygon fill="#ffffff" stroke="#bfbfbf" points="1313.5,-.5 1313.5,-21.5 1364.5,-21.5 1364.5,-.5 1313.5,-.5"/>
<text text-anchor="middle" x="1339" y="-7.9" font-family="Helvetica,sans-Serif" font-size="12.00" fill="#000000">iostream</text>
</g>
<!-- Node18&#45;&gt;Node19 -->
<g id="edge19" class="edge">
<title>Node18&#45;&gt;Node19</title>
<path fill="none" stroke="#191970" d="M658.032,-67.2623C789.6599,-62.1743 1160.8406,-46.2342 1302.9492,-21.7209"/>
<polygon fill="#191970" stroke="#191970" points="1303.9659,-25.0936 1313.1803,-19.8644 1302.7161,-18.2061 1303.9659,-25.0936"/>
</g>
<!-- Node20 -->
<g id="node21" class="node">
<title>Node20</title>
<polygon fill="#ffffff" stroke="#bfbfbf" points="60,-.5 60,-21.5 102,-21.5 102,-.5 60,-.5"/>
<text text-anchor="middle" x="81" y="-7.9" font-family="Helvetica,sans-Serif" font-size="12.00" fill="#000000">cstdlib</text>
</g>
<!-- Node18&#45;&gt;Node20 -->
<g id="edge20" class="edge">
<title>Node18&#45;&gt;Node20</title>
<path fill="none" stroke="#191970" d="M563.9149,-66.1278C460.1662,-59.5559 213.6683,-42.5478 112.0471,-21.6677"/>
<polygon fill="#191970" stroke="#191970" points="112.6169,-18.2098 102.1013,-19.503 111.1282,-25.0497 112.6169,-18.2098"/>
</g>
<!-- Node21 -->
<g id="node22" class="node">
<title>Node21</title>
<polygon fill="#ffffff" stroke="#bfbfbf" points="277.5,-.5 277.5,-21.5 306.5,-21.5 306.5,-.5 277.5,-.5"/>
<text text-anchor="middle" x="292" y="-7.9" font-family="Helvetica,sans-Serif" font-size="12.00" fill="#000000">set</text>
</g>
<!-- Node18&#45;&gt;Node21 -->
<g id="edge21" class="edge">
<title>Node18&#45;&gt;Node21</title>
<path fill="none" stroke="#191970" d="M563.9015,-63.2035C496.5838,-54.6501 375.2813,-38.177 316.6918,-21.8063"/>
<polygon fill="#191970" stroke="#191970" points="317.4256,-18.3726 306.842,-18.8604 315.4197,-25.0791 317.4256,-18.3726"/>
</g>
<!-- Node22 -->
<g id="node23" class="node">
<title>Node22</title>
<polygon fill="#ffffff" stroke="#bfbfbf" points="649.5,-.5 649.5,-21.5 698.5,-21.5 698.5,-.5 649.5,-.5"/>
<text text-anchor="middle" x="674" y="-7.9" font-family="Helvetica,sans-Serif" font-size="12.00" fill="#000000">sstream</text>
</g>
<!-- Node18&#45;&gt;Node22 -->
<g id="edge23" class="edge">
<title>Node18&#45;&gt;Node22</title>
<path fill="none" stroke="#191970" d="M622.5552,-58.3619C631.6134,-50.0226 644.4097,-38.2418 654.9737,-28.5162"/>
<polygon fill="#191970" stroke="#191970" points="657.5317,-30.9187 662.5181,-21.5707 652.7905,-25.7688 657.5317,-30.9187"/>
</g>
<!-- Node23 -->
<g id="node24" class="node">
<title>Node23</title>
<polygon fill="#ffffff" stroke="#bfbfbf" points="1247,-.5 1247,-21.5 1295,-21.5 1295,-.5 1247,-.5"/>
<text text-anchor="middle" x="1271" y="-7.9" font-family="Helvetica,sans-Serif" font-size="12.00" fill="#000000">iomanip</text>
</g>
<!-- Node18&#45;&gt;Node23 -->
<g id="edge24" class="edge">
<title>Node18&#45;&gt;Node23</title>
<path fill="none" stroke="#191970" d="M658.0308,-66.9806C780.6768,-61.4805 1109.0307,-45.1993 1236.7472,-21.7729"/>
<polygon fill="#191970" stroke="#191970" points="1237.5199,-25.1884 1246.6738,-19.854 1236.1913,-18.3156 1237.5199,-25.1884"/>
</g>
<!-- Node24 -->
<g id="node25" class="node">
<title>Node24</title>
<polygon fill="#ffffff" stroke="#bfbfbf" points="324.5,-.5 324.5,-21.5 367.5,-21.5 367.5,-.5 324.5,-.5"/>
<text text-anchor="middle" x="346" y="-7.9" font-family="Helvetica,sans-Serif" font-size="12.00" fill="#000000">cstring</text>
</g>
<!-- Node18&#45;&gt;Node24 -->
<g id="edge25" class="edge">
<title>Node18&#45;&gt;Node24</title>
<path fill="none" stroke="#191970" d="M563.6781,-61.7395C518.0048,-54.2419 446.8313,-41.272 377.5829,-22.1797"/>
<polygon fill="#191970" stroke="#191970" points="378.4009,-18.7741 367.8273,-19.4449 376.5114,-25.5143 378.4009,-18.7741"/>
</g>
<!-- Node25 -->
<g id="node26" class="node">
<title>Node25</title>
<polygon fill="#ffffff" stroke="#bfbfbf" points="385.5,-.5 385.5,-21.5 440.5,-21.5 440.5,-.5 385.5,-.5"/>
<text text-anchor="middle" x="413" y="-7.9" font-family="Helvetica,sans-Serif" font-size="12.00" fill="#000000">exception</text>
</g>
<!-- Node18&#45;&gt;Node25 -->
<g id="edge26" class="edge">
<title>Node18&#45;&gt;Node25</title>
<path fill="none" stroke="#191970" d="M573.9603,-58.4155C543.1506,-49.5752 497.8991,-36.5083 450.0963,-22.3034"/>
<polygon fill="#191970" stroke="#191970" points="451.0882,-18.947 440.5053,-19.4482 449.0909,-25.656 451.0882,-18.947"/>
</g>
<!-- Node26 -->
<g id="node27" class="node">
<title>Node26</title>
<polygon fill="#ffffff" stroke="#bfbfbf" points="716.5,-.5 716.5,-21.5 771.5,-21.5 771.5,-.5 716.5,-.5"/>
<text text-anchor="middle" x="744" y="-7.9" font-family="Helvetica,sans-Serif" font-size="12.00" fill="#000000">stdexcept</text>
</g>
<!-- Node18&#45;&gt;Node26 -->
<g id="edge27" class="edge">
<title>Node18&#45;&gt;Node26</title>
<path fill="none" stroke="#191970" d="M635.0853,-58.4966C656.1389,-49.3154 686.9272,-35.8889 710.4024,-25.6516"/>
<polygon fill="#191970" stroke="#191970" points="711.8772,-28.8268 719.6444,-21.6212 709.079,-22.4104 711.8772,-28.8268"/>
</g>
<!-- Node27 -->
<g id="node28" class="node">
<title>Node27</title>
<polygon fill="#ffffff" stroke="#bfbfbf" points="458.5,-.5 458.5,-21.5 513.5,-21.5 513.5,-.5 458.5,-.5"/>
<text text-anchor="middle" x="486" y="-7.9" font-family="Helvetica,sans-Serif" font-size="12.00" fill="#000000">functional</text>
</g>
<!-- Node18&#45;&gt;Node27 -->
<g id="edge28" class="edge">
<title>Node18&#45;&gt;Node27</title>
<path fill="none" stroke="#191970" d="M588.3634,-58.4966C568.7521,-49.397 540.1536,-36.1273 518.1667,-25.9253"/>
<polygon fill="#191970" stroke="#191970" points="519.4348,-22.6554 508.8906,-21.6212 516.4885,-29.0051 519.4348,-22.6554"/>
</g>
<!-- Node28 -->
<g id="node29" class="node">
<title>Node28</title>
<polygon fill="#ffffff" stroke="#bfbfbf" points="531.5,-.5 531.5,-21.5 572.5,-21.5 572.5,-.5 531.5,-.5"/>
<text text-anchor="middle" x="552" y="-7.9" font-family="Helvetica,sans-Serif" font-size="12.00" fill="#000000">cmath</text>
</g>
<!-- Node18&#45;&gt;Node28 -->
<g id="edge30" class="edge">
<title>Node18&#45;&gt;Node28</title>
<path fill="none" stroke="#191970" d="M600.1785,-58.3619C591.7785,-50.1043 579.9462,-38.4725 570.1098,-28.8029"/>
<polygon fill="#191970" stroke="#191970" points="572.3378,-26.0851 562.7529,-21.5707 567.4305,-31.077 572.3378,-26.0851"/>
</g>
<!-- Node29 -->
<g id="node30" class="node">
<title>Node29</title>
<polygon fill="#ffffff" stroke="#bfbfbf" points="590.5,-.5 590.5,-21.5 631.5,-21.5 631.5,-.5 590.5,-.5"/>
<text text-anchor="middle" x="611" y="-7.9" font-family="Helvetica,sans-Serif" font-size="12.00" fill="#000000">vector</text>
</g>
<!-- Node18&#45;&gt;Node29 -->
<g id="edge31" class="edge">
<title>Node18&#45;&gt;Node29</title>
<path fill="none" stroke="#191970" d="M611,-58.3619C611,-50.9219 611,-40.7427 611,-31.7276"/>
<polygon fill="#191970" stroke="#191970" points="614.5001,-31.5706 611,-21.5707 607.5001,-31.5707 614.5001,-31.5706"/>
</g>
<!-- Node30&#45;&gt;Node17 -->
<g id="edge34" class="edge">
<title>Node30&#45;&gt;Node17</title>
<path fill="none" stroke="#191970" d="M1667.6515,-184.1127C1568.2588,-168.2304 1330.8703,-128.3267 1135,-80 1068.741,-63.6521 993.1658,-39.7093 947.8169,-24.756"/>
<polygon fill="#191970" stroke="#191970" points="948.6567,-21.3472 938.0634,-21.5247 946.4552,-27.9921 948.6567,-21.3472"/>
</g>
<!-- Node31 -->
<g id="node32" class="node">
<title>Node31</title>
<g id="a_node32"><a xlink:href="../../d6/d01/base__timer_8hpp.html" target="_top" xlink:title="timemory/base_timer.hpp">
<polygon fill="#ffffff" stroke="#000000" points="1656,-116.5 1656,-137.5 1774,-137.5 1774,-116.5 1656,-116.5"/>
<text text-anchor="middle" x="1715" y="-123.9" font-family="Helvetica,sans-Serif" font-size="12.00" fill="#000000">timemory/base_timer.hpp</text>
</a>
</g>
</g>
<!-- Node30&#45;&gt;Node31 -->
<g id="edge35" class="edge">
<title>Node30&#45;&gt;Node31</title>
<path fill="none" stroke="#191970" d="M1715,-180.8491C1715,-171.9397 1715,-158.9599 1715,-147.9761"/>
<polygon fill="#191970" stroke="#191970" points="1718.5001,-147.8822 1715,-137.8823 1711.5001,-147.8823 1718.5001,-147.8822"/>
</g>
<!-- Node31&#45;&gt;Node3 -->
<g id="edge76" class="edge">
<title>Node31&#45;&gt;Node3</title>
<path fill="none" stroke="#191970" d="M1655.9012,-124.4958C1550.1921,-119.5159 1321.9242,-106.49 1131,-80 1002.7207,-62.2017 967.3296,-58.7217 838.3664,-21.7456"/>
<polygon fill="#191970" stroke="#191970" points="839.0838,-18.31 828.5058,-18.9059 837.1466,-25.0366 839.0838,-18.31"/>
</g>
<!-- Node31&#45;&gt;Node7 -->
<g id="edge78" class="edge">
<title>Node31&#45;&gt;Node7</title>
<path fill="none" stroke="#191970" d="M1667.9766,-116.495C1643.2128,-109.2525 1613.4194,-97.6731 1591,-80 1574.286,-66.8244 1561.283,-46.0629 1553.2326,-30.7523"/>
<polygon fill="#191970" stroke="#191970" points="1556.2675,-28.9954 1548.6683,-21.6127 1550.005,-32.1229 1556.2675,-28.9954"/>
</g>
<!-- Node31&#45;&gt;Node8 -->
<g id="edge82" class="edge">
<title>Node31&#45;&gt;Node8</title>
<path fill="none" stroke="#191970" d="M1738.4157,-116.4192C1769.4395,-102.5119 1825.9689,-77.5568 1875,-58 1904.3115,-46.3086 1937.8041,-34.0491 1963.1755,-24.9832"/>
<polygon fill="#191970" stroke="#191970" points="1964.5734,-28.2008 1972.8211,-21.5505 1962.2264,-21.606 1964.5734,-28.2008"/>
</g>
<!-- Node31&#45;&gt;Node9 -->
<g id="edge79" class="edge">
<title>Node31&#45;&gt;Node9</title>
<path fill="none" stroke="#191970" d="M1726.4177,-116.4423C1742.0921,-102.2307 1771.4723,-76.5879 1799,-58 1816.4457,-46.2199 1837.115,-34.8488 1853.8176,-26.2426"/>
<polygon fill="#191970" stroke="#191970" points="1855.8052,-29.159 1863.1391,-21.5128 1852.6377,-22.9166 1855.8052,-29.159"/>
</g>
<!-- Node31&#45;&gt;Node11 -->
<g id="edge81" class="edge">
<title>Node31&#45;&gt;Node11</title>
<path fill="none" stroke="#191970" d="M1749.6907,-116.4831C1795.6178,-102.6457 1879.1809,-77.767 1951,-58 1994.5712,-46.0078 2044.2597,-33.2367 2080.6976,-24.0386"/>
<polygon fill="#191970" stroke="#191970" points="2081.7653,-27.3791 2090.6075,-21.5426 2080.0555,-20.5911 2081.7653,-27.3791"/>
</g>
<!-- Node31&#45;&gt;Node17 -->
<g id="edge36" class="edge">
<title>Node31&#45;&gt;Node17</title>
<path fill="none" stroke="#191970" d="M1655.7588,-123.5464C1538.8297,-116.4155 1282.2294,-99.1218 1196,-80 1167.8631,-73.7605 1162.7397,-65.8182 1135,-58 1082.7416,-43.2715 1022.5437,-31.0582 977.1299,-22.7763"/>
<polygon fill="#191970" stroke="#191970" points="977.5519,-19.296 967.0894,-20.9652 976.3093,-26.1848 977.5519,-19.296"/>
</g>
<!-- Node32 -->
<g id="node33" class="node">
<title>Node32</title>
<g id="a_node33"><a xlink:href="../../d8/d4e/base__clock_8hpp.html" target="_top" xlink:title="timemory/base_clock.hpp">
<polygon fill="#ffffff" stroke="#000000" points="1204.5,-58.5 1204.5,-79.5 1323.5,-79.5 1323.5,-58.5 1204.5,-58.5"/>
<text text-anchor="middle" x="1264" y="-65.9" font-family="Helvetica,sans-Serif" font-size="12.00" fill="#000000">timemory/base_clock.hpp</text>
</a>
</g>
</g>
<!-- Node31&#45;&gt;Node32 -->
<g id="edge37" class="edge">
<title>Node31&#45;&gt;Node32</title>
<path fill="none" stroke="#191970" d="M1655.5759,-119.3579C1572.5164,-108.6762 1422.0025,-89.3196 1333.739,-77.9687"/>
<polygon fill="#191970" stroke="#191970" points="1333.9205,-74.4633 1323.5557,-76.6591 1333.0276,-81.4061 1333.9205,-74.4633"/>
</g>
<!-- Node41 -->
<g id="node42" class="node">
<title>Node41</title>
<g id="a_node42"><a xlink:href="../../d9/dd2/rss_8hpp.html" target="_top" xlink:title="timemory/rss.hpp">
<polygon fill="#ffffff" stroke="#000000" points="1661,-58.5 1661,-79.5 1747,-79.5 1747,-58.5 1661,-58.5"/>
<text text-anchor="middle" x="1704" y="-65.9" font-family="Helvetica,sans-Serif" font-size="12.00" fill="#000000">timemory/rss.hpp</text>
</a>
</g>
</g>
<!-- Node31&#45;&gt;Node41 -->
<g id="edge59" class="edge">
<title>Node31&#45;&gt;Node41</title>
<path fill="none" stroke="#191970" d="M1712.9824,-116.3619C1711.5559,-108.8401 1709.5984,-98.5187 1707.8748,-89.4308"/>
<polygon fill="#191970" stroke="#191970" points="1711.3069,-88.7433 1706.0048,-79.5707 1704.4295,-90.0477 1711.3069,-88.7433"/>
</g>
<!-- Node43 -->
<g id="node44" class="node">
<title>Node43</title>
<polygon fill="#ffffff" stroke="#bfbfbf" points="2207.5,-.5 2207.5,-21.5 2254.5,-21.5 2254.5,-.5 2207.5,-.5"/>
<text text-anchor="middle" x="2231" y="-7.9" font-family="Helvetica,sans-Serif" font-size="12.00" fill="#000000">fstream</text>
</g>
<!-- Node31&#45;&gt;Node43 -->
<g id="edge75" class="edge">
<title>Node31&#45;&gt;Node43</title>
<path fill="none" stroke="#191970" d="M1773.2104,-116.4269C1816.5511,-108.022 1876.964,-95.1786 1929,-80 1956.2664,-72.0465 1961.5563,-65.3186 1989,-58 2077.4592,-34.41 2105.4107,-44.7199 2197.6297,-22.0554"/>
<polygon fill="#191970" stroke="#191970" points="2198.5228,-25.4398 2207.3635,-19.6009 2196.8112,-18.6523 2198.5228,-25.4398"/>
</g>
<!-- Node45 -->
<g id="node46" class="node">
<title>Node45</title>
<polygon fill="#ffffff" stroke="#bfbfbf" points="2272.5,-.5 2272.5,-21.5 2363.5,-21.5 2363.5,-.5 2272.5,-.5"/>
<text text-anchor="middle" x="2318" y="-7.9" font-family="Helvetica,sans-Serif" font-size="12.00" fill="#000000">cereal/macros.hpp</text>
</g>
<!-- Node31&#45;&gt;Node45 -->
<g id="edge80" class="edge">
<title>Node31&#45;&gt;Node45</title>
<path fill="none" stroke="#191970" d="M1774.2287,-116.4974C1826.5551,-107.1502 1904.9098,-92.9867 1973,-80 2099.3794,-55.8959 2133.0921,-48.4146 2262.4439,-22.311"/>
<polygon fill="#191970" stroke="#191970" points="2263.2269,-25.7236 2272.3376,-20.3157 2261.8431,-18.8617 2263.2269,-25.7236"/>
</g>
<!-- Node46 -->
<g id="node47" class="node">
<title>Node46</title>
<polygon fill="#ffffff" stroke="#bfbfbf" points="2382,-.5 2382,-21.5 2492,-21.5 2492,-.5 2382,-.5"/>
<text text-anchor="middle" x="2437" y="-7.9" font-family="Helvetica,sans-Serif" font-size="12.00" fill="#000000">cereal/types/vector.hpp</text>
</g>
<!-- Node31&#45;&gt;Node46 -->
<g id="edge83" class="edge">
<title>Node31&#45;&gt;Node46</title>
<path fill="none" stroke="#191970" d="M1774.1544,-119.0447C1839.7147,-110.1005 1948.542,-94.8757 2042,-80 2158.2932,-61.4896 2293.3619,-37.3153 2371.6193,-23.0438"/>
<polygon fill="#191970" stroke="#191970" points="2372.6012,-26.4224 2381.8097,-21.1828 2371.3436,-19.5363 2372.6012,-26.4224"/>
</g>
<!-- Node47 -->
<g id="node48" class="node">
<title>Node47</title>
<polygon fill="#ffffff" stroke="#bfbfbf" points="1599.5,-58.5 1599.5,-79.5 1642.5,-79.5 1642.5,-58.5 1599.5,-58.5"/>
<text text-anchor="middle" x="1621" y="-65.9" font-family="Helvetica,sans-Serif" font-size="12.00" fill="#000000">atomic</text>
</g>
<!-- Node31&#45;&gt;Node47 -->
<g id="edge77" class="edge">
<title>Node31&#45;&gt;Node47</title>
<path fill="none" stroke="#191970" d="M1697.759,-116.3619C1683.4484,-107.532 1662.885,-94.844 1646.6432,-84.8224"/>
<polygon fill="#191970" stroke="#191970" points="1648.48,-81.8431 1638.1317,-79.5707 1644.8042,-87.8004 1648.48,-81.8431"/>
</g>
<!-- Node32&#45;&gt;Node1 -->
<g id="edge46" class="edge">
<title>Node32&#45;&gt;Node1</title>
<path fill="none" stroke="#191970" d="M1204.168,-67.723C1013.8549,-63.4465 423.0245,-48.4601 210.1586,-21.8991"/>
<polygon fill="#191970" stroke="#191970" points="210.3744,-18.3979 200.0077,-20.5848 209.4755,-25.3399 210.3744,-18.3979"/>
</g>
<!-- Node32&#45;&gt;Node5 -->
<g id="edge45" class="edge">
<title>Node32&#45;&gt;Node5</title>
<path fill="none" stroke="#191970" d="M1204.4163,-68.6416C1021.3291,-67.1612 467.8646,-59.7617 269.685,-21.7484"/>
<polygon fill="#191970" stroke="#191970" points="270.1672,-18.2755 259.6738,-19.7377 268.7888,-25.1384 270.1672,-18.2755"/>
</g>
<!-- Node32&#45;&gt;Node7 -->
<g id="edge54" class="edge">
<title>Node32&#45;&gt;Node7</title>
<path fill="none" stroke="#191970" d="M1315.6304,-58.4362C1359.5953,-49.4228 1424.7272,-36.0278 1490.7081,-22.2631"/>
<polygon fill="#191970" stroke="#191970" points="1491.7997,-25.6107 1500.8734,-20.1409 1490.3691,-18.7584 1491.7997,-25.6107"/>
</g>
<!-- Node32&#45;&gt;Node8 -->
<g id="edge56" class="edge">
<title>Node32&#45;&gt;Node8</title>
<path fill="none" stroke="#191970" d="M1323.7851,-66.8602C1440.0963,-62.257 1705.0976,-49.6159 1937.8833,-22.0318"/>
<polygon fill="#191970" stroke="#191970" points="1938.3804,-25.4973 1947.8937,-20.8339 1937.5486,-18.5469 1938.3804,-25.4973"/>
</g>
<!-- Node32&#45;&gt;Node9 -->
<g id="edge57" class="edge">
<title>Node32&#45;&gt;Node9</title>
<path fill="none" stroke="#191970" d="M1323.5541,-66.4679C1425.458,-61.611 1639.9362,-49.1065 1830.0669,-22.1495"/>
<polygon fill="#191970" stroke="#191970" points="1830.847,-25.5735 1840.2485,-20.6886 1829.8528,-18.6444 1830.847,-25.5735"/>
</g>
<!-- Node32&#45;&gt;Node11 -->
<g id="edge55" class="edge">
<title>Node32&#45;&gt;Node11</title>
<path fill="none" stroke="#191970" d="M1323.6196,-67.6848C1455.5634,-64.3041 1782.3635,-53.3451 2066.0974,-21.9906"/>
<polygon fill="#191970" stroke="#191970" points="2066.6219,-25.4539 2076.1722,-20.8666 2065.8457,-18.4971 2066.6219,-25.4539"/>
</g>
<!-- Node32&#45;&gt;Node17 -->
<g id="edge58" class="edge">
<title>Node32&#45;&gt;Node17</title>
<path fill="none" stroke="#191970" d="M1204.2462,-59.2921C1141.6582,-49.1237 1043.4237,-33.1641 977.1859,-22.4027"/>
<polygon fill="#191970" stroke="#191970" points="977.679,-18.937 967.2471,-20.788 976.5564,-25.8465 977.679,-18.937"/>
</g>
<!-- Node32&#45;&gt;Node19 -->
<g id="edge40" class="edge">
<title>Node32&#45;&gt;Node19</title>
<path fill="none" stroke="#191970" d="M1277.7562,-58.3619C1288.7512,-49.859 1304.3726,-37.7785 1317.0864,-27.9466"/>
<polygon fill="#191970" stroke="#191970" points="1319.5616,-30.4569 1325.3311,-21.5707 1315.2794,-24.9195 1319.5616,-30.4569"/>
</g>
<!-- Node32&#45;&gt;Node22 -->
<g id="edge42" class="edge">
<title>Node32&#45;&gt;Node22</title>
<path fill="none" stroke="#191970" d="M1204.3909,-65.6886C1084.8098,-58.7715 818.4364,-41.9136 708.5345,-21.626"/>
<polygon fill="#191970" stroke="#191970" points="709.1924,-18.1884 698.7083,-19.7161 707.8567,-25.0598 709.1924,-18.1884"/>
</g>
<!-- Node32&#45;&gt;Node23 -->
<g id="edge41" class="edge">
<title>Node32&#45;&gt;Node23</title>
<path fill="none" stroke="#191970" d="M1265.2839,-58.3619C1266.1818,-50.9219 1267.4104,-40.7427 1268.4984,-31.7276"/>
<polygon fill="#191970" stroke="#191970" points="1272.0007,-31.918 1269.7242,-21.5707 1265.0512,-31.0792 1272.0007,-31.918"/>
</g>
<!-- Node32&#45;&gt;Node26 -->
<g id="edge43" class="edge">
<title>Node32&#45;&gt;Node26</title>
<path fill="none" stroke="#191970" d="M1204.359,-66.8776C1114.5027,-62.8722 939.0788,-51.9112 781.6045,-21.7861"/>
<polygon fill="#191970" stroke="#191970" points="782.2219,-18.3407 771.7378,-19.8686 780.8864,-25.2121 782.2219,-18.3407"/>
</g>
<!-- Node32&#45;&gt;Node28 -->
<g id="edge47" class="edge">
<title>Node32&#45;&gt;Node28</title>
<path fill="none" stroke="#191970" d="M1204.2476,-67.1365C1064.2454,-62.4175 717.2824,-48.5863 582.7596,-21.8014"/>
<polygon fill="#191970" stroke="#191970" points="583.1922,-18.3158 572.6858,-19.6815 581.7507,-25.1658 583.1922,-18.3158"/>
</g>
<!-- Node32&#45;&gt;Node29 -->
<g id="edge44" class="edge">
<title>Node32&#45;&gt;Node29</title>
<path fill="none" stroke="#191970" d="M1204.4763,-66.6962C1073.7455,-61.2928 764.0657,-46.5285 641.5687,-21.7759"/>
<polygon fill="#191970" stroke="#191970" points="642.2002,-18.3319 631.6895,-19.6647 640.7372,-25.1773 642.2002,-18.3319"/>
</g>
<!-- Node33 -->
<g id="node34" class="node">
<title>Node33</title>
<polygon fill="#ffffff" stroke="#bfbfbf" points="1605,-.5 1605,-21.5 1653,-21.5 1653,-.5 1605,-.5"/>
<text text-anchor="middle" x="1629" y="-7.9" font-family="Helvetica,sans-Serif" font-size="12.00" fill="#000000">unistd.h</text>
</g>
<!-- Node32&#45;&gt;Node33 -->
<g id="edge38" class="edge">
<title>Node32&#45;&gt;Node33</title>
<path fill="none" stroke="#191970" d="M1323.6747,-63.838C1388.4446,-57.5024 1494.9394,-44.952 1595.0196,-21.8991"/>
<polygon fill="#191970" stroke="#191970" points="1596.057,-25.2509 1604.9944,-19.561 1594.4595,-18.4356 1596.057,-25.2509"/>
</g>
<!-- Node34 -->
<g id="node35" class="node">
<title>Node34</title>
<polygon fill="#ffffff" stroke="#bfbfbf" points="1061,-.5 1061,-21.5 1123,-21.5 1123,-.5 1061,-.5"/>
<text text-anchor="middle" x="1092" y="-7.9" font-family="Helvetica,sans-Serif" font-size="12.00" fill="#000000">sys/times.h</text>
</g>
<!-- Node32&#45;&gt;Node34 -->
<g id="edge39" class="edge">
<title>Node32&#45;&gt;Node34</title>
<path fill="none" stroke="#191970" d="M1232.8521,-58.4966C1204.8114,-49.0411 1163.4182,-35.0829 1132.7545,-24.7428"/>
<polygon fill="#191970" stroke="#191970" points="1133.8005,-21.4019 1123.2063,-21.5231 1131.5637,-28.035 1133.8005,-21.4019"/>
</g>
<!-- Node35 -->
<g id="node36" class="node">
<title>Node35</title>
<polygon fill="#ffffff" stroke="#bfbfbf" points="1141,-.5 1141,-21.5 1177,-21.5 1177,-.5 1141,-.5"/>
<text text-anchor="middle" x="1159" y="-7.9" font-family="Helvetica,sans-Serif" font-size="12.00" fill="#000000">tuple</text>
</g>
<!-- Node32&#45;&gt;Node35 -->
<g id="edge48" class="edge">
<title>Node32&#45;&gt;Node35</title>
<path fill="none" stroke="#191970" d="M1244.7414,-58.3619C1228.2303,-49.2415 1204.2675,-36.0049 1185.8695,-25.8422"/>
<polygon fill="#191970" stroke="#191970" points="1187.5294,-22.7607 1177.0837,-20.9891 1184.1448,-28.888 1187.5294,-22.7607"/>
</g>
<!-- Node36 -->
<g id="node37" class="node">
<title>Node36</title>
<polygon fill="#ffffff" stroke="#bfbfbf" points="1195,-.5 1195,-21.5 1229,-21.5 1229,-.5 1195,-.5"/>
<text text-anchor="middle" x="1212" y="-7.9" font-family="Helvetica,sans-Serif" font-size="12.00" fill="#000000">ratio</text>
</g>
<!-- Node32&#45;&gt;Node36 -->
<g id="edge49" class="edge">
<title>Node32&#45;&gt;Node36</title>
<path fill="none" stroke="#191970" d="M1254.4624,-58.3619C1247.1323,-50.1861 1236.8367,-38.7025 1228.2192,-29.0907"/>
<polygon fill="#191970" stroke="#191970" points="1230.7586,-26.68 1221.4771,-21.5707 1225.5466,-31.3528 1230.7586,-26.68"/>
</g>
<!-- Node37 -->
<g id="node38" class="node">
<title>Node37</title>
<polygon fill="#ffffff" stroke="#bfbfbf" points="1383,-.5 1383,-21.5 1427,-21.5 1427,-.5 1383,-.5"/>
<text text-anchor="middle" x="1405" y="-7.9" font-family="Helvetica,sans-Serif" font-size="12.00" fill="#000000">chrono</text>
</g>
<!-- Node32&#45;&gt;Node37 -->
<g id="edge50" class="edge">
<title>Node32&#45;&gt;Node37</title>
<path fill="none" stroke="#191970" d="M1289.534,-58.4966C1313.0742,-48.8134 1348.0937,-34.4082 1373.3905,-24.0025"/>
<polygon fill="#191970" stroke="#191970" points="1374.9843,-27.1315 1382.9009,-20.0904 1372.3213,-20.6578 1374.9843,-27.1315"/>
</g>
<!-- Node38 -->
<g id="node39" class="node">
<title>Node38</title>
<polygon fill="#ffffff" stroke="#bfbfbf" points="1445,-.5 1445,-21.5 1483,-21.5 1483,-.5 1445,-.5"/>
<text text-anchor="middle" x="1464" y="-7.9" font-family="Helvetica,sans-Serif" font-size="12.00" fill="#000000">ctime</text>
</g>
<!-- Node32&#45;&gt;Node38 -->
<g id="edge51" class="edge">
<title>Node32&#45;&gt;Node38</title>
<path fill="none" stroke="#191970" d="M1307.5039,-58.4918C1340.3223,-50.2557 1386.5846,-37.9909 1435.0918,-22.0798"/>
<polygon fill="#191970" stroke="#191970" points="1436.4327,-25.3225 1444.8199,-18.8491 1434.2264,-18.6793 1436.4327,-25.3225"/>
</g>
<!-- Node39 -->
<g id="node40" class="node">
<title>Node39</title>
<polygon fill="#ffffff" stroke="#bfbfbf" points="1671.5,-.5 1671.5,-21.5 1714.5,-21.5 1714.5,-.5 1671.5,-.5"/>
<text text-anchor="middle" x="1693" y="-7.9" font-family="Helvetica,sans-Serif" font-size="12.00" fill="#000000">cstdint</text>
</g>
<!-- Node32&#45;&gt;Node39 -->
<g id="edge52" class="edge">
<title>Node32&#45;&gt;Node39</title>
<path fill="none" stroke="#191970" d="M1323.7178,-66.1116C1400.1303,-61.4973 1536.5035,-50.171 1661.0724,-21.774"/>
<polygon fill="#191970" stroke="#191970" points="1662.2169,-25.1014 1671.1655,-19.4291 1660.6328,-18.283 1662.2169,-25.1014"/>
</g>
<!-- Node40 -->
<g id="node41" class="node">
<title>Node40</title>
<polygon fill="#ffffff" stroke="#bfbfbf" points="985,-.5 985,-21.5 1043,-21.5 1043,-.5 985,-.5"/>
<text text-anchor="middle" x="1014" y="-7.9" font-family="Helvetica,sans-Serif" font-size="12.00" fill="#000000">type_traits</text>
</g>
<!-- Node32&#45;&gt;Node40 -->
<g id="edge53" class="edge">
<title>Node32&#45;&gt;Node40</title>
<path fill="none" stroke="#191970" d="M1211.942,-58.4234C1171.1622,-49.9194 1112.7963,-37.2701 1053.3443,-22.2442"/>
<polygon fill="#191970" stroke="#191970" points="1053.9625,-18.79 1043.4079,-19.713 1052.2344,-25.5734 1053.9625,-18.79"/>
</g>
<!-- Node41&#45;&gt;Node3 -->
<g id="edge64" class="edge">
<title>Node41&#45;&gt;Node3</title>
<path fill="none" stroke="#191970" d="M1660.9626,-59.3272C1657.9388,-58.8229 1654.9293,-58.372 1652,-58 1295.9996,-12.7852 1194.4977,-93.6555 838.5181,-21.4431"/>
<polygon fill="#191970" stroke="#191970" points="839.2192,-18.0141 828.7194,-19.4299 837.8104,-24.8709 839.2192,-18.0141"/>
</g>
<!-- Node41&#45;&gt;Node7 -->
<g id="edge68" class="edge">
<title>Node41&#45;&gt;Node7</title>
<path fill="none" stroke="#191970" d="M1675.0252,-58.4966C1649.1667,-49.1229 1611.1013,-35.3242 1582.6543,-25.0122"/>
<polygon fill="#191970" stroke="#191970" points="1583.6233,-21.6406 1573.0291,-21.5231 1581.2377,-28.2216 1583.6233,-21.6406"/>
</g>
<!-- Node41&#45;&gt;Node8 -->
<g id="edge72" class="edge">
<title>Node41&#45;&gt;Node8</title>
<path fill="none" stroke="#191970" d="M1747.1578,-60.6282C1797.3511,-50.8918 1880.7028,-34.7232 1938.5689,-23.4983"/>
<polygon fill="#191970" stroke="#191970" points="1939.5532,-26.8727 1948.7037,-21.5324 1938.2202,-20.0008 1939.5532,-26.8727"/>
</g>
<!-- Node41&#45;&gt;Node9 -->
<g id="edge69" class="edge">
<title>Node41&#45;&gt;Node9</title>
<path fill="none" stroke="#191970" d="M1736.7777,-58.4966C1766.4134,-49.0001 1810.2222,-34.9619 1842.5314,-24.6087"/>
<polygon fill="#191970" stroke="#191970" points="1843.7058,-27.9078 1852.1608,-21.5231 1841.5697,-21.2416 1843.7058,-27.9078"/>
</g>
<!-- Node41&#45;&gt;Node11 -->
<g id="edge71" class="edge">
<title>Node41&#45;&gt;Node11</title>
<path fill="none" stroke="#191970" d="M1747.0968,-63.9347C1813.361,-56.0336 1944.498,-39.9516 2066.5972,-22.0173"/>
<polygon fill="#191970" stroke="#191970" points="2067.1139,-25.479 2076.4956,-20.5563 2066.0917,-18.554 2067.1139,-25.479"/>
</g>
<!-- Node41&#45;&gt;Node17 -->
<g id="edge74" class="edge">
<title>Node41&#45;&gt;Node17</title>
<path fill="none" stroke="#191970" d="M1660.9587,-59.3575C1657.9358,-58.846 1654.9276,-58.3852 1652,-58 1357.0513,-19.1888 1276.9838,-52.9507 977.4531,-22.0498"/>
<polygon fill="#191970" stroke="#191970" points="977.4716,-18.5327 967.1613,-20.9717 976.7422,-25.4946 977.4716,-18.5327"/>
</g>
<!-- Node41&#45;&gt;Node19 -->
<g id="edge62" class="edge">
<title>Node41&#45;&gt;Node19</title>
<path fill="none" stroke="#191970" d="M1660.9204,-59.6109C1657.9066,-59.0391 1654.9109,-58.4956 1652,-58 1532.2983,-37.6221 1497.4339,-48.208 1374.6361,-21.822"/>
<polygon fill="#191970" stroke="#191970" points="1375.3735,-18.4007 1364.8566,-19.6833 1373.878,-25.239 1375.3735,-18.4007"/>
</g>
<!-- Node41&#45;&gt;Node23 -->
<g id="edge65" class="edge">
<title>Node41&#45;&gt;Node23</title>
<path fill="none" stroke="#191970" d="M1660.9344,-59.5259C1657.9172,-58.9743 1654.917,-58.4585 1652,-58 1502.1217,-34.4396 1458.565,-53.1954 1305.5853,-21.701"/>
<polygon fill="#191970" stroke="#191970" points="1305.8539,-18.1812 1295.3483,-19.5528 1304.4163,-25.032 1305.8539,-18.1812"/>
</g>
<!-- Node41&#45;&gt;Node33 -->
<g id="edge60" class="edge">
<title>Node41&#45;&gt;Node33</title>
<path fill="none" stroke="#191970" d="M1690.2438,-58.3619C1679.2488,-49.859 1663.6274,-37.7785 1650.9136,-27.9466"/>
<polygon fill="#191970" stroke="#191970" points="1652.7206,-24.9195 1642.6689,-21.5707 1648.4384,-30.4569 1652.7206,-24.9195"/>
</g>
<!-- Node41&#45;&gt;Node39 -->
<g id="edge67" class="edge">
<title>Node41&#45;&gt;Node39</title>
<path fill="none" stroke="#191970" d="M1701.9824,-58.3619C1700.5559,-50.8401 1698.5984,-40.5187 1696.8748,-31.4308"/>
<polygon fill="#191970" stroke="#191970" points="1700.3069,-30.7433 1695.0048,-21.5707 1693.4295,-32.0477 1700.3069,-30.7433"/>
</g>
<!-- Node42 -->
<g id="node43" class="node">
<title>Node42</title>
<polygon fill="#ffffff" stroke="#bfbfbf" points="1793.5,-.5 1793.5,-21.5 1822.5,-21.5 1822.5,-.5 1793.5,-.5"/>
<text text-anchor="middle" x="1808" y="-7.9" font-family="Helvetica,sans-Serif" font-size="12.00" fill="#000000">ios</text>
</g>
<!-- Node41&#45;&gt;Node42 -->
<g id="edge61" class="edge">
<title>Node41&#45;&gt;Node42</title>
<path fill="none" stroke="#191970" d="M1723.0752,-58.3619C1740.3531,-48.7262 1765.8693,-34.496 1784.4202,-24.1502"/>
<polygon fill="#191970" stroke="#191970" points="1786.3768,-27.0666 1793.4057,-19.1391 1782.9673,-20.9531 1786.3768,-27.0666"/>
</g>
<!-- Node41&#45;&gt;Node43 -->
<g id="edge63" class="edge">
<title>Node41&#45;&gt;Node43</title>
<path fill="none" stroke="#191970" d="M1747.2293,-68.3158C1832.2487,-66.237 2027.0735,-57.8471 2197.5141,-21.9281"/>
<polygon fill="#191970" stroke="#191970" points="2198.3682,-25.3246 2207.4116,-19.805 2196.8999,-18.4803 2198.3682,-25.3246"/>
</g>
<!-- Node44 -->
<g id="node45" class="node">
<title>Node44</title>
<polygon fill="#ffffff" stroke="#bfbfbf" points="1732.5,-.5 1732.5,-21.5 1775.5,-21.5 1775.5,-.5 1732.5,-.5"/>
<text text-anchor="middle" x="1754" y="-7.9" font-family="Helvetica,sans-Serif" font-size="12.00" fill="#000000">stdio.h</text>
</g>
<!-- Node41&#45;&gt;Node44 -->
<g id="edge66" class="edge">
<title>Node41&#45;&gt;Node44</title>
<path fill="none" stroke="#191970" d="M1713.1708,-58.3619C1720.1484,-50.2678 1729.9208,-38.9318 1738.1555,-29.3796"/>
<polygon fill="#191970" stroke="#191970" points="1741.0089,-31.4301 1744.8874,-21.5707 1735.707,-26.8595 1741.0089,-31.4301"/>
</g>
<!-- Node41&#45;&gt;Node45 -->
<g id="edge70" class="edge">
<title>Node41&#45;&gt;Node45</title>
<path fill="none" stroke="#191970" d="M1747.0494,-67.1099C1839.63,-62.6745 2064.6585,-49.9073 2262.4093,-22.1012"/>
<polygon fill="#191970" stroke="#191970" points="2262.993,-25.5535 2272.4004,-20.6801 2262.0072,-18.6232 2262.993,-25.5535"/>
</g>
<!-- Node41&#45;&gt;Node46 -->
<g id="edge73" class="edge">
<title>Node41&#45;&gt;Node46</title>
<path fill="none" stroke="#191970" d="M1747.189,-67.4647C1852.3199,-63.4064 2130.0373,-50.7581 2371.8587,-22.0354"/>
<polygon fill="#191970" stroke="#191970" points="2372.3815,-25.4978 2381.8934,-20.8317 2371.5477,-18.5477 2372.3815,-25.4978"/>
</g>
</g>
</svg>
