<?xml version="1.0" encoding="UTF-8" standalone="no"?>
<!DOCTYPE svg PUBLIC "-//W3C//DTD SVG 1.1//EN"
 "http://www.w3.org/Graphics/SVG/1.1/DTD/svg11.dtd">
<!-- Generated by graphviz version 2.40.1 (20161225.0304)
 -->
<!-- Title: tim::signal_settings Pages: 1 -->
<svg width="306pt" height="493pt"
 viewBox="0.00 0.00 306.00 493.00" xmlns="http://www.w3.org/2000/svg" xmlns:xlink="http://www.w3.org/1999/xlink">
<g id="graph0" class="graph" transform="scale(1 1) rotate(0) translate(4 489)">
<title>tim::signal_settings</title>
<polygon fill="#ffffff" stroke="transparent" points="-4,4 -4,-489 302,-489 302,4 -4,4"/>
<!-- Node1 -->
<g id="node1" class="node">
<title>Node1</title>
<polygon fill="#bfbfbf" stroke="#000000" points="98,-.5 98,-232.5 206,-232.5 206,-.5 98,-.5"/>
<text text-anchor="middle" x="152" y="-218.9" font-family="Helvetica,sans-Serif" font-size="12.00" fill="#000000">tim::signal_settings</text>
<polyline fill="none" stroke="#000000" points="98,-211.5 206,-211.5 "/>
<text text-anchor="middle" x="152" y="-197.9" font-family="Helvetica,sans-Serif" font-size="12.00" fill="#000000"> </text>
<polyline fill="none" stroke="#000000" points="98,-190.5 206,-190.5 "/>
<text text-anchor="start" x="106" y="-176.9" font-family="Helvetica,sans-Serif" font-size="12.00" fill="#000000">+ is_active()</text>
<text text-anchor="start" x="106" y="-163.9" font-family="Helvetica,sans-Serif" font-size="12.00" fill="#000000">+ set_active()</text>
<text text-anchor="start" x="106" y="-150.9" font-family="Helvetica,sans-Serif" font-size="12.00" fill="#000000">+ enable()</text>
<text text-anchor="start" x="106" y="-137.9" font-family="Helvetica,sans-Serif" font-size="12.00" fill="#000000">+ disable()</text>
<text text-anchor="start" x="106" y="-124.9" font-family="Helvetica,sans-Serif" font-size="12.00" fill="#000000">+ str()</text>
<text text-anchor="start" x="106" y="-111.9" font-family="Helvetica,sans-Serif" font-size="12.00" fill="#000000">+ str()</text>
<text text-anchor="start" x="106" y="-98.9" font-family="Helvetica,sans-Serif" font-size="12.00" fill="#000000">+ check_environment()</text>
<text text-anchor="start" x="106" y="-85.9" font-family="Helvetica,sans-Serif" font-size="12.00" fill="#000000">+ set_exit_action()</text>
<text text-anchor="start" x="106" y="-72.9" font-family="Helvetica,sans-Serif" font-size="12.00" fill="#000000">+ exit_action()</text>
<text text-anchor="start" x="106" y="-59.9" font-family="Helvetica,sans-Serif" font-size="12.00" fill="#000000">+ enabled()</text>
<text text-anchor="start" x="106" y="-46.9" font-family="Helvetica,sans-Serif" font-size="12.00" fill="#000000">+ disabled()</text>
<text text-anchor="start" x="106" y="-33.9" font-family="Helvetica,sans-Serif" font-size="12.00" fill="#000000">+ get_enabled()</text>
<text text-anchor="start" x="106" y="-20.9" font-family="Helvetica,sans-Serif" font-size="12.00" fill="#000000">+ get_disabled()</text>
<text text-anchor="start" x="106" y="-7.9" font-family="Helvetica,sans-Serif" font-size="12.00" fill="#000000">+ get_default()</text>
</g>
<!-- Node2 -->
<g id="node2" class="node">
<title>Node2</title>
<polygon fill="#ffffff" stroke="#bfbfbf" points="0,-308.5 0,-371.5 108,-371.5 108,-308.5 0,-308.5"/>
<text text-anchor="middle" x="54" y="-357.9" font-family="Helvetica,sans-Serif" font-size="12.00" fill="#000000">static signal_function_t</text>
<polyline fill="none" stroke="#bfbfbf" points="0,-350.5 108,-350.5 "/>
<text text-anchor="middle" x="54" y="-336.9" font-family="Helvetica,sans-Serif" font-size="12.00" fill="#000000"> </text>
<polyline fill="none" stroke="#bfbfbf" points="0,-329.5 108,-329.5 "/>
<text text-anchor="middle" x="54" y="-315.9" font-family="Helvetica,sans-Serif" font-size="12.00" fill="#000000"> </text>
</g>
<!-- Node2&#45;&gt;Node1 -->
<g id="edge1" class="edge">
<title>Node2&#45;&gt;Node1</title>
<path fill="none" stroke="#404040" d="M58.2135,-308.3965C61.1478,-291.0586 65.8454,-269.408 73,-251 78.3413,-237.2573 84.984,-223.2765 92.1329,-209.7805"/>
<polygon fill="none" stroke="#404040" points="92.223,-209.6148 91.5779,-202.4326 97.9595,-199.0747 98.6046,-206.2569 92.223,-209.6148"/>
<text text-anchor="middle" x="110.5" y="-267.4" font-family="Helvetica,sans-Serif" font-size="12.00" fill="#000000"> &#45;signals_exit_func</text>
</g>
<!-- Node3 -->
<g id="node3" class="node">
<title>Node3</title>
<polygon fill="#ffffff" stroke="#bfbfbf" points="135,-308.5 135,-371.5 169,-371.5 169,-308.5 135,-308.5"/>
<text text-anchor="middle" x="152" y="-357.9" font-family="Helvetica,sans-Serif" font-size="12.00" fill="#000000">bool</text>
<polyline fill="none" stroke="#bfbfbf" points="135,-350.5 169,-350.5 "/>
<text text-anchor="middle" x="152" y="-336.9" font-family="Helvetica,sans-Serif" font-size="12.00" fill="#000000"> </text>
<polyline fill="none" stroke="#bfbfbf" points="135,-329.5 169,-329.5 "/>
<text text-anchor="middle" x="152" y="-315.9" font-family="Helvetica,sans-Serif" font-size="12.00" fill="#000000"> </text>
</g>
<!-- Node3&#45;&gt;Node1 -->
<g id="edge2" class="edge">
<title>Node3&#45;&gt;Node1</title>
<path fill="none" stroke="#404040" d="M152,-308.4519C152,-291.1586 152,-268.4493 152,-244.7271"/>
<polygon fill="none" stroke="#404040" points="152.0001,-244.6381 148,-238.6381 152,-232.6381 156,-238.6381 152.0001,-244.6381"/>
<text text-anchor="middle" x="183.5" y="-267.4" font-family="Helvetica,sans-Serif" font-size="12.00" fill="#000000"> &#45;signals_active</text>
</g>
<!-- Node4 -->
<g id="node4" class="node">
<title>Node4</title>
<g id="a_node4"><a xlink:title="STL class. ">
<polygon fill="#ffffff" stroke="#bfbfbf" points="204.5,-308.5 204.5,-371.5 271.5,-371.5 271.5,-308.5 204.5,-308.5"/>
<text text-anchor="middle" x="238" y="-357.9" font-family="Helvetica,sans-Serif" font-size="12.00" fill="#000000">std::set&lt; K &gt;</text>
<polyline fill="none" stroke="#bfbfbf" points="204.5,-350.5 271.5,-350.5 "/>
<text text-anchor="middle" x="238" y="-336.9" font-family="Helvetica,sans-Serif" font-size="12.00" fill="#000000"> </text>
<polyline fill="none" stroke="#bfbfbf" points="204.5,-329.5 271.5,-329.5 "/>
<text text-anchor="middle" x="238" y="-315.9" font-family="Helvetica,sans-Serif" font-size="12.00" fill="#000000"> </text>
</a>
</g>
</g>
<!-- Node4&#45;&gt;Node1 -->
<g id="edge3" class="edge">
<title>Node4&#45;&gt;Node1</title>
<path fill="none" stroke="#404040" d="M231.7822,-308.2385C228.0111,-291.0471 222.6419,-269.5852 216,-251 214.3112,-246.2744 212.5106,-241.4923 210.6249,-236.6895"/>
<polygon fill="none" stroke="#404040" points="210.5833,-236.5864 204.6252,-232.5243 206.0832,-225.4621 212.0414,-229.5242 210.5833,-236.5864"/>
<text text-anchor="middle" x="263" y="-280.4" font-family="Helvetica,sans-Serif" font-size="12.00" fill="#000000"> &#45;signals_default</text>
<text text-anchor="middle" x="263" y="-267.4" font-family="Helvetica,sans-Serif" font-size="12.00" fill="#000000">&#45;signals_enabled</text>
<text text-anchor="middle" x="263" y="-254.4" font-family="Helvetica,sans-Serif" font-size="12.00" fill="#000000">&#45;signals_disabled</text>
</g>
<!-- Node5 -->
<g id="node5" class="node">
<title>Node5</title>
<polygon fill="#ffffff" stroke="#bfbfbf" points="223.5,-421.5 223.5,-484.5 252.5,-484.5 252.5,-421.5 223.5,-421.5"/>
<text text-anchor="middle" x="238" y="-470.9" font-family="Helvetica,sans-Serif" font-size="12.00" fill="#000000">K</text>
<polyline fill="none" stroke="#bfbfbf" points="223.5,-463.5 252.5,-463.5 "/>
<text text-anchor="middle" x="238" y="-449.9" font-family="Helvetica,sans-Serif" font-size="12.00" fill="#000000"> </text>
<polyline fill="none" stroke="#bfbfbf" points="223.5,-442.5 252.5,-442.5 "/>
<text text-anchor="middle" x="238" y="-428.9" font-family="Helvetica,sans-Serif" font-size="12.00" fill="#000000"> </text>
</g>
<!-- Node5&#45;&gt;Node4 -->
<g id="edge4" class="edge">
<title>Node5&#45;&gt;Node4</title>
<path fill="none" stroke="#404040" d="M238,-421.2225C238,-409.5703 238,-396.1706 238,-383.6581"/>
<polygon fill="none" stroke="#404040" points="238.0001,-383.539 234,-377.539 238,-371.539 242,-377.539 238.0001,-383.539"/>
<text text-anchor="middle" x="251.5" y="-393.4" font-family="Helvetica,sans-Serif" font-size="12.00" fill="#000000"> +keys</text>
</g>
</g>
</svg>
