<?xml version="1.0" encoding="UTF-8" standalone="no"?>
<!DOCTYPE svg PUBLIC "-//W3C//DTD SVG 1.1//EN"
 "http://www.w3.org/Graphics/SVG/1.1/DTD/svg11.dtd">
<!-- Generated by graphviz version 2.40.1 (20161225.0304)
 -->
<!-- Title: tim::signal_settings Pages: 1 -->
<!--zoomable 493 -->
<svg id="main" version="1.1" xmlns="http://www.w3.org/2000/svg" xmlns:xlink="http://www.w3.org/1999/xlink" xml:space="preserve" onload="init(evt)">
<style type="text/css"><![CDATA[
.edge:hover path { stroke: red; }
.edge:hover polygon { stroke: red; fill: red; }
]]></style>
<script type="text/javascript"><![CDATA[
var edges = document.getElementsByTagName('g');
if (edges && edges.length) {
  for (var i=0;i<edges.length;i++) {
    if (edges[i].id.substr(0,4)=='edge') {
      edges[i].setAttribute('class','edge');
    }
  }
}
]]></script>
        <defs>
                <circle id="rim" cx="0" cy="0" r="7"/>
                <circle id="rim2" cx="0" cy="0" r="3.5"/>
                <g id="zoomPlus">
                        <use xlink:href="#rim" fill="#404040">
                                <set attributeName="fill" to="#808080" begin="zoomplus.mouseover" end="zoomplus.mouseout"/>
                        </use>
                        <path d="M-4,0h8M0,-4v8" fill="none" stroke="white" stroke-width="1.5" pointer-events="none"/>
                </g>
                <g id="zoomMin">
                        <use xlink:href="#rim" fill="#404040">
                                <set attributeName="fill" to="#808080" begin="zoomminus.mouseover" end="zoomminus.mouseout"/>
                        </use>
                        <path d="M-4,0h8" fill="none" stroke="white" stroke-width="1.5" pointer-events="none"/>
                </g>
                <g id="dirArrow">
                        <path fill="none" stroke="white" stroke-width="1.5" d="M0,-3.0v7 M-2.5,-0.5L0,-3.0L2.5,-0.5"/>
                </g>
               <g id="resetDef">
                       <use xlink:href="#rim2" fill="#404040">
                               <set attributeName="fill" to="#808080" begin="reset.mouseover" end="reset.mouseout"/>
                       </use>
               </g>
        </defs>

<script type="text/javascript">
var viewWidth = 306;
var viewHeight = 493;
var sectionId = 'dynsection-0';
</script>
<script xlink:href="../../svgpan.js"/>
<svg id="graph" class="graph">
<g id="viewport">
<title>tim::signal_settings</title>
<polygon fill="#ffffff" stroke="transparent" points="-4,4 -4,-489 302,-489 302,4 -4,4"/>
<!-- Node1 -->
<g id="node1" class="node">
<title>Node1</title>
<polygon fill="#bfbfbf" stroke="#000000" points="98,-.5 98,-232.5 206,-232.5 206,-.5 98,-.5"/>
<text text-anchor="middle" x="152" y="-218.9" font-family="Helvetica,sans-Serif" font-size="12.00" fill="#000000">tim::signal_settings</text>
<polyline fill="none" stroke="#000000" points="98,-211.5 206,-211.5 "/>
<text text-anchor="middle" x="152" y="-197.9" font-family="Helvetica,sans-Serif" font-size="12.00" fill="#000000"> </text>
<polyline fill="none" stroke="#000000" points="98,-190.5 206,-190.5 "/>
<text text-anchor="start" x="106" y="-176.9" font-family="Helvetica,sans-Serif" font-size="12.00" fill="#000000">+ is_active()</text>
<text text-anchor="start" x="106" y="-163.9" font-family="Helvetica,sans-Serif" font-size="12.00" fill="#000000">+ set_active()</text>
<text text-anchor="start" x="106" y="-150.9" font-family="Helvetica,sans-Serif" font-size="12.00" fill="#000000">+ enable()</text>
<text text-anchor="start" x="106" y="-137.9" font-family="Helvetica,sans-Serif" font-size="12.00" fill="#000000">+ disable()</text>
<text text-anchor="start" x="106" y="-124.9" font-family="Helvetica,sans-Serif" font-size="12.00" fill="#000000">+ str()</text>
<text text-anchor="start" x="106" y="-111.9" font-family="Helvetica,sans-Serif" font-size="12.00" fill="#000000">+ str()</text>
<text text-anchor="start" x="106" y="-98.9" font-family="Helvetica,sans-Serif" font-size="12.00" fill="#000000">+ check_environment()</text>
<text text-anchor="start" x="106" y="-85.9" font-family="Helvetica,sans-Serif" font-size="12.00" fill="#000000">+ set_exit_action()</text>
<text text-anchor="start" x="106" y="-72.9" font-family="Helvetica,sans-Serif" font-size="12.00" fill="#000000">+ exit_action()</text>
<text text-anchor="start" x="106" y="-59.9" font-family="Helvetica,sans-Serif" font-size="12.00" fill="#000000">+ enabled()</text>
<text text-anchor="start" x="106" y="-46.9" font-family="Helvetica,sans-Serif" font-size="12.00" fill="#000000">+ disabled()</text>
<text text-anchor="start" x="106" y="-33.9" font-family="Helvetica,sans-Serif" font-size="12.00" fill="#000000">+ get_enabled()</text>
<text text-anchor="start" x="106" y="-20.9" font-family="Helvetica,sans-Serif" font-size="12.00" fill="#000000">+ get_disabled()</text>
<text text-anchor="start" x="106" y="-7.9" font-family="Helvetica,sans-Serif" font-size="12.00" fill="#000000">+ get_default()</text>
</g>
<!-- Node2 -->
<g id="node2" class="node">
<title>Node2</title>
<polygon fill="#ffffff" stroke="#bfbfbf" points="0,-308.5 0,-371.5 108,-371.5 108,-308.5 0,-308.5"/>
<text text-anchor="middle" x="54" y="-357.9" font-family="Helvetica,sans-Serif" font-size="12.00" fill="#000000">static signal_function_t</text>
<polyline fill="none" stroke="#bfbfbf" points="0,-350.5 108,-350.5 "/>
<text text-anchor="middle" x="54" y="-336.9" font-family="Helvetica,sans-Serif" font-size="12.00" fill="#000000"> </text>
<polyline fill="none" stroke="#bfbfbf" points="0,-329.5 108,-329.5 "/>
<text text-anchor="middle" x="54" y="-315.9" font-family="Helvetica,sans-Serif" font-size="12.00" fill="#000000"> </text>
</g>
<!-- Node2&#45;&gt;Node1 -->
<g id="edge1" class="edge">
<title>Node2&#45;&gt;Node1</title>
<path fill="none" stroke="#404040" d="M58.2135,-308.3965C61.1478,-291.0586 65.8454,-269.408 73,-251 78.3413,-237.2573 84.984,-223.2765 92.1329,-209.7805"/>
<polygon fill="none" stroke="#404040" points="92.223,-209.6148 91.5779,-202.4326 97.9595,-199.0747 98.6046,-206.2569 92.223,-209.6148"/>
<text text-anchor="middle" x="110.5" y="-267.4" font-family="Helvetica,sans-Serif" font-size="12.00" fill="#000000"> &#45;signals_exit_func</text>
</g>
<!-- Node3 -->
<g id="node3" class="node">
<title>Node3</title>
<polygon fill="#ffffff" stroke="#bfbfbf" points="135,-308.5 135,-371.5 169,-371.5 169,-308.5 135,-308.5"/>
<text text-anchor="middle" x="152" y="-357.9" font-family="Helvetica,sans-Serif" font-size="12.00" fill="#000000">bool</text>
<polyline fill="none" stroke="#bfbfbf" points="135,-350.5 169,-350.5 "/>
<text text-anchor="middle" x="152" y="-336.9" font-family="Helvetica,sans-Serif" font-size="12.00" fill="#000000"> </text>
<polyline fill="none" stroke="#bfbfbf" points="135,-329.5 169,-329.5 "/>
<text text-anchor="middle" x="152" y="-315.9" font-family="Helvetica,sans-Serif" font-size="12.00" fill="#000000"> </text>
</g>
<!-- Node3&#45;&gt;Node1 -->
<g id="edge2" class="edge">
<title>Node3&#45;&gt;Node1</title>
<path fill="none" stroke="#404040" d="M152,-308.4519C152,-291.1586 152,-268.4493 152,-244.7271"/>
<polygon fill="none" stroke="#404040" points="152.0001,-244.6381 148,-238.6381 152,-232.6381 156,-238.6381 152.0001,-244.6381"/>
<text text-anchor="middle" x="183.5" y="-267.4" font-family="Helvetica,sans-Serif" font-size="12.00" fill="#000000"> &#45;signals_active</text>
</g>
<!-- Node4 -->
<g id="node4" class="node">
<title>Node4</title>
<g id="a_node4"><a xlink:title="STL class. ">
<polygon fill="#ffffff" stroke="#bfbfbf" points="204.5,-308.5 204.5,-371.5 271.5,-371.5 271.5,-308.5 204.5,-308.5"/>
<text text-anchor="middle" x="238" y="-357.9" font-family="Helvetica,sans-Serif" font-size="12.00" fill="#000000">std::set&lt; K &gt;</text>
<polyline fill="none" stroke="#bfbfbf" points="204.5,-350.5 271.5,-350.5 "/>
<text text-anchor="middle" x="238" y="-336.9" font-family="Helvetica,sans-Serif" font-size="12.00" fill="#000000"> </text>
<polyline fill="none" stroke="#bfbfbf" points="204.5,-329.5 271.5,-329.5 "/>
<text text-anchor="middle" x="238" y="-315.9" font-family="Helvetica,sans-Serif" font-size="12.00" fill="#000000"> </text>
</a>
</g>
</g>
<!-- Node4&#45;&gt;Node1 -->
<g id="edge3" class="edge">
<title>Node4&#45;&gt;Node1</title>
<path fill="none" stroke="#404040" d="M231.7822,-308.2385C228.0111,-291.0471 222.6419,-269.5852 216,-251 214.3112,-246.2744 212.5106,-241.4923 210.6249,-236.6895"/>
<polygon fill="none" stroke="#404040" points="210.5833,-236.5864 204.6252,-232.5243 206.0832,-225.4621 212.0414,-229.5242 210.5833,-236.5864"/>
<text text-anchor="middle" x="263" y="-280.4" font-family="Helvetica,sans-Serif" font-size="12.00" fill="#000000"> &#45;signals_default</text>
<text text-anchor="middle" x="263" y="-267.4" font-family="Helvetica,sans-Serif" font-size="12.00" fill="#000000">&#45;signals_enabled</text>
<text text-anchor="middle" x="263" y="-254.4" font-family="Helvetica,sans-Serif" font-size="12.00" fill="#000000">&#45;signals_disabled</text>
</g>
<!-- Node5 -->
<g id="node5" class="node">
<title>Node5</title>
<polygon fill="#ffffff" stroke="#bfbfbf" points="223.5,-421.5 223.5,-484.5 252.5,-484.5 252.5,-421.5 223.5,-421.5"/>
<text text-anchor="middle" x="238" y="-470.9" font-family="Helvetica,sans-Serif" font-size="12.00" fill="#000000">K</text>
<polyline fill="none" stroke="#bfbfbf" points="223.5,-463.5 252.5,-463.5 "/>
<text text-anchor="middle" x="238" y="-449.9" font-family="Helvetica,sans-Serif" font-size="12.00" fill="#000000"> </text>
<polyline fill="none" stroke="#bfbfbf" points="223.5,-442.5 252.5,-442.5 "/>
<text text-anchor="middle" x="238" y="-428.9" font-family="Helvetica,sans-Serif" font-size="12.00" fill="#000000"> </text>
</g>
<!-- Node5&#45;&gt;Node4 -->
<g id="edge4" class="edge">
<title>Node5&#45;&gt;Node4</title>
<path fill="none" stroke="#404040" d="M238,-421.2225C238,-409.5703 238,-396.1706 238,-383.6581"/>
<polygon fill="none" stroke="#404040" points="238.0001,-383.539 234,-377.539 238,-371.539 242,-377.539 238.0001,-383.539"/>
<text text-anchor="middle" x="251.5" y="-393.4" font-family="Helvetica,sans-Serif" font-size="12.00" fill="#000000"> +keys</text>
</g>
</g>
</svg>
        <g id="navigator" transform="translate(0 0)" fill="#404254">
                <rect fill="#f2f5e9" fill-opacity="0.5" stroke="#606060" stroke-width=".5" x="0" y="0" width="60" height="60"/>
                <use id="zoomplus" xlink:href="#zoomPlus" x="17" y="9" onmousedown="handleZoom(evt,'in')"/>
                <use id="zoomminus" xlink:href="#zoomMin" x="42" y="9" onmousedown="handleZoom(evt,'out')"/>
                <use id="reset" xlink:href="#resetDef" x="30" y="36" onmousedown="handleReset()"/>
                <g id="arrowUp" xlink:href="#dirArrow" transform="translate(30 24)" onmousedown="handlePan(0,-1)">
                  <use xlink:href="#rim" fill="#404040">
                        <set attributeName="fill" to="#808080" begin="arrowUp.mouseover" end="arrowUp.mouseout"/>
                  </use>
                  <path fill="none" stroke="white" stroke-width="1.5" d="M0,-3.0v7 M-2.5,-0.5L0,-3.0L2.5,-0.5"/>
                </g>
                <g id="arrowRight" xlink:href="#dirArrow" transform="rotate(90) translate(36 -43)" onmousedown="handlePan(1,0)">
                  <use xlink:href="#rim" fill="#404040">
                        <set attributeName="fill" to="#808080" begin="arrowRight.mouseover" end="arrowRight.mouseout"/>
                  </use>
                  <path fill="none" stroke="white" stroke-width="1.5" d="M0,-3.0v7 M-2.5,-0.5L0,-3.0L2.5,-0.5"/>
                </g>
                <g id="arrowDown" xlink:href="#dirArrow" transform="rotate(180) translate(-30 -48)" onmousedown="handlePan(0,1)">
                  <use xlink:href="#rim" fill="#404040">
                        <set attributeName="fill" to="#808080" begin="arrowDown.mouseover" end="arrowDown.mouseout"/>
                  </use>
                  <path fill="none" stroke="white" stroke-width="1.5" d="M0,-3.0v7 M-2.5,-0.5L0,-3.0L2.5,-0.5"/>
                </g>
                <g id="arrowLeft" xlink:href="#dirArrow" transform="rotate(270) translate(-36 17)" onmousedown="handlePan(-1,0)">
                  <use xlink:href="#rim" fill="#404040">
                        <set attributeName="fill" to="#808080" begin="arrowLeft.mouseover" end="arrowLeft.mouseout"/>
                  </use>
                  <path fill="none" stroke="white" stroke-width="1.5" d="M0,-3.0v7 M-2.5,-0.5L0,-3.0L2.5,-0.5"/>
                </g>
        </g>
        <svg viewBox="0 0 15 15" width="100%" height="30px" preserveAspectRatio="xMaxYMin meet">
         <g id="arrow_out" transform="scale(0.3 0.3)">
          <a xlink:href="classtim_1_1signal__settings__coll__graph_org.svg" target="_base">
           <rect id="button" ry="5" rx="5" y="6" x="6" height="38" width="38"
                fill="#f2f5e9" fill-opacity="0.5" stroke="#606060" stroke-width="1.0"/>
           <path id="arrow"
             d="M 11.500037,31.436501 C 11.940474,20.09759 22.043105,11.32322 32.158766,21.979434 L 37.068811,17.246167 C 37.068811,17.246167 37.088388,32 37.088388,32 L 22.160133,31.978069 C 22.160133,31.978069 26.997745,27.140456 26.997745,27.140456 C 18.528582,18.264221 13.291696,25.230495 11.500037,31.436501 z"
             style="fill:#404040;"/>
          </a>
         </g>
        </svg>
</svg>
