<?xml version="1.0" encoding="UTF-8" standalone="no"?>
<!DOCTYPE svg PUBLIC "-//W3C//DTD SVG 1.1//EN"
 "http://www.w3.org/Graphics/SVG/1.1/DTD/svg11.dtd">
<!-- Generated by graphviz version 2.40.1 (20161225.0304)
 -->
<!-- Title: timemory/base_clock.hpp Pages: 1 -->
<!--zoomable 88 -->
<svg id="main" version="1.1" xmlns="http://www.w3.org/2000/svg" xmlns:xlink="http://www.w3.org/1999/xlink" xml:space="preserve" onload="init(evt)">
<style type="text/css"><![CDATA[
.edge:hover path { stroke: red; }
.edge:hover polygon { stroke: red; fill: red; }
]]></style>
<script type="text/javascript"><![CDATA[
var edges = document.getElementsByTagName('g');
if (edges && edges.length) {
  for (var i=0;i<edges.length;i++) {
    if (edges[i].id.substr(0,4)=='edge') {
      edges[i].setAttribute('class','edge');
    }
  }
}
]]></script>
        <defs>
                <circle id="rim" cx="0" cy="0" r="7"/>
                <circle id="rim2" cx="0" cy="0" r="3.5"/>
                <g id="zoomPlus">
                        <use xlink:href="#rim" fill="#404040">
                                <set attributeName="fill" to="#808080" begin="zoomplus.mouseover" end="zoomplus.mouseout"/>
                        </use>
                        <path d="M-4,0h8M0,-4v8" fill="none" stroke="white" stroke-width="1.5" pointer-events="none"/>
                </g>
                <g id="zoomMin">
                        <use xlink:href="#rim" fill="#404040">
                                <set attributeName="fill" to="#808080" begin="zoomminus.mouseover" end="zoomminus.mouseout"/>
                        </use>
                        <path d="M-4,0h8" fill="none" stroke="white" stroke-width="1.5" pointer-events="none"/>
                </g>
                <g id="dirArrow">
                        <path fill="none" stroke="white" stroke-width="1.5" d="M0,-3.0v7 M-2.5,-0.5L0,-3.0L2.5,-0.5"/>
                </g>
               <g id="resetDef">
                       <use xlink:href="#rim2" fill="#404040">
                               <set attributeName="fill" to="#808080" begin="reset.mouseover" end="reset.mouseout"/>
                       </use>
               </g>
        </defs>

<script type="text/javascript">
var viewWidth = 1661;
var viewHeight = 88;
var sectionId = 'dynsection-0';
</script>
<script xlink:href="../../svgpan.js"/>
<svg id="graph" class="graph">
<g id="viewport">
<title>timemory/base_clock.hpp</title>
<polygon fill="#ffffff" stroke="transparent" points="-4,4 -4,-84 1657,-84 1657,4 -4,4"/>
<!-- Node0 -->
<g id="node1" class="node">
<title>Node0</title>
<polygon fill="#bfbfbf" stroke="#000000" points="657.5,-58.5 657.5,-79.5 776.5,-79.5 776.5,-58.5 657.5,-58.5"/>
<text text-anchor="middle" x="717" y="-65.9" font-family="Helvetica,sans-Serif" font-size="12.00" fill="#000000">timemory/base_clock.hpp</text>
</g>
<!-- Node1 -->
<g id="node2" class="node">
<title>Node1</title>
<polygon fill="#ffffff" stroke="#bfbfbf" points="0,-.5 0,-21.5 48,-21.5 48,-.5 0,-.5"/>
<text text-anchor="middle" x="24" y="-7.9" font-family="Helvetica,sans-Serif" font-size="12.00" fill="#000000">unistd.h</text>
</g>
<!-- Node0&#45;&gt;Node1 -->
<g id="edge1" class="edge">
<title>Node0&#45;&gt;Node1</title>
<path fill="none" stroke="#191970" d="M657.2595,-66.6633C520.9094,-61.0283 189.1166,-45.5316 58.4865,-21.8098"/>
<polygon fill="#191970" stroke="#191970" points="58.8038,-18.307 48.3241,-19.8645 57.4877,-25.1822 58.8038,-18.307"/>
</g>
<!-- Node2 -->
<g id="node3" class="node">
<title>Node2</title>
<polygon fill="#ffffff" stroke="#bfbfbf" points="66,-.5 66,-21.5 128,-21.5 128,-.5 66,-.5"/>
<text text-anchor="middle" x="97" y="-7.9" font-family="Helvetica,sans-Serif" font-size="12.00" fill="#000000">sys/times.h</text>
</g>
<!-- Node0&#45;&gt;Node2 -->
<g id="edge2" class="edge">
<title>Node0&#45;&gt;Node2</title>
<path fill="none" stroke="#191970" d="M657.2498,-67.8433C553.3641,-65.0295 332.7402,-55.5039 138.4271,-21.9798"/>
<polygon fill="#191970" stroke="#191970" points="138.77,-18.4867 128.3162,-20.2093 137.5626,-25.3818 138.77,-18.4867"/>
</g>
<!-- Node3 -->
<g id="node4" class="node">
<title>Node3</title>
<polygon fill="#ffffff" stroke="#bfbfbf" points="146.5,-.5 146.5,-21.5 197.5,-21.5 197.5,-.5 146.5,-.5"/>
<text text-anchor="middle" x="172" y="-7.9" font-family="Helvetica,sans-Serif" font-size="12.00" fill="#000000">iostream</text>
</g>
<!-- Node0&#45;&gt;Node3 -->
<g id="edge3" class="edge">
<title>Node0&#45;&gt;Node3</title>
<path fill="none" stroke="#191970" d="M657.1224,-67.5958C563.0924,-64.4911 375.147,-54.654 207.8085,-21.7845"/>
<polygon fill="#191970" stroke="#191970" points="208.3254,-18.3187 197.8336,-19.7926 206.9546,-25.1831 208.3254,-18.3187"/>
</g>
<!-- Node4 -->
<g id="node5" class="node">
<title>Node4</title>
<polygon fill="#ffffff" stroke="#bfbfbf" points="216,-.5 216,-21.5 264,-21.5 264,-.5 216,-.5"/>
<text text-anchor="middle" x="240" y="-7.9" font-family="Helvetica,sans-Serif" font-size="12.00" fill="#000000">iomanip</text>
</g>
<!-- Node0&#45;&gt;Node4 -->
<g id="edge4" class="edge">
<title>Node0&#45;&gt;Node4</title>
<path fill="none" stroke="#191970" d="M657.4606,-66.7847C573.6558,-62.7688 416.1971,-51.9369 274.5167,-21.9595"/>
<polygon fill="#191970" stroke="#191970" points="274.857,-18.4526 264.3442,-19.7679 273.3827,-25.2956 274.857,-18.4526"/>
</g>
<!-- Node5 -->
<g id="node6" class="node">
<title>Node5</title>
<polygon fill="#ffffff" stroke="#bfbfbf" points="282.5,-.5 282.5,-21.5 331.5,-21.5 331.5,-.5 282.5,-.5"/>
<text text-anchor="middle" x="307" y="-7.9" font-family="Helvetica,sans-Serif" font-size="12.00" fill="#000000">sstream</text>
</g>
<!-- Node0&#45;&gt;Node5 -->
<g id="edge5" class="edge">
<title>Node0&#45;&gt;Node5</title>
<path fill="none" stroke="#191970" d="M657.2774,-65.2156C584.4554,-59.7896 457.6528,-47.7246 341.4876,-22.0226"/>
<polygon fill="#191970" stroke="#191970" points="342.2418,-18.6049 331.7172,-19.8225 340.704,-25.4339 342.2418,-18.6049"/>
</g>
<!-- Node6 -->
<g id="node7" class="node">
<title>Node6</title>
<polygon fill="#ffffff" stroke="#bfbfbf" points="349.5,-.5 349.5,-21.5 404.5,-21.5 404.5,-.5 349.5,-.5"/>
<text text-anchor="middle" x="377" y="-7.9" font-family="Helvetica,sans-Serif" font-size="12.00" fill="#000000">stdexcept</text>
</g>
<!-- Node0&#45;&gt;Node6 -->
<g id="edge6" class="edge">
<title>Node0&#45;&gt;Node6</title>
<path fill="none" stroke="#191970" d="M657.3926,-62.3454C597.9791,-55.1376 504.0371,-42.1891 414.8141,-22.2027"/>
<polygon fill="#191970" stroke="#191970" points="415.3291,-18.7306 404.8018,-19.9253 413.7764,-25.5562 415.3291,-18.7306"/>
</g>
<!-- Node7 -->
<g id="node8" class="node">
<title>Node7</title>
<polygon fill="#ffffff" stroke="#bfbfbf" points="422.5,-.5 422.5,-21.5 463.5,-21.5 463.5,-.5 422.5,-.5"/>
<text text-anchor="middle" x="443" y="-7.9" font-family="Helvetica,sans-Serif" font-size="12.00" fill="#000000">vector</text>
</g>
<!-- Node0&#45;&gt;Node7 -->
<g id="edge7" class="edge">
<title>Node0&#45;&gt;Node7</title>
<path fill="none" stroke="#191970" d="M657.4194,-60.5277C609.7331,-53.0781 541.0992,-40.8604 473.6972,-22.1732"/>
<polygon fill="#191970" stroke="#191970" points="474.339,-18.7177 463.7642,-19.369 472.4371,-25.4544 474.339,-18.7177"/>
</g>
<!-- Node8 -->
<g id="node9" class="node">
<title>Node8</title>
<polygon fill="#ffffff" stroke="#bfbfbf" points="481.5,-.5 481.5,-21.5 522.5,-21.5 522.5,-.5 481.5,-.5"/>
<text text-anchor="middle" x="502" y="-7.9" font-family="Helvetica,sans-Serif" font-size="12.00" fill="#000000">mutex</text>
</g>
<!-- Node0&#45;&gt;Node8 -->
<g id="edge8" class="edge">
<title>Node0&#45;&gt;Node8</title>
<path fill="none" stroke="#191970" d="M669.8694,-58.4368C634.4636,-50.1835 584.6361,-37.8973 532.3505,-21.8875"/>
<polygon fill="#191970" stroke="#191970" points="533.1498,-18.4711 522.5619,-18.8549 531.0782,-25.1575 533.1498,-18.4711"/>
</g>
<!-- Node9 -->
<g id="node10" class="node">
<title>Node9</title>
<polygon fill="#ffffff" stroke="#bfbfbf" points="541,-.5 541,-21.5 621,-21.5 621,-.5 541,-.5"/>
<text text-anchor="middle" x="581" y="-7.9" font-family="Helvetica,sans-Serif" font-size="12.00" fill="#000000">unordered_map</text>
</g>
<!-- Node0&#45;&gt;Node9 -->
<g id="edge9" class="edge">
<title>Node0&#45;&gt;Node9</title>
<path fill="none" stroke="#191970" d="M692.3714,-58.4966C670.8429,-49.3154 639.3602,-35.8889 615.3554,-25.6516"/>
<polygon fill="#191970" stroke="#191970" points="616.4764,-22.3247 605.9049,-21.6212 613.7303,-28.7636 616.4764,-22.3247"/>
</g>
<!-- Node10 -->
<g id="node11" class="node">
<title>Node10</title>
<polygon fill="#ffffff" stroke="#bfbfbf" points="639.5,-.5 639.5,-21.5 680.5,-21.5 680.5,-.5 639.5,-.5"/>
<text text-anchor="middle" x="660" y="-7.9" font-family="Helvetica,sans-Serif" font-size="12.00" fill="#000000">cmath</text>
</g>
<!-- Node0&#45;&gt;Node10 -->
<g id="edge10" class="edge">
<title>Node0&#45;&gt;Node10</title>
<path fill="none" stroke="#191970" d="M706.5453,-58.3619C698.4301,-50.1043 686.9988,-38.4725 677.4959,-28.8029"/>
<polygon fill="#191970" stroke="#191970" points="679.8941,-26.2497 670.3884,-21.5707 674.9014,-31.1562 679.8941,-26.2497"/>
</g>
<!-- Node11 -->
<g id="node12" class="node">
<title>Node11</title>
<polygon fill="#ffffff" stroke="#bfbfbf" points="699,-.5 699,-21.5 735,-21.5 735,-.5 699,-.5"/>
<text text-anchor="middle" x="717" y="-7.9" font-family="Helvetica,sans-Serif" font-size="12.00" fill="#000000">tuple</text>
</g>
<!-- Node0&#45;&gt;Node11 -->
<g id="edge11" class="edge">
<title>Node0&#45;&gt;Node11</title>
<path fill="none" stroke="#191970" d="M717,-58.3619C717,-50.9219 717,-40.7427 717,-31.7276"/>
<polygon fill="#191970" stroke="#191970" points="720.5001,-31.5706 717,-21.5707 713.5001,-31.5707 720.5001,-31.5706"/>
</g>
<!-- Node12 -->
<g id="node13" class="node">
<title>Node12</title>
<polygon fill="#ffffff" stroke="#bfbfbf" points="753,-.5 753,-21.5 787,-21.5 787,-.5 753,-.5"/>
<text text-anchor="middle" x="770" y="-7.9" font-family="Helvetica,sans-Serif" font-size="12.00" fill="#000000">ratio</text>
</g>
<!-- Node0&#45;&gt;Node12 -->
<g id="edge12" class="edge">
<title>Node0&#45;&gt;Node12</title>
<path fill="none" stroke="#191970" d="M726.721,-58.3619C734.192,-50.1861 744.6857,-38.7025 753.4689,-29.0907"/>
<polygon fill="#191970" stroke="#191970" points="756.1786,-31.3138 760.3406,-21.5707 751.0111,-26.5918 756.1786,-31.3138"/>
</g>
<!-- Node13 -->
<g id="node14" class="node">
<title>Node13</title>
<polygon fill="#ffffff" stroke="#bfbfbf" points="805,-.5 805,-21.5 849,-21.5 849,-.5 805,-.5"/>
<text text-anchor="middle" x="827" y="-7.9" font-family="Helvetica,sans-Serif" font-size="12.00" fill="#000000">chrono</text>
</g>
<!-- Node0&#45;&gt;Node13 -->
<g id="edge13" class="edge">
<title>Node0&#45;&gt;Node13</title>
<path fill="none" stroke="#191970" d="M736.9202,-58.4966C753.946,-49.5194 778.6692,-36.4835 797.9093,-26.3387"/>
<polygon fill="#191970" stroke="#191970" points="799.6431,-29.3814 806.8563,-21.6212 796.3782,-23.1894 799.6431,-29.3814"/>
</g>
<!-- Node14 -->
<g id="node15" class="node">
<title>Node14</title>
<polygon fill="#ffffff" stroke="#bfbfbf" points="867,-.5 867,-21.5 905,-21.5 905,-.5 867,-.5"/>
<text text-anchor="middle" x="886" y="-7.9" font-family="Helvetica,sans-Serif" font-size="12.00" fill="#000000">ctime</text>
</g>
<!-- Node0&#45;&gt;Node14 -->
<g id="edge14" class="edge">
<title>Node0&#45;&gt;Node14</title>
<path fill="none" stroke="#191970" d="M750.2175,-58.4724C776.8818,-49.9011 815.4683,-37.2289 857.2419,-22.1658"/>
<polygon fill="#191970" stroke="#191970" points="858.5646,-25.4092 866.7708,-18.7079 856.1767,-18.8291 858.5646,-25.4092"/>
</g>
<!-- Node15 -->
<g id="node16" class="node">
<title>Node15</title>
<polygon fill="#ffffff" stroke="#bfbfbf" points="923.5,-.5 923.5,-21.5 966.5,-21.5 966.5,-.5 923.5,-.5"/>
<text text-anchor="middle" x="945" y="-7.9" font-family="Helvetica,sans-Serif" font-size="12.00" fill="#000000">cstdint</text>
</g>
<!-- Node0&#45;&gt;Node15 -->
<g id="edge15" class="edge">
<title>Node0&#45;&gt;Node15</title>
<path fill="none" stroke="#191970" d="M767.593,-58.4895C805.4309,-50.2755 858.573,-37.9953 913.8112,-21.834"/>
<polygon fill="#191970" stroke="#191970" points="914.8215,-25.1852 923.4164,-18.9903 912.8342,-18.4732 914.8215,-25.1852"/>
</g>
<!-- Node16 -->
<g id="node17" class="node">
<title>Node16</title>
<polygon fill="#ffffff" stroke="#bfbfbf" points="985,-.5 985,-21.5 1043,-21.5 1043,-.5 985,-.5"/>
<text text-anchor="middle" x="1014" y="-7.9" font-family="Helvetica,sans-Serif" font-size="12.00" fill="#000000">type_traits</text>
</g>
<!-- Node0&#45;&gt;Node16 -->
<g id="edge16" class="edge">
<title>Node0&#45;&gt;Node16</title>
<path fill="none" stroke="#191970" d="M776.5037,-59.9771C826.9648,-51.9225 901.4194,-39.0934 974.7516,-22.1355"/>
<polygon fill="#191970" stroke="#191970" points="975.6803,-25.5128 984.6199,-19.8265 974.0855,-18.6969 975.6803,-25.5128"/>
</g>
<!-- Node17 -->
<g id="node18" class="node">
<title>Node17</title>
<polygon fill="#ffffff" stroke="#bfbfbf" points="1061,-.5 1061,-21.5 1147,-21.5 1147,-.5 1061,-.5"/>
<text text-anchor="middle" x="1104" y="-7.9" font-family="Helvetica,sans-Serif" font-size="12.00" fill="#000000">cereal/cereal.hpp</text>
</g>
<!-- Node0&#45;&gt;Node17 -->
<g id="edge17" class="edge">
<title>Node0&#45;&gt;Node17</title>
<path fill="none" stroke="#191970" d="M776.802,-61.8754C841.8021,-53.8474 948.9426,-39.7885 1050.7621,-22.1297"/>
<polygon fill="#191970" stroke="#191970" points="1051.667,-25.5246 1060.9143,-20.3537 1050.4607,-18.6293 1051.667,-25.5246"/>
</g>
<!-- Node18 -->
<g id="node19" class="node">
<title>Node18</title>
<polygon fill="#ffffff" stroke="#bfbfbf" points="1165.5,-.5 1165.5,-21.5 1278.5,-21.5 1278.5,-.5 1165.5,-.5"/>
<text text-anchor="middle" x="1222" y="-7.9" font-family="Helvetica,sans-Serif" font-size="12.00" fill="#000000">cereal/types/chrono.hpp</text>
</g>
<!-- Node0&#45;&gt;Node18 -->
<g id="edge18" class="edge">
<title>Node0&#45;&gt;Node18</title>
<path fill="none" stroke="#191970" d="M776.7801,-63.7174C859.4028,-56.1682 1013.3872,-41.2076 1154.9784,-22.0764"/>
<polygon fill="#191970" stroke="#191970" points="1155.7139,-25.5086 1165.1504,-20.6918 1154.7697,-18.5726 1155.7139,-25.5086"/>
</g>
<!-- Node19 -->
<g id="node20" class="node">
<title>Node19</title>
<polygon fill="#ffffff" stroke="#bfbfbf" points="1297,-.5 1297,-21.5 1407,-21.5 1407,-.5 1297,-.5"/>
<text text-anchor="middle" x="1352" y="-7.9" font-family="Helvetica,sans-Serif" font-size="12.00" fill="#000000">cereal/types/deque.hpp</text>
</g>
<!-- Node0&#45;&gt;Node19 -->
<g id="edge19" class="edge">
<title>Node0&#45;&gt;Node19</title>
<path fill="none" stroke="#191970" d="M776.7778,-65.8177C879.1352,-59.9876 1094.7107,-46.0493 1286.8861,-22.0504"/>
<polygon fill="#191970" stroke="#191970" points="1287.4045,-25.5128 1296.8882,-20.7895 1286.5289,-18.5678 1287.4045,-25.5128"/>
</g>
<!-- Node20 -->
<g id="node21" class="node">
<title>Node20</title>
<polygon fill="#ffffff" stroke="#bfbfbf" points="1425.5,-.5 1425.5,-21.5 1514.5,-21.5 1514.5,-.5 1425.5,-.5"/>
<text text-anchor="middle" x="1470" y="-7.9" font-family="Helvetica,sans-Serif" font-size="12.00" fill="#000000">cereal/access.hpp</text>
</g>
<!-- Node0&#45;&gt;Node20 -->
<g id="edge20" class="edge">
<title>Node0&#45;&gt;Node20</title>
<path fill="none" stroke="#191970" d="M776.6474,-67.6778C896.0352,-64.448 1172.9444,-54.0281 1415.2344,-21.9346"/>
<polygon fill="#191970" stroke="#191970" points="1415.8427,-25.3845 1425.2894,-20.5875 1414.9131,-18.4465 1415.8427,-25.3845"/>
</g>
<!-- Node21 -->
<g id="node22" class="node">
<title>Node21</title>
<g id="a_node22"><a xlink:href="../../db/d19/namespace_8hpp.html" target="_top" xlink:title="timemory/namespace.hpp">
<polygon fill="#ffffff" stroke="#000000" points="1533,-.5 1533,-21.5 1653,-21.5 1653,-.5 1533,-.5"/>
<text text-anchor="middle" x="1593" y="-7.9" font-family="Helvetica,sans-Serif" font-size="12.00" fill="#000000">timemory/namespace.hpp</text>
</a>
</g>
</g>
<!-- Node0&#45;&gt;Node21 -->
<g id="edge21" class="edge">
<title>Node0&#45;&gt;Node21</title>
<path fill="none" stroke="#191970" d="M776.6489,-67.5648C909.0529,-63.9384 1237.6588,-52.5072 1522.7152,-22.0456"/>
<polygon fill="#191970" stroke="#191970" points="1523.2698,-25.5062 1532.8368,-20.954 1522.5191,-18.5466 1523.2698,-25.5062"/>
</g>
</g>
</svg>
        <g id="navigator" transform="translate(0 0)" fill="#404254">
                <rect fill="#f2f5e9" fill-opacity="0.5" stroke="#606060" stroke-width=".5" x="0" y="0" width="60" height="60"/>
                <use id="zoomplus" xlink:href="#zoomPlus" x="17" y="9" onmousedown="handleZoom(evt,'in')"/>
                <use id="zoomminus" xlink:href="#zoomMin" x="42" y="9" onmousedown="handleZoom(evt,'out')"/>
                <use id="reset" xlink:href="#resetDef" x="30" y="36" onmousedown="handleReset()"/>
                <g id="arrowUp" xlink:href="#dirArrow" transform="translate(30 24)" onmousedown="handlePan(0,-1)">
                  <use xlink:href="#rim" fill="#404040">
                        <set attributeName="fill" to="#808080" begin="arrowUp.mouseover" end="arrowUp.mouseout"/>
                  </use>
                  <path fill="none" stroke="white" stroke-width="1.5" d="M0,-3.0v7 M-2.5,-0.5L0,-3.0L2.5,-0.5"/>
                </g>
                <g id="arrowRight" xlink:href="#dirArrow" transform="rotate(90) translate(36 -43)" onmousedown="handlePan(1,0)">
                  <use xlink:href="#rim" fill="#404040">
                        <set attributeName="fill" to="#808080" begin="arrowRight.mouseover" end="arrowRight.mouseout"/>
                  </use>
                  <path fill="none" stroke="white" stroke-width="1.5" d="M0,-3.0v7 M-2.5,-0.5L0,-3.0L2.5,-0.5"/>
                </g>
                <g id="arrowDown" xlink:href="#dirArrow" transform="rotate(180) translate(-30 -48)" onmousedown="handlePan(0,1)">
                  <use xlink:href="#rim" fill="#404040">
                        <set attributeName="fill" to="#808080" begin="arrowDown.mouseover" end="arrowDown.mouseout"/>
                  </use>
                  <path fill="none" stroke="white" stroke-width="1.5" d="M0,-3.0v7 M-2.5,-0.5L0,-3.0L2.5,-0.5"/>
                </g>
                <g id="arrowLeft" xlink:href="#dirArrow" transform="rotate(270) translate(-36 17)" onmousedown="handlePan(-1,0)">
                  <use xlink:href="#rim" fill="#404040">
                        <set attributeName="fill" to="#808080" begin="arrowLeft.mouseover" end="arrowLeft.mouseout"/>
                  </use>
                  <path fill="none" stroke="white" stroke-width="1.5" d="M0,-3.0v7 M-2.5,-0.5L0,-3.0L2.5,-0.5"/>
                </g>
        </g>
        <svg viewBox="0 0 15 15" width="100%" height="30px" preserveAspectRatio="xMaxYMin meet">
         <g id="arrow_out" transform="scale(0.3 0.3)">
          <a xlink:href="base__clock_8hpp__incl_org.svg" target="_base">
           <rect id="button" ry="5" rx="5" y="6" x="6" height="38" width="38"
                fill="#f2f5e9" fill-opacity="0.5" stroke="#606060" stroke-width="1.0"/>
           <path id="arrow"
             d="M 11.500037,31.436501 C 11.940474,20.09759 22.043105,11.32322 32.158766,21.979434 L 37.068811,17.246167 C 37.068811,17.246167 37.088388,32 37.088388,32 L 22.160133,31.978069 C 22.160133,31.978069 26.997745,27.140456 26.997745,27.140456 C 18.528582,18.264221 13.291696,25.230495 11.500037,31.436501 z"
             style="fill:#404040;"/>
          </a>
         </g>
        </svg>
</svg>
