<?xml version="1.0" encoding="UTF-8" standalone="no"?>
<!DOCTYPE svg PUBLIC "-//W3C//DTD SVG 1.1//EN"
 "http://www.w3.org/Graphics/SVG/1.1/DTD/svg11.dtd">
<!-- Generated by graphviz version 2.40.1 (20161225.0304)
 -->
<!-- Title: util.base_decorator Pages: 1 -->
<svg width="254pt" height="363pt"
 viewBox="0.00 0.00 253.50 363.00" xmlns="http://www.w3.org/2000/svg" xmlns:xlink="http://www.w3.org/1999/xlink">
<g id="graph0" class="graph" transform="scale(1 1) rotate(0) translate(4 359)">
<title>util.base_decorator</title>
<polygon fill="#ffffff" stroke="transparent" points="-4,4 -4,-359 249.5,-359 249.5,4 -4,4"/>
<!-- Node0 -->
<g id="node1" class="node">
<title>Node0</title>
<polygon fill="#bfbfbf" stroke="#000000" points="81,-139.5 81,-254.5 174,-254.5 174,-139.5 81,-139.5"/>
<text text-anchor="middle" x="127.5" y="-240.9" font-family="Helvetica,sans-Serif" font-size="12.00" fill="#000000">util.base_decorator</text>
<polyline fill="none" stroke="#000000" points="81,-233.5 174,-233.5 "/>
<text text-anchor="start" x="89" y="-219.9" font-family="Helvetica,sans-Serif" font-size="12.00" fill="#000000">+ key</text>
<text text-anchor="start" x="89" y="-206.9" font-family="Helvetica,sans-Serif" font-size="12.00" fill="#000000">+ add_args</text>
<text text-anchor="start" x="89" y="-193.9" font-family="Helvetica,sans-Serif" font-size="12.00" fill="#000000">+ is_class</text>
<polyline fill="none" stroke="#000000" points="81,-186.5 174,-186.5 "/>
<text text-anchor="start" x="89" y="-172.9" font-family="Helvetica,sans-Serif" font-size="12.00" fill="#000000">+ __init__()</text>
<text text-anchor="start" x="89" y="-159.9" font-family="Helvetica,sans-Serif" font-size="12.00" fill="#000000">+ class_string()</text>
<text text-anchor="start" x="89" y="-146.9" font-family="Helvetica,sans-Serif" font-size="12.00" fill="#000000">+ arg_string()</text>
</g>
<!-- Node2 -->
<g id="node3" class="node">
<title>Node2</title>
<g id="a_node3"><a xlink:href="../../d1/d0b/classutil_1_1auto__timer.html" target="_top" xlink:title="{util.auto_timer\n|+ key\l+ add_args\l+ is_class\l|+ __init__()\l+ __call__()\l}">
<polygon fill="#ffffff" stroke="#000000" points="0,-.5 0,-102.5 73,-102.5 73,-.5 0,-.5"/>
<text text-anchor="middle" x="36.5" y="-88.9" font-family="Helvetica,sans-Serif" font-size="12.00" fill="#000000">util.auto_timer</text>
<polyline fill="none" stroke="#000000" points="0,-81.5 73,-81.5 "/>
<text text-anchor="start" x="8" y="-67.9" font-family="Helvetica,sans-Serif" font-size="12.00" fill="#000000">+ key</text>
<text text-anchor="start" x="8" y="-54.9" font-family="Helvetica,sans-Serif" font-size="12.00" fill="#000000">+ add_args</text>
<text text-anchor="start" x="8" y="-41.9" font-family="Helvetica,sans-Serif" font-size="12.00" fill="#000000">+ is_class</text>
<polyline fill="none" stroke="#000000" points="0,-34.5 73,-34.5 "/>
<text text-anchor="start" x="8" y="-20.9" font-family="Helvetica,sans-Serif" font-size="12.00" fill="#000000">+ __init__()</text>
<text text-anchor="start" x="8" y="-7.9" font-family="Helvetica,sans-Serif" font-size="12.00" fill="#000000">+ __call__()</text>
</a>
</g>
</g>
<!-- Node0&#45;&gt;Node2 -->
<g id="edge2" class="edge">
<title>Node0&#45;&gt;Node2</title>
<path fill="none" stroke="#191970" d="M86.1758,-130.9267C80.2998,-121.5315 74.3301,-111.9866 68.6632,-102.9258"/>
<polygon fill="none" stroke="#191970" points="83.2643,-132.8721 91.5344,-139.4945 89.1992,-129.1603 83.2643,-132.8721"/>
</g>
<!-- Node3 -->
<g id="node4" class="node">
<title>Node3</title>
<g id="a_node4"><a xlink:href="../../d7/d4b/classutil_1_1rss__usage.html" target="_top" xlink:title="{util.rss_usage\n|+ key\l+ add_args\l+ is_class\l|+ __init__()\l+ __call__()\l}">
<polygon fill="#ffffff" stroke="#000000" points="91.5,-.5 91.5,-102.5 163.5,-102.5 163.5,-.5 91.5,-.5"/>
<text text-anchor="middle" x="127.5" y="-88.9" font-family="Helvetica,sans-Serif" font-size="12.00" fill="#000000">util.rss_usage</text>
<polyline fill="none" stroke="#000000" points="91.5,-81.5 163.5,-81.5 "/>
<text text-anchor="start" x="99.5" y="-67.9" font-family="Helvetica,sans-Serif" font-size="12.00" fill="#000000">+ key</text>
<text text-anchor="start" x="99.5" y="-54.9" font-family="Helvetica,sans-Serif" font-size="12.00" fill="#000000">+ add_args</text>
<text text-anchor="start" x="99.5" y="-41.9" font-family="Helvetica,sans-Serif" font-size="12.00" fill="#000000">+ is_class</text>
<polyline fill="none" stroke="#000000" points="91.5,-34.5 163.5,-34.5 "/>
<text text-anchor="start" x="99.5" y="-20.9" font-family="Helvetica,sans-Serif" font-size="12.00" fill="#000000">+ __init__()</text>
<text text-anchor="start" x="99.5" y="-7.9" font-family="Helvetica,sans-Serif" font-size="12.00" fill="#000000">+ __call__()</text>
</a>
</g>
</g>
<!-- Node0&#45;&gt;Node3 -->
<g id="edge3" class="edge">
<title>Node0&#45;&gt;Node3</title>
<path fill="none" stroke="#191970" d="M127.5,-129.4875C127.5,-120.5588 127.5,-111.5243 127.5,-102.9258"/>
<polygon fill="none" stroke="#191970" points="124.0001,-129.4945 127.5,-139.4945 131.0001,-129.4946 124.0001,-129.4945"/>
</g>
<!-- Node4 -->
<g id="node5" class="node">
<title>Node4</title>
<g id="a_node5"><a xlink:href="../../de/d81/classutil_1_1timer.html" target="_top" xlink:title="{util.timer\n|+ key\l+ add_args\l+ is_class\l|+ __init__()\l+ __call__()\l}">
<polygon fill="#ffffff" stroke="#000000" points="181.5,-.5 181.5,-102.5 245.5,-102.5 245.5,-.5 181.5,-.5"/>
<text text-anchor="middle" x="213.5" y="-88.9" font-family="Helvetica,sans-Serif" font-size="12.00" fill="#000000">util.timer</text>
<polyline fill="none" stroke="#000000" points="181.5,-81.5 245.5,-81.5 "/>
<text text-anchor="start" x="189.5" y="-67.9" font-family="Helvetica,sans-Serif" font-size="12.00" fill="#000000">+ key</text>
<text text-anchor="start" x="189.5" y="-54.9" font-family="Helvetica,sans-Serif" font-size="12.00" fill="#000000">+ add_args</text>
<text text-anchor="start" x="189.5" y="-41.9" font-family="Helvetica,sans-Serif" font-size="12.00" fill="#000000">+ is_class</text>
<polyline fill="none" stroke="#000000" points="181.5,-34.5 245.5,-34.5 "/>
<text text-anchor="start" x="189.5" y="-20.9" font-family="Helvetica,sans-Serif" font-size="12.00" fill="#000000">+ __init__()</text>
<text text-anchor="start" x="189.5" y="-7.9" font-family="Helvetica,sans-Serif" font-size="12.00" fill="#000000">+ __call__()</text>
</a>
</g>
</g>
<!-- Node0&#45;&gt;Node4 -->
<g id="edge4" class="edge">
<title>Node0&#45;&gt;Node4</title>
<path fill="none" stroke="#191970" d="M166.7237,-130.639C172.2219,-121.3368 177.8031,-111.8942 183.104,-102.9258"/>
<polygon fill="none" stroke="#191970" points="163.5648,-129.1049 161.4895,-139.4945 169.5909,-132.6668 163.5648,-129.1049"/>
</g>
<!-- Node1 -->
<g id="node2" class="node">
<title>Node1</title>
<g id="a_node2"><a xlink:href="../../dc/dd8/classobject.html" target="_top" xlink:title="{object\n||}">
<polygon fill="#ffffff" stroke="#000000" points="107,-291.5 107,-354.5 148,-354.5 148,-291.5 107,-291.5"/>
<text text-anchor="middle" x="127.5" y="-340.9" font-family="Helvetica,sans-Serif" font-size="12.00" fill="#000000">object</text>
<polyline fill="none" stroke="#000000" points="107,-333.5 148,-333.5 "/>
<text text-anchor="middle" x="127.5" y="-319.9" font-family="Helvetica,sans-Serif" font-size="12.00" fill="#000000"> </text>
<polyline fill="none" stroke="#000000" points="107,-312.5 148,-312.5 "/>
<text text-anchor="middle" x="127.5" y="-298.9" font-family="Helvetica,sans-Serif" font-size="12.00" fill="#000000"> </text>
</a>
</g>
</g>
<!-- Node1&#45;&gt;Node0 -->
<g id="edge1" class="edge">
<title>Node1&#45;&gt;Node0</title>
<path fill="none" stroke="#191970" d="M127.5,-280.9323C127.5,-272.5453 127.5,-263.5999 127.5,-254.7912"/>
<polygon fill="none" stroke="#191970" points="124.0001,-281.2048 127.5,-291.2049 131.0001,-281.2049 124.0001,-281.2048"/>
</g>
</g>
</svg>
