<?xml version="1.0" encoding="UTF-8" standalone="no"?>
<!DOCTYPE svg PUBLIC "-//W3C//DTD SVG 1.1//EN"
 "http://www.w3.org/Graphics/SVG/1.1/DTD/svg11.dtd">
<!-- Generated by graphviz version 2.40.1 (20161225.0304)
 -->
<!-- Title: util.base_decorator Pages: 1 -->
<svg width="254pt" height="337pt"
 viewBox="0.00 0.00 253.50 337.00" xmlns="http://www.w3.org/2000/svg" xmlns:xlink="http://www.w3.org/1999/xlink">
<g id="graph0" class="graph" transform="scale(1 1) rotate(0) translate(4 333)">
<title>util.base_decorator</title>
<polygon fill="#ffffff" stroke="transparent" points="-4,4 -4,-333 249.5,-333 249.5,4 -4,4"/>
<!-- Node0 -->
<g id="node1" class="node">
<title>Node0</title>
<polygon fill="#bfbfbf" stroke="#000000" points="81,-113.5 81,-228.5 174,-228.5 174,-113.5 81,-113.5"/>
<text text-anchor="middle" x="127.5" y="-214.9" font-family="Helvetica,sans-Serif" font-size="12.00" fill="#000000">util.base_decorator</text>
<polyline fill="none" stroke="#000000" points="81,-207.5 174,-207.5 "/>
<text text-anchor="start" x="89" y="-193.9" font-family="Helvetica,sans-Serif" font-size="12.00" fill="#000000">+ key</text>
<text text-anchor="start" x="89" y="-180.9" font-family="Helvetica,sans-Serif" font-size="12.00" fill="#000000">+ add_args</text>
<text text-anchor="start" x="89" y="-167.9" font-family="Helvetica,sans-Serif" font-size="12.00" fill="#000000">+ is_class</text>
<polyline fill="none" stroke="#000000" points="81,-160.5 174,-160.5 "/>
<text text-anchor="start" x="89" y="-146.9" font-family="Helvetica,sans-Serif" font-size="12.00" fill="#000000">+ __init__()</text>
<text text-anchor="start" x="89" y="-133.9" font-family="Helvetica,sans-Serif" font-size="12.00" fill="#000000">+ class_string()</text>
<text text-anchor="start" x="89" y="-120.9" font-family="Helvetica,sans-Serif" font-size="12.00" fill="#000000">+ arg_string()</text>
</g>
<!-- Node2 -->
<g id="node3" class="node">
<title>Node2</title>
<g id="a_node3"><a xlink:href="../../d1/d0b/classutil_1_1auto__timer.html" target="_top" xlink:title="{util.auto_timer\n||+ __init__()\l+ __call__()\l}">
<polygon fill="#ffffff" stroke="#000000" points="0,-.5 0,-76.5 73,-76.5 73,-.5 0,-.5"/>
<text text-anchor="middle" x="36.5" y="-62.9" font-family="Helvetica,sans-Serif" font-size="12.00" fill="#000000">util.auto_timer</text>
<polyline fill="none" stroke="#000000" points="0,-55.5 73,-55.5 "/>
<text text-anchor="middle" x="36.5" y="-41.9" font-family="Helvetica,sans-Serif" font-size="12.00" fill="#000000"> </text>
<polyline fill="none" stroke="#000000" points="0,-34.5 73,-34.5 "/>
<text text-anchor="start" x="8" y="-20.9" font-family="Helvetica,sans-Serif" font-size="12.00" fill="#000000">+ __init__()</text>
<text text-anchor="start" x="8" y="-7.9" font-family="Helvetica,sans-Serif" font-size="12.00" fill="#000000">+ __call__()</text>
</a>
</g>
</g>
<!-- Node0&#45;&gt;Node2 -->
<g id="edge2" class="edge">
<title>Node0&#45;&gt;Node2</title>
<path fill="none" stroke="#191970" d="M82.0275,-104.79C75.3845,-95.1176 68.7408,-85.444 62.6627,-76.594"/>
<polygon fill="none" stroke="#191970" points="79.3043,-107.0073 87.8508,-113.269 85.0745,-103.0444 79.3043,-107.0073"/>
</g>
<!-- Node3 -->
<g id="node4" class="node">
<title>Node3</title>
<g id="a_node4"><a xlink:href="../../d7/d4b/classutil_1_1rss__usage.html" target="_top" xlink:title="{util.rss_usage\n|+ key\l|+ __init__()\l+ __call__()\l}">
<polygon fill="#ffffff" stroke="#000000" points="91.5,-.5 91.5,-76.5 163.5,-76.5 163.5,-.5 91.5,-.5"/>
<text text-anchor="middle" x="127.5" y="-62.9" font-family="Helvetica,sans-Serif" font-size="12.00" fill="#000000">util.rss_usage</text>
<polyline fill="none" stroke="#000000" points="91.5,-55.5 163.5,-55.5 "/>
<text text-anchor="start" x="99.5" y="-41.9" font-family="Helvetica,sans-Serif" font-size="12.00" fill="#000000">+ key</text>
<polyline fill="none" stroke="#000000" points="91.5,-34.5 163.5,-34.5 "/>
<text text-anchor="start" x="99.5" y="-20.9" font-family="Helvetica,sans-Serif" font-size="12.00" fill="#000000">+ __init__()</text>
<text text-anchor="start" x="99.5" y="-7.9" font-family="Helvetica,sans-Serif" font-size="12.00" fill="#000000">+ __call__()</text>
</a>
</g>
</g>
<!-- Node0&#45;&gt;Node3 -->
<g id="edge3" class="edge">
<title>Node0&#45;&gt;Node3</title>
<path fill="none" stroke="#191970" d="M127.5,-103.0316C127.5,-93.9481 127.5,-84.9076 127.5,-76.594"/>
<polygon fill="none" stroke="#191970" points="124.0001,-103.269 127.5,-113.269 131.0001,-103.269 124.0001,-103.269"/>
</g>
<!-- Node4 -->
<g id="node5" class="node">
<title>Node4</title>
<g id="a_node5"><a xlink:href="../../de/d81/classutil_1_1timer.html" target="_top" xlink:title="{util.timer\n|+ key\l|+ __init__()\l+ __call__()\l}">
<polygon fill="#ffffff" stroke="#000000" points="181.5,-.5 181.5,-76.5 245.5,-76.5 245.5,-.5 181.5,-.5"/>
<text text-anchor="middle" x="213.5" y="-62.9" font-family="Helvetica,sans-Serif" font-size="12.00" fill="#000000">util.timer</text>
<polyline fill="none" stroke="#000000" points="181.5,-55.5 245.5,-55.5 "/>
<text text-anchor="start" x="189.5" y="-41.9" font-family="Helvetica,sans-Serif" font-size="12.00" fill="#000000">+ key</text>
<polyline fill="none" stroke="#000000" points="181.5,-34.5 245.5,-34.5 "/>
<text text-anchor="start" x="189.5" y="-20.9" font-family="Helvetica,sans-Serif" font-size="12.00" fill="#000000">+ __init__()</text>
<text text-anchor="start" x="189.5" y="-7.9" font-family="Helvetica,sans-Serif" font-size="12.00" fill="#000000">+ __call__()</text>
</a>
</g>
</g>
<!-- Node0&#45;&gt;Node4 -->
<g id="edge4" class="edge">
<title>Node0&#45;&gt;Node4</title>
<path fill="none" stroke="#191970" d="M170.474,-104.79C176.752,-95.1176 183.0307,-85.444 188.7748,-76.594"/>
<polygon fill="none" stroke="#191970" points="167.4792,-102.9754 164.9707,-113.269 173.3509,-106.7865 167.4792,-102.9754"/>
</g>
<!-- Node1 -->
<g id="node2" class="node">
<title>Node1</title>
<g id="a_node2"><a xlink:href="../../dc/dd8/classobject.html" target="_top" xlink:title="{object\n||}">
<polygon fill="#ffffff" stroke="#000000" points="107,-265.5 107,-328.5 148,-328.5 148,-265.5 107,-265.5"/>
<text text-anchor="middle" x="127.5" y="-314.9" font-family="Helvetica,sans-Serif" font-size="12.00" fill="#000000">object</text>
<polyline fill="none" stroke="#000000" points="107,-307.5 148,-307.5 "/>
<text text-anchor="middle" x="127.5" y="-293.9" font-family="Helvetica,sans-Serif" font-size="12.00" fill="#000000"> </text>
<polyline fill="none" stroke="#000000" points="107,-286.5 148,-286.5 "/>
<text text-anchor="middle" x="127.5" y="-272.9" font-family="Helvetica,sans-Serif" font-size="12.00" fill="#000000"> </text>
</a>
</g>
</g>
<!-- Node1&#45;&gt;Node0 -->
<g id="edge1" class="edge">
<title>Node1&#45;&gt;Node0</title>
<path fill="none" stroke="#191970" d="M127.5,-254.9323C127.5,-246.5453 127.5,-237.5999 127.5,-228.7912"/>
<polygon fill="none" stroke="#191970" points="124.0001,-255.2048 127.5,-265.2049 131.0001,-255.2049 124.0001,-255.2048"/>
</g>
</g>
</svg>
