<?xml version="1.0" encoding="UTF-8" standalone="no"?>
<!DOCTYPE svg PUBLIC "-//W3C//DTD SVG 1.1//EN"
 "http://www.w3.org/Graphics/SVG/1.1/DTD/svg11.dtd">
<!-- Generated by graphviz version 2.40.1 (20161225.0304)
 -->
<!-- Title: timing_manager_wrapper Pages: 1 -->
<svg width="146pt" height="211pt"
 viewBox="0.00 0.00 146.00 211.00" xmlns="http://www.w3.org/2000/svg" xmlns:xlink="http://www.w3.org/1999/xlink">
<g id="graph0" class="graph" transform="scale(1 1) rotate(0) translate(4 207)">
<title>timing_manager_wrapper</title>
<polygon fill="#ffffff" stroke="transparent" points="-4,4 -4,-207 142,-207 142,4 -4,4"/>
<!-- Node1 -->
<g id="node1" class="node">
<title>Node1</title>
<polygon fill="#bfbfbf" stroke="#000000" points="0,-.5 0,-89.5 138,-89.5 138,-.5 0,-.5"/>
<text text-anchor="middle" x="69" y="-75.9" font-family="Helvetica,sans-Serif" font-size="12.00" fill="#000000">timing_manager_wrapper</text>
<polyline fill="none" stroke="#000000" points="0,-68.5 138,-68.5 "/>
<text text-anchor="middle" x="69" y="-54.9" font-family="Helvetica,sans-Serif" font-size="12.00" fill="#000000"> </text>
<polyline fill="none" stroke="#000000" points="0,-47.5 138,-47.5 "/>
<text text-anchor="start" x="8" y="-33.9" font-family="Helvetica,sans-Serif" font-size="12.00" fill="#000000">+ timing_manager_wrapper()</text>
<text text-anchor="start" x="8" y="-20.9" font-family="Helvetica,sans-Serif" font-size="12.00" fill="#000000">+ ~timing_manager_wrapper()</text>
<text text-anchor="start" x="8" y="-7.9" font-family="Helvetica,sans-Serif" font-size="12.00" fill="#000000">+ get()</text>
</g>
<!-- Node2 -->
<g id="node2" class="node">
<title>Node2</title>
<polygon fill="#ffffff" stroke="#bfbfbf" points="21.5,-139.5 21.5,-202.5 116.5,-202.5 116.5,-139.5 21.5,-139.5"/>
<text text-anchor="middle" x="69" y="-188.9" font-family="Helvetica,sans-Serif" font-size="12.00" fill="#000000">timing_manager_t *</text>
<polyline fill="none" stroke="#bfbfbf" points="21.5,-181.5 116.5,-181.5 "/>
<text text-anchor="middle" x="69" y="-167.9" font-family="Helvetica,sans-Serif" font-size="12.00" fill="#000000"> </text>
<polyline fill="none" stroke="#bfbfbf" points="21.5,-160.5 116.5,-160.5 "/>
<text text-anchor="middle" x="69" y="-146.9" font-family="Helvetica,sans-Serif" font-size="12.00" fill="#000000"> </text>
</g>
<!-- Node2&#45;&gt;Node1 -->
<g id="edge1" class="edge">
<title>Node2&#45;&gt;Node1</title>
<path fill="none" stroke="#404040" d="M69,-139.2049C69,-127.824 69,-114.6255 69,-101.7757"/>
<polygon fill="none" stroke="#404040" points="69.0001,-101.6335 65,-95.6335 69,-89.6335 73,-95.6334 69.0001,-101.6335"/>
<text text-anchor="middle" x="96" y="-111.4" font-family="Helvetica,sans-Serif" font-size="12.00" fill="#000000"> &#45;m_manager</text>
</g>
</g>
</svg>
