<?xml version="1.0" encoding="UTF-8" standalone="no"?>
<!DOCTYPE svg PUBLIC "-//W3C//DTD SVG 1.1//EN"
 "http://www.w3.org/Graphics/SVG/1.1/DTD/svg11.dtd">
<!-- Generated by graphviz version 2.40.1 (20161225.0304)
 -->
<!-- Title: tim::rss::usage Pages: 1 -->
<svg width="101pt" height="367pt"
 viewBox="0.00 0.00 100.50 367.00" xmlns="http://www.w3.org/2000/svg" xmlns:xlink="http://www.w3.org/1999/xlink">
<g id="graph0" class="graph" transform="scale(1 1) rotate(0) translate(4 363)">
<title>tim::rss::usage</title>
<polygon fill="#ffffff" stroke="transparent" points="-4,4 -4,-363 96.5,-363 96.5,4 -4,4"/>
<!-- Node1 -->
<g id="node1" class="node">
<title>Node1</title>
<polygon fill="#bfbfbf" stroke="#000000" points="0,-.5 0,-232.5 75,-232.5 75,-.5 0,-.5"/>
<text text-anchor="middle" x="37.5" y="-218.9" font-family="Helvetica,sans-Serif" font-size="12.00" fill="#000000">tim::rss::usage</text>
<polyline fill="none" stroke="#000000" points="0,-211.5 75,-211.5 "/>
<text text-anchor="middle" x="37.5" y="-197.9" font-family="Helvetica,sans-Serif" font-size="12.00" fill="#000000"> </text>
<polyline fill="none" stroke="#000000" points="0,-190.5 75,-190.5 "/>
<text text-anchor="start" x="8" y="-176.9" font-family="Helvetica,sans-Serif" font-size="12.00" fill="#000000">+ usage()</text>
<text text-anchor="start" x="8" y="-163.9" font-family="Helvetica,sans-Serif" font-size="12.00" fill="#000000">+ usage()</text>
<text text-anchor="start" x="8" y="-150.9" font-family="Helvetica,sans-Serif" font-size="12.00" fill="#000000">+ usage()</text>
<text text-anchor="start" x="8" y="-137.9" font-family="Helvetica,sans-Serif" font-size="12.00" fill="#000000">+ operator=()</text>
<text text-anchor="start" x="8" y="-124.9" font-family="Helvetica,sans-Serif" font-size="12.00" fill="#000000">+ record()</text>
<text text-anchor="start" x="8" y="-111.9" font-family="Helvetica,sans-Serif" font-size="12.00" fill="#000000">+ record()</text>
<text text-anchor="start" x="8" y="-98.9" font-family="Helvetica,sans-Serif" font-size="12.00" fill="#000000">+ operator()()</text>
<text text-anchor="start" x="8" y="-85.9" font-family="Helvetica,sans-Serif" font-size="12.00" fill="#000000">+ operator+=()</text>
<text text-anchor="start" x="8" y="-72.9" font-family="Helvetica,sans-Serif" font-size="12.00" fill="#000000">+ operator&#45;=()</text>
<text text-anchor="start" x="8" y="-59.9" font-family="Helvetica,sans-Serif" font-size="12.00" fill="#000000">+ current()</text>
<text text-anchor="start" x="8" y="-46.9" font-family="Helvetica,sans-Serif" font-size="12.00" fill="#000000">+ peak()</text>
<text text-anchor="start" x="8" y="-33.9" font-family="Helvetica,sans-Serif" font-size="12.00" fill="#000000">+ serialize()</text>
<text text-anchor="start" x="8" y="-20.9" font-family="Helvetica,sans-Serif" font-size="12.00" fill="#000000">+ max()</text>
<text text-anchor="start" x="8" y="-7.9" font-family="Helvetica,sans-Serif" font-size="12.00" fill="#000000">+ min()</text>
</g>
<!-- Node2 -->
<g id="node2" class="node">
<title>Node2</title>
<polygon fill="#ffffff" stroke="#bfbfbf" points="15.5,-295.5 15.5,-358.5 59.5,-358.5 59.5,-295.5 15.5,-295.5"/>
<text text-anchor="middle" x="37.5" y="-344.9" font-family="Helvetica,sans-Serif" font-size="12.00" fill="#000000">int64_t</text>
<polyline fill="none" stroke="#bfbfbf" points="15.5,-337.5 59.5,-337.5 "/>
<text text-anchor="middle" x="37.5" y="-323.9" font-family="Helvetica,sans-Serif" font-size="12.00" fill="#000000"> </text>
<polyline fill="none" stroke="#bfbfbf" points="15.5,-316.5 59.5,-316.5 "/>
<text text-anchor="middle" x="37.5" y="-302.9" font-family="Helvetica,sans-Serif" font-size="12.00" fill="#000000"> </text>
</g>
<!-- Node2&#45;&gt;Node1 -->
<g id="edge1" class="edge">
<title>Node2&#45;&gt;Node1</title>
<path fill="none" stroke="#404040" d="M37.5,-295.486C37.5,-281.3063 37.5,-263.5382 37.5,-244.7416"/>
<polygon fill="none" stroke="#404040" points="37.5001,-244.5998 33.5,-238.5998 37.5,-232.5998 41.5,-238.5997 37.5001,-244.5998"/>
<text text-anchor="middle" x="65" y="-267.4" font-family="Helvetica,sans-Serif" font-size="12.00" fill="#000000"> +m_curr_rss</text>
<text text-anchor="middle" x="65" y="-254.4" font-family="Helvetica,sans-Serif" font-size="12.00" fill="#000000">+m_peak_rss</text>
</g>
</g>
</svg>
