<?xml version="1.0" encoding="UTF-8" standalone="no"?>
<!DOCTYPE svg PUBLIC "-//W3C//DTD SVG 1.1//EN"
 "http://www.w3.org/Graphics/SVG/1.1/DTD/svg11.dtd">
<!-- Generated by graphviz version 2.40.1 (20161225.0304)
 -->
<!-- Title: tim::base_clock&lt; _precision &gt; Pages: 1 -->
<svg width="143pt" height="185pt"
 viewBox="0.00 0.00 143.00 185.00" xmlns="http://www.w3.org/2000/svg" xmlns:xlink="http://www.w3.org/1999/xlink">
<g id="graph0" class="graph" transform="scale(1 1) rotate(0) translate(4 181)">
<title>tim::base_clock&lt; _precision &gt;</title>
<polygon fill="#ffffff" stroke="transparent" points="-4,4 -4,-181 139,-181 139,4 -4,4"/>
<!-- Node1 -->
<g id="node1" class="node">
<title>Node1</title>
<polygon fill="#bfbfbf" stroke="#000000" points="0,-.5 0,-63.5 135,-63.5 135,-.5 0,-.5"/>
<text text-anchor="middle" x="67.5" y="-49.9" font-family="Helvetica,sans-Serif" font-size="12.00" fill="#000000">tim::base_clock&lt; _precision &gt;</text>
<polyline fill="none" stroke="#000000" points="0,-42.5 135,-42.5 "/>
<text text-anchor="middle" x="67.5" y="-28.9" font-family="Helvetica,sans-Serif" font-size="12.00" fill="#000000"> </text>
<polyline fill="none" stroke="#000000" points="0,-21.5 135,-21.5 "/>
<text text-anchor="start" x="8" y="-7.9" font-family="Helvetica,sans-Serif" font-size="12.00" fill="#000000">+ now()</text>
</g>
<!-- Node2 -->
<g id="node2" class="node">
<title>Node2</title>
<polygon fill="#ffffff" stroke="#bfbfbf" points="50.5,-113.5 50.5,-176.5 84.5,-176.5 84.5,-113.5 50.5,-113.5"/>
<text text-anchor="middle" x="67.5" y="-162.9" font-family="Helvetica,sans-Serif" font-size="12.00" fill="#000000">bool</text>
<polyline fill="none" stroke="#bfbfbf" points="50.5,-155.5 84.5,-155.5 "/>
<text text-anchor="middle" x="67.5" y="-141.9" font-family="Helvetica,sans-Serif" font-size="12.00" fill="#000000"> </text>
<polyline fill="none" stroke="#bfbfbf" points="50.5,-134.5 84.5,-134.5 "/>
<text text-anchor="middle" x="67.5" y="-120.9" font-family="Helvetica,sans-Serif" font-size="12.00" fill="#000000"> </text>
</g>
<!-- Node2&#45;&gt;Node1 -->
<g id="edge1" class="edge">
<title>Node2&#45;&gt;Node1</title>
<path fill="none" stroke="#404040" d="M67.5,-113.2225C67.5,-101.5703 67.5,-88.1706 67.5,-75.6581"/>
<polygon fill="none" stroke="#404040" points="67.5001,-75.539 63.5,-69.539 67.5,-63.539 71.5,-69.539 67.5001,-75.539"/>
<text text-anchor="middle" x="90.5" y="-85.4" font-family="Helvetica,sans-Serif" font-size="12.00" fill="#000000"> +is_steady</text>
</g>
</g>
</svg>
