<?xml version="1.0" encoding="UTF-8" standalone="no"?>
<!DOCTYPE svg PUBLIC "-//W3C//DTD SVG 1.1//EN"
 "http://www.w3.org/Graphics/SVG/1.1/DTD/svg11.dtd">
<!-- Generated by graphviz version 2.40.1 (20161225.0304)
 -->
<!-- Title: timemory/utility.hpp Pages: 1 -->
<svg width="956pt" height="88pt"
 viewBox="0.00 0.00 955.50 88.00" xmlns="http://www.w3.org/2000/svg" xmlns:xlink="http://www.w3.org/1999/xlink">
<g id="graph0" class="graph" transform="scale(1 1) rotate(0) translate(4 84)">
<title>timemory/utility.hpp</title>
<polygon fill="#ffffff" stroke="transparent" points="-4,4 -4,-84 951.5,-84 951.5,4 -4,4"/>
<!-- Node0 -->
<g id="node1" class="node">
<title>Node0</title>
<polygon fill="#bfbfbf" stroke="#000000" points="375.5,-58.5 375.5,-79.5 469.5,-79.5 469.5,-58.5 375.5,-58.5"/>
<text text-anchor="middle" x="422.5" y="-65.9" font-family="Helvetica,sans-Serif" font-size="12.00" fill="#000000">timemory/utility.hpp</text>
</g>
<!-- Node1 -->
<g id="node2" class="node">
<title>Node1</title>
<polygon fill="#ffffff" stroke="#bfbfbf" points="0,-.5 0,-21.5 51,-21.5 51,-.5 0,-.5"/>
<text text-anchor="middle" x="25.5" y="-7.9" font-family="Helvetica,sans-Serif" font-size="12.00" fill="#000000">iostream</text>
</g>
<!-- Node0&#45;&gt;Node1 -->
<g id="edge1" class="edge">
<title>Node0&#45;&gt;Node1</title>
<path fill="none" stroke="#191970" d="M375.4743,-65.5446C307.8849,-59.999 179.3345,-47.2935 61.2862,-21.8578"/>
<polygon fill="#191970" stroke="#191970" points="61.8742,-18.4037 51.3568,-19.6823 60.3761,-25.2415 61.8742,-18.4037"/>
</g>
<!-- Node2 -->
<g id="node3" class="node">
<title>Node2</title>
<polygon fill="#ffffff" stroke="#bfbfbf" points="69.5,-.5 69.5,-21.5 111.5,-21.5 111.5,-.5 69.5,-.5"/>
<text text-anchor="middle" x="90.5" y="-7.9" font-family="Helvetica,sans-Serif" font-size="12.00" fill="#000000">cstdlib</text>
</g>
<!-- Node0&#45;&gt;Node2 -->
<g id="edge2" class="edge">
<title>Node0&#45;&gt;Node2</title>
<path fill="none" stroke="#191970" d="M375.3559,-64.5713C317.4214,-58.4901 216.1282,-45.7844 121.3782,-21.8445"/>
<polygon fill="#191970" stroke="#191970" points="122.1981,-18.4415 111.6413,-19.338 120.453,-25.2205 122.1981,-18.4415"/>
</g>
<!-- Node3 -->
<g id="node4" class="node">
<title>Node3</title>
<polygon fill="#ffffff" stroke="#bfbfbf" points="130,-.5 130,-21.5 159,-21.5 159,-.5 130,-.5"/>
<text text-anchor="middle" x="144.5" y="-7.9" font-family="Helvetica,sans-Serif" font-size="12.00" fill="#000000">set</text>
</g>
<!-- Node0&#45;&gt;Node3 -->
<g id="edge3" class="edge">
<title>Node0&#45;&gt;Node3</title>
<path fill="none" stroke="#191970" d="M375.0492,-64.0501C325.2649,-58.0238 244.8609,-45.9309 169.0581,-21.947"/>
<polygon fill="#191970" stroke="#191970" points="169.9519,-18.5575 159.3599,-18.8039 167.7937,-25.2165 169.9519,-18.5575"/>
</g>
<!-- Node4 -->
<g id="node5" class="node">
<title>Node4</title>
<polygon fill="#ffffff" stroke="#bfbfbf" points="177,-.5 177,-21.5 216,-21.5 216,-.5 177,-.5"/>
<text text-anchor="middle" x="196.5" y="-7.9" font-family="Helvetica,sans-Serif" font-size="12.00" fill="#000000">string</text>
</g>
<!-- Node0&#45;&gt;Node4 -->
<g id="edge4" class="edge">
<title>Node0&#45;&gt;Node4</title>
<path fill="none" stroke="#191970" d="M375.1861,-59.7341C336.9628,-51.8084 281.6908,-39.3569 225.9388,-22.1896"/>
<polygon fill="#191970" stroke="#191970" points="226.8501,-18.8075 216.2612,-19.1628 224.7605,-25.4884 226.8501,-18.8075"/>
</g>
<!-- Node5 -->
<g id="node6" class="node">
<title>Node5</title>
<polygon fill="#ffffff" stroke="#bfbfbf" points="234,-.5 234,-21.5 283,-21.5 283,-.5 234,-.5"/>
<text text-anchor="middle" x="258.5" y="-7.9" font-family="Helvetica,sans-Serif" font-size="12.00" fill="#000000">sstream</text>
</g>
<!-- Node0&#45;&gt;Node5 -->
<g id="edge5" class="edge">
<title>Node0&#45;&gt;Node5</title>
<path fill="none" stroke="#191970" d="M392.8008,-58.4966C364.6045,-48.5247 322.2482,-33.5451 292.6647,-23.0826"/>
<polygon fill="#191970" stroke="#191970" points="293.7554,-19.756 283.1606,-19.7214 291.4214,-26.3554 293.7554,-19.756"/>
</g>
<!-- Node6 -->
<g id="node7" class="node">
<title>Node6</title>
<polygon fill="#ffffff" stroke="#bfbfbf" points="301.5,-.5 301.5,-21.5 349.5,-21.5 349.5,-.5 301.5,-.5"/>
<text text-anchor="middle" x="325.5" y="-7.9" font-family="Helvetica,sans-Serif" font-size="12.00" fill="#000000">iomanip</text>
</g>
<!-- Node0&#45;&gt;Node6 -->
<g id="edge6" class="edge">
<title>Node0&#45;&gt;Node6</title>
<path fill="none" stroke="#191970" d="M404.7087,-58.3619C389.9415,-49.532 368.7218,-36.844 351.9616,-26.8224"/>
<polygon fill="#191970" stroke="#191970" points="353.5574,-23.6987 343.1785,-21.5707 349.9651,-29.7066 353.5574,-23.6987"/>
</g>
<!-- Node7 -->
<g id="node8" class="node">
<title>Node7</title>
<polygon fill="#ffffff" stroke="#bfbfbf" points="368,-.5 368,-21.5 411,-21.5 411,-.5 368,-.5"/>
<text text-anchor="middle" x="389.5" y="-7.9" font-family="Helvetica,sans-Serif" font-size="12.00" fill="#000000">cstring</text>
</g>
<!-- Node0&#45;&gt;Node7 -->
<g id="edge7" class="edge">
<title>Node0&#45;&gt;Node7</title>
<path fill="none" stroke="#191970" d="M416.4473,-58.3619C412.0281,-50.5949 405.9104,-39.8426 400.6209,-30.5458"/>
<polygon fill="#191970" stroke="#191970" points="403.5017,-28.5315 395.5143,-21.5707 397.4176,-31.9932 403.5017,-28.5315"/>
</g>
<!-- Node8 -->
<g id="node9" class="node">
<title>Node8</title>
<polygon fill="#ffffff" stroke="#bfbfbf" points="429,-.5 429,-21.5 484,-21.5 484,-.5 429,-.5"/>
<text text-anchor="middle" x="456.5" y="-7.9" font-family="Helvetica,sans-Serif" font-size="12.00" fill="#000000">exception</text>
</g>
<!-- Node0&#45;&gt;Node8 -->
<g id="edge8" class="edge">
<title>Node0&#45;&gt;Node8</title>
<path fill="none" stroke="#191970" d="M428.7361,-58.3619C433.3371,-50.5131 439.7252,-39.6159 445.2139,-30.2527"/>
<polygon fill="#191970" stroke="#191970" points="448.2656,-31.9677 450.3034,-21.5707 442.2267,-28.4276 448.2656,-31.9677"/>
</g>
<!-- Node9 -->
<g id="node10" class="node">
<title>Node9</title>
<polygon fill="#ffffff" stroke="#bfbfbf" points="502,-.5 502,-21.5 557,-21.5 557,-.5 502,-.5"/>
<text text-anchor="middle" x="529.5" y="-7.9" font-family="Helvetica,sans-Serif" font-size="12.00" fill="#000000">stdexcept</text>
</g>
<!-- Node0&#45;&gt;Node9 -->
<g id="edge9" class="edge">
<title>Node0&#45;&gt;Node9</title>
<path fill="none" stroke="#191970" d="M442.1254,-58.3619C458.6413,-49.4094 482.4739,-36.4908 501.0778,-26.4064"/>
<polygon fill="#191970" stroke="#191970" points="502.8754,-29.4132 509.999,-21.5707 499.5395,-23.2592 502.8754,-29.4132"/>
</g>
<!-- Node10 -->
<g id="node11" class="node">
<title>Node10</title>
<polygon fill="#ffffff" stroke="#bfbfbf" points="575,-.5 575,-21.5 630,-21.5 630,-.5 575,-.5"/>
<text text-anchor="middle" x="602.5" y="-7.9" font-family="Helvetica,sans-Serif" font-size="12.00" fill="#000000">functional</text>
</g>
<!-- Node0&#45;&gt;Node10 -->
<g id="edge10" class="edge">
<title>Node0&#45;&gt;Node10</title>
<path fill="none" stroke="#191970" d="M455.0966,-58.4966C486.1294,-48.4972 532.7894,-33.4623 565.2709,-22.996"/>
<polygon fill="#191970" stroke="#191970" points="566.4185,-26.3035 574.8632,-19.9052 564.2716,-19.6409 566.4185,-26.3035"/>
</g>
<!-- Node11 -->
<g id="node12" class="node">
<title>Node11</title>
<polygon fill="#ffffff" stroke="#bfbfbf" points="648.5,-.5 648.5,-21.5 690.5,-21.5 690.5,-.5 648.5,-.5"/>
<text text-anchor="middle" x="669.5" y="-7.9" font-family="Helvetica,sans-Serif" font-size="12.00" fill="#000000">deque</text>
</g>
<!-- Node0&#45;&gt;Node11 -->
<g id="edge11" class="edge">
<title>Node0&#45;&gt;Node11</title>
<path fill="none" stroke="#191970" d="M469.5295,-60.7578C511.6391,-52.944 575.1689,-40.0883 638.5571,-22.0053"/>
<polygon fill="#191970" stroke="#191970" points="639.6836,-25.323 648.3152,-19.1791 637.7362,-18.5993 639.6836,-25.323"/>
</g>
<!-- Node12 -->
<g id="node13" class="node">
<title>Node12</title>
<polygon fill="#ffffff" stroke="#bfbfbf" points="709,-.5 709,-21.5 750,-21.5 750,-.5 709,-.5"/>
<text text-anchor="middle" x="729.5" y="-7.9" font-family="Helvetica,sans-Serif" font-size="12.00" fill="#000000">cmath</text>
</g>
<!-- Node0&#45;&gt;Node12 -->
<g id="edge12" class="edge">
<title>Node0&#45;&gt;Node12</title>
<path fill="none" stroke="#191970" d="M469.6209,-63.6798C523.1327,-57.0484 613.0799,-44.1166 698.7878,-21.811"/>
<polygon fill="#191970" stroke="#191970" points="699.9065,-25.1355 708.676,-19.1902 698.1131,-18.3691 699.9065,-25.1355"/>
</g>
<!-- Node13 -->
<g id="node14" class="node">
<title>Node13</title>
<polygon fill="#ffffff" stroke="#bfbfbf" points="768,-.5 768,-21.5 809,-21.5 809,-.5 768,-.5"/>
<text text-anchor="middle" x="788.5" y="-7.9" font-family="Helvetica,sans-Serif" font-size="12.00" fill="#000000">vector</text>
</g>
<!-- Node0&#45;&gt;Node13 -->
<g id="edge13" class="edge">
<title>Node0&#45;&gt;Node13</title>
<path fill="none" stroke="#191970" d="M469.7529,-65.7638C533.5448,-60.6632 650.6957,-48.7143 757.7741,-22.0416"/>
<polygon fill="#191970" stroke="#191970" points="758.9417,-25.3561 767.7712,-19.5002 757.2171,-18.5719 758.9417,-25.3561"/>
</g>
<!-- Node14 -->
<g id="node15" class="node">
<title>Node14</title>
<g id="a_node15"><a xlink:href="../../db/d19/namespace_8hpp.html" target="_top" xlink:title="timemory/namespace.hpp">
<polygon fill="#ffffff" stroke="#000000" points="827.5,-.5 827.5,-21.5 947.5,-21.5 947.5,-.5 827.5,-.5"/>
<text text-anchor="middle" x="887.5" y="-7.9" font-family="Helvetica,sans-Serif" font-size="12.00" fill="#000000">timemory/namespace.hpp</text>
</a>
</g>
</g>
<!-- Node0&#45;&gt;Node14 -->
<g id="edge14" class="edge">
<title>Node0&#45;&gt;Node14</title>
<path fill="none" stroke="#191970" d="M469.5162,-64.0347C541.8789,-56.2577 685.1546,-40.3259 817.0283,-22.1644"/>
<polygon fill="#191970" stroke="#191970" points="817.885,-25.5793 827.3104,-20.7405 816.9248,-18.6454 817.885,-25.5793"/>
</g>
</g>
</svg>
