<?xml version="1.0" encoding="UTF-8" standalone="no"?>
<!DOCTYPE svg PUBLIC "-//W3C//DTD SVG 1.1//EN"
 "http://www.w3.org/Graphics/SVG/1.1/DTD/svg11.dtd">
<!-- Generated by graphviz version 2.40.1 (20161225.0304)
 -->
<!-- Title: timemory/utility.hpp Pages: 1 -->
<svg width="1197pt" height="88pt"
 viewBox="0.00 0.00 1196.50 88.00" xmlns="http://www.w3.org/2000/svg" xmlns:xlink="http://www.w3.org/1999/xlink">
<g id="graph0" class="graph" transform="scale(1 1) rotate(0) translate(4 84)">
<title>timemory/utility.hpp</title>
<polygon fill="#ffffff" stroke="transparent" points="-4,4 -4,-84 1192.5,-84 1192.5,4 -4,4"/>
<!-- Node0 -->
<g id="node1" class="node">
<title>Node0</title>
<polygon fill="#bfbfbf" stroke="#000000" points="518.5,-58.5 518.5,-79.5 612.5,-79.5 612.5,-58.5 518.5,-58.5"/>
<text text-anchor="middle" x="565.5" y="-65.9" font-family="Helvetica,sans-Serif" font-size="12.00" fill="#000000">timemory/utility.hpp</text>
</g>
<!-- Node1 -->
<g id="node2" class="node">
<title>Node1</title>
<polygon fill="#ffffff" stroke="#bfbfbf" points="0,-.5 0,-21.5 43,-21.5 43,-.5 0,-.5"/>
<text text-anchor="middle" x="21.5" y="-7.9" font-family="Helvetica,sans-Serif" font-size="12.00" fill="#000000">cstdint</text>
</g>
<!-- Node0&#45;&gt;Node1 -->
<g id="edge1" class="edge">
<title>Node0&#45;&gt;Node1</title>
<path fill="none" stroke="#191970" d="M518.4293,-66.1947C412.6474,-59.6547 157.8613,-42.5274 53.2571,-21.6052"/>
<polygon fill="#191970" stroke="#191970" points="53.8258,-18.1481 43.3179,-19.5027 52.377,-24.9965 53.8258,-18.1481"/>
</g>
<!-- Node2 -->
<g id="node3" class="node">
<title>Node2</title>
<polygon fill="#ffffff" stroke="#bfbfbf" points="61.5,-.5 61.5,-21.5 103.5,-21.5 103.5,-.5 61.5,-.5"/>
<text text-anchor="middle" x="82.5" y="-7.9" font-family="Helvetica,sans-Serif" font-size="12.00" fill="#000000">cstdlib</text>
</g>
<!-- Node0&#45;&gt;Node2 -->
<g id="edge2" class="edge">
<title>Node0&#45;&gt;Node2</title>
<path fill="none" stroke="#191970" d="M518.2425,-67.9398C436.9351,-65.2865 265.4711,-56.0561 113.5825,-21.7713"/>
<polygon fill="#191970" stroke="#191970" points="114.1375,-18.3077 103.6073,-19.4766 112.5681,-25.1295 114.1375,-18.3077"/>
</g>
<!-- Node3 -->
<g id="node4" class="node">
<title>Node3</title>
<polygon fill="#ffffff" stroke="#bfbfbf" points="122,-.5 122,-21.5 165,-21.5 165,-.5 122,-.5"/>
<text text-anchor="middle" x="143.5" y="-7.9" font-family="Helvetica,sans-Serif" font-size="12.00" fill="#000000">cstring</text>
</g>
<!-- Node0&#45;&gt;Node3 -->
<g id="edge3" class="edge">
<title>Node0&#45;&gt;Node3</title>
<path fill="none" stroke="#191970" d="M518.4167,-66.8843C446.0695,-62.8678 303.2949,-51.9091 175.2503,-22.023"/>
<polygon fill="#191970" stroke="#191970" points="175.813,-18.5592 165.2743,-19.6485 174.192,-25.369 175.813,-18.5592"/>
</g>
<!-- Node4 -->
<g id="node5" class="node">
<title>Node4</title>
<polygon fill="#ffffff" stroke="#bfbfbf" points="183,-.5 183,-21.5 224,-21.5 224,-.5 183,-.5"/>
<text text-anchor="middle" x="203.5" y="-7.9" font-family="Helvetica,sans-Serif" font-size="12.00" fill="#000000">cmath</text>
</g>
<!-- Node0&#45;&gt;Node4 -->
<g id="edge4" class="edge">
<title>Node0&#45;&gt;Node4</title>
<path fill="none" stroke="#191970" d="M518.2571,-65.6561C455.0955,-60.4596 339.7083,-48.427 234.0911,-22.0122"/>
<polygon fill="#191970" stroke="#191970" points="234.7848,-18.5771 224.2299,-19.496 233.0541,-25.3598 234.7848,-18.5771"/>
</g>
<!-- Node5 -->
<g id="node6" class="node">
<title>Node5</title>
<polygon fill="#ffffff" stroke="#bfbfbf" points="242,-.5 242,-21.5 281,-21.5 281,-.5 242,-.5"/>
<text text-anchor="middle" x="261.5" y="-7.9" font-family="Helvetica,sans-Serif" font-size="12.00" fill="#000000">string</text>
</g>
<!-- Node0&#45;&gt;Node5 -->
<g id="edge5" class="edge">
<title>Node0&#45;&gt;Node5</title>
<path fill="none" stroke="#191970" d="M518.4635,-63.9791C465.0665,-57.6216 375.3694,-44.9505 290.9479,-22.0223"/>
<polygon fill="#191970" stroke="#191970" points="291.7846,-18.6223 281.2131,-19.3254 289.9157,-25.3682 291.7846,-18.6223"/>
</g>
<!-- Node6 -->
<g id="node7" class="node">
<title>Node6</title>
<polygon fill="#ffffff" stroke="#bfbfbf" points="299,-.5 299,-21.5 348,-21.5 348,-.5 299,-.5"/>
<text text-anchor="middle" x="323.5" y="-7.9" font-family="Helvetica,sans-Serif" font-size="12.00" fill="#000000">sstream</text>
</g>
<!-- Node0&#45;&gt;Node6 -->
<g id="edge6" class="edge">
<title>Node0&#45;&gt;Node6</title>
<path fill="none" stroke="#191970" d="M518.2647,-59.7919C477.9283,-51.612 418.2067,-38.7544 358.2892,-22.3337"/>
<polygon fill="#191970" stroke="#191970" points="358.8555,-18.8587 348.2838,-19.5583 356.9844,-25.604 358.8555,-18.8587"/>
</g>
<!-- Node7 -->
<g id="node8" class="node">
<title>Node7</title>
<polygon fill="#ffffff" stroke="#bfbfbf" points="366,-.5 366,-21.5 417,-21.5 417,-.5 366,-.5"/>
<text text-anchor="middle" x="391.5" y="-7.9" font-family="Helvetica,sans-Serif" font-size="12.00" fill="#000000">iostream</text>
</g>
<!-- Node0&#45;&gt;Node7 -->
<g id="edge7" class="edge">
<title>Node0&#45;&gt;Node7</title>
<path fill="none" stroke="#191970" d="M533.9899,-58.4966C503.7674,-48.4225 458.2119,-33.2373 426.7865,-22.7622"/>
<polygon fill="#191970" stroke="#191970" points="427.711,-19.3811 417.1173,-19.5391 425.4973,-26.0218 427.711,-19.3811"/>
</g>
<!-- Node8 -->
<g id="node9" class="node">
<title>Node8</title>
<polygon fill="#ffffff" stroke="#bfbfbf" points="435.5,-.5 435.5,-21.5 483.5,-21.5 483.5,-.5 435.5,-.5"/>
<text text-anchor="middle" x="459.5" y="-7.9" font-family="Helvetica,sans-Serif" font-size="12.00" fill="#000000">iomanip</text>
</g>
<!-- Node0&#45;&gt;Node8 -->
<g id="edge8" class="edge">
<title>Node0&#45;&gt;Node8</title>
<path fill="none" stroke="#191970" d="M546.058,-58.3619C529.6964,-49.4094 506.0866,-36.4908 487.6565,-26.4064"/>
<polygon fill="#191970" stroke="#191970" points="489.2715,-23.3004 478.8188,-21.5707 485.9114,-29.4412 489.2715,-23.3004"/>
</g>
<!-- Node9 -->
<g id="node10" class="node">
<title>Node9</title>
<polygon fill="#ffffff" stroke="#bfbfbf" points="502,-.5 502,-21.5 557,-21.5 557,-.5 502,-.5"/>
<text text-anchor="middle" x="529.5" y="-7.9" font-family="Helvetica,sans-Serif" font-size="12.00" fill="#000000">exception</text>
</g>
<!-- Node0&#45;&gt;Node9 -->
<g id="edge9" class="edge">
<title>Node0&#45;&gt;Node9</title>
<path fill="none" stroke="#191970" d="M558.897,-58.3619C554.0254,-50.5131 547.2616,-39.6159 541.45,-30.2527"/>
<polygon fill="#191970" stroke="#191970" points="544.3085,-28.2213 536.0611,-21.5707 538.361,-31.9129 544.3085,-28.2213"/>
</g>
<!-- Node10 -->
<g id="node11" class="node">
<title>Node10</title>
<polygon fill="#ffffff" stroke="#bfbfbf" points="575,-.5 575,-21.5 630,-21.5 630,-.5 575,-.5"/>
<text text-anchor="middle" x="602.5" y="-7.9" font-family="Helvetica,sans-Serif" font-size="12.00" fill="#000000">stdexcept</text>
</g>
<!-- Node0&#45;&gt;Node10 -->
<g id="edge10" class="edge">
<title>Node0&#45;&gt;Node10</title>
<path fill="none" stroke="#191970" d="M572.2864,-58.3619C577.2934,-50.5131 584.245,-39.6159 590.2181,-30.2527"/>
<polygon fill="#191970" stroke="#191970" points="593.3292,-31.8837 595.7567,-21.5707 587.4277,-28.1189 593.3292,-31.8837"/>
</g>
<!-- Node11 -->
<g id="node12" class="node">
<title>Node11</title>
<polygon fill="#ffffff" stroke="#bfbfbf" points="648,-.5 648,-21.5 703,-21.5 703,-.5 648,-.5"/>
<text text-anchor="middle" x="675.5" y="-7.9" font-family="Helvetica,sans-Serif" font-size="12.00" fill="#000000">functional</text>
</g>
<!-- Node0&#45;&gt;Node11 -->
<g id="edge11" class="edge">
<title>Node0&#45;&gt;Node11</title>
<path fill="none" stroke="#191970" d="M585.4202,-58.4966C602.446,-49.5194 627.1692,-36.4835 646.4093,-26.3387"/>
<polygon fill="#191970" stroke="#191970" points="648.1431,-29.3814 655.3563,-21.6212 644.8782,-23.1894 648.1431,-29.3814"/>
</g>
<!-- Node12 -->
<g id="node13" class="node">
<title>Node12</title>
<polygon fill="#ffffff" stroke="#bfbfbf" points="721.5,-.5 721.5,-21.5 763.5,-21.5 763.5,-.5 721.5,-.5"/>
<text text-anchor="middle" x="742.5" y="-7.9" font-family="Helvetica,sans-Serif" font-size="12.00" fill="#000000">deque</text>
</g>
<!-- Node0&#45;&gt;Node12 -->
<g id="edge12" class="edge">
<title>Node0&#45;&gt;Node12</title>
<path fill="none" stroke="#191970" d="M599.7924,-58.483C627.6279,-49.847 668.0971,-37.0685 711.6103,-22.2231"/>
<polygon fill="#191970" stroke="#191970" points="712.9102,-25.4774 721.234,-18.9226 710.6394,-18.856 712.9102,-25.4774"/>
</g>
<!-- Node13 -->
<g id="node14" class="node">
<title>Node13</title>
<polygon fill="#ffffff" stroke="#bfbfbf" points="782,-.5 782,-21.5 811,-21.5 811,-.5 782,-.5"/>
<text text-anchor="middle" x="796.5" y="-7.9" font-family="Helvetica,sans-Serif" font-size="12.00" fill="#000000">set</text>
</g>
<!-- Node0&#45;&gt;Node13 -->
<g id="edge13" class="edge">
<title>Node0&#45;&gt;Node13</title>
<path fill="none" stroke="#191970" d="M612.7121,-61.1556C655.1716,-53.4273 718.9206,-40.1439 772.5,-22 772.5977,-21.9669 772.6955,-21.9336 772.7934,-21.9"/>
<polygon fill="#191970" stroke="#191970" points="773.9803,-25.1948 781.9717,-18.2386 771.3866,-18.693 773.9803,-25.1948"/>
</g>
<!-- Node14 -->
<g id="node15" class="node">
<title>Node14</title>
<polygon fill="#ffffff" stroke="#bfbfbf" points="829,-.5 829,-21.5 870,-21.5 870,-.5 829,-.5"/>
<text text-anchor="middle" x="849.5" y="-7.9" font-family="Helvetica,sans-Serif" font-size="12.00" fill="#000000">vector</text>
</g>
<!-- Node0&#45;&gt;Node14 -->
<g id="edge14" class="edge">
<title>Node0&#45;&gt;Node14</title>
<path fill="none" stroke="#191970" d="M612.608,-62.9151C662.1079,-55.947 742.2656,-43.0387 818.9266,-22.1163"/>
<polygon fill="#191970" stroke="#191970" points="820.044,-25.4385 828.741,-19.3876 818.1689,-18.6943 820.044,-25.4385"/>
</g>
<!-- Node15 -->
<g id="node16" class="node">
<title>Node15</title>
<polygon fill="#ffffff" stroke="#bfbfbf" points="888,-.5 888,-21.5 931,-21.5 931,-.5 888,-.5"/>
<text text-anchor="middle" x="909.5" y="-7.9" font-family="Helvetica,sans-Serif" font-size="12.00" fill="#000000">atomic</text>
</g>
<!-- Node0&#45;&gt;Node15 -->
<g id="edge15" class="edge">
<title>Node0&#45;&gt;Node15</title>
<path fill="none" stroke="#191970" d="M612.6401,-64.9525C672.59,-59.146 779.2802,-46.6065 877.8852,-22.0639"/>
<polygon fill="#191970" stroke="#191970" points="878.8747,-25.4238 887.7068,-19.572 877.1531,-18.6388 878.8747,-25.4238"/>
</g>
<!-- Node16 -->
<g id="node17" class="node">
<title>Node16</title>
<polygon fill="#ffffff" stroke="#bfbfbf" points="949,-.5 949,-21.5 990,-21.5 990,-.5 949,-.5"/>
<text text-anchor="middle" x="969.5" y="-7.9" font-family="Helvetica,sans-Serif" font-size="12.00" fill="#000000">mutex</text>
</g>
<!-- Node0&#45;&gt;Node16 -->
<g id="edge16" class="edge">
<title>Node0&#45;&gt;Node16</title>
<path fill="none" stroke="#191970" d="M612.632,-66.6916C682.4591,-62.4899 817.4115,-51.3723 938.938,-21.9657"/>
<polygon fill="#191970" stroke="#191970" points="939.9105,-25.3308 948.7802,-19.5361 938.2328,-18.5348 939.9105,-25.3308"/>
</g>
<!-- Node17 -->
<g id="node18" class="node">
<title>Node17</title>
<polygon fill="#ffffff" stroke="#bfbfbf" points="1008.5,-.5 1008.5,-21.5 1050.5,-21.5 1050.5,-.5 1008.5,-.5"/>
<text text-anchor="middle" x="1029.5" y="-7.9" font-family="Helvetica,sans-Serif" font-size="12.00" fill="#000000">thread</text>
</g>
<!-- Node0&#45;&gt;Node17 -->
<g id="edge17" class="edge">
<title>Node0&#45;&gt;Node17</title>
<path fill="none" stroke="#191970" d="M612.6917,-67.6414C691.2777,-64.568 853.8006,-54.7601 998.4486,-21.775"/>
<polygon fill="#191970" stroke="#191970" points="999.4419,-25.1375 1008.3898,-19.4644 997.8571,-18.3193 999.4419,-25.1375"/>
</g>
<!-- Node18 -->
<g id="node19" class="node">
<title>Node18</title>
<g id="a_node19"><a xlink:href="../../db/d19/namespace_8hpp.html" target="_top" xlink:title="timemory/namespace.hpp">
<polygon fill="#ffffff" stroke="#000000" points="1068.5,-.5 1068.5,-21.5 1188.5,-21.5 1188.5,-.5 1068.5,-.5"/>
<text text-anchor="middle" x="1128.5" y="-7.9" font-family="Helvetica,sans-Serif" font-size="12.00" fill="#000000">timemory/namespace.hpp</text>
</a>
</g>
</g>
<!-- Node0&#45;&gt;Node18 -->
<g id="edge18" class="edge">
<title>Node0&#45;&gt;Node18</title>
<path fill="none" stroke="#191970" d="M612.6078,-65.5158C698.8816,-58.9177 888.2526,-43.4304 1058.1899,-22.1047"/>
<polygon fill="#191970" stroke="#191970" points="1058.8396,-25.5505 1068.3214,-20.8233 1057.9612,-18.6058 1058.8396,-25.5505"/>
</g>
</g>
</svg>
