<?xml version="1.0" encoding="UTF-8" standalone="no"?>
<!DOCTYPE svg PUBLIC "-//W3C//DTD SVG 1.1//EN"
 "http://www.w3.org/Graphics/SVG/1.1/DTD/svg11.dtd">
<!-- Generated by graphviz version 2.40.1 (20161225.0304)
 -->
<!-- Title: timemory/utility.hpp Pages: 1 -->
<svg width="1252pt" height="88pt"
 viewBox="0.00 0.00 1251.50 88.00" xmlns="http://www.w3.org/2000/svg" xmlns:xlink="http://www.w3.org/1999/xlink">
<g id="graph0" class="graph" transform="scale(1 1) rotate(0) translate(4 84)">
<title>timemory/utility.hpp</title>
<polygon fill="#ffffff" stroke="transparent" points="-4,4 -4,-84 1247.5,-84 1247.5,4 -4,4"/>
<!-- Node0 -->
<g id="node1" class="node">
<title>Node0</title>
<polygon fill="#bfbfbf" stroke="#000000" points="555.5,-58.5 555.5,-79.5 649.5,-79.5 649.5,-58.5 555.5,-58.5"/>
<text text-anchor="middle" x="602.5" y="-65.9" font-family="Helvetica,sans-Serif" font-size="12.00" fill="#000000">timemory/utility.hpp</text>
</g>
<!-- Node1 -->
<g id="node2" class="node">
<title>Node1</title>
<polygon fill="#ffffff" stroke="#bfbfbf" points="0,-.5 0,-21.5 43,-21.5 43,-.5 0,-.5"/>
<text text-anchor="middle" x="21.5" y="-7.9" font-family="Helvetica,sans-Serif" font-size="12.00" fill="#000000">cstdint</text>
</g>
<!-- Node0&#45;&gt;Node1 -->
<g id="edge1" class="edge">
<title>Node0&#45;&gt;Node1</title>
<path fill="none" stroke="#191970" d="M555.4662,-66.5293C444.0466,-60.4348 165.5883,-43.7281 53.3315,-21.6073"/>
<polygon fill="#191970" stroke="#191970" points="53.8179,-18.1335 43.3141,-19.5199 52.3898,-24.9863 53.8179,-18.1335"/>
</g>
<!-- Node2 -->
<g id="node3" class="node">
<title>Node2</title>
<polygon fill="#ffffff" stroke="#bfbfbf" points="61.5,-.5 61.5,-21.5 103.5,-21.5 103.5,-.5 61.5,-.5"/>
<text text-anchor="middle" x="82.5" y="-7.9" font-family="Helvetica,sans-Serif" font-size="12.00" fill="#000000">cstdlib</text>
</g>
<!-- Node0&#45;&gt;Node2 -->
<g id="edge2" class="edge">
<title>Node0&#45;&gt;Node2</title>
<path fill="none" stroke="#191970" d="M555.1742,-66.0086C452.9118,-59.3023 213.1819,-42.2144 113.6324,-21.6895"/>
<polygon fill="#191970" stroke="#191970" points="114.1192,-18.2133 103.6025,-19.4978 112.6248,-25.052 114.1192,-18.2133"/>
</g>
<!-- Node3 -->
<g id="node4" class="node">
<title>Node3</title>
<polygon fill="#ffffff" stroke="#bfbfbf" points="122,-.5 122,-21.5 165,-21.5 165,-.5 122,-.5"/>
<text text-anchor="middle" x="143.5" y="-7.9" font-family="Helvetica,sans-Serif" font-size="12.00" fill="#000000">cstring</text>
</g>
<!-- Node0&#45;&gt;Node3 -->
<g id="edge3" class="edge">
<title>Node0&#45;&gt;Node3</title>
<path fill="none" stroke="#191970" d="M555.2133,-67.5541C477.2883,-64.3636 317.1316,-54.3992 175.0331,-21.9479"/>
<polygon fill="#191970" stroke="#191970" points="175.801,-18.5332 165.2679,-19.6752 174.2142,-25.351 175.801,-18.5332"/>
</g>
<!-- Node4 -->
<g id="node5" class="node">
<title>Node4</title>
<polygon fill="#ffffff" stroke="#bfbfbf" points="183,-.5 183,-21.5 224,-21.5 224,-.5 183,-.5"/>
<text text-anchor="middle" x="203.5" y="-7.9" font-family="Helvetica,sans-Serif" font-size="12.00" fill="#000000">cmath</text>
</g>
<!-- Node0&#45;&gt;Node4 -->
<g id="edge4" class="edge">
<title>Node0&#45;&gt;Node4</title>
<path fill="none" stroke="#191970" d="M555.411,-66.5838C486.4124,-62.2689 353.8765,-51.0411 234.2753,-22.0217"/>
<polygon fill="#191970" stroke="#191970" points="234.769,-18.5383 224.2209,-19.5318 233.0863,-25.333 234.769,-18.5383"/>
</g>
<!-- Node5 -->
<g id="node6" class="node">
<title>Node5</title>
<polygon fill="#ffffff" stroke="#bfbfbf" points="242,-.5 242,-21.5 281,-21.5 281,-.5 242,-.5"/>
<text text-anchor="middle" x="261.5" y="-7.9" font-family="Helvetica,sans-Serif" font-size="12.00" fill="#000000">string</text>
</g>
<!-- Node0&#45;&gt;Node5 -->
<g id="edge5" class="edge">
<title>Node0&#45;&gt;Node5</title>
<path fill="none" stroke="#191970" d="M555.4254,-65.2608C495.5775,-59.7788 389.1306,-47.5908 290.9755,-21.9788"/>
<polygon fill="#191970" stroke="#191970" points="291.7634,-18.5667 281.1995,-19.3753 289.9619,-25.3309 291.7634,-18.5667"/>
</g>
<!-- Node6 -->
<g id="node7" class="node">
<title>Node6</title>
<polygon fill="#ffffff" stroke="#bfbfbf" points="299,-.5 299,-21.5 348,-21.5 348,-.5 299,-.5"/>
<text text-anchor="middle" x="323.5" y="-7.9" font-family="Helvetica,sans-Serif" font-size="12.00" fill="#000000">sstream</text>
</g>
<!-- Node0&#45;&gt;Node6 -->
<g id="edge6" class="edge">
<title>Node0&#45;&gt;Node6</title>
<path fill="none" stroke="#191970" d="M555.3839,-61.9106C507.7008,-54.311 431.7444,-41.0437 358.1551,-22.2157"/>
<polygon fill="#191970" stroke="#191970" points="358.8189,-18.7721 348.2602,-19.6461 357.0594,-25.5474 358.8189,-18.7721"/>
</g>
<!-- Node7 -->
<g id="node8" class="node">
<title>Node7</title>
<polygon fill="#ffffff" stroke="#bfbfbf" points="366,-.5 366,-21.5 417,-21.5 417,-.5 366,-.5"/>
<text text-anchor="middle" x="391.5" y="-7.9" font-family="Helvetica,sans-Serif" font-size="12.00" fill="#000000">iostream</text>
</g>
<!-- Node0&#45;&gt;Node7 -->
<g id="edge7" class="edge">
<title>Node0&#45;&gt;Node7</title>
<path fill="none" stroke="#191970" d="M561.1081,-58.4897C527.4475,-49.8206 478.5106,-36.9424 426.7666,-21.9939"/>
<polygon fill="#191970" stroke="#191970" points="427.6546,-18.6072 417.0752,-19.1791 425.7022,-25.3295 427.6546,-18.6072"/>
</g>
<!-- Node8 -->
<g id="node9" class="node">
<title>Node8</title>
<polygon fill="#ffffff" stroke="#bfbfbf" points="435.5,-.5 435.5,-21.5 483.5,-21.5 483.5,-.5 435.5,-.5"/>
<text text-anchor="middle" x="459.5" y="-7.9" font-family="Helvetica,sans-Serif" font-size="12.00" fill="#000000">iomanip</text>
</g>
<!-- Node0&#45;&gt;Node8 -->
<g id="edge8" class="edge">
<title>Node0&#45;&gt;Node8</title>
<path fill="none" stroke="#191970" d="M576.6038,-58.4966C553.195,-49.0022 518.5934,-34.968 493.069,-24.6154"/>
<polygon fill="#191970" stroke="#191970" points="494.3555,-21.3603 483.7732,-20.8451 491.7245,-27.8471 494.3555,-21.3603"/>
</g>
<!-- Node9 -->
<g id="node10" class="node">
<title>Node9</title>
<polygon fill="#ffffff" stroke="#bfbfbf" points="502,-.5 502,-21.5 557,-21.5 557,-.5 502,-.5"/>
<text text-anchor="middle" x="529.5" y="-7.9" font-family="Helvetica,sans-Serif" font-size="12.00" fill="#000000">exception</text>
</g>
<!-- Node0&#45;&gt;Node9 -->
<g id="edge9" class="edge">
<title>Node0&#45;&gt;Node9</title>
<path fill="none" stroke="#191970" d="M589.1107,-58.3619C578.4088,-49.859 563.204,-37.7785 550.8293,-27.9466"/>
<polygon fill="#191970" stroke="#191970" points="552.8113,-25.0511 542.8044,-21.5707 548.4568,-30.5318 552.8113,-25.0511"/>
</g>
<!-- Node10 -->
<g id="node11" class="node">
<title>Node10</title>
<polygon fill="#ffffff" stroke="#bfbfbf" points="575,-.5 575,-21.5 630,-21.5 630,-.5 575,-.5"/>
<text text-anchor="middle" x="602.5" y="-7.9" font-family="Helvetica,sans-Serif" font-size="12.00" fill="#000000">stdexcept</text>
</g>
<!-- Node0&#45;&gt;Node10 -->
<g id="edge10" class="edge">
<title>Node0&#45;&gt;Node10</title>
<path fill="none" stroke="#191970" d="M602.5,-58.3619C602.5,-50.9219 602.5,-40.7427 602.5,-31.7276"/>
<polygon fill="#191970" stroke="#191970" points="606.0001,-31.5706 602.5,-21.5707 599.0001,-31.5707 606.0001,-31.5706"/>
</g>
<!-- Node11 -->
<g id="node12" class="node">
<title>Node11</title>
<polygon fill="#ffffff" stroke="#bfbfbf" points="648,-.5 648,-21.5 703,-21.5 703,-.5 648,-.5"/>
<text text-anchor="middle" x="675.5" y="-7.9" font-family="Helvetica,sans-Serif" font-size="12.00" fill="#000000">functional</text>
</g>
<!-- Node0&#45;&gt;Node11 -->
<g id="edge11" class="edge">
<title>Node0&#45;&gt;Node11</title>
<path fill="none" stroke="#191970" d="M615.8893,-58.3619C626.5912,-49.859 641.796,-37.7785 654.1707,-27.9466"/>
<polygon fill="#191970" stroke="#191970" points="656.5432,-30.5318 662.1956,-21.5707 652.1887,-25.0511 656.5432,-30.5318"/>
</g>
<!-- Node12 -->
<g id="node13" class="node">
<title>Node12</title>
<polygon fill="#ffffff" stroke="#bfbfbf" points="721,-.5 721,-21.5 758,-21.5 758,-.5 721,-.5"/>
<text text-anchor="middle" x="739.5" y="-7.9" font-family="Helvetica,sans-Serif" font-size="12.00" fill="#000000">limits</text>
</g>
<!-- Node0&#45;&gt;Node12 -->
<g id="edge12" class="edge">
<title>Node0&#45;&gt;Node12</title>
<path fill="none" stroke="#191970" d="M627.3097,-58.4966C650.9989,-48.4676 686.6528,-33.3733 711.3837,-22.9033"/>
<polygon fill="#191970" stroke="#191970" points="712.7571,-26.1226 720.6013,-19.0009 710.028,-19.6765 712.7571,-26.1226"/>
</g>
<!-- Node13 -->
<g id="node14" class="node">
<title>Node13</title>
<polygon fill="#ffffff" stroke="#bfbfbf" points="776.5,-.5 776.5,-21.5 818.5,-21.5 818.5,-.5 776.5,-.5"/>
<text text-anchor="middle" x="797.5" y="-7.9" font-family="Helvetica,sans-Serif" font-size="12.00" fill="#000000">deque</text>
</g>
<!-- Node0&#45;&gt;Node13 -->
<g id="edge13" class="edge">
<title>Node0&#45;&gt;Node13</title>
<path fill="none" stroke="#191970" d="M642.7607,-58.4258C674.2271,-49.9613 719.235,-37.418 766.7329,-22.1063"/>
<polygon fill="#191970" stroke="#191970" points="767.8349,-25.4284 776.2623,-19.0074 765.6701,-18.7715 767.8349,-25.4284"/>
</g>
<!-- Node14 -->
<g id="node15" class="node">
<title>Node14</title>
<polygon fill="#ffffff" stroke="#bfbfbf" points="837,-.5 837,-21.5 866,-21.5 866,-.5 837,-.5"/>
<text text-anchor="middle" x="851.5" y="-7.9" font-family="Helvetica,sans-Serif" font-size="12.00" fill="#000000">set</text>
</g>
<!-- Node0&#45;&gt;Node14 -->
<g id="edge14" class="edge">
<title>Node0&#45;&gt;Node14</title>
<path fill="none" stroke="#191970" d="M649.8424,-62.2733C695.9375,-54.9897 767.6072,-41.7047 827.5,-22 827.598,-21.9678 827.6961,-21.9353 827.7943,-21.9025"/>
<polygon fill="#191970" stroke="#191970" points="828.9651,-25.2031 836.9858,-18.2807 826.3988,-18.6905 828.9651,-25.2031"/>
</g>
<!-- Node15 -->
<g id="node16" class="node">
<title>Node15</title>
<polygon fill="#ffffff" stroke="#bfbfbf" points="884,-.5 884,-21.5 925,-21.5 925,-.5 884,-.5"/>
<text text-anchor="middle" x="904.5" y="-7.9" font-family="Helvetica,sans-Serif" font-size="12.00" fill="#000000">vector</text>
</g>
<!-- Node0&#45;&gt;Node15 -->
<g id="edge15" class="edge">
<title>Node0&#45;&gt;Node15</title>
<path fill="none" stroke="#191970" d="M649.9589,-63.6393C702.8047,-57.0508 790.7675,-44.2404 873.9,-22.0928"/>
<polygon fill="#191970" stroke="#191970" points="875.0162,-25.4165 883.7494,-19.4179 873.1816,-18.6611 875.0162,-25.4165"/>
</g>
<!-- Node16 -->
<g id="node17" class="node">
<title>Node16</title>
<polygon fill="#ffffff" stroke="#bfbfbf" points="943,-.5 943,-21.5 986,-21.5 986,-.5 943,-.5"/>
<text text-anchor="middle" x="964.5" y="-7.9" font-family="Helvetica,sans-Serif" font-size="12.00" fill="#000000">atomic</text>
</g>
<!-- Node0&#45;&gt;Node16 -->
<g id="edge16" class="edge">
<title>Node0&#45;&gt;Node16</title>
<path fill="none" stroke="#191970" d="M649.5605,-65.4812C712.4869,-60.0891 827.4758,-47.8328 932.8711,-22.0474"/>
<polygon fill="#191970" stroke="#191970" points="933.8564,-25.409 942.712,-19.5927 932.1622,-18.6171 933.8564,-25.409"/>
</g>
<!-- Node17 -->
<g id="node18" class="node">
<title>Node17</title>
<polygon fill="#ffffff" stroke="#bfbfbf" points="1004,-.5 1004,-21.5 1045,-21.5 1045,-.5 1004,-.5"/>
<text text-anchor="middle" x="1024.5" y="-7.9" font-family="Helvetica,sans-Serif" font-size="12.00" fill="#000000">mutex</text>
</g>
<!-- Node0&#45;&gt;Node17 -->
<g id="edge17" class="edge">
<title>Node0&#45;&gt;Node17</title>
<path fill="none" stroke="#191970" d="M649.7432,-67.0613C722.3272,-63.2782 865.5353,-52.6284 993.7917,-21.9866"/>
<polygon fill="#191970" stroke="#191970" points="994.8973,-25.3196 1003.7838,-19.5508 993.2394,-18.5188 994.8973,-25.3196"/>
</g>
<!-- Node18 -->
<g id="node19" class="node">
<title>Node18</title>
<polygon fill="#ffffff" stroke="#bfbfbf" points="1063.5,-.5 1063.5,-21.5 1105.5,-21.5 1105.5,-.5 1063.5,-.5"/>
<text text-anchor="middle" x="1084.5" y="-7.9" font-family="Helvetica,sans-Serif" font-size="12.00" fill="#000000">thread</text>
</g>
<!-- Node0&#45;&gt;Node18 -->
<g id="edge18" class="edge">
<title>Node0&#45;&gt;Node18</title>
<path fill="none" stroke="#191970" d="M649.6532,-67.928C730.7813,-65.2569 901.8669,-56.0003 1053.4382,-21.7672"/>
<polygon fill="#191970" stroke="#191970" points="1054.4324,-25.13 1063.3925,-19.476 1052.8622,-18.3083 1054.4324,-25.13"/>
</g>
<!-- Node19 -->
<g id="node20" class="node">
<title>Node19</title>
<g id="a_node20"><a xlink:href="../../db/d19/namespace_8hpp.html" target="_top" xlink:title="timemory/namespace.hpp">
<polygon fill="#ffffff" stroke="#000000" points="1123.5,-.5 1123.5,-21.5 1243.5,-21.5 1243.5,-.5 1123.5,-.5"/>
<text text-anchor="middle" x="1183.5" y="-7.9" font-family="Helvetica,sans-Serif" font-size="12.00" fill="#000000">timemory/namespace.hpp</text>
</a>
</g>
</g>
<!-- Node0&#45;&gt;Node19 -->
<g id="edge19" class="edge">
<title>Node0&#45;&gt;Node19</title>
<path fill="none" stroke="#191970" d="M649.5558,-65.7331C738.2122,-59.3492 936.2574,-44.0027 1113.3048,-22.0852"/>
<polygon fill="#191970" stroke="#191970" points="1113.8333,-25.5465 1123.3229,-20.8351 1112.9664,-18.6004 1113.8333,-25.5465"/>
</g>
</g>
</svg>
