<?xml version="1.0" encoding="UTF-8" standalone="no"?>
<!DOCTYPE svg PUBLIC "-//W3C//DTD SVG 1.1//EN"
 "http://www.w3.org/Graphics/SVG/1.1/DTD/svg11.dtd">
<!-- Generated by graphviz version 2.40.1 (20161225.0304)
 -->
<!-- Title: timemory/base_timer.hpp Pages: 1 -->
<svg width="688pt" height="275pt"
 viewBox="0.00 0.00 688.00 275.00" xmlns="http://www.w3.org/2000/svg" xmlns:xlink="http://www.w3.org/1999/xlink">
<g id="graph0" class="graph" transform="scale(1 1) rotate(0) translate(4 271)">
<title>timemory/base_timer.hpp</title>
<polygon fill="#ffffff" stroke="transparent" points="-4,4 -4,-271 684,-271 684,4 -4,4"/>
<!-- Node42 -->
<g id="node1" class="node">
<title>Node42</title>
<polygon fill="#bfbfbf" stroke="#000000" points="244.5,-245.5 244.5,-266.5 362.5,-266.5 362.5,-245.5 244.5,-245.5"/>
<text text-anchor="middle" x="303.5" y="-252.9" font-family="Helvetica,sans-Serif" font-size="12.00" fill="#000000">timemory/base_timer.hpp</text>
</g>
<!-- Node43 -->
<g id="node2" class="node">
<title>Node43</title>
<g id="a_node2"><a xlink:href="../../dd/d84/base__timer_8cpp.html" target="_top" xlink:title="base_timer.cpp">
<polygon fill="#ffffff" stroke="#000000" points="212.5,-187.5 212.5,-208.5 290.5,-208.5 290.5,-187.5 212.5,-187.5"/>
<text text-anchor="middle" x="251.5" y="-194.9" font-family="Helvetica,sans-Serif" font-size="12.00" fill="#000000">base_timer.cpp</text>
</a>
</g>
</g>
<!-- Node42&#45;&gt;Node43 -->
<g id="edge1" class="edge">
<title>Node42&#45;&gt;Node43</title>
<path fill="none" stroke="#191970" d="M287.2096,-237.8299C278.5829,-228.2078 268.2908,-216.7282 260.9771,-208.5707"/>
<polygon fill="#191970" stroke="#191970" points="284.6809,-240.2526 293.9624,-245.3619 289.8929,-235.5798 284.6809,-240.2526"/>
</g>
<!-- Node44 -->
<g id="node3" class="node">
<title>Node44</title>
<g id="a_node3"><a xlink:href="../../df/d05/timer_8hpp.html" target="_top" xlink:title="timemory/timer.hpp">
<polygon fill="#ffffff" stroke="#000000" points="308.5,-187.5 308.5,-208.5 402.5,-208.5 402.5,-187.5 308.5,-187.5"/>
<text text-anchor="middle" x="355.5" y="-194.9" font-family="Helvetica,sans-Serif" font-size="12.00" fill="#000000">timemory/timer.hpp</text>
</a>
</g>
</g>
<!-- Node42&#45;&gt;Node44 -->
<g id="edge2" class="edge">
<title>Node42&#45;&gt;Node44</title>
<path fill="none" stroke="#191970" d="M319.7904,-237.8299C328.4171,-228.2078 338.7092,-216.7282 346.0229,-208.5707"/>
<polygon fill="#191970" stroke="#191970" points="317.1071,-235.5798 313.0376,-245.3619 322.3191,-240.2526 317.1071,-235.5798"/>
</g>
<!-- Node45 -->
<g id="node4" class="node">
<title>Node45</title>
<g id="a_node4"><a xlink:href="../../da/d04/manager_8hpp.html" target="_top" xlink:title="timemory/manager.hpp">
<polygon fill="#ffffff" stroke="#000000" points="301,-129.5 301,-150.5 410,-150.5 410,-129.5 301,-129.5"/>
<text text-anchor="middle" x="355.5" y="-136.9" font-family="Helvetica,sans-Serif" font-size="12.00" fill="#000000">timemory/manager.hpp</text>
</a>
</g>
</g>
<!-- Node44&#45;&gt;Node45 -->
<g id="edge3" class="edge">
<title>Node44&#45;&gt;Node45</title>
<path fill="none" stroke="#191970" d="M355.5,-177.1906C355.5,-168.1684 355.5,-157.9941 355.5,-150.5707"/>
<polygon fill="#191970" stroke="#191970" points="352.0001,-177.3619 355.5,-187.3619 359.0001,-177.3619 352.0001,-177.3619"/>
</g>
<!-- Node49 -->
<g id="node8" class="node">
<title>Node49</title>
<g id="a_node8"><a xlink:href="../../d2/dfd/timemory_8cc.html" target="_top" xlink:title="timemory.cc">
<polygon fill="#ffffff" stroke="#000000" points="0,-7 0,-28 65,-28 65,-7 0,-7"/>
<text text-anchor="middle" x="32.5" y="-14.4" font-family="Helvetica,sans-Serif" font-size="12.00" fill="#000000">timemory.cc</text>
</a>
</g>
</g>
<!-- Node44&#45;&gt;Node49 -->
<g id="edge15" class="edge">
<title>Node44&#45;&gt;Node49</title>
<path fill="none" stroke="#191970" d="M327.4656,-182.3337C263.1365,-146.3851 106.2672,-58.7228 51.637,-28.1942"/>
<polygon fill="#191970" stroke="#191970" points="325.8253,-185.4265 336.2622,-187.2495 329.2401,-179.3159 325.8253,-185.4265"/>
</g>
<!-- Node53 -->
<g id="node12" class="node">
<title>Node53</title>
<g id="a_node12"><a xlink:href="../../dc/de5/timer_8cpp.html" target="_top" xlink:title="timer.cpp">
<polygon fill="#ffffff" stroke="#000000" points="428.5,-129.5 428.5,-150.5 482.5,-150.5 482.5,-129.5 428.5,-129.5"/>
<text text-anchor="middle" x="455.5" y="-136.9" font-family="Helvetica,sans-Serif" font-size="12.00" fill="#000000">timer.cpp</text>
</a>
</g>
</g>
<!-- Node44&#45;&gt;Node53 -->
<g id="edge16" class="edge">
<title>Node44&#45;&gt;Node53</title>
<path fill="none" stroke="#191970" d="M382.9122,-182.1009C400.2141,-172.0658 422.0848,-159.3808 437.2747,-150.5707"/>
<polygon fill="#191970" stroke="#191970" points="380.7358,-179.3171 373.8415,-187.3619 384.2479,-185.3723 380.7358,-179.3171"/>
</g>
<!-- Node46 -->
<g id="node5" class="node">
<title>Node46</title>
<g id="a_node5"><a xlink:href="../../d8/d07/auto__timer_8hpp.html" target="_top" xlink:title="timemory/auto_timer.hpp">
<polygon fill="#ffffff" stroke="#000000" points="254.5,-71.5 254.5,-92.5 370.5,-92.5 370.5,-71.5 254.5,-71.5"/>
<text text-anchor="middle" x="312.5" y="-78.9" font-family="Helvetica,sans-Serif" font-size="12.00" fill="#000000">timemory/auto_timer.hpp</text>
</a>
</g>
</g>
<!-- Node45&#45;&gt;Node46 -->
<g id="edge4" class="edge">
<title>Node45&#45;&gt;Node46</title>
<path fill="none" stroke="#191970" d="M341.5994,-121.2504C334.556,-111.75 326.2638,-100.5651 320.3369,-92.5707"/>
<polygon fill="#191970" stroke="#191970" points="338.8459,-123.4132 347.6131,-129.3619 344.4691,-119.2443 338.8459,-123.4132"/>
</g>
<!-- Node48 -->
<g id="node7" class="node">
<title>Node48</title>
<g id="a_node7"><a xlink:href="../../d0/db0/manager_8cpp.html" target="_top" xlink:title="manager.cpp">
<polygon fill="#ffffff" stroke="#000000" points="611,-7 611,-28 680,-28 680,-7 611,-7"/>
<text text-anchor="middle" x="645.5" y="-14.4" font-family="Helvetica,sans-Serif" font-size="12.00" fill="#000000">manager.cpp</text>
</a>
</g>
</g>
<!-- Node45&#45;&gt;Node48 -->
<g id="edge11" class="edge">
<title>Node45&#45;&gt;Node48</title>
<path fill="none" stroke="#191970" d="M389.7565,-125.5296C448.8304,-100.576 568.5162,-50.019 620.481,-28.0684"/>
<polygon fill="#191970" stroke="#191970" points="388.3262,-122.3343 380.4762,-129.4497 391.0501,-128.7826 388.3262,-122.3343"/>
</g>
<!-- Node45&#45;&gt;Node49 -->
<g id="edge12" class="edge">
<title>Node45&#45;&gt;Node49</title>
<path fill="none" stroke="#191970" d="M316.0288,-125.9656C261.2907,-106.3526 159.3669,-69.2892 73.5,-35 68.0375,-32.8187 62.2049,-30.3902 56.7033,-28.0535"/>
<polygon fill="#191970" stroke="#191970" points="315.0914,-129.3474 325.686,-129.4201 317.4492,-122.7564 315.0914,-129.3474"/>
</g>
<!-- Node50 -->
<g id="node9" class="node">
<title>Node50</title>
<g id="a_node9"><a xlink:href="../../d0/d90/ex1_2test__timing_8cpp.html" target="_top" xlink:title="examples/ex1/test_timing.cpp">
<polygon fill="#ffffff" stroke="#000000" points="331,-7 331,-28 466,-28 466,-7 331,-7"/>
<text text-anchor="middle" x="398.5" y="-14.4" font-family="Helvetica,sans-Serif" font-size="12.00" fill="#000000">examples/ex1/test_timing.cpp</text>
</a>
</g>
</g>
<!-- Node45&#45;&gt;Node50 -->
<g id="edge13" class="edge">
<title>Node45&#45;&gt;Node50</title>
<path fill="none" stroke="#191970" d="M366.648,-120.6107C371.0937,-112.3025 375.9802,-102.3702 379.5,-93 387.8652,-70.7306 393.7087,-43.3961 396.544,-28.4867"/>
<polygon fill="#191970" stroke="#191970" points="363.5161,-119.0418 361.7399,-129.4867 369.6419,-122.4292 363.5161,-119.0418"/>
</g>
<!-- Node51 -->
<g id="node10" class="node">
<title>Node51</title>
<g id="a_node10"><a xlink:href="../../dd/d0a/mpi__test__timing_8cpp.html" target="_top" xlink:title="examples/ex2/mpi_test\l_timing.cpp">
<polygon fill="#ffffff" stroke="#000000" points="484,-.5 484,-34.5 593,-34.5 593,-.5 484,-.5"/>
<text text-anchor="start" x="492" y="-20.9" font-family="Helvetica,sans-Serif" font-size="12.00" fill="#000000">examples/ex2/mpi_test</text>
<text text-anchor="middle" x="538.5" y="-7.9" font-family="Helvetica,sans-Serif" font-size="12.00" fill="#000000">_timing.cpp</text>
</a>
</g>
</g>
<!-- Node45&#45;&gt;Node51 -->
<g id="edge14" class="edge">
<title>Node45&#45;&gt;Node51</title>
<path fill="none" stroke="#191970" d="M379.9914,-123.6055C414.6514,-100.4041 477.7063,-58.1952 512.9395,-34.6101"/>
<polygon fill="#191970" stroke="#191970" points="377.783,-120.872 371.4199,-129.3432 381.6769,-126.689 377.783,-120.872"/>
</g>
<!-- Node47 -->
<g id="node6" class="node">
<title>Node47</title>
<g id="a_node6"><a xlink:href="../../d2/d80/auto__timer_8cpp.html" target="_top" xlink:title="auto_timer.cpp">
<polygon fill="#ffffff" stroke="#000000" points="236.5,-7 236.5,-28 312.5,-28 312.5,-7 236.5,-7"/>
<text text-anchor="middle" x="274.5" y="-14.4" font-family="Helvetica,sans-Serif" font-size="12.00" fill="#000000">auto_timer.cpp</text>
</a>
</g>
</g>
<!-- Node46&#45;&gt;Node47 -->
<g id="edge5" class="edge">
<title>Node46&#45;&gt;Node47</title>
<path fill="none" stroke="#191970" d="M301.1089,-62.6651C294.5008,-51.4487 286.4217,-37.7356 280.9113,-28.3823"/>
<polygon fill="#191970" stroke="#191970" points="298.1334,-64.5098 306.2251,-71.3491 304.1646,-60.9566 298.1334,-64.5098"/>
</g>
<!-- Node46&#45;&gt;Node48 -->
<g id="edge6" class="edge">
<title>Node46&#45;&gt;Node48</title>
<path fill="none" stroke="#191970" d="M380.565,-75.3657C439.9383,-68.5424 527.9933,-55.9085 602.5,-35 609.0185,-33.1708 615.8888,-30.6578 622.1783,-28.1068"/>
<polygon fill="#191970" stroke="#191970" points="380.1025,-71.8955 370.5567,-76.492 380.8854,-78.8516 380.1025,-71.8955"/>
</g>
<!-- Node46&#45;&gt;Node49 -->
<g id="edge7" class="edge">
<title>Node46&#45;&gt;Node49</title>
<path fill="none" stroke="#191970" d="M244.163,-72.4593C195.8493,-64.7742 129.9068,-52.3743 73.5,-35 67.4349,-33.1318 61.0487,-30.665 55.1693,-28.1746"/>
<polygon fill="#191970" stroke="#191970" points="243.7746,-75.941 254.1952,-74.0277 244.8559,-69.025 243.7746,-75.941"/>
</g>
<!-- Node46&#45;&gt;Node50 -->
<g id="edge8" class="edge">
<title>Node46&#45;&gt;Node50</title>
<path fill="none" stroke="#191970" d="M334.8111,-65.2666C350.4284,-53.5537 370.8258,-38.2556 384.2778,-28.1667"/>
<polygon fill="#191970" stroke="#191970" points="332.6012,-62.5491 326.7012,-71.3491 336.8012,-68.1491 332.6012,-62.5491"/>
</g>
<!-- Node46&#45;&gt;Node51 -->
<g id="edge9" class="edge">
<title>Node46&#45;&gt;Node51</title>
<path fill="none" stroke="#191970" d="M359.1482,-68.6867C395.4215,-58.3343 445.8201,-43.9507 483.9583,-33.0661"/>
<polygon fill="#191970" stroke="#191970" points="357.9693,-65.3833 349.3138,-71.4934 359.8904,-72.1146 357.9693,-65.3833"/>
</g>
<!-- Node52 -->
<g id="node11" class="node">
<title>Node52</title>
<g id="a_node11"><a xlink:href="../../d2/dc1/ex3_2test__timing_8cpp.html" target="_top" xlink:title="examples/ex3/test_timing.cpp">
<polygon fill="#ffffff" stroke="#000000" points="83,-7 83,-28 218,-28 218,-7 83,-7"/>
<text text-anchor="middle" x="150.5" y="-14.4" font-family="Helvetica,sans-Serif" font-size="12.00" fill="#000000">examples/ex3/test_timing.cpp</text>
</a>
</g>
</g>
<!-- Node46&#45;&gt;Node52 -->
<g id="edge10" class="edge">
<title>Node46&#45;&gt;Node52</title>
<path fill="none" stroke="#191970" d="M276.7811,-67.7786C246.5982,-55.7613 204.0561,-38.8233 176.8774,-28.0021"/>
<polygon fill="#191970" stroke="#191970" points="275.526,-71.046 286.1114,-71.4934 278.1154,-64.5425 275.526,-71.046"/>
</g>
</g>
</svg>
