<?xml version="1.0" encoding="UTF-8" standalone="no"?>
<!DOCTYPE svg PUBLIC "-//W3C//DTD SVG 1.1//EN"
 "http://www.w3.org/Graphics/SVG/1.1/DTD/svg11.dtd">
<!-- Generated by graphviz version 2.40.1 (20161225.0304)
 -->
<!-- Title: manager_wrapper Pages: 1 -->
<svg width="946pt" height="1057pt"
 viewBox="0.00 0.00 945.50 1057.00" xmlns="http://www.w3.org/2000/svg" xmlns:xlink="http://www.w3.org/1999/xlink">
<g id="graph0" class="graph" transform="scale(1 1) rotate(0) translate(4 1053)">
<title>manager_wrapper</title>
<polygon fill="#ffffff" stroke="transparent" points="-4,4 -4,-1053 941.5,-1053 941.5,4 -4,4"/>
<!-- Node1 -->
<g id="node1" class="node">
<title>Node1</title>
<polygon fill="#bfbfbf" stroke="#000000" points="432,-.5 432,-89.5 541,-89.5 541,-.5 432,-.5"/>
<text text-anchor="middle" x="486.5" y="-75.9" font-family="Helvetica,sans-Serif" font-size="12.00" fill="#000000">manager_wrapper</text>
<polyline fill="none" stroke="#000000" points="432,-68.5 541,-68.5 "/>
<text text-anchor="middle" x="486.5" y="-54.9" font-family="Helvetica,sans-Serif" font-size="12.00" fill="#000000"> </text>
<polyline fill="none" stroke="#000000" points="432,-47.5 541,-47.5 "/>
<text text-anchor="start" x="440" y="-33.9" font-family="Helvetica,sans-Serif" font-size="12.00" fill="#000000">+ manager_wrapper()</text>
<text text-anchor="start" x="440" y="-20.9" font-family="Helvetica,sans-Serif" font-size="12.00" fill="#000000">+ ~manager_wrapper()</text>
<text text-anchor="start" x="440" y="-7.9" font-family="Helvetica,sans-Serif" font-size="12.00" fill="#000000">+ get()</text>
</g>
<!-- Node2 -->
<g id="node2" class="node">
<title>Node2</title>
<g id="a_node2"><a xlink:href="../../df/dd1/class_n_a_m_e___t_i_m_1_1manager.html" target="_top" xlink:title="{NAME_TIM::manager\n||+ manager()\l+ ~manager()\l+ merge()\l+ size()\l+ clear()\l+ timer()\l+ at()\l+ time()\l+ time()\l+ time()\land 31 more...\l+ instance()\l+ is_enabled()\l+ enable()\l+ write_json()\l+ write_json()\l+ max_depth()\l# string_hash()\l# const_merge()\l# get_prefix()\l# write_json_no_mpi()\l# write_json_mpi()\l# write_json_no_mpi()\l# write_json_mpi()\l# get_communicator_group()\l&#45; get_ofstream()\l&#45; report()\l}">
<polygon fill="#ffffff" stroke="#000000" points="374.5,-139.5 374.5,-540.5 506.5,-540.5 506.5,-139.5 374.5,-139.5"/>
<text text-anchor="middle" x="440.5" y="-526.9" font-family="Helvetica,sans-Serif" font-size="12.00" fill="#000000">NAME_TIM::manager</text>
<polyline fill="none" stroke="#000000" points="374.5,-519.5 506.5,-519.5 "/>
<text text-anchor="middle" x="440.5" y="-505.9" font-family="Helvetica,sans-Serif" font-size="12.00" fill="#000000"> </text>
<polyline fill="none" stroke="#000000" points="374.5,-498.5 506.5,-498.5 "/>
<text text-anchor="start" x="382.5" y="-484.9" font-family="Helvetica,sans-Serif" font-size="12.00" fill="#000000">+ manager()</text>
<text text-anchor="start" x="382.5" y="-471.9" font-family="Helvetica,sans-Serif" font-size="12.00" fill="#000000">+ ~manager()</text>
<text text-anchor="start" x="382.5" y="-458.9" font-family="Helvetica,sans-Serif" font-size="12.00" fill="#000000">+ merge()</text>
<text text-anchor="start" x="382.5" y="-445.9" font-family="Helvetica,sans-Serif" font-size="12.00" fill="#000000">+ size()</text>
<text text-anchor="start" x="382.5" y="-432.9" font-family="Helvetica,sans-Serif" font-size="12.00" fill="#000000">+ clear()</text>
<text text-anchor="start" x="382.5" y="-419.9" font-family="Helvetica,sans-Serif" font-size="12.00" fill="#000000">+ timer()</text>
<text text-anchor="start" x="382.5" y="-406.9" font-family="Helvetica,sans-Serif" font-size="12.00" fill="#000000">+ at()</text>
<text text-anchor="start" x="382.5" y="-393.9" font-family="Helvetica,sans-Serif" font-size="12.00" fill="#000000">+ time()</text>
<text text-anchor="start" x="382.5" y="-380.9" font-family="Helvetica,sans-Serif" font-size="12.00" fill="#000000">+ time()</text>
<text text-anchor="start" x="382.5" y="-367.9" font-family="Helvetica,sans-Serif" font-size="12.00" fill="#000000">+ time()</text>
<text text-anchor="start" x="382.5" y="-354.9" font-family="Helvetica,sans-Serif" font-size="12.00" fill="#000000">and 31 more...</text>
<text text-anchor="start" x="382.5" y="-341.9" font-family="Helvetica,sans-Serif" font-size="12.00" fill="#000000">+ instance()</text>
<text text-anchor="start" x="382.5" y="-328.9" font-family="Helvetica,sans-Serif" font-size="12.00" fill="#000000">+ is_enabled()</text>
<text text-anchor="start" x="382.5" y="-315.9" font-family="Helvetica,sans-Serif" font-size="12.00" fill="#000000">+ enable()</text>
<text text-anchor="start" x="382.5" y="-302.9" font-family="Helvetica,sans-Serif" font-size="12.00" fill="#000000">+ write_json()</text>
<text text-anchor="start" x="382.5" y="-289.9" font-family="Helvetica,sans-Serif" font-size="12.00" fill="#000000">+ write_json()</text>
<text text-anchor="start" x="382.5" y="-276.9" font-family="Helvetica,sans-Serif" font-size="12.00" fill="#000000">+ max_depth()</text>
<text text-anchor="start" x="382.5" y="-263.9" font-family="Helvetica,sans-Serif" font-size="12.00" fill="#000000"># string_hash()</text>
<text text-anchor="start" x="382.5" y="-250.9" font-family="Helvetica,sans-Serif" font-size="12.00" fill="#000000"># const_merge()</text>
<text text-anchor="start" x="382.5" y="-237.9" font-family="Helvetica,sans-Serif" font-size="12.00" fill="#000000"># get_prefix()</text>
<text text-anchor="start" x="382.5" y="-224.9" font-family="Helvetica,sans-Serif" font-size="12.00" fill="#000000"># write_json_no_mpi()</text>
<text text-anchor="start" x="382.5" y="-211.9" font-family="Helvetica,sans-Serif" font-size="12.00" fill="#000000"># write_json_mpi()</text>
<text text-anchor="start" x="382.5" y="-198.9" font-family="Helvetica,sans-Serif" font-size="12.00" fill="#000000"># write_json_no_mpi()</text>
<text text-anchor="start" x="382.5" y="-185.9" font-family="Helvetica,sans-Serif" font-size="12.00" fill="#000000"># write_json_mpi()</text>
<text text-anchor="start" x="382.5" y="-172.9" font-family="Helvetica,sans-Serif" font-size="12.00" fill="#000000"># get_communicator_group()</text>
<text text-anchor="start" x="382.5" y="-159.9" font-family="Helvetica,sans-Serif" font-size="12.00" fill="#000000">&#45; get_ofstream()</text>
<text text-anchor="start" x="382.5" y="-146.9" font-family="Helvetica,sans-Serif" font-size="12.00" fill="#000000">&#45; report()</text>
</a>
</g>
</g>
<!-- Node2&#45;&gt;Node1 -->
<g id="edge1" class="edge">
<title>Node2&#45;&gt;Node1</title>
<path fill="none" stroke="#404040" d="M471.8188,-139.1509C473.8983,-125.8152 475.8729,-113.152 477.6607,-101.687"/>
<polygon fill="none" stroke="#404040" points="477.6744,-101.5983 474.6467,-95.0536 479.5234,-89.7415 482.5511,-96.2862 477.6744,-101.5983"/>
<text text-anchor="middle" x="504.5" y="-111.4" font-family="Helvetica,sans-Serif" font-size="12.00" fill="#000000"> #m_manager</text>
</g>
<!-- Node2&#45;&gt;Node2 -->
<g id="edge3" class="edge">
<title>Node2&#45;&gt;Node2</title>
<path fill="none" stroke="#404040" d="M506.7015,-378.6777C517.2676,-373.0176 524.5,-360.125 524.5,-340 524.5,-326.4785 521.2352,-316.2219 515.888,-309.23"/>
<polygon fill="none" stroke="#404040" points="515.7961,-309.151 508.6392,-308.2682 506.7015,-301.3223 513.8583,-302.2051 515.7961,-309.151"/>
<text text-anchor="middle" x="548" y="-336.9" font-family="Helvetica,sans-Serif" font-size="12.00" fill="#000000"> &#45;f_instance</text>
</g>
<!-- Node11 -->
<g id="node11" class="node">
<title>Node11</title>
<polygon fill="#ffffff" stroke="#bfbfbf" points="303,-13.5 303,-76.5 406,-76.5 406,-13.5 303,-13.5"/>
<text text-anchor="middle" x="354.5" y="-62.9" font-family="Helvetica,sans-Serif" font-size="12.00" fill="#000000">std::set&lt; this_type * &gt;</text>
<polyline fill="none" stroke="#bfbfbf" points="303,-55.5 406,-55.5 "/>
<text text-anchor="middle" x="354.5" y="-41.9" font-family="Helvetica,sans-Serif" font-size="12.00" fill="#000000"> </text>
<polyline fill="none" stroke="#bfbfbf" points="303,-34.5 406,-34.5 "/>
<text text-anchor="middle" x="354.5" y="-20.9" font-family="Helvetica,sans-Serif" font-size="12.00" fill="#000000"> </text>
</g>
<!-- Node2&#45;&gt;Node11 -->
<g id="edge12" class="edge">
<title>Node2&#45;&gt;Node11</title>
<path fill="none" stroke="#404040" d="M374.4535,-200.2044C364.9363,-174.3934 356.6364,-147.2818 351.5,-121 349.4793,-110.6607 349.0095,-99.3845 349.3201,-88.7594"/>
<polygon fill="none" stroke="#404040" points="349.3255,-88.6621 345.6676,-82.4476 349.9971,-76.6809 353.6551,-82.8954 349.3255,-88.6621"/>
<text text-anchor="middle" x="365" y="-111.4" font-family="Helvetica,sans-Serif" font-size="12.00" fill="#000000"> +keys</text>
</g>
<!-- Node3 -->
<g id="node3" class="node">
<title>Node3</title>
<polygon fill="#ffffff" stroke="#bfbfbf" points="47,-610 47,-673 96,-673 96,-610 47,-610"/>
<text text-anchor="middle" x="71.5" y="-659.4" font-family="Helvetica,sans-Serif" font-size="12.00" fill="#000000">uint64_t</text>
<polyline fill="none" stroke="#bfbfbf" points="47,-652 96,-652 "/>
<text text-anchor="middle" x="71.5" y="-638.4" font-family="Helvetica,sans-Serif" font-size="12.00" fill="#000000"> </text>
<polyline fill="none" stroke="#bfbfbf" points="47,-631 96,-631 "/>
<text text-anchor="middle" x="71.5" y="-617.4" font-family="Helvetica,sans-Serif" font-size="12.00" fill="#000000"> </text>
</g>
<!-- Node3&#45;&gt;Node2 -->
<g id="edge2" class="edge">
<title>Node3&#45;&gt;Node2</title>
<path fill="none" stroke="#404040" d="M92.6586,-609.9652C104.2933,-593.8016 119.575,-574.3456 135.5,-559 206.1999,-490.8726 299.2827,-427.1038 363.9385,-386.1468"/>
<polygon fill="none" stroke="#404040" points="364.3079,-385.9142 367.2549,-379.3328 374.4636,-379.5218 371.5166,-386.1032 364.3079,-385.9142"/>
<text text-anchor="middle" x="156" y="-575.4" font-family="Helvetica,sans-Serif" font-size="12.00" fill="#000000"> &#45;m_count</text>
<text text-anchor="middle" x="156" y="-562.4" font-family="Helvetica,sans-Serif" font-size="12.00" fill="#000000">&#45;m_hash</text>
</g>
<!-- Node4 -->
<g id="node4" class="node">
<title>Node4</title>
<polygon fill="#ffffff" stroke="#bfbfbf" points="114.5,-610 114.5,-673 180.5,-673 180.5,-610 114.5,-610"/>
<text text-anchor="middle" x="147.5" y="-659.4" font-family="Helvetica,sans-Serif" font-size="12.00" fill="#000000">rss_usage_t</text>
<polyline fill="none" stroke="#bfbfbf" points="114.5,-652 180.5,-652 "/>
<text text-anchor="middle" x="147.5" y="-638.4" font-family="Helvetica,sans-Serif" font-size="12.00" fill="#000000"> </text>
<polyline fill="none" stroke="#bfbfbf" points="114.5,-631 180.5,-631 "/>
<text text-anchor="middle" x="147.5" y="-617.4" font-family="Helvetica,sans-Serif" font-size="12.00" fill="#000000"> </text>
</g>
<!-- Node4&#45;&gt;Node2 -->
<g id="edge4" class="edge">
<title>Node4&#45;&gt;Node2</title>
<path fill="none" stroke="#404040" d="M164.2113,-609.9309C173.3539,-593.943 185.4606,-574.656 198.5,-559 248.3238,-499.1782 314.374,-440.4869 364.8816,-398.9441"/>
<polygon fill="none" stroke="#404040" points="365.1525,-398.7228 367.2677,-391.8289 374.4449,-391.1299 372.3297,-398.0238 365.1525,-398.7228"/>
<text text-anchor="middle" x="228.5" y="-568.9" font-family="Helvetica,sans-Serif" font-size="12.00" fill="#000000"> &#45;m_rss_usage</text>
</g>
<!-- Node5 -->
<g id="node5" class="node">
<title>Node5</title>
<polygon fill="#ffffff" stroke="#bfbfbf" points="199,-610 199,-673 240,-673 240,-610 199,-610"/>
<text text-anchor="middle" x="219.5" y="-659.4" font-family="Helvetica,sans-Serif" font-size="12.00" fill="#000000">mutex</text>
<polyline fill="none" stroke="#bfbfbf" points="199,-652 240,-652 "/>
<text text-anchor="middle" x="219.5" y="-638.4" font-family="Helvetica,sans-Serif" font-size="12.00" fill="#000000"> </text>
<polyline fill="none" stroke="#bfbfbf" points="199,-631 240,-631 "/>
<text text-anchor="middle" x="219.5" y="-617.4" font-family="Helvetica,sans-Serif" font-size="12.00" fill="#000000"> </text>
</g>
<!-- Node5&#45;&gt;Node2 -->
<g id="edge5" class="edge">
<title>Node5&#45;&gt;Node2</title>
<path fill="none" stroke="#404040" d="M240.0927,-613.4064C268.8183,-574.2173 322.4035,-501.1136 366.941,-440.3532"/>
<polygon fill="none" stroke="#404040" points="367.1949,-440.0067 367.5159,-432.8027 374.2892,-430.3283 373.9682,-437.5323 367.1949,-440.0067"/>
<text text-anchor="middle" x="301" y="-568.9" font-family="Helvetica,sans-Serif" font-size="12.00" fill="#000000"> &#45;m_mutex</text>
</g>
<!-- Node6 -->
<g id="node6" class="node">
<title>Node6</title>
<polygon fill="#ffffff" stroke="#bfbfbf" points="258.5,-610 258.5,-673 384.5,-673 384.5,-610 258.5,-610"/>
<text text-anchor="middle" x="321.5" y="-659.4" font-family="Helvetica,sans-Serif" font-size="12.00" fill="#000000">std::deque&lt; timer_tuple_t &gt;</text>
<polyline fill="none" stroke="#bfbfbf" points="258.5,-652 384.5,-652 "/>
<text text-anchor="middle" x="321.5" y="-638.4" font-family="Helvetica,sans-Serif" font-size="12.00" fill="#000000"> </text>
<polyline fill="none" stroke="#bfbfbf" points="258.5,-631 384.5,-631 "/>
<text text-anchor="middle" x="321.5" y="-617.4" font-family="Helvetica,sans-Serif" font-size="12.00" fill="#000000"> </text>
</g>
<!-- Node6&#45;&gt;Node2 -->
<g id="edge6" class="edge">
<title>Node6&#45;&gt;Node2</title>
<path fill="none" stroke="#404040" d="M334.0102,-609.8041C343.0563,-586.8847 356.081,-553.8852 369.9353,-518.7838"/>
<polygon fill="none" stroke="#404040" points="370.0529,-518.4855 368.5351,-511.4359 374.4586,-507.3235 375.9764,-514.373 370.0529,-518.4855"/>
<text text-anchor="middle" x="380" y="-568.9" font-family="Helvetica,sans-Serif" font-size="12.00" fill="#000000"> &#45;m_timer_list</text>
</g>
<!-- Node7 -->
<g id="node7" class="node">
<title>Node7</title>
<g id="a_node7"><a xlink:href="../../d4/ddd/struct_n_a_m_e___t_i_m_1_1timer__tuple.html" target="_top" xlink:title="{NAME_TIM::timer_tuple\n||+ timer_tuple()\l+ timer_tuple()\l+ operator=()\l+ operator==()\l+ operator!=()\l+ operator+=()\l+ operator+()\l+ key()\l+ key()\l+ level()\land 6 more...\l}">
<polygon fill="#ffffff" stroke="#000000" points="202,-729.5 202,-922.5 315,-922.5 315,-729.5 202,-729.5"/>
<text text-anchor="middle" x="258.5" y="-908.9" font-family="Helvetica,sans-Serif" font-size="12.00" fill="#000000">NAME_TIM::timer_tuple</text>
<polyline fill="none" stroke="#000000" points="202,-901.5 315,-901.5 "/>
<text text-anchor="middle" x="258.5" y="-887.9" font-family="Helvetica,sans-Serif" font-size="12.00" fill="#000000"> </text>
<polyline fill="none" stroke="#000000" points="202,-880.5 315,-880.5 "/>
<text text-anchor="start" x="210" y="-866.9" font-family="Helvetica,sans-Serif" font-size="12.00" fill="#000000">+ timer_tuple()</text>
<text text-anchor="start" x="210" y="-853.9" font-family="Helvetica,sans-Serif" font-size="12.00" fill="#000000">+ timer_tuple()</text>
<text text-anchor="start" x="210" y="-840.9" font-family="Helvetica,sans-Serif" font-size="12.00" fill="#000000">+ operator=()</text>
<text text-anchor="start" x="210" y="-827.9" font-family="Helvetica,sans-Serif" font-size="12.00" fill="#000000">+ operator==()</text>
<text text-anchor="start" x="210" y="-814.9" font-family="Helvetica,sans-Serif" font-size="12.00" fill="#000000">+ operator!=()</text>
<text text-anchor="start" x="210" y="-801.9" font-family="Helvetica,sans-Serif" font-size="12.00" fill="#000000">+ operator+=()</text>
<text text-anchor="start" x="210" y="-788.9" font-family="Helvetica,sans-Serif" font-size="12.00" fill="#000000">+ operator+()</text>
<text text-anchor="start" x="210" y="-775.9" font-family="Helvetica,sans-Serif" font-size="12.00" fill="#000000">+ key()</text>
<text text-anchor="start" x="210" y="-762.9" font-family="Helvetica,sans-Serif" font-size="12.00" fill="#000000">+ key()</text>
<text text-anchor="start" x="210" y="-749.9" font-family="Helvetica,sans-Serif" font-size="12.00" fill="#000000">+ level()</text>
<text text-anchor="start" x="210" y="-736.9" font-family="Helvetica,sans-Serif" font-size="12.00" fill="#000000">and 6 more...</text>
</a>
</g>
</g>
<!-- Node7&#45;&gt;Node6 -->
<g id="edge7" class="edge">
<title>Node7&#45;&gt;Node6</title>
<path fill="none" stroke="#404040" d="M277.8929,-729.2838C281.0012,-718.5847 284.5267,-707.9645 288.5,-698 290.3697,-693.3111 292.5846,-688.5476 294.9685,-683.8767"/>
<polygon fill="none" stroke="#404040" points="295.0269,-683.7692 294.3761,-676.5875 300.755,-673.2246 301.4058,-680.4063 295.0269,-683.7692"/>
<text text-anchor="middle" x="311" y="-701.4" font-family="Helvetica,sans-Serif" font-size="12.00" fill="#000000"> +elements</text>
</g>
<!-- Node8 -->
<g id="node8" class="node">
<title>Node8</title>
<polygon fill="#ffffff" stroke="#bfbfbf" points="210.5,-972.5 210.5,-1048.5 306.5,-1048.5 306.5,-972.5 210.5,-972.5"/>
<text text-anchor="start" x="218.5" y="-1034.9" font-family="Helvetica,sans-Serif" font-size="12.00" fill="#000000">internal::base_timer</text>
<text text-anchor="middle" x="258.5" y="-1021.9" font-family="Helvetica,sans-Serif" font-size="12.00" fill="#000000">_tuple_t</text>
<polyline fill="none" stroke="#bfbfbf" points="210.5,-1014.5 306.5,-1014.5 "/>
<text text-anchor="middle" x="258.5" y="-1000.9" font-family="Helvetica,sans-Serif" font-size="12.00" fill="#000000"> </text>
<polyline fill="none" stroke="#bfbfbf" points="210.5,-993.5 306.5,-993.5 "/>
<text text-anchor="middle" x="258.5" y="-979.9" font-family="Helvetica,sans-Serif" font-size="12.00" fill="#000000"> </text>
</g>
<!-- Node8&#45;&gt;Node7 -->
<g id="edge8" class="edge">
<title>Node8&#45;&gt;Node7</title>
<path fill="none" stroke="#191970" d="M258.5,-961.9738C258.5,-949.8371 258.5,-936.387 258.5,-922.8048"/>
<polygon fill="none" stroke="#191970" points="255.0001,-962.2714 258.5,-972.2715 262.0001,-962.2715 255.0001,-962.2714"/>
</g>
<!-- Node9 -->
<g id="node9" class="node">
<title>Node9</title>
<g id="a_node9"><a xlink:title="STL class. ">
<polygon fill="#ffffff" stroke="#bfbfbf" points="333.5,-794.5 333.5,-857.5 413.5,-857.5 413.5,-794.5 333.5,-794.5"/>
<text text-anchor="middle" x="373.5" y="-843.9" font-family="Helvetica,sans-Serif" font-size="12.00" fill="#000000">std::deque&lt; T &gt;</text>
<polyline fill="none" stroke="#bfbfbf" points="333.5,-836.5 413.5,-836.5 "/>
<text text-anchor="middle" x="373.5" y="-822.9" font-family="Helvetica,sans-Serif" font-size="12.00" fill="#000000"> </text>
<polyline fill="none" stroke="#bfbfbf" points="333.5,-815.5 413.5,-815.5 "/>
<text text-anchor="middle" x="373.5" y="-801.9" font-family="Helvetica,sans-Serif" font-size="12.00" fill="#000000"> </text>
</a>
</g>
</g>
<!-- Node9&#45;&gt;Node6 -->
<g id="edge9" class="edge">
<title>Node9&#45;&gt;Node6</title>
<path fill="none" stroke="#ffa500" d="M361.7379,-784.2673C352.2328,-750.5423 339.0569,-703.7931 330.4093,-673.111"/>
<polygon fill="#ffa500" stroke="#ffa500" points="358.4793,-785.6078 364.5609,-794.2833 365.2168,-783.7088 358.4793,-785.6078"/>
<text text-anchor="middle" x="375" y="-701.4" font-family="Helvetica,sans-Serif" font-size="12.00" fill="#000000"> &lt; timer_tuple_t &gt;</text>
</g>
<!-- Node10 -->
<g id="node10" class="node">
<title>Node10</title>
<polygon fill="#ffffff" stroke="#bfbfbf" points="359,-979 359,-1042 388,-1042 388,-979 359,-979"/>
<text text-anchor="middle" x="373.5" y="-1028.4" font-family="Helvetica,sans-Serif" font-size="12.00" fill="#000000">T</text>
<polyline fill="none" stroke="#bfbfbf" points="359,-1021 388,-1021 "/>
<text text-anchor="middle" x="373.5" y="-1007.4" font-family="Helvetica,sans-Serif" font-size="12.00" fill="#000000"> </text>
<polyline fill="none" stroke="#bfbfbf" points="359,-1000 388,-1000 "/>
<text text-anchor="middle" x="373.5" y="-986.4" font-family="Helvetica,sans-Serif" font-size="12.00" fill="#000000"> </text>
</g>
<!-- Node10&#45;&gt;Node9 -->
<g id="edge10" class="edge">
<title>Node10&#45;&gt;Node9</title>
<path fill="none" stroke="#404040" d="M373.5,-978.7833C373.5,-948.7264 373.5,-903.3194 373.5,-869.8131"/>
<polygon fill="none" stroke="#404040" points="373.5001,-869.611 369.5,-863.611 373.5,-857.611 377.5,-863.6109 373.5001,-869.611"/>
<text text-anchor="middle" x="396" y="-944.4" font-family="Helvetica,sans-Serif" font-size="12.00" fill="#000000"> +elements</text>
</g>
<!-- Node11&#45;&gt;Node2 -->
<g id="edge11" class="edge">
<title>Node11&#45;&gt;Node2</title>
<path fill="none" stroke="#404040" d="M369.8368,-76.6198C374.2906,-86.5236 378.9151,-97.5883 382.5,-108 384.6964,-114.379 386.8477,-120.883 388.9507,-127.4704"/>
<polygon fill="none" stroke="#404040" points="389.1023,-127.9555 394.7105,-132.4885 392.6833,-139.4088 387.075,-134.8758 389.1023,-127.9555"/>
<text text-anchor="middle" x="416" y="-111.4" font-family="Helvetica,sans-Serif" font-size="12.00" fill="#000000"> &#45;m_daughters</text>
</g>
<!-- Node12 -->
<g id="node12" class="node">
<title>Node12</title>
<g id="a_node12"><a xlink:title="STL class. ">
<polygon fill="#ffffff" stroke="#bfbfbf" points="18,-308.5 18,-371.5 85,-371.5 85,-308.5 18,-308.5"/>
<text text-anchor="middle" x="51.5" y="-357.9" font-family="Helvetica,sans-Serif" font-size="12.00" fill="#000000">std::set&lt; K &gt;</text>
<polyline fill="none" stroke="#bfbfbf" points="18,-350.5 85,-350.5 "/>
<text text-anchor="middle" x="51.5" y="-336.9" font-family="Helvetica,sans-Serif" font-size="12.00" fill="#000000"> </text>
<polyline fill="none" stroke="#bfbfbf" points="18,-329.5 85,-329.5 "/>
<text text-anchor="middle" x="51.5" y="-315.9" font-family="Helvetica,sans-Serif" font-size="12.00" fill="#000000"> </text>
</a>
</g>
</g>
<!-- Node12&#45;&gt;Node11 -->
<g id="edge13" class="edge">
<title>Node12&#45;&gt;Node11</title>
<path fill="none" stroke="#ffa500" d="M89.3137,-301.1681C134.9322,-254.5985 214.2621,-174.4951 284.5,-108 295.4233,-97.6588 307.536,-86.6139 318.5725,-76.7066"/>
<polygon fill="#ffa500" stroke="#ffa500" points="86.781,-298.752 82.2882,-308.3471 91.7839,-303.648 86.781,-298.752"/>
<text text-anchor="middle" x="315" y="-111.4" font-family="Helvetica,sans-Serif" font-size="12.00" fill="#000000"> &lt; this_type * &gt;</text>
</g>
<!-- Node13 -->
<g id="node13" class="node">
<title>Node13</title>
<polygon fill="#ffffff" stroke="#bfbfbf" points="0,-610 0,-673 29,-673 29,-610 0,-610"/>
<text text-anchor="middle" x="14.5" y="-659.4" font-family="Helvetica,sans-Serif" font-size="12.00" fill="#000000">K</text>
<polyline fill="none" stroke="#bfbfbf" points="0,-652 29,-652 "/>
<text text-anchor="middle" x="14.5" y="-638.4" font-family="Helvetica,sans-Serif" font-size="12.00" fill="#000000"> </text>
<polyline fill="none" stroke="#bfbfbf" points="0,-631 29,-631 "/>
<text text-anchor="middle" x="14.5" y="-617.4" font-family="Helvetica,sans-Serif" font-size="12.00" fill="#000000"> </text>
</g>
<!-- Node13&#45;&gt;Node12 -->
<g id="edge14" class="edge">
<title>Node13&#45;&gt;Node12</title>
<path fill="none" stroke="#404040" d="M17.3181,-609.7397C18.7463,-594.3967 20.5821,-575.7268 22.5,-559 29.4935,-498.0064 39.0798,-427.6633 45.282,-383.5111"/>
<polygon fill="none" stroke="#404040" points="45.2988,-383.3914 42.1762,-376.8914 46.9753,-371.509 50.0978,-378.009 45.2988,-383.3914"/>
<text text-anchor="middle" x="36" y="-568.9" font-family="Helvetica,sans-Serif" font-size="12.00" fill="#000000"> +keys</text>
</g>
<!-- Node14 -->
<g id="node14" class="node">
<title>Node14</title>
<polygon fill="#ffffff" stroke="#bfbfbf" points="402.5,-610 402.5,-673 478.5,-673 478.5,-610 402.5,-610"/>
<text text-anchor="middle" x="440.5" y="-659.4" font-family="Helvetica,sans-Serif" font-size="12.00" fill="#000000">atomic&lt; bool &gt;</text>
<polyline fill="none" stroke="#bfbfbf" points="402.5,-652 478.5,-652 "/>
<text text-anchor="middle" x="440.5" y="-638.4" font-family="Helvetica,sans-Serif" font-size="12.00" fill="#000000"> </text>
<polyline fill="none" stroke="#bfbfbf" points="402.5,-631 478.5,-631 "/>
<text text-anchor="middle" x="440.5" y="-617.4" font-family="Helvetica,sans-Serif" font-size="12.00" fill="#000000"> </text>
</g>
<!-- Node14&#45;&gt;Node2 -->
<g id="edge15" class="edge">
<title>Node14&#45;&gt;Node2</title>
<path fill="none" stroke="#404040" d="M440.5,-609.8041C440.5,-594.4894 440.5,-574.6739 440.5,-552.7381"/>
<polygon fill="none" stroke="#404040" points="440.5001,-552.7193 436.5,-546.7193 440.5,-540.7193 444.5,-546.7192 440.5001,-552.7193"/>
<text text-anchor="middle" x="462.5" y="-568.9" font-family="Helvetica,sans-Serif" font-size="12.00" fill="#000000"> &#45;m_merge</text>
</g>
<!-- Node15 -->
<g id="node15" class="node">
<title>Node15</title>
<polygon fill="#ffffff" stroke="#bfbfbf" points="497,-610 497,-673 564,-673 564,-610 497,-610"/>
<text text-anchor="middle" x="530.5" y="-659.4" font-family="Helvetica,sans-Serif" font-size="12.00" fill="#000000">static int32_t</text>
<polyline fill="none" stroke="#bfbfbf" points="497,-652 564,-652 "/>
<text text-anchor="middle" x="530.5" y="-638.4" font-family="Helvetica,sans-Serif" font-size="12.00" fill="#000000"> </text>
<polyline fill="none" stroke="#bfbfbf" points="497,-631 564,-631 "/>
<text text-anchor="middle" x="530.5" y="-617.4" font-family="Helvetica,sans-Serif" font-size="12.00" fill="#000000"> </text>
</g>
<!-- Node15&#45;&gt;Node2 -->
<g id="edge16" class="edge">
<title>Node15&#45;&gt;Node2</title>
<path fill="none" stroke="#404040" d="M521.0385,-609.8041C516.4459,-594.4188 510.4974,-574.4912 503.9133,-552.4347"/>
<polygon fill="none" stroke="#404040" points="503.8487,-552.2179 498.2996,-547.6128 500.4162,-540.7193 505.9653,-545.3244 503.8487,-552.2179"/>
<text text-anchor="middle" x="541.5" y="-568.9" font-family="Helvetica,sans-Serif" font-size="12.00" fill="#000000"> &#45;f_max_depth</text>
</g>
<!-- Node16 -->
<g id="node16" class="node">
<title>Node16</title>
<polygon fill="#ffffff" stroke="#bfbfbf" points="582,-610 582,-673 645,-673 645,-610 582,-610"/>
<text text-anchor="middle" x="613.5" y="-659.4" font-family="Helvetica,sans-Serif" font-size="12.00" fill="#000000">ostream_t *</text>
<polyline fill="none" stroke="#bfbfbf" points="582,-652 645,-652 "/>
<text text-anchor="middle" x="613.5" y="-638.4" font-family="Helvetica,sans-Serif" font-size="12.00" fill="#000000"> </text>
<polyline fill="none" stroke="#bfbfbf" points="582,-631 645,-631 "/>
<text text-anchor="middle" x="613.5" y="-617.4" font-family="Helvetica,sans-Serif" font-size="12.00" fill="#000000"> </text>
</g>
<!-- Node16&#45;&gt;Node2 -->
<g id="edge17" class="edge">
<title>Node16&#45;&gt;Node2</title>
<path fill="none" stroke="#404040" d="M599.4661,-609.7641C592.3664,-594.2605 583.3861,-575.4474 574.5,-559 555.5869,-523.9937 533.5708,-486.7727 512.9154,-453.1379"/>
<polygon fill="none" stroke="#404040" points="512.8522,-453.0353 506.2982,-450.0276 506.5537,-442.821 513.1077,-445.8287 512.8522,-453.0353"/>
<text text-anchor="middle" x="607.5" y="-568.9" font-family="Helvetica,sans-Serif" font-size="12.00" fill="#000000"> &#45;m_report</text>
</g>
<!-- Node17 -->
<g id="node17" class="node">
<title>Node17</title>
<polygon fill="#ffffff" stroke="#bfbfbf" points="663,-603.5 663,-679.5 772,-679.5 772,-603.5 663,-603.5"/>
<text text-anchor="start" x="671" y="-665.9" font-family="Helvetica,sans-Serif" font-size="12.00" fill="#000000">uomap&lt; uint64_t, timer</text>
<text text-anchor="middle" x="717.5" y="-652.9" font-family="Helvetica,sans-Serif" font-size="12.00" fill="#000000">_ptr_t &gt;</text>
<polyline fill="none" stroke="#bfbfbf" points="663,-645.5 772,-645.5 "/>
<text text-anchor="middle" x="717.5" y="-631.9" font-family="Helvetica,sans-Serif" font-size="12.00" fill="#000000"> </text>
<polyline fill="none" stroke="#bfbfbf" points="663,-624.5 772,-624.5 "/>
<text text-anchor="middle" x="717.5" y="-610.9" font-family="Helvetica,sans-Serif" font-size="12.00" fill="#000000"> </text>
</g>
<!-- Node17&#45;&gt;Node2 -->
<g id="edge18" class="edge">
<title>Node17&#45;&gt;Node2</title>
<path fill="none" stroke="#404040" d="M682.4178,-603.3148C640.5302,-557.7224 569.3213,-480.2152 514.9752,-421.0624"/>
<polygon fill="none" stroke="#404040" points="514.8639,-420.9412 507.859,-419.2291 506.7452,-412.1045 513.7502,-413.8166 514.8639,-420.9412"/>
<text text-anchor="middle" x="695" y="-568.9" font-family="Helvetica,sans-Serif" font-size="12.00" fill="#000000"> &#45;m_timer_map</text>
</g>
<!-- Node18 -->
<g id="node18" class="node">
<title>Node18</title>
<polygon fill="#ffffff" stroke="#bfbfbf" points="790,-610 790,-673 847,-673 847,-610 790,-610"/>
<text text-anchor="middle" x="818.5" y="-659.4" font-family="Helvetica,sans-Serif" font-size="12.00" fill="#000000">static bool</text>
<polyline fill="none" stroke="#bfbfbf" points="790,-652 847,-652 "/>
<text text-anchor="middle" x="818.5" y="-638.4" font-family="Helvetica,sans-Serif" font-size="12.00" fill="#000000"> </text>
<polyline fill="none" stroke="#bfbfbf" points="790,-631 847,-631 "/>
<text text-anchor="middle" x="818.5" y="-617.4" font-family="Helvetica,sans-Serif" font-size="12.00" fill="#000000"> </text>
</g>
<!-- Node18&#45;&gt;Node2 -->
<g id="edge19" class="edge">
<title>Node18&#45;&gt;Node2</title>
<path fill="none" stroke="#404040" d="M789.702,-610.9462C786.9658,-608.2225 784.2037,-605.5378 781.5,-603 759.4263,-582.2806 753.1287,-577.927 729.5,-559 658.4376,-502.0778 575.4248,-439.5711 516.6476,-395.9593"/>
<polygon fill="none" stroke="#404040" points="516.338,-395.7299 509.1358,-395.371 506.697,-388.5848 513.8992,-388.9437 516.338,-395.7299"/>
<text text-anchor="middle" x="783.5" y="-568.9" font-family="Helvetica,sans-Serif" font-size="12.00" fill="#000000"> &#45;f_enabled</text>
</g>
<!-- Node19 -->
<g id="node19" class="node">
<title>Node19</title>
<polygon fill="#ffffff" stroke="#bfbfbf" points="865.5,-610 865.5,-673 937.5,-673 937.5,-610 865.5,-610"/>
<text text-anchor="middle" x="901.5" y="-659.4" font-family="Helvetica,sans-Serif" font-size="12.00" fill="#000000">static mutex_t</text>
<polyline fill="none" stroke="#bfbfbf" points="865.5,-652 937.5,-652 "/>
<text text-anchor="middle" x="901.5" y="-638.4" font-family="Helvetica,sans-Serif" font-size="12.00" fill="#000000"> </text>
<polyline fill="none" stroke="#bfbfbf" points="865.5,-631 937.5,-631 "/>
<text text-anchor="middle" x="901.5" y="-617.4" font-family="Helvetica,sans-Serif" font-size="12.00" fill="#000000"> </text>
</g>
<!-- Node19&#45;&gt;Node2 -->
<g id="edge20" class="edge">
<title>Node19&#45;&gt;Node2</title>
<path fill="none" stroke="#404040" d="M869.5962,-609.6464C852.7318,-593.5832 831.2664,-574.3148 810.5,-559 714.5913,-488.2691 594.4082,-420.5862 517.527,-379.6576"/>
<polygon fill="none" stroke="#404040" points="517.1087,-379.436 509.9341,-380.1602 506.5061,-373.816 513.6808,-373.0918 517.1087,-379.436"/>
<text text-anchor="middle" x="861.5" y="-568.9" font-family="Helvetica,sans-Serif" font-size="12.00" fill="#000000"> #f_mutex</text>
</g>
</g>
</svg>
