<?xml version="1.0" encoding="UTF-8" standalone="no"?>
<!DOCTYPE svg PUBLIC "-//W3C//DTD SVG 1.1//EN"
 "http://www.w3.org/Graphics/SVG/1.1/DTD/svg11.dtd">
<!-- Generated by graphviz version 2.40.1 (20161225.0304)
 -->
<!-- Title: manager_wrapper Pages: 1 -->
<!--zoomable 1070 -->
<svg id="main" version="1.1" xmlns="http://www.w3.org/2000/svg" xmlns:xlink="http://www.w3.org/1999/xlink" xml:space="preserve" onload="init(evt)">
<style type="text/css"><![CDATA[
.edge:hover path { stroke: red; }
.edge:hover polygon { stroke: red; fill: red; }
]]></style>
<script type="text/javascript"><![CDATA[
var edges = document.getElementsByTagName('g');
if (edges && edges.length) {
  for (var i=0;i<edges.length;i++) {
    if (edges[i].id.substr(0,4)=='edge') {
      edges[i].setAttribute('class','edge');
    }
  }
}
]]></script>
        <defs>
                <circle id="rim" cx="0" cy="0" r="7"/>
                <circle id="rim2" cx="0" cy="0" r="3.5"/>
                <g id="zoomPlus">
                        <use xlink:href="#rim" fill="#404040">
                                <set attributeName="fill" to="#808080" begin="zoomplus.mouseover" end="zoomplus.mouseout"/>
                        </use>
                        <path d="M-4,0h8M0,-4v8" fill="none" stroke="white" stroke-width="1.5" pointer-events="none"/>
                </g>
                <g id="zoomMin">
                        <use xlink:href="#rim" fill="#404040">
                                <set attributeName="fill" to="#808080" begin="zoomminus.mouseover" end="zoomminus.mouseout"/>
                        </use>
                        <path d="M-4,0h8" fill="none" stroke="white" stroke-width="1.5" pointer-events="none"/>
                </g>
                <g id="dirArrow">
                        <path fill="none" stroke="white" stroke-width="1.5" d="M0,-3.0v7 M-2.5,-0.5L0,-3.0L2.5,-0.5"/>
                </g>
               <g id="resetDef">
                       <use xlink:href="#rim2" fill="#404040">
                               <set attributeName="fill" to="#808080" begin="reset.mouseover" end="reset.mouseout"/>
                       </use>
               </g>
        </defs>

<script type="text/javascript">
var viewWidth = 1051;
var viewHeight = 1070;
var sectionId = 'dynsection-0';
</script>
<script xlink:href="../../svgpan.js"/>
<svg id="graph" class="graph">
<g id="viewport">
<title>manager_wrapper</title>
<polygon fill="#ffffff" stroke="transparent" points="-4,4 -4,-1066 1046.5,-1066 1046.5,4 -4,4"/>
<!-- Node1 -->
<g id="node1" class="node">
<title>Node1</title>
<polygon fill="#bfbfbf" stroke="#000000" points="486,-.5 486,-89.5 595,-89.5 595,-.5 486,-.5"/>
<text text-anchor="middle" x="540.5" y="-75.9" font-family="Helvetica,sans-Serif" font-size="12.00" fill="#000000">manager_wrapper</text>
<polyline fill="none" stroke="#000000" points="486,-68.5 595,-68.5 "/>
<text text-anchor="middle" x="540.5" y="-54.9" font-family="Helvetica,sans-Serif" font-size="12.00" fill="#000000"> </text>
<polyline fill="none" stroke="#000000" points="486,-47.5 595,-47.5 "/>
<text text-anchor="start" x="494" y="-33.9" font-family="Helvetica,sans-Serif" font-size="12.00" fill="#000000">+ manager_wrapper()</text>
<text text-anchor="start" x="494" y="-20.9" font-family="Helvetica,sans-Serif" font-size="12.00" fill="#000000">+ ~manager_wrapper()</text>
<text text-anchor="start" x="494" y="-7.9" font-family="Helvetica,sans-Serif" font-size="12.00" fill="#000000">+ get()</text>
</g>
<!-- Node2 -->
<g id="node2" class="node">
<title>Node2</title>
<g id="a_node2"><a xlink:href="../../d8/d14/classtim_1_1manager.html" target="_top" xlink:title="{tim::manager\n||+ manager()\l+ ~manager()\l+ merge()\l+ size()\l+ clear()\l+ timer()\l+ at()\l+ time()\l+ time()\l+ time()\land 31 more...\l+ instance()\l+ is_enabled()\l+ enable()\l+ write_json()\l+ write_json()\l+ max_depth()\l+ set_get_num_threads_func()\l# string_hash()\l# const_merge()\l# get_prefix()\l# write_json_no_mpi()\l# write_json_mpi()\l# write_json_no_mpi()\l# write_json_mpi()\l# get_communicator_group()\l&#45; get_ofstream()\l&#45; report()\l}">
<polygon fill="#ffffff" stroke="#000000" points="425,-139.5 425,-553.5 564,-553.5 564,-139.5 425,-139.5"/>
<text text-anchor="middle" x="494.5" y="-539.9" font-family="Helvetica,sans-Serif" font-size="12.00" fill="#000000">tim::manager</text>
<polyline fill="none" stroke="#000000" points="425,-532.5 564,-532.5 "/>
<text text-anchor="middle" x="494.5" y="-518.9" font-family="Helvetica,sans-Serif" font-size="12.00" fill="#000000"> </text>
<polyline fill="none" stroke="#000000" points="425,-511.5 564,-511.5 "/>
<text text-anchor="start" x="433" y="-497.9" font-family="Helvetica,sans-Serif" font-size="12.00" fill="#000000">+ manager()</text>
<text text-anchor="start" x="433" y="-484.9" font-family="Helvetica,sans-Serif" font-size="12.00" fill="#000000">+ ~manager()</text>
<text text-anchor="start" x="433" y="-471.9" font-family="Helvetica,sans-Serif" font-size="12.00" fill="#000000">+ merge()</text>
<text text-anchor="start" x="433" y="-458.9" font-family="Helvetica,sans-Serif" font-size="12.00" fill="#000000">+ size()</text>
<text text-anchor="start" x="433" y="-445.9" font-family="Helvetica,sans-Serif" font-size="12.00" fill="#000000">+ clear()</text>
<text text-anchor="start" x="433" y="-432.9" font-family="Helvetica,sans-Serif" font-size="12.00" fill="#000000">+ timer()</text>
<text text-anchor="start" x="433" y="-419.9" font-family="Helvetica,sans-Serif" font-size="12.00" fill="#000000">+ at()</text>
<text text-anchor="start" x="433" y="-406.9" font-family="Helvetica,sans-Serif" font-size="12.00" fill="#000000">+ time()</text>
<text text-anchor="start" x="433" y="-393.9" font-family="Helvetica,sans-Serif" font-size="12.00" fill="#000000">+ time()</text>
<text text-anchor="start" x="433" y="-380.9" font-family="Helvetica,sans-Serif" font-size="12.00" fill="#000000">+ time()</text>
<text text-anchor="start" x="433" y="-367.9" font-family="Helvetica,sans-Serif" font-size="12.00" fill="#000000">and 31 more...</text>
<text text-anchor="start" x="433" y="-354.9" font-family="Helvetica,sans-Serif" font-size="12.00" fill="#000000">+ instance()</text>
<text text-anchor="start" x="433" y="-341.9" font-family="Helvetica,sans-Serif" font-size="12.00" fill="#000000">+ is_enabled()</text>
<text text-anchor="start" x="433" y="-328.9" font-family="Helvetica,sans-Serif" font-size="12.00" fill="#000000">+ enable()</text>
<text text-anchor="start" x="433" y="-315.9" font-family="Helvetica,sans-Serif" font-size="12.00" fill="#000000">+ write_json()</text>
<text text-anchor="start" x="433" y="-302.9" font-family="Helvetica,sans-Serif" font-size="12.00" fill="#000000">+ write_json()</text>
<text text-anchor="start" x="433" y="-289.9" font-family="Helvetica,sans-Serif" font-size="12.00" fill="#000000">+ max_depth()</text>
<text text-anchor="start" x="433" y="-276.9" font-family="Helvetica,sans-Serif" font-size="12.00" fill="#000000">+ set_get_num_threads_func()</text>
<text text-anchor="start" x="433" y="-263.9" font-family="Helvetica,sans-Serif" font-size="12.00" fill="#000000"># string_hash()</text>
<text text-anchor="start" x="433" y="-250.9" font-family="Helvetica,sans-Serif" font-size="12.00" fill="#000000"># const_merge()</text>
<text text-anchor="start" x="433" y="-237.9" font-family="Helvetica,sans-Serif" font-size="12.00" fill="#000000"># get_prefix()</text>
<text text-anchor="start" x="433" y="-224.9" font-family="Helvetica,sans-Serif" font-size="12.00" fill="#000000"># write_json_no_mpi()</text>
<text text-anchor="start" x="433" y="-211.9" font-family="Helvetica,sans-Serif" font-size="12.00" fill="#000000"># write_json_mpi()</text>
<text text-anchor="start" x="433" y="-198.9" font-family="Helvetica,sans-Serif" font-size="12.00" fill="#000000"># write_json_no_mpi()</text>
<text text-anchor="start" x="433" y="-185.9" font-family="Helvetica,sans-Serif" font-size="12.00" fill="#000000"># write_json_mpi()</text>
<text text-anchor="start" x="433" y="-172.9" font-family="Helvetica,sans-Serif" font-size="12.00" fill="#000000"># get_communicator_group()</text>
<text text-anchor="start" x="433" y="-159.9" font-family="Helvetica,sans-Serif" font-size="12.00" fill="#000000">&#45; get_ofstream()</text>
<text text-anchor="start" x="433" y="-146.9" font-family="Helvetica,sans-Serif" font-size="12.00" fill="#000000">&#45; report()</text>
</a>
</g>
</g>
<!-- Node2&#45;&gt;Node1 -->
<g id="edge1" class="edge">
<title>Node2&#45;&gt;Node1</title>
<path fill="none" stroke="#404040" d="M526.1345,-139.1563C528.1763,-125.7735 530.112,-113.0868 531.8625,-101.6132"/>
<polygon fill="none" stroke="#404040" points="531.8757,-101.5263 528.8264,-94.9916 533.6857,-89.6635 536.7349,-96.1982 531.8757,-101.5263"/>
<text text-anchor="middle" x="558.5" y="-111.4" font-family="Helvetica,sans-Serif" font-size="12.00" fill="#000000"> #m_manager</text>
</g>
<!-- Node2&#45;&gt;Node2 -->
<g id="edge18" class="edge">
<title>Node2&#45;&gt;Node2</title>
<path fill="none" stroke="#404040" d="M564.1727,-386.1661C574.7902,-380.1127 582,-366.8906 582,-346.5 582,-332.6407 578.6693,-322.0932 573.2016,-314.8574"/>
<polygon fill="none" stroke="#404040" points="573.1427,-314.805 566.0007,-313.8095 564.1727,-306.8339 571.3148,-307.8294 573.1427,-314.805"/>
<text text-anchor="middle" x="605.5" y="-343.4" font-family="Helvetica,sans-Serif" font-size="12.00" fill="#000000"> &#45;f_instance</text>
</g>
<!-- Node13 -->
<g id="node13" class="node">
<title>Node13</title>
<polygon fill="#ffffff" stroke="#bfbfbf" points="357,-13.5 357,-76.5 460,-76.5 460,-13.5 357,-13.5"/>
<text text-anchor="middle" x="408.5" y="-62.9" font-family="Helvetica,sans-Serif" font-size="12.00" fill="#000000">std::set&lt; this_type * &gt;</text>
<polyline fill="none" stroke="#bfbfbf" points="357,-55.5 460,-55.5 "/>
<text text-anchor="middle" x="408.5" y="-41.9" font-family="Helvetica,sans-Serif" font-size="12.00" fill="#000000"> </text>
<polyline fill="none" stroke="#bfbfbf" points="357,-34.5 460,-34.5 "/>
<text text-anchor="middle" x="408.5" y="-20.9" font-family="Helvetica,sans-Serif" font-size="12.00" fill="#000000"> </text>
</g>
<!-- Node2&#45;&gt;Node13 -->
<g id="edge13" class="edge">
<title>Node2&#45;&gt;Node13</title>
<path fill="none" stroke="#404040" d="M424.8979,-192.2831C416.8813,-168.8198 409.9826,-144.5677 405.5,-121 403.5316,-110.6506 403.0814,-99.3706 403.3944,-88.7451"/>
<polygon fill="none" stroke="#404040" points="403.3996,-88.6488 399.7395,-82.4357 404.0671,-76.6674 407.7272,-82.8806 403.3996,-88.6488"/>
<text text-anchor="middle" x="419" y="-111.4" font-family="Helvetica,sans-Serif" font-size="12.00" fill="#000000"> +keys</text>
</g>
<!-- Node3 -->
<g id="node3" class="node">
<title>Node3</title>
<polygon fill="#ffffff" stroke="#bfbfbf" points="47,-623 47,-686 96,-686 96,-623 47,-623"/>
<text text-anchor="middle" x="71.5" y="-672.4" font-family="Helvetica,sans-Serif" font-size="12.00" fill="#000000">uint64_t</text>
<polyline fill="none" stroke="#bfbfbf" points="47,-665 96,-665 "/>
<text text-anchor="middle" x="71.5" y="-651.4" font-family="Helvetica,sans-Serif" font-size="12.00" fill="#000000"> </text>
<polyline fill="none" stroke="#bfbfbf" points="47,-644 96,-644 "/>
<text text-anchor="middle" x="71.5" y="-630.4" font-family="Helvetica,sans-Serif" font-size="12.00" fill="#000000"> </text>
</g>
<!-- Node3&#45;&gt;Node2 -->
<g id="edge2" class="edge">
<title>Node3&#45;&gt;Node2</title>
<path fill="none" stroke="#404040" d="M93.9408,-622.6762C106.2916,-606.4336 122.5307,-586.994 139.5,-572 225.0272,-496.4285 338.4629,-429.0718 413.8387,-388.0731"/>
<polygon fill="none" stroke="#404040" points="414.1183,-387.9221 417.4955,-381.5506 424.6757,-382.2175 421.2985,-388.5889 414.1183,-387.9221"/>
<text text-anchor="middle" x="160" y="-588.4" font-family="Helvetica,sans-Serif" font-size="12.00" fill="#000000"> &#45;m_count</text>
<text text-anchor="middle" x="160" y="-575.4" font-family="Helvetica,sans-Serif" font-size="12.00" fill="#000000">&#45;m_hash</text>
</g>
<!-- Node4 -->
<g id="node4" class="node">
<title>Node4</title>
<polygon fill="#ffffff" stroke="#bfbfbf" points="114.5,-623 114.5,-686 180.5,-686 180.5,-623 114.5,-623"/>
<text text-anchor="middle" x="147.5" y="-672.4" font-family="Helvetica,sans-Serif" font-size="12.00" fill="#000000">rss_usage_t</text>
<polyline fill="none" stroke="#bfbfbf" points="114.5,-665 180.5,-665 "/>
<text text-anchor="middle" x="147.5" y="-651.4" font-family="Helvetica,sans-Serif" font-size="12.00" fill="#000000"> </text>
<polyline fill="none" stroke="#bfbfbf" points="114.5,-644 180.5,-644 "/>
<text text-anchor="middle" x="147.5" y="-630.4" font-family="Helvetica,sans-Serif" font-size="12.00" fill="#000000"> </text>
</g>
<!-- Node4&#45;&gt;Node2 -->
<g id="edge3" class="edge">
<title>Node4&#45;&gt;Node2</title>
<path fill="none" stroke="#404040" d="M166.6943,-622.6746C177.1419,-606.6189 190.8979,-587.3487 205.5,-572 269.2821,-504.957 353.8439,-441.3244 415.0033,-398.857"/>
<polygon fill="none" stroke="#404040" points="415.1154,-398.7796 417.7821,-392.0797 424.9923,-391.9643 422.3256,-398.6643 415.1154,-398.7796"/>
<text text-anchor="middle" x="235.5" y="-581.9" font-family="Helvetica,sans-Serif" font-size="12.00" fill="#000000"> &#45;m_rss_usage</text>
</g>
<!-- Node5 -->
<g id="node5" class="node">
<title>Node5</title>
<polygon fill="#ffffff" stroke="#bfbfbf" points="199,-623 199,-686 240,-686 240,-623 199,-623"/>
<text text-anchor="middle" x="219.5" y="-672.4" font-family="Helvetica,sans-Serif" font-size="12.00" fill="#000000">mutex</text>
<polyline fill="none" stroke="#bfbfbf" points="199,-665 240,-665 "/>
<text text-anchor="middle" x="219.5" y="-651.4" font-family="Helvetica,sans-Serif" font-size="12.00" fill="#000000"> </text>
<polyline fill="none" stroke="#bfbfbf" points="199,-644 240,-644 "/>
<text text-anchor="middle" x="219.5" y="-630.4" font-family="Helvetica,sans-Serif" font-size="12.00" fill="#000000"> </text>
</g>
<!-- Node5&#45;&gt;Node2 -->
<g id="edge4" class="edge">
<title>Node5&#45;&gt;Node2</title>
<path fill="none" stroke="#404040" d="M240.2247,-627.3671C243.2886,-623.5138 246.4435,-619.6297 249.5,-616 303.5955,-551.7597 367.5062,-481.6361 416.4867,-429.0254"/>
<polygon fill="none" stroke="#404040" points="416.649,-428.8514 417.8154,-421.7352 424.8328,-420.075 423.6664,-427.1911 416.649,-428.8514"/>
<text text-anchor="middle" x="304" y="-581.9" font-family="Helvetica,sans-Serif" font-size="12.00" fill="#000000"> &#45;m_mutex</text>
</g>
<!-- Node6 -->
<g id="node6" class="node">
<title>Node6</title>
<polygon fill="#ffffff" stroke="#bfbfbf" points="258.5,-623 258.5,-686 384.5,-686 384.5,-623 258.5,-623"/>
<text text-anchor="middle" x="321.5" y="-672.4" font-family="Helvetica,sans-Serif" font-size="12.00" fill="#000000">std::deque&lt; timer_tuple_t &gt;</text>
<polyline fill="none" stroke="#bfbfbf" points="258.5,-665 384.5,-665 "/>
<text text-anchor="middle" x="321.5" y="-651.4" font-family="Helvetica,sans-Serif" font-size="12.00" fill="#000000"> </text>
<polyline fill="none" stroke="#bfbfbf" points="258.5,-644 384.5,-644 "/>
<text text-anchor="middle" x="321.5" y="-630.4" font-family="Helvetica,sans-Serif" font-size="12.00" fill="#000000"> </text>
</g>
<!-- Node6&#45;&gt;Node2 -->
<g id="edge5" class="edge">
<title>Node6&#45;&gt;Node2</title>
<path fill="none" stroke="#404040" d="M339.201,-622.986C358.1333,-589.28 389.4395,-533.544 419.0029,-480.911"/>
<polygon fill="none" stroke="#404040" points="419.0114,-480.8958 418.4623,-473.7056 424.8882,-470.4332 425.4373,-477.6234 419.0114,-480.8958"/>
<text text-anchor="middle" x="390" y="-581.9" font-family="Helvetica,sans-Serif" font-size="12.00" fill="#000000"> &#45;m_timer_list</text>
</g>
<!-- Node7 -->
<g id="node7" class="node">
<title>Node7</title>
<g id="a_node7"><a xlink:href="../../df/d44/structtim_1_1timer__tuple.html" target="_top" xlink:title="{tim::timer_tuple\n||+ timer_tuple()\l+ timer_tuple()\l+ operator=()\l+ operator==()\l+ operator!=()\l+ operator+=()\l+ operator+()\l+ key()\l+ key()\l+ level()\land 6 more...\l}">
<polygon fill="#ffffff" stroke="#000000" points="230.5,-742.5 230.5,-935.5 308.5,-935.5 308.5,-742.5 230.5,-742.5"/>
<text text-anchor="middle" x="269.5" y="-921.9" font-family="Helvetica,sans-Serif" font-size="12.00" fill="#000000">tim::timer_tuple</text>
<polyline fill="none" stroke="#000000" points="230.5,-914.5 308.5,-914.5 "/>
<text text-anchor="middle" x="269.5" y="-900.9" font-family="Helvetica,sans-Serif" font-size="12.00" fill="#000000"> </text>
<polyline fill="none" stroke="#000000" points="230.5,-893.5 308.5,-893.5 "/>
<text text-anchor="start" x="238.5" y="-879.9" font-family="Helvetica,sans-Serif" font-size="12.00" fill="#000000">+ timer_tuple()</text>
<text text-anchor="start" x="238.5" y="-866.9" font-family="Helvetica,sans-Serif" font-size="12.00" fill="#000000">+ timer_tuple()</text>
<text text-anchor="start" x="238.5" y="-853.9" font-family="Helvetica,sans-Serif" font-size="12.00" fill="#000000">+ operator=()</text>
<text text-anchor="start" x="238.5" y="-840.9" font-family="Helvetica,sans-Serif" font-size="12.00" fill="#000000">+ operator==()</text>
<text text-anchor="start" x="238.5" y="-827.9" font-family="Helvetica,sans-Serif" font-size="12.00" fill="#000000">+ operator!=()</text>
<text text-anchor="start" x="238.5" y="-814.9" font-family="Helvetica,sans-Serif" font-size="12.00" fill="#000000">+ operator+=()</text>
<text text-anchor="start" x="238.5" y="-801.9" font-family="Helvetica,sans-Serif" font-size="12.00" fill="#000000">+ operator+()</text>
<text text-anchor="start" x="238.5" y="-788.9" font-family="Helvetica,sans-Serif" font-size="12.00" fill="#000000">+ key()</text>
<text text-anchor="start" x="238.5" y="-775.9" font-family="Helvetica,sans-Serif" font-size="12.00" fill="#000000">+ key()</text>
<text text-anchor="start" x="238.5" y="-762.9" font-family="Helvetica,sans-Serif" font-size="12.00" fill="#000000">+ level()</text>
<text text-anchor="start" x="238.5" y="-749.9" font-family="Helvetica,sans-Serif" font-size="12.00" fill="#000000">and 6 more...</text>
</a>
</g>
</g>
<!-- Node7&#45;&gt;Node6 -->
<g id="edge6" class="edge">
<title>Node7&#45;&gt;Node6</title>
<path fill="none" stroke="#404040" d="M277.8996,-742.1973C280.1359,-731.514 282.9533,-720.9213 286.5,-711 288.2042,-706.2329 290.3523,-701.4402 292.7421,-696.7708"/>
<polygon fill="none" stroke="#404040" points="292.8115,-696.6464 292.2441,-689.4576 298.6617,-686.169 299.229,-693.3578 292.8115,-696.6464"/>
<text text-anchor="middle" x="309" y="-714.4" font-family="Helvetica,sans-Serif" font-size="12.00" fill="#000000"> +elements</text>
</g>
<!-- Node8 -->
<g id="node8" class="node">
<title>Node8</title>
<polygon fill="#ffffff" stroke="#bfbfbf" points="221.5,-985.5 221.5,-1061.5 317.5,-1061.5 317.5,-985.5 221.5,-985.5"/>
<text text-anchor="start" x="229.5" y="-1047.9" font-family="Helvetica,sans-Serif" font-size="12.00" fill="#000000">internal::base_timer</text>
<text text-anchor="middle" x="269.5" y="-1034.9" font-family="Helvetica,sans-Serif" font-size="12.00" fill="#000000">_tuple_t</text>
<polyline fill="none" stroke="#bfbfbf" points="221.5,-1027.5 317.5,-1027.5 "/>
<text text-anchor="middle" x="269.5" y="-1013.9" font-family="Helvetica,sans-Serif" font-size="12.00" fill="#000000"> </text>
<polyline fill="none" stroke="#bfbfbf" points="221.5,-1006.5 317.5,-1006.5 "/>
<text text-anchor="middle" x="269.5" y="-992.9" font-family="Helvetica,sans-Serif" font-size="12.00" fill="#000000"> </text>
</g>
<!-- Node8&#45;&gt;Node7 -->
<g id="edge7" class="edge">
<title>Node8&#45;&gt;Node7</title>
<path fill="none" stroke="#191970" d="M269.5,-974.9738C269.5,-962.8371 269.5,-949.387 269.5,-935.8048"/>
<polygon fill="none" stroke="#191970" points="266.0001,-975.2714 269.5,-985.2715 273.0001,-975.2715 266.0001,-975.2714"/>
</g>
<!-- Node9 -->
<g id="node9" class="node">
<title>Node9</title>
<g id="a_node9"><a xlink:title="STL class. ">
<polygon fill="#ffffff" stroke="#bfbfbf" points="326.5,-807.5 326.5,-870.5 406.5,-870.5 406.5,-807.5 326.5,-807.5"/>
<text text-anchor="middle" x="366.5" y="-856.9" font-family="Helvetica,sans-Serif" font-size="12.00" fill="#000000">std::deque&lt; T &gt;</text>
<polyline fill="none" stroke="#bfbfbf" points="326.5,-849.5 406.5,-849.5 "/>
<text text-anchor="middle" x="366.5" y="-835.9" font-family="Helvetica,sans-Serif" font-size="12.00" fill="#000000"> </text>
<polyline fill="none" stroke="#bfbfbf" points="326.5,-828.5 406.5,-828.5 "/>
<text text-anchor="middle" x="366.5" y="-814.9" font-family="Helvetica,sans-Serif" font-size="12.00" fill="#000000"> </text>
</a>
</g>
</g>
<!-- Node9&#45;&gt;Node6 -->
<g id="edge8" class="edge">
<title>Node9&#45;&gt;Node6</title>
<path fill="none" stroke="#ffa500" d="M356.3213,-797.2673C348.0957,-763.5423 336.6934,-716.7931 329.21,-686.111"/>
<polygon fill="#ffa500" stroke="#ffa500" points="352.9943,-798.3975 358.7642,-807.2833 359.7949,-796.7387 352.9943,-798.3975"/>
<text text-anchor="middle" x="372" y="-714.4" font-family="Helvetica,sans-Serif" font-size="12.00" fill="#000000"> &lt; timer_tuple_t &gt;</text>
</g>
<!-- Node10 -->
<g id="node10" class="node">
<title>Node10</title>
<polygon fill="#ffffff" stroke="#bfbfbf" points="352,-992 352,-1055 381,-1055 381,-992 352,-992"/>
<text text-anchor="middle" x="366.5" y="-1041.4" font-family="Helvetica,sans-Serif" font-size="12.00" fill="#000000">T</text>
<polyline fill="none" stroke="#bfbfbf" points="352,-1034 381,-1034 "/>
<text text-anchor="middle" x="366.5" y="-1020.4" font-family="Helvetica,sans-Serif" font-size="12.00" fill="#000000"> </text>
<polyline fill="none" stroke="#bfbfbf" points="352,-1013 381,-1013 "/>
<text text-anchor="middle" x="366.5" y="-999.4" font-family="Helvetica,sans-Serif" font-size="12.00" fill="#000000"> </text>
</g>
<!-- Node10&#45;&gt;Node9 -->
<g id="edge9" class="edge">
<title>Node10&#45;&gt;Node9</title>
<path fill="none" stroke="#404040" d="M366.5,-991.7833C366.5,-961.7264 366.5,-916.3194 366.5,-882.8131"/>
<polygon fill="none" stroke="#404040" points="366.5001,-882.611 362.5,-876.611 366.5,-870.611 370.5,-876.6109 366.5001,-882.611"/>
<text text-anchor="middle" x="389" y="-957.4" font-family="Helvetica,sans-Serif" font-size="12.00" fill="#000000"> +elements</text>
</g>
<!-- Node11 -->
<g id="node11" class="node">
<title>Node11</title>
<polygon fill="#ffffff" stroke="#bfbfbf" points="402.5,-616.5 402.5,-692.5 512.5,-692.5 512.5,-616.5 402.5,-616.5"/>
<text text-anchor="start" x="410.5" y="-678.9" font-family="Helvetica,sans-Serif" font-size="12.00" fill="#000000">static get_num_threads</text>
<text text-anchor="middle" x="457.5" y="-665.9" font-family="Helvetica,sans-Serif" font-size="12.00" fill="#000000">_func_t</text>
<polyline fill="none" stroke="#bfbfbf" points="402.5,-658.5 512.5,-658.5 "/>
<text text-anchor="middle" x="457.5" y="-644.9" font-family="Helvetica,sans-Serif" font-size="12.00" fill="#000000"> </text>
<polyline fill="none" stroke="#bfbfbf" points="402.5,-637.5 512.5,-637.5 "/>
<text text-anchor="middle" x="457.5" y="-623.9" font-family="Helvetica,sans-Serif" font-size="12.00" fill="#000000"> </text>
</g>
<!-- Node11&#45;&gt;Node2 -->
<g id="edge10" class="edge">
<title>Node11&#45;&gt;Node2</title>
<path fill="none" stroke="#404040" d="M445.1276,-616.204C443.6231,-610.1704 442.3273,-603.9577 441.5,-598 439.9106,-586.5543 440.1692,-583.4787 441.5,-572 441.7428,-569.9058 441.9979,-567.8029 442.2646,-565.6923"/>
<polygon fill="none" stroke="#404040" points="442.3013,-565.4218 439.1449,-558.9381 443.9158,-553.5309 447.0722,-560.0145 442.3013,-565.4218"/>
<text text-anchor="middle" x="484.5" y="-581.9" font-family="Helvetica,sans-Serif" font-size="12.00" fill="#000000"> #f_get_num_threads</text>
</g>
<!-- Node12 -->
<g id="node12" class="node">
<title>Node12</title>
<polygon fill="#ffffff" stroke="#bfbfbf" points="530.5,-623 530.5,-686 564.5,-686 564.5,-623 530.5,-623"/>
<text text-anchor="middle" x="547.5" y="-672.4" font-family="Helvetica,sans-Serif" font-size="12.00" fill="#000000">bool</text>
<polyline fill="none" stroke="#bfbfbf" points="530.5,-665 564.5,-665 "/>
<text text-anchor="middle" x="547.5" y="-651.4" font-family="Helvetica,sans-Serif" font-size="12.00" fill="#000000"> </text>
<polyline fill="none" stroke="#bfbfbf" points="530.5,-644 564.5,-644 "/>
<text text-anchor="middle" x="547.5" y="-630.4" font-family="Helvetica,sans-Serif" font-size="12.00" fill="#000000"> </text>
</g>
<!-- Node12&#45;&gt;Node2 -->
<g id="edge11" class="edge">
<title>Node12&#45;&gt;Node2</title>
<path fill="none" stroke="#404040" d="M542.0771,-622.986C539.4383,-607.6506 536.0147,-587.755 532.2136,-565.6661"/>
<polygon fill="none" stroke="#404040" points="532.1652,-565.3839 527.2055,-560.1491 530.1301,-553.5577 535.0897,-558.7924 532.1652,-565.3839"/>
<text text-anchor="middle" x="559.5" y="-581.9" font-family="Helvetica,sans-Serif" font-size="12.00" fill="#000000"> &#45;f_enabled</text>
</g>
<!-- Node13&#45;&gt;Node2 -->
<g id="edge12" class="edge">
<title>Node13&#45;&gt;Node2</title>
<path fill="none" stroke="#404040" d="M423.878,-76.6057C428.3335,-86.5089 432.9486,-97.5769 436.5,-108 438.6689,-114.3655 440.7908,-120.8526 442.8633,-127.422"/>
<polygon fill="none" stroke="#404040" points="442.999,-127.8616 448.5913,-132.4142 446.5398,-139.3274 440.9475,-134.7747 442.999,-127.8616"/>
<text text-anchor="middle" x="470" y="-111.4" font-family="Helvetica,sans-Serif" font-size="12.00" fill="#000000"> &#45;m_daughters</text>
</g>
<!-- Node14 -->
<g id="node14" class="node">
<title>Node14</title>
<g id="a_node14"><a xlink:title="STL class. ">
<polygon fill="#ffffff" stroke="#bfbfbf" points="74,-315 74,-378 141,-378 141,-315 74,-315"/>
<text text-anchor="middle" x="107.5" y="-364.4" font-family="Helvetica,sans-Serif" font-size="12.00" fill="#000000">std::set&lt; K &gt;</text>
<polyline fill="none" stroke="#bfbfbf" points="74,-357 141,-357 "/>
<text text-anchor="middle" x="107.5" y="-343.4" font-family="Helvetica,sans-Serif" font-size="12.00" fill="#000000"> </text>
<polyline fill="none" stroke="#bfbfbf" points="74,-336 141,-336 "/>
<text text-anchor="middle" x="107.5" y="-322.4" font-family="Helvetica,sans-Serif" font-size="12.00" fill="#000000"> </text>
</a>
</g>
</g>
<!-- Node14&#45;&gt;Node13 -->
<g id="edge14" class="edge">
<title>Node14&#45;&gt;Node13</title>
<path fill="none" stroke="#ffa500" d="M143.6284,-307.5886C188.4374,-259.7076 267.5939,-176.3566 338.5,-108 349.3291,-97.5602 361.4154,-86.4876 372.4565,-76.5852"/>
<polygon fill="#ffa500" stroke="#ffa500" points="141.0094,-305.2651 136.7383,-314.961 146.1235,-310.0448 141.0094,-305.2651"/>
<text text-anchor="middle" x="369" y="-111.4" font-family="Helvetica,sans-Serif" font-size="12.00" fill="#000000"> &lt; this_type * &gt;</text>
</g>
<!-- Node15 -->
<g id="node15" class="node">
<title>Node15</title>
<polygon fill="#ffffff" stroke="#bfbfbf" points="0,-623 0,-686 29,-686 29,-623 0,-623"/>
<text text-anchor="middle" x="14.5" y="-672.4" font-family="Helvetica,sans-Serif" font-size="12.00" fill="#000000">K</text>
<polyline fill="none" stroke="#bfbfbf" points="0,-665 29,-665 "/>
<text text-anchor="middle" x="14.5" y="-651.4" font-family="Helvetica,sans-Serif" font-size="12.00" fill="#000000"> </text>
<polyline fill="none" stroke="#bfbfbf" points="0,-644 29,-644 "/>
<text text-anchor="middle" x="14.5" y="-630.4" font-family="Helvetica,sans-Serif" font-size="12.00" fill="#000000"> </text>
</g>
<!-- Node15&#45;&gt;Node14 -->
<g id="edge15" class="edge">
<title>Node15&#45;&gt;Node14</title>
<path fill="none" stroke="#404040" d="M15.6137,-622.8437C16.6522,-607.359 18.6525,-588.5387 22.5,-572 37.8049,-506.2105 67.6118,-433.7157 87.5424,-389.1386"/>
<polygon fill="none" stroke="#404040" points="87.5643,-389.09 86.3904,-381.975 92.5066,-378.155 93.6804,-385.2699 87.5643,-389.09"/>
<text text-anchor="middle" x="36" y="-581.9" font-family="Helvetica,sans-Serif" font-size="12.00" fill="#000000"> +keys</text>
</g>
<!-- Node16 -->
<g id="node16" class="node">
<title>Node16</title>
<polygon fill="#ffffff" stroke="#bfbfbf" points="582.5,-623 582.5,-686 658.5,-686 658.5,-623 582.5,-623"/>
<text text-anchor="middle" x="620.5" y="-672.4" font-family="Helvetica,sans-Serif" font-size="12.00" fill="#000000">atomic&lt; bool &gt;</text>
<polyline fill="none" stroke="#bfbfbf" points="582.5,-665 658.5,-665 "/>
<text text-anchor="middle" x="620.5" y="-651.4" font-family="Helvetica,sans-Serif" font-size="12.00" fill="#000000"> </text>
<polyline fill="none" stroke="#bfbfbf" points="582.5,-644 658.5,-644 "/>
<text text-anchor="middle" x="620.5" y="-630.4" font-family="Helvetica,sans-Serif" font-size="12.00" fill="#000000"> </text>
</g>
<!-- Node16&#45;&gt;Node2 -->
<g id="edge16" class="edge">
<title>Node16&#45;&gt;Node2</title>
<path fill="none" stroke="#404040" d="M607.6079,-622.986C597.9165,-599.296 583.7732,-564.7234 568.7477,-527.9943"/>
<polygon fill="none" stroke="#404040" points="568.6039,-527.6427 562.6299,-523.6039 564.0602,-516.5361 570.0342,-520.5748 568.6039,-527.6427"/>
<text text-anchor="middle" x="617.5" y="-581.9" font-family="Helvetica,sans-Serif" font-size="12.00" fill="#000000"> &#45;m_merge</text>
</g>
<!-- Node17 -->
<g id="node17" class="node">
<title>Node17</title>
<polygon fill="#ffffff" stroke="#bfbfbf" points="677,-623 677,-686 744,-686 744,-623 677,-623"/>
<text text-anchor="middle" x="710.5" y="-672.4" font-family="Helvetica,sans-Serif" font-size="12.00" fill="#000000">static int32_t</text>
<polyline fill="none" stroke="#bfbfbf" points="677,-665 744,-665 "/>
<text text-anchor="middle" x="710.5" y="-651.4" font-family="Helvetica,sans-Serif" font-size="12.00" fill="#000000"> </text>
<polyline fill="none" stroke="#bfbfbf" points="677,-644 744,-644 "/>
<text text-anchor="middle" x="710.5" y="-630.4" font-family="Helvetica,sans-Serif" font-size="12.00" fill="#000000"> </text>
</g>
<!-- Node17&#45;&gt;Node2 -->
<g id="edge17" class="edge">
<title>Node17&#45;&gt;Node2</title>
<path fill="none" stroke="#404040" d="M688.3993,-622.986C660.9561,-583.854 612.6887,-515.0283 571.1788,-455.8383"/>
<polygon fill="none" stroke="#404040" points="570.938,-455.4949 564.218,-452.8792 564.0478,-445.6701 570.7679,-448.2858 570.938,-455.4949"/>
<text text-anchor="middle" x="697.5" y="-581.9" font-family="Helvetica,sans-Serif" font-size="12.00" fill="#000000"> &#45;f_max_depth</text>
</g>
<!-- Node18 -->
<g id="node18" class="node">
<title>Node18</title>
<polygon fill="#ffffff" stroke="#bfbfbf" points="762,-623 762,-686 825,-686 825,-623 762,-623"/>
<text text-anchor="middle" x="793.5" y="-672.4" font-family="Helvetica,sans-Serif" font-size="12.00" fill="#000000">ostream_t *</text>
<polyline fill="none" stroke="#bfbfbf" points="762,-665 825,-665 "/>
<text text-anchor="middle" x="793.5" y="-651.4" font-family="Helvetica,sans-Serif" font-size="12.00" fill="#000000"> </text>
<polyline fill="none" stroke="#bfbfbf" points="762,-644 825,-644 "/>
<text text-anchor="middle" x="793.5" y="-630.4" font-family="Helvetica,sans-Serif" font-size="12.00" fill="#000000"> </text>
</g>
<!-- Node18&#45;&gt;Node2 -->
<g id="edge19" class="edge">
<title>Node18&#45;&gt;Node2</title>
<path fill="none" stroke="#404040" d="M770.9728,-622.6349C759.4227,-606.9285 744.804,-587.9784 730.5,-572 681.0536,-516.7652 620.5153,-459.0962 573.1333,-415.9045"/>
<polygon fill="none" stroke="#404040" points="573.0254,-415.8065 565.8946,-414.7334 564.1425,-407.7384 571.2734,-408.8115 573.0254,-415.8065"/>
<text text-anchor="middle" x="771.5" y="-581.9" font-family="Helvetica,sans-Serif" font-size="12.00" fill="#000000"> &#45;m_report</text>
</g>
<!-- Node19 -->
<g id="node19" class="node">
<title>Node19</title>
<polygon fill="#ffffff" stroke="#bfbfbf" points="843,-616.5 843,-692.5 952,-692.5 952,-616.5 843,-616.5"/>
<text text-anchor="start" x="851" y="-678.9" font-family="Helvetica,sans-Serif" font-size="12.00" fill="#000000">uomap&lt; uint64_t, timer</text>
<text text-anchor="middle" x="897.5" y="-665.9" font-family="Helvetica,sans-Serif" font-size="12.00" fill="#000000">_ptr_t &gt;</text>
<polyline fill="none" stroke="#bfbfbf" points="843,-658.5 952,-658.5 "/>
<text text-anchor="middle" x="897.5" y="-644.9" font-family="Helvetica,sans-Serif" font-size="12.00" fill="#000000"> </text>
<polyline fill="none" stroke="#bfbfbf" points="843,-637.5 952,-637.5 "/>
<text text-anchor="middle" x="897.5" y="-623.9" font-family="Helvetica,sans-Serif" font-size="12.00" fill="#000000"> </text>
</g>
<!-- Node19&#45;&gt;Node2 -->
<g id="edge20" class="edge">
<title>Node19&#45;&gt;Node2</title>
<path fill="none" stroke="#404040" d="M851.8346,-616.4955C834.6234,-602.3581 814.7884,-586.2863 796.5,-572 722.009,-513.8103 635.4234,-449.488 574.1125,-404.4832"/>
<polygon fill="none" stroke="#404040" points="573.7911,-404.2475 566.5872,-403.9248 564.1144,-397.1509 571.3183,-397.4736 573.7911,-404.2475"/>
<text text-anchor="middle" x="857" y="-581.9" font-family="Helvetica,sans-Serif" font-size="12.00" fill="#000000"> &#45;m_timer_map</text>
</g>
<!-- Node20 -->
<g id="node20" class="node">
<title>Node20</title>
<polygon fill="#ffffff" stroke="#bfbfbf" points="970.5,-623 970.5,-686 1042.5,-686 1042.5,-623 970.5,-623"/>
<text text-anchor="middle" x="1006.5" y="-672.4" font-family="Helvetica,sans-Serif" font-size="12.00" fill="#000000">static mutex_t</text>
<polyline fill="none" stroke="#bfbfbf" points="970.5,-665 1042.5,-665 "/>
<text text-anchor="middle" x="1006.5" y="-651.4" font-family="Helvetica,sans-Serif" font-size="12.00" fill="#000000"> </text>
<polyline fill="none" stroke="#bfbfbf" points="970.5,-644 1042.5,-644 "/>
<text text-anchor="middle" x="1006.5" y="-630.4" font-family="Helvetica,sans-Serif" font-size="12.00" fill="#000000"> </text>
</g>
<!-- Node20&#45;&gt;Node2 -->
<g id="edge21" class="edge">
<title>Node20&#45;&gt;Node2</title>
<path fill="none" stroke="#404040" d="M970.5243,-622.9307C967.5137,-620.5321 964.4811,-618.1939 961.5,-616 931.904,-594.2193 923.0394,-590.857 891.5,-572 782.9287,-507.0866 655.4448,-435.4749 574.8187,-390.7415"/>
<polygon fill="none" stroke="#404040" points="574.7435,-390.6999 567.5565,-391.2893 564.2482,-384.8818 571.4352,-384.2924 574.7435,-390.6999"/>
<text text-anchor="middle" x="953.5" y="-581.9" font-family="Helvetica,sans-Serif" font-size="12.00" fill="#000000"> #f_mutex</text>
</g>
</g>
</svg>
        <g id="navigator" transform="translate(0 0)" fill="#404254">
                <rect fill="#f2f5e9" fill-opacity="0.5" stroke="#606060" stroke-width=".5" x="0" y="0" width="60" height="60"/>
                <use id="zoomplus" xlink:href="#zoomPlus" x="17" y="9" onmousedown="handleZoom(evt,'in')"/>
                <use id="zoomminus" xlink:href="#zoomMin" x="42" y="9" onmousedown="handleZoom(evt,'out')"/>
                <use id="reset" xlink:href="#resetDef" x="30" y="36" onmousedown="handleReset()"/>
                <g id="arrowUp" xlink:href="#dirArrow" transform="translate(30 24)" onmousedown="handlePan(0,-1)">
                  <use xlink:href="#rim" fill="#404040">
                        <set attributeName="fill" to="#808080" begin="arrowUp.mouseover" end="arrowUp.mouseout"/>
                  </use>
                  <path fill="none" stroke="white" stroke-width="1.5" d="M0,-3.0v7 M-2.5,-0.5L0,-3.0L2.5,-0.5"/>
                </g>
                <g id="arrowRight" xlink:href="#dirArrow" transform="rotate(90) translate(36 -43)" onmousedown="handlePan(1,0)">
                  <use xlink:href="#rim" fill="#404040">
                        <set attributeName="fill" to="#808080" begin="arrowRight.mouseover" end="arrowRight.mouseout"/>
                  </use>
                  <path fill="none" stroke="white" stroke-width="1.5" d="M0,-3.0v7 M-2.5,-0.5L0,-3.0L2.5,-0.5"/>
                </g>
                <g id="arrowDown" xlink:href="#dirArrow" transform="rotate(180) translate(-30 -48)" onmousedown="handlePan(0,1)">
                  <use xlink:href="#rim" fill="#404040">
                        <set attributeName="fill" to="#808080" begin="arrowDown.mouseover" end="arrowDown.mouseout"/>
                  </use>
                  <path fill="none" stroke="white" stroke-width="1.5" d="M0,-3.0v7 M-2.5,-0.5L0,-3.0L2.5,-0.5"/>
                </g>
                <g id="arrowLeft" xlink:href="#dirArrow" transform="rotate(270) translate(-36 17)" onmousedown="handlePan(-1,0)">
                  <use xlink:href="#rim" fill="#404040">
                        <set attributeName="fill" to="#808080" begin="arrowLeft.mouseover" end="arrowLeft.mouseout"/>
                  </use>
                  <path fill="none" stroke="white" stroke-width="1.5" d="M0,-3.0v7 M-2.5,-0.5L0,-3.0L2.5,-0.5"/>
                </g>
        </g>
        <svg viewBox="0 0 15 15" width="100%" height="30px" preserveAspectRatio="xMaxYMin meet">
         <g id="arrow_out" transform="scale(0.3 0.3)">
          <a xlink:href="classmanager__wrapper__coll__graph_org.svg" target="_base">
           <rect id="button" ry="5" rx="5" y="6" x="6" height="38" width="38"
                fill="#f2f5e9" fill-opacity="0.5" stroke="#606060" stroke-width="1.0"/>
           <path id="arrow"
             d="M 11.500037,31.436501 C 11.940474,20.09759 22.043105,11.32322 32.158766,21.979434 L 37.068811,17.246167 C 37.068811,17.246167 37.088388,32 37.088388,32 L 22.160133,31.978069 C 22.160133,31.978069 26.997745,27.140456 26.997745,27.140456 C 18.528582,18.264221 13.291696,25.230495 11.500037,31.436501 z"
             style="fill:#404040;"/>
          </a>
         </g>
        </svg>
</svg>
