<?xml version="1.0" encoding="UTF-8" standalone="no"?>
<!DOCTYPE svg PUBLIC "-//W3C//DTD SVG 1.1//EN"
 "http://www.w3.org/Graphics/SVG/1.1/DTD/svg11.dtd">
<!-- Generated by graphviz version 2.40.1 (20161225.0304)
 -->
<!-- Title: tim::internal::base_timer Pages: 1 -->
<!--zoomable 1395 -->
<svg id="main" version="1.1" xmlns="http://www.w3.org/2000/svg" xmlns:xlink="http://www.w3.org/1999/xlink" xml:space="preserve" onload="init(evt)">
<style type="text/css"><![CDATA[
.edge:hover path { stroke: red; }
.edge:hover polygon { stroke: red; fill: red; }
]]></style>
<script type="text/javascript"><![CDATA[
var edges = document.getElementsByTagName('g');
if (edges && edges.length) {
  for (var i=0;i<edges.length;i++) {
    if (edges[i].id.substr(0,4)=='edge') {
      edges[i].setAttribute('class','edge');
    }
  }
}
]]></script>
        <defs>
                <circle id="rim" cx="0" cy="0" r="7"/>
                <circle id="rim2" cx="0" cy="0" r="3.5"/>
                <g id="zoomPlus">
                        <use xlink:href="#rim" fill="#404040">
                                <set attributeName="fill" to="#808080" begin="zoomplus.mouseover" end="zoomplus.mouseout"/>
                        </use>
                        <path d="M-4,0h8M0,-4v8" fill="none" stroke="white" stroke-width="1.5" pointer-events="none"/>
                </g>
                <g id="zoomMin">
                        <use xlink:href="#rim" fill="#404040">
                                <set attributeName="fill" to="#808080" begin="zoomminus.mouseover" end="zoomminus.mouseout"/>
                        </use>
                        <path d="M-4,0h8" fill="none" stroke="white" stroke-width="1.5" pointer-events="none"/>
                </g>
                <g id="dirArrow">
                        <path fill="none" stroke="white" stroke-width="1.5" d="M0,-3.0v7 M-2.5,-0.5L0,-3.0L2.5,-0.5"/>
                </g>
               <g id="resetDef">
                       <use xlink:href="#rim2" fill="#404040">
                               <set attributeName="fill" to="#808080" begin="reset.mouseover" end="reset.mouseout"/>
                       </use>
               </g>
        </defs>

<script type="text/javascript">
var viewWidth = 956;
var viewHeight = 1395;
var sectionId = 'dynsection-1';
</script>
<script xlink:href="../../svgpan.js"/>
<svg id="graph" class="graph">
<g id="viewport">
<title>tim::internal::base_timer</title>
<polygon fill="#ffffff" stroke="transparent" points="-4,4 -4,-1391 951.5,-1391 951.5,4 -4,4"/>
<!-- Node2 -->
<g id="node1" class="node">
<title>Node2</title>
<polygon fill="#bfbfbf" stroke="#000000" points="483,-.5 483,-271.5 578,-271.5 578,-.5 483,-.5"/>
<text text-anchor="start" x="491" y="-257.9" font-family="Helvetica,sans-Serif" font-size="12.00" fill="#000000">tim::internal::base</text>
<text text-anchor="middle" x="530.5" y="-244.9" font-family="Helvetica,sans-Serif" font-size="12.00" fill="#000000">_timer</text>
<polyline fill="none" stroke="#000000" points="483,-237.5 578,-237.5 "/>
<text text-anchor="middle" x="530.5" y="-223.9" font-family="Helvetica,sans-Serif" font-size="12.00" fill="#000000"> </text>
<polyline fill="none" stroke="#000000" points="483,-216.5 578,-216.5 "/>
<text text-anchor="start" x="491" y="-202.9" font-family="Helvetica,sans-Serif" font-size="12.00" fill="#000000">+ base_timer()</text>
<text text-anchor="start" x="491" y="-189.9" font-family="Helvetica,sans-Serif" font-size="12.00" fill="#000000">+ ~base_timer()</text>
<text text-anchor="start" x="491" y="-176.9" font-family="Helvetica,sans-Serif" font-size="12.00" fill="#000000">+ base_timer()</text>
<text text-anchor="start" x="491" y="-163.9" font-family="Helvetica,sans-Serif" font-size="12.00" fill="#000000">+ operator=()</text>
<text text-anchor="start" x="491" y="-150.9" font-family="Helvetica,sans-Serif" font-size="12.00" fill="#000000">+ start()</text>
<text text-anchor="start" x="491" y="-137.9" font-family="Helvetica,sans-Serif" font-size="12.00" fill="#000000">+ stop()</text>
<text text-anchor="start" x="491" y="-124.9" font-family="Helvetica,sans-Serif" font-size="12.00" fill="#000000">+ is_valid()</text>
<text text-anchor="start" x="491" y="-111.9" font-family="Helvetica,sans-Serif" font-size="12.00" fill="#000000">+ real_elapsed()</text>
<text text-anchor="start" x="491" y="-98.9" font-family="Helvetica,sans-Serif" font-size="12.00" fill="#000000">+ system_elapsed()</text>
<text text-anchor="start" x="491" y="-85.9" font-family="Helvetica,sans-Serif" font-size="12.00" fill="#000000">+ user_elapsed()</text>
<text text-anchor="start" x="491" y="-72.9" font-family="Helvetica,sans-Serif" font-size="12.00" fill="#000000">and 15 more...</text>
<text text-anchor="start" x="491" y="-59.9" font-family="Helvetica,sans-Serif" font-size="12.00" fill="#000000"># parse_format()</text>
<text text-anchor="start" x="491" y="-46.9" font-family="Helvetica,sans-Serif" font-size="12.00" fill="#000000"># compose()</text>
<text text-anchor="start" x="491" y="-33.9" font-family="Helvetica,sans-Serif" font-size="12.00" fill="#000000"># m_timer()</text>
<text text-anchor="start" x="491" y="-20.9" font-family="Helvetica,sans-Serif" font-size="12.00" fill="#000000"># get_accum()</text>
<text text-anchor="start" x="491" y="-7.9" font-family="Helvetica,sans-Serif" font-size="12.00" fill="#000000"># get_accum()</text>
</g>
<!-- Node3 -->
<g id="node2" class="node">
<title>Node3</title>
<g id="a_node2"><a xlink:href="../../da/d4a/classtim_1_1internal_1_1base__timer__data.html" target="_top" xlink:title="{tim::internal::base\l_timer_data\n||+ base_timer_data()\l+ start()\l+ stop()\l+ start()\l+ stop()\l+ running()\l+ serialize()\l+ rss_init()\l+ rss_record()\l+ rss()\l+ rss()\l+ operator=()\l}">
<polygon fill="#ffffff" stroke="#000000" points="119,-360.5 119,-579.5 216,-579.5 216,-360.5 119,-360.5"/>
<text text-anchor="start" x="127" y="-565.9" font-family="Helvetica,sans-Serif" font-size="12.00" fill="#000000">tim::internal::base</text>
<text text-anchor="middle" x="167.5" y="-552.9" font-family="Helvetica,sans-Serif" font-size="12.00" fill="#000000">_timer_data</text>
<polyline fill="none" stroke="#000000" points="119,-545.5 216,-545.5 "/>
<text text-anchor="middle" x="167.5" y="-531.9" font-family="Helvetica,sans-Serif" font-size="12.00" fill="#000000"> </text>
<polyline fill="none" stroke="#000000" points="119,-524.5 216,-524.5 "/>
<text text-anchor="start" x="127" y="-510.9" font-family="Helvetica,sans-Serif" font-size="12.00" fill="#000000">+ base_timer_data()</text>
<text text-anchor="start" x="127" y="-497.9" font-family="Helvetica,sans-Serif" font-size="12.00" fill="#000000">+ start()</text>
<text text-anchor="start" x="127" y="-484.9" font-family="Helvetica,sans-Serif" font-size="12.00" fill="#000000">+ stop()</text>
<text text-anchor="start" x="127" y="-471.9" font-family="Helvetica,sans-Serif" font-size="12.00" fill="#000000">+ start()</text>
<text text-anchor="start" x="127" y="-458.9" font-family="Helvetica,sans-Serif" font-size="12.00" fill="#000000">+ stop()</text>
<text text-anchor="start" x="127" y="-445.9" font-family="Helvetica,sans-Serif" font-size="12.00" fill="#000000">+ running()</text>
<text text-anchor="start" x="127" y="-432.9" font-family="Helvetica,sans-Serif" font-size="12.00" fill="#000000">+ serialize()</text>
<text text-anchor="start" x="127" y="-419.9" font-family="Helvetica,sans-Serif" font-size="12.00" fill="#000000">+ rss_init()</text>
<text text-anchor="start" x="127" y="-406.9" font-family="Helvetica,sans-Serif" font-size="12.00" fill="#000000">+ rss_record()</text>
<text text-anchor="start" x="127" y="-393.9" font-family="Helvetica,sans-Serif" font-size="12.00" fill="#000000">+ rss()</text>
<text text-anchor="start" x="127" y="-380.9" font-family="Helvetica,sans-Serif" font-size="12.00" fill="#000000">+ rss()</text>
<text text-anchor="start" x="127" y="-367.9" font-family="Helvetica,sans-Serif" font-size="12.00" fill="#000000">+ operator=()</text>
</a>
</g>
</g>
<!-- Node3&#45;&gt;Node2 -->
<g id="edge1" class="edge">
<title>Node3&#45;&gt;Node2</title>
<path fill="none" stroke="#404040" d="M216.0702,-377.7696C228.757,-357.8901 243.4358,-337.818 259.5,-321 322.8416,-254.6862 413.6818,-198.6186 472.3897,-166.1332"/>
<polygon fill="none" stroke="#404040" points="472.4378,-166.1069 475.7802,-159.7171 482.9639,-160.3448 479.6216,-166.7345 472.4378,-166.1069"/>
<text text-anchor="middle" x="311.5" y="-293.4" font-family="Helvetica,sans-Serif" font-size="12.00" fill="#000000"> #m_data</text>
</g>
<!-- Node4 -->
<g id="node3" class="node">
<title>Node4</title>
<polygon fill="#ffffff" stroke="#bfbfbf" points="0,-766 0,-842 95,-842 95,-766 0,-766"/>
<text text-anchor="start" x="8" y="-828.4" font-family="Helvetica,sans-Serif" font-size="12.00" fill="#000000">tuple&lt; time_point_t,</text>
<text text-anchor="middle" x="47.5" y="-815.4" font-family="Helvetica,sans-Serif" font-size="12.00" fill="#000000"> time_point_t &gt;</text>
<polyline fill="none" stroke="#bfbfbf" points="0,-808 95,-808 "/>
<text text-anchor="middle" x="47.5" y="-794.4" font-family="Helvetica,sans-Serif" font-size="12.00" fill="#000000"> </text>
<polyline fill="none" stroke="#bfbfbf" points="0,-787 95,-787 "/>
<text text-anchor="middle" x="47.5" y="-773.4" font-family="Helvetica,sans-Serif" font-size="12.00" fill="#000000"> </text>
</g>
<!-- Node4&#45;&gt;Node3 -->
<g id="edge2" class="edge">
<title>Node4&#45;&gt;Node3</title>
<path fill="none" stroke="#404040" d="M54.5781,-765.8902C61.4763,-731.6216 73.1613,-680.1827 88.5,-637 95.7012,-616.7267 104.5524,-595.6119 113.6947,-575.4886"/>
<polygon fill="none" stroke="#404040" points="113.772,-575.3207 112.6508,-568.1973 118.795,-564.4225 119.9162,-571.546 113.772,-575.3207"/>
<text text-anchor="middle" x="107.5" y="-646.9" font-family="Helvetica,sans-Serif" font-size="12.00" fill="#000000"> #m_data</text>
</g>
<!-- Node5 -->
<g id="node4" class="node">
<title>Node5</title>
<polygon fill="#ffffff" stroke="#bfbfbf" points="113.5,-772.5 113.5,-835.5 147.5,-835.5 147.5,-772.5 113.5,-772.5"/>
<text text-anchor="middle" x="130.5" y="-821.9" font-family="Helvetica,sans-Serif" font-size="12.00" fill="#000000">bool</text>
<polyline fill="none" stroke="#bfbfbf" points="113.5,-814.5 147.5,-814.5 "/>
<text text-anchor="middle" x="130.5" y="-800.9" font-family="Helvetica,sans-Serif" font-size="12.00" fill="#000000"> </text>
<polyline fill="none" stroke="#bfbfbf" points="113.5,-793.5 147.5,-793.5 "/>
<text text-anchor="middle" x="130.5" y="-779.9" font-family="Helvetica,sans-Serif" font-size="12.00" fill="#000000"> </text>
</g>
<!-- Node5&#45;&gt;Node3 -->
<g id="edge3" class="edge">
<title>Node5&#45;&gt;Node3</title>
<path fill="none" stroke="#404040" d="M128.7617,-772.4941C127.354,-738.8362 126.3517,-683.9783 131.5,-637 133.1189,-622.2276 135.4832,-606.8404 138.239,-591.645"/>
<polygon fill="none" stroke="#404040" points="138.3026,-591.3073 135.4838,-584.6699 140.5264,-579.5151 143.3452,-586.1524 138.3026,-591.3073"/>
<text text-anchor="middle" x="157" y="-646.9" font-family="Helvetica,sans-Serif" font-size="12.00" fill="#000000"> #m_running</text>
</g>
<!-- Node6 -->
<g id="node5" class="node">
<title>Node6</title>
<g id="a_node5"><a xlink:href="../../d9/d4f/classtim_1_1internal_1_1base__rss__usage.html" target="_top" xlink:title="{tim::internal::base\l_rss_usage\n||+ init()\l+ record()\l+ total()\l+ self()\l+ total()\l+ self()\l+ total_min()\l+ self_min()\l+ total_min()\l+ self_min()\l+ max()\l+ operator+=()\l+ operator&#45;=()\l+ operator=()\l}">
<polygon fill="#ffffff" stroke="#000000" points="165.5,-681.5 165.5,-926.5 253.5,-926.5 253.5,-681.5 165.5,-681.5"/>
<text text-anchor="start" x="173.5" y="-912.9" font-family="Helvetica,sans-Serif" font-size="12.00" fill="#000000">tim::internal::base</text>
<text text-anchor="middle" x="209.5" y="-899.9" font-family="Helvetica,sans-Serif" font-size="12.00" fill="#000000">_rss_usage</text>
<polyline fill="none" stroke="#000000" points="165.5,-892.5 253.5,-892.5 "/>
<text text-anchor="middle" x="209.5" y="-878.9" font-family="Helvetica,sans-Serif" font-size="12.00" fill="#000000"> </text>
<polyline fill="none" stroke="#000000" points="165.5,-871.5 253.5,-871.5 "/>
<text text-anchor="start" x="173.5" y="-857.9" font-family="Helvetica,sans-Serif" font-size="12.00" fill="#000000">+ init()</text>
<text text-anchor="start" x="173.5" y="-844.9" font-family="Helvetica,sans-Serif" font-size="12.00" fill="#000000">+ record()</text>
<text text-anchor="start" x="173.5" y="-831.9" font-family="Helvetica,sans-Serif" font-size="12.00" fill="#000000">+ total()</text>
<text text-anchor="start" x="173.5" y="-818.9" font-family="Helvetica,sans-Serif" font-size="12.00" fill="#000000">+ self()</text>
<text text-anchor="start" x="173.5" y="-805.9" font-family="Helvetica,sans-Serif" font-size="12.00" fill="#000000">+ total()</text>
<text text-anchor="start" x="173.5" y="-792.9" font-family="Helvetica,sans-Serif" font-size="12.00" fill="#000000">+ self()</text>
<text text-anchor="start" x="173.5" y="-779.9" font-family="Helvetica,sans-Serif" font-size="12.00" fill="#000000">+ total_min()</text>
<text text-anchor="start" x="173.5" y="-766.9" font-family="Helvetica,sans-Serif" font-size="12.00" fill="#000000">+ self_min()</text>
<text text-anchor="start" x="173.5" y="-753.9" font-family="Helvetica,sans-Serif" font-size="12.00" fill="#000000">+ total_min()</text>
<text text-anchor="start" x="173.5" y="-740.9" font-family="Helvetica,sans-Serif" font-size="12.00" fill="#000000">+ self_min()</text>
<text text-anchor="start" x="173.5" y="-727.9" font-family="Helvetica,sans-Serif" font-size="12.00" fill="#000000">+ max()</text>
<text text-anchor="start" x="173.5" y="-714.9" font-family="Helvetica,sans-Serif" font-size="12.00" fill="#000000">+ operator+=()</text>
<text text-anchor="start" x="173.5" y="-701.9" font-family="Helvetica,sans-Serif" font-size="12.00" fill="#000000">+ operator&#45;=()</text>
<text text-anchor="start" x="173.5" y="-688.9" font-family="Helvetica,sans-Serif" font-size="12.00" fill="#000000">+ operator=()</text>
</a>
</g>
</g>
<!-- Node6&#45;&gt;Node3 -->
<g id="edge4" class="edge">
<title>Node6&#45;&gt;Node3</title>
<path fill="none" stroke="#404040" d="M194.0397,-681.0536C190.3702,-651.8724 186.4576,-620.7584 182.7955,-591.6359"/>
<polygon fill="none" stroke="#404040" points="182.7947,-591.6285 178.0773,-586.1745 181.2974,-579.7223 186.0148,-585.1763 182.7947,-591.6285"/>
<text text-anchor="middle" x="208" y="-646.9" font-family="Helvetica,sans-Serif" font-size="12.00" fill="#000000"> #m_rss</text>
</g>
<!-- Node17 -->
<g id="node16" class="node">
<title>Node17</title>
<g id="a_node16"><a xlink:href="../../dc/d37/classtim_1_1internal_1_1base__timer__delta.html" target="_top" xlink:title="{tim::internal::base\l_timer_delta\n||+ base_timer_delta()\l+ reset()\l+ operator=()\l+ operator+=()\l+ operator+=()\l+ operator+=()\l+ operator&#45;=()\l+ operator/=()\l+ get_sum()\l+ get_sqr()\l+ size()\l+ rss()\l+ rss()\l# compute()\l# compute_sum()\l# compute_sqr()\l# divide_sum()\l# divide_sqr()\l}">
<polygon fill="#ffffff" stroke="#000000" points="269,-321.5 269,-618.5 368,-618.5 368,-321.5 269,-321.5"/>
<text text-anchor="start" x="277" y="-604.9" font-family="Helvetica,sans-Serif" font-size="12.00" fill="#000000">tim::internal::base</text>
<text text-anchor="middle" x="318.5" y="-591.9" font-family="Helvetica,sans-Serif" font-size="12.00" fill="#000000">_timer_delta</text>
<polyline fill="none" stroke="#000000" points="269,-584.5 368,-584.5 "/>
<text text-anchor="middle" x="318.5" y="-570.9" font-family="Helvetica,sans-Serif" font-size="12.00" fill="#000000"> </text>
<polyline fill="none" stroke="#000000" points="269,-563.5 368,-563.5 "/>
<text text-anchor="start" x="277" y="-549.9" font-family="Helvetica,sans-Serif" font-size="12.00" fill="#000000">+ base_timer_delta()</text>
<text text-anchor="start" x="277" y="-536.9" font-family="Helvetica,sans-Serif" font-size="12.00" fill="#000000">+ reset()</text>
<text text-anchor="start" x="277" y="-523.9" font-family="Helvetica,sans-Serif" font-size="12.00" fill="#000000">+ operator=()</text>
<text text-anchor="start" x="277" y="-510.9" font-family="Helvetica,sans-Serif" font-size="12.00" fill="#000000">+ operator+=()</text>
<text text-anchor="start" x="277" y="-497.9" font-family="Helvetica,sans-Serif" font-size="12.00" fill="#000000">+ operator+=()</text>
<text text-anchor="start" x="277" y="-484.9" font-family="Helvetica,sans-Serif" font-size="12.00" fill="#000000">+ operator+=()</text>
<text text-anchor="start" x="277" y="-471.9" font-family="Helvetica,sans-Serif" font-size="12.00" fill="#000000">+ operator&#45;=()</text>
<text text-anchor="start" x="277" y="-458.9" font-family="Helvetica,sans-Serif" font-size="12.00" fill="#000000">+ operator/=()</text>
<text text-anchor="start" x="277" y="-445.9" font-family="Helvetica,sans-Serif" font-size="12.00" fill="#000000">+ get_sum()</text>
<text text-anchor="start" x="277" y="-432.9" font-family="Helvetica,sans-Serif" font-size="12.00" fill="#000000">+ get_sqr()</text>
<text text-anchor="start" x="277" y="-419.9" font-family="Helvetica,sans-Serif" font-size="12.00" fill="#000000">+ size()</text>
<text text-anchor="start" x="277" y="-406.9" font-family="Helvetica,sans-Serif" font-size="12.00" fill="#000000">+ rss()</text>
<text text-anchor="start" x="277" y="-393.9" font-family="Helvetica,sans-Serif" font-size="12.00" fill="#000000">+ rss()</text>
<text text-anchor="start" x="277" y="-380.9" font-family="Helvetica,sans-Serif" font-size="12.00" fill="#000000"># compute()</text>
<text text-anchor="start" x="277" y="-367.9" font-family="Helvetica,sans-Serif" font-size="12.00" fill="#000000"># compute_sum()</text>
<text text-anchor="start" x="277" y="-354.9" font-family="Helvetica,sans-Serif" font-size="12.00" fill="#000000"># compute_sqr()</text>
<text text-anchor="start" x="277" y="-341.9" font-family="Helvetica,sans-Serif" font-size="12.00" fill="#000000"># divide_sum()</text>
<text text-anchor="start" x="277" y="-328.9" font-family="Helvetica,sans-Serif" font-size="12.00" fill="#000000"># divide_sqr()</text>
</a>
</g>
</g>
<!-- Node6&#45;&gt;Node17 -->
<g id="edge17" class="edge">
<title>Node6&#45;&gt;Node17</title>
<path fill="none" stroke="#404040" d="M249.6232,-681.0536C254.9991,-664.5806 260.5761,-647.4917 266.1236,-630.4928"/>
<polygon fill="none" stroke="#404040" points="266.2337,-630.1553 264.2926,-623.2104 269.9567,-618.7474 271.8978,-625.6924 266.2337,-630.1553"/>
<text text-anchor="middle" x="281" y="-646.9" font-family="Helvetica,sans-Serif" font-size="12.00" fill="#000000"> #m_rss</text>
</g>
<!-- Node7 -->
<g id="node6" class="node">
<title>Node7</title>
<g id="a_node6"><a xlink:href="../../de/df3/structtim_1_1rss_1_1usage.html" target="_top" xlink:title="{tim::rss::usage\n||+ usage()\l+ usage()\l+ usage()\l+ operator=()\l+ record()\l+ record()\l+ operator()()\l+ operator+=()\l+ operator&#45;=()\l+ current()\l+ peak()\l+ serialize()\l+ max()\l+ min()\l}">
<polygon fill="#ffffff" stroke="#000000" points="172,-1028.5 172,-1260.5 247,-1260.5 247,-1028.5 172,-1028.5"/>
<text text-anchor="middle" x="209.5" y="-1246.9" font-family="Helvetica,sans-Serif" font-size="12.00" fill="#000000">tim::rss::usage</text>
<polyline fill="none" stroke="#000000" points="172,-1239.5 247,-1239.5 "/>
<text text-anchor="middle" x="209.5" y="-1225.9" font-family="Helvetica,sans-Serif" font-size="12.00" fill="#000000"> </text>
<polyline fill="none" stroke="#000000" points="172,-1218.5 247,-1218.5 "/>
<text text-anchor="start" x="180" y="-1204.9" font-family="Helvetica,sans-Serif" font-size="12.00" fill="#000000">+ usage()</text>
<text text-anchor="start" x="180" y="-1191.9" font-family="Helvetica,sans-Serif" font-size="12.00" fill="#000000">+ usage()</text>
<text text-anchor="start" x="180" y="-1178.9" font-family="Helvetica,sans-Serif" font-size="12.00" fill="#000000">+ usage()</text>
<text text-anchor="start" x="180" y="-1165.9" font-family="Helvetica,sans-Serif" font-size="12.00" fill="#000000">+ operator=()</text>
<text text-anchor="start" x="180" y="-1152.9" font-family="Helvetica,sans-Serif" font-size="12.00" fill="#000000">+ record()</text>
<text text-anchor="start" x="180" y="-1139.9" font-family="Helvetica,sans-Serif" font-size="12.00" fill="#000000">+ record()</text>
<text text-anchor="start" x="180" y="-1126.9" font-family="Helvetica,sans-Serif" font-size="12.00" fill="#000000">+ operator()()</text>
<text text-anchor="start" x="180" y="-1113.9" font-family="Helvetica,sans-Serif" font-size="12.00" fill="#000000">+ operator+=()</text>
<text text-anchor="start" x="180" y="-1100.9" font-family="Helvetica,sans-Serif" font-size="12.00" fill="#000000">+ operator&#45;=()</text>
<text text-anchor="start" x="180" y="-1087.9" font-family="Helvetica,sans-Serif" font-size="12.00" fill="#000000">+ current()</text>
<text text-anchor="start" x="180" y="-1074.9" font-family="Helvetica,sans-Serif" font-size="12.00" fill="#000000">+ peak()</text>
<text text-anchor="start" x="180" y="-1061.9" font-family="Helvetica,sans-Serif" font-size="12.00" fill="#000000">+ serialize()</text>
<text text-anchor="start" x="180" y="-1048.9" font-family="Helvetica,sans-Serif" font-size="12.00" fill="#000000">+ max()</text>
<text text-anchor="start" x="180" y="-1035.9" font-family="Helvetica,sans-Serif" font-size="12.00" fill="#000000">+ min()</text>
</a>
</g>
</g>
<!-- Node7&#45;&gt;Node6 -->
<g id="edge5" class="edge">
<title>Node7&#45;&gt;Node6</title>
<path fill="none" stroke="#404040" d="M209.5,-1028.2716C209.5,-999.4859 209.5,-968.4017 209.5,-938.8119"/>
<polygon fill="none" stroke="#404040" points="209.5001,-938.6765 205.5,-932.6765 209.5,-926.6765 213.5,-932.6764 209.5001,-938.6765"/>
<text text-anchor="middle" x="244" y="-1000.4" font-family="Helvetica,sans-Serif" font-size="12.00" fill="#000000"> #m_rss_tmp</text>
<text text-anchor="middle" x="244" y="-987.4" font-family="Helvetica,sans-Serif" font-size="12.00" fill="#000000">#m_rss_self</text>
<text text-anchor="middle" x="244" y="-974.4" font-family="Helvetica,sans-Serif" font-size="12.00" fill="#000000">#m_rss_tot</text>
<text text-anchor="middle" x="244" y="-961.4" font-family="Helvetica,sans-Serif" font-size="12.00" fill="#000000">#m_rss_self_min</text>
<text text-anchor="middle" x="244" y="-948.4" font-family="Helvetica,sans-Serif" font-size="12.00" fill="#000000">#m_rss_tot_min</text>
</g>
<!-- Node8 -->
<g id="node7" class="node">
<title>Node8</title>
<polygon fill="#ffffff" stroke="#bfbfbf" points="187.5,-1323.5 187.5,-1386.5 231.5,-1386.5 231.5,-1323.5 187.5,-1323.5"/>
<text text-anchor="middle" x="209.5" y="-1372.9" font-family="Helvetica,sans-Serif" font-size="12.00" fill="#000000">int64_t</text>
<polyline fill="none" stroke="#bfbfbf" points="187.5,-1365.5 231.5,-1365.5 "/>
<text text-anchor="middle" x="209.5" y="-1351.9" font-family="Helvetica,sans-Serif" font-size="12.00" fill="#000000"> </text>
<polyline fill="none" stroke="#bfbfbf" points="187.5,-1344.5 231.5,-1344.5 "/>
<text text-anchor="middle" x="209.5" y="-1330.9" font-family="Helvetica,sans-Serif" font-size="12.00" fill="#000000"> </text>
</g>
<!-- Node8&#45;&gt;Node7 -->
<g id="edge6" class="edge">
<title>Node8&#45;&gt;Node7</title>
<path fill="none" stroke="#404040" d="M209.5,-1323.486C209.5,-1309.3063 209.5,-1291.5382 209.5,-1272.7416"/>
<polygon fill="none" stroke="#404040" points="209.5001,-1272.5998 205.5,-1266.5998 209.5,-1260.5998 213.5,-1266.5997 209.5001,-1272.5998"/>
<text text-anchor="middle" x="237" y="-1295.4" font-family="Helvetica,sans-Serif" font-size="12.00" fill="#000000"> +m_curr_rss</text>
<text text-anchor="middle" x="237" y="-1282.4" font-family="Helvetica,sans-Serif" font-size="12.00" fill="#000000">+m_peak_rss</text>
</g>
<!-- Node9 -->
<g id="node8" class="node">
<title>Node9</title>
<polygon fill="#ffffff" stroke="#bfbfbf" points="388,-438.5 388,-501.5 437,-501.5 437,-438.5 388,-438.5"/>
<text text-anchor="middle" x="412.5" y="-487.9" font-family="Helvetica,sans-Serif" font-size="12.00" fill="#000000">uint16_t</text>
<polyline fill="none" stroke="#bfbfbf" points="388,-480.5 437,-480.5 "/>
<text text-anchor="middle" x="412.5" y="-466.9" font-family="Helvetica,sans-Serif" font-size="12.00" fill="#000000"> </text>
<polyline fill="none" stroke="#bfbfbf" points="388,-459.5 437,-459.5 "/>
<text text-anchor="middle" x="412.5" y="-445.9" font-family="Helvetica,sans-Serif" font-size="12.00" fill="#000000"> </text>
</g>
<!-- Node9&#45;&gt;Node2 -->
<g id="edge7" class="edge">
<title>Node9&#45;&gt;Node2</title>
<path fill="none" stroke="#404040" d="M413.5976,-438.22C415.6922,-401.5437 421.7839,-339.8764 439.5,-290 448.6942,-264.1152 462.3988,-237.7327 476.3993,-214.2867"/>
<polygon fill="none" stroke="#404040" points="476.588,-213.9773 476.2981,-206.772 482.8377,-203.7331 483.1276,-210.9384 476.588,-213.9773"/>
<text text-anchor="middle" x="468" y="-293.4" font-family="Helvetica,sans-Serif" font-size="12.00" fill="#000000"> #m_precision</text>
</g>
<!-- Node10 -->
<g id="node9" class="node">
<title>Node10</title>
<polygon fill="#ffffff" stroke="#bfbfbf" points="467,-438.5 467,-501.5 508,-501.5 508,-438.5 467,-438.5"/>
<text text-anchor="middle" x="487.5" y="-487.9" font-family="Helvetica,sans-Serif" font-size="12.00" fill="#000000">mutex</text>
<polyline fill="none" stroke="#bfbfbf" points="467,-480.5 508,-480.5 "/>
<text text-anchor="middle" x="487.5" y="-466.9" font-family="Helvetica,sans-Serif" font-size="12.00" fill="#000000"> </text>
<polyline fill="none" stroke="#bfbfbf" points="467,-459.5 508,-459.5 "/>
<text text-anchor="middle" x="487.5" y="-445.9" font-family="Helvetica,sans-Serif" font-size="12.00" fill="#000000"> </text>
</g>
<!-- Node10&#45;&gt;Node2 -->
<g id="edge8" class="edge">
<title>Node10&#45;&gt;Node2</title>
<path fill="none" stroke="#404040" d="M488.9207,-438.3512C490.7795,-402.3157 494.6375,-341.7352 501.5,-290 501.7705,-287.9604 502.0504,-285.9069 502.3388,-283.8422"/>
<polygon fill="none" stroke="#404040" points="502.347,-283.7858 499.2546,-277.2714 504.0784,-271.9114 507.1708,-278.4257 502.347,-283.7858"/>
<text text-anchor="middle" x="524" y="-293.4" font-family="Helvetica,sans-Serif" font-size="12.00" fill="#000000"> #m_mutex</text>
</g>
<!-- Node11 -->
<g id="node10" class="node">
<title>Node11</title>
<polygon fill="#ffffff" stroke="#bfbfbf" points="526.5,-438.5 526.5,-501.5 638.5,-501.5 638.5,-438.5 526.5,-438.5"/>
<text text-anchor="middle" x="582.5" y="-487.9" font-family="Helvetica,sans-Serif" font-size="12.00" fill="#000000">std::vector&lt; fieldpos_t &gt;</text>
<polyline fill="none" stroke="#bfbfbf" points="526.5,-480.5 638.5,-480.5 "/>
<text text-anchor="middle" x="582.5" y="-466.9" font-family="Helvetica,sans-Serif" font-size="12.00" fill="#000000"> </text>
<polyline fill="none" stroke="#bfbfbf" points="526.5,-459.5 638.5,-459.5 "/>
<text text-anchor="middle" x="582.5" y="-445.9" font-family="Helvetica,sans-Serif" font-size="12.00" fill="#000000"> </text>
</g>
<!-- Node11&#45;&gt;Node2 -->
<g id="edge9" class="edge">
<title>Node11&#45;&gt;Node2</title>
<path fill="none" stroke="#404040" d="M577.5611,-438.277C571.9756,-402.4007 562.4828,-341.4277 553.4797,-283.6002"/>
<polygon fill="none" stroke="#404040" points="553.4734,-283.5596 548.598,-278.2464 551.6273,-271.7024 556.5028,-277.0157 553.4734,-283.5596"/>
<text text-anchor="middle" x="600" y="-293.4" font-family="Helvetica,sans-Serif" font-size="12.00" fill="#000000"> #m_format_positions</text>
</g>
<!-- Node12 -->
<g id="node11" class="node">
<title>Node12</title>
<polygon fill="#ffffff" stroke="#bfbfbf" points="555,-772.5 555,-835.5 610,-835.5 610,-772.5 555,-772.5"/>
<text text-anchor="middle" x="582.5" y="-821.9" font-family="Helvetica,sans-Serif" font-size="12.00" fill="#000000">fieldpos_t</text>
<polyline fill="none" stroke="#bfbfbf" points="555,-814.5 610,-814.5 "/>
<text text-anchor="middle" x="582.5" y="-800.9" font-family="Helvetica,sans-Serif" font-size="12.00" fill="#000000"> </text>
<polyline fill="none" stroke="#bfbfbf" points="555,-793.5 610,-793.5 "/>
<text text-anchor="middle" x="582.5" y="-779.9" font-family="Helvetica,sans-Serif" font-size="12.00" fill="#000000"> </text>
</g>
<!-- Node12&#45;&gt;Node11 -->
<g id="edge10" class="edge">
<title>Node12&#45;&gt;Node11</title>
<path fill="none" stroke="#404040" d="M582.5,-772.277C582.5,-712.3101 582.5,-582.2256 582.5,-513.914"/>
<polygon fill="none" stroke="#404040" points="582.5001,-513.5112 578.5,-507.5112 582.5,-501.5112 586.5,-507.5111 582.5001,-513.5112"/>
<text text-anchor="middle" x="605" y="-646.9" font-family="Helvetica,sans-Serif" font-size="12.00" fill="#000000"> +elements</text>
</g>
<!-- Node13 -->
<g id="node12" class="node">
<title>Node13</title>
<g id="a_node12"><a xlink:title="STL class. ">
<polygon fill="#ffffff" stroke="#bfbfbf" points="458,-772.5 458,-835.5 537,-835.5 537,-772.5 458,-772.5"/>
<text text-anchor="middle" x="497.5" y="-821.9" font-family="Helvetica,sans-Serif" font-size="12.00" fill="#000000">std::vector&lt; T &gt;</text>
<polyline fill="none" stroke="#bfbfbf" points="458,-814.5 537,-814.5 "/>
<text text-anchor="middle" x="497.5" y="-800.9" font-family="Helvetica,sans-Serif" font-size="12.00" fill="#000000"> </text>
<polyline fill="none" stroke="#bfbfbf" points="458,-793.5 537,-793.5 "/>
<text text-anchor="middle" x="497.5" y="-779.9" font-family="Helvetica,sans-Serif" font-size="12.00" fill="#000000"> </text>
</a>
</g>
</g>
<!-- Node13&#45;&gt;Node11 -->
<g id="edge11" class="edge">
<title>Node13&#45;&gt;Node11</title>
<path fill="none" stroke="#ffa500" d="M501.0829,-762.1635C504.5785,-728.1007 510.9432,-678.9606 521.5,-637 533.6626,-588.6568 554.7564,-534.8459 568.6723,-501.7058"/>
<polygon fill="#ffa500" stroke="#ffa500" points="497.589,-761.9304 500.0888,-772.2261 504.5551,-762.6187 497.589,-761.9304"/>
<text text-anchor="middle" x="550" y="-646.9" font-family="Helvetica,sans-Serif" font-size="12.00" fill="#000000"> &lt; fieldpos_t &gt;</text>
</g>
<!-- Node14 -->
<g id="node13" class="node">
<title>Node14</title>
<polygon fill="#ffffff" stroke="#bfbfbf" points="533,-1113 533,-1176 562,-1176 562,-1113 533,-1113"/>
<text text-anchor="middle" x="547.5" y="-1162.4" font-family="Helvetica,sans-Serif" font-size="12.00" fill="#000000">T</text>
<polyline fill="none" stroke="#bfbfbf" points="533,-1155 562,-1155 "/>
<text text-anchor="middle" x="547.5" y="-1141.4" font-family="Helvetica,sans-Serif" font-size="12.00" fill="#000000"> </text>
<polyline fill="none" stroke="#bfbfbf" points="533,-1134 562,-1134 "/>
<text text-anchor="middle" x="547.5" y="-1120.4" font-family="Helvetica,sans-Serif" font-size="12.00" fill="#000000"> </text>
</g>
<!-- Node14&#45;&gt;Node13 -->
<g id="edge12" class="edge">
<title>Node14&#45;&gt;Node13</title>
<path fill="none" stroke="#404040" d="M540.336,-1112.8439C534.3823,-1085.6759 526.0212,-1045.4161 520.5,-1010 511.8095,-954.2539 505.137,-889.5249 501.2703,-847.7242"/>
<polygon fill="none" stroke="#404040" points="501.2477,-847.4738 496.7209,-841.8605 500.1613,-835.523 504.6881,-841.1363 501.2477,-847.4738"/>
<text text-anchor="middle" x="543" y="-974.4" font-family="Helvetica,sans-Serif" font-size="12.00" fill="#000000"> +elements</text>
</g>
<!-- Node20 -->
<g id="node19" class="node">
<title>Node20</title>
<g id="a_node19"><a xlink:title="STL class. ">
<polygon fill="#ffffff" stroke="#bfbfbf" points="628,-766 628,-842 725,-842 725,-766 628,-766"/>
<text text-anchor="start" x="636" y="-828.4" font-family="Helvetica,sans-Serif" font-size="12.00" fill="#000000">std::unordered_map</text>
<text text-anchor="middle" x="676.5" y="-815.4" font-family="Helvetica,sans-Serif" font-size="12.00" fill="#000000">&lt; K, T &gt;</text>
<polyline fill="none" stroke="#bfbfbf" points="628,-808 725,-808 "/>
<text text-anchor="middle" x="676.5" y="-794.4" font-family="Helvetica,sans-Serif" font-size="12.00" fill="#000000"> </text>
<polyline fill="none" stroke="#bfbfbf" points="628,-787 725,-787 "/>
<text text-anchor="middle" x="676.5" y="-773.4" font-family="Helvetica,sans-Serif" font-size="12.00" fill="#000000"> </text>
</a>
</g>
</g>
<!-- Node14&#45;&gt;Node20 -->
<g id="edge21" class="edge">
<title>Node14&#45;&gt;Node20</title>
<path fill="none" stroke="#404040" d="M559.5202,-1112.7724C582.0644,-1053.266 630.8403,-924.5204 657.7426,-853.5108"/>
<polygon fill="none" stroke="#404040" points="657.7724,-853.4319 656.1576,-846.4039 662.0239,-842.2102 663.6387,-849.2382 657.7724,-853.4319"/>
<text text-anchor="middle" x="643" y="-974.4" font-family="Helvetica,sans-Serif" font-size="12.00" fill="#000000"> +elements</text>
</g>
<!-- Node15 -->
<g id="node14" class="node">
<title>Node15</title>
<g id="a_node14"><a xlink:title="STL class. ">
<polygon fill="#ffffff" stroke="#bfbfbf" points="757.5,-438.5 757.5,-501.5 813.5,-501.5 813.5,-438.5 757.5,-438.5"/>
<text text-anchor="middle" x="785.5" y="-487.9" font-family="Helvetica,sans-Serif" font-size="12.00" fill="#000000">std::string</text>
<polyline fill="none" stroke="#bfbfbf" points="757.5,-480.5 813.5,-480.5 "/>
<text text-anchor="middle" x="785.5" y="-466.9" font-family="Helvetica,sans-Serif" font-size="12.00" fill="#000000"> </text>
<polyline fill="none" stroke="#bfbfbf" points="757.5,-459.5 813.5,-459.5 "/>
<text text-anchor="middle" x="785.5" y="-445.9" font-family="Helvetica,sans-Serif" font-size="12.00" fill="#000000"> </text>
</a>
</g>
</g>
<!-- Node15&#45;&gt;Node2 -->
<g id="edge13" class="edge">
<title>Node15&#45;&gt;Node2</title>
<path fill="none" stroke="#404040" d="M781.9714,-438.4726C777.2458,-406.7461 766.6028,-357.4278 743.5,-321 703.8253,-258.442 636.6855,-205.2302 588.3805,-172.1562"/>
<polygon fill="none" stroke="#404040" points="588.324,-172.1181 581.113,-172.0793 578.3753,-165.408 585.5863,-165.4468 588.324,-172.1181"/>
<text text-anchor="middle" x="768" y="-293.4" font-family="Helvetica,sans-Serif" font-size="12.00" fill="#000000"> #m_format_string</text>
</g>
<!-- Node16 -->
<g id="node15" class="node">
<title>Node16</title>
<g id="a_node15"><a xlink:title="STL class. ">
<polygon fill="#ffffff" stroke="#bfbfbf" points="743,-766 743,-842 830,-842 830,-766 743,-766"/>
<text text-anchor="start" x="751" y="-828.4" font-family="Helvetica,sans-Serif" font-size="12.00" fill="#000000">std::basic_string&lt;</text>
<text text-anchor="middle" x="786.5" y="-815.4" font-family="Helvetica,sans-Serif" font-size="12.00" fill="#000000"> char &gt;</text>
<polyline fill="none" stroke="#bfbfbf" points="743,-808 830,-808 "/>
<text text-anchor="middle" x="786.5" y="-794.4" font-family="Helvetica,sans-Serif" font-size="12.00" fill="#000000"> </text>
<polyline fill="none" stroke="#bfbfbf" points="743,-787 830,-787 "/>
<text text-anchor="middle" x="786.5" y="-773.4" font-family="Helvetica,sans-Serif" font-size="12.00" fill="#000000"> </text>
</a>
</g>
</g>
<!-- Node16&#45;&gt;Node15 -->
<g id="edge14" class="edge">
<title>Node16&#45;&gt;Node15</title>
<path fill="none" stroke="#191970" d="M786.3547,-755.4699C786.1471,-686.1433 785.7714,-560.6615 785.5956,-501.9307"/>
<polygon fill="none" stroke="#191970" points="782.8553,-755.6965 786.3853,-765.686 789.8552,-755.6755 782.8553,-755.6965"/>
</g>
<!-- Node17&#45;&gt;Node2 -->
<g id="edge15" class="edge">
<title>Node17&#45;&gt;Node2</title>
<path fill="none" stroke="#404040" d="M368.091,-321.8041C373.4521,-310.7835 379.2541,-300.0554 385.5,-290 409.5567,-251.2701 444.3847,-213.8846 473.8777,-185.6492"/>
<polygon fill="none" stroke="#404040" points="474.1147,-185.4255 475.7326,-178.3982 482.8416,-177.1889 481.2237,-184.2162 474.1147,-185.4255"/>
<text text-anchor="middle" x="409" y="-293.4" font-family="Helvetica,sans-Serif" font-size="12.00" fill="#000000"> #m_accum</text>
</g>
<!-- Node18 -->
<g id="node17" class="node">
<title>Node18</title>
<polygon fill="#ffffff" stroke="#bfbfbf" points="272,-772.5 272,-835.5 321,-835.5 321,-772.5 272,-772.5"/>
<text text-anchor="middle" x="296.5" y="-821.9" font-family="Helvetica,sans-Serif" font-size="12.00" fill="#000000">uint64_t</text>
<polyline fill="none" stroke="#bfbfbf" points="272,-814.5 321,-814.5 "/>
<text text-anchor="middle" x="296.5" y="-800.9" font-family="Helvetica,sans-Serif" font-size="12.00" fill="#000000"> </text>
<polyline fill="none" stroke="#bfbfbf" points="272,-793.5 321,-793.5 "/>
<text text-anchor="middle" x="296.5" y="-779.9" font-family="Helvetica,sans-Serif" font-size="12.00" fill="#000000"> </text>
</g>
<!-- Node18&#45;&gt;Node17 -->
<g id="edge16" class="edge">
<title>Node18&#45;&gt;Node17</title>
<path fill="none" stroke="#404040" d="M298.5895,-772.277C300.7733,-739.1233 304.3688,-684.5374 307.9079,-630.8075"/>
<polygon fill="none" stroke="#404040" points="307.9205,-630.615 304.3235,-624.3651 308.7093,-618.641 312.3062,-624.8909 307.9205,-630.615"/>
<text text-anchor="middle" x="324" y="-646.9" font-family="Helvetica,sans-Serif" font-size="12.00" fill="#000000"> #m_lap</text>
</g>
<!-- Node19 -->
<g id="node18" class="node">
<title>Node19</title>
<polygon fill="#ffffff" stroke="#bfbfbf" points="339.5,-766 339.5,-842 439.5,-842 439.5,-766 339.5,-766"/>
<text text-anchor="start" x="347.5" y="-828.4" font-family="Helvetica,sans-Serif" font-size="12.00" fill="#000000">tuple&lt; uint_type, uint</text>
<text text-anchor="middle" x="389.5" y="-815.4" font-family="Helvetica,sans-Serif" font-size="12.00" fill="#000000">_type, uint_type &gt;</text>
<polyline fill="none" stroke="#bfbfbf" points="339.5,-808 439.5,-808 "/>
<text text-anchor="middle" x="389.5" y="-794.4" font-family="Helvetica,sans-Serif" font-size="12.00" fill="#000000"> </text>
<polyline fill="none" stroke="#bfbfbf" points="339.5,-787 439.5,-787 "/>
<text text-anchor="middle" x="389.5" y="-773.4" font-family="Helvetica,sans-Serif" font-size="12.00" fill="#000000"> </text>
</g>
<!-- Node19&#45;&gt;Node17 -->
<g id="edge18" class="edge">
<title>Node19&#45;&gt;Node17</title>
<path fill="none" stroke="#404040" d="M381.3554,-765.686C374.2083,-732.0645 363.3078,-680.7859 352.5804,-630.3217"/>
<polygon fill="none" stroke="#404040" points="352.5738,-630.2903 347.4136,-625.2532 350.0785,-618.5526 355.2387,-623.5897 352.5738,-630.2903"/>
<text text-anchor="middle" x="377.5" y="-653.4" font-family="Helvetica,sans-Serif" font-size="12.00" fill="#000000"> #m_sum</text>
<text text-anchor="middle" x="377.5" y="-640.4" font-family="Helvetica,sans-Serif" font-size="12.00" fill="#000000">#m_sqr</text>
</g>
<!-- Node20&#45;&gt;Node2 -->
<g id="edge19" class="edge">
<title>Node20&#45;&gt;Node2</title>
<path fill="none" stroke="#404040" d="M677.2133,-765.7645C678.6963,-662.028 679.6381,-377.2206 647.5,-290 634.2595,-254.0662 609.5938,-219.5838 586.3113,-192.3919"/>
<polygon fill="none" stroke="#404040" points="586.0651,-192.1111 579.102,-190.2361 578.1547,-183.0875 585.1178,-184.9625 586.0651,-192.1111"/>
<text text-anchor="middle" x="710" y="-466.9" font-family="Helvetica,sans-Serif" font-size="12.00" fill="#000000"> &#45;w_mutex_map</text>
</g>
<!-- Node21 -->
<g id="node20" class="node">
<title>Node21</title>
<polygon fill="#ffffff" stroke="#bfbfbf" points="662,-1113 662,-1176 691,-1176 691,-1113 662,-1113"/>
<text text-anchor="middle" x="676.5" y="-1162.4" font-family="Helvetica,sans-Serif" font-size="12.00" fill="#000000">K</text>
<polyline fill="none" stroke="#bfbfbf" points="662,-1155 691,-1155 "/>
<text text-anchor="middle" x="676.5" y="-1141.4" font-family="Helvetica,sans-Serif" font-size="12.00" fill="#000000"> </text>
<polyline fill="none" stroke="#bfbfbf" points="662,-1134 691,-1134 "/>
<text text-anchor="middle" x="676.5" y="-1120.4" font-family="Helvetica,sans-Serif" font-size="12.00" fill="#000000"> </text>
</g>
<!-- Node21&#45;&gt;Node20 -->
<g id="edge20" class="edge">
<title>Node21&#45;&gt;Node20</title>
<path fill="none" stroke="#404040" d="M676.5,-1112.7724C676.5,-1053.5114 676.5,-925.581 676.5,-854.3922"/>
<polygon fill="none" stroke="#404040" points="676.5001,-854.2102 672.5,-848.2102 676.5,-842.2102 680.5,-848.2102 676.5001,-854.2102"/>
<text text-anchor="middle" x="690" y="-974.4" font-family="Helvetica,sans-Serif" font-size="12.00" fill="#000000"> +keys</text>
</g>
<!-- Node22 -->
<g id="node21" class="node">
<title>Node22</title>
<g id="a_node21"><a xlink:title="STL class. ">
<polygon fill="#ffffff" stroke="#bfbfbf" points="846.5,-438.5 846.5,-501.5 912.5,-501.5 912.5,-438.5 846.5,-438.5"/>
<text text-anchor="middle" x="879.5" y="-487.9" font-family="Helvetica,sans-Serif" font-size="12.00" fill="#000000">std::ostream</text>
<polyline fill="none" stroke="#bfbfbf" points="846.5,-480.5 912.5,-480.5 "/>
<text text-anchor="middle" x="879.5" y="-466.9" font-family="Helvetica,sans-Serif" font-size="12.00" fill="#000000"> </text>
<polyline fill="none" stroke="#bfbfbf" points="846.5,-459.5 912.5,-459.5 "/>
<text text-anchor="middle" x="879.5" y="-445.9" font-family="Helvetica,sans-Serif" font-size="12.00" fill="#000000"> </text>
</a>
</g>
</g>
<!-- Node22&#45;&gt;Node2 -->
<g id="edge22" class="edge">
<title>Node22&#45;&gt;Node2</title>
<path fill="none" stroke="#404040" d="M874.2306,-438.3029C866.2457,-399.1396 847.6546,-332.4909 808.5,-290 747.4703,-223.77 651.2453,-179.3892 589.5192,-155.9209"/>
<polygon fill="none" stroke="#404040" points="589.2788,-155.8315 582.2601,-157.4862 578.0332,-151.6438 585.0519,-149.9891 589.2788,-155.8315"/>
<text text-anchor="middle" x="834.5" y="-293.4" font-family="Helvetica,sans-Serif" font-size="12.00" fill="#000000"> #m_os</text>
</g>
<!-- Node23 -->
<g id="node22" class="node">
<title>Node23</title>
<g id="a_node22"><a xlink:title="STL class. ">
<polygon fill="#ffffff" stroke="#bfbfbf" points="848.5,-766 848.5,-842 940.5,-842 940.5,-766 848.5,-766"/>
<text text-anchor="start" x="856.5" y="-828.4" font-family="Helvetica,sans-Serif" font-size="12.00" fill="#000000">std::basic_ostream</text>
<text text-anchor="middle" x="894.5" y="-815.4" font-family="Helvetica,sans-Serif" font-size="12.00" fill="#000000">&lt; char &gt;</text>
<polyline fill="none" stroke="#bfbfbf" points="848.5,-808 940.5,-808 "/>
<text text-anchor="middle" x="894.5" y="-794.4" font-family="Helvetica,sans-Serif" font-size="12.00" fill="#000000"> </text>
<polyline fill="none" stroke="#bfbfbf" points="848.5,-787 940.5,-787 "/>
<text text-anchor="middle" x="894.5" y="-773.4" font-family="Helvetica,sans-Serif" font-size="12.00" fill="#000000"> </text>
</a>
</g>
</g>
<!-- Node23&#45;&gt;Node22 -->
<g id="edge23" class="edge">
<title>Node23&#45;&gt;Node22</title>
<path fill="none" stroke="#191970" d="M892.3205,-755.4699C889.207,-686.1433 883.5716,-560.6615 880.934,-501.9307"/>
<polygon fill="none" stroke="#191970" points="888.8341,-755.8531 892.7793,-765.686 895.827,-755.539 888.8341,-755.8531"/>
</g>
<!-- Node24 -->
<g id="node23" class="node">
<title>Node24</title>
<g id="a_node23"><a xlink:title="STL class. ">
<polygon fill="#ffffff" stroke="#bfbfbf" points="841.5,-1113 841.5,-1176 947.5,-1176 947.5,-1113 841.5,-1113"/>
<text text-anchor="middle" x="894.5" y="-1162.4" font-family="Helvetica,sans-Serif" font-size="12.00" fill="#000000">std::basic_ios&lt; Char &gt;</text>
<polyline fill="none" stroke="#bfbfbf" points="841.5,-1155 947.5,-1155 "/>
<text text-anchor="middle" x="894.5" y="-1141.4" font-family="Helvetica,sans-Serif" font-size="12.00" fill="#000000"> </text>
<polyline fill="none" stroke="#bfbfbf" points="841.5,-1134 947.5,-1134 "/>
<text text-anchor="middle" x="894.5" y="-1120.4" font-family="Helvetica,sans-Serif" font-size="12.00" fill="#000000"> </text>
</a>
</g>
</g>
<!-- Node24&#45;&gt;Node23 -->
<g id="edge24" class="edge">
<title>Node24&#45;&gt;Node23</title>
<path fill="none" stroke="#191970" d="M894.5,-1102.6249C894.5,-1035.9226 894.5,-906.5302 894.5,-842.2102"/>
<polygon fill="none" stroke="#191970" points="891.0001,-1102.7723 894.5,-1112.7724 898.0001,-1102.7724 891.0001,-1102.7723"/>
</g>
<!-- Node25 -->
<g id="node24" class="node">
<title>Node25</title>
<g id="a_node24"><a xlink:title="STL class. ">
<polygon fill="#ffffff" stroke="#bfbfbf" points="859.5,-1323.5 859.5,-1386.5 929.5,-1386.5 929.5,-1323.5 859.5,-1323.5"/>
<text text-anchor="middle" x="894.5" y="-1372.9" font-family="Helvetica,sans-Serif" font-size="12.00" fill="#000000">std::ios_base</text>
<polyline fill="none" stroke="#bfbfbf" points="859.5,-1365.5 929.5,-1365.5 "/>
<text text-anchor="middle" x="894.5" y="-1351.9" font-family="Helvetica,sans-Serif" font-size="12.00" fill="#000000"> </text>
<polyline fill="none" stroke="#bfbfbf" points="859.5,-1344.5 929.5,-1344.5 "/>
<text text-anchor="middle" x="894.5" y="-1330.9" font-family="Helvetica,sans-Serif" font-size="12.00" fill="#000000"> </text>
</a>
</g>
</g>
<!-- Node25&#45;&gt;Node24 -->
<g id="edge25" class="edge">
<title>Node25&#45;&gt;Node24</title>
<path fill="none" stroke="#191970" d="M894.5,-1313.4408C894.5,-1273.1254 894.5,-1212.8284 894.5,-1176.2294"/>
<polygon fill="none" stroke="#191970" points="891.0001,-1313.486 894.5,-1323.486 898.0001,-1313.4861 891.0001,-1313.486"/>
</g>
</g>
</svg>
        <g id="navigator" transform="translate(0 0)" fill="#404254">
                <rect fill="#f2f5e9" fill-opacity="0.5" stroke="#606060" stroke-width=".5" x="0" y="0" width="60" height="60"/>
                <use id="zoomplus" xlink:href="#zoomPlus" x="17" y="9" onmousedown="handleZoom(evt,'in')"/>
                <use id="zoomminus" xlink:href="#zoomMin" x="42" y="9" onmousedown="handleZoom(evt,'out')"/>
                <use id="reset" xlink:href="#resetDef" x="30" y="36" onmousedown="handleReset()"/>
                <g id="arrowUp" xlink:href="#dirArrow" transform="translate(30 24)" onmousedown="handlePan(0,-1)">
                  <use xlink:href="#rim" fill="#404040">
                        <set attributeName="fill" to="#808080" begin="arrowUp.mouseover" end="arrowUp.mouseout"/>
                  </use>
                  <path fill="none" stroke="white" stroke-width="1.5" d="M0,-3.0v7 M-2.5,-0.5L0,-3.0L2.5,-0.5"/>
                </g>
                <g id="arrowRight" xlink:href="#dirArrow" transform="rotate(90) translate(36 -43)" onmousedown="handlePan(1,0)">
                  <use xlink:href="#rim" fill="#404040">
                        <set attributeName="fill" to="#808080" begin="arrowRight.mouseover" end="arrowRight.mouseout"/>
                  </use>
                  <path fill="none" stroke="white" stroke-width="1.5" d="M0,-3.0v7 M-2.5,-0.5L0,-3.0L2.5,-0.5"/>
                </g>
                <g id="arrowDown" xlink:href="#dirArrow" transform="rotate(180) translate(-30 -48)" onmousedown="handlePan(0,1)">
                  <use xlink:href="#rim" fill="#404040">
                        <set attributeName="fill" to="#808080" begin="arrowDown.mouseover" end="arrowDown.mouseout"/>
                  </use>
                  <path fill="none" stroke="white" stroke-width="1.5" d="M0,-3.0v7 M-2.5,-0.5L0,-3.0L2.5,-0.5"/>
                </g>
                <g id="arrowLeft" xlink:href="#dirArrow" transform="rotate(270) translate(-36 17)" onmousedown="handlePan(-1,0)">
                  <use xlink:href="#rim" fill="#404040">
                        <set attributeName="fill" to="#808080" begin="arrowLeft.mouseover" end="arrowLeft.mouseout"/>
                  </use>
                  <path fill="none" stroke="white" stroke-width="1.5" d="M0,-3.0v7 M-2.5,-0.5L0,-3.0L2.5,-0.5"/>
                </g>
        </g>
        <svg viewBox="0 0 15 15" width="100%" height="30px" preserveAspectRatio="xMaxYMin meet">
         <g id="arrow_out" transform="scale(0.3 0.3)">
          <a xlink:href="classtim_1_1internal_1_1base__timer__coll__graph_org.svg" target="_base">
           <rect id="button" ry="5" rx="5" y="6" x="6" height="38" width="38"
                fill="#f2f5e9" fill-opacity="0.5" stroke="#606060" stroke-width="1.0"/>
           <path id="arrow"
             d="M 11.500037,31.436501 C 11.940474,20.09759 22.043105,11.32322 32.158766,21.979434 L 37.068811,17.246167 C 37.068811,17.246167 37.088388,32 37.088388,32 L 22.160133,31.978069 C 22.160133,31.978069 26.997745,27.140456 26.997745,27.140456 C 18.528582,18.264221 13.291696,25.230495 11.500037,31.436501 z"
             style="fill:#404040;"/>
          </a>
         </g>
        </svg>
</svg>
