<?xml version="1.0" encoding="UTF-8" standalone="no"?>
<!DOCTYPE svg PUBLIC "-//W3C//DTD SVG 1.1//EN"
 "http://www.w3.org/Graphics/SVG/1.1/DTD/svg11.dtd">
<!-- Generated by graphviz version 2.40.1 (20161225.0304)
 -->
<!-- Title: timemory/auto_timer.hpp Pages: 1 -->
<svg width="565pt" height="101pt"
 viewBox="0.00 0.00 564.50 101.00" xmlns="http://www.w3.org/2000/svg" xmlns:xlink="http://www.w3.org/1999/xlink">
<g id="graph0" class="graph" transform="scale(1 1) rotate(0) translate(4 97)">
<title>timemory/auto_timer.hpp</title>
<polygon fill="#ffffff" stroke="transparent" points="-4,4 -4,-97 560.5,-97 560.5,4 -4,4"/>
<!-- Node54 -->
<g id="node1" class="node">
<title>Node54</title>
<polygon fill="#bfbfbf" stroke="#000000" points="260.5,-71.5 260.5,-92.5 376.5,-92.5 376.5,-71.5 260.5,-71.5"/>
<text text-anchor="middle" x="318.5" y="-78.9" font-family="Helvetica,sans-Serif" font-size="12.00" fill="#000000">timemory/auto_timer.hpp</text>
</g>
<!-- Node55 -->
<g id="node2" class="node">
<title>Node55</title>
<g id="a_node2"><a xlink:href="../../d6/d8e/test__timing_8cpp.html" target="_top" xlink:title="examples/ex1/test_timing.cpp">
<polygon fill="#ffffff" stroke="#000000" points="0,-7 0,-28 135,-28 135,-7 0,-7"/>
<text text-anchor="middle" x="67.5" y="-14.4" font-family="Helvetica,sans-Serif" font-size="12.00" fill="#000000">examples/ex1/test_timing.cpp</text>
</a>
</g>
</g>
<!-- Node54&#45;&gt;Node55 -->
<g id="edge1" class="edge">
<title>Node54&#45;&gt;Node55</title>
<path fill="none" stroke="#191970" d="M267.6508,-68.9332C220.6982,-56.8677 151.8461,-39.1746 108.3686,-28.0021"/>
<polygon fill="#191970" stroke="#191970" points="267.0574,-72.3943 277.6139,-71.4934 268.7997,-65.6146 267.0574,-72.3943"/>
</g>
<!-- Node56 -->
<g id="node3" class="node">
<title>Node56</title>
<g id="a_node3"><a xlink:href="../../dd/d0a/mpi__test__timing_8cpp.html" target="_top" xlink:title="examples/ex2/mpi_test\l_timing.cpp">
<polygon fill="#ffffff" stroke="#000000" points="153,-.5 153,-34.5 262,-34.5 262,-.5 153,-.5"/>
<text text-anchor="start" x="161" y="-20.9" font-family="Helvetica,sans-Serif" font-size="12.00" fill="#000000">examples/ex2/mpi_test</text>
<text text-anchor="middle" x="207.5" y="-7.9" font-family="Helvetica,sans-Serif" font-size="12.00" fill="#000000">_timing.cpp</text>
</a>
</g>
</g>
<!-- Node54&#45;&gt;Node56 -->
<g id="edge2" class="edge">
<title>Node54&#45;&gt;Node56</title>
<path fill="none" stroke="#191970" d="M291.1043,-66.0809C274.7265,-56.5641 253.9129,-44.4697 237.1503,-34.7292"/>
<polygon fill="#191970" stroke="#191970" points="289.7659,-69.3511 300.1706,-71.3491 293.2828,-63.2987 289.7659,-69.3511"/>
</g>
<!-- Node57 -->
<g id="node4" class="node">
<title>Node57</title>
<g id="a_node4"><a xlink:href="../../d2/d80/auto__timer_8cpp.html" target="_top" xlink:title="auto_timer.cpp">
<polygon fill="#ffffff" stroke="#000000" points="280.5,-7 280.5,-28 356.5,-28 356.5,-7 280.5,-7"/>
<text text-anchor="middle" x="318.5" y="-14.4" font-family="Helvetica,sans-Serif" font-size="12.00" fill="#000000">auto_timer.cpp</text>
</a>
</g>
</g>
<!-- Node54&#45;&gt;Node57 -->
<g id="edge3" class="edge">
<title>Node54&#45;&gt;Node57</title>
<path fill="none" stroke="#191970" d="M318.5,-61.3076C318.5,-50.3587 318.5,-37.3615 318.5,-28.3823"/>
<polygon fill="#191970" stroke="#191970" points="315.0001,-61.3491 318.5,-71.3491 322.0001,-61.3492 315.0001,-61.3491"/>
</g>
<!-- Node58 -->
<g id="node5" class="node">
<title>Node58</title>
<g id="a_node5"><a xlink:href="../../d2/dfd/timemory_8cc.html" target="_top" xlink:title="timemory.cc">
<polygon fill="#ffffff" stroke="#000000" points="375,-7 375,-28 440,-28 440,-7 375,-7"/>
<text text-anchor="middle" x="407.5" y="-14.4" font-family="Helvetica,sans-Serif" font-size="12.00" fill="#000000">timemory.cc</text>
</a>
</g>
</g>
<!-- Node54&#45;&gt;Node58 -->
<g id="edge4" class="edge">
<title>Node54&#45;&gt;Node58</title>
<path fill="none" stroke="#191970" d="M341.5894,-65.2666C357.7514,-53.5537 378.8604,-38.2556 392.7816,-28.1667"/>
<polygon fill="#191970" stroke="#191970" points="339.2399,-62.6469 333.1965,-71.3491 343.3476,-68.3149 339.2399,-62.6469"/>
</g>
<!-- Node59 -->
<g id="node6" class="node">
<title>Node59</title>
<g id="a_node6"><a xlink:href="../../d9/dad/timing__manager_8cpp.html" target="_top" xlink:title="timing_manager.cpp">
<polygon fill="#ffffff" stroke="#000000" points="458.5,-7 458.5,-28 556.5,-28 556.5,-7 458.5,-7"/>
<text text-anchor="middle" x="507.5" y="-14.4" font-family="Helvetica,sans-Serif" font-size="12.00" fill="#000000">timing_manager.cpp</text>
</a>
</g>
</g>
<!-- Node54&#45;&gt;Node59 -->
<g id="edge5" class="edge">
<title>Node54&#45;&gt;Node59</title>
<path fill="none" stroke="#191970" d="M358.8074,-68.2443C394.0932,-56.2023 444.6061,-38.9638 476.7264,-28.0021"/>
<polygon fill="#191970" stroke="#191970" points="357.6204,-64.9511 349.2868,-71.4934 359.8813,-71.576 357.6204,-64.9511"/>
</g>
</g>
</svg>
