<?xml version="1.0" encoding="UTF-8" standalone="no"?>
<!DOCTYPE svg PUBLIC "-//W3C//DTD SVG 1.1//EN"
 "http://www.w3.org/Graphics/SVG/1.1/DTD/svg11.dtd">
<!-- Generated by graphviz version 2.40.1 (20161225.0304)
 -->
<!-- Title: timemory/auto_timer.hpp Pages: 1 -->
<svg width="438pt" height="88pt"
 viewBox="0.00 0.00 437.50 88.00" xmlns="http://www.w3.org/2000/svg" xmlns:xlink="http://www.w3.org/1999/xlink">
<g id="graph0" class="graph" transform="scale(1 1) rotate(0) translate(4 84)">
<title>timemory/auto_timer.hpp</title>
<polygon fill="#ffffff" stroke="transparent" points="-4,4 -4,-84 433.5,-84 433.5,4 -4,4"/>
<!-- Node49 -->
<g id="node1" class="node">
<title>Node49</title>
<polygon fill="#bfbfbf" stroke="#000000" points="177.5,-58.5 177.5,-79.5 293.5,-79.5 293.5,-58.5 177.5,-58.5"/>
<text text-anchor="middle" x="235.5" y="-65.9" font-family="Helvetica,sans-Serif" font-size="12.00" fill="#000000">timemory/auto_timer.hpp</text>
</g>
<!-- Node50 -->
<g id="node2" class="node">
<title>Node50</title>
<g id="a_node2"><a xlink:href="../../d6/d8e/test__timing_8cpp.html" target="_top" xlink:title="examples/ex1/test_timing.cpp">
<polygon fill="#ffffff" stroke="#000000" points="0,-.5 0,-21.5 135,-21.5 135,-.5 0,-.5"/>
<text text-anchor="middle" x="67.5" y="-7.9" font-family="Helvetica,sans-Serif" font-size="12.00" fill="#000000">examples/ex1/test_timing.cpp</text>
</a>
</g>
</g>
<!-- Node49&#45;&gt;Node50 -->
<g id="edge1" class="edge">
<title>Node49&#45;&gt;Node50</title>
<path fill="none" stroke="#191970" d="M195.3663,-55.1443C165.4698,-44.8229 125.2686,-30.9439 97.9806,-21.5231"/>
<polygon fill="#191970" stroke="#191970" points="194.4817,-58.5416 205.0765,-58.4966 196.7661,-51.9248 194.4817,-58.5416"/>
</g>
<!-- Node51 -->
<g id="node3" class="node">
<title>Node51</title>
<g id="a_node3"><a xlink:href="../../d2/d80/auto__timer_8cpp.html" target="_top" xlink:title="auto_timer.cpp">
<polygon fill="#ffffff" stroke="#000000" points="153.5,-.5 153.5,-21.5 229.5,-21.5 229.5,-.5 153.5,-.5"/>
<text text-anchor="middle" x="191.5" y="-7.9" font-family="Helvetica,sans-Serif" font-size="12.00" fill="#000000">auto_timer.cpp</text>
</a>
</g>
</g>
<!-- Node49&#45;&gt;Node51 -->
<g id="edge2" class="edge">
<title>Node49&#45;&gt;Node51</title>
<path fill="none" stroke="#191970" d="M221.2762,-50.2504C214.0689,-40.75 205.5839,-29.5651 199.5191,-21.5707"/>
<polygon fill="#191970" stroke="#191970" points="218.5974,-52.5103 227.4297,-58.3619 224.1742,-48.2796 218.5974,-52.5103"/>
</g>
<!-- Node52 -->
<g id="node4" class="node">
<title>Node52</title>
<g id="a_node4"><a xlink:href="../../d2/dfd/timemory_8cc.html" target="_top" xlink:title="timemory.cc">
<polygon fill="#ffffff" stroke="#000000" points="248,-.5 248,-21.5 313,-21.5 313,-.5 248,-.5"/>
<text text-anchor="middle" x="280.5" y="-7.9" font-family="Helvetica,sans-Serif" font-size="12.00" fill="#000000">timemory.cc</text>
</a>
</g>
</g>
<!-- Node49&#45;&gt;Node52 -->
<g id="edge3" class="edge">
<title>Node49&#45;&gt;Node52</title>
<path fill="none" stroke="#191970" d="M250.0471,-50.2504C257.4181,-40.75 266.0961,-29.5651 272.2986,-21.5707"/>
<polygon fill="#191970" stroke="#191970" points="247.1184,-48.3155 243.7537,-58.3619 252.649,-52.6065 247.1184,-48.3155"/>
</g>
<!-- Node53 -->
<g id="node5" class="node">
<title>Node53</title>
<g id="a_node5"><a xlink:href="../../d9/dad/timing__manager_8cpp.html" target="_top" xlink:title="timing_manager.cpp">
<polygon fill="#ffffff" stroke="#000000" points="331.5,-.5 331.5,-21.5 429.5,-21.5 429.5,-.5 331.5,-.5"/>
<text text-anchor="middle" x="380.5" y="-7.9" font-family="Helvetica,sans-Serif" font-size="12.00" fill="#000000">timing_manager.cpp</text>
</a>
</g>
</g>
<!-- Node49&#45;&gt;Node53 -->
<g id="edge4" class="edge">
<title>Node49&#45;&gt;Node53</title>
<path fill="none" stroke="#191970" d="M271.1228,-54.7509C296.7286,-44.5086 330.6986,-30.9206 353.947,-21.6212"/>
<polygon fill="#191970" stroke="#191970" points="269.7433,-51.533 261.7584,-58.4966 272.3431,-58.0323 269.7433,-51.533"/>
</g>
</g>
</svg>
