<?xml version="1.0" encoding="UTF-8" standalone="no"?>
<!DOCTYPE svg PUBLIC "-//W3C//DTD SVG 1.1//EN"
 "http://www.w3.org/Graphics/SVG/1.1/DTD/svg11.dtd">
<!-- Generated by graphviz version 2.40.1 (20161225.0304)
 -->
<!-- Title: timemory/auto_timer.hpp Pages: 1 -->
<!--zoomable 101 -->
<svg id="main" version="1.1" xmlns="http://www.w3.org/2000/svg" xmlns:xlink="http://www.w3.org/1999/xlink" xml:space="preserve" onload="init(evt)">
<style type="text/css"><![CDATA[
.edge:hover path { stroke: red; }
.edge:hover polygon { stroke: red; fill: red; }
]]></style>
<script type="text/javascript"><![CDATA[
var edges = document.getElementsByTagName('g');
if (edges && edges.length) {
  for (var i=0;i<edges.length;i++) {
    if (edges[i].id.substr(0,4)=='edge') {
      edges[i].setAttribute('class','edge');
    }
  }
}
]]></script>
        <defs>
                <circle id="rim" cx="0" cy="0" r="7"/>
                <circle id="rim2" cx="0" cy="0" r="3.5"/>
                <g id="zoomPlus">
                        <use xlink:href="#rim" fill="#404040">
                                <set attributeName="fill" to="#808080" begin="zoomplus.mouseover" end="zoomplus.mouseout"/>
                        </use>
                        <path d="M-4,0h8M0,-4v8" fill="none" stroke="white" stroke-width="1.5" pointer-events="none"/>
                </g>
                <g id="zoomMin">
                        <use xlink:href="#rim" fill="#404040">
                                <set attributeName="fill" to="#808080" begin="zoomminus.mouseover" end="zoomminus.mouseout"/>
                        </use>
                        <path d="M-4,0h8" fill="none" stroke="white" stroke-width="1.5" pointer-events="none"/>
                </g>
                <g id="dirArrow">
                        <path fill="none" stroke="white" stroke-width="1.5" d="M0,-3.0v7 M-2.5,-0.5L0,-3.0L2.5,-0.5"/>
                </g>
               <g id="resetDef">
                       <use xlink:href="#rim2" fill="#404040">
                               <set attributeName="fill" to="#808080" begin="reset.mouseover" end="reset.mouseout"/>
                       </use>
               </g>
        </defs>

<script type="text/javascript">
var viewWidth = 688;
var viewHeight = 101;
var sectionId = 'dynsection-1';
</script>
<script xlink:href="../../svgpan.js"/>
<svg id="graph" class="graph">
<g id="viewport">
<title>timemory/auto_timer.hpp</title>
<polygon fill="#ffffff" stroke="transparent" points="-4,4 -4,-97 684,-97 684,4 -4,4"/>
<!-- Node52 -->
<g id="node1" class="node">
<title>Node52</title>
<polygon fill="#bfbfbf" stroke="#000000" points="351.5,-71.5 351.5,-92.5 467.5,-92.5 467.5,-71.5 351.5,-71.5"/>
<text text-anchor="middle" x="409.5" y="-78.9" font-family="Helvetica,sans-Serif" font-size="12.00" fill="#000000">timemory/auto_timer.hpp</text>
</g>
<!-- Node53 -->
<g id="node2" class="node">
<title>Node53</title>
<g id="a_node2"><a xlink:href="../../d0/d90/ex1_2test__timing_8cpp.html" target="_top" xlink:title="examples/ex1/test_timing.cpp">
<polygon fill="#ffffff" stroke="#000000" points="0,-7 0,-28 135,-28 135,-7 0,-7"/>
<text text-anchor="middle" x="67.5" y="-14.4" font-family="Helvetica,sans-Serif" font-size="12.00" fill="#000000">examples/ex1/test_timing.cpp</text>
</a>
</g>
</g>
<!-- Node52&#45;&gt;Node53 -->
<g id="edge1" class="edge">
<title>Node52&#45;&gt;Node53</title>
<path fill="none" stroke="#191970" d="M341.3673,-70.9534C287.5197,-61.984 210.5261,-48.6289 143.5,-35 133.1508,-32.8956 122.0527,-30.449 111.6229,-28.064"/>
<polygon fill="#191970" stroke="#191970" points="341.0432,-74.4475 351.4813,-72.6319 342.1893,-67.5419 341.0432,-74.4475"/>
</g>
<!-- Node54 -->
<g id="node3" class="node">
<title>Node54</title>
<g id="a_node3"><a xlink:href="../../dd/d0a/mpi__test__timing_8cpp.html" target="_top" xlink:title="examples/ex2/mpi_test\l_timing.cpp">
<polygon fill="#ffffff" stroke="#000000" points="153,-.5 153,-34.5 262,-34.5 262,-.5 153,-.5"/>
<text text-anchor="start" x="161" y="-20.9" font-family="Helvetica,sans-Serif" font-size="12.00" fill="#000000">examples/ex2/mpi_test</text>
<text text-anchor="middle" x="207.5" y="-7.9" font-family="Helvetica,sans-Serif" font-size="12.00" fill="#000000">_timing.cpp</text>
</a>
</g>
</g>
<!-- Node52&#45;&gt;Node54 -->
<g id="edge2" class="edge">
<title>Node52&#45;&gt;Node54</title>
<path fill="none" stroke="#191970" d="M366.983,-68.424C336.0928,-58.5606 294.0675,-45.1416 260.9117,-34.5547"/>
<polygon fill="#191970" stroke="#191970" points="366.0048,-71.7857 376.5956,-71.4934 368.1341,-65.1174 366.0048,-71.7857"/>
</g>
<!-- Node55 -->
<g id="node4" class="node">
<title>Node55</title>
<g id="a_node4"><a xlink:href="../../d2/dc1/ex3_2test__timing_8cpp.html" target="_top" xlink:title="examples/ex3/test_timing.cpp">
<polygon fill="#ffffff" stroke="#000000" points="280,-7 280,-28 415,-28 415,-7 280,-7"/>
<text text-anchor="middle" x="347.5" y="-14.4" font-family="Helvetica,sans-Serif" font-size="12.00" fill="#000000">examples/ex3/test_timing.cpp</text>
</a>
</g>
</g>
<!-- Node52&#45;&gt;Node55 -->
<g id="edge3" class="edge">
<title>Node52&#45;&gt;Node55</title>
<path fill="none" stroke="#191970" d="M392.1964,-63.9987C381.1941,-52.5528 367.3109,-38.1097 357.9605,-28.3823"/>
<polygon fill="#191970" stroke="#191970" points="389.8087,-66.5652 399.262,-71.3491 394.8553,-61.7142 389.8087,-66.5652"/>
</g>
<!-- Node56 -->
<g id="node5" class="node">
<title>Node56</title>
<g id="a_node5"><a xlink:href="../../d2/d80/auto__timer_8cpp.html" target="_top" xlink:title="auto_timer.cpp">
<polygon fill="#ffffff" stroke="#000000" points="433.5,-7 433.5,-28 509.5,-28 509.5,-7 433.5,-7"/>
<text text-anchor="middle" x="471.5" y="-14.4" font-family="Helvetica,sans-Serif" font-size="12.00" fill="#000000">auto_timer.cpp</text>
</a>
</g>
</g>
<!-- Node52&#45;&gt;Node56 -->
<g id="edge4" class="edge">
<title>Node52&#45;&gt;Node56</title>
<path fill="none" stroke="#191970" d="M426.8036,-63.9987C437.8059,-52.5528 451.6891,-38.1097 461.0395,-28.3823"/>
<polygon fill="#191970" stroke="#191970" points="424.1447,-61.7142 419.738,-71.3491 429.1913,-66.5652 424.1447,-61.7142"/>
</g>
<!-- Node57 -->
<g id="node6" class="node">
<title>Node57</title>
<g id="a_node6"><a xlink:href="../../d0/db0/manager_8cpp.html" target="_top" xlink:title="manager.cpp">
<polygon fill="#ffffff" stroke="#000000" points="528,-7 528,-28 597,-28 597,-7 528,-7"/>
<text text-anchor="middle" x="562.5" y="-14.4" font-family="Helvetica,sans-Serif" font-size="12.00" fill="#000000">manager.cpp</text>
</a>
</g>
</g>
<!-- Node52&#45;&gt;Node57 -->
<g id="edge5" class="edge">
<title>Node52&#45;&gt;Node57</title>
<path fill="none" stroke="#191970" d="M443.9775,-67.4654C472.4352,-55.4685 512.1415,-38.7296 537.5881,-28.0021"/>
<polygon fill="#191970" stroke="#191970" points="442.2776,-64.3836 434.4226,-71.4934 444.9969,-70.8339 442.2776,-64.3836"/>
</g>
<!-- Node58 -->
<g id="node7" class="node">
<title>Node58</title>
<g id="a_node7"><a xlink:href="../../d2/dfd/timemory_8cc.html" target="_top" xlink:title="timemory.cc">
<polygon fill="#ffffff" stroke="#000000" points="615,-7 615,-28 680,-28 680,-7 615,-7"/>
<text text-anchor="middle" x="647.5" y="-14.4" font-family="Helvetica,sans-Serif" font-size="12.00" fill="#000000">timemory.cc</text>
</a>
</g>
</g>
<!-- Node52&#45;&gt;Node58 -->
<g id="edge6" class="edge">
<title>Node52&#45;&gt;Node58</title>
<path fill="none" stroke="#191970" d="M474.6544,-69.355C513.4075,-61.1196 563.2828,-49.2647 606.5,-35 612.5265,-33.0109 618.8988,-30.5005 624.7772,-28.0069"/>
<polygon fill="#191970" stroke="#191970" points="473.6131,-65.9971 464.5444,-71.4752 475.0499,-72.8481 473.6131,-65.9971"/>
</g>
</g>
</svg>
        <g id="navigator" transform="translate(0 0)" fill="#404254">
                <rect fill="#f2f5e9" fill-opacity="0.5" stroke="#606060" stroke-width=".5" x="0" y="0" width="60" height="60"/>
                <use id="zoomplus" xlink:href="#zoomPlus" x="17" y="9" onmousedown="handleZoom(evt,'in')"/>
                <use id="zoomminus" xlink:href="#zoomMin" x="42" y="9" onmousedown="handleZoom(evt,'out')"/>
                <use id="reset" xlink:href="#resetDef" x="30" y="36" onmousedown="handleReset()"/>
                <g id="arrowUp" xlink:href="#dirArrow" transform="translate(30 24)" onmousedown="handlePan(0,-1)">
                  <use xlink:href="#rim" fill="#404040">
                        <set attributeName="fill" to="#808080" begin="arrowUp.mouseover" end="arrowUp.mouseout"/>
                  </use>
                  <path fill="none" stroke="white" stroke-width="1.5" d="M0,-3.0v7 M-2.5,-0.5L0,-3.0L2.5,-0.5"/>
                </g>
                <g id="arrowRight" xlink:href="#dirArrow" transform="rotate(90) translate(36 -43)" onmousedown="handlePan(1,0)">
                  <use xlink:href="#rim" fill="#404040">
                        <set attributeName="fill" to="#808080" begin="arrowRight.mouseover" end="arrowRight.mouseout"/>
                  </use>
                  <path fill="none" stroke="white" stroke-width="1.5" d="M0,-3.0v7 M-2.5,-0.5L0,-3.0L2.5,-0.5"/>
                </g>
                <g id="arrowDown" xlink:href="#dirArrow" transform="rotate(180) translate(-30 -48)" onmousedown="handlePan(0,1)">
                  <use xlink:href="#rim" fill="#404040">
                        <set attributeName="fill" to="#808080" begin="arrowDown.mouseover" end="arrowDown.mouseout"/>
                  </use>
                  <path fill="none" stroke="white" stroke-width="1.5" d="M0,-3.0v7 M-2.5,-0.5L0,-3.0L2.5,-0.5"/>
                </g>
                <g id="arrowLeft" xlink:href="#dirArrow" transform="rotate(270) translate(-36 17)" onmousedown="handlePan(-1,0)">
                  <use xlink:href="#rim" fill="#404040">
                        <set attributeName="fill" to="#808080" begin="arrowLeft.mouseover" end="arrowLeft.mouseout"/>
                  </use>
                  <path fill="none" stroke="white" stroke-width="1.5" d="M0,-3.0v7 M-2.5,-0.5L0,-3.0L2.5,-0.5"/>
                </g>
        </g>
        <svg viewBox="0 0 15 15" width="100%" height="30px" preserveAspectRatio="xMaxYMin meet">
         <g id="arrow_out" transform="scale(0.3 0.3)">
          <a xlink:href="auto__timer_8hpp__dep__incl_org.svg" target="_base">
           <rect id="button" ry="5" rx="5" y="6" x="6" height="38" width="38"
                fill="#f2f5e9" fill-opacity="0.5" stroke="#606060" stroke-width="1.0"/>
           <path id="arrow"
             d="M 11.500037,31.436501 C 11.940474,20.09759 22.043105,11.32322 32.158766,21.979434 L 37.068811,17.246167 C 37.068811,17.246167 37.088388,32 37.088388,32 L 22.160133,31.978069 C 22.160133,31.978069 26.997745,27.140456 26.997745,27.140456 C 18.528582,18.264221 13.291696,25.230495 11.500037,31.436501 z"
             style="fill:#404040;"/>
          </a>
         </g>
        </svg>
</svg>
