<?xml version="1.0" encoding="UTF-8" standalone="no"?>
<!DOCTYPE svg PUBLIC "-//W3C//DTD SVG 1.1//EN"
 "http://www.w3.org/Graphics/SVG/1.1/DTD/svg11.dtd">
<!-- Generated by graphviz version 2.40.1 (20161225.0304)
 -->
<!-- Title: timemory/auto_timer.hpp Pages: 1 -->
<svg width="688pt" height="101pt"
 viewBox="0.00 0.00 687.50 101.00" xmlns="http://www.w3.org/2000/svg" xmlns:xlink="http://www.w3.org/1999/xlink">
<g id="graph0" class="graph" transform="scale(1 1) rotate(0) translate(4 97)">
<title>timemory/auto_timer.hpp</title>
<polygon fill="#ffffff" stroke="transparent" points="-4,4 -4,-97 683.5,-97 683.5,4 -4,4"/>
<!-- Node52 -->
<g id="node1" class="node">
<title>Node52</title>
<polygon fill="#bfbfbf" stroke="#000000" points="215,-71.5 215,-92.5 331,-92.5 331,-71.5 215,-71.5"/>
<text text-anchor="middle" x="273" y="-78.9" font-family="Helvetica,sans-Serif" font-size="12.00" fill="#000000">timemory/auto_timer.hpp</text>
</g>
<!-- Node53 -->
<g id="node2" class="node">
<title>Node53</title>
<g id="a_node2"><a xlink:href="../../d2/d80/auto__timer_8cpp.html" target="_top" xlink:title="auto_timer.cpp">
<polygon fill="#ffffff" stroke="#000000" points="0,-7 0,-28 76,-28 76,-7 0,-7"/>
<text text-anchor="middle" x="38" y="-14.4" font-family="Helvetica,sans-Serif" font-size="12.00" fill="#000000">auto_timer.cpp</text>
</a>
</g>
</g>
<!-- Node52&#45;&gt;Node53 -->
<g id="edge1" class="edge">
<title>Node52&#45;&gt;Node53</title>
<path fill="none" stroke="#191970" d="M214.4839,-69.1431C177.1465,-60.5046 127.8835,-48.2987 85,-35 78.347,-32.9368 71.2622,-30.4541 64.6653,-28.0156"/>
<polygon fill="#191970" stroke="#191970" points="214.1541,-72.6583 224.6835,-71.4829 215.7193,-65.8355 214.1541,-72.6583"/>
</g>
<!-- Node54 -->
<g id="node3" class="node">
<title>Node54</title>
<g id="a_node3"><a xlink:href="../../d0/db0/manager_8cpp.html" target="_top" xlink:title="manager.cpp">
<polygon fill="#ffffff" stroke="#000000" points="94.5,-7 94.5,-28 163.5,-28 163.5,-7 94.5,-7"/>
<text text-anchor="middle" x="129" y="-14.4" font-family="Helvetica,sans-Serif" font-size="12.00" fill="#000000">manager.cpp</text>
</a>
</g>
</g>
<!-- Node52&#45;&gt;Node54 -->
<g id="edge2" class="edge">
<title>Node52&#45;&gt;Node54</title>
<path fill="none" stroke="#191970" d="M240.1991,-67.3079C213.4408,-55.3224 176.2917,-38.6827 152.4465,-28.0021"/>
<polygon fill="#191970" stroke="#191970" points="238.9863,-70.5997 249.5434,-71.4934 241.8479,-64.2113 238.9863,-70.5997"/>
</g>
<!-- Node55 -->
<g id="node4" class="node">
<title>Node55</title>
<g id="a_node4"><a xlink:href="../../d2/dfd/timemory_8cc.html" target="_top" xlink:title="timemory.cc">
<polygon fill="#ffffff" stroke="#000000" points="181.5,-7 181.5,-28 246.5,-28 246.5,-7 181.5,-7"/>
<text text-anchor="middle" x="214" y="-14.4" font-family="Helvetica,sans-Serif" font-size="12.00" fill="#000000">timemory.cc</text>
</a>
</g>
</g>
<!-- Node52&#45;&gt;Node55 -->
<g id="edge3" class="edge">
<title>Node52&#45;&gt;Node55</title>
<path fill="none" stroke="#191970" d="M256.2309,-63.6677C245.8101,-52.2754 232.7668,-38.0162 223.9543,-28.3823"/>
<polygon fill="#191970" stroke="#191970" points="253.9253,-66.3328 263.2573,-71.3491 259.0904,-61.6081 253.9253,-66.3328"/>
</g>
<!-- Node56 -->
<g id="node5" class="node">
<title>Node56</title>
<g id="a_node5"><a xlink:href="../../d0/d90/ex1_2test__timing_8cpp.html" target="_top" xlink:title="examples/ex1/test_timing.cpp">
<polygon fill="#ffffff" stroke="#000000" points="264.5,-7 264.5,-28 399.5,-28 399.5,-7 264.5,-7"/>
<text text-anchor="middle" x="332" y="-14.4" font-family="Helvetica,sans-Serif" font-size="12.00" fill="#000000">examples/ex1/test_timing.cpp</text>
</a>
</g>
</g>
<!-- Node52&#45;&gt;Node56 -->
<g id="edge4" class="edge">
<title>Node52&#45;&gt;Node56</title>
<path fill="none" stroke="#191970" d="M289.7691,-63.6677C300.1899,-52.2754 313.2332,-38.0162 322.0457,-28.3823"/>
<polygon fill="#191970" stroke="#191970" points="286.9096,-61.6081 282.7427,-71.3491 292.0747,-66.3328 286.9096,-61.6081"/>
</g>
<!-- Node57 -->
<g id="node6" class="node">
<title>Node57</title>
<g id="a_node6"><a xlink:href="../../dd/d0a/mpi__test__timing_8cpp.html" target="_top" xlink:title="examples/ex2/mpi_test\l_timing.cpp">
<polygon fill="#ffffff" stroke="#000000" points="417.5,-.5 417.5,-34.5 526.5,-34.5 526.5,-.5 417.5,-.5"/>
<text text-anchor="start" x="425.5" y="-20.9" font-family="Helvetica,sans-Serif" font-size="12.00" fill="#000000">examples/ex2/mpi_test</text>
<text text-anchor="middle" x="472" y="-7.9" font-family="Helvetica,sans-Serif" font-size="12.00" fill="#000000">_timing.cpp</text>
</a>
</g>
</g>
<!-- Node52&#45;&gt;Node57 -->
<g id="edge5" class="edge">
<title>Node52&#45;&gt;Node57</title>
<path fill="none" stroke="#191970" d="M315.2814,-68.2957C345.6753,-58.4444 386.8595,-45.0958 419.3815,-34.5547"/>
<polygon fill="#191970" stroke="#191970" points="313.8493,-65.0806 305.4157,-71.4934 316.0077,-71.7395 313.8493,-65.0806"/>
</g>
<!-- Node58 -->
<g id="node7" class="node">
<title>Node58</title>
<g id="a_node7"><a xlink:href="../../d2/dc1/ex3_2test__timing_8cpp.html" target="_top" xlink:title="examples/ex3/test_timing.cpp">
<polygon fill="#ffffff" stroke="#000000" points="544.5,-7 544.5,-28 679.5,-28 679.5,-7 544.5,-7"/>
<text text-anchor="middle" x="612" y="-14.4" font-family="Helvetica,sans-Serif" font-size="12.00" fill="#000000">examples/ex3/test_timing.cpp</text>
</a>
</g>
</g>
<!-- Node52&#45;&gt;Node58 -->
<g id="edge6" class="edge">
<title>Node52&#45;&gt;Node58</title>
<path fill="none" stroke="#191970" d="M341.132,-70.776C394.3314,-61.7823 470.0402,-48.4792 536,-35 546.3471,-32.8855 557.4444,-30.4349 567.8741,-28.0494"/>
<polygon fill="#191970" stroke="#191970" points="340.4147,-67.3474 331.1351,-72.4601 341.5776,-74.2501 340.4147,-67.3474"/>
</g>
</g>
</svg>
