<?xml version="1.0" encoding="UTF-8" standalone="no"?>
<!DOCTYPE svg PUBLIC "-//W3C//DTD SVG 1.1//EN"
 "http://www.w3.org/Graphics/SVG/1.1/DTD/svg11.dtd">
<!-- Generated by graphviz version 2.40.1 (20161225.0304)
 -->
<!-- Title: util.rss_usage Pages: 1 -->
<svg width="101pt" height="337pt"
 viewBox="0.00 0.00 101.00 337.00" xmlns="http://www.w3.org/2000/svg" xmlns:xlink="http://www.w3.org/1999/xlink">
<g id="graph0" class="graph" transform="scale(1 1) rotate(0) translate(4 333)">
<title>util.rss_usage</title>
<polygon fill="#ffffff" stroke="transparent" points="-4,4 -4,-333 97,-333 97,4 -4,4"/>
<!-- Node0 -->
<g id="node1" class="node">
<title>Node0</title>
<polygon fill="#bfbfbf" stroke="#000000" points="10.5,-.5 10.5,-76.5 82.5,-76.5 82.5,-.5 10.5,-.5"/>
<text text-anchor="middle" x="46.5" y="-62.9" font-family="Helvetica,sans-Serif" font-size="12.00" fill="#000000">util.rss_usage</text>
<polyline fill="none" stroke="#000000" points="10.5,-55.5 82.5,-55.5 "/>
<text text-anchor="start" x="18.5" y="-41.9" font-family="Helvetica,sans-Serif" font-size="12.00" fill="#000000">+ key</text>
<polyline fill="none" stroke="#000000" points="10.5,-34.5 82.5,-34.5 "/>
<text text-anchor="start" x="18.5" y="-20.9" font-family="Helvetica,sans-Serif" font-size="12.00" fill="#000000">+ __init__()</text>
<text text-anchor="start" x="18.5" y="-7.9" font-family="Helvetica,sans-Serif" font-size="12.00" fill="#000000">+ __call__()</text>
</g>
<!-- Node1 -->
<g id="node2" class="node">
<title>Node1</title>
<g id="a_node2"><a xlink:href="../../dc/d4e/classutil_1_1base__decorator.html" target="_top" xlink:title="{util.base_decorator\n|+ key\l+ add_args\l+ is_class\l|+ __init__()\l+ class_string()\l+ arg_string()\l}">
<polygon fill="#ffffff" stroke="#000000" points="0,-113.5 0,-228.5 93,-228.5 93,-113.5 0,-113.5"/>
<text text-anchor="middle" x="46.5" y="-214.9" font-family="Helvetica,sans-Serif" font-size="12.00" fill="#000000">util.base_decorator</text>
<polyline fill="none" stroke="#000000" points="0,-207.5 93,-207.5 "/>
<text text-anchor="start" x="8" y="-193.9" font-family="Helvetica,sans-Serif" font-size="12.00" fill="#000000">+ key</text>
<text text-anchor="start" x="8" y="-180.9" font-family="Helvetica,sans-Serif" font-size="12.00" fill="#000000">+ add_args</text>
<text text-anchor="start" x="8" y="-167.9" font-family="Helvetica,sans-Serif" font-size="12.00" fill="#000000">+ is_class</text>
<polyline fill="none" stroke="#000000" points="0,-160.5 93,-160.5 "/>
<text text-anchor="start" x="8" y="-146.9" font-family="Helvetica,sans-Serif" font-size="12.00" fill="#000000">+ __init__()</text>
<text text-anchor="start" x="8" y="-133.9" font-family="Helvetica,sans-Serif" font-size="12.00" fill="#000000">+ class_string()</text>
<text text-anchor="start" x="8" y="-120.9" font-family="Helvetica,sans-Serif" font-size="12.00" fill="#000000">+ arg_string()</text>
</a>
</g>
</g>
<!-- Node1&#45;&gt;Node0 -->
<g id="edge1" class="edge">
<title>Node1&#45;&gt;Node0</title>
<path fill="none" stroke="#191970" d="M46.5,-103.0316C46.5,-93.9481 46.5,-84.9076 46.5,-76.594"/>
<polygon fill="none" stroke="#191970" points="43.0001,-103.269 46.5,-113.269 50.0001,-103.269 43.0001,-103.269"/>
</g>
<!-- Node2 -->
<g id="node3" class="node">
<title>Node2</title>
<g id="a_node3"><a xlink:href="../../dc/dd8/classobject.html" target="_top" xlink:title="{object\n||}">
<polygon fill="#ffffff" stroke="#000000" points="26,-265.5 26,-328.5 67,-328.5 67,-265.5 26,-265.5"/>
<text text-anchor="middle" x="46.5" y="-314.9" font-family="Helvetica,sans-Serif" font-size="12.00" fill="#000000">object</text>
<polyline fill="none" stroke="#000000" points="26,-307.5 67,-307.5 "/>
<text text-anchor="middle" x="46.5" y="-293.9" font-family="Helvetica,sans-Serif" font-size="12.00" fill="#000000"> </text>
<polyline fill="none" stroke="#000000" points="26,-286.5 67,-286.5 "/>
<text text-anchor="middle" x="46.5" y="-272.9" font-family="Helvetica,sans-Serif" font-size="12.00" fill="#000000"> </text>
</a>
</g>
</g>
<!-- Node2&#45;&gt;Node1 -->
<g id="edge2" class="edge">
<title>Node2&#45;&gt;Node1</title>
<path fill="none" stroke="#191970" d="M46.5,-254.9323C46.5,-246.5453 46.5,-237.5999 46.5,-228.7912"/>
<polygon fill="none" stroke="#191970" points="43.0001,-255.2048 46.5,-265.2049 50.0001,-255.2049 43.0001,-255.2048"/>
</g>
</g>
</svg>
