<?xml version="1.0" encoding="UTF-8" standalone="no"?>
<!DOCTYPE svg PUBLIC "-//W3C//DTD SVG 1.1//EN"
 "http://www.w3.org/Graphics/SVG/1.1/DTD/svg11.dtd">
<!-- Generated by graphviz version 2.40.1 (20161225.0304)
 -->
<!-- Title: timer.cpp Pages: 1 -->
<svg width="2128pt" height="262pt"
 viewBox="0.00 0.00 2128.00 262.00" xmlns="http://www.w3.org/2000/svg" xmlns:xlink="http://www.w3.org/1999/xlink">
<g id="graph0" class="graph" transform="scale(1 1) rotate(0) translate(4 258)">
<title>timer.cpp</title>
<polygon fill="#ffffff" stroke="transparent" points="-4,4 -4,-258 2124,-258 2124,4 -4,4"/>
<!-- Node0 -->
<g id="node1" class="node">
<title>Node0</title>
<polygon fill="#bfbfbf" stroke="#000000" points="652,-232.5 652,-253.5 706,-253.5 706,-232.5 652,-232.5"/>
<text text-anchor="middle" x="679" y="-239.9" font-family="Helvetica,sans-Serif" font-size="12.00" fill="#000000">timer.cpp</text>
</g>
<!-- Node1 -->
<g id="node2" class="node">
<title>Node1</title>
<g id="a_node2"><a xlink:href="../../df/d05/timer_8hpp.html" target="_top" xlink:title="timemory/timer.hpp">
<polygon fill="#ffffff" stroke="#000000" points="540,-174.5 540,-195.5 634,-195.5 634,-174.5 540,-174.5"/>
<text text-anchor="middle" x="587" y="-181.9" font-family="Helvetica,sans-Serif" font-size="12.00" fill="#000000">timemory/timer.hpp</text>
</a>
</g>
</g>
<!-- Node0&#45;&gt;Node1 -->
<g id="edge1" class="edge">
<title>Node0&#45;&gt;Node1</title>
<path fill="none" stroke="#191970" d="M662.1258,-232.3619C648.2494,-223.6138 628.366,-211.0786 612.5403,-201.1015"/>
<polygon fill="#191970" stroke="#191970" points="614.0931,-197.943 603.7672,-195.5707 610.3599,-203.8645 614.0931,-197.943"/>
</g>
<!-- Node33 -->
<g id="node34" class="node">
<title>Node33</title>
<polygon fill="#ffffff" stroke="#bfbfbf" points="652,-174.5 652,-195.5 706,-195.5 706,-174.5 652,-174.5"/>
<text text-anchor="middle" x="679" y="-181.9" font-family="Helvetica,sans-Serif" font-size="12.00" fill="#000000">algorithm</text>
</g>
<!-- Node0&#45;&gt;Node33 -->
<g id="edge52" class="edge">
<title>Node0&#45;&gt;Node33</title>
<path fill="none" stroke="#191970" d="M679,-232.3619C679,-224.9219 679,-214.7427 679,-205.7276"/>
<polygon fill="#191970" stroke="#191970" points="682.5001,-205.5706 679,-195.5707 675.5001,-205.5707 682.5001,-205.5706"/>
</g>
<!-- Node34 -->
<g id="node35" class="node">
<title>Node34</title>
<polygon fill="#ffffff" stroke="#bfbfbf" points="724,-174.5 724,-195.5 770,-195.5 770,-174.5 724,-174.5"/>
<text text-anchor="middle" x="747" y="-181.9" font-family="Helvetica,sans-Serif" font-size="12.00" fill="#000000">cassert</text>
</g>
<!-- Node0&#45;&gt;Node34 -->
<g id="edge53" class="edge">
<title>Node0&#45;&gt;Node34</title>
<path fill="none" stroke="#191970" d="M691.4722,-232.3619C701.3453,-223.9408 715.3325,-212.0105 726.7984,-202.2308"/>
<polygon fill="#191970" stroke="#191970" points="729.2698,-204.7231 734.6068,-195.5707 724.7271,-199.3972 729.2698,-204.7231"/>
</g>
<!-- Node2 -->
<g id="node3" class="node">
<title>Node2</title>
<g id="a_node3"><a xlink:href="../../db/d19/namespace_8hpp.html" target="_top" xlink:title="timemory/namespace.hpp">
<polygon fill="#ffffff" stroke="#000000" points="0,-.5 0,-21.5 120,-21.5 120,-.5 0,-.5"/>
<text text-anchor="middle" x="60" y="-7.9" font-family="Helvetica,sans-Serif" font-size="12.00" fill="#000000">timemory/namespace.hpp</text>
</a>
</g>
</g>
<!-- Node1&#45;&gt;Node2 -->
<g id="edge2" class="edge">
<title>Node1&#45;&gt;Node2</title>
<path fill="none" stroke="#191970" d="M554.8271,-174.3774C463.6677,-144.2793 203.6724,-58.4364 101.7318,-24.7786"/>
<polygon fill="#191970" stroke="#191970" points="102.679,-21.4056 92.0859,-21.5938 100.4843,-28.0527 102.679,-21.4056"/>
</g>
<!-- Node3 -->
<g id="node4" class="node">
<title>Node3</title>
<g id="a_node4"><a xlink:href="../../d6/d01/base__timer_8hpp.html" target="_top" xlink:title="timemory/base_timer.hpp">
<polygon fill="#ffffff" stroke="#000000" points="1454,-116.5 1454,-137.5 1572,-137.5 1572,-116.5 1454,-116.5"/>
<text text-anchor="middle" x="1513" y="-123.9" font-family="Helvetica,sans-Serif" font-size="12.00" fill="#000000">timemory/base_timer.hpp</text>
</a>
</g>
</g>
<!-- Node1&#45;&gt;Node3 -->
<g id="edge3" class="edge">
<title>Node1&#45;&gt;Node3</title>
<path fill="none" stroke="#191970" d="M634.2813,-175.2295C637.2248,-174.7712 640.1487,-174.3553 643,-174 797.5129,-154.7471 1266.1824,-136.0634 1443.779,-129.4854"/>
<polygon fill="#191970" stroke="#191970" points="1443.9242,-132.9825 1453.7883,-129.1161 1443.666,-125.9873 1443.9242,-132.9825"/>
</g>
<!-- Node3&#45;&gt;Node2 -->
<g id="edge4" class="edge">
<title>Node3&#45;&gt;Node2</title>
<path fill="none" stroke="#191970" d="M1453.7606,-124.7074C1263.0369,-116.8597 647.7655,-87.9073 130.4643,-22.1294"/>
<polygon fill="#191970" stroke="#191970" points="130.5427,-18.611 120.1796,-20.8151 129.6553,-25.5545 130.5427,-18.611"/>
</g>
<!-- Node4 -->
<g id="node5" class="node">
<title>Node4</title>
<g id="a_node5"><a xlink:href="../../d8/d4e/base__clock_8hpp.html" target="_top" xlink:title="timemory/base_clock.hpp">
<polygon fill="#ffffff" stroke="#000000" points="733.5,-58.5 733.5,-79.5 852.5,-79.5 852.5,-58.5 733.5,-58.5"/>
<text text-anchor="middle" x="793" y="-65.9" font-family="Helvetica,sans-Serif" font-size="12.00" fill="#000000">timemory/base_clock.hpp</text>
</a>
</g>
</g>
<!-- Node3&#45;&gt;Node4 -->
<g id="edge5" class="edge">
<title>Node3&#45;&gt;Node4</title>
<path fill="none" stroke="#191970" d="M1453.7734,-122.229C1321.8471,-111.6016 1004.3285,-86.0237 862.9464,-74.6346"/>
<polygon fill="#191970" stroke="#191970" points="862.9175,-71.121 852.6687,-73.8066 862.3554,-78.0984 862.9175,-71.121"/>
</g>
<!-- Node21 -->
<g id="node22" class="node">
<title>Node21</title>
<polygon fill="#ffffff" stroke="#bfbfbf" points="1199,-.5 1199,-21.5 1285,-21.5 1285,-.5 1199,-.5"/>
<text text-anchor="middle" x="1242" y="-7.9" font-family="Helvetica,sans-Serif" font-size="12.00" fill="#000000">cereal/cereal.hpp</text>
</g>
<!-- Node3&#45;&gt;Node21 -->
<g id="edge46" class="edge">
<title>Node3&#45;&gt;Node21</title>
<path fill="none" stroke="#191970" d="M1487.9907,-116.2949C1439.1647,-95.3952 1331.1137,-49.1446 1275.9059,-25.5132"/>
<polygon fill="#191970" stroke="#191970" points="1277.1279,-22.2292 1266.5574,-21.5117 1274.3733,-28.6644 1277.1279,-22.2292"/>
</g>
<!-- Node22 -->
<g id="node23" class="node">
<title>Node22</title>
<polygon fill="#ffffff" stroke="#bfbfbf" points="1303.5,-.5 1303.5,-21.5 1416.5,-21.5 1416.5,-.5 1303.5,-.5"/>
<text text-anchor="middle" x="1360" y="-7.9" font-family="Helvetica,sans-Serif" font-size="12.00" fill="#000000">cereal/types/chrono.hpp</text>
</g>
<!-- Node3&#45;&gt;Node22 -->
<g id="edge49" class="edge">
<title>Node3&#45;&gt;Node22</title>
<path fill="none" stroke="#191970" d="M1498.8804,-116.2949C1472.2381,-96.0955 1414.3622,-52.2158 1382.3739,-27.9632"/>
<polygon fill="#191970" stroke="#191970" points="1384.1687,-24.9318 1374.0855,-21.6792 1379.9396,-30.5099 1384.1687,-24.9318"/>
</g>
<!-- Node23 -->
<g id="node24" class="node">
<title>Node23</title>
<polygon fill="#ffffff" stroke="#bfbfbf" points="1435,-.5 1435,-21.5 1545,-21.5 1545,-.5 1435,-.5"/>
<text text-anchor="middle" x="1490" y="-7.9" font-family="Helvetica,sans-Serif" font-size="12.00" fill="#000000">cereal/types/deque.hpp</text>
</g>
<!-- Node3&#45;&gt;Node23 -->
<g id="edge50" class="edge">
<title>Node3&#45;&gt;Node23</title>
<path fill="none" stroke="#191970" d="M1494.9047,-116.3857C1482.8181,-108.1668 1467.9146,-95.5701 1461,-80 1453.4879,-63.0844 1463.313,-43.6316 1473.5081,-29.7016"/>
<polygon fill="#191970" stroke="#191970" points="1476.2895,-31.827 1479.7521,-21.8139 1470.801,-27.4822 1476.2895,-31.827"/>
</g>
<!-- Node24 -->
<g id="node25" class="node">
<title>Node24</title>
<polygon fill="#ffffff" stroke="#bfbfbf" points="1563.5,-.5 1563.5,-21.5 1652.5,-21.5 1652.5,-.5 1563.5,-.5"/>
<text text-anchor="middle" x="1608" y="-7.9" font-family="Helvetica,sans-Serif" font-size="12.00" fill="#000000">cereal/access.hpp</text>
</g>
<!-- Node3&#45;&gt;Node24 -->
<g id="edge47" class="edge">
<title>Node3&#45;&gt;Node24</title>
<path fill="none" stroke="#191970" d="M1526.7861,-116.339C1537.8705,-107.3646 1553.4449,-93.8144 1565,-80 1577.803,-64.6937 1589.5792,-45.2498 1597.558,-30.9062"/>
<polygon fill="#191970" stroke="#191970" points="1600.7493,-32.3634 1602.4411,-21.9045 1594.5963,-29.0256 1600.7493,-32.3634"/>
</g>
<!-- Node25 -->
<g id="node26" class="node">
<title>Node25</title>
<g id="a_node26"><a xlink:href="../../d9/dd2/rss_8hpp.html" target="_top" xlink:title="timemory/rss.hpp">
<polygon fill="#ffffff" stroke="#000000" points="1470,-58.5 1470,-79.5 1556,-79.5 1556,-58.5 1470,-58.5"/>
<text text-anchor="middle" x="1513" y="-65.9" font-family="Helvetica,sans-Serif" font-size="12.00" fill="#000000">timemory/rss.hpp</text>
</a>
</g>
</g>
<!-- Node3&#45;&gt;Node25 -->
<g id="edge27" class="edge">
<title>Node3&#45;&gt;Node25</title>
<path fill="none" stroke="#191970" d="M1513,-116.3619C1513,-108.9219 1513,-98.7427 1513,-89.7276"/>
<polygon fill="#191970" stroke="#191970" points="1516.5001,-89.5706 1513,-79.5707 1509.5001,-89.5707 1516.5001,-89.5706"/>
</g>
<!-- Node27 -->
<g id="node28" class="node">
<title>Node27</title>
<polygon fill="#ffffff" stroke="#bfbfbf" points="1778.5,-.5 1778.5,-21.5 1825.5,-21.5 1825.5,-.5 1778.5,-.5"/>
<text text-anchor="middle" x="1802" y="-7.9" font-family="Helvetica,sans-Serif" font-size="12.00" fill="#000000">fstream</text>
</g>
<!-- Node3&#45;&gt;Node27 -->
<g id="edge43" class="edge">
<title>Node3&#45;&gt;Node27</title>
<path fill="none" stroke="#191970" d="M1530.5442,-116.4766C1555.5029,-101.8392 1603.0101,-75.1988 1646,-58 1696.4713,-37.8082 1713.501,-39.12 1768.6922,-22.2853"/>
<polygon fill="#191970" stroke="#191970" points="1769.7712,-25.6151 1778.2769,-19.2981 1767.6884,-18.9321 1769.7712,-25.6151"/>
</g>
<!-- Node28 -->
<g id="node29" class="node">
<title>Node28</title>
<polygon fill="#ffffff" stroke="#bfbfbf" points="1843.5,-.5 1843.5,-21.5 1882.5,-21.5 1882.5,-.5 1843.5,-.5"/>
<text text-anchor="middle" x="1863" y="-7.9" font-family="Helvetica,sans-Serif" font-size="12.00" fill="#000000">string</text>
</g>
<!-- Node3&#45;&gt;Node28 -->
<g id="edge44" class="edge">
<title>Node3&#45;&gt;Node28</title>
<path fill="none" stroke="#191970" d="M1543.3455,-116.421C1568.8401,-107.3356 1606.1139,-93.5895 1638,-80 1658.8479,-71.1149 1662.6356,-65.5592 1684,-58 1746.1191,-36.021 1767.2758,-42.0366 1833.5744,-22.1447"/>
<polygon fill="#191970" stroke="#191970" points="1834.7161,-25.4553 1843.238,-19.1603 1832.6505,-18.767 1834.7161,-25.4553"/>
</g>
<!-- Node30 -->
<g id="node31" class="node">
<title>Node30</title>
<polygon fill="#ffffff" stroke="#bfbfbf" points="1900.5,-.5 1900.5,-21.5 1991.5,-21.5 1991.5,-.5 1900.5,-.5"/>
<text text-anchor="middle" x="1946" y="-7.9" font-family="Helvetica,sans-Serif" font-size="12.00" fill="#000000">cereal/macros.hpp</text>
</g>
<!-- Node3&#45;&gt;Node30 -->
<g id="edge48" class="edge">
<title>Node3&#45;&gt;Node30</title>
<path fill="none" stroke="#191970" d="M1556.2297,-116.4154C1589.2098,-107.8724 1635.5344,-94.8586 1675,-80 1696.5849,-71.8734 1700.1236,-65.3057 1722,-58 1730.0384,-55.3156 1826.8652,-35.3315 1890.5561,-22.3004"/>
<polygon fill="#191970" stroke="#191970" points="1891.3788,-25.7047 1900.475,-20.2724 1889.9765,-18.8465 1891.3788,-25.7047"/>
</g>
<!-- Node31 -->
<g id="node32" class="node">
<title>Node31</title>
<polygon fill="#ffffff" stroke="#bfbfbf" points="2010,-.5 2010,-21.5 2120,-21.5 2120,-.5 2010,-.5"/>
<text text-anchor="middle" x="2065" y="-7.9" font-family="Helvetica,sans-Serif" font-size="12.00" fill="#000000">cereal/types/vector.hpp</text>
</g>
<!-- Node3&#45;&gt;Node31 -->
<g id="edge51" class="edge">
<title>Node3&#45;&gt;Node31</title>
<path fill="none" stroke="#191970" d="M1572.3844,-116.7192C1612.5008,-108.8704 1666.278,-96.5754 1712,-80 1732.5548,-72.5484 1735.1438,-64.5608 1756,-58 1857.9104,-25.9419 1890.4149,-38.5227 1999.7432,-22.1308"/>
<polygon fill="#191970" stroke="#191970" points="2000.5092,-25.554 2009.8561,-20.5654 1999.4384,-18.6364 2000.5092,-25.554"/>
</g>
<!-- Node32 -->
<g id="node33" class="node">
<title>Node32</title>
<polygon fill="#ffffff" stroke="#bfbfbf" points="1764.5,-58.5 1764.5,-79.5 1807.5,-79.5 1807.5,-58.5 1764.5,-58.5"/>
<text text-anchor="middle" x="1786" y="-65.9" font-family="Helvetica,sans-Serif" font-size="12.00" fill="#000000">atomic</text>
</g>
<!-- Node3&#45;&gt;Node32 -->
<g id="edge45" class="edge">
<title>Node3&#45;&gt;Node32</title>
<path fill="none" stroke="#191970" d="M1572.2932,-116.9534C1620.4569,-108.3829 1689.9931,-95.077 1750,-80 1751.4657,-79.6317 1752.9604,-79.2402 1754.4668,-78.8327"/>
<polygon fill="#191970" stroke="#191970" points="1755.7481,-82.1065 1764.397,-75.9871 1753.8198,-75.3773 1755.7481,-82.1065"/>
</g>
<!-- Node4&#45;&gt;Node2 -->
<g id="edge26" class="edge">
<title>Node4&#45;&gt;Node2</title>
<path fill="none" stroke="#191970" d="M733.3177,-66.5272C618.5413,-61.3902 358.9109,-47.9237 130.3409,-22.0707"/>
<polygon fill="#191970" stroke="#191970" points="130.5006,-18.5663 120.1682,-20.9094 129.7067,-25.5211 130.5006,-18.5663"/>
</g>
<!-- Node5 -->
<g id="node6" class="node">
<title>Node5</title>
<polygon fill="#ffffff" stroke="#bfbfbf" points="935,-.5 935,-21.5 983,-21.5 983,-.5 935,-.5"/>
<text text-anchor="middle" x="959" y="-7.9" font-family="Helvetica,sans-Serif" font-size="12.00" fill="#000000">unistd.h</text>
</g>
<!-- Node4&#45;&gt;Node5 -->
<g id="edge6" class="edge">
<title>Node4&#45;&gt;Node5</title>
<path fill="none" stroke="#191970" d="M823.0613,-58.4966C851.8534,-48.4368 895.2321,-33.2803 925.2083,-22.8067"/>
<polygon fill="#191970" stroke="#191970" points="926.534,-26.0511 934.8199,-19.4485 924.225,-19.4429 926.534,-26.0511"/>
</g>
<!-- Node6 -->
<g id="node7" class="node">
<title>Node6</title>
<polygon fill="#ffffff" stroke="#bfbfbf" points="138,-.5 138,-21.5 200,-21.5 200,-.5 138,-.5"/>
<text text-anchor="middle" x="169" y="-7.9" font-family="Helvetica,sans-Serif" font-size="12.00" fill="#000000">sys/times.h</text>
</g>
<!-- Node4&#45;&gt;Node6 -->
<g id="edge7" class="edge">
<title>Node4&#45;&gt;Node6</title>
<path fill="none" stroke="#191970" d="M733.3786,-65.6302C609.274,-58.3895 325.8048,-40.6154 210.3056,-21.9072"/>
<polygon fill="#191970" stroke="#191970" points="210.7607,-18.4345 200.3159,-20.211 209.5889,-25.3357 210.7607,-18.4345"/>
</g>
<!-- Node7 -->
<g id="node8" class="node">
<title>Node7</title>
<polygon fill="#ffffff" stroke="#bfbfbf" points="1001.5,-.5 1001.5,-21.5 1052.5,-21.5 1052.5,-.5 1001.5,-.5"/>
<text text-anchor="middle" x="1027" y="-7.9" font-family="Helvetica,sans-Serif" font-size="12.00" fill="#000000">iostream</text>
</g>
<!-- Node4&#45;&gt;Node7 -->
<g id="edge8" class="edge">
<title>Node4&#45;&gt;Node7</title>
<path fill="none" stroke="#191970" d="M841.9112,-58.4878C880.1366,-50.0371 934.7902,-37.4418 991.5753,-21.9779"/>
<polygon fill="#191970" stroke="#191970" points="992.7335,-25.2895 1001.4492,-19.2655 990.8793,-18.5395 992.7335,-25.2895"/>
</g>
<!-- Node8 -->
<g id="node9" class="node">
<title>Node8</title>
<polygon fill="#ffffff" stroke="#bfbfbf" points="1071,-.5 1071,-21.5 1119,-21.5 1119,-.5 1071,-.5"/>
<text text-anchor="middle" x="1095" y="-7.9" font-family="Helvetica,sans-Serif" font-size="12.00" fill="#000000">iomanip</text>
</g>
<!-- Node4&#45;&gt;Node8 -->
<g id="edge9" class="edge">
<title>Node4&#45;&gt;Node8</title>
<path fill="none" stroke="#191970" d="M852.5761,-60.9837C907.217,-53.0583 990.1662,-39.5787 1061,-22 1061.1016,-21.9748 1061.2034,-21.9494 1061.3052,-21.9239"/>
<polygon fill="#191970" stroke="#191970" points="1062.2795,-25.2859 1070.9736,-19.2309 1060.4012,-18.5426 1062.2795,-25.2859"/>
</g>
<!-- Node9 -->
<g id="node10" class="node">
<title>Node9</title>
<polygon fill="#ffffff" stroke="#bfbfbf" points="218.5,-.5 218.5,-21.5 267.5,-21.5 267.5,-.5 218.5,-.5"/>
<text text-anchor="middle" x="243" y="-7.9" font-family="Helvetica,sans-Serif" font-size="12.00" fill="#000000">sstream</text>
</g>
<!-- Node4&#45;&gt;Node9 -->
<g id="edge10" class="edge">
<title>Node4&#45;&gt;Node9</title>
<path fill="none" stroke="#191970" d="M733.1281,-65.3018C620.187,-58.0478 378.6445,-41.1415 277.5999,-21.9039"/>
<polygon fill="#191970" stroke="#191970" points="278.1908,-18.4528 267.6972,-19.9139 276.8117,-25.3156 278.1908,-18.4528"/>
</g>
<!-- Node10 -->
<g id="node11" class="node">
<title>Node10</title>
<polygon fill="#ffffff" stroke="#bfbfbf" points="285.5,-.5 285.5,-21.5 340.5,-21.5 340.5,-.5 285.5,-.5"/>
<text text-anchor="middle" x="313" y="-7.9" font-family="Helvetica,sans-Serif" font-size="12.00" fill="#000000">stdexcept</text>
</g>
<!-- Node4&#45;&gt;Node10 -->
<g id="edge11" class="edge">
<title>Node4&#45;&gt;Node10</title>
<path fill="none" stroke="#191970" d="M733.1988,-66.3006C649.4168,-61.7196 492.3482,-50.2193 350.9268,-22.1126"/>
<polygon fill="#191970" stroke="#191970" points="351.2679,-18.6108 340.7727,-20.0601 349.881,-25.4721 351.2679,-18.6108"/>
</g>
<!-- Node11 -->
<g id="node12" class="node">
<title>Node11</title>
<polygon fill="#ffffff" stroke="#bfbfbf" points="358.5,-.5 358.5,-21.5 399.5,-21.5 399.5,-.5 358.5,-.5"/>
<text text-anchor="middle" x="379" y="-7.9" font-family="Helvetica,sans-Serif" font-size="12.00" fill="#000000">vector</text>
</g>
<!-- Node4&#45;&gt;Node11 -->
<g id="edge12" class="edge">
<title>Node4&#45;&gt;Node11</title>
<path fill="none" stroke="#191970" d="M733.4971,-66.186C659.2459,-61.6933 528.4935,-50.5497 409.7061,-21.9943"/>
<polygon fill="#191970" stroke="#191970" points="410.2636,-18.5273 399.7177,-19.5444 408.5961,-25.3258 410.2636,-18.5273"/>
</g>
<!-- Node12 -->
<g id="node13" class="node">
<title>Node12</title>
<polygon fill="#ffffff" stroke="#bfbfbf" points="417.5,-.5 417.5,-21.5 458.5,-21.5 458.5,-.5 417.5,-.5"/>
<text text-anchor="middle" x="438" y="-7.9" font-family="Helvetica,sans-Serif" font-size="12.00" fill="#000000">mutex</text>
</g>
<!-- Node4&#45;&gt;Node12 -->
<g id="edge13" class="edge">
<title>Node4&#45;&gt;Node12</title>
<path fill="none" stroke="#191970" d="M733.2692,-64.1141C669.639,-58.0724 566.0082,-45.8346 468.5231,-21.7075"/>
<polygon fill="#191970" stroke="#191970" points="469.3588,-18.3088 458.8065,-19.2575 467.6473,-25.0963 469.3588,-18.3088"/>
</g>
<!-- Node13 -->
<g id="node14" class="node">
<title>Node13</title>
<polygon fill="#ffffff" stroke="#bfbfbf" points="477,-.5 477,-21.5 557,-21.5 557,-.5 477,-.5"/>
<text text-anchor="middle" x="517" y="-7.9" font-family="Helvetica,sans-Serif" font-size="12.00" fill="#000000">unordered_map</text>
</g>
<!-- Node4&#45;&gt;Node13 -->
<g id="edge14" class="edge">
<title>Node4&#45;&gt;Node13</title>
<path fill="none" stroke="#191970" d="M740.6545,-58.4197C696.8599,-49.5092 632.4632,-36.2719 567.1607,-22.2278"/>
<polygon fill="#191970" stroke="#191970" points="567.6124,-18.7448 557.0994,-20.059 566.1373,-25.5876 567.6124,-18.7448"/>
</g>
<!-- Node14 -->
<g id="node15" class="node">
<title>Node14</title>
<polygon fill="#ffffff" stroke="#bfbfbf" points="575.5,-.5 575.5,-21.5 616.5,-21.5 616.5,-.5 575.5,-.5"/>
<text text-anchor="middle" x="596" y="-7.9" font-family="Helvetica,sans-Serif" font-size="12.00" fill="#000000">cmath</text>
</g>
<!-- Node4&#45;&gt;Node14 -->
<g id="edge15" class="edge">
<title>Node4&#45;&gt;Node14</title>
<path fill="none" stroke="#191970" d="M752.2427,-58.4711C720.3901,-50.032 674.834,-37.5027 626.3227,-21.9377"/>
<polygon fill="#191970" stroke="#191970" points="627.1761,-18.5352 616.5842,-18.7846 625.0198,-25.1948 627.1761,-18.5352"/>
</g>
<!-- Node15 -->
<g id="node16" class="node">
<title>Node15</title>
<polygon fill="#ffffff" stroke="#bfbfbf" points="635,-.5 635,-21.5 671,-21.5 671,-.5 635,-.5"/>
<text text-anchor="middle" x="653" y="-7.9" font-family="Helvetica,sans-Serif" font-size="12.00" fill="#000000">tuple</text>
</g>
<!-- Node4&#45;&gt;Node15 -->
<g id="edge16" class="edge">
<title>Node4&#45;&gt;Node15</title>
<path fill="none" stroke="#191970" d="M767.6471,-58.4966C743.0217,-48.2947 705.7445,-32.8513 680.4349,-22.3659"/>
<polygon fill="#191970" stroke="#191970" points="681.6243,-19.0702 671.0461,-18.4762 678.945,-25.5372 681.6243,-19.0702"/>
</g>
<!-- Node16 -->
<g id="node17" class="node">
<title>Node16</title>
<polygon fill="#ffffff" stroke="#bfbfbf" points="689,-.5 689,-21.5 723,-21.5 723,-.5 689,-.5"/>
<text text-anchor="middle" x="706" y="-7.9" font-family="Helvetica,sans-Serif" font-size="12.00" fill="#000000">ratio</text>
</g>
<!-- Node4&#45;&gt;Node16 -->
<g id="edge17" class="edge">
<title>Node4&#45;&gt;Node16</title>
<path fill="none" stroke="#191970" d="M777.0429,-58.3619C764.0433,-49.6955 745.4688,-37.3126 730.5728,-27.3819"/>
<polygon fill="#191970" stroke="#191970" points="732.118,-24.2055 721.856,-21.5707 728.235,-30.0299 732.118,-24.2055"/>
</g>
<!-- Node17 -->
<g id="node18" class="node">
<title>Node17</title>
<polygon fill="#ffffff" stroke="#bfbfbf" points="741,-.5 741,-21.5 785,-21.5 785,-.5 741,-.5"/>
<text text-anchor="middle" x="763" y="-7.9" font-family="Helvetica,sans-Serif" font-size="12.00" fill="#000000">chrono</text>
</g>
<!-- Node4&#45;&gt;Node17 -->
<g id="edge18" class="edge">
<title>Node4&#45;&gt;Node17</title>
<path fill="none" stroke="#191970" d="M787.4975,-58.3619C783.4801,-50.5949 777.9186,-39.8426 773.1099,-30.5458"/>
<polygon fill="#191970" stroke="#191970" points="776.1706,-28.8448 768.4676,-21.5707 769.9531,-32.0608 776.1706,-28.8448"/>
</g>
<!-- Node18 -->
<g id="node19" class="node">
<title>Node18</title>
<polygon fill="#ffffff" stroke="#bfbfbf" points="803,-.5 803,-21.5 841,-21.5 841,-.5 803,-.5"/>
<text text-anchor="middle" x="822" y="-7.9" font-family="Helvetica,sans-Serif" font-size="12.00" fill="#000000">ctime</text>
</g>
<!-- Node4&#45;&gt;Node18 -->
<g id="edge19" class="edge">
<title>Node4&#45;&gt;Node18</title>
<path fill="none" stroke="#191970" d="M798.319,-58.3619C802.2026,-50.5949 807.5787,-39.8426 812.2271,-30.5458"/>
<polygon fill="#191970" stroke="#191970" points="815.373,-32.0802 816.7147,-21.5707 809.112,-28.9497 815.373,-32.0802"/>
</g>
<!-- Node19 -->
<g id="node20" class="node">
<title>Node19</title>
<polygon fill="#ffffff" stroke="#bfbfbf" points="1137.5,-.5 1137.5,-21.5 1180.5,-21.5 1180.5,-.5 1137.5,-.5"/>
<text text-anchor="middle" x="1159" y="-7.9" font-family="Helvetica,sans-Serif" font-size="12.00" fill="#000000">cstdint</text>
</g>
<!-- Node4&#45;&gt;Node19 -->
<g id="edge20" class="edge">
<title>Node4&#45;&gt;Node19</title>
<path fill="none" stroke="#191970" d="M852.6857,-64.2843C918.1116,-58.3003 1026.1506,-46.0246 1127.6849,-21.6546"/>
<polygon fill="#191970" stroke="#191970" points="1128.6059,-25.0326 1137.4888,-19.2582 1126.9438,-18.2328 1128.6059,-25.0326"/>
</g>
<!-- Node20 -->
<g id="node21" class="node">
<title>Node20</title>
<polygon fill="#ffffff" stroke="#bfbfbf" points="859,-.5 859,-21.5 917,-21.5 917,-.5 859,-.5"/>
<text text-anchor="middle" x="888" y="-7.9" font-family="Helvetica,sans-Serif" font-size="12.00" fill="#000000">type_traits</text>
</g>
<!-- Node4&#45;&gt;Node20 -->
<g id="edge21" class="edge">
<title>Node4&#45;&gt;Node20</title>
<path fill="none" stroke="#191970" d="M810.4245,-58.3619C824.8872,-49.532 845.6694,-36.844 862.084,-26.8224"/>
<polygon fill="#191970" stroke="#191970" points="863.9748,-29.7688 870.686,-21.5707 860.3271,-23.7943 863.9748,-29.7688"/>
</g>
<!-- Node4&#45;&gt;Node21 -->
<g id="edge22" class="edge">
<title>Node4&#45;&gt;Node21</title>
<path fill="none" stroke="#191970" d="M852.5983,-63.5485C930.2909,-56.0712 1070.2716,-41.3294 1189,-22 1189.1014,-21.9835 1189.203,-21.9669 1189.3046,-21.9503"/>
<polygon fill="#191970" stroke="#191970" points="1189.7139,-25.432 1198.9593,-20.2577 1188.5051,-18.5371 1189.7139,-25.432"/>
</g>
<!-- Node4&#45;&gt;Node22 -->
<g id="edge23" class="edge">
<title>Node4&#45;&gt;Node22</title>
<path fill="none" stroke="#191970" d="M852.5374,-64.8015C944.6187,-58.0024 1127.3404,-43.2963 1292.7884,-22.0804"/>
<polygon fill="#191970" stroke="#191970" points="1293.6884,-25.4933 1303.1568,-20.7393 1292.7904,-18.5511 1293.6884,-25.4933"/>
</g>
<!-- Node4&#45;&gt;Node23 -->
<g id="edge24" class="edge">
<title>Node4&#45;&gt;Node23</title>
<path fill="none" stroke="#191970" d="M852.8693,-66.4142C963.5981,-61.2243 1208.0227,-47.8648 1424.7598,-21.9192"/>
<polygon fill="#191970" stroke="#191970" points="1425.225,-25.3886 1434.7329,-20.714 1424.3852,-18.4391 1425.225,-25.3886"/>
</g>
<!-- Node4&#45;&gt;Node24 -->
<g id="edge25" class="edge">
<title>Node4&#45;&gt;Node24</title>
<path fill="none" stroke="#191970" d="M852.9628,-68.131C980.1824,-65.6743 1286.5831,-56.5121 1553.0337,-21.9523"/>
<polygon fill="#191970" stroke="#191970" points="1553.8322,-25.3777 1563.2919,-20.6065 1552.9216,-18.4371 1553.8322,-25.3777"/>
</g>
<!-- Node25&#45;&gt;Node2 -->
<g id="edge42" class="edge">
<title>Node25&#45;&gt;Node2</title>
<path fill="none" stroke="#191970" d="M1469.8971,-68.2582C1268.5818,-64.6842 418.9126,-48.3621 130.1866,-21.983"/>
<polygon fill="#191970" stroke="#191970" points="130.4379,-18.4913 120.1543,-21.0404 129.783,-25.4606 130.4379,-18.4913"/>
</g>
<!-- Node25&#45;&gt;Node5 -->
<g id="edge28" class="edge">
<title>Node25&#45;&gt;Node5</title>
<path fill="none" stroke="#191970" d="M1469.6611,-66.3882C1365.091,-59.8845 1100.2648,-42.1602 993.1935,-21.7906"/>
<polygon fill="#191970" stroke="#191970" points="993.8282,-18.3483 983.3349,-19.8114 992.4503,-25.2113 993.8282,-18.3483"/>
</g>
<!-- Node25&#45;&gt;Node7 -->
<g id="edge30" class="edge">
<title>Node25&#45;&gt;Node7</title>
<path fill="none" stroke="#191970" d="M1469.9674,-67.3882C1390.9583,-63.8103 1217.4786,-53.0812 1062.9882,-21.8445"/>
<polygon fill="#191970" stroke="#191970" points="1063.341,-18.3438 1052.8409,-19.7572 1061.9306,-25.2003 1063.341,-18.3438"/>
</g>
<!-- Node25&#45;&gt;Node8 -->
<g id="edge33" class="edge">
<title>Node25&#45;&gt;Node8</title>
<path fill="none" stroke="#191970" d="M1469.7912,-66.5545C1399.879,-61.9852 1257.643,-50.1511 1129.351,-21.9598"/>
<polygon fill="#191970" stroke="#191970" points="1129.8771,-18.491 1119.3541,-19.723 1128.3486,-25.3221 1129.8771,-18.491"/>
</g>
<!-- Node25&#45;&gt;Node19 -->
<g id="edge35" class="edge">
<title>Node25&#45;&gt;Node19</title>
<path fill="none" stroke="#191970" d="M1469.8982,-65.443C1409.3681,-59.8566 1295.7438,-47.2112 1190.3587,-21.6733"/>
<polygon fill="#191970" stroke="#191970" points="1191.0621,-18.242 1180.5147,-19.2437 1189.3847,-25.038 1191.0621,-18.242"/>
</g>
<!-- Node25&#45;&gt;Node21 -->
<g id="edge36" class="edge">
<title>Node25&#45;&gt;Node21</title>
<path fill="none" stroke="#191970" d="M1469.7596,-59.7456C1422.2673,-49.5812 1345.9782,-33.2536 1294.9411,-22.3306"/>
<polygon fill="#191970" stroke="#191970" points="1295.5975,-18.8919 1285.0864,-20.2214 1294.1324,-25.7368 1295.5975,-18.8919"/>
</g>
<!-- Node25&#45;&gt;Node22 -->
<g id="edge39" class="edge">
<title>Node25&#45;&gt;Node22</title>
<path fill="none" stroke="#191970" d="M1485.2929,-58.4966C1460.6737,-49.1639 1424.4833,-35.4447 1397.3201,-25.1475"/>
<polygon fill="#191970" stroke="#191970" points="1398.3505,-21.7951 1387.7591,-21.5231 1395.8691,-28.3406 1398.3505,-21.7951"/>
</g>
<!-- Node25&#45;&gt;Node23 -->
<g id="edge40" class="edge">
<title>Node25&#45;&gt;Node23</title>
<path fill="none" stroke="#191970" d="M1508.7814,-58.3619C1505.7663,-50.7584 1501.6166,-40.294 1497.9845,-31.1349"/>
<polygon fill="#191970" stroke="#191970" points="1501.1317,-29.5762 1494.1918,-21.5707 1494.6246,-32.1567 1501.1317,-29.5762"/>
</g>
<!-- Node25&#45;&gt;Node24 -->
<g id="edge37" class="edge">
<title>Node25&#45;&gt;Node24</title>
<path fill="none" stroke="#191970" d="M1530.4245,-58.3619C1544.8872,-49.532 1565.6694,-36.844 1582.084,-26.8224"/>
<polygon fill="#191970" stroke="#191970" points="1583.9748,-29.7688 1590.686,-21.5707 1580.3271,-23.7943 1583.9748,-29.7688"/>
</g>
<!-- Node26 -->
<g id="node27" class="node">
<title>Node26</title>
<polygon fill="#ffffff" stroke="#bfbfbf" points="1670.5,-.5 1670.5,-21.5 1699.5,-21.5 1699.5,-.5 1670.5,-.5"/>
<text text-anchor="middle" x="1685" y="-7.9" font-family="Helvetica,sans-Serif" font-size="12.00" fill="#000000">ios</text>
</g>
<!-- Node25&#45;&gt;Node26 -->
<g id="edge29" class="edge">
<title>Node25&#45;&gt;Node26</title>
<path fill="none" stroke="#191970" d="M1550.539,-58.4605C1580.7203,-49.6575 1624.0326,-36.28 1661,-22 1661.0962,-21.9628 1661.1926,-21.9255 1661.2891,-21.8879"/>
<polygon fill="#191970" stroke="#191970" points="1662.551,-25.1544 1670.3984,-18.0361 1659.8248,-18.7071 1662.551,-25.1544"/>
</g>
<!-- Node25&#45;&gt;Node27 -->
<g id="edge31" class="edge">
<title>Node25&#45;&gt;Node27</title>
<path fill="none" stroke="#191970" d="M1556.1772,-63.1298C1605.5856,-55.9663 1689.0046,-42.5133 1768.6625,-22.0954"/>
<polygon fill="#191970" stroke="#191970" points="1769.5607,-25.4783 1778.3557,-19.5708 1767.7964,-18.7043 1769.5607,-25.4783"/>
</g>
<!-- Node25&#45;&gt;Node28 -->
<g id="edge32" class="edge">
<title>Node25&#45;&gt;Node28</title>
<path fill="none" stroke="#191970" d="M1556.0814,-65.87C1616.5581,-60.7903 1729.9925,-48.7565 1833.6278,-21.9406"/>
<polygon fill="#191970" stroke="#191970" points="1834.5283,-25.3229 1843.3033,-19.3857 1832.7411,-18.5549 1834.5283,-25.3229"/>
</g>
<!-- Node29 -->
<g id="node30" class="node">
<title>Node29</title>
<polygon fill="#ffffff" stroke="#bfbfbf" points="1717.5,-.5 1717.5,-21.5 1760.5,-21.5 1760.5,-.5 1717.5,-.5"/>
<text text-anchor="middle" x="1739" y="-7.9" font-family="Helvetica,sans-Serif" font-size="12.00" fill="#000000">stdio.h</text>
</g>
<!-- Node25&#45;&gt;Node29 -->
<g id="edge34" class="edge">
<title>Node25&#45;&gt;Node29</title>
<path fill="none" stroke="#191970" d="M1556.207,-60.1501C1593.9934,-52.0743 1650.4811,-39.1926 1707.562,-22.2201"/>
<polygon fill="#191970" stroke="#191970" points="1708.9065,-25.4705 1717.471,-19.2335 1706.8864,-18.7683 1708.9065,-25.4705"/>
</g>
<!-- Node25&#45;&gt;Node30 -->
<g id="edge38" class="edge">
<title>Node25&#45;&gt;Node30</title>
<path fill="none" stroke="#191970" d="M1556.0678,-64.7588C1624.7502,-57.7551 1763.5085,-42.625 1890.4824,-22.1619"/>
<polygon fill="#191970" stroke="#191970" points="1891.0724,-25.612 1900.3807,-20.5518 1889.9485,-18.7029 1891.0724,-25.612"/>
</g>
<!-- Node25&#45;&gt;Node31 -->
<g id="edge41" class="edge">
<title>Node25&#45;&gt;Node31</title>
<path fill="none" stroke="#191970" d="M1556.2076,-65.9213C1639.8128,-59.7296 1829.7305,-44.5244 1999.7462,-22.0899"/>
<polygon fill="#191970" stroke="#191970" points="2000.4311,-25.5297 2009.8818,-20.7406 1999.5074,-18.5909 2000.4311,-25.5297"/>
</g>
</g>
</svg>
