<?xml version="1.0" encoding="UTF-8" standalone="no"?>
<!DOCTYPE svg PUBLIC "-//W3C//DTD SVG 1.1//EN"
 "http://www.w3.org/Graphics/SVG/1.1/DTD/svg11.dtd">
<!-- Generated by graphviz version 2.40.1 (20161225.0304)
 -->
<!-- Title: timer.cpp Pages: 1 -->
<svg width="2429pt" height="320pt"
 viewBox="0.00 0.00 2429.00 320.00" xmlns="http://www.w3.org/2000/svg" xmlns:xlink="http://www.w3.org/1999/xlink">
<g id="graph0" class="graph" transform="scale(1 1) rotate(0) translate(4 316)">
<title>timer.cpp</title>
<polygon fill="#ffffff" stroke="transparent" points="-4,4 -4,-316 2425,-316 2425,4 -4,4"/>
<!-- Node0 -->
<g id="node1" class="node">
<title>Node0</title>
<polygon fill="#bfbfbf" stroke="#000000" points="829,-290.5 829,-311.5 883,-311.5 883,-290.5 829,-290.5"/>
<text text-anchor="middle" x="856" y="-297.9" font-family="Helvetica,sans-Serif" font-size="12.00" fill="#000000">timer.cpp</text>
</g>
<!-- Node1 -->
<g id="node2" class="node">
<title>Node1</title>
<g id="a_node2"><a xlink:href="../../df/d05/timer_8hpp.html" target="_top" xlink:title="timemory/timer.hpp">
<polygon fill="#ffffff" stroke="#000000" points="809,-232.5 809,-253.5 903,-253.5 903,-232.5 809,-232.5"/>
<text text-anchor="middle" x="856" y="-239.9" font-family="Helvetica,sans-Serif" font-size="12.00" fill="#000000">timemory/timer.hpp</text>
</a>
</g>
</g>
<!-- Node0&#45;&gt;Node1 -->
<g id="edge1" class="edge">
<title>Node0&#45;&gt;Node1</title>
<path fill="none" stroke="#191970" d="M856,-290.3619C856,-282.9219 856,-272.7427 856,-263.7276"/>
<polygon fill="#191970" stroke="#191970" points="859.5001,-263.5706 856,-253.5707 852.5001,-263.5707 859.5001,-263.5706"/>
</g>
<!-- Node28 -->
<g id="node29" class="node">
<title>Node28</title>
<polygon fill="#ffffff" stroke="#bfbfbf" points="0,-.5 0,-21.5 54,-21.5 54,-.5 0,-.5"/>
<text text-anchor="middle" x="27" y="-7.9" font-family="Helvetica,sans-Serif" font-size="12.00" fill="#000000">algorithm</text>
</g>
<!-- Node0&#45;&gt;Node28 -->
<g id="edge85" class="edge">
<title>Node0&#45;&gt;Node28</title>
<path fill="none" stroke="#191970" d="M828.6173,-300.0922C685.8142,-295.0044 33,-267.2477 33,-185 33,-185 33,-185 33,-127 33,-93.5531 30.4814,-54.7539 28.7078,-31.5773"/>
<polygon fill="#191970" stroke="#191970" points="32.192,-31.2382 27.9113,-21.5467 25.214,-31.7924 32.192,-31.2382"/>
</g>
<!-- Node42 -->
<g id="node43" class="node">
<title>Node42</title>
<polygon fill="#ffffff" stroke="#bfbfbf" points="921,-232.5 921,-253.5 967,-253.5 967,-232.5 921,-232.5"/>
<text text-anchor="middle" x="944" y="-239.9" font-family="Helvetica,sans-Serif" font-size="12.00" fill="#000000">cassert</text>
</g>
<!-- Node0&#45;&gt;Node42 -->
<g id="edge86" class="edge">
<title>Node0&#45;&gt;Node42</title>
<path fill="none" stroke="#191970" d="M872.1406,-290.3619C885.4136,-281.6138 904.4325,-269.0786 919.5702,-259.1015"/>
<polygon fill="#191970" stroke="#191970" points="921.5383,-261.9962 927.9618,-253.5707 917.6861,-256.1515 921.5383,-261.9962"/>
</g>
<!-- Node2 -->
<g id="node3" class="node">
<title>Node2</title>
<g id="a_node3"><a xlink:href="../../db/d19/namespace_8hpp.html" target="_top" xlink:title="timemory/namespace.hpp">
<polygon fill="#ffffff" stroke="#000000" points="1474,-.5 1474,-21.5 1594,-21.5 1594,-.5 1474,-.5"/>
<text text-anchor="middle" x="1534" y="-7.9" font-family="Helvetica,sans-Serif" font-size="12.00" fill="#000000">timemory/namespace.hpp</text>
</a>
</g>
</g>
<!-- Node1&#45;&gt;Node2 -->
<g id="edge2" class="edge">
<title>Node1&#45;&gt;Node2</title>
<path fill="none" stroke="#191970" d="M890.391,-232.4461C971.6614,-207.3581 1181.7694,-141.6339 1355,-80 1405.0498,-62.1927 1462.2203,-39.7893 1498.2085,-25.43"/>
<polygon fill="#191970" stroke="#191970" points="1499.789,-28.5675 1507.7738,-21.6037 1497.1892,-22.0681 1499.789,-28.5675"/>
</g>
<!-- Node3 -->
<g id="node4" class="node">
<title>Node3</title>
<g id="a_node4"><a xlink:href="../../d6/d01/base__timer_8hpp.html" target="_top" xlink:title="timemory/base_timer.hpp">
<polygon fill="#ffffff" stroke="#000000" points="797,-174.5 797,-195.5 915,-195.5 915,-174.5 797,-174.5"/>
<text text-anchor="middle" x="856" y="-181.9" font-family="Helvetica,sans-Serif" font-size="12.00" fill="#000000">timemory/base_timer.hpp</text>
</a>
</g>
</g>
<!-- Node1&#45;&gt;Node3 -->
<g id="edge3" class="edge">
<title>Node1&#45;&gt;Node3</title>
<path fill="none" stroke="#191970" d="M856,-232.3619C856,-224.9219 856,-214.7427 856,-205.7276"/>
<polygon fill="#191970" stroke="#191970" points="859.5001,-205.5706 856,-195.5707 852.5001,-205.5707 859.5001,-205.5706"/>
</g>
<!-- Node3&#45;&gt;Node2 -->
<g id="edge4" class="edge">
<title>Node3&#45;&gt;Node2</title>
<path fill="none" stroke="#191970" d="M901.973,-174.4368C943.1292,-164.9611 1005.1149,-150.6422 1059,-138 1167.5195,-112.5398 1195.3326,-108.8517 1303,-80 1369.102,-62.2866 1444.9962,-39.0535 1491.2103,-24.5769"/>
<polygon fill="#191970" stroke="#191970" points="1492.3965,-27.873 1500.8882,-21.5373 1490.2989,-21.1947 1492.3965,-27.873"/>
</g>
<!-- Node4 -->
<g id="node5" class="node">
<title>Node4</title>
<g id="a_node5"><a xlink:href="../../d8/d4e/base__clock_8hpp.html" target="_top" xlink:title="timemory/base_clock.hpp">
<polygon fill="#ffffff" stroke="#000000" points="1174.5,-58.5 1174.5,-79.5 1293.5,-79.5 1293.5,-58.5 1174.5,-58.5"/>
<text text-anchor="middle" x="1234" y="-65.9" font-family="Helvetica,sans-Serif" font-size="12.00" fill="#000000">timemory/base_clock.hpp</text>
</a>
</g>
</g>
<!-- Node3&#45;&gt;Node4 -->
<g id="edge5" class="edge">
<title>Node3&#45;&gt;Node4</title>
<path fill="none" stroke="#191970" d="M890.547,-174.3983C959.4438,-153.2554 1113.8321,-105.8769 1189.911,-82.53"/>
<polygon fill="#191970" stroke="#191970" points="1191.1368,-85.815 1199.6699,-79.5352 1189.0831,-79.123 1191.1368,-85.815"/>
</g>
<!-- Node19 -->
<g id="node20" class="node">
<title>Node19</title>
<polygon fill="#ffffff" stroke="#bfbfbf" points="780,-.5 780,-21.5 866,-21.5 866,-.5 780,-.5"/>
<text text-anchor="middle" x="823" y="-7.9" font-family="Helvetica,sans-Serif" font-size="12.00" fill="#000000">cereal/cereal.hpp</text>
</g>
<!-- Node3&#45;&gt;Node19 -->
<g id="edge79" class="edge">
<title>Node3&#45;&gt;Node19</title>
<path fill="none" stroke="#191970" d="M853.9854,-174.3774C848.659,-146.293 834.1277,-69.6735 827.0212,-32.2027"/>
<polygon fill="#191970" stroke="#191970" points="830.3746,-31.1004 825.0725,-21.9277 823.4972,-32.4048 830.3746,-31.1004"/>
</g>
<!-- Node20 -->
<g id="node21" class="node">
<title>Node20</title>
<polygon fill="#ffffff" stroke="#bfbfbf" points="884.5,-.5 884.5,-21.5 997.5,-21.5 997.5,-.5 884.5,-.5"/>
<text text-anchor="middle" x="941" y="-7.9" font-family="Helvetica,sans-Serif" font-size="12.00" fill="#000000">cereal/types/chrono.hpp</text>
</g>
<!-- Node3&#45;&gt;Node20 -->
<g id="edge82" class="edge">
<title>Node3&#45;&gt;Node20</title>
<path fill="none" stroke="#191970" d="M861.1892,-174.3774C875.0269,-146.0509 912.9848,-68.3488 931.1115,-31.2424"/>
<polygon fill="#191970" stroke="#191970" points="934.4172,-32.4492 935.6617,-21.9277 928.1275,-29.3766 934.4172,-32.4492"/>
</g>
<!-- Node21 -->
<g id="node22" class="node">
<title>Node21</title>
<polygon fill="#ffffff" stroke="#bfbfbf" points="375,-.5 375,-21.5 485,-21.5 485,-.5 375,-.5"/>
<text text-anchor="middle" x="430" y="-7.9" font-family="Helvetica,sans-Serif" font-size="12.00" fill="#000000">cereal/types/deque.hpp</text>
</g>
<!-- Node3&#45;&gt;Node21 -->
<g id="edge83" class="edge">
<title>Node3&#45;&gt;Node21</title>
<path fill="none" stroke="#191970" d="M796.6058,-176.7738C753.7298,-169.6303 695.0008,-157.3362 646,-138 570.7019,-108.2866 490.7441,-54.668 452.6851,-27.596"/>
<polygon fill="#191970" stroke="#191970" points="454.5284,-24.6108 444.3636,-21.6229 450.4465,-30.2975 454.5284,-24.6108"/>
</g>
<!-- Node22 -->
<g id="node23" class="node">
<title>Node22</title>
<polygon fill="#ffffff" stroke="#bfbfbf" points="550.5,-.5 550.5,-21.5 639.5,-21.5 639.5,-.5 550.5,-.5"/>
<text text-anchor="middle" x="595" y="-7.9" font-family="Helvetica,sans-Serif" font-size="12.00" fill="#000000">cereal/access.hpp</text>
</g>
<!-- Node3&#45;&gt;Node22 -->
<g id="edge80" class="edge">
<title>Node3&#45;&gt;Node22</title>
<path fill="none" stroke="#191970" d="M796.7956,-176.2424C739.5467,-164.5384 654.7912,-138.0692 608,-80 597.1512,-66.5363 594.3335,-46.8094 593.9778,-31.8932"/>
<polygon fill="#191970" stroke="#191970" points="597.4807,-31.6466 594.0935,-21.6079 590.4812,-31.5678 597.4807,-31.6466"/>
</g>
<!-- Node23 -->
<g id="node24" class="node">
<title>Node23</title>
<g id="a_node24"><a xlink:href="../../d9/dd2/rss_8hpp.html" target="_top" xlink:title="timemory/rss.hpp">
<polygon fill="#ffffff" stroke="#000000" points="723,-58.5 723,-79.5 809,-79.5 809,-58.5 723,-58.5"/>
<text text-anchor="middle" x="766" y="-65.9" font-family="Helvetica,sans-Serif" font-size="12.00" fill="#000000">timemory/rss.hpp</text>
</a>
</g>
</g>
<!-- Node3&#45;&gt;Node23 -->
<g id="edge25" class="edge">
<title>Node3&#45;&gt;Node23</title>
<path fill="none" stroke="#191970" d="M847.6943,-174.2949C832.4242,-154.6135 799.7115,-112.4504 780.638,-87.8668"/>
<polygon fill="#191970" stroke="#191970" points="783.1809,-85.4346 774.2856,-79.6792 777.6503,-89.7256 783.1809,-85.4346"/>
</g>
<!-- Node25 -->
<g id="node26" class="node">
<title>Node25</title>
<polygon fill="#ffffff" stroke="#bfbfbf" points="72.5,-.5 72.5,-21.5 119.5,-21.5 119.5,-.5 72.5,-.5"/>
<text text-anchor="middle" x="96" y="-7.9" font-family="Helvetica,sans-Serif" font-size="12.00" fill="#000000">fstream</text>
</g>
<!-- Node3&#45;&gt;Node25 -->
<g id="edge76" class="edge">
<title>Node3&#45;&gt;Node25</title>
<path fill="none" stroke="#191970" d="M796.8622,-181.7591C719.8711,-176.6581 581.5006,-164.4677 466,-138 338.4404,-108.7689 193.2826,-51.5894 129.2889,-25.0962"/>
<polygon fill="#191970" stroke="#191970" points="130.3075,-21.7291 119.7303,-21.1167 127.6169,-28.1914 130.3075,-21.7291"/>
</g>
<!-- Node26 -->
<g id="node27" class="node">
<title>Node26</title>
<polygon fill="#ffffff" stroke="#bfbfbf" points="1748.5,-.5 1748.5,-21.5 1787.5,-21.5 1787.5,-.5 1748.5,-.5"/>
<text text-anchor="middle" x="1768" y="-7.9" font-family="Helvetica,sans-Serif" font-size="12.00" fill="#000000">string</text>
</g>
<!-- Node3&#45;&gt;Node26 -->
<g id="edge77" class="edge">
<title>Node3&#45;&gt;Node26</title>
<path fill="none" stroke="#191970" d="M915.0069,-174.6527C968.5279,-165.2299 1049.5888,-150.8649 1120,-138 1392.1153,-88.2816 1467.7669,-97.4825 1738.4743,-21.7751"/>
<polygon fill="#191970" stroke="#191970" points="1739.5068,-25.1206 1748.1872,-19.0459 1737.6132,-18.3816 1739.5068,-25.1206"/>
</g>
<!-- Node29 -->
<g id="node30" class="node">
<title>Node29</title>
<polygon fill="#ffffff" stroke="#bfbfbf" points="137.5,-.5 137.5,-21.5 228.5,-21.5 228.5,-.5 137.5,-.5"/>
<text text-anchor="middle" x="183" y="-7.9" font-family="Helvetica,sans-Serif" font-size="12.00" fill="#000000">cereal/macros.hpp</text>
</g>
<!-- Node3&#45;&gt;Node29 -->
<g id="edge81" class="edge">
<title>Node3&#45;&gt;Node29</title>
<path fill="none" stroke="#191970" d="M796.9906,-179.6277C733.1954,-173.0266 628.8491,-159.9182 541,-138 418.9187,-107.5409 279.9571,-51.9411 217.0865,-25.5931"/>
<polygon fill="#191970" stroke="#191970" points="218.2382,-22.2804 207.6637,-21.6239 215.5208,-28.7314 218.2382,-22.2804"/>
</g>
<!-- Node30 -->
<g id="node31" class="node">
<title>Node30</title>
<polygon fill="#ffffff" stroke="#bfbfbf" points="247,-.5 247,-21.5 357,-21.5 357,-.5 247,-.5"/>
<text text-anchor="middle" x="302" y="-7.9" font-family="Helvetica,sans-Serif" font-size="12.00" fill="#000000">cereal/types/vector.hpp</text>
</g>
<!-- Node3&#45;&gt;Node30 -->
<g id="edge84" class="edge">
<title>Node3&#45;&gt;Node30</title>
<path fill="none" stroke="#191970" d="M796.9615,-178.0945C744.0834,-171.0063 664.8044,-158.1353 598,-138 571.3459,-129.9663 407.0559,-57.5862 335.3825,-25.8265"/>
<polygon fill="#191970" stroke="#191970" points="336.4681,-22.4793 325.9077,-21.6256 333.6308,-28.8785 336.4681,-22.4793"/>
</g>
<!-- Node31 -->
<g id="node32" class="node">
<title>Node31</title>
<g id="a_node32"><a xlink:href="../../d1/d4e/utility_8hpp.html" target="_top" xlink:title="timemory/utility.hpp">
<polygon fill="#ffffff" stroke="#000000" points="1996,-58.5 1996,-79.5 2090,-79.5 2090,-58.5 1996,-58.5"/>
<text text-anchor="middle" x="2043" y="-65.9" font-family="Helvetica,sans-Serif" font-size="12.00" fill="#000000">timemory/utility.hpp</text>
</a>
</g>
</g>
<!-- Node3&#45;&gt;Node31 -->
<g id="edge41" class="edge">
<title>Node3&#45;&gt;Node31</title>
<path fill="none" stroke="#191970" d="M915.2418,-184.7988C1131.0382,-183.7505 1867.5398,-177.3006 1965,-138 1991.1302,-127.4631 2014.3512,-104.1861 2028.5221,-87.5842"/>
<polygon fill="#191970" stroke="#191970" points="2031.4278,-89.561 2035.0751,-79.6137 2026.0207,-85.1154 2031.4278,-89.561"/>
</g>
<!-- Node38 -->
<g id="node39" class="node">
<title>Node38</title>
<g id="a_node39"><a xlink:href="../../da/d8e/signal__detection_8hpp.html" target="_top" xlink:title="timemory/signal_detection.hpp">
<polygon fill="#ffffff" stroke="#000000" points="1816.5,-116.5 1816.5,-137.5 1955.5,-137.5 1955.5,-116.5 1816.5,-116.5"/>
<text text-anchor="middle" x="1886" y="-123.9" font-family="Helvetica,sans-Serif" font-size="12.00" fill="#000000">timemory/signal_detection.hpp</text>
</a>
</g>
</g>
<!-- Node3&#45;&gt;Node38 -->
<g id="edge56" class="edge">
<title>Node3&#45;&gt;Node38</title>
<path fill="none" stroke="#191970" d="M915.2279,-182.1282C1056.1224,-175.2267 1422.3329,-156.8767 1728,-138 1753.448,-136.4284 1781.1896,-134.5522 1806.2248,-132.7982"/>
<polygon fill="#191970" stroke="#191970" points="1806.676,-136.2752 1816.4054,-132.0813 1806.1843,-129.2925 1806.676,-136.2752"/>
</g>
<!-- Node41 -->
<g id="node42" class="node">
<title>Node41</title>
<polygon fill="#ffffff" stroke="#bfbfbf" points="903.5,-116.5 903.5,-137.5 946.5,-137.5 946.5,-116.5 903.5,-116.5"/>
<text text-anchor="middle" x="925" y="-123.9" font-family="Helvetica,sans-Serif" font-size="12.00" fill="#000000">atomic</text>
</g>
<!-- Node3&#45;&gt;Node41 -->
<g id="edge78" class="edge">
<title>Node3&#45;&gt;Node41</title>
<path fill="none" stroke="#191970" d="M868.6557,-174.3619C878.6739,-165.9408 892.8668,-154.0105 904.5013,-144.2308"/>
<polygon fill="#191970" stroke="#191970" points="907.0218,-146.6844 912.4246,-137.5707 902.5176,-141.326 907.0218,-146.6844"/>
</g>
<!-- Node4&#45;&gt;Node2 -->
<g id="edge24" class="edge">
<title>Node4&#45;&gt;Node2</title>
<path fill="none" stroke="#191970" d="M1288.3277,-58.4966C1339.2472,-48.6522 1415.4111,-33.9272 1469.4172,-23.486"/>
<polygon fill="#191970" stroke="#191970" points="1470.4166,-26.8577 1479.5704,-21.5231 1469.0878,-19.985 1470.4166,-26.8577"/>
</g>
<!-- Node5 -->
<g id="node6" class="node">
<title>Node5</title>
<polygon fill="#ffffff" stroke="#bfbfbf" points="1612.5,-.5 1612.5,-21.5 1663.5,-21.5 1663.5,-.5 1612.5,-.5"/>
<text text-anchor="middle" x="1638" y="-7.9" font-family="Helvetica,sans-Serif" font-size="12.00" fill="#000000">iostream</text>
</g>
<!-- Node4&#45;&gt;Node5 -->
<g id="edge6" class="edge">
<title>Node4&#45;&gt;Node5</title>
<path fill="none" stroke="#191970" d="M1293.6708,-64.6834C1365.0188,-58.7927 1488.066,-46.323 1602.1903,-21.8593"/>
<polygon fill="#191970" stroke="#191970" points="1603.1195,-25.239 1612.1447,-19.6895 1601.6287,-18.3995 1603.1195,-25.239"/>
</g>
<!-- Node6 -->
<g id="node7" class="node">
<title>Node6</title>
<polygon fill="#ffffff" stroke="#bfbfbf" points="1682,-.5 1682,-21.5 1730,-21.5 1730,-.5 1682,-.5"/>
<text text-anchor="middle" x="1706" y="-7.9" font-family="Helvetica,sans-Serif" font-size="12.00" fill="#000000">iomanip</text>
</g>
<!-- Node4&#45;&gt;Node6 -->
<g id="edge7" class="edge">
<title>Node4&#45;&gt;Node6</title>
<path fill="none" stroke="#191970" d="M1293.5818,-66.6821C1376.6262,-62.5588 1531.8146,-51.6133 1671.6171,-21.934"/>
<polygon fill="#191970" stroke="#191970" points="1672.6202,-25.2981 1681.6551,-19.7645 1671.1414,-18.4561 1672.6202,-25.2981"/>
</g>
<!-- Node7 -->
<g id="node8" class="node">
<title>Node7</title>
<polygon fill="#ffffff" stroke="#bfbfbf" points="1937.5,-.5 1937.5,-21.5 1986.5,-21.5 1986.5,-.5 1937.5,-.5"/>
<text text-anchor="middle" x="1962" y="-7.9" font-family="Helvetica,sans-Serif" font-size="12.00" fill="#000000">sstream</text>
</g>
<!-- Node4&#45;&gt;Node7 -->
<g id="edge8" class="edge">
<title>Node4&#45;&gt;Node7</title>
<path fill="none" stroke="#191970" d="M1293.6638,-66.9134C1435.4074,-61.6502 1790.1605,-46.6026 1927.4258,-21.8537"/>
<polygon fill="#191970" stroke="#191970" points="1928.1433,-25.2801 1937.3157,-19.9775 1926.8385,-18.4028 1928.1433,-25.2801"/>
</g>
<!-- Node8 -->
<g id="node9" class="node">
<title>Node8</title>
<polygon fill="#ffffff" stroke="#bfbfbf" points="1805.5,-.5 1805.5,-21.5 1860.5,-21.5 1860.5,-.5 1805.5,-.5"/>
<text text-anchor="middle" x="1833" y="-7.9" font-family="Helvetica,sans-Serif" font-size="12.00" fill="#000000">stdexcept</text>
</g>
<!-- Node4&#45;&gt;Node8 -->
<g id="edge9" class="edge">
<title>Node4&#45;&gt;Node8</title>
<path fill="none" stroke="#191970" d="M1293.8614,-65.6232C1414.6669,-58.5512 1684.8683,-41.3672 1795.3672,-21.9477"/>
<polygon fill="#191970" stroke="#191970" points="1796.0426,-25.3822 1805.2397,-20.1227 1794.7701,-18.4989 1796.0426,-25.3822"/>
</g>
<!-- Node9 -->
<g id="node10" class="node">
<title>Node9</title>
<polygon fill="#ffffff" stroke="#bfbfbf" points="1878.5,-.5 1878.5,-21.5 1919.5,-21.5 1919.5,-.5 1878.5,-.5"/>
<text text-anchor="middle" x="1899" y="-7.9" font-family="Helvetica,sans-Serif" font-size="12.00" fill="#000000">vector</text>
</g>
<!-- Node4&#45;&gt;Node9 -->
<g id="edge10" class="edge">
<title>Node4&#45;&gt;Node9</title>
<path fill="none" stroke="#191970" d="M1293.6483,-66.789C1426.2849,-61.5267 1743.1992,-46.9539 1868.2298,-21.8137"/>
<polygon fill="#191970" stroke="#191970" points="1869.2588,-25.1732 1878.3113,-19.6683 1867.8018,-18.3265 1869.2588,-25.1732"/>
</g>
<!-- Node10 -->
<g id="node11" class="node">
<title>Node10</title>
<polygon fill="#ffffff" stroke="#bfbfbf" points="1262.5,-.5 1262.5,-21.5 1303.5,-21.5 1303.5,-.5 1262.5,-.5"/>
<text text-anchor="middle" x="1283" y="-7.9" font-family="Helvetica,sans-Serif" font-size="12.00" fill="#000000">mutex</text>
</g>
<!-- Node4&#45;&gt;Node10 -->
<g id="edge11" class="edge">
<title>Node4&#45;&gt;Node10</title>
<path fill="none" stroke="#191970" d="M1242.9874,-58.3619C1249.8255,-50.2678 1259.4024,-38.9318 1267.4724,-29.3796"/>
<polygon fill="#191970" stroke="#191970" points="1270.2897,-31.4683 1274.0696,-21.5707 1264.9425,-26.9508 1270.2897,-31.4683"/>
</g>
<!-- Node11 -->
<g id="node12" class="node">
<title>Node11</title>
<polygon fill="#ffffff" stroke="#bfbfbf" points="1322,-.5 1322,-21.5 1402,-21.5 1402,-.5 1322,-.5"/>
<text text-anchor="middle" x="1362" y="-7.9" font-family="Helvetica,sans-Serif" font-size="12.00" fill="#000000">unordered_map</text>
</g>
<!-- Node4&#45;&gt;Node11 -->
<g id="edge12" class="edge">
<title>Node4&#45;&gt;Node11</title>
<path fill="none" stroke="#191970" d="M1257.1798,-58.4966C1277.3519,-49.3562 1306.8096,-36.0082 1329.3638,-25.7883"/>
<polygon fill="#191970" stroke="#191970" points="1330.8961,-28.9366 1338.5601,-21.6212 1328.0069,-22.5606 1330.8961,-28.9366"/>
</g>
<!-- Node12 -->
<g id="node13" class="node">
<title>Node12</title>
<polygon fill="#ffffff" stroke="#bfbfbf" points="2004.5,-.5 2004.5,-21.5 2045.5,-21.5 2045.5,-.5 2004.5,-.5"/>
<text text-anchor="middle" x="2025" y="-7.9" font-family="Helvetica,sans-Serif" font-size="12.00" fill="#000000">cmath</text>
</g>
<!-- Node4&#45;&gt;Node12 -->
<g id="edge13" class="edge">
<title>Node4&#45;&gt;Node12</title>
<path fill="none" stroke="#191970" d="M1293.7272,-67.6316C1445.4673,-63.7935 1843.8583,-51.3636 1994.3437,-21.7674"/>
<polygon fill="#191970" stroke="#191970" points="1995.2367,-25.1568 2004.3182,-19.7 1993.816,-18.3025 1995.2367,-25.1568"/>
</g>
<!-- Node13 -->
<g id="node14" class="node">
<title>Node13</title>
<polygon fill="#ffffff" stroke="#bfbfbf" points="1420,-.5 1420,-21.5 1456,-21.5 1456,-.5 1420,-.5"/>
<text text-anchor="middle" x="1438" y="-7.9" font-family="Helvetica,sans-Serif" font-size="12.00" fill="#000000">tuple</text>
</g>
<!-- Node4&#45;&gt;Node13 -->
<g id="edge14" class="edge">
<title>Node4&#45;&gt;Node13</title>
<path fill="none" stroke="#191970" d="M1280.3175,-58.4126C1314.128,-50.299 1361.1675,-38.2163 1410.2963,-21.9678"/>
<polygon fill="#191970" stroke="#191970" points="1411.4503,-25.2725 1419.8183,-18.7742 1409.2244,-18.6358 1411.4503,-25.2725"/>
</g>
<!-- Node14 -->
<g id="node15" class="node">
<title>Node14</title>
<polygon fill="#ffffff" stroke="#bfbfbf" points="1016,-.5 1016,-21.5 1050,-21.5 1050,-.5 1016,-.5"/>
<text text-anchor="middle" x="1033" y="-7.9" font-family="Helvetica,sans-Serif" font-size="12.00" fill="#000000">ratio</text>
</g>
<!-- Node4&#45;&gt;Node14 -->
<g id="edge15" class="edge">
<title>Node4&#45;&gt;Node14</title>
<path fill="none" stroke="#191970" d="M1187.7884,-58.4339C1154.425,-50.3912 1108.2053,-38.4026 1059.8989,-22.0111"/>
<polygon fill="#191970" stroke="#191970" points="1060.8077,-18.6224 1050.213,-18.674 1058.5275,-25.2406 1060.8077,-18.6224"/>
</g>
<!-- Node15 -->
<g id="node16" class="node">
<title>Node15</title>
<polygon fill="#ffffff" stroke="#bfbfbf" points="1068,-.5 1068,-21.5 1112,-21.5 1112,-.5 1068,-.5"/>
<text text-anchor="middle" x="1090" y="-7.9" font-family="Helvetica,sans-Serif" font-size="12.00" fill="#000000">chrono</text>
</g>
<!-- Node4&#45;&gt;Node15 -->
<g id="edge16" class="edge">
<title>Node4&#45;&gt;Node15</title>
<path fill="none" stroke="#191970" d="M1207.9227,-58.4966C1183.6316,-48.7127 1147.3716,-34.108 1121.4789,-23.679"/>
<polygon fill="#191970" stroke="#191970" points="1122.693,-20.3948 1112.1095,-19.9052 1120.0777,-26.8879 1122.693,-20.3948"/>
</g>
<!-- Node16 -->
<g id="node17" class="node">
<title>Node16</title>
<polygon fill="#ffffff" stroke="#bfbfbf" points="1130,-.5 1130,-21.5 1168,-21.5 1168,-.5 1130,-.5"/>
<text text-anchor="middle" x="1149" y="-7.9" font-family="Helvetica,sans-Serif" font-size="12.00" fill="#000000">ctime</text>
</g>
<!-- Node4&#45;&gt;Node16 -->
<g id="edge17" class="edge">
<title>Node4&#45;&gt;Node16</title>
<path fill="none" stroke="#191970" d="M1218.4097,-58.3619C1205.709,-49.6955 1187.5615,-37.3126 1173.0079,-27.3819"/>
<polygon fill="#191970" stroke="#191970" points="1174.7245,-24.316 1164.4915,-21.5707 1170.779,-30.0982 1174.7245,-24.316"/>
</g>
<!-- Node17 -->
<g id="node18" class="node">
<title>Node17</title>
<polygon fill="#ffffff" stroke="#bfbfbf" points="718.5,-.5 718.5,-21.5 761.5,-21.5 761.5,-.5 718.5,-.5"/>
<text text-anchor="middle" x="740" y="-7.9" font-family="Helvetica,sans-Serif" font-size="12.00" fill="#000000">cstdint</text>
</g>
<!-- Node4&#45;&gt;Node17 -->
<g id="edge18" class="edge">
<title>Node4&#45;&gt;Node17</title>
<path fill="none" stroke="#191970" d="M1174.4368,-67.505C1087.4851,-64.3256 920.8391,-54.4589 771.6262,-21.6683"/>
<polygon fill="#191970" stroke="#191970" points="772.347,-18.2431 761.824,-19.4751 770.8185,-25.0742 772.347,-18.2431"/>
</g>
<!-- Node18 -->
<g id="node19" class="node">
<title>Node18</title>
<polygon fill="#ffffff" stroke="#bfbfbf" points="1186,-.5 1186,-21.5 1244,-21.5 1244,-.5 1186,-.5"/>
<text text-anchor="middle" x="1215" y="-7.9" font-family="Helvetica,sans-Serif" font-size="12.00" fill="#000000">type_traits</text>
</g>
<!-- Node4&#45;&gt;Node18 -->
<g id="edge19" class="edge">
<title>Node4&#45;&gt;Node18</title>
<path fill="none" stroke="#191970" d="M1230.5151,-58.3619C1228.0243,-50.7584 1224.5963,-40.294 1221.5959,-31.1349"/>
<polygon fill="#191970" stroke="#191970" points="1224.902,-29.9841 1218.4628,-21.5707 1218.2499,-32.1634 1224.902,-29.9841"/>
</g>
<!-- Node4&#45;&gt;Node19 -->
<g id="edge20" class="edge">
<title>Node4&#45;&gt;Node19</title>
<path fill="none" stroke="#191970" d="M1174.2544,-62.5277C1103.0156,-54.4939 980.4553,-39.6714 876,-22 875.8987,-21.9829 875.7972,-21.9657 875.6957,-21.9484"/>
<polygon fill="#191970" stroke="#191970" points="876.5099,-18.5388 866.0482,-20.2127 875.2704,-25.4282 876.5099,-18.5388"/>
</g>
<!-- Node4&#45;&gt;Node20 -->
<g id="edge21" class="edge">
<title>Node4&#45;&gt;Node20</title>
<path fill="none" stroke="#191970" d="M1180.9399,-58.4966C1131.2085,-48.6522 1056.8218,-33.9272 1004.0758,-23.486"/>
<polygon fill="#191970" stroke="#191970" points="1004.6489,-20.0316 994.1596,-21.5231 1003.2896,-26.8984 1004.6489,-20.0316"/>
</g>
<!-- Node4&#45;&gt;Node21 -->
<g id="edge22" class="edge">
<title>Node4&#45;&gt;Node21</title>
<path fill="none" stroke="#191970" d="M1174.3355,-67.3714C1049.9091,-63.5066 753.5224,-51.8591 495.0551,-22.0156"/>
<polygon fill="#191970" stroke="#191970" points="495.4419,-18.5371 485.1038,-20.8553 494.6311,-25.49 495.4419,-18.5371"/>
</g>
<!-- Node4&#45;&gt;Node22 -->
<g id="edge23" class="edge">
<title>Node4&#45;&gt;Node22</title>
<path fill="none" stroke="#191970" d="M1174.2529,-66.6688C1069.723,-62.0524 846.7622,-49.8157 649.7074,-22.1129"/>
<polygon fill="#191970" stroke="#191970" points="650.1436,-18.6398 639.7503,-20.6966 649.1578,-25.57 650.1436,-18.6398"/>
</g>
<!-- Node23&#45;&gt;Node2 -->
<g id="edge40" class="edge">
<title>Node23&#45;&gt;Node2</title>
<path fill="none" stroke="#191970" d="M809.0743,-67.468C917.3329,-63.3258 1209.699,-50.3341 1463.6752,-22.0633"/>
<polygon fill="#191970" stroke="#191970" points="1464.2866,-25.5167 1473.8333,-20.922 1463.505,-18.5605 1464.2866,-25.5167"/>
</g>
<!-- Node23&#45;&gt;Node5 -->
<g id="edge27" class="edge">
<title>Node23&#45;&gt;Node5</title>
<path fill="none" stroke="#191970" d="M809.0753,-67.9936C954.768,-64.3732 1429.1541,-50.7662 1602.2086,-21.6571"/>
<polygon fill="#191970" stroke="#191970" points="1602.9458,-25.0812 1612.1868,-19.899 1601.7311,-18.1874 1602.9458,-25.0812"/>
</g>
<!-- Node23&#45;&gt;Node6 -->
<g id="edge30" class="edge">
<title>Node23&#45;&gt;Node6</title>
<path fill="none" stroke="#191970" d="M809.1328,-67.4494C972.7008,-61.4785 1551.167,-39.508 1671.7578,-21.5851"/>
<polygon fill="#191970" stroke="#191970" points="1672.4036,-25.0257 1681.6865,-19.9189 1671.2451,-18.1222 1672.4036,-25.0257"/>
</g>
<!-- Node23&#45;&gt;Node17 -->
<g id="edge32" class="edge">
<title>Node23&#45;&gt;Node17</title>
<path fill="none" stroke="#191970" d="M761.2312,-58.3619C757.7861,-50.6766 753.0308,-40.0686 748.8937,-30.8399"/>
<polygon fill="#191970" stroke="#191970" points="752.023,-29.264 744.7386,-21.5707 745.6354,-32.1275 752.023,-29.264"/>
</g>
<!-- Node23&#45;&gt;Node19 -->
<g id="edge34" class="edge">
<title>Node23&#45;&gt;Node19</title>
<path fill="none" stroke="#191970" d="M776.4547,-58.3619C784.5699,-50.1043 796.0012,-38.4725 805.5041,-28.8029"/>
<polygon fill="#191970" stroke="#191970" points="808.0986,-31.1562 812.6116,-21.5707 803.1059,-26.2497 808.0986,-31.1562"/>
</g>
<!-- Node23&#45;&gt;Node20 -->
<g id="edge37" class="edge">
<title>Node23&#45;&gt;Node20</title>
<path fill="none" stroke="#191970" d="M797.6912,-58.4966C826.2209,-49.0411 868.3362,-35.0829 899.5347,-24.7428"/>
<polygon fill="#191970" stroke="#191970" points="900.8583,-27.9914 909.2494,-21.5231 898.656,-21.3468 900.8583,-27.9914"/>
</g>
<!-- Node23&#45;&gt;Node21 -->
<g id="edge38" class="edge">
<title>Node23&#45;&gt;Node21</title>
<path fill="none" stroke="#191970" d="M722.9005,-59.7224C719.8914,-59.1241 716.9023,-58.5441 714,-58 619.7568,-40.3309 593.3934,-38.4963 495.2061,-22.1869"/>
<polygon fill="#191970" stroke="#191970" points="495.5931,-18.7031 485.1532,-20.5083 494.4402,-25.6075 495.5931,-18.7031"/>
</g>
<!-- Node23&#45;&gt;Node22 -->
<g id="edge35" class="edge">
<title>Node23&#45;&gt;Node22</title>
<path fill="none" stroke="#191970" d="M735.0332,-58.4966C707.1556,-49.0411 666.003,-35.0829 635.5176,-24.7428"/>
<polygon fill="#191970" stroke="#191970" points="636.6192,-21.4207 626.0249,-21.5231 634.3707,-28.0497 636.6192,-21.4207"/>
</g>
<!-- Node24 -->
<g id="node25" class="node">
<title>Node24</title>
<polygon fill="#ffffff" stroke="#bfbfbf" points="503.5,-.5 503.5,-21.5 532.5,-21.5 532.5,-.5 503.5,-.5"/>
<text text-anchor="middle" x="518" y="-7.9" font-family="Helvetica,sans-Serif" font-size="12.00" fill="#000000">ios</text>
</g>
<!-- Node23&#45;&gt;Node24 -->
<g id="edge26" class="edge">
<title>Node23&#45;&gt;Node24</title>
<path fill="none" stroke="#191970" d="M722.8721,-59.8653C719.8698,-59.233 716.8899,-58.6063 714,-58 640.2902,-42.5346 617.2839,-46.7297 542.7335,-22.0772"/>
<polygon fill="#191970" stroke="#191970" points="543.4713,-18.6324 532.8771,-18.752 541.2336,-25.2651 543.4713,-18.6324"/>
</g>
<!-- Node23&#45;&gt;Node25 -->
<g id="edge28" class="edge">
<title>Node23&#45;&gt;Node25</title>
<path fill="none" stroke="#191970" d="M722.955,-59.3849C719.933,-58.8669 716.926,-58.3972 714,-58 458.7181,-23.3492 385.7737,-71.6193 129.5454,-21.8644"/>
<polygon fill="#191970" stroke="#191970" points="130.0579,-18.3981 119.5695,-19.896 128.7028,-25.2657 130.0579,-18.3981"/>
</g>
<!-- Node23&#45;&gt;Node26 -->
<g id="edge29" class="edge">
<title>Node23&#45;&gt;Node26</title>
<path fill="none" stroke="#191970" d="M809.2559,-67.71C980.8696,-62.4863 1610.2423,-42.2913 1738.3758,-21.2595"/>
<polygon fill="#191970" stroke="#191970" points="1739.0864,-24.6874 1748.2783,-19.4188 1737.807,-17.8053 1739.0864,-24.6874"/>
</g>
<!-- Node27 -->
<g id="node28" class="node">
<title>Node27</title>
<polygon fill="#ffffff" stroke="#bfbfbf" points="657.5,-.5 657.5,-21.5 700.5,-21.5 700.5,-.5 657.5,-.5"/>
<text text-anchor="middle" x="679" y="-7.9" font-family="Helvetica,sans-Serif" font-size="12.00" fill="#000000">stdio.h</text>
</g>
<!-- Node23&#45;&gt;Node27 -->
<g id="edge31" class="edge">
<title>Node23&#45;&gt;Node27</title>
<path fill="none" stroke="#191970" d="M750.0429,-58.3619C737.0433,-49.6955 718.4688,-37.3126 703.5728,-27.3819"/>
<polygon fill="#191970" stroke="#191970" points="705.118,-24.2055 694.856,-21.5707 701.235,-30.0299 705.118,-24.2055"/>
</g>
<!-- Node23&#45;&gt;Node28 -->
<g id="edge33" class="edge">
<title>Node23&#45;&gt;Node28</title>
<path fill="none" stroke="#191970" d="M722.9578,-59.3643C719.9351,-58.8513 716.9272,-58.3882 714,-58 430.1062,-20.349 350.1713,-71.4824 64.5966,-21.9079"/>
<polygon fill="#191970" stroke="#191970" points="64.8062,-18.391 54.3504,-20.1016 63.5909,-25.2847 64.8062,-18.391"/>
</g>
<!-- Node23&#45;&gt;Node29 -->
<g id="edge36" class="edge">
<title>Node23&#45;&gt;Node29</title>
<path fill="none" stroke="#191970" d="M722.9484,-59.4323C719.9279,-58.9031 716.9231,-58.4178 714,-58 507.2566,-28.4486 449.969,-50.1555 238.7229,-21.9358"/>
<polygon fill="#191970" stroke="#191970" points="238.9261,-18.4313 228.546,-20.5538 237.9841,-25.3677 238.9261,-18.4313"/>
</g>
<!-- Node23&#45;&gt;Node30 -->
<g id="edge39" class="edge">
<title>Node23&#45;&gt;Node30</title>
<path fill="none" stroke="#191970" d="M722.9345,-59.5249C719.9174,-58.9736 716.9171,-58.4581 714,-58 563.6909,-34.3946 521.8286,-42.797 367.4549,-22.1204"/>
<polygon fill="#191970" stroke="#191970" points="367.5019,-18.5946 357.1216,-20.7157 366.559,-25.5308 367.5019,-18.5946"/>
</g>
<!-- Node31&#45;&gt;Node2 -->
<g id="edge55" class="edge">
<title>Node31&#45;&gt;Node2</title>
<path fill="none" stroke="#191970" d="M1995.6751,-63.3448C1980.7463,-61.5924 1964.1879,-59.681 1949,-58 1799.0619,-41.4048 1758.591,-41.9411 1604.6094,-22.0213"/>
<polygon fill="#191970" stroke="#191970" points="1604.6686,-18.4995 1594.3004,-20.6792 1603.7649,-25.4409 1604.6686,-18.4995"/>
</g>
<!-- Node31&#45;&gt;Node5 -->
<g id="edge42" class="edge">
<title>Node31&#45;&gt;Node5</title>
<path fill="none" stroke="#191970" d="M1995.9529,-63.4993C1909.5412,-53.3311 1729.9379,-31.8747 1673.867,-21.6856"/>
<polygon fill="#191970" stroke="#191970" points="1674.3463,-18.2124 1663.8551,-19.6905 1672.9782,-25.0774 1674.3463,-18.2124"/>
</g>
<!-- Node31&#45;&gt;Node6 -->
<g id="edge47" class="edge">
<title>Node31&#45;&gt;Node6</title>
<path fill="none" stroke="#191970" d="M1995.8853,-62.6259C1923.3316,-52.6517 1787.6467,-33.3269 1740,-22 1739.8981,-21.9758 1739.7962,-21.9514 1739.694,-21.9269"/>
<polygon fill="#191970" stroke="#191970" points="1740.58,-18.5408 1730.0118,-19.2909 1738.7412,-25.2949 1740.58,-18.5408"/>
</g>
<!-- Node31&#45;&gt;Node7 -->
<g id="edge46" class="edge">
<title>Node31&#45;&gt;Node7</title>
<path fill="none" stroke="#191970" d="M2028.1434,-58.3619C2016.1545,-49.7773 1999.0727,-37.5459 1985.2715,-27.6636"/>
<polygon fill="#191970" stroke="#191970" points="1986.9307,-24.5469 1976.7625,-21.5707 1982.8554,-30.2383 1986.9307,-24.5469"/>
</g>
<!-- Node31&#45;&gt;Node8 -->
<g id="edge50" class="edge">
<title>Node31&#45;&gt;Node8</title>
<path fill="none" stroke="#191970" d="M2003.0721,-58.4402C1970.086,-49.6519 1921.7913,-36.6379 1870.7577,-22.1735"/>
<polygon fill="#191970" stroke="#191970" points="1871.4357,-18.7277 1860.8597,-19.3596 1869.5214,-25.4608 1871.4357,-18.7277"/>
</g>
<!-- Node31&#45;&gt;Node9 -->
<g id="edge54" class="edge">
<title>Node31&#45;&gt;Node9</title>
<path fill="none" stroke="#191970" d="M2016.9227,-58.4966C1992.2004,-48.539 1955.0805,-33.588 1929.1099,-23.1276"/>
<polygon fill="#191970" stroke="#191970" points="1930.335,-19.8478 1919.7515,-19.3582 1927.7197,-26.341 1930.335,-19.8478"/>
</g>
<!-- Node31&#45;&gt;Node12 -->
<g id="edge53" class="edge">
<title>Node31&#45;&gt;Node12</title>
<path fill="none" stroke="#191970" d="M2039.6985,-58.3619C2037.3388,-50.7584 2034.0912,-40.294 2031.2488,-31.1349"/>
<polygon fill="#191970" stroke="#191970" points="2034.5873,-30.0839 2028.2805,-21.5707 2027.9019,-32.1587 2034.5873,-30.0839"/>
</g>
<!-- Node31&#45;&gt;Node26 -->
<g id="edge45" class="edge">
<title>Node31&#45;&gt;Node26</title>
<path fill="none" stroke="#191970" d="M1995.7326,-62.4672C1947.93,-55.3071 1871.8751,-42.402 1797.5049,-21.7524"/>
<polygon fill="#191970" stroke="#191970" points="1798.0756,-18.2767 1787.5006,-18.9241 1796.1712,-25.0126 1798.0756,-18.2767"/>
</g>
<!-- Node32 -->
<g id="node33" class="node">
<title>Node32</title>
<polygon fill="#ffffff" stroke="#bfbfbf" points="2064,-.5 2064,-21.5 2106,-21.5 2106,-.5 2064,-.5"/>
<text text-anchor="middle" x="2085" y="-7.9" font-family="Helvetica,sans-Serif" font-size="12.00" fill="#000000">cstdlib</text>
</g>
<!-- Node31&#45;&gt;Node32 -->
<g id="edge43" class="edge">
<title>Node31&#45;&gt;Node32</title>
<path fill="none" stroke="#191970" d="M2050.7034,-58.3619C2056.4463,-50.4313 2064.4428,-39.3885 2071.2699,-29.9606"/>
<polygon fill="#191970" stroke="#191970" points="2074.3151,-31.7229 2077.3454,-21.5707 2068.6454,-27.6173 2074.3151,-31.7229"/>
</g>
<!-- Node33 -->
<g id="node34" class="node">
<title>Node33</title>
<polygon fill="#ffffff" stroke="#bfbfbf" points="2124.5,-.5 2124.5,-21.5 2153.5,-21.5 2153.5,-.5 2124.5,-.5"/>
<text text-anchor="middle" x="2139" y="-7.9" font-family="Helvetica,sans-Serif" font-size="12.00" fill="#000000">set</text>
</g>
<!-- Node31&#45;&gt;Node33 -->
<g id="edge44" class="edge">
<title>Node31&#45;&gt;Node33</title>
<path fill="none" stroke="#191970" d="M2060.6079,-58.3619C2076.045,-49.0353 2098.6066,-35.4043 2115.5665,-25.1577"/>
<polygon fill="#191970" stroke="#191970" points="2117.5823,-28.0291 2124.3315,-19.8622 2113.9624,-22.0377 2117.5823,-28.0291"/>
</g>
<!-- Node34 -->
<g id="node35" class="node">
<title>Node34</title>
<polygon fill="#ffffff" stroke="#bfbfbf" points="2171.5,-.5 2171.5,-21.5 2214.5,-21.5 2214.5,-.5 2171.5,-.5"/>
<text text-anchor="middle" x="2193" y="-7.9" font-family="Helvetica,sans-Serif" font-size="12.00" fill="#000000">cstring</text>
</g>
<!-- Node31&#45;&gt;Node34 -->
<g id="edge48" class="edge">
<title>Node31&#45;&gt;Node34</title>
<path fill="none" stroke="#191970" d="M2070.1639,-58.4966C2096.0297,-48.4952 2134.9237,-33.4562 2161.9923,-22.9896"/>
<polygon fill="#191970" stroke="#191970" points="2163.3191,-26.2292 2171.3839,-19.3582 2160.7946,-19.7003 2163.3191,-26.2292"/>
</g>
<!-- Node35 -->
<g id="node36" class="node">
<title>Node35</title>
<polygon fill="#ffffff" stroke="#bfbfbf" points="2232.5,-.5 2232.5,-21.5 2287.5,-21.5 2287.5,-.5 2232.5,-.5"/>
<text text-anchor="middle" x="2260" y="-7.9" font-family="Helvetica,sans-Serif" font-size="12.00" fill="#000000">exception</text>
</g>
<!-- Node31&#45;&gt;Node35 -->
<g id="edge49" class="edge">
<title>Node31&#45;&gt;Node35</title>
<path fill="none" stroke="#191970" d="M2085.5603,-58.4914C2120.1729,-49.8233 2170.4975,-36.9457 2222.4169,-22.3829"/>
<polygon fill="#191970" stroke="#191970" points="2223.4519,-25.7276 2232.1265,-19.6447 2221.5519,-18.9904 2223.4519,-25.7276"/>
</g>
<!-- Node36 -->
<g id="node37" class="node">
<title>Node36</title>
<polygon fill="#ffffff" stroke="#bfbfbf" points="2305.5,-.5 2305.5,-21.5 2360.5,-21.5 2360.5,-.5 2305.5,-.5"/>
<text text-anchor="middle" x="2333" y="-7.9" font-family="Helvetica,sans-Serif" font-size="12.00" fill="#000000">functional</text>
</g>
<!-- Node31&#45;&gt;Node36 -->
<g id="edge51" class="edge">
<title>Node31&#45;&gt;Node36</title>
<path fill="none" stroke="#191970" d="M2090.1538,-61.9195C2139.3062,-54.1731 2218.7092,-40.6338 2295.3611,-22.2304"/>
<polygon fill="#191970" stroke="#191970" points="2296.2891,-25.6068 2305.1786,-19.8425 2294.6347,-18.8051 2296.2891,-25.6068"/>
</g>
<!-- Node37 -->
<g id="node38" class="node">
<title>Node37</title>
<polygon fill="#ffffff" stroke="#bfbfbf" points="2379,-.5 2379,-21.5 2421,-21.5 2421,-.5 2379,-.5"/>
<text text-anchor="middle" x="2400" y="-7.9" font-family="Helvetica,sans-Serif" font-size="12.00" fill="#000000">deque</text>
</g>
<!-- Node31&#45;&gt;Node37 -->
<g id="edge52" class="edge">
<title>Node31&#45;&gt;Node37</title>
<path fill="none" stroke="#191970" d="M2090.1673,-65.3325C2152.3275,-59.8182 2265.0361,-47.4678 2369.1435,-21.8115"/>
<polygon fill="#191970" stroke="#191970" points="2370.0205,-25.2 2378.8668,-19.3696 2368.3154,-18.4109 2370.0205,-25.2"/>
</g>
<!-- Node38&#45;&gt;Node2 -->
<g id="edge71" class="edge">
<title>Node38&#45;&gt;Node2</title>
<path fill="none" stroke="#191970" d="M1846.5742,-116.4562C1813.4166,-107.3922 1764.8583,-93.6574 1723,-80 1669.5009,-62.5445 1608.4869,-39.7326 1570.6037,-25.219"/>
<polygon fill="#191970" stroke="#191970" points="1571.6138,-21.8577 1561.0238,-21.5367 1569.1022,-28.3916 1571.6138,-21.8577"/>
</g>
<!-- Node38&#45;&gt;Node5 -->
<g id="edge57" class="edge">
<title>Node38&#45;&gt;Node5</title>
<path fill="none" stroke="#191970" d="M1858.5408,-116.4334C1835.2739,-107.3011 1801.1443,-93.4821 1772,-80 1734.8227,-62.8018 1693.0067,-40.8359 1666.1267,-26.364"/>
<polygon fill="#191970" stroke="#191970" points="1667.7351,-23.2549 1657.2739,-21.5777 1664.406,-29.4125 1667.7351,-23.2549"/>
</g>
<!-- Node38&#45;&gt;Node6 -->
<g id="edge63" class="edge">
<title>Node38&#45;&gt;Node6</title>
<path fill="none" stroke="#191970" d="M1867.8668,-116.4379C1851.952,-107.0817 1828.251,-92.9383 1808,-80 1780.6925,-62.5533 1749.965,-41.5781 1729.4399,-27.3686"/>
<polygon fill="#191970" stroke="#191970" points="1731.2527,-24.3663 1721.0423,-21.5382 1727.2605,-30.1164 1731.2527,-24.3663"/>
</g>
<!-- Node38&#45;&gt;Node7 -->
<g id="edge62" class="edge">
<title>Node38&#45;&gt;Node7</title>
<path fill="none" stroke="#191970" d="M1882.9929,-116.3919C1879.5848,-102.1233 1875.7357,-76.4161 1886,-58 1895.0066,-41.8404 1912.1134,-30.5373 1927.8196,-23.0726"/>
<polygon fill="#191970" stroke="#191970" points="1929.5736,-26.1256 1937.333,-18.9117 1926.7685,-19.7122 1929.5736,-26.1256"/>
</g>
<!-- Node38&#45;&gt;Node8 -->
<g id="edge66" class="edge">
<title>Node38&#45;&gt;Node8</title>
<path fill="none" stroke="#191970" d="M1873.5631,-116.329C1864.1807,-107.5512 1851.8016,-94.2711 1845,-80 1837.8177,-64.9302 1834.8877,-46.1779 1833.7148,-32.0277"/>
<polygon fill="#191970" stroke="#191970" points="1837.1953,-31.5971 1833.1032,-21.8245 1830.2079,-32.016 1837.1953,-31.5971"/>
</g>
<!-- Node38&#45;&gt;Node9 -->
<g id="edge70" class="edge">
<title>Node38&#45;&gt;Node9</title>
<path fill="none" stroke="#191970" d="M1874.5812,-116.4428C1861.5796,-103.0742 1843.2098,-79.2213 1852,-58 1856.85,-46.291 1866.1891,-35.9781 1875.2729,-28.0186"/>
<polygon fill="#191970" stroke="#191970" points="1877.5369,-30.6885 1883.0706,-21.6536 1873.1105,-25.2657 1877.5369,-30.6885"/>
</g>
<!-- Node38&#45;&gt;Node12 -->
<g id="edge69" class="edge">
<title>Node38&#45;&gt;Node12</title>
<path fill="none" stroke="#191970" d="M1901.0746,-116.3777C1914.035,-107.099 1933.0959,-93.1011 1949,-80 1969.1943,-63.3648 1991.2217,-43.1166 2006.338,-28.8704"/>
<polygon fill="#191970" stroke="#191970" points="2009.121,-31.0549 2013.9694,-21.6345 2004.3046,-25.9752 2009.121,-31.0549"/>
</g>
<!-- Node38&#45;&gt;Node26 -->
<g id="edge61" class="edge">
<title>Node38&#45;&gt;Node26</title>
<path fill="none" stroke="#191970" d="M1873.508,-116.4773C1862.5847,-107.1463 1846.4155,-93.0178 1833,-80 1815.8207,-63.33 1797.1796,-43.3281 1784.2837,-29.162"/>
<polygon fill="#191970" stroke="#191970" points="1786.714,-26.6314 1777.4091,-21.5649 1781.5236,-31.3282 1786.714,-26.6314"/>
</g>
<!-- Node38&#45;&gt;Node31 -->
<g id="edge72" class="edge">
<title>Node38&#45;&gt;Node31</title>
<path fill="none" stroke="#191970" d="M1914.4315,-116.4966C1939.8052,-107.1229 1977.1568,-93.3242 2005.0705,-83.0122"/>
<polygon fill="#191970" stroke="#191970" points="2006.3477,-86.2716 2014.5152,-79.5231 2003.9219,-79.7054 2006.3477,-86.2716"/>
</g>
<!-- Node38&#45;&gt;Node32 -->
<g id="edge58" class="edge">
<title>Node38&#45;&gt;Node32</title>
<path fill="none" stroke="#191970" d="M1955.6149,-120.951C2010.6737,-114.5539 2081.1526,-102.2149 2099,-80 2110.1783,-66.0863 2104.0504,-45.5971 2096.7217,-30.5599"/>
<polygon fill="#191970" stroke="#191970" points="2099.7183,-28.7421 2091.9022,-21.5895 2093.5519,-32.0551 2099.7183,-28.7421"/>
</g>
<!-- Node38&#45;&gt;Node33 -->
<g id="edge60" class="edge">
<title>Node38&#45;&gt;Node33</title>
<path fill="none" stroke="#191970" d="M1955.5454,-120.4427C2014.3098,-113.5559 2092.5552,-100.7839 2116,-80 2129.686,-67.8673 2135.2479,-47.3752 2137.4977,-31.8672"/>
<polygon fill="#191970" stroke="#191970" points="2141.0075,-31.9687 2138.6192,-21.6465 2134.0492,-31.2051 2141.0075,-31.9687"/>
</g>
<!-- Node38&#45;&gt;Node34 -->
<g id="edge64" class="edge">
<title>Node38&#45;&gt;Node34</title>
<path fill="none" stroke="#191970" d="M1955.5595,-119.4133C2018.9091,-111.5355 2107.0024,-97.862 2137,-80 2156.8694,-68.1688 2172.6693,-46.5374 2182.3536,-30.6381"/>
<polygon fill="#191970" stroke="#191970" points="2185.5942,-32.0262 2187.5748,-21.6181 2179.5359,-28.5193 2185.5942,-32.0262"/>
</g>
<!-- Node38&#45;&gt;Node35 -->
<g id="edge65" class="edge">
<title>Node38&#45;&gt;Node35</title>
<path fill="none" stroke="#191970" d="M1955.5316,-118.8067C2024.9613,-109.9835 2126.4487,-95.1609 2163,-80 2192.9628,-67.5719 2222.6484,-44.4449 2241.1329,-28.4107"/>
<polygon fill="#191970" stroke="#191970" points="2243.643,-30.8626 2248.7983,-21.6066 2238.9961,-25.6274 2243.643,-30.8626"/>
</g>
<!-- Node38&#45;&gt;Node36 -->
<g id="edge67" class="edge">
<title>Node38&#45;&gt;Node36</title>
<path fill="none" stroke="#191970" d="M1955.5211,-122.6529C2019.0874,-117.2278 2115.0912,-105.359 2195,-80 2236.338,-66.8814 2280.5876,-42.7563 2307.5304,-26.7946"/>
<polygon fill="#191970" stroke="#191970" points="2309.5374,-29.6719 2316.3055,-21.5206 2305.9314,-23.6722 2309.5374,-29.6719"/>
</g>
<!-- Node38&#45;&gt;Node37 -->
<g id="edge68" class="edge">
<title>Node38&#45;&gt;Node37</title>
<path fill="none" stroke="#191970" d="M1955.7196,-122.9213C2026.738,-117.5308 2139.5433,-105.5417 2234,-80 2283.4951,-66.6162 2337.827,-41.9945 2370.4049,-26.07"/>
<polygon fill="#191970" stroke="#191970" points="2371.9777,-29.1969 2379.3909,-21.6276 2368.8754,-22.9218 2371.9777,-29.1969"/>
</g>
<!-- Node39 -->
<g id="node40" class="node">
<title>Node39</title>
<polygon fill="#ffffff" stroke="#bfbfbf" points="1894.5,-58.5 1894.5,-79.5 1939.5,-79.5 1939.5,-58.5 1894.5,-58.5"/>
<text text-anchor="middle" x="1917" y="-65.9" font-family="Helvetica,sans-Serif" font-size="12.00" fill="#000000">stdlib.h</text>
</g>
<!-- Node38&#45;&gt;Node39 -->
<g id="edge59" class="edge">
<title>Node38&#45;&gt;Node39</title>
<path fill="none" stroke="#191970" d="M1891.6859,-116.3619C1895.8372,-108.5949 1901.5841,-97.8426 1906.5531,-88.5458"/>
<polygon fill="#191970" stroke="#191970" points="1909.7231,-90.0398 1911.3502,-79.5707 1903.5496,-86.7401 1909.7231,-90.0398"/>
</g>
<!-- Node40 -->
<g id="node41" class="node">
<title>Node40</title>
<g id="a_node41"><a xlink:href="../../d0/d5d/mpi_8hpp.html" target="_top" xlink:title="timemory/mpi.hpp">
<polygon fill="#ffffff" stroke="#000000" points="617,-58.5 617,-79.5 705,-79.5 705,-58.5 617,-58.5"/>
<text text-anchor="middle" x="661" y="-65.9" font-family="Helvetica,sans-Serif" font-size="12.00" fill="#000000">timemory/mpi.hpp</text>
</a>
</g>
</g>
<!-- Node38&#45;&gt;Node40 -->
<g id="edge73" class="edge">
<title>Node38&#45;&gt;Node40</title>
<path fill="none" stroke="#191970" d="M1816.1284,-125.7078C1600.8585,-121.4921 948.7363,-106.9066 715.2871,-79.9419"/>
<polygon fill="#191970" stroke="#191970" points="715.5007,-76.4426 705.156,-78.7311 714.67,-83.3932 715.5007,-76.4426"/>
</g>
<!-- Node40&#45;&gt;Node17 -->
<g id="edge74" class="edge">
<title>Node40&#45;&gt;Node17</title>
<path fill="none" stroke="#191970" d="M675.4898,-58.3619C687.1827,-49.7773 703.8427,-37.5459 717.3031,-27.6636"/>
<polygon fill="#191970" stroke="#191970" points="719.6126,-30.31 725.602,-21.5707 715.4699,-24.6675 719.6126,-30.31"/>
</g>
<!-- Node40&#45;&gt;Node28 -->
<g id="edge75" class="edge">
<title>Node40&#45;&gt;Node28</title>
<path fill="none" stroke="#191970" d="M616.6048,-66.7693C500.1609,-60.7233 187.0399,-43.1597 64.258,-21.8409"/>
<polygon fill="#191970" stroke="#191970" points="64.8289,-18.3873 54.3628,-20.0341 63.5715,-25.2735 64.8289,-18.3873"/>
</g>
</g>
</svg>
