<?xml version="1.0" encoding="UTF-8" standalone="no"?>
<!DOCTYPE svg PUBLIC "-//W3C//DTD SVG 1.1//EN"
 "http://www.w3.org/Graphics/SVG/1.1/DTD/svg11.dtd">
<!-- Generated by graphviz version 2.40.1 (20161225.0304)
 -->
<!-- Title: timemory/auto_timer.hpp Pages: 1 -->
<svg width="3037pt" height="391pt"
 viewBox="0.00 0.00 3037.00 391.00" xmlns="http://www.w3.org/2000/svg" xmlns:xlink="http://www.w3.org/1999/xlink">
<g id="graph0" class="graph" transform="scale(1 1) rotate(0) translate(4 387)">
<title>timemory/auto_timer.hpp</title>
<polygon fill="#ffffff" stroke="transparent" points="-4,4 -4,-387 3033,-387 3033,4 -4,4"/>
<!-- Node0 -->
<g id="node1" class="node">
<title>Node0</title>
<polygon fill="#bfbfbf" stroke="#000000" points="2817,-361.5 2817,-382.5 2933,-382.5 2933,-361.5 2817,-361.5"/>
<text text-anchor="middle" x="2875" y="-368.9" font-family="Helvetica,sans-Serif" font-size="12.00" fill="#000000">timemory/auto_timer.hpp</text>
</g>
<!-- Node1 -->
<g id="node2" class="node">
<title>Node1</title>
<g id="a_node2"><a xlink:href="../../db/d19/namespace_8hpp.html" target="_top" xlink:title="timemory/namespace.hpp">
<polygon fill="#ffffff" stroke="#000000" points="317,-.5 317,-21.5 437,-21.5 437,-.5 317,-.5"/>
<text text-anchor="middle" x="377" y="-7.9" font-family="Helvetica,sans-Serif" font-size="12.00" fill="#000000">timemory/namespace.hpp</text>
</a>
</g>
</g>
<!-- Node0&#45;&gt;Node1 -->
<g id="edge1" class="edge">
<title>Node0&#45;&gt;Node1</title>
<path fill="none" stroke="#191970" d="M2816.8563,-370.3852C2618.3217,-364.8216 1948.9137,-345.6533 1396,-325 1240.7705,-319.2016 0,-404.8378 0,-249.5 0,-249.5 0,-249.5 0,-127 0,-92.2025 8.438,-77.8765 37,-58 79.4023,-28.4919 220.3309,-17.395 306.8744,-13.3058"/>
<polygon fill="#191970" stroke="#191970" points="307.0575,-16.8012 316.8889,-12.8523 306.7408,-9.8084 307.0575,-16.8012"/>
</g>
<!-- Node2 -->
<g id="node3" class="node">
<title>Node2</title>
<g id="a_node3"><a xlink:href="../../d1/d4e/utility_8hpp.html" target="_top" xlink:title="timemory/utility.hpp">
<polygon fill="#ffffff" stroke="#000000" points="2053,-58.5 2053,-79.5 2147,-79.5 2147,-58.5 2053,-58.5"/>
<text text-anchor="middle" x="2100" y="-65.9" font-family="Helvetica,sans-Serif" font-size="12.00" fill="#000000">timemory/utility.hpp</text>
</a>
</g>
</g>
<!-- Node0&#45;&gt;Node2 -->
<g id="edge2" class="edge">
<title>Node0&#45;&gt;Node2</title>
<path fill="none" stroke="#191970" d="M2847.8718,-361.3937C2730.9094,-315.6652 2269.6548,-135.3295 2136.2936,-83.1896"/>
<polygon fill="#191970" stroke="#191970" points="2137.496,-79.9018 2126.908,-79.5202 2134.9471,-86.4212 2137.496,-79.9018"/>
</g>
<!-- Node6 -->
<g id="node7" class="node">
<title>Node6</title>
<polygon fill="#ffffff" stroke="#bfbfbf" points="2491.5,-.5 2491.5,-21.5 2530.5,-21.5 2530.5,-.5 2491.5,-.5"/>
<text text-anchor="middle" x="2511" y="-7.9" font-family="Helvetica,sans-Serif" font-size="12.00" fill="#000000">string</text>
</g>
<!-- Node0&#45;&gt;Node6 -->
<g id="edge107" class="edge">
<title>Node0&#45;&gt;Node6</title>
<path fill="none" stroke="#191970" d="M2872.6462,-361.2935C2862.1972,-316.4115 2815.6449,-141.8742 2707,-58 2681.1845,-38.0704 2589.0481,-22.2452 2540.8587,-15.1136"/>
<polygon fill="#191970" stroke="#191970" points="2541.1252,-11.6157 2530.7268,-13.6466 2540.1221,-18.5435 2541.1252,-11.6157"/>
</g>
<!-- Node16 -->
<g id="node17" class="node">
<title>Node16</title>
<g id="a_node17"><a xlink:href="../../df/df2/timing__manager_8hpp.html" target="_top" xlink:title="timemory/timing_manager.hpp">
<polygon fill="#ffffff" stroke="#000000" points="1405,-303.5 1405,-324.5 1543,-324.5 1543,-303.5 1405,-303.5"/>
<text text-anchor="middle" x="1474" y="-310.9" font-family="Helvetica,sans-Serif" font-size="12.00" fill="#000000">timemory/timing_manager.hpp</text>
</a>
</g>
</g>
<!-- Node0&#45;&gt;Node16 -->
<g id="edge17" class="edge">
<title>Node0&#45;&gt;Node16</title>
<path fill="none" stroke="#191970" d="M2816.5845,-369.5817C2595.1567,-360.4148 1807.2427,-327.7959 1553.4158,-317.2877"/>
<polygon fill="#191970" stroke="#191970" points="1553.3076,-313.7804 1543.1714,-316.8636 1553.018,-320.7744 1553.3076,-313.7804"/>
</g>
<!-- Node20 -->
<g id="node21" class="node">
<title>Node20</title>
<polygon fill="#ffffff" stroke="#bfbfbf" points="2897.5,-.5 2897.5,-21.5 2940.5,-21.5 2940.5,-.5 2897.5,-.5"/>
<text text-anchor="middle" x="2919" y="-7.9" font-family="Helvetica,sans-Serif" font-size="12.00" fill="#000000">cstdint</text>
</g>
<!-- Node0&#45;&gt;Node20 -->
<g id="edge108" class="edge">
<title>Node0&#45;&gt;Node20</title>
<path fill="none" stroke="#191970" d="M2909.945,-361.4782C2955.3814,-345.3808 3029,-309.9688 3029,-249.5 3029,-249.5 3029,-249.5 3029,-127 3029,-80.5751 2982.0358,-45.2935 2949.4814,-26.4138"/>
<polygon fill="#191970" stroke="#191970" points="2951.1698,-23.348 2940.7325,-21.5281 2947.7568,-29.4596 2951.1698,-23.348"/>
</g>
<!-- Node2&#45;&gt;Node1 -->
<g id="edge16" class="edge">
<title>Node2&#45;&gt;Node1</title>
<path fill="none" stroke="#191970" d="M2052.6377,-66.2756C2009.4819,-63.8594 1943.975,-60.3576 1887,-58 1332.337,-35.048 662.6431,-17.9206 447.2904,-12.6759"/>
<polygon fill="#191970" stroke="#191970" points="447.16,-9.1718 437.0779,-12.4278 446.9899,-16.1698 447.16,-9.1718"/>
</g>
<!-- Node3 -->
<g id="node4" class="node">
<title>Node3</title>
<polygon fill="#ffffff" stroke="#bfbfbf" points="1967.5,-.5 1967.5,-21.5 2018.5,-21.5 2018.5,-.5 1967.5,-.5"/>
<text text-anchor="middle" x="1993" y="-7.9" font-family="Helvetica,sans-Serif" font-size="12.00" fill="#000000">iostream</text>
</g>
<!-- Node2&#45;&gt;Node3 -->
<g id="edge3" class="edge">
<title>Node2&#45;&gt;Node3</title>
<path fill="none" stroke="#191970" d="M2080.3746,-58.3619C2063.8587,-49.4094 2040.0261,-36.4908 2021.4222,-26.4064"/>
<polygon fill="#191970" stroke="#191970" points="2022.9605,-23.2592 2012.501,-21.5707 2019.6246,-29.4132 2022.9605,-23.2592"/>
</g>
<!-- Node4 -->
<g id="node5" class="node">
<title>Node4</title>
<polygon fill="#ffffff" stroke="#bfbfbf" points="2250,-.5 2250,-21.5 2292,-21.5 2292,-.5 2250,-.5"/>
<text text-anchor="middle" x="2271" y="-7.9" font-family="Helvetica,sans-Serif" font-size="12.00" fill="#000000">cstdlib</text>
</g>
<!-- Node2&#45;&gt;Node4 -->
<g id="edge4" class="edge">
<title>Node2&#45;&gt;Node4</title>
<path fill="none" stroke="#191970" d="M2132.0246,-58.4217C2160.435,-48.996 2203.0417,-34.7598 2240,-22 2240.0978,-21.9662 2240.1958,-21.9324 2240.294,-21.8984"/>
<polygon fill="#191970" stroke="#191970" points="2241.3855,-25.2246 2249.6714,-18.6221 2239.0766,-18.6164 2241.3855,-25.2246"/>
</g>
<!-- Node5 -->
<g id="node6" class="node">
<title>Node5</title>
<polygon fill="#ffffff" stroke="#bfbfbf" points="2310.5,-.5 2310.5,-21.5 2339.5,-21.5 2339.5,-.5 2310.5,-.5"/>
<text text-anchor="middle" x="2325" y="-7.9" font-family="Helvetica,sans-Serif" font-size="12.00" fill="#000000">set</text>
</g>
<!-- Node2&#45;&gt;Node5 -->
<g id="edge5" class="edge">
<title>Node2&#45;&gt;Node5</title>
<path fill="none" stroke="#191970" d="M2147.0792,-59.1317C2197.156,-48.4322 2272.9423,-31.6021 2301,-22 2301.0976,-21.9666 2301.1953,-21.933 2301.2931,-21.899"/>
<polygon fill="#191970" stroke="#191970" points="2302.4859,-25.1917 2310.4664,-18.2231 2299.882,-18.694 2302.4859,-25.1917"/>
</g>
<!-- Node2&#45;&gt;Node6 -->
<g id="edge6" class="edge">
<title>Node2&#45;&gt;Node6</title>
<path fill="none" stroke="#191970" d="M2147.2376,-60.1606C2151.8811,-59.3883 2156.5278,-58.6533 2161,-58 2299.8629,-37.7159 2340.634,-54.9122 2481.377,-21.6212"/>
<polygon fill="#191970" stroke="#191970" points="2482.3371,-24.9901 2491.2393,-19.2454 2480.6977,-18.1848 2482.3371,-24.9901"/>
</g>
<!-- Node7 -->
<g id="node8" class="node">
<title>Node7</title>
<polygon fill="#ffffff" stroke="#bfbfbf" points="2036.5,-.5 2036.5,-21.5 2085.5,-21.5 2085.5,-.5 2036.5,-.5"/>
<text text-anchor="middle" x="2061" y="-7.9" font-family="Helvetica,sans-Serif" font-size="12.00" fill="#000000">sstream</text>
</g>
<!-- Node2&#45;&gt;Node7 -->
<g id="edge7" class="edge">
<title>Node2&#45;&gt;Node7</title>
<path fill="none" stroke="#191970" d="M2092.8468,-58.3619C2087.5142,-50.4313 2080.0888,-39.3885 2073.7494,-29.9606"/>
<polygon fill="#191970" stroke="#191970" points="2076.5923,-27.9161 2068.1079,-21.5707 2070.7834,-31.8221 2076.5923,-27.9161"/>
</g>
<!-- Node8 -->
<g id="node9" class="node">
<title>Node8</title>
<polygon fill="#ffffff" stroke="#bfbfbf" points="1842,-.5 1842,-21.5 1890,-21.5 1890,-.5 1842,-.5"/>
<text text-anchor="middle" x="1866" y="-7.9" font-family="Helvetica,sans-Serif" font-size="12.00" fill="#000000">iomanip</text>
</g>
<!-- Node2&#45;&gt;Node8 -->
<g id="edge8" class="edge">
<title>Node2&#45;&gt;Node8</title>
<path fill="none" stroke="#191970" d="M2052.9812,-59.2879C2014.2047,-50.9899 1957.6001,-38.2171 1899.7427,-22.0412"/>
<polygon fill="#191970" stroke="#191970" points="1900.6461,-18.6595 1890.0711,-19.3082 1898.7425,-25.3957 1900.6461,-18.6595"/>
</g>
<!-- Node9 -->
<g id="node10" class="node">
<title>Node9</title>
<polygon fill="#ffffff" stroke="#bfbfbf" points="2357.5,-.5 2357.5,-21.5 2400.5,-21.5 2400.5,-.5 2357.5,-.5"/>
<text text-anchor="middle" x="2379" y="-7.9" font-family="Helvetica,sans-Serif" font-size="12.00" fill="#000000">cstring</text>
</g>
<!-- Node2&#45;&gt;Node9 -->
<g id="edge9" class="edge">
<title>Node2&#45;&gt;Node9</title>
<path fill="none" stroke="#191970" d="M2147.008,-60.4944C2207.4816,-49.4962 2308.5601,-30.9067 2347.7545,-21.5931"/>
<polygon fill="#191970" stroke="#191970" points="2348.6273,-24.9826 2357.4538,-19.1224 2346.8993,-18.1993 2348.6273,-24.9826"/>
</g>
<!-- Node10 -->
<g id="node11" class="node">
<title>Node10</title>
<polygon fill="#ffffff" stroke="#bfbfbf" points="2418.5,-.5 2418.5,-21.5 2473.5,-21.5 2473.5,-.5 2418.5,-.5"/>
<text text-anchor="middle" x="2446" y="-7.9" font-family="Helvetica,sans-Serif" font-size="12.00" fill="#000000">exception</text>
</g>
<!-- Node2&#45;&gt;Node10 -->
<g id="edge10" class="edge">
<title>Node2&#45;&gt;Node10</title>
<path fill="none" stroke="#191970" d="M2147.2611,-60.3126C2151.8999,-59.5095 2156.539,-58.7258 2161,-58 2267.8187,-40.6211 2298.5004,-45.6218 2408.4159,-21.8758"/>
<polygon fill="#191970" stroke="#191970" points="2409.2132,-25.2842 2418.2324,-19.7249 2407.715,-18.4464 2409.2132,-25.2842"/>
</g>
<!-- Node11 -->
<g id="node12" class="node">
<title>Node11</title>
<polygon fill="#ffffff" stroke="#bfbfbf" points="2103.5,-.5 2103.5,-21.5 2158.5,-21.5 2158.5,-.5 2103.5,-.5"/>
<text text-anchor="middle" x="2131" y="-7.9" font-family="Helvetica,sans-Serif" font-size="12.00" fill="#000000">stdexcept</text>
</g>
<!-- Node2&#45;&gt;Node11 -->
<g id="edge11" class="edge">
<title>Node2&#45;&gt;Node11</title>
<path fill="none" stroke="#191970" d="M2105.6859,-58.3619C2109.8372,-50.5949 2115.5841,-39.8426 2120.5531,-30.5458"/>
<polygon fill="#191970" stroke="#191970" points="2123.7231,-32.0398 2125.3502,-21.5707 2117.5496,-28.7401 2123.7231,-32.0398"/>
</g>
<!-- Node12 -->
<g id="node13" class="node">
<title>Node12</title>
<polygon fill="#ffffff" stroke="#bfbfbf" points="2176.5,-.5 2176.5,-21.5 2231.5,-21.5 2231.5,-.5 2176.5,-.5"/>
<text text-anchor="middle" x="2204" y="-7.9" font-family="Helvetica,sans-Serif" font-size="12.00" fill="#000000">functional</text>
</g>
<!-- Node2&#45;&gt;Node12 -->
<g id="edge12" class="edge">
<title>Node2&#45;&gt;Node12</title>
<path fill="none" stroke="#191970" d="M2119.0752,-58.3619C2135.0547,-49.4502 2158.081,-36.6087 2176.1267,-26.5447"/>
<polygon fill="#191970" stroke="#191970" points="2178.0168,-29.4982 2185.0457,-21.5707 2174.6073,-23.3846 2178.0168,-29.4982"/>
</g>
<!-- Node13 -->
<g id="node14" class="node">
<title>Node13</title>
<polygon fill="#ffffff" stroke="#bfbfbf" points="2712,-.5 2712,-21.5 2754,-21.5 2754,-.5 2712,-.5"/>
<text text-anchor="middle" x="2733" y="-7.9" font-family="Helvetica,sans-Serif" font-size="12.00" fill="#000000">deque</text>
</g>
<!-- Node2&#45;&gt;Node13 -->
<g id="edge13" class="edge">
<title>Node2&#45;&gt;Node13</title>
<path fill="none" stroke="#191970" d="M2147.0607,-64.688C2270.0667,-53.4173 2598.7481,-23.3011 2701.7099,-13.867"/>
<polygon fill="#191970" stroke="#191970" points="2702.135,-17.3428 2711.7739,-12.9449 2701.4962,-10.372 2702.135,-17.3428"/>
</g>
<!-- Node14 -->
<g id="node15" class="node">
<title>Node14</title>
<polygon fill="#ffffff" stroke="#bfbfbf" points="1782.5,-.5 1782.5,-21.5 1823.5,-21.5 1823.5,-.5 1782.5,-.5"/>
<text text-anchor="middle" x="1803" y="-7.9" font-family="Helvetica,sans-Serif" font-size="12.00" fill="#000000">cmath</text>
</g>
<!-- Node2&#45;&gt;Node14 -->
<g id="edge14" class="edge">
<title>Node2&#45;&gt;Node14</title>
<path fill="none" stroke="#191970" d="M2052.6635,-63.2491C2000.9057,-56.3903 1915.4914,-43.4001 1833.2533,-21.6825"/>
<polygon fill="#191970" stroke="#191970" points="1834.0679,-18.2773 1823.5022,-19.0616 1832.2509,-25.0374 1834.0679,-18.2773"/>
</g>
<!-- Node15 -->
<g id="node16" class="node">
<title>Node15</title>
<polygon fill="#ffffff" stroke="#bfbfbf" points="1908.5,-.5 1908.5,-21.5 1949.5,-21.5 1949.5,-.5 1908.5,-.5"/>
<text text-anchor="middle" x="1929" y="-7.9" font-family="Helvetica,sans-Serif" font-size="12.00" fill="#000000">vector</text>
</g>
<!-- Node2&#45;&gt;Node15 -->
<g id="edge15" class="edge">
<title>Node2&#45;&gt;Node15</title>
<path fill="none" stroke="#191970" d="M2066.8665,-58.4777C2040.0298,-49.8567 2001.042,-37.1118 1959.1144,-22.3133"/>
<polygon fill="#191970" stroke="#191970" points="1960.1497,-18.9669 1949.5549,-18.9213 1957.8088,-25.5639 1960.1497,-18.9669"/>
</g>
<!-- Node16&#45;&gt;Node1 -->
<g id="edge34" class="edge">
<title>Node16&#45;&gt;Node1</title>
<path fill="none" stroke="#191970" d="M1404.8403,-312.862C1195.5712,-309.133 571.1753,-295.8311 370,-267 219.5476,-245.4381 38,-336.9896 38,-185 38,-185 38,-185 38,-127 38,-95.1919 33.1698,-79.0684 57,-58 75.4053,-41.7278 218.1917,-25.739 306.7003,-17.2505"/>
<polygon fill="#191970" stroke="#191970" points="307.057,-20.7325 316.6814,-16.3029 306.3954,-13.7638 307.057,-20.7325"/>
</g>
<!-- Node16&#45;&gt;Node2 -->
<g id="edge35" class="edge">
<title>Node16&#45;&gt;Node2</title>
<path fill="none" stroke="#191970" d="M1543.2698,-310.9896C1698.2702,-303.9354 2061.0357,-285.5282 2080,-267 2128.2179,-219.8911 2114.5545,-129.5768 2105.3271,-89.2799"/>
<polygon fill="#191970" stroke="#191970" points="2108.7194,-88.4169 2102.9521,-79.5293 2101.9182,-90.0735 2108.7194,-88.4169"/>
</g>
<!-- Node16&#45;&gt;Node6 -->
<g id="edge20" class="edge">
<title>Node16&#45;&gt;Node6</title>
<path fill="none" stroke="#191970" d="M1543.0829,-313.0864C1782.135,-308.1957 2566.3258,-277.1384 2690,-80 2695.1962,-71.7172 2695.9718,-65.7423 2690,-58 2671.8858,-34.5155 2586.8033,-20.4596 2540.7643,-14.447"/>
<polygon fill="#191970" stroke="#191970" points="2541.1256,-10.9649 2530.7665,-13.1877 2540.2507,-17.9101 2541.1256,-10.9649"/>
</g>
<!-- Node16&#45;&gt;Node13 -->
<g id="edge19" class="edge">
<title>Node16&#45;&gt;Node13</title>
<path fill="none" stroke="#191970" d="M1543.1672,-311.8912C1712.6987,-306.4189 2145.4549,-290.5319 2288,-267 2404.9185,-247.6986 2434.5989,-239.059 2545,-196 2627.502,-163.8223 2662.1622,-156.3646 2707,-80 2715.9873,-64.6935 2722.8664,-45.726 2727.2845,-31.5537"/>
<polygon fill="#191970" stroke="#191970" points="2730.6921,-32.373 2730.1775,-21.7907 2723.9806,-30.3842 2730.6921,-32.373"/>
</g>
<!-- Node17 -->
<g id="node18" class="node">
<title>Node17</title>
<polygon fill="#ffffff" stroke="#bfbfbf" points="66,-58.5 66,-79.5 146,-79.5 146,-58.5 66,-58.5"/>
<text text-anchor="middle" x="106" y="-65.9" font-family="Helvetica,sans-Serif" font-size="12.00" fill="#000000">unordered_map</text>
</g>
<!-- Node16&#45;&gt;Node17 -->
<g id="edge18" class="edge">
<title>Node16&#45;&gt;Node17</title>
<path fill="none" stroke="#191970" d="M1404.7831,-312.5786C1192.0177,-307.9576 556.5579,-292.1871 467,-267 327.1818,-227.6778 181.8941,-126.0425 127.9002,-85.7822"/>
<polygon fill="#191970" stroke="#191970" points="129.8437,-82.8645 119.7481,-79.6503 125.6358,-88.4586 129.8437,-82.8645"/>
</g>
<!-- Node18 -->
<g id="node19" class="node">
<title>Node18</title>
<polygon fill="#ffffff" stroke="#bfbfbf" points="556,-239 556,-260 598,-260 598,-239 556,-239"/>
<text text-anchor="middle" x="577" y="-246.4" font-family="Helvetica,sans-Serif" font-size="12.00" fill="#000000">thread</text>
</g>
<!-- Node16&#45;&gt;Node18 -->
<g id="edge21" class="edge">
<title>Node16&#45;&gt;Node18</title>
<path fill="none" stroke="#191970" d="M1404.8149,-311.8465C1213.7046,-305.6701 687.6514,-287.0487 612,-267 609.3219,-266.2903 606.6089,-265.3626 603.94,-264.3043"/>
<polygon fill="#191970" stroke="#191970" points="605.1602,-261.0143 594.6088,-260.0563 602.2598,-267.3851 605.1602,-261.0143"/>
</g>
<!-- Node19 -->
<g id="node20" class="node">
<title>Node19</title>
<polygon fill="#ffffff" stroke="#bfbfbf" points="240.5,-58.5 240.5,-79.5 281.5,-79.5 281.5,-58.5 240.5,-58.5"/>
<text text-anchor="middle" x="261" y="-65.9" font-family="Helvetica,sans-Serif" font-size="12.00" fill="#000000">mutex</text>
</g>
<!-- Node16&#45;&gt;Node19 -->
<g id="edge22" class="edge">
<title>Node16&#45;&gt;Node19</title>
<path fill="none" stroke="#191970" d="M1404.8845,-312.6782C1203.667,-308.5253 627.3738,-294.3596 547,-267 432.0653,-227.8757 321.2667,-128.0886 278.9919,-87.0479"/>
<polygon fill="#191970" stroke="#191970" points="281.2767,-84.3861 271.6893,-79.8768 276.3721,-89.3806 281.2767,-84.3861"/>
</g>
<!-- Node16&#45;&gt;Node20 -->
<g id="edge23" class="edge">
<title>Node16&#45;&gt;Node20</title>
<path fill="none" stroke="#191970" d="M1543.3901,-313.0429C1808.5133,-309.1932 2745.5377,-293.7462 2803,-267 2904.5603,-219.728 2931.7583,-184.5454 2972,-80 2975.5124,-70.8749 2976.0108,-66.9173 2972,-58 2966.4824,-45.7325 2956.005,-35.3682 2945.8131,-27.52"/>
<polygon fill="#191970" stroke="#191970" points="2947.6053,-24.499 2937.4341,-21.5328 2943.5356,-30.1944 2947.6053,-24.499"/>
</g>
<!-- Node21 -->
<g id="node22" class="node">
<title>Node21</title>
<polygon fill="#ffffff" stroke="#bfbfbf" points="300,-58.5 300,-79.5 386,-79.5 386,-58.5 300,-58.5"/>
<text text-anchor="middle" x="343" y="-65.9" font-family="Helvetica,sans-Serif" font-size="12.00" fill="#000000">cereal/cereal.hpp</text>
</g>
<!-- Node16&#45;&gt;Node21 -->
<g id="edge24" class="edge">
<title>Node16&#45;&gt;Node21</title>
<path fill="none" stroke="#191970" d="M1404.8357,-311.3472C1265.5135,-305.5816 955.5614,-290.5069 852,-267 662.238,-223.9269 449.6158,-122.6694 372.7347,-84.1954"/>
<polygon fill="#191970" stroke="#191970" points="374.1336,-80.9812 363.6275,-79.6128 370.9871,-87.2342 374.1336,-80.9812"/>
</g>
<!-- Node22 -->
<g id="node23" class="node">
<title>Node22</title>
<polygon fill="#ffffff" stroke="#bfbfbf" points="404,-58.5 404,-79.5 514,-79.5 514,-58.5 404,-58.5"/>
<text text-anchor="middle" x="459" y="-65.9" font-family="Helvetica,sans-Serif" font-size="12.00" fill="#000000">cereal/types/deque.hpp</text>
</g>
<!-- Node16&#45;&gt;Node22 -->
<g id="edge25" class="edge">
<title>Node16&#45;&gt;Node22</title>
<path fill="none" stroke="#191970" d="M1404.7019,-310.9774C1281.9371,-305.0988 1031.2521,-290.5926 947,-267 800.5766,-225.998 782.5437,-168.9365 640,-116 601.3579,-101.6495 556.5236,-89.9726 521.1444,-81.8472"/>
<polygon fill="#191970" stroke="#191970" points="521.4843,-78.3358 510.9588,-79.5456 519.9414,-85.1637 521.4843,-78.3358"/>
</g>
<!-- Node23 -->
<g id="node24" class="node">
<title>Node23</title>
<polygon fill="#ffffff" stroke="#bfbfbf" points="1060.5,-58.5 1060.5,-79.5 1149.5,-79.5 1149.5,-58.5 1060.5,-58.5"/>
<text text-anchor="middle" x="1105" y="-65.9" font-family="Helvetica,sans-Serif" font-size="12.00" fill="#000000">cereal/access.hpp</text>
</g>
<!-- Node16&#45;&gt;Node23 -->
<g id="edge26" class="edge">
<title>Node16&#45;&gt;Node23</title>
<path fill="none" stroke="#191970" d="M1406.9419,-303.4493C1307.9325,-286.2589 1130.674,-248.7496 1097,-196 1076.1161,-163.2859 1087.6628,-115.6628 1096.9642,-88.9995"/>
<polygon fill="#191970" stroke="#191970" points="1100.2645,-90.1662 1100.4685,-79.5733 1093.7032,-87.7269 1100.2645,-90.1662"/>
</g>
<!-- Node24 -->
<g id="node25" class="node">
<title>Node24</title>
<polygon fill="#ffffff" stroke="#bfbfbf" points="1280.5,-232.5 1280.5,-266.5 1389.5,-266.5 1389.5,-232.5 1280.5,-232.5"/>
<text text-anchor="start" x="1288.5" y="-252.9" font-family="Helvetica,sans-Serif" font-size="12.00" fill="#000000">cereal/types/unordered</text>
<text text-anchor="middle" x="1335" y="-239.9" font-family="Helvetica,sans-Serif" font-size="12.00" fill="#000000">_map.hpp</text>
</g>
<!-- Node16&#45;&gt;Node24 -->
<g id="edge27" class="edge">
<title>Node16&#45;&gt;Node24</title>
<path fill="none" stroke="#191970" d="M1451.3579,-303.4934C1432.3422,-294.6696 1404.5664,-281.7808 1380.9213,-270.8088"/>
<polygon fill="#191970" stroke="#191970" points="1382.2978,-267.5891 1371.7536,-266.5547 1379.3514,-273.9388 1382.2978,-267.5891"/>
</g>
<!-- Node25 -->
<g id="node26" class="node">
<title>Node25</title>
<polygon fill="#ffffff" stroke="#bfbfbf" points="1167.5,-58.5 1167.5,-79.5 1280.5,-79.5 1280.5,-58.5 1167.5,-58.5"/>
<text text-anchor="middle" x="1224" y="-65.9" font-family="Helvetica,sans-Serif" font-size="12.00" fill="#000000">cereal/types/chrono.hpp</text>
</g>
<!-- Node16&#45;&gt;Node25 -->
<g id="edge28" class="edge">
<title>Node16&#45;&gt;Node25</title>
<path fill="none" stroke="#191970" d="M1404.926,-305.853C1353.7713,-298.4199 1289.8211,-285.7171 1271,-267 1245.9428,-242.0813 1231.3467,-135.2009 1226.1632,-89.6703"/>
<polygon fill="#191970" stroke="#191970" points="1229.6176,-89.0623 1225.0476,-79.5038 1222.6594,-89.8259 1229.6176,-89.0623"/>
</g>
<!-- Node26 -->
<g id="node27" class="node">
<title>Node26</title>
<polygon fill="#ffffff" stroke="#bfbfbf" points="1408,-239 1408,-260 1540,-260 1540,-239 1408,-239"/>
<text text-anchor="middle" x="1474" y="-246.4" font-family="Helvetica,sans-Serif" font-size="12.00" fill="#000000">cereal/archives/adapters.hpp</text>
</g>
<!-- Node16&#45;&gt;Node26 -->
<g id="edge29" class="edge">
<title>Node16&#45;&gt;Node26</title>
<path fill="none" stroke="#191970" d="M1474,-303.3491C1474,-294.4397 1474,-281.4599 1474,-270.4761"/>
<polygon fill="#191970" stroke="#191970" points="1477.5001,-270.3822 1474,-260.3823 1470.5001,-270.3823 1477.5001,-270.3822"/>
</g>
<!-- Node27 -->
<g id="node28" class="node">
<title>Node27</title>
<polygon fill="#ffffff" stroke="#bfbfbf" points="1558,-239 1558,-260 1680,-260 1680,-239 1558,-239"/>
<text text-anchor="middle" x="1619" y="-246.4" font-family="Helvetica,sans-Serif" font-size="12.00" fill="#000000">cereal/archives/binary.hpp</text>
</g>
<!-- Node16&#45;&gt;Node27 -->
<g id="edge30" class="edge">
<title>Node16&#45;&gt;Node27</title>
<path fill="none" stroke="#191970" d="M1497.6195,-303.4934C1521.634,-292.8111 1559.0414,-276.1712 1585.9827,-264.187"/>
<polygon fill="#191970" stroke="#191970" points="1587.6763,-267.2643 1595.3906,-260.0021 1584.8313,-260.8686 1587.6763,-267.2643"/>
</g>
<!-- Node28 -->
<g id="node29" class="node">
<title>Node28</title>
<polygon fill="#ffffff" stroke="#bfbfbf" points="1698,-239 1698,-260 1812,-260 1812,-239 1698,-239"/>
<text text-anchor="middle" x="1755" y="-246.4" font-family="Helvetica,sans-Serif" font-size="12.00" fill="#000000">cereal/archives/json.hpp</text>
</g>
<!-- Node16&#45;&gt;Node28 -->
<g id="edge31" class="edge">
<title>Node16&#45;&gt;Node28</title>
<path fill="none" stroke="#191970" d="M1525.4055,-303.4258C1569.0532,-294.2889 1633.293,-280.4674 1689,-267 1694.6838,-265.6259 1700.6276,-264.1316 1706.5203,-262.6145"/>
<polygon fill="#191970" stroke="#191970" points="1707.54,-265.9657 1716.3341,-260.0568 1705.7746,-259.192 1707.54,-265.9657"/>
</g>
<!-- Node29 -->
<g id="node30" class="node">
<title>Node29</title>
<polygon fill="#ffffff" stroke="#bfbfbf" points="1830,-232.5 1830,-266.5 1942,-266.5 1942,-232.5 1830,-232.5"/>
<text text-anchor="start" x="1838" y="-252.9" font-family="Helvetica,sans-Serif" font-size="12.00" fill="#000000">cereal/archives/portable</text>
<text text-anchor="middle" x="1886" y="-239.9" font-family="Helvetica,sans-Serif" font-size="12.00" fill="#000000">_binary.hpp</text>
</g>
<!-- Node16&#45;&gt;Node29 -->
<g id="edge32" class="edge">
<title>Node16&#45;&gt;Node29</title>
<path fill="none" stroke="#191970" d="M1543.2363,-307.2685C1611.322,-300.0504 1718.3283,-287.1093 1819.6348,-267.1407"/>
<polygon fill="#191970" stroke="#191970" points="1820.6144,-270.5142 1829.7346,-265.1224 1819.2426,-263.6499 1820.6144,-270.5142"/>
</g>
<!-- Node30 -->
<g id="node31" class="node">
<title>Node30</title>
<polygon fill="#ffffff" stroke="#bfbfbf" points="1960.5,-239 1960.5,-260 2071.5,-260 2071.5,-239 1960.5,-239"/>
<text text-anchor="middle" x="2016" y="-246.4" font-family="Helvetica,sans-Serif" font-size="12.00" fill="#000000">cereal/archives/xml.hpp</text>
</g>
<!-- Node16&#45;&gt;Node30 -->
<g id="edge33" class="edge">
<title>Node16&#45;&gt;Node30</title>
<path fill="none" stroke="#191970" d="M1543.2184,-310.7622C1636.4707,-305.5865 1807.3356,-293.2324 1951,-267 1957.6428,-265.7871 1964.5983,-264.2301 1971.3869,-262.5463"/>
<polygon fill="#191970" stroke="#191970" points="1972.3559,-265.9109 1981.1578,-260.0138 1970.5995,-259.1348 1972.3559,-265.9109"/>
</g>
<!-- Node31 -->
<g id="node32" class="node">
<title>Node31</title>
<g id="a_node32"><a xlink:href="../../df/d05/timer_8hpp.html" target="_top" xlink:title="timemory/timer.hpp">
<polygon fill="#ffffff" stroke="#000000" points="956,-239 956,-260 1050,-260 1050,-239 956,-239"/>
<text text-anchor="middle" x="1003" y="-246.4" font-family="Helvetica,sans-Serif" font-size="12.00" fill="#000000">timemory/timer.hpp</text>
</a>
</g>
</g>
<!-- Node16&#45;&gt;Node31 -->
<g id="edge36" class="edge">
<title>Node16&#45;&gt;Node31</title>
<path fill="none" stroke="#191970" d="M1404.9073,-309.5795C1322.9752,-303.5334 1182.571,-290.6357 1064,-267 1058.1164,-265.8272 1051.9759,-264.3615 1045.9539,-262.7806"/>
<polygon fill="#191970" stroke="#191970" points="1046.5677,-259.3196 1035.9976,-260.0428 1044.7116,-266.069 1046.5677,-259.3196"/>
</g>
<!-- Node48 -->
<g id="node49" class="node">
<title>Node48</title>
<g id="a_node49"><a xlink:href="../../d0/d5d/mpi_8hpp.html" target="_top" xlink:title="timemory/mpi.hpp">
<polygon fill="#ffffff" stroke="#000000" points="2875,-58.5 2875,-79.5 2963,-79.5 2963,-58.5 2875,-58.5"/>
<text text-anchor="middle" x="2919" y="-65.9" font-family="Helvetica,sans-Serif" font-size="12.00" fill="#000000">timemory/mpi.hpp</text>
</a>
</g>
</g>
<!-- Node16&#45;&gt;Node48 -->
<g id="edge106" class="edge">
<title>Node16&#45;&gt;Node48</title>
<path fill="none" stroke="#191970" d="M1543.17,-313.6008C1805.1976,-311.819 2724.5609,-303.0157 2775,-267 2833.5073,-225.2233 2785.6671,-170.1109 2833,-116 2845.3612,-101.8687 2863.044,-91.1875 2879.1643,-83.6075"/>
<polygon fill="#191970" stroke="#191970" points="2880.7013,-86.7547 2888.423,-79.5003 2877.8628,-80.356 2880.7013,-86.7547"/>
</g>
<!-- Node31&#45;&gt;Node1 -->
<g id="edge37" class="edge">
<title>Node31&#45;&gt;Node1</title>
<path fill="none" stroke="#191970" d="M955.8537,-247.7948C798.3646,-240.9136 296.1135,-208.9973 220,-80 197.2933,-41.5167 255.1673,-24.4406 306.9464,-16.8979"/>
<polygon fill="#191970" stroke="#191970" points="307.4189,-20.366 316.8586,-15.5552 306.4792,-13.4293 307.4189,-20.366"/>
</g>
<!-- Node32 -->
<g id="node33" class="node">
<title>Node32</title>
<g id="a_node33"><a xlink:href="../../d6/d01/base__timer_8hpp.html" target="_top" xlink:title="timemory/base_timer.hpp">
<polygon fill="#ffffff" stroke="#000000" points="1106,-174.5 1106,-195.5 1224,-195.5 1224,-174.5 1106,-174.5"/>
<text text-anchor="middle" x="1165" y="-181.9" font-family="Helvetica,sans-Serif" font-size="12.00" fill="#000000">timemory/base_timer.hpp</text>
</a>
</g>
</g>
<!-- Node31&#45;&gt;Node32 -->
<g id="edge38" class="edge">
<title>Node31&#45;&gt;Node32</title>
<path fill="none" stroke="#191970" d="M1029.3886,-238.9934C1056.5717,-228.1705 1099.1142,-211.2323 1129.2937,-199.2164"/>
<polygon fill="#191970" stroke="#191970" points="1130.6266,-202.453 1138.6226,-195.5021 1128.0373,-195.9495 1130.6266,-202.453"/>
</g>
<!-- Node32&#45;&gt;Node1 -->
<g id="edge39" class="edge">
<title>Node32&#45;&gt;Node1</title>
<path fill="none" stroke="#191970" d="M1105.9091,-182.9087C909.6304,-175.3543 288.5206,-146.3449 231,-80 203.7105,-48.524 257.2908,-30.3409 307.0542,-20.624"/>
<polygon fill="#191970" stroke="#191970" points="307.737,-24.0571 316.931,-18.792 306.4603,-17.1745 307.737,-24.0571"/>
</g>
<!-- Node32&#45;&gt;Node2 -->
<g id="edge76" class="edge">
<title>Node32&#45;&gt;Node2</title>
<path fill="none" stroke="#191970" d="M1224.2945,-179.8222C1312.4581,-171.933 1483.2696,-155.9159 1628,-138 1778.0123,-119.4302 1954.0502,-92.2646 2042.7446,-78.2003"/>
<polygon fill="#191970" stroke="#191970" points="2043.5353,-81.6187 2052.8621,-76.5927 2042.4367,-74.7054 2043.5353,-81.6187"/>
</g>
<!-- Node32&#45;&gt;Node6 -->
<g id="edge98" class="edge">
<title>Node32&#45;&gt;Node6</title>
<path fill="none" stroke="#191970" d="M1224.0738,-181.3716C1381.9254,-171.1563 1826.3978,-138.9859 2192,-80 2318.5953,-59.5753 2353.9634,-58.3691 2481.7246,-21.7194"/>
<polygon fill="#191970" stroke="#191970" points="2482.8552,-25.0361 2491.4927,-18.9005 2480.9143,-18.3105 2482.8552,-25.0361"/>
</g>
<!-- Node32&#45;&gt;Node21 -->
<g id="edge100" class="edge">
<title>Node32&#45;&gt;Node21</title>
<path fill="none" stroke="#191970" d="M1105.8112,-182.5073C1018.7764,-178.0215 851.4864,-166.2701 712,-138 679.2062,-131.3536 672.6451,-123.3419 640,-116 535.7697,-92.5585 505.1183,-98.9832 396.172,-80.1113"/>
<polygon fill="#191970" stroke="#191970" points="396.5457,-76.6232 386.0895,-78.3319 395.3291,-83.5167 396.5457,-76.6232"/>
</g>
<!-- Node32&#45;&gt;Node22 -->
<g id="edge104" class="edge">
<title>Node32&#45;&gt;Node22</title>
<path fill="none" stroke="#191970" d="M1105.8668,-180.759C1009.3631,-173.4016 822.4116,-157.2048 759,-138 738.4544,-131.7776 736.3308,-122.8918 716,-116 634.834,-88.4861 608.4994,-95.438 524.2562,-80.9094"/>
<polygon fill="#191970" stroke="#191970" points="524.71,-77.4353 514.2517,-79.1307 523.4846,-84.3272 524.71,-77.4353"/>
</g>
<!-- Node32&#45;&gt;Node23 -->
<g id="edge101" class="edge">
<title>Node32&#45;&gt;Node23</title>
<path fill="none" stroke="#191970" d="M1159.4629,-174.2949C1149.4168,-154.8724 1128.0463,-113.5561 1115.2653,-88.8462"/>
<polygon fill="#191970" stroke="#191970" points="1118.2268,-86.9534 1110.5237,-79.6792 1112.0092,-90.1694 1118.2268,-86.9534"/>
</g>
<!-- Node32&#45;&gt;Node25 -->
<g id="edge103" class="edge">
<title>Node32&#45;&gt;Node25</title>
<path fill="none" stroke="#191970" d="M1170.4448,-174.2949C1180.3235,-154.8724 1201.3379,-113.5561 1213.9058,-88.8462"/>
<polygon fill="#191970" stroke="#191970" points="1217.1544,-90.1793 1218.5683,-79.6792 1210.9151,-87.0058 1217.1544,-90.1793"/>
</g>
<!-- Node33 -->
<g id="node34" class="node">
<title>Node33</title>
<g id="a_node34"><a xlink:href="../../d8/d4e/base__clock_8hpp.html" target="_top" xlink:title="timemory/base_clock.hpp">
<polygon fill="#ffffff" stroke="#000000" points="829.5,-116.5 829.5,-137.5 948.5,-137.5 948.5,-116.5 829.5,-116.5"/>
<text text-anchor="middle" x="889" y="-123.9" font-family="Helvetica,sans-Serif" font-size="12.00" fill="#000000">timemory/base_clock.hpp</text>
</a>
</g>
</g>
<!-- Node32&#45;&gt;Node33 -->
<g id="edge40" class="edge">
<title>Node32&#45;&gt;Node33</title>
<path fill="none" stroke="#191970" d="M1115.0185,-174.4966C1068.3673,-164.6931 998.6841,-150.0496 949.037,-139.6165"/>
<polygon fill="#191970" stroke="#191970" points="949.5813,-136.1545 939.0753,-137.5231 948.1417,-143.0049 949.5813,-136.1545"/>
</g>
<!-- Node39 -->
<g id="node40" class="node">
<title>Node39</title>
<g id="a_node40"><a xlink:href="../../d9/dd2/rss_8hpp.html" target="_top" xlink:title="timemory/rss.hpp">
<polygon fill="#ffffff" stroke="#000000" points="1406,-116.5 1406,-137.5 1492,-137.5 1492,-116.5 1406,-116.5"/>
<text text-anchor="middle" x="1449" y="-123.9" font-family="Helvetica,sans-Serif" font-size="12.00" fill="#000000">timemory/rss.hpp</text>
</a>
</g>
</g>
<!-- Node32&#45;&gt;Node39 -->
<g id="edge60" class="edge">
<title>Node32&#45;&gt;Node39</title>
<path fill="none" stroke="#191970" d="M1216.4303,-174.4966C1267.2312,-164.1218 1344.5748,-148.3263 1395.9358,-137.8371"/>
<polygon fill="#191970" stroke="#191970" points="1396.7486,-141.2434 1405.846,-135.8131 1395.3479,-134.385 1396.7486,-141.2434"/>
</g>
<!-- Node41 -->
<g id="node42" class="node">
<title>Node41</title>
<polygon fill="#ffffff" stroke="#bfbfbf" points="1560.5,-58.5 1560.5,-79.5 1607.5,-79.5 1607.5,-58.5 1560.5,-58.5"/>
<text text-anchor="middle" x="1584" y="-65.9" font-family="Helvetica,sans-Serif" font-size="12.00" fill="#000000">fstream</text>
</g>
<!-- Node32&#45;&gt;Node41 -->
<g id="edge97" class="edge">
<title>Node32&#45;&gt;Node41</title>
<path fill="none" stroke="#191970" d="M1224.1278,-180.6437C1306.9119,-173.8823 1452.6504,-159.3754 1501,-138 1527.5621,-126.2569 1552.3834,-103.4427 1567.8362,-87.2666"/>
<polygon fill="#191970" stroke="#191970" points="1570.796,-89.2217 1575.0227,-79.5064 1565.66,-84.4654 1570.796,-89.2217"/>
</g>
<!-- Node44 -->
<g id="node45" class="node">
<title>Node44</title>
<polygon fill="#ffffff" stroke="#bfbfbf" points="1625.5,-58.5 1625.5,-79.5 1716.5,-79.5 1716.5,-58.5 1625.5,-58.5"/>
<text text-anchor="middle" x="1671" y="-65.9" font-family="Helvetica,sans-Serif" font-size="12.00" fill="#000000">cereal/macros.hpp</text>
</g>
<!-- Node32&#45;&gt;Node44 -->
<g id="edge102" class="edge">
<title>Node32&#45;&gt;Node44</title>
<path fill="none" stroke="#191970" d="M1224.3156,-179.8655C1313.2437,-171.7543 1476.6954,-155.1299 1533,-138 1574.4919,-125.3767 1618.7008,-101.1204 1645.5928,-84.9953"/>
<polygon fill="#191970" stroke="#191970" points="1647.6288,-87.8534 1654.3498,-79.6632 1643.9883,-81.8745 1647.6288,-87.8534"/>
</g>
<!-- Node45 -->
<g id="node46" class="node">
<title>Node45</title>
<polygon fill="#ffffff" stroke="#bfbfbf" points="1735,-58.5 1735,-79.5 1845,-79.5 1845,-58.5 1735,-58.5"/>
<text text-anchor="middle" x="1790" y="-65.9" font-family="Helvetica,sans-Serif" font-size="12.00" fill="#000000">cereal/types/vector.hpp</text>
</g>
<!-- Node32&#45;&gt;Node45 -->
<g id="edge105" class="edge">
<title>Node32&#45;&gt;Node45</title>
<path fill="none" stroke="#191970" d="M1224.3218,-181.8632C1304.5888,-176.7894 1451.909,-164.5373 1575,-138 1639.0359,-124.1944 1711.0804,-99.0125 1753.3939,-83.1882"/>
<polygon fill="#191970" stroke="#191970" points="1754.8564,-86.3773 1762.9778,-79.5735 1752.386,-79.8277 1754.8564,-86.3773"/>
</g>
<!-- Node46 -->
<g id="node47" class="node">
<title>Node46</title>
<g id="a_node47"><a xlink:href="../../da/d8e/signal__detection_8hpp.html" target="_top" xlink:title="timemory/signal_detection.hpp">
<polygon fill="#ffffff" stroke="#000000" points="2422.5,-116.5 2422.5,-137.5 2561.5,-137.5 2561.5,-116.5 2422.5,-116.5"/>
<text text-anchor="middle" x="2492" y="-123.9" font-family="Helvetica,sans-Serif" font-size="12.00" fill="#000000">timemory/signal_detection.hpp</text>
</a>
</g>
</g>
<!-- Node32&#45;&gt;Node46 -->
<g id="edge77" class="edge">
<title>Node32&#45;&gt;Node46</title>
<path fill="none" stroke="#191970" d="M1224.1634,-182.4141C1437.6203,-173.0844 2168.3312,-141.1468 2412.1118,-130.4917"/>
<polygon fill="#191970" stroke="#191970" points="2412.4745,-133.9793 2422.3121,-130.0459 2412.1688,-126.986 2412.4745,-133.9793"/>
</g>
<!-- Node49 -->
<g id="node50" class="node">
<title>Node49</title>
<polygon fill="#ffffff" stroke="#bfbfbf" points="768.5,-116.5 768.5,-137.5 811.5,-137.5 811.5,-116.5 768.5,-116.5"/>
<text text-anchor="middle" x="790" y="-123.9" font-family="Helvetica,sans-Serif" font-size="12.00" fill="#000000">atomic</text>
</g>
<!-- Node32&#45;&gt;Node49 -->
<g id="edge99" class="edge">
<title>Node32&#45;&gt;Node49</title>
<path fill="none" stroke="#191970" d="M1105.9753,-180.8597C1038.7875,-175.2809 925.8061,-163.2698 821.524,-138.011"/>
<polygon fill="#191970" stroke="#191970" points="822.332,-134.6054 811.7845,-135.6064 820.6541,-141.4014 822.332,-134.6054"/>
</g>
<!-- Node33&#45;&gt;Node1 -->
<g id="edge59" class="edge">
<title>Node33&#45;&gt;Node1</title>
<path fill="none" stroke="#191970" d="M829.1707,-117.3971C826.0699,-116.9197 822.9988,-116.4515 820,-116 707.2537,-99.0244 674.6913,-114.4398 566,-80 545.5356,-73.5157 542.8374,-66.2047 523,-58 491.0835,-44.7994 454.0291,-32.9099 425.2366,-24.3918"/>
<polygon fill="#191970" stroke="#191970" points="425.9992,-20.9683 415.4189,-21.5228 424.0357,-27.6873 425.9992,-20.9683"/>
</g>
<!-- Node33&#45;&gt;Node3 -->
<g id="edge41" class="edge">
<title>Node33&#45;&gt;Node3</title>
<path fill="none" stroke="#191970" d="M909.1997,-116.4574C927.2725,-106.9952 954.4662,-92.6846 978,-80 995.8601,-70.3735 998.4488,-63.4228 1018,-58 1216.3882,-2.9746 1735.9736,-55.9982 1957.2091,-21.6008"/>
<polygon fill="#191970" stroke="#191970" points="1957.8998,-25.0342 1967.1962,-19.9522 1956.7596,-18.1277 1957.8998,-25.0342"/>
</g>
<!-- Node33&#45;&gt;Node7 -->
<g id="edge43" class="edge">
<title>Node33&#45;&gt;Node7</title>
<path fill="none" stroke="#191970" d="M920.3662,-116.467C945.5445,-107.6678 981.5865,-94.2921 1012,-80 1030.0114,-71.536 1031.8481,-63.4086 1051,-58 1256.8077,.1211 1797.135,-58.0092 2026.306,-21.5462"/>
<polygon fill="#191970" stroke="#191970" points="2027.0401,-24.9719 2036.3183,-19.8566 2025.8753,-18.0695 2027.0401,-24.9719"/>
</g>
<!-- Node33&#45;&gt;Node8 -->
<g id="edge42" class="edge">
<title>Node33&#45;&gt;Node8</title>
<path fill="none" stroke="#191970" d="M893.4841,-116.4704C900.9199,-100.5126 917.4573,-70.7185 942,-58 1027.4689,-13.7086 1696.4936,-37.9751 1831.5861,-21.2526"/>
<polygon fill="#191970" stroke="#191970" points="1832.316,-24.6825 1841.6887,-19.7427 1831.2812,-17.7594 1832.316,-24.6825"/>
</g>
<!-- Node33&#45;&gt;Node11 -->
<g id="edge44" class="edge">
<title>Node33&#45;&gt;Node11</title>
<path fill="none" stroke="#191970" d="M948.8179,-121.3296C1027.179,-113.5908 1168.7565,-98.5412 1289,-80 1340.4301,-72.0696 1352.3398,-64.2592 1404,-58 1705.5795,-21.4602 1789.5731,-72.9904 2093.3143,-21.713"/>
<polygon fill="#191970" stroke="#191970" points="2094.0213,-25.143 2103.2874,-20.0059 2092.8403,-18.2433 2094.0213,-25.143"/>
</g>
<!-- Node33&#45;&gt;Node14 -->
<g id="edge48" class="edge">
<title>Node33&#45;&gt;Node14</title>
<path fill="none" stroke="#191970" d="M829.3832,-117.4592C744.6431,-103.8811 599.4681,-80.55 599,-80 592.6632,-72.5535 592.2223,-65.0475 599,-58 619.9703,-36.1951 1586.6761,-15.4097 1772.3418,-11.615"/>
<polygon fill="#191970" stroke="#191970" points="1772.5672,-15.1112 1782.494,-11.4086 1772.4248,-8.1127 1772.5672,-15.1112"/>
</g>
<!-- Node33&#45;&gt;Node15 -->
<g id="edge45" class="edge">
<title>Node33&#45;&gt;Node15</title>
<path fill="none" stroke="#191970" d="M901.1371,-116.3114C921.6021,-98.5509 962.4545,-64.2846 980,-58 1169.4017,9.8422 1682.1473,-59.4281 1898.1974,-21.4384"/>
<polygon fill="#191970" stroke="#191970" points="1899.0774,-24.8344 1908.2587,-19.5473 1897.7843,-17.9548 1899.0774,-24.8344"/>
</g>
<!-- Node33&#45;&gt;Node17 -->
<g id="edge47" class="edge">
<title>Node33&#45;&gt;Node17</title>
<path fill="none" stroke="#191970" d="M829.2088,-117.1042C826.0981,-116.7034 823.0144,-116.3316 820,-116 559.3064,-87.3217 492.5406,-99.497 231,-80 206.4143,-78.1672 179.138,-75.8052 156.3545,-73.7401"/>
<polygon fill="#191970" stroke="#191970" points="156.5053,-70.2394 146.2283,-72.8151 155.8685,-77.2103 156.5053,-70.2394"/>
</g>
<!-- Node33&#45;&gt;Node19 -->
<g id="edge46" class="edge">
<title>Node33&#45;&gt;Node19</title>
<path fill="none" stroke="#191970" d="M829.206,-117.1297C826.096,-116.7221 823.0133,-116.342 820,-116 589.1642,-89.7995 523.3493,-127.9455 291.8373,-79.6041"/>
<polygon fill="#191970" stroke="#191970" points="292.2663,-76.1174 281.7578,-77.4671 290.8144,-82.9651 292.2663,-76.1174"/>
</g>
<!-- Node33&#45;&gt;Node20 -->
<g id="edge53" class="edge">
<title>Node33&#45;&gt;Node20</title>
<path fill="none" stroke="#191970" d="M948.7402,-125.7815C1130.3072,-121.8639 1691.5823,-108.1714 2156,-80 2272.1978,-72.9515 2300.9837,-67.5823 2417,-58 2614.7505,-41.6668 2665.3997,-48.8398 2862,-22 2870.2851,-20.8689 2879.187,-19.3156 2887.4358,-17.7325"/>
<polygon fill="#191970" stroke="#191970" points="2888.3151,-21.1262 2897.4392,-15.7409 2886.9482,-14.2609 2888.3151,-21.1262"/>
</g>
<!-- Node33&#45;&gt;Node21 -->
<g id="edge55" class="edge">
<title>Node33&#45;&gt;Node21</title>
<path fill="none" stroke="#191970" d="M829.1988,-117.1906C826.0907,-116.7671 823.0103,-116.3669 820,-116 635.0433,-93.4546 584.2605,-107.1809 396.0019,-79.9931"/>
<polygon fill="#191970" stroke="#191970" points="396.4575,-76.5225 386.056,-78.5374 395.4437,-83.4487 396.4575,-76.5225"/>
</g>
<!-- Node33&#45;&gt;Node22 -->
<g id="edge57" class="edge">
<title>Node33&#45;&gt;Node22</title>
<path fill="none" stroke="#191970" d="M829.1804,-117.3307C826.0771,-116.8707 823.0028,-116.4243 820,-116 690.5259,-97.7042 657.4741,-98.2958 528,-80 526.889,-79.843 525.7681,-79.683 524.6397,-79.5204"/>
<polygon fill="#191970" stroke="#191970" points="524.7397,-75.9973 514.3356,-77.9983 523.7168,-82.9221 524.7397,-75.9973"/>
</g>
<!-- Node33&#45;&gt;Node23 -->
<g id="edge58" class="edge">
<title>Node33&#45;&gt;Node23</title>
<path fill="none" stroke="#191970" d="M928.116,-116.4966C963.9396,-106.8773 1017.1173,-92.5981 1055.808,-82.209"/>
<polygon fill="#191970" stroke="#191970" points="1057.0605,-85.4967 1065.8107,-79.5231 1055.2451,-78.7362 1057.0605,-85.4967"/>
</g>
<!-- Node33&#45;&gt;Node25 -->
<g id="edge56" class="edge">
<title>Node33&#45;&gt;Node25</title>
<path fill="none" stroke="#191970" d="M948.5053,-116.6976C1007.1014,-106.5526 1096.436,-91.0857 1157.3783,-80.5345"/>
<polygon fill="#191970" stroke="#191970" points="1158.0259,-83.9745 1167.2822,-78.8198 1156.8316,-77.0772 1158.0259,-83.9745"/>
</g>
<!-- Node34 -->
<g id="node35" class="node">
<title>Node34</title>
<polygon fill="#ffffff" stroke="#bfbfbf" points="608,-58.5 608,-79.5 644,-79.5 644,-58.5 608,-58.5"/>
<text text-anchor="middle" x="626" y="-65.9" font-family="Helvetica,sans-Serif" font-size="12.00" fill="#000000">tuple</text>
</g>
<!-- Node33&#45;&gt;Node34 -->
<g id="edge49" class="edge">
<title>Node33&#45;&gt;Node34</title>
<path fill="none" stroke="#191970" d="M829.4745,-116.4812C775.134,-106.656 697.8487,-92.0714 654.0023,-79.8298"/>
<polygon fill="#191970" stroke="#191970" points="654.7117,-76.3905 644.1308,-76.9345 652.7415,-83.1075 654.7117,-76.3905"/>
</g>
<!-- Node35 -->
<g id="node36" class="node">
<title>Node35</title>
<polygon fill="#ffffff" stroke="#bfbfbf" points="662,-58.5 662,-79.5 696,-79.5 696,-58.5 662,-58.5"/>
<text text-anchor="middle" x="679" y="-65.9" font-family="Helvetica,sans-Serif" font-size="12.00" fill="#000000">ratio</text>
</g>
<!-- Node33&#45;&gt;Node35 -->
<g id="edge50" class="edge">
<title>Node33&#45;&gt;Node35</title>
<path fill="none" stroke="#191970" d="M839.2122,-116.4159C804.116,-108.4739 755.9407,-96.6077 705.8984,-79.9791"/>
<polygon fill="#191970" stroke="#191970" points="706.7968,-76.5883 696.2026,-76.7044 704.5569,-83.2203 706.7968,-76.5883"/>
</g>
<!-- Node36 -->
<g id="node37" class="node">
<title>Node36</title>
<polygon fill="#ffffff" stroke="#bfbfbf" points="714,-58.5 714,-79.5 758,-79.5 758,-58.5 714,-58.5"/>
<text text-anchor="middle" x="736" y="-65.9" font-family="Helvetica,sans-Serif" font-size="12.00" fill="#000000">chrono</text>
</g>
<!-- Node33&#45;&gt;Node36 -->
<g id="edge51" class="edge">
<title>Node33&#45;&gt;Node36</title>
<path fill="none" stroke="#191970" d="M861.2929,-116.4966C834.9097,-106.4952 795.2378,-91.4562 767.6278,-80.9896"/>
<polygon fill="#191970" stroke="#191970" points="768.6398,-77.6303 758.0484,-77.3582 766.1584,-84.1757 768.6398,-77.6303"/>
</g>
<!-- Node37 -->
<g id="node38" class="node">
<title>Node37</title>
<polygon fill="#ffffff" stroke="#bfbfbf" points="776,-58.5 776,-79.5 814,-79.5 814,-58.5 776,-58.5"/>
<text text-anchor="middle" x="795" y="-65.9" font-family="Helvetica,sans-Serif" font-size="12.00" fill="#000000">ctime</text>
</g>
<!-- Node33&#45;&gt;Node37 -->
<g id="edge52" class="edge">
<title>Node33&#45;&gt;Node37</title>
<path fill="none" stroke="#191970" d="M871.759,-116.3619C857.4484,-107.532 836.885,-94.844 820.6432,-84.8224"/>
<polygon fill="#191970" stroke="#191970" points="822.48,-81.8431 812.1317,-79.5707 818.8042,-87.8004 822.48,-81.8431"/>
</g>
<!-- Node38 -->
<g id="node39" class="node">
<title>Node38</title>
<polygon fill="#ffffff" stroke="#bfbfbf" points="832,-58.5 832,-79.5 890,-79.5 890,-58.5 832,-58.5"/>
<text text-anchor="middle" x="861" y="-65.9" font-family="Helvetica,sans-Serif" font-size="12.00" fill="#000000">type_traits</text>
</g>
<!-- Node33&#45;&gt;Node38 -->
<g id="edge54" class="edge">
<title>Node33&#45;&gt;Node38</title>
<path fill="none" stroke="#191970" d="M883.8644,-116.3619C880.1542,-108.6766 875.0331,-98.0686 870.5779,-88.8399"/>
<polygon fill="#191970" stroke="#191970" points="873.6026,-87.0545 866.1031,-79.5707 867.2987,-90.0978 873.6026,-87.0545"/>
</g>
<!-- Node39&#45;&gt;Node1 -->
<g id="edge75" class="edge">
<title>Node39&#45;&gt;Node1</title>
<path fill="none" stroke="#191970" d="M1430.54,-116.4376C1401.5055,-100.4359 1342.9096,-70.584 1289,-58 1129.3271,-20.728 632.3115,-13.003 447.3131,-11.4105"/>
<polygon fill="#191970" stroke="#191970" points="447.1882,-7.9095 437.1596,-11.3266 447.1303,-14.9093 447.1882,-7.9095"/>
</g>
<!-- Node39&#45;&gt;Node3 -->
<g id="edge62" class="edge">
<title>Node39&#45;&gt;Node3</title>
<path fill="none" stroke="#191970" d="M1462.7588,-116.4057C1485.9308,-98.7876 1532.0637,-64.7303 1551,-58 1719.0178,1.7161 1777.7698,-55.2932 1957.1438,-21.7483"/>
<polygon fill="#191970" stroke="#191970" points="1958.0182,-25.144 1967.1685,-19.8035 1956.685,-18.2721 1958.0182,-25.144"/>
</g>
<!-- Node39&#45;&gt;Node6 -->
<g id="edge64" class="edge">
<title>Node39&#45;&gt;Node6</title>
<path fill="none" stroke="#191970" d="M1492.3908,-126.4059C1626.0426,-124.2169 2030.0205,-114.8175 2156,-80 2176.6915,-74.2814 2178.4898,-64.3382 2199,-58 2317.0632,-21.5153 2356.9552,-51.1102 2481.3335,-21.6314"/>
<polygon fill="#191970" stroke="#191970" points="2482.3506,-24.9858 2491.2294,-19.205 2480.6835,-18.1872 2482.3506,-24.9858"/>
</g>
<!-- Node39&#45;&gt;Node8 -->
<g id="edge65" class="edge">
<title>Node39&#45;&gt;Node8</title>
<path fill="none" stroke="#191970" d="M1433.5719,-116.4251C1414.6219,-102.1941 1386.9638,-76.5293 1404,-58 1434.7233,-24.584 1751.8942,-30.677 1831.3737,-21.2013"/>
<polygon fill="#191970" stroke="#191970" points="1832.3155,-24.5974 1841.6638,-19.6114 1831.2466,-17.6794 1832.3155,-24.5974"/>
</g>
<!-- Node39&#45;&gt;Node20 -->
<g id="edge67" class="edge">
<title>Node39&#45;&gt;Node20</title>
<path fill="none" stroke="#191970" d="M1492.0984,-125.9778C1668.0619,-121.6588 2326.9781,-104.0163 2417,-80 2437.7417,-74.4665 2439.3755,-63.9555 2460,-58 2632.3406,-8.2355 2684.3728,-47.0273 2862,-22 2870.2802,-20.8333 2879.1804,-19.2675 2887.429,-17.6837"/>
<polygon fill="#191970" stroke="#191970" points="2888.3065,-21.0779 2897.433,-15.6967 2886.9428,-14.212 2888.3065,-21.0779"/>
</g>
<!-- Node39&#45;&gt;Node21 -->
<g id="edge69" class="edge">
<title>Node39&#45;&gt;Node21</title>
<path fill="none" stroke="#191970" d="M1405.9595,-126.023C1236.6409,-122.0361 615.3919,-106.0208 396.1694,-79.922"/>
<polygon fill="#191970" stroke="#191970" points="396.391,-76.4229 386.0376,-78.6716 395.5336,-83.3702 396.391,-76.4229"/>
</g>
<!-- Node39&#45;&gt;Node22 -->
<g id="edge73" class="edge">
<title>Node39&#45;&gt;Node22</title>
<path fill="none" stroke="#191970" d="M1405.6338,-124.9577C1280.4871,-118.9874 907.9392,-100.6754 599,-80 574.6312,-78.3691 547.8965,-76.3303 524.379,-74.4524"/>
<polygon fill="#191970" stroke="#191970" points="524.4164,-70.9442 514.1679,-73.6312 523.8551,-77.9217 524.4164,-70.9442"/>
</g>
<!-- Node39&#45;&gt;Node23 -->
<g id="edge70" class="edge">
<title>Node39&#45;&gt;Node23</title>
<path fill="none" stroke="#191970" d="M1405.5106,-120.5938C1350.4808,-112.3511 1252.5534,-97.2296 1159.3771,-80.2014"/>
<polygon fill="#191970" stroke="#191970" points="1159.9728,-76.7524 1149.5048,-78.3867 1158.7072,-83.637 1159.9728,-76.7524"/>
</g>
<!-- Node39&#45;&gt;Node25 -->
<g id="edge72" class="edge">
<title>Node39&#45;&gt;Node25</title>
<path fill="none" stroke="#191970" d="M1408.2542,-116.4966C1370.7791,-106.8364 1315.0727,-92.4765 1274.7279,-82.0765"/>
<polygon fill="#191970" stroke="#191970" points="1275.3794,-78.6301 1264.8222,-79.5231 1273.632,-85.4085 1275.3794,-78.6301"/>
</g>
<!-- Node40 -->
<g id="node41" class="node">
<title>Node40</title>
<polygon fill="#ffffff" stroke="#bfbfbf" points="1413.5,-58.5 1413.5,-79.5 1442.5,-79.5 1442.5,-58.5 1413.5,-58.5"/>
<text text-anchor="middle" x="1428" y="-65.9" font-family="Helvetica,sans-Serif" font-size="12.00" fill="#000000">ios</text>
</g>
<!-- Node39&#45;&gt;Node40 -->
<g id="edge61" class="edge">
<title>Node39&#45;&gt;Node40</title>
<path fill="none" stroke="#191970" d="M1445.1483,-116.3619C1442.3953,-108.7584 1438.6064,-98.294 1435.2902,-89.1349"/>
<polygon fill="#191970" stroke="#191970" points="1438.5227,-87.7818 1431.8273,-79.5707 1431.9408,-90.1649 1438.5227,-87.7818"/>
</g>
<!-- Node39&#45;&gt;Node41 -->
<g id="edge63" class="edge">
<title>Node39&#45;&gt;Node41</title>
<path fill="none" stroke="#191970" d="M1473.4475,-116.4966C1495.0848,-107.2006 1526.8518,-93.5526 1550.7872,-83.2692"/>
<polygon fill="#191970" stroke="#191970" points="1552.3813,-86.3938 1560.1876,-79.2305 1549.618,-79.9622 1552.3813,-86.3938"/>
</g>
<!-- Node42 -->
<g id="node43" class="node">
<title>Node42</title>
<polygon fill="#ffffff" stroke="#bfbfbf" points="1460.5,-58.5 1460.5,-79.5 1503.5,-79.5 1503.5,-58.5 1460.5,-58.5"/>
<text text-anchor="middle" x="1482" y="-65.9" font-family="Helvetica,sans-Serif" font-size="12.00" fill="#000000">stdio.h</text>
</g>
<!-- Node39&#45;&gt;Node42 -->
<g id="edge66" class="edge">
<title>Node39&#45;&gt;Node42</title>
<path fill="none" stroke="#191970" d="M1455.0527,-116.3619C1459.4719,-108.5949 1465.5896,-97.8426 1470.8791,-88.5458"/>
<polygon fill="#191970" stroke="#191970" points="1474.0824,-89.9932 1475.9857,-79.5707 1467.9983,-86.5315 1474.0824,-89.9932"/>
</g>
<!-- Node43 -->
<g id="node44" class="node">
<title>Node43</title>
<polygon fill="#ffffff" stroke="#bfbfbf" points="2799,-.5 2799,-21.5 2853,-21.5 2853,-.5 2799,-.5"/>
<text text-anchor="middle" x="2826" y="-7.9" font-family="Helvetica,sans-Serif" font-size="12.00" fill="#000000">algorithm</text>
</g>
<!-- Node39&#45;&gt;Node43 -->
<g id="edge68" class="edge">
<title>Node39&#45;&gt;Node43</title>
<path fill="none" stroke="#191970" d="M1492.1738,-124.8448C1606.4605,-119.0149 1926.3202,-101.8885 2192,-80 2255.5556,-74.7639 2699.827,-30.7121 2763,-22 2771.3669,-20.8461 2780.3241,-19.4067 2788.782,-17.9534"/>
<polygon fill="#191970" stroke="#191970" points="2789.5372,-21.3743 2798.778,-16.1919 2788.3223,-14.4805 2789.5372,-21.3743"/>
</g>
<!-- Node39&#45;&gt;Node44 -->
<g id="edge71" class="edge">
<title>Node39&#45;&gt;Node44</title>
<path fill="none" stroke="#191970" d="M1489.2025,-116.4966C1526.1779,-106.8364 1581.1416,-92.4765 1620.9484,-82.0765"/>
<polygon fill="#191970" stroke="#191970" points="1621.9316,-85.4372 1630.7221,-79.5231 1620.1621,-78.6646 1621.9316,-85.4372"/>
</g>
<!-- Node39&#45;&gt;Node45 -->
<g id="edge74" class="edge">
<title>Node39&#45;&gt;Node45</title>
<path fill="none" stroke="#191970" d="M1492.1879,-119.6543C1550.8278,-109.6803 1656.1469,-91.7668 1724.5337,-80.135"/>
<polygon fill="#191970" stroke="#191970" points="1725.4908,-83.5226 1734.7623,-78.3953 1724.317,-76.6217 1725.4908,-83.5226"/>
</g>
<!-- Node46&#45;&gt;Node1 -->
<g id="edge92" class="edge">
<title>Node46&#45;&gt;Node1</title>
<path fill="none" stroke="#191970" d="M2422.383,-125.9918C2285.0664,-123.2853 1984.207,-113.5966 1887,-80 1870.3398,-74.2419 1870.7874,-63.3757 1854,-58 1786.4222,-36.3599 732.2734,-17.0165 447.4612,-12.1658"/>
<polygon fill="#191970" stroke="#191970" points="447.316,-8.6629 437.258,-11.9926 447.1971,-15.6619 447.316,-8.6629"/>
</g>
<!-- Node46&#45;&gt;Node2 -->
<g id="edge93" class="edge">
<title>Node46&#45;&gt;Node2</title>
<path fill="none" stroke="#191970" d="M2422.37,-116.6976C2346.7742,-105.5125 2227.4565,-87.8584 2157.1463,-77.4553"/>
<polygon fill="#191970" stroke="#191970" points="2157.544,-73.9761 2147.1393,-75.9747 2156.5193,-80.9007 2157.544,-73.9761"/>
</g>
<!-- Node46&#45;&gt;Node3 -->
<g id="edge78" class="edge">
<title>Node46&#45;&gt;Node3</title>
<path fill="none" stroke="#191970" d="M2422.1274,-122.766C2304.3723,-115.1738 2076.0358,-98.3173 2044,-80 2024.5097,-68.8559 2010.2914,-46.917 2001.8931,-30.7569"/>
<polygon fill="#191970" stroke="#191970" points="2004.9512,-29.0428 1997.4209,-21.5899 1998.6599,-32.112 2004.9512,-29.0428"/>
</g>
<!-- Node46&#45;&gt;Node4 -->
<g id="edge79" class="edge">
<title>Node46&#45;&gt;Node4</title>
<path fill="none" stroke="#191970" d="M2514.4003,-116.4889C2539.8445,-103.1679 2575.57,-79.3641 2557,-58 2521.1523,-16.7585 2372.3049,-34.0383 2302.2681,-21.5486"/>
<polygon fill="#191970" stroke="#191970" points="2302.6424,-18.0495 2292.1311,-19.3778 2301.1765,-24.8943 2302.6424,-18.0495"/>
</g>
<!-- Node46&#45;&gt;Node5 -->
<g id="edge81" class="edge">
<title>Node46&#45;&gt;Node5</title>
<path fill="none" stroke="#191970" d="M2533.039,-116.4828C2570.7947,-104.8719 2617.738,-84.2922 2595,-58 2560.5587,-18.175 2416.7643,-36.0693 2349.8788,-21.5174"/>
<polygon fill="#191970" stroke="#191970" points="2350.3933,-18.0343 2339.833,-18.8895 2348.6217,-24.8064 2350.3933,-18.0343"/>
</g>
<!-- Node46&#45;&gt;Node6 -->
<g id="edge82" class="edge">
<title>Node46&#45;&gt;Node6</title>
<path fill="none" stroke="#191970" d="M2480.98,-116.3073C2468.4618,-102.7988 2450.8823,-78.8016 2460,-58 2465.3246,-45.8522 2475.5098,-35.4564 2485.3868,-27.554"/>
<polygon fill="#191970" stroke="#191970" points="2487.5642,-30.2965 2493.4975,-21.5188 2483.3854,-24.6807 2487.5642,-30.2965"/>
</g>
<!-- Node46&#45;&gt;Node7 -->
<g id="edge83" class="edge">
<title>Node46&#45;&gt;Node7</title>
<path fill="none" stroke="#191970" d="M2436.6123,-116.4443C2392.7716,-107.7301 2330.128,-94.4792 2276,-80 2197.03,-58.8756 2176.233,-49.0532 2095.4667,-22.4734"/>
<polygon fill="#191970" stroke="#191970" points="2096.4473,-19.1117 2085.8546,-19.324 2094.2677,-25.7637 2096.4473,-19.1117"/>
</g>
<!-- Node46&#45;&gt;Node8 -->
<g id="edge84" class="edge">
<title>Node46&#45;&gt;Node8</title>
<path fill="none" stroke="#191970" d="M2422.4602,-124.67C2301.3394,-119.9484 2056.8618,-107.2942 1976,-80 1941.8333,-68.4673 1907.4168,-44.407 1886.4025,-27.9775"/>
<polygon fill="#191970" stroke="#191970" points="1888.5123,-25.1833 1878.5155,-21.674 1884.1419,-30.6514 1888.5123,-25.1833"/>
</g>
<!-- Node46&#45;&gt;Node9 -->
<g id="edge85" class="edge">
<title>Node46&#45;&gt;Node9</title>
<path fill="none" stroke="#191970" d="M2561.5353,-116.6071C2608.9767,-106.5937 2658.8952,-88.3892 2633,-58 2602.0889,-21.7244 2473.0408,-33.244 2410.8844,-21.7783"/>
<polygon fill="#191970" stroke="#191970" points="2411.3209,-18.2902 2400.8005,-19.5439 2409.8065,-25.1244 2411.3209,-18.2902"/>
</g>
<!-- Node46&#45;&gt;Node10 -->
<g id="edge86" class="edge">
<title>Node46&#45;&gt;Node10</title>
<path fill="none" stroke="#191970" d="M2561.7785,-122.6133C2625.5733,-115.9519 2705.1853,-99.3114 2671,-58 2618.5077,5.4346 2568.8352,-38.9432 2483.8147,-22.0622"/>
<polygon fill="#191970" stroke="#191970" points="2484.3479,-18.5951 2473.825,-19.8278 2482.8199,-25.4263 2484.3479,-18.5951"/>
</g>
<!-- Node46&#45;&gt;Node11 -->
<g id="edge87" class="edge">
<title>Node46&#45;&gt;Node11</title>
<path fill="none" stroke="#191970" d="M2459.0067,-116.3983C2391.8181,-94.8086 2239.4956,-45.8629 2168.6018,-23.0826"/>
<polygon fill="#191970" stroke="#191970" points="2169.344,-19.6449 2158.7527,-19.9178 2167.2025,-26.3093 2169.344,-19.6449"/>
</g>
<!-- Node46&#45;&gt;Node12 -->
<g id="edge88" class="edge">
<title>Node46&#45;&gt;Node12</title>
<path fill="none" stroke="#191970" d="M2503.6647,-116.0789C2517.8938,-101.4555 2538.2738,-75.3476 2523,-58 2483.1279,-12.7142 2318.5696,-32.9918 2241.9604,-21.6043"/>
<polygon fill="#191970" stroke="#191970" points="2242.2167,-18.0946 2231.7564,-19.7772 2240.9829,-24.985 2242.2167,-18.0946"/>
</g>
<!-- Node46&#45;&gt;Node13 -->
<g id="edge89" class="edge">
<title>Node46&#45;&gt;Node13</title>
<path fill="none" stroke="#191970" d="M2560.168,-116.4982C2608.8612,-107.9535 2669.2737,-94.8996 2690,-80 2706.9227,-67.8347 2718.6291,-46.7481 2725.5068,-31.0786"/>
<polygon fill="#191970" stroke="#191970" points="2728.7915,-32.2929 2729.3353,-21.712 2722.3119,-29.6443 2728.7915,-32.2929"/>
</g>
<!-- Node46&#45;&gt;Node14 -->
<g id="edge90" class="edge">
<title>Node46&#45;&gt;Node14</title>
<path fill="none" stroke="#191970" d="M2422.3252,-124.8318C2292.5212,-120.1933 2018.6378,-107.419 1928,-80 1925.3864,-79.2094 1867.1216,-46.8014 1831.0736,-26.6864"/>
<polygon fill="#191970" stroke="#191970" points="1832.4351,-23.4381 1821.9974,-21.6198 1829.023,-29.5502 1832.4351,-23.4381"/>
</g>
<!-- Node46&#45;&gt;Node15 -->
<g id="edge91" class="edge">
<title>Node46&#45;&gt;Node15</title>
<path fill="none" stroke="#191970" d="M2422.13,-124.9274C2308.1951,-120.7456 2087.8787,-109.0826 2016,-80 1988.0494,-68.691 1961.7774,-45.4448 1945.5662,-29.0691"/>
<polygon fill="#191970" stroke="#191970" points="1947.9047,-26.4512 1938.4528,-21.6645 1942.8566,-31.3007 1947.9047,-26.4512"/>
</g>
<!-- Node47 -->
<g id="node48" class="node">
<title>Node47</title>
<polygon fill="#ffffff" stroke="#bfbfbf" points="2469.5,-58.5 2469.5,-79.5 2514.5,-79.5 2514.5,-58.5 2469.5,-58.5"/>
<text text-anchor="middle" x="2492" y="-65.9" font-family="Helvetica,sans-Serif" font-size="12.00" fill="#000000">stdlib.h</text>
</g>
<!-- Node46&#45;&gt;Node47 -->
<g id="edge80" class="edge">
<title>Node46&#45;&gt;Node47</title>
<path fill="none" stroke="#191970" d="M2492,-116.3619C2492,-108.9219 2492,-98.7427 2492,-89.7276"/>
<polygon fill="#191970" stroke="#191970" points="2495.5001,-89.5706 2492,-79.5707 2488.5001,-89.5707 2495.5001,-89.5706"/>
</g>
<!-- Node46&#45;&gt;Node48 -->
<g id="edge94" class="edge">
<title>Node46&#45;&gt;Node48</title>
<path fill="none" stroke="#191970" d="M2561.5553,-117.5522C2646.3671,-106.0321 2787.9051,-86.8068 2864.974,-76.3384"/>
<polygon fill="#191970" stroke="#191970" points="2865.516,-79.797 2874.9539,-74.9828 2864.5737,-72.8607 2865.516,-79.797"/>
</g>
<!-- Node48&#45;&gt;Node20 -->
<g id="edge95" class="edge">
<title>Node48&#45;&gt;Node20</title>
<path fill="none" stroke="#191970" d="M2919,-58.3619C2919,-50.9219 2919,-40.7427 2919,-31.7276"/>
<polygon fill="#191970" stroke="#191970" points="2922.5001,-31.5706 2919,-21.5707 2915.5001,-31.5707 2922.5001,-31.5706"/>
</g>
<!-- Node48&#45;&gt;Node43 -->
<g id="edge96" class="edge">
<title>Node48&#45;&gt;Node43</title>
<path fill="none" stroke="#191970" d="M2901.9424,-58.3619C2887.9152,-49.6138 2867.8157,-37.0786 2851.8179,-27.1015"/>
<polygon fill="#191970" stroke="#191970" points="2853.2868,-23.8927 2842.9495,-21.5707 2849.5825,-29.8323 2853.2868,-23.8927"/>
</g>
</g>
</svg>
