<?xml version="1.0" encoding="UTF-8" standalone="no"?>
<!DOCTYPE svg PUBLIC "-//W3C//DTD SVG 1.1//EN"
 "http://www.w3.org/Graphics/SVG/1.1/DTD/svg11.dtd">
<!-- Generated by graphviz version 2.40.1 (20161225.0304)
 -->
<!-- Title: NAME_TIM::base_clock&lt; _precision &gt; Pages: 1 -->
<svg width="121pt" height="198pt"
 viewBox="0.00 0.00 121.00 198.00" xmlns="http://www.w3.org/2000/svg" xmlns:xlink="http://www.w3.org/1999/xlink">
<g id="graph0" class="graph" transform="scale(1 1) rotate(0) translate(4 194)">
<title>NAME_TIM::base_clock&lt; _precision &gt;</title>
<polygon fill="#ffffff" stroke="transparent" points="-4,4 -4,-194 117,-194 117,4 -4,4"/>
<!-- Node1 -->
<g id="node1" class="node">
<title>Node1</title>
<polygon fill="#bfbfbf" stroke="#000000" points="0,-.5 0,-76.5 113,-76.5 113,-.5 0,-.5"/>
<text text-anchor="start" x="8" y="-62.9" font-family="Helvetica,sans-Serif" font-size="12.00" fill="#000000">NAME_TIM::base_clock</text>
<text text-anchor="middle" x="56.5" y="-49.9" font-family="Helvetica,sans-Serif" font-size="12.00" fill="#000000">&lt; _precision &gt;</text>
<polyline fill="none" stroke="#000000" points="0,-42.5 113,-42.5 "/>
<text text-anchor="middle" x="56.5" y="-28.9" font-family="Helvetica,sans-Serif" font-size="12.00" fill="#000000"> </text>
<polyline fill="none" stroke="#000000" points="0,-21.5 113,-21.5 "/>
<text text-anchor="start" x="8" y="-7.9" font-family="Helvetica,sans-Serif" font-size="12.00" fill="#000000">+ now()</text>
</g>
<!-- Node2 -->
<g id="node2" class="node">
<title>Node2</title>
<polygon fill="#ffffff" stroke="#bfbfbf" points="7,-126.5 7,-189.5 106,-189.5 106,-126.5 7,-126.5"/>
<text text-anchor="middle" x="56.5" y="-175.9" font-family="Helvetica,sans-Serif" font-size="12.00" fill="#000000">static constexpr bool</text>
<polyline fill="none" stroke="#bfbfbf" points="7,-168.5 106,-168.5 "/>
<text text-anchor="middle" x="56.5" y="-154.9" font-family="Helvetica,sans-Serif" font-size="12.00" fill="#000000"> </text>
<polyline fill="none" stroke="#bfbfbf" points="7,-147.5 106,-147.5 "/>
<text text-anchor="middle" x="56.5" y="-133.9" font-family="Helvetica,sans-Serif" font-size="12.00" fill="#000000"> </text>
</g>
<!-- Node2&#45;&gt;Node1 -->
<g id="edge1" class="edge">
<title>Node2&#45;&gt;Node1</title>
<path fill="none" stroke="#404040" d="M56.5,-126.2899C56.5,-114.8809 56.5,-101.708 56.5,-89.0928"/>
<polygon fill="none" stroke="#404040" points="56.5001,-88.7496 52.5,-82.7497 56.5,-76.7496 60.5,-82.7496 56.5001,-88.7496"/>
<text text-anchor="middle" x="79.5" y="-98.4" font-family="Helvetica,sans-Serif" font-size="12.00" fill="#000000"> +is_steady</text>
</g>
</g>
</svg>
