<?xml version="1.0" encoding="UTF-8" standalone="no"?>
<!DOCTYPE svg PUBLIC "-//W3C//DTD SVG 1.1//EN"
 "http://www.w3.org/Graphics/SVG/1.1/DTD/svg11.dtd">
<!-- Generated by graphviz version 2.40.1 (20161225.0304)
 -->
<!-- Title: NAME_TIM::internal::base_timer Pages: 1 -->
<svg width="965pt" height="1395pt"
 viewBox="0.00 0.00 965.00 1395.00" xmlns="http://www.w3.org/2000/svg" xmlns:xlink="http://www.w3.org/1999/xlink">
<g id="graph0" class="graph" transform="scale(1 1) rotate(0) translate(4 1391)">
<title>NAME_TIM::internal::base_timer</title>
<polygon fill="#ffffff" stroke="transparent" points="-4,4 -4,-1391 961,-1391 961,4 -4,4"/>
<!-- Node2 -->
<g id="node1" class="node">
<title>Node2</title>
<polygon fill="#bfbfbf" stroke="#000000" points="494,-.5 494,-271.5 592,-271.5 592,-.5 494,-.5"/>
<text text-anchor="start" x="502" y="-257.9" font-family="Helvetica,sans-Serif" font-size="12.00" fill="#000000">NAME_TIM::internal</text>
<text text-anchor="middle" x="543" y="-244.9" font-family="Helvetica,sans-Serif" font-size="12.00" fill="#000000">::base_timer</text>
<polyline fill="none" stroke="#000000" points="494,-237.5 592,-237.5 "/>
<text text-anchor="middle" x="543" y="-223.9" font-family="Helvetica,sans-Serif" font-size="12.00" fill="#000000"> </text>
<polyline fill="none" stroke="#000000" points="494,-216.5 592,-216.5 "/>
<text text-anchor="start" x="502" y="-202.9" font-family="Helvetica,sans-Serif" font-size="12.00" fill="#000000">+ base_timer()</text>
<text text-anchor="start" x="502" y="-189.9" font-family="Helvetica,sans-Serif" font-size="12.00" fill="#000000">+ ~base_timer()</text>
<text text-anchor="start" x="502" y="-176.9" font-family="Helvetica,sans-Serif" font-size="12.00" fill="#000000">+ base_timer()</text>
<text text-anchor="start" x="502" y="-163.9" font-family="Helvetica,sans-Serif" font-size="12.00" fill="#000000">+ operator=()</text>
<text text-anchor="start" x="502" y="-150.9" font-family="Helvetica,sans-Serif" font-size="12.00" fill="#000000">+ start()</text>
<text text-anchor="start" x="502" y="-137.9" font-family="Helvetica,sans-Serif" font-size="12.00" fill="#000000">+ stop()</text>
<text text-anchor="start" x="502" y="-124.9" font-family="Helvetica,sans-Serif" font-size="12.00" fill="#000000">+ is_valid()</text>
<text text-anchor="start" x="502" y="-111.9" font-family="Helvetica,sans-Serif" font-size="12.00" fill="#000000">+ real_elapsed()</text>
<text text-anchor="start" x="502" y="-98.9" font-family="Helvetica,sans-Serif" font-size="12.00" fill="#000000">+ system_elapsed()</text>
<text text-anchor="start" x="502" y="-85.9" font-family="Helvetica,sans-Serif" font-size="12.00" fill="#000000">+ user_elapsed()</text>
<text text-anchor="start" x="502" y="-72.9" font-family="Helvetica,sans-Serif" font-size="12.00" fill="#000000">and 15 more...</text>
<text text-anchor="start" x="502" y="-59.9" font-family="Helvetica,sans-Serif" font-size="12.00" fill="#000000"># parse_format()</text>
<text text-anchor="start" x="502" y="-46.9" font-family="Helvetica,sans-Serif" font-size="12.00" fill="#000000"># compose()</text>
<text text-anchor="start" x="502" y="-33.9" font-family="Helvetica,sans-Serif" font-size="12.00" fill="#000000"># m_timer()</text>
<text text-anchor="start" x="502" y="-20.9" font-family="Helvetica,sans-Serif" font-size="12.00" fill="#000000"># get_accum()</text>
<text text-anchor="start" x="502" y="-7.9" font-family="Helvetica,sans-Serif" font-size="12.00" fill="#000000"># get_accum()</text>
</g>
<!-- Node3 -->
<g id="node2" class="node">
<title>Node3</title>
<g id="a_node2"><a xlink:href="../../dc/d73/class_n_a_m_e___t_i_m_1_1internal_1_1base__timer__delta.html" target="_top" xlink:title="{NAME_TIM::internal\l::base_timer_delta\n||+ base_timer_delta()\l+ reset()\l+ operator=()\l+ operator+=()\l+ operator+=()\l+ operator+=()\l+ operator&#45;=()\l+ operator/=()\l+ get_sum()\l+ get_sqr()\l+ size()\l+ rss()\l+ rss()\l# compute()\l# compute_sum()\l# compute_sqr()\l# divide_sum()\l# divide_sqr()\l}">
<polygon fill="#ffffff" stroke="#000000" points="283.5,-321.5 283.5,-618.5 382.5,-618.5 382.5,-321.5 283.5,-321.5"/>
<text text-anchor="start" x="291.5" y="-604.9" font-family="Helvetica,sans-Serif" font-size="12.00" fill="#000000">NAME_TIM::internal</text>
<text text-anchor="middle" x="333" y="-591.9" font-family="Helvetica,sans-Serif" font-size="12.00" fill="#000000">::base_timer_delta</text>
<polyline fill="none" stroke="#000000" points="283.5,-584.5 382.5,-584.5 "/>
<text text-anchor="middle" x="333" y="-570.9" font-family="Helvetica,sans-Serif" font-size="12.00" fill="#000000"> </text>
<polyline fill="none" stroke="#000000" points="283.5,-563.5 382.5,-563.5 "/>
<text text-anchor="start" x="291.5" y="-549.9" font-family="Helvetica,sans-Serif" font-size="12.00" fill="#000000">+ base_timer_delta()</text>
<text text-anchor="start" x="291.5" y="-536.9" font-family="Helvetica,sans-Serif" font-size="12.00" fill="#000000">+ reset()</text>
<text text-anchor="start" x="291.5" y="-523.9" font-family="Helvetica,sans-Serif" font-size="12.00" fill="#000000">+ operator=()</text>
<text text-anchor="start" x="291.5" y="-510.9" font-family="Helvetica,sans-Serif" font-size="12.00" fill="#000000">+ operator+=()</text>
<text text-anchor="start" x="291.5" y="-497.9" font-family="Helvetica,sans-Serif" font-size="12.00" fill="#000000">+ operator+=()</text>
<text text-anchor="start" x="291.5" y="-484.9" font-family="Helvetica,sans-Serif" font-size="12.00" fill="#000000">+ operator+=()</text>
<text text-anchor="start" x="291.5" y="-471.9" font-family="Helvetica,sans-Serif" font-size="12.00" fill="#000000">+ operator&#45;=()</text>
<text text-anchor="start" x="291.5" y="-458.9" font-family="Helvetica,sans-Serif" font-size="12.00" fill="#000000">+ operator/=()</text>
<text text-anchor="start" x="291.5" y="-445.9" font-family="Helvetica,sans-Serif" font-size="12.00" fill="#000000">+ get_sum()</text>
<text text-anchor="start" x="291.5" y="-432.9" font-family="Helvetica,sans-Serif" font-size="12.00" fill="#000000">+ get_sqr()</text>
<text text-anchor="start" x="291.5" y="-419.9" font-family="Helvetica,sans-Serif" font-size="12.00" fill="#000000">+ size()</text>
<text text-anchor="start" x="291.5" y="-406.9" font-family="Helvetica,sans-Serif" font-size="12.00" fill="#000000">+ rss()</text>
<text text-anchor="start" x="291.5" y="-393.9" font-family="Helvetica,sans-Serif" font-size="12.00" fill="#000000">+ rss()</text>
<text text-anchor="start" x="291.5" y="-380.9" font-family="Helvetica,sans-Serif" font-size="12.00" fill="#000000"># compute()</text>
<text text-anchor="start" x="291.5" y="-367.9" font-family="Helvetica,sans-Serif" font-size="12.00" fill="#000000"># compute_sum()</text>
<text text-anchor="start" x="291.5" y="-354.9" font-family="Helvetica,sans-Serif" font-size="12.00" fill="#000000"># compute_sqr()</text>
<text text-anchor="start" x="291.5" y="-341.9" font-family="Helvetica,sans-Serif" font-size="12.00" fill="#000000"># divide_sum()</text>
<text text-anchor="start" x="291.5" y="-328.9" font-family="Helvetica,sans-Serif" font-size="12.00" fill="#000000"># divide_sqr()</text>
</a>
</g>
</g>
<!-- Node3&#45;&gt;Node2 -->
<g id="edge1" class="edge">
<title>Node3&#45;&gt;Node2</title>
<path fill="none" stroke="#404040" d="M380.1688,-321.2972C385.3248,-310.4494 390.9307,-299.8953 397,-290 420.6533,-251.4357 455.2077,-214.4345 484.7629,-186.37"/>
<polygon fill="none" stroke="#404040" points="484.9941,-186.1537 486.6429,-179.1335 493.7571,-177.9554 492.1084,-184.9755 484.9941,-186.1537"/>
<text text-anchor="middle" x="420.5" y="-293.4" font-family="Helvetica,sans-Serif" font-size="12.00" fill="#000000"> #m_accum</text>
</g>
<!-- Node4 -->
<g id="node3" class="node">
<title>Node4</title>
<polygon fill="#ffffff" stroke="#bfbfbf" points="400.5,-772.5 400.5,-835.5 449.5,-835.5 449.5,-772.5 400.5,-772.5"/>
<text text-anchor="middle" x="425" y="-821.9" font-family="Helvetica,sans-Serif" font-size="12.00" fill="#000000">uint64_t</text>
<polyline fill="none" stroke="#bfbfbf" points="400.5,-814.5 449.5,-814.5 "/>
<text text-anchor="middle" x="425" y="-800.9" font-family="Helvetica,sans-Serif" font-size="12.00" fill="#000000"> </text>
<polyline fill="none" stroke="#bfbfbf" points="400.5,-793.5 449.5,-793.5 "/>
<text text-anchor="middle" x="425" y="-779.9" font-family="Helvetica,sans-Serif" font-size="12.00" fill="#000000"> </text>
</g>
<!-- Node4&#45;&gt;Node3 -->
<g id="edge2" class="edge">
<title>Node4&#45;&gt;Node3</title>
<path fill="none" stroke="#404040" d="M416.2619,-772.277C407.1106,-739.0537 392.0309,-684.308 377.201,-630.4689"/>
<polygon fill="none" stroke="#404040" points="377.1298,-630.2101 371.68,-625.4878 373.943,-618.641 379.3928,-623.3633 377.1298,-630.2101"/>
<text text-anchor="middle" x="401.5" y="-646.9" font-family="Helvetica,sans-Serif" font-size="12.00" fill="#000000"> #m_lap</text>
</g>
<!-- Node5 -->
<g id="node4" class="node">
<title>Node5</title>
<g id="a_node4"><a xlink:href="../../d5/d6c/class_n_a_m_e___t_i_m_1_1internal_1_1base__rss__usage.html" target="_top" xlink:title="{NAME_TIM::internal\l::base_rss_usage\n||+ init()\l+ record()\l+ total()\l+ self()\l+ total()\l+ self()\l+ total_min()\l+ self_min()\l+ total_min()\l+ self_min()\l+ max()\l+ operator+=()\l+ operator&#45;=()\l+ operator=()\l}">
<polygon fill="#ffffff" stroke="#000000" points="166,-681.5 166,-926.5 264,-926.5 264,-681.5 166,-681.5"/>
<text text-anchor="start" x="174" y="-912.9" font-family="Helvetica,sans-Serif" font-size="12.00" fill="#000000">NAME_TIM::internal</text>
<text text-anchor="middle" x="215" y="-899.9" font-family="Helvetica,sans-Serif" font-size="12.00" fill="#000000">::base_rss_usage</text>
<polyline fill="none" stroke="#000000" points="166,-892.5 264,-892.5 "/>
<text text-anchor="middle" x="215" y="-878.9" font-family="Helvetica,sans-Serif" font-size="12.00" fill="#000000"> </text>
<polyline fill="none" stroke="#000000" points="166,-871.5 264,-871.5 "/>
<text text-anchor="start" x="174" y="-857.9" font-family="Helvetica,sans-Serif" font-size="12.00" fill="#000000">+ init()</text>
<text text-anchor="start" x="174" y="-844.9" font-family="Helvetica,sans-Serif" font-size="12.00" fill="#000000">+ record()</text>
<text text-anchor="start" x="174" y="-831.9" font-family="Helvetica,sans-Serif" font-size="12.00" fill="#000000">+ total()</text>
<text text-anchor="start" x="174" y="-818.9" font-family="Helvetica,sans-Serif" font-size="12.00" fill="#000000">+ self()</text>
<text text-anchor="start" x="174" y="-805.9" font-family="Helvetica,sans-Serif" font-size="12.00" fill="#000000">+ total()</text>
<text text-anchor="start" x="174" y="-792.9" font-family="Helvetica,sans-Serif" font-size="12.00" fill="#000000">+ self()</text>
<text text-anchor="start" x="174" y="-779.9" font-family="Helvetica,sans-Serif" font-size="12.00" fill="#000000">+ total_min()</text>
<text text-anchor="start" x="174" y="-766.9" font-family="Helvetica,sans-Serif" font-size="12.00" fill="#000000">+ self_min()</text>
<text text-anchor="start" x="174" y="-753.9" font-family="Helvetica,sans-Serif" font-size="12.00" fill="#000000">+ total_min()</text>
<text text-anchor="start" x="174" y="-740.9" font-family="Helvetica,sans-Serif" font-size="12.00" fill="#000000">+ self_min()</text>
<text text-anchor="start" x="174" y="-727.9" font-family="Helvetica,sans-Serif" font-size="12.00" fill="#000000">+ max()</text>
<text text-anchor="start" x="174" y="-714.9" font-family="Helvetica,sans-Serif" font-size="12.00" fill="#000000">+ operator+=()</text>
<text text-anchor="start" x="174" y="-701.9" font-family="Helvetica,sans-Serif" font-size="12.00" fill="#000000">+ operator&#45;=()</text>
<text text-anchor="start" x="174" y="-688.9" font-family="Helvetica,sans-Serif" font-size="12.00" fill="#000000">+ operator=()</text>
</a>
</g>
</g>
<!-- Node5&#45;&gt;Node3 -->
<g id="edge3" class="edge">
<title>Node5&#45;&gt;Node3</title>
<path fill="none" stroke="#404040" d="M258.4361,-681.0536C265.2796,-661.683 272.424,-641.4608 279.4638,-621.5347"/>
<polygon fill="none" stroke="#404040" points="279.4795,-621.4901 277.7067,-614.5003 283.4769,-610.1754 285.2498,-617.1652 279.4795,-621.4901"/>
<text text-anchor="middle" x="290.5" y="-646.9" font-family="Helvetica,sans-Serif" font-size="12.00" fill="#000000"> #m_rss</text>
</g>
<!-- Node9 -->
<g id="node8" class="node">
<title>Node9</title>
<g id="a_node8"><a xlink:href="../../d0/d62/class_n_a_m_e___t_i_m_1_1internal_1_1base__timer__data.html" target="_top" xlink:title="{NAME_TIM::internal\l::base_timer_data\n||+ base_timer_data()\l+ start()\l+ stop()\l+ start()\l+ stop()\l+ running()\l+ serialize()\l+ rss_init()\l+ rss_record()\l+ rss()\l+ rss()\l+ operator=()\l}">
<polygon fill="#ffffff" stroke="#000000" points="95,-360.5 95,-579.5 193,-579.5 193,-360.5 95,-360.5"/>
<text text-anchor="start" x="103" y="-565.9" font-family="Helvetica,sans-Serif" font-size="12.00" fill="#000000">NAME_TIM::internal</text>
<text text-anchor="middle" x="144" y="-552.9" font-family="Helvetica,sans-Serif" font-size="12.00" fill="#000000">::base_timer_data</text>
<polyline fill="none" stroke="#000000" points="95,-545.5 193,-545.5 "/>
<text text-anchor="middle" x="144" y="-531.9" font-family="Helvetica,sans-Serif" font-size="12.00" fill="#000000"> </text>
<polyline fill="none" stroke="#000000" points="95,-524.5 193,-524.5 "/>
<text text-anchor="start" x="103" y="-510.9" font-family="Helvetica,sans-Serif" font-size="12.00" fill="#000000">+ base_timer_data()</text>
<text text-anchor="start" x="103" y="-497.9" font-family="Helvetica,sans-Serif" font-size="12.00" fill="#000000">+ start()</text>
<text text-anchor="start" x="103" y="-484.9" font-family="Helvetica,sans-Serif" font-size="12.00" fill="#000000">+ stop()</text>
<text text-anchor="start" x="103" y="-471.9" font-family="Helvetica,sans-Serif" font-size="12.00" fill="#000000">+ start()</text>
<text text-anchor="start" x="103" y="-458.9" font-family="Helvetica,sans-Serif" font-size="12.00" fill="#000000">+ stop()</text>
<text text-anchor="start" x="103" y="-445.9" font-family="Helvetica,sans-Serif" font-size="12.00" fill="#000000">+ running()</text>
<text text-anchor="start" x="103" y="-432.9" font-family="Helvetica,sans-Serif" font-size="12.00" fill="#000000">+ serialize()</text>
<text text-anchor="start" x="103" y="-419.9" font-family="Helvetica,sans-Serif" font-size="12.00" fill="#000000">+ rss_init()</text>
<text text-anchor="start" x="103" y="-406.9" font-family="Helvetica,sans-Serif" font-size="12.00" fill="#000000">+ rss_record()</text>
<text text-anchor="start" x="103" y="-393.9" font-family="Helvetica,sans-Serif" font-size="12.00" fill="#000000">+ rss()</text>
<text text-anchor="start" x="103" y="-380.9" font-family="Helvetica,sans-Serif" font-size="12.00" fill="#000000">+ rss()</text>
<text text-anchor="start" x="103" y="-367.9" font-family="Helvetica,sans-Serif" font-size="12.00" fill="#000000">+ operator=()</text>
</a>
</g>
</g>
<!-- Node5&#45;&gt;Node9 -->
<g id="edge8" class="edge">
<title>Node5&#45;&gt;Node9</title>
<path fill="none" stroke="#404040" d="M188.8647,-681.0536C182.6615,-651.8724 176.0474,-620.7584 169.8567,-591.6359"/>
<polygon fill="none" stroke="#404040" points="169.8194,-591.46 164.6592,-586.4229 167.3242,-579.7223 172.4844,-584.7594 169.8194,-591.46"/>
<text text-anchor="middle" x="200.5" y="-646.9" font-family="Helvetica,sans-Serif" font-size="12.00" fill="#000000"> #m_rss</text>
</g>
<!-- Node6 -->
<g id="node5" class="node">
<title>Node6</title>
<g id="a_node5"><a xlink:href="../../df/d64/struct_n_a_m_e___t_i_m_1_1rss_1_1usage.html" target="_top" xlink:title="{NAME_TIM::rss::usage\n||+ usage()\l+ usage()\l+ usage()\l+ operator=()\l+ record()\l+ record()\l+ operator()()\l+ operator+=()\l+ operator&#45;=()\l+ current()\l+ peak()\l+ serialize()\l+ max()\l+ min()\l}">
<polygon fill="#ffffff" stroke="#000000" points="160,-1028.5 160,-1260.5 270,-1260.5 270,-1028.5 160,-1028.5"/>
<text text-anchor="middle" x="215" y="-1246.9" font-family="Helvetica,sans-Serif" font-size="12.00" fill="#000000">NAME_TIM::rss::usage</text>
<polyline fill="none" stroke="#000000" points="160,-1239.5 270,-1239.5 "/>
<text text-anchor="middle" x="215" y="-1225.9" font-family="Helvetica,sans-Serif" font-size="12.00" fill="#000000"> </text>
<polyline fill="none" stroke="#000000" points="160,-1218.5 270,-1218.5 "/>
<text text-anchor="start" x="168" y="-1204.9" font-family="Helvetica,sans-Serif" font-size="12.00" fill="#000000">+ usage()</text>
<text text-anchor="start" x="168" y="-1191.9" font-family="Helvetica,sans-Serif" font-size="12.00" fill="#000000">+ usage()</text>
<text text-anchor="start" x="168" y="-1178.9" font-family="Helvetica,sans-Serif" font-size="12.00" fill="#000000">+ usage()</text>
<text text-anchor="start" x="168" y="-1165.9" font-family="Helvetica,sans-Serif" font-size="12.00" fill="#000000">+ operator=()</text>
<text text-anchor="start" x="168" y="-1152.9" font-family="Helvetica,sans-Serif" font-size="12.00" fill="#000000">+ record()</text>
<text text-anchor="start" x="168" y="-1139.9" font-family="Helvetica,sans-Serif" font-size="12.00" fill="#000000">+ record()</text>
<text text-anchor="start" x="168" y="-1126.9" font-family="Helvetica,sans-Serif" font-size="12.00" fill="#000000">+ operator()()</text>
<text text-anchor="start" x="168" y="-1113.9" font-family="Helvetica,sans-Serif" font-size="12.00" fill="#000000">+ operator+=()</text>
<text text-anchor="start" x="168" y="-1100.9" font-family="Helvetica,sans-Serif" font-size="12.00" fill="#000000">+ operator&#45;=()</text>
<text text-anchor="start" x="168" y="-1087.9" font-family="Helvetica,sans-Serif" font-size="12.00" fill="#000000">+ current()</text>
<text text-anchor="start" x="168" y="-1074.9" font-family="Helvetica,sans-Serif" font-size="12.00" fill="#000000">+ peak()</text>
<text text-anchor="start" x="168" y="-1061.9" font-family="Helvetica,sans-Serif" font-size="12.00" fill="#000000">+ serialize()</text>
<text text-anchor="start" x="168" y="-1048.9" font-family="Helvetica,sans-Serif" font-size="12.00" fill="#000000">+ max()</text>
<text text-anchor="start" x="168" y="-1035.9" font-family="Helvetica,sans-Serif" font-size="12.00" fill="#000000">+ min()</text>
</a>
</g>
</g>
<!-- Node6&#45;&gt;Node5 -->
<g id="edge4" class="edge">
<title>Node6&#45;&gt;Node5</title>
<path fill="none" stroke="#404040" d="M215,-1028.2716C215,-999.4859 215,-968.4017 215,-938.8119"/>
<polygon fill="none" stroke="#404040" points="215.0001,-938.6765 211,-932.6765 215,-926.6765 219,-932.6764 215.0001,-938.6765"/>
<text text-anchor="middle" x="249.5" y="-1000.4" font-family="Helvetica,sans-Serif" font-size="12.00" fill="#000000"> #m_rss_tmp</text>
<text text-anchor="middle" x="249.5" y="-987.4" font-family="Helvetica,sans-Serif" font-size="12.00" fill="#000000">#m_rss_self</text>
<text text-anchor="middle" x="249.5" y="-974.4" font-family="Helvetica,sans-Serif" font-size="12.00" fill="#000000">#m_rss_tot</text>
<text text-anchor="middle" x="249.5" y="-961.4" font-family="Helvetica,sans-Serif" font-size="12.00" fill="#000000">#m_rss_self_min</text>
<text text-anchor="middle" x="249.5" y="-948.4" font-family="Helvetica,sans-Serif" font-size="12.00" fill="#000000">#m_rss_tot_min</text>
</g>
<!-- Node7 -->
<g id="node6" class="node">
<title>Node7</title>
<polygon fill="#ffffff" stroke="#bfbfbf" points="193,-1323.5 193,-1386.5 237,-1386.5 237,-1323.5 193,-1323.5"/>
<text text-anchor="middle" x="215" y="-1372.9" font-family="Helvetica,sans-Serif" font-size="12.00" fill="#000000">int64_t</text>
<polyline fill="none" stroke="#bfbfbf" points="193,-1365.5 237,-1365.5 "/>
<text text-anchor="middle" x="215" y="-1351.9" font-family="Helvetica,sans-Serif" font-size="12.00" fill="#000000"> </text>
<polyline fill="none" stroke="#bfbfbf" points="193,-1344.5 237,-1344.5 "/>
<text text-anchor="middle" x="215" y="-1330.9" font-family="Helvetica,sans-Serif" font-size="12.00" fill="#000000"> </text>
</g>
<!-- Node7&#45;&gt;Node6 -->
<g id="edge5" class="edge">
<title>Node7&#45;&gt;Node6</title>
<path fill="none" stroke="#404040" d="M215,-1323.486C215,-1309.3063 215,-1291.5382 215,-1272.7416"/>
<polygon fill="none" stroke="#404040" points="215.0001,-1272.5998 211,-1266.5998 215,-1260.5998 219,-1266.5997 215.0001,-1272.5998"/>
<text text-anchor="middle" x="242.5" y="-1295.4" font-family="Helvetica,sans-Serif" font-size="12.00" fill="#000000"> +m_curr_rss</text>
<text text-anchor="middle" x="242.5" y="-1282.4" font-family="Helvetica,sans-Serif" font-size="12.00" fill="#000000">+m_peak_rss</text>
</g>
<!-- Node8 -->
<g id="node7" class="node">
<title>Node8</title>
<polygon fill="#ffffff" stroke="#bfbfbf" points="282,-766 282,-842 382,-842 382,-766 282,-766"/>
<text text-anchor="start" x="290" y="-828.4" font-family="Helvetica,sans-Serif" font-size="12.00" fill="#000000">tuple&lt; uint_type, uint</text>
<text text-anchor="middle" x="332" y="-815.4" font-family="Helvetica,sans-Serif" font-size="12.00" fill="#000000">_type, uint_type &gt;</text>
<polyline fill="none" stroke="#bfbfbf" points="282,-808 382,-808 "/>
<text text-anchor="middle" x="332" y="-794.4" font-family="Helvetica,sans-Serif" font-size="12.00" fill="#000000"> </text>
<polyline fill="none" stroke="#bfbfbf" points="282,-787 382,-787 "/>
<text text-anchor="middle" x="332" y="-773.4" font-family="Helvetica,sans-Serif" font-size="12.00" fill="#000000"> </text>
</g>
<!-- Node8&#45;&gt;Node3 -->
<g id="edge6" class="edge">
<title>Node8&#45;&gt;Node3</title>
<path fill="none" stroke="#404040" d="M332.1147,-765.686C332.2152,-732.1352 332.3683,-681.0017 332.519,-630.6404"/>
<polygon fill="none" stroke="#404040" points="332.5192,-630.5525 328.5372,-624.5405 332.5552,-618.5526 336.5372,-624.5646 332.5192,-630.5525"/>
<text text-anchor="middle" x="352" y="-653.4" font-family="Helvetica,sans-Serif" font-size="12.00" fill="#000000"> #m_sum</text>
<text text-anchor="middle" x="352" y="-640.4" font-family="Helvetica,sans-Serif" font-size="12.00" fill="#000000">#m_sqr</text>
</g>
<!-- Node9&#45;&gt;Node2 -->
<g id="edge7" class="edge">
<title>Node9&#45;&gt;Node2</title>
<path fill="none" stroke="#404040" d="M193.2636,-406.624C216.3159,-378.8651 245.0389,-346.8095 274,-321 340.4865,-261.7487 426.6929,-205.5394 483.3666,-170.9583"/>
<polygon fill="none" stroke="#404040" points="483.6815,-170.7674 486.7387,-164.2365 493.9431,-164.5466 490.8859,-171.0776 483.6815,-170.7674"/>
<text text-anchor="middle" x="327" y="-293.4" font-family="Helvetica,sans-Serif" font-size="12.00" fill="#000000"> #m_data</text>
</g>
<!-- Node10 -->
<g id="node9" class="node">
<title>Node10</title>
<polygon fill="#ffffff" stroke="#bfbfbf" points="52.5,-766 52.5,-842 147.5,-842 147.5,-766 52.5,-766"/>
<text text-anchor="start" x="60.5" y="-828.4" font-family="Helvetica,sans-Serif" font-size="12.00" fill="#000000">tuple&lt; time_point_t,</text>
<text text-anchor="middle" x="100" y="-815.4" font-family="Helvetica,sans-Serif" font-size="12.00" fill="#000000"> time_point_t &gt;</text>
<polyline fill="none" stroke="#bfbfbf" points="52.5,-808 147.5,-808 "/>
<text text-anchor="middle" x="100" y="-794.4" font-family="Helvetica,sans-Serif" font-size="12.00" fill="#000000"> </text>
<polyline fill="none" stroke="#bfbfbf" points="52.5,-787 147.5,-787 "/>
<text text-anchor="middle" x="100" y="-773.4" font-family="Helvetica,sans-Serif" font-size="12.00" fill="#000000"> </text>
</g>
<!-- Node10&#45;&gt;Node9 -->
<g id="edge9" class="edge">
<title>Node10&#45;&gt;Node9</title>
<path fill="none" stroke="#404040" d="M105.0474,-765.686C110.613,-723.4376 119.8516,-653.3084 127.9349,-591.9491"/>
<polygon fill="none" stroke="#404040" points="127.9673,-591.7022 124.7852,-585.2311 129.5347,-579.805 132.7167,-586.2761 127.9673,-591.7022"/>
<text text-anchor="middle" x="141" y="-646.9" font-family="Helvetica,sans-Serif" font-size="12.00" fill="#000000"> #m_data</text>
</g>
<!-- Node11 -->
<g id="node10" class="node">
<title>Node11</title>
<polygon fill="#ffffff" stroke="#bfbfbf" points="0,-772.5 0,-835.5 34,-835.5 34,-772.5 0,-772.5"/>
<text text-anchor="middle" x="17" y="-821.9" font-family="Helvetica,sans-Serif" font-size="12.00" fill="#000000">bool</text>
<polyline fill="none" stroke="#bfbfbf" points="0,-814.5 34,-814.5 "/>
<text text-anchor="middle" x="17" y="-800.9" font-family="Helvetica,sans-Serif" font-size="12.00" fill="#000000"> </text>
<polyline fill="none" stroke="#bfbfbf" points="0,-793.5 34,-793.5 "/>
<text text-anchor="middle" x="17" y="-779.9" font-family="Helvetica,sans-Serif" font-size="12.00" fill="#000000"> </text>
</g>
<!-- Node11&#45;&gt;Node9 -->
<g id="edge10" class="edge">
<title>Node11&#45;&gt;Node9</title>
<path fill="none" stroke="#404040" d="M21.5578,-772.3582C25.6894,-747.182 32.718,-711.2769 43,-681 55.5206,-644.1313 72.8289,-605.2837 89.5828,-571.1106"/>
<polygon fill="none" stroke="#404040" points="89.6673,-570.9401 88.7477,-563.7878 94.9961,-560.1882 95.9157,-567.3404 89.6673,-570.9401"/>
<text text-anchor="middle" x="84.5" y="-646.9" font-family="Helvetica,sans-Serif" font-size="12.00" fill="#000000"> #m_running</text>
</g>
<!-- Node12 -->
<g id="node11" class="node">
<title>Node12</title>
<polygon fill="#ffffff" stroke="#bfbfbf" points="402.5,-438.5 402.5,-501.5 451.5,-501.5 451.5,-438.5 402.5,-438.5"/>
<text text-anchor="middle" x="427" y="-487.9" font-family="Helvetica,sans-Serif" font-size="12.00" fill="#000000">uint16_t</text>
<polyline fill="none" stroke="#bfbfbf" points="402.5,-480.5 451.5,-480.5 "/>
<text text-anchor="middle" x="427" y="-466.9" font-family="Helvetica,sans-Serif" font-size="12.00" fill="#000000"> </text>
<polyline fill="none" stroke="#bfbfbf" points="402.5,-459.5 451.5,-459.5 "/>
<text text-anchor="middle" x="427" y="-445.9" font-family="Helvetica,sans-Serif" font-size="12.00" fill="#000000"> </text>
</g>
<!-- Node12&#45;&gt;Node2 -->
<g id="edge11" class="edge">
<title>Node12&#45;&gt;Node2</title>
<path fill="none" stroke="#404040" d="M427.3876,-438.2149C428.7035,-401.5339 433.6123,-339.8623 451,-290 459.9372,-264.3711 473.4519,-238.3439 487.3916,-215.1601"/>
<polygon fill="none" stroke="#404040" points="487.5258,-214.9419 487.2612,-207.7356 493.8113,-204.7197 494.0759,-211.926 487.5258,-214.9419"/>
<text text-anchor="middle" x="479.5" y="-293.4" font-family="Helvetica,sans-Serif" font-size="12.00" fill="#000000"> #m_precision</text>
</g>
<!-- Node13 -->
<g id="node12" class="node">
<title>Node13</title>
<polygon fill="#ffffff" stroke="#bfbfbf" points="476.5,-438.5 476.5,-501.5 517.5,-501.5 517.5,-438.5 476.5,-438.5"/>
<text text-anchor="middle" x="497" y="-487.9" font-family="Helvetica,sans-Serif" font-size="12.00" fill="#000000">mutex</text>
<polyline fill="none" stroke="#bfbfbf" points="476.5,-480.5 517.5,-480.5 "/>
<text text-anchor="middle" x="497" y="-466.9" font-family="Helvetica,sans-Serif" font-size="12.00" fill="#000000"> </text>
<polyline fill="none" stroke="#bfbfbf" points="476.5,-459.5 517.5,-459.5 "/>
<text text-anchor="middle" x="497" y="-445.9" font-family="Helvetica,sans-Serif" font-size="12.00" fill="#000000"> </text>
</g>
<!-- Node13&#45;&gt;Node2 -->
<g id="edge12" class="edge">
<title>Node13&#45;&gt;Node2</title>
<path fill="none" stroke="#404040" d="M498.8167,-438.3462C501.1161,-402.3061 505.6836,-341.7215 513,-290 513.2885,-287.9604 513.5862,-285.9069 513.8922,-283.8421"/>
<polygon fill="none" stroke="#404040" points="513.903,-283.7712 510.8634,-277.232 515.7304,-271.9111 518.7701,-278.4503 513.903,-283.7712"/>
<text text-anchor="middle" x="535.5" y="-293.4" font-family="Helvetica,sans-Serif" font-size="12.00" fill="#000000"> #m_mutex</text>
</g>
<!-- Node14 -->
<g id="node13" class="node">
<title>Node14</title>
<polygon fill="#ffffff" stroke="#bfbfbf" points="536,-438.5 536,-501.5 648,-501.5 648,-438.5 536,-438.5"/>
<text text-anchor="middle" x="592" y="-487.9" font-family="Helvetica,sans-Serif" font-size="12.00" fill="#000000">std::vector&lt; fieldpos_t &gt;</text>
<polyline fill="none" stroke="#bfbfbf" points="536,-480.5 648,-480.5 "/>
<text text-anchor="middle" x="592" y="-466.9" font-family="Helvetica,sans-Serif" font-size="12.00" fill="#000000"> </text>
<polyline fill="none" stroke="#bfbfbf" points="536,-459.5 648,-459.5 "/>
<text text-anchor="middle" x="592" y="-445.9" font-family="Helvetica,sans-Serif" font-size="12.00" fill="#000000"> </text>
</g>
<!-- Node14&#45;&gt;Node2 -->
<g id="edge13" class="edge">
<title>Node14&#45;&gt;Node2</title>
<path fill="none" stroke="#404040" d="M587.346,-438.277C582.0827,-402.4007 573.1376,-341.4277 564.6539,-283.6002"/>
<polygon fill="none" stroke="#404040" points="564.6504,-283.5754 559.8218,-278.2195 562.9084,-271.7024 567.737,-277.0583 564.6504,-283.5754"/>
<text text-anchor="middle" x="611.5" y="-293.4" font-family="Helvetica,sans-Serif" font-size="12.00" fill="#000000"> #m_format_positions</text>
</g>
<!-- Node15 -->
<g id="node14" class="node">
<title>Node15</title>
<polygon fill="#ffffff" stroke="#bfbfbf" points="564.5,-772.5 564.5,-835.5 619.5,-835.5 619.5,-772.5 564.5,-772.5"/>
<text text-anchor="middle" x="592" y="-821.9" font-family="Helvetica,sans-Serif" font-size="12.00" fill="#000000">fieldpos_t</text>
<polyline fill="none" stroke="#bfbfbf" points="564.5,-814.5 619.5,-814.5 "/>
<text text-anchor="middle" x="592" y="-800.9" font-family="Helvetica,sans-Serif" font-size="12.00" fill="#000000"> </text>
<polyline fill="none" stroke="#bfbfbf" points="564.5,-793.5 619.5,-793.5 "/>
<text text-anchor="middle" x="592" y="-779.9" font-family="Helvetica,sans-Serif" font-size="12.00" fill="#000000"> </text>
</g>
<!-- Node15&#45;&gt;Node14 -->
<g id="edge14" class="edge">
<title>Node15&#45;&gt;Node14</title>
<path fill="none" stroke="#404040" d="M592,-772.277C592,-712.3101 592,-582.2256 592,-513.914"/>
<polygon fill="none" stroke="#404040" points="592.0001,-513.5112 588,-507.5112 592,-501.5112 596,-507.5111 592.0001,-513.5112"/>
<text text-anchor="middle" x="614.5" y="-646.9" font-family="Helvetica,sans-Serif" font-size="12.00" fill="#000000"> +elements</text>
</g>
<!-- Node16 -->
<g id="node15" class="node">
<title>Node16</title>
<g id="a_node15"><a xlink:title="STL class. ">
<polygon fill="#ffffff" stroke="#bfbfbf" points="467.5,-772.5 467.5,-835.5 546.5,-835.5 546.5,-772.5 467.5,-772.5"/>
<text text-anchor="middle" x="507" y="-821.9" font-family="Helvetica,sans-Serif" font-size="12.00" fill="#000000">std::vector&lt; T &gt;</text>
<polyline fill="none" stroke="#bfbfbf" points="467.5,-814.5 546.5,-814.5 "/>
<text text-anchor="middle" x="507" y="-800.9" font-family="Helvetica,sans-Serif" font-size="12.00" fill="#000000"> </text>
<polyline fill="none" stroke="#bfbfbf" points="467.5,-793.5 546.5,-793.5 "/>
<text text-anchor="middle" x="507" y="-779.9" font-family="Helvetica,sans-Serif" font-size="12.00" fill="#000000"> </text>
</a>
</g>
</g>
<!-- Node16&#45;&gt;Node14 -->
<g id="edge15" class="edge">
<title>Node16&#45;&gt;Node14</title>
<path fill="none" stroke="#ffa500" d="M510.5829,-762.1635C514.0785,-728.1007 520.4432,-678.9606 531,-637 543.1626,-588.6568 564.2564,-534.8459 578.1723,-501.7058"/>
<polygon fill="#ffa500" stroke="#ffa500" points="507.089,-761.9304 509.5888,-772.2261 514.0551,-762.6187 507.089,-761.9304"/>
<text text-anchor="middle" x="559.5" y="-646.9" font-family="Helvetica,sans-Serif" font-size="12.00" fill="#000000"> &lt; fieldpos_t &gt;</text>
</g>
<!-- Node17 -->
<g id="node16" class="node">
<title>Node17</title>
<polygon fill="#ffffff" stroke="#bfbfbf" points="542.5,-1113 542.5,-1176 571.5,-1176 571.5,-1113 542.5,-1113"/>
<text text-anchor="middle" x="557" y="-1162.4" font-family="Helvetica,sans-Serif" font-size="12.00" fill="#000000">T</text>
<polyline fill="none" stroke="#bfbfbf" points="542.5,-1155 571.5,-1155 "/>
<text text-anchor="middle" x="557" y="-1141.4" font-family="Helvetica,sans-Serif" font-size="12.00" fill="#000000"> </text>
<polyline fill="none" stroke="#bfbfbf" points="542.5,-1134 571.5,-1134 "/>
<text text-anchor="middle" x="557" y="-1120.4" font-family="Helvetica,sans-Serif" font-size="12.00" fill="#000000"> </text>
</g>
<!-- Node17&#45;&gt;Node16 -->
<g id="edge16" class="edge">
<title>Node17&#45;&gt;Node16</title>
<path fill="none" stroke="#404040" d="M549.836,-1112.8439C543.8823,-1085.6759 535.5212,-1045.4161 530,-1010 521.3095,-954.2539 514.637,-889.5249 510.7703,-847.7242"/>
<polygon fill="none" stroke="#404040" points="510.7477,-847.4738 506.2209,-841.8605 509.6613,-835.523 514.1881,-841.1363 510.7477,-847.4738"/>
<text text-anchor="middle" x="552.5" y="-974.4" font-family="Helvetica,sans-Serif" font-size="12.00" fill="#000000"> +elements</text>
</g>
<!-- Node20 -->
<g id="node19" class="node">
<title>Node20</title>
<g id="a_node19"><a xlink:title="STL class. ">
<polygon fill="#ffffff" stroke="#bfbfbf" points="637.5,-766 637.5,-842 734.5,-842 734.5,-766 637.5,-766"/>
<text text-anchor="start" x="645.5" y="-828.4" font-family="Helvetica,sans-Serif" font-size="12.00" fill="#000000">std::unordered_map</text>
<text text-anchor="middle" x="686" y="-815.4" font-family="Helvetica,sans-Serif" font-size="12.00" fill="#000000">&lt; K, T &gt;</text>
<polyline fill="none" stroke="#bfbfbf" points="637.5,-808 734.5,-808 "/>
<text text-anchor="middle" x="686" y="-794.4" font-family="Helvetica,sans-Serif" font-size="12.00" fill="#000000"> </text>
<polyline fill="none" stroke="#bfbfbf" points="637.5,-787 734.5,-787 "/>
<text text-anchor="middle" x="686" y="-773.4" font-family="Helvetica,sans-Serif" font-size="12.00" fill="#000000"> </text>
</a>
</g>
</g>
<!-- Node17&#45;&gt;Node20 -->
<g id="edge21" class="edge">
<title>Node17&#45;&gt;Node20</title>
<path fill="none" stroke="#404040" d="M569.0202,-1112.7724C591.5644,-1053.266 640.3403,-924.5204 667.2426,-853.5108"/>
<polygon fill="none" stroke="#404040" points="667.2724,-853.4319 665.6576,-846.4039 671.5239,-842.2102 673.1387,-849.2382 667.2724,-853.4319"/>
<text text-anchor="middle" x="652.5" y="-974.4" font-family="Helvetica,sans-Serif" font-size="12.00" fill="#000000"> +elements</text>
</g>
<!-- Node18 -->
<g id="node17" class="node">
<title>Node18</title>
<g id="a_node17"><a xlink:title="STL class. ">
<polygon fill="#ffffff" stroke="#bfbfbf" points="767,-438.5 767,-501.5 823,-501.5 823,-438.5 767,-438.5"/>
<text text-anchor="middle" x="795" y="-487.9" font-family="Helvetica,sans-Serif" font-size="12.00" fill="#000000">std::string</text>
<polyline fill="none" stroke="#bfbfbf" points="767,-480.5 823,-480.5 "/>
<text text-anchor="middle" x="795" y="-466.9" font-family="Helvetica,sans-Serif" font-size="12.00" fill="#000000"> </text>
<polyline fill="none" stroke="#bfbfbf" points="767,-459.5 823,-459.5 "/>
<text text-anchor="middle" x="795" y="-445.9" font-family="Helvetica,sans-Serif" font-size="12.00" fill="#000000"> </text>
</a>
</g>
</g>
<!-- Node18&#45;&gt;Node2 -->
<g id="edge17" class="edge">
<title>Node18&#45;&gt;Node2</title>
<path fill="none" stroke="#404040" d="M791.3732,-438.2096C786.5835,-406.4994 775.903,-357.3951 753,-321 714.5458,-259.8927 649.9785,-207.3937 602.5694,-174.0984"/>
<polygon fill="none" stroke="#404040" points="602.2969,-173.9099 595.0868,-173.7865 592.4276,-167.0836 599.6377,-167.207 602.2969,-173.9099"/>
<text text-anchor="middle" x="777.5" y="-293.4" font-family="Helvetica,sans-Serif" font-size="12.00" fill="#000000"> #m_format_string</text>
</g>
<!-- Node19 -->
<g id="node18" class="node">
<title>Node19</title>
<g id="a_node18"><a xlink:title="STL class. ">
<polygon fill="#ffffff" stroke="#bfbfbf" points="752.5,-766 752.5,-842 839.5,-842 839.5,-766 752.5,-766"/>
<text text-anchor="start" x="760.5" y="-828.4" font-family="Helvetica,sans-Serif" font-size="12.00" fill="#000000">std::basic_string&lt;</text>
<text text-anchor="middle" x="796" y="-815.4" font-family="Helvetica,sans-Serif" font-size="12.00" fill="#000000"> char &gt;</text>
<polyline fill="none" stroke="#bfbfbf" points="752.5,-808 839.5,-808 "/>
<text text-anchor="middle" x="796" y="-794.4" font-family="Helvetica,sans-Serif" font-size="12.00" fill="#000000"> </text>
<polyline fill="none" stroke="#bfbfbf" points="752.5,-787 839.5,-787 "/>
<text text-anchor="middle" x="796" y="-773.4" font-family="Helvetica,sans-Serif" font-size="12.00" fill="#000000"> </text>
</a>
</g>
</g>
<!-- Node19&#45;&gt;Node18 -->
<g id="edge18" class="edge">
<title>Node19&#45;&gt;Node18</title>
<path fill="none" stroke="#191970" d="M795.8547,-755.4699C795.6471,-686.1433 795.2714,-560.6615 795.0956,-501.9307"/>
<polygon fill="none" stroke="#191970" points="792.3553,-755.6965 795.8853,-765.686 799.3552,-755.6755 792.3553,-755.6965"/>
</g>
<!-- Node20&#45;&gt;Node2 -->
<g id="edge19" class="edge">
<title>Node20&#45;&gt;Node2</title>
<path fill="none" stroke="#404040" d="M686.8603,-765.776C688.7424,-662.0691 690.7819,-377.3301 659,-290 646.2516,-254.9698 622.6415,-221.273 600.0329,-194.379"/>
<polygon fill="none" stroke="#404040" points="599.9253,-194.2541 592.9795,-192.3159 592.0971,-185.159 599.0429,-187.0972 599.9253,-194.2541"/>
<text text-anchor="middle" x="720.5" y="-466.9" font-family="Helvetica,sans-Serif" font-size="12.00" fill="#000000"> &#45;w_mutex_map</text>
</g>
<!-- Node21 -->
<g id="node20" class="node">
<title>Node21</title>
<polygon fill="#ffffff" stroke="#bfbfbf" points="671.5,-1113 671.5,-1176 700.5,-1176 700.5,-1113 671.5,-1113"/>
<text text-anchor="middle" x="686" y="-1162.4" font-family="Helvetica,sans-Serif" font-size="12.00" fill="#000000">K</text>
<polyline fill="none" stroke="#bfbfbf" points="671.5,-1155 700.5,-1155 "/>
<text text-anchor="middle" x="686" y="-1141.4" font-family="Helvetica,sans-Serif" font-size="12.00" fill="#000000"> </text>
<polyline fill="none" stroke="#bfbfbf" points="671.5,-1134 700.5,-1134 "/>
<text text-anchor="middle" x="686" y="-1120.4" font-family="Helvetica,sans-Serif" font-size="12.00" fill="#000000"> </text>
</g>
<!-- Node21&#45;&gt;Node20 -->
<g id="edge20" class="edge">
<title>Node21&#45;&gt;Node20</title>
<path fill="none" stroke="#404040" d="M686,-1112.7724C686,-1053.5114 686,-925.581 686,-854.3922"/>
<polygon fill="none" stroke="#404040" points="686.0001,-854.2102 682,-848.2102 686,-842.2102 690,-848.2102 686.0001,-854.2102"/>
<text text-anchor="middle" x="699.5" y="-974.4" font-family="Helvetica,sans-Serif" font-size="12.00" fill="#000000"> +keys</text>
</g>
<!-- Node22 -->
<g id="node21" class="node">
<title>Node22</title>
<g id="a_node21"><a xlink:title="STL class. ">
<polygon fill="#ffffff" stroke="#bfbfbf" points="856,-438.5 856,-501.5 922,-501.5 922,-438.5 856,-438.5"/>
<text text-anchor="middle" x="889" y="-487.9" font-family="Helvetica,sans-Serif" font-size="12.00" fill="#000000">std::ostream</text>
<polyline fill="none" stroke="#bfbfbf" points="856,-480.5 922,-480.5 "/>
<text text-anchor="middle" x="889" y="-466.9" font-family="Helvetica,sans-Serif" font-size="12.00" fill="#000000"> </text>
<polyline fill="none" stroke="#bfbfbf" points="856,-459.5 922,-459.5 "/>
<text text-anchor="middle" x="889" y="-445.9" font-family="Helvetica,sans-Serif" font-size="12.00" fill="#000000"> </text>
</a>
</g>
</g>
<!-- Node22&#45;&gt;Node2 -->
<g id="edge22" class="edge">
<title>Node22&#45;&gt;Node2</title>
<path fill="none" stroke="#404040" d="M883.6989,-438.332C875.6814,-399.1987 857.0565,-332.5811 818,-290 758.3202,-224.9345 664.6264,-180.7112 603.5029,-156.9046"/>
<polygon fill="none" stroke="#404040" points="603.3198,-156.8347 596.2878,-158.4324 592.1085,-152.5559 599.1404,-150.9582 603.3198,-156.8347"/>
<text text-anchor="middle" x="843" y="-293.4" font-family="Helvetica,sans-Serif" font-size="12.00" fill="#000000"> #m_os</text>
</g>
<!-- Node23 -->
<g id="node22" class="node">
<title>Node23</title>
<g id="a_node22"><a xlink:title="STL class. ">
<polygon fill="#ffffff" stroke="#bfbfbf" points="858,-766 858,-842 950,-842 950,-766 858,-766"/>
<text text-anchor="start" x="866" y="-828.4" font-family="Helvetica,sans-Serif" font-size="12.00" fill="#000000">std::basic_ostream</text>
<text text-anchor="middle" x="904" y="-815.4" font-family="Helvetica,sans-Serif" font-size="12.00" fill="#000000">&lt; char &gt;</text>
<polyline fill="none" stroke="#bfbfbf" points="858,-808 950,-808 "/>
<text text-anchor="middle" x="904" y="-794.4" font-family="Helvetica,sans-Serif" font-size="12.00" fill="#000000"> </text>
<polyline fill="none" stroke="#bfbfbf" points="858,-787 950,-787 "/>
<text text-anchor="middle" x="904" y="-773.4" font-family="Helvetica,sans-Serif" font-size="12.00" fill="#000000"> </text>
</a>
</g>
</g>
<!-- Node23&#45;&gt;Node22 -->
<g id="edge23" class="edge">
<title>Node23&#45;&gt;Node22</title>
<path fill="none" stroke="#191970" d="M901.8205,-755.4699C898.707,-686.1433 893.0716,-560.6615 890.434,-501.9307"/>
<polygon fill="none" stroke="#191970" points="898.3341,-755.8531 902.2793,-765.686 905.327,-755.539 898.3341,-755.8531"/>
</g>
<!-- Node24 -->
<g id="node23" class="node">
<title>Node24</title>
<g id="a_node23"><a xlink:title="STL class. ">
<polygon fill="#ffffff" stroke="#bfbfbf" points="851,-1113 851,-1176 957,-1176 957,-1113 851,-1113"/>
<text text-anchor="middle" x="904" y="-1162.4" font-family="Helvetica,sans-Serif" font-size="12.00" fill="#000000">std::basic_ios&lt; Char &gt;</text>
<polyline fill="none" stroke="#bfbfbf" points="851,-1155 957,-1155 "/>
<text text-anchor="middle" x="904" y="-1141.4" font-family="Helvetica,sans-Serif" font-size="12.00" fill="#000000"> </text>
<polyline fill="none" stroke="#bfbfbf" points="851,-1134 957,-1134 "/>
<text text-anchor="middle" x="904" y="-1120.4" font-family="Helvetica,sans-Serif" font-size="12.00" fill="#000000"> </text>
</a>
</g>
</g>
<!-- Node24&#45;&gt;Node23 -->
<g id="edge24" class="edge">
<title>Node24&#45;&gt;Node23</title>
<path fill="none" stroke="#191970" d="M904,-1102.6249C904,-1035.9226 904,-906.5302 904,-842.2102"/>
<polygon fill="none" stroke="#191970" points="900.5001,-1102.7723 904,-1112.7724 907.5001,-1102.7724 900.5001,-1102.7723"/>
</g>
<!-- Node25 -->
<g id="node24" class="node">
<title>Node25</title>
<g id="a_node24"><a xlink:title="STL class. ">
<polygon fill="#ffffff" stroke="#bfbfbf" points="869,-1323.5 869,-1386.5 939,-1386.5 939,-1323.5 869,-1323.5"/>
<text text-anchor="middle" x="904" y="-1372.9" font-family="Helvetica,sans-Serif" font-size="12.00" fill="#000000">std::ios_base</text>
<polyline fill="none" stroke="#bfbfbf" points="869,-1365.5 939,-1365.5 "/>
<text text-anchor="middle" x="904" y="-1351.9" font-family="Helvetica,sans-Serif" font-size="12.00" fill="#000000"> </text>
<polyline fill="none" stroke="#bfbfbf" points="869,-1344.5 939,-1344.5 "/>
<text text-anchor="middle" x="904" y="-1330.9" font-family="Helvetica,sans-Serif" font-size="12.00" fill="#000000"> </text>
</a>
</g>
</g>
<!-- Node25&#45;&gt;Node24 -->
<g id="edge25" class="edge">
<title>Node25&#45;&gt;Node24</title>
<path fill="none" stroke="#191970" d="M904,-1313.4408C904,-1273.1254 904,-1212.8284 904,-1176.2294"/>
<polygon fill="none" stroke="#191970" points="900.5001,-1313.486 904,-1323.486 907.5001,-1313.4861 900.5001,-1313.486"/>
</g>
</g>
</svg>
