<?xml version="1.0" encoding="UTF-8" standalone="no"?>
<!DOCTYPE svg PUBLIC "-//W3C//DTD SVG 1.1//EN"
 "http://www.w3.org/Graphics/SVG/1.1/DTD/svg11.dtd">
<!-- Generated by graphviz version 2.40.1 (20161225.0304)
 -->
<!-- Title: NAME_TIM::internal::base_timer Pages: 1 -->
<svg width="965pt" height="1226pt"
 viewBox="0.00 0.00 965.00 1226.00" xmlns="http://www.w3.org/2000/svg" xmlns:xlink="http://www.w3.org/1999/xlink">
<g id="graph0" class="graph" transform="scale(1 1) rotate(0) translate(4 1222)">
<title>NAME_TIM::internal::base_timer</title>
<polygon fill="#ffffff" stroke="transparent" points="-4,4 -4,-1222 961,-1222 961,4 -4,4"/>
<!-- Node2 -->
<g id="node1" class="node">
<title>Node2</title>
<polygon fill="#bfbfbf" stroke="#000000" points="494,-.5 494,-271.5 592,-271.5 592,-.5 494,-.5"/>
<text text-anchor="start" x="502" y="-257.9" font-family="Helvetica,sans-Serif" font-size="12.00" fill="#000000">NAME_TIM::internal</text>
<text text-anchor="middle" x="543" y="-244.9" font-family="Helvetica,sans-Serif" font-size="12.00" fill="#000000">::base_timer</text>
<polyline fill="none" stroke="#000000" points="494,-237.5 592,-237.5 "/>
<text text-anchor="middle" x="543" y="-223.9" font-family="Helvetica,sans-Serif" font-size="12.00" fill="#000000"> </text>
<polyline fill="none" stroke="#000000" points="494,-216.5 592,-216.5 "/>
<text text-anchor="start" x="502" y="-202.9" font-family="Helvetica,sans-Serif" font-size="12.00" fill="#000000">+ base_timer()</text>
<text text-anchor="start" x="502" y="-189.9" font-family="Helvetica,sans-Serif" font-size="12.00" fill="#000000">+ ~base_timer()</text>
<text text-anchor="start" x="502" y="-176.9" font-family="Helvetica,sans-Serif" font-size="12.00" fill="#000000">+ base_timer()</text>
<text text-anchor="start" x="502" y="-163.9" font-family="Helvetica,sans-Serif" font-size="12.00" fill="#000000">+ operator=()</text>
<text text-anchor="start" x="502" y="-150.9" font-family="Helvetica,sans-Serif" font-size="12.00" fill="#000000">+ start()</text>
<text text-anchor="start" x="502" y="-137.9" font-family="Helvetica,sans-Serif" font-size="12.00" fill="#000000">+ stop()</text>
<text text-anchor="start" x="502" y="-124.9" font-family="Helvetica,sans-Serif" font-size="12.00" fill="#000000">+ is_valid()</text>
<text text-anchor="start" x="502" y="-111.9" font-family="Helvetica,sans-Serif" font-size="12.00" fill="#000000">+ real_elapsed()</text>
<text text-anchor="start" x="502" y="-98.9" font-family="Helvetica,sans-Serif" font-size="12.00" fill="#000000">+ system_elapsed()</text>
<text text-anchor="start" x="502" y="-85.9" font-family="Helvetica,sans-Serif" font-size="12.00" fill="#000000">+ user_elapsed()</text>
<text text-anchor="start" x="502" y="-72.9" font-family="Helvetica,sans-Serif" font-size="12.00" fill="#000000">and 12 more...</text>
<text text-anchor="start" x="502" y="-59.9" font-family="Helvetica,sans-Serif" font-size="12.00" fill="#000000"># parse_format()</text>
<text text-anchor="start" x="502" y="-46.9" font-family="Helvetica,sans-Serif" font-size="12.00" fill="#000000"># compose()</text>
<text text-anchor="start" x="502" y="-33.9" font-family="Helvetica,sans-Serif" font-size="12.00" fill="#000000"># m_timer()</text>
<text text-anchor="start" x="502" y="-20.9" font-family="Helvetica,sans-Serif" font-size="12.00" fill="#000000"># get_accum()</text>
<text text-anchor="start" x="502" y="-7.9" font-family="Helvetica,sans-Serif" font-size="12.00" fill="#000000"># get_accum()</text>
</g>
<!-- Node3 -->
<g id="node2" class="node">
<title>Node3</title>
<g id="a_node2"><a xlink:href="../../dc/d73/class_n_a_m_e___t_i_m_1_1internal_1_1base__timer__delta.html" target="_top" xlink:title="{NAME_TIM::internal\l::base_timer_delta\n||+ base_timer_delta()\l+ reset()\l+ operator+=()\l+ operator+=()\l+ operator/=()\l+ get_sum()\l+ get_sqr()\l+ size()\l+ rss()\l+ rss()\l# compute()\l# compute_sum()\l# compute_sqr()\l# divide_sum()\l# divide_sqr()\l}">
<polygon fill="#ffffff" stroke="#000000" points="283.5,-321.5 283.5,-579.5 382.5,-579.5 382.5,-321.5 283.5,-321.5"/>
<text text-anchor="start" x="291.5" y="-565.9" font-family="Helvetica,sans-Serif" font-size="12.00" fill="#000000">NAME_TIM::internal</text>
<text text-anchor="middle" x="333" y="-552.9" font-family="Helvetica,sans-Serif" font-size="12.00" fill="#000000">::base_timer_delta</text>
<polyline fill="none" stroke="#000000" points="283.5,-545.5 382.5,-545.5 "/>
<text text-anchor="middle" x="333" y="-531.9" font-family="Helvetica,sans-Serif" font-size="12.00" fill="#000000"> </text>
<polyline fill="none" stroke="#000000" points="283.5,-524.5 382.5,-524.5 "/>
<text text-anchor="start" x="291.5" y="-510.9" font-family="Helvetica,sans-Serif" font-size="12.00" fill="#000000">+ base_timer_delta()</text>
<text text-anchor="start" x="291.5" y="-497.9" font-family="Helvetica,sans-Serif" font-size="12.00" fill="#000000">+ reset()</text>
<text text-anchor="start" x="291.5" y="-484.9" font-family="Helvetica,sans-Serif" font-size="12.00" fill="#000000">+ operator+=()</text>
<text text-anchor="start" x="291.5" y="-471.9" font-family="Helvetica,sans-Serif" font-size="12.00" fill="#000000">+ operator+=()</text>
<text text-anchor="start" x="291.5" y="-458.9" font-family="Helvetica,sans-Serif" font-size="12.00" fill="#000000">+ operator/=()</text>
<text text-anchor="start" x="291.5" y="-445.9" font-family="Helvetica,sans-Serif" font-size="12.00" fill="#000000">+ get_sum()</text>
<text text-anchor="start" x="291.5" y="-432.9" font-family="Helvetica,sans-Serif" font-size="12.00" fill="#000000">+ get_sqr()</text>
<text text-anchor="start" x="291.5" y="-419.9" font-family="Helvetica,sans-Serif" font-size="12.00" fill="#000000">+ size()</text>
<text text-anchor="start" x="291.5" y="-406.9" font-family="Helvetica,sans-Serif" font-size="12.00" fill="#000000">+ rss()</text>
<text text-anchor="start" x="291.5" y="-393.9" font-family="Helvetica,sans-Serif" font-size="12.00" fill="#000000">+ rss()</text>
<text text-anchor="start" x="291.5" y="-380.9" font-family="Helvetica,sans-Serif" font-size="12.00" fill="#000000"># compute()</text>
<text text-anchor="start" x="291.5" y="-367.9" font-family="Helvetica,sans-Serif" font-size="12.00" fill="#000000"># compute_sum()</text>
<text text-anchor="start" x="291.5" y="-354.9" font-family="Helvetica,sans-Serif" font-size="12.00" fill="#000000"># compute_sqr()</text>
<text text-anchor="start" x="291.5" y="-341.9" font-family="Helvetica,sans-Serif" font-size="12.00" fill="#000000"># divide_sum()</text>
<text text-anchor="start" x="291.5" y="-328.9" font-family="Helvetica,sans-Serif" font-size="12.00" fill="#000000"># divide_sqr()</text>
</a>
</g>
</g>
<!-- Node3&#45;&gt;Node2 -->
<g id="edge1" class="edge">
<title>Node3&#45;&gt;Node2</title>
<path fill="none" stroke="#404040" d="M378.5197,-321.2522C383.8894,-310.408 389.7189,-299.8407 396,-290 420.4196,-251.7419 455.2352,-214.7531 484.8548,-186.6187"/>
<polygon fill="none" stroke="#404040" points="485.1054,-186.3839 486.7495,-179.3627 493.863,-178.1799 492.2188,-185.2011 485.1054,-186.3839"/>
<text text-anchor="middle" x="419.5" y="-293.4" font-family="Helvetica,sans-Serif" font-size="12.00" fill="#000000"> #m_accum</text>
</g>
<!-- Node4 -->
<g id="node3" class="node">
<title>Node4</title>
<polygon fill="#ffffff" stroke="#bfbfbf" points="400.5,-688 400.5,-751 449.5,-751 449.5,-688 400.5,-688"/>
<text text-anchor="middle" x="425" y="-737.4" font-family="Helvetica,sans-Serif" font-size="12.00" fill="#000000">uint64_t</text>
<polyline fill="none" stroke="#bfbfbf" points="400.5,-730 449.5,-730 "/>
<text text-anchor="middle" x="425" y="-716.4" font-family="Helvetica,sans-Serif" font-size="12.00" fill="#000000"> </text>
<polyline fill="none" stroke="#bfbfbf" points="400.5,-709 449.5,-709 "/>
<text text-anchor="middle" x="425" y="-695.4" font-family="Helvetica,sans-Serif" font-size="12.00" fill="#000000"> </text>
</g>
<!-- Node4&#45;&gt;Node3 -->
<g id="edge2" class="edge">
<title>Node4&#45;&gt;Node3</title>
<path fill="none" stroke="#404040" d="M414.1759,-687.8513C405.8181,-663.4139 393.6175,-627.7404 381.2025,-591.4399"/>
<polygon fill="none" stroke="#404040" points="381.052,-590.9998 375.3256,-586.6171 377.1687,-579.6455 382.8952,-584.0282 381.052,-590.9998"/>
<text text-anchor="middle" x="406.5" y="-607.9" font-family="Helvetica,sans-Serif" font-size="12.00" fill="#000000"> #m_lap</text>
</g>
<!-- Node5 -->
<g id="node4" class="node">
<title>Node5</title>
<g id="a_node4"><a xlink:href="../../d5/d6c/class_n_a_m_e___t_i_m_1_1internal_1_1base__rss__usage.html" target="_top" xlink:title="{NAME_TIM::internal\l::base_rss_usage\n||+ init()\l+ record()\l+ total()\l+ self()\l+ total()\l+ self()\l+ max()\l}">
<polygon fill="#ffffff" stroke="#000000" points="166,-642.5 166,-796.5 264,-796.5 264,-642.5 166,-642.5"/>
<text text-anchor="start" x="174" y="-782.9" font-family="Helvetica,sans-Serif" font-size="12.00" fill="#000000">NAME_TIM::internal</text>
<text text-anchor="middle" x="215" y="-769.9" font-family="Helvetica,sans-Serif" font-size="12.00" fill="#000000">::base_rss_usage</text>
<polyline fill="none" stroke="#000000" points="166,-762.5 264,-762.5 "/>
<text text-anchor="middle" x="215" y="-748.9" font-family="Helvetica,sans-Serif" font-size="12.00" fill="#000000"> </text>
<polyline fill="none" stroke="#000000" points="166,-741.5 264,-741.5 "/>
<text text-anchor="start" x="174" y="-727.9" font-family="Helvetica,sans-Serif" font-size="12.00" fill="#000000">+ init()</text>
<text text-anchor="start" x="174" y="-714.9" font-family="Helvetica,sans-Serif" font-size="12.00" fill="#000000">+ record()</text>
<text text-anchor="start" x="174" y="-701.9" font-family="Helvetica,sans-Serif" font-size="12.00" fill="#000000">+ total()</text>
<text text-anchor="start" x="174" y="-688.9" font-family="Helvetica,sans-Serif" font-size="12.00" fill="#000000">+ self()</text>
<text text-anchor="start" x="174" y="-675.9" font-family="Helvetica,sans-Serif" font-size="12.00" fill="#000000">+ total()</text>
<text text-anchor="start" x="174" y="-662.9" font-family="Helvetica,sans-Serif" font-size="12.00" fill="#000000">+ self()</text>
<text text-anchor="start" x="174" y="-649.9" font-family="Helvetica,sans-Serif" font-size="12.00" fill="#000000">+ max()</text>
</a>
</g>
</g>
<!-- Node5&#45;&gt;Node3 -->
<g id="edge3" class="edge">
<title>Node5&#45;&gt;Node3</title>
<path fill="none" stroke="#404040" d="M248.8141,-642.4154C258.0904,-621.2684 268.3894,-597.7902 278.5104,-574.7179"/>
<polygon fill="none" stroke="#404040" points="278.6387,-574.4253 277.3859,-567.3238 283.4593,-563.4361 284.712,-570.5376 278.6387,-574.4253"/>
<text text-anchor="middle" x="283.5" y="-607.9" font-family="Helvetica,sans-Serif" font-size="12.00" fill="#000000"> #m_rss</text>
</g>
<!-- Node9 -->
<g id="node8" class="node">
<title>Node9</title>
<g id="a_node8"><a xlink:href="../../d0/d62/class_n_a_m_e___t_i_m_1_1internal_1_1base__timer__data.html" target="_top" xlink:title="{NAME_TIM::internal\l::base_timer_data\n||+ base_timer_data()\l+ start()\l+ stop()\l+ start()\l+ stop()\l+ running()\l+ serialize()\l+ rss_init()\l+ rss_record()\l+ rss()\l+ rss()\l}">
<polygon fill="#ffffff" stroke="#000000" points="95,-347.5 95,-553.5 193,-553.5 193,-347.5 95,-347.5"/>
<text text-anchor="start" x="103" y="-539.9" font-family="Helvetica,sans-Serif" font-size="12.00" fill="#000000">NAME_TIM::internal</text>
<text text-anchor="middle" x="144" y="-526.9" font-family="Helvetica,sans-Serif" font-size="12.00" fill="#000000">::base_timer_data</text>
<polyline fill="none" stroke="#000000" points="95,-519.5 193,-519.5 "/>
<text text-anchor="middle" x="144" y="-505.9" font-family="Helvetica,sans-Serif" font-size="12.00" fill="#000000"> </text>
<polyline fill="none" stroke="#000000" points="95,-498.5 193,-498.5 "/>
<text text-anchor="start" x="103" y="-484.9" font-family="Helvetica,sans-Serif" font-size="12.00" fill="#000000">+ base_timer_data()</text>
<text text-anchor="start" x="103" y="-471.9" font-family="Helvetica,sans-Serif" font-size="12.00" fill="#000000">+ start()</text>
<text text-anchor="start" x="103" y="-458.9" font-family="Helvetica,sans-Serif" font-size="12.00" fill="#000000">+ stop()</text>
<text text-anchor="start" x="103" y="-445.9" font-family="Helvetica,sans-Serif" font-size="12.00" fill="#000000">+ start()</text>
<text text-anchor="start" x="103" y="-432.9" font-family="Helvetica,sans-Serif" font-size="12.00" fill="#000000">+ stop()</text>
<text text-anchor="start" x="103" y="-419.9" font-family="Helvetica,sans-Serif" font-size="12.00" fill="#000000">+ running()</text>
<text text-anchor="start" x="103" y="-406.9" font-family="Helvetica,sans-Serif" font-size="12.00" fill="#000000">+ serialize()</text>
<text text-anchor="start" x="103" y="-393.9" font-family="Helvetica,sans-Serif" font-size="12.00" fill="#000000">+ rss_init()</text>
<text text-anchor="start" x="103" y="-380.9" font-family="Helvetica,sans-Serif" font-size="12.00" fill="#000000">+ rss_record()</text>
<text text-anchor="start" x="103" y="-367.9" font-family="Helvetica,sans-Serif" font-size="12.00" fill="#000000">+ rss()</text>
<text text-anchor="start" x="103" y="-354.9" font-family="Helvetica,sans-Serif" font-size="12.00" fill="#000000">+ rss()</text>
</a>
</g>
</g>
<!-- Node5&#45;&gt;Node9 -->
<g id="edge8" class="edge">
<title>Node5&#45;&gt;Node9</title>
<path fill="none" stroke="#404040" d="M194.6542,-642.4154C188.329,-618.4508 181.2136,-591.4925 174.3594,-565.5237"/>
<polygon fill="none" stroke="#404040" points="174.2948,-565.2787 168.896,-560.4982 171.2323,-553.676 176.6311,-558.4565 174.2948,-565.2787"/>
<text text-anchor="middle" x="204.5" y="-607.9" font-family="Helvetica,sans-Serif" font-size="12.00" fill="#000000"> #m_rss</text>
</g>
<!-- Node6 -->
<g id="node5" class="node">
<title>Node6</title>
<g id="a_node5"><a xlink:href="../../df/d64/struct_n_a_m_e___t_i_m_1_1rss_1_1usage.html" target="_top" xlink:title="{NAME_TIM::rss::usage\n||+ usage()\l+ usage()\l+ usage()\l+ operator=()\l+ record()\l+ record()\l+ operator()()\l+ operator&#45;=()\l+ current()\l+ peak()\l+ serialize()\l+ max()\l+ min()\l}">
<polygon fill="#ffffff" stroke="#000000" points="160,-872.5 160,-1091.5 270,-1091.5 270,-872.5 160,-872.5"/>
<text text-anchor="middle" x="215" y="-1077.9" font-family="Helvetica,sans-Serif" font-size="12.00" fill="#000000">NAME_TIM::rss::usage</text>
<polyline fill="none" stroke="#000000" points="160,-1070.5 270,-1070.5 "/>
<text text-anchor="middle" x="215" y="-1056.9" font-family="Helvetica,sans-Serif" font-size="12.00" fill="#000000"> </text>
<polyline fill="none" stroke="#000000" points="160,-1049.5 270,-1049.5 "/>
<text text-anchor="start" x="168" y="-1035.9" font-family="Helvetica,sans-Serif" font-size="12.00" fill="#000000">+ usage()</text>
<text text-anchor="start" x="168" y="-1022.9" font-family="Helvetica,sans-Serif" font-size="12.00" fill="#000000">+ usage()</text>
<text text-anchor="start" x="168" y="-1009.9" font-family="Helvetica,sans-Serif" font-size="12.00" fill="#000000">+ usage()</text>
<text text-anchor="start" x="168" y="-996.9" font-family="Helvetica,sans-Serif" font-size="12.00" fill="#000000">+ operator=()</text>
<text text-anchor="start" x="168" y="-983.9" font-family="Helvetica,sans-Serif" font-size="12.00" fill="#000000">+ record()</text>
<text text-anchor="start" x="168" y="-970.9" font-family="Helvetica,sans-Serif" font-size="12.00" fill="#000000">+ record()</text>
<text text-anchor="start" x="168" y="-957.9" font-family="Helvetica,sans-Serif" font-size="12.00" fill="#000000">+ operator()()</text>
<text text-anchor="start" x="168" y="-944.9" font-family="Helvetica,sans-Serif" font-size="12.00" fill="#000000">+ operator&#45;=()</text>
<text text-anchor="start" x="168" y="-931.9" font-family="Helvetica,sans-Serif" font-size="12.00" fill="#000000">+ current()</text>
<text text-anchor="start" x="168" y="-918.9" font-family="Helvetica,sans-Serif" font-size="12.00" fill="#000000">+ peak()</text>
<text text-anchor="start" x="168" y="-905.9" font-family="Helvetica,sans-Serif" font-size="12.00" fill="#000000">+ serialize()</text>
<text text-anchor="start" x="168" y="-892.9" font-family="Helvetica,sans-Serif" font-size="12.00" fill="#000000">+ max()</text>
<text text-anchor="start" x="168" y="-879.9" font-family="Helvetica,sans-Serif" font-size="12.00" fill="#000000">+ min()</text>
</a>
</g>
</g>
<!-- Node6&#45;&gt;Node5 -->
<g id="edge4" class="edge">
<title>Node6&#45;&gt;Node5</title>
<path fill="none" stroke="#404040" d="M215,-872.1973C215,-851.0396 215,-829.1176 215,-808.7114"/>
<polygon fill="none" stroke="#404040" points="215.0001,-808.5568 211,-802.5569 215,-796.5568 219,-802.5568 215.0001,-808.5568"/>
<text text-anchor="middle" x="241.5" y="-844.4" font-family="Helvetica,sans-Serif" font-size="12.00" fill="#000000"> #m_rss_tmp</text>
<text text-anchor="middle" x="241.5" y="-831.4" font-family="Helvetica,sans-Serif" font-size="12.00" fill="#000000">#m_rss_self</text>
<text text-anchor="middle" x="241.5" y="-818.4" font-family="Helvetica,sans-Serif" font-size="12.00" fill="#000000">#m_rss_tot</text>
</g>
<!-- Node7 -->
<g id="node6" class="node">
<title>Node7</title>
<polygon fill="#ffffff" stroke="#bfbfbf" points="193,-1154.5 193,-1217.5 237,-1217.5 237,-1154.5 193,-1154.5"/>
<text text-anchor="middle" x="215" y="-1203.9" font-family="Helvetica,sans-Serif" font-size="12.00" fill="#000000">int64_t</text>
<polyline fill="none" stroke="#bfbfbf" points="193,-1196.5 237,-1196.5 "/>
<text text-anchor="middle" x="215" y="-1182.9" font-family="Helvetica,sans-Serif" font-size="12.00" fill="#000000"> </text>
<polyline fill="none" stroke="#bfbfbf" points="193,-1175.5 237,-1175.5 "/>
<text text-anchor="middle" x="215" y="-1161.9" font-family="Helvetica,sans-Serif" font-size="12.00" fill="#000000"> </text>
</g>
<!-- Node7&#45;&gt;Node6 -->
<g id="edge5" class="edge">
<title>Node7&#45;&gt;Node6</title>
<path fill="none" stroke="#404040" d="M215,-1154.125C215,-1140.0605 215,-1122.5484 215,-1104.124"/>
<polygon fill="none" stroke="#404040" points="215.0001,-1103.9119 211,-1097.9119 215,-1091.9119 219,-1097.9118 215.0001,-1103.9119"/>
<text text-anchor="middle" x="242.5" y="-1126.4" font-family="Helvetica,sans-Serif" font-size="12.00" fill="#000000"> +m_curr_rss</text>
<text text-anchor="middle" x="242.5" y="-1113.4" font-family="Helvetica,sans-Serif" font-size="12.00" fill="#000000">+m_peak_rss</text>
</g>
<!-- Node8 -->
<g id="node7" class="node">
<title>Node8</title>
<polygon fill="#ffffff" stroke="#bfbfbf" points="282,-681.5 282,-757.5 382,-757.5 382,-681.5 282,-681.5"/>
<text text-anchor="start" x="290" y="-743.9" font-family="Helvetica,sans-Serif" font-size="12.00" fill="#000000">tuple&lt; uint_type, uint</text>
<text text-anchor="middle" x="332" y="-730.9" font-family="Helvetica,sans-Serif" font-size="12.00" fill="#000000">_type, uint_type &gt;</text>
<polyline fill="none" stroke="#bfbfbf" points="282,-723.5 382,-723.5 "/>
<text text-anchor="middle" x="332" y="-709.9" font-family="Helvetica,sans-Serif" font-size="12.00" fill="#000000"> </text>
<polyline fill="none" stroke="#bfbfbf" points="282,-702.5 382,-702.5 "/>
<text text-anchor="middle" x="332" y="-688.9" font-family="Helvetica,sans-Serif" font-size="12.00" fill="#000000"> </text>
</g>
<!-- Node8&#45;&gt;Node3 -->
<g id="edge6" class="edge">
<title>Node8&#45;&gt;Node3</title>
<path fill="none" stroke="#404040" d="M332.1422,-681.2445C332.2313,-657.2805 332.3522,-624.7565 332.4751,-591.6919"/>
<polygon fill="none" stroke="#404040" points="332.4757,-591.5005 328.4981,-585.4856 332.5204,-579.5005 336.4981,-585.5154 332.4757,-591.5005"/>
<text text-anchor="middle" x="352" y="-614.4" font-family="Helvetica,sans-Serif" font-size="12.00" fill="#000000"> #m_sum</text>
<text text-anchor="middle" x="352" y="-601.4" font-family="Helvetica,sans-Serif" font-size="12.00" fill="#000000">#m_sqr</text>
</g>
<!-- Node9&#45;&gt;Node2 -->
<g id="edge7" class="edge">
<title>Node9&#45;&gt;Node2</title>
<path fill="none" stroke="#404040" d="M193.2171,-397.2184C216.7181,-372.9128 245.8144,-344.4031 274,-321 342.2097,-264.364 427.4927,-207.8715 483.52,-172.4914"/>
<polygon fill="none" stroke="#404040" points="483.816,-172.3053 486.7672,-165.7258 493.9757,-165.9194 491.0245,-172.499 483.816,-172.3053"/>
<text text-anchor="middle" x="328" y="-293.4" font-family="Helvetica,sans-Serif" font-size="12.00" fill="#000000"> #m_data</text>
</g>
<!-- Node10 -->
<g id="node9" class="node">
<title>Node10</title>
<polygon fill="#ffffff" stroke="#bfbfbf" points="52.5,-681.5 52.5,-757.5 147.5,-757.5 147.5,-681.5 52.5,-681.5"/>
<text text-anchor="start" x="60.5" y="-743.9" font-family="Helvetica,sans-Serif" font-size="12.00" fill="#000000">tuple&lt; time_point_t,</text>
<text text-anchor="middle" x="100" y="-730.9" font-family="Helvetica,sans-Serif" font-size="12.00" fill="#000000"> time_point_t &gt;</text>
<polyline fill="none" stroke="#bfbfbf" points="52.5,-723.5 147.5,-723.5 "/>
<text text-anchor="middle" x="100" y="-709.9" font-family="Helvetica,sans-Serif" font-size="12.00" fill="#000000"> </text>
<polyline fill="none" stroke="#bfbfbf" points="52.5,-702.5 147.5,-702.5 "/>
<text text-anchor="middle" x="100" y="-688.9" font-family="Helvetica,sans-Serif" font-size="12.00" fill="#000000"> </text>
</g>
<!-- Node10&#45;&gt;Node9 -->
<g id="edge9" class="edge">
<title>Node10&#45;&gt;Node9</title>
<path fill="none" stroke="#404040" d="M106.2574,-681.2445C111.2131,-650.9473 118.4068,-606.9677 125.1877,-565.5115"/>
<polygon fill="none" stroke="#404040" points="125.1969,-565.4549 122.2179,-558.8878 127.1341,-553.6122 130.113,-560.1793 125.1969,-565.4549"/>
<text text-anchor="middle" x="139" y="-607.9" font-family="Helvetica,sans-Serif" font-size="12.00" fill="#000000"> #m_data</text>
</g>
<!-- Node11 -->
<g id="node10" class="node">
<title>Node11</title>
<polygon fill="#ffffff" stroke="#bfbfbf" points="0,-688 0,-751 34,-751 34,-688 0,-688"/>
<text text-anchor="middle" x="17" y="-737.4" font-family="Helvetica,sans-Serif" font-size="12.00" fill="#000000">bool</text>
<polyline fill="none" stroke="#bfbfbf" points="0,-730 34,-730 "/>
<text text-anchor="middle" x="17" y="-716.4" font-family="Helvetica,sans-Serif" font-size="12.00" fill="#000000"> </text>
<polyline fill="none" stroke="#bfbfbf" points="0,-709 34,-709 "/>
<text text-anchor="middle" x="17" y="-695.4" font-family="Helvetica,sans-Serif" font-size="12.00" fill="#000000"> </text>
</g>
<!-- Node11&#45;&gt;Node9 -->
<g id="edge10" class="edge">
<title>Node11&#45;&gt;Node9</title>
<path fill="none" stroke="#404040" d="M26.907,-687.9889C31.528,-673.8317 37.2658,-656.9766 43,-642 55.6235,-609.0299 72.5799,-574.4746 88.9905,-543.9355"/>
<polygon fill="none" stroke="#404040" points="89.0347,-543.8539 88.3849,-536.6721 94.7643,-533.3101 95.4142,-540.4919 89.0347,-543.8539"/>
<text text-anchor="middle" x="87.5" y="-607.9" font-family="Helvetica,sans-Serif" font-size="12.00" fill="#000000"> #m_running</text>
</g>
<!-- Node12 -->
<g id="node11" class="node">
<title>Node12</title>
<polygon fill="#ffffff" stroke="#bfbfbf" points="402.5,-419 402.5,-482 451.5,-482 451.5,-419 402.5,-419"/>
<text text-anchor="middle" x="427" y="-468.4" font-family="Helvetica,sans-Serif" font-size="12.00" fill="#000000">uint16_t</text>
<polyline fill="none" stroke="#bfbfbf" points="402.5,-461 451.5,-461 "/>
<text text-anchor="middle" x="427" y="-447.4" font-family="Helvetica,sans-Serif" font-size="12.00" fill="#000000"> </text>
<polyline fill="none" stroke="#bfbfbf" points="402.5,-440 451.5,-440 "/>
<text text-anchor="middle" x="427" y="-426.4" font-family="Helvetica,sans-Serif" font-size="12.00" fill="#000000"> </text>
</g>
<!-- Node12&#45;&gt;Node2 -->
<g id="edge11" class="edge">
<title>Node12&#45;&gt;Node2</title>
<path fill="none" stroke="#404040" d="M428.1142,-418.8558C430.1015,-385.8334 435.6296,-332.9766 451,-290 460.0949,-264.57 473.585,-238.6974 487.4489,-215.6"/>
<polygon fill="none" stroke="#404040" points="487.5568,-215.4239 487.2839,-208.218 493.8306,-205.1945 494.1035,-212.4005 487.5568,-215.4239"/>
<text text-anchor="middle" x="479.5" y="-293.4" font-family="Helvetica,sans-Serif" font-size="12.00" fill="#000000"> #m_precision</text>
</g>
<!-- Node13 -->
<g id="node12" class="node">
<title>Node13</title>
<polygon fill="#ffffff" stroke="#bfbfbf" points="476.5,-419 476.5,-482 517.5,-482 517.5,-419 476.5,-419"/>
<text text-anchor="middle" x="497" y="-468.4" font-family="Helvetica,sans-Serif" font-size="12.00" fill="#000000">mutex</text>
<polyline fill="none" stroke="#bfbfbf" points="476.5,-461 517.5,-461 "/>
<text text-anchor="middle" x="497" y="-447.4" font-family="Helvetica,sans-Serif" font-size="12.00" fill="#000000"> </text>
<polyline fill="none" stroke="#bfbfbf" points="476.5,-440 517.5,-440 "/>
<text text-anchor="middle" x="497" y="-426.4" font-family="Helvetica,sans-Serif" font-size="12.00" fill="#000000"> </text>
</g>
<!-- Node13&#45;&gt;Node2 -->
<g id="edge12" class="edge">
<title>Node13&#45;&gt;Node2</title>
<path fill="none" stroke="#404040" d="M499.2911,-418.7218C501.8365,-386.2643 506.4668,-334.467 513,-290 513.3202,-287.8209 513.65,-285.6258 513.9887,-283.4179"/>
<polygon fill="none" stroke="#404040" points="513.998,-283.3584 510.9874,-276.8058 515.878,-271.5065 518.8886,-278.0591 513.998,-283.3584"/>
<text text-anchor="middle" x="535.5" y="-293.4" font-family="Helvetica,sans-Serif" font-size="12.00" fill="#000000"> #m_mutex</text>
</g>
<!-- Node14 -->
<g id="node13" class="node">
<title>Node14</title>
<polygon fill="#ffffff" stroke="#bfbfbf" points="536,-419 536,-482 648,-482 648,-419 536,-419"/>
<text text-anchor="middle" x="592" y="-468.4" font-family="Helvetica,sans-Serif" font-size="12.00" fill="#000000">std::vector&lt; fieldpos_t &gt;</text>
<polyline fill="none" stroke="#bfbfbf" points="536,-461 648,-461 "/>
<text text-anchor="middle" x="592" y="-447.4" font-family="Helvetica,sans-Serif" font-size="12.00" fill="#000000"> </text>
<polyline fill="none" stroke="#bfbfbf" points="536,-440 648,-440 "/>
<text text-anchor="middle" x="592" y="-426.4" font-family="Helvetica,sans-Serif" font-size="12.00" fill="#000000"> </text>
</g>
<!-- Node14&#45;&gt;Node2 -->
<g id="edge13" class="edge">
<title>Node14&#45;&gt;Node2</title>
<path fill="none" stroke="#404040" d="M587.0773,-418.9046C582.0783,-386.8186 573.9673,-334.7595 566.0575,-283.9916"/>
<polygon fill="none" stroke="#404040" points="566.0082,-283.6745 561.1322,-278.3618 564.1608,-271.8175 569.0368,-277.1302 566.0082,-283.6745"/>
<text text-anchor="middle" x="612.5" y="-293.4" font-family="Helvetica,sans-Serif" font-size="12.00" fill="#000000"> #m_format_positions</text>
</g>
<!-- Node15 -->
<g id="node14" class="node">
<title>Node15</title>
<polygon fill="#ffffff" stroke="#bfbfbf" points="564.5,-688 564.5,-751 619.5,-751 619.5,-688 564.5,-688"/>
<text text-anchor="middle" x="592" y="-737.4" font-family="Helvetica,sans-Serif" font-size="12.00" fill="#000000">fieldpos_t</text>
<polyline fill="none" stroke="#bfbfbf" points="564.5,-730 619.5,-730 "/>
<text text-anchor="middle" x="592" y="-716.4" font-family="Helvetica,sans-Serif" font-size="12.00" fill="#000000"> </text>
<polyline fill="none" stroke="#bfbfbf" points="564.5,-709 619.5,-709 "/>
<text text-anchor="middle" x="592" y="-695.4" font-family="Helvetica,sans-Serif" font-size="12.00" fill="#000000"> </text>
</g>
<!-- Node15&#45;&gt;Node14 -->
<g id="edge14" class="edge">
<title>Node15&#45;&gt;Node14</title>
<path fill="none" stroke="#404040" d="M592,-687.8513C592,-639.8928 592,-548.6594 592,-494.3395"/>
<polygon fill="none" stroke="#404040" points="592.0001,-494.0282 588,-488.0283 592,-482.0282 596,-488.0282 592.0001,-494.0282"/>
<text text-anchor="middle" x="614.5" y="-607.9" font-family="Helvetica,sans-Serif" font-size="12.00" fill="#000000"> +elements</text>
</g>
<!-- Node16 -->
<g id="node15" class="node">
<title>Node16</title>
<g id="a_node15"><a xlink:title="STL class. ">
<polygon fill="#ffffff" stroke="#bfbfbf" points="467.5,-688 467.5,-751 546.5,-751 546.5,-688 467.5,-688"/>
<text text-anchor="middle" x="507" y="-737.4" font-family="Helvetica,sans-Serif" font-size="12.00" fill="#000000">std::vector&lt; T &gt;</text>
<polyline fill="none" stroke="#bfbfbf" points="467.5,-730 546.5,-730 "/>
<text text-anchor="middle" x="507" y="-716.4" font-family="Helvetica,sans-Serif" font-size="12.00" fill="#000000"> </text>
<polyline fill="none" stroke="#bfbfbf" points="467.5,-709 546.5,-709 "/>
<text text-anchor="middle" x="507" y="-695.4" font-family="Helvetica,sans-Serif" font-size="12.00" fill="#000000"> </text>
</a>
</g>
</g>
<!-- Node16&#45;&gt;Node14 -->
<g id="edge15" class="edge">
<title>Node16&#45;&gt;Node14</title>
<path fill="none" stroke="#ffa500" d="M513.1454,-677.806C517.1537,-654.1235 523.1139,-624.0857 531,-598 543.4296,-556.8855 563.1698,-511.4857 576.8114,-482.0621"/>
<polygon fill="#ffa500" stroke="#ffa500" points="509.6597,-677.4341 511.4942,-687.8689 516.5673,-678.5676 509.6597,-677.4341"/>
<text text-anchor="middle" x="559.5" y="-607.9" font-family="Helvetica,sans-Serif" font-size="12.00" fill="#000000"> &lt; fieldpos_t &gt;</text>
</g>
<!-- Node17 -->
<g id="node16" class="node">
<title>Node17</title>
<polygon fill="#ffffff" stroke="#bfbfbf" points="537.5,-950.5 537.5,-1013.5 566.5,-1013.5 566.5,-950.5 537.5,-950.5"/>
<text text-anchor="middle" x="552" y="-999.9" font-family="Helvetica,sans-Serif" font-size="12.00" fill="#000000">T</text>
<polyline fill="none" stroke="#bfbfbf" points="537.5,-992.5 566.5,-992.5 "/>
<text text-anchor="middle" x="552" y="-978.9" font-family="Helvetica,sans-Serif" font-size="12.00" fill="#000000"> </text>
<polyline fill="none" stroke="#bfbfbf" points="537.5,-971.5 566.5,-971.5 "/>
<text text-anchor="middle" x="552" y="-957.9" font-family="Helvetica,sans-Serif" font-size="12.00" fill="#000000"> </text>
</g>
<!-- Node17&#45;&gt;Node16 -->
<g id="edge16" class="edge">
<title>Node17&#45;&gt;Node16</title>
<path fill="none" stroke="#404040" d="M546.5719,-950.3364C538.5647,-903.6273 523.5595,-816.0969 514.5039,-763.2725"/>
<polygon fill="none" stroke="#404040" points="514.4749,-763.1034 509.5186,-757.8655 512.4473,-751.2759 517.4036,-756.5138 514.4749,-763.1034"/>
<text text-anchor="middle" x="552.5" y="-831.4" font-family="Helvetica,sans-Serif" font-size="12.00" fill="#000000"> +elements</text>
</g>
<!-- Node20 -->
<g id="node19" class="node">
<title>Node20</title>
<g id="a_node19"><a xlink:title="STL class. ">
<polygon fill="#ffffff" stroke="#bfbfbf" points="637.5,-681.5 637.5,-757.5 734.5,-757.5 734.5,-681.5 637.5,-681.5"/>
<text text-anchor="start" x="645.5" y="-743.9" font-family="Helvetica,sans-Serif" font-size="12.00" fill="#000000">std::unordered_map</text>
<text text-anchor="middle" x="686" y="-730.9" font-family="Helvetica,sans-Serif" font-size="12.00" fill="#000000">&lt; K, T &gt;</text>
<polyline fill="none" stroke="#bfbfbf" points="637.5,-723.5 734.5,-723.5 "/>
<text text-anchor="middle" x="686" y="-709.9" font-family="Helvetica,sans-Serif" font-size="12.00" fill="#000000"> </text>
<polyline fill="none" stroke="#bfbfbf" points="637.5,-702.5 734.5,-702.5 "/>
<text text-anchor="middle" x="686" y="-688.9" font-family="Helvetica,sans-Serif" font-size="12.00" fill="#000000"> </text>
</a>
</g>
</g>
<!-- Node17&#45;&gt;Node20 -->
<g id="edge21" class="edge">
<title>Node17&#45;&gt;Node20</title>
<path fill="none" stroke="#404040" d="M566.5611,-953.3215C583.4664,-920.0426 612.2031,-863.5231 637,-815 644.7035,-799.9257 653.11,-783.5241 660.7505,-768.6354"/>
<polygon fill="none" stroke="#404040" points="660.9393,-768.2674 660.1209,-761.1029 666.4196,-757.5919 667.238,-764.7564 660.9393,-768.2674"/>
<text text-anchor="middle" x="659.5" y="-831.4" font-family="Helvetica,sans-Serif" font-size="12.00" fill="#000000"> +elements</text>
</g>
<!-- Node18 -->
<g id="node17" class="node">
<title>Node18</title>
<g id="a_node17"><a xlink:title="STL class. ">
<polygon fill="#ffffff" stroke="#bfbfbf" points="767,-419 767,-482 823,-482 823,-419 767,-419"/>
<text text-anchor="middle" x="795" y="-468.4" font-family="Helvetica,sans-Serif" font-size="12.00" fill="#000000">std::string</text>
<polyline fill="none" stroke="#bfbfbf" points="767,-461 823,-461 "/>
<text text-anchor="middle" x="795" y="-447.4" font-family="Helvetica,sans-Serif" font-size="12.00" fill="#000000"> </text>
<polyline fill="none" stroke="#bfbfbf" points="767,-440 823,-440 "/>
<text text-anchor="middle" x="795" y="-426.4" font-family="Helvetica,sans-Serif" font-size="12.00" fill="#000000"> </text>
</a>
</g>
</g>
<!-- Node18&#45;&gt;Node2 -->
<g id="edge17" class="edge">
<title>Node18&#45;&gt;Node2</title>
<path fill="none" stroke="#404040" d="M789.6584,-418.8869C783.9035,-391.3156 772.7866,-351.1276 753,-321 713.4898,-260.8407 649.3915,-208.3604 602.389,-174.815"/>
<polygon fill="none" stroke="#404040" points="602.1493,-174.6464 594.9405,-174.4651 592.3352,-167.741 599.544,-167.9223 602.1493,-174.6464"/>
<text text-anchor="middle" x="776.5" y="-293.4" font-family="Helvetica,sans-Serif" font-size="12.00" fill="#000000"> #m_format_string</text>
</g>
<!-- Node19 -->
<g id="node18" class="node">
<title>Node19</title>
<g id="a_node18"><a xlink:title="STL class. ">
<polygon fill="#ffffff" stroke="#bfbfbf" points="752.5,-681.5 752.5,-757.5 839.5,-757.5 839.5,-681.5 752.5,-681.5"/>
<text text-anchor="start" x="760.5" y="-743.9" font-family="Helvetica,sans-Serif" font-size="12.00" fill="#000000">std::basic_string&lt;</text>
<text text-anchor="middle" x="796" y="-730.9" font-family="Helvetica,sans-Serif" font-size="12.00" fill="#000000"> char &gt;</text>
<polyline fill="none" stroke="#bfbfbf" points="752.5,-723.5 839.5,-723.5 "/>
<text text-anchor="middle" x="796" y="-709.9" font-family="Helvetica,sans-Serif" font-size="12.00" fill="#000000"> </text>
<polyline fill="none" stroke="#bfbfbf" points="752.5,-702.5 839.5,-702.5 "/>
<text text-anchor="middle" x="796" y="-688.9" font-family="Helvetica,sans-Serif" font-size="12.00" fill="#000000"> </text>
</a>
</g>
</g>
<!-- Node19&#45;&gt;Node18 -->
<g id="edge18" class="edge">
<title>Node19&#45;&gt;Node18</title>
<path fill="none" stroke="#191970" d="M795.8201,-671.1014C795.6168,-616.4282 795.2918,-529.0072 795.1183,-482.3228"/>
<polygon fill="none" stroke="#191970" points="792.3205,-671.2577 795.8578,-681.2445 799.3205,-671.2316 792.3205,-671.2577"/>
</g>
<!-- Node20&#45;&gt;Node2 -->
<g id="edge19" class="edge">
<title>Node20&#45;&gt;Node2</title>
<path fill="none" stroke="#404040" d="M686.5051,-681.374C687.2662,-590.0691 686.3938,-361.1805 660,-290 646.9469,-254.7975 622.9754,-220.9667 600.1136,-194.0252"/>
<polygon fill="none" stroke="#404040" points="599.9627,-193.8514 593.0081,-191.9449 592.0932,-184.7921 599.0477,-186.6986 599.9627,-193.8514"/>
<text text-anchor="middle" x="719.5" y="-447.4" font-family="Helvetica,sans-Serif" font-size="12.00" fill="#000000"> &#45;w_mutex_map</text>
</g>
<!-- Node21 -->
<g id="node20" class="node">
<title>Node21</title>
<polygon fill="#ffffff" stroke="#bfbfbf" points="671.5,-950.5 671.5,-1013.5 700.5,-1013.5 700.5,-950.5 671.5,-950.5"/>
<text text-anchor="middle" x="686" y="-999.9" font-family="Helvetica,sans-Serif" font-size="12.00" fill="#000000">K</text>
<polyline fill="none" stroke="#bfbfbf" points="671.5,-992.5 700.5,-992.5 "/>
<text text-anchor="middle" x="686" y="-978.9" font-family="Helvetica,sans-Serif" font-size="12.00" fill="#000000"> </text>
<polyline fill="none" stroke="#bfbfbf" points="671.5,-971.5 700.5,-971.5 "/>
<text text-anchor="middle" x="686" y="-957.9" font-family="Helvetica,sans-Serif" font-size="12.00" fill="#000000"> </text>
</g>
<!-- Node21&#45;&gt;Node20 -->
<g id="edge20" class="edge">
<title>Node21&#45;&gt;Node20</title>
<path fill="none" stroke="#404040" d="M686,-950.3364C686,-905.5209 686,-823.1269 686,-769.8632"/>
<polygon fill="none" stroke="#404040" points="686.0001,-769.6489 682,-763.649 686,-757.6489 690,-763.6489 686.0001,-769.6489"/>
<text text-anchor="middle" x="699.5" y="-831.4" font-family="Helvetica,sans-Serif" font-size="12.00" fill="#000000"> +keys</text>
</g>
<!-- Node22 -->
<g id="node21" class="node">
<title>Node22</title>
<g id="a_node21"><a xlink:title="STL class. ">
<polygon fill="#ffffff" stroke="#bfbfbf" points="856,-419 856,-482 922,-482 922,-419 856,-419"/>
<text text-anchor="middle" x="889" y="-468.4" font-family="Helvetica,sans-Serif" font-size="12.00" fill="#000000">std::ostream</text>
<polyline fill="none" stroke="#bfbfbf" points="856,-461 922,-461 "/>
<text text-anchor="middle" x="889" y="-447.4" font-family="Helvetica,sans-Serif" font-size="12.00" fill="#000000"> </text>
<polyline fill="none" stroke="#bfbfbf" points="856,-440 922,-440 "/>
<text text-anchor="middle" x="889" y="-426.4" font-family="Helvetica,sans-Serif" font-size="12.00" fill="#000000"> </text>
</a>
</g>
</g>
<!-- Node22&#45;&gt;Node2 -->
<g id="edge22" class="edge">
<title>Node22&#45;&gt;Node2</title>
<path fill="none" stroke="#404040" d="M881.5258,-418.9473C871.8141,-383.7933 851.8354,-327.042 817,-290 756.8573,-226.0476 664.0935,-181.6552 603.4623,-157.4956"/>
<polygon fill="none" stroke="#404040" points="603.3337,-157.4454 596.2892,-158.9865 592.1572,-153.0767 599.2017,-151.5355 603.3337,-157.4454"/>
<text text-anchor="middle" x="842" y="-293.4" font-family="Helvetica,sans-Serif" font-size="12.00" fill="#000000"> #m_os</text>
</g>
<!-- Node23 -->
<g id="node22" class="node">
<title>Node23</title>
<g id="a_node22"><a xlink:title="STL class. ">
<polygon fill="#ffffff" stroke="#bfbfbf" points="858,-681.5 858,-757.5 950,-757.5 950,-681.5 858,-681.5"/>
<text text-anchor="start" x="866" y="-743.9" font-family="Helvetica,sans-Serif" font-size="12.00" fill="#000000">std::basic_ostream</text>
<text text-anchor="middle" x="904" y="-730.9" font-family="Helvetica,sans-Serif" font-size="12.00" fill="#000000">&lt; char &gt;</text>
<polyline fill="none" stroke="#bfbfbf" points="858,-723.5 950,-723.5 "/>
<text text-anchor="middle" x="904" y="-709.9" font-family="Helvetica,sans-Serif" font-size="12.00" fill="#000000"> </text>
<polyline fill="none" stroke="#bfbfbf" points="858,-702.5 950,-702.5 "/>
<text text-anchor="middle" x="904" y="-688.9" font-family="Helvetica,sans-Serif" font-size="12.00" fill="#000000"> </text>
</a>
</g>
</g>
<!-- Node23&#45;&gt;Node22 -->
<g id="edge23" class="edge">
<title>Node23&#45;&gt;Node22</title>
<path fill="none" stroke="#191970" d="M901.3012,-671.1014C898.2525,-616.4282 893.3777,-529.0072 890.7745,-482.3228"/>
<polygon fill="none" stroke="#191970" points="897.8154,-671.4549 901.8668,-681.2445 904.8045,-671.0651 897.8154,-671.4549"/>
</g>
<!-- Node24 -->
<g id="node23" class="node">
<title>Node24</title>
<g id="a_node23"><a xlink:title="STL class. ">
<polygon fill="#ffffff" stroke="#bfbfbf" points="851,-950.5 851,-1013.5 957,-1013.5 957,-950.5 851,-950.5"/>
<text text-anchor="middle" x="904" y="-999.9" font-family="Helvetica,sans-Serif" font-size="12.00" fill="#000000">std::basic_ios&lt; Char &gt;</text>
<polyline fill="none" stroke="#bfbfbf" points="851,-992.5 957,-992.5 "/>
<text text-anchor="middle" x="904" y="-978.9" font-family="Helvetica,sans-Serif" font-size="12.00" fill="#000000"> </text>
<polyline fill="none" stroke="#bfbfbf" points="851,-971.5 957,-971.5 "/>
<text text-anchor="middle" x="904" y="-957.9" font-family="Helvetica,sans-Serif" font-size="12.00" fill="#000000"> </text>
</a>
</g>
</g>
<!-- Node24&#45;&gt;Node23 -->
<g id="edge24" class="edge">
<title>Node24&#45;&gt;Node23</title>
<path fill="none" stroke="#191970" d="M904,-940.1371C904,-889.8531 904,-806.2197 904,-757.6489"/>
<polygon fill="none" stroke="#191970" points="900.5001,-940.3363 904,-950.3364 907.5001,-940.3364 900.5001,-940.3363"/>
</g>
<!-- Node25 -->
<g id="node24" class="node">
<title>Node25</title>
<g id="a_node24"><a xlink:title="STL class. ">
<polygon fill="#ffffff" stroke="#bfbfbf" points="869,-1154.5 869,-1217.5 939,-1217.5 939,-1154.5 869,-1154.5"/>
<text text-anchor="middle" x="904" y="-1203.9" font-family="Helvetica,sans-Serif" font-size="12.00" fill="#000000">std::ios_base</text>
<polyline fill="none" stroke="#bfbfbf" points="869,-1196.5 939,-1196.5 "/>
<text text-anchor="middle" x="904" y="-1182.9" font-family="Helvetica,sans-Serif" font-size="12.00" fill="#000000"> </text>
<polyline fill="none" stroke="#bfbfbf" points="869,-1175.5 939,-1175.5 "/>
<text text-anchor="middle" x="904" y="-1161.9" font-family="Helvetica,sans-Serif" font-size="12.00" fill="#000000"> </text>
</a>
</g>
</g>
<!-- Node25&#45;&gt;Node24 -->
<g id="edge25" class="edge">
<title>Node25&#45;&gt;Node24</title>
<path fill="none" stroke="#191970" d="M904,-1143.7098C904,-1105.0031 904,-1048.5909 904,-1013.6512"/>
<polygon fill="none" stroke="#191970" points="900.5001,-1144.125 904,-1154.125 907.5001,-1144.125 900.5001,-1144.125"/>
</g>
</g>
</svg>
