<?xml version="1.0" encoding="UTF-8" standalone="no"?>
<!DOCTYPE svg PUBLIC "-//W3C//DTD SVG 1.1//EN"
 "http://www.w3.org/Graphics/SVG/1.1/DTD/svg11.dtd">
<!-- Generated by graphviz version 2.40.1 (20161225.0304)
 -->
<!-- Title: NAME_TIM::internal::base_timer Pages: 1 -->
<!--zoomable 1291 -->
<svg id="main" version="1.1" xmlns="http://www.w3.org/2000/svg" xmlns:xlink="http://www.w3.org/1999/xlink" xml:space="preserve" onload="init(evt)">
<style type="text/css"><![CDATA[
.edge:hover path { stroke: red; }
.edge:hover polygon { stroke: red; fill: red; }
]]></style>
<script type="text/javascript"><![CDATA[
var edges = document.getElementsByTagName('g');
if (edges && edges.length) {
  for (var i=0;i<edges.length;i++) {
    if (edges[i].id.substr(0,4)=='edge') {
      edges[i].setAttribute('class','edge');
    }
  }
}
]]></script>
        <defs>
                <circle id="rim" cx="0" cy="0" r="7"/>
                <circle id="rim2" cx="0" cy="0" r="3.5"/>
                <g id="zoomPlus">
                        <use xlink:href="#rim" fill="#404040">
                                <set attributeName="fill" to="#808080" begin="zoomplus.mouseover" end="zoomplus.mouseout"/>
                        </use>
                        <path d="M-4,0h8M0,-4v8" fill="none" stroke="white" stroke-width="1.5" pointer-events="none"/>
                </g>
                <g id="zoomMin">
                        <use xlink:href="#rim" fill="#404040">
                                <set attributeName="fill" to="#808080" begin="zoomminus.mouseover" end="zoomminus.mouseout"/>
                        </use>
                        <path d="M-4,0h8" fill="none" stroke="white" stroke-width="1.5" pointer-events="none"/>
                </g>
                <g id="dirArrow">
                        <path fill="none" stroke="white" stroke-width="1.5" d="M0,-3.0v7 M-2.5,-0.5L0,-3.0L2.5,-0.5"/>
                </g>
               <g id="resetDef">
                       <use xlink:href="#rim2" fill="#404040">
                               <set attributeName="fill" to="#808080" begin="reset.mouseover" end="reset.mouseout"/>
                       </use>
               </g>
        </defs>

<script type="text/javascript">
var viewWidth = 965;
var viewHeight = 1291;
var sectionId = 'dynsection-1';
</script>
<script xlink:href="../../svgpan.js"/>
<svg id="graph" class="graph">
<g id="viewport">
<title>NAME_TIM::internal::base_timer</title>
<polygon fill="#ffffff" stroke="transparent" points="-4,4 -4,-1287 961,-1287 961,4 -4,4"/>
<!-- Node2 -->
<g id="node1" class="node">
<title>Node2</title>
<polygon fill="#bfbfbf" stroke="#000000" points="494,-.5 494,-271.5 592,-271.5 592,-.5 494,-.5"/>
<text text-anchor="start" x="502" y="-257.9" font-family="Helvetica,sans-Serif" font-size="12.00" fill="#000000">NAME_TIM::internal</text>
<text text-anchor="middle" x="543" y="-244.9" font-family="Helvetica,sans-Serif" font-size="12.00" fill="#000000">::base_timer</text>
<polyline fill="none" stroke="#000000" points="494,-237.5 592,-237.5 "/>
<text text-anchor="middle" x="543" y="-223.9" font-family="Helvetica,sans-Serif" font-size="12.00" fill="#000000"> </text>
<polyline fill="none" stroke="#000000" points="494,-216.5 592,-216.5 "/>
<text text-anchor="start" x="502" y="-202.9" font-family="Helvetica,sans-Serif" font-size="12.00" fill="#000000">+ base_timer()</text>
<text text-anchor="start" x="502" y="-189.9" font-family="Helvetica,sans-Serif" font-size="12.00" fill="#000000">+ ~base_timer()</text>
<text text-anchor="start" x="502" y="-176.9" font-family="Helvetica,sans-Serif" font-size="12.00" fill="#000000">+ base_timer()</text>
<text text-anchor="start" x="502" y="-163.9" font-family="Helvetica,sans-Serif" font-size="12.00" fill="#000000">+ operator=()</text>
<text text-anchor="start" x="502" y="-150.9" font-family="Helvetica,sans-Serif" font-size="12.00" fill="#000000">+ start()</text>
<text text-anchor="start" x="502" y="-137.9" font-family="Helvetica,sans-Serif" font-size="12.00" fill="#000000">+ stop()</text>
<text text-anchor="start" x="502" y="-124.9" font-family="Helvetica,sans-Serif" font-size="12.00" fill="#000000">+ is_valid()</text>
<text text-anchor="start" x="502" y="-111.9" font-family="Helvetica,sans-Serif" font-size="12.00" fill="#000000">+ real_elapsed()</text>
<text text-anchor="start" x="502" y="-98.9" font-family="Helvetica,sans-Serif" font-size="12.00" fill="#000000">+ system_elapsed()</text>
<text text-anchor="start" x="502" y="-85.9" font-family="Helvetica,sans-Serif" font-size="12.00" fill="#000000">+ user_elapsed()</text>
<text text-anchor="start" x="502" y="-72.9" font-family="Helvetica,sans-Serif" font-size="12.00" fill="#000000">and 12 more...</text>
<text text-anchor="start" x="502" y="-59.9" font-family="Helvetica,sans-Serif" font-size="12.00" fill="#000000"># parse_format()</text>
<text text-anchor="start" x="502" y="-46.9" font-family="Helvetica,sans-Serif" font-size="12.00" fill="#000000"># compose()</text>
<text text-anchor="start" x="502" y="-33.9" font-family="Helvetica,sans-Serif" font-size="12.00" fill="#000000"># m_timer()</text>
<text text-anchor="start" x="502" y="-20.9" font-family="Helvetica,sans-Serif" font-size="12.00" fill="#000000"># get_accum()</text>
<text text-anchor="start" x="502" y="-7.9" font-family="Helvetica,sans-Serif" font-size="12.00" fill="#000000"># get_accum()</text>
</g>
<!-- Node3 -->
<g id="node2" class="node">
<title>Node3</title>
<g id="a_node2"><a xlink:href="../../dc/d73/class_n_a_m_e___t_i_m_1_1internal_1_1base__timer__delta.html" target="_top" xlink:title="{NAME_TIM::internal\l::base_timer_delta\n||+ base_timer_delta()\l+ reset()\l+ operator+=()\l+ operator+=()\l+ operator+=()\l+ operator&#45;=()\l+ operator/=()\l+ get_sum()\l+ get_sqr()\l+ size()\l+ rss()\l+ rss()\l# compute()\l# compute_sum()\l# compute_sqr()\l# divide_sum()\l# divide_sqr()\l}">
<polygon fill="#ffffff" stroke="#000000" points="283.5,-321.5 283.5,-605.5 382.5,-605.5 382.5,-321.5 283.5,-321.5"/>
<text text-anchor="start" x="291.5" y="-591.9" font-family="Helvetica,sans-Serif" font-size="12.00" fill="#000000">NAME_TIM::internal</text>
<text text-anchor="middle" x="333" y="-578.9" font-family="Helvetica,sans-Serif" font-size="12.00" fill="#000000">::base_timer_delta</text>
<polyline fill="none" stroke="#000000" points="283.5,-571.5 382.5,-571.5 "/>
<text text-anchor="middle" x="333" y="-557.9" font-family="Helvetica,sans-Serif" font-size="12.00" fill="#000000"> </text>
<polyline fill="none" stroke="#000000" points="283.5,-550.5 382.5,-550.5 "/>
<text text-anchor="start" x="291.5" y="-536.9" font-family="Helvetica,sans-Serif" font-size="12.00" fill="#000000">+ base_timer_delta()</text>
<text text-anchor="start" x="291.5" y="-523.9" font-family="Helvetica,sans-Serif" font-size="12.00" fill="#000000">+ reset()</text>
<text text-anchor="start" x="291.5" y="-510.9" font-family="Helvetica,sans-Serif" font-size="12.00" fill="#000000">+ operator+=()</text>
<text text-anchor="start" x="291.5" y="-497.9" font-family="Helvetica,sans-Serif" font-size="12.00" fill="#000000">+ operator+=()</text>
<text text-anchor="start" x="291.5" y="-484.9" font-family="Helvetica,sans-Serif" font-size="12.00" fill="#000000">+ operator+=()</text>
<text text-anchor="start" x="291.5" y="-471.9" font-family="Helvetica,sans-Serif" font-size="12.00" fill="#000000">+ operator&#45;=()</text>
<text text-anchor="start" x="291.5" y="-458.9" font-family="Helvetica,sans-Serif" font-size="12.00" fill="#000000">+ operator/=()</text>
<text text-anchor="start" x="291.5" y="-445.9" font-family="Helvetica,sans-Serif" font-size="12.00" fill="#000000">+ get_sum()</text>
<text text-anchor="start" x="291.5" y="-432.9" font-family="Helvetica,sans-Serif" font-size="12.00" fill="#000000">+ get_sqr()</text>
<text text-anchor="start" x="291.5" y="-419.9" font-family="Helvetica,sans-Serif" font-size="12.00" fill="#000000">+ size()</text>
<text text-anchor="start" x="291.5" y="-406.9" font-family="Helvetica,sans-Serif" font-size="12.00" fill="#000000">+ rss()</text>
<text text-anchor="start" x="291.5" y="-393.9" font-family="Helvetica,sans-Serif" font-size="12.00" fill="#000000">+ rss()</text>
<text text-anchor="start" x="291.5" y="-380.9" font-family="Helvetica,sans-Serif" font-size="12.00" fill="#000000"># compute()</text>
<text text-anchor="start" x="291.5" y="-367.9" font-family="Helvetica,sans-Serif" font-size="12.00" fill="#000000"># compute_sum()</text>
<text text-anchor="start" x="291.5" y="-354.9" font-family="Helvetica,sans-Serif" font-size="12.00" fill="#000000"># compute_sqr()</text>
<text text-anchor="start" x="291.5" y="-341.9" font-family="Helvetica,sans-Serif" font-size="12.00" fill="#000000"># divide_sum()</text>
<text text-anchor="start" x="291.5" y="-328.9" font-family="Helvetica,sans-Serif" font-size="12.00" fill="#000000"># divide_sqr()</text>
</a>
</g>
</g>
<!-- Node3&#45;&gt;Node2 -->
<g id="edge1" class="edge">
<title>Node3&#45;&gt;Node2</title>
<path fill="none" stroke="#404040" d="M380.9452,-321.1076C386.1952,-310.3266 391.8796,-299.8301 398,-290 421.6581,-252.002 455.6594,-215.2758 484.7911,-187.2247"/>
<polygon fill="none" stroke="#404040" points="484.9561,-187.0681 486.5534,-180.0361 493.6588,-178.8059 492.0615,-185.8379 484.9561,-187.0681"/>
<text text-anchor="middle" x="421.5" y="-293.4" font-family="Helvetica,sans-Serif" font-size="12.00" fill="#000000"> #m_accum</text>
</g>
<!-- Node4 -->
<g id="node3" class="node">
<title>Node4</title>
<polygon fill="#ffffff" stroke="#bfbfbf" points="400.5,-727 400.5,-790 449.5,-790 449.5,-727 400.5,-727"/>
<text text-anchor="middle" x="425" y="-776.4" font-family="Helvetica,sans-Serif" font-size="12.00" fill="#000000">uint64_t</text>
<polyline fill="none" stroke="#bfbfbf" points="400.5,-769 449.5,-769 "/>
<text text-anchor="middle" x="425" y="-755.4" font-family="Helvetica,sans-Serif" font-size="12.00" fill="#000000"> </text>
<polyline fill="none" stroke="#bfbfbf" points="400.5,-748 449.5,-748 "/>
<text text-anchor="middle" x="425" y="-734.4" font-family="Helvetica,sans-Serif" font-size="12.00" fill="#000000"> </text>
</g>
<!-- Node4&#45;&gt;Node3 -->
<g id="edge2" class="edge">
<title>Node4&#45;&gt;Node3</title>
<path fill="none" stroke="#404040" d="M415.1544,-726.9298C406.7258,-699.9034 393.9224,-658.849 380.9145,-617.1389"/>
<polygon fill="none" stroke="#404040" points="380.9074,-617.116 375.3025,-612.579 377.3347,-605.6602 382.9397,-610.1972 380.9074,-617.116"/>
<text text-anchor="middle" x="406.5" y="-633.9" font-family="Helvetica,sans-Serif" font-size="12.00" fill="#000000"> #m_lap</text>
</g>
<!-- Node5 -->
<g id="node4" class="node">
<title>Node5</title>
<g id="a_node4"><a xlink:href="../../d5/d6c/class_n_a_m_e___t_i_m_1_1internal_1_1base__rss__usage.html" target="_top" xlink:title="{NAME_TIM::internal\l::base_rss_usage\n||+ init()\l+ record()\l+ total()\l+ self()\l+ total()\l+ self()\l+ max()\l+ operator+=()\l+ operator&#45;=()\l}">
<polygon fill="#ffffff" stroke="#000000" points="166,-668.5 166,-848.5 264,-848.5 264,-668.5 166,-668.5"/>
<text text-anchor="start" x="174" y="-834.9" font-family="Helvetica,sans-Serif" font-size="12.00" fill="#000000">NAME_TIM::internal</text>
<text text-anchor="middle" x="215" y="-821.9" font-family="Helvetica,sans-Serif" font-size="12.00" fill="#000000">::base_rss_usage</text>
<polyline fill="none" stroke="#000000" points="166,-814.5 264,-814.5 "/>
<text text-anchor="middle" x="215" y="-800.9" font-family="Helvetica,sans-Serif" font-size="12.00" fill="#000000"> </text>
<polyline fill="none" stroke="#000000" points="166,-793.5 264,-793.5 "/>
<text text-anchor="start" x="174" y="-779.9" font-family="Helvetica,sans-Serif" font-size="12.00" fill="#000000">+ init()</text>
<text text-anchor="start" x="174" y="-766.9" font-family="Helvetica,sans-Serif" font-size="12.00" fill="#000000">+ record()</text>
<text text-anchor="start" x="174" y="-753.9" font-family="Helvetica,sans-Serif" font-size="12.00" fill="#000000">+ total()</text>
<text text-anchor="start" x="174" y="-740.9" font-family="Helvetica,sans-Serif" font-size="12.00" fill="#000000">+ self()</text>
<text text-anchor="start" x="174" y="-727.9" font-family="Helvetica,sans-Serif" font-size="12.00" fill="#000000">+ total()</text>
<text text-anchor="start" x="174" y="-714.9" font-family="Helvetica,sans-Serif" font-size="12.00" fill="#000000">+ self()</text>
<text text-anchor="start" x="174" y="-701.9" font-family="Helvetica,sans-Serif" font-size="12.00" fill="#000000">+ max()</text>
<text text-anchor="start" x="174" y="-688.9" font-family="Helvetica,sans-Serif" font-size="12.00" fill="#000000">+ operator+=()</text>
<text text-anchor="start" x="174" y="-675.9" font-family="Helvetica,sans-Serif" font-size="12.00" fill="#000000">+ operator&#45;=()</text>
</a>
</g>
</g>
<!-- Node5&#45;&gt;Node3 -->
<g id="edge3" class="edge">
<title>Node5&#45;&gt;Node3</title>
<path fill="none" stroke="#404040" d="M251.0451,-668.3873C259.8801,-646.2997 269.5288,-622.178 279.0041,-598.4898"/>
<polygon fill="none" stroke="#404040" points="279.0322,-598.4193 277.5467,-591.3629 283.489,-587.2776 284.9745,-594.3341 279.0322,-598.4193"/>
<text text-anchor="middle" x="283.5" y="-633.9" font-family="Helvetica,sans-Serif" font-size="12.00" fill="#000000"> #m_rss</text>
</g>
<!-- Node9 -->
<g id="node8" class="node">
<title>Node9</title>
<g id="a_node8"><a xlink:href="../../d0/d62/class_n_a_m_e___t_i_m_1_1internal_1_1base__timer__data.html" target="_top" xlink:title="{NAME_TIM::internal\l::base_timer_data\n||+ base_timer_data()\l+ start()\l+ stop()\l+ start()\l+ stop()\l+ running()\l+ serialize()\l+ rss_init()\l+ rss_record()\l+ rss()\l+ rss()\l}">
<polygon fill="#ffffff" stroke="#000000" points="95,-360.5 95,-566.5 193,-566.5 193,-360.5 95,-360.5"/>
<text text-anchor="start" x="103" y="-552.9" font-family="Helvetica,sans-Serif" font-size="12.00" fill="#000000">NAME_TIM::internal</text>
<text text-anchor="middle" x="144" y="-539.9" font-family="Helvetica,sans-Serif" font-size="12.00" fill="#000000">::base_timer_data</text>
<polyline fill="none" stroke="#000000" points="95,-532.5 193,-532.5 "/>
<text text-anchor="middle" x="144" y="-518.9" font-family="Helvetica,sans-Serif" font-size="12.00" fill="#000000"> </text>
<polyline fill="none" stroke="#000000" points="95,-511.5 193,-511.5 "/>
<text text-anchor="start" x="103" y="-497.9" font-family="Helvetica,sans-Serif" font-size="12.00" fill="#000000">+ base_timer_data()</text>
<text text-anchor="start" x="103" y="-484.9" font-family="Helvetica,sans-Serif" font-size="12.00" fill="#000000">+ start()</text>
<text text-anchor="start" x="103" y="-471.9" font-family="Helvetica,sans-Serif" font-size="12.00" fill="#000000">+ stop()</text>
<text text-anchor="start" x="103" y="-458.9" font-family="Helvetica,sans-Serif" font-size="12.00" fill="#000000">+ start()</text>
<text text-anchor="start" x="103" y="-445.9" font-family="Helvetica,sans-Serif" font-size="12.00" fill="#000000">+ stop()</text>
<text text-anchor="start" x="103" y="-432.9" font-family="Helvetica,sans-Serif" font-size="12.00" fill="#000000">+ running()</text>
<text text-anchor="start" x="103" y="-419.9" font-family="Helvetica,sans-Serif" font-size="12.00" fill="#000000">+ serialize()</text>
<text text-anchor="start" x="103" y="-406.9" font-family="Helvetica,sans-Serif" font-size="12.00" fill="#000000">+ rss_init()</text>
<text text-anchor="start" x="103" y="-393.9" font-family="Helvetica,sans-Serif" font-size="12.00" fill="#000000">+ rss_record()</text>
<text text-anchor="start" x="103" y="-380.9" font-family="Helvetica,sans-Serif" font-size="12.00" fill="#000000">+ rss()</text>
<text text-anchor="start" x="103" y="-367.9" font-family="Helvetica,sans-Serif" font-size="12.00" fill="#000000">+ rss()</text>
</a>
</g>
</g>
<!-- Node5&#45;&gt;Node9 -->
<g id="edge8" class="edge">
<title>Node5&#45;&gt;Node9</title>
<path fill="none" stroke="#404040" d="M193.3119,-668.3873C186.4895,-640.0409 178.8609,-608.3445 171.6812,-578.5135"/>
<polygon fill="none" stroke="#404040" points="171.6567,-578.4115 166.3638,-573.5141 168.8487,-566.7447 174.1417,-571.6421 171.6567,-578.4115"/>
<text text-anchor="middle" x="204.5" y="-633.9" font-family="Helvetica,sans-Serif" font-size="12.00" fill="#000000"> #m_rss</text>
</g>
<!-- Node6 -->
<g id="node5" class="node">
<title>Node6</title>
<g id="a_node5"><a xlink:href="../../df/d64/struct_n_a_m_e___t_i_m_1_1rss_1_1usage.html" target="_top" xlink:title="{NAME_TIM::rss::usage\n||+ usage()\l+ usage()\l+ usage()\l+ operator=()\l+ record()\l+ record()\l+ operator()()\l+ operator+=()\l+ operator&#45;=()\l+ current()\l+ peak()\l+ serialize()\l+ max()\l+ min()\l}">
<polygon fill="#ffffff" stroke="#000000" points="160,-924.5 160,-1156.5 270,-1156.5 270,-924.5 160,-924.5"/>
<text text-anchor="middle" x="215" y="-1142.9" font-family="Helvetica,sans-Serif" font-size="12.00" fill="#000000">NAME_TIM::rss::usage</text>
<polyline fill="none" stroke="#000000" points="160,-1135.5 270,-1135.5 "/>
<text text-anchor="middle" x="215" y="-1121.9" font-family="Helvetica,sans-Serif" font-size="12.00" fill="#000000"> </text>
<polyline fill="none" stroke="#000000" points="160,-1114.5 270,-1114.5 "/>
<text text-anchor="start" x="168" y="-1100.9" font-family="Helvetica,sans-Serif" font-size="12.00" fill="#000000">+ usage()</text>
<text text-anchor="start" x="168" y="-1087.9" font-family="Helvetica,sans-Serif" font-size="12.00" fill="#000000">+ usage()</text>
<text text-anchor="start" x="168" y="-1074.9" font-family="Helvetica,sans-Serif" font-size="12.00" fill="#000000">+ usage()</text>
<text text-anchor="start" x="168" y="-1061.9" font-family="Helvetica,sans-Serif" font-size="12.00" fill="#000000">+ operator=()</text>
<text text-anchor="start" x="168" y="-1048.9" font-family="Helvetica,sans-Serif" font-size="12.00" fill="#000000">+ record()</text>
<text text-anchor="start" x="168" y="-1035.9" font-family="Helvetica,sans-Serif" font-size="12.00" fill="#000000">+ record()</text>
<text text-anchor="start" x="168" y="-1022.9" font-family="Helvetica,sans-Serif" font-size="12.00" fill="#000000">+ operator()()</text>
<text text-anchor="start" x="168" y="-1009.9" font-family="Helvetica,sans-Serif" font-size="12.00" fill="#000000">+ operator+=()</text>
<text text-anchor="start" x="168" y="-996.9" font-family="Helvetica,sans-Serif" font-size="12.00" fill="#000000">+ operator&#45;=()</text>
<text text-anchor="start" x="168" y="-983.9" font-family="Helvetica,sans-Serif" font-size="12.00" fill="#000000">+ current()</text>
<text text-anchor="start" x="168" y="-970.9" font-family="Helvetica,sans-Serif" font-size="12.00" fill="#000000">+ peak()</text>
<text text-anchor="start" x="168" y="-957.9" font-family="Helvetica,sans-Serif" font-size="12.00" fill="#000000">+ serialize()</text>
<text text-anchor="start" x="168" y="-944.9" font-family="Helvetica,sans-Serif" font-size="12.00" fill="#000000">+ max()</text>
<text text-anchor="start" x="168" y="-931.9" font-family="Helvetica,sans-Serif" font-size="12.00" fill="#000000">+ min()</text>
</a>
</g>
</g>
<!-- Node6&#45;&gt;Node5 -->
<g id="edge4" class="edge">
<title>Node6&#45;&gt;Node5</title>
<path fill="none" stroke="#404040" d="M215,-924.1717C215,-903.2167 215,-881.5113 215,-860.9853"/>
<polygon fill="none" stroke="#404040" points="215.0001,-860.7142 211,-854.7142 215,-848.7142 219,-854.7142 215.0001,-860.7142"/>
<text text-anchor="middle" x="241.5" y="-896.4" font-family="Helvetica,sans-Serif" font-size="12.00" fill="#000000"> #m_rss_tmp</text>
<text text-anchor="middle" x="241.5" y="-883.4" font-family="Helvetica,sans-Serif" font-size="12.00" fill="#000000">#m_rss_self</text>
<text text-anchor="middle" x="241.5" y="-870.4" font-family="Helvetica,sans-Serif" font-size="12.00" fill="#000000">#m_rss_tot</text>
</g>
<!-- Node7 -->
<g id="node6" class="node">
<title>Node7</title>
<polygon fill="#ffffff" stroke="#bfbfbf" points="193,-1219.5 193,-1282.5 237,-1282.5 237,-1219.5 193,-1219.5"/>
<text text-anchor="middle" x="215" y="-1268.9" font-family="Helvetica,sans-Serif" font-size="12.00" fill="#000000">int64_t</text>
<polyline fill="none" stroke="#bfbfbf" points="193,-1261.5 237,-1261.5 "/>
<text text-anchor="middle" x="215" y="-1247.9" font-family="Helvetica,sans-Serif" font-size="12.00" fill="#000000"> </text>
<polyline fill="none" stroke="#bfbfbf" points="193,-1240.5 237,-1240.5 "/>
<text text-anchor="middle" x="215" y="-1226.9" font-family="Helvetica,sans-Serif" font-size="12.00" fill="#000000"> </text>
</g>
<!-- Node7&#45;&gt;Node6 -->
<g id="edge5" class="edge">
<title>Node7&#45;&gt;Node6</title>
<path fill="none" stroke="#404040" d="M215,-1219.486C215,-1205.3063 215,-1187.5382 215,-1168.7416"/>
<polygon fill="none" stroke="#404040" points="215.0001,-1168.5998 211,-1162.5998 215,-1156.5998 219,-1162.5997 215.0001,-1168.5998"/>
<text text-anchor="middle" x="242.5" y="-1191.4" font-family="Helvetica,sans-Serif" font-size="12.00" fill="#000000"> +m_curr_rss</text>
<text text-anchor="middle" x="242.5" y="-1178.4" font-family="Helvetica,sans-Serif" font-size="12.00" fill="#000000">+m_peak_rss</text>
</g>
<!-- Node8 -->
<g id="node7" class="node">
<title>Node8</title>
<polygon fill="#ffffff" stroke="#bfbfbf" points="282,-720.5 282,-796.5 382,-796.5 382,-720.5 282,-720.5"/>
<text text-anchor="start" x="290" y="-782.9" font-family="Helvetica,sans-Serif" font-size="12.00" fill="#000000">tuple&lt; uint_type, uint</text>
<text text-anchor="middle" x="332" y="-769.9" font-family="Helvetica,sans-Serif" font-size="12.00" fill="#000000">_type, uint_type &gt;</text>
<polyline fill="none" stroke="#bfbfbf" points="282,-762.5 382,-762.5 "/>
<text text-anchor="middle" x="332" y="-748.9" font-family="Helvetica,sans-Serif" font-size="12.00" fill="#000000"> </text>
<polyline fill="none" stroke="#bfbfbf" points="282,-741.5 382,-741.5 "/>
<text text-anchor="middle" x="332" y="-727.9" font-family="Helvetica,sans-Serif" font-size="12.00" fill="#000000"> </text>
</g>
<!-- Node8&#45;&gt;Node3 -->
<g id="edge6" class="edge">
<title>Node8&#45;&gt;Node3</title>
<path fill="none" stroke="#404040" d="M332.1297,-720.2363C332.2201,-693.5787 332.3471,-656.0911 332.4763,-617.9807"/>
<polygon fill="none" stroke="#404040" points="332.4775,-617.5981 328.4979,-611.5846 332.5183,-605.5982 336.4979,-611.6118 332.4775,-617.5981"/>
<text text-anchor="middle" x="352" y="-640.4" font-family="Helvetica,sans-Serif" font-size="12.00" fill="#000000"> #m_sum</text>
<text text-anchor="middle" x="352" y="-627.4" font-family="Helvetica,sans-Serif" font-size="12.00" fill="#000000">#m_sqr</text>
</g>
<!-- Node9&#45;&gt;Node2 -->
<g id="edge7" class="edge">
<title>Node9&#45;&gt;Node2</title>
<path fill="none" stroke="#404040" d="M193.0563,-403.7586C216.2924,-377.0834 245.2197,-346.0819 274,-321 341.0385,-262.5763 426.9396,-206.2797 483.4052,-171.4458"/>
<polygon fill="none" stroke="#404040" points="483.7133,-171.2569 486.737,-164.7103 493.9429,-164.9834 490.9193,-171.53 483.7133,-171.2569"/>
<text text-anchor="middle" x="328" y="-293.4" font-family="Helvetica,sans-Serif" font-size="12.00" fill="#000000"> #m_data</text>
</g>
<!-- Node10 -->
<g id="node9" class="node">
<title>Node10</title>
<polygon fill="#ffffff" stroke="#bfbfbf" points="52.5,-720.5 52.5,-796.5 147.5,-796.5 147.5,-720.5 52.5,-720.5"/>
<text text-anchor="start" x="60.5" y="-782.9" font-family="Helvetica,sans-Serif" font-size="12.00" fill="#000000">tuple&lt; time_point_t,</text>
<text text-anchor="middle" x="100" y="-769.9" font-family="Helvetica,sans-Serif" font-size="12.00" fill="#000000"> time_point_t &gt;</text>
<polyline fill="none" stroke="#bfbfbf" points="52.5,-762.5 147.5,-762.5 "/>
<text text-anchor="middle" x="100" y="-748.9" font-family="Helvetica,sans-Serif" font-size="12.00" fill="#000000"> </text>
<polyline fill="none" stroke="#bfbfbf" points="52.5,-741.5 147.5,-741.5 "/>
<text text-anchor="middle" x="100" y="-727.9" font-family="Helvetica,sans-Serif" font-size="12.00" fill="#000000"> </text>
</g>
<!-- Node10&#45;&gt;Node9 -->
<g id="edge9" class="edge">
<title>Node10&#45;&gt;Node9</title>
<path fill="none" stroke="#404040" d="M105.7071,-720.2363C111.0565,-684.371 119.3299,-628.9021 126.8195,-578.6876"/>
<polygon fill="none" stroke="#404040" points="126.8334,-578.5935 123.7624,-572.0691 128.6038,-566.7248 131.6748,-573.2493 126.8334,-578.5935"/>
<text text-anchor="middle" x="139" y="-633.9" font-family="Helvetica,sans-Serif" font-size="12.00" fill="#000000"> #m_data</text>
</g>
<!-- Node11 -->
<g id="node10" class="node">
<title>Node11</title>
<polygon fill="#ffffff" stroke="#bfbfbf" points="0,-727 0,-790 34,-790 34,-727 0,-727"/>
<text text-anchor="middle" x="17" y="-776.4" font-family="Helvetica,sans-Serif" font-size="12.00" fill="#000000">bool</text>
<polyline fill="none" stroke="#bfbfbf" points="0,-769 34,-769 "/>
<text text-anchor="middle" x="17" y="-755.4" font-family="Helvetica,sans-Serif" font-size="12.00" fill="#000000"> </text>
<polyline fill="none" stroke="#bfbfbf" points="0,-748 34,-748 "/>
<text text-anchor="middle" x="17" y="-734.4" font-family="Helvetica,sans-Serif" font-size="12.00" fill="#000000"> </text>
</g>
<!-- Node11&#45;&gt;Node9 -->
<g id="edge10" class="edge">
<title>Node11&#45;&gt;Node9</title>
<path fill="none" stroke="#404040" d="M25.0478,-726.7731C29.7541,-709.2669 36.1143,-687.2391 43,-668 55.6473,-632.6625 72.7751,-595.4581 89.3317,-562.6137"/>
<polygon fill="none" stroke="#404040" points="89.4694,-562.3434 88.6294,-555.1814 94.9174,-551.6513 95.7574,-558.8134 89.4694,-562.3434"/>
<text text-anchor="middle" x="84.5" y="-633.9" font-family="Helvetica,sans-Serif" font-size="12.00" fill="#000000"> #m_running</text>
</g>
<!-- Node12 -->
<g id="node11" class="node">
<title>Node12</title>
<polygon fill="#ffffff" stroke="#bfbfbf" points="402.5,-432 402.5,-495 451.5,-495 451.5,-432 402.5,-432"/>
<text text-anchor="middle" x="427" y="-481.4" font-family="Helvetica,sans-Serif" font-size="12.00" fill="#000000">uint16_t</text>
<polyline fill="none" stroke="#bfbfbf" points="402.5,-474 451.5,-474 "/>
<text text-anchor="middle" x="427" y="-460.4" font-family="Helvetica,sans-Serif" font-size="12.00" fill="#000000"> </text>
<polyline fill="none" stroke="#bfbfbf" points="402.5,-453 451.5,-453 "/>
<text text-anchor="middle" x="427" y="-439.4" font-family="Helvetica,sans-Serif" font-size="12.00" fill="#000000"> </text>
</g>
<!-- Node12&#45;&gt;Node2 -->
<g id="edge11" class="edge">
<title>Node12&#45;&gt;Node2</title>
<path fill="none" stroke="#404040" d="M427.6071,-431.9037C429.14,-396.436 434.2624,-337.6221 451,-290 460,-264.3931 473.5348,-238.373 487.4736,-215.1888"/>
<polygon fill="none" stroke="#404040" points="487.6075,-214.9709 487.3418,-207.7647 493.8915,-204.7478 494.1572,-211.954 487.6075,-214.9709"/>
<text text-anchor="middle" x="479.5" y="-293.4" font-family="Helvetica,sans-Serif" font-size="12.00" fill="#000000"> #m_precision</text>
</g>
<!-- Node13 -->
<g id="node12" class="node">
<title>Node13</title>
<polygon fill="#ffffff" stroke="#bfbfbf" points="476.5,-432 476.5,-495 517.5,-495 517.5,-432 476.5,-432"/>
<text text-anchor="middle" x="497" y="-481.4" font-family="Helvetica,sans-Serif" font-size="12.00" fill="#000000">mutex</text>
<polyline fill="none" stroke="#bfbfbf" points="476.5,-474 517.5,-474 "/>
<text text-anchor="middle" x="497" y="-460.4" font-family="Helvetica,sans-Serif" font-size="12.00" fill="#000000"> </text>
<polyline fill="none" stroke="#bfbfbf" points="476.5,-453 517.5,-453 "/>
<text text-anchor="middle" x="497" y="-439.4" font-family="Helvetica,sans-Serif" font-size="12.00" fill="#000000"> </text>
</g>
<!-- Node13&#45;&gt;Node2 -->
<g id="edge12" class="edge">
<title>Node13&#45;&gt;Node2</title>
<path fill="none" stroke="#404040" d="M498.9686,-431.7284C501.3532,-396.8511 505.949,-339.2581 513,-290 513.2919,-287.9609 513.5927,-285.9078 513.9017,-283.8434"/>
<polygon fill="none" stroke="#404040" points="513.9126,-283.7724 510.8812,-277.2294 515.755,-271.9146 518.7864,-278.4576 513.9126,-283.7724"/>
<text text-anchor="middle" x="535.5" y="-293.4" font-family="Helvetica,sans-Serif" font-size="12.00" fill="#000000"> #m_mutex</text>
</g>
<!-- Node14 -->
<g id="node13" class="node">
<title>Node14</title>
<polygon fill="#ffffff" stroke="#bfbfbf" points="536,-432 536,-495 648,-495 648,-432 536,-432"/>
<text text-anchor="middle" x="592" y="-481.4" font-family="Helvetica,sans-Serif" font-size="12.00" fill="#000000">std::vector&lt; fieldpos_t &gt;</text>
<polyline fill="none" stroke="#bfbfbf" points="536,-474 648,-474 "/>
<text text-anchor="middle" x="592" y="-460.4" font-family="Helvetica,sans-Serif" font-size="12.00" fill="#000000"> </text>
<polyline fill="none" stroke="#bfbfbf" points="536,-453 648,-453 "/>
<text text-anchor="middle" x="592" y="-439.4" font-family="Helvetica,sans-Serif" font-size="12.00" fill="#000000"> </text>
</g>
<!-- Node14&#45;&gt;Node2 -->
<g id="edge13" class="edge">
<title>Node14&#45;&gt;Node2</title>
<path fill="none" stroke="#404040" d="M587.2572,-431.8004C582.0771,-397.1787 573.408,-339.2373 565.1085,-283.7661"/>
<polygon fill="none" stroke="#404040" points="565.0648,-283.4734 560.221,-278.1314 563.2891,-271.6055 568.1329,-276.9475 565.0648,-283.4734"/>
<text text-anchor="middle" x="611.5" y="-293.4" font-family="Helvetica,sans-Serif" font-size="12.00" fill="#000000"> #m_format_positions</text>
</g>
<!-- Node15 -->
<g id="node14" class="node">
<title>Node15</title>
<polygon fill="#ffffff" stroke="#bfbfbf" points="564.5,-727 564.5,-790 619.5,-790 619.5,-727 564.5,-727"/>
<text text-anchor="middle" x="592" y="-776.4" font-family="Helvetica,sans-Serif" font-size="12.00" fill="#000000">fieldpos_t</text>
<polyline fill="none" stroke="#bfbfbf" points="564.5,-769 619.5,-769 "/>
<text text-anchor="middle" x="592" y="-755.4" font-family="Helvetica,sans-Serif" font-size="12.00" fill="#000000"> </text>
<polyline fill="none" stroke="#bfbfbf" points="564.5,-748 619.5,-748 "/>
<text text-anchor="middle" x="592" y="-734.4" font-family="Helvetica,sans-Serif" font-size="12.00" fill="#000000"> </text>
</g>
<!-- Node15&#45;&gt;Node14 -->
<g id="edge14" class="edge">
<title>Node15&#45;&gt;Node14</title>
<path fill="none" stroke="#404040" d="M592,-726.9298C592,-674.0599 592,-567.5076 592,-507.3791"/>
<polygon fill="none" stroke="#404040" points="592.0001,-507.2891 588,-501.2891 592,-495.2891 596,-501.289 592.0001,-507.2891"/>
<text text-anchor="middle" x="614.5" y="-633.9" font-family="Helvetica,sans-Serif" font-size="12.00" fill="#000000"> +elements</text>
</g>
<!-- Node16 -->
<g id="node15" class="node">
<title>Node16</title>
<g id="a_node15"><a xlink:title="STL class. ">
<polygon fill="#ffffff" stroke="#bfbfbf" points="467.5,-727 467.5,-790 546.5,-790 546.5,-727 467.5,-727"/>
<text text-anchor="middle" x="507" y="-776.4" font-family="Helvetica,sans-Serif" font-size="12.00" fill="#000000">std::vector&lt; T &gt;</text>
<polyline fill="none" stroke="#bfbfbf" points="467.5,-769 546.5,-769 "/>
<text text-anchor="middle" x="507" y="-755.4" font-family="Helvetica,sans-Serif" font-size="12.00" fill="#000000"> </text>
<polyline fill="none" stroke="#bfbfbf" points="467.5,-748 546.5,-748 "/>
<text text-anchor="middle" x="507" y="-734.4" font-family="Helvetica,sans-Serif" font-size="12.00" fill="#000000"> </text>
</a>
</g>
</g>
<!-- Node16&#45;&gt;Node14 -->
<g id="edge15" class="edge">
<title>Node16&#45;&gt;Node14</title>
<path fill="none" stroke="#ffa500" d="M512.4055,-716.6944C516.3705,-689.9147 522.5416,-654.5755 531,-624 543.6769,-578.1755 564.2366,-527.1485 577.9354,-495.1904"/>
<polygon fill="#ffa500" stroke="#ffa500" points="508.9005,-716.4791 510.9429,-726.8752 515.8294,-717.4746 508.9005,-716.4791"/>
<text text-anchor="middle" x="559.5" y="-633.9" font-family="Helvetica,sans-Serif" font-size="12.00" fill="#000000"> &lt; fieldpos_t &gt;</text>
</g>
<!-- Node17 -->
<g id="node16" class="node">
<title>Node17</title>
<polygon fill="#ffffff" stroke="#bfbfbf" points="537.5,-1009 537.5,-1072 566.5,-1072 566.5,-1009 537.5,-1009"/>
<text text-anchor="middle" x="552" y="-1058.4" font-family="Helvetica,sans-Serif" font-size="12.00" fill="#000000">T</text>
<polyline fill="none" stroke="#bfbfbf" points="537.5,-1051 566.5,-1051 "/>
<text text-anchor="middle" x="552" y="-1037.4" font-family="Helvetica,sans-Serif" font-size="12.00" fill="#000000"> </text>
<polyline fill="none" stroke="#bfbfbf" points="537.5,-1030 566.5,-1030 "/>
<text text-anchor="middle" x="552" y="-1016.4" font-family="Helvetica,sans-Serif" font-size="12.00" fill="#000000"> </text>
</g>
<!-- Node17&#45;&gt;Node16 -->
<g id="edge16" class="edge">
<title>Node17&#45;&gt;Node16</title>
<path fill="none" stroke="#404040" d="M546.9689,-1008.9719C538.9136,-958.4917 523.1012,-859.4009 513.9651,-802.1479"/>
<polygon fill="none" stroke="#404040" points="513.9586,-802.1066 509.063,-796.8119 512.0675,-790.2565 516.9631,-795.5512 513.9586,-802.1066"/>
<text text-anchor="middle" x="552.5" y="-883.4" font-family="Helvetica,sans-Serif" font-size="12.00" fill="#000000"> +elements</text>
</g>
<!-- Node20 -->
<g id="node19" class="node">
<title>Node20</title>
<g id="a_node19"><a xlink:title="STL class. ">
<polygon fill="#ffffff" stroke="#bfbfbf" points="637.5,-720.5 637.5,-796.5 734.5,-796.5 734.5,-720.5 637.5,-720.5"/>
<text text-anchor="start" x="645.5" y="-782.9" font-family="Helvetica,sans-Serif" font-size="12.00" fill="#000000">std::unordered_map</text>
<text text-anchor="middle" x="686" y="-769.9" font-family="Helvetica,sans-Serif" font-size="12.00" fill="#000000">&lt; K, T &gt;</text>
<polyline fill="none" stroke="#bfbfbf" points="637.5,-762.5 734.5,-762.5 "/>
<text text-anchor="middle" x="686" y="-748.9" font-family="Helvetica,sans-Serif" font-size="12.00" fill="#000000"> </text>
<polyline fill="none" stroke="#bfbfbf" points="637.5,-741.5 734.5,-741.5 "/>
<text text-anchor="middle" x="686" y="-727.9" font-family="Helvetica,sans-Serif" font-size="12.00" fill="#000000"> </text>
</a>
</g>
</g>
<!-- Node17&#45;&gt;Node20 -->
<g id="edge21" class="edge">
<title>Node17&#45;&gt;Node20</title>
<path fill="none" stroke="#404040" d="M566.5954,-1009.7842C589.6794,-961.2045 634.8286,-866.1892 662.5124,-807.9292"/>
<polygon fill="none" stroke="#404040" points="662.6542,-807.6306 661.6165,-800.4945 667.8045,-796.792 668.8422,-803.928 662.6542,-807.6306"/>
<text text-anchor="middle" x="654.5" y="-883.4" font-family="Helvetica,sans-Serif" font-size="12.00" fill="#000000"> +elements</text>
</g>
<!-- Node18 -->
<g id="node17" class="node">
<title>Node18</title>
<g id="a_node17"><a xlink:title="STL class. ">
<polygon fill="#ffffff" stroke="#bfbfbf" points="767,-432 767,-495 823,-495 823,-432 767,-432"/>
<text text-anchor="middle" x="795" y="-481.4" font-family="Helvetica,sans-Serif" font-size="12.00" fill="#000000">std::string</text>
<polyline fill="none" stroke="#bfbfbf" points="767,-474 823,-474 "/>
<text text-anchor="middle" x="795" y="-460.4" font-family="Helvetica,sans-Serif" font-size="12.00" fill="#000000"> </text>
<polyline fill="none" stroke="#bfbfbf" points="767,-453 823,-453 "/>
<text text-anchor="middle" x="795" y="-439.4" font-family="Helvetica,sans-Serif" font-size="12.00" fill="#000000"> </text>
</a>
</g>
</g>
<!-- Node18&#45;&gt;Node2 -->
<g id="edge17" class="edge">
<title>Node18&#45;&gt;Node2</title>
<path fill="none" stroke="#404040" d="M790.8794,-431.9464C785.7724,-401.5886 774.9086,-355.3607 753,-321 714.1838,-260.122 649.6747,-207.5861 602.3782,-174.2195"/>
<polygon fill="none" stroke="#404040" points="602.1158,-174.0371 594.906,-173.8974 592.262,-167.1885 599.4717,-167.3282 602.1158,-174.0371"/>
<text text-anchor="middle" x="777.5" y="-293.4" font-family="Helvetica,sans-Serif" font-size="12.00" fill="#000000"> #m_format_string</text>
</g>
<!-- Node19 -->
<g id="node18" class="node">
<title>Node19</title>
<g id="a_node18"><a xlink:title="STL class. ">
<polygon fill="#ffffff" stroke="#bfbfbf" points="752.5,-720.5 752.5,-796.5 839.5,-796.5 839.5,-720.5 752.5,-720.5"/>
<text text-anchor="start" x="760.5" y="-782.9" font-family="Helvetica,sans-Serif" font-size="12.00" fill="#000000">std::basic_string&lt;</text>
<text text-anchor="middle" x="796" y="-769.9" font-family="Helvetica,sans-Serif" font-size="12.00" fill="#000000"> char &gt;</text>
<polyline fill="none" stroke="#bfbfbf" points="752.5,-762.5 839.5,-762.5 "/>
<text text-anchor="middle" x="796" y="-748.9" font-family="Helvetica,sans-Serif" font-size="12.00" fill="#000000"> </text>
<polyline fill="none" stroke="#bfbfbf" points="752.5,-741.5 839.5,-741.5 "/>
<text text-anchor="middle" x="796" y="-727.9" font-family="Helvetica,sans-Serif" font-size="12.00" fill="#000000"> </text>
</a>
</g>
</g>
<!-- Node19&#45;&gt;Node18 -->
<g id="edge18" class="edge">
<title>Node19&#45;&gt;Node18</title>
<path fill="none" stroke="#191970" d="M795.8361,-710.1394C795.6303,-649.4462 795.2832,-547.0557 795.1081,-495.3762"/>
<polygon fill="none" stroke="#191970" points="792.3363,-710.2483 795.8703,-720.2363 799.3363,-710.2245 792.3363,-710.2483"/>
</g>
<!-- Node20&#45;&gt;Node2 -->
<g id="edge19" class="edge">
<title>Node20&#45;&gt;Node2</title>
<path fill="none" stroke="#404040" d="M686.628,-720.1744C687.772,-622.9001 687.8283,-368.5918 659,-290 646.1625,-255.0024 622.5408,-221.3097 599.9476,-194.4102"/>
<polygon fill="none" stroke="#404040" points="599.8417,-194.287 592.8969,-192.3452 592.0183,-185.1878 598.9631,-187.1296 599.8417,-194.287"/>
<text text-anchor="middle" x="719.5" y="-460.4" font-family="Helvetica,sans-Serif" font-size="12.00" fill="#000000"> &#45;w_mutex_map</text>
</g>
<!-- Node21 -->
<g id="node20" class="node">
<title>Node21</title>
<polygon fill="#ffffff" stroke="#bfbfbf" points="671.5,-1009 671.5,-1072 700.5,-1072 700.5,-1009 671.5,-1009"/>
<text text-anchor="middle" x="686" y="-1058.4" font-family="Helvetica,sans-Serif" font-size="12.00" fill="#000000">K</text>
<polyline fill="none" stroke="#bfbfbf" points="671.5,-1051 700.5,-1051 "/>
<text text-anchor="middle" x="686" y="-1037.4" font-family="Helvetica,sans-Serif" font-size="12.00" fill="#000000"> </text>
<polyline fill="none" stroke="#bfbfbf" points="671.5,-1030 700.5,-1030 "/>
<text text-anchor="middle" x="686" y="-1016.4" font-family="Helvetica,sans-Serif" font-size="12.00" fill="#000000"> </text>
</g>
<!-- Node21&#45;&gt;Node20 -->
<g id="edge20" class="edge">
<title>Node21&#45;&gt;Node20</title>
<path fill="none" stroke="#404040" d="M686,-1008.9719C686,-960.3663 686,-866.6934 686,-808.6947"/>
<polygon fill="none" stroke="#404040" points="686.0001,-808.5358 682,-802.5358 686,-796.5358 690,-802.5357 686.0001,-808.5358"/>
<text text-anchor="middle" x="699.5" y="-883.4" font-family="Helvetica,sans-Serif" font-size="12.00" fill="#000000"> +keys</text>
</g>
<!-- Node22 -->
<g id="node21" class="node">
<title>Node22</title>
<g id="a_node21"><a xlink:title="STL class. ">
<polygon fill="#ffffff" stroke="#bfbfbf" points="856,-432 856,-495 922,-495 922,-432 856,-432"/>
<text text-anchor="middle" x="889" y="-481.4" font-family="Helvetica,sans-Serif" font-size="12.00" fill="#000000">std::ostream</text>
<polyline fill="none" stroke="#bfbfbf" points="856,-474 922,-474 "/>
<text text-anchor="middle" x="889" y="-460.4" font-family="Helvetica,sans-Serif" font-size="12.00" fill="#000000"> </text>
<polyline fill="none" stroke="#bfbfbf" points="856,-453 922,-453 "/>
<text text-anchor="middle" x="889" y="-439.4" font-family="Helvetica,sans-Serif" font-size="12.00" fill="#000000"> </text>
</a>
</g>
</g>
<!-- Node22&#45;&gt;Node2 -->
<g id="edge22" class="edge">
<title>Node22&#45;&gt;Node2</title>
<path fill="none" stroke="#404040" d="M883.0075,-431.7195C874.437,-393.905 855.3991,-330.7741 818,-290 758.3202,-224.9345 664.6264,-180.7112 603.5029,-156.9046"/>
<polygon fill="none" stroke="#404040" points="603.3198,-156.8347 596.2878,-158.4324 592.1085,-152.5559 599.1404,-150.9582 603.3198,-156.8347"/>
<text text-anchor="middle" x="843" y="-293.4" font-family="Helvetica,sans-Serif" font-size="12.00" fill="#000000"> #m_os</text>
</g>
<!-- Node23 -->
<g id="node22" class="node">
<title>Node23</title>
<g id="a_node22"><a xlink:title="STL class. ">
<polygon fill="#ffffff" stroke="#bfbfbf" points="858,-720.5 858,-796.5 950,-796.5 950,-720.5 858,-720.5"/>
<text text-anchor="start" x="866" y="-782.9" font-family="Helvetica,sans-Serif" font-size="12.00" fill="#000000">std::basic_ostream</text>
<text text-anchor="middle" x="904" y="-769.9" font-family="Helvetica,sans-Serif" font-size="12.00" fill="#000000">&lt; char &gt;</text>
<polyline fill="none" stroke="#bfbfbf" points="858,-762.5 950,-762.5 "/>
<text text-anchor="middle" x="904" y="-748.9" font-family="Helvetica,sans-Serif" font-size="12.00" fill="#000000"> </text>
<polyline fill="none" stroke="#bfbfbf" points="858,-741.5 950,-741.5 "/>
<text text-anchor="middle" x="904" y="-727.9" font-family="Helvetica,sans-Serif" font-size="12.00" fill="#000000"> </text>
</a>
</g>
</g>
<!-- Node23&#45;&gt;Node22 -->
<g id="edge23" class="edge">
<title>Node23&#45;&gt;Node22</title>
<path fill="none" stroke="#191970" d="M901.541,-710.1394C898.4549,-649.4462 893.2486,-547.0557 890.6208,-495.3762"/>
<polygon fill="none" stroke="#191970" points="898.051,-710.427 902.0544,-720.2363 905.042,-710.0715 898.051,-710.427"/>
</g>
<!-- Node24 -->
<g id="node23" class="node">
<title>Node24</title>
<g id="a_node23"><a xlink:title="STL class. ">
<polygon fill="#ffffff" stroke="#bfbfbf" points="851,-1009 851,-1072 957,-1072 957,-1009 851,-1009"/>
<text text-anchor="middle" x="904" y="-1058.4" font-family="Helvetica,sans-Serif" font-size="12.00" fill="#000000">std::basic_ios&lt; Char &gt;</text>
<polyline fill="none" stroke="#bfbfbf" points="851,-1051 957,-1051 "/>
<text text-anchor="middle" x="904" y="-1037.4" font-family="Helvetica,sans-Serif" font-size="12.00" fill="#000000"> </text>
<polyline fill="none" stroke="#bfbfbf" points="851,-1030 957,-1030 "/>
<text text-anchor="middle" x="904" y="-1016.4" font-family="Helvetica,sans-Serif" font-size="12.00" fill="#000000"> </text>
</a>
</g>
</g>
<!-- Node24&#45;&gt;Node23 -->
<g id="edge24" class="edge">
<title>Node24&#45;&gt;Node23</title>
<path fill="none" stroke="#191970" d="M904,-998.9464C904,-944.3703 904,-849.3034 904,-796.5358"/>
<polygon fill="none" stroke="#191970" points="900.5001,-998.9718 904,-1008.9719 907.5001,-998.9719 900.5001,-998.9718"/>
</g>
<!-- Node25 -->
<g id="node24" class="node">
<title>Node25</title>
<g id="a_node24"><a xlink:title="STL class. ">
<polygon fill="#ffffff" stroke="#bfbfbf" points="869,-1219.5 869,-1282.5 939,-1282.5 939,-1219.5 869,-1219.5"/>
<text text-anchor="middle" x="904" y="-1268.9" font-family="Helvetica,sans-Serif" font-size="12.00" fill="#000000">std::ios_base</text>
<polyline fill="none" stroke="#bfbfbf" points="869,-1261.5 939,-1261.5 "/>
<text text-anchor="middle" x="904" y="-1247.9" font-family="Helvetica,sans-Serif" font-size="12.00" fill="#000000"> </text>
<polyline fill="none" stroke="#bfbfbf" points="869,-1240.5 939,-1240.5 "/>
<text text-anchor="middle" x="904" y="-1226.9" font-family="Helvetica,sans-Serif" font-size="12.00" fill="#000000"> </text>
</a>
</g>
</g>
<!-- Node25&#45;&gt;Node24 -->
<g id="edge25" class="edge">
<title>Node25&#45;&gt;Node24</title>
<path fill="none" stroke="#191970" d="M904,-1209.4408C904,-1169.1254 904,-1108.8284 904,-1072.2294"/>
<polygon fill="none" stroke="#191970" points="900.5001,-1209.486 904,-1219.486 907.5001,-1209.4861 900.5001,-1209.486"/>
</g>
</g>
</svg>
        <g id="navigator" transform="translate(0 0)" fill="#404254">
                <rect fill="#f2f5e9" fill-opacity="0.5" stroke="#606060" stroke-width=".5" x="0" y="0" width="60" height="60"/>
                <use id="zoomplus" xlink:href="#zoomPlus" x="17" y="9" onmousedown="handleZoom(evt,'in')"/>
                <use id="zoomminus" xlink:href="#zoomMin" x="42" y="9" onmousedown="handleZoom(evt,'out')"/>
                <use id="reset" xlink:href="#resetDef" x="30" y="36" onmousedown="handleReset()"/>
                <g id="arrowUp" xlink:href="#dirArrow" transform="translate(30 24)" onmousedown="handlePan(0,-1)">
                  <use xlink:href="#rim" fill="#404040">
                        <set attributeName="fill" to="#808080" begin="arrowUp.mouseover" end="arrowUp.mouseout"/>
                  </use>
                  <path fill="none" stroke="white" stroke-width="1.5" d="M0,-3.0v7 M-2.5,-0.5L0,-3.0L2.5,-0.5"/>
                </g>
                <g id="arrowRight" xlink:href="#dirArrow" transform="rotate(90) translate(36 -43)" onmousedown="handlePan(1,0)">
                  <use xlink:href="#rim" fill="#404040">
                        <set attributeName="fill" to="#808080" begin="arrowRight.mouseover" end="arrowRight.mouseout"/>
                  </use>
                  <path fill="none" stroke="white" stroke-width="1.5" d="M0,-3.0v7 M-2.5,-0.5L0,-3.0L2.5,-0.5"/>
                </g>
                <g id="arrowDown" xlink:href="#dirArrow" transform="rotate(180) translate(-30 -48)" onmousedown="handlePan(0,1)">
                  <use xlink:href="#rim" fill="#404040">
                        <set attributeName="fill" to="#808080" begin="arrowDown.mouseover" end="arrowDown.mouseout"/>
                  </use>
                  <path fill="none" stroke="white" stroke-width="1.5" d="M0,-3.0v7 M-2.5,-0.5L0,-3.0L2.5,-0.5"/>
                </g>
                <g id="arrowLeft" xlink:href="#dirArrow" transform="rotate(270) translate(-36 17)" onmousedown="handlePan(-1,0)">
                  <use xlink:href="#rim" fill="#404040">
                        <set attributeName="fill" to="#808080" begin="arrowLeft.mouseover" end="arrowLeft.mouseout"/>
                  </use>
                  <path fill="none" stroke="white" stroke-width="1.5" d="M0,-3.0v7 M-2.5,-0.5L0,-3.0L2.5,-0.5"/>
                </g>
        </g>
        <svg viewBox="0 0 15 15" width="100%" height="30px" preserveAspectRatio="xMaxYMin meet">
         <g id="arrow_out" transform="scale(0.3 0.3)">
          <a xlink:href="class_n_a_m_e___t_i_m_1_1internal_1_1base__timer__coll__graph_org.svg" target="_base">
           <rect id="button" ry="5" rx="5" y="6" x="6" height="38" width="38"
                fill="#f2f5e9" fill-opacity="0.5" stroke="#606060" stroke-width="1.0"/>
           <path id="arrow"
             d="M 11.500037,31.436501 C 11.940474,20.09759 22.043105,11.32322 32.158766,21.979434 L 37.068811,17.246167 C 37.068811,17.246167 37.088388,32 37.088388,32 L 22.160133,31.978069 C 22.160133,31.978069 26.997745,27.140456 26.997745,27.140456 C 18.528582,18.264221 13.291696,25.230495 11.500037,31.436501 z"
             style="fill:#404040;"/>
          </a>
         </g>
        </svg>
</svg>
