<?xml version="1.0" encoding="UTF-8" standalone="no"?>
<!DOCTYPE svg PUBLIC "-//W3C//DTD SVG 1.1//EN"
 "http://www.w3.org/Graphics/SVG/1.1/DTD/svg11.dtd">
<!-- Generated by graphviz version 2.40.1 (20161225.0304)
 -->
<!-- Title: NAME_TIM::signal_settings Pages: 1 -->
<!--zoomable 493 -->
<svg id="main" version="1.1" xmlns="http://www.w3.org/2000/svg" xmlns:xlink="http://www.w3.org/1999/xlink" xml:space="preserve" onload="init(evt)">
<style type="text/css"><![CDATA[
.edge:hover path { stroke: red; }
.edge:hover polygon { stroke: red; fill: red; }
]]></style>
<script type="text/javascript"><![CDATA[
var edges = document.getElementsByTagName('g');
if (edges && edges.length) {
  for (var i=0;i<edges.length;i++) {
    if (edges[i].id.substr(0,4)=='edge') {
      edges[i].setAttribute('class','edge');
    }
  }
}
]]></script>
        <defs>
                <circle id="rim" cx="0" cy="0" r="7"/>
                <circle id="rim2" cx="0" cy="0" r="3.5"/>
                <g id="zoomPlus">
                        <use xlink:href="#rim" fill="#404040">
                                <set attributeName="fill" to="#808080" begin="zoomplus.mouseover" end="zoomplus.mouseout"/>
                        </use>
                        <path d="M-4,0h8M0,-4v8" fill="none" stroke="white" stroke-width="1.5" pointer-events="none"/>
                </g>
                <g id="zoomMin">
                        <use xlink:href="#rim" fill="#404040">
                                <set attributeName="fill" to="#808080" begin="zoomminus.mouseover" end="zoomminus.mouseout"/>
                        </use>
                        <path d="M-4,0h8" fill="none" stroke="white" stroke-width="1.5" pointer-events="none"/>
                </g>
                <g id="dirArrow">
                        <path fill="none" stroke="white" stroke-width="1.5" d="M0,-3.0v7 M-2.5,-0.5L0,-3.0L2.5,-0.5"/>
                </g>
               <g id="resetDef">
                       <use xlink:href="#rim2" fill="#404040">
                               <set attributeName="fill" to="#808080" begin="reset.mouseover" end="reset.mouseout"/>
                       </use>
               </g>
        </defs>

<script type="text/javascript">
var viewWidth = 309;
var viewHeight = 493;
var sectionId = 'dynsection-0';
</script>
<script xlink:href="../../svgpan.js"/>
<svg id="graph" class="graph">
<g id="viewport">
<title>NAME_TIM::signal_settings</title>
<polygon fill="#ffffff" stroke="transparent" points="-4,4 -4,-489 305,-489 305,4 -4,4"/>
<!-- Node1 -->
<g id="node1" class="node">
<title>Node1</title>
<polygon fill="#bfbfbf" stroke="#000000" points="92,-.5 92,-232.5 220,-232.5 220,-.5 92,-.5"/>
<text text-anchor="middle" x="156" y="-218.9" font-family="Helvetica,sans-Serif" font-size="12.00" fill="#000000">NAME_TIM::signal_settings</text>
<polyline fill="none" stroke="#000000" points="92,-211.5 220,-211.5 "/>
<text text-anchor="middle" x="156" y="-197.9" font-family="Helvetica,sans-Serif" font-size="12.00" fill="#000000"> </text>
<polyline fill="none" stroke="#000000" points="92,-190.5 220,-190.5 "/>
<text text-anchor="start" x="100" y="-176.9" font-family="Helvetica,sans-Serif" font-size="12.00" fill="#000000">+ is_active()</text>
<text text-anchor="start" x="100" y="-163.9" font-family="Helvetica,sans-Serif" font-size="12.00" fill="#000000">+ set_active()</text>
<text text-anchor="start" x="100" y="-150.9" font-family="Helvetica,sans-Serif" font-size="12.00" fill="#000000">+ enable()</text>
<text text-anchor="start" x="100" y="-137.9" font-family="Helvetica,sans-Serif" font-size="12.00" fill="#000000">+ disable()</text>
<text text-anchor="start" x="100" y="-124.9" font-family="Helvetica,sans-Serif" font-size="12.00" fill="#000000">+ str()</text>
<text text-anchor="start" x="100" y="-111.9" font-family="Helvetica,sans-Serif" font-size="12.00" fill="#000000">+ str()</text>
<text text-anchor="start" x="100" y="-98.9" font-family="Helvetica,sans-Serif" font-size="12.00" fill="#000000">+ check_environment()</text>
<text text-anchor="start" x="100" y="-85.9" font-family="Helvetica,sans-Serif" font-size="12.00" fill="#000000">+ set_exit_action()</text>
<text text-anchor="start" x="100" y="-72.9" font-family="Helvetica,sans-Serif" font-size="12.00" fill="#000000">+ exit_action()</text>
<text text-anchor="start" x="100" y="-59.9" font-family="Helvetica,sans-Serif" font-size="12.00" fill="#000000">+ enabled()</text>
<text text-anchor="start" x="100" y="-46.9" font-family="Helvetica,sans-Serif" font-size="12.00" fill="#000000">+ disabled()</text>
<text text-anchor="start" x="100" y="-33.9" font-family="Helvetica,sans-Serif" font-size="12.00" fill="#000000">+ get_enabled()</text>
<text text-anchor="start" x="100" y="-20.9" font-family="Helvetica,sans-Serif" font-size="12.00" fill="#000000">+ get_disabled()</text>
<text text-anchor="start" x="100" y="-7.9" font-family="Helvetica,sans-Serif" font-size="12.00" fill="#000000">+ get_default()</text>
</g>
<!-- Node2 -->
<g id="node2" class="node">
<title>Node2</title>
<polygon fill="#ffffff" stroke="#bfbfbf" points="0,-308.5 0,-371.5 108,-371.5 108,-308.5 0,-308.5"/>
<text text-anchor="middle" x="54" y="-357.9" font-family="Helvetica,sans-Serif" font-size="12.00" fill="#000000">static signal_function_t</text>
<polyline fill="none" stroke="#bfbfbf" points="0,-350.5 108,-350.5 "/>
<text text-anchor="middle" x="54" y="-336.9" font-family="Helvetica,sans-Serif" font-size="12.00" fill="#000000"> </text>
<polyline fill="none" stroke="#bfbfbf" points="0,-329.5 108,-329.5 "/>
<text text-anchor="middle" x="54" y="-315.9" font-family="Helvetica,sans-Serif" font-size="12.00" fill="#000000"> </text>
</g>
<!-- Node2&#45;&gt;Node1 -->
<g id="edge1" class="edge">
<title>Node2&#45;&gt;Node1</title>
<path fill="none" stroke="#404040" d="M59.9175,-308.4183C63.7169,-291.087 69.3791,-269.4357 77,-251 79.9198,-243.9368 83.1559,-236.7963 86.6032,-229.6813"/>
<polygon fill="none" stroke="#404040" points="86.6186,-229.6503 85.723,-222.495 91.9834,-218.9162 92.879,-226.0715 86.6186,-229.6503"/>
<text text-anchor="middle" x="114.5" y="-267.4" font-family="Helvetica,sans-Serif" font-size="12.00" fill="#000000"> &#45;signals_exit_func</text>
</g>
<!-- Node3 -->
<g id="node3" class="node">
<title>Node3</title>
<g id="a_node3"><a xlink:title="STL class. ">
<polygon fill="#ffffff" stroke="#bfbfbf" points="126.5,-308.5 126.5,-371.5 193.5,-371.5 193.5,-308.5 126.5,-308.5"/>
<text text-anchor="middle" x="160" y="-357.9" font-family="Helvetica,sans-Serif" font-size="12.00" fill="#000000">std::set&lt; K &gt;</text>
<polyline fill="none" stroke="#bfbfbf" points="126.5,-350.5 193.5,-350.5 "/>
<text text-anchor="middle" x="160" y="-336.9" font-family="Helvetica,sans-Serif" font-size="12.00" fill="#000000"> </text>
<polyline fill="none" stroke="#bfbfbf" points="126.5,-329.5 193.5,-329.5 "/>
<text text-anchor="middle" x="160" y="-315.9" font-family="Helvetica,sans-Serif" font-size="12.00" fill="#000000"> </text>
</a>
</g>
</g>
<!-- Node3&#45;&gt;Node1 -->
<g id="edge2" class="edge">
<title>Node3&#45;&gt;Node1</title>
<path fill="none" stroke="#404040" d="M157.8368,-308.2716C157.4969,-302.2084 157.1942,-295.9102 157,-290 156.52,-275.3905 156.186,-260.0853 155.9599,-244.8733"/>
<polygon fill="none" stroke="#404040" points="155.9579,-244.7075 151.8798,-238.7603 155.8011,-232.7085 159.8791,-238.6557 155.9579,-244.7075"/>
<text text-anchor="middle" x="192" y="-280.4" font-family="Helvetica,sans-Serif" font-size="12.00" fill="#000000"> &#45;signals_default</text>
<text text-anchor="middle" x="192" y="-267.4" font-family="Helvetica,sans-Serif" font-size="12.00" fill="#000000">&#45;signals_enabled</text>
<text text-anchor="middle" x="192" y="-254.4" font-family="Helvetica,sans-Serif" font-size="12.00" fill="#000000">&#45;signals_disabled</text>
</g>
<!-- Node4 -->
<g id="node4" class="node">
<title>Node4</title>
<polygon fill="#ffffff" stroke="#bfbfbf" points="145.5,-421.5 145.5,-484.5 174.5,-484.5 174.5,-421.5 145.5,-421.5"/>
<text text-anchor="middle" x="160" y="-470.9" font-family="Helvetica,sans-Serif" font-size="12.00" fill="#000000">K</text>
<polyline fill="none" stroke="#bfbfbf" points="145.5,-463.5 174.5,-463.5 "/>
<text text-anchor="middle" x="160" y="-449.9" font-family="Helvetica,sans-Serif" font-size="12.00" fill="#000000"> </text>
<polyline fill="none" stroke="#bfbfbf" points="145.5,-442.5 174.5,-442.5 "/>
<text text-anchor="middle" x="160" y="-428.9" font-family="Helvetica,sans-Serif" font-size="12.00" fill="#000000"> </text>
</g>
<!-- Node4&#45;&gt;Node3 -->
<g id="edge3" class="edge">
<title>Node4&#45;&gt;Node3</title>
<path fill="none" stroke="#404040" d="M160,-421.2225C160,-409.5703 160,-396.1706 160,-383.6581"/>
<polygon fill="none" stroke="#404040" points="160.0001,-383.539 156,-377.539 160,-371.539 164,-377.539 160.0001,-383.539"/>
<text text-anchor="middle" x="173.5" y="-393.4" font-family="Helvetica,sans-Serif" font-size="12.00" fill="#000000"> +keys</text>
</g>
<!-- Node5 -->
<g id="node5" class="node">
<title>Node5</title>
<polygon fill="#ffffff" stroke="#bfbfbf" points="220.5,-308.5 220.5,-371.5 277.5,-371.5 277.5,-308.5 220.5,-308.5"/>
<text text-anchor="middle" x="249" y="-357.9" font-family="Helvetica,sans-Serif" font-size="12.00" fill="#000000">static bool</text>
<polyline fill="none" stroke="#bfbfbf" points="220.5,-350.5 277.5,-350.5 "/>
<text text-anchor="middle" x="249" y="-336.9" font-family="Helvetica,sans-Serif" font-size="12.00" fill="#000000"> </text>
<polyline fill="none" stroke="#bfbfbf" points="220.5,-329.5 277.5,-329.5 "/>
<text text-anchor="middle" x="249" y="-315.9" font-family="Helvetica,sans-Serif" font-size="12.00" fill="#000000"> </text>
</g>
<!-- Node5&#45;&gt;Node1 -->
<g id="edge4" class="edge">
<title>Node5&#45;&gt;Node1</title>
<path fill="none" stroke="#404040" d="M243.0892,-308.1251C239.408,-290.9006 234.0268,-269.4432 227,-251 226.1003,-248.6386 225.1687,-246.2658 224.2087,-243.8857"/>
<polygon fill="none" stroke="#404040" points="224.163,-243.7765 218.1542,-239.7896 219.5232,-232.7097 225.532,-236.6965 224.163,-243.7765"/>
<text text-anchor="middle" x="269.5" y="-267.4" font-family="Helvetica,sans-Serif" font-size="12.00" fill="#000000"> &#45;signals_active</text>
</g>
</g>
</svg>
        <g id="navigator" transform="translate(0 0)" fill="#404254">
                <rect fill="#f2f5e9" fill-opacity="0.5" stroke="#606060" stroke-width=".5" x="0" y="0" width="60" height="60"/>
                <use id="zoomplus" xlink:href="#zoomPlus" x="17" y="9" onmousedown="handleZoom(evt,'in')"/>
                <use id="zoomminus" xlink:href="#zoomMin" x="42" y="9" onmousedown="handleZoom(evt,'out')"/>
                <use id="reset" xlink:href="#resetDef" x="30" y="36" onmousedown="handleReset()"/>
                <g id="arrowUp" xlink:href="#dirArrow" transform="translate(30 24)" onmousedown="handlePan(0,-1)">
                  <use xlink:href="#rim" fill="#404040">
                        <set attributeName="fill" to="#808080" begin="arrowUp.mouseover" end="arrowUp.mouseout"/>
                  </use>
                  <path fill="none" stroke="white" stroke-width="1.5" d="M0,-3.0v7 M-2.5,-0.5L0,-3.0L2.5,-0.5"/>
                </g>
                <g id="arrowRight" xlink:href="#dirArrow" transform="rotate(90) translate(36 -43)" onmousedown="handlePan(1,0)">
                  <use xlink:href="#rim" fill="#404040">
                        <set attributeName="fill" to="#808080" begin="arrowRight.mouseover" end="arrowRight.mouseout"/>
                  </use>
                  <path fill="none" stroke="white" stroke-width="1.5" d="M0,-3.0v7 M-2.5,-0.5L0,-3.0L2.5,-0.5"/>
                </g>
                <g id="arrowDown" xlink:href="#dirArrow" transform="rotate(180) translate(-30 -48)" onmousedown="handlePan(0,1)">
                  <use xlink:href="#rim" fill="#404040">
                        <set attributeName="fill" to="#808080" begin="arrowDown.mouseover" end="arrowDown.mouseout"/>
                  </use>
                  <path fill="none" stroke="white" stroke-width="1.5" d="M0,-3.0v7 M-2.5,-0.5L0,-3.0L2.5,-0.5"/>
                </g>
                <g id="arrowLeft" xlink:href="#dirArrow" transform="rotate(270) translate(-36 17)" onmousedown="handlePan(-1,0)">
                  <use xlink:href="#rim" fill="#404040">
                        <set attributeName="fill" to="#808080" begin="arrowLeft.mouseover" end="arrowLeft.mouseout"/>
                  </use>
                  <path fill="none" stroke="white" stroke-width="1.5" d="M0,-3.0v7 M-2.5,-0.5L0,-3.0L2.5,-0.5"/>
                </g>
        </g>
        <svg viewBox="0 0 15 15" width="100%" height="30px" preserveAspectRatio="xMaxYMin meet">
         <g id="arrow_out" transform="scale(0.3 0.3)">
          <a xlink:href="class_n_a_m_e___t_i_m_1_1signal__settings__coll__graph_org.svg" target="_base">
           <rect id="button" ry="5" rx="5" y="6" x="6" height="38" width="38"
                fill="#f2f5e9" fill-opacity="0.5" stroke="#606060" stroke-width="1.0"/>
           <path id="arrow"
             d="M 11.500037,31.436501 C 11.940474,20.09759 22.043105,11.32322 32.158766,21.979434 L 37.068811,17.246167 C 37.068811,17.246167 37.088388,32 37.088388,32 L 22.160133,31.978069 C 22.160133,31.978069 26.997745,27.140456 26.997745,27.140456 C 18.528582,18.264221 13.291696,25.230495 11.500037,31.436501 z"
             style="fill:#404040;"/>
          </a>
         </g>
        </svg>
</svg>
