<?xml version="1.0" encoding="UTF-8" standalone="no"?>
<!DOCTYPE svg PUBLIC "-//W3C//DTD SVG 1.1//EN"
 "http://www.w3.org/Graphics/SVG/1.1/DTD/svg11.dtd">
<!-- Generated by graphviz version 2.40.1 (20161225.0304)
 -->
<!-- Title: util.util.base_decorator Pages: 1 -->
<svg width="283pt" height="337pt"
 viewBox="0.00 0.00 283.00 337.00" xmlns="http://www.w3.org/2000/svg" xmlns:xlink="http://www.w3.org/1999/xlink">
<g id="graph0" class="graph" transform="scale(1 1) rotate(0) translate(4 333)">
<title>util.util.base_decorator</title>
<polygon fill="#ffffff" stroke="transparent" points="-4,4 -4,-333 279,-333 279,4 -4,4"/>
<!-- Node0 -->
<g id="node1" class="node">
<title>Node0</title>
<polygon fill="#bfbfbf" stroke="#000000" points="95,-113.5 95,-228.5 202,-228.5 202,-113.5 95,-113.5"/>
<text text-anchor="middle" x="148.5" y="-214.9" font-family="Helvetica,sans-Serif" font-size="12.00" fill="#000000">util.util.base_decorator</text>
<polyline fill="none" stroke="#000000" points="95,-207.5 202,-207.5 "/>
<text text-anchor="start" x="103" y="-193.9" font-family="Helvetica,sans-Serif" font-size="12.00" fill="#000000">+ key</text>
<text text-anchor="start" x="103" y="-180.9" font-family="Helvetica,sans-Serif" font-size="12.00" fill="#000000">+ add_args</text>
<text text-anchor="start" x="103" y="-167.9" font-family="Helvetica,sans-Serif" font-size="12.00" fill="#000000">+ is_class</text>
<polyline fill="none" stroke="#000000" points="95,-160.5 202,-160.5 "/>
<text text-anchor="start" x="103" y="-146.9" font-family="Helvetica,sans-Serif" font-size="12.00" fill="#000000">+ __init__()</text>
<text text-anchor="start" x="103" y="-133.9" font-family="Helvetica,sans-Serif" font-size="12.00" fill="#000000">+ class_string()</text>
<text text-anchor="start" x="103" y="-120.9" font-family="Helvetica,sans-Serif" font-size="12.00" fill="#000000">+ arg_string()</text>
</g>
<!-- Node2 -->
<g id="node3" class="node">
<title>Node2</title>
<g id="a_node3"><a xlink:href="../../d3/df4/classutil_1_1util_1_1auto__timer.html" target="_top" xlink:title="{util.util.auto_timer\n|+ report_at_exit\l|+ __init__()\l+ __call__()\l}">
<polygon fill="#ffffff" stroke="#000000" points="0,-.5 0,-76.5 87,-76.5 87,-.5 0,-.5"/>
<text text-anchor="middle" x="43.5" y="-62.9" font-family="Helvetica,sans-Serif" font-size="12.00" fill="#000000">util.util.auto_timer</text>
<polyline fill="none" stroke="#000000" points="0,-55.5 87,-55.5 "/>
<text text-anchor="start" x="8" y="-41.9" font-family="Helvetica,sans-Serif" font-size="12.00" fill="#000000">+ report_at_exit</text>
<polyline fill="none" stroke="#000000" points="0,-34.5 87,-34.5 "/>
<text text-anchor="start" x="8" y="-20.9" font-family="Helvetica,sans-Serif" font-size="12.00" fill="#000000">+ __init__()</text>
<text text-anchor="start" x="8" y="-7.9" font-family="Helvetica,sans-Serif" font-size="12.00" fill="#000000">+ __call__()</text>
</a>
</g>
</g>
<!-- Node0&#45;&gt;Node2 -->
<g id="edge2" class="edge">
<title>Node0&#45;&gt;Node2</title>
<path fill="none" stroke="#191970" d="M96.4962,-105.3762C88.6768,-95.5088 80.8426,-85.6228 73.6877,-76.594"/>
<polygon fill="none" stroke="#191970" points="93.7969,-107.6053 102.7509,-113.269 99.2832,-103.2577 93.7969,-107.6053"/>
</g>
<!-- Node3 -->
<g id="node4" class="node">
<title>Node3</title>
<g id="a_node4"><a xlink:href="../../d1/d2e/classutil_1_1util_1_1rss__usage.html" target="_top" xlink:title="{util.util.rss_usage\n|+ key\l|+ __init__()\l+ __call__()\l}">
<polygon fill="#ffffff" stroke="#000000" points="105.5,-.5 105.5,-76.5 191.5,-76.5 191.5,-.5 105.5,-.5"/>
<text text-anchor="middle" x="148.5" y="-62.9" font-family="Helvetica,sans-Serif" font-size="12.00" fill="#000000">util.util.rss_usage</text>
<polyline fill="none" stroke="#000000" points="105.5,-55.5 191.5,-55.5 "/>
<text text-anchor="start" x="113.5" y="-41.9" font-family="Helvetica,sans-Serif" font-size="12.00" fill="#000000">+ key</text>
<polyline fill="none" stroke="#000000" points="105.5,-34.5 191.5,-34.5 "/>
<text text-anchor="start" x="113.5" y="-20.9" font-family="Helvetica,sans-Serif" font-size="12.00" fill="#000000">+ __init__()</text>
<text text-anchor="start" x="113.5" y="-7.9" font-family="Helvetica,sans-Serif" font-size="12.00" fill="#000000">+ __call__()</text>
</a>
</g>
</g>
<!-- Node0&#45;&gt;Node3 -->
<g id="edge3" class="edge">
<title>Node0&#45;&gt;Node3</title>
<path fill="none" stroke="#191970" d="M148.5,-103.0316C148.5,-93.9481 148.5,-84.9076 148.5,-76.594"/>
<polygon fill="none" stroke="#191970" points="145.0001,-103.269 148.5,-113.269 152.0001,-103.269 145.0001,-103.269"/>
</g>
<!-- Node4 -->
<g id="node5" class="node">
<title>Node4</title>
<g id="a_node5"><a xlink:href="../../d9/dca/classutil_1_1util_1_1timer.html" target="_top" xlink:title="{util.util.timer\n|+ key\l|+ __init__()\l+ __call__()\l}">
<polygon fill="#ffffff" stroke="#000000" points="210,-.5 210,-76.5 275,-76.5 275,-.5 210,-.5"/>
<text text-anchor="middle" x="242.5" y="-62.9" font-family="Helvetica,sans-Serif" font-size="12.00" fill="#000000">util.util.timer</text>
<polyline fill="none" stroke="#000000" points="210,-55.5 275,-55.5 "/>
<text text-anchor="start" x="218" y="-41.9" font-family="Helvetica,sans-Serif" font-size="12.00" fill="#000000">+ key</text>
<polyline fill="none" stroke="#000000" points="210,-34.5 275,-34.5 "/>
<text text-anchor="start" x="218" y="-20.9" font-family="Helvetica,sans-Serif" font-size="12.00" fill="#000000">+ __init__()</text>
<text text-anchor="start" x="218" y="-7.9" font-family="Helvetica,sans-Serif" font-size="12.00" fill="#000000">+ __call__()</text>
</a>
</g>
</g>
<!-- Node0&#45;&gt;Node4 -->
<g id="edge4" class="edge">
<title>Node0&#45;&gt;Node4</title>
<path fill="none" stroke="#191970" d="M195.2637,-105.0831C202.1949,-95.3131 209.1329,-85.5334 215.4748,-76.594"/>
<polygon fill="none" stroke="#191970" points="192.3879,-103.0878 189.4563,-113.269 198.0971,-107.1382 192.3879,-103.0878"/>
</g>
<!-- Node1 -->
<g id="node2" class="node">
<title>Node1</title>
<g id="a_node2"><a xlink:href="../../dc/dd8/classobject.html" target="_top" xlink:title="{object\n||}">
<polygon fill="#ffffff" stroke="#000000" points="128,-265.5 128,-328.5 169,-328.5 169,-265.5 128,-265.5"/>
<text text-anchor="middle" x="148.5" y="-314.9" font-family="Helvetica,sans-Serif" font-size="12.00" fill="#000000">object</text>
<polyline fill="none" stroke="#000000" points="128,-307.5 169,-307.5 "/>
<text text-anchor="middle" x="148.5" y="-293.9" font-family="Helvetica,sans-Serif" font-size="12.00" fill="#000000"> </text>
<polyline fill="none" stroke="#000000" points="128,-286.5 169,-286.5 "/>
<text text-anchor="middle" x="148.5" y="-272.9" font-family="Helvetica,sans-Serif" font-size="12.00" fill="#000000"> </text>
</a>
</g>
</g>
<!-- Node1&#45;&gt;Node0 -->
<g id="edge1" class="edge">
<title>Node1&#45;&gt;Node0</title>
<path fill="none" stroke="#191970" d="M148.5,-254.9323C148.5,-246.5453 148.5,-237.5999 148.5,-228.7912"/>
<polygon fill="none" stroke="#191970" points="145.0001,-255.2048 148.5,-265.2049 152.0001,-255.2049 145.0001,-255.2048"/>
</g>
</g>
</svg>
