<?xml version="1.0" encoding="UTF-8" standalone="no"?>
<!DOCTYPE svg PUBLIC "-//W3C//DTD SVG 1.1//EN"
 "http://www.w3.org/Graphics/SVG/1.1/DTD/svg11.dtd">
<!-- Generated by graphviz version 2.40.1 (20161225.0304)
 -->
<!-- Title: util.util.base_decorator Pages: 1 -->
<svg width="289pt" height="389pt"
 viewBox="0.00 0.00 289.00 389.00" xmlns="http://www.w3.org/2000/svg" xmlns:xlink="http://www.w3.org/1999/xlink">
<g id="graph0" class="graph" transform="scale(1 1) rotate(0) translate(4 385)">
<title>util.util.base_decorator</title>
<polygon fill="#ffffff" stroke="transparent" points="-4,4 -4,-385 285,-385 285,4 -4,4"/>
<!-- Node0 -->
<g id="node1" class="node">
<title>Node0</title>
<polygon fill="#bfbfbf" stroke="#000000" points="95,-165.5 95,-280.5 202,-280.5 202,-165.5 95,-165.5"/>
<text text-anchor="middle" x="148.5" y="-266.9" font-family="Helvetica,sans-Serif" font-size="12.00" fill="#000000">util.util.base_decorator</text>
<polyline fill="none" stroke="#000000" points="95,-259.5 202,-259.5 "/>
<text text-anchor="start" x="103" y="-245.9" font-family="Helvetica,sans-Serif" font-size="12.00" fill="#000000">+ key</text>
<text text-anchor="start" x="103" y="-232.9" font-family="Helvetica,sans-Serif" font-size="12.00" fill="#000000">+ add_args</text>
<text text-anchor="start" x="103" y="-219.9" font-family="Helvetica,sans-Serif" font-size="12.00" fill="#000000">+ is_class</text>
<polyline fill="none" stroke="#000000" points="95,-212.5 202,-212.5 "/>
<text text-anchor="start" x="103" y="-198.9" font-family="Helvetica,sans-Serif" font-size="12.00" fill="#000000">+ __init__()</text>
<text text-anchor="start" x="103" y="-185.9" font-family="Helvetica,sans-Serif" font-size="12.00" fill="#000000">+ class_string()</text>
<text text-anchor="start" x="103" y="-172.9" font-family="Helvetica,sans-Serif" font-size="12.00" fill="#000000">+ arg_string()</text>
</g>
<!-- Node2 -->
<g id="node3" class="node">
<title>Node2</title>
<g id="a_node3"><a xlink:href="../../d3/df4/classutil_1_1util_1_1auto__timer.html" target="_top" xlink:title="{util.util.auto_timer\n|+ report_at_exit\l+ key\l&#45; _self_obj\l|+ __init__()\l+ __call__()\l+ __enter__()\l+ __exit__()\l}">
<polygon fill="#ffffff" stroke="#000000" points="0,-.5 0,-128.5 87,-128.5 87,-.5 0,-.5"/>
<text text-anchor="middle" x="43.5" y="-114.9" font-family="Helvetica,sans-Serif" font-size="12.00" fill="#000000">util.util.auto_timer</text>
<polyline fill="none" stroke="#000000" points="0,-107.5 87,-107.5 "/>
<text text-anchor="start" x="8" y="-93.9" font-family="Helvetica,sans-Serif" font-size="12.00" fill="#000000">+ report_at_exit</text>
<text text-anchor="start" x="8" y="-80.9" font-family="Helvetica,sans-Serif" font-size="12.00" fill="#000000">+ key</text>
<text text-anchor="start" x="8" y="-67.9" font-family="Helvetica,sans-Serif" font-size="12.00" fill="#000000">&#45; _self_obj</text>
<polyline fill="none" stroke="#000000" points="0,-60.5 87,-60.5 "/>
<text text-anchor="start" x="8" y="-46.9" font-family="Helvetica,sans-Serif" font-size="12.00" fill="#000000">+ __init__()</text>
<text text-anchor="start" x="8" y="-33.9" font-family="Helvetica,sans-Serif" font-size="12.00" fill="#000000">+ __call__()</text>
<text text-anchor="start" x="8" y="-20.9" font-family="Helvetica,sans-Serif" font-size="12.00" fill="#000000">+ __enter__()</text>
<text text-anchor="start" x="8" y="-7.9" font-family="Helvetica,sans-Serif" font-size="12.00" fill="#000000">+ __exit__()</text>
</a>
</g>
</g>
<!-- Node0&#45;&gt;Node2 -->
<g id="edge2" class="edge">
<title>Node0&#45;&gt;Node2</title>
<path fill="none" stroke="#191970" d="M104.6626,-156.8263C98.467,-147.474 92.1059,-137.8718 85.9374,-128.5602"/>
<polygon fill="none" stroke="#191970" points="101.855,-158.9258 110.2956,-165.3295 107.6907,-155.0599 101.855,-158.9258"/>
</g>
<!-- Node3 -->
<g id="node4" class="node">
<title>Node3</title>
<g id="a_node4"><a xlink:href="../../d1/d2e/classutil_1_1util_1_1rss__usage.html" target="_top" xlink:title="{util.util.rss_usage\n|+ key\l&#45; _self_obj\l&#45; _self_key\l|+ __init__()\l+ __call__()\l+ __enter__()\l+ __exit__()\l}">
<polygon fill="#ffffff" stroke="#000000" points="105.5,-.5 105.5,-128.5 191.5,-128.5 191.5,-.5 105.5,-.5"/>
<text text-anchor="middle" x="148.5" y="-114.9" font-family="Helvetica,sans-Serif" font-size="12.00" fill="#000000">util.util.rss_usage</text>
<polyline fill="none" stroke="#000000" points="105.5,-107.5 191.5,-107.5 "/>
<text text-anchor="start" x="113.5" y="-93.9" font-family="Helvetica,sans-Serif" font-size="12.00" fill="#000000">+ key</text>
<text text-anchor="start" x="113.5" y="-80.9" font-family="Helvetica,sans-Serif" font-size="12.00" fill="#000000">&#45; _self_obj</text>
<text text-anchor="start" x="113.5" y="-67.9" font-family="Helvetica,sans-Serif" font-size="12.00" fill="#000000">&#45; _self_key</text>
<polyline fill="none" stroke="#000000" points="105.5,-60.5 191.5,-60.5 "/>
<text text-anchor="start" x="113.5" y="-46.9" font-family="Helvetica,sans-Serif" font-size="12.00" fill="#000000">+ __init__()</text>
<text text-anchor="start" x="113.5" y="-33.9" font-family="Helvetica,sans-Serif" font-size="12.00" fill="#000000">+ __call__()</text>
<text text-anchor="start" x="113.5" y="-20.9" font-family="Helvetica,sans-Serif" font-size="12.00" fill="#000000">+ __enter__()</text>
<text text-anchor="start" x="113.5" y="-7.9" font-family="Helvetica,sans-Serif" font-size="12.00" fill="#000000">+ __exit__()</text>
</a>
</g>
</g>
<!-- Node0&#45;&gt;Node3 -->
<g id="edge3" class="edge">
<title>Node0&#45;&gt;Node3</title>
<path fill="none" stroke="#191970" d="M148.5,-155.1059C148.5,-146.2993 148.5,-137.3017 148.5,-128.5602"/>
<polygon fill="none" stroke="#191970" points="145.0001,-155.3295 148.5,-165.3295 152.0001,-155.3295 145.0001,-155.3295"/>
</g>
<!-- Node4 -->
<g id="node5" class="node">
<title>Node4</title>
<g id="a_node5"><a xlink:href="../../d9/dca/classutil_1_1util_1_1timer.html" target="_top" xlink:title="{util.util.timer\n|+ key\l&#45; _self_obj\l|+ __init__()\l+ __call__()\l+ __enter__()\l+ __exit__()\l}">
<polygon fill="#ffffff" stroke="#000000" points="210,-7 210,-122 281,-122 281,-7 210,-7"/>
<text text-anchor="middle" x="245.5" y="-108.4" font-family="Helvetica,sans-Serif" font-size="12.00" fill="#000000">util.util.timer</text>
<polyline fill="none" stroke="#000000" points="210,-101 281,-101 "/>
<text text-anchor="start" x="218" y="-87.4" font-family="Helvetica,sans-Serif" font-size="12.00" fill="#000000">+ key</text>
<text text-anchor="start" x="218" y="-74.4" font-family="Helvetica,sans-Serif" font-size="12.00" fill="#000000">&#45; _self_obj</text>
<polyline fill="none" stroke="#000000" points="210,-67 281,-67 "/>
<text text-anchor="start" x="218" y="-53.4" font-family="Helvetica,sans-Serif" font-size="12.00" fill="#000000">+ __init__()</text>
<text text-anchor="start" x="218" y="-40.4" font-family="Helvetica,sans-Serif" font-size="12.00" fill="#000000">+ __call__()</text>
<text text-anchor="start" x="218" y="-27.4" font-family="Helvetica,sans-Serif" font-size="12.00" fill="#000000">+ __enter__()</text>
<text text-anchor="start" x="218" y="-14.4" font-family="Helvetica,sans-Serif" font-size="12.00" fill="#000000">+ __exit__()</text>
</a>
</g>
</g>
<!-- Node0&#45;&gt;Node4 -->
<g id="edge4" class="edge">
<title>Node0&#45;&gt;Node4</title>
<path fill="none" stroke="#191970" d="M189.1065,-156.6482C196.125,-145.1797 203.3702,-133.3409 210.2327,-122.1276"/>
<polygon fill="none" stroke="#191970" points="186.0283,-154.973 183.7936,-165.3295 191.9989,-158.627 186.0283,-154.973"/>
</g>
<!-- Node1 -->
<g id="node2" class="node">
<title>Node1</title>
<g id="a_node2"><a xlink:href="../../dc/dd8/classobject.html" target="_top" xlink:title="{object\n||}">
<polygon fill="#ffffff" stroke="#000000" points="128,-317.5 128,-380.5 169,-380.5 169,-317.5 128,-317.5"/>
<text text-anchor="middle" x="148.5" y="-366.9" font-family="Helvetica,sans-Serif" font-size="12.00" fill="#000000">object</text>
<polyline fill="none" stroke="#000000" points="128,-359.5 169,-359.5 "/>
<text text-anchor="middle" x="148.5" y="-345.9" font-family="Helvetica,sans-Serif" font-size="12.00" fill="#000000"> </text>
<polyline fill="none" stroke="#000000" points="128,-338.5 169,-338.5 "/>
<text text-anchor="middle" x="148.5" y="-324.9" font-family="Helvetica,sans-Serif" font-size="12.00" fill="#000000"> </text>
</a>
</g>
</g>
<!-- Node1&#45;&gt;Node0 -->
<g id="edge1" class="edge">
<title>Node1&#45;&gt;Node0</title>
<path fill="none" stroke="#191970" d="M148.5,-306.9323C148.5,-298.5453 148.5,-289.5999 148.5,-280.7912"/>
<polygon fill="none" stroke="#191970" points="145.0001,-307.2048 148.5,-317.2049 152.0001,-307.2049 145.0001,-307.2048"/>
</g>
</g>
</svg>
