<?xml version="1.0" encoding="UTF-8" standalone="no"?>
<!DOCTYPE svg PUBLIC "-//W3C//DTD SVG 1.1//EN"
 "http://www.w3.org/Graphics/SVG/1.1/DTD/svg11.dtd">
<!-- Generated by graphviz version 2.40.1 (20161225.0304)
 -->
<!-- Title: timemory/rss.hpp Pages: 1 -->
<svg width="1336pt" height="88pt"
 viewBox="0.00 0.00 1335.50 88.00" xmlns="http://www.w3.org/2000/svg" xmlns:xlink="http://www.w3.org/1999/xlink">
<g id="graph0" class="graph" transform="scale(1 1) rotate(0) translate(4 84)">
<title>timemory/rss.hpp</title>
<polygon fill="#ffffff" stroke="transparent" points="-4,4 -4,-84 1331.5,-84 1331.5,4 -4,4"/>
<!-- Node0 -->
<g id="node1" class="node">
<title>Node0</title>
<polygon fill="#bfbfbf" stroke="#000000" points="411.5,-58.5 411.5,-79.5 497.5,-79.5 497.5,-58.5 411.5,-58.5"/>
<text text-anchor="middle" x="454.5" y="-65.9" font-family="Helvetica,sans-Serif" font-size="12.00" fill="#000000">timemory/rss.hpp</text>
</g>
<!-- Node1 -->
<g id="node2" class="node">
<title>Node1</title>
<polygon fill="#ffffff" stroke="#bfbfbf" points="0,-.5 0,-21.5 29,-21.5 29,-.5 0,-.5"/>
<text text-anchor="middle" x="14.5" y="-7.9" font-family="Helvetica,sans-Serif" font-size="12.00" fill="#000000">ios</text>
</g>
<!-- Node0&#45;&gt;Node1 -->
<g id="edge1" class="edge">
<title>Node0&#45;&gt;Node1</title>
<path fill="none" stroke="#191970" d="M411.3582,-65.9674C323.0283,-59.4726 123.4205,-43.2593 39.0177,-21.6285"/>
<polygon fill="#191970" stroke="#191970" points="39.8808,-18.236 29.311,-18.964 38.0278,-24.9863 39.8808,-18.236"/>
</g>
<!-- Node2 -->
<g id="node3" class="node">
<title>Node2</title>
<polygon fill="#ffffff" stroke="#bfbfbf" points="47,-.5 47,-21.5 98,-21.5 98,-.5 47,-.5"/>
<text text-anchor="middle" x="72.5" y="-7.9" font-family="Helvetica,sans-Serif" font-size="12.00" fill="#000000">iostream</text>
</g>
<!-- Node0&#45;&gt;Node2 -->
<g id="edge2" class="edge">
<title>Node0&#45;&gt;Node2</title>
<path fill="none" stroke="#191970" d="M411.4711,-65.6789C347.1726,-60.1748 222.1812,-47.3862 108.2845,-22.1317"/>
<polygon fill="#191970" stroke="#191970" points="108.8808,-18.6784 98.3557,-19.8917 107.3402,-25.5068 108.8808,-18.6784"/>
</g>
<!-- Node3 -->
<g id="node4" class="node">
<title>Node3</title>
<polygon fill="#ffffff" stroke="#bfbfbf" points="116,-.5 116,-21.5 163,-21.5 163,-.5 116,-.5"/>
<text text-anchor="middle" x="139.5" y="-7.9" font-family="Helvetica,sans-Serif" font-size="12.00" fill="#000000">fstream</text>
</g>
<!-- Node0&#45;&gt;Node3 -->
<g id="edge3" class="edge">
<title>Node0&#45;&gt;Node3</title>
<path fill="none" stroke="#191970" d="M411.3706,-64.1069C357.4467,-57.4916 262.2625,-44.1765 172.8783,-22.0669"/>
<polygon fill="#191970" stroke="#191970" points="173.6847,-18.6608 163.1329,-19.6149 171.9767,-25.4492 173.6847,-18.6608"/>
</g>
<!-- Node4 -->
<g id="node5" class="node">
<title>Node4</title>
<polygon fill="#ffffff" stroke="#bfbfbf" points="181,-.5 181,-21.5 220,-21.5 220,-.5 181,-.5"/>
<text text-anchor="middle" x="200.5" y="-7.9" font-family="Helvetica,sans-Serif" font-size="12.00" fill="#000000">string</text>
</g>
<!-- Node0&#45;&gt;Node4 -->
<g id="edge4" class="edge">
<title>Node0&#45;&gt;Node4</title>
<path fill="none" stroke="#191970" d="M411.2916,-62.0482C367.6779,-54.5725 298.3256,-41.4331 229.6912,-21.7048"/>
<polygon fill="#191970" stroke="#191970" points="230.5944,-18.3224 220.0141,-18.8772 228.631,-25.0415 230.5944,-18.3224"/>
</g>
<!-- Node5 -->
<g id="node6" class="node">
<title>Node5</title>
<polygon fill="#ffffff" stroke="#bfbfbf" points="238.5,-.5 238.5,-21.5 286.5,-21.5 286.5,-.5 238.5,-.5"/>
<text text-anchor="middle" x="262.5" y="-7.9" font-family="Helvetica,sans-Serif" font-size="12.00" fill="#000000">iomanip</text>
</g>
<!-- Node0&#45;&gt;Node5 -->
<g id="edge5" class="edge">
<title>Node0&#45;&gt;Node5</title>
<path fill="none" stroke="#191970" d="M417.4439,-58.4366C387.2311,-49.7369 343.2301,-36.8707 296.3469,-22.2025"/>
<polygon fill="#191970" stroke="#191970" points="297.2089,-18.8047 286.6195,-19.146 295.1104,-25.4828 297.2089,-18.8047"/>
</g>
<!-- Node6 -->
<g id="node7" class="node">
<title>Node6</title>
<polygon fill="#ffffff" stroke="#bfbfbf" points="305,-.5 305,-21.5 348,-21.5 348,-.5 305,-.5"/>
<text text-anchor="middle" x="326.5" y="-7.9" font-family="Helvetica,sans-Serif" font-size="12.00" fill="#000000">stdio.h</text>
</g>
<!-- Node0&#45;&gt;Node6 -->
<g id="edge6" class="edge">
<title>Node0&#45;&gt;Node6</title>
<path fill="none" stroke="#191970" d="M431.3202,-58.4966C410.6438,-49.1277 380.2117,-35.3381 357.4578,-25.0278"/>
<polygon fill="#191970" stroke="#191970" points="358.7802,-21.7844 348.227,-20.8451 355.891,-28.1604 358.7802,-21.7844"/>
</g>
<!-- Node7 -->
<g id="node8" class="node">
<title>Node7</title>
<polygon fill="#ffffff" stroke="#bfbfbf" points="366,-.5 366,-21.5 409,-21.5 409,-.5 366,-.5"/>
<text text-anchor="middle" x="387.5" y="-7.9" font-family="Helvetica,sans-Serif" font-size="12.00" fill="#000000">cstdint</text>
</g>
<!-- Node0&#45;&gt;Node7 -->
<g id="edge7" class="edge">
<title>Node0&#45;&gt;Node7</title>
<path fill="none" stroke="#191970" d="M442.2112,-58.3619C432.4833,-49.9408 418.7018,-38.0105 407.4045,-28.2308"/>
<polygon fill="#191970" stroke="#191970" points="409.5623,-25.4695 399.7109,-21.5707 404.9808,-30.7619 409.5623,-25.4695"/>
</g>
<!-- Node8 -->
<g id="node9" class="node">
<title>Node8</title>
<polygon fill="#ffffff" stroke="#bfbfbf" points="427.5,-.5 427.5,-21.5 481.5,-21.5 481.5,-.5 427.5,-.5"/>
<text text-anchor="middle" x="454.5" y="-7.9" font-family="Helvetica,sans-Serif" font-size="12.00" fill="#000000">algorithm</text>
</g>
<!-- Node0&#45;&gt;Node8 -->
<g id="edge8" class="edge">
<title>Node0&#45;&gt;Node8</title>
<path fill="none" stroke="#191970" d="M454.5,-58.3619C454.5,-50.9219 454.5,-40.7427 454.5,-31.7276"/>
<polygon fill="#191970" stroke="#191970" points="458.0001,-31.5706 454.5,-21.5707 451.0001,-31.5707 458.0001,-31.5706"/>
</g>
<!-- Node9 -->
<g id="node10" class="node">
<title>Node9</title>
<polygon fill="#ffffff" stroke="#bfbfbf" points="499.5,-.5 499.5,-21.5 585.5,-21.5 585.5,-.5 499.5,-.5"/>
<text text-anchor="middle" x="542.5" y="-7.9" font-family="Helvetica,sans-Serif" font-size="12.00" fill="#000000">cereal/cereal.hpp</text>
</g>
<!-- Node0&#45;&gt;Node9 -->
<g id="edge9" class="edge">
<title>Node0&#45;&gt;Node9</title>
<path fill="none" stroke="#191970" d="M470.6406,-58.3619C483.9136,-49.6138 502.9325,-37.0786 518.0702,-27.1015"/>
<polygon fill="#191970" stroke="#191970" points="520.0383,-29.9962 526.4618,-21.5707 516.1861,-24.1515 520.0383,-29.9962"/>
</g>
<!-- Node10 -->
<g id="node11" class="node">
<title>Node10</title>
<polygon fill="#ffffff" stroke="#bfbfbf" points="604,-.5 604,-21.5 693,-21.5 693,-.5 604,-.5"/>
<text text-anchor="middle" x="648.5" y="-7.9" font-family="Helvetica,sans-Serif" font-size="12.00" fill="#000000">cereal/access.hpp</text>
</g>
<!-- Node0&#45;&gt;Node10 -->
<g id="edge10" class="edge">
<title>Node0&#45;&gt;Node10</title>
<path fill="none" stroke="#191970" d="M489.6319,-58.4966C521.533,-48.9592 568.7565,-34.8408 603.4283,-24.475"/>
<polygon fill="#191970" stroke="#191970" points="604.7238,-27.7409 613.3022,-21.5231 602.7186,-21.0342 604.7238,-27.7409"/>
</g>
<!-- Node11 -->
<g id="node12" class="node">
<title>Node11</title>
<polygon fill="#ffffff" stroke="#bfbfbf" points="711,-.5 711,-21.5 802,-21.5 802,-.5 711,-.5"/>
<text text-anchor="middle" x="756.5" y="-7.9" font-family="Helvetica,sans-Serif" font-size="12.00" fill="#000000">cereal/macros.hpp</text>
</g>
<!-- Node0&#45;&gt;Node11 -->
<g id="edge11" class="edge">
<title>Node0&#45;&gt;Node11</title>
<path fill="none" stroke="#191970" d="M497.5446,-61.0268C545.0042,-52.1948 623.8869,-37.3944 700.9662,-22.2858"/>
<polygon fill="#191970" stroke="#191970" points="701.7056,-25.7075 710.8437,-20.346 700.3566,-18.8387 701.7056,-25.7075"/>
</g>
<!-- Node12 -->
<g id="node13" class="node">
<title>Node12</title>
<polygon fill="#ffffff" stroke="#bfbfbf" points="820,-.5 820,-21.5 933,-21.5 933,-.5 820,-.5"/>
<text text-anchor="middle" x="876.5" y="-7.9" font-family="Helvetica,sans-Serif" font-size="12.00" fill="#000000">cereal/types/chrono.hpp</text>
</g>
<!-- Node0&#45;&gt;Node12 -->
<g id="edge12" class="edge">
<title>Node0&#45;&gt;Node12</title>
<path fill="none" stroke="#191970" d="M497.7104,-63.8312C563.0817,-55.8974 691.2692,-39.8962 809.8251,-22.2165"/>
<polygon fill="#191970" stroke="#191970" points="810.4286,-25.6652 819.7993,-20.7216 809.391,-18.7425 810.4286,-25.6652"/>
</g>
<!-- Node13 -->
<g id="node14" class="node">
<title>Node13</title>
<polygon fill="#ffffff" stroke="#bfbfbf" points="951.5,-.5 951.5,-21.5 1061.5,-21.5 1061.5,-.5 951.5,-.5"/>
<text text-anchor="middle" x="1006.5" y="-7.9" font-family="Helvetica,sans-Serif" font-size="12.00" fill="#000000">cereal/types/deque.hpp</text>
</g>
<!-- Node0&#45;&gt;Node13 -->
<g id="edge13" class="edge">
<title>Node0&#45;&gt;Node13</title>
<path fill="none" stroke="#191970" d="M497.7076,-65.9213C581.3128,-59.7296 771.2305,-44.5244 941.2462,-22.0899"/>
<polygon fill="#191970" stroke="#191970" points="941.9311,-25.5297 951.3818,-20.7406 941.0074,-18.5909 941.9311,-25.5297"/>
</g>
<!-- Node14 -->
<g id="node15" class="node">
<title>Node14</title>
<polygon fill="#ffffff" stroke="#bfbfbf" points="1079.5,-.5 1079.5,-21.5 1189.5,-21.5 1189.5,-.5 1079.5,-.5"/>
<text text-anchor="middle" x="1134.5" y="-7.9" font-family="Helvetica,sans-Serif" font-size="12.00" fill="#000000">cereal/types/vector.hpp</text>
</g>
<!-- Node0&#45;&gt;Node14 -->
<g id="edge14" class="edge">
<title>Node0&#45;&gt;Node14</title>
<path fill="none" stroke="#191970" d="M497.5803,-67.1095C596.6589,-62.4619 848.5067,-48.9395 1069.2361,-22.0594"/>
<polygon fill="#191970" stroke="#191970" points="1069.8928,-25.5051 1079.3908,-20.8105 1069.0383,-18.5574 1069.8928,-25.5051"/>
</g>
<!-- Node15 -->
<g id="node16" class="node">
<title>Node15</title>
<g id="a_node16"><a xlink:href="../../db/d19/namespace_8hpp.html" target="_top" xlink:title="timemory/namespace.hpp">
<polygon fill="#ffffff" stroke="#000000" points="1207.5,-.5 1207.5,-21.5 1327.5,-21.5 1327.5,-.5 1207.5,-.5"/>
<text text-anchor="middle" x="1267.5" y="-7.9" font-family="Helvetica,sans-Serif" font-size="12.00" fill="#000000">timemory/namespace.hpp</text>
</a>
</g>
</g>
<!-- Node0&#45;&gt;Node15 -->
<g id="edge15" class="edge">
<title>Node0&#45;&gt;Node15</title>
<path fill="none" stroke="#191970" d="M497.8147,-67.7027C611.057,-64.0035 925.3936,-51.764 1197.2751,-22.0462"/>
<polygon fill="#191970" stroke="#191970" points="1197.779,-25.512 1207.3349,-20.9364 1197.0114,-18.5542 1197.779,-25.512"/>
</g>
</g>
</svg>
