<?xml version="1.0" encoding="UTF-8" standalone="no"?>
<!DOCTYPE svg PUBLIC "-//W3C//DTD SVG 1.1//EN"
 "http://www.w3.org/Graphics/SVG/1.1/DTD/svg11.dtd">
<!-- Generated by graphviz version 2.40.1 (20161225.0304)
 -->
<!-- Title: timemory/rss.hpp Pages: 1 -->
<svg width="1330pt" height="88pt"
 viewBox="0.00 0.00 1330.00 88.00" xmlns="http://www.w3.org/2000/svg" xmlns:xlink="http://www.w3.org/1999/xlink">
<g id="graph0" class="graph" transform="scale(1 1) rotate(0) translate(4 84)">
<title>timemory/rss.hpp</title>
<polygon fill="#ffffff" stroke="transparent" points="-4,4 -4,-84 1326,-84 1326,4 -4,4"/>
<!-- Node0 -->
<g id="node1" class="node">
<title>Node0</title>
<polygon fill="#bfbfbf" stroke="#000000" points="411,-58.5 411,-79.5 497,-79.5 497,-58.5 411,-58.5"/>
<text text-anchor="middle" x="454" y="-65.9" font-family="Helvetica,sans-Serif" font-size="12.00" fill="#000000">timemory/rss.hpp</text>
</g>
<!-- Node1 -->
<g id="node2" class="node">
<title>Node1</title>
<polygon fill="#ffffff" stroke="#bfbfbf" points="0,-.5 0,-21.5 48,-21.5 48,-.5 0,-.5"/>
<text text-anchor="middle" x="24" y="-7.9" font-family="Helvetica,sans-Serif" font-size="12.00" fill="#000000">unistd.h</text>
</g>
<!-- Node0&#45;&gt;Node1 -->
<g id="edge1" class="edge">
<title>Node0&#45;&gt;Node1</title>
<path fill="none" stroke="#191970" d="M410.9243,-66.7823C339.3157,-62.4726 191.2907,-50.9181 58.306,-21.9415"/>
<polygon fill="#191970" stroke="#191970" points="58.8725,-18.4822 48.3518,-19.7332 57.3564,-25.316 58.8725,-18.4822"/>
</g>
<!-- Node2 -->
<g id="node3" class="node">
<title>Node2</title>
<polygon fill="#ffffff" stroke="#bfbfbf" points="66.5,-.5 66.5,-21.5 95.5,-21.5 95.5,-.5 66.5,-.5"/>
<text text-anchor="middle" x="81" y="-7.9" font-family="Helvetica,sans-Serif" font-size="12.00" fill="#000000">ios</text>
</g>
<!-- Node0&#45;&gt;Node2 -->
<g id="edge2" class="edge">
<title>Node0&#45;&gt;Node2</title>
<path fill="none" stroke="#191970" d="M410.8048,-67.522C345.7043,-64.3657 218.8196,-54.5923 105.6809,-21.8381"/>
<polygon fill="#191970" stroke="#191970" points="106.4077,-18.4031 95.8252,-18.9152 104.4173,-25.1142 106.4077,-18.4031"/>
</g>
<!-- Node3 -->
<g id="node4" class="node">
<title>Node3</title>
<polygon fill="#ffffff" stroke="#bfbfbf" points="113.5,-.5 113.5,-21.5 164.5,-21.5 164.5,-.5 113.5,-.5"/>
<text text-anchor="middle" x="139" y="-7.9" font-family="Helvetica,sans-Serif" font-size="12.00" fill="#000000">iostream</text>
</g>
<!-- Node0&#45;&gt;Node3 -->
<g id="edge3" class="edge">
<title>Node0&#45;&gt;Node3</title>
<path fill="none" stroke="#191970" d="M410.755,-63.7784C357.2388,-56.8751 263.236,-43.3096 174.4633,-22.1126"/>
<polygon fill="#191970" stroke="#191970" points="175.0475,-18.6529 164.5042,-19.6965 173.3971,-25.4556 175.0475,-18.6529"/>
</g>
<!-- Node4 -->
<g id="node5" class="node">
<title>Node4</title>
<polygon fill="#ffffff" stroke="#bfbfbf" points="182.5,-.5 182.5,-21.5 229.5,-21.5 229.5,-.5 182.5,-.5"/>
<text text-anchor="middle" x="206" y="-7.9" font-family="Helvetica,sans-Serif" font-size="12.00" fill="#000000">fstream</text>
</g>
<!-- Node0&#45;&gt;Node4 -->
<g id="edge4" class="edge">
<title>Node0&#45;&gt;Node4</title>
<path fill="none" stroke="#191970" d="M410.604,-61.1053C368.869,-53.1692 303.87,-39.9117 239.5634,-22.2376"/>
<polygon fill="#191970" stroke="#191970" points="240.2411,-18.7932 229.6686,-19.4809 238.3624,-25.5364 240.2411,-18.7932"/>
</g>
<!-- Node5 -->
<g id="node6" class="node">
<title>Node5</title>
<polygon fill="#ffffff" stroke="#bfbfbf" points="247.5,-.5 247.5,-21.5 286.5,-21.5 286.5,-.5 247.5,-.5"/>
<text text-anchor="middle" x="267" y="-7.9" font-family="Helvetica,sans-Serif" font-size="12.00" fill="#000000">string</text>
</g>
<!-- Node0&#45;&gt;Node5 -->
<g id="edge5" class="edge">
<title>Node0&#45;&gt;Node5</title>
<path fill="none" stroke="#191970" d="M415.7623,-58.476C385.6814,-50.0073 342.5397,-37.4457 296.204,-21.9057"/>
<polygon fill="#191970" stroke="#191970" points="297.1793,-18.5408 286.585,-18.6518 294.9362,-25.1717 297.1793,-18.5408"/>
</g>
<!-- Node6 -->
<g id="node7" class="node">
<title>Node6</title>
<polygon fill="#ffffff" stroke="#bfbfbf" points="305,-.5 305,-21.5 353,-21.5 353,-.5 305,-.5"/>
<text text-anchor="middle" x="329" y="-7.9" font-family="Helvetica,sans-Serif" font-size="12.00" fill="#000000">iomanip</text>
</g>
<!-- Node0&#45;&gt;Node6 -->
<g id="edge6" class="edge">
<title>Node0&#45;&gt;Node6</title>
<path fill="none" stroke="#191970" d="M431.3634,-58.4966C411.7521,-49.397 383.1536,-36.1273 361.1667,-25.9253"/>
<polygon fill="#191970" stroke="#191970" points="362.4348,-22.6554 351.8906,-21.6212 359.4885,-29.0051 362.4348,-22.6554"/>
</g>
<!-- Node7 -->
<g id="node8" class="node">
<title>Node7</title>
<polygon fill="#ffffff" stroke="#bfbfbf" points="371.5,-.5 371.5,-21.5 414.5,-21.5 414.5,-.5 371.5,-.5"/>
<text text-anchor="middle" x="393" y="-7.9" font-family="Helvetica,sans-Serif" font-size="12.00" fill="#000000">stdio.h</text>
</g>
<!-- Node0&#45;&gt;Node7 -->
<g id="edge7" class="edge">
<title>Node0&#45;&gt;Node7</title>
<path fill="none" stroke="#191970" d="M442.8117,-58.3619C434.041,-50.0226 421.6509,-38.2418 411.4222,-28.5162"/>
<polygon fill="#191970" stroke="#191970" points="413.7762,-25.9248 404.1174,-21.5707 408.9527,-30.9978 413.7762,-25.9248"/>
</g>
<!-- Node8 -->
<g id="node9" class="node">
<title>Node8</title>
<polygon fill="#ffffff" stroke="#bfbfbf" points="432.5,-.5 432.5,-21.5 475.5,-21.5 475.5,-.5 432.5,-.5"/>
<text text-anchor="middle" x="454" y="-7.9" font-family="Helvetica,sans-Serif" font-size="12.00" fill="#000000">cstdint</text>
</g>
<!-- Node0&#45;&gt;Node8 -->
<g id="edge8" class="edge">
<title>Node0&#45;&gt;Node8</title>
<path fill="none" stroke="#191970" d="M454,-58.3619C454,-50.9219 454,-40.7427 454,-31.7276"/>
<polygon fill="#191970" stroke="#191970" points="457.5001,-31.5706 454,-21.5707 450.5001,-31.5707 457.5001,-31.5706"/>
</g>
<!-- Node9 -->
<g id="node10" class="node">
<title>Node9</title>
<polygon fill="#ffffff" stroke="#bfbfbf" points="494,-.5 494,-21.5 580,-21.5 580,-.5 494,-.5"/>
<text text-anchor="middle" x="537" y="-7.9" font-family="Helvetica,sans-Serif" font-size="12.00" fill="#000000">cereal/cereal.hpp</text>
</g>
<!-- Node0&#45;&gt;Node9 -->
<g id="edge9" class="edge">
<title>Node0&#45;&gt;Node9</title>
<path fill="none" stroke="#191970" d="M469.2235,-58.3619C481.6254,-49.6955 499.3458,-37.3126 513.557,-27.3819"/>
<polygon fill="#191970" stroke="#191970" points="515.6809,-30.1676 521.873,-21.5707 511.6712,-24.4297 515.6809,-30.1676"/>
</g>
<!-- Node10 -->
<g id="node11" class="node">
<title>Node10</title>
<polygon fill="#ffffff" stroke="#bfbfbf" points="598.5,-.5 598.5,-21.5 687.5,-21.5 687.5,-.5 598.5,-.5"/>
<text text-anchor="middle" x="643" y="-7.9" font-family="Helvetica,sans-Serif" font-size="12.00" fill="#000000">cereal/access.hpp</text>
</g>
<!-- Node0&#45;&gt;Node10 -->
<g id="edge10" class="edge">
<title>Node0&#45;&gt;Node10</title>
<path fill="none" stroke="#191970" d="M488.2265,-58.4966C519.3054,-48.9592 565.3118,-34.8408 599.0899,-24.475"/>
<polygon fill="#191970" stroke="#191970" points="600.1762,-27.8029 608.7093,-21.5231 598.1225,-21.1109 600.1762,-27.8029"/>
</g>
<!-- Node11 -->
<g id="node12" class="node">
<title>Node11</title>
<polygon fill="#ffffff" stroke="#bfbfbf" points="705.5,-.5 705.5,-21.5 796.5,-21.5 796.5,-.5 705.5,-.5"/>
<text text-anchor="middle" x="751" y="-7.9" font-family="Helvetica,sans-Serif" font-size="12.00" fill="#000000">cereal/macros.hpp</text>
</g>
<!-- Node0&#45;&gt;Node11 -->
<g id="edge11" class="edge">
<title>Node0&#45;&gt;Node11</title>
<path fill="none" stroke="#191970" d="M497.0424,-60.8082C543.5447,-51.9283 620.1016,-37.2237 695.233,-22.3393"/>
<polygon fill="#191970" stroke="#191970" points="696.2136,-25.7131 705.3413,-20.3339 694.8513,-18.8469 696.2136,-25.7131"/>
</g>
<!-- Node12 -->
<g id="node13" class="node">
<title>Node12</title>
<polygon fill="#ffffff" stroke="#bfbfbf" points="814.5,-.5 814.5,-21.5 927.5,-21.5 927.5,-.5 814.5,-.5"/>
<text text-anchor="middle" x="871" y="-7.9" font-family="Helvetica,sans-Serif" font-size="12.00" fill="#000000">cereal/types/chrono.hpp</text>
</g>
<!-- Node0&#45;&gt;Node12 -->
<g id="edge12" class="edge">
<title>Node0&#45;&gt;Node12</title>
<path fill="none" stroke="#191970" d="M497.1477,-63.7314C561.7054,-55.7404 687.5158,-39.7513 804.1274,-22.2494"/>
<polygon fill="#191970" stroke="#191970" points="804.9322,-25.6677 814.2984,-20.7154 803.8882,-18.746 804.9322,-25.6677"/>
</g>
<!-- Node13 -->
<g id="node14" class="node">
<title>Node13</title>
<polygon fill="#ffffff" stroke="#bfbfbf" points="946,-.5 946,-21.5 1056,-21.5 1056,-.5 946,-.5"/>
<text text-anchor="middle" x="1001" y="-7.9" font-family="Helvetica,sans-Serif" font-size="12.00" fill="#000000">cereal/types/deque.hpp</text>
</g>
<!-- Node0&#45;&gt;Node13 -->
<g id="edge13" class="edge">
<title>Node0&#45;&gt;Node13</title>
<path fill="none" stroke="#191970" d="M497.0909,-65.8716C580.0074,-59.6211 767.7006,-44.3563 935.8564,-22.0769"/>
<polygon fill="#191970" stroke="#191970" points="936.4331,-25.531 945.8813,-20.7371 935.5058,-18.5927 936.4331,-25.531"/>
</g>
<!-- Node14 -->
<g id="node15" class="node">
<title>Node14</title>
<polygon fill="#ffffff" stroke="#bfbfbf" points="1074,-.5 1074,-21.5 1184,-21.5 1184,-.5 1074,-.5"/>
<text text-anchor="middle" x="1129" y="-7.9" font-family="Helvetica,sans-Serif" font-size="12.00" fill="#000000">cereal/types/vector.hpp</text>
</g>
<!-- Node0&#45;&gt;Node14 -->
<g id="edge14" class="edge">
<title>Node0&#45;&gt;Node14</title>
<path fill="none" stroke="#191970" d="M497.1029,-67.0714C595.6361,-62.3648 845.0818,-48.7611 1063.827,-22.0492"/>
<polygon fill="#191970" stroke="#191970" points="1064.3941,-25.5059 1073.8905,-20.8083 1063.5373,-18.5585 1064.3941,-25.5059"/>
</g>
<!-- Node15 -->
<g id="node16" class="node">
<title>Node15</title>
<g id="a_node16"><a xlink:href="../../db/d19/namespace_8hpp.html" target="_top" xlink:title="timemory/namespace.hpp">
<polygon fill="#ffffff" stroke="#000000" points="1202,-.5 1202,-21.5 1322,-21.5 1322,-.5 1202,-.5"/>
<text text-anchor="middle" x="1262" y="-7.9" font-family="Helvetica,sans-Serif" font-size="12.00" fill="#000000">timemory/namespace.hpp</text>
</a>
</g>
</g>
<!-- Node0&#45;&gt;Node15 -->
<g id="edge15" class="edge">
<title>Node0&#45;&gt;Node15</title>
<path fill="none" stroke="#191970" d="M497.0235,-67.6867C609.5045,-63.9491 921.7281,-51.625 1191.8404,-22.0397"/>
<polygon fill="#191970" stroke="#191970" points="1192.2798,-25.5125 1201.8347,-20.9349 1191.5107,-18.5549 1192.2798,-25.5125"/>
</g>
</g>
</svg>
