<?xml version="1.0" encoding="UTF-8" standalone="no"?>
<!DOCTYPE svg PUBLIC "-//W3C//DTD SVG 1.1//EN"
 "http://www.w3.org/Graphics/SVG/1.1/DTD/svg11.dtd">
<!-- Generated by graphviz version 2.40.1 (20161225.0304)
 -->
<!-- Title: NAME_TIM::rss::usage Pages: 1 -->
<svg width="118pt" height="367pt"
 viewBox="0.00 0.00 118.00 367.00" xmlns="http://www.w3.org/2000/svg" xmlns:xlink="http://www.w3.org/1999/xlink">
<g id="graph0" class="graph" transform="scale(1 1) rotate(0) translate(4 363)">
<title>NAME_TIM::rss::usage</title>
<polygon fill="#ffffff" stroke="transparent" points="-4,4 -4,-363 114,-363 114,4 -4,4"/>
<!-- Node1 -->
<g id="node1" class="node">
<title>Node1</title>
<polygon fill="#bfbfbf" stroke="#000000" points="0,-.5 0,-232.5 110,-232.5 110,-.5 0,-.5"/>
<text text-anchor="middle" x="55" y="-218.9" font-family="Helvetica,sans-Serif" font-size="12.00" fill="#000000">NAME_TIM::rss::usage</text>
<polyline fill="none" stroke="#000000" points="0,-211.5 110,-211.5 "/>
<text text-anchor="middle" x="55" y="-197.9" font-family="Helvetica,sans-Serif" font-size="12.00" fill="#000000"> </text>
<polyline fill="none" stroke="#000000" points="0,-190.5 110,-190.5 "/>
<text text-anchor="start" x="8" y="-176.9" font-family="Helvetica,sans-Serif" font-size="12.00" fill="#000000">+ usage()</text>
<text text-anchor="start" x="8" y="-163.9" font-family="Helvetica,sans-Serif" font-size="12.00" fill="#000000">+ usage()</text>
<text text-anchor="start" x="8" y="-150.9" font-family="Helvetica,sans-Serif" font-size="12.00" fill="#000000">+ usage()</text>
<text text-anchor="start" x="8" y="-137.9" font-family="Helvetica,sans-Serif" font-size="12.00" fill="#000000">+ operator=()</text>
<text text-anchor="start" x="8" y="-124.9" font-family="Helvetica,sans-Serif" font-size="12.00" fill="#000000">+ record()</text>
<text text-anchor="start" x="8" y="-111.9" font-family="Helvetica,sans-Serif" font-size="12.00" fill="#000000">+ record()</text>
<text text-anchor="start" x="8" y="-98.9" font-family="Helvetica,sans-Serif" font-size="12.00" fill="#000000">+ operator()()</text>
<text text-anchor="start" x="8" y="-85.9" font-family="Helvetica,sans-Serif" font-size="12.00" fill="#000000">+ operator+=()</text>
<text text-anchor="start" x="8" y="-72.9" font-family="Helvetica,sans-Serif" font-size="12.00" fill="#000000">+ operator&#45;=()</text>
<text text-anchor="start" x="8" y="-59.9" font-family="Helvetica,sans-Serif" font-size="12.00" fill="#000000">+ current()</text>
<text text-anchor="start" x="8" y="-46.9" font-family="Helvetica,sans-Serif" font-size="12.00" fill="#000000">+ peak()</text>
<text text-anchor="start" x="8" y="-33.9" font-family="Helvetica,sans-Serif" font-size="12.00" fill="#000000">+ serialize()</text>
<text text-anchor="start" x="8" y="-20.9" font-family="Helvetica,sans-Serif" font-size="12.00" fill="#000000">+ max()</text>
<text text-anchor="start" x="8" y="-7.9" font-family="Helvetica,sans-Serif" font-size="12.00" fill="#000000">+ min()</text>
</g>
<!-- Node2 -->
<g id="node2" class="node">
<title>Node2</title>
<polygon fill="#ffffff" stroke="#bfbfbf" points="33,-295.5 33,-358.5 77,-358.5 77,-295.5 33,-295.5"/>
<text text-anchor="middle" x="55" y="-344.9" font-family="Helvetica,sans-Serif" font-size="12.00" fill="#000000">int64_t</text>
<polyline fill="none" stroke="#bfbfbf" points="33,-337.5 77,-337.5 "/>
<text text-anchor="middle" x="55" y="-323.9" font-family="Helvetica,sans-Serif" font-size="12.00" fill="#000000"> </text>
<polyline fill="none" stroke="#bfbfbf" points="33,-316.5 77,-316.5 "/>
<text text-anchor="middle" x="55" y="-302.9" font-family="Helvetica,sans-Serif" font-size="12.00" fill="#000000"> </text>
</g>
<!-- Node2&#45;&gt;Node1 -->
<g id="edge1" class="edge">
<title>Node2&#45;&gt;Node1</title>
<path fill="none" stroke="#404040" d="M55,-295.486C55,-281.3063 55,-263.5382 55,-244.7416"/>
<polygon fill="none" stroke="#404040" points="55.0001,-244.5998 51,-238.5998 55,-232.5998 59,-238.5997 55.0001,-244.5998"/>
<text text-anchor="middle" x="82.5" y="-267.4" font-family="Helvetica,sans-Serif" font-size="12.00" fill="#000000"> +m_curr_rss</text>
<text text-anchor="middle" x="82.5" y="-254.4" font-family="Helvetica,sans-Serif" font-size="12.00" fill="#000000">+m_peak_rss</text>
</g>
</g>
</svg>
