<?xml version="1.0" encoding="UTF-8" standalone="no"?>
<!DOCTYPE svg PUBLIC "-//W3C//DTD SVG 1.1//EN"
 "http://www.w3.org/Graphics/SVG/1.1/DTD/svg11.dtd">
<!-- Generated by graphviz version 2.40.1 (20161225.0304)
 -->
<!-- Title: util.auto_timer Pages: 1 -->
<svg width="101pt" height="363pt"
 viewBox="0.00 0.00 101.00 363.00" xmlns="http://www.w3.org/2000/svg" xmlns:xlink="http://www.w3.org/1999/xlink">
<g id="graph0" class="graph" transform="scale(1 1) rotate(0) translate(4 359)">
<title>util.auto_timer</title>
<polygon fill="#ffffff" stroke="transparent" points="-4,4 -4,-359 97,-359 97,4 -4,4"/>
<!-- Node3 -->
<g id="node1" class="node">
<title>Node3</title>
<polygon fill="#bfbfbf" stroke="#000000" points="10,-.5 10,-102.5 83,-102.5 83,-.5 10,-.5"/>
<text text-anchor="middle" x="46.5" y="-88.9" font-family="Helvetica,sans-Serif" font-size="12.00" fill="#000000">util.auto_timer</text>
<polyline fill="none" stroke="#000000" points="10,-81.5 83,-81.5 "/>
<text text-anchor="start" x="18" y="-67.9" font-family="Helvetica,sans-Serif" font-size="12.00" fill="#000000">+ key</text>
<text text-anchor="start" x="18" y="-54.9" font-family="Helvetica,sans-Serif" font-size="12.00" fill="#000000">+ add_args</text>
<text text-anchor="start" x="18" y="-41.9" font-family="Helvetica,sans-Serif" font-size="12.00" fill="#000000">+ is_class</text>
<polyline fill="none" stroke="#000000" points="10,-34.5 83,-34.5 "/>
<text text-anchor="start" x="18" y="-20.9" font-family="Helvetica,sans-Serif" font-size="12.00" fill="#000000">+ __init__()</text>
<text text-anchor="start" x="18" y="-7.9" font-family="Helvetica,sans-Serif" font-size="12.00" fill="#000000">+ __call__()</text>
</g>
<!-- Node4 -->
<g id="node2" class="node">
<title>Node4</title>
<g id="a_node2"><a xlink:href="../../dc/d4e/classutil_1_1base__decorator.html" target="_top" xlink:title="{util.base_decorator\n|+ key\l+ add_args\l+ is_class\l|+ __init__()\l+ class_string()\l+ arg_string()\l}">
<polygon fill="#ffffff" stroke="#000000" points="0,-139.5 0,-254.5 93,-254.5 93,-139.5 0,-139.5"/>
<text text-anchor="middle" x="46.5" y="-240.9" font-family="Helvetica,sans-Serif" font-size="12.00" fill="#000000">util.base_decorator</text>
<polyline fill="none" stroke="#000000" points="0,-233.5 93,-233.5 "/>
<text text-anchor="start" x="8" y="-219.9" font-family="Helvetica,sans-Serif" font-size="12.00" fill="#000000">+ key</text>
<text text-anchor="start" x="8" y="-206.9" font-family="Helvetica,sans-Serif" font-size="12.00" fill="#000000">+ add_args</text>
<text text-anchor="start" x="8" y="-193.9" font-family="Helvetica,sans-Serif" font-size="12.00" fill="#000000">+ is_class</text>
<polyline fill="none" stroke="#000000" points="0,-186.5 93,-186.5 "/>
<text text-anchor="start" x="8" y="-172.9" font-family="Helvetica,sans-Serif" font-size="12.00" fill="#000000">+ __init__()</text>
<text text-anchor="start" x="8" y="-159.9" font-family="Helvetica,sans-Serif" font-size="12.00" fill="#000000">+ class_string()</text>
<text text-anchor="start" x="8" y="-146.9" font-family="Helvetica,sans-Serif" font-size="12.00" fill="#000000">+ arg_string()</text>
</a>
</g>
</g>
<!-- Node4&#45;&gt;Node3 -->
<g id="edge1" class="edge">
<title>Node4&#45;&gt;Node3</title>
<path fill="none" stroke="#191970" d="M46.5,-129.4875C46.5,-120.5588 46.5,-111.5243 46.5,-102.9258"/>
<polygon fill="none" stroke="#191970" points="43.0001,-129.4945 46.5,-139.4945 50.0001,-129.4946 43.0001,-129.4945"/>
</g>
<!-- Node5 -->
<g id="node3" class="node">
<title>Node5</title>
<g id="a_node3"><a xlink:href="../../dc/dd8/classobject.html" target="_top" xlink:title="{object\n||}">
<polygon fill="#ffffff" stroke="#000000" points="26,-291.5 26,-354.5 67,-354.5 67,-291.5 26,-291.5"/>
<text text-anchor="middle" x="46.5" y="-340.9" font-family="Helvetica,sans-Serif" font-size="12.00" fill="#000000">object</text>
<polyline fill="none" stroke="#000000" points="26,-333.5 67,-333.5 "/>
<text text-anchor="middle" x="46.5" y="-319.9" font-family="Helvetica,sans-Serif" font-size="12.00" fill="#000000"> </text>
<polyline fill="none" stroke="#000000" points="26,-312.5 67,-312.5 "/>
<text text-anchor="middle" x="46.5" y="-298.9" font-family="Helvetica,sans-Serif" font-size="12.00" fill="#000000"> </text>
</a>
</g>
</g>
<!-- Node5&#45;&gt;Node4 -->
<g id="edge2" class="edge">
<title>Node5&#45;&gt;Node4</title>
<path fill="none" stroke="#191970" d="M46.5,-280.9323C46.5,-272.5453 46.5,-263.5999 46.5,-254.7912"/>
<polygon fill="none" stroke="#191970" points="43.0001,-281.2048 46.5,-291.2049 50.0001,-281.2049 43.0001,-281.2048"/>
</g>
</g>
</svg>
