<?xml version="1.0" encoding="UTF-8" standalone="no"?>
<!DOCTYPE svg PUBLIC "-//W3C//DTD SVG 1.1//EN"
 "http://www.w3.org/Graphics/SVG/1.1/DTD/svg11.dtd">
<!-- Generated by graphviz version 2.40.1 (20161225.0304)
 -->
<!-- Title: timemory/base_timer.hpp Pages: 1 -->
<svg width="2562pt" height="204pt"
 viewBox="0.00 0.00 2561.50 204.00" xmlns="http://www.w3.org/2000/svg" xmlns:xlink="http://www.w3.org/1999/xlink">
<g id="graph0" class="graph" transform="scale(1 1) rotate(0) translate(4 200)">
<title>timemory/base_timer.hpp</title>
<polygon fill="#ffffff" stroke="transparent" points="-4,4 -4,-200 2557.5,-200 2557.5,4 -4,4"/>
<!-- Node0 -->
<g id="node1" class="node">
<title>Node0</title>
<polygon fill="#bfbfbf" stroke="#000000" points="1795.5,-174.5 1795.5,-195.5 1913.5,-195.5 1913.5,-174.5 1795.5,-174.5"/>
<text text-anchor="middle" x="1854.5" y="-181.9" font-family="Helvetica,sans-Serif" font-size="12.00" fill="#000000">timemory/base_timer.hpp</text>
</g>
<!-- Node1 -->
<g id="node2" class="node">
<title>Node1</title>
<g id="a_node2"><a xlink:href="../../db/d19/namespace_8hpp.html" target="_top" xlink:title="timemory/namespace.hpp">
<polygon fill="#ffffff" stroke="#000000" points="749.5,-.5 749.5,-21.5 869.5,-21.5 869.5,-.5 749.5,-.5"/>
<text text-anchor="middle" x="809.5" y="-7.9" font-family="Helvetica,sans-Serif" font-size="12.00" fill="#000000">timemory/namespace.hpp</text>
</a>
</g>
</g>
<!-- Node0&#45;&gt;Node1 -->
<g id="edge1" class="edge">
<title>Node0&#45;&gt;Node1</title>
<path fill="none" stroke="#191970" d="M1795.2506,-177.5918C1727.1449,-168.9005 1612.0622,-153.6757 1513.5,-138 1276.9884,-100.3843 997.3487,-47.38 873.7417,-23.5117"/>
<polygon fill="#191970" stroke="#191970" points="874.1739,-20.0305 863.6914,-21.5687 872.8452,-26.9032 874.1739,-20.0305"/>
</g>
<!-- Node2 -->
<g id="node3" class="node">
<title>Node2</title>
<g id="a_node3"><a xlink:href="../../d8/d4e/base__clock_8hpp.html" target="_top" xlink:title="timemory/base_clock.hpp">
<polygon fill="#ffffff" stroke="#000000" points="1224,-58.5 1224,-79.5 1343,-79.5 1343,-58.5 1224,-58.5"/>
<text text-anchor="middle" x="1283.5" y="-65.9" font-family="Helvetica,sans-Serif" font-size="12.00" fill="#000000">timemory/base_clock.hpp</text>
</a>
</g>
</g>
<!-- Node0&#45;&gt;Node2 -->
<g id="edge2" class="edge">
<title>Node0&#45;&gt;Node2</title>
<path fill="none" stroke="#191970" d="M1802.5674,-174.4498C1697.1564,-153.0353 1458.5205,-104.5558 1345.3163,-81.5581"/>
<polygon fill="#191970" stroke="#191970" points="1345.9129,-78.1079 1335.4163,-79.5469 1344.5192,-84.9678 1345.9129,-78.1079"/>
</g>
<!-- Node19 -->
<g id="node20" class="node">
<title>Node19</title>
<polygon fill="#ffffff" stroke="#bfbfbf" points="1689.5,-.5 1689.5,-21.5 1775.5,-21.5 1775.5,-.5 1689.5,-.5"/>
<text text-anchor="middle" x="1732.5" y="-7.9" font-family="Helvetica,sans-Serif" font-size="12.00" fill="#000000">cereal/cereal.hpp</text>
</g>
<!-- Node0&#45;&gt;Node19 -->
<g id="edge80" class="edge">
<title>Node0&#45;&gt;Node19</title>
<path fill="none" stroke="#191970" d="M1840.2024,-174.4186C1817.8936,-157.1495 1774.9376,-120.7224 1751.5,-80 1742.9905,-65.2148 1738.1435,-46.4419 1735.4781,-32.2113"/>
<polygon fill="#191970" stroke="#191970" points="1738.8636,-31.231 1733.7799,-21.9355 1731.9573,-32.3724 1738.8636,-31.231"/>
</g>
<!-- Node20 -->
<g id="node21" class="node">
<title>Node20</title>
<polygon fill="#ffffff" stroke="#bfbfbf" points="1794,-.5 1794,-21.5 1907,-21.5 1907,-.5 1794,-.5"/>
<text text-anchor="middle" x="1850.5" y="-7.9" font-family="Helvetica,sans-Serif" font-size="12.00" fill="#000000">cereal/types/chrono.hpp</text>
</g>
<!-- Node0&#45;&gt;Node20 -->
<g id="edge83" class="edge">
<title>Node0&#45;&gt;Node20</title>
<path fill="none" stroke="#191970" d="M1855.0163,-174.4531C1855.9868,-152.6744 1857.7891,-101.156 1855.5,-58 1855.0458,-49.437 1854.1293,-40.0333 1853.2035,-31.9021"/>
<polygon fill="#191970" stroke="#191970" points="1856.6571,-31.3069 1851.978,-21.8013 1849.708,-32.1501 1856.6571,-31.3069"/>
</g>
<!-- Node21 -->
<g id="node22" class="node">
<title>Node21</title>
<polygon fill="#ffffff" stroke="#bfbfbf" points="2033.5,-.5 2033.5,-21.5 2143.5,-21.5 2143.5,-.5 2033.5,-.5"/>
<text text-anchor="middle" x="2088.5" y="-7.9" font-family="Helvetica,sans-Serif" font-size="12.00" fill="#000000">cereal/types/deque.hpp</text>
</g>
<!-- Node0&#45;&gt;Node21 -->
<g id="edge84" class="edge">
<title>Node0&#45;&gt;Node21</title>
<path fill="none" stroke="#191970" d="M1858.4074,-174.3458C1867.8863,-149.9858 1894.4622,-89.8697 1936.5,-58 1951.8915,-46.3314 1995.829,-33.3852 2032.5301,-24.0396"/>
<polygon fill="#191970" stroke="#191970" points="2033.8096,-27.3274 2042.66,-21.5032 2032.1093,-20.537 2033.8096,-27.3274"/>
</g>
<!-- Node22 -->
<g id="node23" class="node">
<title>Node22</title>
<polygon fill="#ffffff" stroke="#bfbfbf" points="2162,-.5 2162,-21.5 2251,-21.5 2251,-.5 2162,-.5"/>
<text text-anchor="middle" x="2206.5" y="-7.9" font-family="Helvetica,sans-Serif" font-size="12.00" fill="#000000">cereal/access.hpp</text>
</g>
<!-- Node0&#45;&gt;Node22 -->
<g id="edge81" class="edge">
<title>Node0&#45;&gt;Node22</title>
<path fill="none" stroke="#191970" d="M1864.1196,-174.0871C1890.1091,-144.7102 1960.7077,-65.6542 1974.5,-58 2042.3168,-20.3644 2071.1226,-36.6428 2151.6314,-22.065"/>
<polygon fill="#191970" stroke="#191970" points="2152.5518,-25.4522 2161.7119,-20.1285 2151.2312,-18.5779 2152.5518,-25.4522"/>
</g>
<!-- Node23 -->
<g id="node24" class="node">
<title>Node23</title>
<g id="a_node24"><a xlink:href="../../d9/dd2/rss_8hpp.html" target="_top" xlink:title="timemory/rss.hpp">
<polygon fill="#ffffff" stroke="#000000" points="1760.5,-58.5 1760.5,-79.5 1846.5,-79.5 1846.5,-58.5 1760.5,-58.5"/>
<text text-anchor="middle" x="1803.5" y="-65.9" font-family="Helvetica,sans-Serif" font-size="12.00" fill="#000000">timemory/rss.hpp</text>
</a>
</g>
</g>
<!-- Node0&#45;&gt;Node23 -->
<g id="edge24" class="edge">
<title>Node0&#45;&gt;Node23</title>
<path fill="none" stroke="#191970" d="M1849.7935,-174.2949C1841.2543,-154.8724 1823.0893,-113.5561 1812.2255,-88.8462"/>
<polygon fill="#191970" stroke="#191970" points="1815.424,-87.4248 1808.1952,-79.6792 1809.016,-90.2422 1815.424,-87.4248"/>
</g>
<!-- Node25 -->
<g id="node26" class="node">
<title>Node25</title>
<polygon fill="#ffffff" stroke="#bfbfbf" points="2269,-.5 2269,-21.5 2316,-21.5 2316,-.5 2269,-.5"/>
<text text-anchor="middle" x="2292.5" y="-7.9" font-family="Helvetica,sans-Serif" font-size="12.00" fill="#000000">fstream</text>
</g>
<!-- Node0&#45;&gt;Node25 -->
<g id="edge77" class="edge">
<title>Node0&#45;&gt;Node25</title>
<path fill="none" stroke="#191970" d="M1870.0045,-174.3412C1883.346,-165.0396 1902.9947,-151.0287 1919.5,-138 1962.2957,-104.2187 1962.8797,-80.5934 2012.5,-58 2110.8948,-13.1983 2149.9489,-46.1574 2258.8281,-22.0159"/>
<polygon fill="#191970" stroke="#191970" points="2259.9377,-25.3511 2268.8808,-19.6703 2258.347,-18.5342 2259.9377,-25.3511"/>
</g>
<!-- Node26 -->
<g id="node27" class="node">
<title>Node26</title>
<polygon fill="#ffffff" stroke="#bfbfbf" points="0,-.5 0,-21.5 39,-21.5 39,-.5 0,-.5"/>
<text text-anchor="middle" x="19.5" y="-7.9" font-family="Helvetica,sans-Serif" font-size="12.00" fill="#000000">string</text>
</g>
<!-- Node0&#45;&gt;Node26 -->
<g id="edge78" class="edge">
<title>Node0&#45;&gt;Node26</title>
<path fill="none" stroke="#191970" d="M1795.1224,-184.0585C1560.8378,-180.1863 700.1556,-164.4343 428.5,-138 268.5087,-122.4316 209.124,-163.0617 71.5,-80 52.2506,-68.3822 37.7159,-46.7143 28.974,-30.7481"/>
<polygon fill="#191970" stroke="#191970" points="31.9901,-28.9608 24.2891,-21.6845 25.7717,-32.1751 31.9901,-28.9608"/>
</g>
<!-- Node28 -->
<g id="node29" class="node">
<title>Node28</title>
<polygon fill="#ffffff" stroke="#bfbfbf" points="2334,-.5 2334,-21.5 2425,-21.5 2425,-.5 2334,-.5"/>
<text text-anchor="middle" x="2379.5" y="-7.9" font-family="Helvetica,sans-Serif" font-size="12.00" fill="#000000">cereal/macros.hpp</text>
</g>
<!-- Node0&#45;&gt;Node28 -->
<g id="edge82" class="edge">
<title>Node0&#45;&gt;Node28</title>
<path fill="none" stroke="#191970" d="M1877.266,-174.408C1895.8152,-165.4737 1922.4505,-151.9437 1944.5,-138 1994.3848,-106.4538 1995.8724,-80.3491 2050.5,-58 2161.5784,-12.5559 2201.7943,-40.7346 2323.7833,-22.1454"/>
<polygon fill="#191970" stroke="#191970" points="2324.556,-25.5664 2333.8771,-20.5299 2323.4496,-18.6544 2324.556,-25.5664"/>
</g>
<!-- Node29 -->
<g id="node30" class="node">
<title>Node29</title>
<polygon fill="#ffffff" stroke="#bfbfbf" points="2443.5,-.5 2443.5,-21.5 2553.5,-21.5 2553.5,-.5 2443.5,-.5"/>
<text text-anchor="middle" x="2498.5" y="-7.9" font-family="Helvetica,sans-Serif" font-size="12.00" fill="#000000">cereal/types/vector.hpp</text>
</g>
<!-- Node0&#45;&gt;Node29 -->
<g id="edge85" class="edge">
<title>Node0&#45;&gt;Node29</title>
<path fill="none" stroke="#191970" d="M1887.8889,-174.4907C1932.5255,-160.5544 2014.1863,-135.4539 2084.5,-116 2213.0023,-80.4468 2365.2319,-43.0368 2444.4623,-23.9181"/>
<polygon fill="#191970" stroke="#191970" points="2445.3183,-27.3121 2454.2202,-21.567 2443.6785,-20.5069 2445.3183,-27.3121"/>
</g>
<!-- Node30 -->
<g id="node31" class="node">
<title>Node30</title>
<g id="a_node31"><a xlink:href="../../d1/d4e/utility_8hpp.html" target="_top" xlink:title="timemory/utility.hpp">
<polygon fill="#ffffff" stroke="#000000" points="573.5,-58.5 573.5,-79.5 667.5,-79.5 667.5,-58.5 573.5,-58.5"/>
<text text-anchor="middle" x="620.5" y="-65.9" font-family="Helvetica,sans-Serif" font-size="12.00" fill="#000000">timemory/utility.hpp</text>
</a>
</g>
</g>
<!-- Node0&#45;&gt;Node30 -->
<g id="edge40" class="edge">
<title>Node0&#45;&gt;Node30</title>
<path fill="none" stroke="#191970" d="M1795.2258,-183.2494C1664.8126,-178.9979 1343.2905,-166.325 1075.5,-138 931.7723,-122.7975 763.977,-94.6268 677.8941,-79.4062"/>
<polygon fill="#191970" stroke="#191970" points="678.2662,-75.9176 667.8083,-77.616 677.0427,-82.8099 678.2662,-75.9176"/>
</g>
<!-- Node37 -->
<g id="node38" class="node">
<title>Node37</title>
<g id="a_node38"><a xlink:href="../../da/d8e/signal__detection_8hpp.html" target="_top" xlink:title="timemory/signal_detection.hpp">
<polygon fill="#ffffff" stroke="#000000" points="438,-116.5 438,-137.5 577,-137.5 577,-116.5 438,-116.5"/>
<text text-anchor="middle" x="507.5" y="-123.9" font-family="Helvetica,sans-Serif" font-size="12.00" fill="#000000">timemory/signal_detection.hpp</text>
</a>
</g>
</g>
<!-- Node0&#45;&gt;Node37 -->
<g id="edge55" class="edge">
<title>Node0&#45;&gt;Node37</title>
<path fill="none" stroke="#191970" d="M1795.3197,-182.4518C1579.449,-173.1567 834.1333,-141.0644 587.4724,-130.4435"/>
<polygon fill="#191970" stroke="#191970" points="587.2966,-126.9328 577.1553,-129.9993 586.9954,-133.9263 587.2966,-126.9328"/>
</g>
<!-- Node43 -->
<g id="node44" class="node">
<title>Node43</title>
<polygon fill="#ffffff" stroke="#bfbfbf" points="2093,-116.5 2093,-137.5 2136,-137.5 2136,-116.5 2093,-116.5"/>
<text text-anchor="middle" x="2114.5" y="-123.9" font-family="Helvetica,sans-Serif" font-size="12.00" fill="#000000">atomic</text>
</g>
<!-- Node0&#45;&gt;Node43 -->
<g id="edge79" class="edge">
<title>Node0&#45;&gt;Node43</title>
<path fill="none" stroke="#191970" d="M1911.9094,-174.4268C1957.3574,-165.7029 2022.3136,-152.4475 2078.5,-138 2079.9637,-137.6236 2081.4567,-137.2255 2082.9617,-136.8126"/>
<polygon fill="#191970" stroke="#191970" points="2084.2499,-140.0838 2092.8871,-133.9478 2082.3086,-133.3583 2084.2499,-140.0838"/>
</g>
<!-- Node2&#45;&gt;Node1 -->
<g id="edge23" class="edge">
<title>Node2&#45;&gt;Node1</title>
<path fill="none" stroke="#191970" d="M1223.6983,-62.8645C1146.5972,-54.7748 1008.1214,-39.6395 879.7033,-22.1235"/>
<polygon fill="#191970" stroke="#191970" points="880.0712,-18.6413 869.6883,-20.7498 879.1199,-25.5764 880.0712,-18.6413"/>
</g>
<!-- Node3 -->
<g id="node4" class="node">
<title>Node3</title>
<polygon fill="#ffffff" stroke="#bfbfbf" points="1561.5,-.5 1561.5,-21.5 1609.5,-21.5 1609.5,-.5 1561.5,-.5"/>
<text text-anchor="middle" x="1585.5" y="-7.9" font-family="Helvetica,sans-Serif" font-size="12.00" fill="#000000">unistd.h</text>
</g>
<!-- Node2&#45;&gt;Node3 -->
<g id="edge3" class="edge">
<title>Node2&#45;&gt;Node3</title>
<path fill="none" stroke="#191970" d="M1343.0704,-61.1893C1395.6875,-53.7037 1474.5721,-41.0548 1551.6008,-21.955"/>
<polygon fill="#191970" stroke="#191970" points="1552.6296,-25.3053 1561.4719,-19.4689 1550.9199,-18.5173 1552.6296,-25.3053"/>
</g>
<!-- Node4 -->
<g id="node5" class="node">
<title>Node4</title>
<polygon fill="#ffffff" stroke="#bfbfbf" points="1217.5,-.5 1217.5,-21.5 1279.5,-21.5 1279.5,-.5 1217.5,-.5"/>
<text text-anchor="middle" x="1248.5" y="-7.9" font-family="Helvetica,sans-Serif" font-size="12.00" fill="#000000">sys/times.h</text>
</g>
<!-- Node2&#45;&gt;Node4 -->
<g id="edge4" class="edge">
<title>Node2&#45;&gt;Node4</title>
<path fill="none" stroke="#191970" d="M1277.0805,-58.3619C1272.3441,-50.5131 1265.7682,-39.6159 1260.118,-30.2527"/>
<polygon fill="#191970" stroke="#191970" points="1263.0422,-28.3242 1254.8788,-21.5707 1257.0489,-31.9409 1263.0422,-28.3242"/>
</g>
<!-- Node5 -->
<g id="node6" class="node">
<title>Node5</title>
<polygon fill="#ffffff" stroke="#bfbfbf" points="954,-.5 954,-21.5 1005,-21.5 1005,-.5 954,-.5"/>
<text text-anchor="middle" x="979.5" y="-7.9" font-family="Helvetica,sans-Serif" font-size="12.00" fill="#000000">iostream</text>
</g>
<!-- Node2&#45;&gt;Node5 -->
<g id="edge5" class="edge">
<title>Node2&#45;&gt;Node5</title>
<path fill="none" stroke="#191970" d="M1223.7351,-60.8624C1171.1616,-53.1827 1092.4499,-40.4223 1014.9414,-21.8562"/>
<polygon fill="#191970" stroke="#191970" points="1015.5487,-18.402 1005.0051,-19.4421 1013.896,-25.2041 1015.5487,-18.402"/>
</g>
<!-- Node6 -->
<g id="node7" class="node">
<title>Node6</title>
<polygon fill="#ffffff" stroke="#bfbfbf" points="887.5,-.5 887.5,-21.5 935.5,-21.5 935.5,-.5 887.5,-.5"/>
<text text-anchor="middle" x="911.5" y="-7.9" font-family="Helvetica,sans-Serif" font-size="12.00" fill="#000000">iomanip</text>
</g>
<!-- Node2&#45;&gt;Node6 -->
<g id="edge6" class="edge">
<title>Node2&#45;&gt;Node6</title>
<path fill="none" stroke="#191970" d="M1223.7967,-64.0731C1157.7301,-57.8743 1048.0931,-45.377 945.4167,-21.8778"/>
<polygon fill="#191970" stroke="#191970" points="946.0369,-18.4287 935.5037,-19.5692 944.4492,-25.2462 946.0369,-18.4287"/>
</g>
<!-- Node7 -->
<g id="node8" class="node">
<title>Node7</title>
<polygon fill="#ffffff" stroke="#bfbfbf" points="550,-.5 550,-21.5 599,-21.5 599,-.5 550,-.5"/>
<text text-anchor="middle" x="574.5" y="-7.9" font-family="Helvetica,sans-Serif" font-size="12.00" fill="#000000">sstream</text>
</g>
<!-- Node2&#45;&gt;Node7 -->
<g id="edge7" class="edge">
<title>Node2&#45;&gt;Node7</title>
<path fill="none" stroke="#191970" d="M1223.898,-66.7849C1085.123,-61.3241 742.6853,-46.0239 609.1864,-21.8775"/>
<polygon fill="#191970" stroke="#191970" points="609.6637,-18.4055 599.1854,-19.9723 608.3537,-25.2819 609.6637,-18.4055"/>
</g>
<!-- Node8 -->
<g id="node9" class="node">
<title>Node8</title>
<polygon fill="#ffffff" stroke="#bfbfbf" points="617,-.5 617,-21.5 672,-21.5 672,-.5 617,-.5"/>
<text text-anchor="middle" x="644.5" y="-7.9" font-family="Helvetica,sans-Serif" font-size="12.00" fill="#000000">stdexcept</text>
</g>
<!-- Node2&#45;&gt;Node8 -->
<g id="edge8" class="edge">
<title>Node2&#45;&gt;Node8</title>
<path fill="none" stroke="#191970" d="M1223.8801,-66.0162C1096.6139,-59.3838 800.9216,-42.5069 682.1802,-21.9453"/>
<polygon fill="#191970" stroke="#191970" points="682.7226,-18.4866 672.2573,-20.1382 681.4684,-25.3733 682.7226,-18.4866"/>
</g>
<!-- Node9 -->
<g id="node10" class="node">
<title>Node9</title>
<polygon fill="#ffffff" stroke="#bfbfbf" points="690,-.5 690,-21.5 731,-21.5 731,-.5 690,-.5"/>
<text text-anchor="middle" x="710.5" y="-7.9" font-family="Helvetica,sans-Serif" font-size="12.00" fill="#000000">vector</text>
</g>
<!-- Node2&#45;&gt;Node9 -->
<g id="edge9" class="edge">
<title>Node2&#45;&gt;Node9</title>
<path fill="none" stroke="#191970" d="M1223.8435,-65.835C1106.3954,-59.2867 848.0623,-43.2334 741.1343,-21.5335"/>
<polygon fill="#191970" stroke="#191970" points="741.7807,-18.0926 731.2689,-19.416 740.3117,-24.9367 741.7807,-18.0926"/>
</g>
<!-- Node10 -->
<g id="node11" class="node">
<title>Node10</title>
<polygon fill="#ffffff" stroke="#bfbfbf" points="1298,-.5 1298,-21.5 1339,-21.5 1339,-.5 1298,-.5"/>
<text text-anchor="middle" x="1318.5" y="-7.9" font-family="Helvetica,sans-Serif" font-size="12.00" fill="#000000">mutex</text>
</g>
<!-- Node2&#45;&gt;Node10 -->
<g id="edge10" class="edge">
<title>Node2&#45;&gt;Node10</title>
<path fill="none" stroke="#191970" d="M1289.9195,-58.3619C1294.6559,-50.5131 1301.2318,-39.6159 1306.882,-30.2527"/>
<polygon fill="#191970" stroke="#191970" points="1309.9511,-31.9409 1312.1212,-21.5707 1303.9578,-28.3242 1309.9511,-31.9409"/>
</g>
<!-- Node11 -->
<g id="node12" class="node">
<title>Node11</title>
<polygon fill="#ffffff" stroke="#bfbfbf" points="1357.5,-.5 1357.5,-21.5 1437.5,-21.5 1437.5,-.5 1357.5,-.5"/>
<text text-anchor="middle" x="1397.5" y="-7.9" font-family="Helvetica,sans-Serif" font-size="12.00" fill="#000000">unordered_map</text>
</g>
<!-- Node2&#45;&gt;Node11 -->
<g id="edge11" class="edge">
<title>Node2&#45;&gt;Node11</title>
<path fill="none" stroke="#191970" d="M1304.1445,-58.4966C1321.8697,-49.4786 1347.6448,-36.3649 1367.623,-26.2006"/>
<polygon fill="#191970" stroke="#191970" points="1369.2981,-29.2753 1376.6238,-21.6212 1366.1239,-23.0364 1369.2981,-29.2753"/>
</g>
<!-- Node12 -->
<g id="node13" class="node">
<title>Node12</title>
<polygon fill="#ffffff" stroke="#bfbfbf" points="491,-.5 491,-21.5 532,-21.5 532,-.5 491,-.5"/>
<text text-anchor="middle" x="511.5" y="-7.9" font-family="Helvetica,sans-Serif" font-size="12.00" fill="#000000">cmath</text>
</g>
<!-- Node2&#45;&gt;Node12 -->
<g id="edge12" class="edge">
<title>Node2&#45;&gt;Node12</title>
<path fill="none" stroke="#191970" d="M1223.879,-67.5251C1075.0358,-63.4842 689.1261,-50.7082 542.3321,-21.8049"/>
<polygon fill="#191970" stroke="#191970" points="542.6856,-18.3037 532.1827,-19.6959 541.2614,-25.1573 542.6856,-18.3037"/>
</g>
<!-- Node13 -->
<g id="node14" class="node">
<title>Node13</title>
<polygon fill="#ffffff" stroke="#bfbfbf" points="1455.5,-.5 1455.5,-21.5 1491.5,-21.5 1491.5,-.5 1455.5,-.5"/>
<text text-anchor="middle" x="1473.5" y="-7.9" font-family="Helvetica,sans-Serif" font-size="12.00" fill="#000000">tuple</text>
</g>
<!-- Node2&#45;&gt;Node13 -->
<g id="edge13" class="edge">
<title>Node2&#45;&gt;Node13</title>
<path fill="none" stroke="#191970" d="M1324.4022,-58.4986C1355.4582,-50.2366 1399.3484,-37.9456 1445.6905,-22.0559"/>
<polygon fill="#191970" stroke="#191970" points="1447.0005,-25.3061 1455.3001,-18.7207 1444.7053,-18.6931 1447.0005,-25.3061"/>
</g>
<!-- Node14 -->
<g id="node15" class="node">
<title>Node14</title>
<polygon fill="#ffffff" stroke="#bfbfbf" points="1509.5,-.5 1509.5,-21.5 1543.5,-21.5 1543.5,-.5 1509.5,-.5"/>
<text text-anchor="middle" x="1526.5" y="-7.9" font-family="Helvetica,sans-Serif" font-size="12.00" fill="#000000">ratio</text>
</g>
<!-- Node2&#45;&gt;Node14 -->
<g id="edge14" class="edge">
<title>Node2&#45;&gt;Node14</title>
<path fill="none" stroke="#191970" d="M1343.2269,-59.1736C1384.9376,-51.6038 1441.926,-39.8509 1499.6776,-21.8591"/>
<polygon fill="#191970" stroke="#191970" points="1500.855,-25.1576 1509.3273,-18.796 1498.737,-18.4857 1500.855,-25.1576"/>
</g>
<!-- Node15 -->
<g id="node16" class="node">
<title>Node15</title>
<polygon fill="#ffffff" stroke="#bfbfbf" points="1023.5,-.5 1023.5,-21.5 1067.5,-21.5 1067.5,-.5 1023.5,-.5"/>
<text text-anchor="middle" x="1045.5" y="-7.9" font-family="Helvetica,sans-Serif" font-size="12.00" fill="#000000">chrono</text>
</g>
<!-- Node2&#45;&gt;Node15 -->
<g id="edge15" class="edge">
<title>Node2&#45;&gt;Node15</title>
<path fill="none" stroke="#191970" d="M1229.0093,-58.4557C1189.302,-50.357 1134.0867,-38.2403 1077.5683,-22.0911"/>
<polygon fill="#191970" stroke="#191970" points="1078.3279,-18.6674 1067.749,-19.2479 1076.3809,-25.3912 1078.3279,-18.6674"/>
</g>
<!-- Node16 -->
<g id="node17" class="node">
<title>Node16</title>
<polygon fill="#ffffff" stroke="#bfbfbf" points="1085.5,-.5 1085.5,-21.5 1123.5,-21.5 1123.5,-.5 1085.5,-.5"/>
<text text-anchor="middle" x="1104.5" y="-7.9" font-family="Helvetica,sans-Serif" font-size="12.00" fill="#000000">ctime</text>
</g>
<!-- Node2&#45;&gt;Node16 -->
<g id="edge16" class="edge">
<title>Node2&#45;&gt;Node16</title>
<path fill="none" stroke="#191970" d="M1246.949,-58.433C1218.3167,-49.9756 1177.3081,-37.4697 1133.4156,-22.1713"/>
<polygon fill="#191970" stroke="#191970" points="1134.3057,-18.7742 1123.7109,-18.759 1131.9838,-25.3779 1134.3057,-18.7742"/>
</g>
<!-- Node17 -->
<g id="node18" class="node">
<title>Node17</title>
<polygon fill="#ffffff" stroke="#bfbfbf" points="1628,-.5 1628,-21.5 1671,-21.5 1671,-.5 1628,-.5"/>
<text text-anchor="middle" x="1649.5" y="-7.9" font-family="Helvetica,sans-Serif" font-size="12.00" fill="#000000">cstdint</text>
</g>
<!-- Node2&#45;&gt;Node17 -->
<g id="edge17" class="edge">
<title>Node2&#45;&gt;Node17</title>
<path fill="none" stroke="#191970" d="M1343.1857,-64.2843C1408.6116,-58.3003 1516.6506,-46.0246 1618.1849,-21.6546"/>
<polygon fill="#191970" stroke="#191970" points="1619.1059,-25.0326 1627.9888,-19.2582 1617.4438,-18.2328 1619.1059,-25.0326"/>
</g>
<!-- Node18 -->
<g id="node19" class="node">
<title>Node18</title>
<polygon fill="#ffffff" stroke="#bfbfbf" points="1141.5,-.5 1141.5,-21.5 1199.5,-21.5 1199.5,-.5 1141.5,-.5"/>
<text text-anchor="middle" x="1170.5" y="-7.9" font-family="Helvetica,sans-Serif" font-size="12.00" fill="#000000">type_traits</text>
</g>
<!-- Node2&#45;&gt;Node18 -->
<g id="edge18" class="edge">
<title>Node2&#45;&gt;Node18</title>
<path fill="none" stroke="#191970" d="M1263.0366,-58.4966C1245.4669,-49.4786 1219.9179,-36.3649 1200.1149,-26.2006"/>
<polygon fill="#191970" stroke="#191970" points="1201.6879,-23.0738 1191.1931,-21.6212 1198.4914,-29.3014 1201.6879,-23.0738"/>
</g>
<!-- Node2&#45;&gt;Node19 -->
<g id="edge19" class="edge">
<title>Node2&#45;&gt;Node19</title>
<path fill="none" stroke="#191970" d="M1343.2608,-63.6285C1419.1083,-56.4319 1554.1526,-42.355 1679.2836,-22.086"/>
<polygon fill="#191970" stroke="#191970" points="1680.1233,-25.4953 1689.4266,-20.4257 1678.9925,-18.5872 1680.1233,-25.4953"/>
</g>
<!-- Node2&#45;&gt;Node20 -->
<g id="edge20" class="edge">
<title>Node2&#45;&gt;Node20</title>
<path fill="none" stroke="#191970" d="M1343.0374,-64.8015C1435.1187,-58.0024 1617.8404,-43.2963 1783.2884,-22.0804"/>
<polygon fill="#191970" stroke="#191970" points="1784.1884,-25.4933 1793.6568,-20.7393 1783.2904,-18.5511 1784.1884,-25.4933"/>
</g>
<!-- Node2&#45;&gt;Node21 -->
<g id="edge21" class="edge">
<title>Node2&#45;&gt;Node21</title>
<path fill="none" stroke="#191970" d="M1343.0827,-65.5887C1501.0389,-56.4953 1924.6408,-31.7672 2023.4528,-21.9254"/>
<polygon fill="#191970" stroke="#191970" points="2023.8281,-25.4054 2033.3963,-20.8556 2023.0792,-18.4455 2023.8281,-25.4054"/>
</g>
<!-- Node2&#45;&gt;Node22 -->
<g id="edge22" class="edge">
<title>Node2&#45;&gt;Node22</title>
<path fill="none" stroke="#191970" d="M1343.2858,-65.4879C1380.9362,-63.2932 1430.5578,-60.4319 1474.5,-58 1772.413,-41.5122 1851.4063,-59.8006 2151.4847,-21.9483"/>
<polygon fill="#191970" stroke="#191970" points="2152.3174,-25.3707 2161.7958,-20.6367 2151.4341,-18.4266 2152.3174,-25.3707"/>
</g>
<!-- Node23&#45;&gt;Node1 -->
<g id="edge39" class="edge">
<title>Node23&#45;&gt;Node1</title>
<path fill="none" stroke="#191970" d="M1760.3632,-66.8712C1590.2429,-58.4681 971.036,-27.8095 879.8173,-21.7547"/>
<polygon fill="#191970" stroke="#191970" points="879.8975,-18.2508 869.6604,-20.9804 879.3653,-25.2305 879.8975,-18.2508"/>
</g>
<!-- Node23&#45;&gt;Node3 -->
<g id="edge25" class="edge">
<title>Node23&#45;&gt;Node3</title>
<path fill="none" stroke="#191970" d="M1760.1667,-58.7455C1722.7483,-49.6968 1667.3254,-35.8298 1619.5,-22 1619.3994,-21.9709 1619.2987,-21.9417 1619.1978,-21.9125"/>
<polygon fill="#191970" stroke="#191970" points="1620.1737,-18.5511 1609.5884,-18.9998 1618.1432,-25.2501 1620.1737,-18.5511"/>
</g>
<!-- Node23&#45;&gt;Node5 -->
<g id="edge27" class="edge">
<title>Node23&#45;&gt;Node5</title>
<path fill="none" stroke="#191970" d="M1760.3166,-66.7212C1608.3422,-58.665 1103.0604,-31.5601 1015.2872,-21.3031"/>
<polygon fill="#191970" stroke="#191970" points="1015.7075,-17.8278 1005.3151,-19.8889 1014.7246,-24.7584 1015.7075,-17.8278"/>
</g>
<!-- Node23&#45;&gt;Node6 -->
<g id="edge30" class="edge">
<title>Node23&#45;&gt;Node6</title>
<path fill="none" stroke="#191970" d="M1760.2767,-66.7913C1598.3457,-58.4983 1032.8154,-29.3626 945.997,-21.1385"/>
<polygon fill="#191970" stroke="#191970" points="946.1622,-17.6332 935.8151,-19.9108 945.3241,-24.5828 946.1622,-17.6332"/>
</g>
<!-- Node23&#45;&gt;Node17 -->
<g id="edge32" class="edge">
<title>Node23&#45;&gt;Node17</title>
<path fill="none" stroke="#191970" d="M1775.6118,-58.4966C1748.9017,-48.437 1708.6602,-33.2811 1680.8511,-22.8075"/>
<polygon fill="#191970" stroke="#191970" points="1681.8081,-19.428 1671.2162,-19.1788 1679.3409,-25.9788 1681.8081,-19.428"/>
</g>
<!-- Node23&#45;&gt;Node19 -->
<g id="edge33" class="edge">
<title>Node23&#45;&gt;Node19</title>
<path fill="none" stroke="#191970" d="M1790.4775,-58.3619C1780.0688,-49.859 1765.2806,-37.7785 1753.2449,-27.9466"/>
<polygon fill="#191970" stroke="#191970" points="1755.3987,-25.1866 1745.4399,-21.5707 1750.9701,-30.6077 1755.3987,-25.1866"/>
</g>
<!-- Node23&#45;&gt;Node20 -->
<g id="edge36" class="edge">
<title>Node23&#45;&gt;Node20</title>
<path fill="none" stroke="#191970" d="M1812.1205,-58.3619C1818.6795,-50.2678 1827.8656,-38.9318 1835.6062,-29.3796"/>
<polygon fill="#191970" stroke="#191970" points="1838.3575,-31.5436 1841.9341,-21.5707 1832.919,-27.1364 1838.3575,-31.5436"/>
</g>
<!-- Node23&#45;&gt;Node21 -->
<g id="edge37" class="edge">
<title>Node23&#45;&gt;Node21</title>
<path fill="none" stroke="#191970" d="M1846.7854,-60.191C1894.7217,-50.4356 1972.3948,-34.6284 2026.7171,-23.5734"/>
<polygon fill="#191970" stroke="#191970" points="2027.475,-26.991 2036.5761,-21.567 2026.079,-20.1316 2027.475,-26.991"/>
</g>
<!-- Node23&#45;&gt;Node22 -->
<g id="edge34" class="edge">
<title>Node23&#45;&gt;Node22</title>
<path fill="none" stroke="#191970" d="M1846.6231,-64.1365C1910.805,-56.6912 2035.4677,-41.4366 2151.6214,-22.0602"/>
<polygon fill="#191970" stroke="#191970" points="2152.4734,-25.4662 2161.7541,-20.3556 2151.312,-18.5632 2152.4734,-25.4662"/>
</g>
<!-- Node24 -->
<g id="node25" class="node">
<title>Node24</title>
<polygon fill="#ffffff" stroke="#bfbfbf" points="1925,-.5 1925,-21.5 1954,-21.5 1954,-.5 1925,-.5"/>
<text text-anchor="middle" x="1939.5" y="-7.9" font-family="Helvetica,sans-Serif" font-size="12.00" fill="#000000">ios</text>
</g>
<!-- Node23&#45;&gt;Node24 -->
<g id="edge26" class="edge">
<title>Node23&#45;&gt;Node24</title>
<path fill="none" stroke="#191970" d="M1830.1515,-58.3703C1851.2688,-49.8484 1881.6946,-37.3515 1915.7421,-22.2172"/>
<polygon fill="#191970" stroke="#191970" points="1917.253,-25.3756 1924.9525,-18.0977 1914.3949,-18.9857 1917.253,-25.3756"/>
</g>
<!-- Node23&#45;&gt;Node25 -->
<g id="edge28" class="edge">
<title>Node23&#45;&gt;Node25</title>
<path fill="none" stroke="#191970" d="M1846.5126,-65.8391C1941.0043,-58.6979 2165.135,-40.6328 2258.9226,-21.8934"/>
<polygon fill="#191970" stroke="#191970" points="2259.8466,-25.2755 2268.907,-19.7836 2258.3994,-18.4268 2259.8466,-25.2755"/>
</g>
<!-- Node23&#45;&gt;Node26 -->
<g id="edge29" class="edge">
<title>Node23&#45;&gt;Node26</title>
<path fill="none" stroke="#191970" d="M1760.3469,-66.5472C1715.4366,-64.0705 1643.0592,-60.2928 1580.5,-58 913.6448,-33.5599 743.2904,-90.3781 79.5,-22 69.5202,-20.972 58.7101,-19.1984 49.0508,-17.3719"/>
<polygon fill="#191970" stroke="#191970" points="49.6047,-13.9137 39.1149,-15.402 48.2433,-20.78 49.6047,-13.9137"/>
</g>
<!-- Node27 -->
<g id="node28" class="node">
<title>Node27</title>
<polygon fill="#ffffff" stroke="#bfbfbf" points="1972,-.5 1972,-21.5 2015,-21.5 2015,-.5 1972,-.5"/>
<text text-anchor="middle" x="1993.5" y="-7.9" font-family="Helvetica,sans-Serif" font-size="12.00" fill="#000000">stdio.h</text>
</g>
<!-- Node23&#45;&gt;Node27 -->
<g id="edge31" class="edge">
<title>Node23&#45;&gt;Node27</title>
<path fill="none" stroke="#191970" d="M1841.8656,-58.4951C1872.3169,-49.9866 1916.1543,-37.3613 1962.3513,-22.2579"/>
<polygon fill="#191970" stroke="#191970" points="1963.5272,-25.5556 1971.9294,-19.1016 1961.3363,-18.9073 1963.5272,-25.5556"/>
</g>
<!-- Node23&#45;&gt;Node28 -->
<g id="edge35" class="edge">
<title>Node23&#45;&gt;Node28</title>
<path fill="none" stroke="#191970" d="M1846.6588,-66.7417C1934.6363,-61.7873 2141.1724,-48.3652 2323.8401,-22.122"/>
<polygon fill="#191970" stroke="#191970" points="2324.5049,-25.5622 2333.8976,-20.6604 2323.4981,-18.635 2324.5049,-25.5622"/>
</g>
<!-- Node23&#45;&gt;Node29 -->
<g id="edge38" class="edge">
<title>Node23&#45;&gt;Node29</title>
<path fill="none" stroke="#191970" d="M1846.865,-67.2045C1947.8672,-62.7148 2206.7948,-49.4299 2433.3114,-22.0474"/>
<polygon fill="#191970" stroke="#191970" points="2433.8894,-25.5029 2443.3916,-20.8168 2433.0411,-18.5545 2433.8894,-25.5029"/>
</g>
<!-- Node30&#45;&gt;Node1 -->
<g id="edge54" class="edge">
<title>Node30&#45;&gt;Node1</title>
<path fill="none" stroke="#191970" d="M654.7265,-58.4966C685.8054,-48.9592 731.8118,-34.8408 765.5899,-24.475"/>
<polygon fill="#191970" stroke="#191970" points="766.6762,-27.8029 775.2093,-21.5231 764.6225,-21.1109 766.6762,-27.8029"/>
</g>
<!-- Node30&#45;&gt;Node5 -->
<g id="edge41" class="edge">
<title>Node30&#45;&gt;Node5</title>
<path fill="none" stroke="#191970" d="M667.6141,-64.5618C729.082,-58.2453 840.0366,-45.0445 943.6327,-21.9083"/>
<polygon fill="#191970" stroke="#191970" points="944.6562,-25.2651 953.6333,-19.6382 943.1065,-18.4388 944.6562,-25.2651"/>
</g>
<!-- Node30&#45;&gt;Node6 -->
<g id="edge46" class="edge">
<title>Node30&#45;&gt;Node6</title>
<path fill="none" stroke="#191970" d="M667.5394,-62.4778C717.4525,-55.1037 798.7218,-41.8048 877.3898,-22.0223"/>
<polygon fill="#191970" stroke="#191970" points="878.644,-25.3144 887.4667,-19.4484 876.9116,-18.5321 878.644,-25.3144"/>
</g>
<!-- Node30&#45;&gt;Node7 -->
<g id="edge45" class="edge">
<title>Node30&#45;&gt;Node7</title>
<path fill="none" stroke="#191970" d="M612.0629,-58.3619C605.7083,-50.3496 596.8342,-39.1605 589.3069,-29.6696"/>
<polygon fill="#191970" stroke="#191970" points="591.8399,-27.2308 582.8836,-21.5707 586.3554,-31.5805 591.8399,-27.2308"/>
</g>
<!-- Node30&#45;&gt;Node8 -->
<g id="edge49" class="edge">
<title>Node30&#45;&gt;Node8</title>
<path fill="none" stroke="#191970" d="M624.902,-58.3619C628.0821,-50.6766 632.4716,-40.0686 636.2904,-30.8399"/>
<polygon fill="#191970" stroke="#191970" points="639.5364,-32.1491 640.1259,-21.5707 633.0683,-29.4726 639.5364,-32.1491"/>
</g>
<!-- Node30&#45;&gt;Node9 -->
<g id="edge53" class="edge">
<title>Node30&#45;&gt;Node9</title>
<path fill="none" stroke="#191970" d="M637.0074,-58.3619C650.5821,-49.6138 670.0332,-37.0786 685.515,-27.1015"/>
<polygon fill="#191970" stroke="#191970" points="687.5875,-29.9297 694.0973,-21.5707 683.7956,-24.0457 687.5875,-29.9297"/>
</g>
<!-- Node30&#45;&gt;Node12 -->
<g id="edge52" class="edge">
<title>Node30&#45;&gt;Node12</title>
<path fill="none" stroke="#191970" d="M600.7609,-58.4966C583.8899,-49.5194 559.3915,-36.4835 540.3262,-26.3387"/>
<polygon fill="#191970" stroke="#191970" points="541.9327,-23.2289 531.4606,-21.6212 538.6445,-29.4086 541.9327,-23.2289"/>
</g>
<!-- Node30&#45;&gt;Node26 -->
<g id="edge44" class="edge">
<title>Node30&#45;&gt;Node26</title>
<path fill="none" stroke="#191970" d="M573.2976,-66.407C479.1025,-60.9001 261.226,-46.4961 79.5,-22 69.5573,-20.6598 58.7568,-18.8051 49.095,-17.0003"/>
<polygon fill="#191970" stroke="#191970" points="49.6333,-13.5397 39.1522,-15.0881 48.3112,-20.4138 49.6333,-13.5397"/>
</g>
<!-- Node31 -->
<g id="node32" class="node">
<title>Node31</title>
<polygon fill="#ffffff" stroke="#bfbfbf" points="88.5,-.5 88.5,-21.5 130.5,-21.5 130.5,-.5 88.5,-.5"/>
<text text-anchor="middle" x="109.5" y="-7.9" font-family="Helvetica,sans-Serif" font-size="12.00" fill="#000000">cstdlib</text>
</g>
<!-- Node30&#45;&gt;Node31 -->
<g id="edge42" class="edge">
<title>Node30&#45;&gt;Node31</title>
<path fill="none" stroke="#191970" d="M573.2446,-66.4146C488.7413,-61.3075 306.3639,-48.0889 154.5,-22 150.0092,-21.2285 145.3021,-20.2597 140.6943,-19.2188"/>
<polygon fill="#191970" stroke="#191970" points="141.4284,-15.7957 130.8885,-16.8732 139.7999,-22.6036 141.4284,-15.7957"/>
</g>
<!-- Node32 -->
<g id="node33" class="node">
<title>Node32</title>
<polygon fill="#ffffff" stroke="#bfbfbf" points="164,-.5 164,-21.5 193,-21.5 193,-.5 164,-.5"/>
<text text-anchor="middle" x="178.5" y="-7.9" font-family="Helvetica,sans-Serif" font-size="12.00" fill="#000000">set</text>
</g>
<!-- Node30&#45;&gt;Node32 -->
<g id="edge43" class="edge">
<title>Node30&#45;&gt;Node32</title>
<path fill="none" stroke="#191970" d="M573.3767,-67.0882C496.3629,-63.1916 339.1194,-51.9969 209.5,-22 207.285,-21.4874 205.0091,-20.8682 202.745,-20.1879"/>
<polygon fill="#191970" stroke="#191970" points="203.7126,-16.8209 193.1186,-16.9562 201.4848,-23.4569 203.7126,-16.8209"/>
</g>
<!-- Node33 -->
<g id="node34" class="node">
<title>Node33</title>
<polygon fill="#ffffff" stroke="#bfbfbf" points="219,-.5 219,-21.5 262,-21.5 262,-.5 219,-.5"/>
<text text-anchor="middle" x="240.5" y="-7.9" font-family="Helvetica,sans-Serif" font-size="12.00" fill="#000000">cstring</text>
</g>
<!-- Node30&#45;&gt;Node33 -->
<g id="edge47" class="edge">
<title>Node30&#45;&gt;Node33</title>
<path fill="none" stroke="#191970" d="M573.2954,-65.2683C506.2443,-59.3636 379.8586,-45.9983 274.5,-22 273.7514,-21.8295 272.9958,-21.6498 272.2355,-21.4621"/>
<polygon fill="#191970" stroke="#191970" points="272.8612,-18.0029 262.2881,-18.6808 270.9762,-24.7443 272.8612,-18.0029"/>
</g>
<!-- Node34 -->
<g id="node35" class="node">
<title>Node34</title>
<polygon fill="#ffffff" stroke="#bfbfbf" points="284,-.5 284,-21.5 339,-21.5 339,-.5 284,-.5"/>
<text text-anchor="middle" x="311.5" y="-7.9" font-family="Helvetica,sans-Serif" font-size="12.00" fill="#000000">exception</text>
</g>
<!-- Node30&#45;&gt;Node34 -->
<g id="edge48" class="edge">
<title>Node30&#45;&gt;Node34</title>
<path fill="none" stroke="#191970" d="M573.2769,-62.7159C520.6417,-55.3028 432.8747,-41.7256 349.227,-22.2219"/>
<polygon fill="#191970" stroke="#191970" points="349.8501,-18.7728 339.313,-19.8774 348.2391,-25.5849 349.8501,-18.7728"/>
</g>
<!-- Node35 -->
<g id="node36" class="node">
<title>Node35</title>
<polygon fill="#ffffff" stroke="#bfbfbf" points="357,-.5 357,-21.5 412,-21.5 412,-.5 357,-.5"/>
<text text-anchor="middle" x="384.5" y="-7.9" font-family="Helvetica,sans-Serif" font-size="12.00" fill="#000000">functional</text>
</g>
<!-- Node30&#45;&gt;Node35 -->
<g id="edge50" class="edge">
<title>Node30&#45;&gt;Node35</title>
<path fill="none" stroke="#191970" d="M573.2678,-58.6423C535.0388,-50.0791 479.5967,-37.2561 422.2931,-22.111"/>
<polygon fill="#191970" stroke="#191970" points="422.896,-18.6497 412.3322,-19.4596 421.0954,-25.4141 422.896,-18.6497"/>
</g>
<!-- Node36 -->
<g id="node37" class="node">
<title>Node36</title>
<polygon fill="#ffffff" stroke="#bfbfbf" points="430.5,-.5 430.5,-21.5 472.5,-21.5 472.5,-.5 430.5,-.5"/>
<text text-anchor="middle" x="451.5" y="-7.9" font-family="Helvetica,sans-Serif" font-size="12.00" fill="#000000">deque</text>
</g>
<!-- Node30&#45;&gt;Node36 -->
<g id="edge51" class="edge">
<title>Node30&#45;&gt;Node36</title>
<path fill="none" stroke="#191970" d="M588.6777,-58.4951C562.4375,-49.7766 524.0209,-36.8837 482.3002,-22.2322"/>
<polygon fill="#191970" stroke="#191970" points="483.3761,-18.9004 472.7812,-18.8788 481.0501,-25.5027 483.3761,-18.9004"/>
</g>
<!-- Node37&#45;&gt;Node1 -->
<g id="edge73" class="edge">
<title>Node37&#45;&gt;Node1</title>
<path fill="none" stroke="#191970" d="M577.2153,-121.2882C622.4985,-115.4414 681.7596,-103.663 729.5,-80 754.8292,-67.4454 778.6581,-44.9959 793.6114,-29.1177"/>
<polygon fill="#191970" stroke="#191970" points="796.4132,-31.2405 800.5829,-21.5006 791.2494,-26.5143 796.4132,-31.2405"/>
</g>
<!-- Node37&#45;&gt;Node5 -->
<g id="edge56" class="edge">
<title>Node37&#45;&gt;Node5</title>
<path fill="none" stroke="#191970" d="M577.2804,-120.051C637.4072,-113.0696 726.156,-100.3795 801.5,-80 854.1395,-65.7618 912.6415,-41.324 947.7269,-25.6784"/>
<polygon fill="#191970" stroke="#191970" points="949.2953,-28.8108 956.9774,-21.5145 946.422,-22.4276 949.2953,-28.8108"/>
</g>
<!-- Node37&#45;&gt;Node6 -->
<g id="edge62" class="edge">
<title>Node37&#45;&gt;Node6</title>
<path fill="none" stroke="#191970" d="M577.0526,-118.6393C628.283,-111.3766 699.2254,-98.9931 759.5,-80 804.1452,-65.9319 852.9621,-42.1484 882.9141,-26.5093"/>
<polygon fill="#191970" stroke="#191970" points="884.7376,-29.5045 891.9467,-21.7405 881.4694,-23.3143 884.7376,-29.5045"/>
</g>
<!-- Node37&#45;&gt;Node7 -->
<g id="edge61" class="edge">
<title>Node37&#45;&gt;Node7</title>
<path fill="none" stroke="#191970" d="M576.2847,-116.4825C617.4025,-108.6327 664.0173,-96.428 676.5,-80 682.4156,-72.2147 681.7723,-66.2345 676.5,-58 672.4677,-51.7023 636.6381,-36.0739 608.5692,-24.5597"/>
<polygon fill="#191970" stroke="#191970" points="609.6113,-21.2052 599.0295,-20.6805 606.9745,-27.6896 609.6113,-21.2052"/>
</g>
<!-- Node37&#45;&gt;Node8 -->
<g id="edge65" class="edge">
<title>Node37&#45;&gt;Node8</title>
<path fill="none" stroke="#191970" d="M577.1526,-118.3618C623.7228,-110.9903 679.0216,-98.5919 693.5,-80 707.043,-62.6091 687.8848,-41.9047 669.7019,-27.7429"/>
<polygon fill="#191970" stroke="#191970" points="671.6653,-24.8422 661.5373,-21.732 667.5152,-30.4793 671.6653,-24.8422"/>
</g>
<!-- Node37&#45;&gt;Node9 -->
<g id="edge72" class="edge">
<title>Node37&#45;&gt;Node9</title>
<path fill="none" stroke="#191970" d="M577.0386,-120.0831C629.0367,-113.3058 693.8983,-100.8846 710.5,-80 721.1771,-66.5684 719.9063,-46.5666 716.7151,-31.5514"/>
<polygon fill="#191970" stroke="#191970" points="720.0567,-30.4905 714.1954,-21.6647 713.2735,-32.2193 720.0567,-30.4905"/>
</g>
<!-- Node37&#45;&gt;Node12 -->
<g id="edge71" class="edge">
<title>Node37&#45;&gt;Node12</title>
<path fill="none" stroke="#191970" d="M511.6301,-116.3724C515.0477,-106.9742 519.6333,-92.806 521.5,-80 523.8697,-63.744 520.9162,-45.3311 517.6176,-31.6172"/>
<polygon fill="#191970" stroke="#191970" points="520.9477,-30.5207 514.9934,-21.7573 514.1832,-32.3211 520.9477,-30.5207"/>
</g>
<!-- Node37&#45;&gt;Node26 -->
<g id="edge60" class="edge">
<title>Node37&#45;&gt;Node26</title>
<path fill="none" stroke="#191970" d="M437.9784,-122.9724C341.1022,-116.6357 170.9282,-102.6696 113.5,-80 83.7808,-68.2684 54.9777,-44.7759 37.2571,-28.4832"/>
<polygon fill="#191970" stroke="#191970" points="39.6073,-25.8886 29.9316,-21.572 34.8036,-30.9802 39.6073,-25.8886"/>
</g>
<!-- Node37&#45;&gt;Node30 -->
<g id="edge74" class="edge">
<title>Node37&#45;&gt;Node30</title>
<path fill="none" stroke="#191970" d="M527.9634,-116.4966C545.5331,-107.4786 571.0821,-94.3649 590.8851,-84.2006"/>
<polygon fill="#191970" stroke="#191970" points="592.5086,-87.3014 599.8069,-79.6212 589.3121,-81.0738 592.5086,-87.3014"/>
</g>
<!-- Node37&#45;&gt;Node31 -->
<g id="edge57" class="edge">
<title>Node37&#45;&gt;Node31</title>
<path fill="none" stroke="#191970" d="M437.8079,-122.3943C335.3164,-115.0141 153.5226,-99.3796 130.5,-80 116.5475,-68.2553 111.6737,-47.5399 110.0645,-31.863"/>
<polygon fill="#191970" stroke="#191970" points="113.5343,-31.2878 109.3865,-21.5387 106.5494,-31.7465 113.5343,-31.2878"/>
</g>
<!-- Node37&#45;&gt;Node32 -->
<g id="edge59" class="edge">
<title>Node37&#45;&gt;Node32</title>
<path fill="none" stroke="#191970" d="M437.884,-123.0025C336.6945,-116.4716 158.8651,-101.9957 139.5,-80 125.8722,-64.521 141.5685,-43.5165 156.9242,-28.7618"/>
<polygon fill="#191970" stroke="#191970" points="159.6916,-30.9786 164.7661,-21.6781 154.9993,-25.7841 159.6916,-30.9786"/>
</g>
<!-- Node37&#45;&gt;Node33 -->
<g id="edge63" class="edge">
<title>Node37&#45;&gt;Node33</title>
<path fill="none" stroke="#191970" d="M437.946,-122.7663C338.9548,-116.0212 167.2617,-101.3781 148.5,-80 126.0258,-54.3917 174.398,-32.2631 209.1486,-20.3548"/>
<polygon fill="#191970" stroke="#191970" points="210.5509,-23.5783 218.9602,-17.1335 208.3673,-16.9275 210.5509,-23.5783"/>
</g>
<!-- Node37&#45;&gt;Node34 -->
<g id="edge64" class="edge">
<title>Node37&#45;&gt;Node34</title>
<path fill="none" stroke="#191970" d="M493.3813,-116.2282C471.1262,-99.3381 428.7509,-67.5623 412.5,-58 391.5859,-45.6939 366.9111,-34.1606 347.1857,-25.5987"/>
<polygon fill="#191970" stroke="#191970" points="348.5088,-22.358 337.9381,-21.644 345.7563,-28.7942 348.5088,-22.358"/>
</g>
<!-- Node37&#45;&gt;Node35 -->
<g id="edge66" class="edge">
<title>Node37&#45;&gt;Node35</title>
<path fill="none" stroke="#191970" d="M498.8164,-116.1614C487.3064,-102.0818 466.0486,-77.0525 445.5,-58 433.8597,-47.2073 419.8951,-36.3156 408.2661,-27.7384"/>
<polygon fill="#191970" stroke="#191970" points="410.0548,-24.7119 399.9059,-21.6705 405.943,-30.377 410.0548,-24.7119"/>
</g>
<!-- Node37&#45;&gt;Node36 -->
<g id="edge70" class="edge">
<title>Node37&#45;&gt;Node36</title>
<path fill="none" stroke="#191970" d="M504.7439,-116.3647C500.9428,-102.505 493.4207,-77.7131 483.5,-58 478.6117,-48.2867 472.0053,-38.2302 466.0644,-29.9245"/>
<polygon fill="#191970" stroke="#191970" points="468.7468,-27.6649 459.992,-21.698 463.1149,-31.8221 468.7468,-27.6649"/>
</g>
<!-- Node38 -->
<g id="node39" class="node">
<title>Node38</title>
<polygon fill="#ffffff" stroke="#bfbfbf" points="158,-58.5 158,-79.5 203,-79.5 203,-58.5 158,-58.5"/>
<text text-anchor="middle" x="180.5" y="-65.9" font-family="Helvetica,sans-Serif" font-size="12.00" fill="#000000">stdlib.h</text>
</g>
<!-- Node37&#45;&gt;Node38 -->
<g id="edge58" class="edge">
<title>Node37&#45;&gt;Node38</title>
<path fill="none" stroke="#191970" d="M437.973,-119.3716C380.0509,-112.2308 295.3552,-99.9704 212.8661,-79.7437"/>
<polygon fill="#191970" stroke="#191970" points="213.6298,-76.3271 203.0801,-77.3035 211.9361,-83.1191 213.6298,-76.3271"/>
</g>
<!-- Node39 -->
<g id="node40" class="node">
<title>Node39</title>
<polygon fill="#ffffff" stroke="#bfbfbf" points="221.5,-58.5 221.5,-79.5 259.5,-79.5 259.5,-58.5 221.5,-58.5"/>
<text text-anchor="middle" x="240.5" y="-65.9" font-family="Helvetica,sans-Serif" font-size="12.00" fill="#000000">cfenv</text>
</g>
<!-- Node37&#45;&gt;Node39 -->
<g id="edge67" class="edge">
<title>Node37&#45;&gt;Node39</title>
<path fill="none" stroke="#191970" d="M437.9402,-116.7228C392.2689,-109.1925 331.1955,-97.6427 269.5224,-79.9329"/>
<polygon fill="#191970" stroke="#191970" points="270.2018,-76.4851 259.6214,-77.0374 268.2369,-83.2037 270.2018,-76.4851"/>
</g>
<!-- Node40 -->
<g id="node41" class="node">
<title>Node40</title>
<polygon fill="#ffffff" stroke="#bfbfbf" points="277.5,-58.5 277.5,-79.5 335.5,-79.5 335.5,-58.5 277.5,-58.5"/>
<text text-anchor="middle" x="306.5" y="-65.9" font-family="Helvetica,sans-Serif" font-size="12.00" fill="#000000">execinfo.h</text>
</g>
<!-- Node37&#45;&gt;Node40 -->
<g id="edge68" class="edge">
<title>Node37&#45;&gt;Node40</title>
<path fill="none" stroke="#191970" d="M470.9203,-116.4643C439.9478,-107.5409 394.1097,-94.3285 345.3356,-80.2397"/>
<polygon fill="#191970" stroke="#191970" points="346.1238,-76.8243 335.5452,-77.4112 344.1809,-83.5493 346.1238,-76.8243"/>
</g>
<!-- Node41 -->
<g id="node42" class="node">
<title>Node41</title>
<polygon fill="#ffffff" stroke="#bfbfbf" points="353.5,-58.5 353.5,-79.5 403.5,-79.5 403.5,-58.5 353.5,-58.5"/>
<text text-anchor="middle" x="378.5" y="-65.9" font-family="Helvetica,sans-Serif" font-size="12.00" fill="#000000">cxxabi.h</text>
</g>
<!-- Node37&#45;&gt;Node41 -->
<g id="edge69" class="edge">
<title>Node37&#45;&gt;Node41</title>
<path fill="none" stroke="#191970" d="M484.1391,-116.4966C463.8094,-107.3562 434.1216,-94.0082 411.3911,-83.7883"/>
<polygon fill="#191970" stroke="#191970" points="412.6789,-80.5298 402.1231,-79.6212 409.8083,-86.9142 412.6789,-80.5298"/>
</g>
<!-- Node42 -->
<g id="node43" class="node">
<title>Node42</title>
<g id="a_node43"><a xlink:href="../../d0/d5d/mpi_8hpp.html" target="_top" xlink:title="timemory/mpi.hpp">
<polygon fill="#ffffff" stroke="#000000" points="1483.5,-58.5 1483.5,-79.5 1571.5,-79.5 1571.5,-58.5 1483.5,-58.5"/>
<text text-anchor="middle" x="1527.5" y="-65.9" font-family="Helvetica,sans-Serif" font-size="12.00" fill="#000000">timemory/mpi.hpp</text>
</a>
</g>
</g>
<!-- Node37&#45;&gt;Node42 -->
<g id="edge75" class="edge">
<title>Node37&#45;&gt;Node42</title>
<path fill="none" stroke="#191970" d="M577.2591,-123.2759C721.73,-115.5279 1064.1784,-96.9787 1351.5,-80 1392.2141,-77.5941 1438.2152,-74.7134 1472.9752,-72.5035"/>
<polygon fill="#191970" stroke="#191970" points="1473.6264,-75.9692 1483.3837,-71.8405 1473.1814,-68.9834 1473.6264,-75.9692"/>
</g>
<!-- Node42&#45;&gt;Node17 -->
<g id="edge76" class="edge">
<title>Node42&#45;&gt;Node17</title>
<path fill="none" stroke="#191970" d="M1549.5933,-58.4966C1568.9732,-49.2832 1597.3453,-35.7949 1618.907,-25.5442"/>
<polygon fill="#191970" stroke="#191970" points="1620.4521,-28.6851 1627.9806,-21.2305 1617.4465,-22.3632 1620.4521,-28.6851"/>
</g>
</g>
</svg>
