<?xml version="1.0" encoding="UTF-8" standalone="no"?>
<!DOCTYPE svg PUBLIC "-//W3C//DTD SVG 1.1//EN"
 "http://www.w3.org/Graphics/SVG/1.1/DTD/svg11.dtd">
<!-- Generated by graphviz version 2.40.1 (20161225.0304)
 -->
<!-- Title: timemory/base_timer.hpp Pages: 1 -->
<!--zoomable 204 -->
<svg id="main" version="1.1" xmlns="http://www.w3.org/2000/svg" xmlns:xlink="http://www.w3.org/1999/xlink" xml:space="preserve" onload="init(evt)">
<style type="text/css"><![CDATA[
.edge:hover path { stroke: red; }
.edge:hover polygon { stroke: red; fill: red; }
]]></style>
<script type="text/javascript"><![CDATA[
var edges = document.getElementsByTagName('g');
if (edges && edges.length) {
  for (var i=0;i<edges.length;i++) {
    if (edges[i].id.substr(0,4)=='edge') {
      edges[i].setAttribute('class','edge');
    }
  }
}
]]></script>
        <defs>
                <circle id="rim" cx="0" cy="0" r="7"/>
                <circle id="rim2" cx="0" cy="0" r="3.5"/>
                <g id="zoomPlus">
                        <use xlink:href="#rim" fill="#404040">
                                <set attributeName="fill" to="#808080" begin="zoomplus.mouseover" end="zoomplus.mouseout"/>
                        </use>
                        <path d="M-4,0h8M0,-4v8" fill="none" stroke="white" stroke-width="1.5" pointer-events="none"/>
                </g>
                <g id="zoomMin">
                        <use xlink:href="#rim" fill="#404040">
                                <set attributeName="fill" to="#808080" begin="zoomminus.mouseover" end="zoomminus.mouseout"/>
                        </use>
                        <path d="M-4,0h8" fill="none" stroke="white" stroke-width="1.5" pointer-events="none"/>
                </g>
                <g id="dirArrow">
                        <path fill="none" stroke="white" stroke-width="1.5" d="M0,-3.0v7 M-2.5,-0.5L0,-3.0L2.5,-0.5"/>
                </g>
               <g id="resetDef">
                       <use xlink:href="#rim2" fill="#404040">
                               <set attributeName="fill" to="#808080" begin="reset.mouseover" end="reset.mouseout"/>
                       </use>
               </g>
        </defs>

<script type="text/javascript">
var viewWidth = 2552;
var viewHeight = 204;
var sectionId = 'dynsection-0';
</script>
<script xlink:href="../../svgpan.js"/>
<svg id="graph" class="graph">
<g id="viewport">
<title>timemory/base_timer.hpp</title>
<polygon fill="#ffffff" stroke="transparent" points="-4,4 -4,-200 2547.5,-200 2547.5,4 -4,4"/>
<!-- Node0 -->
<g id="node1" class="node">
<title>Node0</title>
<polygon fill="#bfbfbf" stroke="#000000" points="1620.5,-174.5 1620.5,-195.5 1738.5,-195.5 1738.5,-174.5 1620.5,-174.5"/>
<text text-anchor="middle" x="1679.5" y="-181.9" font-family="Helvetica,sans-Serif" font-size="12.00" fill="#000000">timemory/base_timer.hpp</text>
</g>
<!-- Node1 -->
<g id="node2" class="node">
<title>Node1</title>
<g id="a_node2"><a xlink:href="../../db/d19/namespace_8hpp.html" target="_top" xlink:title="timemory/namespace.hpp">
<polygon fill="#ffffff" stroke="#000000" points="1008.5,-.5 1008.5,-21.5 1128.5,-21.5 1128.5,-.5 1008.5,-.5"/>
<text text-anchor="middle" x="1068.5" y="-7.9" font-family="Helvetica,sans-Serif" font-size="12.00" fill="#000000">timemory/namespace.hpp</text>
</a>
</g>
</g>
<!-- Node0&#45;&gt;Node1 -->
<g id="edge1" class="edge">
<title>Node0&#45;&gt;Node1</title>
<path fill="none" stroke="#191970" d="M1620.3691,-177.2719C1529.1741,-164.1703 1349.663,-133.6519 1205.5,-80 1165.7592,-65.21 1122.4548,-42.125 1095.3938,-26.7852"/>
<polygon fill="#191970" stroke="#191970" points="1096.9487,-23.6424 1086.5318,-21.7086 1093.4692,-29.7163 1096.9487,-23.6424"/>
</g>
<!-- Node2 -->
<g id="node3" class="node">
<title>Node2</title>
<g id="a_node3"><a xlink:href="../../d8/d4e/base__clock_8hpp.html" target="_top" xlink:title="timemory/base_clock.hpp">
<polygon fill="#ffffff" stroke="#000000" points="1215,-58.5 1215,-79.5 1334,-79.5 1334,-58.5 1215,-58.5"/>
<text text-anchor="middle" x="1274.5" y="-65.9" font-family="Helvetica,sans-Serif" font-size="12.00" fill="#000000">timemory/base_clock.hpp</text>
</a>
</g>
</g>
<!-- Node0&#45;&gt;Node2 -->
<g id="edge2" class="edge">
<title>Node0&#45;&gt;Node2</title>
<path fill="none" stroke="#191970" d="M1642.4853,-174.3983C1568.5167,-153.2122 1402.5758,-105.6834 1321.2402,-82.3873"/>
<polygon fill="#191970" stroke="#191970" points="1321.8594,-78.924 1311.2822,-79.5352 1319.9319,-85.6534 1321.8594,-78.924"/>
</g>
<!-- Node17 -->
<g id="node18" class="node">
<title>Node17</title>
<polygon fill="#ffffff" stroke="#bfbfbf" points="1606.5,-.5 1606.5,-21.5 1692.5,-21.5 1692.5,-.5 1606.5,-.5"/>
<text text-anchor="middle" x="1649.5" y="-7.9" font-family="Helvetica,sans-Serif" font-size="12.00" fill="#000000">cereal/cereal.hpp</text>
</g>
<!-- Node0&#45;&gt;Node17 -->
<g id="edge80" class="edge">
<title>Node0&#45;&gt;Node17</title>
<path fill="none" stroke="#191970" d="M1677.6685,-174.3774C1672.8264,-146.293 1659.6161,-69.6735 1653.1556,-32.2027"/>
<polygon fill="#191970" stroke="#191970" points="1656.5323,-31.1876 1651.3841,-21.9277 1649.6341,-32.377 1656.5323,-31.1876"/>
</g>
<!-- Node18 -->
<g id="node19" class="node">
<title>Node18</title>
<polygon fill="#ffffff" stroke="#bfbfbf" points="1711,-.5 1711,-21.5 1824,-21.5 1824,-.5 1711,-.5"/>
<text text-anchor="middle" x="1767.5" y="-7.9" font-family="Helvetica,sans-Serif" font-size="12.00" fill="#000000">cereal/types/chrono.hpp</text>
</g>
<!-- Node0&#45;&gt;Node18 -->
<g id="edge83" class="edge">
<title>Node0&#45;&gt;Node18</title>
<path fill="none" stroke="#191970" d="M1681.7888,-174.1675C1686.9175,-151.4169 1700.7778,-97.5069 1724.5,-58 1730.8853,-47.3659 1739.9291,-37.0284 1748.0764,-28.7688"/>
<polygon fill="#191970" stroke="#191970" points="1750.7732,-31.028 1755.497,-21.5445 1745.8903,-26.0124 1750.7732,-31.028"/>
</g>
<!-- Node19 -->
<g id="node20" class="node">
<title>Node19</title>
<polygon fill="#ffffff" stroke="#bfbfbf" points="2130.5,-.5 2130.5,-21.5 2240.5,-21.5 2240.5,-.5 2130.5,-.5"/>
<text text-anchor="middle" x="2185.5" y="-7.9" font-family="Helvetica,sans-Serif" font-size="12.00" fill="#000000">cereal/types/deque.hpp</text>
</g>
<!-- Node0&#45;&gt;Node19 -->
<g id="edge84" class="edge">
<title>Node0&#45;&gt;Node19</title>
<path fill="none" stroke="#191970" d="M1712.862,-174.4696C1741.9287,-165.1914 1785.1542,-151.1441 1822.5,-138 1917.888,-104.4276 1939.8809,-90.9085 2035.5,-58 2070.3917,-45.9916 2110.2716,-33.5565 2140.1363,-24.4956"/>
<polygon fill="#191970" stroke="#191970" points="2141.2987,-27.8007 2149.8587,-21.5576 2139.2738,-21.1 2141.2987,-27.8007"/>
</g>
<!-- Node20 -->
<g id="node21" class="node">
<title>Node20</title>
<polygon fill="#ffffff" stroke="#bfbfbf" points="2023,-.5 2023,-21.5 2112,-21.5 2112,-.5 2023,-.5"/>
<text text-anchor="middle" x="2067.5" y="-7.9" font-family="Helvetica,sans-Serif" font-size="12.00" fill="#000000">cereal/access.hpp</text>
</g>
<!-- Node0&#45;&gt;Node20 -->
<g id="edge81" class="edge">
<title>Node0&#45;&gt;Node20</title>
<path fill="none" stroke="#191970" d="M1703.1871,-174.3774C1769.6141,-144.588 1957.8084,-60.1916 2034.4293,-25.8307"/>
<polygon fill="#191970" stroke="#191970" points="2035.9376,-28.9902 2043.6299,-21.7046 2033.0733,-22.603 2035.9376,-28.9902"/>
</g>
<!-- Node21 -->
<g id="node22" class="node">
<title>Node21</title>
<g id="a_node22"><a xlink:href="../../d9/dd2/rss_8hpp.html" target="_top" xlink:title="timemory/rss.hpp">
<polygon fill="#ffffff" stroke="#000000" points="1733.5,-58.5 1733.5,-79.5 1819.5,-79.5 1819.5,-58.5 1733.5,-58.5"/>
<text text-anchor="middle" x="1776.5" y="-65.9" font-family="Helvetica,sans-Serif" font-size="12.00" fill="#000000">timemory/rss.hpp</text>
</a>
</g>
</g>
<!-- Node0&#45;&gt;Node21 -->
<g id="edge22" class="edge">
<title>Node0&#45;&gt;Node21</title>
<path fill="none" stroke="#191970" d="M1688.4517,-174.2949C1704.9816,-154.5271 1740.4761,-112.0801 1760.9931,-87.5443"/>
<polygon fill="#191970" stroke="#191970" points="1763.8401,-89.5958 1767.57,-79.6792 1758.4701,-85.1054 1763.8401,-89.5958"/>
</g>
<!-- Node23 -->
<g id="node24" class="node">
<title>Node23</title>
<polygon fill="#ffffff" stroke="#bfbfbf" points="2259,-.5 2259,-21.5 2306,-21.5 2306,-.5 2259,-.5"/>
<text text-anchor="middle" x="2282.5" y="-7.9" font-family="Helvetica,sans-Serif" font-size="12.00" fill="#000000">fstream</text>
</g>
<!-- Node0&#45;&gt;Node23 -->
<g id="edge77" class="edge">
<title>Node0&#45;&gt;Node23</title>
<path fill="none" stroke="#191970" d="M1723.6198,-174.4554C1761.402,-165.2814 1817.1954,-151.3914 1865.5,-138 2034.2,-91.2315 2078.0122,-76.5035 2249.1559,-22.0577"/>
<polygon fill="#191970" stroke="#191970" points="2250.2644,-25.378 2258.7333,-19.0117 2248.1428,-18.7072 2250.2644,-25.378"/>
</g>
<!-- Node24 -->
<g id="node25" class="node">
<title>Node24</title>
<polygon fill="#ffffff" stroke="#bfbfbf" points="61,-.5 61,-21.5 100,-21.5 100,-.5 61,-.5"/>
<text text-anchor="middle" x="80.5" y="-7.9" font-family="Helvetica,sans-Serif" font-size="12.00" fill="#000000">string</text>
</g>
<!-- Node0&#45;&gt;Node24 -->
<g id="edge78" class="edge">
<title>Node0&#45;&gt;Node24</title>
<path fill="none" stroke="#191970" d="M1620.4048,-184.6895C1453.3192,-183.3447 963.3258,-176.1785 558.5,-138 382.2836,-121.3813 326.3371,-151.6739 164.5,-80 137.6588,-68.1127 112.4239,-45.1973 96.7526,-29.0438"/>
<polygon fill="#191970" stroke="#191970" points="99.2689,-26.6106 89.8625,-21.7351 94.1754,-31.4124 99.2689,-26.6106"/>
</g>
<!-- Node27 -->
<g id="node28" class="node">
<title>Node27</title>
<polygon fill="#ffffff" stroke="#bfbfbf" points="2324,-.5 2324,-21.5 2415,-21.5 2415,-.5 2324,-.5"/>
<text text-anchor="middle" x="2369.5" y="-7.9" font-family="Helvetica,sans-Serif" font-size="12.00" fill="#000000">cereal/macros.hpp</text>
</g>
<!-- Node0&#45;&gt;Node27 -->
<g id="edge82" class="edge">
<title>Node0&#45;&gt;Node27</title>
<path fill="none" stroke="#191970" d="M1738.7166,-174.7221C1787.2558,-165.9701 1857.6246,-152.532 1918.5,-138 2069.3025,-102.0008 2245.5493,-49.208 2325.7605,-24.583"/>
<polygon fill="#191970" stroke="#191970" points="2326.9872,-27.8676 2335.5158,-21.5815 2324.9287,-21.1771 2326.9872,-27.8676"/>
</g>
<!-- Node28 -->
<g id="node29" class="node">
<title>Node28</title>
<polygon fill="#ffffff" stroke="#bfbfbf" points="2433.5,-.5 2433.5,-21.5 2543.5,-21.5 2543.5,-.5 2433.5,-.5"/>
<text text-anchor="middle" x="2488.5" y="-7.9" font-family="Helvetica,sans-Serif" font-size="12.00" fill="#000000">cereal/types/vector.hpp</text>
</g>
<!-- Node0&#45;&gt;Node28 -->
<g id="edge85" class="edge">
<title>Node0&#45;&gt;Node28</title>
<path fill="none" stroke="#191970" d="M1738.7577,-176.904C1797.9326,-168.4809 1891.3638,-154.264 1971.5,-138 2145.4569,-102.6948 2349.3754,-48.8862 2440.399,-24.2063"/>
<polygon fill="#191970" stroke="#191970" points="2441.4199,-27.5558 2450.1522,-21.556 2439.5843,-20.8008 2441.4199,-27.5558"/>
</g>
<!-- Node29 -->
<g id="node30" class="node">
<title>Node29</title>
<g id="a_node30"><a xlink:href="../../d1/d4e/utility_8hpp.html" target="_top" xlink:title="timemory/utility.hpp">
<polygon fill="#ffffff" stroke="#000000" points="489.5,-58.5 489.5,-79.5 583.5,-79.5 583.5,-58.5 489.5,-58.5"/>
<text text-anchor="middle" x="536.5" y="-65.9" font-family="Helvetica,sans-Serif" font-size="12.00" fill="#000000">timemory/utility.hpp</text>
</a>
</g>
</g>
<!-- Node0&#45;&gt;Node29 -->
<g id="edge38" class="edge">
<title>Node0&#45;&gt;Node29</title>
<path fill="none" stroke="#191970" d="M1620.4123,-183.8966C1399.3338,-179.5831 631.2176,-162.8639 585.5,-138 566.0466,-127.4201 552.5149,-105.3811 544.6752,-89.0432"/>
<polygon fill="#191970" stroke="#191970" points="547.8026,-87.4627 540.5274,-79.7607 541.4116,-90.3186 547.8026,-87.4627"/>
</g>
<!-- Node36 -->
<g id="node37" class="node">
<title>Node36</title>
<polygon fill="#ffffff" stroke="#bfbfbf" points="0,-.5 0,-21.5 43,-21.5 43,-.5 0,-.5"/>
<text text-anchor="middle" x="21.5" y="-7.9" font-family="Helvetica,sans-Serif" font-size="12.00" fill="#000000">atomic</text>
</g>
<!-- Node0&#45;&gt;Node36 -->
<g id="edge79" class="edge">
<title>Node0&#45;&gt;Node36</title>
<path fill="none" stroke="#191970" d="M1620.3906,-184.3135C1369.2153,-181.2231 397.1914,-167.4512 263.5,-138 175.0028,-118.5047 83.8591,-57.4128 43.2732,-27.6404"/>
<polygon fill="#191970" stroke="#191970" points="45.2902,-24.7787 35.1768,-21.6214 41.1139,-30.3964 45.2902,-24.7787"/>
</g>
<!-- Node38 -->
<g id="node39" class="node">
<title>Node38</title>
<g id="a_node39"><a xlink:href="../../da/d8e/signal__detection_8hpp.html" target="_top" xlink:title="timemory/signal_detection.hpp">
<polygon fill="#ffffff" stroke="#000000" points="595,-116.5 595,-137.5 734,-137.5 734,-116.5 595,-116.5"/>
<text text-anchor="middle" x="664.5" y="-123.9" font-family="Helvetica,sans-Serif" font-size="12.00" fill="#000000">timemory/signal_detection.hpp</text>
</a>
</g>
</g>
<!-- Node0&#45;&gt;Node38 -->
<g id="edge57" class="edge">
<title>Node0&#45;&gt;Node38</title>
<path fill="none" stroke="#191970" d="M1620.1698,-181.6097C1446.8773,-171.7073 941.3285,-142.8188 744.3628,-131.5636"/>
<polygon fill="#191970" stroke="#191970" points="744.2736,-128.0529 734.0902,-130.9766 743.8742,-135.0415 744.2736,-128.0529"/>
</g>
<!-- Node2&#45;&gt;Node1 -->
<g id="edge21" class="edge">
<title>Node2&#45;&gt;Node1</title>
<path fill="none" stroke="#191970" d="M1237.195,-58.4966C1203.1752,-48.9183 1152.7454,-34.7196 1115.8864,-24.3418"/>
<polygon fill="#191970" stroke="#191970" points="1116.4493,-20.8643 1105.875,-21.5231 1114.5522,-27.6023 1116.4493,-20.8643"/>
</g>
<!-- Node3 -->
<g id="node4" class="node">
<title>Node3</title>
<polygon fill="#ffffff" stroke="#bfbfbf" points="939,-.5 939,-21.5 990,-21.5 990,-.5 939,-.5"/>
<text text-anchor="middle" x="964.5" y="-7.9" font-family="Helvetica,sans-Serif" font-size="12.00" fill="#000000">iostream</text>
</g>
<!-- Node2&#45;&gt;Node3 -->
<g id="edge3" class="edge">
<title>Node2&#45;&gt;Node3</title>
<path fill="none" stroke="#191970" d="M1214.7502,-61.1672C1161.022,-53.587 1079.8268,-40.8067 1000.2074,-21.9113"/>
<polygon fill="#191970" stroke="#191970" points="1000.544,-18.3923 990.0024,-19.4532 998.9047,-25.1977 1000.544,-18.3923"/>
</g>
<!-- Node4 -->
<g id="node5" class="node">
<title>Node4</title>
<polygon fill="#ffffff" stroke="#bfbfbf" points="872.5,-.5 872.5,-21.5 920.5,-21.5 920.5,-.5 872.5,-.5"/>
<text text-anchor="middle" x="896.5" y="-7.9" font-family="Helvetica,sans-Serif" font-size="12.00" fill="#000000">iomanip</text>
</g>
<!-- Node2&#45;&gt;Node4 -->
<g id="edge4" class="edge">
<title>Node2&#45;&gt;Node4</title>
<path fill="none" stroke="#191970" d="M1214.9819,-64.2864C1147.8281,-58.2121 1035.3339,-45.7606 930.3143,-21.8491"/>
<polygon fill="#191970" stroke="#191970" points="931.034,-18.4232 920.5021,-19.576 929.4542,-25.2426 931.034,-18.4232"/>
</g>
<!-- Node5 -->
<g id="node6" class="node">
<title>Node5</title>
<polygon fill="#ffffff" stroke="#bfbfbf" points="614,-.5 614,-21.5 663,-21.5 663,-.5 614,-.5"/>
<text text-anchor="middle" x="638.5" y="-7.9" font-family="Helvetica,sans-Serif" font-size="12.00" fill="#000000">sstream</text>
</g>
<!-- Node2&#45;&gt;Node5 -->
<g id="edge5" class="edge">
<title>Node2&#45;&gt;Node5</title>
<path fill="none" stroke="#191970" d="M1214.8433,-66.204C1087.5044,-59.943 791.6755,-43.763 673.0978,-21.8773"/>
<polygon fill="#191970" stroke="#191970" points="673.6744,-18.424 663.19,-19.9493 672.3373,-25.2951 673.6744,-18.424"/>
</g>
<!-- Node6 -->
<g id="node7" class="node">
<title>Node6</title>
<polygon fill="#ffffff" stroke="#bfbfbf" points="681,-.5 681,-21.5 736,-21.5 736,-.5 681,-.5"/>
<text text-anchor="middle" x="708.5" y="-7.9" font-family="Helvetica,sans-Serif" font-size="12.00" fill="#000000">stdexcept</text>
</g>
<!-- Node2&#45;&gt;Node6 -->
<g id="edge6" class="edge">
<title>Node2&#45;&gt;Node6</title>
<path fill="none" stroke="#191970" d="M1214.7192,-67.7405C1117.7962,-64.8156 920.4163,-55.1925 746.1228,-22.0152"/>
<polygon fill="#191970" stroke="#191970" points="746.7458,-18.5709 736.2631,-20.1081 745.4165,-25.4435 746.7458,-18.5709"/>
</g>
<!-- Node7 -->
<g id="node8" class="node">
<title>Node7</title>
<polygon fill="#ffffff" stroke="#bfbfbf" points="754,-.5 754,-21.5 795,-21.5 795,-.5 754,-.5"/>
<text text-anchor="middle" x="774.5" y="-7.9" font-family="Helvetica,sans-Serif" font-size="12.00" fill="#000000">vector</text>
</g>
<!-- Node2&#45;&gt;Node7 -->
<g id="edge7" class="edge">
<title>Node2&#45;&gt;Node7</title>
<path fill="none" stroke="#191970" d="M1214.8809,-65.0132C1110.2764,-57.7048 896.8099,-41.3153 805.2353,-21.8638"/>
<polygon fill="#191970" stroke="#191970" points="805.729,-18.3873 795.204,-19.6015 804.189,-25.2158 805.729,-18.3873"/>
</g>
<!-- Node8 -->
<g id="node9" class="node">
<title>Node8</title>
<polygon fill="#ffffff" stroke="#bfbfbf" points="555,-.5 555,-21.5 596,-21.5 596,-.5 555,-.5"/>
<text text-anchor="middle" x="575.5" y="-7.9" font-family="Helvetica,sans-Serif" font-size="12.00" fill="#000000">mutex</text>
</g>
<!-- Node2&#45;&gt;Node8 -->
<g id="edge8" class="edge">
<title>Node2&#45;&gt;Node8</title>
<path fill="none" stroke="#191970" d="M1214.8409,-67.0474C1076.8203,-62.1794 737.8251,-48.1227 606.056,-21.7633"/>
<polygon fill="#191970" stroke="#191970" points="606.6941,-18.3209 596.1866,-19.678 605.247,-25.1697 606.6941,-18.3209"/>
</g>
<!-- Node9 -->
<g id="node10" class="node">
<title>Node9</title>
<polygon fill="#ffffff" stroke="#bfbfbf" points="1278.5,-.5 1278.5,-21.5 1358.5,-21.5 1358.5,-.5 1278.5,-.5"/>
<text text-anchor="middle" x="1318.5" y="-7.9" font-family="Helvetica,sans-Serif" font-size="12.00" fill="#000000">unordered_map</text>
</g>
<!-- Node2&#45;&gt;Node9 -->
<g id="edge9" class="edge">
<title>Node2&#45;&gt;Node9</title>
<path fill="none" stroke="#191970" d="M1282.5703,-58.3619C1288.6486,-50.3496 1297.1369,-39.1605 1304.3369,-29.6696"/>
<polygon fill="#191970" stroke="#191970" points="1307.2254,-31.653 1310.4809,-21.5707 1301.6486,-27.4222 1307.2254,-31.653"/>
</g>
<!-- Node10 -->
<g id="node11" class="node">
<title>Node10</title>
<polygon fill="#ffffff" stroke="#bfbfbf" points="813,-.5 813,-21.5 854,-21.5 854,-.5 813,-.5"/>
<text text-anchor="middle" x="833.5" y="-7.9" font-family="Helvetica,sans-Serif" font-size="12.00" fill="#000000">cmath</text>
</g>
<!-- Node2&#45;&gt;Node10 -->
<g id="edge10" class="edge">
<title>Node2&#45;&gt;Node10</title>
<path fill="none" stroke="#191970" d="M1214.8656,-66.6192C1136.2614,-62.5044 993.7884,-51.6708 864.3731,-21.7197"/>
<polygon fill="#191970" stroke="#191970" points="864.8229,-18.2298 854.2864,-19.3397 863.2153,-25.0427 864.8229,-18.2298"/>
</g>
<!-- Node11 -->
<g id="node12" class="node">
<title>Node11</title>
<polygon fill="#ffffff" stroke="#bfbfbf" points="1376.5,-.5 1376.5,-21.5 1412.5,-21.5 1412.5,-.5 1376.5,-.5"/>
<text text-anchor="middle" x="1394.5" y="-7.9" font-family="Helvetica,sans-Serif" font-size="12.00" fill="#000000">tuple</text>
</g>
<!-- Node2&#45;&gt;Node11 -->
<g id="edge11" class="edge">
<title>Node2&#45;&gt;Node11</title>
<path fill="none" stroke="#191970" d="M1296.2311,-58.4966C1316.145,-48.8716 1345.7115,-34.5811 1367.2096,-24.1904"/>
<polygon fill="#191970" stroke="#191970" points="1368.9753,-27.2244 1376.4557,-19.7214 1365.929,-20.922 1368.9753,-27.2244"/>
</g>
<!-- Node12 -->
<g id="node13" class="node">
<title>Node12</title>
<polygon fill="#ffffff" stroke="#bfbfbf" points="1430.5,-.5 1430.5,-21.5 1464.5,-21.5 1464.5,-.5 1430.5,-.5"/>
<text text-anchor="middle" x="1447.5" y="-7.9" font-family="Helvetica,sans-Serif" font-size="12.00" fill="#000000">ratio</text>
</g>
<!-- Node2&#45;&gt;Node12 -->
<g id="edge12" class="edge">
<title>Node2&#45;&gt;Node12</title>
<path fill="none" stroke="#191970" d="M1310.7569,-58.4104C1338.6547,-50.0396 1378.308,-37.6624 1420.8401,-22.0472"/>
<polygon fill="#191970" stroke="#191970" points="1422.0873,-25.3177 1430.2455,-18.5579 1419.6525,-18.7547 1422.0873,-25.3177"/>
</g>
<!-- Node13 -->
<g id="node14" class="node">
<title>Node13</title>
<polygon fill="#ffffff" stroke="#bfbfbf" points="1482.5,-.5 1482.5,-21.5 1526.5,-21.5 1526.5,-.5 1482.5,-.5"/>
<text text-anchor="middle" x="1504.5" y="-7.9" font-family="Helvetica,sans-Serif" font-size="12.00" fill="#000000">chrono</text>
</g>
<!-- Node2&#45;&gt;Node13 -->
<g id="edge13" class="edge">
<title>Node2&#45;&gt;Node13</title>
<path fill="none" stroke="#191970" d="M1326.0283,-58.4466C1364.1548,-50.2722 1417.4936,-38.0736 1472.3498,-22.1356"/>
<polygon fill="#191970" stroke="#191970" points="1473.6387,-25.4048 1482.2442,-19.2244 1471.6628,-18.6894 1473.6387,-25.4048"/>
</g>
<!-- Node14 -->
<g id="node15" class="node">
<title>Node14</title>
<polygon fill="#ffffff" stroke="#bfbfbf" points="1146.5,-.5 1146.5,-21.5 1184.5,-21.5 1184.5,-.5 1146.5,-.5"/>
<text text-anchor="middle" x="1165.5" y="-7.9" font-family="Helvetica,sans-Serif" font-size="12.00" fill="#000000">ctime</text>
</g>
<!-- Node2&#45;&gt;Node14 -->
<g id="edge14" class="edge">
<title>Node2&#45;&gt;Node14</title>
<path fill="none" stroke="#191970" d="M1254.7609,-58.4966C1237.679,-49.4072 1212.7778,-36.157 1193.6138,-25.9597"/>
<polygon fill="#191970" stroke="#191970" points="1195.1985,-22.8382 1184.7263,-21.2305 1191.9102,-29.0179 1195.1985,-22.8382"/>
</g>
<!-- Node15 -->
<g id="node16" class="node">
<title>Node15</title>
<polygon fill="#ffffff" stroke="#bfbfbf" points="1545,-.5 1545,-21.5 1588,-21.5 1588,-.5 1545,-.5"/>
<text text-anchor="middle" x="1566.5" y="-7.9" font-family="Helvetica,sans-Serif" font-size="12.00" fill="#000000">cstdint</text>
</g>
<!-- Node2&#45;&gt;Node15 -->
<g id="edge15" class="edge">
<title>Node2&#45;&gt;Node15</title>
<path fill="none" stroke="#191970" d="M1334.1896,-61.0779C1385.1967,-53.6698 1460.5968,-41.2096 1534.9539,-21.8042"/>
<polygon fill="#191970" stroke="#191970" points="1536.1933,-25.0965 1544.9608,-19.1482 1534.3975,-18.3307 1536.1933,-25.0965"/>
</g>
<!-- Node16 -->
<g id="node17" class="node">
<title>Node16</title>
<polygon fill="#ffffff" stroke="#bfbfbf" points="1202.5,-.5 1202.5,-21.5 1260.5,-21.5 1260.5,-.5 1202.5,-.5"/>
<text text-anchor="middle" x="1231.5" y="-7.9" font-family="Helvetica,sans-Serif" font-size="12.00" fill="#000000">type_traits</text>
</g>
<!-- Node2&#45;&gt;Node16 -->
<g id="edge16" class="edge">
<title>Node2&#45;&gt;Node16</title>
<path fill="none" stroke="#191970" d="M1266.6131,-58.3619C1260.673,-50.3496 1252.3776,-39.1605 1245.3412,-29.6696"/>
<polygon fill="#191970" stroke="#191970" points="1248.1041,-27.5193 1239.3369,-21.5707 1242.4809,-31.6883 1248.1041,-27.5193"/>
</g>
<!-- Node2&#45;&gt;Node17 -->
<g id="edge17" class="edge">
<title>Node2&#45;&gt;Node17</title>
<path fill="none" stroke="#191970" d="M1334.2156,-61.4743C1397.0249,-53.2968 1498.9618,-39.2853 1596.3909,-22.1166"/>
<polygon fill="#191970" stroke="#191970" points="1597.1776,-25.5317 1606.4113,-20.3366 1595.9533,-18.6396 1597.1776,-25.5317"/>
</g>
<!-- Node2&#45;&gt;Node18 -->
<g id="edge18" class="edge">
<title>Node2&#45;&gt;Node18</title>
<path fill="none" stroke="#191970" d="M1334.0354,-63.5C1414.6536,-55.8185 1563.2577,-40.8337 1700.3775,-22.0948"/>
<polygon fill="#191970" stroke="#191970" points="1701.2196,-25.512 1710.6489,-20.681 1700.265,-18.5774 1701.2196,-25.512"/>
</g>
<!-- Node2&#45;&gt;Node19 -->
<g id="edge19" class="edge">
<title>Node2&#45;&gt;Node19</title>
<path fill="none" stroke="#191970" d="M1334.0891,-66.0908C1508.0012,-57.5464 2009.1334,-32.5258 2120.3496,-21.9236"/>
<polygon fill="#191970" stroke="#191970" points="2120.8129,-25.3944 2130.3995,-20.8835 2120.0923,-18.4316 2120.8129,-25.3944"/>
</g>
<!-- Node2&#45;&gt;Node20 -->
<g id="edge20" class="edge">
<title>Node2&#45;&gt;Node20</title>
<path fill="none" stroke="#191970" d="M1334.2245,-66.2983C1482.3841,-59.4247 1864.9185,-40.587 2012.5407,-22.0811"/>
<polygon fill="#191970" stroke="#191970" points="2013.2933,-25.5127 2022.757,-20.7495 2012.3885,-18.5714 2013.2933,-25.5127"/>
</g>
<!-- Node21&#45;&gt;Node1 -->
<g id="edge37" class="edge">
<title>Node21&#45;&gt;Node1</title>
<path fill="none" stroke="#191970" d="M1733.4181,-65.9321C1602.5793,-56.6024 1214.6071,-28.8409 1138.8208,-21.9136"/>
<polygon fill="#191970" stroke="#191970" points="1138.9677,-18.4109 1128.6693,-20.8996 1138.2719,-25.3763 1138.9677,-18.4109"/>
</g>
<!-- Node21&#45;&gt;Node3 -->
<g id="edge24" class="edge">
<title>Node21&#45;&gt;Node3</title>
<path fill="none" stroke="#191970" d="M1733.1938,-65.8261C1701.6704,-63.5498 1657.9477,-60.463 1619.5,-58 1347.4075,-40.5693 1272.8115,-70.9971 1000.5011,-21.7557"/>
<polygon fill="#191970" stroke="#191970" points="1000.7807,-18.2488 990.3143,-19.8934 999.5218,-25.1347 1000.7807,-18.2488"/>
</g>
<!-- Node21&#45;&gt;Node4 -->
<g id="edge27" class="edge">
<title>Node21&#45;&gt;Node4</title>
<path fill="none" stroke="#191970" d="M1733.1981,-65.7578C1701.6767,-63.4484 1657.9548,-60.3501 1619.5,-58 1316.2807,-39.4691 1233.0161,-78.2236 930.7389,-21.7902"/>
<polygon fill="#191970" stroke="#191970" points="931.2892,-18.3323 920.8137,-19.9179 929.9916,-25.211 931.2892,-18.3323"/>
</g>
<!-- Node21&#45;&gt;Node15 -->
<g id="edge29" class="edge">
<title>Node21&#45;&gt;Node15</title>
<path fill="none" stroke="#191970" d="M1733.1717,-58.7086C1698.8745,-50.3188 1649.5968,-37.7271 1597.8004,-21.9164"/>
<polygon fill="#191970" stroke="#191970" points="1598.69,-18.5281 1588.1027,-18.927 1596.6279,-25.2175 1598.69,-18.5281"/>
</g>
<!-- Node21&#45;&gt;Node17 -->
<g id="edge31" class="edge">
<title>Node21&#45;&gt;Node17</title>
<path fill="none" stroke="#191970" d="M1753.5013,-58.4966C1733.4868,-49.3562 1704.2592,-36.0082 1681.8812,-25.7883"/>
<polygon fill="#191970" stroke="#191970" points="1683.3071,-22.5918 1672.7568,-21.6212 1680.3991,-28.9592 1683.3071,-22.5918"/>
</g>
<!-- Node21&#45;&gt;Node18 -->
<g id="edge34" class="edge">
<title>Node21&#45;&gt;Node18</title>
<path fill="none" stroke="#191970" d="M1774.8493,-58.3619C1773.6948,-50.9219 1772.1153,-40.7427 1770.7163,-31.7276"/>
<polygon fill="#191970" stroke="#191970" points="1774.1323,-30.9157 1769.1403,-21.5707 1767.2151,-31.9891 1774.1323,-30.9157"/>
</g>
<!-- Node21&#45;&gt;Node19 -->
<g id="edge35" class="edge">
<title>Node21&#45;&gt;Node19</title>
<path fill="none" stroke="#191970" d="M1819.5979,-63.6184C1883.1178,-55.5791 2005.8583,-39.6359 2120.3718,-22.1362"/>
<polygon fill="#191970" stroke="#191970" points="2121.0089,-25.5794 2130.3619,-20.6022 2119.9465,-18.6605 2121.0089,-25.5794"/>
</g>
<!-- Node21&#45;&gt;Node20 -->
<g id="edge32" class="edge">
<title>Node21&#45;&gt;Node20</title>
<path fill="none" stroke="#191970" d="M1819.5203,-60.6342C1865.1581,-51.7305 1939.6423,-37.1168 2013.0895,-22.274"/>
<polygon fill="#191970" stroke="#191970" points="2013.8663,-25.6879 2022.9734,-20.2739 2012.4778,-18.8269 2013.8663,-25.6879"/>
</g>
<!-- Node22 -->
<g id="node23" class="node">
<title>Node22</title>
<polygon fill="#ffffff" stroke="#bfbfbf" points="1915,-.5 1915,-21.5 1944,-21.5 1944,-.5 1915,-.5"/>
<text text-anchor="middle" x="1929.5" y="-7.9" font-family="Helvetica,sans-Serif" font-size="12.00" fill="#000000">ios</text>
</g>
<!-- Node21&#45;&gt;Node22 -->
<g id="edge23" class="edge">
<title>Node21&#45;&gt;Node22</title>
<path fill="none" stroke="#191970" d="M1807.523,-58.4833C1833.8212,-49.3815 1872.4251,-35.5793 1905.5,-22 1905.5954,-21.9608 1905.691,-21.9215 1905.7867,-21.882"/>
<polygon fill="#191970" stroke="#191970" points="1907.0843,-25.1344 1914.8587,-17.9366 1904.2925,-18.7152 1907.0843,-25.1344"/>
</g>
<!-- Node21&#45;&gt;Node23 -->
<g id="edge25" class="edge">
<title>Node21&#45;&gt;Node23</title>
<path fill="none" stroke="#191970" d="M1819.714,-67.916C1901.7875,-65.168 2085.7923,-55.705 2248.6797,-21.7392"/>
<polygon fill="#191970" stroke="#191970" points="2249.8269,-25.0738 2258.8821,-19.5734 2248.3732,-18.2264 2249.8269,-25.0738"/>
</g>
<!-- Node21&#45;&gt;Node24 -->
<g id="edge26" class="edge">
<title>Node21&#45;&gt;Node24</title>
<path fill="none" stroke="#191970" d="M1733.2159,-65.4283C1701.7031,-62.9595 1657.9842,-59.806 1619.5,-58 1454.8058,-50.2713 315.2932,-54.0809 110.3031,-21.2819"/>
<polygon fill="#191970" stroke="#191970" points="110.6667,-17.7917 100.2082,-19.4859 109.4405,-24.6835 110.6667,-17.7917"/>
</g>
<!-- Node25 -->
<g id="node26" class="node">
<title>Node25</title>
<polygon fill="#ffffff" stroke="#bfbfbf" points="1962,-.5 1962,-21.5 2005,-21.5 2005,-.5 1962,-.5"/>
<text text-anchor="middle" x="1983.5" y="-7.9" font-family="Helvetica,sans-Serif" font-size="12.00" fill="#000000">stdio.h</text>
</g>
<!-- Node21&#45;&gt;Node25 -->
<g id="edge28" class="edge">
<title>Node21&#45;&gt;Node25</title>
<path fill="none" stroke="#191970" d="M1819.7377,-58.6987C1853.5903,-50.3692 1902.0176,-37.8759 1952.2252,-22.2334"/>
<polygon fill="#191970" stroke="#191970" points="1953.4648,-25.5125 1961.9514,-19.17 1951.3619,-18.8359 1953.4648,-25.5125"/>
</g>
<!-- Node26 -->
<g id="node27" class="node">
<title>Node26</title>
<polygon fill="#ffffff" stroke="#bfbfbf" points="1842.5,-.5 1842.5,-21.5 1896.5,-21.5 1896.5,-.5 1842.5,-.5"/>
<text text-anchor="middle" x="1869.5" y="-7.9" font-family="Helvetica,sans-Serif" font-size="12.00" fill="#000000">algorithm</text>
</g>
<!-- Node21&#45;&gt;Node26 -->
<g id="edge30" class="edge">
<title>Node21&#45;&gt;Node26</title>
<path fill="none" stroke="#191970" d="M1793.5576,-58.3619C1807.5848,-49.6138 1827.6843,-37.0786 1843.6821,-27.1015"/>
<polygon fill="#191970" stroke="#191970" points="1845.9175,-29.8323 1852.5505,-21.5707 1842.2132,-23.8927 1845.9175,-29.8323"/>
</g>
<!-- Node21&#45;&gt;Node27 -->
<g id="edge33" class="edge">
<title>Node21&#45;&gt;Node27</title>
<path fill="none" stroke="#191970" d="M1819.6613,-66.9101C1909.7328,-62.1883 2124.4146,-49.0547 2313.7604,-22.1282"/>
<polygon fill="#191970" stroke="#191970" points="2314.4993,-25.558 2323.8989,-20.6695 2313.5024,-18.6293 2314.4993,-25.558"/>
</g>
<!-- Node21&#45;&gt;Node28 -->
<g id="edge36" class="edge">
<title>Node21&#45;&gt;Node28</title>
<path fill="none" stroke="#191970" d="M1819.867,-67.3214C1922.7972,-63.0226 2190.0561,-50.0156 2423.3608,-22.0385"/>
<polygon fill="#191970" stroke="#191970" points="2423.8858,-25.5006 2433.3924,-20.8237 2423.0442,-18.5514 2423.8858,-25.5006"/>
</g>
<!-- Node29&#45;&gt;Node1 -->
<g id="edge56" class="edge">
<title>Node29&#45;&gt;Node1</title>
<path fill="none" stroke="#191970" d="M583.7968,-59.3453C586.7364,-58.8583 589.6553,-58.4044 592.5,-58 768.6094,-32.967 816.9614,-43.6675 998.0739,-21.9698"/>
<polygon fill="#191970" stroke="#191970" points="998.7022,-25.4193 1008.2071,-20.7389 997.858,-18.4704 998.7022,-25.4193"/>
</g>
<!-- Node29&#45;&gt;Node3 -->
<g id="edge45" class="edge">
<title>Node29&#45;&gt;Node3</title>
<path fill="none" stroke="#191970" d="M583.5017,-59.4576C586.5419,-58.9363 589.5611,-58.4447 592.5,-58 738.2345,-35.946 780.2437,-52.0083 928.7214,-21.8066"/>
<polygon fill="#191970" stroke="#191970" points="929.5748,-25.2043 938.6576,-19.7495 928.1556,-18.3496 929.5748,-25.2043"/>
</g>
<!-- Node29&#45;&gt;Node4 -->
<g id="edge46" class="edge">
<title>Node29&#45;&gt;Node4</title>
<path fill="none" stroke="#191970" d="M583.5158,-59.5473C586.5526,-59.004 589.5671,-58.4831 592.5,-58 708.8026,-38.8425 742.6553,-48.2129 862.2263,-21.6995"/>
<polygon fill="#191970" stroke="#191970" points="863.1477,-25.0797 872.1326,-19.4653 861.6075,-18.2512 863.1477,-25.0797"/>
</g>
<!-- Node29&#45;&gt;Node5 -->
<g id="edge44" class="edge">
<title>Node29&#45;&gt;Node5</title>
<path fill="none" stroke="#191970" d="M555.2084,-58.3619C570.8806,-49.4502 593.4641,-36.6087 611.1627,-26.5447"/>
<polygon fill="#191970" stroke="#191970" points="612.9474,-29.5562 619.9102,-21.5707 609.4872,-23.4712 612.9474,-29.5562"/>
</g>
<!-- Node29&#45;&gt;Node6 -->
<g id="edge48" class="edge">
<title>Node29&#45;&gt;Node6</title>
<path fill="none" stroke="#191970" d="M567.6479,-58.4966C596.8242,-48.6581 640.4564,-33.9449 671.4166,-23.5049"/>
<polygon fill="#191970" stroke="#191970" points="672.6315,-26.7889 680.9889,-20.277 670.3948,-20.1559 672.6315,-26.7889"/>
</g>
<!-- Node29&#45;&gt;Node7 -->
<g id="edge52" class="edge">
<title>Node29&#45;&gt;Node7</title>
<path fill="none" stroke="#191970" d="M583.6887,-59.0791C631.4325,-48.9198 702.9029,-33.3502 744.3504,-21.7196"/>
<polygon fill="#191970" stroke="#191970" points="745.3334,-25.0788 753.9602,-18.9283 743.3808,-18.3567 745.3334,-25.0788"/>
</g>
<!-- Node29&#45;&gt;Node8 -->
<g id="edge54" class="edge">
<title>Node29&#45;&gt;Node8</title>
<path fill="none" stroke="#191970" d="M543.6532,-58.3619C548.9858,-50.4313 556.4112,-39.3885 562.7506,-29.9606"/>
<polygon fill="#191970" stroke="#191970" points="565.7166,-31.8221 568.3921,-21.5707 559.9077,-27.9161 565.7166,-31.8221"/>
</g>
<!-- Node29&#45;&gt;Node10 -->
<g id="edge42" class="edge">
<title>Node29&#45;&gt;Node10</title>
<path fill="none" stroke="#191970" d="M583.5375,-59.6721C586.569,-59.0982 589.5764,-58.5365 592.5,-58 682.9639,-41.4005 709.8015,-46.127 802.8491,-21.799"/>
<polygon fill="#191970" stroke="#191970" points="803.9098,-25.1387 812.6754,-19.1877 802.1118,-18.3735 803.9098,-25.1387"/>
</g>
<!-- Node29&#45;&gt;Node15 -->
<g id="edge39" class="edge">
<title>Node29&#45;&gt;Node15</title>
<path fill="none" stroke="#191970" d="M583.7749,-59.1763C586.72,-58.7312 589.646,-58.3327 592.5,-58 1005.7385,-9.8237 1121.7325,-99.5658 1534.594,-21.5862"/>
<polygon fill="#191970" stroke="#191970" points="1535.5476,-24.9674 1544.713,-19.6528 1534.2338,-18.0918 1535.5476,-24.9674"/>
</g>
<!-- Node29&#45;&gt;Node24 -->
<g id="edge43" class="edge">
<title>Node29&#45;&gt;Node24</title>
<path fill="none" stroke="#191970" d="M489.3944,-67.6945C411.7764,-64.7048 252.2865,-55.0253 110.0363,-21.5933"/>
<polygon fill="#191970" stroke="#191970" points="110.7997,-18.1772 100.2594,-19.251 109.1687,-24.9846 110.7997,-18.1772"/>
</g>
<!-- Node30 -->
<g id="node31" class="node">
<title>Node30</title>
<polygon fill="#ffffff" stroke="#bfbfbf" points="118.5,-.5 118.5,-21.5 160.5,-21.5 160.5,-.5 118.5,-.5"/>
<text text-anchor="middle" x="139.5" y="-7.9" font-family="Helvetica,sans-Serif" font-size="12.00" fill="#000000">cstdlib</text>
</g>
<!-- Node29&#45;&gt;Node30 -->
<g id="edge40" class="edge">
<title>Node29&#45;&gt;Node30</title>
<path fill="none" stroke="#191970" d="M489.2491,-66.3411C420.6924,-61.7451 289.7083,-50.1873 170.6353,-21.8419"/>
<polygon fill="#191970" stroke="#191970" points="171.1663,-18.3693 160.6228,-19.4113 169.5149,-25.1717 171.1663,-18.3693"/>
</g>
<!-- Node31 -->
<g id="node32" class="node">
<title>Node31</title>
<polygon fill="#ffffff" stroke="#bfbfbf" points="179,-.5 179,-21.5 222,-21.5 222,-.5 179,-.5"/>
<text text-anchor="middle" x="200.5" y="-7.9" font-family="Helvetica,sans-Serif" font-size="12.00" fill="#000000">cstring</text>
</g>
<!-- Node29&#45;&gt;Node31 -->
<g id="edge41" class="edge">
<title>Node29&#45;&gt;Node31</title>
<path fill="none" stroke="#191970" d="M489.2568,-64.6913C430.6481,-58.6992 327.6742,-46.0543 232.1131,-22.0731"/>
<polygon fill="#191970" stroke="#191970" points="232.8512,-18.6493 222.2958,-19.562 231.1165,-25.4309 232.8512,-18.6493"/>
</g>
<!-- Node32 -->
<g id="node33" class="node">
<title>Node32</title>
<polygon fill="#ffffff" stroke="#bfbfbf" points="240,-.5 240,-21.5 295,-21.5 295,-.5 240,-.5"/>
<text text-anchor="middle" x="267.5" y="-7.9" font-family="Helvetica,sans-Serif" font-size="12.00" fill="#000000">exception</text>
</g>
<!-- Node29&#45;&gt;Node32 -->
<g id="edge47" class="edge">
<title>Node29&#45;&gt;Node32</title>
<path fill="none" stroke="#191970" d="M489.3373,-60.8813C444.1778,-52.7957 373.969,-39.4139 305.0466,-22.2452"/>
<polygon fill="#191970" stroke="#191970" points="305.8847,-18.847 295.3326,-19.7976 304.1743,-25.6349 305.8847,-18.847"/>
</g>
<!-- Node33 -->
<g id="node34" class="node">
<title>Node33</title>
<polygon fill="#ffffff" stroke="#bfbfbf" points="313,-.5 313,-21.5 368,-21.5 368,-.5 313,-.5"/>
<text text-anchor="middle" x="340.5" y="-7.9" font-family="Helvetica,sans-Serif" font-size="12.00" fill="#000000">functional</text>
</g>
<!-- Node29&#45;&gt;Node33 -->
<g id="edge49" class="edge">
<title>Node29&#45;&gt;Node33</title>
<path fill="none" stroke="#191970" d="M500.8163,-58.4693C470.6029,-49.5491 425.8889,-36.3387 377.9964,-22.1444"/>
<polygon fill="#191970" stroke="#191970" points="378.9613,-18.7799 368.3789,-19.2934 376.9718,-25.4913 378.9613,-18.7799"/>
</g>
<!-- Node34 -->
<g id="node35" class="node">
<title>Node34</title>
<polygon fill="#ffffff" stroke="#bfbfbf" points="386.5,-.5 386.5,-21.5 428.5,-21.5 428.5,-.5 386.5,-.5"/>
<text text-anchor="middle" x="407.5" y="-7.9" font-family="Helvetica,sans-Serif" font-size="12.00" fill="#000000">deque</text>
</g>
<!-- Node29&#45;&gt;Node34 -->
<g id="edge50" class="edge">
<title>Node29&#45;&gt;Node34</title>
<path fill="none" stroke="#191970" d="M513.1391,-58.4966C492.047,-49.0134 460.8818,-35.0011 437.8642,-24.6521"/>
<polygon fill="#191970" stroke="#191970" points="439.1072,-21.3736 428.5514,-20.465 436.2367,-27.7579 439.1072,-21.3736"/>
</g>
<!-- Node35 -->
<g id="node36" class="node">
<title>Node35</title>
<polygon fill="#ffffff" stroke="#bfbfbf" points="447,-.5 447,-21.5 476,-21.5 476,-.5 447,-.5"/>
<text text-anchor="middle" x="461.5" y="-7.9" font-family="Helvetica,sans-Serif" font-size="12.00" fill="#000000">set</text>
</g>
<!-- Node29&#45;&gt;Node35 -->
<g id="edge51" class="edge">
<title>Node29&#45;&gt;Node35</title>
<path fill="none" stroke="#191970" d="M522.7438,-58.3619C511.7488,-49.859 496.1274,-37.7785 483.4136,-27.9466"/>
<polygon fill="#191970" stroke="#191970" points="485.2206,-24.9195 475.1689,-21.5707 480.9384,-30.4569 485.2206,-24.9195"/>
</g>
<!-- Node29&#45;&gt;Node36 -->
<g id="edge53" class="edge">
<title>Node29&#45;&gt;Node36</title>
<path fill="none" stroke="#191970" d="M489.2642,-65.9611C387.8207,-59.1935 151.0153,-42.0438 53.1196,-21.8618"/>
<polygon fill="#191970" stroke="#191970" points="53.7769,-18.4229 43.2603,-19.7081 52.283,-25.2617 53.7769,-18.4229"/>
</g>
<!-- Node37 -->
<g id="node38" class="node">
<title>Node37</title>
<polygon fill="#ffffff" stroke="#bfbfbf" points="494.5,-.5 494.5,-21.5 536.5,-21.5 536.5,-.5 494.5,-.5"/>
<text text-anchor="middle" x="515.5" y="-7.9" font-family="Helvetica,sans-Serif" font-size="12.00" fill="#000000">thread</text>
</g>
<!-- Node29&#45;&gt;Node37 -->
<g id="edge55" class="edge">
<title>Node29&#45;&gt;Node37</title>
<path fill="none" stroke="#191970" d="M532.6483,-58.3619C529.8953,-50.7584 526.1064,-40.294 522.7902,-31.1349"/>
<polygon fill="#191970" stroke="#191970" points="526.0227,-29.7818 519.3273,-21.5707 519.4408,-32.1649 526.0227,-29.7818"/>
</g>
<!-- Node38&#45;&gt;Node1 -->
<g id="edge72" class="edge">
<title>Node38&#45;&gt;Node1</title>
<path fill="none" stroke="#191970" d="M705.502,-116.4586C741.239,-107.1735 794.418,-93.1221 840.5,-80 905.1629,-61.5869 979.6463,-38.7337 1025.3999,-24.5053"/>
<polygon fill="#191970" stroke="#191970" points="1026.4854,-27.8332 1034.9922,-21.5178 1024.4038,-21.1498 1026.4854,-27.8332"/>
</g>
<!-- Node38&#45;&gt;Node3 -->
<g id="edge58" class="edge">
<title>Node38&#45;&gt;Node3</title>
<path fill="none" stroke="#191970" d="M696.09,-116.4833C723.3605,-107.2705 763.7342,-93.3102 798.5,-80 844.7917,-62.2771 897.5373,-39.987 930.9114,-25.6181"/>
<polygon fill="#191970" stroke="#191970" points="932.4099,-28.7835 940.2036,-21.6065 929.6354,-22.3568 932.4099,-28.7835"/>
</g>
<!-- Node38&#45;&gt;Node4 -->
<g id="edge64" class="edge">
<title>Node38&#45;&gt;Node4</title>
<path fill="none" stroke="#191970" d="M687.4168,-116.4003C707.5534,-107.02 737.5982,-92.8623 763.5,-80 799.7634,-61.9924 841.096,-40.3751 867.9282,-26.1944"/>
<polygon fill="#191970" stroke="#191970" points="869.5822,-29.279 876.7823,-21.5067 866.3068,-23.0926 869.5822,-29.279"/>
</g>
<!-- Node38&#45;&gt;Node5 -->
<g id="edge63" class="edge">
<title>Node38&#45;&gt;Node5</title>
<path fill="none" stroke="#191970" d="M663.8137,-116.1101C662.7826,-102.3981 660.4065,-78.1911 655.5,-58 653.3102,-48.9886 649.9859,-39.3098 646.856,-31.0913"/>
<polygon fill="#191970" stroke="#191970" points="650.0394,-29.6245 643.0954,-21.6226 643.5337,-32.2083 650.0394,-29.6245"/>
</g>
<!-- Node38&#45;&gt;Node6 -->
<g id="edge67" class="edge">
<title>Node38&#45;&gt;Node6</title>
<path fill="none" stroke="#191970" d="M668.5605,-116.2949C675.895,-96.9588 691.4603,-55.9229 700.8468,-31.1767"/>
<polygon fill="#191970" stroke="#191970" points="704.1752,-32.2705 704.4493,-21.6792 697.6302,-29.7879 704.1752,-32.2705"/>
</g>
<!-- Node38&#45;&gt;Node7 -->
<g id="edge71" class="edge">
<title>Node38&#45;&gt;Node7</title>
<path fill="none" stroke="#191970" d="M674.6514,-116.2949C693.4785,-96.4408 734.0001,-53.709 757.2187,-29.2239"/>
<polygon fill="#191970" stroke="#191970" points="760.0319,-31.3438 764.3732,-21.6792 754.9525,-26.5271 760.0319,-31.3438"/>
</g>
<!-- Node38&#45;&gt;Node10 -->
<g id="edge70" class="edge">
<title>Node38&#45;&gt;Node10</title>
<path fill="none" stroke="#191970" d="M680.1385,-116.3869C694.1355,-106.8784 715.2095,-92.5394 733.5,-80 759.7172,-62.0262 789.721,-41.303 809.9682,-27.2959"/>
<polygon fill="#191970" stroke="#191970" points="812.0408,-30.118 818.2721,-21.5493 808.0573,-24.3619 812.0408,-30.118"/>
</g>
<!-- Node38&#45;&gt;Node24 -->
<g id="edge62" class="edge">
<title>Node38&#45;&gt;Node24</title>
<path fill="none" stroke="#191970" d="M594.6656,-122.3974C488.8554,-114.9375 293.0847,-99.0984 225.5,-80 181.6322,-67.6036 134.6469,-42.8926 106.4238,-26.6559"/>
<polygon fill="#191970" stroke="#191970" points="108.0037,-23.5255 97.6034,-21.5045 104.4734,-29.5701 108.0037,-23.5255"/>
</g>
<!-- Node38&#45;&gt;Node29 -->
<g id="edge73" class="edge">
<title>Node38&#45;&gt;Node29</title>
<path fill="none" stroke="#191970" d="M641.3202,-116.4966C621.1481,-107.3562 591.6904,-94.0082 569.1362,-83.7883"/>
<polygon fill="#191970" stroke="#191970" points="570.4931,-80.5606 559.9399,-79.6212 567.6039,-86.9366 570.4931,-80.5606"/>
</g>
<!-- Node38&#45;&gt;Node30 -->
<g id="edge59" class="edge">
<title>Node38&#45;&gt;Node30</title>
<path fill="none" stroke="#191970" d="M594.9534,-124.7201C518.5016,-120.7453 392.6905,-109.8498 288.5,-80 243.7416,-67.177 195.4468,-42.6311 166.3458,-26.5396"/>
<polygon fill="#191970" stroke="#191970" points="168.0351,-23.4742 157.6007,-21.6377 164.6124,-29.5803 168.0351,-23.4742"/>
</g>
<!-- Node38&#45;&gt;Node31 -->
<g id="edge65" class="edge">
<title>Node38&#45;&gt;Node31</title>
<path fill="none" stroke="#191970" d="M594.7476,-122.7188C529.2307,-117.3029 429.0506,-105.408 345.5,-80 302.126,-66.8098 255.3476,-42.535 226.9917,-26.5803"/>
<polygon fill="#191970" stroke="#191970" points="228.5336,-23.4305 218.1131,-21.5165 225.0657,-29.5111 228.5336,-23.4305"/>
</g>
<!-- Node38&#45;&gt;Node32 -->
<g id="edge66" class="edge">
<title>Node38&#45;&gt;Node32</title>
<path fill="none" stroke="#191970" d="M594.9694,-120.7978C540.1901,-114.4847 462.4852,-102.3391 397.5,-80 358.7626,-66.6838 317.5617,-42.9868 292.1737,-27.1324"/>
<polygon fill="#191970" stroke="#191970" points="293.8898,-24.0763 283.5695,-21.6799 290.1428,-29.9891 293.8898,-24.0763"/>
</g>
<!-- Node38&#45;&gt;Node33 -->
<g id="edge68" class="edge">
<title>Node38&#45;&gt;Node33</title>
<path fill="none" stroke="#191970" d="M594.9524,-120.1575C548.8246,-113.8201 487.763,-101.9194 437.5,-80 407.9306,-67.105 378.3575,-44.2821 359.7786,-28.4324"/>
<polygon fill="#191970" stroke="#191970" points="361.8939,-25.6331 352.0555,-21.7014 357.2947,-30.9103 361.8939,-25.6331"/>
</g>
<!-- Node38&#45;&gt;Node34 -->
<g id="edge69" class="edge">
<title>Node38&#45;&gt;Node34</title>
<path fill="none" stroke="#191970" d="M600.2208,-116.4866C550.6949,-107.5463 487.0003,-93.9684 464.5,-80 444.8223,-67.7839 428.7348,-46.4 418.728,-30.6665"/>
<polygon fill="#191970" stroke="#191970" points="421.4863,-28.4652 413.3055,-21.7328 415.5023,-32.0974 421.4863,-28.4652"/>
</g>
<!-- Node38&#45;&gt;Node35 -->
<g id="edge61" class="edge">
<title>Node38&#45;&gt;Node35</title>
<path fill="none" stroke="#191970" d="M594.5775,-116.5801C549.6936,-108.5282 496.8529,-96.0513 480.5,-80 467.7277,-67.4633 463.3132,-47.1904 461.8948,-31.8556"/>
<polygon fill="#191970" stroke="#191970" points="465.3818,-31.5267 461.3148,-21.7436 458.3933,-31.9276 465.3818,-31.5267"/>
</g>
<!-- Node39 -->
<g id="node40" class="node">
<title>Node39</title>
<polygon fill="#ffffff" stroke="#bfbfbf" points="602,-58.5 602,-79.5 647,-79.5 647,-58.5 602,-58.5"/>
<text text-anchor="middle" x="624.5" y="-65.9" font-family="Helvetica,sans-Serif" font-size="12.00" fill="#000000">stdlib.h</text>
</g>
<!-- Node38&#45;&gt;Node39 -->
<g id="edge60" class="edge">
<title>Node38&#45;&gt;Node39</title>
<path fill="none" stroke="#191970" d="M657.1634,-116.3619C651.694,-108.4313 644.0783,-97.3885 637.5763,-87.9606"/>
<polygon fill="#191970" stroke="#191970" points="640.3487,-85.8157 631.7901,-79.5707 634.5862,-89.7899 640.3487,-85.8157"/>
</g>
<!-- Node40 -->
<g id="node41" class="node">
<title>Node40</title>
<g id="a_node41"><a xlink:href="../../d0/d5d/mpi_8hpp.html" target="_top" xlink:title="timemory/mpi.hpp">
<polygon fill="#ffffff" stroke="#000000" points="1522.5,-58.5 1522.5,-79.5 1610.5,-79.5 1610.5,-58.5 1522.5,-58.5"/>
<text text-anchor="middle" x="1566.5" y="-65.9" font-family="Helvetica,sans-Serif" font-size="12.00" fill="#000000">timemory/mpi.hpp</text>
</a>
</g>
</g>
<!-- Node38&#45;&gt;Node40 -->
<g id="edge74" class="edge">
<title>Node38&#45;&gt;Node40</title>
<path fill="none" stroke="#191970" d="M734.1539,-122.5211C907.6485,-111.3652 1356.3074,-82.5157 1512.1821,-72.4927"/>
<polygon fill="#191970" stroke="#191970" points="1512.7013,-75.9667 1522.4561,-71.8321 1512.2521,-68.9811 1512.7013,-75.9667"/>
</g>
<!-- Node40&#45;&gt;Node15 -->
<g id="edge75" class="edge">
<title>Node40&#45;&gt;Node15</title>
<path fill="none" stroke="#191970" d="M1566.5,-58.3619C1566.5,-50.9219 1566.5,-40.7427 1566.5,-31.7276"/>
<polygon fill="#191970" stroke="#191970" points="1570.0001,-31.5706 1566.5,-21.5707 1563.0001,-31.5707 1570.0001,-31.5706"/>
</g>
<!-- Node40&#45;&gt;Node26 -->
<g id="edge76" class="edge">
<title>Node40&#45;&gt;Node26</title>
<path fill="none" stroke="#191970" d="M1610.7788,-62.9012C1661.9964,-55.4723 1748.9778,-41.7065 1832.561,-22.0137"/>
<polygon fill="#191970" stroke="#191970" points="1833.5575,-25.3743 1842.4707,-19.6467 1831.9312,-18.5658 1833.5575,-25.3743"/>
</g>
</g>
</svg>
        <g id="navigator" transform="translate(0 0)" fill="#404254">
                <rect fill="#f2f5e9" fill-opacity="0.5" stroke="#606060" stroke-width=".5" x="0" y="0" width="60" height="60"/>
                <use id="zoomplus" xlink:href="#zoomPlus" x="17" y="9" onmousedown="handleZoom(evt,'in')"/>
                <use id="zoomminus" xlink:href="#zoomMin" x="42" y="9" onmousedown="handleZoom(evt,'out')"/>
                <use id="reset" xlink:href="#resetDef" x="30" y="36" onmousedown="handleReset()"/>
                <g id="arrowUp" xlink:href="#dirArrow" transform="translate(30 24)" onmousedown="handlePan(0,-1)">
                  <use xlink:href="#rim" fill="#404040">
                        <set attributeName="fill" to="#808080" begin="arrowUp.mouseover" end="arrowUp.mouseout"/>
                  </use>
                  <path fill="none" stroke="white" stroke-width="1.5" d="M0,-3.0v7 M-2.5,-0.5L0,-3.0L2.5,-0.5"/>
                </g>
                <g id="arrowRight" xlink:href="#dirArrow" transform="rotate(90) translate(36 -43)" onmousedown="handlePan(1,0)">
                  <use xlink:href="#rim" fill="#404040">
                        <set attributeName="fill" to="#808080" begin="arrowRight.mouseover" end="arrowRight.mouseout"/>
                  </use>
                  <path fill="none" stroke="white" stroke-width="1.5" d="M0,-3.0v7 M-2.5,-0.5L0,-3.0L2.5,-0.5"/>
                </g>
                <g id="arrowDown" xlink:href="#dirArrow" transform="rotate(180) translate(-30 -48)" onmousedown="handlePan(0,1)">
                  <use xlink:href="#rim" fill="#404040">
                        <set attributeName="fill" to="#808080" begin="arrowDown.mouseover" end="arrowDown.mouseout"/>
                  </use>
                  <path fill="none" stroke="white" stroke-width="1.5" d="M0,-3.0v7 M-2.5,-0.5L0,-3.0L2.5,-0.5"/>
                </g>
                <g id="arrowLeft" xlink:href="#dirArrow" transform="rotate(270) translate(-36 17)" onmousedown="handlePan(-1,0)">
                  <use xlink:href="#rim" fill="#404040">
                        <set attributeName="fill" to="#808080" begin="arrowLeft.mouseover" end="arrowLeft.mouseout"/>
                  </use>
                  <path fill="none" stroke="white" stroke-width="1.5" d="M0,-3.0v7 M-2.5,-0.5L0,-3.0L2.5,-0.5"/>
                </g>
        </g>
        <svg viewBox="0 0 15 15" width="100%" height="30px" preserveAspectRatio="xMaxYMin meet">
         <g id="arrow_out" transform="scale(0.3 0.3)">
          <a xlink:href="base__timer_8hpp__incl_org.svg" target="_base">
           <rect id="button" ry="5" rx="5" y="6" x="6" height="38" width="38"
                fill="#f2f5e9" fill-opacity="0.5" stroke="#606060" stroke-width="1.0"/>
           <path id="arrow"
             d="M 11.500037,31.436501 C 11.940474,20.09759 22.043105,11.32322 32.158766,21.979434 L 37.068811,17.246167 C 37.068811,17.246167 37.088388,32 37.088388,32 L 22.160133,31.978069 C 22.160133,31.978069 26.997745,27.140456 26.997745,27.140456 C 18.528582,18.264221 13.291696,25.230495 11.500037,31.436501 z"
             style="fill:#404040;"/>
          </a>
         </g>
        </svg>
</svg>
