<?xml version="1.0" encoding="UTF-8" standalone="no"?>
<!DOCTYPE svg PUBLIC "-//W3C//DTD SVG 1.1//EN"
 "http://www.w3.org/Graphics/SVG/1.1/DTD/svg11.dtd">
<!-- Generated by graphviz version 2.40.1 (20161225.0304)
 -->
<!-- Title: timemory/base_timer.hpp Pages: 1 -->
<!--zoomable 204 -->
<svg id="main" version="1.1" xmlns="http://www.w3.org/2000/svg" xmlns:xlink="http://www.w3.org/1999/xlink" xml:space="preserve" onload="init(evt)">
<style type="text/css"><![CDATA[
.edge:hover path { stroke: red; }
.edge:hover polygon { stroke: red; fill: red; }
]]></style>
<script type="text/javascript"><![CDATA[
var edges = document.getElementsByTagName('g');
if (edges && edges.length) {
  for (var i=0;i<edges.length;i++) {
    if (edges[i].id.substr(0,4)=='edge') {
      edges[i].setAttribute('class','edge');
    }
  }
}
]]></script>
        <defs>
                <circle id="rim" cx="0" cy="0" r="7"/>
                <circle id="rim2" cx="0" cy="0" r="3.5"/>
                <g id="zoomPlus">
                        <use xlink:href="#rim" fill="#404040">
                                <set attributeName="fill" to="#808080" begin="zoomplus.mouseover" end="zoomplus.mouseout"/>
                        </use>
                        <path d="M-4,0h8M0,-4v8" fill="none" stroke="white" stroke-width="1.5" pointer-events="none"/>
                </g>
                <g id="zoomMin">
                        <use xlink:href="#rim" fill="#404040">
                                <set attributeName="fill" to="#808080" begin="zoomminus.mouseover" end="zoomminus.mouseout"/>
                        </use>
                        <path d="M-4,0h8" fill="none" stroke="white" stroke-width="1.5" pointer-events="none"/>
                </g>
                <g id="dirArrow">
                        <path fill="none" stroke="white" stroke-width="1.5" d="M0,-3.0v7 M-2.5,-0.5L0,-3.0L2.5,-0.5"/>
                </g>
               <g id="resetDef">
                       <use xlink:href="#rim2" fill="#404040">
                               <set attributeName="fill" to="#808080" begin="reset.mouseover" end="reset.mouseout"/>
                       </use>
               </g>
        </defs>

<script type="text/javascript">
var viewWidth = 2429;
var viewHeight = 204;
var sectionId = 'dynsection-0';
</script>
<script xlink:href="../../svgpan.js"/>
<svg id="graph" class="graph">
<g id="viewport">
<title>timemory/base_timer.hpp</title>
<polygon fill="#ffffff" stroke="transparent" points="-4,4 -4,-200 2424.5,-200 2424.5,4 -4,4"/>
<!-- Node0 -->
<g id="node1" class="node">
<title>Node0</title>
<polygon fill="#bfbfbf" stroke="#000000" points="1638.5,-174.5 1638.5,-195.5 1756.5,-195.5 1756.5,-174.5 1638.5,-174.5"/>
<text text-anchor="middle" x="1697.5" y="-181.9" font-family="Helvetica,sans-Serif" font-size="12.00" fill="#000000">timemory/base_timer.hpp</text>
</g>
<!-- Node1 -->
<g id="node2" class="node">
<title>Node1</title>
<g id="a_node2"><a xlink:href="../../db/d19/namespace_8hpp.html" target="_top" xlink:title="timemory/namespace.hpp">
<polygon fill="#ffffff" stroke="#000000" points="756.5,-.5 756.5,-21.5 876.5,-21.5 876.5,-.5 756.5,-.5"/>
<text text-anchor="middle" x="816.5" y="-7.9" font-family="Helvetica,sans-Serif" font-size="12.00" fill="#000000">timemory/namespace.hpp</text>
</a>
</g>
</g>
<!-- Node0&#45;&gt;Node1 -->
<g id="edge1" class="edge">
<title>Node0&#45;&gt;Node1</title>
<path fill="none" stroke="#191970" d="M1638.4878,-177.0413C1576.0001,-168.3831 1474.5572,-153.6687 1387.5,-138 1263.2799,-115.6427 1232.7155,-107.357 1109.5,-80 1025.3435,-61.3151 927.9869,-38.0608 869.3837,-23.8839"/>
<polygon fill="#191970" stroke="#191970" points="870.1549,-20.4696 859.612,-21.5173 868.5071,-27.2729 870.1549,-20.4696"/>
</g>
<!-- Node2 -->
<g id="node3" class="node">
<title>Node2</title>
<g id="a_node3"><a xlink:href="../../d8/d4e/base__clock_8hpp.html" target="_top" xlink:title="timemory/base_clock.hpp">
<polygon fill="#ffffff" stroke="#000000" points="1119,-58.5 1119,-79.5 1238,-79.5 1238,-58.5 1119,-58.5"/>
<text text-anchor="middle" x="1178.5" y="-65.9" font-family="Helvetica,sans-Serif" font-size="12.00" fill="#000000">timemory/base_clock.hpp</text>
</a>
</g>
</g>
<!-- Node0&#45;&gt;Node2 -->
<g id="edge2" class="edge">
<title>Node0&#45;&gt;Node2</title>
<path fill="none" stroke="#191970" d="M1650.0664,-174.3983C1554.4083,-153.018 1338.719,-104.81 1235.5584,-81.7529"/>
<polygon fill="#191970" stroke="#191970" points="1236.1584,-78.3008 1225.6357,-79.5352 1234.6315,-85.1322 1236.1584,-78.3008"/>
</g>
<!-- Node17 -->
<g id="node18" class="node">
<title>Node17</title>
<polygon fill="#ffffff" stroke="#bfbfbf" points="1484.5,-.5 1484.5,-21.5 1570.5,-21.5 1570.5,-.5 1484.5,-.5"/>
<text text-anchor="middle" x="1527.5" y="-7.9" font-family="Helvetica,sans-Serif" font-size="12.00" fill="#000000">cereal/cereal.hpp</text>
</g>
<!-- Node0&#45;&gt;Node17 -->
<g id="edge76" class="edge">
<title>Node0&#45;&gt;Node17</title>
<path fill="none" stroke="#191970" d="M1686.9543,-174.2856C1668.2857,-155.3102 1628.2091,-114.539 1594.5,-80 1577.7317,-62.8188 1558.6642,-43.1714 1545.1697,-29.2477"/>
<polygon fill="#191970" stroke="#191970" points="1547.3999,-26.5196 1537.9278,-21.773 1542.3724,-31.3905 1547.3999,-26.5196"/>
</g>
<!-- Node18 -->
<g id="node19" class="node">
<title>Node18</title>
<polygon fill="#ffffff" stroke="#bfbfbf" points="1661,-.5 1661,-21.5 1774,-21.5 1774,-.5 1661,-.5"/>
<text text-anchor="middle" x="1717.5" y="-7.9" font-family="Helvetica,sans-Serif" font-size="12.00" fill="#000000">cereal/types/chrono.hpp</text>
</g>
<!-- Node0&#45;&gt;Node18 -->
<g id="edge79" class="edge">
<title>Node0&#45;&gt;Node18</title>
<path fill="none" stroke="#191970" d="M1698.721,-174.3774C1701.9491,-146.293 1710.7559,-69.6735 1715.0629,-32.2027"/>
<polygon fill="#191970" stroke="#191970" points="1718.5791,-32.262 1716.2439,-21.9277 1711.6248,-31.4626 1718.5791,-32.262"/>
</g>
<!-- Node19 -->
<g id="node20" class="node">
<title>Node19</title>
<polygon fill="#ffffff" stroke="#bfbfbf" points="1900.5,-.5 1900.5,-21.5 2010.5,-21.5 2010.5,-.5 1900.5,-.5"/>
<text text-anchor="middle" x="1955.5" y="-7.9" font-family="Helvetica,sans-Serif" font-size="12.00" fill="#000000">cereal/types/deque.hpp</text>
</g>
<!-- Node0&#45;&gt;Node19 -->
<g id="edge80" class="edge">
<title>Node0&#45;&gt;Node19</title>
<path fill="none" stroke="#191970" d="M1703.1611,-174.1791C1717.8659,-146.4497 1757.6445,-73.9089 1779.5,-58 1797.313,-45.0337 1847.8705,-32.2592 1890.253,-23.3086"/>
<polygon fill="#191970" stroke="#191970" points="1891.1867,-26.6895 1900.2675,-21.2315 1889.7651,-19.8354 1891.1867,-26.6895"/>
</g>
<!-- Node20 -->
<g id="node21" class="node">
<title>Node20</title>
<polygon fill="#ffffff" stroke="#bfbfbf" points="2029,-.5 2029,-21.5 2118,-21.5 2118,-.5 2029,-.5"/>
<text text-anchor="middle" x="2073.5" y="-7.9" font-family="Helvetica,sans-Serif" font-size="12.00" fill="#000000">cereal/access.hpp</text>
</g>
<!-- Node0&#45;&gt;Node20 -->
<g id="edge77" class="edge">
<title>Node0&#45;&gt;Node20</title>
<path fill="none" stroke="#191970" d="M1708.184,-174.2568C1717.5634,-164.7846 1731.5371,-150.5726 1743.5,-138 1776.8867,-102.9115 1775.0031,-81.2356 1817.5,-58 1894.7786,-15.7471 1927.6544,-37.4839 2018.8247,-21.9971"/>
<polygon fill="#191970" stroke="#191970" points="2019.509,-25.4302 2028.7277,-20.2085 2018.2648,-18.5416 2019.509,-25.4302"/>
</g>
<!-- Node21 -->
<g id="node22" class="node">
<title>Node21</title>
<g id="a_node22"><a xlink:href="../../d9/dd2/rss_8hpp.html" target="_top" xlink:title="timemory/rss.hpp">
<polygon fill="#ffffff" stroke="#000000" points="1603.5,-58.5 1603.5,-79.5 1689.5,-79.5 1689.5,-58.5 1603.5,-58.5"/>
<text text-anchor="middle" x="1646.5" y="-65.9" font-family="Helvetica,sans-Serif" font-size="12.00" fill="#000000">timemory/rss.hpp</text>
</a>
</g>
</g>
<!-- Node0&#45;&gt;Node21 -->
<g id="edge22" class="edge">
<title>Node0&#45;&gt;Node21</title>
<path fill="none" stroke="#191970" d="M1692.7935,-174.2949C1684.2543,-154.8724 1666.0893,-113.5561 1655.2255,-88.8462"/>
<polygon fill="#191970" stroke="#191970" points="1658.424,-87.4248 1651.1952,-79.6792 1652.016,-90.2422 1658.424,-87.4248"/>
</g>
<!-- Node23 -->
<g id="node24" class="node">
<title>Node23</title>
<polygon fill="#ffffff" stroke="#bfbfbf" points="2136,-.5 2136,-21.5 2183,-21.5 2183,-.5 2136,-.5"/>
<text text-anchor="middle" x="2159.5" y="-7.9" font-family="Helvetica,sans-Serif" font-size="12.00" fill="#000000">fstream</text>
</g>
<!-- Node0&#45;&gt;Node23 -->
<g id="edge73" class="edge">
<title>Node0&#45;&gt;Node23</title>
<path fill="none" stroke="#191970" d="M1714.1128,-174.3372C1728.1338,-165.1463 1748.5698,-151.2952 1765.5,-138 1807.5909,-104.9462 1806.8341,-80.2671 1855.5,-58 1963.4633,-8.6013 2006.521,-47.773 2126.0102,-21.9485"/>
<polygon fill="#191970" stroke="#191970" points="2126.9127,-25.3328 2135.8889,-19.7044 2125.362,-18.5067 2126.9127,-25.3328"/>
</g>
<!-- Node24 -->
<g id="node25" class="node">
<title>Node24</title>
<polygon fill="#ffffff" stroke="#bfbfbf" points="0,-.5 0,-21.5 39,-21.5 39,-.5 0,-.5"/>
<text text-anchor="middle" x="19.5" y="-7.9" font-family="Helvetica,sans-Serif" font-size="12.00" fill="#000000">string</text>
</g>
<!-- Node0&#45;&gt;Node24 -->
<g id="edge74" class="edge">
<title>Node0&#45;&gt;Node24</title>
<path fill="none" stroke="#191970" d="M1638.2774,-183.9371C1419.6434,-179.8402 658.0977,-163.9924 416.5,-138 271.4852,-122.3985 223.9267,-145.2806 93.5,-80 69.511,-67.9931 47.8085,-45.7561 34.2016,-29.7676"/>
<polygon fill="#191970" stroke="#191970" points="36.5669,-27.1335 27.512,-21.6326 31.1602,-31.5796 36.5669,-27.1335"/>
</g>
<!-- Node27 -->
<g id="node28" class="node">
<title>Node27</title>
<polygon fill="#ffffff" stroke="#bfbfbf" points="2201,-.5 2201,-21.5 2292,-21.5 2292,-.5 2201,-.5"/>
<text text-anchor="middle" x="2246.5" y="-7.9" font-family="Helvetica,sans-Serif" font-size="12.00" fill="#000000">cereal/macros.hpp</text>
</g>
<!-- Node0&#45;&gt;Node27 -->
<g id="edge78" class="edge">
<title>Node0&#45;&gt;Node27</title>
<path fill="none" stroke="#191970" d="M1721.5005,-174.4275C1740.6988,-165.6059 1768.0277,-152.2194 1790.5,-138 1839.4818,-107.0066 1839.8909,-80.0424 1893.5,-58 2014.2706,-8.3429 2058.2178,-41.6567 2190.7627,-22.1306"/>
<polygon fill="#191970" stroke="#191970" points="2191.5361,-25.5527 2200.8826,-20.5633 2190.4647,-18.6351 2191.5361,-25.5527"/>
</g>
<!-- Node28 -->
<g id="node29" class="node">
<title>Node28</title>
<polygon fill="#ffffff" stroke="#bfbfbf" points="2310.5,-.5 2310.5,-21.5 2420.5,-21.5 2420.5,-.5 2310.5,-.5"/>
<text text-anchor="middle" x="2365.5" y="-7.9" font-family="Helvetica,sans-Serif" font-size="12.00" fill="#000000">cereal/types/vector.hpp</text>
</g>
<!-- Node0&#45;&gt;Node28 -->
<g id="edge81" class="edge">
<title>Node0&#45;&gt;Node28</title>
<path fill="none" stroke="#191970" d="M1730.4697,-174.4728C1774.9794,-160.4072 1856.8591,-135.0472 1927.5,-116 2062.9882,-79.4677 2223.7543,-42.5568 2307.7806,-23.75"/>
<polygon fill="#191970" stroke="#191970" points="2308.644,-27.1435 2317.6404,-21.5475 2307.1179,-20.3118 2308.644,-27.1435"/>
</g>
<!-- Node29 -->
<g id="node30" class="node">
<title>Node29</title>
<g id="a_node30"><a xlink:href="../../d1/d4e/utility_8hpp.html" target="_top" xlink:title="timemory/utility.hpp">
<polygon fill="#ffffff" stroke="#000000" points="341.5,-58.5 341.5,-79.5 435.5,-79.5 435.5,-58.5 341.5,-58.5"/>
<text text-anchor="middle" x="388.5" y="-65.9" font-family="Helvetica,sans-Serif" font-size="12.00" fill="#000000">timemory/utility.hpp</text>
</a>
</g>
</g>
<!-- Node0&#45;&gt;Node29 -->
<g id="edge38" class="edge">
<title>Node0&#45;&gt;Node29</title>
<path fill="none" stroke="#191970" d="M1638.4616,-184.0957C1397.8778,-180.2418 501.6299,-164.1793 447.5,-138 425.7941,-127.5022 408.9616,-104.9118 398.929,-88.4297"/>
<polygon fill="#191970" stroke="#191970" points="401.8481,-86.4852 393.8223,-79.5687 395.7832,-89.9805 401.8481,-86.4852"/>
</g>
<!-- Node36 -->
<g id="node37" class="node">
<title>Node36</title>
<g id="a_node37"><a xlink:href="../../da/d8e/signal__detection_8hpp.html" target="_top" xlink:title="timemory/signal_detection.hpp">
<polygon fill="#ffffff" stroke="#000000" points="457,-116.5 457,-137.5 596,-137.5 596,-116.5 457,-116.5"/>
<text text-anchor="middle" x="526.5" y="-123.9" font-family="Helvetica,sans-Serif" font-size="12.00" fill="#000000">timemory/signal_detection.hpp</text>
</a>
</g>
</g>
<!-- Node0&#45;&gt;Node36 -->
<g id="edge53" class="edge">
<title>Node0&#45;&gt;Node36</title>
<path fill="none" stroke="#191970" d="M1638.2243,-182.0641C1444.1745,-172.4527 827.7265,-141.9198 606.4976,-130.9623"/>
<polygon fill="#191970" stroke="#191970" points="606.4258,-127.4546 596.2649,-130.4555 606.0795,-134.446 606.4258,-127.4546"/>
</g>
<!-- Node39 -->
<g id="node40" class="node">
<title>Node39</title>
<polygon fill="#ffffff" stroke="#bfbfbf" points="1936,-116.5 1936,-137.5 1979,-137.5 1979,-116.5 1936,-116.5"/>
<text text-anchor="middle" x="1957.5" y="-123.9" font-family="Helvetica,sans-Serif" font-size="12.00" fill="#000000">atomic</text>
</g>
<!-- Node0&#45;&gt;Node39 -->
<g id="edge75" class="edge">
<title>Node0&#45;&gt;Node39</title>
<path fill="none" stroke="#191970" d="M1754.9094,-174.4268C1800.3574,-165.7029 1865.3136,-152.4475 1921.5,-138 1922.9637,-137.6236 1924.4567,-137.2255 1925.9617,-136.8126"/>
<polygon fill="#191970" stroke="#191970" points="1927.2499,-140.0838 1935.8871,-133.9478 1925.3086,-133.3583 1927.2499,-140.0838"/>
</g>
<!-- Node2&#45;&gt;Node1 -->
<g id="edge21" class="edge">
<title>Node2&#45;&gt;Node1</title>
<path fill="none" stroke="#191970" d="M1118.7231,-59.4225C1055.0208,-49.216 954.2431,-33.0693 886.7835,-22.2609"/>
<polygon fill="#191970" stroke="#191970" points="887.0952,-18.7663 876.6674,-20.6401 885.9877,-25.6781 887.0952,-18.7663"/>
</g>
<!-- Node3 -->
<g id="node4" class="node">
<title>Node3</title>
<polygon fill="#ffffff" stroke="#bfbfbf" points="895,-.5 895,-21.5 946,-21.5 946,-.5 895,-.5"/>
<text text-anchor="middle" x="920.5" y="-7.9" font-family="Helvetica,sans-Serif" font-size="12.00" fill="#000000">iostream</text>
</g>
<!-- Node2&#45;&gt;Node3 -->
<g id="edge3" class="edge">
<title>Node2&#45;&gt;Node3</title>
<path fill="none" stroke="#191970" d="M1120.8514,-58.4406C1077.91,-50.2124 1017.6839,-37.9113 955.9499,-21.9337"/>
<polygon fill="#191970" stroke="#191970" points="956.5918,-18.4839 946.0314,-19.3379 954.8194,-25.2558 956.5918,-18.4839"/>
</g>
<!-- Node4 -->
<g id="node5" class="node">
<title>Node4</title>
<polygon fill="#ffffff" stroke="#bfbfbf" points="690.5,-.5 690.5,-21.5 738.5,-21.5 738.5,-.5 690.5,-.5"/>
<text text-anchor="middle" x="714.5" y="-7.9" font-family="Helvetica,sans-Serif" font-size="12.00" fill="#000000">iomanip</text>
</g>
<!-- Node2&#45;&gt;Node4 -->
<g id="edge4" class="edge">
<title>Node2&#45;&gt;Node4</title>
<path fill="none" stroke="#191970" d="M1118.9476,-66.5183C1037.1539,-62.2265 885.5251,-51.1062 748.6728,-21.8937"/>
<polygon fill="#191970" stroke="#191970" points="749.3612,-18.4617 738.8461,-19.759 747.8752,-25.3022 749.3612,-18.4617"/>
</g>
<!-- Node5 -->
<g id="node6" class="node">
<title>Node5</title>
<polygon fill="#ffffff" stroke="#bfbfbf" points="432,-.5 432,-21.5 481,-21.5 481,-.5 432,-.5"/>
<text text-anchor="middle" x="456.5" y="-7.9" font-family="Helvetica,sans-Serif" font-size="12.00" fill="#000000">sstream</text>
</g>
<!-- Node2&#45;&gt;Node5 -->
<g id="edge5" class="edge">
<title>Node2&#45;&gt;Node5</title>
<path fill="none" stroke="#191970" d="M1118.8201,-66.8722C978.0834,-61.5494 627.6583,-46.4385 491.3912,-21.912"/>
<polygon fill="#191970" stroke="#191970" points="491.6618,-18.4009 481.1846,-19.9759 490.3571,-25.2783 491.6618,-18.4009"/>
</g>
<!-- Node6 -->
<g id="node7" class="node">
<title>Node6</title>
<polygon fill="#ffffff" stroke="#bfbfbf" points="499,-.5 499,-21.5 554,-21.5 554,-.5 499,-.5"/>
<text text-anchor="middle" x="526.5" y="-7.9" font-family="Helvetica,sans-Serif" font-size="12.00" fill="#000000">stdexcept</text>
</g>
<!-- Node2&#45;&gt;Node6 -->
<g id="edge6" class="edge">
<title>Node2&#45;&gt;Node6</title>
<path fill="none" stroke="#191970" d="M1118.5965,-66.1146C989.1531,-59.6135 685.8574,-42.8803 564.4038,-21.9807"/>
<polygon fill="#191970" stroke="#191970" points="564.7202,-18.4811 554.2564,-20.1428 563.4726,-25.3691 564.7202,-18.4811"/>
</g>
<!-- Node7 -->
<g id="node8" class="node">
<title>Node7</title>
<polygon fill="#ffffff" stroke="#bfbfbf" points="572,-.5 572,-21.5 613,-21.5 613,-.5 572,-.5"/>
<text text-anchor="middle" x="592.5" y="-7.9" font-family="Helvetica,sans-Serif" font-size="12.00" fill="#000000">vector</text>
</g>
<!-- Node2&#45;&gt;Node7 -->
<g id="edge7" class="edge">
<title>Node2&#45;&gt;Node7</title>
<path fill="none" stroke="#191970" d="M1118.7051,-66.0599C998.8846,-59.8347 732.1919,-44.2182 623.2362,-21.829"/>
<polygon fill="#191970" stroke="#191970" points="623.7107,-18.3503 613.1948,-19.6412 622.2205,-25.1899 623.7107,-18.3503"/>
</g>
<!-- Node8 -->
<g id="node9" class="node">
<title>Node8</title>
<polygon fill="#ffffff" stroke="#bfbfbf" points="1041,-.5 1041,-21.5 1082,-21.5 1082,-.5 1041,-.5"/>
<text text-anchor="middle" x="1061.5" y="-7.9" font-family="Helvetica,sans-Serif" font-size="12.00" fill="#000000">mutex</text>
</g>
<!-- Node2&#45;&gt;Node8 -->
<g id="edge8" class="edge">
<title>Node2&#45;&gt;Node8</title>
<path fill="none" stroke="#191970" d="M1157.3122,-58.4966C1138.8098,-49.3245 1111.7611,-35.9157 1091.1178,-25.6823"/>
<polygon fill="#191970" stroke="#191970" points="1092.6515,-22.5362 1082.1374,-21.2305 1089.5424,-28.8079 1092.6515,-22.5362"/>
</g>
<!-- Node9 -->
<g id="node10" class="node">
<title>Node9</title>
<polygon fill="#ffffff" stroke="#bfbfbf" points="1100.5,-.5 1100.5,-21.5 1180.5,-21.5 1180.5,-.5 1100.5,-.5"/>
<text text-anchor="middle" x="1140.5" y="-7.9" font-family="Helvetica,sans-Serif" font-size="12.00" fill="#000000">unordered_map</text>
</g>
<!-- Node2&#45;&gt;Node9 -->
<g id="edge9" class="edge">
<title>Node2&#45;&gt;Node9</title>
<path fill="none" stroke="#191970" d="M1171.5302,-58.3619C1166.3343,-50.4313 1159.0994,-39.3885 1152.9225,-29.9606"/>
<polygon fill="#191970" stroke="#191970" points="1155.8335,-28.0172 1147.4256,-21.5707 1149.9783,-31.8534 1155.8335,-28.0172"/>
</g>
<!-- Node10 -->
<g id="node11" class="node">
<title>Node10</title>
<polygon fill="#ffffff" stroke="#bfbfbf" points="631,-.5 631,-21.5 672,-21.5 672,-.5 631,-.5"/>
<text text-anchor="middle" x="651.5" y="-7.9" font-family="Helvetica,sans-Serif" font-size="12.00" fill="#000000">cmath</text>
</g>
<!-- Node2&#45;&gt;Node10 -->
<g id="edge10" class="edge">
<title>Node2&#45;&gt;Node10</title>
<path fill="none" stroke="#191970" d="M1118.7173,-65.2777C1009.2528,-58.1539 779.6784,-41.7092 682.1238,-21.5481"/>
<polygon fill="#191970" stroke="#191970" points="682.7907,-18.1113 672.2738,-19.3939 681.2951,-24.9497 682.7907,-18.1113"/>
</g>
<!-- Node11 -->
<g id="node12" class="node">
<title>Node11</title>
<polygon fill="#ffffff" stroke="#bfbfbf" points="1198.5,-.5 1198.5,-21.5 1234.5,-21.5 1234.5,-.5 1198.5,-.5"/>
<text text-anchor="middle" x="1216.5" y="-7.9" font-family="Helvetica,sans-Serif" font-size="12.00" fill="#000000">tuple</text>
</g>
<!-- Node2&#45;&gt;Node11 -->
<g id="edge11" class="edge">
<title>Node2&#45;&gt;Node11</title>
<path fill="none" stroke="#191970" d="M1185.4698,-58.3619C1190.6657,-50.4313 1197.9006,-39.3885 1204.0775,-29.9606"/>
<polygon fill="#191970" stroke="#191970" points="1207.0217,-31.8534 1209.5744,-21.5707 1201.1665,-28.0172 1207.0217,-31.8534"/>
</g>
<!-- Node12 -->
<g id="node13" class="node">
<title>Node12</title>
<polygon fill="#ffffff" stroke="#bfbfbf" points="1252.5,-.5 1252.5,-21.5 1286.5,-21.5 1286.5,-.5 1252.5,-.5"/>
<text text-anchor="middle" x="1269.5" y="-7.9" font-family="Helvetica,sans-Serif" font-size="12.00" fill="#000000">ratio</text>
</g>
<!-- Node2&#45;&gt;Node12 -->
<g id="edge12" class="edge">
<title>Node2&#45;&gt;Node12</title>
<path fill="none" stroke="#191970" d="M1195.1908,-58.3619C1208.9163,-49.6138 1228.5836,-37.0786 1244.2374,-27.1015"/>
<polygon fill="#191970" stroke="#191970" points="1246.3634,-29.8969 1252.915,-21.5707 1242.601,-23.994 1246.3634,-29.8969"/>
</g>
<!-- Node13 -->
<g id="node14" class="node">
<title>Node13</title>
<polygon fill="#ffffff" stroke="#bfbfbf" points="1304.5,-.5 1304.5,-21.5 1348.5,-21.5 1348.5,-.5 1304.5,-.5"/>
<text text-anchor="middle" x="1326.5" y="-7.9" font-family="Helvetica,sans-Serif" font-size="12.00" fill="#000000">chrono</text>
</g>
<!-- Node2&#45;&gt;Node13 -->
<g id="edge13" class="edge">
<title>Node2&#45;&gt;Node13</title>
<path fill="none" stroke="#191970" d="M1205.3017,-58.4966C1230.4153,-48.6548 1267.9762,-33.935 1294.6179,-23.4943"/>
<polygon fill="#191970" stroke="#191970" points="1296.2118,-26.6289 1304.2453,-19.7214 1293.6577,-20.1115 1296.2118,-26.6289"/>
</g>
<!-- Node14 -->
<g id="node15" class="node">
<title>Node14</title>
<polygon fill="#ffffff" stroke="#bfbfbf" points="1366.5,-.5 1366.5,-21.5 1404.5,-21.5 1404.5,-.5 1366.5,-.5"/>
<text text-anchor="middle" x="1385.5" y="-7.9" font-family="Helvetica,sans-Serif" font-size="12.00" fill="#000000">ctime</text>
</g>
<!-- Node2&#45;&gt;Node14 -->
<g id="edge14" class="edge">
<title>Node2&#45;&gt;Node14</title>
<path fill="none" stroke="#191970" d="M1224.5456,-58.488C1258.7522,-50.324 1306.6728,-38.1446 1356.6441,-22.0379"/>
<polygon fill="#191970" stroke="#191970" points="1357.9093,-25.3067 1366.3284,-18.8748 1355.7359,-18.6527 1357.9093,-25.3067"/>
</g>
<!-- Node15 -->
<g id="node16" class="node">
<title>Node15</title>
<polygon fill="#ffffff" stroke="#bfbfbf" points="1423,-.5 1423,-21.5 1466,-21.5 1466,-.5 1423,-.5"/>
<text text-anchor="middle" x="1444.5" y="-7.9" font-family="Helvetica,sans-Serif" font-size="12.00" fill="#000000">cstdint</text>
</g>
<!-- Node2&#45;&gt;Node15 -->
<g id="edge15" class="edge">
<title>Node2&#45;&gt;Node15</title>
<path fill="none" stroke="#191970" d="M1238.4529,-59.4567C1283.9392,-51.6598 1348.1044,-39.4733 1412.9557,-21.8509"/>
<polygon fill="#191970" stroke="#191970" points="1414.2375,-25.1281 1422.9461,-19.0939 1412.3753,-18.3803 1414.2375,-25.1281"/>
</g>
<!-- Node16 -->
<g id="node17" class="node">
<title>Node16</title>
<polygon fill="#ffffff" stroke="#bfbfbf" points="964.5,-.5 964.5,-21.5 1022.5,-21.5 1022.5,-.5 964.5,-.5"/>
<text text-anchor="middle" x="993.5" y="-7.9" font-family="Helvetica,sans-Serif" font-size="12.00" fill="#000000">type_traits</text>
</g>
<!-- Node2&#45;&gt;Node16 -->
<g id="edge16" class="edge">
<title>Node2&#45;&gt;Node16</title>
<path fill="none" stroke="#191970" d="M1144.9979,-58.4966C1113.3862,-48.586 1065.997,-33.7288 1032.6556,-23.2758"/>
<polygon fill="#191970" stroke="#191970" points="1033.3814,-19.8354 1022.7923,-20.1835 1031.2872,-26.5149 1033.3814,-19.8354"/>
</g>
<!-- Node2&#45;&gt;Node17 -->
<g id="edge17" class="edge">
<title>Node2&#45;&gt;Node17</title>
<path fill="none" stroke="#191970" d="M1238.1032,-60.4901C1296.0097,-52.0137 1386.6502,-38.1959 1474.5337,-22.1131"/>
<polygon fill="#191970" stroke="#191970" points="1475.2033,-25.5488 1484.4037,-20.2951 1473.9351,-18.6646 1475.2033,-25.5488"/>
</g>
<!-- Node2&#45;&gt;Node18 -->
<g id="edge18" class="edge">
<title>Node2&#45;&gt;Node18</title>
<path fill="none" stroke="#191970" d="M1238.0084,-64.3575C1325.8808,-57.2212 1495.733,-42.3567 1650.4838,-22.0638"/>
<polygon fill="#191970" stroke="#191970" points="1651.1991,-25.4998 1660.6541,-20.7194 1650.2817,-18.5602 1651.1991,-25.4998"/>
</g>
<!-- Node2&#45;&gt;Node19 -->
<g id="edge19" class="edge">
<title>Node2&#45;&gt;Node19</title>
<path fill="none" stroke="#191970" d="M1238.1628,-65.8723C1382.2305,-58.1932 1747.1359,-37.9559 1890.0871,-22.0339"/>
<polygon fill="#191970" stroke="#191970" points="1890.8613,-25.4679 1900.3952,-20.8469 1890.0605,-18.5139 1890.8613,-25.4679"/>
</g>
<!-- Node2&#45;&gt;Node20 -->
<g id="edge20" class="edge">
<title>Node2&#45;&gt;Node20</title>
<path fill="none" stroke="#191970" d="M1238.1165,-65.9063C1414.9726,-56.6988 1929.4426,-29.688 2018.788,-21.668"/>
<polygon fill="#191970" stroke="#191970" points="2019.2105,-25.1431 2028.7946,-20.627 2018.486,-18.1807 2019.2105,-25.1431"/>
</g>
<!-- Node21&#45;&gt;Node1 -->
<g id="edge37" class="edge">
<title>Node21&#45;&gt;Node1</title>
<path fill="none" stroke="#191970" d="M1603.4781,-65.653C1573.7239,-63.3802 1533.2166,-60.3688 1497.5,-58 1228.9458,-40.1893 1158.0913,-51.2074 886.8133,-22.0513"/>
<polygon fill="#191970" stroke="#191970" points="886.9822,-18.5493 876.6634,-20.9519 886.2283,-25.5085 886.9822,-18.5493"/>
</g>
<!-- Node21&#45;&gt;Node3 -->
<g id="edge24" class="edge">
<title>Node21&#45;&gt;Node3</title>
<path fill="none" stroke="#191970" d="M1603.4722,-65.7392C1573.7154,-63.5047 1533.2074,-60.5039 1497.5,-58 1259.9643,-41.3435 1194.5617,-65.8208 956.3262,-21.7414"/>
<polygon fill="#191970" stroke="#191970" points="956.7921,-18.2679 946.3189,-19.8686 955.5044,-25.1485 956.7921,-18.2679"/>
</g>
<!-- Node21&#45;&gt;Node4 -->
<g id="edge27" class="edge">
<title>Node21&#45;&gt;Node4</title>
<path fill="none" stroke="#191970" d="M1603.4859,-65.5302C1573.7352,-63.2025 1533.2289,-60.176 1497.5,-58 1167.8156,-37.9214 1077.3796,-82.4104 749.0919,-21.846"/>
<polygon fill="#191970" stroke="#191970" points="749.2836,-18.3215 738.8115,-19.9297 748.0007,-25.203 749.2836,-18.3215"/>
</g>
<!-- Node21&#45;&gt;Node15 -->
<g id="edge29" class="edge">
<title>Node21&#45;&gt;Node15</title>
<path fill="none" stroke="#191970" d="M1604.7881,-58.4421C1572.1168,-49.9691 1525.3497,-37.3962 1475.7375,-21.9226"/>
<polygon fill="#191970" stroke="#191970" points="1476.7021,-18.557 1466.1126,-18.895 1474.6016,-25.2344 1476.7021,-18.557"/>
</g>
<!-- Node21&#45;&gt;Node17 -->
<g id="edge31" class="edge">
<title>Node21&#45;&gt;Node17</title>
<path fill="none" stroke="#191970" d="M1624.95,-58.4966C1606.3637,-49.4378 1579.2982,-36.2462 1558.4046,-26.0628"/>
<polygon fill="#191970" stroke="#191970" points="1559.8144,-22.8563 1549.2918,-21.6212 1556.7475,-29.1487 1559.8144,-22.8563"/>
</g>
<!-- Node21&#45;&gt;Node18 -->
<g id="edge34" class="edge">
<title>Node21&#45;&gt;Node18</title>
<path fill="none" stroke="#191970" d="M1659.5225,-58.3619C1669.9312,-49.859 1684.7194,-37.7785 1696.7551,-27.9466"/>
<polygon fill="#191970" stroke="#191970" points="1699.0299,-30.6077 1704.5601,-21.5707 1694.6013,-25.1866 1699.0299,-30.6077"/>
</g>
<!-- Node21&#45;&gt;Node19 -->
<g id="edge35" class="edge">
<title>Node21&#45;&gt;Node19</title>
<path fill="none" stroke="#191970" d="M1689.7905,-60.8743C1741.8402,-51.1044 1829.7127,-34.6106 1890.0588,-23.2835"/>
<polygon fill="#191970" stroke="#191970" points="1891.0608,-26.6566 1900.2434,-21.3718 1889.7693,-19.7767 1891.0608,-26.6566"/>
</g>
<!-- Node21&#45;&gt;Node20 -->
<g id="edge32" class="edge">
<title>Node21&#45;&gt;Node20</title>
<path fill="none" stroke="#191970" d="M1689.7296,-64.6264C1757.549,-57.5305 1893.2767,-42.3858 2018.6016,-22.0488"/>
<polygon fill="#191970" stroke="#191970" points="2019.4563,-25.4555 2028.7591,-20.3851 2018.3248,-18.5475 2019.4563,-25.4555"/>
</g>
<!-- Node22 -->
<g id="node23" class="node">
<title>Node22</title>
<polygon fill="#ffffff" stroke="#bfbfbf" points="1792,-.5 1792,-21.5 1821,-21.5 1821,-.5 1792,-.5"/>
<text text-anchor="middle" x="1806.5" y="-7.9" font-family="Helvetica,sans-Serif" font-size="12.00" fill="#000000">ios</text>
</g>
<!-- Node21&#45;&gt;Node22 -->
<g id="edge23" class="edge">
<title>Node21&#45;&gt;Node22</title>
<path fill="none" stroke="#191970" d="M1680.6846,-58.4862C1706.5725,-50.257 1743.1258,-38.0696 1782.1018,-22.3261"/>
<polygon fill="#191970" stroke="#191970" points="1783.5896,-25.499 1791.5182,-18.4714 1780.9376,-19.0208 1783.5896,-25.499"/>
</g>
<!-- Node21&#45;&gt;Node23 -->
<g id="edge25" class="edge">
<title>Node21&#45;&gt;Node23</title>
<path fill="none" stroke="#191970" d="M1689.8654,-66.0665C1788.3541,-59.2006 2027.394,-41.3403 2125.9832,-21.8702"/>
<polygon fill="#191970" stroke="#191970" points="2126.8365,-25.2676 2135.91,-19.7975 2125.4057,-18.4154 2126.8365,-25.2676"/>
</g>
<!-- Node21&#45;&gt;Node24 -->
<g id="edge26" class="edge">
<title>Node21&#45;&gt;Node24</title>
<path fill="none" stroke="#191970" d="M1603.1767,-65.2402C1573.4628,-62.7994 1533.1221,-59.7564 1497.5,-58 1179.0902,-42.3006 381.161,-83.1463 49.3698,-21.4343"/>
<polygon fill="#191970" stroke="#191970" points="49.6894,-17.9318 39.2087,-19.4831 48.3692,-24.8062 49.6894,-17.9318"/>
</g>
<!-- Node25 -->
<g id="node26" class="node">
<title>Node25</title>
<polygon fill="#ffffff" stroke="#bfbfbf" points="1839,-.5 1839,-21.5 1882,-21.5 1882,-.5 1839,-.5"/>
<text text-anchor="middle" x="1860.5" y="-7.9" font-family="Helvetica,sans-Serif" font-size="12.00" fill="#000000">stdio.h</text>
</g>
<!-- Node21&#45;&gt;Node25 -->
<g id="edge28" class="edge">
<title>Node21&#45;&gt;Node25</title>
<path fill="none" stroke="#191970" d="M1689.6003,-59.2962C1724.9123,-51.0544 1776.3296,-38.3912 1829.0947,-22.2491"/>
<polygon fill="#191970" stroke="#191970" points="1830.4418,-25.496 1838.9592,-19.1948 1828.3714,-18.8092 1830.4418,-25.496"/>
</g>
<!-- Node26 -->
<g id="node27" class="node">
<title>Node26</title>
<polygon fill="#ffffff" stroke="#bfbfbf" points="1588.5,-.5 1588.5,-21.5 1642.5,-21.5 1642.5,-.5 1588.5,-.5"/>
<text text-anchor="middle" x="1615.5" y="-7.9" font-family="Helvetica,sans-Serif" font-size="12.00" fill="#000000">algorithm</text>
</g>
<!-- Node21&#45;&gt;Node26 -->
<g id="edge30" class="edge">
<title>Node21&#45;&gt;Node26</title>
<path fill="none" stroke="#191970" d="M1640.8141,-58.3619C1636.6628,-50.5949 1630.9159,-39.8426 1625.9469,-30.5458"/>
<polygon fill="#191970" stroke="#191970" points="1628.9504,-28.7401 1621.1498,-21.5707 1622.7769,-32.0398 1628.9504,-28.7401"/>
</g>
<!-- Node21&#45;&gt;Node27 -->
<g id="edge33" class="edge">
<title>Node21&#45;&gt;Node27</title>
<path fill="none" stroke="#191970" d="M1689.5185,-66.9838C1780.383,-62.3619 1998.6589,-49.3448 2190.8965,-22.1068"/>
<polygon fill="#191970" stroke="#191970" points="2191.4972,-25.5566 2200.8994,-20.6731 2190.504,-18.6274 2191.4972,-25.5566"/>
</g>
<!-- Node21&#45;&gt;Node28 -->
<g id="edge36" class="edge">
<title>Node21&#45;&gt;Node28</title>
<path fill="none" stroke="#191970" d="M1689.5571,-67.3804C1793.0212,-63.1736 2063.9373,-50.2895 2300.2327,-22.0527"/>
<polygon fill="#191970" stroke="#191970" points="2300.8842,-25.4995 2310.3928,-20.8264 2300.0454,-18.55 2300.8842,-25.4995"/>
</g>
<!-- Node29&#45;&gt;Node1 -->
<g id="edge52" class="edge">
<title>Node29&#45;&gt;Node1</title>
<path fill="none" stroke="#191970" d="M435.6012,-63.259C502.3883,-55.0246 628.691,-39.1075 746.399,-22.1318"/>
<polygon fill="#191970" stroke="#191970" points="746.909,-25.5946 756.3043,-20.6978 745.906,-18.6668 746.909,-25.5946"/>
</g>
<!-- Node29&#45;&gt;Node3 -->
<g id="edge39" class="edge">
<title>Node29&#45;&gt;Node3</title>
<path fill="none" stroke="#191970" d="M435.5734,-67.8366C522.692,-64.9739 714.8897,-55.3384 884.7961,-21.7678"/>
<polygon fill="#191970" stroke="#191970" points="885.55,-25.1863 894.6649,-19.7855 884.1715,-18.3234 885.55,-25.1863"/>
</g>
<!-- Node29&#45;&gt;Node4 -->
<g id="edge44" class="edge">
<title>Node29&#45;&gt;Node4</title>
<path fill="none" stroke="#191970" d="M435.7193,-63.6621C493.8246,-56.5764 595.2604,-42.5207 680.5,-22 680.6018,-21.9755 680.7037,-21.9508 680.8058,-21.926"/>
<polygon fill="#191970" stroke="#191970" points="681.7648,-25.2923 690.4841,-19.2735 679.9146,-18.5413 681.7648,-25.2923"/>
</g>
<!-- Node29&#45;&gt;Node5 -->
<g id="edge43" class="edge">
<title>Node29&#45;&gt;Node5</title>
<path fill="none" stroke="#191970" d="M400.9722,-58.3619C410.8453,-49.9408 424.8325,-38.0105 436.2984,-28.2308"/>
<polygon fill="#191970" stroke="#191970" points="438.7698,-30.7231 444.1068,-21.5707 434.2271,-25.3972 438.7698,-30.7231"/>
</g>
<!-- Node29&#45;&gt;Node6 -->
<g id="edge47" class="edge">
<title>Node29&#45;&gt;Node6</title>
<path fill="none" stroke="#191970" d="M413.4908,-58.4966C435.433,-49.2746 467.5658,-35.7695 491.9637,-25.5153"/>
<polygon fill="#191970" stroke="#191970" points="493.3661,-28.7225 501.2288,-21.6212 490.6538,-22.2693 493.3661,-28.7225"/>
</g>
<!-- Node29&#45;&gt;Node7 -->
<g id="edge51" class="edge">
<title>Node29&#45;&gt;Node7</title>
<path fill="none" stroke="#191970" d="M431.7093,-58.4504C464.961,-50.0801 512.2145,-37.643 562.2244,-21.8986"/>
<polygon fill="#191970" stroke="#191970" points="563.4562,-25.1797 571.9251,-18.8135 561.3346,-18.509 563.4562,-25.1797"/>
</g>
<!-- Node29&#45;&gt;Node10 -->
<g id="edge50" class="edge">
<title>Node29&#45;&gt;Node10</title>
<path fill="none" stroke="#191970" d="M435.8618,-61.6253C481.1675,-54.0858 551.4877,-41.1203 621.1554,-21.7661"/>
<polygon fill="#191970" stroke="#191970" points="622.306,-25.0781 630.9788,-18.9926 620.404,-18.3415 622.306,-25.0781"/>
</g>
<!-- Node29&#45;&gt;Node24 -->
<g id="edge42" class="edge">
<title>Node29&#45;&gt;Node24</title>
<path fill="none" stroke="#191970" d="M341.3863,-65.8545C277.0946,-60.8275 158.3456,-48.925 49.1382,-21.6841"/>
<polygon fill="#191970" stroke="#191970" points="49.8323,-18.2493 39.2781,-19.1755 48.1063,-25.0332 49.8323,-18.2493"/>
</g>
<!-- Node30 -->
<g id="node31" class="node">
<title>Node30</title>
<polygon fill="#ffffff" stroke="#bfbfbf" points="117.5,-.5 117.5,-21.5 159.5,-21.5 159.5,-.5 117.5,-.5"/>
<text text-anchor="middle" x="138.5" y="-7.9" font-family="Helvetica,sans-Serif" font-size="12.00" fill="#000000">cstdlib</text>
</g>
<!-- Node29&#45;&gt;Node30 -->
<g id="edge40" class="edge">
<title>Node29&#45;&gt;Node30</title>
<path fill="none" stroke="#191970" d="M341.2459,-60.8997C298.5608,-53.1378 233.9209,-40.2814 169.5852,-22.0388"/>
<polygon fill="#191970" stroke="#191970" points="170.2607,-18.5911 159.6826,-19.1867 168.3233,-25.3177 170.2607,-18.5911"/>
</g>
<!-- Node31 -->
<g id="node32" class="node">
<title>Node31</title>
<polygon fill="#ffffff" stroke="#bfbfbf" points="178,-.5 178,-21.5 207,-21.5 207,-.5 178,-.5"/>
<text text-anchor="middle" x="192.5" y="-7.9" font-family="Helvetica,sans-Serif" font-size="12.00" fill="#000000">set</text>
</g>
<!-- Node29&#45;&gt;Node31 -->
<g id="edge41" class="edge">
<title>Node29&#45;&gt;Node31</title>
<path fill="none" stroke="#191970" d="M341.1521,-58.5838C308.2366,-50.7945 263.3206,-39.0777 217.0125,-22.1826"/>
<polygon fill="#191970" stroke="#191970" points="218.018,-18.8224 207.4251,-18.6166 215.5776,-25.3832 218.018,-18.8224"/>
</g>
<!-- Node32 -->
<g id="node33" class="node">
<title>Node32</title>
<polygon fill="#ffffff" stroke="#bfbfbf" points="225,-.5 225,-21.5 268,-21.5 268,-.5 225,-.5"/>
<text text-anchor="middle" x="246.5" y="-7.9" font-family="Helvetica,sans-Serif" font-size="12.00" fill="#000000">cstring</text>
</g>
<!-- Node29&#45;&gt;Node32 -->
<g id="edge45" class="edge">
<title>Node29&#45;&gt;Node32</title>
<path fill="none" stroke="#191970" d="M362.7849,-58.4966C338.9366,-48.7558 303.3896,-34.2366 277.8797,-23.8171"/>
<polygon fill="#191970" stroke="#191970" points="278.8834,-20.4464 268.3024,-19.9052 276.2365,-26.9267 278.8834,-20.4464"/>
</g>
<!-- Node33 -->
<g id="node34" class="node">
<title>Node33</title>
<polygon fill="#ffffff" stroke="#bfbfbf" points="286,-.5 286,-21.5 341,-21.5 341,-.5 286,-.5"/>
<text text-anchor="middle" x="313.5" y="-7.9" font-family="Helvetica,sans-Serif" font-size="12.00" fill="#000000">exception</text>
</g>
<!-- Node29&#45;&gt;Node33 -->
<g id="edge46" class="edge">
<title>Node29&#45;&gt;Node33</title>
<path fill="none" stroke="#191970" d="M374.7438,-58.3619C363.7488,-49.859 348.1274,-37.7785 335.4136,-27.9466"/>
<polygon fill="#191970" stroke="#191970" points="337.2206,-24.9195 327.1689,-21.5707 332.9384,-30.4569 337.2206,-24.9195"/>
</g>
<!-- Node34 -->
<g id="node35" class="node">
<title>Node34</title>
<polygon fill="#ffffff" stroke="#bfbfbf" points="359,-.5 359,-21.5 414,-21.5 414,-.5 359,-.5"/>
<text text-anchor="middle" x="386.5" y="-7.9" font-family="Helvetica,sans-Serif" font-size="12.00" fill="#000000">functional</text>
</g>
<!-- Node29&#45;&gt;Node34 -->
<g id="edge48" class="edge">
<title>Node29&#45;&gt;Node34</title>
<path fill="none" stroke="#191970" d="M388.1332,-58.3619C387.8766,-50.9219 387.5256,-40.7427 387.2147,-31.7276"/>
<polygon fill="#191970" stroke="#191970" points="390.7071,-31.4441 386.8645,-21.5707 383.7113,-31.6854 390.7071,-31.4441"/>
</g>
<!-- Node35 -->
<g id="node36" class="node">
<title>Node35</title>
<polygon fill="#ffffff" stroke="#bfbfbf" points="57.5,-.5 57.5,-21.5 99.5,-21.5 99.5,-.5 57.5,-.5"/>
<text text-anchor="middle" x="78.5" y="-7.9" font-family="Helvetica,sans-Serif" font-size="12.00" fill="#000000">deque</text>
</g>
<!-- Node29&#45;&gt;Node35 -->
<g id="edge49" class="edge">
<title>Node29&#45;&gt;Node35</title>
<path fill="none" stroke="#191970" d="M341.366,-63.7935C287.2858,-57.2234 195.9282,-44.3025 109.3626,-21.869"/>
<polygon fill="#191970" stroke="#191970" points="110.2118,-18.4733 99.6497,-19.3058 108.4256,-25.2416 110.2118,-18.4733"/>
</g>
<!-- Node36&#45;&gt;Node1 -->
<g id="edge68" class="edge">
<title>Node36&#45;&gt;Node1</title>
<path fill="none" stroke="#191970" d="M596.1544,-119.902C638.2113,-113.5736 691.9177,-101.7768 735.5,-80 760.8297,-67.3435 784.8659,-45.1063 800.0768,-29.2988"/>
<polygon fill="#191970" stroke="#191970" points="802.908,-31.3958 807.1867,-21.7034 797.7976,-26.6121 802.908,-31.3958"/>
</g>
<!-- Node36&#45;&gt;Node3 -->
<g id="edge54" class="edge">
<title>Node36&#45;&gt;Node3</title>
<path fill="none" stroke="#191970" d="M596.0386,-117.5535C644.2867,-109.9786 709.661,-97.6715 765.5,-80 810.8593,-65.6451 860.6834,-41.9367 891.2816,-26.3922"/>
<polygon fill="#191970" stroke="#191970" points="893.2128,-29.3351 900.5105,-21.6543 890.0159,-23.1077 893.2128,-29.3351"/>
</g>
<!-- Node36&#45;&gt;Node4 -->
<g id="edge60" class="edge">
<title>Node36&#45;&gt;Node4</title>
<path fill="none" stroke="#191970" d="M543.956,-116.4005C559.5788,-106.901 583.0979,-92.5675 603.5,-80 632.8754,-61.905 666.5138,-40.9636 688.9884,-26.9404"/>
<polygon fill="#191970" stroke="#191970" points="690.9722,-29.828 697.6017,-21.5637 687.2654,-23.89 690.9722,-29.828"/>
</g>
<!-- Node36&#45;&gt;Node5 -->
<g id="edge59" class="edge">
<title>Node36&#45;&gt;Node5</title>
<path fill="none" stroke="#191970" d="M520.04,-116.2949C508.2675,-96.7861 483.1654,-55.1884 468.2779,-30.5177"/>
<polygon fill="#191970" stroke="#191970" points="471.1077,-28.4328 462.9443,-21.6792 465.1144,-32.0494 471.1077,-28.4328"/>
</g>
<!-- Node36&#45;&gt;Node6 -->
<g id="edge63" class="edge">
<title>Node36&#45;&gt;Node6</title>
<path fill="none" stroke="#191970" d="M526.5,-116.2949C526.5,-97.1314 526.5,-56.654 526.5,-31.8434"/>
<polygon fill="#191970" stroke="#191970" points="530.0001,-31.6792 526.5,-21.6792 523.0001,-31.6792 530.0001,-31.6792"/>
</g>
<!-- Node36&#45;&gt;Node7 -->
<g id="edge67" class="edge">
<title>Node36&#45;&gt;Node7</title>
<path fill="none" stroke="#191970" d="M532.5908,-116.2949C543.6907,-96.7861 567.3583,-55.1884 581.3951,-30.5177"/>
<polygon fill="#191970" stroke="#191970" points="584.5207,-32.1017 586.4239,-21.6792 578.4365,-28.64 584.5207,-32.1017"/>
</g>
<!-- Node36&#45;&gt;Node10 -->
<g id="edge66" class="edge">
<title>Node36&#45;&gt;Node10</title>
<path fill="none" stroke="#191970" d="M538.0356,-116.2949C559.6162,-96.2682 606.2801,-52.9641 632.546,-28.5893"/>
<polygon fill="#191970" stroke="#191970" points="635.043,-31.047 639.9922,-21.6792 630.2814,-25.916 635.043,-31.047"/>
</g>
<!-- Node36&#45;&gt;Node24 -->
<g id="edge58" class="edge">
<title>Node36&#45;&gt;Node24</title>
<path fill="none" stroke="#191970" d="M456.6621,-121.3947C363.6276,-113.3987 204.2813,-97.7106 148.5,-80 109.4768,-67.6101 68.4481,-43.4641 43.4132,-27.2804"/>
<polygon fill="#191970" stroke="#191970" points="45.2255,-24.2833 34.9467,-21.7148 41.3803,-30.1326 45.2255,-24.2833"/>
</g>
<!-- Node36&#45;&gt;Node29 -->
<g id="edge69" class="edge">
<title>Node36&#45;&gt;Node29</title>
<path fill="none" stroke="#191970" d="M501.5092,-116.4966C479.567,-107.2746 447.4342,-93.7695 423.0363,-83.5153"/>
<polygon fill="#191970" stroke="#191970" points="424.3462,-80.2693 413.7712,-79.6212 421.6339,-86.7225 424.3462,-80.2693"/>
</g>
<!-- Node36&#45;&gt;Node30 -->
<g id="edge55" class="edge">
<title>Node36&#45;&gt;Node30</title>
<path fill="none" stroke="#191970" d="M456.8723,-123.2216C398.7105,-118.2338 314.4625,-106.6877 245.5,-80 212.8523,-67.3657 179.6476,-43.9555 159.0703,-27.9379"/>
<polygon fill="#191970" stroke="#191970" points="161.0707,-25.0571 151.063,-21.5789 156.7173,-30.5388 161.0707,-25.0571"/>
</g>
<!-- Node36&#45;&gt;Node31 -->
<g id="edge57" class="edge">
<title>Node36&#45;&gt;Node31</title>
<path fill="none" stroke="#191970" d="M456.9981,-121.8566C407.2296,-116.2082 339.5612,-104.4347 284.5,-80 256.1142,-67.4031 228.2582,-44.6404 210.7677,-28.7161"/>
<polygon fill="#191970" stroke="#191970" points="212.7568,-25.7851 203.0573,-21.5225 207.9816,-30.9034 212.7568,-25.7851"/>
</g>
<!-- Node36&#45;&gt;Node32 -->
<g id="edge61" class="edge">
<title>Node36&#45;&gt;Node32</title>
<path fill="none" stroke="#191970" d="M456.8956,-121.218C414.277,-115.3663 359.7976,-103.6082 316.5,-80 293.7462,-67.5934 273.3531,-45.6223 260.5282,-29.8018"/>
<polygon fill="#191970" stroke="#191970" points="263.1379,-27.4577 254.2149,-21.7453 257.628,-31.7753 263.1379,-27.4577"/>
</g>
<!-- Node36&#45;&gt;Node33 -->
<g id="edge62" class="edge">
<title>Node36&#45;&gt;Node33</title>
<path fill="none" stroke="#191970" d="M456.8716,-117.6932C408.7389,-109.8912 350.2904,-97.2471 332.5,-80 319.5785,-67.4732 315.1965,-47.033 313.8272,-31.6443"/>
<polygon fill="#191970" stroke="#191970" points="317.3147,-31.3151 313.2837,-21.5171 310.3248,-31.6903 317.3147,-31.3151"/>
</g>
<!-- Node36&#45;&gt;Node34 -->
<g id="edge64" class="edge">
<title>Node36&#45;&gt;Node34</title>
<path fill="none" stroke="#191970" d="M514.0571,-116.4071C498.0414,-102.8008 469.3191,-78.4953 444.5,-58 432.3953,-48.0041 418.761,-36.9456 407.7543,-28.0676"/>
<polygon fill="#191970" stroke="#191970" points="409.9022,-25.3036 399.9184,-21.7574 405.5117,-30.7555 409.9022,-25.3036"/>
</g>
<!-- Node36&#45;&gt;Node35 -->
<g id="edge65" class="edge">
<title>Node36&#45;&gt;Node35</title>
<path fill="none" stroke="#191970" d="M456.943,-124.3057C389.9434,-120.0123 286.5213,-108.8775 201.5,-80 164.2907,-67.3618 125.392,-43.4498 101.5473,-27.3674"/>
<polygon fill="#191970" stroke="#191970" points="103.4065,-24.3985 93.1806,-21.6269 99.4462,-30.1705 103.4065,-24.3985"/>
</g>
<!-- Node37 -->
<g id="node38" class="node">
<title>Node37</title>
<polygon fill="#ffffff" stroke="#bfbfbf" points="682,-58.5 682,-79.5 727,-79.5 727,-58.5 682,-58.5"/>
<text text-anchor="middle" x="704.5" y="-65.9" font-family="Helvetica,sans-Serif" font-size="12.00" fill="#000000">stdlib.h</text>
</g>
<!-- Node36&#45;&gt;Node37 -->
<g id="edge56" class="edge">
<title>Node36&#45;&gt;Node37</title>
<path fill="none" stroke="#191970" d="M558.7345,-116.4966C590.8269,-106.0395 639.8201,-90.0755 672.004,-79.5886"/>
<polygon fill="#191970" stroke="#191970" points="673.3963,-82.8161 681.8199,-76.3901 671.2276,-76.1605 673.3963,-82.8161"/>
</g>
<!-- Node38 -->
<g id="node39" class="node">
<title>Node38</title>
<g id="a_node39"><a xlink:href="../../d0/d5d/mpi_8hpp.html" target="_top" xlink:title="timemory/mpi.hpp">
<polygon fill="#ffffff" stroke="#000000" points="1400.5,-58.5 1400.5,-79.5 1488.5,-79.5 1488.5,-58.5 1400.5,-58.5"/>
<text text-anchor="middle" x="1444.5" y="-65.9" font-family="Helvetica,sans-Serif" font-size="12.00" fill="#000000">timemory/mpi.hpp</text>
</a>
</g>
</g>
<!-- Node36&#45;&gt;Node38 -->
<g id="edge70" class="edge">
<title>Node36&#45;&gt;Node38</title>
<path fill="none" stroke="#191970" d="M596.2527,-122.593C772.2326,-111.4744 1231.4832,-82.4586 1389.865,-72.4519"/>
<polygon fill="#191970" stroke="#191970" points="1390.5395,-75.9163 1400.2988,-71.7927 1390.098,-68.9303 1390.5395,-75.9163"/>
</g>
<!-- Node38&#45;&gt;Node15 -->
<g id="edge71" class="edge">
<title>Node38&#45;&gt;Node15</title>
<path fill="none" stroke="#191970" d="M1444.5,-58.3619C1444.5,-50.9219 1444.5,-40.7427 1444.5,-31.7276"/>
<polygon fill="#191970" stroke="#191970" points="1448.0001,-31.5706 1444.5,-21.5707 1441.0001,-31.5707 1448.0001,-31.5706"/>
</g>
<!-- Node38&#45;&gt;Node26 -->
<g id="edge72" class="edge">
<title>Node38&#45;&gt;Node26</title>
<path fill="none" stroke="#191970" d="M1475.4668,-58.4966C1504.5603,-48.6287 1548.1119,-33.8568 1578.9083,-23.4112"/>
<polygon fill="#191970" stroke="#191970" points="1580.0786,-26.7102 1588.4245,-20.1835 1577.8301,-20.0811 1580.0786,-26.7102"/>
</g>
</g>
</svg>
        <g id="navigator" transform="translate(0 0)" fill="#404254">
                <rect fill="#f2f5e9" fill-opacity="0.5" stroke="#606060" stroke-width=".5" x="0" y="0" width="60" height="60"/>
                <use id="zoomplus" xlink:href="#zoomPlus" x="17" y="9" onmousedown="handleZoom(evt,'in')"/>
                <use id="zoomminus" xlink:href="#zoomMin" x="42" y="9" onmousedown="handleZoom(evt,'out')"/>
                <use id="reset" xlink:href="#resetDef" x="30" y="36" onmousedown="handleReset()"/>
                <g id="arrowUp" xlink:href="#dirArrow" transform="translate(30 24)" onmousedown="handlePan(0,-1)">
                  <use xlink:href="#rim" fill="#404040">
                        <set attributeName="fill" to="#808080" begin="arrowUp.mouseover" end="arrowUp.mouseout"/>
                  </use>
                  <path fill="none" stroke="white" stroke-width="1.5" d="M0,-3.0v7 M-2.5,-0.5L0,-3.0L2.5,-0.5"/>
                </g>
                <g id="arrowRight" xlink:href="#dirArrow" transform="rotate(90) translate(36 -43)" onmousedown="handlePan(1,0)">
                  <use xlink:href="#rim" fill="#404040">
                        <set attributeName="fill" to="#808080" begin="arrowRight.mouseover" end="arrowRight.mouseout"/>
                  </use>
                  <path fill="none" stroke="white" stroke-width="1.5" d="M0,-3.0v7 M-2.5,-0.5L0,-3.0L2.5,-0.5"/>
                </g>
                <g id="arrowDown" xlink:href="#dirArrow" transform="rotate(180) translate(-30 -48)" onmousedown="handlePan(0,1)">
                  <use xlink:href="#rim" fill="#404040">
                        <set attributeName="fill" to="#808080" begin="arrowDown.mouseover" end="arrowDown.mouseout"/>
                  </use>
                  <path fill="none" stroke="white" stroke-width="1.5" d="M0,-3.0v7 M-2.5,-0.5L0,-3.0L2.5,-0.5"/>
                </g>
                <g id="arrowLeft" xlink:href="#dirArrow" transform="rotate(270) translate(-36 17)" onmousedown="handlePan(-1,0)">
                  <use xlink:href="#rim" fill="#404040">
                        <set attributeName="fill" to="#808080" begin="arrowLeft.mouseover" end="arrowLeft.mouseout"/>
                  </use>
                  <path fill="none" stroke="white" stroke-width="1.5" d="M0,-3.0v7 M-2.5,-0.5L0,-3.0L2.5,-0.5"/>
                </g>
        </g>
        <svg viewBox="0 0 15 15" width="100%" height="30px" preserveAspectRatio="xMaxYMin meet">
         <g id="arrow_out" transform="scale(0.3 0.3)">
          <a xlink:href="base__timer_8hpp__incl_org.svg" target="_base">
           <rect id="button" ry="5" rx="5" y="6" x="6" height="38" width="38"
                fill="#f2f5e9" fill-opacity="0.5" stroke="#606060" stroke-width="1.0"/>
           <path id="arrow"
             d="M 11.500037,31.436501 C 11.940474,20.09759 22.043105,11.32322 32.158766,21.979434 L 37.068811,17.246167 C 37.068811,17.246167 37.088388,32 37.088388,32 L 22.160133,31.978069 C 22.160133,31.978069 26.997745,27.140456 26.997745,27.140456 C 18.528582,18.264221 13.291696,25.230495 11.500037,31.436501 z"
             style="fill:#404040;"/>
          </a>
         </g>
        </svg>
</svg>
