<?xml version="1.0" encoding="UTF-8" standalone="no"?>
<!DOCTYPE svg PUBLIC "-//W3C//DTD SVG 1.1//EN"
 "http://www.w3.org/Graphics/SVG/1.1/DTD/svg11.dtd">
<!-- Generated by graphviz version 2.40.1 (20161225.0304)
 -->
<!-- Title: timemory/base_timer.hpp Pages: 1 -->
<svg width="2128pt" height="146pt"
 viewBox="0.00 0.00 2127.50 146.00" xmlns="http://www.w3.org/2000/svg" xmlns:xlink="http://www.w3.org/1999/xlink">
<g id="graph0" class="graph" transform="scale(1 1) rotate(0) translate(4 142)">
<title>timemory/base_timer.hpp</title>
<polygon fill="#ffffff" stroke="transparent" points="-4,4 -4,-142 2123.5,-142 2123.5,4 -4,4"/>
<!-- Node0 -->
<g id="node1" class="node">
<title>Node0</title>
<polygon fill="#bfbfbf" stroke="#000000" points="599.5,-116.5 599.5,-137.5 717.5,-137.5 717.5,-116.5 599.5,-116.5"/>
<text text-anchor="middle" x="658.5" y="-123.9" font-family="Helvetica,sans-Serif" font-size="12.00" fill="#000000">timemory/base_timer.hpp</text>
</g>
<!-- Node1 -->
<g id="node2" class="node">
<title>Node1</title>
<g id="a_node2"><a xlink:href="../../db/d19/namespace_8hpp.html" target="_top" xlink:title="timemory/namespace.hpp">
<polygon fill="#ffffff" stroke="#000000" points="599.5,-.5 599.5,-21.5 719.5,-21.5 719.5,-.5 599.5,-.5"/>
<text text-anchor="middle" x="659.5" y="-7.9" font-family="Helvetica,sans-Serif" font-size="12.00" fill="#000000">timemory/namespace.hpp</text>
</a>
</g>
</g>
<!-- Node0&#45;&gt;Node1 -->
<g id="edge1" class="edge">
<title>Node0&#45;&gt;Node1</title>
<path fill="none" stroke="#191970" d="M653.283,-116.3175C647.3261,-102.8195 638.8481,-78.8332 642.5,-58 644.1012,-48.8656 647.3284,-39.1665 650.5449,-30.9662"/>
<polygon fill="#191970" stroke="#191970" points="653.8594,-32.112 654.4901,-21.536 647.4017,-29.4103 653.8594,-32.112"/>
</g>
<!-- Node2 -->
<g id="node3" class="node">
<title>Node2</title>
<g id="a_node3"><a xlink:href="../../d8/d4e/base__clock_8hpp.html" target="_top" xlink:title="timemory/base_clock.hpp">
<polygon fill="#ffffff" stroke="#000000" points="1303,-58.5 1303,-79.5 1422,-79.5 1422,-58.5 1303,-58.5"/>
<text text-anchor="middle" x="1362.5" y="-65.9" font-family="Helvetica,sans-Serif" font-size="12.00" fill="#000000">timemory/base_clock.hpp</text>
</a>
</g>
</g>
<!-- Node0&#45;&gt;Node2 -->
<g id="edge2" class="edge">
<title>Node0&#45;&gt;Node2</title>
<path fill="none" stroke="#191970" d="M717.6135,-122.1299C846.9354,-111.4755 1154.4388,-86.1414 1292.8599,-74.7374"/>
<polygon fill="#191970" stroke="#191970" points="1293.25,-78.2172 1302.9288,-73.9079 1292.6752,-71.2408 1293.25,-78.2172"/>
</g>
<!-- Node19 -->
<g id="node20" class="node">
<title>Node19</title>
<polygon fill="#ffffff" stroke="#bfbfbf" points="934.5,-.5 934.5,-21.5 1020.5,-21.5 1020.5,-.5 934.5,-.5"/>
<text text-anchor="middle" x="977.5" y="-7.9" font-family="Helvetica,sans-Serif" font-size="12.00" fill="#000000">cereal/cereal.hpp</text>
</g>
<!-- Node0&#45;&gt;Node19 -->
<g id="edge43" class="edge">
<title>Node0&#45;&gt;Node19</title>
<path fill="none" stroke="#191970" d="M687.6548,-116.3983C745.4418,-95.3848 874.4958,-48.4561 939.1059,-24.9615"/>
<polygon fill="#191970" stroke="#191970" points="940.3265,-28.2419 948.5283,-21.5352 937.9343,-21.6634 940.3265,-28.2419"/>
</g>
<!-- Node20 -->
<g id="node21" class="node">
<title>Node20</title>
<polygon fill="#ffffff" stroke="#bfbfbf" points="407,-.5 407,-21.5 520,-21.5 520,-.5 407,-.5"/>
<text text-anchor="middle" x="463.5" y="-7.9" font-family="Helvetica,sans-Serif" font-size="12.00" fill="#000000">cereal/types/chrono.hpp</text>
</g>
<!-- Node0&#45;&gt;Node20 -->
<g id="edge46" class="edge">
<title>Node0&#45;&gt;Node20</title>
<path fill="none" stroke="#191970" d="M640.5044,-116.2949C605.9532,-95.7414 530.1862,-50.6698 489.9021,-26.7059"/>
<polygon fill="#191970" stroke="#191970" points="491.5542,-23.6162 481.1705,-21.5117 487.9754,-29.6322 491.5542,-23.6162"/>
</g>
<!-- Node21 -->
<g id="node22" class="node">
<title>Node21</title>
<polygon fill="#ffffff" stroke="#bfbfbf" points="1038.5,-.5 1038.5,-21.5 1148.5,-21.5 1148.5,-.5 1038.5,-.5"/>
<text text-anchor="middle" x="1093.5" y="-7.9" font-family="Helvetica,sans-Serif" font-size="12.00" fill="#000000">cereal/types/deque.hpp</text>
</g>
<!-- Node0&#45;&gt;Node21 -->
<g id="edge47" class="edge">
<title>Node0&#45;&gt;Node21</title>
<path fill="none" stroke="#191970" d="M698.2565,-116.3983C777.947,-95.1475 957.027,-47.3928 1044.0956,-24.1745"/>
<polygon fill="#191970" stroke="#191970" points="1045.2327,-27.4937 1053.9932,-21.5352 1043.429,-20.73 1045.2327,-27.4937"/>
</g>
<!-- Node22 -->
<g id="node23" class="node">
<title>Node22</title>
<polygon fill="#ffffff" stroke="#bfbfbf" points="1167,-.5 1167,-21.5 1256,-21.5 1256,-.5 1167,-.5"/>
<text text-anchor="middle" x="1211.5" y="-7.9" font-family="Helvetica,sans-Serif" font-size="12.00" fill="#000000">cereal/access.hpp</text>
</g>
<!-- Node0&#45;&gt;Node22 -->
<g id="edge44" class="edge">
<title>Node0&#45;&gt;Node22</title>
<path fill="none" stroke="#191970" d="M711.2855,-116.422C758.127,-106.9966 828.4065,-92.7605 889.5,-80 983.6591,-60.3331 1093.1364,-36.7133 1157.1258,-22.8314"/>
<polygon fill="#191970" stroke="#191970" points="1157.9657,-26.2307 1166.9958,-20.6892 1156.4809,-19.39 1157.9657,-26.2307"/>
</g>
<!-- Node23 -->
<g id="node24" class="node">
<title>Node23</title>
<g id="a_node24"><a xlink:href="../../d9/dd2/rss_8hpp.html" target="_top" xlink:title="timemory/rss.hpp">
<polygon fill="#ffffff" stroke="#000000" points="651.5,-58.5 651.5,-79.5 737.5,-79.5 737.5,-58.5 651.5,-58.5"/>
<text text-anchor="middle" x="694.5" y="-65.9" font-family="Helvetica,sans-Serif" font-size="12.00" fill="#000000">timemory/rss.hpp</text>
</a>
</g>
</g>
<!-- Node0&#45;&gt;Node23 -->
<g id="edge24" class="edge">
<title>Node0&#45;&gt;Node23</title>
<path fill="none" stroke="#191970" d="M665.103,-116.3619C669.9746,-108.5131 676.7384,-97.6159 682.55,-88.2527"/>
<polygon fill="#191970" stroke="#191970" points="685.639,-89.9129 687.9389,-79.5707 679.6915,-86.2213 685.639,-89.9129"/>
</g>
<!-- Node25 -->
<g id="node26" class="node">
<title>Node25</title>
<polygon fill="#ffffff" stroke="#bfbfbf" points="0,-.5 0,-21.5 47,-21.5 47,-.5 0,-.5"/>
<text text-anchor="middle" x="23.5" y="-7.9" font-family="Helvetica,sans-Serif" font-size="12.00" fill="#000000">fstream</text>
</g>
<!-- Node0&#45;&gt;Node25 -->
<g id="edge40" class="edge">
<title>Node0&#45;&gt;Node25</title>
<path fill="none" stroke="#191970" d="M599.2384,-123.8726C517.875,-118.7754 367.3359,-106.46 241.5,-80 174.6052,-65.9338 99.07,-39.572 56.7842,-23.8198"/>
<polygon fill="#191970" stroke="#191970" points="57.869,-20.4885 47.2769,-20.2476 55.4069,-27.0412 57.869,-20.4885"/>
</g>
<!-- Node26 -->
<g id="node27" class="node">
<title>Node26</title>
<polygon fill="#ffffff" stroke="#bfbfbf" points="65,-.5 65,-21.5 104,-21.5 104,-.5 65,-.5"/>
<text text-anchor="middle" x="84.5" y="-7.9" font-family="Helvetica,sans-Serif" font-size="12.00" fill="#000000">string</text>
</g>
<!-- Node0&#45;&gt;Node26 -->
<g id="edge41" class="edge">
<title>Node0&#45;&gt;Node26</title>
<path fill="none" stroke="#191970" d="M599.1817,-120.2792C499.4629,-107.9696 292.383,-78.0563 113.8255,-22.1631"/>
<polygon fill="#191970" stroke="#191970" points="114.8591,-18.8192 104.2691,-19.1379 112.7464,-25.4928 114.8591,-18.8192"/>
</g>
<!-- Node28 -->
<g id="node29" class="node">
<title>Node28</title>
<polygon fill="#ffffff" stroke="#bfbfbf" points="122,-.5 122,-21.5 213,-21.5 213,-.5 122,-.5"/>
<text text-anchor="middle" x="167.5" y="-7.9" font-family="Helvetica,sans-Serif" font-size="12.00" fill="#000000">cereal/macros.hpp</text>
</g>
<!-- Node0&#45;&gt;Node28 -->
<g id="edge45" class="edge">
<title>Node0&#45;&gt;Node28</title>
<path fill="none" stroke="#191970" d="M607.5316,-116.4627C563.4876,-107.2371 498.1735,-93.2694 441.5,-80 363.0374,-61.6289 272.4461,-38.4225 217.6015,-24.1513"/>
<polygon fill="#191970" stroke="#191970" points="218.3472,-20.7288 207.7877,-21.5937 216.5818,-27.5025 218.3472,-20.7288"/>
</g>
<!-- Node29 -->
<g id="node30" class="node">
<title>Node29</title>
<polygon fill="#ffffff" stroke="#bfbfbf" points="231.5,-.5 231.5,-21.5 341.5,-21.5 341.5,-.5 231.5,-.5"/>
<text text-anchor="middle" x="286.5" y="-7.9" font-family="Helvetica,sans-Serif" font-size="12.00" fill="#000000">cereal/types/vector.hpp</text>
</g>
<!-- Node0&#45;&gt;Node29 -->
<g id="edge48" class="edge">
<title>Node0&#45;&gt;Node29</title>
<path fill="none" stroke="#191970" d="M625.824,-116.4591C583.3914,-102.8056 507.002,-78.3439 441.5,-58 404.4254,-46.4852 362.2594,-33.7208 331.276,-24.4036"/>
<polygon fill="#191970" stroke="#191970" points="332.2143,-21.0309 321.6301,-21.5055 330.2001,-27.7349 332.2143,-21.0309"/>
</g>
<!-- Node30 -->
<g id="node31" class="node">
<title>Node30</title>
<polygon fill="#ffffff" stroke="#bfbfbf" points="1440,-58.5 1440,-79.5 1483,-79.5 1483,-58.5 1440,-58.5"/>
<text text-anchor="middle" x="1461.5" y="-65.9" font-family="Helvetica,sans-Serif" font-size="12.00" fill="#000000">atomic</text>
</g>
<!-- Node0&#45;&gt;Node30 -->
<g id="edge42" class="edge">
<title>Node0&#45;&gt;Node30</title>
<path fill="none" stroke="#191970" d="M717.6477,-125.6231C870.4404,-121.7201 1276.4961,-109.0617 1429.6126,-79.8429"/>
<polygon fill="#191970" stroke="#191970" points="1430.6465,-83.2051 1439.7603,-77.8025 1429.2665,-76.3425 1430.6465,-83.2051"/>
</g>
<!-- Node2&#45;&gt;Node1 -->
<g id="edge23" class="edge">
<title>Node2&#45;&gt;Node1</title>
<path fill="none" stroke="#191970" d="M1302.904,-66.2568C1192.0724,-60.7895 946.5664,-46.963 729.6503,-22.0539"/>
<polygon fill="#191970" stroke="#191970" points="730.0059,-18.5718 719.6695,-20.8976 729.2002,-25.5253 730.0059,-18.5718"/>
</g>
<!-- Node3 -->
<g id="node4" class="node">
<title>Node3</title>
<polygon fill="#ffffff" stroke="#bfbfbf" points="737.5,-.5 737.5,-21.5 785.5,-21.5 785.5,-.5 737.5,-.5"/>
<text text-anchor="middle" x="761.5" y="-7.9" font-family="Helvetica,sans-Serif" font-size="12.00" fill="#000000">unistd.h</text>
</g>
<!-- Node2&#45;&gt;Node3 -->
<g id="edge3" class="edge">
<title>Node2&#45;&gt;Node3</title>
<path fill="none" stroke="#191970" d="M1302.6652,-65.7882C1181.1967,-58.991 908.4373,-42.2475 795.8975,-21.5636"/>
<polygon fill="#191970" stroke="#191970" points="796.3185,-18.0802 785.8354,-19.6151 794.9876,-24.9525 796.3185,-18.0802"/>
</g>
<!-- Node4 -->
<g id="node5" class="node">
<title>Node4</title>
<polygon fill="#ffffff" stroke="#bfbfbf" points="1534.5,-.5 1534.5,-21.5 1596.5,-21.5 1596.5,-.5 1534.5,-.5"/>
<text text-anchor="middle" x="1565.5" y="-7.9" font-family="Helvetica,sans-Serif" font-size="12.00" fill="#000000">sys/times.h</text>
</g>
<!-- Node2&#45;&gt;Node4 -->
<g id="edge4" class="edge">
<title>Node2&#45;&gt;Node4</title>
<path fill="none" stroke="#191970" d="M1399.2618,-58.4966C1434.5615,-48.411 1487.7906,-33.2027 1524.4576,-22.7264"/>
<polygon fill="#191970" stroke="#191970" points="1525.6781,-26.0178 1534.3318,-19.9052 1523.755,-19.2871 1525.6781,-26.0178"/>
</g>
<!-- Node5 -->
<g id="node6" class="node">
<title>Node5</title>
<polygon fill="#ffffff" stroke="#bfbfbf" points="865,-.5 865,-21.5 916,-21.5 916,-.5 865,-.5"/>
<text text-anchor="middle" x="890.5" y="-7.9" font-family="Helvetica,sans-Serif" font-size="12.00" fill="#000000">iostream</text>
</g>
<!-- Node2&#45;&gt;Node5 -->
<g id="edge5" class="edge">
<title>Node2&#45;&gt;Node5</title>
<path fill="none" stroke="#191970" d="M1302.9012,-66.3198C1220.2244,-61.7805 1066.0837,-50.3506 926.3757,-21.8305"/>
<polygon fill="#191970" stroke="#191970" points="926.8456,-18.3535 916.3429,-19.7474 925.4225,-25.2073 926.8456,-18.3535"/>
</g>
<!-- Node6 -->
<g id="node7" class="node">
<title>Node6</title>
<polygon fill="#ffffff" stroke="#bfbfbf" points="1274.5,-.5 1274.5,-21.5 1322.5,-21.5 1322.5,-.5 1274.5,-.5"/>
<text text-anchor="middle" x="1298.5" y="-7.9" font-family="Helvetica,sans-Serif" font-size="12.00" fill="#000000">iomanip</text>
</g>
<!-- Node2&#45;&gt;Node6 -->
<g id="edge6" class="edge">
<title>Node2&#45;&gt;Node6</title>
<path fill="none" stroke="#191970" d="M1350.7614,-58.3619C1341.5594,-50.0226 1328.5599,-38.2418 1317.8283,-28.5162"/>
<polygon fill="#191970" stroke="#191970" points="1319.9244,-25.6924 1310.1642,-21.5707 1315.2237,-30.8793 1319.9244,-25.6924"/>
</g>
<!-- Node7 -->
<g id="node8" class="node">
<title>Node7</title>
<polygon fill="#ffffff" stroke="#bfbfbf" points="1615,-.5 1615,-21.5 1664,-21.5 1664,-.5 1615,-.5"/>
<text text-anchor="middle" x="1639.5" y="-7.9" font-family="Helvetica,sans-Serif" font-size="12.00" fill="#000000">sstream</text>
</g>
<!-- Node2&#45;&gt;Node7 -->
<g id="edge7" class="edge">
<title>Node2&#45;&gt;Node7</title>
<path fill="none" stroke="#191970" d="M1422.3716,-59.5132C1469.5165,-51.567 1537.0169,-39.142 1604.7303,-21.9706"/>
<polygon fill="#191970" stroke="#191970" points="1605.9062,-25.2822 1614.7199,-19.4027 1604.1634,-18.5026 1605.9062,-25.2822"/>
</g>
<!-- Node8 -->
<g id="node9" class="node">
<title>Node8</title>
<polygon fill="#ffffff" stroke="#bfbfbf" points="1682,-.5 1682,-21.5 1737,-21.5 1737,-.5 1682,-.5"/>
<text text-anchor="middle" x="1709.5" y="-7.9" font-family="Helvetica,sans-Serif" font-size="12.00" fill="#000000">stdexcept</text>
</g>
<!-- Node2&#45;&gt;Node8 -->
<g id="edge8" class="edge">
<title>Node2&#45;&gt;Node8</title>
<path fill="none" stroke="#191970" d="M1422.3331,-59.4223C1425.4329,-58.9384 1428.5028,-58.4618 1431.5,-58 1535.8222,-41.9254 1565.6966,-45.7077 1671.8754,-22.1503"/>
<polygon fill="#191970" stroke="#191970" points="1672.713,-25.5494 1681.7018,-19.9413 1671.1776,-18.7199 1672.713,-25.5494"/>
</g>
<!-- Node9 -->
<g id="node10" class="node">
<title>Node9</title>
<polygon fill="#ffffff" stroke="#bfbfbf" points="1755,-.5 1755,-21.5 1796,-21.5 1796,-.5 1755,-.5"/>
<text text-anchor="middle" x="1775.5" y="-7.9" font-family="Helvetica,sans-Serif" font-size="12.00" fill="#000000">vector</text>
</g>
<!-- Node2&#45;&gt;Node9 -->
<g id="edge9" class="edge">
<title>Node2&#45;&gt;Node9</title>
<path fill="none" stroke="#191970" d="M1422.3151,-59.2981C1425.4195,-58.8466 1428.4954,-58.411 1431.5,-58 1567.8392,-39.3509 1607.7082,-54.4977 1744.7496,-21.9885"/>
<polygon fill="#191970" stroke="#191970" points="1745.8883,-25.3142 1754.7871,-19.5643 1744.2449,-18.5098 1745.8883,-25.3142"/>
</g>
<!-- Node10 -->
<g id="node11" class="node">
<title>Node10</title>
<polygon fill="#ffffff" stroke="#bfbfbf" points="1814,-.5 1814,-21.5 1855,-21.5 1855,-.5 1814,-.5"/>
<text text-anchor="middle" x="1834.5" y="-7.9" font-family="Helvetica,sans-Serif" font-size="12.00" fill="#000000">mutex</text>
</g>
<!-- Node2&#45;&gt;Node10 -->
<g id="edge10" class="edge">
<title>Node2&#45;&gt;Node10</title>
<path fill="none" stroke="#191970" d="M1422.3064,-59.2327C1425.4131,-58.7982 1428.4918,-58.3842 1431.5,-58 1593.9098,-37.2581 1641.0463,-59.063 1803.9248,-21.9024"/>
<polygon fill="#191970" stroke="#191970" points="1804.8485,-25.2811 1813.7982,-19.6106 1803.2657,-18.4624 1804.8485,-25.2811"/>
</g>
<!-- Node11 -->
<g id="node12" class="node">
<title>Node11</title>
<polygon fill="#ffffff" stroke="#bfbfbf" points="1873.5,-.5 1873.5,-21.5 1953.5,-21.5 1953.5,-.5 1873.5,-.5"/>
<text text-anchor="middle" x="1913.5" y="-7.9" font-family="Helvetica,sans-Serif" font-size="12.00" fill="#000000">unordered_map</text>
</g>
<!-- Node2&#45;&gt;Node11 -->
<g id="edge11" class="edge">
<title>Node2&#45;&gt;Node11</title>
<path fill="none" stroke="#191970" d="M1422.3005,-59.1848C1425.4088,-58.7629 1428.4894,-58.3646 1431.5,-58 1619.9314,-35.1796 1671.8507,-50.6683 1863.3569,-21.9937"/>
<polygon fill="#191970" stroke="#191970" points="1864.1128,-25.4192 1873.4741,-20.4576 1863.0619,-18.4985 1864.1128,-25.4192"/>
</g>
<!-- Node12 -->
<g id="node13" class="node">
<title>Node12</title>
<polygon fill="#ffffff" stroke="#bfbfbf" points="1972,-.5 1972,-21.5 2013,-21.5 2013,-.5 1972,-.5"/>
<text text-anchor="middle" x="1992.5" y="-7.9" font-family="Helvetica,sans-Serif" font-size="12.00" fill="#000000">cmath</text>
</g>
<!-- Node2&#45;&gt;Node12 -->
<g id="edge12" class="edge">
<title>Node2&#45;&gt;Node12</title>
<path fill="none" stroke="#191970" d="M1422.2939,-59.1287C1425.4039,-58.7214 1428.4867,-58.3416 1431.5,-58 1663.2079,-31.7305 1729.27,-70.0943 1961.6261,-21.6112"/>
<polygon fill="#191970" stroke="#191970" points="1962.685,-24.9646 1971.7424,-19.4678 1961.2341,-18.1166 1962.685,-24.9646"/>
</g>
<!-- Node13 -->
<g id="node14" class="node">
<title>Node13</title>
<polygon fill="#ffffff" stroke="#bfbfbf" points="2031.5,-.5 2031.5,-21.5 2067.5,-21.5 2067.5,-.5 2031.5,-.5"/>
<text text-anchor="middle" x="2049.5" y="-7.9" font-family="Helvetica,sans-Serif" font-size="12.00" fill="#000000">tuple</text>
</g>
<!-- Node2&#45;&gt;Node13 -->
<g id="edge13" class="edge">
<title>Node2&#45;&gt;Node13</title>
<path fill="none" stroke="#191970" d="M1422.2911,-59.1035C1425.4018,-58.7028 1428.4855,-58.3313 1431.5,-58 1689.7577,-29.6166 1764.0328,-79.1317 2021.4403,-21.5593"/>
<polygon fill="#191970" stroke="#191970" points="2022.4843,-24.9115 2031.4616,-19.2849 2020.9349,-18.0851 2022.4843,-24.9115"/>
</g>
<!-- Node14 -->
<g id="node15" class="node">
<title>Node14</title>
<polygon fill="#ffffff" stroke="#bfbfbf" points="2085.5,-.5 2085.5,-21.5 2119.5,-21.5 2119.5,-.5 2085.5,-.5"/>
<text text-anchor="middle" x="2102.5" y="-7.9" font-family="Helvetica,sans-Serif" font-size="12.00" fill="#000000">ratio</text>
</g>
<!-- Node2&#45;&gt;Node14 -->
<g id="edge14" class="edge">
<title>Node2&#45;&gt;Node14</title>
<path fill="none" stroke="#191970" d="M1422.289,-59.0848C1425.4003,-58.689 1428.4847,-58.3236 1431.5,-58 1713.6278,-27.7186 1794.9178,-85.5126 2075.3748,-21.5217"/>
<polygon fill="#191970" stroke="#191970" points="2076.4827,-24.8579 2085.4362,-19.1936 2074.9046,-18.0381 2076.4827,-24.8579"/>
</g>
<!-- Node15 -->
<g id="node16" class="node">
<title>Node15</title>
<polygon fill="#ffffff" stroke="#bfbfbf" points="1340.5,-.5 1340.5,-21.5 1384.5,-21.5 1384.5,-.5 1340.5,-.5"/>
<text text-anchor="middle" x="1362.5" y="-7.9" font-family="Helvetica,sans-Serif" font-size="12.00" fill="#000000">chrono</text>
</g>
<!-- Node2&#45;&gt;Node15 -->
<g id="edge15" class="edge">
<title>Node2&#45;&gt;Node15</title>
<path fill="none" stroke="#191970" d="M1362.5,-58.3619C1362.5,-50.9219 1362.5,-40.7427 1362.5,-31.7276"/>
<polygon fill="#191970" stroke="#191970" points="1366.0001,-31.5706 1362.5,-21.5707 1359.0001,-31.5707 1366.0001,-31.5706"/>
</g>
<!-- Node16 -->
<g id="node17" class="node">
<title>Node16</title>
<polygon fill="#ffffff" stroke="#bfbfbf" points="1402.5,-.5 1402.5,-21.5 1440.5,-21.5 1440.5,-.5 1402.5,-.5"/>
<text text-anchor="middle" x="1421.5" y="-7.9" font-family="Helvetica,sans-Serif" font-size="12.00" fill="#000000">ctime</text>
</g>
<!-- Node2&#45;&gt;Node16 -->
<g id="edge16" class="edge">
<title>Node2&#45;&gt;Node16</title>
<path fill="none" stroke="#191970" d="M1373.3215,-58.3619C1381.7215,-50.1043 1393.5538,-38.4725 1403.3902,-28.8029"/>
<polygon fill="#191970" stroke="#191970" points="1406.0695,-31.077 1410.7471,-21.5707 1401.1622,-26.0851 1406.0695,-31.077"/>
</g>
<!-- Node17 -->
<g id="node18" class="node">
<title>Node17</title>
<polygon fill="#ffffff" stroke="#bfbfbf" points="804,-.5 804,-21.5 847,-21.5 847,-.5 804,-.5"/>
<text text-anchor="middle" x="825.5" y="-7.9" font-family="Helvetica,sans-Serif" font-size="12.00" fill="#000000">cstdint</text>
</g>
<!-- Node2&#45;&gt;Node17 -->
<g id="edge17" class="edge">
<title>Node2&#45;&gt;Node17</title>
<path fill="none" stroke="#191970" d="M1302.9881,-65.3328C1192.1287,-58.2051 956.982,-41.618 857.3732,-21.6334"/>
<polygon fill="#191970" stroke="#191970" points="857.8275,-18.1519 847.3187,-19.4991 856.374,-24.9993 857.8275,-18.1519"/>
</g>
<!-- Node18 -->
<g id="node19" class="node">
<title>Node18</title>
<polygon fill="#ffffff" stroke="#bfbfbf" points="1458.5,-.5 1458.5,-21.5 1516.5,-21.5 1516.5,-.5 1458.5,-.5"/>
<text text-anchor="middle" x="1487.5" y="-7.9" font-family="Helvetica,sans-Serif" font-size="12.00" fill="#000000">type_traits</text>
</g>
<!-- Node2&#45;&gt;Node18 -->
<g id="edge18" class="edge">
<title>Node2&#45;&gt;Node18</title>
<path fill="none" stroke="#191970" d="M1385.1366,-58.4966C1404.7479,-49.397 1433.3464,-36.1273 1455.3333,-25.9253"/>
<polygon fill="#191970" stroke="#191970" points="1457.0115,-29.0051 1464.6094,-21.6212 1454.0652,-22.6554 1457.0115,-29.0051"/>
</g>
<!-- Node2&#45;&gt;Node19 -->
<g id="edge19" class="edge">
<title>Node2&#45;&gt;Node19</title>
<path fill="none" stroke="#191970" d="M1302.7542,-61.8157C1238.1107,-53.762 1131.7903,-39.7038 1030.6691,-22.1192"/>
<polygon fill="#191970" stroke="#191970" points="1031.0405,-18.631 1020.5862,-20.3509 1029.8312,-25.5258 1031.0405,-18.631"/>
</g>
<!-- Node2&#45;&gt;Node20 -->
<g id="edge20" class="edge">
<title>Node2&#45;&gt;Node20</title>
<path fill="none" stroke="#191970" d="M1302.976,-67.8627C1167.592,-64.7966 826.1047,-54.3581 530.3853,-21.9858"/>
<polygon fill="#191970" stroke="#191970" points="530.6509,-18.494 520.327,-20.8743 529.882,-25.4516 530.6509,-18.494"/>
</g>
<!-- Node2&#45;&gt;Node21 -->
<g id="edge21" class="edge">
<title>Node2&#45;&gt;Node21</title>
<path fill="none" stroke="#191970" d="M1313.7861,-58.4966C1268.4131,-48.7136 1200.6857,-34.1107 1152.3176,-23.6819"/>
<polygon fill="#191970" stroke="#191970" points="1152.8183,-20.2095 1142.3052,-21.5231 1151.3429,-27.0522 1152.8183,-20.2095"/>
</g>
<!-- Node2&#45;&gt;Node22 -->
<g id="edge22" class="edge">
<title>Node2&#45;&gt;Node22</title>
<path fill="none" stroke="#191970" d="M1335.155,-58.4966C1310.8577,-49.1639 1275.1404,-35.4447 1248.3322,-25.1475"/>
<polygon fill="#191970" stroke="#191970" points="1249.4863,-21.8415 1238.8962,-21.5231 1246.9763,-28.376 1249.4863,-21.8415"/>
</g>
<!-- Node23&#45;&gt;Node1 -->
<g id="edge39" class="edge">
<title>Node23&#45;&gt;Node1</title>
<path fill="none" stroke="#191970" d="M688.0805,-58.3619C683.3441,-50.5131 676.7682,-39.6159 671.118,-30.2527"/>
<polygon fill="#191970" stroke="#191970" points="674.0422,-28.3242 665.8788,-21.5707 668.0489,-31.9409 674.0422,-28.3242"/>
</g>
<!-- Node23&#45;&gt;Node3 -->
<g id="edge25" class="edge">
<title>Node23&#45;&gt;Node3</title>
<path fill="none" stroke="#191970" d="M706.7888,-58.3619C716.5167,-49.9408 730.2982,-38.0105 741.5955,-28.2308"/>
<polygon fill="#191970" stroke="#191970" points="744.0192,-30.7619 749.2891,-21.5707 739.4377,-25.4695 744.0192,-30.7619"/>
</g>
<!-- Node23&#45;&gt;Node5 -->
<g id="edge27" class="edge">
<title>Node23&#45;&gt;Node5</title>
<path fill="none" stroke="#191970" d="M731.9157,-58.4951C762.6919,-49.7763 807.6783,-36.8543 855.0793,-22.3844"/>
<polygon fill="#191970" stroke="#191970" points="856.3712,-25.6493 864.9067,-19.3726 854.32,-18.9565 856.3712,-25.6493"/>
</g>
<!-- Node23&#45;&gt;Node6 -->
<g id="edge30" class="edge">
<title>Node23&#45;&gt;Node6</title>
<path fill="none" stroke="#191970" d="M737.7476,-66.785C849.4349,-60.8565 1146.4258,-43.7179 1264.0223,-21.8282"/>
<polygon fill="#191970" stroke="#191970" points="1265.0326,-25.1967 1274.1696,-19.8334 1263.6823,-18.3281 1265.0326,-25.1967"/>
</g>
<!-- Node23&#45;&gt;Node17 -->
<g id="edge32" class="edge">
<title>Node23&#45;&gt;Node17</title>
<path fill="none" stroke="#191970" d="M718.2231,-58.4966C739.5131,-49.0705 770.9096,-35.1698 794.2417,-24.8395"/>
<polygon fill="#191970" stroke="#191970" points="795.9676,-27.9032 803.6945,-20.6543 793.1337,-21.5025 795.9676,-27.9032"/>
</g>
<!-- Node23&#45;&gt;Node19 -->
<g id="edge33" class="edge">
<title>Node23&#45;&gt;Node19</title>
<path fill="none" stroke="#191970" d="M737.5204,-60.3505C781.8429,-51.416 853.2086,-36.9663 924.3423,-22.2301"/>
<polygon fill="#191970" stroke="#191970" points="925.2943,-25.6072 934.3752,-20.1494 923.8728,-18.7531 925.2943,-25.6072"/>
</g>
<!-- Node23&#45;&gt;Node20 -->
<g id="edge36" class="edge">
<title>Node23&#45;&gt;Node20</title>
<path fill="none" stroke="#191970" d="M652.6676,-58.4966C614.1117,-48.8159 556.7589,-34.4156 515.3176,-24.0105"/>
<polygon fill="#191970" stroke="#191970" points="515.9621,-20.5637 505.4108,-21.5231 514.2574,-27.353 515.9621,-20.5637"/>
</g>
<!-- Node23&#45;&gt;Node21 -->
<g id="edge37" class="edge">
<title>Node23&#45;&gt;Node21</title>
<path fill="none" stroke="#191970" d="M737.6621,-63.3771C799.6515,-55.2064 917.7278,-39.2896 1028.3644,-22.1438"/>
<polygon fill="#191970" stroke="#191970" points="1029.0169,-25.5845 1038.3597,-20.5882 1027.9404,-18.6678 1029.0169,-25.5845"/>
</g>
<!-- Node23&#45;&gt;Node22 -->
<g id="edge34" class="edge">
<title>Node23&#45;&gt;Node22</title>
<path fill="none" stroke="#191970" d="M737.7678,-66.0564C818.2195,-60.2693 996.4349,-45.977 1156.7287,-21.9886"/>
<polygon fill="#191970" stroke="#191970" points="1157.4085,-25.4257 1166.7724,-20.4691 1156.3613,-18.5044 1157.4085,-25.4257"/>
</g>
<!-- Node24 -->
<g id="node25" class="node">
<title>Node24</title>
<polygon fill="#ffffff" stroke="#bfbfbf" points="360,-.5 360,-21.5 389,-21.5 389,-.5 360,-.5"/>
<text text-anchor="middle" x="374.5" y="-7.9" font-family="Helvetica,sans-Serif" font-size="12.00" fill="#000000">ios</text>
</g>
<!-- Node23&#45;&gt;Node24 -->
<g id="edge26" class="edge">
<title>Node23&#45;&gt;Node24</title>
<path fill="none" stroke="#191970" d="M651.2799,-65.8422C594.8274,-60.9141 493.0762,-49.2737 398.9076,-21.4375"/>
<polygon fill="#191970" stroke="#191970" points="399.8194,-18.0568 389.2344,-18.5119 397.7929,-24.7571 399.8194,-18.0568"/>
</g>
<!-- Node23&#45;&gt;Node25 -->
<g id="edge28" class="edge">
<title>Node23&#45;&gt;Node25</title>
<path fill="none" stroke="#191970" d="M651.1021,-67.2655C529.8927,-62.1961 188.5666,-46.3301 57.2723,-21.8692"/>
<polygon fill="#191970" stroke="#191970" points="57.5637,-18.3595 47.0761,-19.863 56.2123,-25.2278 57.5637,-18.3595"/>
</g>
<!-- Node23&#45;&gt;Node26 -->
<g id="edge29" class="edge">
<title>Node23&#45;&gt;Node26</title>
<path fill="none" stroke="#191970" d="M651.2022,-67.1511C537.7644,-62.0522 233.0134,-46.6515 114.0728,-21.7516"/>
<polygon fill="#191970" stroke="#191970" points="114.6767,-18.3005 104.1558,-19.5502 113.1597,-25.1342 114.6767,-18.3005"/>
</g>
<!-- Node27 -->
<g id="node28" class="node">
<title>Node27</title>
<polygon fill="#ffffff" stroke="#bfbfbf" points="538,-.5 538,-21.5 581,-21.5 581,-.5 538,-.5"/>
<text text-anchor="middle" x="559.5" y="-7.9" font-family="Helvetica,sans-Serif" font-size="12.00" fill="#000000">stdio.h</text>
</g>
<!-- Node23&#45;&gt;Node27 -->
<g id="edge31" class="edge">
<title>Node23&#45;&gt;Node27</title>
<path fill="none" stroke="#191970" d="M670.0525,-58.4966C647.7474,-48.9137 614.6777,-34.706 590.5194,-24.3269"/>
<polygon fill="#191970" stroke="#191970" points="591.6625,-21.0087 581.093,-20.277 588.8993,-27.4402 591.6625,-21.0087"/>
</g>
<!-- Node23&#45;&gt;Node28 -->
<g id="edge35" class="edge">
<title>Node23&#45;&gt;Node28</title>
<path fill="none" stroke="#191970" d="M651.3726,-66.129C569.8466,-60.3938 387.375,-46.09 223.3363,-21.9959"/>
<polygon fill="#191970" stroke="#191970" points="223.4637,-18.4766 213.0581,-20.4697 222.4355,-25.4006 223.4637,-18.4766"/>
</g>
<!-- Node23&#45;&gt;Node29 -->
<g id="edge38" class="edge">
<title>Node23&#45;&gt;Node29</title>
<path fill="none" stroke="#191970" d="M651.3898,-63.5352C588.1669,-55.4237 466.3373,-39.4249 351.7944,-22.0065"/>
<polygon fill="#191970" stroke="#191970" points="352.2131,-18.5299 341.7992,-20.48 351.1562,-25.4497 352.2131,-18.5299"/>
</g>
</g>
</svg>
