<?xml version="1.0" encoding="UTF-8" standalone="no"?>
<!DOCTYPE svg PUBLIC "-//W3C//DTD SVG 1.1//EN"
 "http://www.w3.org/Graphics/SVG/1.1/DTD/svg11.dtd">
<!-- Generated by graphviz version 2.40.1 (20161225.0304)
 -->
<!-- Title: NAME_TIM::internal::base_timer_data Pages: 1 -->
<svg width="279pt" height="983pt"
 viewBox="0.00 0.00 279.00 983.00" xmlns="http://www.w3.org/2000/svg" xmlns:xlink="http://www.w3.org/1999/xlink">
<g id="graph0" class="graph" transform="scale(1 1) rotate(0) translate(4 979)">
<title>NAME_TIM::internal::base_timer_data</title>
<polygon fill="#ffffff" stroke="transparent" points="-4,4 -4,-979 275,-979 275,4 -4,4"/>
<!-- Node1 -->
<g id="node1" class="node">
<title>Node1</title>
<polygon fill="#bfbfbf" stroke="#000000" points="121,-.5 121,-219.5 219,-219.5 219,-.5 121,-.5"/>
<text text-anchor="start" x="129" y="-205.9" font-family="Helvetica,sans-Serif" font-size="12.00" fill="#000000">NAME_TIM::internal</text>
<text text-anchor="middle" x="170" y="-192.9" font-family="Helvetica,sans-Serif" font-size="12.00" fill="#000000">::base_timer_data</text>
<polyline fill="none" stroke="#000000" points="121,-185.5 219,-185.5 "/>
<text text-anchor="middle" x="170" y="-171.9" font-family="Helvetica,sans-Serif" font-size="12.00" fill="#000000"> </text>
<polyline fill="none" stroke="#000000" points="121,-164.5 219,-164.5 "/>
<text text-anchor="start" x="129" y="-150.9" font-family="Helvetica,sans-Serif" font-size="12.00" fill="#000000">+ base_timer_data()</text>
<text text-anchor="start" x="129" y="-137.9" font-family="Helvetica,sans-Serif" font-size="12.00" fill="#000000">+ start()</text>
<text text-anchor="start" x="129" y="-124.9" font-family="Helvetica,sans-Serif" font-size="12.00" fill="#000000">+ stop()</text>
<text text-anchor="start" x="129" y="-111.9" font-family="Helvetica,sans-Serif" font-size="12.00" fill="#000000">+ start()</text>
<text text-anchor="start" x="129" y="-98.9" font-family="Helvetica,sans-Serif" font-size="12.00" fill="#000000">+ stop()</text>
<text text-anchor="start" x="129" y="-85.9" font-family="Helvetica,sans-Serif" font-size="12.00" fill="#000000">+ running()</text>
<text text-anchor="start" x="129" y="-72.9" font-family="Helvetica,sans-Serif" font-size="12.00" fill="#000000">+ serialize()</text>
<text text-anchor="start" x="129" y="-59.9" font-family="Helvetica,sans-Serif" font-size="12.00" fill="#000000">+ rss_init()</text>
<text text-anchor="start" x="129" y="-46.9" font-family="Helvetica,sans-Serif" font-size="12.00" fill="#000000">+ rss_record()</text>
<text text-anchor="start" x="129" y="-33.9" font-family="Helvetica,sans-Serif" font-size="12.00" fill="#000000">+ rss()</text>
<text text-anchor="start" x="129" y="-20.9" font-family="Helvetica,sans-Serif" font-size="12.00" fill="#000000">+ rss()</text>
<text text-anchor="start" x="129" y="-7.9" font-family="Helvetica,sans-Serif" font-size="12.00" fill="#000000">+ operator=()</text>
</g>
<!-- Node2 -->
<g id="node2" class="node">
<title>Node2</title>
<g id="a_node2"><a xlink:href="../../d5/d6c/class_n_a_m_e___t_i_m_1_1internal_1_1base__rss__usage.html" target="_top" xlink:title="{NAME_TIM::internal\l::base_rss_usage\n||+ init()\l+ record()\l+ total()\l+ self()\l+ total()\l+ self()\l+ total_min()\l+ self_min()\l+ total_min()\l+ self_min()\l+ max()\l+ operator+=()\l+ operator&#45;=()\l+ operator=()\l}">
<polygon fill="#ffffff" stroke="#000000" points="6,-269.5 6,-514.5 104,-514.5 104,-269.5 6,-269.5"/>
<text text-anchor="start" x="14" y="-500.9" font-family="Helvetica,sans-Serif" font-size="12.00" fill="#000000">NAME_TIM::internal</text>
<text text-anchor="middle" x="55" y="-487.9" font-family="Helvetica,sans-Serif" font-size="12.00" fill="#000000">::base_rss_usage</text>
<polyline fill="none" stroke="#000000" points="6,-480.5 104,-480.5 "/>
<text text-anchor="middle" x="55" y="-466.9" font-family="Helvetica,sans-Serif" font-size="12.00" fill="#000000"> </text>
<polyline fill="none" stroke="#000000" points="6,-459.5 104,-459.5 "/>
<text text-anchor="start" x="14" y="-445.9" font-family="Helvetica,sans-Serif" font-size="12.00" fill="#000000">+ init()</text>
<text text-anchor="start" x="14" y="-432.9" font-family="Helvetica,sans-Serif" font-size="12.00" fill="#000000">+ record()</text>
<text text-anchor="start" x="14" y="-419.9" font-family="Helvetica,sans-Serif" font-size="12.00" fill="#000000">+ total()</text>
<text text-anchor="start" x="14" y="-406.9" font-family="Helvetica,sans-Serif" font-size="12.00" fill="#000000">+ self()</text>
<text text-anchor="start" x="14" y="-393.9" font-family="Helvetica,sans-Serif" font-size="12.00" fill="#000000">+ total()</text>
<text text-anchor="start" x="14" y="-380.9" font-family="Helvetica,sans-Serif" font-size="12.00" fill="#000000">+ self()</text>
<text text-anchor="start" x="14" y="-367.9" font-family="Helvetica,sans-Serif" font-size="12.00" fill="#000000">+ total_min()</text>
<text text-anchor="start" x="14" y="-354.9" font-family="Helvetica,sans-Serif" font-size="12.00" fill="#000000">+ self_min()</text>
<text text-anchor="start" x="14" y="-341.9" font-family="Helvetica,sans-Serif" font-size="12.00" fill="#000000">+ total_min()</text>
<text text-anchor="start" x="14" y="-328.9" font-family="Helvetica,sans-Serif" font-size="12.00" fill="#000000">+ self_min()</text>
<text text-anchor="start" x="14" y="-315.9" font-family="Helvetica,sans-Serif" font-size="12.00" fill="#000000">+ max()</text>
<text text-anchor="start" x="14" y="-302.9" font-family="Helvetica,sans-Serif" font-size="12.00" fill="#000000">+ operator+=()</text>
<text text-anchor="start" x="14" y="-289.9" font-family="Helvetica,sans-Serif" font-size="12.00" fill="#000000">+ operator&#45;=()</text>
<text text-anchor="start" x="14" y="-276.9" font-family="Helvetica,sans-Serif" font-size="12.00" fill="#000000">+ operator=()</text>
</a>
</g>
</g>
<!-- Node2&#45;&gt;Node1 -->
<g id="edge1" class="edge">
<title>Node2&#45;&gt;Node1</title>
<path fill="none" stroke="#404040" d="M104.1039,-271.5886C109.5887,-258.139 115.1777,-244.4339 120.6654,-230.9771"/>
<polygon fill="none" stroke="#404040" points="120.7153,-230.8545 119.2771,-223.7883 125.2467,-219.7429 126.6848,-226.8092 120.7153,-230.8545"/>
<text text-anchor="middle" x="132.5" y="-241.4" font-family="Helvetica,sans-Serif" font-size="12.00" fill="#000000"> #m_rss</text>
</g>
<!-- Node3 -->
<g id="node3" class="node">
<title>Node3</title>
<g id="a_node3"><a xlink:href="../../df/d64/struct_n_a_m_e___t_i_m_1_1rss_1_1usage.html" target="_top" xlink:title="{NAME_TIM::rss::usage\n||+ usage()\l+ usage()\l+ usage()\l+ operator=()\l+ record()\l+ record()\l+ operator()()\l+ operator+=()\l+ operator&#45;=()\l+ current()\l+ peak()\l+ serialize()\l+ max()\l+ min()\l}">
<polygon fill="#ffffff" stroke="#000000" points="0,-616.5 0,-848.5 110,-848.5 110,-616.5 0,-616.5"/>
<text text-anchor="middle" x="55" y="-834.9" font-family="Helvetica,sans-Serif" font-size="12.00" fill="#000000">NAME_TIM::rss::usage</text>
<polyline fill="none" stroke="#000000" points="0,-827.5 110,-827.5 "/>
<text text-anchor="middle" x="55" y="-813.9" font-family="Helvetica,sans-Serif" font-size="12.00" fill="#000000"> </text>
<polyline fill="none" stroke="#000000" points="0,-806.5 110,-806.5 "/>
<text text-anchor="start" x="8" y="-792.9" font-family="Helvetica,sans-Serif" font-size="12.00" fill="#000000">+ usage()</text>
<text text-anchor="start" x="8" y="-779.9" font-family="Helvetica,sans-Serif" font-size="12.00" fill="#000000">+ usage()</text>
<text text-anchor="start" x="8" y="-766.9" font-family="Helvetica,sans-Serif" font-size="12.00" fill="#000000">+ usage()</text>
<text text-anchor="start" x="8" y="-753.9" font-family="Helvetica,sans-Serif" font-size="12.00" fill="#000000">+ operator=()</text>
<text text-anchor="start" x="8" y="-740.9" font-family="Helvetica,sans-Serif" font-size="12.00" fill="#000000">+ record()</text>
<text text-anchor="start" x="8" y="-727.9" font-family="Helvetica,sans-Serif" font-size="12.00" fill="#000000">+ record()</text>
<text text-anchor="start" x="8" y="-714.9" font-family="Helvetica,sans-Serif" font-size="12.00" fill="#000000">+ operator()()</text>
<text text-anchor="start" x="8" y="-701.9" font-family="Helvetica,sans-Serif" font-size="12.00" fill="#000000">+ operator+=()</text>
<text text-anchor="start" x="8" y="-688.9" font-family="Helvetica,sans-Serif" font-size="12.00" fill="#000000">+ operator&#45;=()</text>
<text text-anchor="start" x="8" y="-675.9" font-family="Helvetica,sans-Serif" font-size="12.00" fill="#000000">+ current()</text>
<text text-anchor="start" x="8" y="-662.9" font-family="Helvetica,sans-Serif" font-size="12.00" fill="#000000">+ peak()</text>
<text text-anchor="start" x="8" y="-649.9" font-family="Helvetica,sans-Serif" font-size="12.00" fill="#000000">+ serialize()</text>
<text text-anchor="start" x="8" y="-636.9" font-family="Helvetica,sans-Serif" font-size="12.00" fill="#000000">+ max()</text>
<text text-anchor="start" x="8" y="-623.9" font-family="Helvetica,sans-Serif" font-size="12.00" fill="#000000">+ min()</text>
</a>
</g>
</g>
<!-- Node3&#45;&gt;Node2 -->
<g id="edge2" class="edge">
<title>Node3&#45;&gt;Node2</title>
<path fill="none" stroke="#404040" d="M55,-616.2716C55,-587.4859 55,-556.4017 55,-526.8119"/>
<polygon fill="none" stroke="#404040" points="55.0001,-526.6765 51,-520.6765 55,-514.6765 59,-520.6764 55.0001,-526.6765"/>
<text text-anchor="middle" x="89.5" y="-588.4" font-family="Helvetica,sans-Serif" font-size="12.00" fill="#000000"> #m_rss_tmp</text>
<text text-anchor="middle" x="89.5" y="-575.4" font-family="Helvetica,sans-Serif" font-size="12.00" fill="#000000">#m_rss_self</text>
<text text-anchor="middle" x="89.5" y="-562.4" font-family="Helvetica,sans-Serif" font-size="12.00" fill="#000000">#m_rss_tot</text>
<text text-anchor="middle" x="89.5" y="-549.4" font-family="Helvetica,sans-Serif" font-size="12.00" fill="#000000">#m_rss_self_min</text>
<text text-anchor="middle" x="89.5" y="-536.4" font-family="Helvetica,sans-Serif" font-size="12.00" fill="#000000">#m_rss_tot_min</text>
</g>
<!-- Node4 -->
<g id="node4" class="node">
<title>Node4</title>
<polygon fill="#ffffff" stroke="#bfbfbf" points="33,-911.5 33,-974.5 77,-974.5 77,-911.5 33,-911.5"/>
<text text-anchor="middle" x="55" y="-960.9" font-family="Helvetica,sans-Serif" font-size="12.00" fill="#000000">int64_t</text>
<polyline fill="none" stroke="#bfbfbf" points="33,-953.5 77,-953.5 "/>
<text text-anchor="middle" x="55" y="-939.9" font-family="Helvetica,sans-Serif" font-size="12.00" fill="#000000"> </text>
<polyline fill="none" stroke="#bfbfbf" points="33,-932.5 77,-932.5 "/>
<text text-anchor="middle" x="55" y="-918.9" font-family="Helvetica,sans-Serif" font-size="12.00" fill="#000000"> </text>
</g>
<!-- Node4&#45;&gt;Node3 -->
<g id="edge3" class="edge">
<title>Node4&#45;&gt;Node3</title>
<path fill="none" stroke="#404040" d="M55,-911.486C55,-897.3063 55,-879.5382 55,-860.7416"/>
<polygon fill="none" stroke="#404040" points="55.0001,-860.5998 51,-854.5998 55,-848.5998 59,-854.5997 55.0001,-860.5998"/>
<text text-anchor="middle" x="82.5" y="-883.4" font-family="Helvetica,sans-Serif" font-size="12.00" fill="#000000"> +m_curr_rss</text>
<text text-anchor="middle" x="82.5" y="-870.4" font-family="Helvetica,sans-Serif" font-size="12.00" fill="#000000">+m_peak_rss</text>
</g>
<!-- Node5 -->
<g id="node5" class="node">
<title>Node5</title>
<polygon fill="#ffffff" stroke="#bfbfbf" points="122.5,-354 122.5,-430 217.5,-430 217.5,-354 122.5,-354"/>
<text text-anchor="start" x="130.5" y="-416.4" font-family="Helvetica,sans-Serif" font-size="12.00" fill="#000000">tuple&lt; time_point_t,</text>
<text text-anchor="middle" x="170" y="-403.4" font-family="Helvetica,sans-Serif" font-size="12.00" fill="#000000"> time_point_t &gt;</text>
<polyline fill="none" stroke="#bfbfbf" points="122.5,-396 217.5,-396 "/>
<text text-anchor="middle" x="170" y="-382.4" font-family="Helvetica,sans-Serif" font-size="12.00" fill="#000000"> </text>
<polyline fill="none" stroke="#bfbfbf" points="122.5,-375 217.5,-375 "/>
<text text-anchor="middle" x="170" y="-361.4" font-family="Helvetica,sans-Serif" font-size="12.00" fill="#000000"> </text>
</g>
<!-- Node5&#45;&gt;Node1 -->
<g id="edge4" class="edge">
<title>Node5&#45;&gt;Node1</title>
<path fill="none" stroke="#404040" d="M170,-353.9682C170,-322.4318 170,-275.785 170,-231.7028"/>
<polygon fill="none" stroke="#404040" points="170.0001,-231.6562 166,-225.6562 170,-219.6562 174,-225.6561 170.0001,-231.6562"/>
<text text-anchor="middle" x="189" y="-241.4" font-family="Helvetica,sans-Serif" font-size="12.00" fill="#000000"> #m_data</text>
</g>
<!-- Node6 -->
<g id="node6" class="node">
<title>Node6</title>
<polygon fill="#ffffff" stroke="#bfbfbf" points="236,-360.5 236,-423.5 270,-423.5 270,-360.5 236,-360.5"/>
<text text-anchor="middle" x="253" y="-409.9" font-family="Helvetica,sans-Serif" font-size="12.00" fill="#000000">bool</text>
<polyline fill="none" stroke="#bfbfbf" points="236,-402.5 270,-402.5 "/>
<text text-anchor="middle" x="253" y="-388.9" font-family="Helvetica,sans-Serif" font-size="12.00" fill="#000000"> </text>
<polyline fill="none" stroke="#bfbfbf" points="236,-381.5 270,-381.5 "/>
<text text-anchor="middle" x="253" y="-367.9" font-family="Helvetica,sans-Serif" font-size="12.00" fill="#000000"> </text>
</g>
<!-- Node6&#45;&gt;Node1 -->
<g id="edge5" class="edge">
<title>Node6&#45;&gt;Node1</title>
<path fill="none" stroke="#404040" d="M247.5385,-360.3682C242.9263,-335.353 235.692,-299.6577 227,-269 223.5093,-256.6879 219.5523,-243.953 215.3894,-231.2971"/>
<polygon fill="none" stroke="#404040" points="215.3209,-231.0918 209.6248,-226.6697 211.5159,-219.711 217.212,-224.1331 215.3209,-231.0918"/>
<text text-anchor="middle" x="245.5" y="-241.4" font-family="Helvetica,sans-Serif" font-size="12.00" fill="#000000"> #m_running</text>
</g>
</g>
</svg>
