<?xml version="1.0" encoding="UTF-8" standalone="no"?>
<!DOCTYPE svg PUBLIC "-//W3C//DTD SVG 1.1//EN"
 "http://www.w3.org/Graphics/SVG/1.1/DTD/svg11.dtd">
<!-- Generated by graphviz version 2.40.1 (20161225.0304)
 -->
<!-- Title: NAME_TIM::timer_tuple Pages: 1 -->
<svg width="121pt" height="315pt"
 viewBox="0.00 0.00 121.00 315.00" xmlns="http://www.w3.org/2000/svg" xmlns:xlink="http://www.w3.org/1999/xlink">
<g id="graph0" class="graph" transform="scale(1 1) rotate(0) translate(4 311)">
<title>NAME_TIM::timer_tuple</title>
<polygon fill="#ffffff" stroke="transparent" points="-4,4 -4,-311 117,-311 117,4 -4,4"/>
<!-- Node2 -->
<g id="node1" class="node">
<title>Node2</title>
<polygon fill="#bfbfbf" stroke="#000000" points="0,-.5 0,-193.5 113,-193.5 113,-.5 0,-.5"/>
<text text-anchor="middle" x="56.5" y="-179.9" font-family="Helvetica,sans-Serif" font-size="12.00" fill="#000000">NAME_TIM::timer_tuple</text>
<polyline fill="none" stroke="#000000" points="0,-172.5 113,-172.5 "/>
<text text-anchor="middle" x="56.5" y="-158.9" font-family="Helvetica,sans-Serif" font-size="12.00" fill="#000000"> </text>
<polyline fill="none" stroke="#000000" points="0,-151.5 113,-151.5 "/>
<text text-anchor="start" x="8" y="-137.9" font-family="Helvetica,sans-Serif" font-size="12.00" fill="#000000">+ timer_tuple()</text>
<text text-anchor="start" x="8" y="-124.9" font-family="Helvetica,sans-Serif" font-size="12.00" fill="#000000">+ timer_tuple()</text>
<text text-anchor="start" x="8" y="-111.9" font-family="Helvetica,sans-Serif" font-size="12.00" fill="#000000">+ operator=()</text>
<text text-anchor="start" x="8" y="-98.9" font-family="Helvetica,sans-Serif" font-size="12.00" fill="#000000">+ operator==()</text>
<text text-anchor="start" x="8" y="-85.9" font-family="Helvetica,sans-Serif" font-size="12.00" fill="#000000">+ operator!=()</text>
<text text-anchor="start" x="8" y="-72.9" font-family="Helvetica,sans-Serif" font-size="12.00" fill="#000000">+ operator+=()</text>
<text text-anchor="start" x="8" y="-59.9" font-family="Helvetica,sans-Serif" font-size="12.00" fill="#000000">+ operator+()</text>
<text text-anchor="start" x="8" y="-46.9" font-family="Helvetica,sans-Serif" font-size="12.00" fill="#000000">+ key()</text>
<text text-anchor="start" x="8" y="-33.9" font-family="Helvetica,sans-Serif" font-size="12.00" fill="#000000">+ key()</text>
<text text-anchor="start" x="8" y="-20.9" font-family="Helvetica,sans-Serif" font-size="12.00" fill="#000000">+ level()</text>
<text text-anchor="start" x="8" y="-7.9" font-family="Helvetica,sans-Serif" font-size="12.00" fill="#000000">and 6 more...</text>
</g>
<!-- Node3 -->
<g id="node2" class="node">
<title>Node3</title>
<polygon fill="#ffffff" stroke="#bfbfbf" points="8.5,-230.5 8.5,-306.5 104.5,-306.5 104.5,-230.5 8.5,-230.5"/>
<text text-anchor="start" x="16.5" y="-292.9" font-family="Helvetica,sans-Serif" font-size="12.00" fill="#000000">internal::base_timer</text>
<text text-anchor="middle" x="56.5" y="-279.9" font-family="Helvetica,sans-Serif" font-size="12.00" fill="#000000">_tuple_t</text>
<polyline fill="none" stroke="#bfbfbf" points="8.5,-272.5 104.5,-272.5 "/>
<text text-anchor="middle" x="56.5" y="-258.9" font-family="Helvetica,sans-Serif" font-size="12.00" fill="#000000"> </text>
<polyline fill="none" stroke="#bfbfbf" points="8.5,-251.5 104.5,-251.5 "/>
<text text-anchor="middle" x="56.5" y="-237.9" font-family="Helvetica,sans-Serif" font-size="12.00" fill="#000000"> </text>
</g>
<!-- Node3&#45;&gt;Node2 -->
<g id="edge1" class="edge">
<title>Node3&#45;&gt;Node2</title>
<path fill="none" stroke="#191970" d="M56.5,-220.2168C56.5,-211.8734 56.5,-202.9409 56.5,-193.8388"/>
<polygon fill="none" stroke="#191970" points="53.0001,-220.4386 56.5,-230.4386 60.0001,-220.4386 53.0001,-220.4386"/>
</g>
</g>
</svg>
