<?xml version="1.0" encoding="UTF-8" standalone="no"?>
<!DOCTYPE svg PUBLIC "-//W3C//DTD SVG 1.1//EN"
 "http://www.w3.org/Graphics/SVG/1.1/DTD/svg11.dtd">
<!-- Generated by graphviz version 2.40.1 (20161225.0304)
 -->
<!-- Title: timemory/signal_detection.hpp Pages: 1 -->
<svg width="709pt" height="333pt"
 viewBox="0.00 0.00 709.00 333.00" xmlns="http://www.w3.org/2000/svg" xmlns:xlink="http://www.w3.org/1999/xlink">
<g id="graph0" class="graph" transform="scale(1 1) rotate(0) translate(4 329)">
<title>timemory/signal_detection.hpp</title>
<polygon fill="#ffffff" stroke="transparent" points="-4,4 -4,-329 705,-329 705,4 -4,4"/>
<!-- Node20 -->
<g id="node1" class="node">
<title>Node20</title>
<polygon fill="#bfbfbf" stroke="#000000" points="375,-303.5 375,-324.5 514,-324.5 514,-303.5 375,-303.5"/>
<text text-anchor="middle" x="444.5" y="-310.9" font-family="Helvetica,sans-Serif" font-size="12.00" fill="#000000">timemory/signal_detection.hpp</text>
</g>
<!-- Node21 -->
<g id="node2" class="node">
<title>Node21</title>
<g id="a_node2"><a xlink:href="../../d6/d8e/test__timing_8cpp.html" target="_top" xlink:title="examples/ex1/test_timing.cpp">
<polygon fill="#ffffff" stroke="#000000" points="0,-7 0,-28 135,-28 135,-7 0,-7"/>
<text text-anchor="middle" x="67.5" y="-14.4" font-family="Helvetica,sans-Serif" font-size="12.00" fill="#000000">examples/ex1/test_timing.cpp</text>
</a>
</g>
</g>
<!-- Node20&#45;&gt;Node21 -->
<g id="edge1" class="edge">
<title>Node20&#45;&gt;Node21</title>
<path fill="none" stroke="#191970" d="M364.6079,-303.8682C261.0288,-288.4551 93.5,-254.7537 93.5,-198 93.5,-198 93.5,-198 93.5,-140 93.5,-97.8222 78.5687,-49.2209 71.3364,-28.1535"/>
<polygon fill="#191970" stroke="#191970" points="364.3331,-307.3651 374.734,-305.3473 365.3449,-300.4386 364.3331,-307.3651"/>
</g>
<!-- Node22 -->
<g id="node3" class="node">
<title>Node22</title>
<g id="a_node3"><a xlink:href="../../dd/d0a/mpi__test__timing_8cpp.html" target="_top" xlink:title="examples/ex2/mpi_test\l_timing.cpp">
<polygon fill="#ffffff" stroke="#000000" points="153,-.5 153,-34.5 262,-34.5 262,-.5 153,-.5"/>
<text text-anchor="start" x="161" y="-20.9" font-family="Helvetica,sans-Serif" font-size="12.00" fill="#000000">examples/ex2/mpi_test</text>
<text text-anchor="middle" x="207.5" y="-7.9" font-family="Helvetica,sans-Serif" font-size="12.00" fill="#000000">_timing.cpp</text>
</a>
</g>
</g>
<!-- Node20&#45;&gt;Node22 -->
<g id="edge2" class="edge">
<title>Node20&#45;&gt;Node22</title>
<path fill="none" stroke="#191970" d="M379.4832,-301.379C294.5385,-282.9933 156.5,-245.7672 156.5,-198 156.5,-198 156.5,-198 156.5,-140 156.5,-99.9159 180.0607,-57.7292 195.1543,-34.8159"/>
<polygon fill="#191970" stroke="#191970" points="378.8015,-304.8123 389.3115,-303.4738 380.2608,-297.9661 378.8015,-304.8123"/>
</g>
<!-- Node23 -->
<g id="node4" class="node">
<title>Node23</title>
<g id="a_node4"><a xlink:href="../../d6/d01/base__timer_8hpp.html" target="_top" xlink:title="timemory/base_timer.hpp">
<polygon fill="#ffffff" stroke="#000000" points="385.5,-245.5 385.5,-266.5 503.5,-266.5 503.5,-245.5 385.5,-245.5"/>
<text text-anchor="middle" x="444.5" y="-252.9" font-family="Helvetica,sans-Serif" font-size="12.00" fill="#000000">timemory/base_timer.hpp</text>
</a>
</g>
</g>
<!-- Node20&#45;&gt;Node23 -->
<g id="edge3" class="edge">
<title>Node20&#45;&gt;Node23</title>
<path fill="none" stroke="#191970" d="M444.5,-293.1906C444.5,-284.1684 444.5,-273.9941 444.5,-266.5707"/>
<polygon fill="#191970" stroke="#191970" points="441.0001,-293.3619 444.5,-303.3619 448.0001,-293.3619 441.0001,-293.3619"/>
</g>
<!-- Node29 -->
<g id="node10" class="node">
<title>Node29</title>
<g id="a_node10"><a xlink:href="../../d2/dfd/timemory_8cc.html" target="_top" xlink:title="timemory.cc">
<polygon fill="#ffffff" stroke="#000000" points="491,-7 491,-28 556,-28 556,-7 491,-7"/>
<text text-anchor="middle" x="523.5" y="-14.4" font-family="Helvetica,sans-Serif" font-size="12.00" fill="#000000">timemory.cc</text>
</a>
</g>
</g>
<!-- Node20&#45;&gt;Node29 -->
<g id="edge20" class="edge">
<title>Node20&#45;&gt;Node29</title>
<path fill="none" stroke="#191970" d="M481.8013,-299.2916C519.9006,-281.5261 573.5,-247.7009 573.5,-198 573.5,-198 573.5,-198 573.5,-140 573.5,-95.6666 545.0813,-48.5537 531.0939,-28.0503"/>
<polygon fill="#191970" stroke="#191970" points="480.1864,-296.1798 472.4911,-303.4621 483.0481,-302.5681 480.1864,-296.1798"/>
</g>
<!-- Node32 -->
<g id="node13" class="node">
<title>Node32</title>
<g id="a_node13"><a xlink:href="../../dc/d43/signal__detection_8cpp.html" target="_top" xlink:title="signal_detection.cpp">
<polygon fill="#ffffff" stroke="#000000" points="602,-245.5 602,-266.5 701,-266.5 701,-245.5 602,-245.5"/>
<text text-anchor="middle" x="651.5" y="-252.9" font-family="Helvetica,sans-Serif" font-size="12.00" fill="#000000">signal_detection.cpp</text>
</a>
</g>
</g>
<!-- Node20&#45;&gt;Node32 -->
<g id="edge19" class="edge">
<title>Node20&#45;&gt;Node32</title>
<path fill="none" stroke="#191970" d="M492.0403,-300.6795C529.0595,-290.307 579.7361,-276.1078 613.9436,-266.5231"/>
<polygon fill="#191970" stroke="#191970" points="490.671,-297.4283 481.9861,-303.4966 492.5596,-304.1687 490.671,-297.4283"/>
</g>
<!-- Node24 -->
<g id="node5" class="node">
<title>Node24</title>
<g id="a_node5"><a xlink:href="../../dd/d84/base__timer_8cpp.html" target="_top" xlink:title="base_timer.cpp">
<polygon fill="#ffffff" stroke="#000000" points="467.5,-187.5 467.5,-208.5 545.5,-208.5 545.5,-187.5 467.5,-187.5"/>
<text text-anchor="middle" x="506.5" y="-194.9" font-family="Helvetica,sans-Serif" font-size="12.00" fill="#000000">base_timer.cpp</text>
</a>
</g>
</g>
<!-- Node23&#45;&gt;Node24 -->
<g id="edge4" class="edge">
<title>Node23&#45;&gt;Node24</title>
<path fill="none" stroke="#191970" d="M463.3085,-238.405C473.7166,-228.6683 486.3058,-216.8914 495.2003,-208.5707"/>
<polygon fill="#191970" stroke="#191970" points="460.7834,-235.9743 455.8718,-245.3619 465.5656,-241.0863 460.7834,-235.9743"/>
</g>
<!-- Node25 -->
<g id="node6" class="node">
<title>Node25</title>
<g id="a_node6"><a xlink:href="../../df/d05/timer_8hpp.html" target="_top" xlink:title="timemory/timer.hpp">
<polygon fill="#ffffff" stroke="#000000" points="355.5,-187.5 355.5,-208.5 449.5,-208.5 449.5,-187.5 355.5,-187.5"/>
<text text-anchor="middle" x="402.5" y="-194.9" font-family="Helvetica,sans-Serif" font-size="12.00" fill="#000000">timemory/timer.hpp</text>
</a>
</g>
</g>
<!-- Node23&#45;&gt;Node25 -->
<g id="edge5" class="edge">
<title>Node23&#45;&gt;Node25</title>
<path fill="none" stroke="#191970" d="M430.9227,-237.2504C424.0431,-227.75 415.9437,-216.5651 410.1546,-208.5707"/>
<polygon fill="#191970" stroke="#191970" points="428.0966,-239.3153 436.7966,-245.3619 433.7662,-235.2097 428.0966,-239.3153"/>
</g>
<!-- Node26 -->
<g id="node7" class="node">
<title>Node26</title>
<g id="a_node7"><a xlink:href="../../df/df2/timing__manager_8hpp.html" target="_top" xlink:title="timemory/timing_manager.hpp">
<polygon fill="#ffffff" stroke="#000000" points="265.5,-129.5 265.5,-150.5 403.5,-150.5 403.5,-129.5 265.5,-129.5"/>
<text text-anchor="middle" x="334.5" y="-136.9" font-family="Helvetica,sans-Serif" font-size="12.00" fill="#000000">timemory/timing_manager.hpp</text>
</a>
</g>
</g>
<!-- Node25&#45;&gt;Node26 -->
<g id="edge6" class="edge">
<title>Node25&#45;&gt;Node26</title>
<path fill="none" stroke="#191970" d="M382.2064,-180.6908C370.7271,-170.8996 356.7442,-158.973 346.8932,-150.5707"/>
<polygon fill="#191970" stroke="#191970" points="380.1481,-183.5353 390.0278,-187.3619 384.6907,-178.2095 380.1481,-183.5353"/>
</g>
<!-- Node25&#45;&gt;Node29 -->
<g id="edge17" class="edge">
<title>Node25&#45;&gt;Node29</title>
<path fill="none" stroke="#191970" d="M415.4663,-178.6577C440.8254,-140.8287 496.2478,-58.1531 516.178,-28.4224"/>
<polygon fill="#191970" stroke="#191970" points="412.3678,-176.9942 409.7067,-187.2495 418.1822,-180.892 412.3678,-176.9942"/>
</g>
<!-- Node31 -->
<g id="node12" class="node">
<title>Node31</title>
<g id="a_node12"><a xlink:href="../../dc/de5/timer_8cpp.html" target="_top" xlink:title="timer.cpp">
<polygon fill="#ffffff" stroke="#000000" points="491.5,-129.5 491.5,-150.5 545.5,-150.5 545.5,-129.5 491.5,-129.5"/>
<text text-anchor="middle" x="518.5" y="-136.9" font-family="Helvetica,sans-Serif" font-size="12.00" fill="#000000">timer.cpp</text>
</a>
</g>
</g>
<!-- Node25&#45;&gt;Node31 -->
<g id="edge18" class="edge">
<title>Node25&#45;&gt;Node31</title>
<path fill="none" stroke="#191970" d="M432.6363,-182.9319C452.9135,-172.7932 479.1505,-159.6748 497.2576,-150.6212"/>
<polygon fill="#191970" stroke="#191970" points="430.8857,-179.8939 423.5067,-187.4966 434.0163,-186.1549 430.8857,-179.8939"/>
</g>
<!-- Node26&#45;&gt;Node21 -->
<g id="edge7" class="edge">
<title>Node26&#45;&gt;Node21</title>
<path fill="none" stroke="#191970" d="M302.0523,-125.2274C281.7667,-115.9835 255.1007,-103.8171 231.5,-93 181.0654,-69.884 121.9734,-42.6408 90.3055,-28.0281"/>
<polygon fill="#191970" stroke="#191970" points="300.6215,-128.4216 311.1727,-129.3824 303.5236,-122.0515 300.6215,-128.4216"/>
</g>
<!-- Node26&#45;&gt;Node22 -->
<g id="edge8" class="edge">
<title>Node26&#45;&gt;Node22</title>
<path fill="none" stroke="#191970" d="M299.1789,-125.1847C283.2878,-117.2933 265.0915,-106.4238 251.5,-93 234.3375,-76.0493 221.5207,-51.0299 214.272,-34.5034"/>
<polygon fill="#191970" stroke="#191970" points="297.6828,-128.3488 308.2167,-129.4837 300.6897,-122.0275 297.6828,-128.3488"/>
</g>
<!-- Node27 -->
<g id="node8" class="node">
<title>Node27</title>
<g id="a_node8"><a xlink:href="../../d8/d07/auto__timer_8hpp.html" target="_top" xlink:title="timemory/auto_timer.hpp">
<polygon fill="#ffffff" stroke="#000000" points="260.5,-71.5 260.5,-92.5 376.5,-92.5 376.5,-71.5 260.5,-71.5"/>
<text text-anchor="middle" x="318.5" y="-78.9" font-family="Helvetica,sans-Serif" font-size="12.00" fill="#000000">timemory/auto_timer.hpp</text>
</a>
</g>
</g>
<!-- Node26&#45;&gt;Node27 -->
<g id="edge9" class="edge">
<title>Node26&#45;&gt;Node27</title>
<path fill="none" stroke="#191970" d="M328.8414,-119.4876C326.3324,-110.3924 323.4864,-100.0756 321.416,-92.5707"/>
<polygon fill="#191970" stroke="#191970" points="325.532,-120.6528 331.5654,-129.3619 332.28,-118.7912 325.532,-120.6528"/>
</g>
<!-- Node26&#45;&gt;Node29 -->
<g id="edge15" class="edge">
<title>Node26&#45;&gt;Node29</title>
<path fill="none" stroke="#191970" d="M359.6893,-123.6736C399.0898,-98.1363 474.2023,-49.4522 507.2307,-28.0449"/>
<polygon fill="#191970" stroke="#191970" points="357.4298,-120.9672 350.9419,-129.3432 361.2371,-126.8413 357.4298,-120.9672"/>
</g>
<!-- Node30 -->
<g id="node11" class="node">
<title>Node30</title>
<g id="a_node11"><a xlink:href="../../d9/dad/timing__manager_8cpp.html" target="_top" xlink:title="timing_manager.cpp">
<polygon fill="#ffffff" stroke="#000000" points="374.5,-7 374.5,-28 472.5,-28 472.5,-7 374.5,-7"/>
<text text-anchor="middle" x="423.5" y="-14.4" font-family="Helvetica,sans-Serif" font-size="12.00" fill="#000000">timing_manager.cpp</text>
</a>
</g>
</g>
<!-- Node26&#45;&gt;Node30 -->
<g id="edge16" class="edge">
<title>Node26&#45;&gt;Node30</title>
<path fill="none" stroke="#191970" d="M356.5213,-122.7886C366.2045,-114.4888 377.2296,-103.9645 385.5,-93 401.3177,-72.0298 413.5938,-43.4726 419.5476,-28.1909"/>
<polygon fill="#191970" stroke="#191970" points="354.256,-120.1202 348.793,-129.198 358.7246,-125.5083 354.256,-120.1202"/>
</g>
<!-- Node27&#45;&gt;Node21 -->
<g id="edge10" class="edge">
<title>Node27&#45;&gt;Node21</title>
<path fill="none" stroke="#191970" d="M267.6508,-68.9332C220.6982,-56.8677 151.8461,-39.1746 108.3686,-28.0021"/>
<polygon fill="#191970" stroke="#191970" points="267.0574,-72.3943 277.6139,-71.4934 268.7997,-65.6146 267.0574,-72.3943"/>
</g>
<!-- Node27&#45;&gt;Node22 -->
<g id="edge11" class="edge">
<title>Node27&#45;&gt;Node22</title>
<path fill="none" stroke="#191970" d="M291.1043,-66.0809C274.7265,-56.5641 253.9129,-44.4697 237.1503,-34.7292"/>
<polygon fill="#191970" stroke="#191970" points="289.7659,-69.3511 300.1706,-71.3491 293.2828,-63.2987 289.7659,-69.3511"/>
</g>
<!-- Node28 -->
<g id="node9" class="node">
<title>Node28</title>
<g id="a_node9"><a xlink:href="../../d2/d80/auto__timer_8cpp.html" target="_top" xlink:title="auto_timer.cpp">
<polygon fill="#ffffff" stroke="#000000" points="280.5,-7 280.5,-28 356.5,-28 356.5,-7 280.5,-7"/>
<text text-anchor="middle" x="318.5" y="-14.4" font-family="Helvetica,sans-Serif" font-size="12.00" fill="#000000">auto_timer.cpp</text>
</a>
</g>
</g>
<!-- Node27&#45;&gt;Node28 -->
<g id="edge12" class="edge">
<title>Node27&#45;&gt;Node28</title>
<path fill="none" stroke="#191970" d="M318.5,-61.3076C318.5,-50.3587 318.5,-37.3615 318.5,-28.3823"/>
<polygon fill="#191970" stroke="#191970" points="315.0001,-61.3491 318.5,-71.3491 322.0001,-61.3492 315.0001,-61.3491"/>
</g>
<!-- Node27&#45;&gt;Node29 -->
<g id="edge13" class="edge">
<title>Node27&#45;&gt;Node29</title>
<path fill="none" stroke="#191970" d="M369.4726,-68.9086C401.8505,-60.199 444.4818,-48.0015 481.5,-35 487.3133,-32.9583 493.4832,-30.5361 499.2527,-28.1549"/>
<polygon fill="#191970" stroke="#191970" points="368.531,-65.5373 359.771,-71.4966 370.3353,-72.3008 368.531,-65.5373"/>
</g>
<!-- Node27&#45;&gt;Node30 -->
<g id="edge14" class="edge">
<title>Node27&#45;&gt;Node30</title>
<path fill="none" stroke="#191970" d="M344.4258,-66.0742C363.6504,-54.2648 389.3316,-38.4892 406.1356,-28.1667"/>
<polygon fill="#191970" stroke="#191970" points="342.5274,-63.1326 335.8386,-71.3491 346.1914,-69.0972 342.5274,-63.1326"/>
</g>
</g>
</svg>
