<?xml version="1.0" encoding="UTF-8" standalone="no"?>
<!DOCTYPE svg PUBLIC "-//W3C//DTD SVG 1.1//EN"
 "http://www.w3.org/Graphics/SVG/1.1/DTD/svg11.dtd">
<!-- Generated by graphviz version 2.40.1 (20161225.0304)
 -->
<!-- Title: timemory/signal_detection.hpp Pages: 1 -->
<svg width="343pt" height="88pt"
 viewBox="0.00 0.00 343.00 88.00" xmlns="http://www.w3.org/2000/svg" xmlns:xlink="http://www.w3.org/1999/xlink">
<g id="graph0" class="graph" transform="scale(1 1) rotate(0) translate(4 84)">
<title>timemory/signal_detection.hpp</title>
<polygon fill="#ffffff" stroke="transparent" points="-4,4 -4,-84 339,-84 339,4 -4,4"/>
<!-- Node21 -->
<g id="node1" class="node">
<title>Node21</title>
<polygon fill="#bfbfbf" stroke="#000000" points="80,-58.5 80,-79.5 219,-79.5 219,-58.5 80,-58.5"/>
<text text-anchor="middle" x="149.5" y="-65.9" font-family="Helvetica,sans-Serif" font-size="12.00" fill="#000000">timemory/signal_detection.hpp</text>
</g>
<!-- Node22 -->
<g id="node2" class="node">
<title>Node22</title>
<g id="a_node2"><a xlink:href="../../dc/d43/signal__detection_8cpp.html" target="_top" xlink:title="signal_detection.cpp">
<polygon fill="#ffffff" stroke="#000000" points="0,-.5 0,-21.5 99,-21.5 99,-.5 0,-.5"/>
<text text-anchor="middle" x="49.5" y="-7.9" font-family="Helvetica,sans-Serif" font-size="12.00" fill="#000000">signal_detection.cpp</text>
</a>
</g>
</g>
<!-- Node21&#45;&gt;Node22 -->
<g id="edge1" class="edge">
<title>Node21&#45;&gt;Node22</title>
<path fill="none" stroke="#191970" d="M122.0878,-53.1009C104.7859,-43.0658 82.9152,-30.3808 67.7253,-21.5707"/>
<polygon fill="#191970" stroke="#191970" points="120.7521,-56.3723 131.1585,-58.3619 124.2642,-50.3171 120.7521,-56.3723"/>
</g>
<!-- Node23 -->
<g id="node3" class="node">
<title>Node23</title>
<g id="a_node3"><a xlink:href="../../d2/dfd/timemory_8cc.html" target="_top" xlink:title="timemory.cc">
<polygon fill="#ffffff" stroke="#000000" points="117,-.5 117,-21.5 182,-21.5 182,-.5 117,-.5"/>
<text text-anchor="middle" x="149.5" y="-7.9" font-family="Helvetica,sans-Serif" font-size="12.00" fill="#000000">timemory.cc</text>
</a>
</g>
</g>
<!-- Node21&#45;&gt;Node23 -->
<g id="edge2" class="edge">
<title>Node21&#45;&gt;Node23</title>
<path fill="none" stroke="#191970" d="M149.5,-48.1906C149.5,-39.1684 149.5,-28.9941 149.5,-21.5707"/>
<polygon fill="#191970" stroke="#191970" points="146.0001,-48.3619 149.5,-58.3619 153.0001,-48.3619 146.0001,-48.3619"/>
</g>
<!-- Node24 -->
<g id="node4" class="node">
<title>Node24</title>
<g id="a_node4"><a xlink:href="../../d6/d8e/test__timing_8cpp.html" target="_top" xlink:title="examples/ex1/test_timing.cpp">
<polygon fill="#ffffff" stroke="#000000" points="200,-.5 200,-21.5 335,-21.5 335,-.5 200,-.5"/>
<text text-anchor="middle" x="267.5" y="-7.9" font-family="Helvetica,sans-Serif" font-size="12.00" fill="#000000">examples/ex1/test_timing.cpp</text>
</a>
</g>
</g>
<!-- Node21&#45;&gt;Node24 -->
<g id="edge3" class="edge">
<title>Node21&#45;&gt;Node24</title>
<path fill="none" stroke="#191970" d="M179.8763,-54.0693C200.541,-43.9121 227.3887,-30.7157 245.8913,-21.6212"/>
<polygon fill="#191970" stroke="#191970" points="178.2995,-50.9443 170.8689,-58.4966 181.3873,-57.2265 178.2995,-50.9443"/>
</g>
</g>
</svg>
