<?xml version="1.0" encoding="UTF-8" standalone="no"?>
<!DOCTYPE svg PUBLIC "-//W3C//DTD SVG 1.1//EN"
 "http://www.w3.org/Graphics/SVG/1.1/DTD/svg11.dtd">
<!-- Generated by graphviz version 2.40.1 (20161225.0304)
 -->
<!-- Title: timemory/signal_detection.hpp Pages: 1 -->
<!--zoomable 333 -->
<svg id="main" version="1.1" xmlns="http://www.w3.org/2000/svg" xmlns:xlink="http://www.w3.org/1999/xlink" xml:space="preserve" onload="init(evt)">
<style type="text/css"><![CDATA[
.edge:hover path { stroke: red; }
.edge:hover polygon { stroke: red; fill: red; }
]]></style>
<script type="text/javascript"><![CDATA[
var edges = document.getElementsByTagName('g');
if (edges && edges.length) {
  for (var i=0;i<edges.length;i++) {
    if (edges[i].id.substr(0,4)=='edge') {
      edges[i].setAttribute('class','edge');
    }
  }
}
]]></script>
        <defs>
                <circle id="rim" cx="0" cy="0" r="7"/>
                <circle id="rim2" cx="0" cy="0" r="3.5"/>
                <g id="zoomPlus">
                        <use xlink:href="#rim" fill="#404040">
                                <set attributeName="fill" to="#808080" begin="zoomplus.mouseover" end="zoomplus.mouseout"/>
                        </use>
                        <path d="M-4,0h8M0,-4v8" fill="none" stroke="white" stroke-width="1.5" pointer-events="none"/>
                </g>
                <g id="zoomMin">
                        <use xlink:href="#rim" fill="#404040">
                                <set attributeName="fill" to="#808080" begin="zoomminus.mouseover" end="zoomminus.mouseout"/>
                        </use>
                        <path d="M-4,0h8" fill="none" stroke="white" stroke-width="1.5" pointer-events="none"/>
                </g>
                <g id="dirArrow">
                        <path fill="none" stroke="white" stroke-width="1.5" d="M0,-3.0v7 M-2.5,-0.5L0,-3.0L2.5,-0.5"/>
                </g>
               <g id="resetDef">
                       <use xlink:href="#rim2" fill="#404040">
                               <set attributeName="fill" to="#808080" begin="reset.mouseover" end="reset.mouseout"/>
                       </use>
               </g>
        </defs>

<script type="text/javascript">
var viewWidth = 783;
var viewHeight = 333;
var sectionId = 'dynsection-1';
</script>
<script xlink:href="../../svgpan.js"/>
<svg id="graph" class="graph">
<g id="viewport">
<title>timemory/signal_detection.hpp</title>
<polygon fill="#ffffff" stroke="transparent" points="-4,4 -4,-329 779,-329 779,4 -4,4"/>
<!-- Node24 -->
<g id="node1" class="node">
<title>Node24</title>
<polygon fill="#bfbfbf" stroke="#000000" points="259,-303.5 259,-324.5 398,-324.5 398,-303.5 259,-303.5"/>
<text text-anchor="middle" x="328.5" y="-310.9" font-family="Helvetica,sans-Serif" font-size="12.00" fill="#000000">timemory/signal_detection.hpp</text>
</g>
<!-- Node25 -->
<g id="node2" class="node">
<title>Node25</title>
<g id="a_node2"><a xlink:href="../../d6/d01/base__timer_8hpp.html" target="_top" xlink:title="timemory/base_timer.hpp">
<polygon fill="#ffffff" stroke="#000000" points="313.5,-245.5 313.5,-266.5 431.5,-266.5 431.5,-245.5 313.5,-245.5"/>
<text text-anchor="middle" x="372.5" y="-252.9" font-family="Helvetica,sans-Serif" font-size="12.00" fill="#000000">timemory/base_timer.hpp</text>
</a>
</g>
</g>
<!-- Node24&#45;&gt;Node25 -->
<g id="edge1" class="edge">
<title>Node24&#45;&gt;Node25</title>
<path fill="none" stroke="#191970" d="M342.7238,-295.2504C349.9311,-285.75 358.4161,-274.5651 364.4809,-266.5707"/>
<polygon fill="#191970" stroke="#191970" points="339.8258,-293.2796 336.5703,-303.3619 345.4026,-297.5103 339.8258,-293.2796"/>
</g>
<!-- Node32 -->
<g id="node9" class="node">
<title>Node32</title>
<g id="a_node9"><a xlink:href="../../d2/dfd/timemory_8cc.html" target="_top" xlink:title="timemory.cc">
<polygon fill="#ffffff" stroke="#000000" points="615,-7 615,-28 680,-28 680,-7 615,-7"/>
<text text-anchor="middle" x="647.5" y="-14.4" font-family="Helvetica,sans-Serif" font-size="12.00" fill="#000000">timemory.cc</text>
</a>
</g>
</g>
<!-- Node24&#45;&gt;Node32 -->
<g id="edge19" class="edge">
<title>Node24&#45;&gt;Node32</title>
<path fill="none" stroke="#191970" d="M405.8625,-301.6744C500.2771,-284.3982 647.5,-249.2434 647.5,-198 647.5,-198 647.5,-198 647.5,-140 647.5,-98.7413 647.5,-49.6661 647.5,-28.3152"/>
<polygon fill="#191970" stroke="#191970" points="404.9841,-298.2761 395.7619,-303.4916 406.2237,-305.1655 404.9841,-298.2761"/>
</g>
<!-- Node33 -->
<g id="node10" class="node">
<title>Node33</title>
<g id="a_node10"><a xlink:href="../../d0/d90/ex1_2test__timing_8cpp.html" target="_top" xlink:title="examples/ex1/test_timing.cpp">
<polygon fill="#ffffff" stroke="#000000" points="0,-7 0,-28 135,-28 135,-7 0,-7"/>
<text text-anchor="middle" x="67.5" y="-14.4" font-family="Helvetica,sans-Serif" font-size="12.00" fill="#000000">examples/ex1/test_timing.cpp</text>
</a>
</g>
</g>
<!-- Node24&#45;&gt;Node33 -->
<g id="edge20" class="edge">
<title>Node24&#45;&gt;Node33</title>
<path fill="none" stroke="#191970" d="M249.1541,-301.2016C192.216,-286.9642 125.5,-257.5716 125.5,-198 125.5,-198 125.5,-198 125.5,-140 125.5,-94.821 92.875,-48.5043 76.5625,-28.1696"/>
<polygon fill="#191970" stroke="#191970" points="248.3846,-304.6161 258.9229,-303.5233 250.0032,-297.8058 248.3846,-304.6161"/>
</g>
<!-- Node34 -->
<g id="node11" class="node">
<title>Node34</title>
<g id="a_node11"><a xlink:href="../../dd/d0a/mpi__test__timing_8cpp.html" target="_top" xlink:title="examples/ex2/mpi_test\l_timing.cpp">
<polygon fill="#ffffff" stroke="#000000" points="306,-.5 306,-34.5 415,-34.5 415,-.5 306,-.5"/>
<text text-anchor="start" x="314" y="-20.9" font-family="Helvetica,sans-Serif" font-size="12.00" fill="#000000">examples/ex2/mpi_test</text>
<text text-anchor="middle" x="360.5" y="-7.9" font-family="Helvetica,sans-Serif" font-size="12.00" fill="#000000">_timing.cpp</text>
</a>
</g>
</g>
<!-- Node24&#45;&gt;Node34 -->
<g id="edge21" class="edge">
<title>Node24&#45;&gt;Node34</title>
<path fill="none" stroke="#191970" d="M316.3799,-294.4427C303.6629,-272.0179 285.5,-233.7349 285.5,-198 285.5,-198 285.5,-198 285.5,-140 285.5,-97.1087 319.3562,-56.5542 341.5743,-34.5581"/>
<polygon fill="#191970" stroke="#191970" points="313.5025,-296.4541 321.5913,-303.2967 319.5351,-292.9033 313.5025,-296.4541"/>
</g>
<!-- Node35 -->
<g id="node12" class="node">
<title>Node35</title>
<g id="a_node12"><a xlink:href="../../d2/dc1/ex3_2test__timing_8cpp.html" target="_top" xlink:title="examples/ex3/test_timing.cpp">
<polygon fill="#ffffff" stroke="#000000" points="153,-7 153,-28 288,-28 288,-7 153,-7"/>
<text text-anchor="middle" x="220.5" y="-14.4" font-family="Helvetica,sans-Serif" font-size="12.00" fill="#000000">examples/ex3/test_timing.cpp</text>
</a>
</g>
</g>
<!-- Node24&#45;&gt;Node35 -->
<g id="edge22" class="edge">
<title>Node24&#45;&gt;Node35</title>
<path fill="none" stroke="#191970" d="M302.2826,-297.3598C274.4701,-277.4341 234.5,-241.2709 234.5,-198 234.5,-198 234.5,-198 234.5,-140 234.5,-98.4727 226.4601,-49.536 222.5657,-28.268"/>
<polygon fill="#191970" stroke="#191970" points="300.6001,-300.4511 310.8193,-303.2471 304.5742,-294.6885 300.6001,-300.4511"/>
</g>
<!-- Node37 -->
<g id="node14" class="node">
<title>Node37</title>
<g id="a_node14"><a xlink:href="../../dc/d43/signal__detection_8cpp.html" target="_top" xlink:title="signal_detection.cpp">
<polygon fill="#ffffff" stroke="#000000" points="676,-245.5 676,-266.5 775,-266.5 775,-245.5 676,-245.5"/>
<text text-anchor="middle" x="725.5" y="-252.9" font-family="Helvetica,sans-Serif" font-size="12.00" fill="#000000">signal_detection.cpp</text>
</a>
</g>
</g>
<!-- Node24&#45;&gt;Node37 -->
<g id="edge18" class="edge">
<title>Node24&#45;&gt;Node37</title>
<path fill="none" stroke="#191970" d="M408.2505,-303.4278C475.7722,-294.3129 575.0844,-280.5216 661.5,-267 666.1782,-266.268 671.044,-265.4801 675.9099,-264.6744"/>
<polygon fill="#191970" stroke="#191970" points="407.5524,-299.9901 398.1092,-304.7939 408.487,-306.9275 407.5524,-299.9901"/>
</g>
<!-- Node26 -->
<g id="node3" class="node">
<title>Node26</title>
<g id="a_node3"><a xlink:href="../../dd/d84/base__timer_8cpp.html" target="_top" xlink:title="base_timer.cpp">
<polygon fill="#ffffff" stroke="#000000" points="323.5,-187.5 323.5,-208.5 401.5,-208.5 401.5,-187.5 323.5,-187.5"/>
<text text-anchor="middle" x="362.5" y="-194.9" font-family="Helvetica,sans-Serif" font-size="12.00" fill="#000000">base_timer.cpp</text>
</a>
</g>
</g>
<!-- Node25&#45;&gt;Node26 -->
<g id="edge2" class="edge">
<title>Node25&#45;&gt;Node26</title>
<path fill="none" stroke="#191970" d="M368.9634,-235.4876C367.3952,-226.3924 365.6165,-216.0756 364.3225,-208.5707"/>
<polygon fill="#191970" stroke="#191970" points="365.5176,-236.102 370.6658,-245.3619 372.4158,-234.9126 365.5176,-236.102"/>
</g>
<!-- Node27 -->
<g id="node4" class="node">
<title>Node27</title>
<g id="a_node4"><a xlink:href="../../df/d05/timer_8hpp.html" target="_top" xlink:title="timemory/timer.hpp">
<polygon fill="#ffffff" stroke="#000000" points="419.5,-187.5 419.5,-208.5 513.5,-208.5 513.5,-187.5 419.5,-187.5"/>
<text text-anchor="middle" x="466.5" y="-194.9" font-family="Helvetica,sans-Serif" font-size="12.00" fill="#000000">timemory/timer.hpp</text>
</a>
</g>
</g>
<!-- Node25&#45;&gt;Node27 -->
<g id="edge3" class="edge">
<title>Node25&#45;&gt;Node27</title>
<path fill="none" stroke="#191970" d="M398.2675,-240.1009C414.5313,-230.0658 435.0897,-217.3808 449.3683,-208.5707"/>
<polygon fill="#191970" stroke="#191970" points="396.4135,-237.1322 389.741,-245.3619 400.0893,-243.0894 396.4135,-237.1322"/>
</g>
<!-- Node28 -->
<g id="node5" class="node">
<title>Node28</title>
<g id="a_node5"><a xlink:href="../../da/d04/manager_8hpp.html" target="_top" xlink:title="timemory/manager.hpp">
<polygon fill="#ffffff" stroke="#000000" points="412,-129.5 412,-150.5 521,-150.5 521,-129.5 412,-129.5"/>
<text text-anchor="middle" x="466.5" y="-136.9" font-family="Helvetica,sans-Serif" font-size="12.00" fill="#000000">timemory/manager.hpp</text>
</a>
</g>
</g>
<!-- Node27&#45;&gt;Node28 -->
<g id="edge4" class="edge">
<title>Node27&#45;&gt;Node28</title>
<path fill="none" stroke="#191970" d="M466.5,-177.1906C466.5,-168.1684 466.5,-157.9941 466.5,-150.5707"/>
<polygon fill="#191970" stroke="#191970" points="463.0001,-177.3619 466.5,-187.3619 470.0001,-177.3619 463.0001,-177.3619"/>
</g>
<!-- Node27&#45;&gt;Node32 -->
<g id="edge16" class="edge">
<title>Node27&#45;&gt;Node32</title>
<path fill="none" stroke="#191970" d="M491.454,-181.5734C503.7089,-173.042 518.4016,-162.098 530.5,-151 575.6941,-109.5428 621.3243,-51.8695 639.4035,-28.2421"/>
<polygon fill="#191970" stroke="#191970" points="489.3156,-178.7955 483.0334,-187.3269 493.2647,-184.5752 489.3156,-178.7955"/>
</g>
<!-- Node36 -->
<g id="node13" class="node">
<title>Node36</title>
<g id="a_node13"><a xlink:href="../../dc/de5/timer_8cpp.html" target="_top" xlink:title="timer.cpp">
<polygon fill="#ffffff" stroke="#000000" points="339.5,-129.5 339.5,-150.5 393.5,-150.5 393.5,-129.5 339.5,-129.5"/>
<text text-anchor="middle" x="366.5" y="-136.9" font-family="Helvetica,sans-Serif" font-size="12.00" fill="#000000">timer.cpp</text>
</a>
</g>
</g>
<!-- Node27&#45;&gt;Node36 -->
<g id="edge17" class="edge">
<title>Node27&#45;&gt;Node36</title>
<path fill="none" stroke="#191970" d="M439.0878,-182.1009C421.7859,-172.0658 399.9152,-159.3808 384.7253,-150.5707"/>
<polygon fill="#191970" stroke="#191970" points="437.7521,-185.3723 448.1585,-187.3619 441.2642,-179.3171 437.7521,-185.3723"/>
</g>
<!-- Node29 -->
<g id="node6" class="node">
<title>Node29</title>
<g id="a_node6"><a xlink:href="../../d8/d07/auto__timer_8hpp.html" target="_top" xlink:title="timemory/auto_timer.hpp">
<polygon fill="#ffffff" stroke="#000000" points="389.5,-71.5 389.5,-92.5 505.5,-92.5 505.5,-71.5 389.5,-71.5"/>
<text text-anchor="middle" x="447.5" y="-78.9" font-family="Helvetica,sans-Serif" font-size="12.00" fill="#000000">timemory/auto_timer.hpp</text>
</a>
</g>
</g>
<!-- Node28&#45;&gt;Node29 -->
<g id="edge5" class="edge">
<title>Node28&#45;&gt;Node29</title>
<path fill="none" stroke="#191970" d="M459.8774,-119.7838C456.8745,-110.617 453.4481,-100.1572 450.9628,-92.5707"/>
<polygon fill="#191970" stroke="#191970" points="456.5759,-120.9484 463.0151,-129.3619 463.228,-118.7692 456.5759,-120.9484"/>
</g>
<!-- Node31 -->
<g id="node8" class="node">
<title>Node31</title>
<g id="a_node8"><a xlink:href="../../d0/db0/manager_8cpp.html" target="_top" xlink:title="manager.cpp">
<polygon fill="#ffffff" stroke="#000000" points="528,-7 528,-28 597,-28 597,-7 528,-7"/>
<text text-anchor="middle" x="562.5" y="-14.4" font-family="Helvetica,sans-Serif" font-size="12.00" fill="#000000">manager.cpp</text>
</a>
</g>
</g>
<!-- Node28&#45;&gt;Node31 -->
<g id="edge12" class="edge">
<title>Node28&#45;&gt;Node31</title>
<path fill="none" stroke="#191970" d="M486.2183,-122.6385C495.3243,-114.1487 505.9802,-103.5118 514.5,-93 532.0063,-71.4006 548.4987,-43.0942 556.8361,-28.0201"/>
<polygon fill="#191970" stroke="#191970" points="483.7371,-120.1644 478.7077,-129.4894 488.4545,-125.3361 483.7371,-120.1644"/>
</g>
<!-- Node28&#45;&gt;Node32 -->
<g id="edge13" class="edge">
<title>Node28&#45;&gt;Node32</title>
<path fill="none" stroke="#191970" d="M491.0435,-123.5731C504.4825,-114.5652 521.4231,-103.1889 536.5,-93 570.6789,-69.902 610.6575,-42.652 632.077,-28.0333"/>
<polygon fill="#191970" stroke="#191970" points="488.7247,-120.9136 482.3648,-129.3872 492.6208,-126.7292 488.7247,-120.9136"/>
</g>
<!-- Node28&#45;&gt;Node33 -->
<g id="edge14" class="edge">
<title>Node28&#45;&gt;Node33</title>
<path fill="none" stroke="#191970" d="M422.3456,-126.4438C342.1788,-101.8312 174.3036,-50.2906 101.9227,-28.0684"/>
<polygon fill="#191970" stroke="#191970" points="421.5493,-129.8605 432.1361,-129.4497 423.6038,-123.1688 421.5493,-129.8605"/>
</g>
<!-- Node28&#45;&gt;Node34 -->
<g id="edge15" class="edge">
<title>Node28&#45;&gt;Node34</title>
<path fill="none" stroke="#191970" d="M423.9828,-125.1213C408.283,-117.6926 391.6261,-107.1949 380.5,-93 367.2834,-76.1381 362.7626,-51.3306 361.2382,-34.8084"/>
<polygon fill="#191970" stroke="#191970" points="423.0147,-128.5197 433.5765,-129.3557 425.8413,-122.1158 423.0147,-128.5197"/>
</g>
<!-- Node30 -->
<g id="node7" class="node">
<title>Node30</title>
<g id="a_node7"><a xlink:href="../../d2/d80/auto__timer_8cpp.html" target="_top" xlink:title="auto_timer.cpp">
<polygon fill="#ffffff" stroke="#000000" points="433.5,-7 433.5,-28 509.5,-28 509.5,-7 433.5,-7"/>
<text text-anchor="middle" x="471.5" y="-14.4" font-family="Helvetica,sans-Serif" font-size="12.00" fill="#000000">auto_timer.cpp</text>
</a>
</g>
</g>
<!-- Node29&#45;&gt;Node30 -->
<g id="edge6" class="edge">
<title>Node29&#45;&gt;Node30</title>
<path fill="none" stroke="#191970" d="M455.0724,-61.6491C459.1726,-50.6299 464.0749,-37.455 467.4508,-28.3823"/>
<polygon fill="#191970" stroke="#191970" points="451.6702,-60.7563 451.4631,-71.3491 458.2308,-63.1975 451.6702,-60.7563"/>
</g>
<!-- Node29&#45;&gt;Node31 -->
<g id="edge7" class="edge">
<title>Node29&#45;&gt;Node31</title>
<path fill="none" stroke="#191970" d="M475.1128,-66.5128C496.3608,-54.5955 525.1499,-38.4485 543.7753,-28.0021"/>
<polygon fill="#191970" stroke="#191970" points="473.2424,-63.5489 466.2327,-71.4934 476.6667,-69.6542 473.2424,-63.5489"/>
</g>
<!-- Node29&#45;&gt;Node32 -->
<g id="edge8" class="edge">
<title>Node29&#45;&gt;Node32</title>
<path fill="none" stroke="#191970" d="M497.65,-68.7835C529.1902,-60.0769 570.5736,-47.9278 606.5,-35 612.1801,-32.9561 618.2051,-30.533 623.8376,-28.1517"/>
<polygon fill="#191970" stroke="#191970" points="496.4964,-65.4704 487.7749,-71.486 498.3442,-72.2222 496.4964,-65.4704"/>
</g>
<!-- Node29&#45;&gt;Node33 -->
<g id="edge9" class="edge">
<title>Node29&#45;&gt;Node33</title>
<path fill="none" stroke="#191970" d="M379.272,-72.9023C317.4987,-64.3212 224.1051,-50.4898 143.5,-35 132.8629,-32.9559 121.452,-30.4803 110.7899,-28.0426"/>
<polygon fill="#191970" stroke="#191970" points="378.9022,-76.3844 389.2871,-74.286 379.8603,-69.4502 378.9022,-76.3844"/>
</g>
<!-- Node29&#45;&gt;Node34 -->
<g id="edge10" class="edge">
<title>Node29&#45;&gt;Node34</title>
<path fill="none" stroke="#191970" d="M424.9399,-65.2744C412.2788,-55.8877 396.5093,-44.1966 383.7394,-34.7292"/>
<polygon fill="#191970" stroke="#191970" points="423.0161,-68.2051 433.1337,-71.3491 427.1851,-62.5819 423.0161,-68.2051"/>
</g>
<!-- Node29&#45;&gt;Node35 -->
<g id="edge11" class="edge">
<title>Node29&#45;&gt;Node35</title>
<path fill="none" stroke="#191970" d="M400.7093,-68.7049C358.2674,-56.6454 296.5339,-39.1043 257.4609,-28.0021"/>
<polygon fill="#191970" stroke="#191970" points="399.9474,-72.1269 410.5233,-71.4934 401.8607,-65.3934 399.9474,-72.1269"/>
</g>
</g>
</svg>
        <g id="navigator" transform="translate(0 0)" fill="#404254">
                <rect fill="#f2f5e9" fill-opacity="0.5" stroke="#606060" stroke-width=".5" x="0" y="0" width="60" height="60"/>
                <use id="zoomplus" xlink:href="#zoomPlus" x="17" y="9" onmousedown="handleZoom(evt,'in')"/>
                <use id="zoomminus" xlink:href="#zoomMin" x="42" y="9" onmousedown="handleZoom(evt,'out')"/>
                <use id="reset" xlink:href="#resetDef" x="30" y="36" onmousedown="handleReset()"/>
                <g id="arrowUp" xlink:href="#dirArrow" transform="translate(30 24)" onmousedown="handlePan(0,-1)">
                  <use xlink:href="#rim" fill="#404040">
                        <set attributeName="fill" to="#808080" begin="arrowUp.mouseover" end="arrowUp.mouseout"/>
                  </use>
                  <path fill="none" stroke="white" stroke-width="1.5" d="M0,-3.0v7 M-2.5,-0.5L0,-3.0L2.5,-0.5"/>
                </g>
                <g id="arrowRight" xlink:href="#dirArrow" transform="rotate(90) translate(36 -43)" onmousedown="handlePan(1,0)">
                  <use xlink:href="#rim" fill="#404040">
                        <set attributeName="fill" to="#808080" begin="arrowRight.mouseover" end="arrowRight.mouseout"/>
                  </use>
                  <path fill="none" stroke="white" stroke-width="1.5" d="M0,-3.0v7 M-2.5,-0.5L0,-3.0L2.5,-0.5"/>
                </g>
                <g id="arrowDown" xlink:href="#dirArrow" transform="rotate(180) translate(-30 -48)" onmousedown="handlePan(0,1)">
                  <use xlink:href="#rim" fill="#404040">
                        <set attributeName="fill" to="#808080" begin="arrowDown.mouseover" end="arrowDown.mouseout"/>
                  </use>
                  <path fill="none" stroke="white" stroke-width="1.5" d="M0,-3.0v7 M-2.5,-0.5L0,-3.0L2.5,-0.5"/>
                </g>
                <g id="arrowLeft" xlink:href="#dirArrow" transform="rotate(270) translate(-36 17)" onmousedown="handlePan(-1,0)">
                  <use xlink:href="#rim" fill="#404040">
                        <set attributeName="fill" to="#808080" begin="arrowLeft.mouseover" end="arrowLeft.mouseout"/>
                  </use>
                  <path fill="none" stroke="white" stroke-width="1.5" d="M0,-3.0v7 M-2.5,-0.5L0,-3.0L2.5,-0.5"/>
                </g>
        </g>
        <svg viewBox="0 0 15 15" width="100%" height="30px" preserveAspectRatio="xMaxYMin meet">
         <g id="arrow_out" transform="scale(0.3 0.3)">
          <a xlink:href="signal__detection_8hpp__dep__incl_org.svg" target="_base">
           <rect id="button" ry="5" rx="5" y="6" x="6" height="38" width="38"
                fill="#f2f5e9" fill-opacity="0.5" stroke="#606060" stroke-width="1.0"/>
           <path id="arrow"
             d="M 11.500037,31.436501 C 11.940474,20.09759 22.043105,11.32322 32.158766,21.979434 L 37.068811,17.246167 C 37.068811,17.246167 37.088388,32 37.088388,32 L 22.160133,31.978069 C 22.160133,31.978069 26.997745,27.140456 26.997745,27.140456 C 18.528582,18.264221 13.291696,25.230495 11.500037,31.436501 z"
             style="fill:#404040;"/>
          </a>
         </g>
        </svg>
</svg>
