<?xml version="1.0" encoding="UTF-8" standalone="no"?>
<!DOCTYPE svg PUBLIC "-//W3C//DTD SVG 1.1//EN"
 "http://www.w3.org/Graphics/SVG/1.1/DTD/svg11.dtd">
<!-- Generated by graphviz version 2.40.1 (20161225.0304)
 -->
<!-- Title: NAME_TIM::timing_manager Pages: 1 -->
<svg width="861pt" height="1031pt"
 viewBox="0.00 0.00 860.50 1031.00" xmlns="http://www.w3.org/2000/svg" xmlns:xlink="http://www.w3.org/1999/xlink">
<g id="graph0" class="graph" transform="scale(1 1) rotate(0) translate(4 1027)">
<title>NAME_TIM::timing_manager</title>
<polygon fill="#ffffff" stroke="transparent" points="-4,4 -4,-1027 856.5,-1027 856.5,4 -4,4"/>
<!-- Node1 -->
<g id="node1" class="node">
<title>Node1</title>
<polygon fill="#bfbfbf" stroke="#000000" points="334,-113.5 334,-514.5 467,-514.5 467,-113.5 334,-113.5"/>
<text text-anchor="middle" x="400.5" y="-500.9" font-family="Helvetica,sans-Serif" font-size="12.00" fill="#000000">NAME_TIM::timing_manager</text>
<polyline fill="none" stroke="#000000" points="334,-493.5 467,-493.5 "/>
<text text-anchor="middle" x="400.5" y="-479.9" font-family="Helvetica,sans-Serif" font-size="12.00" fill="#000000"> </text>
<polyline fill="none" stroke="#000000" points="334,-472.5 467,-472.5 "/>
<text text-anchor="start" x="342" y="-458.9" font-family="Helvetica,sans-Serif" font-size="12.00" fill="#000000">+ timing_manager()</text>
<text text-anchor="start" x="342" y="-445.9" font-family="Helvetica,sans-Serif" font-size="12.00" fill="#000000">+ ~timing_manager()</text>
<text text-anchor="start" x="342" y="-432.9" font-family="Helvetica,sans-Serif" font-size="12.00" fill="#000000">+ merge()</text>
<text text-anchor="start" x="342" y="-419.9" font-family="Helvetica,sans-Serif" font-size="12.00" fill="#000000">+ size()</text>
<text text-anchor="start" x="342" y="-406.9" font-family="Helvetica,sans-Serif" font-size="12.00" fill="#000000">+ clear()</text>
<text text-anchor="start" x="342" y="-393.9" font-family="Helvetica,sans-Serif" font-size="12.00" fill="#000000">+ timer()</text>
<text text-anchor="start" x="342" y="-380.9" font-family="Helvetica,sans-Serif" font-size="12.00" fill="#000000">+ at()</text>
<text text-anchor="start" x="342" y="-367.9" font-family="Helvetica,sans-Serif" font-size="12.00" fill="#000000">+ time()</text>
<text text-anchor="start" x="342" y="-354.9" font-family="Helvetica,sans-Serif" font-size="12.00" fill="#000000">+ time()</text>
<text text-anchor="start" x="342" y="-341.9" font-family="Helvetica,sans-Serif" font-size="12.00" fill="#000000">+ time()</text>
<text text-anchor="start" x="342" y="-328.9" font-family="Helvetica,sans-Serif" font-size="12.00" fill="#000000">and 29 more...</text>
<text text-anchor="start" x="342" y="-315.9" font-family="Helvetica,sans-Serif" font-size="12.00" fill="#000000">+ instance()</text>
<text text-anchor="start" x="342" y="-302.9" font-family="Helvetica,sans-Serif" font-size="12.00" fill="#000000">+ is_enabled()</text>
<text text-anchor="start" x="342" y="-289.9" font-family="Helvetica,sans-Serif" font-size="12.00" fill="#000000">+ enable()</text>
<text text-anchor="start" x="342" y="-276.9" font-family="Helvetica,sans-Serif" font-size="12.00" fill="#000000">+ write_json()</text>
<text text-anchor="start" x="342" y="-263.9" font-family="Helvetica,sans-Serif" font-size="12.00" fill="#000000">+ write_json()</text>
<text text-anchor="start" x="342" y="-250.9" font-family="Helvetica,sans-Serif" font-size="12.00" fill="#000000">+ max_depth()</text>
<text text-anchor="start" x="342" y="-237.9" font-family="Helvetica,sans-Serif" font-size="12.00" fill="#000000"># string_hash()</text>
<text text-anchor="start" x="342" y="-224.9" font-family="Helvetica,sans-Serif" font-size="12.00" fill="#000000"># get_prefix()</text>
<text text-anchor="start" x="342" y="-211.9" font-family="Helvetica,sans-Serif" font-size="12.00" fill="#000000"># const_merge()</text>
<text text-anchor="start" x="342" y="-198.9" font-family="Helvetica,sans-Serif" font-size="12.00" fill="#000000"># write_json_no_mpi()</text>
<text text-anchor="start" x="342" y="-185.9" font-family="Helvetica,sans-Serif" font-size="12.00" fill="#000000"># write_json_mpi()</text>
<text text-anchor="start" x="342" y="-172.9" font-family="Helvetica,sans-Serif" font-size="12.00" fill="#000000"># write_json_no_mpi()</text>
<text text-anchor="start" x="342" y="-159.9" font-family="Helvetica,sans-Serif" font-size="12.00" fill="#000000"># write_json_mpi()</text>
<text text-anchor="start" x="342" y="-146.9" font-family="Helvetica,sans-Serif" font-size="12.00" fill="#000000"># get_communicator_group()</text>
<text text-anchor="start" x="342" y="-133.9" font-family="Helvetica,sans-Serif" font-size="12.00" fill="#000000">&#45; get_ofstream()</text>
<text text-anchor="start" x="342" y="-120.9" font-family="Helvetica,sans-Serif" font-size="12.00" fill="#000000">&#45; report()</text>
</g>
<!-- Node1&#45;&gt;Node1 -->
<g id="edge8" class="edge">
<title>Node1&#45;&gt;Node1</title>
<path fill="none" stroke="#404040" d="M467.0955,-352.6777C477.7245,-347.0176 485,-334.125 485,-314 485,-300.4785 481.7157,-290.2219 476.3367,-283.23"/>
<polygon fill="none" stroke="#404040" points="476.2131,-283.1243 469.0536,-282.2624 467.0955,-275.3223 474.255,-276.1841 476.2131,-283.1243"/>
<text text-anchor="middle" x="508.5" y="-310.9" font-family="Helvetica,sans-Serif" font-size="12.00" fill="#000000"> &#45;f_instance</text>
</g>
<!-- Node9 -->
<g id="node9" class="node">
<title>Node9</title>
<polygon fill="#ffffff" stroke="#bfbfbf" points="299,-.5 299,-63.5 402,-63.5 402,-.5 299,-.5"/>
<text text-anchor="middle" x="350.5" y="-49.9" font-family="Helvetica,sans-Serif" font-size="12.00" fill="#000000">std::set&lt; this_type * &gt;</text>
<polyline fill="none" stroke="#bfbfbf" points="299,-42.5 402,-42.5 "/>
<text text-anchor="middle" x="350.5" y="-28.9" font-family="Helvetica,sans-Serif" font-size="12.00" fill="#000000"> </text>
<polyline fill="none" stroke="#bfbfbf" points="299,-21.5 402,-21.5 "/>
<text text-anchor="middle" x="350.5" y="-7.9" font-family="Helvetica,sans-Serif" font-size="12.00" fill="#000000"> </text>
</g>
<!-- Node1&#45;&gt;Node9 -->
<g id="edge10" class="edge">
<title>Node1&#45;&gt;Node9</title>
<path fill="none" stroke="#404040" d="M349.9608,-113.2523C349.0437,-107.1151 348.2182,-101.0207 347.5,-95 346.765,-88.8382 346.5024,-82.3171 346.5392,-75.8977"/>
<polygon fill="none" stroke="#404040" points="346.5425,-75.7934 342.7399,-69.6663 346.9331,-63.7997 350.7357,-69.9268 346.5425,-75.7934"/>
<text text-anchor="middle" x="361" y="-85.4" font-family="Helvetica,sans-Serif" font-size="12.00" fill="#000000"> +keys</text>
</g>
<!-- Node2 -->
<g id="node2" class="node">
<title>Node2</title>
<polygon fill="#ffffff" stroke="#bfbfbf" points="47,-584 47,-647 96,-647 96,-584 47,-584"/>
<text text-anchor="middle" x="71.5" y="-633.4" font-family="Helvetica,sans-Serif" font-size="12.00" fill="#000000">uint64_t</text>
<polyline fill="none" stroke="#bfbfbf" points="47,-626 96,-626 "/>
<text text-anchor="middle" x="71.5" y="-612.4" font-family="Helvetica,sans-Serif" font-size="12.00" fill="#000000"> </text>
<polyline fill="none" stroke="#bfbfbf" points="47,-605 96,-605 "/>
<text text-anchor="middle" x="71.5" y="-591.4" font-family="Helvetica,sans-Serif" font-size="12.00" fill="#000000"> </text>
</g>
<!-- Node2&#45;&gt;Node1 -->
<g id="edge1" class="edge">
<title>Node2&#45;&gt;Node1</title>
<path fill="none" stroke="#404040" d="M94.9747,-583.7372C107.2615,-567.8796 122.9548,-548.7668 138.5,-533 197.0046,-473.6616 270.2493,-413.4621 324.41,-371.2359"/>
<polygon fill="none" stroke="#404040" points="324.4729,-371.1871 326.7595,-364.3481 333.9519,-363.8284 331.6653,-370.6674 324.4729,-371.1871"/>
<text text-anchor="middle" x="159" y="-549.4" font-family="Helvetica,sans-Serif" font-size="12.00" fill="#000000"> &#45;m_count</text>
<text text-anchor="middle" x="159" y="-536.4" font-family="Helvetica,sans-Serif" font-size="12.00" fill="#000000">&#45;m_hash</text>
</g>
<!-- Node3 -->
<g id="node3" class="node">
<title>Node3</title>
<polygon fill="#ffffff" stroke="#bfbfbf" points="114,-584 114,-647 155,-647 155,-584 114,-584"/>
<text text-anchor="middle" x="134.5" y="-633.4" font-family="Helvetica,sans-Serif" font-size="12.00" fill="#000000">mutex</text>
<polyline fill="none" stroke="#bfbfbf" points="114,-626 155,-626 "/>
<text text-anchor="middle" x="134.5" y="-612.4" font-family="Helvetica,sans-Serif" font-size="12.00" fill="#000000"> </text>
<polyline fill="none" stroke="#bfbfbf" points="114,-605 155,-605 "/>
<text text-anchor="middle" x="134.5" y="-591.4" font-family="Helvetica,sans-Serif" font-size="12.00" fill="#000000"> </text>
</g>
<!-- Node3&#45;&gt;Node1 -->
<g id="edge2" class="edge">
<title>Node3&#45;&gt;Node1</title>
<path fill="none" stroke="#404040" d="M155.2463,-588.3852C158.307,-584.5292 161.4552,-580.6396 164.5,-577 216.7659,-514.5231 278.3018,-446.1051 325.4315,-394.7158"/>
<polygon fill="none" stroke="#404040" points="325.6422,-394.4864 326.7551,-387.3616 333.7597,-385.6485 332.6469,-392.7733 325.6422,-394.4864"/>
<text text-anchor="middle" x="218" y="-542.9" font-family="Helvetica,sans-Serif" font-size="12.00" fill="#000000"> &#45;m_mutex</text>
</g>
<!-- Node4 -->
<g id="node4" class="node">
<title>Node4</title>
<polygon fill="#ffffff" stroke="#bfbfbf" points="173.5,-584 173.5,-647 299.5,-647 299.5,-584 173.5,-584"/>
<text text-anchor="middle" x="236.5" y="-633.4" font-family="Helvetica,sans-Serif" font-size="12.00" fill="#000000">std::deque&lt; timer_tuple_t &gt;</text>
<polyline fill="none" stroke="#bfbfbf" points="173.5,-626 299.5,-626 "/>
<text text-anchor="middle" x="236.5" y="-612.4" font-family="Helvetica,sans-Serif" font-size="12.00" fill="#000000"> </text>
<polyline fill="none" stroke="#bfbfbf" points="173.5,-605 299.5,-605 "/>
<text text-anchor="middle" x="236.5" y="-591.4" font-family="Helvetica,sans-Serif" font-size="12.00" fill="#000000"> </text>
</g>
<!-- Node4&#45;&gt;Node1 -->
<g id="edge3" class="edge">
<title>Node4&#45;&gt;Node1</title>
<path fill="none" stroke="#404040" d="M253.7409,-583.8041C271.5534,-551.0574 300.559,-497.733 328.0999,-447.1013"/>
<polygon fill="none" stroke="#404040" points="328.2161,-446.8878 327.5693,-439.7057 333.9501,-436.3463 334.5969,-443.5284 328.2161,-446.8878"/>
<text text-anchor="middle" x="308" y="-542.9" font-family="Helvetica,sans-Serif" font-size="12.00" fill="#000000"> &#45;m_timer_list</text>
</g>
<!-- Node5 -->
<g id="node5" class="node">
<title>Node5</title>
<g id="a_node5"><a xlink:href="../../d4/ddd/struct_n_a_m_e___t_i_m_1_1timer__tuple.html" target="_top" xlink:title="{NAME_TIM::timer_tuple\n||+ timer_tuple()\l+ timer_tuple()\l+ operator=()\l+ operator==()\l+ operator!=()\l+ operator+=()\l+ operator+()\l+ key()\l+ key()\l+ level()\land 6 more...\l}">
<polygon fill="#ffffff" stroke="#000000" points="117,-703.5 117,-896.5 230,-896.5 230,-703.5 117,-703.5"/>
<text text-anchor="middle" x="173.5" y="-882.9" font-family="Helvetica,sans-Serif" font-size="12.00" fill="#000000">NAME_TIM::timer_tuple</text>
<polyline fill="none" stroke="#000000" points="117,-875.5 230,-875.5 "/>
<text text-anchor="middle" x="173.5" y="-861.9" font-family="Helvetica,sans-Serif" font-size="12.00" fill="#000000"> </text>
<polyline fill="none" stroke="#000000" points="117,-854.5 230,-854.5 "/>
<text text-anchor="start" x="125" y="-840.9" font-family="Helvetica,sans-Serif" font-size="12.00" fill="#000000">+ timer_tuple()</text>
<text text-anchor="start" x="125" y="-827.9" font-family="Helvetica,sans-Serif" font-size="12.00" fill="#000000">+ timer_tuple()</text>
<text text-anchor="start" x="125" y="-814.9" font-family="Helvetica,sans-Serif" font-size="12.00" fill="#000000">+ operator=()</text>
<text text-anchor="start" x="125" y="-801.9" font-family="Helvetica,sans-Serif" font-size="12.00" fill="#000000">+ operator==()</text>
<text text-anchor="start" x="125" y="-788.9" font-family="Helvetica,sans-Serif" font-size="12.00" fill="#000000">+ operator!=()</text>
<text text-anchor="start" x="125" y="-775.9" font-family="Helvetica,sans-Serif" font-size="12.00" fill="#000000">+ operator+=()</text>
<text text-anchor="start" x="125" y="-762.9" font-family="Helvetica,sans-Serif" font-size="12.00" fill="#000000">+ operator+()</text>
<text text-anchor="start" x="125" y="-749.9" font-family="Helvetica,sans-Serif" font-size="12.00" fill="#000000">+ key()</text>
<text text-anchor="start" x="125" y="-736.9" font-family="Helvetica,sans-Serif" font-size="12.00" fill="#000000">+ key()</text>
<text text-anchor="start" x="125" y="-723.9" font-family="Helvetica,sans-Serif" font-size="12.00" fill="#000000">+ level()</text>
<text text-anchor="start" x="125" y="-710.9" font-family="Helvetica,sans-Serif" font-size="12.00" fill="#000000">and 6 more...</text>
</a>
</g>
</g>
<!-- Node5&#45;&gt;Node4 -->
<g id="edge4" class="edge">
<title>Node5&#45;&gt;Node4</title>
<path fill="none" stroke="#404040" d="M193.8491,-703.3423C197.0042,-692.6325 200.5492,-681.9938 204.5,-672 206.365,-667.2824 208.5631,-662.4775 210.9195,-657.7618"/>
<polygon fill="none" stroke="#404040" points="211.0023,-657.6057 210.2787,-650.4309 216.6232,-647.0035 217.3468,-654.1782 211.0023,-657.6057"/>
<text text-anchor="middle" x="227" y="-675.4" font-family="Helvetica,sans-Serif" font-size="12.00" fill="#000000"> +elements</text>
</g>
<!-- Node6 -->
<g id="node6" class="node">
<title>Node6</title>
<polygon fill="#ffffff" stroke="#bfbfbf" points="125.5,-946.5 125.5,-1022.5 221.5,-1022.5 221.5,-946.5 125.5,-946.5"/>
<text text-anchor="start" x="133.5" y="-1008.9" font-family="Helvetica,sans-Serif" font-size="12.00" fill="#000000">internal::base_timer</text>
<text text-anchor="middle" x="173.5" y="-995.9" font-family="Helvetica,sans-Serif" font-size="12.00" fill="#000000">_tuple_t</text>
<polyline fill="none" stroke="#bfbfbf" points="125.5,-988.5 221.5,-988.5 "/>
<text text-anchor="middle" x="173.5" y="-974.9" font-family="Helvetica,sans-Serif" font-size="12.00" fill="#000000"> </text>
<polyline fill="none" stroke="#bfbfbf" points="125.5,-967.5 221.5,-967.5 "/>
<text text-anchor="middle" x="173.5" y="-953.9" font-family="Helvetica,sans-Serif" font-size="12.00" fill="#000000"> </text>
</g>
<!-- Node6&#45;&gt;Node5 -->
<g id="edge5" class="edge">
<title>Node6&#45;&gt;Node5</title>
<path fill="none" stroke="#191970" d="M173.5,-935.9738C173.5,-923.8371 173.5,-910.387 173.5,-896.8048"/>
<polygon fill="none" stroke="#191970" points="170.0001,-936.2714 173.5,-946.2715 177.0001,-936.2715 170.0001,-936.2714"/>
</g>
<!-- Node7 -->
<g id="node7" class="node">
<title>Node7</title>
<g id="a_node7"><a xlink:title="STL class. ">
<polygon fill="#ffffff" stroke="#bfbfbf" points="248.5,-768.5 248.5,-831.5 328.5,-831.5 328.5,-768.5 248.5,-768.5"/>
<text text-anchor="middle" x="288.5" y="-817.9" font-family="Helvetica,sans-Serif" font-size="12.00" fill="#000000">std::deque&lt; T &gt;</text>
<polyline fill="none" stroke="#bfbfbf" points="248.5,-810.5 328.5,-810.5 "/>
<text text-anchor="middle" x="288.5" y="-796.9" font-family="Helvetica,sans-Serif" font-size="12.00" fill="#000000"> </text>
<polyline fill="none" stroke="#bfbfbf" points="248.5,-789.5 328.5,-789.5 "/>
<text text-anchor="middle" x="288.5" y="-775.9" font-family="Helvetica,sans-Serif" font-size="12.00" fill="#000000"> </text>
</a>
</g>
</g>
<!-- Node7&#45;&gt;Node4 -->
<g id="edge6" class="edge">
<title>Node7&#45;&gt;Node4</title>
<path fill="none" stroke="#ffa500" d="M276.7379,-758.2673C267.2328,-724.5423 254.0569,-677.7931 245.4093,-647.111"/>
<polygon fill="#ffa500" stroke="#ffa500" points="273.4793,-759.6078 279.5609,-768.2833 280.2168,-757.7088 273.4793,-759.6078"/>
<text text-anchor="middle" x="291" y="-675.4" font-family="Helvetica,sans-Serif" font-size="12.00" fill="#000000"> &lt; timer_tuple_t &gt;</text>
</g>
<!-- Node8 -->
<g id="node8" class="node">
<title>Node8</title>
<polygon fill="#ffffff" stroke="#bfbfbf" points="274,-953 274,-1016 303,-1016 303,-953 274,-953"/>
<text text-anchor="middle" x="288.5" y="-1002.4" font-family="Helvetica,sans-Serif" font-size="12.00" fill="#000000">T</text>
<polyline fill="none" stroke="#bfbfbf" points="274,-995 303,-995 "/>
<text text-anchor="middle" x="288.5" y="-981.4" font-family="Helvetica,sans-Serif" font-size="12.00" fill="#000000"> </text>
<polyline fill="none" stroke="#bfbfbf" points="274,-974 303,-974 "/>
<text text-anchor="middle" x="288.5" y="-960.4" font-family="Helvetica,sans-Serif" font-size="12.00" fill="#000000"> </text>
</g>
<!-- Node8&#45;&gt;Node7 -->
<g id="edge7" class="edge">
<title>Node8&#45;&gt;Node7</title>
<path fill="none" stroke="#404040" d="M288.5,-952.7833C288.5,-922.7264 288.5,-877.3194 288.5,-843.8131"/>
<polygon fill="none" stroke="#404040" points="288.5001,-843.611 284.5,-837.611 288.5,-831.611 292.5,-837.6109 288.5001,-843.611"/>
<text text-anchor="middle" x="311" y="-918.4" font-family="Helvetica,sans-Serif" font-size="12.00" fill="#000000"> +elements</text>
</g>
<!-- Node9&#45;&gt;Node1 -->
<g id="edge9" class="edge">
<title>Node9&#45;&gt;Node1</title>
<path fill="none" stroke="#404040" d="M370.7839,-63.6576C373.82,-69.565 376.5734,-75.8268 378.5,-82 380.4775,-88.3363 382.292,-94.8133 383.956,-101.387"/>
<polygon fill="none" stroke="#404040" points="384.0161,-101.6398 389.2955,-106.5519 386.7918,-113.3144 381.5124,-108.4023 384.0161,-101.6398"/>
<text text-anchor="middle" x="411" y="-85.4" font-family="Helvetica,sans-Serif" font-size="12.00" fill="#000000"> &#45;m_daughters</text>
</g>
<!-- Node10 -->
<g id="node10" class="node">
<title>Node10</title>
<g id="a_node10"><a xlink:title="STL class. ">
<polygon fill="#ffffff" stroke="#bfbfbf" points="78,-282.5 78,-345.5 145,-345.5 145,-282.5 78,-282.5"/>
<text text-anchor="middle" x="111.5" y="-331.9" font-family="Helvetica,sans-Serif" font-size="12.00" fill="#000000">std::set&lt; K &gt;</text>
<polyline fill="none" stroke="#bfbfbf" points="78,-324.5 145,-324.5 "/>
<text text-anchor="middle" x="111.5" y="-310.9" font-family="Helvetica,sans-Serif" font-size="12.00" fill="#000000"> </text>
<polyline fill="none" stroke="#bfbfbf" points="78,-303.5 145,-303.5 "/>
<text text-anchor="middle" x="111.5" y="-289.9" font-family="Helvetica,sans-Serif" font-size="12.00" fill="#000000"> </text>
</a>
</g>
</g>
<!-- Node10&#45;&gt;Node9 -->
<g id="edge11" class="edge">
<title>Node10&#45;&gt;Node9</title>
<path fill="none" stroke="#ffa500" d="M135.5791,-273.6518C165.8416,-224.9127 221.177,-142.0038 281.5,-82 287.8979,-75.6359 295.1645,-69.4658 302.5225,-63.7586"/>
<polygon fill="#ffa500" stroke="#ffa500" points="132.4908,-271.992 130.2247,-282.3416 138.4503,-275.6641 132.4908,-271.992"/>
<text text-anchor="middle" x="312" y="-85.4" font-family="Helvetica,sans-Serif" font-size="12.00" fill="#000000"> &lt; this_type * &gt;</text>
</g>
<!-- Node11 -->
<g id="node11" class="node">
<title>Node11</title>
<polygon fill="#ffffff" stroke="#bfbfbf" points="0,-584 0,-647 29,-647 29,-584 0,-584"/>
<text text-anchor="middle" x="14.5" y="-633.4" font-family="Helvetica,sans-Serif" font-size="12.00" fill="#000000">K</text>
<polyline fill="none" stroke="#bfbfbf" points="0,-626 29,-626 "/>
<text text-anchor="middle" x="14.5" y="-612.4" font-family="Helvetica,sans-Serif" font-size="12.00" fill="#000000"> </text>
<polyline fill="none" stroke="#bfbfbf" points="0,-605 29,-605 "/>
<text text-anchor="middle" x="14.5" y="-591.4" font-family="Helvetica,sans-Serif" font-size="12.00" fill="#000000"> </text>
</g>
<!-- Node11&#45;&gt;Node10 -->
<g id="edge12" class="edge">
<title>Node11&#45;&gt;Node10</title>
<path fill="none" stroke="#404040" d="M15.4299,-583.7997C16.4249,-568.3046 18.4417,-549.4882 22.5,-533 38.1671,-469.347 68.9307,-399.8696 89.8534,-356.6153"/>
<polygon fill="none" stroke="#404040" points="89.9345,-356.4494 88.9788,-349.3019 95.2089,-345.6706 96.1646,-352.8181 89.9345,-356.4494"/>
<text text-anchor="middle" x="36" y="-542.9" font-family="Helvetica,sans-Serif" font-size="12.00" fill="#000000"> +keys</text>
</g>
<!-- Node12 -->
<g id="node12" class="node">
<title>Node12</title>
<polygon fill="#ffffff" stroke="#bfbfbf" points="317.5,-584 317.5,-647 393.5,-647 393.5,-584 317.5,-584"/>
<text text-anchor="middle" x="355.5" y="-633.4" font-family="Helvetica,sans-Serif" font-size="12.00" fill="#000000">atomic&lt; bool &gt;</text>
<polyline fill="none" stroke="#bfbfbf" points="317.5,-626 393.5,-626 "/>
<text text-anchor="middle" x="355.5" y="-612.4" font-family="Helvetica,sans-Serif" font-size="12.00" fill="#000000"> </text>
<polyline fill="none" stroke="#bfbfbf" points="317.5,-605 393.5,-605 "/>
<text text-anchor="middle" x="355.5" y="-591.4" font-family="Helvetica,sans-Serif" font-size="12.00" fill="#000000"> </text>
</g>
<!-- Node12&#45;&gt;Node1 -->
<g id="edge13" class="edge">
<title>Node12&#45;&gt;Node1</title>
<path fill="none" stroke="#404040" d="M360.2307,-583.8041C362.5165,-568.4894 365.474,-548.6739 368.748,-526.7381"/>
<polygon fill="none" stroke="#404040" points="368.7704,-526.5878 365.7,-520.063 370.5419,-514.7193 373.6123,-521.244 368.7704,-526.5878"/>
<text text-anchor="middle" x="389.5" y="-542.9" font-family="Helvetica,sans-Serif" font-size="12.00" fill="#000000"> &#45;m_merge</text>
</g>
<!-- Node13 -->
<g id="node13" class="node">
<title>Node13</title>
<polygon fill="#ffffff" stroke="#bfbfbf" points="412,-584 412,-647 479,-647 479,-584 412,-584"/>
<text text-anchor="middle" x="445.5" y="-633.4" font-family="Helvetica,sans-Serif" font-size="12.00" fill="#000000">static int32_t</text>
<polyline fill="none" stroke="#bfbfbf" points="412,-626 479,-626 "/>
<text text-anchor="middle" x="445.5" y="-612.4" font-family="Helvetica,sans-Serif" font-size="12.00" fill="#000000"> </text>
<polyline fill="none" stroke="#bfbfbf" points="412,-605 479,-605 "/>
<text text-anchor="middle" x="445.5" y="-591.4" font-family="Helvetica,sans-Serif" font-size="12.00" fill="#000000"> </text>
</g>
<!-- Node13&#45;&gt;Node1 -->
<g id="edge14" class="edge">
<title>Node13&#45;&gt;Node1</title>
<path fill="none" stroke="#404040" d="M440.7693,-583.8041C438.4835,-568.4894 435.526,-548.6739 432.252,-526.7381"/>
<polygon fill="none" stroke="#404040" points="432.2296,-526.5878 427.3877,-521.244 430.4581,-514.7193 435.3,-520.063 432.2296,-526.5878"/>
<text text-anchor="middle" x="465.5" y="-542.9" font-family="Helvetica,sans-Serif" font-size="12.00" fill="#000000"> &#45;f_max_depth</text>
</g>
<!-- Node14 -->
<g id="node14" class="node">
<title>Node14</title>
<polygon fill="#ffffff" stroke="#bfbfbf" points="497,-584 497,-647 560,-647 560,-584 497,-584"/>
<text text-anchor="middle" x="528.5" y="-633.4" font-family="Helvetica,sans-Serif" font-size="12.00" fill="#000000">ostream_t *</text>
<polyline fill="none" stroke="#bfbfbf" points="497,-626 560,-626 "/>
<text text-anchor="middle" x="528.5" y="-612.4" font-family="Helvetica,sans-Serif" font-size="12.00" fill="#000000"> </text>
<polyline fill="none" stroke="#bfbfbf" points="497,-605 560,-605 "/>
<text text-anchor="middle" x="528.5" y="-591.4" font-family="Helvetica,sans-Serif" font-size="12.00" fill="#000000"> </text>
</g>
<!-- Node14&#45;&gt;Node1 -->
<g id="edge15" class="edge">
<title>Node14&#45;&gt;Node1</title>
<path fill="none" stroke="#404040" d="M517.6303,-583.9572C512.1513,-568.4994 505.2501,-549.6689 498.5,-533 490.1789,-512.4515 481.0819,-490.9814 471.8912,-469.8609"/>
<polygon fill="none" stroke="#404040" points="471.8866,-469.8502 465.8183,-465.9547 467.0802,-458.8548 473.1485,-462.7504 471.8866,-469.8502"/>
<text text-anchor="middle" x="528.5" y="-542.9" font-family="Helvetica,sans-Serif" font-size="12.00" fill="#000000"> &#45;m_report</text>
</g>
<!-- Node15 -->
<g id="node15" class="node">
<title>Node15</title>
<polygon fill="#ffffff" stroke="#bfbfbf" points="578,-577.5 578,-653.5 687,-653.5 687,-577.5 578,-577.5"/>
<text text-anchor="start" x="586" y="-639.9" font-family="Helvetica,sans-Serif" font-size="12.00" fill="#000000">uomap&lt; uint64_t, timer</text>
<text text-anchor="middle" x="632.5" y="-626.9" font-family="Helvetica,sans-Serif" font-size="12.00" fill="#000000">_ptr_t &gt;</text>
<polyline fill="none" stroke="#bfbfbf" points="578,-619.5 687,-619.5 "/>
<text text-anchor="middle" x="632.5" y="-605.9" font-family="Helvetica,sans-Serif" font-size="12.00" fill="#000000"> </text>
<polyline fill="none" stroke="#bfbfbf" points="578,-598.5 687,-598.5 "/>
<text text-anchor="middle" x="632.5" y="-584.9" font-family="Helvetica,sans-Serif" font-size="12.00" fill="#000000"> </text>
</g>
<!-- Node15&#45;&gt;Node1 -->
<g id="edge16" class="edge">
<title>Node15&#45;&gt;Node1</title>
<path fill="none" stroke="#404040" d="M603.117,-577.3148C570.9591,-535.5233 518.1672,-466.9166 474.5324,-410.2102"/>
<polygon fill="none" stroke="#404040" points="474.3752,-410.0059 467.5461,-407.6901 467.0571,-400.4956 473.8863,-402.8114 474.3752,-410.0059"/>
<text text-anchor="middle" x="618" y="-542.9" font-family="Helvetica,sans-Serif" font-size="12.00" fill="#000000"> &#45;m_timer_map</text>
</g>
<!-- Node16 -->
<g id="node16" class="node">
<title>Node16</title>
<polygon fill="#ffffff" stroke="#bfbfbf" points="705,-584 705,-647 762,-647 762,-584 705,-584"/>
<text text-anchor="middle" x="733.5" y="-633.4" font-family="Helvetica,sans-Serif" font-size="12.00" fill="#000000">static bool</text>
<polyline fill="none" stroke="#bfbfbf" points="705,-626 762,-626 "/>
<text text-anchor="middle" x="733.5" y="-612.4" font-family="Helvetica,sans-Serif" font-size="12.00" fill="#000000"> </text>
<polyline fill="none" stroke="#bfbfbf" points="705,-605 762,-605 "/>
<text text-anchor="middle" x="733.5" y="-591.4" font-family="Helvetica,sans-Serif" font-size="12.00" fill="#000000"> </text>
</g>
<!-- Node16&#45;&gt;Node1 -->
<g id="edge17" class="edge">
<title>Node16&#45;&gt;Node1</title>
<path fill="none" stroke="#404040" d="M704.8763,-585.0783C689.6464,-569.2193 670.4107,-549.6998 652.5,-533 594.7307,-479.1366 527.0602,-420.5641 476.3978,-377.5576"/>
<polygon fill="none" stroke="#404040" points="476.2966,-377.4718 469.1332,-376.6439 467.1422,-369.7131 474.3056,-370.541 476.2966,-377.4718"/>
<text text-anchor="middle" x="700.5" y="-542.9" font-family="Helvetica,sans-Serif" font-size="12.00" fill="#000000"> &#45;f_enabled</text>
</g>
<!-- Node17 -->
<g id="node17" class="node">
<title>Node17</title>
<polygon fill="#ffffff" stroke="#bfbfbf" points="780.5,-584 780.5,-647 852.5,-647 852.5,-584 780.5,-584"/>
<text text-anchor="middle" x="816.5" y="-633.4" font-family="Helvetica,sans-Serif" font-size="12.00" fill="#000000">static mutex_t</text>
<polyline fill="none" stroke="#bfbfbf" points="780.5,-626 852.5,-626 "/>
<text text-anchor="middle" x="816.5" y="-612.4" font-family="Helvetica,sans-Serif" font-size="12.00" fill="#000000"> </text>
<polyline fill="none" stroke="#bfbfbf" points="780.5,-605 852.5,-605 "/>
<text text-anchor="middle" x="816.5" y="-591.4" font-family="Helvetica,sans-Serif" font-size="12.00" fill="#000000"> </text>
</g>
<!-- Node17&#45;&gt;Node1 -->
<g id="edge18" class="edge">
<title>Node17&#45;&gt;Node1</title>
<path fill="none" stroke="#404040" d="M784.6279,-583.6609C768.1309,-567.7838 747.3355,-548.6766 727.5,-533 645.8315,-468.455 545.5562,-403.1719 477.7445,-360.8886"/>
<polygon fill="none" stroke="#404040" points="477.34,-360.6373 470.1326,-360.8678 467.1476,-354.3035 474.3551,-354.0729 477.34,-360.6373"/>
<text text-anchor="middle" x="777.5" y="-542.9" font-family="Helvetica,sans-Serif" font-size="12.00" fill="#000000"> #f_mutex</text>
</g>
</g>
</svg>
