<?xml version="1.0" encoding="UTF-8" standalone="no"?>
<!DOCTYPE svg PUBLIC "-//W3C//DTD SVG 1.1//EN"
 "http://www.w3.org/Graphics/SVG/1.1/DTD/svg11.dtd">
<!-- Generated by graphviz version 2.40.1 (20161225.0304)
 -->
<!-- Title: timemory/utility.hpp Pages: 1 -->
<svg width="718pt" height="391pt"
 viewBox="0.00 0.00 717.50 391.00" xmlns="http://www.w3.org/2000/svg" xmlns:xlink="http://www.w3.org/1999/xlink">
<g id="graph0" class="graph" transform="scale(1 1) rotate(0) translate(4 387)">
<title>timemory/utility.hpp</title>
<polygon fill="#ffffff" stroke="transparent" points="-4,4 -4,-387 713.5,-387 713.5,4 -4,4"/>
<!-- Node15 -->
<g id="node1" class="node">
<title>Node15</title>
<polygon fill="#bfbfbf" stroke="#000000" points="335.5,-361.5 335.5,-382.5 429.5,-382.5 429.5,-361.5 335.5,-361.5"/>
<text text-anchor="middle" x="382.5" y="-368.9" font-family="Helvetica,sans-Serif" font-size="12.00" fill="#000000">timemory/utility.hpp</text>
</g>
<!-- Node16 -->
<g id="node2" class="node">
<title>Node16</title>
<g id="a_node2"><a xlink:href="../../d8/d07/auto__timer_8hpp.html" target="_top" xlink:title="timemory/auto_timer.hpp">
<polygon fill="#ffffff" stroke="#000000" points="340.5,-71.5 340.5,-92.5 456.5,-92.5 456.5,-71.5 340.5,-71.5"/>
<text text-anchor="middle" x="398.5" y="-78.9" font-family="Helvetica,sans-Serif" font-size="12.00" fill="#000000">timemory/auto_timer.hpp</text>
</a>
</g>
</g>
<!-- Node15&#45;&gt;Node16 -->
<g id="edge1" class="edge">
<title>Node15&#45;&gt;Node16</title>
<path fill="none" stroke="#191970" d="M424.0496,-356.9726C438.1998,-349.6281 452.4621,-339.2277 460.5,-325 506.3301,-243.8772 432.2129,-128.5753 406.6596,-92.9253"/>
<polygon fill="#191970" stroke="#191970" points="422.3535,-353.9037 414.8336,-361.3671 425.3664,-360.2222 422.3535,-353.9037"/>
</g>
<!-- Node20 -->
<g id="node6" class="node">
<title>Node20</title>
<g id="a_node6"><a xlink:href="../../d2/d80/auto__timer_8cpp.html" target="_top" xlink:title="auto_timer.cpp">
<polygon fill="#ffffff" stroke="#000000" points="633.5,-7 633.5,-28 709.5,-28 709.5,-7 633.5,-7"/>
<text text-anchor="middle" x="671.5" y="-14.4" font-family="Helvetica,sans-Serif" font-size="12.00" fill="#000000">auto_timer.cpp</text>
</a>
</g>
</g>
<!-- Node15&#45;&gt;Node20 -->
<g id="edge8" class="edge">
<title>Node15&#45;&gt;Node20</title>
<path fill="none" stroke="#191970" d="M436.1976,-358.7922C510.2008,-338.9943 634.5,-299.2966 634.5,-256 634.5,-256 634.5,-256 634.5,-140 634.5,-97.1226 655.5299,-49.2704 665.8805,-28.3149"/>
<polygon fill="#191970" stroke="#191970" points="434.8849,-355.5186 426.1074,-361.452 436.6692,-362.2874 434.8849,-355.5186"/>
</g>
<!-- Node23 -->
<g id="node9" class="node">
<title>Node23</title>
<g id="a_node9"><a xlink:href="../../d6/d01/base__timer_8hpp.html" target="_top" xlink:title="timemory/base_timer.hpp">
<polygon fill="#ffffff" stroke="#000000" points="129.5,-245.5 129.5,-266.5 247.5,-266.5 247.5,-245.5 129.5,-245.5"/>
<text text-anchor="middle" x="188.5" y="-252.9" font-family="Helvetica,sans-Serif" font-size="12.00" fill="#000000">timemory/base_timer.hpp</text>
</a>
</g>
</g>
<!-- Node15&#45;&gt;Node23 -->
<g id="edge9" class="edge">
<title>Node15&#45;&gt;Node23</title>
<path fill="none" stroke="#191970" d="M335.1041,-358.3401C311.9057,-350.4965 284.1664,-339.333 261.5,-325 235.2638,-308.4097 210.2198,-281.5316 197.3942,-266.6929"/>
<polygon fill="#191970" stroke="#191970" points="334.1474,-361.7097 344.7402,-361.498 336.3274,-355.0578 334.1474,-361.7097"/>
</g>
<!-- Node26 -->
<g id="node12" class="node">
<title>Node26</title>
<g id="a_node12"><a xlink:href="../../df/df2/timing__manager_8hpp.html" target="_top" xlink:title="timemory/timing_manager.hpp">
<polygon fill="#ffffff" stroke="#000000" points="147.5,-129.5 147.5,-150.5 285.5,-150.5 285.5,-129.5 147.5,-129.5"/>
<text text-anchor="middle" x="216.5" y="-136.9" font-family="Helvetica,sans-Serif" font-size="12.00" fill="#000000">timemory/timing_manager.hpp</text>
</a>
</g>
</g>
<!-- Node15&#45;&gt;Node26 -->
<g id="edge28" class="edge">
<title>Node15&#45;&gt;Node26</title>
<path fill="none" stroke="#191970" d="M345.9861,-357.0141C331.0802,-349.3369 314.7406,-338.6849 303.5,-325 262.1892,-274.7062 286.3041,-243.7851 254.5,-187 246.9113,-173.4507 235.3964,-159.859 227.0312,-150.8025"/>
<polygon fill="#191970" stroke="#191970" points="344.4999,-360.1832 355.0235,-361.4103 347.562,-353.8885 344.4999,-360.1832"/>
</g>
<!-- Node28 -->
<g id="node14" class="node">
<title>Node28</title>
<g id="a_node14"><a xlink:href="../../da/d8e/signal__detection_8hpp.html" target="_top" xlink:title="timemory/signal_detection.hpp">
<polygon fill="#ffffff" stroke="#000000" points="313,-303.5 313,-324.5 452,-324.5 452,-303.5 313,-303.5"/>
<text text-anchor="middle" x="382.5" y="-310.9" font-family="Helvetica,sans-Serif" font-size="12.00" fill="#000000">timemory/signal_detection.hpp</text>
</a>
</g>
</g>
<!-- Node15&#45;&gt;Node28 -->
<g id="edge21" class="edge">
<title>Node15&#45;&gt;Node28</title>
<path fill="none" stroke="#191970" d="M382.5,-351.1906C382.5,-342.1684 382.5,-331.9941 382.5,-324.5707"/>
<polygon fill="#191970" stroke="#191970" points="379.0001,-351.3619 382.5,-361.3619 386.0001,-351.3619 379.0001,-351.3619"/>
</g>
<!-- Node17 -->
<g id="node3" class="node">
<title>Node17</title>
<g id="a_node3"><a xlink:href="../../d0/d90/ex1_2test__timing_8cpp.html" target="_top" xlink:title="examples/ex1/test_timing.cpp">
<polygon fill="#ffffff" stroke="#000000" points="200,-7 200,-28 335,-28 335,-7 200,-7"/>
<text text-anchor="middle" x="267.5" y="-14.4" font-family="Helvetica,sans-Serif" font-size="12.00" fill="#000000">examples/ex1/test_timing.cpp</text>
</a>
</g>
</g>
<!-- Node16&#45;&gt;Node17 -->
<g id="edge2" class="edge">
<title>Node16&#45;&gt;Node17</title>
<path fill="none" stroke="#191970" d="M368.0175,-66.9915C343.7257,-55.031 310.332,-38.589 288.8298,-28.0021"/>
<polygon fill="#191970" stroke="#191970" points="366.6435,-70.2161 377.161,-71.4934 369.7356,-63.9361 366.6435,-70.2161"/>
</g>
<!-- Node18 -->
<g id="node4" class="node">
<title>Node18</title>
<g id="a_node4"><a xlink:href="../../dd/d0a/mpi__test__timing_8cpp.html" target="_top" xlink:title="examples/ex2/mpi_test\l_timing.cpp">
<polygon fill="#ffffff" stroke="#000000" points="506,-.5 506,-34.5 615,-34.5 615,-.5 506,-.5"/>
<text text-anchor="start" x="514" y="-20.9" font-family="Helvetica,sans-Serif" font-size="12.00" fill="#000000">examples/ex2/mpi_test</text>
<text text-anchor="middle" x="560.5" y="-7.9" font-family="Helvetica,sans-Serif" font-size="12.00" fill="#000000">_timing.cpp</text>
</a>
</g>
</g>
<!-- Node16&#45;&gt;Node18 -->
<g id="edge3" class="edge">
<title>Node16&#45;&gt;Node18</title>
<path fill="none" stroke="#191970" d="M434.2189,-67.7786C458.8268,-57.981 491.6501,-44.9125 517.6648,-34.5547"/>
<polygon fill="#191970" stroke="#191970" points="432.8846,-64.5425 424.8886,-71.4934 435.474,-71.046 432.8846,-64.5425"/>
</g>
<!-- Node19 -->
<g id="node5" class="node">
<title>Node19</title>
<g id="a_node5"><a xlink:href="../../d2/dc1/ex3_2test__timing_8cpp.html" target="_top" xlink:title="examples/ex3/test_timing.cpp">
<polygon fill="#ffffff" stroke="#000000" points="353,-7 353,-28 488,-28 488,-7 353,-7"/>
<text text-anchor="middle" x="420.5" y="-14.4" font-family="Helvetica,sans-Serif" font-size="12.00" fill="#000000">examples/ex3/test_timing.cpp</text>
</a>
</g>
</g>
<!-- Node16&#45;&gt;Node19 -->
<g id="edge4" class="edge">
<title>Node16&#45;&gt;Node19</title>
<path fill="none" stroke="#191970" d="M405.4414,-61.6491C409.1999,-50.6299 413.6936,-37.455 416.7882,-28.3823"/>
<polygon fill="#191970" stroke="#191970" points="402.0485,-60.7546 402.1329,-71.3491 408.6738,-63.0144 402.0485,-60.7546"/>
</g>
<!-- Node16&#45;&gt;Node20 -->
<g id="edge5" class="edge">
<title>Node16&#45;&gt;Node20</title>
<path fill="none" stroke="#191970" d="M466.7898,-70.376C511.7164,-62.0838 571.5889,-49.8019 623.5,-35 630.4092,-33.0299 637.7516,-30.5545 644.5614,-28.0909"/>
<polygon fill="#191970" stroke="#191970" points="466.0716,-66.9492 456.8628,-72.1884 467.3288,-73.8354 466.0716,-66.9492"/>
</g>
<!-- Node21 -->
<g id="node7" class="node">
<title>Node21</title>
<g id="a_node7"><a xlink:href="../../d2/dfd/timemory_8cc.html" target="_top" xlink:title="timemory.cc">
<polygon fill="#ffffff" stroke="#000000" points="0,-7 0,-28 65,-28 65,-7 0,-7"/>
<text text-anchor="middle" x="32.5" y="-14.4" font-family="Helvetica,sans-Serif" font-size="12.00" fill="#000000">timemory.cc</text>
</a>
</g>
</g>
<!-- Node16&#45;&gt;Node21 -->
<g id="edge6" class="edge">
<title>Node16&#45;&gt;Node21</title>
<path fill="none" stroke="#191970" d="M329.9261,-77.0711C263.6341,-71.1378 160.83,-58.839 74.5,-35 67.9517,-33.1918 61.0631,-30.6235 54.802,-28.0099"/>
<polygon fill="#191970" stroke="#191970" points="329.978,-80.5888 340.2439,-77.9695 330.5853,-73.6152 329.978,-80.5888"/>
</g>
<!-- Node22 -->
<g id="node8" class="node">
<title>Node22</title>
<g id="a_node8"><a xlink:href="../../d9/dad/timing__manager_8cpp.html" target="_top" xlink:title="timing_manager.cpp">
<polygon fill="#ffffff" stroke="#000000" points="83.5,-7 83.5,-28 181.5,-28 181.5,-7 83.5,-7"/>
<text text-anchor="middle" x="132.5" y="-14.4" font-family="Helvetica,sans-Serif" font-size="12.00" fill="#000000">timing_manager.cpp</text>
</a>
</g>
</g>
<!-- Node16&#45;&gt;Node22 -->
<g id="edge7" class="edge">
<title>Node16&#45;&gt;Node22</title>
<path fill="none" stroke="#191970" d="M336.9948,-69.2984C295.4426,-60.4247 239.4476,-47.8972 190.5,-35 182.5669,-32.9097 174.0836,-30.4686 166.1219,-28.0845"/>
<polygon fill="#191970" stroke="#191970" points="336.4573,-72.7623 346.9664,-71.417 337.9122,-65.9151 336.4573,-72.7623"/>
</g>
<!-- Node24 -->
<g id="node10" class="node">
<title>Node24</title>
<g id="a_node10"><a xlink:href="../../dd/d84/base__timer_8cpp.html" target="_top" xlink:title="base_timer.cpp">
<polygon fill="#ffffff" stroke="#000000" points="167.5,-187.5 167.5,-208.5 245.5,-208.5 245.5,-187.5 167.5,-187.5"/>
<text text-anchor="middle" x="206.5" y="-194.9" font-family="Helvetica,sans-Serif" font-size="12.00" fill="#000000">base_timer.cpp</text>
</a>
</g>
</g>
<!-- Node23&#45;&gt;Node24 -->
<g id="edge10" class="edge">
<title>Node23&#45;&gt;Node24</title>
<path fill="none" stroke="#191970" d="M194.774,-235.7838C197.6189,-226.617 200.865,-216.1572 203.2195,-208.5707"/>
<polygon fill="#191970" stroke="#191970" points="191.4228,-234.7738 191.8015,-245.3619 198.1083,-236.8487 191.4228,-234.7738"/>
</g>
<!-- Node25 -->
<g id="node11" class="node">
<title>Node25</title>
<g id="a_node11"><a xlink:href="../../df/d05/timer_8hpp.html" target="_top" xlink:title="timemory/timer.hpp">
<polygon fill="#ffffff" stroke="#000000" points="55.5,-187.5 55.5,-208.5 149.5,-208.5 149.5,-187.5 55.5,-187.5"/>
<text text-anchor="middle" x="102.5" y="-194.9" font-family="Helvetica,sans-Serif" font-size="12.00" fill="#000000">timemory/timer.hpp</text>
</a>
</g>
</g>
<!-- Node23&#45;&gt;Node25 -->
<g id="edge11" class="edge">
<title>Node23&#45;&gt;Node25</title>
<path fill="none" stroke="#191970" d="M164.0949,-239.5407C149.3512,-229.5973 130.9952,-217.2177 118.1737,-208.5707"/>
<polygon fill="#191970" stroke="#191970" points="162.4785,-242.6722 172.7263,-245.3619 166.3925,-236.8687 162.4785,-242.6722"/>
</g>
<!-- Node25&#45;&gt;Node21 -->
<g id="edge19" class="edge">
<title>Node25&#45;&gt;Node21</title>
<path fill="none" stroke="#191970" d="M85.5129,-179.4672C78.7527,-171.2527 71.4261,-161.1587 66.5,-151 45.7333,-108.1747 36.7074,-51.2602 33.7176,-28.0386"/>
<polygon fill="#191970" stroke="#191970" points="83.0527,-181.9742 92.2283,-187.2712 88.3587,-177.4083 83.0527,-181.9742"/>
</g>
<!-- Node25&#45;&gt;Node26 -->
<g id="edge12" class="edge">
<title>Node25&#45;&gt;Node26</title>
<path fill="none" stroke="#191970" d="M132.1167,-182.9319C152.0443,-172.7932 177.8289,-159.6748 195.6238,-150.6212"/>
<polygon fill="#191970" stroke="#191970" points="130.4702,-179.8425 123.1445,-187.4966 133.6445,-186.0815 130.4702,-179.8425"/>
</g>
<!-- Node27 -->
<g id="node13" class="node">
<title>Node27</title>
<g id="a_node13"><a xlink:href="../../dc/de5/timer_8cpp.html" target="_top" xlink:title="timer.cpp">
<polygon fill="#ffffff" stroke="#000000" points="75.5,-129.5 75.5,-150.5 129.5,-150.5 129.5,-129.5 75.5,-129.5"/>
<text text-anchor="middle" x="102.5" y="-136.9" font-family="Helvetica,sans-Serif" font-size="12.00" fill="#000000">timer.cpp</text>
</a>
</g>
</g>
<!-- Node25&#45;&gt;Node27 -->
<g id="edge20" class="edge">
<title>Node25&#45;&gt;Node27</title>
<path fill="none" stroke="#191970" d="M102.5,-177.1906C102.5,-168.1684 102.5,-157.9941 102.5,-150.5707"/>
<polygon fill="#191970" stroke="#191970" points="99.0001,-177.3619 102.5,-187.3619 106.0001,-177.3619 99.0001,-177.3619"/>
</g>
<!-- Node26&#45;&gt;Node16 -->
<g id="edge16" class="edge">
<title>Node26&#45;&gt;Node16</title>
<path fill="none" stroke="#191970" d="M259.1359,-126.4127C291.6076,-116.0646 335.6603,-102.0258 365.4794,-92.5231"/>
<polygon fill="#191970" stroke="#191970" points="257.924,-123.1255 249.4588,-129.4966 260.0495,-129.795 257.924,-123.1255"/>
</g>
<!-- Node26&#45;&gt;Node17 -->
<g id="edge13" class="edge">
<title>Node26&#45;&gt;Node17</title>
<path fill="none" stroke="#191970" d="M224.9305,-119.7503C235.8694,-93.4755 254.5574,-48.5876 263.0571,-28.1718"/>
<polygon fill="#191970" stroke="#191970" points="221.6383,-118.5518 221.0259,-129.1289 228.1006,-121.2423 221.6383,-118.5518"/>
</g>
<!-- Node26&#45;&gt;Node18 -->
<g id="edge14" class="edge">
<title>Node26&#45;&gt;Node18</title>
<path fill="none" stroke="#191970" d="M295.7088,-134.8618C346.1663,-129.254 411.8861,-117.5263 465.5,-93 496.5357,-78.8023 526.3348,-52.3395 544.034,-34.8201"/>
<polygon fill="#191970" stroke="#191970" points="295.0851,-131.408 285.5065,-135.9358 295.818,-138.3695 295.0851,-131.408"/>
</g>
<!-- Node26&#45;&gt;Node19 -->
<g id="edge15" class="edge">
<title>Node26&#45;&gt;Node19</title>
<path fill="none" stroke="#191970" d="M242.8856,-124.1557C285.1879,-98.7536 367.0641,-49.5877 402.9395,-28.0449"/>
<polygon fill="#191970" stroke="#191970" points="241.0181,-121.1945 234.2468,-129.3432 244.6217,-127.1957 241.0181,-121.1945"/>
</g>
<!-- Node26&#45;&gt;Node21 -->
<g id="edge17" class="edge">
<title>Node26&#45;&gt;Node21</title>
<path fill="none" stroke="#191970" d="M191.9771,-123.6736C153.619,-98.1363 80.4936,-49.4522 48.3389,-28.0449"/>
<polygon fill="#191970" stroke="#191970" points="190.2295,-126.7148 200.4931,-129.3432 194.1087,-120.888 190.2295,-126.7148"/>
</g>
<!-- Node26&#45;&gt;Node22 -->
<g id="edge18" class="edge">
<title>Node26&#45;&gt;Node22</title>
<path fill="none" stroke="#191970" d="M203.3251,-120.7867C185.4176,-94.6716 154.003,-48.8586 139.8178,-28.1718"/>
<polygon fill="#191970" stroke="#191970" points="200.5037,-122.861 209.0456,-129.1289 206.2768,-118.9023 200.5037,-122.861"/>
</g>
<!-- Node28&#45;&gt;Node17 -->
<g id="edge22" class="edge">
<title>Node28&#45;&gt;Node17</title>
<path fill="none" stroke="#191970" d="M359.1405,-296.8729C349.615,-288.7887 339.2716,-278.4107 332.5,-267 326.118,-256.2458 281.3359,-74.0978 270.0683,-28.0227"/>
<polygon fill="#191970" stroke="#191970" points="357.2066,-299.8093 367.1905,-303.3549 361.5968,-294.3571 357.2066,-299.8093"/>
</g>
<!-- Node28&#45;&gt;Node18 -->
<g id="edge23" class="edge">
<title>Node28&#45;&gt;Node18</title>
<path fill="none" stroke="#191970" d="M444.2162,-300.6419C495.6333,-285.4566 560.5,-255.0032 560.5,-198 560.5,-198 560.5,-198 560.5,-140 560.5,-102.3568 560.5,-58.2069 560.5,-34.5428"/>
<polygon fill="#191970" stroke="#191970" points="443.139,-297.3091 434.4635,-303.3907 445.038,-304.0466 443.139,-297.3091"/>
</g>
<!-- Node28&#45;&gt;Node19 -->
<g id="edge24" class="edge">
<title>Node28&#45;&gt;Node19</title>
<path fill="none" stroke="#191970" d="M416.1309,-298.3119C428.7183,-290.6817 441.8159,-280.2545 449.5,-267 493.3354,-191.3867 495.4415,-153.1122 465.5,-71 459.1801,-53.6681 444.5008,-38.057 433.6169,-28.2334"/>
<polygon fill="#191970" stroke="#191970" points="414.1368,-295.4179 407.1401,-303.3739 417.5711,-301.5176 414.1368,-295.4179"/>
</g>
<!-- Node28&#45;&gt;Node21 -->
<g id="edge27" class="edge">
<title>Node28&#45;&gt;Node21</title>
<path fill="none" stroke="#191970" d="M302.7418,-305.4537C193.1724,-291.4583 9.5,-258.9131 9.5,-198 9.5,-198 9.5,-198 9.5,-140 9.5,-98.0204 22.7084,-49.3169 29.1063,-28.1884"/>
<polygon fill="#191970" stroke="#191970" points="302.4217,-308.9409 312.7791,-306.7105 303.2915,-301.9951 302.4217,-308.9409"/>
</g>
<!-- Node28&#45;&gt;Node23 -->
<g id="edge25" class="edge">
<title>Node28&#45;&gt;Node23</title>
<path fill="none" stroke="#191970" d="M337.4999,-300.5464C302.8454,-290.1857 255.62,-276.0668 223.6978,-266.5231"/>
<polygon fill="#191970" stroke="#191970" points="336.7845,-303.9855 347.3681,-303.4966 338.7897,-297.2788 336.7845,-303.9855"/>
</g>
<!-- Node29 -->
<g id="node15" class="node">
<title>Node29</title>
<g id="a_node15"><a xlink:href="../../dc/d43/signal__detection_8cpp.html" target="_top" xlink:title="signal_detection.cpp">
<polygon fill="#ffffff" stroke="#000000" points="342,-245.5 342,-266.5 441,-266.5 441,-245.5 342,-245.5"/>
<text text-anchor="middle" x="391.5" y="-252.9" font-family="Helvetica,sans-Serif" font-size="12.00" fill="#000000">signal_detection.cpp</text>
</a>
</g>
</g>
<!-- Node28&#45;&gt;Node29 -->
<g id="edge26" class="edge">
<title>Node28&#45;&gt;Node29</title>
<path fill="none" stroke="#191970" d="M385.729,-293.1906C387.129,-284.1684 388.7078,-273.9941 389.8597,-266.5707"/>
<polygon fill="#191970" stroke="#191970" points="382.2256,-292.9435 384.1507,-303.3619 389.1428,-294.0169 382.2256,-292.9435"/>
</g>
</g>
</svg>
