<?xml version="1.0" encoding="UTF-8" standalone="no"?>
<!DOCTYPE svg PUBLIC "-//W3C//DTD SVG 1.1//EN"
 "http://www.w3.org/Graphics/SVG/1.1/DTD/svg11.dtd">
<!-- Generated by graphviz version 2.40.1 (20161225.0304)
 -->
<!-- Title: timemory/utility.hpp Pages: 1 -->
<!--zoomable 204 -->
<svg id="main" version="1.1" xmlns="http://www.w3.org/2000/svg" xmlns:xlink="http://www.w3.org/1999/xlink" xml:space="preserve" onload="init(evt)">
<style type="text/css"><![CDATA[
.edge:hover path { stroke: red; }
.edge:hover polygon { stroke: red; fill: red; }
]]></style>
<script type="text/javascript"><![CDATA[
var edges = document.getElementsByTagName('g');
if (edges && edges.length) {
  for (var i=0;i<edges.length;i++) {
    if (edges[i].id.substr(0,4)=='edge') {
      edges[i].setAttribute('class','edge');
    }
  }
}
]]></script>
        <defs>
                <circle id="rim" cx="0" cy="0" r="7"/>
                <circle id="rim2" cx="0" cy="0" r="3.5"/>
                <g id="zoomPlus">
                        <use xlink:href="#rim" fill="#404040">
                                <set attributeName="fill" to="#808080" begin="zoomplus.mouseover" end="zoomplus.mouseout"/>
                        </use>
                        <path d="M-4,0h8M0,-4v8" fill="none" stroke="white" stroke-width="1.5" pointer-events="none"/>
                </g>
                <g id="zoomMin">
                        <use xlink:href="#rim" fill="#404040">
                                <set attributeName="fill" to="#808080" begin="zoomminus.mouseover" end="zoomminus.mouseout"/>
                        </use>
                        <path d="M-4,0h8" fill="none" stroke="white" stroke-width="1.5" pointer-events="none"/>
                </g>
                <g id="dirArrow">
                        <path fill="none" stroke="white" stroke-width="1.5" d="M0,-3.0v7 M-2.5,-0.5L0,-3.0L2.5,-0.5"/>
                </g>
               <g id="resetDef">
                       <use xlink:href="#rim2" fill="#404040">
                               <set attributeName="fill" to="#808080" begin="reset.mouseover" end="reset.mouseout"/>
                       </use>
               </g>
        </defs>

<script type="text/javascript">
var viewWidth = 554;
var viewHeight = 204;
var sectionId = 'dynsection-1';
</script>
<script xlink:href="../../svgpan.js"/>
<svg id="graph" class="graph">
<g id="viewport">
<title>timemory/utility.hpp</title>
<polygon fill="#ffffff" stroke="transparent" points="-4,4 -4,-200 549.5,-200 549.5,4 -4,4"/>
<!-- Node15 -->
<g id="node1" class="node">
<title>Node15</title>
<polygon fill="#bfbfbf" stroke="#000000" points="306.5,-174.5 306.5,-195.5 400.5,-195.5 400.5,-174.5 306.5,-174.5"/>
<text text-anchor="middle" x="353.5" y="-181.9" font-family="Helvetica,sans-Serif" font-size="12.00" fill="#000000">timemory/utility.hpp</text>
</g>
<!-- Node16 -->
<g id="node2" class="node">
<title>Node16</title>
<g id="a_node2"><a xlink:href="../../d8/d07/auto__timer_8hpp.html" target="_top" xlink:title="timemory/auto_timer.hpp">
<polygon fill="#ffffff" stroke="#000000" points="344.5,-58.5 344.5,-79.5 460.5,-79.5 460.5,-58.5 344.5,-58.5"/>
<text text-anchor="middle" x="402.5" y="-65.9" font-family="Helvetica,sans-Serif" font-size="12.00" fill="#000000">timemory/auto_timer.hpp</text>
</a>
</g>
</g>
<!-- Node15&#45;&gt;Node16 -->
<g id="edge1" class="edge">
<title>Node15&#45;&gt;Node16</title>
<path fill="none" stroke="#191970" d="M367.3977,-166.105C373.0088,-157.8042 379.1674,-147.7436 383.5,-138 392.2841,-118.2454 397.9048,-93.4684 400.6044,-79.6225"/>
<polygon fill="#191970" stroke="#191970" points="364.5109,-164.1257 361.6364,-174.3232 370.2427,-168.144 364.5109,-164.1257"/>
</g>
<!-- Node18 -->
<g id="node4" class="node">
<title>Node18</title>
<g id="a_node4"><a xlink:href="../../d2/d80/auto__timer_8cpp.html" target="_top" xlink:title="auto_timer.cpp">
<polygon fill="#ffffff" stroke="#000000" points="469.5,-.5 469.5,-21.5 545.5,-21.5 545.5,-.5 469.5,-.5"/>
<text text-anchor="middle" x="507.5" y="-7.9" font-family="Helvetica,sans-Serif" font-size="12.00" fill="#000000">auto_timer.cpp</text>
</a>
</g>
</g>
<!-- Node15&#45;&gt;Node18 -->
<g id="edge6" class="edge">
<title>Node15&#45;&gt;Node18</title>
<path fill="none" stroke="#191970" d="M376.2893,-168.1261C401.3044,-148.8078 441.6107,-115.2557 469.5,-80 484.2631,-61.3376 496.5126,-36.1681 502.8453,-21.9587"/>
<polygon fill="#191970" stroke="#191970" points="373.9588,-165.5015 368.1242,-174.3451 378.2002,-171.0702 373.9588,-165.5015"/>
</g>
<!-- Node21 -->
<g id="node7" class="node">
<title>Node21</title>
<g id="a_node7"><a xlink:href="../../da/d8e/signal__detection_8hpp.html" target="_top" xlink:title="timemory/signal_detection.hpp">
<polygon fill="#ffffff" stroke="#000000" points="73,-58.5 73,-79.5 212,-79.5 212,-58.5 73,-58.5"/>
<text text-anchor="middle" x="142.5" y="-65.9" font-family="Helvetica,sans-Serif" font-size="12.00" fill="#000000">timemory/signal_detection.hpp</text>
</a>
</g>
</g>
<!-- Node15&#45;&gt;Node21 -->
<g id="edge7" class="edge">
<title>Node15&#45;&gt;Node21</title>
<path fill="none" stroke="#191970" d="M305.9707,-171.3308C281.6548,-163.3443 252.0824,-152.057 227.5,-138 198.1303,-121.2054 168.5088,-94.4071 153.1847,-79.636"/>
<polygon fill="#191970" stroke="#191970" points="305.1042,-174.7283 315.6951,-174.4426 307.2376,-168.0613 305.1042,-174.7283"/>
</g>
<!-- Node23 -->
<g id="node9" class="node">
<title>Node23</title>
<g id="a_node9"><a xlink:href="../../df/df2/timing__manager_8hpp.html" target="_top" xlink:title="timemory/timing_manager.hpp">
<polygon fill="#ffffff" stroke="#000000" points="236.5,-116.5 236.5,-137.5 374.5,-137.5 374.5,-116.5 236.5,-116.5"/>
<text text-anchor="middle" x="305.5" y="-123.9" font-family="Helvetica,sans-Serif" font-size="12.00" fill="#000000">timemory/timing_manager.hpp</text>
</a>
</g>
</g>
<!-- Node15&#45;&gt;Node23 -->
<g id="edge11" class="edge">
<title>Node15&#45;&gt;Node23</title>
<path fill="none" stroke="#191970" d="M338.2233,-166.5407C330.3098,-156.9786 320.9317,-145.6467 314.2481,-137.5707"/>
<polygon fill="#191970" stroke="#191970" points="335.624,-168.8894 344.6961,-174.3619 341.0167,-164.4264 335.624,-168.8894"/>
</g>
<!-- Node17 -->
<g id="node3" class="node">
<title>Node17</title>
<g id="a_node3"><a xlink:href="../../d6/d8e/test__timing_8cpp.html" target="_top" xlink:title="examples/ex1/test_timing.cpp">
<polygon fill="#ffffff" stroke="#000000" points="200,-.5 200,-21.5 335,-21.5 335,-.5 200,-.5"/>
<text text-anchor="middle" x="267.5" y="-7.9" font-family="Helvetica,sans-Serif" font-size="12.00" fill="#000000">examples/ex1/test_timing.cpp</text>
</a>
</g>
</g>
<!-- Node16&#45;&gt;Node17 -->
<g id="edge2" class="edge">
<title>Node16&#45;&gt;Node17</title>
<path fill="none" stroke="#191970" d="M368.702,-54.4794C344.9375,-44.2695 313.6761,-30.8386 292.2218,-21.6212"/>
<polygon fill="#191970" stroke="#191970" points="367.483,-57.7649 378.0525,-58.4966 370.2462,-51.3334 367.483,-57.7649"/>
</g>
<!-- Node16&#45;&gt;Node18 -->
<g id="edge3" class="edge">
<title>Node16&#45;&gt;Node18</title>
<path fill="none" stroke="#191970" d="M430.5287,-53.5175C448.8106,-43.4189 472.1925,-30.5032 488.3635,-21.5707"/>
<polygon fill="#191970" stroke="#191970" points="428.8196,-50.463 421.7586,-58.3619 432.2043,-56.5903 428.8196,-50.463"/>
</g>
<!-- Node19 -->
<g id="node5" class="node">
<title>Node19</title>
<g id="a_node5"><a xlink:href="../../d2/dfd/timemory_8cc.html" target="_top" xlink:title="timemory.cc">
<polygon fill="#ffffff" stroke="#000000" points="117,-.5 117,-21.5 182,-21.5 182,-.5 117,-.5"/>
<text text-anchor="middle" x="149.5" y="-7.9" font-family="Helvetica,sans-Serif" font-size="12.00" fill="#000000">timemory.cc</text>
</a>
</g>
</g>
<!-- Node16&#45;&gt;Node19 -->
<g id="edge4" class="edge">
<title>Node16&#45;&gt;Node19</title>
<path fill="none" stroke="#191970" d="M341.903,-56.3058C299.4138,-47.2242 241.3495,-34.4515 190.5,-22 187.7798,-21.3339 184.9639,-20.6232 182.1404,-19.8958"/>
<polygon fill="#191970" stroke="#191970" points="341.3,-59.7558 351.8099,-58.4167 342.7589,-52.9095 341.3,-59.7558"/>
</g>
<!-- Node20 -->
<g id="node6" class="node">
<title>Node20</title>
<g id="a_node6"><a xlink:href="../../d9/dad/timing__manager_8cpp.html" target="_top" xlink:title="timing_manager.cpp">
<polygon fill="#ffffff" stroke="#000000" points="353.5,-.5 353.5,-21.5 451.5,-21.5 451.5,-.5 353.5,-.5"/>
<text text-anchor="middle" x="402.5" y="-7.9" font-family="Helvetica,sans-Serif" font-size="12.00" fill="#000000">timing_manager.cpp</text>
</a>
</g>
</g>
<!-- Node16&#45;&gt;Node20 -->
<g id="edge5" class="edge">
<title>Node16&#45;&gt;Node20</title>
<path fill="none" stroke="#191970" d="M402.5,-48.1906C402.5,-39.1684 402.5,-28.9941 402.5,-21.5707"/>
<polygon fill="#191970" stroke="#191970" points="399.0001,-48.3619 402.5,-58.3619 406.0001,-48.3619 399.0001,-48.3619"/>
</g>
<!-- Node21&#45;&gt;Node17 -->
<g id="edge8" class="edge">
<title>Node21&#45;&gt;Node17</title>
<path fill="none" stroke="#191970" d="M174.3828,-54.2064C196.3125,-44.031 224.9209,-30.7567 244.6094,-21.6212"/>
<polygon fill="#191970" stroke="#191970" points="172.7345,-51.1127 165.1366,-58.4966 175.6808,-57.4625 172.7345,-51.1127"/>
</g>
<!-- Node21&#45;&gt;Node19 -->
<g id="edge10" class="edge">
<title>Node21&#45;&gt;Node19</title>
<path fill="none" stroke="#191970" d="M145.0115,-48.1906C146.1004,-39.1684 147.3283,-28.9941 148.2242,-21.5707"/>
<polygon fill="#191970" stroke="#191970" points="141.5074,-48.0145 143.7839,-58.3619 148.457,-48.8533 141.5074,-48.0145"/>
</g>
<!-- Node22 -->
<g id="node8" class="node">
<title>Node22</title>
<g id="a_node8"><a xlink:href="../../dc/d43/signal__detection_8cpp.html" target="_top" xlink:title="signal_detection.cpp">
<polygon fill="#ffffff" stroke="#000000" points="0,-.5 0,-21.5 99,-21.5 99,-.5 0,-.5"/>
<text text-anchor="middle" x="49.5" y="-7.9" font-family="Helvetica,sans-Serif" font-size="12.00" fill="#000000">signal_detection.cpp</text>
</a>
</g>
</g>
<!-- Node21&#45;&gt;Node22 -->
<g id="edge9" class="edge">
<title>Node21&#45;&gt;Node22</title>
<path fill="none" stroke="#191970" d="M116.5586,-52.8215C100.5398,-42.8312 80.4454,-30.2993 66.4495,-21.5707"/>
<polygon fill="#191970" stroke="#191970" points="115.1051,-56.0399 125.4424,-58.3619 118.8094,-50.1003 115.1051,-56.0399"/>
</g>
<!-- Node23&#45;&gt;Node16 -->
<g id="edge13" class="edge">
<title>Node23&#45;&gt;Node16</title>
<path fill="none" stroke="#191970" d="M332.0899,-111.1009C348.8727,-101.0658 370.0872,-88.3808 384.8215,-79.5707"/>
<polygon fill="#191970" stroke="#191970" points="330.0778,-108.226 323.2913,-116.3619 333.6702,-114.2339 330.0778,-108.226"/>
</g>
<!-- Node23&#45;&gt;Node17 -->
<g id="edge12" class="edge">
<title>Node23&#45;&gt;Node17</title>
<path fill="none" stroke="#191970" d="M298.8795,-106.7902C290.7683,-82.0294 277.3263,-40.996 270.9984,-21.6792"/>
<polygon fill="#191970" stroke="#191970" points="295.5539,-107.8814 301.9932,-116.2949 302.2061,-105.7022 295.5539,-107.8814"/>
</g>
<!-- Node23&#45;&gt;Node19 -->
<g id="edge14" class="edge">
<title>Node23&#45;&gt;Node19</title>
<path fill="none" stroke="#191970" d="M285.046,-109.4589C268.0994,-95.1561 243.2015,-74.6674 220.5,-58 202.5072,-44.7898 181.0383,-30.8115 166.4539,-21.5672"/>
<polygon fill="#191970" stroke="#191970" points="283.2409,-112.5177 293.1294,-116.3215 287.7713,-107.1814 283.2409,-112.5177"/>
</g>
<!-- Node23&#45;&gt;Node20 -->
<g id="edge15" class="edge">
<title>Node23&#45;&gt;Node20</title>
<path fill="none" stroke="#191970" d="M311.1086,-106.5697C315.8651,-91.9235 323.8015,-72.3312 335.5,-58 348.1688,-42.4801 367.2072,-29.7985 381.7556,-21.5366"/>
<polygon fill="#191970" stroke="#191970" points="307.7365,-105.6295 308.1988,-116.2143 314.4382,-107.6514 307.7365,-105.6295"/>
</g>
</g>
</svg>
        <g id="navigator" transform="translate(0 0)" fill="#404254">
                <rect fill="#f2f5e9" fill-opacity="0.5" stroke="#606060" stroke-width=".5" x="0" y="0" width="60" height="60"/>
                <use id="zoomplus" xlink:href="#zoomPlus" x="17" y="9" onmousedown="handleZoom(evt,'in')"/>
                <use id="zoomminus" xlink:href="#zoomMin" x="42" y="9" onmousedown="handleZoom(evt,'out')"/>
                <use id="reset" xlink:href="#resetDef" x="30" y="36" onmousedown="handleReset()"/>
                <g id="arrowUp" xlink:href="#dirArrow" transform="translate(30 24)" onmousedown="handlePan(0,-1)">
                  <use xlink:href="#rim" fill="#404040">
                        <set attributeName="fill" to="#808080" begin="arrowUp.mouseover" end="arrowUp.mouseout"/>
                  </use>
                  <path fill="none" stroke="white" stroke-width="1.5" d="M0,-3.0v7 M-2.5,-0.5L0,-3.0L2.5,-0.5"/>
                </g>
                <g id="arrowRight" xlink:href="#dirArrow" transform="rotate(90) translate(36 -43)" onmousedown="handlePan(1,0)">
                  <use xlink:href="#rim" fill="#404040">
                        <set attributeName="fill" to="#808080" begin="arrowRight.mouseover" end="arrowRight.mouseout"/>
                  </use>
                  <path fill="none" stroke="white" stroke-width="1.5" d="M0,-3.0v7 M-2.5,-0.5L0,-3.0L2.5,-0.5"/>
                </g>
                <g id="arrowDown" xlink:href="#dirArrow" transform="rotate(180) translate(-30 -48)" onmousedown="handlePan(0,1)">
                  <use xlink:href="#rim" fill="#404040">
                        <set attributeName="fill" to="#808080" begin="arrowDown.mouseover" end="arrowDown.mouseout"/>
                  </use>
                  <path fill="none" stroke="white" stroke-width="1.5" d="M0,-3.0v7 M-2.5,-0.5L0,-3.0L2.5,-0.5"/>
                </g>
                <g id="arrowLeft" xlink:href="#dirArrow" transform="rotate(270) translate(-36 17)" onmousedown="handlePan(-1,0)">
                  <use xlink:href="#rim" fill="#404040">
                        <set attributeName="fill" to="#808080" begin="arrowLeft.mouseover" end="arrowLeft.mouseout"/>
                  </use>
                  <path fill="none" stroke="white" stroke-width="1.5" d="M0,-3.0v7 M-2.5,-0.5L0,-3.0L2.5,-0.5"/>
                </g>
        </g>
        <svg viewBox="0 0 15 15" width="100%" height="30px" preserveAspectRatio="xMaxYMin meet">
         <g id="arrow_out" transform="scale(0.3 0.3)">
          <a xlink:href="utility_8hpp__dep__incl_org.svg" target="_base">
           <rect id="button" ry="5" rx="5" y="6" x="6" height="38" width="38"
                fill="#f2f5e9" fill-opacity="0.5" stroke="#606060" stroke-width="1.0"/>
           <path id="arrow"
             d="M 11.500037,31.436501 C 11.940474,20.09759 22.043105,11.32322 32.158766,21.979434 L 37.068811,17.246167 C 37.068811,17.246167 37.088388,32 37.088388,32 L 22.160133,31.978069 C 22.160133,31.978069 26.997745,27.140456 26.997745,27.140456 C 18.528582,18.264221 13.291696,25.230495 11.500037,31.436501 z"
             style="fill:#404040;"/>
          </a>
         </g>
        </svg>
</svg>
