<?xml version="1.0" encoding="UTF-8" standalone="no"?>
<!DOCTYPE svg PUBLIC "-//W3C//DTD SVG 1.1//EN"
 "http://www.w3.org/Graphics/SVG/1.1/DTD/svg11.dtd">
<!-- Generated by graphviz version 2.40.1 (20161225.0304)
 -->
<!-- Title: timemory/utility.hpp Pages: 1 -->
<svg width="735pt" height="391pt"
 viewBox="0.00 0.00 734.50 391.00" xmlns="http://www.w3.org/2000/svg" xmlns:xlink="http://www.w3.org/1999/xlink">
<g id="graph0" class="graph" transform="scale(1 1) rotate(0) translate(4 387)">
<title>timemory/utility.hpp</title>
<polygon fill="#ffffff" stroke="transparent" points="-4,4 -4,-387 730.5,-387 730.5,4 -4,4"/>
<!-- Node19 -->
<g id="node1" class="node">
<title>Node19</title>
<polygon fill="#bfbfbf" stroke="#000000" points="343.5,-361.5 343.5,-382.5 437.5,-382.5 437.5,-361.5 343.5,-361.5"/>
<text text-anchor="middle" x="390.5" y="-368.9" font-family="Helvetica,sans-Serif" font-size="12.00" fill="#000000">timemory/utility.hpp</text>
</g>
<!-- Node20 -->
<g id="node2" class="node">
<title>Node20</title>
<g id="a_node2"><a xlink:href="../../d8/d07/auto__timer_8hpp.html" target="_top" xlink:title="timemory/auto_timer.hpp">
<polygon fill="#ffffff" stroke="#000000" points="260.5,-71.5 260.5,-92.5 376.5,-92.5 376.5,-71.5 260.5,-71.5"/>
<text text-anchor="middle" x="318.5" y="-78.9" font-family="Helvetica,sans-Serif" font-size="12.00" fill="#000000">timemory/auto_timer.hpp</text>
</a>
</g>
</g>
<!-- Node19&#45;&gt;Node20 -->
<g id="edge1" class="edge">
<title>Node19&#45;&gt;Node20</title>
<path fill="none" stroke="#191970" d="M349.8856,-356.9723C335.4341,-349.5644 320.5228,-339.1204 311.5,-325 262.5271,-248.3587 300.965,-128.5551 314.3527,-92.5667"/>
<polygon fill="#191970" stroke="#191970" points="348.7139,-360.2901 359.2494,-361.4101 351.7118,-353.9646 348.7139,-360.2901"/>
</g>
<!-- Node24 -->
<g id="node6" class="node">
<title>Node24</title>
<g id="a_node6"><a xlink:href="../../d2/d80/auto__timer_8cpp.html" target="_top" xlink:title="auto_timer.cpp">
<polygon fill="#ffffff" stroke="#000000" points="646.5,-7 646.5,-28 722.5,-28 722.5,-7 646.5,-7"/>
<text text-anchor="middle" x="684.5" y="-14.4" font-family="Helvetica,sans-Serif" font-size="12.00" fill="#000000">auto_timer.cpp</text>
</a>
</g>
</g>
<!-- Node19&#45;&gt;Node24 -->
<g id="edge8" class="edge">
<title>Node19&#45;&gt;Node24</title>
<path fill="none" stroke="#191970" d="M447.6986,-364.2754C543.6155,-349.7031 726.5,-314.277 726.5,-256 726.5,-256 726.5,-256 726.5,-140 726.5,-96.6085 702.6283,-49.0174 690.8789,-28.2215"/>
<polygon fill="#191970" stroke="#191970" points="446.9475,-360.8486 437.5731,-365.7854 447.98,-367.7721 446.9475,-360.8486"/>
</g>
<!-- Node27 -->
<g id="node9" class="node">
<title>Node27</title>
<g id="a_node9"><a xlink:href="../../d6/d01/base__timer_8hpp.html" target="_top" xlink:title="timemory/base_timer.hpp">
<polygon fill="#ffffff" stroke="#000000" points="508.5,-245.5 508.5,-266.5 626.5,-266.5 626.5,-245.5 508.5,-245.5"/>
<text text-anchor="middle" x="567.5" y="-252.9" font-family="Helvetica,sans-Serif" font-size="12.00" fill="#000000">timemory/base_timer.hpp</text>
</a>
</g>
</g>
<!-- Node19&#45;&gt;Node27 -->
<g id="edge9" class="edge">
<title>Node19&#45;&gt;Node27</title>
<path fill="none" stroke="#191970" d="M417.8297,-356.1334C432.9213,-347.2222 451.9145,-335.7598 468.5,-325 499.0815,-305.1602 533.8268,-280.4139 552.9479,-266.5963"/>
<polygon fill="#191970" stroke="#191970" points="415.8439,-353.2407 408.9937,-361.3232 419.389,-359.2766 415.8439,-353.2407"/>
</g>
<!-- Node30 -->
<g id="node12" class="node">
<title>Node30</title>
<g id="a_node12"><a xlink:href="../../da/d04/manager_8hpp.html" target="_top" xlink:title="timemory/manager.hpp">
<polygon fill="#ffffff" stroke="#000000" points="151,-129.5 151,-150.5 260,-150.5 260,-129.5 151,-129.5"/>
<text text-anchor="middle" x="205.5" y="-136.9" font-family="Helvetica,sans-Serif" font-size="12.00" fill="#000000">timemory/manager.hpp</text>
</a>
</g>
</g>
<!-- Node19&#45;&gt;Node30 -->
<g id="edge20" class="edge">
<title>Node19&#45;&gt;Node30</title>
<path fill="none" stroke="#191970" d="M332.9526,-361.3164C294.1352,-352.9139 247.6783,-340.1219 234.5,-325 189.6458,-273.5305 198.8661,-182.0143 203.6278,-150.7875"/>
<polygon fill="#191970" stroke="#191970" points="332.6403,-364.8273 343.1468,-363.4623 334.0823,-357.9774 332.6403,-364.8273"/>
</g>
<!-- Node32 -->
<g id="node14" class="node">
<title>Node32</title>
<g id="a_node14"><a xlink:href="../../da/d8e/signal__detection_8hpp.html" target="_top" xlink:title="timemory/signal_detection.hpp">
<polygon fill="#ffffff" stroke="#000000" points="321,-303.5 321,-324.5 460,-324.5 460,-303.5 321,-303.5"/>
<text text-anchor="middle" x="390.5" y="-310.9" font-family="Helvetica,sans-Serif" font-size="12.00" fill="#000000">timemory/signal_detection.hpp</text>
</a>
</g>
</g>
<!-- Node19&#45;&gt;Node32 -->
<g id="edge21" class="edge">
<title>Node19&#45;&gt;Node32</title>
<path fill="none" stroke="#191970" d="M390.5,-351.1906C390.5,-342.1684 390.5,-331.9941 390.5,-324.5707"/>
<polygon fill="#191970" stroke="#191970" points="387.0001,-351.3619 390.5,-361.3619 394.0001,-351.3619 387.0001,-351.3619"/>
</g>
<!-- Node21 -->
<g id="node3" class="node">
<title>Node21</title>
<g id="a_node3"><a xlink:href="../../d0/d90/ex1_2test__timing_8cpp.html" target="_top" xlink:title="examples/ex1/test_timing.cpp">
<polygon fill="#ffffff" stroke="#000000" points="127,-7 127,-28 262,-28 262,-7 127,-7"/>
<text text-anchor="middle" x="194.5" y="-14.4" font-family="Helvetica,sans-Serif" font-size="12.00" fill="#000000">examples/ex1/test_timing.cpp</text>
</a>
</g>
</g>
<!-- Node20&#45;&gt;Node21 -->
<g id="edge2" class="edge">
<title>Node20&#45;&gt;Node21</title>
<path fill="none" stroke="#191970" d="M289.3406,-66.8324C266.373,-54.8856 234.9532,-38.5422 214.6901,-28.0021"/>
<polygon fill="#191970" stroke="#191970" points="287.8145,-69.9838 298.3013,-71.4934 291.0448,-63.7736 287.8145,-69.9838"/>
</g>
<!-- Node22 -->
<g id="node4" class="node">
<title>Node22</title>
<g id="a_node4"><a xlink:href="../../dd/d0a/mpi__test__timing_8cpp.html" target="_top" xlink:title="examples/ex2/mpi_test\l_timing.cpp">
<polygon fill="#ffffff" stroke="#000000" points="0,-.5 0,-34.5 109,-34.5 109,-.5 0,-.5"/>
<text text-anchor="start" x="8" y="-20.9" font-family="Helvetica,sans-Serif" font-size="12.00" fill="#000000">examples/ex2/mpi_test</text>
<text text-anchor="middle" x="54.5" y="-7.9" font-family="Helvetica,sans-Serif" font-size="12.00" fill="#000000">_timing.cpp</text>
</a>
</g>
</g>
<!-- Node20&#45;&gt;Node22 -->
<g id="edge3" class="edge">
<title>Node20&#45;&gt;Node22</title>
<path fill="none" stroke="#191970" d="M260.9408,-69.2036C220.667,-60.0882 165.6715,-47.3169 117.5,-35 114.7505,-34.297 111.9373,-33.5644 109.0989,-32.8147"/>
<polygon fill="#191970" stroke="#191970" points="260.3243,-72.6524 270.8495,-71.4398 261.8654,-65.8241 260.3243,-72.6524"/>
</g>
<!-- Node23 -->
<g id="node5" class="node">
<title>Node23</title>
<g id="a_node5"><a xlink:href="../../d2/dc1/ex3_2test__timing_8cpp.html" target="_top" xlink:title="examples/ex3/test_timing.cpp">
<polygon fill="#ffffff" stroke="#000000" points="367,-7 367,-28 502,-28 502,-7 367,-7"/>
<text text-anchor="middle" x="434.5" y="-14.4" font-family="Helvetica,sans-Serif" font-size="12.00" fill="#000000">examples/ex3/test_timing.cpp</text>
</a>
</g>
</g>
<!-- Node20&#45;&gt;Node23 -->
<g id="edge4" class="edge">
<title>Node20&#45;&gt;Node23</title>
<path fill="none" stroke="#191970" d="M346.3529,-66.5128C367.7857,-54.5955 396.8252,-38.4485 415.6125,-28.0021"/>
<polygon fill="#191970" stroke="#191970" points="344.4345,-63.5748 337.3956,-71.4934 347.8363,-69.6927 344.4345,-63.5748"/>
</g>
<!-- Node20&#45;&gt;Node24 -->
<g id="edge5" class="edge">
<title>Node20&#45;&gt;Node24</title>
<path fill="none" stroke="#191970" d="M386.6018,-70.7639C442.2945,-61.4782 523.0641,-47.7903 593.5,-35 610.9122,-31.8382 630.1622,-28.1625 646.4559,-24.9983"/>
<polygon fill="#191970" stroke="#191970" points="385.7922,-67.3504 376.5028,-72.4453 386.9418,-74.2554 385.7922,-67.3504"/>
</g>
<!-- Node25 -->
<g id="node7" class="node">
<title>Node25</title>
<g id="a_node7"><a xlink:href="../../d0/db0/manager_8cpp.html" target="_top" xlink:title="manager.cpp">
<polygon fill="#ffffff" stroke="#000000" points="280,-7 280,-28 349,-28 349,-7 280,-7"/>
<text text-anchor="middle" x="314.5" y="-14.4" font-family="Helvetica,sans-Serif" font-size="12.00" fill="#000000">manager.cpp</text>
</a>
</g>
</g>
<!-- Node20&#45;&gt;Node25 -->
<g id="edge6" class="edge">
<title>Node20&#45;&gt;Node25</title>
<path fill="none" stroke="#191970" d="M317.2168,-61.3076C316.5377,-50.3587 315.7317,-37.3615 315.1749,-28.3823"/>
<polygon fill="#191970" stroke="#191970" points="313.7271,-61.585 317.8395,-71.3491 320.7137,-61.1516 313.7271,-61.585"/>
</g>
<!-- Node26 -->
<g id="node8" class="node">
<title>Node26</title>
<g id="a_node8"><a xlink:href="../../d2/dfd/timemory_8cc.html" target="_top" xlink:title="timemory.cc">
<polygon fill="#ffffff" stroke="#000000" points="520,-7 520,-28 585,-28 585,-7 520,-7"/>
<text text-anchor="middle" x="552.5" y="-14.4" font-family="Helvetica,sans-Serif" font-size="12.00" fill="#000000">timemory.cc</text>
</a>
</g>
</g>
<!-- Node20&#45;&gt;Node26 -->
<g id="edge7" class="edge">
<title>Node20&#45;&gt;Node26</title>
<path fill="none" stroke="#191970" d="M380.7417,-69.3262C418.6572,-60.9757 467.8518,-49.0117 510.5,-35 516.5037,-33.0275 522.8567,-30.5789 528.7543,-28.1443"/>
<polygon fill="#191970" stroke="#191970" points="379.8868,-65.9302 370.8601,-71.4772 381.3757,-72.7701 379.8868,-65.9302"/>
</g>
<!-- Node28 -->
<g id="node10" class="node">
<title>Node28</title>
<g id="a_node10"><a xlink:href="../../dd/d84/base__timer_8cpp.html" target="_top" xlink:title="base_timer.cpp">
<polygon fill="#ffffff" stroke="#000000" points="620.5,-187.5 620.5,-208.5 698.5,-208.5 698.5,-187.5 620.5,-187.5"/>
<text text-anchor="middle" x="659.5" y="-194.9" font-family="Helvetica,sans-Serif" font-size="12.00" fill="#000000">base_timer.cpp</text>
</a>
</g>
</g>
<!-- Node27&#45;&gt;Node28 -->
<g id="edge10" class="edge">
<title>Node27&#45;&gt;Node28</title>
<path fill="none" stroke="#191970" d="M593.1625,-239.8215C609.0091,-229.8312 628.8874,-217.2993 642.7328,-208.5707"/>
<polygon fill="#191970" stroke="#191970" points="590.9669,-237.0681 584.3742,-245.3619 594.7001,-242.9896 590.9669,-237.0681"/>
</g>
<!-- Node29 -->
<g id="node11" class="node">
<title>Node29</title>
<g id="a_node11"><a xlink:href="../../df/d05/timer_8hpp.html" target="_top" xlink:title="timemory/timer.hpp">
<polygon fill="#ffffff" stroke="#000000" points="508.5,-187.5 508.5,-208.5 602.5,-208.5 602.5,-187.5 508.5,-187.5"/>
<text text-anchor="middle" x="555.5" y="-194.9" font-family="Helvetica,sans-Serif" font-size="12.00" fill="#000000">timemory/timer.hpp</text>
</a>
</g>
</g>
<!-- Node27&#45;&gt;Node29 -->
<g id="edge11" class="edge">
<title>Node27&#45;&gt;Node29</title>
<path fill="none" stroke="#191970" d="M563.2561,-235.4876C561.3743,-226.3924 559.2398,-216.0756 557.687,-208.5707"/>
<polygon fill="#191970" stroke="#191970" points="559.8455,-236.2784 565.299,-245.3619 566.7003,-234.8602 559.8455,-236.2784"/>
</g>
<!-- Node29&#45;&gt;Node26 -->
<g id="edge18" class="edge">
<title>Node29&#45;&gt;Node26</title>
<path fill="none" stroke="#191970" d="M555.1542,-177.1935C554.515,-138.7353 553.1694,-57.7752 552.6815,-28.4224"/>
<polygon fill="#191970" stroke="#191970" points="551.6555,-177.309 555.3213,-187.2495 558.6546,-177.1926 551.6555,-177.309"/>
</g>
<!-- Node29&#45;&gt;Node30 -->
<g id="edge12" class="edge">
<title>Node29&#45;&gt;Node30</title>
<path fill="none" stroke="#191970" d="M498.0955,-188.4872C432.2369,-177.5735 325.0228,-159.8066 260.2852,-149.0787"/>
<polygon fill="#191970" stroke="#191970" points="497.8598,-191.9958 508.2974,-190.1779 499.0042,-185.09 497.8598,-191.9958"/>
</g>
<!-- Node31 -->
<g id="node13" class="node">
<title>Node31</title>
<g id="a_node13"><a xlink:href="../../dc/de5/timer_8cpp.html" target="_top" xlink:title="timer.cpp">
<polygon fill="#ffffff" stroke="#000000" points="580.5,-129.5 580.5,-150.5 634.5,-150.5 634.5,-129.5 580.5,-129.5"/>
<text text-anchor="middle" x="607.5" y="-136.9" font-family="Helvetica,sans-Serif" font-size="12.00" fill="#000000">timer.cpp</text>
</a>
</g>
</g>
<!-- Node29&#45;&gt;Node31 -->
<g id="edge19" class="edge">
<title>Node29&#45;&gt;Node31</title>
<path fill="none" stroke="#191970" d="M571.7904,-179.8299C580.4171,-170.2078 590.7092,-158.7282 598.0229,-150.5707"/>
<polygon fill="#191970" stroke="#191970" points="569.1071,-177.5798 565.0376,-187.3619 574.3191,-182.2526 569.1071,-177.5798"/>
</g>
<!-- Node30&#45;&gt;Node20 -->
<g id="edge15" class="edge">
<title>Node30&#45;&gt;Node20</title>
<path fill="none" stroke="#191970" d="M235.1254,-124.794C254.8408,-114.6746 280.248,-101.6338 297.8069,-92.6212"/>
<polygon fill="#191970" stroke="#191970" points="233.2617,-121.8164 225.9634,-129.4966 236.4582,-128.044 233.2617,-121.8164"/>
</g>
<!-- Node30&#45;&gt;Node21 -->
<g id="edge13" class="edge">
<title>Node30&#45;&gt;Node21</title>
<path fill="none" stroke="#191970" d="M203.6186,-119.0484C201.2511,-92.683 197.2753,-48.4069 195.4583,-28.1718"/>
<polygon fill="#191970" stroke="#191970" points="200.1434,-119.4821 204.5238,-129.1289 207.1153,-118.856 200.1434,-119.4821"/>
</g>
<!-- Node30&#45;&gt;Node22 -->
<g id="edge14" class="edge">
<title>Node30&#45;&gt;Node22</title>
<path fill="none" stroke="#191970" d="M184.556,-123.009C155.8081,-99.687 104.4157,-57.9945 75.5909,-34.6101"/>
<polygon fill="#191970" stroke="#191970" points="182.393,-125.7611 192.3639,-129.3432 186.8031,-120.325 182.393,-125.7611"/>
</g>
<!-- Node30&#45;&gt;Node25 -->
<g id="edge16" class="edge">
<title>Node30&#45;&gt;Node25</title>
<path fill="none" stroke="#191970" d="M216.7683,-120.0315C225.3516,-105.6575 237.9663,-86.2027 251.5,-71 266.2886,-54.3876 286.2644,-38.2791 299.7247,-28.1543"/>
<polygon fill="#191970" stroke="#191970" points="213.52,-118.6542 211.5083,-129.0563 219.5677,-122.1791 213.52,-118.6542"/>
</g>
<!-- Node30&#45;&gt;Node26 -->
<g id="edge17" class="edge">
<title>Node30&#45;&gt;Node26</title>
<path fill="none" stroke="#191970" d="M265.2455,-127.0809C300.6515,-118.7647 346.1473,-106.9206 385.5,-93 439.9443,-73.7409 501.1323,-43.8399 532.1348,-28.0676"/>
<polygon fill="#191970" stroke="#191970" points="264.0224,-123.7715 255.071,-129.4391 265.603,-130.5907 264.0224,-123.7715"/>
</g>
<!-- Node32&#45;&gt;Node21 -->
<g id="edge22" class="edge">
<title>Node32&#45;&gt;Node21</title>
<path fill="none" stroke="#191970" d="M345.6686,-300.0959C286.0867,-278.8711 183.4554,-232.0655 141.5,-151 118.8054,-107.1499 162.9214,-51.27 184.0764,-28.2002"/>
<polygon fill="#191970" stroke="#191970" points="344.6064,-303.432 355.2012,-303.4043 346.9016,-296.8189 344.6064,-303.432"/>
</g>
<!-- Node32&#45;&gt;Node22 -->
<g id="edge23" class="edge">
<title>Node32&#45;&gt;Node22</title>
<path fill="none" stroke="#191970" d="M311.2616,-301.6874C215.6304,-284.5418 67.5,-249.648 67.5,-198 67.5,-198 67.5,-198 67.5,-140 67.5,-102.3593 61.3555,-58.5741 57.5151,-34.8843"/>
<polygon fill="#191970" stroke="#191970" points="310.7526,-305.1515 321.2084,-303.441 311.968,-298.2579 310.7526,-305.1515"/>
</g>
<!-- Node32&#45;&gt;Node23 -->
<g id="edge24" class="edge">
<title>Node32&#45;&gt;Node23</title>
<path fill="none" stroke="#191970" d="M405.3148,-295.1974C411.2983,-286.9124 417.8689,-276.8385 422.5,-267 436.0981,-238.1114 442.5,-229.9289 442.5,-198 442.5,-198 442.5,-198 442.5,-140 442.5,-98.6534 437.9058,-49.6235 435.6804,-28.2998"/>
<polygon fill="#191970" stroke="#191970" points="402.371,-293.2893 399.1721,-303.3897 407.9715,-297.4887 402.371,-293.2893"/>
</g>
<!-- Node32&#45;&gt;Node26 -->
<g id="edge27" class="edge">
<title>Node32&#45;&gt;Node26</title>
<path fill="none" stroke="#191970" d="M415.171,-297.4238C441.8159,-277.326 480.5,-240.7806 480.5,-198 480.5,-198 480.5,-198 480.5,-140 480.5,-92.8826 520.5792,-47.8828 540.932,-28.069"/>
<polygon fill="#191970" stroke="#191970" points="413.0381,-294.6472 407.0074,-303.3582 417.1541,-300.3093 413.0381,-294.6472"/>
</g>
<!-- Node32&#45;&gt;Node27 -->
<g id="edge25" class="edge">
<title>Node32&#45;&gt;Node27</title>
<path fill="none" stroke="#191970" d="M432.3735,-300.2787C463.9132,-289.9437 506.5117,-275.9849 535.3865,-266.5231"/>
<polygon fill="#191970" stroke="#191970" points="430.9663,-297.0567 422.5534,-303.4966 433.1461,-303.7086 430.9663,-297.0567"/>
</g>
<!-- Node33 -->
<g id="node15" class="node">
<title>Node33</title>
<g id="a_node15"><a xlink:href="../../dc/d43/signal__detection_8cpp.html" target="_top" xlink:title="signal_detection.cpp">
<polygon fill="#ffffff" stroke="#000000" points="315,-245.5 315,-266.5 414,-266.5 414,-245.5 315,-245.5"/>
<text text-anchor="middle" x="364.5" y="-252.9" font-family="Helvetica,sans-Serif" font-size="12.00" fill="#000000">signal_detection.cpp</text>
</a>
</g>
</g>
<!-- Node32&#45;&gt;Node33 -->
<g id="edge26" class="edge">
<title>Node32&#45;&gt;Node33</title>
<path fill="none" stroke="#191970" d="M381.5699,-294.079C377.4293,-284.8422 372.676,-274.2388 369.2386,-266.5707"/>
<polygon fill="#191970" stroke="#191970" points="378.4468,-295.6685 385.7312,-303.3619 384.8344,-292.8051 378.4468,-295.6685"/>
</g>
</g>
</svg>
