<?xml version="1.0" encoding="UTF-8" standalone="no"?>
<!DOCTYPE svg PUBLIC "-//W3C//DTD SVG 1.1//EN"
 "http://www.w3.org/Graphics/SVG/1.1/DTD/svg11.dtd">
<!-- Generated by graphviz version 2.40.1 (20161225.0304)
 -->
<!-- Title: source/timemory/utility.hpp Pages: 1 -->
<svg width="511pt" height="230pt"
 viewBox="0.00 0.00 511.00 230.00" xmlns="http://www.w3.org/2000/svg" xmlns:xlink="http://www.w3.org/1999/xlink">
<g id="graph0" class="graph" transform="scale(1 1) rotate(0) translate(4 226)">
<title>source/timemory/utility.hpp</title>
<polygon fill="#ffffff" stroke="transparent" points="-4,4 -4,-226 507,-226 507,4 -4,4"/>
<!-- Node15 -->
<g id="node1" class="node">
<title>Node15</title>
<polygon fill="#bfbfbf" stroke="#000000" points="165,-200.5 165,-221.5 289,-221.5 289,-200.5 165,-200.5"/>
<text text-anchor="middle" x="227" y="-207.9" font-family="Helvetica,sans-Serif" font-size="12.00" fill="#000000">source/timemory/utility.hpp</text>
</g>
<!-- Node16 -->
<g id="node2" class="node">
<title>Node16</title>
<g id="a_node2"><a xlink:href="../../da/d8e/signal__detection_8hpp.html" target="_top" xlink:title="source/timemory/signal\l_detection.hpp">
<polygon fill="#ffffff" stroke="#000000" points="50.5,-58.5 50.5,-92.5 159.5,-92.5 159.5,-58.5 50.5,-58.5"/>
<text text-anchor="start" x="58.5" y="-78.9" font-family="Helvetica,sans-Serif" font-size="12.00" fill="#000000">source/timemory/signal</text>
<text text-anchor="middle" x="105" y="-65.9" font-family="Helvetica,sans-Serif" font-size="12.00" fill="#000000">_detection.hpp</text>
</a>
</g>
</g>
<!-- Node15&#45;&gt;Node16 -->
<g id="edge1" class="edge">
<title>Node15&#45;&gt;Node16</title>
<path fill="none" stroke="#191970" d="M210.4841,-192.6565C186.8287,-166.3835 143.6135,-118.3863 120.521,-92.7385"/>
<polygon fill="#191970" stroke="#191970" points="208.1346,-195.2779 217.4269,-200.3675 213.3367,-190.594 208.1346,-195.2779"/>
</g>
<!-- Node20 -->
<g id="node6" class="node">
<title>Node20</title>
<g id="a_node6"><a xlink:href="../../d8/d07/auto__timer_8hpp.html" target="_top" xlink:title="source/timemory/auto\l_timer.hpp">
<polygon fill="#ffffff" stroke="#000000" points="177.5,-58.5 177.5,-92.5 280.5,-92.5 280.5,-58.5 177.5,-58.5"/>
<text text-anchor="start" x="185.5" y="-78.9" font-family="Helvetica,sans-Serif" font-size="12.00" fill="#000000">source/timemory/auto</text>
<text text-anchor="middle" x="229" y="-65.9" font-family="Helvetica,sans-Serif" font-size="12.00" fill="#000000">_timer.hpp</text>
</a>
</g>
</g>
<!-- Node15&#45;&gt;Node20 -->
<g id="edge5" class="edge">
<title>Node15&#45;&gt;Node20</title>
<path fill="none" stroke="#191970" d="M227.3069,-190.2095C227.7012,-163.4951 228.3785,-117.6091 228.7456,-92.7385"/>
<polygon fill="#191970" stroke="#191970" points="223.805,-190.3169 227.1569,-200.3675 230.8042,-190.4203 223.805,-190.3169"/>
</g>
<!-- Node21 -->
<g id="node7" class="node">
<title>Node21</title>
<g id="a_node7"><a xlink:href="../../df/df2/timing__manager_8hpp.html" target="_top" xlink:title="source/timemory/timing\l_manager.hpp">
<polygon fill="#ffffff" stroke="#000000" points="255,-129.5 255,-163.5 365,-163.5 365,-129.5 255,-129.5"/>
<text text-anchor="start" x="263" y="-149.9" font-family="Helvetica,sans-Serif" font-size="12.00" fill="#000000">source/timemory/timing</text>
<text text-anchor="middle" x="310" y="-136.9" font-family="Helvetica,sans-Serif" font-size="12.00" fill="#000000">_manager.hpp</text>
</a>
</g>
</g>
<!-- Node15&#45;&gt;Node21 -->
<g id="edge8" class="edge">
<title>Node15&#45;&gt;Node21</title>
<path fill="none" stroke="#191970" d="M248.8721,-194.003C260.8909,-184.6631 275.7634,-173.1055 287.8291,-163.7292"/>
<polygon fill="#191970" stroke="#191970" points="246.4542,-191.4494 240.7058,-200.3491 250.7495,-196.9766 246.4542,-191.4494"/>
</g>
<!-- Node17 -->
<g id="node3" class="node">
<title>Node17</title>
<g id="a_node3"><a xlink:href="../../dc/d43/signal__detection_8cpp.html" target="_top" xlink:title="source/signal_detection.cpp">
<polygon fill="#ffffff" stroke="#000000" points="0,-.5 0,-21.5 128,-21.5 128,-.5 0,-.5"/>
<text text-anchor="middle" x="64" y="-7.9" font-family="Helvetica,sans-Serif" font-size="12.00" fill="#000000">source/signal_detection.cpp</text>
</a>
</g>
</g>
<!-- Node16&#45;&gt;Node17 -->
<g id="edge2" class="edge">
<title>Node16&#45;&gt;Node17</title>
<path fill="none" stroke="#191970" d="M88.5276,-49.5862C82.3233,-39.8256 75.6065,-29.259 70.7732,-21.6554"/>
<polygon fill="#191970" stroke="#191970" points="85.6944,-51.6535 94.0128,-58.2152 91.6019,-47.8983 85.6944,-51.6535"/>
</g>
<!-- Node18 -->
<g id="node4" class="node">
<title>Node18</title>
<g id="a_node4"><a xlink:href="../../d2/dfd/timemory_8cc.html" target="_top" xlink:title="source/timemory.cc">
<polygon fill="#ffffff" stroke="#000000" points="299.5,-.5 299.5,-21.5 394.5,-21.5 394.5,-.5 299.5,-.5"/>
<text text-anchor="middle" x="347" y="-7.9" font-family="Helvetica,sans-Serif" font-size="12.00" fill="#000000">source/timemory.cc</text>
</a>
</g>
</g>
<!-- Node16&#45;&gt;Node18 -->
<g id="edge3" class="edge">
<title>Node16&#45;&gt;Node18</title>
<path fill="none" stroke="#191970" d="M169.3942,-57.6389C221.6226,-43.5695 271.896,-30.4364 306.0779,-21.5689"/>
<polygon fill="#191970" stroke="#191970" points="168.3653,-54.2913 159.6227,-60.276 170.1893,-61.0495 168.3653,-54.2913"/>
</g>
<!-- Node19 -->
<g id="node5" class="node">
<title>Node19</title>
<g id="a_node5"><a xlink:href="../../d6/d8e/test__timing_8cpp.html" target="_top" xlink:title="examples/ex1/test_timing.cpp">
<polygon fill="#ffffff" stroke="#000000" points="146.5,-.5 146.5,-21.5 281.5,-21.5 281.5,-.5 146.5,-.5"/>
<text text-anchor="middle" x="214" y="-7.9" font-family="Helvetica,sans-Serif" font-size="12.00" fill="#000000">examples/ex1/test_timing.cpp</text>
</a>
</g>
</g>
<!-- Node16&#45;&gt;Node19 -->
<g id="edge4" class="edge">
<title>Node16&#45;&gt;Node19</title>
<path fill="none" stroke="#191970" d="M142.5837,-53.2601C160.7631,-42.5026 181.73,-30.0956 196.2209,-21.5206"/>
<polygon fill="#191970" stroke="#191970" points="140.7475,-50.2797 133.9238,-58.3845 144.3124,-56.304 140.7475,-50.2797"/>
</g>
<!-- Node20&#45;&gt;Node18 -->
<g id="edge6" class="edge">
<title>Node20&#45;&gt;Node18</title>
<path fill="none" stroke="#191970" d="M269.151,-53.5531C288.9541,-42.7285 311.9228,-30.1735 327.7529,-21.5206"/>
<polygon fill="#191970" stroke="#191970" points="267.408,-50.517 260.312,-58.3845 270.7655,-56.6593 267.408,-50.517"/>
</g>
<!-- Node20&#45;&gt;Node19 -->
<g id="edge7" class="edge">
<title>Node20&#45;&gt;Node19</title>
<path fill="none" stroke="#191970" d="M222.6947,-48.3872C220.5042,-38.968 218.1741,-28.9487 216.478,-21.6554"/>
<polygon fill="#191970" stroke="#191970" points="219.306,-49.2679 224.9803,-58.2152 226.1241,-47.6823 219.306,-49.2679"/>
</g>
<!-- Node21&#45;&gt;Node18 -->
<g id="edge10" class="edge">
<title>Node21&#45;&gt;Node18</title>
<path fill="none" stroke="#191970" d="M317.3658,-119.5253C325.5404,-89.5884 338.3336,-42.7377 344.0585,-21.7723"/>
<polygon fill="#191970" stroke="#191970" points="313.9439,-118.77 314.6861,-129.3388 320.6967,-120.614 313.9439,-118.77"/>
</g>
<!-- Node21&#45;&gt;Node19 -->
<g id="edge12" class="edge">
<title>Node21&#45;&gt;Node19</title>
<path fill="none" stroke="#191970" d="M308.8819,-119.2857C306.9114,-100.5435 301.8272,-75.8922 289,-58 277.0922,-41.3903 257.3139,-29.3532 241.0571,-21.6207"/>
<polygon fill="#191970" stroke="#191970" points="305.3954,-119.5953 309.7016,-129.2755 312.372,-119.0228 305.3954,-119.5953"/>
</g>
<!-- Node21&#45;&gt;Node20 -->
<g id="edge9" class="edge">
<title>Node21&#45;&gt;Node20</title>
<path fill="none" stroke="#191970" d="M282.5526,-122.4412C271.3459,-112.618 258.6461,-101.4861 248.4273,-92.5288"/>
<polygon fill="#191970" stroke="#191970" points="280.565,-125.3532 290.3922,-129.3129 285.1792,-120.0892 280.565,-125.3532"/>
</g>
<!-- Node22 -->
<g id="node8" class="node">
<title>Node22</title>
<g id="a_node8"><a xlink:href="../../d9/dad/timing__manager_8cpp.html" target="_top" xlink:title="source/timing_manager.cpp">
<polygon fill="#ffffff" stroke="#000000" points="375,-65 375,-86 503,-86 503,-65 375,-65"/>
<text text-anchor="middle" x="439" y="-72.4" font-family="Helvetica,sans-Serif" font-size="12.00" fill="#000000">source/timing_manager.cpp</text>
</a>
</g>
</g>
<!-- Node21&#45;&gt;Node22 -->
<g id="edge11" class="edge">
<title>Node21&#45;&gt;Node22</title>
<path fill="none" stroke="#191970" d="M349.8275,-124.5795C372.9994,-111.8259 401.1738,-96.3191 419.5696,-86.1943"/>
<polygon fill="#191970" stroke="#191970" points="347.9718,-121.6056 340.8987,-129.4937 351.3471,-127.7381 347.9718,-121.6056"/>
</g>
</g>
</svg>
