<?xml version="1.0" encoding="UTF-8" standalone="no"?>
<!DOCTYPE svg PUBLIC "-//W3C//DTD SVG 1.1//EN"
 "http://www.w3.org/Graphics/SVG/1.1/DTD/svg11.dtd">
<!-- Generated by graphviz version 2.40.1 (20161225.0304)
 -->
<!-- Title: timemory/utility.hpp Pages: 1 -->
<!--zoomable 391 -->
<svg id="main" version="1.1" xmlns="http://www.w3.org/2000/svg" xmlns:xlink="http://www.w3.org/1999/xlink" xml:space="preserve" onload="init(evt)">
<style type="text/css"><![CDATA[
.edge:hover path { stroke: red; }
.edge:hover polygon { stroke: red; fill: red; }
]]></style>
<script type="text/javascript"><![CDATA[
var edges = document.getElementsByTagName('g');
if (edges && edges.length) {
  for (var i=0;i<edges.length;i++) {
    if (edges[i].id.substr(0,4)=='edge') {
      edges[i].setAttribute('class','edge');
    }
  }
}
]]></script>
        <defs>
                <circle id="rim" cx="0" cy="0" r="7"/>
                <circle id="rim2" cx="0" cy="0" r="3.5"/>
                <g id="zoomPlus">
                        <use xlink:href="#rim" fill="#404040">
                                <set attributeName="fill" to="#808080" begin="zoomplus.mouseover" end="zoomplus.mouseout"/>
                        </use>
                        <path d="M-4,0h8M0,-4v8" fill="none" stroke="white" stroke-width="1.5" pointer-events="none"/>
                </g>
                <g id="zoomMin">
                        <use xlink:href="#rim" fill="#404040">
                                <set attributeName="fill" to="#808080" begin="zoomminus.mouseover" end="zoomminus.mouseout"/>
                        </use>
                        <path d="M-4,0h8" fill="none" stroke="white" stroke-width="1.5" pointer-events="none"/>
                </g>
                <g id="dirArrow">
                        <path fill="none" stroke="white" stroke-width="1.5" d="M0,-3.0v7 M-2.5,-0.5L0,-3.0L2.5,-0.5"/>
                </g>
               <g id="resetDef">
                       <use xlink:href="#rim2" fill="#404040">
                               <set attributeName="fill" to="#808080" begin="reset.mouseover" end="reset.mouseout"/>
                       </use>
               </g>
        </defs>

<script type="text/javascript">
var viewWidth = 721;
var viewHeight = 391;
var sectionId = 'dynsection-1';
</script>
<script xlink:href="../../svgpan.js"/>
<svg id="graph" class="graph">
<g id="viewport">
<title>timemory/utility.hpp</title>
<polygon fill="#ffffff" stroke="transparent" points="-4,4 -4,-387 716.5,-387 716.5,4 -4,4"/>
<!-- Node20 -->
<g id="node1" class="node">
<title>Node20</title>
<polygon fill="#bfbfbf" stroke="#000000" points="165,-361.5 165,-382.5 259,-382.5 259,-361.5 165,-361.5"/>
<text text-anchor="middle" x="212" y="-368.9" font-family="Helvetica,sans-Serif" font-size="12.00" fill="#000000">timemory/utility.hpp</text>
</g>
<!-- Node21 -->
<g id="node2" class="node">
<title>Node21</title>
<g id="a_node2"><a xlink:href="../../d8/d07/auto__timer_8hpp.html" target="_top" xlink:title="timemory/auto_timer.hpp">
<polygon fill="#ffffff" stroke="#000000" points="289,-71.5 289,-92.5 405,-92.5 405,-71.5 289,-71.5"/>
<text text-anchor="middle" x="347" y="-78.9" font-family="Helvetica,sans-Serif" font-size="12.00" fill="#000000">timemory/auto_timer.hpp</text>
</a>
</g>
</g>
<!-- Node20&#45;&gt;Node21 -->
<g id="edge1" class="edge">
<title>Node20&#45;&gt;Node21</title>
<path fill="none" stroke="#191970" d="M269.3476,-366.5695C334.8291,-356.8439 433,-329.9344 433,-256 433,-256 433,-256 433,-198 433,-151.1194 387.1117,-110.8326 362.3751,-92.5213"/>
<polygon fill="#191970" stroke="#191970" points="268.5624,-363.1449 259.139,-367.9875 269.5254,-370.0784 268.5624,-363.1449"/>
</g>
<!-- Node22 -->
<g id="node3" class="node">
<title>Node22</title>
<g id="a_node3"><a xlink:href="../../d2/d80/auto__timer_8cpp.html" target="_top" xlink:title="auto_timer.cpp">
<polygon fill="#ffffff" stroke="#000000" points="0,-7 0,-28 76,-28 76,-7 0,-7"/>
<text text-anchor="middle" x="38" y="-14.4" font-family="Helvetica,sans-Serif" font-size="12.00" fill="#000000">auto_timer.cpp</text>
</a>
</g>
</g>
<!-- Node20&#45;&gt;Node22 -->
<g id="edge8" class="edge">
<title>Node20&#45;&gt;Node22</title>
<path fill="none" stroke="#191970" d="M170.5969,-357.607C129.6293,-340.4137 73,-307.3588 73,-256 73,-256 73,-256 73,-140 73,-97.0903 52.9002,-48.8664 43.1644,-28.0247"/>
<polygon fill="#191970" stroke="#191970" points="169.527,-360.9493 180.1106,-361.4375 172.1415,-354.4558 169.527,-360.9493"/>
</g>
<!-- Node28 -->
<g id="node9" class="node">
<title>Node28</title>
<g id="a_node9"><a xlink:href="../../d6/d01/base__timer_8hpp.html" target="_top" xlink:title="timemory/base_timer.hpp">
<polygon fill="#ffffff" stroke="#000000" points="197,-245.5 197,-266.5 315,-266.5 315,-245.5 197,-245.5"/>
<text text-anchor="middle" x="256" y="-252.9" font-family="Helvetica,sans-Serif" font-size="12.00" fill="#000000">timemory/base_timer.hpp</text>
</a>
</g>
</g>
<!-- Node20&#45;&gt;Node28 -->
<g id="edge9" class="edge">
<title>Node20&#45;&gt;Node28</title>
<path fill="none" stroke="#191970" d="M219.6658,-351.7902C229.0578,-327.0294 244.6222,-285.996 251.9493,-266.6792"/>
<polygon fill="#191970" stroke="#191970" points="216.3347,-350.7036 216.0605,-361.2949 222.8796,-353.1863 216.3347,-350.7036"/>
</g>
<!-- Node29 -->
<g id="node10" class="node">
<title>Node29</title>
<g id="a_node10"><a xlink:href="../../dd/d84/base__timer_8cpp.html" target="_top" xlink:title="base_timer.cpp">
<polygon fill="#ffffff" stroke="#000000" points="159,-187.5 159,-208.5 237,-208.5 237,-187.5 159,-187.5"/>
<text text-anchor="middle" x="198" y="-194.9" font-family="Helvetica,sans-Serif" font-size="12.00" fill="#000000">base_timer.cpp</text>
</a>
</g>
</g>
<!-- Node20&#45;&gt;Node29 -->
<g id="edge20" class="edge">
<title>Node20&#45;&gt;Node29</title>
<path fill="none" stroke="#191970" d="M204.436,-351.751C195.9896,-326.8134 183.9942,-283.0762 188,-245 189.3267,-232.3892 192.6034,-218.1844 195.0467,-208.7243"/>
<polygon fill="#191970" stroke="#191970" points="201.149,-352.9542 207.7816,-361.2162 207.7489,-350.6214 201.149,-352.9542"/>
</g>
<!-- Node31 -->
<g id="node12" class="node">
<title>Node31</title>
<g id="a_node12"><a xlink:href="../../da/d04/manager_8hpp.html" target="_top" xlink:title="timemory/manager.hpp">
<polygon fill="#ffffff" stroke="#000000" points="185.5,-129.5 185.5,-150.5 294.5,-150.5 294.5,-129.5 185.5,-129.5"/>
<text text-anchor="middle" x="240" y="-136.9" font-family="Helvetica,sans-Serif" font-size="12.00" fill="#000000">timemory/manager.hpp</text>
</a>
</g>
</g>
<!-- Node20&#45;&gt;Node31 -->
<g id="edge21" class="edge">
<title>Node20&#45;&gt;Node31</title>
<path fill="none" stroke="#191970" d="M195.8837,-353.3876C167.8887,-318.6756 116.3403,-242.5509 150,-187 160.8704,-169.0599 181.0819,-157.6427 199.6013,-150.5607"/>
<polygon fill="#191970" stroke="#191970" points="193.3513,-355.8169 202.4274,-361.2826 198.7407,-351.3499 193.3513,-355.8169"/>
</g>
<!-- Node33 -->
<g id="node14" class="node">
<title>Node33</title>
<g id="a_node14"><a xlink:href="../../da/d8e/signal__detection_8hpp.html" target="_top" xlink:title="timemory/signal_detection.hpp">
<polygon fill="#ffffff" stroke="#000000" points="461.5,-303.5 461.5,-324.5 600.5,-324.5 600.5,-303.5 461.5,-303.5"/>
<text text-anchor="middle" x="531" y="-310.9" font-family="Helvetica,sans-Serif" font-size="12.00" fill="#000000">timemory/signal_detection.hpp</text>
</a>
</g>
</g>
<!-- Node20&#45;&gt;Node33 -->
<g id="edge22" class="edge">
<title>Node20&#45;&gt;Node33</title>
<path fill="none" stroke="#191970" d="M269.1046,-361.6174C326.746,-351.1371 415.2955,-335.0372 473.1882,-324.5112"/>
<polygon fill="#191970" stroke="#191970" points="268.2821,-358.2094 259.0695,-363.4419 269.5344,-365.0965 268.2821,-358.2094"/>
</g>
<!-- Node21&#45;&gt;Node22 -->
<g id="edge2" class="edge">
<title>Node21&#45;&gt;Node22</title>
<path fill="none" stroke="#191970" d="M278.8174,-73.1849C225.4996,-65.4746 149.8035,-52.7236 85,-35 78.1132,-33.1165 70.816,-30.6441 64.078,-28.1533"/>
<polygon fill="#191970" stroke="#191970" points="278.4447,-76.6671 288.8385,-74.6128 279.4322,-69.7371 278.4447,-76.6671"/>
</g>
<!-- Node23 -->
<g id="node4" class="node">
<title>Node23</title>
<g id="a_node4"><a xlink:href="../../d0/db0/manager_8cpp.html" target="_top" xlink:title="manager.cpp">
<polygon fill="#ffffff" stroke="#000000" points="247.5,-7 247.5,-28 316.5,-28 316.5,-7 247.5,-7"/>
<text text-anchor="middle" x="282" y="-14.4" font-family="Helvetica,sans-Serif" font-size="12.00" fill="#000000">manager.cpp</text>
</a>
</g>
</g>
<!-- Node21&#45;&gt;Node23 -->
<g id="edge3" class="edge">
<title>Node21&#45;&gt;Node23</title>
<path fill="none" stroke="#191970" d="M328.8591,-63.9987C317.3245,-52.5528 302.7695,-38.1097 292.9666,-28.3823"/>
<polygon fill="#191970" stroke="#191970" points="326.7029,-66.7898 336.2666,-71.3491 331.6335,-61.821 326.7029,-66.7898"/>
</g>
<!-- Node24 -->
<g id="node5" class="node">
<title>Node24</title>
<g id="a_node5"><a xlink:href="../../d2/dfd/timemory_8cc.html" target="_top" xlink:title="timemory.cc">
<polygon fill="#ffffff" stroke="#000000" points="461.5,-7 461.5,-28 526.5,-28 526.5,-7 461.5,-7"/>
<text text-anchor="middle" x="494" y="-14.4" font-family="Helvetica,sans-Serif" font-size="12.00" fill="#000000">timemory.cc</text>
</a>
</g>
</g>
<!-- Node21&#45;&gt;Node24 -->
<g id="edge4" class="edge">
<title>Node21&#45;&gt;Node24</title>
<path fill="none" stroke="#191970" d="M380.1255,-67.4654C407.4671,-55.4685 445.6163,-38.7296 470.065,-28.0021"/>
<polygon fill="#191970" stroke="#191970" points="378.6962,-64.2703 370.9453,-71.4934 381.5089,-70.6804 378.6962,-64.2703"/>
</g>
<!-- Node25 -->
<g id="node6" class="node">
<title>Node25</title>
<g id="a_node6"><a xlink:href="../../d0/d90/ex1_2test__timing_8cpp.html" target="_top" xlink:title="examples/ex1/test_timing.cpp">
<polygon fill="#ffffff" stroke="#000000" points="94.5,-7 94.5,-28 229.5,-28 229.5,-7 94.5,-7"/>
<text text-anchor="middle" x="162" y="-14.4" font-family="Helvetica,sans-Serif" font-size="12.00" fill="#000000">examples/ex1/test_timing.cpp</text>
</a>
</g>
</g>
<!-- Node21&#45;&gt;Node25 -->
<g id="edge5" class="edge">
<title>Node21&#45;&gt;Node25</title>
<path fill="none" stroke="#191970" d="M307.102,-68.0896C272.5844,-56.0551 223.4285,-38.917 192.1223,-28.0021"/>
<polygon fill="#191970" stroke="#191970" points="306.27,-71.5061 316.8648,-71.4934 308.5745,-64.8963 306.27,-71.5061"/>
</g>
<!-- Node26 -->
<g id="node7" class="node">
<title>Node26</title>
<g id="a_node7"><a xlink:href="../../dd/d0a/mpi__test__timing_8cpp.html" target="_top" xlink:title="examples/ex2/mpi_test\l_timing.cpp">
<polygon fill="#ffffff" stroke="#000000" points="334.5,-.5 334.5,-34.5 443.5,-34.5 443.5,-.5 334.5,-.5"/>
<text text-anchor="start" x="342.5" y="-20.9" font-family="Helvetica,sans-Serif" font-size="12.00" fill="#000000">examples/ex2/mpi_test</text>
<text text-anchor="middle" x="389" y="-7.9" font-family="Helvetica,sans-Serif" font-size="12.00" fill="#000000">_timing.cpp</text>
</a>
</g>
</g>
<!-- Node21&#45;&gt;Node26 -->
<g id="edge6" class="edge">
<title>Node21&#45;&gt;Node26</title>
<path fill="none" stroke="#191970" d="M359.5097,-62.7887C365.3101,-53.8809 372.1497,-43.3773 377.781,-34.7292"/>
<polygon fill="#191970" stroke="#191970" points="356.4592,-61.0593 353.9354,-71.3491 362.3252,-64.879 356.4592,-61.0593"/>
</g>
<!-- Node27 -->
<g id="node8" class="node">
<title>Node27</title>
<g id="a_node8"><a xlink:href="../../d2/dc1/ex3_2test__timing_8cpp.html" target="_top" xlink:title="examples/ex3/test_timing.cpp">
<polygon fill="#ffffff" stroke="#000000" points="544.5,-7 544.5,-28 679.5,-28 679.5,-7 544.5,-7"/>
<text text-anchor="middle" x="612" y="-14.4" font-family="Helvetica,sans-Serif" font-size="12.00" fill="#000000">examples/ex3/test_timing.cpp</text>
</a>
</g>
</g>
<!-- Node21&#45;&gt;Node27 -->
<g id="edge7" class="edge">
<title>Node21&#45;&gt;Node27</title>
<path fill="none" stroke="#191970" d="M400.0631,-69.0846C449.6468,-57.0161 522.7568,-39.2215 568.8519,-28.0021"/>
<polygon fill="#191970" stroke="#191970" points="399.0552,-65.7277 390.1666,-71.4934 400.7107,-72.5291 399.0552,-65.7277"/>
</g>
<!-- Node28&#45;&gt;Node29 -->
<g id="edge10" class="edge">
<title>Node28&#45;&gt;Node29</title>
<path fill="none" stroke="#191970" d="M238.118,-238.118C228.4377,-228.4377 216.8098,-216.8098 208.5707,-208.5707"/>
<polygon fill="#191970" stroke="#191970" points="235.8159,-240.7657 245.3619,-245.3619 240.7657,-235.8159 235.8159,-240.7657"/>
</g>
<!-- Node30 -->
<g id="node11" class="node">
<title>Node30</title>
<g id="a_node11"><a xlink:href="../../df/d05/timer_8hpp.html" target="_top" xlink:title="timemory/timer.hpp">
<polygon fill="#ffffff" stroke="#000000" points="293,-187.5 293,-208.5 387,-208.5 387,-187.5 293,-187.5"/>
<text text-anchor="middle" x="340" y="-194.9" font-family="Helvetica,sans-Serif" font-size="12.00" fill="#000000">timemory/timer.hpp</text>
</a>
</g>
</g>
<!-- Node28&#45;&gt;Node30 -->
<g id="edge11" class="edge">
<title>Node28&#45;&gt;Node30</title>
<path fill="none" stroke="#191970" d="M279.8376,-239.5407C294.2383,-229.5973 312.1675,-217.2177 324.6908,-208.5707"/>
<polygon fill="#191970" stroke="#191970" points="277.6472,-236.7998 271.4069,-245.3619 281.6246,-242.5601 277.6472,-236.7998"/>
</g>
<!-- Node30&#45;&gt;Node24 -->
<g id="edge18" class="edge">
<title>Node30&#45;&gt;Node24</title>
<path fill="none" stroke="#191970" d="M359.1057,-180.219C380.3757,-160.0071 415.2726,-125.581 442,-93 459.9679,-71.0969 478.0891,-43.1516 487.4636,-28.1558"/>
<polygon fill="#191970" stroke="#191970" points="356.5394,-177.8283 351.6664,-187.236 361.3425,-182.9205 356.5394,-177.8283"/>
</g>
<!-- Node30&#45;&gt;Node31 -->
<g id="edge12" class="edge">
<title>Node30&#45;&gt;Node31</title>
<path fill="none" stroke="#191970" d="M312.5878,-182.1009C295.2859,-172.0658 273.4152,-159.3808 258.2253,-150.5707"/>
<polygon fill="#191970" stroke="#191970" points="311.2521,-185.3723 321.6585,-187.3619 314.7642,-179.3171 311.2521,-185.3723"/>
</g>
<!-- Node32 -->
<g id="node13" class="node">
<title>Node32</title>
<g id="a_node13"><a xlink:href="../../dc/de5/timer_8cpp.html" target="_top" xlink:title="timer.cpp">
<polygon fill="#ffffff" stroke="#000000" points="313,-129.5 313,-150.5 367,-150.5 367,-129.5 313,-129.5"/>
<text text-anchor="middle" x="340" y="-136.9" font-family="Helvetica,sans-Serif" font-size="12.00" fill="#000000">timer.cpp</text>
</a>
</g>
</g>
<!-- Node30&#45;&gt;Node32 -->
<g id="edge19" class="edge">
<title>Node30&#45;&gt;Node32</title>
<path fill="none" stroke="#191970" d="M340,-177.1906C340,-168.1684 340,-157.9941 340,-150.5707"/>
<polygon fill="#191970" stroke="#191970" points="336.5001,-177.3619 340,-187.3619 343.5001,-177.3619 336.5001,-177.3619"/>
</g>
<!-- Node31&#45;&gt;Node21 -->
<g id="edge13" class="edge">
<title>Node31&#45;&gt;Node21</title>
<path fill="none" stroke="#191970" d="M268.5626,-124.5175C287.1927,-114.4189 311.0199,-101.5032 327.499,-92.5707"/>
<polygon fill="#191970" stroke="#191970" points="266.749,-121.5194 259.6254,-129.3619 270.0849,-127.6734 266.749,-121.5194"/>
</g>
<!-- Node31&#45;&gt;Node23 -->
<g id="edge14" class="edge">
<title>Node31&#45;&gt;Node23</title>
<path fill="none" stroke="#191970" d="M239.5612,-119.3038C239.8709,-105.2988 241.4836,-86.5839 247,-71 252.7778,-54.6776 264.5107,-38.3816 272.7954,-28.1409"/>
<polygon fill="#191970" stroke="#191970" points="236.0612,-119.3696 239.5427,-129.3761 243.0612,-119.3826 236.0612,-119.3696"/>
</g>
<!-- Node31&#45;&gt;Node24 -->
<g id="edge15" class="edge">
<title>Node31&#45;&gt;Node24</title>
<path fill="none" stroke="#191970" d="M299.5189,-127.1921C341.772,-117.4895 394.3447,-103.9981 414,-93 444.4985,-75.9347 472.2738,-44.6868 485.6344,-28.2534"/>
<polygon fill="#191970" stroke="#191970" points="298.5548,-123.8219 289.578,-129.4494 300.1048,-130.6481 298.5548,-123.8219"/>
</g>
<!-- Node31&#45;&gt;Node25 -->
<g id="edge16" class="edge">
<title>Node31&#45;&gt;Node25</title>
<path fill="none" stroke="#191970" d="M227.5477,-120.4434C210.8834,-94.2719 181.9096,-48.7683 168.7951,-28.1718"/>
<polygon fill="#191970" stroke="#191970" points="224.7547,-122.5736 233.078,-129.1289 230.6593,-118.8139 224.7547,-122.5736"/>
</g>
<!-- Node31&#45;&gt;Node26 -->
<g id="edge17" class="edge">
<title>Node31&#45;&gt;Node26</title>
<path fill="none" stroke="#191970" d="M247.812,-119.9417C254.4945,-104.9101 265.3592,-84.6627 280,-71 296.876,-55.2514 319.2573,-43.1871 339.3469,-34.5365"/>
<polygon fill="#191970" stroke="#191970" points="244.4979,-118.7943 243.8588,-129.3699 250.9534,-121.5011 244.4979,-118.7943"/>
</g>
<!-- Node33&#45;&gt;Node24 -->
<g id="edge25" class="edge">
<title>Node33&#45;&gt;Node24</title>
<path fill="none" stroke="#191970" d="M535.6279,-293.1636C540.3533,-270.0363 547,-231.5438 547,-198 547,-198 547,-198 547,-140 547,-95.5087 517.1875,-48.8481 502.2813,-28.2985"/>
<polygon fill="#191970" stroke="#191970" points="532.1516,-292.685 533.5,-303.1936 538.9992,-294.1377 532.1516,-292.685"/>
</g>
<!-- Node33&#45;&gt;Node25 -->
<g id="edge26" class="edge">
<title>Node33&#45;&gt;Node25</title>
<path fill="none" stroke="#191970" d="M493.5419,-299.7406C444.5823,-280.7277 356.5318,-245.2413 284,-209 266.5428,-200.2773 263.0995,-196.4047 246,-187 215.692,-170.3306 196.5565,-179.5305 177,-151 150.6271,-112.5252 156.3066,-52.6854 160.0533,-28.3465"/>
<polygon fill="#191970" stroke="#191970" points="492.4971,-303.0891 503.0864,-303.4305 495.0213,-296.56 492.4971,-303.0891"/>
</g>
<!-- Node33&#45;&gt;Node26 -->
<g id="edge27" class="edge">
<title>Node33&#45;&gt;Node26</title>
<path fill="none" stroke="#191970" d="M514.5204,-295.7027C496.7582,-274.0244 471,-236.031 471,-198 471,-198 471,-198 471,-140 471,-96.2371 434.4131,-56.2814 410.117,-34.5729"/>
<polygon fill="#191970" stroke="#191970" points="511.9492,-298.0819 521.0922,-303.4351 517.283,-293.5487 511.9492,-298.0819"/>
</g>
<!-- Node33&#45;&gt;Node27 -->
<g id="edge28" class="edge">
<title>Node33&#45;&gt;Node27</title>
<path fill="none" stroke="#191970" d="M546.0443,-295.1358C562.0223,-273.1549 585,-235.0958 585,-198 585,-198 585,-198 585,-140 585,-97.751 600.5056,-49.1864 608.0161,-28.141"/>
<polygon fill="#191970" stroke="#191970" points="543.1435,-293.1694 539.917,-303.2611 548.7325,-297.3841 543.1435,-293.1694"/>
</g>
<!-- Node33&#45;&gt;Node28 -->
<g id="edge23" class="edge">
<title>Node33&#45;&gt;Node28</title>
<path fill="none" stroke="#191970" d="M471.2799,-301.4045C421.8394,-290.977 352.4066,-276.333 305.8938,-266.5231"/>
<polygon fill="#191970" stroke="#191970" points="470.6925,-304.8575 481.1996,-303.4966 472.1371,-298.0082 470.6925,-304.8575"/>
</g>
<!-- Node34 -->
<g id="node15" class="node">
<title>Node34</title>
<g id="a_node15"><a xlink:href="../../dc/d43/signal__detection_8cpp.html" target="_top" xlink:title="signal_detection.cpp">
<polygon fill="#ffffff" stroke="#000000" points="613.5,-245.5 613.5,-266.5 712.5,-266.5 712.5,-245.5 613.5,-245.5"/>
<text text-anchor="middle" x="663" y="-252.9" font-family="Helvetica,sans-Serif" font-size="12.00" fill="#000000">signal_detection.cpp</text>
</a>
</g>
</g>
<!-- Node33&#45;&gt;Node34 -->
<g id="edge24" class="edge">
<title>Node33&#45;&gt;Node34</title>
<path fill="none" stroke="#191970" d="M564.3571,-299.3431C587.5548,-289.1502 617.9433,-275.7977 638.8276,-266.6212"/>
<polygon fill="#191970" stroke="#191970" points="562.6514,-296.2695 554.9042,-303.4966 565.4674,-302.6782 562.6514,-296.2695"/>
</g>
</g>
</svg>
        <g id="navigator" transform="translate(0 0)" fill="#404254">
                <rect fill="#f2f5e9" fill-opacity="0.5" stroke="#606060" stroke-width=".5" x="0" y="0" width="60" height="60"/>
                <use id="zoomplus" xlink:href="#zoomPlus" x="17" y="9" onmousedown="handleZoom(evt,'in')"/>
                <use id="zoomminus" xlink:href="#zoomMin" x="42" y="9" onmousedown="handleZoom(evt,'out')"/>
                <use id="reset" xlink:href="#resetDef" x="30" y="36" onmousedown="handleReset()"/>
                <g id="arrowUp" xlink:href="#dirArrow" transform="translate(30 24)" onmousedown="handlePan(0,-1)">
                  <use xlink:href="#rim" fill="#404040">
                        <set attributeName="fill" to="#808080" begin="arrowUp.mouseover" end="arrowUp.mouseout"/>
                  </use>
                  <path fill="none" stroke="white" stroke-width="1.5" d="M0,-3.0v7 M-2.5,-0.5L0,-3.0L2.5,-0.5"/>
                </g>
                <g id="arrowRight" xlink:href="#dirArrow" transform="rotate(90) translate(36 -43)" onmousedown="handlePan(1,0)">
                  <use xlink:href="#rim" fill="#404040">
                        <set attributeName="fill" to="#808080" begin="arrowRight.mouseover" end="arrowRight.mouseout"/>
                  </use>
                  <path fill="none" stroke="white" stroke-width="1.5" d="M0,-3.0v7 M-2.5,-0.5L0,-3.0L2.5,-0.5"/>
                </g>
                <g id="arrowDown" xlink:href="#dirArrow" transform="rotate(180) translate(-30 -48)" onmousedown="handlePan(0,1)">
                  <use xlink:href="#rim" fill="#404040">
                        <set attributeName="fill" to="#808080" begin="arrowDown.mouseover" end="arrowDown.mouseout"/>
                  </use>
                  <path fill="none" stroke="white" stroke-width="1.5" d="M0,-3.0v7 M-2.5,-0.5L0,-3.0L2.5,-0.5"/>
                </g>
                <g id="arrowLeft" xlink:href="#dirArrow" transform="rotate(270) translate(-36 17)" onmousedown="handlePan(-1,0)">
                  <use xlink:href="#rim" fill="#404040">
                        <set attributeName="fill" to="#808080" begin="arrowLeft.mouseover" end="arrowLeft.mouseout"/>
                  </use>
                  <path fill="none" stroke="white" stroke-width="1.5" d="M0,-3.0v7 M-2.5,-0.5L0,-3.0L2.5,-0.5"/>
                </g>
        </g>
        <svg viewBox="0 0 15 15" width="100%" height="30px" preserveAspectRatio="xMaxYMin meet">
         <g id="arrow_out" transform="scale(0.3 0.3)">
          <a xlink:href="utility_8hpp__dep__incl_org.svg" target="_base">
           <rect id="button" ry="5" rx="5" y="6" x="6" height="38" width="38"
                fill="#f2f5e9" fill-opacity="0.5" stroke="#606060" stroke-width="1.0"/>
           <path id="arrow"
             d="M 11.500037,31.436501 C 11.940474,20.09759 22.043105,11.32322 32.158766,21.979434 L 37.068811,17.246167 C 37.068811,17.246167 37.088388,32 37.088388,32 L 22.160133,31.978069 C 22.160133,31.978069 26.997745,27.140456 26.997745,27.140456 C 18.528582,18.264221 13.291696,25.230495 11.500037,31.436501 z"
             style="fill:#404040;"/>
          </a>
         </g>
        </svg>
</svg>
