<?xml version="1.0" encoding="UTF-8" standalone="no"?>
<!DOCTYPE svg PUBLIC "-//W3C//DTD SVG 1.1//EN"
 "http://www.w3.org/Graphics/SVG/1.1/DTD/svg11.dtd">
<!-- Generated by graphviz version 2.40.1 (20161225.0304)
 -->
<!-- Title: timemory/utility.hpp Pages: 1 -->
<svg width="474pt" height="204pt"
 viewBox="0.00 0.00 473.50 204.00" xmlns="http://www.w3.org/2000/svg" xmlns:xlink="http://www.w3.org/1999/xlink">
<g id="graph0" class="graph" transform="scale(1 1) rotate(0) translate(4 200)">
<title>timemory/utility.hpp</title>
<polygon fill="#ffffff" stroke="transparent" points="-4,4 -4,-200 469.5,-200 469.5,4 -4,4"/>
<!-- Node15 -->
<g id="node1" class="node">
<title>Node15</title>
<polygon fill="#bfbfbf" stroke="#000000" points="162.5,-174.5 162.5,-195.5 256.5,-195.5 256.5,-174.5 162.5,-174.5"/>
<text text-anchor="middle" x="209.5" y="-181.9" font-family="Helvetica,sans-Serif" font-size="12.00" fill="#000000">timemory/utility.hpp</text>
</g>
<!-- Node16 -->
<g id="node2" class="node">
<title>Node16</title>
<g id="a_node2"><a xlink:href="../../da/d8e/signal__detection_8hpp.html" target="_top" xlink:title="timemory/signal_detection.hpp">
<polygon fill="#ffffff" stroke="#000000" points="0,-58.5 0,-79.5 139,-79.5 139,-58.5 0,-58.5"/>
<text text-anchor="middle" x="69.5" y="-65.9" font-family="Helvetica,sans-Serif" font-size="12.00" fill="#000000">timemory/signal_detection.hpp</text>
</a>
</g>
</g>
<!-- Node15&#45;&gt;Node16 -->
<g id="edge1" class="edge">
<title>Node15&#45;&gt;Node16</title>
<path fill="none" stroke="#191970" d="M188.6128,-167.6935C159.247,-143.3618 106.6388,-99.7721 82.3887,-79.6792"/>
<polygon fill="#191970" stroke="#191970" points="186.6468,-170.6098 196.5801,-174.2949 191.1129,-165.2196 186.6468,-170.6098"/>
</g>
<!-- Node20 -->
<g id="node6" class="node">
<title>Node20</title>
<g id="a_node6"><a xlink:href="../../d8/d07/auto__timer_8hpp.html" target="_top" xlink:title="timemory/auto_timer.hpp">
<polygon fill="#ffffff" stroke="#000000" points="157.5,-58.5 157.5,-79.5 273.5,-79.5 273.5,-58.5 157.5,-58.5"/>
<text text-anchor="middle" x="215.5" y="-65.9" font-family="Helvetica,sans-Serif" font-size="12.00" fill="#000000">timemory/auto_timer.hpp</text>
</a>
</g>
</g>
<!-- Node15&#45;&gt;Node20 -->
<g id="edge5" class="edge">
<title>Node15&#45;&gt;Node20</title>
<path fill="none" stroke="#191970" d="M210.5798,-164.1231C211.8639,-139.2984 213.9574,-98.8235 214.9476,-79.6792"/>
<polygon fill="#191970" stroke="#191970" points="207.075,-164.1274 210.0537,-174.2949 214.0657,-164.4891 207.075,-164.1274"/>
</g>
<!-- Node21 -->
<g id="node7" class="node">
<title>Node21</title>
<g id="a_node7"><a xlink:href="../../df/df2/timing__manager_8hpp.html" target="_top" xlink:title="timemory/timing_manager.hpp">
<polygon fill="#ffffff" stroke="#000000" points="237.5,-116.5 237.5,-137.5 375.5,-137.5 375.5,-116.5 237.5,-116.5"/>
<text text-anchor="middle" x="306.5" y="-123.9" font-family="Helvetica,sans-Serif" font-size="12.00" fill="#000000">timemory/timing_manager.hpp</text>
</a>
</g>
</g>
<!-- Node15&#45;&gt;Node21 -->
<g id="edge8" class="edge">
<title>Node15&#45;&gt;Node21</title>
<path fill="none" stroke="#191970" d="M236.0899,-169.1009C252.8727,-159.0658 274.0872,-146.3808 288.8215,-137.5707"/>
<polygon fill="#191970" stroke="#191970" points="234.0778,-166.226 227.2913,-174.3619 237.6702,-172.2339 234.0778,-166.226"/>
</g>
<!-- Node17 -->
<g id="node3" class="node">
<title>Node17</title>
<g id="a_node3"><a xlink:href="../../dc/d43/signal__detection_8cpp.html" target="_top" xlink:title="signal_detection.cpp">
<polygon fill="#ffffff" stroke="#000000" points="20,-.5 20,-21.5 119,-21.5 119,-.5 20,-.5"/>
<text text-anchor="middle" x="69.5" y="-7.9" font-family="Helvetica,sans-Serif" font-size="12.00" fill="#000000">signal_detection.cpp</text>
</a>
</g>
</g>
<!-- Node16&#45;&gt;Node17 -->
<g id="edge2" class="edge">
<title>Node16&#45;&gt;Node17</title>
<path fill="none" stroke="#191970" d="M69.5,-48.1906C69.5,-39.1684 69.5,-28.9941 69.5,-21.5707"/>
<polygon fill="#191970" stroke="#191970" points="66.0001,-48.3619 69.5,-58.3619 73.0001,-48.3619 66.0001,-48.3619"/>
</g>
<!-- Node18 -->
<g id="node4" class="node">
<title>Node18</title>
<g id="a_node4"><a xlink:href="../../d2/dfd/timemory_8cc.html" target="_top" xlink:title="timemory.cc">
<polygon fill="#ffffff" stroke="#000000" points="295,-.5 295,-21.5 360,-21.5 360,-.5 295,-.5"/>
<text text-anchor="middle" x="327.5" y="-7.9" font-family="Helvetica,sans-Serif" font-size="12.00" fill="#000000">timemory.cc</text>
</a>
</g>
</g>
<!-- Node16&#45;&gt;Node18 -->
<g id="edge3" class="edge">
<title>Node16&#45;&gt;Node18</title>
<path fill="none" stroke="#191970" d="M130.5231,-56.434C173.8702,-47.3342 233.3911,-34.4872 285.5,-22 288.5786,-21.2622 291.7776,-20.4705 294.9745,-19.6623"/>
<polygon fill="#191970" stroke="#191970" points="129.7699,-53.0157 120.6991,-58.4903 131.204,-59.8672 129.7699,-53.0157"/>
</g>
<!-- Node19 -->
<g id="node5" class="node">
<title>Node19</title>
<g id="a_node5"><a xlink:href="../../d6/d8e/test__timing_8cpp.html" target="_top" xlink:title="examples/ex1/test_timing.cpp">
<polygon fill="#ffffff" stroke="#000000" points="142,-.5 142,-21.5 277,-21.5 277,-.5 142,-.5"/>
<text text-anchor="middle" x="209.5" y="-7.9" font-family="Helvetica,sans-Serif" font-size="12.00" fill="#000000">examples/ex1/test_timing.cpp</text>
</a>
</g>
</g>
<!-- Node16&#45;&gt;Node19 -->
<g id="edge4" class="edge">
<title>Node16&#45;&gt;Node19</title>
<path fill="none" stroke="#191970" d="M104.2216,-54.6153C128.906,-44.3889 161.5148,-30.8796 183.8626,-21.6212"/>
<polygon fill="#191970" stroke="#191970" points="102.7519,-51.4357 94.8529,-58.4966 105.4311,-57.9027 102.7519,-51.4357"/>
</g>
<!-- Node20&#45;&gt;Node18 -->
<g id="edge6" class="edge">
<title>Node20&#45;&gt;Node18</title>
<path fill="none" stroke="#191970" d="M244.8632,-53.794C264.4042,-43.6746 289.5865,-30.6338 306.9901,-21.6212"/>
<polygon fill="#191970" stroke="#191970" points="243.0528,-50.7901 235.7824,-58.4966 246.2718,-57.006 243.0528,-50.7901"/>
</g>
<!-- Node20&#45;&gt;Node19 -->
<g id="edge7" class="edge">
<title>Node20&#45;&gt;Node19</title>
<path fill="none" stroke="#191970" d="M213.3473,-48.1906C212.414,-39.1684 211.3615,-28.9941 210.5935,-21.5707"/>
<polygon fill="#191970" stroke="#191970" points="209.889,-48.7752 214.3995,-58.3619 216.8518,-48.0548 209.889,-48.7752"/>
</g>
<!-- Node21&#45;&gt;Node18 -->
<g id="edge10" class="edge">
<title>Node21&#45;&gt;Node18</title>
<path fill="none" stroke="#191970" d="M310.5327,-106.3511C312.113,-98.1538 313.922,-88.6375 315.5,-80 319.2584,-59.4271 323.3835,-35.3513 325.6859,-21.7666"/>
<polygon fill="#191970" stroke="#191970" points="307.094,-105.699 308.6256,-116.1825 313.9659,-107.0321 307.094,-105.699"/>
</g>
<!-- Node21&#45;&gt;Node19 -->
<g id="edge12" class="edge">
<title>Node21&#45;&gt;Node19</title>
<path fill="none" stroke="#191970" d="M302.9643,-106.0107C299.6514,-91.3505 293.5008,-71.9785 282.5,-58 269.7291,-41.7723 249.7204,-29.4529 233.8781,-21.5061"/>
<polygon fill="#191970" stroke="#191970" points="299.5946,-107.0106 304.978,-116.1357 306.4601,-105.6451 299.5946,-107.0106"/>
</g>
<!-- Node21&#45;&gt;Node20 -->
<g id="edge9" class="edge">
<title>Node21&#45;&gt;Node20</title>
<path fill="none" stroke="#191970" d="M281.1165,-110.8215C265.4421,-100.8312 245.7799,-88.2993 232.085,-79.5707"/>
<polygon fill="#191970" stroke="#191970" points="279.4952,-113.9386 289.8092,-116.3619 283.2576,-108.0356 279.4952,-113.9386"/>
</g>
<!-- Node22 -->
<g id="node8" class="node">
<title>Node22</title>
<g id="a_node8"><a xlink:href="../../d9/dad/timing__manager_8cpp.html" target="_top" xlink:title="timing_manager.cpp">
<polygon fill="#ffffff" stroke="#000000" points="367.5,-58.5 367.5,-79.5 465.5,-79.5 465.5,-58.5 367.5,-58.5"/>
<text text-anchor="middle" x="416.5" y="-65.9" font-family="Helvetica,sans-Serif" font-size="12.00" fill="#000000">timing_manager.cpp</text>
</a>
</g>
</g>
<!-- Node21&#45;&gt;Node22 -->
<g id="edge11" class="edge">
<title>Node21&#45;&gt;Node22</title>
<path fill="none" stroke="#191970" d="M335.3389,-111.794C354.5309,-101.6746 379.2635,-88.6338 396.3563,-79.6212"/>
<polygon fill="#191970" stroke="#191970" points="333.6334,-108.7365 326.4202,-116.4966 336.8983,-114.9285 333.6334,-108.7365"/>
</g>
</g>
</svg>
