<?xml version="1.0" encoding="UTF-8" standalone="no"?>
<!DOCTYPE svg PUBLIC "-//W3C//DTD SVG 1.1//EN"
 "http://www.w3.org/Graphics/SVG/1.1/DTD/svg11.dtd">
<!-- Generated by graphviz version 2.40.1 (20161225.0304)
 -->
<!-- Title: timemory/utility.hpp Pages: 1 -->
<svg width="669pt" height="391pt"
 viewBox="0.00 0.00 668.50 391.00" xmlns="http://www.w3.org/2000/svg" xmlns:xlink="http://www.w3.org/1999/xlink">
<g id="graph0" class="graph" transform="scale(1 1) rotate(0) translate(4 387)">
<title>timemory/utility.hpp</title>
<polygon fill="#ffffff" stroke="transparent" points="-4,4 -4,-387 664.5,-387 664.5,4 -4,4"/>
<!-- Node15 -->
<g id="node1" class="node">
<title>Node15</title>
<polygon fill="#bfbfbf" stroke="#000000" points="144,-361.5 144,-382.5 238,-382.5 238,-361.5 144,-361.5"/>
<text text-anchor="middle" x="191" y="-368.9" font-family="Helvetica,sans-Serif" font-size="12.00" fill="#000000">timemory/utility.hpp</text>
</g>
<!-- Node16 -->
<g id="node2" class="node">
<title>Node16</title>
<g id="a_node2"><a xlink:href="../../d8/d07/auto__timer_8hpp.html" target="_top" xlink:title="timemory/auto_timer.hpp">
<polygon fill="#ffffff" stroke="#000000" points="161,-71.5 161,-92.5 277,-92.5 277,-71.5 161,-71.5"/>
<text text-anchor="middle" x="219" y="-78.9" font-family="Helvetica,sans-Serif" font-size="12.00" fill="#000000">timemory/auto_timer.hpp</text>
</a>
</g>
</g>
<!-- Node15&#45;&gt;Node16 -->
<g id="edge1" class="edge">
<title>Node15&#45;&gt;Node16</title>
<path fill="none" stroke="#191970" d="M180.2892,-352.2677C169.0509,-329.6846 153,-291.2589 153,-256 153,-256 153,-256 153,-198 153,-166.1919 156.001,-156.4915 172,-129 180.4742,-114.4385 194.5696,-101.1992 205.1182,-92.5101"/>
<polygon fill="#191970" stroke="#191970" points="177.1981,-353.9099 184.8946,-361.191 183.4185,-350.6995 177.1981,-353.9099"/>
</g>
<!-- Node19 -->
<g id="node5" class="node">
<title>Node19</title>
<g id="a_node5"><a xlink:href="../../d2/d80/auto__timer_8cpp.html" target="_top" xlink:title="auto_timer.cpp">
<polygon fill="#ffffff" stroke="#000000" points="0,-7 0,-28 76,-28 76,-7 0,-7"/>
<text text-anchor="middle" x="38" y="-14.4" font-family="Helvetica,sans-Serif" font-size="12.00" fill="#000000">auto_timer.cpp</text>
</a>
</g>
</g>
<!-- Node15&#45;&gt;Node19 -->
<g id="edge7" class="edge">
<title>Node15&#45;&gt;Node19</title>
<path fill="none" stroke="#191970" d="M157.3145,-356.8781C122.128,-338.513 72,-303.9372 72,-256 72,-256 72,-256 72,-140 72,-97.1816 52.4745,-48.9106 43.0168,-28.0408"/>
<polygon fill="#191970" stroke="#191970" points="155.8358,-360.0521 166.3431,-361.4112 158.9767,-353.7963 155.8358,-360.0521"/>
</g>
<!-- Node22 -->
<g id="node8" class="node">
<title>Node22</title>
<g id="a_node8"><a xlink:href="../../d6/d01/base__timer_8hpp.html" target="_top" xlink:title="timemory/base_timer.hpp">
<polygon fill="#ffffff" stroke="#000000" points="258,-245.5 258,-266.5 376,-266.5 376,-245.5 258,-245.5"/>
<text text-anchor="middle" x="317" y="-252.9" font-family="Helvetica,sans-Serif" font-size="12.00" fill="#000000">timemory/base_timer.hpp</text>
</a>
</g>
</g>
<!-- Node15&#45;&gt;Node22 -->
<g id="edge8" class="edge">
<title>Node15&#45;&gt;Node22</title>
<path fill="none" stroke="#191970" d="M210.1399,-354.3791C236.6336,-329.9881 283.6688,-286.6859 305.4002,-266.6792"/>
<polygon fill="#191970" stroke="#191970" points="207.6143,-351.9468 202.6279,-361.2949 212.3555,-357.0967 207.6143,-351.9468"/>
</g>
<!-- Node25 -->
<g id="node11" class="node">
<title>Node25</title>
<g id="a_node11"><a xlink:href="../../df/df2/timing__manager_8hpp.html" target="_top" xlink:title="timemory/timing_manager.hpp">
<polygon fill="#ffffff" stroke="#000000" points="181,-129.5 181,-150.5 319,-150.5 319,-129.5 181,-129.5"/>
<text text-anchor="middle" x="250" y="-136.9" font-family="Helvetica,sans-Serif" font-size="12.00" fill="#000000">timemory/timing_manager.hpp</text>
</a>
</g>
</g>
<!-- Node15&#45;&gt;Node25 -->
<g id="edge25" class="edge">
<title>Node15&#45;&gt;Node25</title>
<path fill="none" stroke="#191970" d="M189.2513,-351.4151C187.0821,-316.1812 186.1939,-242.7267 210,-187 216.1456,-172.6141 228.2916,-159.3501 237.5949,-150.6074"/>
<polygon fill="#191970" stroke="#191970" points="185.7638,-351.717 189.9709,-361.4408 192.7459,-351.2158 185.7638,-351.717"/>
</g>
<!-- Node27 -->
<g id="node13" class="node">
<title>Node27</title>
<g id="a_node13"><a xlink:href="../../da/d8e/signal__detection_8hpp.html" target="_top" xlink:title="timemory/signal_detection.hpp">
<polygon fill="#ffffff" stroke="#000000" points="383.5,-303.5 383.5,-324.5 522.5,-324.5 522.5,-303.5 383.5,-303.5"/>
<text text-anchor="middle" x="453" y="-310.9" font-family="Helvetica,sans-Serif" font-size="12.00" fill="#000000">timemory/signal_detection.hpp</text>
</a>
</g>
</g>
<!-- Node15&#45;&gt;Node27 -->
<g id="edge19" class="edge">
<title>Node15&#45;&gt;Node27</title>
<path fill="none" stroke="#191970" d="M248.1781,-359.3422C295.223,-348.9277 361.1261,-334.3385 405.3514,-324.5482"/>
<polygon fill="#191970" stroke="#191970" points="247.15,-355.985 238.1429,-361.5638 248.6631,-362.8196 247.15,-355.985"/>
</g>
<!-- Node17 -->
<g id="node3" class="node">
<title>Node17</title>
<g id="a_node3"><a xlink:href="../../d6/d8e/test__timing_8cpp.html" target="_top" xlink:title="examples/ex1/test_timing.cpp">
<polygon fill="#ffffff" stroke="#000000" points="337.5,-7 337.5,-28 472.5,-28 472.5,-7 337.5,-7"/>
<text text-anchor="middle" x="405" y="-14.4" font-family="Helvetica,sans-Serif" font-size="12.00" fill="#000000">examples/ex1/test_timing.cpp</text>
</a>
</g>
</g>
<!-- Node16&#45;&gt;Node17 -->
<g id="edge2" class="edge">
<title>Node16&#45;&gt;Node17</title>
<path fill="none" stroke="#191970" d="M259.1136,-68.0896C293.8179,-56.0551 343.2395,-38.917 374.7149,-28.0021"/>
<polygon fill="#191970" stroke="#191970" points="257.5994,-64.9102 249.2981,-71.4934 259.8929,-71.5238 257.5994,-64.9102"/>
</g>
<!-- Node18 -->
<g id="node4" class="node">
<title>Node18</title>
<g id="a_node4"><a xlink:href="../../dd/d0a/mpi__test__timing_8cpp.html" target="_top" xlink:title="examples/ex2/mpi_test\l_timing.cpp">
<polygon fill="#ffffff" stroke="#000000" points="210.5,-.5 210.5,-34.5 319.5,-34.5 319.5,-.5 210.5,-.5"/>
<text text-anchor="start" x="218.5" y="-20.9" font-family="Helvetica,sans-Serif" font-size="12.00" fill="#000000">examples/ex2/mpi_test</text>
<text text-anchor="middle" x="265" y="-7.9" font-family="Helvetica,sans-Serif" font-size="12.00" fill="#000000">_timing.cpp</text>
</a>
</g>
</g>
<!-- Node16&#45;&gt;Node18 -->
<g id="edge3" class="edge">
<title>Node16&#45;&gt;Node18</title>
<path fill="none" stroke="#191970" d="M232.5009,-63.0694C238.8961,-54.1022 246.48,-43.4683 252.7125,-34.7292"/>
<polygon fill="#191970" stroke="#191970" points="229.5529,-61.1753 226.596,-71.3491 235.252,-65.2398 229.5529,-61.1753"/>
</g>
<!-- Node16&#45;&gt;Node19 -->
<g id="edge4" class="edge">
<title>Node16&#45;&gt;Node19</title>
<path fill="none" stroke="#191970" d="M178.6008,-68.0554C151.9705,-58.808 116.3517,-46.3338 85,-35 78.9406,-32.8095 72.4571,-30.4231 66.301,-28.1372"/>
<polygon fill="#191970" stroke="#191970" points="177.7446,-71.4629 188.3393,-71.4324 180.038,-64.8492 177.7446,-71.4629"/>
</g>
<!-- Node20 -->
<g id="node6" class="node">
<title>Node20</title>
<g id="a_node6"><a xlink:href="../../d2/dfd/timemory_8cc.html" target="_top" xlink:title="timemory.cc">
<polygon fill="#ffffff" stroke="#000000" points="490.5,-7 490.5,-28 555.5,-28 555.5,-7 490.5,-7"/>
<text text-anchor="middle" x="523" y="-14.4" font-family="Helvetica,sans-Serif" font-size="12.00" fill="#000000">timemory.cc</text>
</a>
</g>
</g>
<!-- Node16&#45;&gt;Node20 -->
<g id="edge5" class="edge">
<title>Node16&#45;&gt;Node20</title>
<path fill="none" stroke="#191970" d="M287.1683,-74.1326C340.8504,-66.9098 417.1775,-54.353 482,-35 488.2293,-33.1402 494.785,-30.6167 500.7821,-28.0654"/>
<polygon fill="#191970" stroke="#191970" points="286.5369,-70.6855 277.0804,-75.4631 287.4522,-77.6254 286.5369,-70.6855"/>
</g>
<!-- Node21 -->
<g id="node7" class="node">
<title>Node21</title>
<g id="a_node7"><a xlink:href="../../d9/dad/timing__manager_8cpp.html" target="_top" xlink:title="timing_manager.cpp">
<polygon fill="#ffffff" stroke="#000000" points="94,-7 94,-28 192,-28 192,-7 94,-7"/>
<text text-anchor="middle" x="143" y="-14.4" font-family="Helvetica,sans-Serif" font-size="12.00" fill="#000000">timing_manager.cpp</text>
</a>
</g>
</g>
<!-- Node16&#45;&gt;Node21 -->
<g id="edge6" class="edge">
<title>Node16&#45;&gt;Node21</title>
<path fill="none" stroke="#191970" d="M198.5122,-64.6123C184.8164,-52.9889 167.2361,-38.0688 155.5685,-28.1667"/>
<polygon fill="#191970" stroke="#191970" points="196.561,-67.547 206.4501,-71.3491 201.0905,-62.2099 196.561,-67.547"/>
</g>
<!-- Node23 -->
<g id="node9" class="node">
<title>Node23</title>
<g id="a_node9"><a xlink:href="../../dd/d84/base__timer_8cpp.html" target="_top" xlink:title="base_timer.cpp">
<polygon fill="#ffffff" stroke="#000000" points="219,-187.5 219,-208.5 297,-208.5 297,-187.5 219,-187.5"/>
<text text-anchor="middle" x="258" y="-194.9" font-family="Helvetica,sans-Serif" font-size="12.00" fill="#000000">base_timer.cpp</text>
</a>
</g>
</g>
<!-- Node22&#45;&gt;Node23 -->
<g id="edge9" class="edge">
<title>Node22&#45;&gt;Node23</title>
<path fill="none" stroke="#191970" d="M298.8097,-238.118C288.9625,-228.4377 277.1341,-216.8098 268.7529,-208.5707"/>
<polygon fill="#191970" stroke="#191970" points="296.5936,-240.8474 306.1785,-245.3619 301.5009,-235.8556 296.5936,-240.8474"/>
</g>
<!-- Node24 -->
<g id="node10" class="node">
<title>Node24</title>
<g id="a_node10"><a xlink:href="../../df/d05/timer_8hpp.html" target="_top" xlink:title="timemory/timer.hpp">
<polygon fill="#ffffff" stroke="#000000" points="315,-187.5 315,-208.5 409,-208.5 409,-187.5 315,-187.5"/>
<text text-anchor="middle" x="362" y="-194.9" font-family="Helvetica,sans-Serif" font-size="12.00" fill="#000000">timemory/timer.hpp</text>
</a>
</g>
</g>
<!-- Node22&#45;&gt;Node24 -->
<g id="edge10" class="edge">
<title>Node22&#45;&gt;Node24</title>
<path fill="none" stroke="#191970" d="M331.5471,-237.2504C338.9181,-227.75 347.5961,-216.5651 353.7986,-208.5707"/>
<polygon fill="#191970" stroke="#191970" points="328.6184,-235.3155 325.2537,-245.3619 334.149,-239.6065 328.6184,-235.3155"/>
</g>
<!-- Node24&#45;&gt;Node20 -->
<g id="edge17" class="edge">
<title>Node24&#45;&gt;Node20</title>
<path fill="none" stroke="#191970" d="M378.4035,-179.6097C411.7416,-142.2337 486.514,-58.4051 513.2576,-28.4224"/>
<polygon fill="#191970" stroke="#191970" points="375.6337,-177.457 371.5891,-187.2495 380.8576,-182.1165 375.6337,-177.457"/>
</g>
<!-- Node24&#45;&gt;Node25 -->
<g id="edge11" class="edge">
<title>Node24&#45;&gt;Node25</title>
<path fill="none" stroke="#191970" d="M332.6368,-182.794C313.0958,-172.6746 287.9135,-159.6338 270.5099,-150.6212"/>
<polygon fill="#191970" stroke="#191970" points="331.2282,-186.006 341.7176,-187.4966 334.4472,-179.7901 331.2282,-186.006"/>
</g>
<!-- Node26 -->
<g id="node12" class="node">
<title>Node26</title>
<g id="a_node12"><a xlink:href="../../dc/de5/timer_8cpp.html" target="_top" xlink:title="timer.cpp">
<polygon fill="#ffffff" stroke="#000000" points="337,-129.5 337,-150.5 391,-150.5 391,-129.5 337,-129.5"/>
<text text-anchor="middle" x="364" y="-136.9" font-family="Helvetica,sans-Serif" font-size="12.00" fill="#000000">timer.cpp</text>
</a>
</g>
</g>
<!-- Node24&#45;&gt;Node26 -->
<g id="edge18" class="edge">
<title>Node24&#45;&gt;Node26</title>
<path fill="none" stroke="#191970" d="M362.7176,-177.1906C363.0287,-168.1684 363.3795,-157.9941 363.6355,-150.5707"/>
<polygon fill="#191970" stroke="#191970" points="359.2136,-177.2472 362.3668,-187.3619 366.2095,-177.4885 359.2136,-177.2472"/>
</g>
<!-- Node25&#45;&gt;Node16 -->
<g id="edge14" class="edge">
<title>Node25&#45;&gt;Node16</title>
<path fill="none" stroke="#191970" d="M239.5099,-120.3733C234.5364,-111.0682 228.7919,-100.3204 224.6498,-92.5707"/>
<polygon fill="#191970" stroke="#191970" points="236.5135,-122.1924 244.3141,-129.3619 242.6871,-118.8927 236.5135,-122.1924"/>
</g>
<!-- Node25&#45;&gt;Node17 -->
<g id="edge12" class="edge">
<title>Node25&#45;&gt;Node17</title>
<path fill="none" stroke="#191970" d="M271.4603,-123.0394C303.8916,-97.4082 364.4614,-49.5385 391.4367,-28.2194"/>
<polygon fill="#191970" stroke="#191970" points="269.1595,-120.3967 263.4841,-129.3432 273.4999,-125.8886 269.1595,-120.3967"/>
</g>
<!-- Node25&#45;&gt;Node18 -->
<g id="edge13" class="edge">
<title>Node25&#45;&gt;Node18</title>
<path fill="none" stroke="#191970" d="M268.3254,-121.9128C275.2782,-113.7985 282.3869,-103.659 286,-93 292.6826,-73.2858 283.8763,-50.1682 275.7083,-34.757"/>
<polygon fill="#191970" stroke="#191970" points="265.7352,-119.5589 261.5598,-129.2963 270.8962,-124.288 265.7352,-119.5589"/>
</g>
<!-- Node25&#45;&gt;Node20 -->
<g id="edge15" class="edge">
<title>Node25&#45;&gt;Node20</title>
<path fill="none" stroke="#191970" d="M283.1993,-125.1029C339.1543,-99.9949 450.8863,-49.8587 499.4999,-28.0449"/>
<polygon fill="#191970" stroke="#191970" points="281.4401,-122.056 273.7494,-129.3432 284.3059,-128.4425 281.4401,-122.056"/>
</g>
<!-- Node25&#45;&gt;Node21 -->
<g id="edge16" class="edge">
<title>Node25&#45;&gt;Node21</title>
<path fill="none" stroke="#191970" d="M196.9711,-125.822C180.039,-118.6921 162.8867,-108.2131 152,-93 138.0955,-73.5698 139.3538,-43.8732 141.2845,-28.1405"/>
<polygon fill="#191970" stroke="#191970" points="195.7252,-129.0927 206.3141,-129.4473 198.2574,-122.5668 195.7252,-129.0927"/>
</g>
<!-- Node27&#45;&gt;Node17 -->
<g id="edge20" class="edge">
<title>Node27&#45;&gt;Node17</title>
<path fill="none" stroke="#191970" d="M464.8382,-294.4062C477.2595,-271.9483 495,-233.6355 495,-198 495,-198 495,-198 495,-140 495,-90.1226 445.9447,-47.1225 420.2673,-28.0311"/>
<polygon fill="#191970" stroke="#191970" points="461.6905,-292.8593 459.748,-303.2746 467.7616,-296.344 461.6905,-292.8593"/>
</g>
<!-- Node27&#45;&gt;Node18 -->
<g id="edge21" class="edge">
<title>Node27&#45;&gt;Node18</title>
<path fill="none" stroke="#191970" d="M451.21,-293.1587C447.2433,-256.959 435.091,-181.332 400,-129 372.405,-87.8469 325.22,-53.8964 294.579,-34.6603"/>
<polygon fill="#191970" stroke="#191970" points="447.7604,-293.8407 452.229,-303.447 454.7263,-293.1507 447.7604,-293.8407"/>
</g>
<!-- Node27&#45;&gt;Node20 -->
<g id="edge24" class="edge">
<title>Node27&#45;&gt;Node20</title>
<path fill="none" stroke="#191970" d="M475.1666,-296.6043C498.8426,-275.8933 533,-238.9223 533,-198 533,-198 533,-198 533,-140 533,-98.6041 527.2572,-49.5996 524.4755,-28.2911"/>
<polygon fill="#191970" stroke="#191970" points="472.6937,-294.1112 467.3024,-303.2317 477.2046,-299.4639 472.6937,-294.1112"/>
</g>
<!-- Node27&#45;&gt;Node22 -->
<g id="edge22" class="edge">
<title>Node27&#45;&gt;Node22</title>
<path fill="none" stroke="#191970" d="M418.9517,-299.4794C395.0111,-289.2695 363.5181,-275.8386 341.9049,-266.6212"/>
<polygon fill="#191970" stroke="#191970" points="417.8,-302.7932 428.3714,-303.4966 420.546,-296.3543 417.8,-302.7932"/>
</g>
<!-- Node28 -->
<g id="node14" class="node">
<title>Node28</title>
<g id="a_node14"><a xlink:href="../../dc/d43/signal__detection_8cpp.html" target="_top" xlink:title="signal_detection.cpp">
<polygon fill="#ffffff" stroke="#000000" points="561.5,-245.5 561.5,-266.5 660.5,-266.5 660.5,-245.5 561.5,-245.5"/>
<text text-anchor="middle" x="611" y="-252.9" font-family="Helvetica,sans-Serif" font-size="12.00" fill="#000000">signal_detection.cpp</text>
</a>
</g>
</g>
<!-- Node27&#45;&gt;Node28 -->
<g id="edge23" class="edge">
<title>Node27&#45;&gt;Node28</title>
<path fill="none" stroke="#191970" d="M491.1121,-300.0095C519.1903,-289.7023 556.7816,-275.903 582.3337,-266.5231"/>
<polygon fill="#191970" stroke="#191970" points="489.794,-296.7649 481.6126,-303.4966 492.2062,-303.3362 489.794,-296.7649"/>
</g>
</g>
</svg>
