<?xml version="1.0" encoding="UTF-8" standalone="no"?>
<!DOCTYPE svg PUBLIC "-//W3C//DTD SVG 1.1//EN"
 "http://www.w3.org/Graphics/SVG/1.1/DTD/svg11.dtd">
<!-- Generated by graphviz version 2.40.1 (20161225.0304)
 -->
<!-- Title: manager.cpp Pages: 1 -->
<svg width="2514pt" height="449pt"
 viewBox="0.00 0.00 2514.00 449.00" xmlns="http://www.w3.org/2000/svg" xmlns:xlink="http://www.w3.org/1999/xlink">
<g id="graph0" class="graph" transform="scale(1 1) rotate(0) translate(4 445)">
<title>manager.cpp</title>
<polygon fill="#ffffff" stroke="transparent" points="-4,4 -4,-445 2510,-445 2510,4 -4,4"/>
<!-- Node0 -->
<g id="node1" class="node">
<title>Node0</title>
<polygon fill="#bfbfbf" stroke="#000000" points="1319.5,-419.5 1319.5,-440.5 1388.5,-440.5 1388.5,-419.5 1319.5,-419.5"/>
<text text-anchor="middle" x="1354" y="-426.9" font-family="Helvetica,sans-Serif" font-size="12.00" fill="#000000">manager.cpp</text>
</g>
<!-- Node1 -->
<g id="node2" class="node">
<title>Node1</title>
<g id="a_node2"><a xlink:href="../../da/d04/manager_8hpp.html" target="_top" xlink:title="timemory/manager.hpp">
<polygon fill="#ffffff" stroke="#000000" points="1299.5,-303.5 1299.5,-324.5 1408.5,-324.5 1408.5,-303.5 1299.5,-303.5"/>
<text text-anchor="middle" x="1354" y="-310.9" font-family="Helvetica,sans-Serif" font-size="12.00" fill="#000000">timemory/manager.hpp</text>
</a>
</g>
</g>
<!-- Node0&#45;&gt;Node1 -->
<g id="edge1" class="edge">
<title>Node0&#45;&gt;Node1</title>
<path fill="none" stroke="#191970" d="M1354,-419.2949C1354,-400.1314 1354,-359.654 1354,-334.8434"/>
<polygon fill="#191970" stroke="#191970" points="1357.5001,-334.6792 1354,-324.6792 1350.5001,-334.6792 1357.5001,-334.6792"/>
</g>
<!-- Node5 -->
<g id="node6" class="node">
<title>Node5</title>
<polygon fill="#ffffff" stroke="#bfbfbf" points="2464,-.5 2464,-21.5 2506,-21.5 2506,-.5 2464,-.5"/>
<text text-anchor="middle" x="2485" y="-7.9" font-family="Helvetica,sans-Serif" font-size="12.00" fill="#000000">thread</text>
</g>
<!-- Node0&#45;&gt;Node5 -->
<g id="edge118" class="edge">
<title>Node0&#45;&gt;Node5</title>
<path fill="none" stroke="#191970" d="M1388.5813,-429.1881C1529.1754,-425.7237 2058.2302,-411.0583 2223,-383 2331.1498,-364.5834 2460,-423.7067 2460,-314 2460,-314 2460,-314 2460,-127 2460,-92.8534 2470.4801,-54.2961 2477.8695,-31.3541"/>
<polygon fill="#191970" stroke="#191970" points="2481.2428,-32.3023 2481.0938,-21.7085 2474.6039,-30.083 2481.2428,-32.3023"/>
</g>
<!-- Node23 -->
<g id="node24" class="node">
<title>Node23</title>
<polygon fill="#ffffff" stroke="#bfbfbf" points="589.5,-.5 589.5,-21.5 638.5,-21.5 638.5,-.5 589.5,-.5"/>
<text text-anchor="middle" x="614" y="-7.9" font-family="Helvetica,sans-Serif" font-size="12.00" fill="#000000">sstream</text>
</g>
<!-- Node0&#45;&gt;Node23 -->
<g id="edge116" class="edge">
<title>Node0&#45;&gt;Node23</title>
<path fill="none" stroke="#191970" d="M1319.0488,-429.0832C1171.5106,-425.0612 605.9536,-408.0543 578,-383 488.5458,-302.8241 498.2743,-230.0482 536,-116 547.5959,-80.9445 575.9277,-48.0616 595.058,-28.7332"/>
<polygon fill="#191970" stroke="#191970" points="597.6931,-31.0509 602.3733,-21.5458 592.7872,-26.0576 597.6931,-31.0509"/>
</g>
<!-- Node46 -->
<g id="node45" class="node">
<title>Node46</title>
<polygon fill="#ffffff" stroke="#bfbfbf" points="2392,-.5 2392,-21.5 2446,-21.5 2446,-.5 2392,-.5"/>
<text text-anchor="middle" x="2419" y="-7.9" font-family="Helvetica,sans-Serif" font-size="12.00" fill="#000000">algorithm</text>
</g>
<!-- Node0&#45;&gt;Node46 -->
<g id="edge117" class="edge">
<title>Node0&#45;&gt;Node46</title>
<path fill="none" stroke="#191970" d="M1388.5909,-429.6185C1562.6064,-427.2531 2334,-411.2814 2334,-314 2334,-314 2334,-314 2334,-127 2334,-85.0538 2370.6099,-48.2029 2395.7769,-27.8258"/>
<polygon fill="#191970" stroke="#191970" points="2398.0724,-30.4741 2403.8037,-21.5632 2393.7665,-24.9551 2398.0724,-30.4741"/>
</g>
<!-- Node52 -->
<g id="node50" class="node">
<title>Node52</title>
<g id="a_node50"><a xlink:href="../../d8/d07/auto__timer_8hpp.html" target="_top" xlink:title="timemory/auto_timer.hpp">
<polygon fill="#ffffff" stroke="#000000" points="587,-361.5 587,-382.5 703,-382.5 703,-361.5 587,-361.5"/>
<text text-anchor="middle" x="645" y="-368.9" font-family="Helvetica,sans-Serif" font-size="12.00" fill="#000000">timemory/auto_timer.hpp</text>
</a>
</g>
</g>
<!-- Node0&#45;&gt;Node52 -->
<g id="edge110" class="edge">
<title>Node0&#45;&gt;Node52</title>
<path fill="none" stroke="#191970" d="M1319.3235,-427.1633C1208.5504,-418.1014 861.8189,-389.7369 713.4572,-377.6002"/>
<polygon fill="#191970" stroke="#191970" points="713.376,-374.0819 703.1239,-376.7548 712.8052,-381.0586 713.376,-374.0819"/>
</g>
<!-- Node2 -->
<g id="node3" class="node">
<title>Node2</title>
<polygon fill="#ffffff" stroke="#bfbfbf" points="2166,-.5 2166,-21.5 2246,-21.5 2246,-.5 2166,-.5"/>
<text text-anchor="middle" x="2206" y="-7.9" font-family="Helvetica,sans-Serif" font-size="12.00" fill="#000000">unordered_map</text>
</g>
<!-- Node1&#45;&gt;Node2 -->
<g id="edge2" class="edge">
<title>Node1&#45;&gt;Node2</title>
<path fill="none" stroke="#191970" d="M1408.648,-313.736C1582.2474,-312.5068 2113.6561,-305.5979 2180,-267 2217.5083,-245.1782 2233,-228.3943 2233,-185 2233,-185 2233,-185 2233,-127 2233,-92.7275 2221.6814,-54.2074 2213.701,-31.3072"/>
<polygon fill="#191970" stroke="#191970" points="2216.9119,-29.8942 2210.2188,-21.6812 2210.3293,-32.2755 2216.9119,-29.8942"/>
</g>
<!-- Node3 -->
<g id="node4" class="node">
<title>Node3</title>
<polygon fill="#ffffff" stroke="#bfbfbf" points="76,-.5 76,-21.5 118,-21.5 118,-.5 76,-.5"/>
<text text-anchor="middle" x="97" y="-7.9" font-family="Helvetica,sans-Serif" font-size="12.00" fill="#000000">deque</text>
</g>
<!-- Node1&#45;&gt;Node3 -->
<g id="edge3" class="edge">
<title>Node1&#45;&gt;Node3</title>
<path fill="none" stroke="#191970" d="M1299.1754,-311.3648C1169.4314,-304.8762 846.4837,-287.1805 740,-267 634.4717,-247.0005 611.2879,-228.7625 509,-196 431.3684,-171.1348 409.891,-170.1912 335,-138 255.2284,-103.711 166.1742,-52.4785 123.1205,-26.8272"/>
<polygon fill="#191970" stroke="#191970" points="124.7858,-23.7449 114.4081,-21.6107 121.1898,-29.7507 124.7858,-23.7449"/>
</g>
<!-- Node4 -->
<g id="node5" class="node">
<title>Node4</title>
<polygon fill="#ffffff" stroke="#bfbfbf" points="18.5,-.5 18.5,-21.5 57.5,-21.5 57.5,-.5 18.5,-.5"/>
<text text-anchor="middle" x="38" y="-7.9" font-family="Helvetica,sans-Serif" font-size="12.00" fill="#000000">string</text>
</g>
<!-- Node1&#45;&gt;Node4 -->
<g id="edge4" class="edge">
<title>Node1&#45;&gt;Node4</title>
<path fill="none" stroke="#191970" d="M1299.4695,-312.3835C1150.9226,-307.6896 741.3844,-292.7335 609,-267 430.6133,-232.3244 390.2157,-204.2589 221,-138 162.8428,-115.2277 142.2775,-118.374 93,-80 75.1836,-66.1258 59.6494,-45.3522 49.6762,-30.2246"/>
<polygon fill="#191970" stroke="#191970" points="52.538,-28.2025 44.2145,-21.6474 46.6335,-31.9624 52.538,-28.2025"/>
</g>
<!-- Node1&#45;&gt;Node5 -->
<g id="edge5" class="edge">
<title>Node1&#45;&gt;Node5</title>
<path fill="none" stroke="#191970" d="M1408.6652,-313.1904C1586.3415,-310.2587 2140.3265,-298.651 2214,-267 2276.7965,-240.0219 2420.4296,-83.316 2468.7769,-29.2965"/>
<polygon fill="#191970" stroke="#191970" points="2471.6471,-31.3366 2475.6912,-21.544 2466.423,-26.6773 2471.6471,-31.3366"/>
</g>
<!-- Node6 -->
<g id="node7" class="node">
<title>Node6</title>
<polygon fill="#ffffff" stroke="#bfbfbf" points="963.5,-.5 963.5,-21.5 1004.5,-21.5 1004.5,-.5 963.5,-.5"/>
<text text-anchor="middle" x="984" y="-7.9" font-family="Helvetica,sans-Serif" font-size="12.00" fill="#000000">mutex</text>
</g>
<!-- Node1&#45;&gt;Node6 -->
<g id="edge6" class="edge">
<title>Node1&#45;&gt;Node6</title>
<path fill="none" stroke="#191970" d="M1299.4794,-311.0864C1226.0566,-306.1816 1100.3911,-294.0276 1064,-267 1031.4468,-242.8228 1024,-225.5493 1024,-185 1024,-185 1024,-185 1024,-127 1024,-91.557 1007.1043,-53.1865 995.2745,-30.6646"/>
<polygon fill="#191970" stroke="#191970" points="998.2849,-28.8744 990.4267,-21.7681 992.1383,-32.2238 998.2849,-28.8744"/>
</g>
<!-- Node7 -->
<g id="node8" class="node">
<title>Node7</title>
<polygon fill="#ffffff" stroke="#bfbfbf" points="1459.5,-.5 1459.5,-21.5 1502.5,-21.5 1502.5,-.5 1459.5,-.5"/>
<text text-anchor="middle" x="1481" y="-7.9" font-family="Helvetica,sans-Serif" font-size="12.00" fill="#000000">cstdint</text>
</g>
<!-- Node1&#45;&gt;Node7 -->
<g id="edge7" class="edge">
<title>Node1&#45;&gt;Node7</title>
<path fill="none" stroke="#191970" d="M1305.7471,-303.4258C1271.3491,-294.7964 1229.4233,-281.6658 1219,-267 1209.9885,-254.3206 1212.6411,-246.1965 1219,-232 1266.1227,-126.7969 1391.9505,-54.2644 1450.3883,-25.1978"/>
<polygon fill="#191970" stroke="#191970" points="1452.0468,-28.283 1459.4963,-20.7494 1448.9747,-21.9931 1452.0468,-28.283"/>
</g>
<!-- Node8 -->
<g id="node9" class="node">
<title>Node8</title>
<polygon fill="#ffffff" stroke="#bfbfbf" points="1628,-.5 1628,-21.5 1714,-21.5 1714,-.5 1628,-.5"/>
<text text-anchor="middle" x="1671" y="-7.9" font-family="Helvetica,sans-Serif" font-size="12.00" fill="#000000">cereal/cereal.hpp</text>
</g>
<!-- Node1&#45;&gt;Node8 -->
<g id="edge8" class="edge">
<title>Node1&#45;&gt;Node8</title>
<path fill="none" stroke="#191970" d="M1330.617,-303.4619C1316.3276,-295.6364 1299.2595,-283.4666 1291,-267 1284.0256,-253.0956 1281.0223,-243.934 1291,-232 1348.9317,-162.7096 1403.9731,-220.1569 1491,-196 1630.7447,-157.2097 1713.6706,-199.395 1796,-80 1801.5506,-71.9504 1801.5658,-66.039 1796,-58 1787.1875,-45.2717 1753.5523,-33.0329 1723.391,-24.2366"/>
<polygon fill="#191970" stroke="#191970" points="1724.3317,-20.8655 1713.7563,-21.5054 1722.4226,-27.6001 1724.3317,-20.8655"/>
</g>
<!-- Node9 -->
<g id="node10" class="node">
<title>Node9</title>
<polygon fill="#ffffff" stroke="#bfbfbf" points="1732,-.5 1732,-21.5 1842,-21.5 1842,-.5 1732,-.5"/>
<text text-anchor="middle" x="1787" y="-7.9" font-family="Helvetica,sans-Serif" font-size="12.00" fill="#000000">cereal/types/deque.hpp</text>
</g>
<!-- Node1&#45;&gt;Node9 -->
<g id="edge9" class="edge">
<title>Node1&#45;&gt;Node9</title>
<path fill="none" stroke="#191970" d="M1408.5241,-312.6937C1580.0163,-308.3226 2098.541,-292.9995 2123,-267 2226.0235,-157.4877 1948.5172,-59.1878 1833.9164,-24.3824"/>
<polygon fill="#191970" stroke="#191970" points="1834.9087,-21.026 1824.3246,-21.5022 1832.8956,-27.7303 1834.9087,-21.026"/>
</g>
<!-- Node10 -->
<g id="node11" class="node">
<title>Node10</title>
<polygon fill="#ffffff" stroke="#bfbfbf" points="1520.5,-.5 1520.5,-21.5 1609.5,-21.5 1609.5,-.5 1520.5,-.5"/>
<text text-anchor="middle" x="1565" y="-7.9" font-family="Helvetica,sans-Serif" font-size="12.00" fill="#000000">cereal/access.hpp</text>
</g>
<!-- Node1&#45;&gt;Node10 -->
<g id="edge10" class="edge">
<title>Node1&#45;&gt;Node10</title>
<path fill="none" stroke="#191970" d="M1308.2838,-303.4367C1288.9822,-296.473 1268.3777,-285.1559 1257,-267 1248.7398,-253.8188 1246.9634,-243.8846 1257,-232 1318.6632,-158.983 1397.4717,-259.384 1469,-196 1516.8868,-153.5656 1475.1377,-111.6511 1510,-58 1517.7221,-46.1162 1529.322,-35.5774 1539.8811,-27.5067"/>
<polygon fill="#191970" stroke="#191970" points="1541.9991,-30.2942 1548.0322,-21.5848 1537.8847,-24.631 1541.9991,-30.2942"/>
</g>
<!-- Node11 -->
<g id="node12" class="node">
<title>Node11</title>
<polygon fill="#ffffff" stroke="#bfbfbf" points="1299.5,-232.5 1299.5,-266.5 1408.5,-266.5 1408.5,-232.5 1299.5,-232.5"/>
<text text-anchor="start" x="1307.5" y="-252.9" font-family="Helvetica,sans-Serif" font-size="12.00" fill="#000000">cereal/types/unordered</text>
<text text-anchor="middle" x="1354" y="-239.9" font-family="Helvetica,sans-Serif" font-size="12.00" fill="#000000">_map.hpp</text>
</g>
<!-- Node1&#45;&gt;Node11 -->
<g id="edge11" class="edge">
<title>Node1&#45;&gt;Node11</title>
<path fill="none" stroke="#191970" d="M1354,-303.3491C1354,-296.122 1354,-286.2164 1354,-276.8706"/>
<polygon fill="#191970" stroke="#191970" points="1357.5001,-276.7292 1354,-266.7292 1350.5001,-276.7292 1357.5001,-276.7292"/>
</g>
<!-- Node12 -->
<g id="node13" class="node">
<title>Node12</title>
<polygon fill="#ffffff" stroke="#bfbfbf" points="1860.5,-.5 1860.5,-21.5 1973.5,-21.5 1973.5,-.5 1860.5,-.5"/>
<text text-anchor="middle" x="1917" y="-7.9" font-family="Helvetica,sans-Serif" font-size="12.00" fill="#000000">cereal/types/chrono.hpp</text>
</g>
<!-- Node1&#45;&gt;Node12 -->
<g id="edge12" class="edge">
<title>Node1&#45;&gt;Node12</title>
<path fill="none" stroke="#191970" d="M1408.6026,-313.7152C1577.5903,-312.4283 2084.4353,-305.3762 2147,-267 2182.997,-244.92 2195,-227.2292 2195,-185 2195,-185 2195,-185 2195,-127 2195,-80.4366 2060.4884,-42.5248 1978.5968,-23.7584"/>
<polygon fill="#191970" stroke="#191970" points="1979.1634,-20.2983 1968.6382,-21.5109 1977.6223,-27.1266 1979.1634,-20.2983"/>
</g>
<!-- Node13 -->
<g id="node14" class="node">
<title>Node13</title>
<polygon fill="#ffffff" stroke="#bfbfbf" points="1427,-239 1427,-260 1559,-260 1559,-239 1427,-239"/>
<text text-anchor="middle" x="1493" y="-246.4" font-family="Helvetica,sans-Serif" font-size="12.00" fill="#000000">cereal/archives/adapters.hpp</text>
</g>
<!-- Node1&#45;&gt;Node13 -->
<g id="edge13" class="edge">
<title>Node1&#45;&gt;Node13</title>
<path fill="none" stroke="#191970" d="M1376.6421,-303.4934C1399.5619,-292.8579 1435.2082,-276.3171 1461.0085,-264.345"/>
<polygon fill="#191970" stroke="#191970" points="1462.7698,-267.3862 1470.3676,-260.0021 1459.8234,-261.0365 1462.7698,-267.3862"/>
</g>
<!-- Node14 -->
<g id="node15" class="node">
<title>Node14</title>
<polygon fill="#ffffff" stroke="#bfbfbf" points="1577,-239 1577,-260 1699,-260 1699,-239 1577,-239"/>
<text text-anchor="middle" x="1638" y="-246.4" font-family="Helvetica,sans-Serif" font-size="12.00" fill="#000000">cereal/archives/binary.hpp</text>
</g>
<!-- Node1&#45;&gt;Node14 -->
<g id="edge14" class="edge">
<title>Node1&#45;&gt;Node14</title>
<path fill="none" stroke="#191970" d="M1403.8191,-303.4829C1447.2496,-294.2132 1511.8973,-280.1708 1568,-267 1574.0824,-265.5721 1580.4517,-264.0363 1586.7653,-262.4889"/>
<polygon fill="#191970" stroke="#191970" points="1587.7229,-265.8577 1596.5916,-260.0616 1586.0441,-259.062 1587.7229,-265.8577"/>
</g>
<!-- Node15 -->
<g id="node16" class="node">
<title>Node15</title>
<polygon fill="#ffffff" stroke="#bfbfbf" points="1717,-239 1717,-260 1831,-260 1831,-239 1717,-239"/>
<text text-anchor="middle" x="1774" y="-246.4" font-family="Helvetica,sans-Serif" font-size="12.00" fill="#000000">cereal/archives/json.hpp</text>
</g>
<!-- Node1&#45;&gt;Node15 -->
<g id="edge15" class="edge">
<title>Node1&#45;&gt;Node15</title>
<path fill="none" stroke="#191970" d="M1408.6299,-308.9252C1478.4728,-301.9397 1602.9412,-287.8148 1708,-267 1714.3338,-265.7451 1720.9601,-264.232 1727.4678,-262.6274"/>
<polygon fill="#191970" stroke="#191970" points="1728.7153,-265.9211 1737.5375,-260.0544 1726.9823,-259.139 1728.7153,-265.9211"/>
</g>
<!-- Node16 -->
<g id="node17" class="node">
<title>Node16</title>
<polygon fill="#ffffff" stroke="#bfbfbf" points="1849,-232.5 1849,-266.5 1961,-266.5 1961,-232.5 1849,-232.5"/>
<text text-anchor="start" x="1857" y="-252.9" font-family="Helvetica,sans-Serif" font-size="12.00" fill="#000000">cereal/archives/portable</text>
<text text-anchor="middle" x="1905" y="-239.9" font-family="Helvetica,sans-Serif" font-size="12.00" fill="#000000">_binary.hpp</text>
</g>
<!-- Node1&#45;&gt;Node16 -->
<g id="edge16" class="edge">
<title>Node1&#45;&gt;Node16</title>
<path fill="none" stroke="#191970" d="M1408.7079,-311.6825C1497.2536,-307.2823 1677.4903,-295.6343 1838.6629,-267.0727"/>
<polygon fill="#191970" stroke="#191970" points="1839.5379,-270.4715 1848.7603,-265.2564 1838.2986,-263.5821 1839.5379,-270.4715"/>
</g>
<!-- Node17 -->
<g id="node18" class="node">
<title>Node17</title>
<polygon fill="#ffffff" stroke="#bfbfbf" points="1979.5,-239 1979.5,-260 2090.5,-260 2090.5,-239 1979.5,-239"/>
<text text-anchor="middle" x="2035" y="-246.4" font-family="Helvetica,sans-Serif" font-size="12.00" fill="#000000">cereal/archives/xml.hpp</text>
</g>
<!-- Node1&#45;&gt;Node17 -->
<g id="edge17" class="edge">
<title>Node1&#45;&gt;Node17</title>
<path fill="none" stroke="#191970" d="M1408.8042,-313.244C1516.9028,-311 1764.9092,-302.1151 1970,-267 1976.7332,-265.8472 1983.7804,-264.3084 1990.6471,-262.6201"/>
<polygon fill="#191970" stroke="#191970" points="1991.7157,-265.959 2000.5211,-260.067 1989.9633,-259.1819 1991.7157,-265.959"/>
</g>
<!-- Node18 -->
<g id="node19" class="node">
<title>Node18</title>
<g id="a_node19"><a xlink:href="../../db/d19/namespace_8hpp.html" target="_top" xlink:title="timemory/namespace.hpp">
<polygon fill="#ffffff" stroke="#000000" points="136,-.5 136,-21.5 256,-21.5 256,-.5 136,-.5"/>
<text text-anchor="middle" x="196" y="-7.9" font-family="Helvetica,sans-Serif" font-size="12.00" fill="#000000">timemory/namespace.hpp</text>
</a>
</g>
</g>
<!-- Node1&#45;&gt;Node18 -->
<g id="edge18" class="edge">
<title>Node1&#45;&gt;Node18</title>
<path fill="none" stroke="#191970" d="M1299.3843,-309.8637C1220.2088,-303.394 1069.1096,-289.2665 942,-267 697.6703,-224.1994 633.3556,-219.2795 399,-138 341.1366,-117.9317 325.251,-113.5299 274,-80 251.3246,-65.1651 228.4652,-44.0505 213.4093,-29.0939"/>
<polygon fill="#191970" stroke="#191970" points="215.8116,-26.5455 206.2897,-21.8997 210.8361,-31.4695 215.8116,-26.5455"/>
</g>
<!-- Node19 -->
<g id="node20" class="node">
<title>Node19</title>
<g id="a_node20"><a xlink:href="../../d1/d4e/utility_8hpp.html" target="_top" xlink:title="timemory/utility.hpp">
<polygon fill="#ffffff" stroke="#000000" points="712,-58.5 712,-79.5 806,-79.5 806,-58.5 712,-58.5"/>
<text text-anchor="middle" x="759" y="-65.9" font-family="Helvetica,sans-Serif" font-size="12.00" fill="#000000">timemory/utility.hpp</text>
</a>
</g>
</g>
<!-- Node1&#45;&gt;Node19 -->
<g id="edge19" class="edge">
<title>Node1&#45;&gt;Node19</title>
<path fill="none" stroke="#191970" d="M1299.4446,-310.0579C1215.9975,-303.4403 1060.9681,-288.6599 1010,-267 908.2094,-223.7422 812.8031,-127.8577 775.5182,-87.4867"/>
<polygon fill="#191970" stroke="#191970" points="777.983,-84.9954 768.6566,-79.9686 772.8127,-89.7142 777.983,-84.9954"/>
</g>
<!-- Node33 -->
<g id="node34" class="node">
<title>Node33</title>
<g id="a_node34"><a xlink:href="../../df/d05/timer_8hpp.html" target="_top" xlink:title="timemory/timer.hpp">
<polygon fill="#ffffff" stroke="#000000" points="1073,-239 1073,-260 1167,-260 1167,-239 1073,-239"/>
<text text-anchor="middle" x="1120" y="-246.4" font-family="Helvetica,sans-Serif" font-size="12.00" fill="#000000">timemory/timer.hpp</text>
</a>
</g>
</g>
<!-- Node1&#45;&gt;Node33 -->
<g id="edge39" class="edge">
<title>Node1&#45;&gt;Node33</title>
<path fill="none" stroke="#191970" d="M1314.4484,-303.4249C1279.3552,-294.0013 1226.714,-279.7664 1181,-267 1176.1502,-265.6456 1171.0879,-264.2171 1166.0435,-262.784"/>
<polygon fill="#191970" stroke="#191970" points="1167.0019,-259.4179 1156.4254,-260.0409 1165.082,-266.1494 1167.0019,-259.4179"/>
</g>
<!-- Node51 -->
<g id="node49" class="node">
<title>Node51</title>
<g id="a_node49"><a xlink:href="../../d0/d5d/mpi_8hpp.html" target="_top" xlink:title="timemory/mpi.hpp">
<polygon fill="#ffffff" stroke="#000000" points="1699,-58.5 1699,-79.5 1787,-79.5 1787,-58.5 1699,-58.5"/>
<text text-anchor="middle" x="1743" y="-65.9" font-family="Helvetica,sans-Serif" font-size="12.00" fill="#000000">timemory/mpi.hpp</text>
</a>
</g>
</g>
<!-- Node1&#45;&gt;Node51 -->
<g id="edge109" class="edge">
<title>Node1&#45;&gt;Node51</title>
<path fill="none" stroke="#191970" d="M1408.6607,-312.583C1576.7916,-307.9614 2076.3768,-292.1584 2100,-267 2198.0319,-162.5974 1918.8763,-99.6484 1796.908,-77.7593"/>
<polygon fill="#191970" stroke="#191970" points="1797.4624,-74.3031 1787.0061,-76.0106 1796.245,-81.1964 1797.4624,-74.3031"/>
</g>
<!-- Node19&#45;&gt;Node3 -->
<g id="edge32" class="edge">
<title>Node19&#45;&gt;Node3</title>
<path fill="none" stroke="#191970" d="M711.5571,-67.1747C587.8423,-62.1508 256.6649,-46.9438 128.0822,-21.6347"/>
<polygon fill="#191970" stroke="#191970" points="128.5927,-18.166 118.0895,-19.5562 127.1672,-25.0193 128.5927,-18.166"/>
</g>
<!-- Node19&#45;&gt;Node4 -->
<g id="edge24" class="edge">
<title>Node19&#45;&gt;Node4</title>
<path fill="none" stroke="#191970" d="M711.965,-67.6078C580.3397,-63.4334 209.2439,-49.6909 67.9052,-21.5082"/>
<polygon fill="#191970" stroke="#191970" points="68.2399,-18.002 57.7332,-19.3652 66.7968,-24.8516 68.2399,-18.002"/>
</g>
<!-- Node19&#45;&gt;Node5 -->
<g id="edge37" class="edge">
<title>Node19&#45;&gt;Node5</title>
<path fill="none" stroke="#191970" d="M806.0694,-67.2815C868.9539,-65.0121 983.854,-60.9579 1082,-58 1231.6339,-53.4904 2264.6641,-50.7516 2453.8841,-21.426"/>
<polygon fill="#191970" stroke="#191970" points="2454.6798,-24.8404 2463.9373,-19.6879 2453.4872,-17.9428 2454.6798,-24.8404"/>
</g>
<!-- Node19&#45;&gt;Node6 -->
<g id="edge36" class="edge">
<title>Node19&#45;&gt;Node6</title>
<path fill="none" stroke="#191970" d="M806.1834,-59.45C843.9827,-51.4034 898.4782,-38.9181 953.6265,-22.1964"/>
<polygon fill="#191970" stroke="#191970" points="954.6718,-25.5368 963.2011,-19.2518 952.6141,-18.8461 954.6718,-25.5368"/>
</g>
<!-- Node19&#45;&gt;Node7 -->
<g id="edge20" class="edge">
<title>Node19&#45;&gt;Node7</title>
<path fill="none" stroke="#191970" d="M806.4216,-67.4591C938.2098,-62.9161 1307.8715,-48.3382 1449.035,-21.599"/>
<polygon fill="#191970" stroke="#191970" points="1450.0759,-24.9603 1459.1962,-19.5687 1448.7042,-18.096 1450.0759,-24.9603"/>
</g>
<!-- Node19&#45;&gt;Node18 -->
<g id="edge38" class="edge">
<title>Node19&#45;&gt;Node18</title>
<path fill="none" stroke="#191970" d="M711.8922,-65.5158C625.6184,-58.9177 436.2474,-43.4304 266.3101,-22.1047"/>
<polygon fill="#191970" stroke="#191970" points="266.5388,-18.6058 256.1786,-20.8233 265.6604,-25.5505 266.5388,-18.6058"/>
</g>
<!-- Node20 -->
<g id="node21" class="node">
<title>Node20</title>
<polygon fill="#ffffff" stroke="#bfbfbf" points="395,-.5 395,-21.5 437,-21.5 437,-.5 395,-.5"/>
<text text-anchor="middle" x="416" y="-7.9" font-family="Helvetica,sans-Serif" font-size="12.00" fill="#000000">cstdlib</text>
</g>
<!-- Node19&#45;&gt;Node20 -->
<g id="edge21" class="edge">
<title>Node19&#45;&gt;Node20</title>
<path fill="none" stroke="#191970" d="M711.7442,-64.9106C651.9335,-59.0756 545.7567,-46.5211 446.9788,-21.8569"/>
<polygon fill="#191970" stroke="#191970" points="447.6919,-18.4269 437.1375,-19.3525 445.9655,-25.2107 447.6919,-18.4269"/>
</g>
<!-- Node21 -->
<g id="node22" class="node">
<title>Node21</title>
<polygon fill="#ffffff" stroke="#bfbfbf" points="455.5,-.5 455.5,-21.5 498.5,-21.5 498.5,-.5 455.5,-.5"/>
<text text-anchor="middle" x="477" y="-7.9" font-family="Helvetica,sans-Serif" font-size="12.00" fill="#000000">cstring</text>
</g>
<!-- Node19&#45;&gt;Node21 -->
<g id="edge22" class="edge">
<title>Node19&#45;&gt;Node21</title>
<path fill="none" stroke="#191970" d="M711.5573,-62.5703C662.5933,-55.3983 583.9502,-42.3863 508.4813,-22.1191"/>
<polygon fill="#191970" stroke="#191970" points="509.3869,-18.7383 498.8179,-19.4787 507.5418,-25.4908 509.3869,-18.7383"/>
</g>
<!-- Node22 -->
<g id="node23" class="node">
<title>Node22</title>
<polygon fill="#ffffff" stroke="#bfbfbf" points="831.5,-.5 831.5,-21.5 872.5,-21.5 872.5,-.5 831.5,-.5"/>
<text text-anchor="middle" x="852" y="-7.9" font-family="Helvetica,sans-Serif" font-size="12.00" fill="#000000">cmath</text>
</g>
<!-- Node19&#45;&gt;Node22 -->
<g id="edge23" class="edge">
<title>Node19&#45;&gt;Node22</title>
<path fill="none" stroke="#191970" d="M776.0576,-58.3619C790.0848,-49.6138 810.1843,-37.0786 826.1821,-27.1015"/>
<polygon fill="#191970" stroke="#191970" points="828.4175,-29.8323 835.0505,-21.5707 824.7132,-23.8927 828.4175,-29.8323"/>
</g>
<!-- Node19&#45;&gt;Node23 -->
<g id="edge25" class="edge">
<title>Node19&#45;&gt;Node23</title>
<path fill="none" stroke="#191970" d="M732.7416,-58.4966C709.0054,-49.0022 673.9199,-34.968 648.0385,-24.6154"/>
<polygon fill="#191970" stroke="#191970" points="649.1973,-21.3094 638.6127,-20.8451 646.5976,-27.8087 649.1973,-21.3094"/>
</g>
<!-- Node24 -->
<g id="node25" class="node">
<title>Node24</title>
<polygon fill="#ffffff" stroke="#bfbfbf" points="1089.5,-.5 1089.5,-21.5 1140.5,-21.5 1140.5,-.5 1089.5,-.5"/>
<text text-anchor="middle" x="1115" y="-7.9" font-family="Helvetica,sans-Serif" font-size="12.00" fill="#000000">iostream</text>
</g>
<!-- Node19&#45;&gt;Node24 -->
<g id="edge26" class="edge">
<title>Node19&#45;&gt;Node24</title>
<path fill="none" stroke="#191970" d="M806.2152,-64.4648C867.2262,-58.0818 976.7977,-44.8467 1079.2425,-21.8867"/>
<polygon fill="#191970" stroke="#191970" points="1080.1593,-25.2676 1089.1324,-19.6343 1078.6048,-18.4423 1080.1593,-25.2676"/>
</g>
<!-- Node25 -->
<g id="node26" class="node">
<title>Node25</title>
<polygon fill="#ffffff" stroke="#bfbfbf" points="1023,-.5 1023,-21.5 1071,-21.5 1071,-.5 1023,-.5"/>
<text text-anchor="middle" x="1047" y="-7.9" font-family="Helvetica,sans-Serif" font-size="12.00" fill="#000000">iomanip</text>
</g>
<!-- Node19&#45;&gt;Node25 -->
<g id="edge27" class="edge">
<title>Node19&#45;&gt;Node25</title>
<path fill="none" stroke="#191970" d="M806.4283,-62.2852C855.8471,-54.8386 935.6251,-41.5557 1013.0467,-21.9877"/>
<polygon fill="#191970" stroke="#191970" points="1014.149,-25.3184 1022.9652,-19.4425 1012.409,-18.5381 1014.149,-25.3184"/>
</g>
<!-- Node26 -->
<g id="node27" class="node">
<title>Node26</title>
<polygon fill="#ffffff" stroke="#bfbfbf" points="516.5,-.5 516.5,-21.5 571.5,-21.5 571.5,-.5 516.5,-.5"/>
<text text-anchor="middle" x="544" y="-7.9" font-family="Helvetica,sans-Serif" font-size="12.00" fill="#000000">exception</text>
</g>
<!-- Node19&#45;&gt;Node26 -->
<g id="edge28" class="edge">
<title>Node19&#45;&gt;Node26</title>
<path fill="none" stroke="#191970" d="M716.9176,-58.4538C682.763,-49.7816 633.1326,-36.9263 581.8151,-22.4547"/>
<polygon fill="#191970" stroke="#191970" points="582.4511,-18.9971 571.8756,-19.6372 580.542,-25.7318 582.4511,-18.9971"/>
</g>
<!-- Node27 -->
<g id="node28" class="node">
<title>Node27</title>
<polygon fill="#ffffff" stroke="#bfbfbf" points="890.5,-.5 890.5,-21.5 945.5,-21.5 945.5,-.5 890.5,-.5"/>
<text text-anchor="middle" x="918" y="-7.9" font-family="Helvetica,sans-Serif" font-size="12.00" fill="#000000">stdexcept</text>
</g>
<!-- Node19&#45;&gt;Node27 -->
<g id="edge29" class="edge">
<title>Node19&#45;&gt;Node27</title>
<path fill="none" stroke="#191970" d="M787.7937,-58.4966C813.8908,-48.9769 852.4994,-34.8933 880.9012,-24.5329"/>
<polygon fill="#191970" stroke="#191970" points="882.2894,-27.7522 890.4844,-21.0371 879.8905,-21.176 882.2894,-27.7522"/>
</g>
<!-- Node28 -->
<g id="node29" class="node">
<title>Node28</title>
<polygon fill="#ffffff" stroke="#bfbfbf" points="274.5,-.5 274.5,-21.5 329.5,-21.5 329.5,-.5 274.5,-.5"/>
<text text-anchor="middle" x="302" y="-7.9" font-family="Helvetica,sans-Serif" font-size="12.00" fill="#000000">functional</text>
</g>
<!-- Node19&#45;&gt;Node28 -->
<g id="edge30" class="edge">
<title>Node19&#45;&gt;Node28</title>
<path fill="none" stroke="#191970" d="M711.8298,-66.5914C635.338,-62.0648 479.4864,-50.2647 339.8039,-22.1002"/>
<polygon fill="#191970" stroke="#191970" points="340.2752,-18.6241 329.776,-20.044 338.8691,-25.4814 340.2752,-18.6241"/>
</g>
<!-- Node29 -->
<g id="node30" class="node">
<title>Node29</title>
<polygon fill="#ffffff" stroke="#bfbfbf" points="656.5,-.5 656.5,-21.5 693.5,-21.5 693.5,-.5 656.5,-.5"/>
<text text-anchor="middle" x="675" y="-7.9" font-family="Helvetica,sans-Serif" font-size="12.00" fill="#000000">limits</text>
</g>
<!-- Node19&#45;&gt;Node29 -->
<g id="edge31" class="edge">
<title>Node19&#45;&gt;Node29</title>
<path fill="none" stroke="#191970" d="M743.5931,-58.3619C731.0418,-49.6955 713.1078,-37.3126 698.7255,-27.3819"/>
<polygon fill="#191970" stroke="#191970" points="700.5269,-24.3725 690.3092,-21.5707 696.5495,-30.1327 700.5269,-24.3725"/>
</g>
<!-- Node30 -->
<g id="node31" class="node">
<title>Node30</title>
<polygon fill="#ffffff" stroke="#bfbfbf" points="347.5,-.5 347.5,-21.5 376.5,-21.5 376.5,-.5 347.5,-.5"/>
<text text-anchor="middle" x="362" y="-7.9" font-family="Helvetica,sans-Serif" font-size="12.00" fill="#000000">set</text>
</g>
<!-- Node19&#45;&gt;Node30 -->
<g id="edge33" class="edge">
<title>Node19&#45;&gt;Node30</title>
<path fill="none" stroke="#191970" d="M711.8601,-67.6352C642.0774,-64.6265 507.427,-55.0287 386.5039,-21.3774"/>
<polygon fill="#191970" stroke="#191970" points="387.2875,-17.9615 376.7114,-18.5902 385.3712,-24.6941 387.2875,-17.9615"/>
</g>
<!-- Node31 -->
<g id="node32" class="node">
<title>Node31</title>
<polygon fill="#ffffff" stroke="#bfbfbf" points="772.5,-.5 772.5,-21.5 813.5,-21.5 813.5,-.5 772.5,-.5"/>
<text text-anchor="middle" x="793" y="-7.9" font-family="Helvetica,sans-Serif" font-size="12.00" fill="#000000">vector</text>
</g>
<!-- Node19&#45;&gt;Node31 -->
<g id="edge34" class="edge">
<title>Node19&#45;&gt;Node31</title>
<path fill="none" stroke="#191970" d="M765.2361,-58.3619C769.8371,-50.5131 776.2252,-39.6159 781.7139,-30.2527"/>
<polygon fill="#191970" stroke="#191970" points="784.7656,-31.9677 786.8034,-21.5707 778.7267,-28.4276 784.7656,-31.9677"/>
</g>
<!-- Node32 -->
<g id="node33" class="node">
<title>Node32</title>
<polygon fill="#ffffff" stroke="#bfbfbf" points="711.5,-.5 711.5,-21.5 754.5,-21.5 754.5,-.5 711.5,-.5"/>
<text text-anchor="middle" x="733" y="-7.9" font-family="Helvetica,sans-Serif" font-size="12.00" fill="#000000">atomic</text>
</g>
<!-- Node19&#45;&gt;Node32 -->
<g id="edge35" class="edge">
<title>Node19&#45;&gt;Node32</title>
<path fill="none" stroke="#191970" d="M754.2312,-58.3619C750.7861,-50.6766 746.0308,-40.0686 741.8937,-30.8399"/>
<polygon fill="#191970" stroke="#191970" points="745.023,-29.264 737.7386,-21.5707 738.6354,-32.1275 745.023,-29.264"/>
</g>
<!-- Node33&#45;&gt;Node4 -->
<g id="edge41" class="edge">
<title>Node33&#45;&gt;Node4</title>
<path fill="none" stroke="#191970" d="M1072.8505,-246.3978C948.1708,-237.4543 600.0751,-207.6738 319,-138 234.1271,-116.9614 209.0082,-119.5062 131,-80 103.4101,-66.0275 75.3977,-43.933 57.4325,-28.5225"/>
<polygon fill="#191970" stroke="#191970" points="59.2987,-25.5052 49.4662,-21.5592 54.6919,-30.7756 59.2987,-25.5052"/>
</g>
<!-- Node33&#45;&gt;Node7 -->
<g id="edge40" class="edge">
<title>Node33&#45;&gt;Node7</title>
<path fill="none" stroke="#191970" d="M1126.7103,-238.777C1147.8003,-206.0221 1216.3423,-106.5618 1300,-58 1356.6304,-25.1271 1381.9559,-39.9871 1449.5843,-21.783"/>
<polygon fill="#191970" stroke="#191970" points="1450.7545,-25.089 1459.4153,-18.9865 1448.8393,-18.3561 1450.7545,-25.089"/>
</g>
<!-- Node33&#45;&gt;Node18 -->
<g id="edge43" class="edge">
<title>Node33&#45;&gt;Node18</title>
<path fill="none" stroke="#191970" d="M1072.7226,-244.4493C965.058,-232.2758 693.9179,-197.8129 474,-138 403.4259,-118.8054 386.3576,-110.7539 320,-80 285.1163,-63.8329 246.6813,-41.7345 221.989,-26.9447"/>
<polygon fill="#191970" stroke="#191970" points="223.6046,-23.8318 213.2343,-21.6619 219.9879,-29.8252 223.6046,-23.8318"/>
</g>
<!-- Node34 -->
<g id="node35" class="node">
<title>Node34</title>
<polygon fill="#ffffff" stroke="#bfbfbf" points="1095.5,-174.5 1095.5,-195.5 1144.5,-195.5 1144.5,-174.5 1095.5,-174.5"/>
<text text-anchor="middle" x="1120" y="-181.9" font-family="Helvetica,sans-Serif" font-size="12.00" fill="#000000">memory</text>
</g>
<!-- Node33&#45;&gt;Node34 -->
<g id="edge42" class="edge">
<title>Node33&#45;&gt;Node34</title>
<path fill="none" stroke="#191970" d="M1120,-238.8491C1120,-229.9397 1120,-216.9599 1120,-205.9761"/>
<polygon fill="#191970" stroke="#191970" points="1123.5001,-205.8822 1120,-195.8823 1116.5001,-205.8823 1123.5001,-205.8822"/>
</g>
<!-- Node35 -->
<g id="node36" class="node">
<title>Node35</title>
<g id="a_node36"><a xlink:href="../../d6/d01/base__timer_8hpp.html" target="_top" xlink:title="timemory/base_timer.hpp">
<polygon fill="#ffffff" stroke="#000000" points="1342,-174.5 1342,-195.5 1460,-195.5 1460,-174.5 1342,-174.5"/>
<text text-anchor="middle" x="1401" y="-181.9" font-family="Helvetica,sans-Serif" font-size="12.00" fill="#000000">timemory/base_timer.hpp</text>
</a>
</g>
</g>
<!-- Node33&#45;&gt;Node35 -->
<g id="edge44" class="edge">
<title>Node33&#45;&gt;Node35</title>
<path fill="none" stroke="#191970" d="M1165.7729,-238.9934C1214.8628,-227.7254 1292.8312,-209.8288 1345.4114,-197.7597"/>
<polygon fill="#191970" stroke="#191970" points="1346.2832,-201.1507 1355.2467,-195.5021 1344.7171,-194.3281 1346.2832,-201.1507"/>
</g>
<!-- Node35&#45;&gt;Node4 -->
<g id="edge46" class="edge">
<title>Node35&#45;&gt;Node4</title>
<path fill="none" stroke="#191970" d="M1341.9711,-182.2519C1144.5188,-173.0273 517.0657,-143.4426 474,-138 345.757,-121.7928 311.9151,-120.0103 189,-80 144.7321,-65.5903 96.2146,-41.8963 66.432,-26.3698"/>
<polygon fill="#191970" stroke="#191970" points="67.9285,-23.2022 57.4498,-21.6378 64.6658,-29.3954 67.9285,-23.2022"/>
</g>
<!-- Node35&#45;&gt;Node8 -->
<g id="edge103" class="edge">
<title>Node35&#45;&gt;Node8</title>
<path fill="none" stroke="#191970" d="M1407.1353,-174.3157C1421.7151,-149.8923 1460.9187,-89.6522 1510,-58 1527.9908,-46.3978 1578.4291,-32.6182 1618.1059,-22.99"/>
<polygon fill="#191970" stroke="#191970" points="1619.0255,-26.3688 1627.935,-20.6354 1617.3948,-19.5613 1619.0255,-26.3688"/>
</g>
<!-- Node35&#45;&gt;Node9 -->
<g id="edge107" class="edge">
<title>Node35&#45;&gt;Node9</title>
<path fill="none" stroke="#191970" d="M1422.8239,-174.3748C1461.4545,-155.5375 1544.3681,-114.9732 1614,-80 1633.1835,-70.365 1637.3113,-66.5553 1657,-58 1685.6616,-45.5458 1718.8001,-33.6011 1744.4456,-24.8699"/>
<polygon fill="#191970" stroke="#191970" points="1745.877,-28.081 1754.2344,-21.5691 1743.6402,-21.4479 1745.877,-28.081"/>
</g>
<!-- Node35&#45;&gt;Node10 -->
<g id="edge104" class="edge">
<title>Node35&#45;&gt;Node10</title>
<path fill="none" stroke="#191970" d="M1400.5326,-174.2579C1400.0861,-150.2366 1402.411,-91.6502 1433,-58 1444.1216,-45.7654 1480.6516,-33.2716 1512.4701,-24.2437"/>
<polygon fill="#191970" stroke="#191970" points="1513.4587,-27.6017 1522.1602,-21.5573 1511.5886,-20.8561 1513.4587,-27.6017"/>
</g>
<!-- Node35&#45;&gt;Node12 -->
<g id="edge106" class="edge">
<title>Node35&#45;&gt;Node12</title>
<path fill="none" stroke="#191970" d="M1433.7043,-174.4398C1460.4526,-165.5239 1499.0952,-152.0031 1532,-138 1585.404,-115.2732 1597.4226,-106.6132 1649,-80 1667.3776,-70.5174 1670.5621,-65.0585 1690,-58 1718.9503,-47.4872 1794.4288,-32.7442 1850.449,-22.5874"/>
<polygon fill="#191970" stroke="#191970" points="1851.0942,-26.0276 1860.3149,-20.8094 1849.8527,-19.1386 1851.0942,-26.0276"/>
</g>
<!-- Node35&#45;&gt;Node18 -->
<g id="edge48" class="edge">
<title>Node35&#45;&gt;Node18</title>
<path fill="none" stroke="#191970" d="M1341.9713,-182.284C1153.3766,-173.5418 575.3811,-146.2244 536,-138 520.4255,-134.7474 317.735,-57.5536 232.9209,-25.1334"/>
<polygon fill="#191970" stroke="#191970" points="234.0104,-21.8029 223.4199,-21.5004 231.5103,-28.3412 234.0104,-21.8029"/>
</g>
<!-- Node35&#45;&gt;Node19 -->
<g id="edge83" class="edge">
<title>Node35&#45;&gt;Node19</title>
<path fill="none" stroke="#191970" d="M1341.9977,-179.006C1271.6663,-171.4322 1150.7335,-157.0519 1048,-138 962.5944,-122.1616 864.5037,-97.3055 807.3677,-82.1476"/>
<polygon fill="#191970" stroke="#191970" points="808.0947,-78.7192 797.5306,-79.5262 806.2922,-85.4832 808.0947,-78.7192"/>
</g>
<!-- Node35&#45;&gt;Node32 -->
<g id="edge47" class="edge">
<title>Node35&#45;&gt;Node32</title>
<path fill="none" stroke="#191970" d="M1353.8451,-174.4752C1249.1804,-150.784 989.6107,-90.2054 764.285,-21.8928"/>
<polygon fill="#191970" stroke="#191970" points="765.1831,-18.5078 754.5973,-18.9445 763.145,-25.2045 765.1831,-18.5078"/>
</g>
<!-- Node36 -->
<g id="node37" class="node">
<title>Node36</title>
<polygon fill="#ffffff" stroke="#bfbfbf" points="1991.5,-.5 1991.5,-21.5 2038.5,-21.5 2038.5,-.5 1991.5,-.5"/>
<text text-anchor="middle" x="2015" y="-7.9" font-family="Helvetica,sans-Serif" font-size="12.00" fill="#000000">fstream</text>
</g>
<!-- Node35&#45;&gt;Node36 -->
<g id="edge45" class="edge">
<title>Node35&#45;&gt;Node36</title>
<path fill="none" stroke="#191970" d="M1442.9572,-174.4484C1515.2769,-156.127 1667.9753,-116.8533 1796,-80 1876.5998,-56.7985 1898.7137,-49.5563 1981.6692,-22.3907"/>
<polygon fill="#191970" stroke="#191970" points="1982.847,-25.688 1991.2613,-19.2498 1980.6686,-19.0356 1982.847,-25.688"/>
</g>
<!-- Node37 -->
<g id="node38" class="node">
<title>Node37</title>
<g id="a_node38"><a xlink:href="../../d8/d4e/base__clock_8hpp.html" target="_top" xlink:title="timemory/base_clock.hpp">
<polygon fill="#ffffff" stroke="#000000" points="1090.5,-58.5 1090.5,-79.5 1209.5,-79.5 1209.5,-58.5 1090.5,-58.5"/>
<text text-anchor="middle" x="1150" y="-65.9" font-family="Helvetica,sans-Serif" font-size="12.00" fill="#000000">timemory/base_clock.hpp</text>
</a>
</g>
</g>
<!-- Node35&#45;&gt;Node37 -->
<g id="edge49" class="edge">
<title>Node35&#45;&gt;Node37</title>
<path fill="none" stroke="#191970" d="M1377.8364,-174.2949C1332.801,-153.4818 1233.3649,-107.5272 1182.0413,-83.808"/>
<polygon fill="#191970" stroke="#191970" points="1183.2909,-80.5298 1172.7451,-79.5117 1180.3542,-86.884 1183.2909,-80.5298"/>
</g>
<!-- Node43 -->
<g id="node44" class="node">
<title>Node43</title>
<g id="a_node44"><a xlink:href="../../d9/dd2/rss_8hpp.html" target="_top" xlink:title="timemory/rss.hpp">
<polygon fill="#ffffff" stroke="#ff0000" points="1519,-58.5 1519,-79.5 1605,-79.5 1605,-58.5 1519,-58.5"/>
<text text-anchor="middle" x="1562" y="-65.9" font-family="Helvetica,sans-Serif" font-size="12.00" fill="#000000">timemory/rss.hpp</text>
</a>
</g>
</g>
<!-- Node35&#45;&gt;Node43 -->
<g id="edge69" class="edge">
<title>Node35&#45;&gt;Node43</title>
<path fill="none" stroke="#191970" d="M1415.8579,-174.2949C1444.0131,-154.0092 1505.3165,-109.8403 1538.8863,-85.6534"/>
<polygon fill="#191970" stroke="#191970" points="1541.1106,-88.3647 1547.178,-79.6792 1537.0185,-82.6852 1541.1106,-88.3647"/>
</g>
<!-- Node47 -->
<g id="node46" class="node">
<title>Node47</title>
<polygon fill="#ffffff" stroke="#bfbfbf" points="2056.5,-.5 2056.5,-21.5 2147.5,-21.5 2147.5,-.5 2056.5,-.5"/>
<text text-anchor="middle" x="2102" y="-7.9" font-family="Helvetica,sans-Serif" font-size="12.00" fill="#000000">cereal/macros.hpp</text>
</g>
<!-- Node35&#45;&gt;Node47 -->
<g id="edge105" class="edge">
<title>Node35&#45;&gt;Node47</title>
<path fill="none" stroke="#191970" d="M1460.1926,-174.621C1508.7179,-165.8102 1579.0797,-152.3425 1640,-138 1794.4843,-101.6296 1975.3156,-48.9301 2057.4145,-24.4428"/>
<polygon fill="#191970" stroke="#191970" points="2058.5839,-27.7463 2067.1629,-21.5292 2056.5794,-21.0394 2058.5839,-27.7463"/>
</g>
<!-- Node48 -->
<g id="node47" class="node">
<title>Node48</title>
<polygon fill="#ffffff" stroke="#bfbfbf" points="2264,-.5 2264,-21.5 2374,-21.5 2374,-.5 2264,-.5"/>
<text text-anchor="middle" x="2319" y="-7.9" font-family="Helvetica,sans-Serif" font-size="12.00" fill="#000000">cereal/types/vector.hpp</text>
</g>
<!-- Node35&#45;&gt;Node48 -->
<g id="edge108" class="edge">
<title>Node35&#45;&gt;Node48</title>
<path fill="none" stroke="#191970" d="M1460.0488,-176.2626C1519.3095,-167.3212 1613.1523,-152.692 1694,-138 1903.1716,-99.9884 2150.1602,-47.5541 2260.5723,-23.7146"/>
<polygon fill="#191970" stroke="#191970" points="2261.4737,-27.1007 2270.5084,-21.5668 2259.9947,-20.2587 2261.4737,-27.1007"/>
</g>
<!-- Node49 -->
<g id="node48" class="node">
<title>Node49</title>
<g id="a_node48"><a xlink:href="../../da/d8e/signal__detection_8hpp.html" target="_top" xlink:title="timemory/signal_detection.hpp">
<polygon fill="#ffffff" stroke="#ff0000" points="545.5,-116.5 545.5,-137.5 684.5,-137.5 684.5,-116.5 545.5,-116.5"/>
<text text-anchor="middle" x="615" y="-123.9" font-family="Helvetica,sans-Serif" font-size="12.00" fill="#000000">timemory/signal_detection.hpp</text>
</a>
</g>
</g>
<!-- Node35&#45;&gt;Node49 -->
<g id="edge84" class="edge">
<title>Node35&#45;&gt;Node49</title>
<path fill="none" stroke="#191970" d="M1341.9223,-180.6406C1202.5324,-170.3548 853.03,-144.5646 694.9131,-132.8969"/>
<polygon fill="#191970" stroke="#191970" points="695.0097,-129.3946 684.7792,-132.1491 694.4945,-136.3756 695.0097,-129.3946"/>
</g>
<!-- Node37&#45;&gt;Node2 -->
<g id="edge56" class="edge">
<title>Node37&#45;&gt;Node2</title>
<path fill="none" stroke="#191970" d="M1209.5623,-66.8262C1405.8658,-59.5804 2026.8313,-35.9835 2155.9754,-21.7938"/>
<polygon fill="#191970" stroke="#191970" points="2156.4861,-25.2576 2165.9913,-20.5777 2155.6424,-18.3087 2156.4861,-25.2576"/>
</g>
<!-- Node37&#45;&gt;Node6 -->
<g id="edge55" class="edge">
<title>Node37&#45;&gt;Node6</title>
<path fill="none" stroke="#191970" d="M1118.8838,-58.4315C1093.2217,-49.6745 1055.6416,-36.7574 1014.1228,-22.0031"/>
<polygon fill="#191970" stroke="#191970" points="1015.2331,-18.6832 1004.6384,-18.6249 1012.8843,-25.2774 1015.2331,-18.6832"/>
</g>
<!-- Node37&#45;&gt;Node7 -->
<g id="edge62" class="edge">
<title>Node37&#45;&gt;Node7</title>
<path fill="none" stroke="#191970" d="M1209.5318,-59.9629C1285.2784,-48.4265 1410.2098,-29.2601 1449.6931,-21.3859"/>
<polygon fill="#191970" stroke="#191970" points="1450.4743,-24.7977 1459.4775,-19.2127 1448.9565,-17.9642 1450.4743,-24.7977"/>
</g>
<!-- Node37&#45;&gt;Node8 -->
<g id="edge64" class="edge">
<title>Node37&#45;&gt;Node8</title>
<path fill="none" stroke="#191970" d="M1209.8616,-65.0921C1297.3526,-58.9187 1465.4248,-45.3144 1617.9154,-22.0333"/>
<polygon fill="#191970" stroke="#191970" points="1618.5875,-25.4711 1627.9362,-20.4858 1617.5191,-18.5531 1618.5875,-25.4711"/>
</g>
<!-- Node37&#45;&gt;Node9 -->
<g id="edge66" class="edge">
<title>Node37&#45;&gt;Node9</title>
<path fill="none" stroke="#191970" d="M1209.5717,-65.8528C1312.1166,-60.0544 1528.7756,-46.1354 1721.84,-22.0557"/>
<polygon fill="#191970" stroke="#191970" points="1722.4039,-25.5124 1731.8883,-20.7905 1721.5294,-18.5673 1722.4039,-25.5124"/>
</g>
<!-- Node37&#45;&gt;Node10 -->
<g id="edge67" class="edge">
<title>Node37&#45;&gt;Node10</title>
<path fill="none" stroke="#191970" d="M1209.7776,-62.6396C1279.6115,-54.8959 1398.8308,-40.7053 1510.1677,-22.2256"/>
<polygon fill="#191970" stroke="#191970" points="1510.9411,-25.6449 1520.2254,-20.5407 1509.7845,-18.7411 1510.9411,-25.6449"/>
</g>
<!-- Node37&#45;&gt;Node12 -->
<g id="edge65" class="edge">
<title>Node37&#45;&gt;Node12</title>
<path fill="none" stroke="#191970" d="M1209.7283,-66.9746C1329.2974,-62.4898 1606.725,-49.9253 1850.0695,-22.0057"/>
<polygon fill="#191970" stroke="#191970" points="1850.6379,-25.4634 1860.1687,-20.8358 1849.8323,-18.5099 1850.6379,-25.4634"/>
</g>
<!-- Node37&#45;&gt;Node18 -->
<g id="edge68" class="edge">
<title>Node37&#45;&gt;Node18</title>
<path fill="none" stroke="#191970" d="M1090.4135,-66.6541C922.117,-59.9008 444.4151,-39.8192 266.1972,-22.0069"/>
<polygon fill="#191970" stroke="#191970" points="266.4675,-18.5163 256.1612,-20.9722 265.7496,-25.4794 266.4675,-18.5163"/>
</g>
<!-- Node37&#45;&gt;Node22 -->
<g id="edge57" class="edge">
<title>Node37&#45;&gt;Node22</title>
<path fill="none" stroke="#191970" d="M1090.3521,-59.8075C1028.055,-49.9968 933.5016,-34.465 882.4163,-21.6669"/>
<polygon fill="#191970" stroke="#191970" points="883.0627,-18.218 872.5017,-19.0634 881.2849,-24.9885 883.0627,-18.218"/>
</g>
<!-- Node37&#45;&gt;Node23 -->
<g id="edge52" class="edge">
<title>Node37&#45;&gt;Node23</title>
<path fill="none" stroke="#191970" d="M1090.4917,-67.826C997.625,-65.0364 812.7039,-55.6368 648.9551,-22.0487"/>
<polygon fill="#191970" stroke="#191970" points="649.203,-18.5251 638.6987,-19.907 647.7721,-25.3773 649.203,-18.5251"/>
</g>
<!-- Node37&#45;&gt;Node24 -->
<g id="edge50" class="edge">
<title>Node37&#45;&gt;Node24</title>
<path fill="none" stroke="#191970" d="M1143.5805,-58.3619C1138.8441,-50.5131 1132.2682,-39.6159 1126.618,-30.2527"/>
<polygon fill="#191970" stroke="#191970" points="1129.5422,-28.3242 1121.3788,-21.5707 1123.5489,-31.9409 1129.5422,-28.3242"/>
</g>
<!-- Node37&#45;&gt;Node25 -->
<g id="edge51" class="edge">
<title>Node37&#45;&gt;Node25</title>
<path fill="none" stroke="#191970" d="M1131.1082,-58.3619C1115.2823,-49.4502 1092.4774,-36.6087 1074.6053,-26.5447"/>
<polygon fill="#191970" stroke="#191970" points="1076.2029,-23.4276 1065.772,-21.5707 1072.7682,-29.5271 1076.2029,-23.4276"/>
</g>
<!-- Node37&#45;&gt;Node27 -->
<g id="edge53" class="edge">
<title>Node37&#45;&gt;Node27</title>
<path fill="none" stroke="#191970" d="M1103.3341,-58.4772C1065.8872,-49.8695 1011.7611,-37.063 955.6004,-22.0695"/>
<polygon fill="#191970" stroke="#191970" points="956.4016,-18.6607 945.8359,-19.4458 954.585,-25.421 956.4016,-18.6607"/>
</g>
<!-- Node37&#45;&gt;Node31 -->
<g id="edge54" class="edge">
<title>Node37&#45;&gt;Node31</title>
<path fill="none" stroke="#191970" d="M1090.2303,-60.0827C1085.4162,-59.3744 1080.6271,-58.6731 1076,-58 966.7889,-42.1132 934.9378,-49.2659 823.7344,-21.7587"/>
<polygon fill="#191970" stroke="#191970" points="824.3564,-18.3063 813.8049,-19.2638 822.6505,-25.0952 824.3564,-18.3063"/>
</g>
<!-- Node38 -->
<g id="node39" class="node">
<title>Node38</title>
<polygon fill="#ffffff" stroke="#bfbfbf" points="1405,-.5 1405,-21.5 1441,-21.5 1441,-.5 1405,-.5"/>
<text text-anchor="middle" x="1423" y="-7.9" font-family="Helvetica,sans-Serif" font-size="12.00" fill="#000000">tuple</text>
</g>
<!-- Node37&#45;&gt;Node38 -->
<g id="edge58" class="edge">
<title>Node37&#45;&gt;Node38</title>
<path fill="none" stroke="#191970" d="M1209.5118,-59.026C1266.4419,-49.2525 1349.199,-34.384 1395.1162,-21.7737"/>
<polygon fill="#191970" stroke="#191970" points="1396.2394,-25.0924 1404.8752,-18.9544 1394.2966,-18.3674 1396.2394,-25.0924"/>
</g>
<!-- Node39 -->
<g id="node40" class="node">
<title>Node39</title>
<polygon fill="#ffffff" stroke="#bfbfbf" points="1159,-.5 1159,-21.5 1193,-21.5 1193,-.5 1159,-.5"/>
<text text-anchor="middle" x="1176" y="-7.9" font-family="Helvetica,sans-Serif" font-size="12.00" fill="#000000">ratio</text>
</g>
<!-- Node37&#45;&gt;Node39 -->
<g id="edge59" class="edge">
<title>Node37&#45;&gt;Node39</title>
<path fill="none" stroke="#191970" d="M1154.7688,-58.3619C1158.2139,-50.6766 1162.9692,-40.0686 1167.1063,-30.8399"/>
<polygon fill="#191970" stroke="#191970" points="1170.3646,-32.1275 1171.2614,-21.5707 1163.977,-29.264 1170.3646,-32.1275"/>
</g>
<!-- Node40 -->
<g id="node41" class="node">
<title>Node40</title>
<polygon fill="#ffffff" stroke="#bfbfbf" points="1211,-.5 1211,-21.5 1255,-21.5 1255,-.5 1211,-.5"/>
<text text-anchor="middle" x="1233" y="-7.9" font-family="Helvetica,sans-Serif" font-size="12.00" fill="#000000">chrono</text>
</g>
<!-- Node37&#45;&gt;Node40 -->
<g id="edge60" class="edge">
<title>Node37&#45;&gt;Node40</title>
<path fill="none" stroke="#191970" d="M1165.2235,-58.3619C1177.6254,-49.6955 1195.3458,-37.3126 1209.557,-27.3819"/>
<polygon fill="#191970" stroke="#191970" points="1211.6809,-30.1676 1217.873,-21.5707 1207.6712,-24.4297 1211.6809,-30.1676"/>
</g>
<!-- Node41 -->
<g id="node42" class="node">
<title>Node41</title>
<polygon fill="#ffffff" stroke="#bfbfbf" points="1273,-.5 1273,-21.5 1311,-21.5 1311,-.5 1273,-.5"/>
<text text-anchor="middle" x="1292" y="-7.9" font-family="Helvetica,sans-Serif" font-size="12.00" fill="#000000">ctime</text>
</g>
<!-- Node37&#45;&gt;Node41 -->
<g id="edge61" class="edge">
<title>Node37&#45;&gt;Node41</title>
<path fill="none" stroke="#191970" d="M1175.7151,-58.4966C1200.41,-48.41 1237.6492,-33.1996 1263.2984,-22.7232"/>
<polygon fill="#191970" stroke="#191970" points="1264.9094,-25.8459 1272.8435,-18.8245 1262.2625,-19.3657 1264.9094,-25.8459"/>
</g>
<!-- Node42 -->
<g id="node43" class="node">
<title>Node42</title>
<polygon fill="#ffffff" stroke="#bfbfbf" points="1329,-.5 1329,-21.5 1387,-21.5 1387,-.5 1329,-.5"/>
<text text-anchor="middle" x="1358" y="-7.9" font-family="Helvetica,sans-Serif" font-size="12.00" fill="#000000">type_traits</text>
</g>
<!-- Node37&#45;&gt;Node42 -->
<g id="edge63" class="edge">
<title>Node37&#45;&gt;Node42</title>
<path fill="none" stroke="#191970" d="M1188.5215,-58.492C1220.914,-49.6242 1268.6967,-36.4694 1319.1743,-22.2133"/>
<polygon fill="#191970" stroke="#191970" points="1320.2944,-25.5339 1328.9642,-19.4441 1318.3891,-18.7982 1320.2944,-25.5339"/>
</g>
<!-- Node43&#45;&gt;Node4 -->
<g id="edge72" class="edge">
<title>Node43&#45;&gt;Node4</title>
<path fill="none" stroke="#191970" d="M1518.9531,-67.6082C1453.9687,-65.5096 1326.9333,-61.4172 1219,-58 966.2533,-49.998 334.4863,-71.5448 67.8165,-21.4343"/>
<polygon fill="#191970" stroke="#191970" points="68.197,-17.9427 57.7122,-19.4655 66.8582,-24.8135 68.197,-17.9427"/>
</g>
<!-- Node43&#45;&gt;Node7 -->
<g id="edge74" class="edge">
<title>Node43&#45;&gt;Node7</title>
<path fill="none" stroke="#191970" d="M1547.1434,-58.3619C1535.1545,-49.7773 1518.0727,-37.5459 1504.2715,-27.6636"/>
<polygon fill="#191970" stroke="#191970" points="1505.9307,-24.5469 1495.7625,-21.5707 1501.8554,-30.2383 1505.9307,-24.5469"/>
</g>
<!-- Node43&#45;&gt;Node8 -->
<g id="edge76" class="edge">
<title>Node43&#45;&gt;Node8</title>
<path fill="none" stroke="#191970" d="M1581.7391,-58.4966C1598.6101,-49.5194 1623.1085,-36.4835 1642.1738,-26.3387"/>
<polygon fill="#191970" stroke="#191970" points="1643.8555,-29.4086 1651.0394,-21.6212 1640.5673,-23.2289 1643.8555,-29.4086"/>
</g>
<!-- Node43&#45;&gt;Node9 -->
<g id="edge80" class="edge">
<title>Node43&#45;&gt;Node9</title>
<path fill="none" stroke="#191970" d="M1602.7458,-58.4966C1640.2209,-48.8364 1695.9273,-34.4765 1736.2721,-24.0765"/>
<polygon fill="#191970" stroke="#191970" points="1737.368,-27.4085 1746.1778,-21.5231 1735.6206,-20.6301 1737.368,-27.4085"/>
</g>
<!-- Node43&#45;&gt;Node10 -->
<g id="edge77" class="edge">
<title>Node43&#45;&gt;Node10</title>
<path fill="none" stroke="#191970" d="M1562.5502,-58.3619C1562.9351,-50.9219 1563.4616,-40.7427 1563.9279,-31.7276"/>
<polygon fill="#191970" stroke="#191970" points="1567.4319,-31.7381 1564.4532,-21.5707 1560.4413,-31.3765 1567.4319,-31.7381"/>
</g>
<!-- Node43&#45;&gt;Node12 -->
<g id="edge79" class="edge">
<title>Node43&#45;&gt;Node12</title>
<path fill="none" stroke="#191970" d="M1605.0959,-62.0455C1659.6487,-53.2302 1756.7966,-37.492 1850.5392,-22.0712"/>
<polygon fill="#191970" stroke="#191970" points="1851.178,-25.5133 1860.4768,-20.4355 1850.0411,-18.6062 1851.178,-25.5133"/>
</g>
<!-- Node43&#45;&gt;Node18 -->
<g id="edge82" class="edge">
<title>Node43&#45;&gt;Node18</title>
<path fill="none" stroke="#191970" d="M1518.6501,-67.5779C1307.5291,-60.6337 392.3591,-30.3153 266.2913,-21.8277"/>
<polygon fill="#191970" stroke="#191970" points="266.3983,-18.3254 256.1551,-21.0323 265.8506,-25.304 266.3983,-18.3254"/>
</g>
<!-- Node43&#45;&gt;Node24 -->
<g id="edge70" class="edge">
<title>Node43&#45;&gt;Node24</title>
<path fill="none" stroke="#191970" d="M1518.8621,-66.7943C1445.1517,-62.4384 1290.2328,-50.7289 1150.854,-21.8382"/>
<polygon fill="#191970" stroke="#191970" points="1151.3539,-18.3668 1140.8469,-19.7283 1149.9097,-25.2162 1151.3539,-18.3668"/>
</g>
<!-- Node43&#45;&gt;Node25 -->
<g id="edge73" class="edge">
<title>Node43&#45;&gt;Node25</title>
<path fill="none" stroke="#191970" d="M1518.741,-67.8889C1435.5759,-65.0834 1247.6836,-55.5017 1081.2634,-21.6244"/>
<polygon fill="#191970" stroke="#191970" points="1081.8464,-18.171 1071.3445,-19.5708 1080.4272,-25.0256 1081.8464,-18.171"/>
</g>
<!-- Node43&#45;&gt;Node36 -->
<g id="edge71" class="edge">
<title>Node43&#45;&gt;Node36</title>
<path fill="none" stroke="#191970" d="M1605.0493,-65.4048C1693.7461,-57.8077 1895.1357,-39.5337 1981.4601,-21.9057"/>
<polygon fill="#191970" stroke="#191970" points="1982.3652,-25.291 1991.4017,-19.7599 1980.8883,-18.4486 1982.3652,-25.291"/>
</g>
<!-- Node43&#45;&gt;Node46 -->
<g id="edge75" class="edge">
<title>Node43&#45;&gt;Node46</title>
<path fill="none" stroke="#191970" d="M1605.2231,-64.9192C1630.0181,-62.6701 1661.7408,-59.9477 1690,-58 1994.3801,-37.0212 2077.4751,-74.6379 2381.6631,-21.8627"/>
<polygon fill="#191970" stroke="#191970" points="2382.4061,-25.286 2391.6513,-20.1113 2381.1971,-18.3911 2382.4061,-25.286"/>
</g>
<!-- Node43&#45;&gt;Node47 -->
<g id="edge78" class="edge">
<title>Node43&#45;&gt;Node47</title>
<path fill="none" stroke="#191970" d="M1605.0321,-65.0984C1709.901,-55.5553 1974.7852,-31.2291 2046.3081,-22.0296"/>
<polygon fill="#191970" stroke="#191970" points="2046.9662,-25.4721 2056.3944,-20.639 2046.0101,-18.5377 2046.9662,-25.4721"/>
</g>
<!-- Node43&#45;&gt;Node48 -->
<g id="edge81" class="edge">
<title>Node43&#45;&gt;Node48</title>
<path fill="none" stroke="#191970" d="M1605.2322,-65.0455C1630.0301,-62.8371 1661.7527,-60.1134 1690,-58 1937.611,-39.4742 2003.3729,-51.0384 2253.7611,-22.0388"/>
<polygon fill="#191970" stroke="#191970" points="2254.3699,-25.4915 2263.8961,-20.8546 2253.5575,-18.5388 2254.3699,-25.4915"/>
</g>
<!-- Node49&#45;&gt;Node3 -->
<g id="edge95" class="edge">
<title>Node49&#45;&gt;Node3</title>
<path fill="none" stroke="#191970" d="M564.2001,-116.4895C454.016,-93.6353 197.9496,-40.1952 128.0666,-21.9001"/>
<polygon fill="#191970" stroke="#191970" points="128.7539,-18.4593 118.1838,-19.1828 126.898,-25.2088 128.7539,-18.4593"/>
</g>
<!-- Node49&#45;&gt;Node4 -->
<g id="edge88" class="edge">
<title>Node49&#45;&gt;Node4</title>
<path fill="none" stroke="#191970" d="M545.4153,-119.1388C479.5473,-111.1713 378.0629,-97.5317 291,-80 193.237,-60.3137 166.5949,-53.5793 67.09,-21.7991"/>
<polygon fill="#191970" stroke="#191970" points="68.1443,-18.4617 57.5534,-18.7484 66.0115,-25.1289 68.1443,-18.4617"/>
</g>
<!-- Node49&#45;&gt;Node18 -->
<g id="edge98" class="edge">
<title>Node49&#45;&gt;Node18</title>
<path fill="none" stroke="#191970" d="M574.7674,-116.4378C545.1841,-108.0808 504.325,-95.2926 470,-80 452.174,-72.0581 450.2594,-64.8872 432,-58 402.2082,-46.7629 324.2222,-32.2442 265.9977,-22.3359"/>
<polygon fill="#191970" stroke="#191970" points="266.5476,-18.8792 256.1042,-20.6641 265.3812,-25.7814 266.5476,-18.8792"/>
</g>
<!-- Node49&#45;&gt;Node19 -->
<g id="edge99" class="edge">
<title>Node49&#45;&gt;Node19</title>
<path fill="none" stroke="#191970" d="M641.0773,-116.4966C664.0748,-107.2337 697.8003,-93.6499 723.2995,-83.3793"/>
<polygon fill="#191970" stroke="#191970" points="724.6619,-86.6039 732.6301,-79.6212 722.0466,-80.1108 724.6619,-86.6039"/>
</g>
<!-- Node49&#45;&gt;Node20 -->
<g id="edge86" class="edge">
<title>Node49&#45;&gt;Node20</title>
<path fill="none" stroke="#191970" d="M606.9772,-116.438C595.137,-101.509 571.604,-74.2485 546,-58 508.6092,-34.2716 492.4564,-37.5708 446.8324,-22.1704"/>
<polygon fill="#191970" stroke="#191970" points="447.8945,-18.8339 437.2996,-18.8274 445.578,-25.4395 447.8945,-18.8339"/>
</g>
<!-- Node49&#45;&gt;Node21 -->
<g id="edge91" class="edge">
<title>Node49&#45;&gt;Node21</title>
<path fill="none" stroke="#191970" d="M612.7428,-116.2708C609.1019,-101.389 600.5984,-74.46 584,-58 578.2401,-52.2881 537.9205,-35.3712 508.4675,-23.4776"/>
<polygon fill="#191970" stroke="#191970" points="509.5453,-20.1389 498.9613,-19.6602 506.9367,-26.6347 509.5453,-20.1389"/>
</g>
<!-- Node49&#45;&gt;Node22 -->
<g id="edge96" class="edge">
<title>Node49&#45;&gt;Node22</title>
<path fill="none" stroke="#191970" d="M684.5459,-119.5338C739.3176,-112.2929 809.8381,-99.51 831,-80 844.3346,-67.7063 849.3025,-47.2354 851.1027,-31.7761"/>
<polygon fill="#191970" stroke="#191970" points="854.6086,-31.8438 851.9279,-21.5937 847.6314,-31.2782 854.6086,-31.8438"/>
</g>
<!-- Node49&#45;&gt;Node23 -->
<g id="edge89" class="edge">
<title>Node49&#45;&gt;Node23</title>
<path fill="none" stroke="#191970" d="M629.9323,-116.4927C646.3259,-103.5526 669.1832,-80.5117 660,-58 655.3115,-46.5066 646.3089,-36.2985 637.502,-28.3571"/>
<polygon fill="#191970" stroke="#191970" points="639.5099,-25.473 629.5985,-21.7292 635.0119,-30.8367 639.5099,-25.473"/>
</g>
<!-- Node49&#45;&gt;Node24 -->
<g id="edge85" class="edge">
<title>Node49&#45;&gt;Node24</title>
<path fill="none" stroke="#191970" d="M684.6454,-120.1863C747.3677,-113.1434 841.7582,-100.2869 922,-80 978.8449,-65.6283 1042.471,-41.1714 1080.5984,-25.5661"/>
<polygon fill="#191970" stroke="#191970" points="1082.2782,-28.6592 1090.186,-21.6081 1079.6071,-22.1889 1082.2782,-28.6592"/>
</g>
<!-- Node49&#45;&gt;Node25 -->
<g id="edge90" class="edge">
<title>Node49&#45;&gt;Node25</title>
<path fill="none" stroke="#191970" d="M684.5799,-118.6418C738.1324,-111.2345 813.6282,-98.6662 878,-80 927.7269,-65.5805 982.8132,-41.4638 1016.1662,-25.8996"/>
<polygon fill="#191970" stroke="#191970" points="1017.8271,-28.9861 1025.3819,-21.558 1014.8438,-22.6536 1017.8271,-28.9861"/>
</g>
<!-- Node49&#45;&gt;Node26 -->
<g id="edge92" class="edge">
<title>Node49&#45;&gt;Node26</title>
<path fill="none" stroke="#191970" d="M619.6773,-116.4021C625.2062,-102.145 632.4237,-76.4507 622,-58 613.1128,-42.2689 596.6162,-31.2166 581.0751,-23.8007"/>
<polygon fill="#191970" stroke="#191970" points="582.1624,-20.4557 571.5987,-19.6438 579.3504,-26.8661 582.1624,-20.4557"/>
</g>
<!-- Node49&#45;&gt;Node27 -->
<g id="edge93" class="edge">
<title>Node49&#45;&gt;Node27</title>
<path fill="none" stroke="#191970" d="M684.6596,-117.8002C743.5974,-109.1703 822.836,-95.3255 851,-80 873.3986,-67.8118 892.9171,-45.6097 905.0206,-29.679"/>
<polygon fill="#191970" stroke="#191970" points="907.869,-31.7133 910.9531,-21.5773 902.2212,-27.5777 907.869,-31.7133"/>
</g>
<!-- Node49&#45;&gt;Node28 -->
<g id="edge94" class="edge">
<title>Node49&#45;&gt;Node28</title>
<path fill="none" stroke="#191970" d="M588.6787,-116.3975C566.7862,-107.3519 534.9624,-93.6735 508,-80 490.5951,-71.1734 488.0084,-65.519 470,-58 416.735,-35.7604 398.2913,-38.5199 339.6512,-22.3717"/>
<polygon fill="#191970" stroke="#191970" points="340.4581,-18.9628 329.8831,-19.611 338.5542,-25.6989 340.4581,-18.9628"/>
</g>
<!-- Node49&#45;&gt;Node30 -->
<g id="edge87" class="edge">
<title>Node49&#45;&gt;Node30</title>
<path fill="none" stroke="#191970" d="M599.566,-116.2659C574.7038,-99.1095 526.6866,-66.5666 508,-58 456.6093,-34.4407 438.9424,-41.828 386,-22 385.9034,-21.9638 385.8067,-21.9274 385.7098,-21.8909"/>
<polygon fill="#191970" stroke="#191970" points="387.1597,-18.7034 376.5829,-18.0853 384.4658,-25.1643 387.1597,-18.7034"/>
</g>
<!-- Node49&#45;&gt;Node31 -->
<g id="edge97" class="edge">
<title>Node49&#45;&gt;Node31</title>
<path fill="none" stroke="#191970" d="M684.5663,-119.7995C735.6231,-112.911 798.7757,-100.4789 815,-80 826.3798,-65.6359 817.6706,-45.2619 808.0585,-30.3773"/>
<polygon fill="#191970" stroke="#191970" points="810.7359,-28.0993 802.1284,-21.9218 805.0048,-32.1187 810.7359,-28.0993"/>
</g>
<!-- Node49&#45;&gt;Node51 -->
<g id="edge100" class="edge">
<title>Node49&#45;&gt;Node51</title>
<path fill="none" stroke="#191970" d="M684.6924,-124.6344C847.4762,-118.9094 1265.3326,-103.0592 1614,-80 1638.5062,-78.3793 1665.5935,-76.1381 1688.5941,-74.1015"/>
<polygon fill="#191970" stroke="#191970" points="1689.2025,-77.5611 1698.8505,-73.183 1688.5781,-70.589 1689.2025,-77.5611"/>
</g>
<!-- Node51&#45;&gt;Node7 -->
<g id="edge101" class="edge">
<title>Node51&#45;&gt;Node7</title>
<path fill="none" stroke="#191970" d="M1698.7096,-61.8916C1653.9881,-54.2925 1582.8321,-41.0515 1512.476,-21.8356"/>
<polygon fill="#191970" stroke="#191970" points="1513.1282,-18.3845 1502.5565,-19.0845 1511.2574,-25.1298 1513.1282,-18.3845"/>
</g>
<!-- Node51&#45;&gt;Node46 -->
<g id="edge102" class="edge">
<title>Node51&#45;&gt;Node46</title>
<path fill="none" stroke="#191970" d="M1787.322,-67.0352C1909.4052,-61.4239 2249.6964,-44.3895 2381.4067,-21.889"/>
<polygon fill="#191970" stroke="#191970" points="2382.4172,-25.2635 2391.64,-20.0491 2381.1784,-18.374 2382.4172,-25.2635"/>
</g>
<!-- Node52&#45;&gt;Node1 -->
<g id="edge115" class="edge">
<title>Node52&#45;&gt;Node1</title>
<path fill="none" stroke="#191970" d="M703.0204,-367.2536C833.8845,-356.5482 1151.2889,-330.5829 1288.7422,-319.3384"/>
<polygon fill="#191970" stroke="#191970" points="1289.4309,-322.7939 1299.1122,-318.4901 1288.8601,-315.8172 1289.4309,-322.7939"/>
</g>
<!-- Node52&#45;&gt;Node4 -->
<g id="edge111" class="edge">
<title>Node52&#45;&gt;Node4</title>
<path fill="none" stroke="#191970" d="M586.9082,-367.0748C428.3635,-352.8586 0,-308.9481 0,-249.5 0,-249.5 0,-249.5 0,-127 0,-91.7411 16.0509,-53.3154 27.2892,-30.7323"/>
<polygon fill="#191970" stroke="#191970" points="30.4185,-32.3005 31.8946,-21.809 24.1981,-29.0901 30.4185,-32.3005"/>
</g>
<!-- Node52&#45;&gt;Node7 -->
<g id="edge112" class="edge">
<title>Node52&#45;&gt;Node7</title>
<path fill="none" stroke="#191970" d="M665.7721,-361.3988C771.9554,-307.2195 1249.7528,-63.5774 1266,-58 1341.889,-31.9485 1367.7105,-43.0797 1449.712,-21.7236"/>
<polygon fill="#191970" stroke="#191970" points="1450.701,-25.0821 1459.4493,-19.1057 1448.8835,-18.3221 1450.701,-25.0821"/>
</g>
<!-- Node52&#45;&gt;Node18 -->
<g id="edge113" class="edge">
<title>Node52&#45;&gt;Node18</title>
<path fill="none" stroke="#191970" d="M586.9229,-362.9127C482.9385,-343.1642 267.3163,-285.612 176,-138 155.3835,-104.6736 172.4525,-57.3245 185.2129,-30.862"/>
<polygon fill="#191970" stroke="#191970" points="188.3996,-32.3166 189.805,-21.8154 182.1577,-29.1482 188.3996,-32.3166"/>
</g>
<!-- Node52&#45;&gt;Node19 -->
<g id="edge114" class="edge">
<title>Node52&#45;&gt;Node19</title>
<path fill="none" stroke="#191970" d="M645.6254,-361.1566C647.269,-337.2198 652.7672,-278.3111 669,-232 688.3937,-176.671 725.4823,-117.924 745.4583,-88.3743"/>
<polygon fill="#191970" stroke="#191970" points="748.5352,-90.0757 751.2985,-79.8475 742.76,-86.12 748.5352,-90.0757"/>
</g>
</g>
</svg>
