<?xml version="1.0" encoding="UTF-8" standalone="no"?>
<!DOCTYPE svg PUBLIC "-//W3C//DTD SVG 1.1//EN"
 "http://www.w3.org/Graphics/SVG/1.1/DTD/svg11.dtd">
<!-- Generated by graphviz version 2.40.1 (20161225.0304)
 -->
<!-- Title: base_clock.hpp Pages: 1 -->
<svg width="350pt" height="320pt"
 viewBox="0.00 0.00 349.50 320.00" xmlns="http://www.w3.org/2000/svg" xmlns:xlink="http://www.w3.org/1999/xlink">
<g id="graph0" class="graph" transform="scale(1 1) rotate(0) translate(4 316)">
<title>base_clock.hpp</title>
<polygon fill="#ffffff" stroke="transparent" points="-4,4 -4,-316 345.5,-316 345.5,4 -4,4"/>
<!-- Node22 -->
<g id="node1" class="node">
<title>Node22</title>
<polygon fill="#bfbfbf" stroke="#000000" points="178,-290.5 178,-311.5 257,-311.5 257,-290.5 178,-290.5"/>
<text text-anchor="middle" x="217.5" y="-297.9" font-family="Helvetica,sans-Serif" font-size="12.00" fill="#000000">base_clock.hpp</text>
</g>
<!-- Node23 -->
<g id="node2" class="node">
<title>Node23</title>
<g id="a_node2"><a xlink:href="base__timer_8hpp.html" target="_top" xlink:title="base_timer.hpp">
<polygon fill="#ffffff" stroke="#000000" points="178,-232.5 178,-253.5 257,-253.5 257,-232.5 178,-232.5"/>
<text text-anchor="middle" x="217.5" y="-239.9" font-family="Helvetica,sans-Serif" font-size="12.00" fill="#000000">base_timer.hpp</text>
</a>
</g>
</g>
<!-- Node22&#45;&gt;Node23 -->
<g id="edge1" class="edge">
<title>Node22&#45;&gt;Node23</title>
<path fill="none" stroke="#191970" d="M217.5,-280.1906C217.5,-271.1684 217.5,-260.9941 217.5,-253.5707"/>
<polygon fill="#191970" stroke="#191970" points="214.0001,-280.3619 217.5,-290.3619 221.0001,-280.3619 214.0001,-280.3619"/>
</g>
<!-- Node24 -->
<g id="node3" class="node">
<title>Node24</title>
<g id="a_node3"><a xlink:href="base__timer_8cpp.html" target="_top" xlink:title="base_timer.cpp">
<polygon fill="#ffffff" stroke="#000000" points="136.5,-174.5 136.5,-195.5 214.5,-195.5 214.5,-174.5 136.5,-174.5"/>
<text text-anchor="middle" x="175.5" y="-181.9" font-family="Helvetica,sans-Serif" font-size="12.00" fill="#000000">base_timer.cpp</text>
</a>
</g>
</g>
<!-- Node23&#45;&gt;Node24 -->
<g id="edge2" class="edge">
<title>Node23&#45;&gt;Node24</title>
<path fill="none" stroke="#191970" d="M203.9227,-224.2504C197.0431,-214.75 188.9437,-203.5651 183.1546,-195.5707"/>
<polygon fill="#191970" stroke="#191970" points="201.0966,-226.3153 209.7966,-232.3619 206.7662,-222.2097 201.0966,-226.3153"/>
</g>
<!-- Node25 -->
<g id="node4" class="node">
<title>Node25</title>
<g id="a_node4"><a xlink:href="timer_8hpp.html" target="_top" xlink:title="timer.hpp">
<polygon fill="#ffffff" stroke="#000000" points="232.5,-174.5 232.5,-195.5 286.5,-195.5 286.5,-174.5 232.5,-174.5"/>
<text text-anchor="middle" x="259.5" y="-181.9" font-family="Helvetica,sans-Serif" font-size="12.00" fill="#000000">timer.hpp</text>
</a>
</g>
</g>
<!-- Node23&#45;&gt;Node25 -->
<g id="edge3" class="edge">
<title>Node23&#45;&gt;Node25</title>
<path fill="none" stroke="#191970" d="M231.0773,-224.2504C237.9569,-214.75 246.0563,-203.5651 251.8454,-195.5707"/>
<polygon fill="#191970" stroke="#191970" points="228.2338,-222.2097 225.2034,-232.3619 233.9034,-226.3153 228.2338,-222.2097"/>
</g>
<!-- Node26 -->
<g id="node5" class="node">
<title>Node26</title>
<g id="a_node5"><a xlink:href="timing__manager_8hpp.html" target="_top" xlink:title="timing_manager.hpp">
<polygon fill="#ffffff" stroke="#000000" points="94,-116.5 94,-137.5 193,-137.5 193,-116.5 94,-116.5"/>
<text text-anchor="middle" x="143.5" y="-123.9" font-family="Helvetica,sans-Serif" font-size="12.00" fill="#000000">timing_manager.hpp</text>
</a>
</g>
</g>
<!-- Node25&#45;&gt;Node26 -->
<g id="edge4" class="edge">
<title>Node25&#45;&gt;Node26</title>
<path fill="none" stroke="#191970" d="M229.3637,-169.9319C209.0865,-159.7932 182.8495,-146.6748 164.7424,-137.6212"/>
<polygon fill="#191970" stroke="#191970" points="227.9837,-173.1549 238.4933,-174.4966 231.1143,-166.8939 227.9837,-173.1549"/>
</g>
<!-- Node28 -->
<g id="node7" class="node">
<title>Node28</title>
<g id="a_node7"><a xlink:href="timemory_8cc.html" target="_top" xlink:title="timemory.cc">
<polygon fill="#ffffff" stroke="#000000" points="73,-.5 73,-21.5 138,-21.5 138,-.5 73,-.5"/>
<text text-anchor="middle" x="105.5" y="-7.9" font-family="Helvetica,sans-Serif" font-size="12.00" fill="#000000">timemory.cc</text>
</a>
</g>
</g>
<!-- Node25&#45;&gt;Node28 -->
<g id="edge9" class="edge">
<title>Node25&#45;&gt;Node28</title>
<path fill="none" stroke="#191970" d="M262.4395,-164.2919C265.1319,-136.7865 265.5096,-88.1707 240.5,-58 227.2753,-42.0462 173.8551,-26.9061 138.3098,-18.3073"/>
<polygon fill="#191970" stroke="#191970" points="258.948,-164.0146 261.2551,-174.3552 265.9001,-164.8329 258.948,-164.0146"/>
</g>
<!-- Node30 -->
<g id="node9" class="node">
<title>Node30</title>
<g id="a_node9"><a xlink:href="timer_8cpp.html" target="_top" xlink:title="timer.cpp">
<polygon fill="#ffffff" stroke="#000000" points="287.5,-116.5 287.5,-137.5 341.5,-137.5 341.5,-116.5 287.5,-116.5"/>
<text text-anchor="middle" x="314.5" y="-123.9" font-family="Helvetica,sans-Serif" font-size="12.00" fill="#000000">timer.cpp</text>
</a>
</g>
</g>
<!-- Node25&#45;&gt;Node30 -->
<g id="edge10" class="edge">
<title>Node25&#45;&gt;Node30</title>
<path fill="none" stroke="#191970" d="M276.7302,-166.8299C285.8546,-157.2078 296.7405,-145.7282 304.4761,-137.5707"/>
<polygon fill="#191970" stroke="#191970" points="273.9291,-164.6973 269.5878,-174.3619 279.0085,-169.514 273.9291,-164.6973"/>
</g>
<!-- Node27 -->
<g id="node6" class="node">
<title>Node27</title>
<g id="a_node6"><a xlink:href="auto__timer_8hpp.html" target="_top" xlink:title="auto_timer.hpp">
<polygon fill="#ffffff" stroke="#000000" points="0,-58.5 0,-79.5 77,-79.5 77,-58.5 0,-58.5"/>
<text text-anchor="middle" x="38.5" y="-65.9" font-family="Helvetica,sans-Serif" font-size="12.00" fill="#000000">auto_timer.hpp</text>
</a>
</g>
</g>
<!-- Node26&#45;&gt;Node27 -->
<g id="edge5" class="edge">
<title>Node26&#45;&gt;Node27</title>
<path fill="none" stroke="#191970" d="M115.4713,-111.5175C97.1894,-101.4189 73.8075,-88.5032 57.6365,-79.5707"/>
<polygon fill="#191970" stroke="#191970" points="113.7957,-114.5903 124.2414,-116.3619 117.1804,-108.463 113.7957,-114.5903"/>
</g>
<!-- Node26&#45;&gt;Node28 -->
<g id="edge7" class="edge">
<title>Node26&#45;&gt;Node28</title>
<path fill="none" stroke="#191970" d="M134.8538,-107.079C131.4104,-98.7865 127.5498,-89.0086 124.5,-80 117.647,-59.7575 111.4258,-35.5682 108.081,-21.8733"/>
<polygon fill="#191970" stroke="#191970" points="131.6396,-108.4645 138.7646,-116.3058 138.0846,-105.7328 131.6396,-108.4645"/>
</g>
<!-- Node29 -->
<g id="node8" class="node">
<title>Node29</title>
<g id="a_node8"><a xlink:href="timing__manager_8cpp.html" target="_top" xlink:title="timing_manager.cpp">
<polygon fill="#ffffff" stroke="#000000" points="133.5,-58.5 133.5,-79.5 231.5,-79.5 231.5,-58.5 133.5,-58.5"/>
<text text-anchor="middle" x="182.5" y="-65.9" font-family="Helvetica,sans-Serif" font-size="12.00" fill="#000000">timing_manager.cpp</text>
</a>
</g>
</g>
<!-- Node26&#45;&gt;Node29 -->
<g id="edge8" class="edge">
<title>Node26&#45;&gt;Node29</title>
<path fill="none" stroke="#191970" d="M156.3034,-107.9591C162.649,-98.522 170.0714,-87.4835 175.3921,-79.5707"/>
<polygon fill="#191970" stroke="#191970" points="153.3288,-106.1105 150.6532,-116.3619 159.1377,-110.0165 153.3288,-106.1105"/>
</g>
<!-- Node27&#45;&gt;Node28 -->
<g id="edge6" class="edge">
<title>Node27&#45;&gt;Node28</title>
<path fill="none" stroke="#191970" d="M58.4952,-51.6908C69.8056,-41.8996 83.583,-29.973 93.2891,-21.5707"/>
<polygon fill="#191970" stroke="#191970" points="56.0587,-49.1706 50.7888,-58.3619 60.6402,-54.4631 56.0587,-49.1706"/>
</g>
</g>
</svg>
