<?xml version="1.0" encoding="UTF-8" standalone="no"?>
<!DOCTYPE svg PUBLIC "-//W3C//DTD SVG 1.1//EN"
 "http://www.w3.org/Graphics/SVG/1.1/DTD/svg11.dtd">
<!-- Generated by graphviz version 2.40.1 (20161225.0304)
 -->
<!-- Title: base_clock.hpp Pages: 1 -->
<svg width="1661pt" height="88pt"
 viewBox="0.00 0.00 1661.00 88.00" xmlns="http://www.w3.org/2000/svg" xmlns:xlink="http://www.w3.org/1999/xlink">
<g id="graph0" class="graph" transform="scale(1 1) rotate(0) translate(4 84)">
<title>base_clock.hpp</title>
<polygon fill="#ffffff" stroke="transparent" points="-4,4 -4,-84 1657,-84 1657,4 -4,4"/>
<!-- Node0 -->
<g id="node1" class="node">
<title>Node0</title>
<polygon fill="#bfbfbf" stroke="#000000" points="677.5,-58.5 677.5,-79.5 756.5,-79.5 756.5,-58.5 677.5,-58.5"/>
<text text-anchor="middle" x="717" y="-65.9" font-family="Helvetica,sans-Serif" font-size="12.00" fill="#000000">base_clock.hpp</text>
</g>
<!-- Node1 -->
<g id="node2" class="node">
<title>Node1</title>
<polygon fill="#ffffff" stroke="#bfbfbf" points="0,-.5 0,-21.5 48,-21.5 48,-.5 0,-.5"/>
<text text-anchor="middle" x="24" y="-7.9" font-family="Helvetica,sans-Serif" font-size="12.00" fill="#000000">unistd.h</text>
</g>
<!-- Node0&#45;&gt;Node1 -->
<g id="edge1" class="edge">
<title>Node0&#45;&gt;Node1</title>
<path fill="none" stroke="#191970" d="M677.1132,-67.4708C556.3476,-62.6396 195.0791,-46.655 58.1735,-21.7509"/>
<polygon fill="#191970" stroke="#191970" points="58.804,-18.3081 48.3241,-19.8645 57.4872,-25.1831 58.804,-18.3081"/>
</g>
<!-- Node2 -->
<g id="node3" class="node">
<title>Node2</title>
<polygon fill="#ffffff" stroke="#bfbfbf" points="66,-.5 66,-21.5 128,-21.5 128,-.5 66,-.5"/>
<text text-anchor="middle" x="97" y="-7.9" font-family="Helvetica,sans-Serif" font-size="12.00" fill="#000000">sys/times.h</text>
</g>
<!-- Node0&#45;&gt;Node2 -->
<g id="edge2" class="edge">
<title>Node0&#45;&gt;Node2</title>
<path fill="none" stroke="#191970" d="M677.2924,-68.3408C584.3769,-66.2527 345.5839,-57.7245 138.1687,-21.9343"/>
<polygon fill="#191970" stroke="#191970" points="138.77,-18.4865 128.3162,-20.2093 137.5627,-25.3816 138.77,-18.4865"/>
</g>
<!-- Node3 -->
<g id="node4" class="node">
<title>Node3</title>
<polygon fill="#ffffff" stroke="#bfbfbf" points="146.5,-.5 146.5,-21.5 197.5,-21.5 197.5,-.5 146.5,-.5"/>
<text text-anchor="middle" x="172" y="-7.9" font-family="Helvetica,sans-Serif" font-size="12.00" fill="#000000">iostream</text>
</g>
<!-- Node0&#45;&gt;Node3 -->
<g id="edge3" class="edge">
<title>Node0&#45;&gt;Node3</title>
<path fill="none" stroke="#191970" d="M677.2342,-68.2029C592.3912,-65.8897 387.41,-57.0386 207.725,-21.7664"/>
<polygon fill="#191970" stroke="#191970" points="208.3252,-18.3173 197.8336,-19.7926 206.9553,-25.1819 208.3252,-18.3173"/>
</g>
<!-- Node4 -->
<g id="node5" class="node">
<title>Node4</title>
<polygon fill="#ffffff" stroke="#bfbfbf" points="216,-.5 216,-21.5 264,-21.5 264,-.5 216,-.5"/>
<text text-anchor="middle" x="240" y="-7.9" font-family="Helvetica,sans-Serif" font-size="12.00" fill="#000000">iomanip</text>
</g>
<!-- Node0&#45;&gt;Node4 -->
<g id="edge4" class="edge">
<title>Node0&#45;&gt;Node4</title>
<path fill="none" stroke="#191970" d="M677.3459,-67.6744C600.8434,-64.5017 427.6131,-54.328 274.4055,-21.9339"/>
<polygon fill="#191970" stroke="#191970" points="274.8568,-18.451 264.3442,-19.7679 273.3836,-25.2942 274.8568,-18.451"/>
</g>
<!-- Node5 -->
<g id="node6" class="node">
<title>Node5</title>
<polygon fill="#ffffff" stroke="#bfbfbf" points="282.5,-.5 282.5,-21.5 331.5,-21.5 331.5,-.5 282.5,-.5"/>
<text text-anchor="middle" x="307" y="-7.9" font-family="Helvetica,sans-Serif" font-size="12.00" fill="#000000">sstream</text>
</g>
<!-- Node0&#45;&gt;Node5 -->
<g id="edge5" class="edge">
<title>Node0&#45;&gt;Node5</title>
<path fill="none" stroke="#191970" d="M677.4814,-66.6525C610.1002,-62.0943 468.6745,-50.1125 341.6167,-22.0488"/>
<polygon fill="#191970" stroke="#191970" points="342.2415,-18.6019 331.7172,-19.8225 340.7056,-25.4314 342.2415,-18.6019"/>
</g>
<!-- Node6 -->
<g id="node7" class="node">
<title>Node6</title>
<polygon fill="#ffffff" stroke="#bfbfbf" points="349.5,-.5 349.5,-21.5 404.5,-21.5 404.5,-.5 349.5,-.5"/>
<text text-anchor="middle" x="377" y="-7.9" font-family="Helvetica,sans-Serif" font-size="12.00" fill="#000000">stdexcept</text>
</g>
<!-- Node0&#45;&gt;Node6 -->
<g id="edge6" class="edge">
<title>Node0&#45;&gt;Node6</title>
<path fill="none" stroke="#191970" d="M677.3058,-64.7024C620.8123,-58.1854 513.8837,-44.372 414.6839,-22.1711"/>
<polygon fill="#191970" stroke="#191970" points="415.3288,-18.7285 404.8018,-19.9253 413.7775,-25.5544 415.3288,-18.7285"/>
</g>
<!-- Node7 -->
<g id="node8" class="node">
<title>Node7</title>
<polygon fill="#ffffff" stroke="#bfbfbf" points="422.5,-.5 422.5,-21.5 463.5,-21.5 463.5,-.5 422.5,-.5"/>
<text text-anchor="middle" x="443" y="-7.9" font-family="Helvetica,sans-Serif" font-size="12.00" fill="#000000">vector</text>
</g>
<!-- Node0&#45;&gt;Node7 -->
<g id="edge7" class="edge">
<title>Node0&#45;&gt;Node7</title>
<path fill="none" stroke="#191970" d="M677.4735,-63.5722C630.6369,-56.6699 550.199,-43.3372 473.5723,-22.133"/>
<polygon fill="#191970" stroke="#191970" points="474.3387,-18.7127 463.7642,-19.369 472.4399,-25.4503 474.3387,-18.7127"/>
</g>
<!-- Node8 -->
<g id="node9" class="node">
<title>Node8</title>
<polygon fill="#ffffff" stroke="#bfbfbf" points="481.5,-.5 481.5,-21.5 522.5,-21.5 522.5,-.5 481.5,-.5"/>
<text text-anchor="middle" x="502" y="-7.9" font-family="Helvetica,sans-Serif" font-size="12.00" fill="#000000">mutex</text>
</g>
<!-- Node0&#45;&gt;Node8 -->
<g id="edge8" class="edge">
<title>Node0&#45;&gt;Node8</title>
<path fill="none" stroke="#191970" d="M677.336,-60.1673C641.7117,-51.9581 587.8378,-38.8634 532.2275,-21.8473"/>
<polygon fill="#191970" stroke="#191970" points="533.1497,-18.469 522.5619,-18.8549 531.0795,-25.1558 533.1497,-18.469"/>
</g>
<!-- Node9 -->
<g id="node10" class="node">
<title>Node9</title>
<polygon fill="#ffffff" stroke="#bfbfbf" points="541,-.5 541,-21.5 621,-21.5 621,-.5 541,-.5"/>
<text text-anchor="middle" x="581" y="-7.9" font-family="Helvetica,sans-Serif" font-size="12.00" fill="#000000">unordered_map</text>
</g>
<!-- Node0&#45;&gt;Node9 -->
<g id="edge9" class="edge">
<title>Node0&#45;&gt;Node9</title>
<path fill="none" stroke="#191970" d="M692.3714,-58.4966C670.8429,-49.3154 639.3602,-35.8889 615.3554,-25.6516"/>
<polygon fill="#191970" stroke="#191970" points="616.4764,-22.3247 605.9049,-21.6212 613.7303,-28.7636 616.4764,-22.3247"/>
</g>
<!-- Node10 -->
<g id="node11" class="node">
<title>Node10</title>
<polygon fill="#ffffff" stroke="#bfbfbf" points="639.5,-.5 639.5,-21.5 680.5,-21.5 680.5,-.5 639.5,-.5"/>
<text text-anchor="middle" x="660" y="-7.9" font-family="Helvetica,sans-Serif" font-size="12.00" fill="#000000">cmath</text>
</g>
<!-- Node0&#45;&gt;Node10 -->
<g id="edge10" class="edge">
<title>Node0&#45;&gt;Node10</title>
<path fill="none" stroke="#191970" d="M706.5453,-58.3619C698.4301,-50.1043 686.9988,-38.4725 677.4959,-28.8029"/>
<polygon fill="#191970" stroke="#191970" points="679.8941,-26.2497 670.3884,-21.5707 674.9014,-31.1562 679.8941,-26.2497"/>
</g>
<!-- Node11 -->
<g id="node12" class="node">
<title>Node11</title>
<polygon fill="#ffffff" stroke="#bfbfbf" points="699,-.5 699,-21.5 735,-21.5 735,-.5 699,-.5"/>
<text text-anchor="middle" x="717" y="-7.9" font-family="Helvetica,sans-Serif" font-size="12.00" fill="#000000">tuple</text>
</g>
<!-- Node0&#45;&gt;Node11 -->
<g id="edge11" class="edge">
<title>Node0&#45;&gt;Node11</title>
<path fill="none" stroke="#191970" d="M717,-58.3619C717,-50.9219 717,-40.7427 717,-31.7276"/>
<polygon fill="#191970" stroke="#191970" points="720.5001,-31.5706 717,-21.5707 713.5001,-31.5707 720.5001,-31.5706"/>
</g>
<!-- Node12 -->
<g id="node13" class="node">
<title>Node12</title>
<polygon fill="#ffffff" stroke="#bfbfbf" points="753,-.5 753,-21.5 787,-21.5 787,-.5 753,-.5"/>
<text text-anchor="middle" x="770" y="-7.9" font-family="Helvetica,sans-Serif" font-size="12.00" fill="#000000">ratio</text>
</g>
<!-- Node0&#45;&gt;Node12 -->
<g id="edge12" class="edge">
<title>Node0&#45;&gt;Node12</title>
<path fill="none" stroke="#191970" d="M726.721,-58.3619C734.192,-50.1861 744.6857,-38.7025 753.4689,-29.0907"/>
<polygon fill="#191970" stroke="#191970" points="756.1786,-31.3138 760.3406,-21.5707 751.0111,-26.5918 756.1786,-31.3138"/>
</g>
<!-- Node13 -->
<g id="node14" class="node">
<title>Node13</title>
<polygon fill="#ffffff" stroke="#bfbfbf" points="805,-.5 805,-21.5 849,-21.5 849,-.5 805,-.5"/>
<text text-anchor="middle" x="827" y="-7.9" font-family="Helvetica,sans-Serif" font-size="12.00" fill="#000000">chrono</text>
</g>
<!-- Node0&#45;&gt;Node13 -->
<g id="edge13" class="edge">
<title>Node0&#45;&gt;Node13</title>
<path fill="none" stroke="#191970" d="M736.9202,-58.4966C753.946,-49.5194 778.6692,-36.4835 797.9093,-26.3387"/>
<polygon fill="#191970" stroke="#191970" points="799.6431,-29.3814 806.8563,-21.6212 796.3782,-23.1894 799.6431,-29.3814"/>
</g>
<!-- Node14 -->
<g id="node15" class="node">
<title>Node14</title>
<polygon fill="#ffffff" stroke="#bfbfbf" points="867,-.5 867,-21.5 905,-21.5 905,-.5 867,-.5"/>
<text text-anchor="middle" x="886" y="-7.9" font-family="Helvetica,sans-Serif" font-size="12.00" fill="#000000">ctime</text>
</g>
<!-- Node0&#45;&gt;Node14 -->
<g id="edge14" class="edge">
<title>Node0&#45;&gt;Node14</title>
<path fill="none" stroke="#191970" d="M750.2175,-58.4724C776.8818,-49.9011 815.4683,-37.2289 857.2419,-22.1658"/>
<polygon fill="#191970" stroke="#191970" points="858.5646,-25.4092 866.7708,-18.7079 856.1767,-18.8291 858.5646,-25.4092"/>
</g>
<!-- Node15 -->
<g id="node16" class="node">
<title>Node15</title>
<polygon fill="#ffffff" stroke="#bfbfbf" points="923.5,-.5 923.5,-21.5 966.5,-21.5 966.5,-.5 923.5,-.5"/>
<text text-anchor="middle" x="945" y="-7.9" font-family="Helvetica,sans-Serif" font-size="12.00" fill="#000000">cstdint</text>
</g>
<!-- Node0&#45;&gt;Node15 -->
<g id="edge15" class="edge">
<title>Node0&#45;&gt;Node15</title>
<path fill="none" stroke="#191970" d="M756.5729,-60.8608C794.5543,-52.7606 853.6671,-39.4016 913.7656,-21.844"/>
<polygon fill="#191970" stroke="#191970" points="914.8194,-25.1823 923.4164,-18.9903 912.8344,-18.4696 914.8194,-25.1823"/>
</g>
<!-- Node16 -->
<g id="node17" class="node">
<title>Node16</title>
<polygon fill="#ffffff" stroke="#bfbfbf" points="985,-.5 985,-21.5 1043,-21.5 1043,-.5 985,-.5"/>
<text text-anchor="middle" x="1014" y="-7.9" font-family="Helvetica,sans-Serif" font-size="12.00" fill="#000000">type_traits</text>
</g>
<!-- Node0&#45;&gt;Node16 -->
<g id="edge16" class="edge">
<title>Node0&#45;&gt;Node16</title>
<path fill="none" stroke="#191970" d="M756.7507,-63.0815C805.8669,-55.4843 892.1429,-41.214 974.819,-22.1174"/>
<polygon fill="#191970" stroke="#191970" points="975.679,-25.5108 984.6199,-19.8265 974.0857,-18.6945 975.679,-25.5108"/>
</g>
<!-- Node17 -->
<g id="node18" class="node">
<title>Node17</title>
<polygon fill="#ffffff" stroke="#bfbfbf" points="1061,-.5 1061,-21.5 1147,-21.5 1147,-.5 1061,-.5"/>
<text text-anchor="middle" x="1104" y="-7.9" font-family="Helvetica,sans-Serif" font-size="12.00" fill="#000000">cereal/cereal.hpp</text>
</g>
<!-- Node0&#45;&gt;Node17 -->
<g id="edge17" class="edge">
<title>Node0&#45;&gt;Node17</title>
<path fill="none" stroke="#191970" d="M756.5907,-64.3447C817.5739,-56.9778 938.3672,-41.6098 1050.7625,-22.1287"/>
<polygon fill="#191970" stroke="#191970" points="1051.6666,-25.5238 1060.9143,-20.3537 1050.4609,-18.6284 1051.6666,-25.5238"/>
</g>
<!-- Node18 -->
<g id="node19" class="node">
<title>Node18</title>
<polygon fill="#ffffff" stroke="#bfbfbf" points="1165.5,-.5 1165.5,-21.5 1278.5,-21.5 1278.5,-.5 1165.5,-.5"/>
<text text-anchor="middle" x="1222" y="-7.9" font-family="Helvetica,sans-Serif" font-size="12.00" fill="#000000">cereal/types/chrono.hpp</text>
</g>
<!-- Node0&#45;&gt;Node18 -->
<g id="edge18" class="edge">
<title>Node0&#45;&gt;Node18</title>
<path fill="none" stroke="#191970" d="M756.7446,-65.5301C832.2316,-58.7698 1001.7489,-42.7757 1155.0756,-22.0629"/>
<polygon fill="#191970" stroke="#191970" points="1155.7137,-25.5084 1165.1504,-20.6918 1154.7697,-18.5723 1155.7137,-25.5084"/>
</g>
<!-- Node19 -->
<g id="node20" class="node">
<title>Node19</title>
<polygon fill="#ffffff" stroke="#bfbfbf" points="1297,-.5 1297,-21.5 1407,-21.5 1407,-.5 1297,-.5"/>
<text text-anchor="middle" x="1352" y="-7.9" font-family="Helvetica,sans-Serif" font-size="12.00" fill="#000000">cereal/types/deque.hpp</text>
</g>
<!-- Node0&#45;&gt;Node19 -->
<g id="edge19" class="edge">
<title>Node0&#45;&gt;Node19</title>
<path fill="none" stroke="#191970" d="M756.5837,-66.9457C848.084,-61.9389 1081.4838,-47.6898 1286.8229,-22.058"/>
<polygon fill="#191970" stroke="#191970" points="1287.4043,-25.5125 1296.8882,-20.7895 1286.529,-18.5674 1287.4043,-25.5125"/>
</g>
<!-- Node20 -->
<g id="node21" class="node">
<title>Node20</title>
<polygon fill="#ffffff" stroke="#bfbfbf" points="1425.5,-.5 1425.5,-21.5 1514.5,-21.5 1514.5,-.5 1425.5,-.5"/>
<text text-anchor="middle" x="1470" y="-7.9" font-family="Helvetica,sans-Serif" font-size="12.00" fill="#000000">cereal/access.hpp</text>
</g>
<!-- Node0&#45;&gt;Node20 -->
<g id="edge20" class="edge">
<title>Node0&#45;&gt;Node20</title>
<path fill="none" stroke="#191970" d="M756.5995,-68.1916C862.0521,-65.6446 1158.5323,-55.9092 1415.0311,-21.9612"/>
<polygon fill="#191970" stroke="#191970" points="1415.8424,-25.3838 1425.2894,-20.5875 1414.9133,-18.4458 1415.8424,-25.3838"/>
</g>
<!-- Node21 -->
<g id="node22" class="node">
<title>Node21</title>
<g id="a_node22"><a xlink:href="namespace_8hpp.html" target="_top" xlink:title="timemory/namespace.hpp">
<polygon fill="#ffffff" stroke="#000000" points="1533,-.5 1533,-21.5 1653,-21.5 1653,-.5 1533,-.5"/>
<text text-anchor="middle" x="1593" y="-7.9" font-family="Helvetica,sans-Serif" font-size="12.00" fill="#000000">timemory/namespace.hpp</text>
</a>
</g>
</g>
<!-- Node0&#45;&gt;Node21 -->
<g id="edge21" class="edge">
<title>Node0&#45;&gt;Node21</title>
<path fill="none" stroke="#191970" d="M756.5834,-68.0951C872.6533,-65.1443 1222.3329,-54.1333 1522.6242,-22.0552"/>
<polygon fill="#191970" stroke="#191970" points="1523.2697,-25.5059 1532.8368,-20.954 1522.5192,-18.5463 1523.2697,-25.5059"/>
</g>
</g>
</svg>
