<?xml version="1.0" encoding="UTF-8" standalone="no"?>
<!DOCTYPE svg PUBLIC "-//W3C//DTD SVG 1.1//EN"
 "http://www.w3.org/Graphics/SVG/1.1/DTD/svg11.dtd">
<!-- Generated by graphviz version 2.40.1 (20161225.0304)
 -->
<!-- Title: NAME_TIM::util::base_clock&lt; _precision &gt; Pages: 1 -->
<svg width="112pt" height="198pt"
 viewBox="0.00 0.00 112.00 198.00" xmlns="http://www.w3.org/2000/svg" xmlns:xlink="http://www.w3.org/1999/xlink">
<g id="graph0" class="graph" transform="scale(1 1) rotate(0) translate(4 194)">
<title>NAME_TIM::util::base_clock&lt; _precision &gt;</title>
<polygon fill="#ffffff" stroke="transparent" points="-4,4 -4,-194 108,-194 108,4 -4,4"/>
<!-- Node1 -->
<g id="node1" class="node">
<title>Node1</title>
<polygon fill="#bfbfbf" stroke="#000000" points="0,-.5 0,-76.5 104,-76.5 104,-.5 0,-.5"/>
<text text-anchor="start" x="8" y="-62.9" font-family="Helvetica,sans-Serif" font-size="12.00" fill="#000000">NAME_TIM::util::base</text>
<text text-anchor="middle" x="52" y="-49.9" font-family="Helvetica,sans-Serif" font-size="12.00" fill="#000000">_clock&lt; _precision &gt;</text>
<polyline fill="none" stroke="#000000" points="0,-42.5 104,-42.5 "/>
<text text-anchor="middle" x="52" y="-28.9" font-family="Helvetica,sans-Serif" font-size="12.00" fill="#000000"> </text>
<polyline fill="none" stroke="#000000" points="0,-21.5 104,-21.5 "/>
<text text-anchor="start" x="8" y="-7.9" font-family="Helvetica,sans-Serif" font-size="12.00" fill="#000000">+ now()</text>
</g>
<!-- Node2 -->
<g id="node2" class="node">
<title>Node2</title>
<polygon fill="#ffffff" stroke="#bfbfbf" points="35,-126.5 35,-189.5 69,-189.5 69,-126.5 35,-126.5"/>
<text text-anchor="middle" x="52" y="-175.9" font-family="Helvetica,sans-Serif" font-size="12.00" fill="#000000">bool</text>
<polyline fill="none" stroke="#bfbfbf" points="35,-168.5 69,-168.5 "/>
<text text-anchor="middle" x="52" y="-154.9" font-family="Helvetica,sans-Serif" font-size="12.00" fill="#000000"> </text>
<polyline fill="none" stroke="#bfbfbf" points="35,-147.5 69,-147.5 "/>
<text text-anchor="middle" x="52" y="-133.9" font-family="Helvetica,sans-Serif" font-size="12.00" fill="#000000"> </text>
</g>
<!-- Node2&#45;&gt;Node1 -->
<g id="edge1" class="edge">
<title>Node2&#45;&gt;Node1</title>
<path fill="none" stroke="#404040" d="M52,-126.2899C52,-114.8809 52,-101.708 52,-89.0928"/>
<polygon fill="none" stroke="#404040" points="52.0001,-88.7496 48,-82.7497 52,-76.7496 56,-82.7496 52.0001,-88.7496"/>
<text text-anchor="middle" x="75" y="-98.4" font-family="Helvetica,sans-Serif" font-size="12.00" fill="#000000"> +is_steady</text>
</g>
</g>
</svg>
