<?xml version="1.0" encoding="UTF-8" standalone="no"?>
<!DOCTYPE svg PUBLIC "-//W3C//DTD SVG 1.1//EN"
 "http://www.w3.org/Graphics/SVG/1.1/DTD/svg11.dtd">
<!-- Generated by graphviz version 2.40.1 (20161225.0304)
 -->
<!-- Title: NAME_TIM::signal_settings Pages: 1 -->
<svg width="309pt" height="480pt"
 viewBox="0.00 0.00 309.00 480.00" xmlns="http://www.w3.org/2000/svg" xmlns:xlink="http://www.w3.org/1999/xlink">
<g id="graph0" class="graph" transform="scale(1 1) rotate(0) translate(4 476)">
<title>NAME_TIM::signal_settings</title>
<polygon fill="#ffffff" stroke="transparent" points="-4,4 -4,-476 305,-476 305,4 -4,4"/>
<!-- Node1 -->
<g id="node1" class="node">
<title>Node1</title>
<polygon fill="#bfbfbf" stroke="#000000" points="92,-.5 92,-219.5 220,-219.5 220,-.5 92,-.5"/>
<text text-anchor="middle" x="156" y="-205.9" font-family="Helvetica,sans-Serif" font-size="12.00" fill="#000000">NAME_TIM::signal_settings</text>
<polyline fill="none" stroke="#000000" points="92,-198.5 220,-198.5 "/>
<text text-anchor="middle" x="156" y="-184.9" font-family="Helvetica,sans-Serif" font-size="12.00" fill="#000000"> </text>
<polyline fill="none" stroke="#000000" points="92,-177.5 220,-177.5 "/>
<text text-anchor="start" x="100" y="-163.9" font-family="Helvetica,sans-Serif" font-size="12.00" fill="#000000">+ is_active()</text>
<text text-anchor="start" x="100" y="-150.9" font-family="Helvetica,sans-Serif" font-size="12.00" fill="#000000">+ set_active()</text>
<text text-anchor="start" x="100" y="-137.9" font-family="Helvetica,sans-Serif" font-size="12.00" fill="#000000">+ enable()</text>
<text text-anchor="start" x="100" y="-124.9" font-family="Helvetica,sans-Serif" font-size="12.00" fill="#000000">+ disable()</text>
<text text-anchor="start" x="100" y="-111.9" font-family="Helvetica,sans-Serif" font-size="12.00" fill="#000000">+ str()</text>
<text text-anchor="start" x="100" y="-98.9" font-family="Helvetica,sans-Serif" font-size="12.00" fill="#000000">+ str()</text>
<text text-anchor="start" x="100" y="-85.9" font-family="Helvetica,sans-Serif" font-size="12.00" fill="#000000">+ check_environment()</text>
<text text-anchor="start" x="100" y="-72.9" font-family="Helvetica,sans-Serif" font-size="12.00" fill="#000000">+ set_exit_action()</text>
<text text-anchor="start" x="100" y="-59.9" font-family="Helvetica,sans-Serif" font-size="12.00" fill="#000000">+ exit_action()</text>
<text text-anchor="start" x="100" y="-46.9" font-family="Helvetica,sans-Serif" font-size="12.00" fill="#000000">+ enabled()</text>
<text text-anchor="start" x="100" y="-33.9" font-family="Helvetica,sans-Serif" font-size="12.00" fill="#000000">+ disabled()</text>
<text text-anchor="start" x="100" y="-20.9" font-family="Helvetica,sans-Serif" font-size="12.00" fill="#000000">+ get_enabled()</text>
<text text-anchor="start" x="100" y="-7.9" font-family="Helvetica,sans-Serif" font-size="12.00" fill="#000000">+ get_disabled()</text>
</g>
<!-- Node2 -->
<g id="node2" class="node">
<title>Node2</title>
<polygon fill="#ffffff" stroke="#bfbfbf" points="0,-295.5 0,-358.5 108,-358.5 108,-295.5 0,-295.5"/>
<text text-anchor="middle" x="54" y="-344.9" font-family="Helvetica,sans-Serif" font-size="12.00" fill="#000000">static signal_function_t</text>
<polyline fill="none" stroke="#bfbfbf" points="0,-337.5 108,-337.5 "/>
<text text-anchor="middle" x="54" y="-323.9" font-family="Helvetica,sans-Serif" font-size="12.00" fill="#000000"> </text>
<polyline fill="none" stroke="#bfbfbf" points="0,-316.5 108,-316.5 "/>
<text text-anchor="middle" x="54" y="-302.9" font-family="Helvetica,sans-Serif" font-size="12.00" fill="#000000"> </text>
</g>
<!-- Node2&#45;&gt;Node1 -->
<g id="edge1" class="edge">
<title>Node2&#45;&gt;Node1</title>
<path fill="none" stroke="#404040" d="M59.7594,-295.352C63.5109,-278.0006 69.1778,-256.3512 77,-238 79.7879,-231.4595 82.8764,-224.8623 86.1699,-218.2946"/>
<polygon fill="none" stroke="#404040" points="86.3575,-217.9334 85.5739,-210.765 91.8896,-207.2846 92.6731,-214.453 86.3575,-217.9334"/>
<text text-anchor="middle" x="114.5" y="-254.4" font-family="Helvetica,sans-Serif" font-size="12.00" fill="#000000"> &#45;signals_exit_func</text>
</g>
<!-- Node3 -->
<g id="node3" class="node">
<title>Node3</title>
<g id="a_node3"><a xlink:title="STL class. ">
<polygon fill="#ffffff" stroke="#bfbfbf" points="126.5,-295.5 126.5,-358.5 193.5,-358.5 193.5,-295.5 126.5,-295.5"/>
<text text-anchor="middle" x="160" y="-344.9" font-family="Helvetica,sans-Serif" font-size="12.00" fill="#000000">std::set&lt; K &gt;</text>
<polyline fill="none" stroke="#bfbfbf" points="126.5,-337.5 193.5,-337.5 "/>
<text text-anchor="middle" x="160" y="-323.9" font-family="Helvetica,sans-Serif" font-size="12.00" fill="#000000"> </text>
<polyline fill="none" stroke="#bfbfbf" points="126.5,-316.5 193.5,-316.5 "/>
<text text-anchor="middle" x="160" y="-302.9" font-family="Helvetica,sans-Serif" font-size="12.00" fill="#000000"> </text>
</a>
</g>
</g>
<!-- Node3&#45;&gt;Node1 -->
<g id="edge2" class="edge">
<title>Node3&#45;&gt;Node1</title>
<path fill="none" stroke="#404040" d="M157.8378,-295.2715C157.4979,-289.2084 157.1949,-282.9102 157,-277 156.5175,-262.3662 156.1865,-247.0073 155.9659,-231.7788"/>
<polygon fill="none" stroke="#404040" points="155.9639,-231.6092 151.8882,-225.6604 155.8119,-219.6102 159.8876,-225.5591 155.9639,-231.6092"/>
<text text-anchor="middle" x="192" y="-267.4" font-family="Helvetica,sans-Serif" font-size="12.00" fill="#000000"> &#45;signals_default</text>
<text text-anchor="middle" x="192" y="-254.4" font-family="Helvetica,sans-Serif" font-size="12.00" fill="#000000">&#45;signals_enabled</text>
<text text-anchor="middle" x="192" y="-241.4" font-family="Helvetica,sans-Serif" font-size="12.00" fill="#000000">&#45;signals_disabled</text>
</g>
<!-- Node4 -->
<g id="node4" class="node">
<title>Node4</title>
<polygon fill="#ffffff" stroke="#bfbfbf" points="145.5,-408.5 145.5,-471.5 174.5,-471.5 174.5,-408.5 145.5,-408.5"/>
<text text-anchor="middle" x="160" y="-457.9" font-family="Helvetica,sans-Serif" font-size="12.00" fill="#000000">K</text>
<polyline fill="none" stroke="#bfbfbf" points="145.5,-450.5 174.5,-450.5 "/>
<text text-anchor="middle" x="160" y="-436.9" font-family="Helvetica,sans-Serif" font-size="12.00" fill="#000000"> </text>
<polyline fill="none" stroke="#bfbfbf" points="145.5,-429.5 174.5,-429.5 "/>
<text text-anchor="middle" x="160" y="-415.9" font-family="Helvetica,sans-Serif" font-size="12.00" fill="#000000"> </text>
</g>
<!-- Node4&#45;&gt;Node3 -->
<g id="edge3" class="edge">
<title>Node4&#45;&gt;Node3</title>
<path fill="none" stroke="#404040" d="M160,-408.2225C160,-396.5703 160,-383.1706 160,-370.6581"/>
<polygon fill="none" stroke="#404040" points="160.0001,-370.539 156,-364.539 160,-358.539 164,-364.539 160.0001,-370.539"/>
<text text-anchor="middle" x="173.5" y="-380.4" font-family="Helvetica,sans-Serif" font-size="12.00" fill="#000000"> +keys</text>
</g>
<!-- Node5 -->
<g id="node5" class="node">
<title>Node5</title>
<polygon fill="#ffffff" stroke="#bfbfbf" points="220.5,-295.5 220.5,-358.5 277.5,-358.5 277.5,-295.5 220.5,-295.5"/>
<text text-anchor="middle" x="249" y="-344.9" font-family="Helvetica,sans-Serif" font-size="12.00" fill="#000000">static bool</text>
<polyline fill="none" stroke="#bfbfbf" points="220.5,-337.5 277.5,-337.5 "/>
<text text-anchor="middle" x="249" y="-323.9" font-family="Helvetica,sans-Serif" font-size="12.00" fill="#000000"> </text>
<polyline fill="none" stroke="#bfbfbf" points="220.5,-316.5 277.5,-316.5 "/>
<text text-anchor="middle" x="249" y="-302.9" font-family="Helvetica,sans-Serif" font-size="12.00" fill="#000000"> </text>
</g>
<!-- Node5&#45;&gt;Node1 -->
<g id="edge4" class="edge">
<title>Node5&#45;&gt;Node1</title>
<path fill="none" stroke="#404040" d="M243.329,-295.4826C239.6915,-278.1707 234.2758,-256.5175 227,-238 226.0743,-235.6441 225.1132,-233.2777 224.1207,-230.9052"/>
<polygon fill="none" stroke="#404040" points="224.063,-230.7728 217.9971,-226.8735 219.2635,-219.7744 225.3294,-223.6738 224.063,-230.7728"/>
<text text-anchor="middle" x="269.5" y="-254.4" font-family="Helvetica,sans-Serif" font-size="12.00" fill="#000000"> &#45;signals_active</text>
</g>
</g>
</svg>
