<?xml version="1.0" encoding="UTF-8" standalone="no"?>
<!DOCTYPE svg PUBLIC "-//W3C//DTD SVG 1.1//EN"
 "http://www.w3.org/Graphics/SVG/1.1/DTD/svg11.dtd">
<!-- Generated by graphviz version 2.40.1 (20161225.0304)
 -->
<!-- Title: NAME_TIM::util::details::base_timer_data Pages: 1 -->
<svg width="285pt" height="840pt"
 viewBox="0.00 0.00 284.50 840.00" xmlns="http://www.w3.org/2000/svg" xmlns:xlink="http://www.w3.org/1999/xlink">
<g id="graph0" class="graph" transform="scale(1 1) rotate(0) translate(4 836)">
<title>NAME_TIM::util::details::base_timer_data</title>
<polygon fill="#ffffff" stroke="transparent" points="-4,4 -4,-836 280.5,-836 280.5,4 -4,4"/>
<!-- Node1 -->
<g id="node1" class="node">
<title>Node1</title>
<polygon fill="#bfbfbf" stroke="#000000" points="121,-.5 121,-206.5 232,-206.5 232,-.5 121,-.5"/>
<text text-anchor="start" x="129" y="-192.9" font-family="Helvetica,sans-Serif" font-size="12.00" fill="#000000">NAME_TIM::util::details</text>
<text text-anchor="middle" x="176.5" y="-179.9" font-family="Helvetica,sans-Serif" font-size="12.00" fill="#000000">::base_timer_data</text>
<polyline fill="none" stroke="#000000" points="121,-172.5 232,-172.5 "/>
<text text-anchor="middle" x="176.5" y="-158.9" font-family="Helvetica,sans-Serif" font-size="12.00" fill="#000000"> </text>
<polyline fill="none" stroke="#000000" points="121,-151.5 232,-151.5 "/>
<text text-anchor="start" x="129" y="-137.9" font-family="Helvetica,sans-Serif" font-size="12.00" fill="#000000">+ base_timer_data()</text>
<text text-anchor="start" x="129" y="-124.9" font-family="Helvetica,sans-Serif" font-size="12.00" fill="#000000">+ start()</text>
<text text-anchor="start" x="129" y="-111.9" font-family="Helvetica,sans-Serif" font-size="12.00" fill="#000000">+ stop()</text>
<text text-anchor="start" x="129" y="-98.9" font-family="Helvetica,sans-Serif" font-size="12.00" fill="#000000">+ start()</text>
<text text-anchor="start" x="129" y="-85.9" font-family="Helvetica,sans-Serif" font-size="12.00" fill="#000000">+ stop()</text>
<text text-anchor="start" x="129" y="-72.9" font-family="Helvetica,sans-Serif" font-size="12.00" fill="#000000">+ running()</text>
<text text-anchor="start" x="129" y="-59.9" font-family="Helvetica,sans-Serif" font-size="12.00" fill="#000000">+ serialize()</text>
<text text-anchor="start" x="129" y="-46.9" font-family="Helvetica,sans-Serif" font-size="12.00" fill="#000000">+ rss_init()</text>
<text text-anchor="start" x="129" y="-33.9" font-family="Helvetica,sans-Serif" font-size="12.00" fill="#000000">+ rss_record()</text>
<text text-anchor="start" x="129" y="-20.9" font-family="Helvetica,sans-Serif" font-size="12.00" fill="#000000">+ rss()</text>
<text text-anchor="start" x="129" y="-7.9" font-family="Helvetica,sans-Serif" font-size="12.00" fill="#000000">+ rss()</text>
</g>
<!-- Node2 -->
<g id="node2" class="node">
<title>Node2</title>
<g id="a_node2"><a xlink:href="class_n_a_m_e___t_i_m_1_1util_1_1details_1_1base__rss__usage.html" target="_top" xlink:title="{NAME_TIM::util::details\l::base_rss_usage\n||+ init()\l+ record()\l+ total()\l+ self()\l+ total()\l+ self()\l+ max()\l}">
<polygon fill="#ffffff" stroke="#000000" points="0,-256.5 0,-410.5 111,-410.5 111,-256.5 0,-256.5"/>
<text text-anchor="start" x="8" y="-396.9" font-family="Helvetica,sans-Serif" font-size="12.00" fill="#000000">NAME_TIM::util::details</text>
<text text-anchor="middle" x="55.5" y="-383.9" font-family="Helvetica,sans-Serif" font-size="12.00" fill="#000000">::base_rss_usage</text>
<polyline fill="none" stroke="#000000" points="0,-376.5 111,-376.5 "/>
<text text-anchor="middle" x="55.5" y="-362.9" font-family="Helvetica,sans-Serif" font-size="12.00" fill="#000000"> </text>
<polyline fill="none" stroke="#000000" points="0,-355.5 111,-355.5 "/>
<text text-anchor="start" x="8" y="-341.9" font-family="Helvetica,sans-Serif" font-size="12.00" fill="#000000">+ init()</text>
<text text-anchor="start" x="8" y="-328.9" font-family="Helvetica,sans-Serif" font-size="12.00" fill="#000000">+ record()</text>
<text text-anchor="start" x="8" y="-315.9" font-family="Helvetica,sans-Serif" font-size="12.00" fill="#000000">+ total()</text>
<text text-anchor="start" x="8" y="-302.9" font-family="Helvetica,sans-Serif" font-size="12.00" fill="#000000">+ self()</text>
<text text-anchor="start" x="8" y="-289.9" font-family="Helvetica,sans-Serif" font-size="12.00" fill="#000000">+ total()</text>
<text text-anchor="start" x="8" y="-276.9" font-family="Helvetica,sans-Serif" font-size="12.00" fill="#000000">+ self()</text>
<text text-anchor="start" x="8" y="-263.9" font-family="Helvetica,sans-Serif" font-size="12.00" fill="#000000">+ max()</text>
</a>
</g>
</g>
<!-- Node2&#45;&gt;Node1 -->
<g id="edge1" class="edge">
<title>Node2&#45;&gt;Node1</title>
<path fill="none" stroke="#404040" d="M96.1279,-256.2735C102.6716,-243.835 109.5643,-230.7332 116.4492,-217.6461"/>
<polygon fill="none" stroke="#404040" points="116.6358,-217.2914 115.8893,-210.119 122.2229,-206.6714 122.9694,-213.8437 116.6358,-217.2914"/>
<text text-anchor="middle" x="129" y="-228.4" font-family="Helvetica,sans-Serif" font-size="12.00" fill="#000000"> #m_rss</text>
</g>
<!-- Node3 -->
<g id="node3" class="node">
<title>Node3</title>
<g id="a_node3"><a xlink:href="struct_n_a_m_e___t_i_m_1_1rss_1_1usage.html" target="_top" xlink:title="{NAME_TIM::rss::usage\n||+ usage()\l+ usage()\l+ usage()\l+ operator=()\l+ record()\l+ record()\l+ operator()()\l+ operator&#45;=()\l+ current()\l+ peak()\l+ serialize()\l+ max()\l+ min()\l}">
<polygon fill="#ffffff" stroke="#000000" points=".5,-486.5 .5,-705.5 110.5,-705.5 110.5,-486.5 .5,-486.5"/>
<text text-anchor="middle" x="55.5" y="-691.9" font-family="Helvetica,sans-Serif" font-size="12.00" fill="#000000">NAME_TIM::rss::usage</text>
<polyline fill="none" stroke="#000000" points=".5,-684.5 110.5,-684.5 "/>
<text text-anchor="middle" x="55.5" y="-670.9" font-family="Helvetica,sans-Serif" font-size="12.00" fill="#000000"> </text>
<polyline fill="none" stroke="#000000" points=".5,-663.5 110.5,-663.5 "/>
<text text-anchor="start" x="8.5" y="-649.9" font-family="Helvetica,sans-Serif" font-size="12.00" fill="#000000">+ usage()</text>
<text text-anchor="start" x="8.5" y="-636.9" font-family="Helvetica,sans-Serif" font-size="12.00" fill="#000000">+ usage()</text>
<text text-anchor="start" x="8.5" y="-623.9" font-family="Helvetica,sans-Serif" font-size="12.00" fill="#000000">+ usage()</text>
<text text-anchor="start" x="8.5" y="-610.9" font-family="Helvetica,sans-Serif" font-size="12.00" fill="#000000">+ operator=()</text>
<text text-anchor="start" x="8.5" y="-597.9" font-family="Helvetica,sans-Serif" font-size="12.00" fill="#000000">+ record()</text>
<text text-anchor="start" x="8.5" y="-584.9" font-family="Helvetica,sans-Serif" font-size="12.00" fill="#000000">+ record()</text>
<text text-anchor="start" x="8.5" y="-571.9" font-family="Helvetica,sans-Serif" font-size="12.00" fill="#000000">+ operator()()</text>
<text text-anchor="start" x="8.5" y="-558.9" font-family="Helvetica,sans-Serif" font-size="12.00" fill="#000000">+ operator&#45;=()</text>
<text text-anchor="start" x="8.5" y="-545.9" font-family="Helvetica,sans-Serif" font-size="12.00" fill="#000000">+ current()</text>
<text text-anchor="start" x="8.5" y="-532.9" font-family="Helvetica,sans-Serif" font-size="12.00" fill="#000000">+ peak()</text>
<text text-anchor="start" x="8.5" y="-519.9" font-family="Helvetica,sans-Serif" font-size="12.00" fill="#000000">+ serialize()</text>
<text text-anchor="start" x="8.5" y="-506.9" font-family="Helvetica,sans-Serif" font-size="12.00" fill="#000000">+ max()</text>
<text text-anchor="start" x="8.5" y="-493.9" font-family="Helvetica,sans-Serif" font-size="12.00" fill="#000000">+ min()</text>
</a>
</g>
</g>
<!-- Node3&#45;&gt;Node2 -->
<g id="edge2" class="edge">
<title>Node3&#45;&gt;Node2</title>
<path fill="none" stroke="#404040" d="M55.5,-486.1973C55.5,-465.0396 55.5,-443.1176 55.5,-422.7114"/>
<polygon fill="none" stroke="#404040" points="55.5001,-422.5568 51.5,-416.5569 55.5,-410.5568 59.5,-416.5568 55.5001,-422.5568"/>
<text text-anchor="middle" x="82" y="-458.4" font-family="Helvetica,sans-Serif" font-size="12.00" fill="#000000"> #m_rss_tmp</text>
<text text-anchor="middle" x="82" y="-445.4" font-family="Helvetica,sans-Serif" font-size="12.00" fill="#000000">#m_rss_self</text>
<text text-anchor="middle" x="82" y="-432.4" font-family="Helvetica,sans-Serif" font-size="12.00" fill="#000000">#m_rss_tot</text>
</g>
<!-- Node4 -->
<g id="node4" class="node">
<title>Node4</title>
<polygon fill="#ffffff" stroke="#bfbfbf" points="33.5,-768.5 33.5,-831.5 77.5,-831.5 77.5,-768.5 33.5,-768.5"/>
<text text-anchor="middle" x="55.5" y="-817.9" font-family="Helvetica,sans-Serif" font-size="12.00" fill="#000000">int64_t</text>
<polyline fill="none" stroke="#bfbfbf" points="33.5,-810.5 77.5,-810.5 "/>
<text text-anchor="middle" x="55.5" y="-796.9" font-family="Helvetica,sans-Serif" font-size="12.00" fill="#000000"> </text>
<polyline fill="none" stroke="#bfbfbf" points="33.5,-789.5 77.5,-789.5 "/>
<text text-anchor="middle" x="55.5" y="-775.9" font-family="Helvetica,sans-Serif" font-size="12.00" fill="#000000"> </text>
</g>
<!-- Node4&#45;&gt;Node3 -->
<g id="edge3" class="edge">
<title>Node4&#45;&gt;Node3</title>
<path fill="none" stroke="#404040" d="M55.5,-768.125C55.5,-754.0605 55.5,-736.5484 55.5,-718.124"/>
<polygon fill="none" stroke="#404040" points="55.5001,-717.9119 51.5,-711.9119 55.5,-705.9119 59.5,-711.9118 55.5001,-717.9119"/>
<text text-anchor="middle" x="83" y="-740.4" font-family="Helvetica,sans-Serif" font-size="12.00" fill="#000000"> +m_curr_rss</text>
<text text-anchor="middle" x="83" y="-727.4" font-family="Helvetica,sans-Serif" font-size="12.00" fill="#000000">+m_peak_rss</text>
</g>
<!-- Node5 -->
<g id="node5" class="node">
<title>Node5</title>
<polygon fill="#ffffff" stroke="#bfbfbf" points="129,-295.5 129,-371.5 224,-371.5 224,-295.5 129,-295.5"/>
<text text-anchor="start" x="137" y="-357.9" font-family="Helvetica,sans-Serif" font-size="12.00" fill="#000000">tuple&lt; time_point_t,</text>
<text text-anchor="middle" x="176.5" y="-344.9" font-family="Helvetica,sans-Serif" font-size="12.00" fill="#000000"> time_point_t &gt;</text>
<polyline fill="none" stroke="#bfbfbf" points="129,-337.5 224,-337.5 "/>
<text text-anchor="middle" x="176.5" y="-323.9" font-family="Helvetica,sans-Serif" font-size="12.00" fill="#000000"> </text>
<polyline fill="none" stroke="#bfbfbf" points="129,-316.5 224,-316.5 "/>
<text text-anchor="middle" x="176.5" y="-302.9" font-family="Helvetica,sans-Serif" font-size="12.00" fill="#000000"> </text>
</g>
<!-- Node5&#45;&gt;Node1 -->
<g id="edge4" class="edge">
<title>Node5&#45;&gt;Node1</title>
<path fill="none" stroke="#404040" d="M176.5,-295.262C176.5,-274.1205 176.5,-246.609 176.5,-219.0551"/>
<polygon fill="none" stroke="#404040" points="176.5001,-218.8403 172.5,-212.8404 176.5,-206.8403 180.5,-212.8403 176.5001,-218.8403"/>
<text text-anchor="middle" x="195.5" y="-228.4" font-family="Helvetica,sans-Serif" font-size="12.00" fill="#000000"> #m_data</text>
</g>
<!-- Node6 -->
<g id="node6" class="node">
<title>Node6</title>
<polygon fill="#ffffff" stroke="#bfbfbf" points="242.5,-302 242.5,-365 276.5,-365 276.5,-302 242.5,-302"/>
<text text-anchor="middle" x="259.5" y="-351.4" font-family="Helvetica,sans-Serif" font-size="12.00" fill="#000000">bool</text>
<polyline fill="none" stroke="#bfbfbf" points="242.5,-344 276.5,-344 "/>
<text text-anchor="middle" x="259.5" y="-330.4" font-family="Helvetica,sans-Serif" font-size="12.00" fill="#000000"> </text>
<polyline fill="none" stroke="#bfbfbf" points="242.5,-323 276.5,-323 "/>
<text text-anchor="middle" x="259.5" y="-309.4" font-family="Helvetica,sans-Serif" font-size="12.00" fill="#000000"> </text>
</g>
<!-- Node6&#45;&gt;Node1 -->
<g id="edge5" class="edge">
<title>Node6&#45;&gt;Node1</title>
<path fill="none" stroke="#404040" d="M249.1165,-301.7428C244.4515,-287.688 238.811,-270.9813 233.5,-256 229.1616,-243.7622 224.5447,-231.0059 219.8891,-218.3112"/>
<polygon fill="none" stroke="#404040" points="219.7554,-217.9479 213.9288,-213.6993 215.6095,-206.6868 221.4362,-210.9354 219.7554,-217.9479"/>
<text text-anchor="middle" x="251" y="-228.4" font-family="Helvetica,sans-Serif" font-size="12.00" fill="#000000"> #m_running</text>
</g>
</g>
</svg>
