<?xml version="1.0" encoding="UTF-8" standalone="no"?>
<!DOCTYPE svg PUBLIC "-//W3C//DTD SVG 1.1//EN"
 "http://www.w3.org/Graphics/SVG/1.1/DTD/svg11.dtd">
<!-- Generated by graphviz version 2.40.1 (20161225.0304)
 -->
<!-- Title: examples Pages: 1 -->
<svg width="168pt" height="132pt"
 viewBox="0.00 0.00 168.00 132.00" xmlns="http://www.w3.org/2000/svg" xmlns:xlink="http://www.w3.org/1999/xlink">
<g id="graph0" class="graph" transform="scale(1 1) rotate(0) translate(4 128)">
<title>examples</title>
<polygon fill="#ffffff" stroke="transparent" points="-4,4 -4,-128 164,-128 164,4 -4,4"/>
<g id="clust1" class="cluster">
<title>clusterdir_d28a4824dc47e487b107a5db32ef43c4</title>
<g id="a_clust1"><a xlink:href="dir_d28a4824dc47e487b107a5db32ef43c4.html" target="_top">
<polygon fill="#eeeeff" stroke="#000000" points="8,-64 8,-116 152,-116 152,-64 8,-64"/>
</a>
</g>
</g>
<!-- dir_d28a4824dc47e487b107a5db32ef43c4 -->
<g id="node1" class="node">
<title>dir_d28a4824dc47e487b107a5db32ef43c4</title>
<text text-anchor="middle" x="116" y="-86.9" font-family="Helvetica,sans-Serif" font-size="12.00" fill="#000000">examples</text>
</g>
<!-- dir_44f8871e198e5901b49dec9153953d20 -->
<g id="node2" class="node">
<title>dir_44f8871e198e5901b49dec9153953d20</title>
<g id="a_node2"><a xlink:href="dir_44f8871e198e5901b49dec9153953d20.html" target="_top" xlink:title="ex1">
<polygon fill="#ffffff" stroke="#000000" points="70,-108 16,-108 16,-72 70,-72 70,-108"/>
<text text-anchor="middle" x="43" y="-86.9" font-family="Helvetica,sans-Serif" font-size="12.00" fill="#000000">ex1</text>
</a>
</g>
</g>
<!-- dir_4fd02b5fd43288e8282468be733f8250 -->
<g id="node3" class="node">
<title>dir_4fd02b5fd43288e8282468be733f8250</title>
<g id="a_node3"><a xlink:href="dir_4fd02b5fd43288e8282468be733f8250.html" target="_top" xlink:title="timemory">
<polygon fill="none" stroke="#000000" points="70,-36 16,-36 16,0 70,0 70,-36"/>
<text text-anchor="middle" x="43" y="-14.9" font-family="Helvetica,sans-Serif" font-size="12.00" fill="#000000">timemory</text>
</a>
</g>
</g>
<!-- dir_44f8871e198e5901b49dec9153953d20&#45;&gt;dir_4fd02b5fd43288e8282468be733f8250 -->
<g id="edge1" class="edge">
<title>dir_44f8871e198e5901b49dec9153953d20&#45;&gt;dir_4fd02b5fd43288e8282468be733f8250</title>
<path fill="none" stroke="#000000" d="M43,-71.8314C43,-64.131 43,-54.9743 43,-46.4166"/>
<polygon fill="#000000" stroke="#000000" points="46.5001,-46.4132 43,-36.4133 39.5001,-46.4133 46.5001,-46.4132"/>
<g id="a_edge1&#45;headlabel"><a xlink:href="dir_000001_000003.html" target="_top" xlink:title="3">
<text text-anchor="middle" x="49.3393" y="-46.9079" font-family="Helvetica,sans-Serif" font-size="12.00" fill="#000000">3</text>
</a>
</g>
</g>
</g>
</svg>
