<?xml version="1.0" encoding="UTF-8" standalone="no"?>
<!DOCTYPE svg PUBLIC "-//W3C//DTD SVG 1.1//EN"
 "http://www.w3.org/Graphics/SVG/1.1/DTD/svg11.dtd">
<!-- Generated by graphviz version 2.40.1 (20161225.0304)
 -->
<!-- Title: examples Pages: 1 -->
<svg width="312pt" height="132pt"
 viewBox="0.00 0.00 312.00 132.00" xmlns="http://www.w3.org/2000/svg" xmlns:xlink="http://www.w3.org/1999/xlink">
<g id="graph0" class="graph" transform="scale(1 1) rotate(0) translate(4 128)">
<title>examples</title>
<polygon fill="#ffffff" stroke="transparent" points="-4,4 -4,-128 308,-128 308,4 -4,4"/>
<g id="clust1" class="cluster">
<title>clusterdir_d28a4824dc47e487b107a5db32ef43c4</title>
<g id="a_clust1"><a xlink:href="dir_d28a4824dc47e487b107a5db32ef43c4.html" target="_top">
<polygon fill="#eeeeff" stroke="#000000" points="8,-64 8,-116 296,-116 296,-64 8,-64"/>
</a>
</g>
</g>
<!-- dir_d28a4824dc47e487b107a5db32ef43c4 -->
<g id="node1" class="node">
<title>dir_d28a4824dc47e487b107a5db32ef43c4</title>
<text text-anchor="middle" x="260" y="-86.9" font-family="Helvetica,sans-Serif" font-size="12.00" fill="#000000">examples</text>
</g>
<!-- dir_44f8871e198e5901b49dec9153953d20 -->
<g id="node2" class="node">
<title>dir_44f8871e198e5901b49dec9153953d20</title>
<g id="a_node2"><a xlink:href="dir_44f8871e198e5901b49dec9153953d20.html" target="_top" xlink:title="ex1">
<polygon fill="#ffffff" stroke="#000000" points="214,-108 160,-108 160,-72 214,-72 214,-108"/>
<text text-anchor="middle" x="187" y="-86.9" font-family="Helvetica,sans-Serif" font-size="12.00" fill="#000000">ex1</text>
</a>
</g>
</g>
<!-- dir_4fd02b5fd43288e8282468be733f8250 -->
<g id="node5" class="node">
<title>dir_4fd02b5fd43288e8282468be733f8250</title>
<g id="a_node5"><a xlink:href="dir_4fd02b5fd43288e8282468be733f8250.html" target="_top" xlink:title="timemory">
<polygon fill="none" stroke="#000000" points="142,-36 88,-36 88,0 142,0 142,-36"/>
<text text-anchor="middle" x="115" y="-14.9" font-family="Helvetica,sans-Serif" font-size="12.00" fill="#000000">timemory</text>
</a>
</g>
</g>
<!-- dir_44f8871e198e5901b49dec9153953d20&#45;&gt;dir_4fd02b5fd43288e8282468be733f8250 -->
<g id="edge3" class="edge">
<title>dir_44f8871e198e5901b49dec9153953d20&#45;&gt;dir_4fd02b5fd43288e8282468be733f8250</title>
<path fill="none" stroke="#000000" d="M168.8314,-71.8314C160.2848,-63.2848 149.9443,-52.9443 140.6198,-43.6198"/>
<polygon fill="#000000" stroke="#000000" points="142.9592,-41.0095 133.4133,-36.4133 138.0095,-45.9592 142.9592,-41.0095"/>
<g id="a_edge3&#45;headlabel"><a xlink:href="dir_000001_000005.html" target="_top" xlink:title="3">
<text text-anchor="middle" x="147.5087" y="-38.4436" font-family="Helvetica,sans-Serif" font-size="12.00" fill="#000000">3</text>
</a>
</g>
</g>
<!-- dir_8445256bb4c96da5294de687cd6ca62d -->
<g id="node3" class="node">
<title>dir_8445256bb4c96da5294de687cd6ca62d</title>
<g id="a_node3"><a xlink:href="dir_8445256bb4c96da5294de687cd6ca62d.html" target="_top" xlink:title="ex2">
<polygon fill="#ffffff" stroke="#000000" points="142,-108 88,-108 88,-72 142,-72 142,-108"/>
<text text-anchor="middle" x="115" y="-86.9" font-family="Helvetica,sans-Serif" font-size="12.00" fill="#000000">ex2</text>
</a>
</g>
</g>
<!-- dir_8445256bb4c96da5294de687cd6ca62d&#45;&gt;dir_4fd02b5fd43288e8282468be733f8250 -->
<g id="edge1" class="edge">
<title>dir_8445256bb4c96da5294de687cd6ca62d&#45;&gt;dir_4fd02b5fd43288e8282468be733f8250</title>
<path fill="none" stroke="#000000" d="M115,-71.8314C115,-64.131 115,-54.9743 115,-46.4166"/>
<polygon fill="#000000" stroke="#000000" points="118.5001,-46.4132 115,-36.4133 111.5001,-46.4133 118.5001,-46.4132"/>
<g id="a_edge1&#45;headlabel"><a xlink:href="dir_000003_000005.html" target="_top" xlink:title="4">
<text text-anchor="middle" x="121.3393" y="-46.9079" font-family="Helvetica,sans-Serif" font-size="12.00" fill="#000000">4</text>
</a>
</g>
</g>
<!-- dir_c1c0122b5ec894386234355c53cc5c01 -->
<g id="node4" class="node">
<title>dir_c1c0122b5ec894386234355c53cc5c01</title>
<g id="a_node4"><a xlink:href="dir_c1c0122b5ec894386234355c53cc5c01.html" target="_top" xlink:title="ex3">
<polygon fill="#ffffff" stroke="#000000" points="70,-108 16,-108 16,-72 70,-72 70,-108"/>
<text text-anchor="middle" x="43" y="-86.9" font-family="Helvetica,sans-Serif" font-size="12.00" fill="#000000">ex3</text>
</a>
</g>
</g>
<!-- dir_c1c0122b5ec894386234355c53cc5c01&#45;&gt;dir_4fd02b5fd43288e8282468be733f8250 -->
<g id="edge2" class="edge">
<title>dir_c1c0122b5ec894386234355c53cc5c01&#45;&gt;dir_4fd02b5fd43288e8282468be733f8250</title>
<path fill="none" stroke="#000000" d="M61.1686,-71.8314C69.7152,-63.2848 80.0557,-52.9443 89.3802,-43.6198"/>
<polygon fill="#000000" stroke="#000000" points="91.9905,-45.9592 96.5867,-36.4133 87.0408,-41.0095 91.9905,-45.9592"/>
<g id="a_edge2&#45;headlabel"><a xlink:href="dir_000002_000005.html" target="_top" xlink:title="3">
<text text-anchor="middle" x="91.4564" y="-47.4087" font-family="Helvetica,sans-Serif" font-size="12.00" fill="#000000">3</text>
</a>
</g>
</g>
</g>
</svg>
