<?xml version="1.0" encoding="UTF-8" standalone="no"?>
<!DOCTYPE svg PUBLIC "-//W3C//DTD SVG 1.1//EN"
 "http://www.w3.org/Graphics/SVG/1.1/DTD/svg11.dtd">
<!-- Generated by graphviz version 2.40.1 (20161225.0304)
 -->
<!-- Title: examples Pages: 1 -->
<svg width="240pt" height="132pt"
 viewBox="0.00 0.00 240.00 132.00" xmlns="http://www.w3.org/2000/svg" xmlns:xlink="http://www.w3.org/1999/xlink">
<g id="graph0" class="graph" transform="scale(1 1) rotate(0) translate(4 128)">
<title>examples</title>
<polygon fill="#ffffff" stroke="transparent" points="-4,4 -4,-128 236,-128 236,4 -4,4"/>
<g id="clust1" class="cluster">
<title>clusterdir_d28a4824dc47e487b107a5db32ef43c4</title>
<g id="a_clust1"><a xlink:href="dir_d28a4824dc47e487b107a5db32ef43c4.html" target="_top">
<polygon fill="#eeeeff" stroke="#000000" points="8,-64 8,-116 224,-116 224,-64 8,-64"/>
</a>
</g>
</g>
<!-- dir_d28a4824dc47e487b107a5db32ef43c4 -->
<g id="node1" class="node">
<title>dir_d28a4824dc47e487b107a5db32ef43c4</title>
<text text-anchor="middle" x="188" y="-86.9" font-family="Helvetica,sans-Serif" font-size="12.00" fill="#000000">examples</text>
</g>
<!-- dir_44f8871e198e5901b49dec9153953d20 -->
<g id="node2" class="node">
<title>dir_44f8871e198e5901b49dec9153953d20</title>
<g id="a_node2"><a xlink:href="dir_44f8871e198e5901b49dec9153953d20.html" target="_top" xlink:title="ex1">
<polygon fill="#ffffff" stroke="#000000" points="142,-108 88,-108 88,-72 142,-72 142,-108"/>
<text text-anchor="middle" x="115" y="-86.9" font-family="Helvetica,sans-Serif" font-size="12.00" fill="#000000">ex1</text>
</a>
</g>
</g>
<!-- dir_4fd02b5fd43288e8282468be733f8250 -->
<g id="node4" class="node">
<title>dir_4fd02b5fd43288e8282468be733f8250</title>
<g id="a_node4"><a xlink:href="dir_4fd02b5fd43288e8282468be733f8250.html" target="_top" xlink:title="timemory">
<polygon fill="none" stroke="#000000" points="106,-36 52,-36 52,0 106,0 106,-36"/>
<text text-anchor="middle" x="79" y="-14.9" font-family="Helvetica,sans-Serif" font-size="12.00" fill="#000000">timemory</text>
</a>
</g>
</g>
<!-- dir_44f8871e198e5901b49dec9153953d20&#45;&gt;dir_4fd02b5fd43288e8282468be733f8250 -->
<g id="edge2" class="edge">
<title>dir_44f8871e198e5901b49dec9153953d20&#45;&gt;dir_4fd02b5fd43288e8282468be733f8250</title>
<path fill="none" stroke="#000000" d="M105.9157,-71.8314C101.9385,-63.8771 97.1845,-54.369 92.7861,-45.5723"/>
<polygon fill="#000000" stroke="#000000" points="95.8093,-43.7923 88.2066,-36.4133 89.5483,-46.9228 95.8093,-43.7923"/>
<g id="a_edge2&#45;headlabel"><a xlink:href="dir_000001_000004.html" target="_top" xlink:title="3">
<text text-anchor="middle" x="99.9563" y="-42.6377" font-family="Helvetica,sans-Serif" font-size="12.00" fill="#000000">3</text>
</a>
</g>
</g>
<!-- dir_8445256bb4c96da5294de687cd6ca62d -->
<g id="node3" class="node">
<title>dir_8445256bb4c96da5294de687cd6ca62d</title>
<g id="a_node3"><a xlink:href="dir_8445256bb4c96da5294de687cd6ca62d.html" target="_top" xlink:title="ex2">
<polygon fill="#ffffff" stroke="#000000" points="70,-108 16,-108 16,-72 70,-72 70,-108"/>
<text text-anchor="middle" x="43" y="-86.9" font-family="Helvetica,sans-Serif" font-size="12.00" fill="#000000">ex2</text>
</a>
</g>
</g>
<!-- dir_8445256bb4c96da5294de687cd6ca62d&#45;&gt;dir_4fd02b5fd43288e8282468be733f8250 -->
<g id="edge1" class="edge">
<title>dir_8445256bb4c96da5294de687cd6ca62d&#45;&gt;dir_4fd02b5fd43288e8282468be733f8250</title>
<path fill="none" stroke="#000000" d="M52.0843,-71.8314C56.0615,-63.8771 60.8155,-54.369 65.2139,-45.5723"/>
<polygon fill="#000000" stroke="#000000" points="68.4517,-46.9228 69.7934,-36.4133 62.1907,-43.7923 68.4517,-46.9228"/>
<g id="a_edge1&#45;headlabel"><a xlink:href="dir_000002_000004.html" target="_top" xlink:title="4">
<text text-anchor="middle" x="69.3837" y="-48.3077" font-family="Helvetica,sans-Serif" font-size="12.00" fill="#000000">4</text>
</a>
</g>
</g>
</g>
</svg>
