<?xml version="1.0" encoding="UTF-8" standalone="no"?>
<!DOCTYPE svg PUBLIC "-//W3C//DTD SVG 1.1//EN"
 "http://www.w3.org/Graphics/SVG/1.1/DTD/svg11.dtd">
<!-- Generated by graphviz version 2.40.1 (20161225.0304)
 -->
<!-- Title: Graph Legend Pages: 1 -->
<svg width="486pt" height="169pt"
 viewBox="0.00 0.00 486.00 169.00" xmlns="http://www.w3.org/2000/svg" xmlns:xlink="http://www.w3.org/1999/xlink">
<g id="graph0" class="graph" transform="scale(1 1) rotate(0) translate(4 165)">
<title>Graph Legend</title>
<polygon fill="#ffffff" stroke="transparent" points="-4,4 -4,-165 482,-165 482,4 -4,4"/>
<!-- Node9 -->
<g id="node1" class="node">
<title>Node9</title>
<polygon fill="#bfbfbf" stroke="#000000" points="278,-21 226,-21 226,0 278,0 278,-21"/>
<text text-anchor="middle" x="252" y="-7.4" font-family="Helvetica,sans-Serif" font-size="12.00" fill="#000000">Inherited</text>
</g>
<!-- Node10 -->
<g id="node2" class="node">
<title>Node10</title>
<g id="a_node2"><a xlink:href="$classPublicBase.html" xlink:title="PublicBase">
<polygon fill="none" stroke="#000000" points="62,-91 0,-91 0,-70 62,-70 62,-91"/>
<text text-anchor="middle" x="31" y="-77.4" font-family="Helvetica,sans-Serif" font-size="12.00" fill="#000000">PublicBase</text>
</a>
</g>
</g>
<!-- Node10&#45;&gt;Node9 -->
<g id="edge1" class="edge">
<title>Node10&#45;&gt;Node9</title>
<path fill="none" stroke="#191970" d="M71.9265,-67.5369C116.8877,-53.2957 187.7548,-30.8491 225.7942,-18.8005"/>
<polygon fill="#191970" stroke="#191970" points="70.6715,-64.2629 62.1952,-70.6192 72.7853,-70.9362 70.6715,-64.2629"/>
</g>
<!-- Node11 -->
<g id="node3" class="node">
<title>Node11</title>
<g id="a_node3"><a xlink:href="$classTruncated.html" xlink:title="Truncated">
<polygon fill="none" stroke="#ff0000" points="59.5,-161 2.5,-161 2.5,-140 59.5,-140 59.5,-161"/>
<text text-anchor="middle" x="31" y="-147.4" font-family="Helvetica,sans-Serif" font-size="12.00" fill="#000000">Truncated</text>
</a>
</g>
</g>
<!-- Node11&#45;&gt;Node10 -->
<g id="edge2" class="edge">
<title>Node11&#45;&gt;Node10</title>
<path fill="none" stroke="#191970" d="M31,-129.7331C31,-117.0831 31,-101.4432 31,-91.2315"/>
<polygon fill="#191970" stroke="#191970" points="27.5001,-129.8685 31,-139.8685 34.5001,-129.8685 27.5001,-129.8685"/>
</g>
<!-- Node13 -->
<g id="node4" class="node">
<title>Node13</title>
<g id="a_node4"><a xlink:href="$classProtectedBase.html" xlink:title="ProtectedBase">
<polygon fill="none" stroke="#000000" points="156,-91 80,-91 80,-70 156,-70 156,-91"/>
<text text-anchor="middle" x="118" y="-77.4" font-family="Helvetica,sans-Serif" font-size="12.00" fill="#000000">ProtectedBase</text>
</a>
</g>
</g>
<!-- Node13&#45;&gt;Node9 -->
<g id="edge3" class="edge">
<title>Node13&#45;&gt;Node9</title>
<path fill="none" stroke="#006400" d="M147.2514,-65.2194C172.8766,-51.8331 209.4372,-32.7343 231.8958,-21.0022"/>
<polygon fill="#006400" stroke="#006400" points="145.5946,-62.136 138.3517,-69.8685 148.8358,-68.3405 145.5946,-62.136"/>
</g>
<!-- Node14 -->
<g id="node5" class="node">
<title>Node14</title>
<g id="a_node5"><a xlink:href="$classPrivateBase.html" xlink:title="PrivateBase">
<polygon fill="none" stroke="#000000" points="239.5,-91 174.5,-91 174.5,-70 239.5,-70 239.5,-91"/>
<text text-anchor="middle" x="207" y="-77.4" font-family="Helvetica,sans-Serif" font-size="12.00" fill="#000000">PrivateBase</text>
</a>
</g>
</g>
<!-- Node14&#45;&gt;Node9 -->
<g id="edge4" class="edge">
<title>Node14&#45;&gt;Node9</title>
<path fill="none" stroke="#8b1a1a" d="M219.3742,-61.2512C227.6641,-48.3558 238.2713,-31.8557 245.1011,-21.2315"/>
<polygon fill="#8b1a1a" stroke="#8b1a1a" points="216.298,-59.564 213.8345,-69.8685 222.1863,-63.3494 216.298,-59.564"/>
</g>
<!-- Node15 -->
<g id="node6" class="node">
<title>Node15</title>
<polygon fill="none" stroke="#bfbfbf" points="336,-91 258,-91 258,-70 336,-70 336,-91"/>
<text text-anchor="middle" x="297" y="-77.4" font-family="Helvetica,sans-Serif" font-size="12.00" fill="#000000">Undocumented</text>
</g>
<!-- Node15&#45;&gt;Node9 -->
<g id="edge5" class="edge">
<title>Node15&#45;&gt;Node9</title>
<path fill="none" stroke="#191970" d="M284.6258,-61.2512C276.3359,-48.3558 265.7287,-31.8557 258.8989,-21.2315"/>
<polygon fill="#191970" stroke="#191970" points="281.8137,-63.3494 290.1655,-69.8685 287.702,-59.564 281.8137,-63.3494"/>
</g>
<!-- Node16 -->
<g id="node7" class="node">
<title>Node16</title>
<g id="a_node7"><a xlink:href="$classTempl.html" xlink:title="Templ&lt; int &gt;">
<polygon fill="none" stroke="#000000" points="421.5,-91 354.5,-91 354.5,-70 421.5,-70 421.5,-91"/>
<text text-anchor="middle" x="388" y="-77.4" font-family="Helvetica,sans-Serif" font-size="12.00" fill="#000000">Templ&lt; int &gt;</text>
</a>
</g>
</g>
<!-- Node16&#45;&gt;Node9 -->
<g id="edge6" class="edge">
<title>Node16&#45;&gt;Node9</title>
<path fill="none" stroke="#191970" d="M358.312,-65.2194C332.3044,-51.8331 295.1981,-32.7343 272.4042,-21.0022"/>
<polygon fill="#191970" stroke="#191970" points="356.8514,-68.404 367.3445,-69.8685 360.0549,-62.18 356.8514,-68.404"/>
</g>
<!-- Node17 -->
<g id="node8" class="node">
<title>Node17</title>
<g id="a_node8"><a xlink:href="$classTempl.html" xlink:title="Templ&lt; T &gt;">
<polygon fill="none" stroke="#000000" points="419.5,-161 356.5,-161 356.5,-140 419.5,-140 419.5,-161"/>
<text text-anchor="middle" x="388" y="-147.4" font-family="Helvetica,sans-Serif" font-size="12.00" fill="#000000">Templ&lt; T &gt;</text>
</a>
</g>
</g>
<!-- Node17&#45;&gt;Node16 -->
<g id="edge7" class="edge">
<title>Node17&#45;&gt;Node16</title>
<path fill="none" stroke="#ffa500" stroke-dasharray="5,2" d="M388,-129.7331C388,-117.0831 388,-101.4432 388,-91.2315"/>
<polygon fill="#ffa500" stroke="#ffa500" points="384.5001,-129.8685 388,-139.8685 391.5001,-129.8685 384.5001,-129.8685"/>
<text text-anchor="middle" x="401" y="-112.4" font-family="Helvetica,sans-Serif" font-size="12.00" fill="#000000">&lt; int &gt;</text>
</g>
<!-- Node18 -->
<g id="node9" class="node">
<title>Node18</title>
<g id="a_node9"><a xlink:href="$classUsed.html" xlink:title="Used">
<polygon fill="none" stroke="#000000" points="478,-91 440,-91 440,-70 478,-70 478,-91"/>
<text text-anchor="middle" x="459" y="-77.4" font-family="Helvetica,sans-Serif" font-size="12.00" fill="#000000">Used</text>
</a>
</g>
</g>
<!-- Node18&#45;&gt;Node9 -->
<g id="edge8" class="edge">
<title>Node18&#45;&gt;Node9</title>
<path fill="none" stroke="#9a32cd" stroke-dasharray="5,2" d="M430.1861,-69.7928C370.5622,-48.8098 311.3855,-29.5358 278.1927,-18.8632"/>
<polygon fill="#9a32cd" stroke="#9a32cd" points="429.1605,-73.1424 439.7553,-73.174 431.4927,-66.5423 429.1605,-73.1424"/>
<text text-anchor="middle" x="404.5" y="-42.4" font-family="Helvetica,sans-Serif" font-size="12.00" fill="#000000">m_usedClass</text>
</g>
</g>
</svg>
