<?xml version="1.0" encoding="UTF-8" standalone="no"?>
<!DOCTYPE svg PUBLIC "-//W3C//DTD SVG 1.1//EN"
 "http://www.w3.org/Graphics/SVG/1.1/DTD/svg11.dtd">
<!-- Generated by graphviz version 2.40.1 (20161225.0304)
 -->
<!-- Title: Graphical Class Hierarchy Pages: 1 -->
<svg width="287pt" height="110pt"
 viewBox="0.00 0.00 287.00 110.00" xmlns="http://www.w3.org/2000/svg" xmlns:xlink="http://www.w3.org/1999/xlink">
<g id="graph0" class="graph" transform="scale(1 1) rotate(0) translate(4 106)">
<title>Graphical Class Hierarchy</title>
<polygon fill="#ffffff" stroke="transparent" points="-4,4 -4,-106 283,-106 283,4 -4,4"/>
<!-- Node0 -->
<g id="node1" class="node">
<title>Node0</title>
<g id="a_node1"><a xlink:href="dc/dd8/classobject.html" target="_top" xlink:title="object">
<polygon fill="#ffffff" stroke="#000000" points="0,-40.5 0,-61.5 41,-61.5 41,-40.5 0,-40.5"/>
<text text-anchor="middle" x="20.5" y="-47.9" font-family="Helvetica,sans-Serif" font-size="12.00" fill="#000000">object</text>
</a>
</g>
</g>
<!-- Node1 -->
<g id="node2" class="node">
<title>Node1</title>
<g id="a_node2"><a xlink:href="dc/d4e/classutil_1_1base__decorator.html" target="_top" xlink:title="util.base_decorator">
<polygon fill="#ffffff" stroke="#000000" points="77,-40.5 77,-61.5 170,-61.5 170,-40.5 77,-40.5"/>
<text text-anchor="middle" x="123.5" y="-47.9" font-family="Helvetica,sans-Serif" font-size="12.00" fill="#000000">util.base_decorator</text>
</a>
</g>
</g>
<!-- Node0&#45;&gt;Node1 -->
<g id="edge1" class="edge">
<title>Node0&#45;&gt;Node1</title>
<path fill="none" stroke="#191970" d="M51.587,-51C59.5138,-51 68.2104,-51 76.7326,-51"/>
<polygon fill="#191970" stroke="#191970" points="51.3436,-47.5001 41.3436,-51 51.3436,-54.5001 51.3436,-47.5001"/>
</g>
<!-- Node2 -->
<g id="node3" class="node">
<title>Node2</title>
<g id="a_node3"><a xlink:href="d1/d0b/classutil_1_1auto__timer.html" target="_top" xlink:title="util.auto_timer">
<polygon fill="#ffffff" stroke="#000000" points="206,-80.5 206,-101.5 279,-101.5 279,-80.5 206,-80.5"/>
<text text-anchor="middle" x="242.5" y="-87.9" font-family="Helvetica,sans-Serif" font-size="12.00" fill="#000000">util.auto_timer</text>
</a>
</g>
</g>
<!-- Node1&#45;&gt;Node2 -->
<g id="edge2" class="edge">
<title>Node1&#45;&gt;Node2</title>
<path fill="none" stroke="#191970" d="M164.4762,-64.7735C179.721,-69.8978 196.7679,-75.6279 211.0298,-80.4218"/>
<polygon fill="#191970" stroke="#191970" points="165.3599,-61.3782 154.7658,-61.5095 163.1295,-68.0134 165.3599,-61.3782"/>
</g>
<!-- Node3 -->
<g id="node4" class="node">
<title>Node3</title>
<g id="a_node4"><a xlink:href="d7/d4b/classutil_1_1rss__usage.html" target="_top" xlink:title="util.rss_usage">
<polygon fill="#ffffff" stroke="#000000" points="206.5,-40.5 206.5,-61.5 278.5,-61.5 278.5,-40.5 206.5,-40.5"/>
<text text-anchor="middle" x="242.5" y="-47.9" font-family="Helvetica,sans-Serif" font-size="12.00" fill="#000000">util.rss_usage</text>
</a>
</g>
</g>
<!-- Node1&#45;&gt;Node3 -->
<g id="edge3" class="edge">
<title>Node1&#45;&gt;Node3</title>
<path fill="none" stroke="#191970" d="M180.426,-51C189.2137,-51 198.0765,-51 206.2456,-51"/>
<polygon fill="#191970" stroke="#191970" points="180.1904,-47.5001 170.1904,-51 180.1904,-54.5001 180.1904,-47.5001"/>
</g>
<!-- Node4 -->
<g id="node5" class="node">
<title>Node4</title>
<g id="a_node5"><a xlink:href="de/d81/classutil_1_1timer.html" target="_top" xlink:title="util.timer">
<polygon fill="#ffffff" stroke="#000000" points="217,-.5 217,-21.5 268,-21.5 268,-.5 217,-.5"/>
<text text-anchor="middle" x="242.5" y="-7.9" font-family="Helvetica,sans-Serif" font-size="12.00" fill="#000000">util.timer</text>
</a>
</g>
</g>
<!-- Node1&#45;&gt;Node4 -->
<g id="edge4" class="edge">
<title>Node1&#45;&gt;Node4</title>
<path fill="none" stroke="#191970" d="M164.6215,-37.1777C181.8957,-31.3712 201.4615,-24.7944 216.6604,-19.6856"/>
<polygon fill="#191970" stroke="#191970" points="163.1295,-33.9866 154.7658,-40.4905 165.3599,-40.6218 163.1295,-33.9866"/>
</g>
</g>
</svg>
