<?xml version="1.0" encoding="UTF-8" standalone="no"?>
<!DOCTYPE svg PUBLIC "-//W3C//DTD SVG 1.1//EN"
 "http://www.w3.org/Graphics/SVG/1.1/DTD/svg11.dtd">
<!-- Generated by graphviz version 2.40.1 (20161225.0304)
 -->
<!-- Title: Graphical Class Hierarchy Pages: 1 -->
<svg width="297pt" height="164pt"
 viewBox="0.00 0.00 297.00 163.50" xmlns="http://www.w3.org/2000/svg" xmlns:xlink="http://www.w3.org/1999/xlink">
<g id="graph0" class="graph" transform="scale(1 1) rotate(0) translate(4 159.5)">
<title>Graphical Class Hierarchy</title>
<polygon fill="#ffffff" stroke="transparent" points="-4,4 -4,-159.5 293,-159.5 293,4 -4,4"/>
<!-- Node0 -->
<g id="node1" class="node">
<title>Node0</title>
<g id="a_node1"><a xlink:href="dc/dd8/classobject.html" target="_top" xlink:title="object">
<polygon fill="#ffffff" stroke="#000000" points="0,-80.5 0,-101.5 41,-101.5 41,-80.5 0,-80.5"/>
<text text-anchor="middle" x="20.5" y="-87.9" font-family="Helvetica,sans-Serif" font-size="12.00" fill="#000000">object</text>
</a>
</g>
</g>
<!-- Node1 -->
<g id="node2" class="node">
<title>Node1</title>
<g id="a_node2"><a xlink:href="db/db6/classarray__test_1_1auto__disk__array__weakref.html" target="_top" xlink:title="array_test.auto_disk\l_array_weakref">
<polygon fill="#ffffff" stroke="#000000" points="79.5,-121 79.5,-155 177.5,-155 177.5,-121 79.5,-121"/>
<text text-anchor="start" x="87.5" y="-141.4" font-family="Helvetica,sans-Serif" font-size="12.00" fill="#000000">array_test.auto_disk</text>
<text text-anchor="middle" x="128.5" y="-128.4" font-family="Helvetica,sans-Serif" font-size="12.00" fill="#000000">_array_weakref</text>
</a>
</g>
</g>
<!-- Node0&#45;&gt;Node1 -->
<g id="edge1" class="edge">
<title>Node0&#45;&gt;Node1</title>
<path fill="none" stroke="#191970" d="M50.5838,-104.092C62.5432,-109.2966 76.4638,-115.3546 89.2028,-120.8984"/>
<polygon fill="#191970" stroke="#191970" points="51.6342,-100.7321 41.0682,-99.951 48.8409,-107.1507 51.6342,-100.7321"/>
</g>
<!-- Node2 -->
<g id="node3" class="node">
<title>Node2</title>
<g id="a_node3"><a xlink:href="db/d13/classsimple__test_1_1_fibonacci.html" target="_top" xlink:title="simple_test.Fibonacci">
<polygon fill="#ffffff" stroke="#000000" points="77,-80.5 77,-101.5 180,-101.5 180,-80.5 77,-80.5"/>
<text text-anchor="middle" x="128.5" y="-87.9" font-family="Helvetica,sans-Serif" font-size="12.00" fill="#000000">simple_test.Fibonacci</text>
</a>
</g>
</g>
<!-- Node0&#45;&gt;Node2 -->
<g id="edge2" class="edge">
<title>Node0&#45;&gt;Node2</title>
<path fill="none" stroke="#191970" d="M51.2711,-91C59.1892,-91 67.9304,-91 76.5994,-91"/>
<polygon fill="#191970" stroke="#191970" points="51.0682,-87.5001 41.0682,-91 51.0682,-94.5001 51.0682,-87.5001"/>
</g>
<!-- Node3 -->
<g id="node4" class="node">
<title>Node3</title>
<g id="a_node4"><a xlink:href="dc/d4e/classutil_1_1base__decorator.html" target="_top" xlink:title="util.base_decorator">
<polygon fill="#ffffff" stroke="#000000" points="82,-40.5 82,-61.5 175,-61.5 175,-40.5 82,-40.5"/>
<text text-anchor="middle" x="128.5" y="-47.9" font-family="Helvetica,sans-Serif" font-size="12.00" fill="#000000">util.base_decorator</text>
</a>
</g>
</g>
<!-- Node0&#45;&gt;Node3 -->
<g id="edge3" class="edge">
<title>Node0&#45;&gt;Node3</title>
<path fill="none" stroke="#191970" d="M50.6484,-79.8339C66.0431,-74.1322 84.6744,-67.2317 99.8504,-61.611"/>
<polygon fill="#191970" stroke="#191970" points="49.2301,-76.6268 41.0682,-83.3822 51.6613,-83.1911 49.2301,-76.6268"/>
</g>
<!-- Node4 -->
<g id="node5" class="node">
<title>Node4</title>
<g id="a_node5"><a xlink:href="d1/d0b/classutil_1_1auto__timer.html" target="_top" xlink:title="util.auto_timer">
<polygon fill="#ffffff" stroke="#000000" points="216,-80.5 216,-101.5 289,-101.5 289,-80.5 216,-80.5"/>
<text text-anchor="middle" x="252.5" y="-87.9" font-family="Helvetica,sans-Serif" font-size="12.00" fill="#000000">util.auto_timer</text>
</a>
</g>
</g>
<!-- Node3&#45;&gt;Node4 -->
<g id="edge4" class="edge">
<title>Node3&#45;&gt;Node4</title>
<path fill="none" stroke="#191970" d="M170.7446,-64.6273C186.7446,-69.7886 204.7048,-75.5822 219.7075,-80.4218"/>
<polygon fill="#191970" stroke="#191970" points="171.6712,-61.2486 161.0795,-61.5095 169.5221,-67.9106 171.6712,-61.2486"/>
</g>
<!-- Node5 -->
<g id="node6" class="node">
<title>Node5</title>
<g id="a_node6"><a xlink:href="d7/d4b/classutil_1_1rss__usage.html" target="_top" xlink:title="util.rss_usage">
<polygon fill="#ffffff" stroke="#000000" points="216.5,-40.5 216.5,-61.5 288.5,-61.5 288.5,-40.5 216.5,-40.5"/>
<text text-anchor="middle" x="252.5" y="-47.9" font-family="Helvetica,sans-Serif" font-size="12.00" fill="#000000">util.rss_usage</text>
</a>
</g>
</g>
<!-- Node3&#45;&gt;Node5 -->
<g id="edge5" class="edge">
<title>Node3&#45;&gt;Node5</title>
<path fill="none" stroke="#191970" d="M185.0584,-51C195.6329,-51 206.42,-51 216.1768,-51"/>
<polygon fill="#191970" stroke="#191970" points="185.0258,-47.5001 175.0258,-51 185.0258,-54.5001 185.0258,-47.5001"/>
</g>
<!-- Node6 -->
<g id="node7" class="node">
<title>Node6</title>
<g id="a_node7"><a xlink:href="de/d81/classutil_1_1timer.html" target="_top" xlink:title="util.timer">
<polygon fill="#ffffff" stroke="#000000" points="227,-.5 227,-21.5 278,-21.5 278,-.5 227,-.5"/>
<text text-anchor="middle" x="252.5" y="-7.9" font-family="Helvetica,sans-Serif" font-size="12.00" fill="#000000">util.timer</text>
</a>
</g>
</g>
<!-- Node3&#45;&gt;Node6 -->
<g id="edge6" class="edge">
<title>Node3&#45;&gt;Node6</title>
<path fill="none" stroke="#191970" d="M170.8039,-37.3536C189.3966,-31.3559 210.6263,-24.5076 226.7836,-19.2956"/>
<polygon fill="#191970" stroke="#191970" points="169.5221,-34.0894 161.0795,-40.4905 171.6712,-40.7514 169.5221,-34.0894"/>
</g>
</g>
</svg>
