<?xml version="1.0" encoding="UTF-8" standalone="no"?>
<!DOCTYPE svg PUBLIC "-//W3C//DTD SVG 1.1//EN"
 "http://www.w3.org/Graphics/SVG/1.1/DTD/svg11.dtd">
<!-- Generated by graphviz version 2.40.1 (20161225.0304)
 -->
<!-- Title: Graphical Class Hierarchy Pages: 1 -->
<svg width="333pt" height="164pt"
 viewBox="0.00 0.00 333.00 163.50" xmlns="http://www.w3.org/2000/svg" xmlns:xlink="http://www.w3.org/1999/xlink">
<g id="graph0" class="graph" transform="scale(1 1) rotate(0) translate(4 159.5)">
<title>Graphical Class Hierarchy</title>
<polygon fill="#ffffff" stroke="transparent" points="-4,4 -4,-159.5 329,-159.5 329,4 -4,4"/>
<!-- Node0 -->
<g id="node1" class="node">
<title>Node0</title>
<g id="a_node1"><a xlink:href="dc/dd8/classobject.html" target="_top" xlink:title="object">
<polygon fill="#ffffff" stroke="#000000" points="0,-80.5 0,-101.5 41,-101.5 41,-80.5 0,-80.5"/>
<text text-anchor="middle" x="20.5" y="-87.9" font-family="Helvetica,sans-Serif" font-size="12.00" fill="#000000">object</text>
</a>
</g>
</g>
<!-- Node1 -->
<g id="node2" class="node">
<title>Node1</title>
<g id="a_node2"><a xlink:href="da/d5d/classtests_1_1array__test_1_1auto__array__weakref.html" target="_top" xlink:title="tests.array_test.auto\l_array_weakref">
<polygon fill="#ffffff" stroke="#000000" points="90.5,-121 90.5,-155 188.5,-155 188.5,-121 90.5,-121"/>
<text text-anchor="start" x="98.5" y="-141.4" font-family="Helvetica,sans-Serif" font-size="12.00" fill="#000000">tests.array_test.auto</text>
<text text-anchor="middle" x="139.5" y="-128.4" font-family="Helvetica,sans-Serif" font-size="12.00" fill="#000000">_array_weakref</text>
</a>
</g>
</g>
<!-- Node0&#45;&gt;Node1 -->
<g id="edge1" class="edge">
<title>Node0&#45;&gt;Node1</title>
<path fill="none" stroke="#191970" d="M50.745,-102.9455C64.5819,-108.4105 81.229,-114.9854 96.349,-120.9572"/>
<polygon fill="#191970" stroke="#191970" points="51.8148,-99.605 41.2282,-99.1868 49.2433,-106.1156 51.8148,-99.605"/>
</g>
<!-- Node2 -->
<g id="node3" class="node">
<title>Node2</title>
<g id="a_node3"><a xlink:href="da/d81/classtests_1_1simple__test_1_1_fibonacci.html" target="_top" xlink:title="tests.simple_test.Fibonacci">
<polygon fill="#ffffff" stroke="#000000" points="77,-80.5 77,-101.5 202,-101.5 202,-80.5 77,-80.5"/>
<text text-anchor="middle" x="139.5" y="-87.9" font-family="Helvetica,sans-Serif" font-size="12.00" fill="#000000">tests.simple_test.Fibonacci</text>
</a>
</g>
</g>
<!-- Node0&#45;&gt;Node2 -->
<g id="edge2" class="edge">
<title>Node0&#45;&gt;Node2</title>
<path fill="none" stroke="#191970" d="M51.3477,-91C59.2226,-91 67.9771,-91 76.8255,-91"/>
<polygon fill="#191970" stroke="#191970" points="51.2283,-87.5001 41.2282,-91 51.2282,-94.5001 51.2283,-87.5001"/>
</g>
<!-- Node3 -->
<g id="node4" class="node">
<title>Node3</title>
<g id="a_node4"><a xlink:href="db/df0/classutil_1_1util_1_1base__decorator.html" target="_top" xlink:title="util.util.base_decorator">
<polygon fill="#ffffff" stroke="#000000" points="86,-40.5 86,-61.5 193,-61.5 193,-40.5 86,-40.5"/>
<text text-anchor="middle" x="139.5" y="-47.9" font-family="Helvetica,sans-Serif" font-size="12.00" fill="#000000">util.util.base_decorator</text>
</a>
</g>
</g>
<!-- Node0&#45;&gt;Node3 -->
<g id="edge3" class="edge">
<title>Node0&#45;&gt;Node3</title>
<path fill="none" stroke="#191970" d="M50.6519,-80.1352C59.1544,-77.1236 68.4241,-73.8892 77,-71 86.3929,-67.8355 96.6199,-64.512 106.0293,-61.503"/>
<polygon fill="#191970" stroke="#191970" points="49.3564,-76.8812 41.1108,-83.5341 51.7055,-83.4753 49.3564,-76.8812"/>
</g>
<!-- Node4 -->
<g id="node5" class="node">
<title>Node4</title>
<g id="a_node5"><a xlink:href="d3/df4/classutil_1_1util_1_1auto__timer.html" target="_top" xlink:title="util.util.auto_timer">
<polygon fill="#ffffff" stroke="#000000" points="238,-80.5 238,-101.5 325,-101.5 325,-80.5 238,-80.5"/>
<text text-anchor="middle" x="281.5" y="-87.9" font-family="Helvetica,sans-Serif" font-size="12.00" fill="#000000">util.util.auto_timer</text>
</a>
</g>
</g>
<!-- Node3&#45;&gt;Node4 -->
<g id="edge4" class="edge">
<title>Node3&#45;&gt;Node4</title>
<path fill="none" stroke="#191970" d="M186.5843,-64.2632C205.2274,-69.5148 226.3616,-75.4681 243.9473,-80.4218"/>
<polygon fill="#191970" stroke="#191970" points="187.3832,-60.8521 176.8088,-61.5095 185.4852,-67.5899 187.3832,-60.8521"/>
</g>
<!-- Node5 -->
<g id="node6" class="node">
<title>Node5</title>
<g id="a_node6"><a xlink:href="d1/d2e/classutil_1_1util_1_1rss__usage.html" target="_top" xlink:title="util.util.rss_usage">
<polygon fill="#ffffff" stroke="#000000" points="238.5,-40.5 238.5,-61.5 324.5,-61.5 324.5,-40.5 238.5,-40.5"/>
<text text-anchor="middle" x="281.5" y="-47.9" font-family="Helvetica,sans-Serif" font-size="12.00" fill="#000000">util.util.rss_usage</text>
</a>
</g>
</g>
<!-- Node3&#45;&gt;Node5 -->
<g id="edge5" class="edge">
<title>Node3&#45;&gt;Node5</title>
<path fill="none" stroke="#191970" d="M203.4608,-51C215.2696,-51 227.3407,-51 238.3501,-51"/>
<polygon fill="#191970" stroke="#191970" points="203.1841,-47.5001 193.1841,-51 203.1841,-54.5001 203.1841,-47.5001"/>
</g>
<!-- Node6 -->
<g id="node7" class="node">
<title>Node6</title>
<g id="a_node7"><a xlink:href="d9/dca/classutil_1_1util_1_1timer.html" target="_top" xlink:title="util.util.timer">
<polygon fill="#ffffff" stroke="#000000" points="249,-.5 249,-21.5 314,-21.5 314,-.5 249,-.5"/>
<text text-anchor="middle" x="281.5" y="-7.9" font-family="Helvetica,sans-Serif" font-size="12.00" fill="#000000">util.util.timer</text>
</a>
</g>
</g>
<!-- Node3&#45;&gt;Node6 -->
<g id="edge6" class="edge">
<title>Node3&#45;&gt;Node6</title>
<path fill="none" stroke="#191970" d="M186.5474,-37.7472C206.9449,-32.0014 230.3299,-25.4141 248.7886,-20.2145"/>
<polygon fill="#191970" stroke="#191970" points="185.4852,-34.4101 176.8088,-40.4905 187.3832,-41.1479 185.4852,-34.4101"/>
</g>
</g>
</svg>
