<?xml version="1.0" encoding="UTF-8" standalone="no"?>
<!DOCTYPE svg PUBLIC "-//W3C//DTD SVG 1.1//EN"
 "http://www.w3.org/Graphics/SVG/1.1/DTD/svg11.dtd">
<!-- Generated by graphviz version 2.40.1 (20161225.0304)
 -->
<!-- Title: namespace.hpp Pages: 1 -->
<svg width="586pt" height="378pt"
 viewBox="0.00 0.00 586.18 378.00" xmlns="http://www.w3.org/2000/svg" xmlns:xlink="http://www.w3.org/1999/xlink">
<g id="graph0" class="graph" transform="scale(1 1) rotate(0) translate(4 374)">
<title>namespace.hpp</title>
<polygon fill="#ffffff" stroke="transparent" points="-4,4 -4,-374 582.1768,-374 582.1768,4 -4,4"/>
<!-- Node1 -->
<g id="node1" class="node">
<title>Node1</title>
<polygon fill="#bfbfbf" stroke="#000000" points="207.5,-348.5 207.5,-369.5 288.5,-369.5 288.5,-348.5 207.5,-348.5"/>
<text text-anchor="middle" x="248" y="-355.9" font-family="Helvetica,sans-Serif" font-size="12.00" fill="#000000">namespace.hpp</text>
</g>
<!-- Node2 -->
<g id="node2" class="node">
<title>Node2</title>
<g id="a_node2"><a xlink:href="base__timer_8hpp.html" target="_top" xlink:title="base_timer.hpp">
<polygon fill="#ffffff" stroke="#000000" points="64.5,-232.5 64.5,-253.5 143.5,-253.5 143.5,-232.5 64.5,-232.5"/>
<text text-anchor="middle" x="104" y="-239.9" font-family="Helvetica,sans-Serif" font-size="12.00" fill="#000000">base_timer.hpp</text>
</a>
</g>
</g>
<!-- Node1&#45;&gt;Node2 -->
<g id="edge1" class="edge">
<title>Node1&#45;&gt;Node2</title>
<path fill="none" stroke="#191970" d="M226.9036,-342.0057C196.7762,-317.7364 142.3069,-273.8584 117.2569,-253.6792"/>
<polygon fill="#191970" stroke="#191970" points="224.7277,-344.7472 234.7109,-348.2949 229.119,-339.2959 224.7277,-344.7472"/>
</g>
<!-- Node4 -->
<g id="node4" class="node">
<title>Node4</title>
<g id="a_node4"><a xlink:href="timer_8hpp.html" target="_top" xlink:title="timer.hpp">
<polygon fill="#ffffff" stroke="#000000" points="154,-174.5 154,-195.5 208,-195.5 208,-174.5 154,-174.5"/>
<text text-anchor="middle" x="181" y="-181.9" font-family="Helvetica,sans-Serif" font-size="12.00" fill="#000000">timer.hpp</text>
</a>
</g>
</g>
<!-- Node1&#45;&gt;Node4 -->
<g id="edge20" class="edge">
<title>Node1&#45;&gt;Node4</title>
<path fill="none" stroke="#191970" d="M240.1753,-338.6791C225.9263,-301.6743 196.2032,-224.483 185.2078,-195.9277"/>
<polygon fill="#191970" stroke="#191970" points="237.05,-340.3031 243.9097,-348.3774 243.5825,-337.7877 237.05,-340.3031"/>
</g>
<!-- Node5 -->
<g id="node5" class="node">
<title>Node5</title>
<g id="a_node5"><a xlink:href="timing__manager_8hpp.html" target="_top" xlink:title="timing_manager.hpp">
<polygon fill="#ffffff" stroke="#000000" points="194.5,-116.5 194.5,-137.5 293.5,-137.5 293.5,-116.5 194.5,-116.5"/>
<text text-anchor="middle" x="244" y="-123.9" font-family="Helvetica,sans-Serif" font-size="12.00" fill="#000000">timing_manager.hpp</text>
</a>
</g>
</g>
<!-- Node1&#45;&gt;Node5 -->
<g id="edge21" class="edge">
<title>Node1&#45;&gt;Node5</title>
<path fill="none" stroke="#191970" d="M247.6437,-338.3349C246.819,-290.5 244.8019,-173.5078 244.1833,-137.6335"/>
<polygon fill="#191970" stroke="#191970" points="244.1458,-338.4904 247.8177,-348.4286 251.1447,-338.3697 244.1458,-338.4904"/>
</g>
<!-- Node6 -->
<g id="node6" class="node">
<title>Node6</title>
<g id="a_node6"><a xlink:href="auto__timer_8hpp.html" target="_top" xlink:title="auto_timer.hpp">
<polygon fill="#ffffff" stroke="#000000" points="315.5,-58.5 315.5,-79.5 392.5,-79.5 392.5,-58.5 315.5,-58.5"/>
<text text-anchor="middle" x="354" y="-65.9" font-family="Helvetica,sans-Serif" font-size="12.00" fill="#000000">auto_timer.hpp</text>
</a>
</g>
</g>
<!-- Node1&#45;&gt;Node6 -->
<g id="edge14" class="edge">
<title>Node1&#45;&gt;Node6</title>
<path fill="none" stroke="#191970" d="M279.3076,-343.5768C312.4429,-324.7926 360,-289.6985 360,-243 360,-243 360,-243 360,-185 360,-146.08 356.5898,-99.9126 354.9113,-79.5467"/>
<polygon fill="#191970" stroke="#191970" points="277.4982,-340.5769 270.3957,-348.4385 280.8506,-346.722 277.4982,-340.5769"/>
</g>
<!-- Node7 -->
<g id="node7" class="node">
<title>Node7</title>
<g id="a_node7"><a xlink:href="timemory_8cc.html" target="_top" xlink:title="timemory.cc">
<polygon fill="#ffffff" stroke="#000000" points="229.5,-.5 229.5,-21.5 294.5,-21.5 294.5,-.5 229.5,-.5"/>
<text text-anchor="middle" x="262" y="-7.9" font-family="Helvetica,sans-Serif" font-size="12.00" fill="#000000">timemory.cc</text>
</a>
</g>
</g>
<!-- Node1&#45;&gt;Node7 -->
<g id="edge26" class="edge">
<title>Node1&#45;&gt;Node7</title>
<path fill="none" stroke="#191970" d="M298.6385,-351.8964C390.9096,-337.5214 577,-301.3031 577,-243 577,-243 577,-243 577,-127 577,-95.1919 581.7072,-79.2066 558,-58 519.5583,-23.613 363.1399,-14.2989 294.5246,-11.8465"/>
<polygon fill="#191970" stroke="#191970" points="298.0276,-348.449 288.6718,-353.4209 299.0861,-355.3685 298.0276,-348.449"/>
</g>
<!-- Node10 -->
<g id="node10" class="node">
<title>Node10</title>
<g id="a_node10"><a xlink:href="signal__detection_8hpp.html" target="_top" xlink:title="signal_detection.hpp">
<polygon fill="#ffffff" stroke="#000000" points="388.5,-116.5 388.5,-137.5 487.5,-137.5 487.5,-116.5 388.5,-116.5"/>
<text text-anchor="middle" x="438" y="-123.9" font-family="Helvetica,sans-Serif" font-size="12.00" fill="#000000">signal_detection.hpp</text>
</a>
</g>
</g>
<!-- Node1&#45;&gt;Node10 -->
<g id="edge11" class="edge">
<title>Node1&#45;&gt;Node10</title>
<path fill="none" stroke="#191970" d="M298.6259,-350.7159C324.2083,-344.1458 353.9859,-332.4997 374,-312 423.8577,-260.9326 434.984,-169.1588 437.3727,-137.8265"/>
<polygon fill="#191970" stroke="#191970" points="297.6144,-347.3587 288.6926,-353.0728 299.2305,-354.1696 297.6144,-347.3587"/>
</g>
<!-- Node12 -->
<g id="node12" class="node">
<title>Node12</title>
<g id="a_node12"><a xlink:href="base__clock_8hpp.html" target="_top" xlink:title="base_clock.hpp">
<polygon fill="#ffffff" stroke="#000000" points="64.5,-290.5 64.5,-311.5 143.5,-311.5 143.5,-290.5 64.5,-290.5"/>
<text text-anchor="middle" x="104" y="-297.9" font-family="Helvetica,sans-Serif" font-size="12.00" fill="#000000">base_clock.hpp</text>
</a>
</g>
</g>
<!-- Node1&#45;&gt;Node12 -->
<g id="edge15" class="edge">
<title>Node1&#45;&gt;Node12</title>
<path fill="none" stroke="#191970" d="M212.6229,-344.7509C187.1937,-334.5086 153.4579,-320.9206 130.3699,-311.6212"/>
<polygon fill="#191970" stroke="#191970" points="211.3392,-348.007 221.9227,-348.4966 213.9545,-341.5139 211.3392,-348.007"/>
</g>
<!-- Node13 -->
<g id="node13" class="node">
<title>Node13</title>
<g id="a_node13"><a xlink:href="rss_8hpp.html" target="_top" xlink:title="rss.hpp">
<polygon fill="#ffffff" stroke="#000000" points="0,-290.5 0,-311.5 46,-311.5 46,-290.5 0,-290.5"/>
<text text-anchor="middle" x="23" y="-297.9" font-family="Helvetica,sans-Serif" font-size="12.00" fill="#000000">rss.hpp</text>
</a>
</g>
</g>
<!-- Node1&#45;&gt;Node13 -->
<g id="edge17" class="edge">
<title>Node1&#45;&gt;Node13</title>
<path fill="none" stroke="#191970" d="M197.5864,-348.0628C158.4461,-339.2493 102.9509,-326.0477 55,-312 52.1812,-311.1742 49.2427,-310.2514 46.3389,-309.3009"/>
<polygon fill="#191970" stroke="#191970" points="196.8973,-351.4951 207.4201,-350.2623 198.4253,-344.6639 196.8973,-351.4951"/>
</g>
<!-- Node14 -->
<g id="node14" class="node">
<title>Node14</title>
<g id="a_node14"><a xlink:href="utility_8hpp.html" target="_top" xlink:title="utility.hpp">
<polygon fill="#ffffff" stroke="#000000" points="276.5,-174.5 276.5,-195.5 331.5,-195.5 331.5,-174.5 276.5,-174.5"/>
<text text-anchor="middle" x="304" y="-181.9" font-family="Helvetica,sans-Serif" font-size="12.00" fill="#000000">utility.hpp</text>
</a>
</g>
</g>
<!-- Node1&#45;&gt;Node14 -->
<g id="edge22" class="edge">
<title>Node1&#45;&gt;Node14</title>
<path fill="none" stroke="#191970" d="M254.5401,-338.6791C266.4496,-301.6743 291.2928,-224.483 300.483,-195.9277"/>
<polygon fill="#191970" stroke="#191970" points="251.1508,-337.786 251.4188,-348.3774 257.8142,-339.9306 251.1508,-337.786"/>
</g>
<!-- Node3 -->
<g id="node3" class="node">
<title>Node3</title>
<g id="a_node3"><a xlink:href="base__timer_8cpp.html" target="_top" xlink:title="base_timer.cpp">
<polygon fill="#ffffff" stroke="#000000" points="58,-174.5 58,-195.5 136,-195.5 136,-174.5 58,-174.5"/>
<text text-anchor="middle" x="97" y="-181.9" font-family="Helvetica,sans-Serif" font-size="12.00" fill="#000000">base_timer.cpp</text>
</a>
</g>
</g>
<!-- Node2&#45;&gt;Node3 -->
<g id="edge2" class="edge">
<title>Node2&#45;&gt;Node3</title>
<path fill="none" stroke="#191970" d="M101.4885,-222.1906C100.3996,-213.1684 99.1717,-202.9941 98.2758,-195.5707"/>
<polygon fill="#191970" stroke="#191970" points="98.043,-222.8533 102.7161,-232.3619 104.9926,-222.0145 98.043,-222.8533"/>
</g>
<!-- Node2&#45;&gt;Node4 -->
<g id="edge3" class="edge">
<title>Node2&#45;&gt;Node4</title>
<path fill="none" stroke="#191970" d="M126.2256,-226.2587C139.3615,-216.3641 155.5952,-204.1361 166.9665,-195.5707"/>
<polygon fill="#191970" stroke="#191970" points="124.0047,-223.5496 118.123,-232.3619 128.2164,-229.1409 124.0047,-223.5496"/>
</g>
<!-- Node4&#45;&gt;Node5 -->
<g id="edge4" class="edge">
<title>Node4&#45;&gt;Node5</title>
<path fill="none" stroke="#191970" d="M200.1118,-167.405C210.6878,-157.6683 223.48,-145.8914 232.5181,-137.5707"/>
<polygon fill="#191970" stroke="#191970" points="197.5416,-165.0138 192.5552,-174.3619 202.2828,-170.1637 197.5416,-165.0138"/>
</g>
<!-- Node4&#45;&gt;Node7 -->
<g id="edge9" class="edge">
<title>Node4&#45;&gt;Node7</title>
<path fill="none" stroke="#191970" d="M175.3385,-164.4936C169.2476,-137.9668 162.8096,-91.2274 182,-58 192.2315,-40.2846 212.0001,-28.5791 229.3252,-21.2804"/>
<polygon fill="#191970" stroke="#191970" points="171.9487,-165.3654 177.7684,-174.2187 178.7399,-163.6685 171.9487,-165.3654"/>
</g>
<!-- Node9 -->
<g id="node9" class="node">
<title>Node9</title>
<g id="a_node9"><a xlink:href="timer_8cpp.html" target="_top" xlink:title="timer.cpp">
<polygon fill="#ffffff" stroke="#000000" points="51,-116.5 51,-137.5 105,-137.5 105,-116.5 51,-116.5"/>
<text text-anchor="middle" x="78" y="-123.9" font-family="Helvetica,sans-Serif" font-size="12.00" fill="#000000">timer.cpp</text>
</a>
</g>
</g>
<!-- Node4&#45;&gt;Node9 -->
<g id="edge10" class="edge">
<title>Node4&#45;&gt;Node9</title>
<path fill="none" stroke="#191970" d="M153.2592,-169.379C135.3622,-159.3011 112.5626,-146.4624 96.772,-137.5707"/>
<polygon fill="#191970" stroke="#191970" points="151.6774,-172.505 162.1082,-174.3619 155.112,-166.4055 151.6774,-172.505"/>
</g>
<!-- Node5&#45;&gt;Node6 -->
<g id="edge5" class="edge">
<title>Node5&#45;&gt;Node6</title>
<path fill="none" stroke="#191970" d="M272.8389,-111.794C292.0309,-101.6746 316.7635,-88.6338 333.8563,-79.6212"/>
<polygon fill="#191970" stroke="#191970" points="271.1334,-108.7365 263.9202,-116.4966 274.3983,-114.9285 271.1334,-108.7365"/>
</g>
<!-- Node5&#45;&gt;Node7 -->
<g id="edge7" class="edge">
<title>Node5&#45;&gt;Node7</title>
<path fill="none" stroke="#191970" d="M217.0097,-110.6985C198.622,-97.376 179.3858,-77.6042 190,-58 199.2395,-40.9349 217.662,-29.0815 233.5584,-21.5473"/>
<polygon fill="#191970" stroke="#191970" points="215.054,-113.6011 225.2881,-116.3421 218.997,-107.8173 215.054,-113.6011"/>
</g>
<!-- Node8 -->
<g id="node8" class="node">
<title>Node8</title>
<g id="a_node8"><a xlink:href="timing__manager_8cpp.html" target="_top" xlink:title="timing_manager.cpp">
<polygon fill="#ffffff" stroke="#000000" points="199,-58.5 199,-79.5 297,-79.5 297,-58.5 199,-58.5"/>
<text text-anchor="middle" x="248" y="-65.9" font-family="Helvetica,sans-Serif" font-size="12.00" fill="#000000">timing_manager.cpp</text>
</a>
</g>
</g>
<!-- Node5&#45;&gt;Node8 -->
<g id="edge8" class="edge">
<title>Node5&#45;&gt;Node8</title>
<path fill="none" stroke="#191970" d="M245.4351,-106.1906C246.0574,-97.1684 246.759,-86.9941 247.271,-79.5707"/>
<polygon fill="#191970" stroke="#191970" points="241.9301,-106.1448 244.7337,-116.3619 248.9135,-106.6264 241.9301,-106.1448"/>
</g>
<!-- Node6&#45;&gt;Node7 -->
<g id="edge6" class="edge">
<title>Node6&#45;&gt;Node7</title>
<path fill="none" stroke="#191970" d="M328.3375,-52.8215C312.4909,-42.8312 292.6126,-30.2993 278.7672,-21.5707"/>
<polygon fill="#191970" stroke="#191970" points="326.7999,-55.9896 337.1258,-58.3619 330.5331,-50.0681 326.7999,-55.9896"/>
</g>
<!-- Node10&#45;&gt;Node7 -->
<g id="edge13" class="edge">
<title>Node10&#45;&gt;Node7</title>
<path fill="none" stroke="#191970" d="M432.0167,-106.6481C426.5257,-91.2943 416.9421,-70.7629 402,-58 371.2952,-31.7734 325.3799,-20.0277 294.5922,-14.8717"/>
<polygon fill="#191970" stroke="#191970" points="428.7373,-107.8803 435.1798,-116.2913 435.3887,-105.6986 428.7373,-107.8803"/>
</g>
<!-- Node11 -->
<g id="node11" class="node">
<title>Node11</title>
<g id="a_node11"><a xlink:href="signal__detection_8cpp.html" target="_top" xlink:title="signal_detection.cpp">
<polygon fill="#ffffff" stroke="#000000" points="449.5,-58.5 449.5,-79.5 548.5,-79.5 548.5,-58.5 449.5,-58.5"/>
<text text-anchor="middle" x="499" y="-65.9" font-family="Helvetica,sans-Serif" font-size="12.00" fill="#000000">signal_detection.cpp</text>
</a>
</g>
</g>
<!-- Node10&#45;&gt;Node11 -->
<g id="edge12" class="edge">
<title>Node10&#45;&gt;Node11</title>
<path fill="none" stroke="#191970" d="M456.5051,-109.405C466.7454,-99.6683 479.1315,-87.8914 487.8826,-79.5707"/>
<polygon fill="#191970" stroke="#191970" points="454.0237,-106.9348 449.1883,-116.3619 458.8471,-112.0077 454.0237,-106.9348"/>
</g>
<!-- Node12&#45;&gt;Node2 -->
<g id="edge16" class="edge">
<title>Node12&#45;&gt;Node2</title>
<path fill="none" stroke="#191970" d="M104,-280.1906C104,-271.1684 104,-260.9941 104,-253.5707"/>
<polygon fill="#191970" stroke="#191970" points="100.5001,-280.3619 104,-290.3619 107.5001,-280.3619 100.5001,-280.3619"/>
</g>
<!-- Node13&#45;&gt;Node2 -->
<g id="edge18" class="edge">
<title>Node13&#45;&gt;Node2</title>
<path fill="none" stroke="#191970" d="M46.3801,-284.2587C60.1984,-274.3641 77.2754,-262.1361 89.2375,-253.5707"/>
<polygon fill="#191970" stroke="#191970" points="43.9495,-281.6943 37.8566,-290.3619 48.0249,-287.3857 43.9495,-281.6943"/>
</g>
<!-- Node13&#45;&gt;Node7 -->
<g id="edge19" class="edge">
<title>Node13&#45;&gt;Node7</title>
<path fill="none" stroke="#191970" d="M23,-280.4061C23,-257.2147 23,-218.4022 23,-185 23,-185 23,-185 23,-127 23,-81.685 163.8131,-37.5912 229.2692,-19.5423"/>
<polygon fill="#191970" stroke="#191970" points="19.5001,-280.4439 23,-290.4439 26.5001,-280.4439 19.5001,-280.4439"/>
</g>
<!-- Node14&#45;&gt;Node5 -->
<g id="edge25" class="edge">
<title>Node14&#45;&gt;Node5</title>
<path fill="none" stroke="#191970" d="M285.7983,-167.405C275.7259,-157.6683 263.5428,-145.8914 254.9352,-137.5707"/>
<polygon fill="#191970" stroke="#191970" points="283.3726,-169.9281 292.9951,-174.3619 288.2378,-164.8952 283.3726,-169.9281"/>
</g>
<!-- Node14&#45;&gt;Node6 -->
<g id="edge24" class="edge">
<title>Node14&#45;&gt;Node6</title>
<path fill="none" stroke="#191970" d="M312.7111,-164.7902C323.3839,-140.0294 341.0707,-98.996 349.3969,-79.6792"/>
<polygon fill="#191970" stroke="#191970" points="309.3585,-163.7262 308.6143,-174.2949 315.7867,-166.4971 309.3585,-163.7262"/>
</g>
<!-- Node14&#45;&gt;Node10 -->
<g id="edge23" class="edge">
<title>Node14&#45;&gt;Node10</title>
<path fill="none" stroke="#191970" d="M337.5476,-170.4794C361.1361,-160.2695 392.1659,-146.8386 413.4613,-137.6212"/>
<polygon fill="#191970" stroke="#191970" points="336.0533,-167.3123 328.2664,-174.4966 338.8339,-173.7364 336.0533,-167.3123"/>
</g>
</g>
</svg>
