<?xml version="1.0" encoding="UTF-8" standalone="no"?>
<!DOCTYPE svg PUBLIC "-//W3C//DTD SVG 1.1//EN"
 "http://www.w3.org/Graphics/SVG/1.1/DTD/svg11.dtd">
<!-- Generated by graphviz version 2.40.1 (20161225.0304)
 -->
<!-- Title: rss.hpp Pages: 1 -->
<svg width="378pt" height="320pt"
 viewBox="0.00 0.00 377.50 320.00" xmlns="http://www.w3.org/2000/svg" xmlns:xlink="http://www.w3.org/1999/xlink">
<g id="graph0" class="graph" transform="scale(1 1) rotate(0) translate(4 316)">
<title>rss.hpp</title>
<polygon fill="#ffffff" stroke="transparent" points="-4,4 -4,-316 373.5,-316 373.5,4 -4,4"/>
<!-- Node16 -->
<g id="node1" class="node">
<title>Node16</title>
<polygon fill="#bfbfbf" stroke="#000000" points="312.5,-290.5 312.5,-311.5 358.5,-311.5 358.5,-290.5 312.5,-290.5"/>
<text text-anchor="middle" x="335.5" y="-297.9" font-family="Helvetica,sans-Serif" font-size="12.00" fill="#000000">rss.hpp</text>
</g>
<!-- Node17 -->
<g id="node2" class="node">
<title>Node17</title>
<g id="a_node2"><a xlink:href="base__timer_8hpp.html" target="_top" xlink:title="base_timer.hpp">
<polygon fill="#ffffff" stroke="#000000" points="241,-232.5 241,-253.5 320,-253.5 320,-232.5 241,-232.5"/>
<text text-anchor="middle" x="280.5" y="-239.9" font-family="Helvetica,sans-Serif" font-size="12.00" fill="#000000">base_timer.hpp</text>
</a>
</g>
</g>
<!-- Node16&#45;&gt;Node17 -->
<g id="edge1" class="edge">
<title>Node16&#45;&gt;Node17</title>
<path fill="none" stroke="#191970" d="M318.2698,-282.8299C309.1454,-273.2078 298.2595,-261.7282 290.5239,-253.5707"/>
<polygon fill="#191970" stroke="#191970" points="315.9915,-285.514 325.4122,-290.3619 321.0709,-280.6973 315.9915,-285.514"/>
</g>
<!-- Node22 -->
<g id="node7" class="node">
<title>Node22</title>
<g id="a_node7"><a xlink:href="timemory_8cc.html" target="_top" xlink:title="timemory.cc">
<polygon fill="#ffffff" stroke="#000000" points="150,-.5 150,-21.5 215,-21.5 215,-.5 150,-.5"/>
<text text-anchor="middle" x="182.5" y="-7.9" font-family="Helvetica,sans-Serif" font-size="12.00" fill="#000000">timemory.cc</text>
</a>
</g>
</g>
<!-- Node16&#45;&gt;Node22 -->
<g id="edge11" class="edge">
<title>Node16&#45;&gt;Node22</title>
<path fill="none" stroke="#191970" d="M345.0614,-281.1913C355.1177,-258.501 369.5,-219.9419 369.5,-185 369.5,-185 369.5,-185 369.5,-127 369.5,-55.1759 268.6497,-26.2839 215.0729,-16.0027"/>
<polygon fill="#191970" stroke="#191970" points="341.811,-279.8823 340.8125,-290.43 348.1707,-282.8072 341.811,-279.8823"/>
</g>
<!-- Node18 -->
<g id="node3" class="node">
<title>Node18</title>
<g id="a_node3"><a xlink:href="base__timer_8cpp.html" target="_top" xlink:title="base_timer.cpp">
<polygon fill="#ffffff" stroke="#000000" points="157.5,-174.5 157.5,-195.5 235.5,-195.5 235.5,-174.5 157.5,-174.5"/>
<text text-anchor="middle" x="196.5" y="-181.9" font-family="Helvetica,sans-Serif" font-size="12.00" fill="#000000">base_timer.cpp</text>
</a>
</g>
</g>
<!-- Node17&#45;&gt;Node18 -->
<g id="edge2" class="edge">
<title>Node17&#45;&gt;Node18</title>
<path fill="none" stroke="#191970" d="M256.6624,-226.5407C242.2617,-216.5973 224.3325,-204.2177 211.8092,-195.5707"/>
<polygon fill="#191970" stroke="#191970" points="254.8754,-229.5601 265.0931,-232.3619 258.8528,-223.7998 254.8754,-229.5601"/>
</g>
<!-- Node19 -->
<g id="node4" class="node">
<title>Node19</title>
<g id="a_node4"><a xlink:href="timer_8hpp.html" target="_top" xlink:title="timer.hpp">
<polygon fill="#ffffff" stroke="#000000" points="253.5,-174.5 253.5,-195.5 307.5,-195.5 307.5,-174.5 253.5,-174.5"/>
<text text-anchor="middle" x="280.5" y="-181.9" font-family="Helvetica,sans-Serif" font-size="12.00" fill="#000000">timer.hpp</text>
</a>
</g>
</g>
<!-- Node17&#45;&gt;Node19 -->
<g id="edge3" class="edge">
<title>Node17&#45;&gt;Node19</title>
<path fill="none" stroke="#191970" d="M280.5,-222.1906C280.5,-213.1684 280.5,-202.9941 280.5,-195.5707"/>
<polygon fill="#191970" stroke="#191970" points="277.0001,-222.3619 280.5,-232.3619 284.0001,-222.3619 277.0001,-222.3619"/>
</g>
<!-- Node20 -->
<g id="node5" class="node">
<title>Node20</title>
<g id="a_node5"><a xlink:href="timing__manager_8hpp.html" target="_top" xlink:title="timing_manager.hpp">
<polygon fill="#ffffff" stroke="#000000" points="94,-116.5 94,-137.5 193,-137.5 193,-116.5 94,-116.5"/>
<text text-anchor="middle" x="143.5" y="-123.9" font-family="Helvetica,sans-Serif" font-size="12.00" fill="#000000">timing_manager.hpp</text>
</a>
</g>
</g>
<!-- Node19&#45;&gt;Node20 -->
<g id="edge4" class="edge">
<title>Node19&#45;&gt;Node20</title>
<path fill="none" stroke="#191970" d="M246.2013,-170.4794C222.0848,-160.2695 190.3602,-146.8386 168.5881,-137.6212"/>
<polygon fill="#191970" stroke="#191970" points="245.1171,-173.821 255.6903,-174.4966 247.8461,-167.3749 245.1171,-173.821"/>
</g>
<!-- Node19&#45;&gt;Node22 -->
<g id="edge9" class="edge">
<title>Node19&#45;&gt;Node22</title>
<path fill="none" stroke="#191970" d="M277.7256,-164.1487C273.3848,-137.5722 263.0291,-91.1115 240.5,-58 230.1471,-42.7842 213.4341,-29.9875 200.6021,-21.6079"/>
<polygon fill="#191970" stroke="#191970" points="274.292,-164.8535 279.2356,-174.2243 281.2147,-163.8159 274.292,-164.8535"/>
</g>
<!-- Node24 -->
<g id="node9" class="node">
<title>Node24</title>
<g id="a_node9"><a xlink:href="timer_8cpp.html" target="_top" xlink:title="timer.cpp">
<polygon fill="#ffffff" stroke="#000000" points="287.5,-116.5 287.5,-137.5 341.5,-137.5 341.5,-116.5 287.5,-116.5"/>
<text text-anchor="middle" x="314.5" y="-123.9" font-family="Helvetica,sans-Serif" font-size="12.00" fill="#000000">timer.cpp</text>
</a>
</g>
</g>
<!-- Node19&#45;&gt;Node24 -->
<g id="edge10" class="edge">
<title>Node19&#45;&gt;Node24</title>
<path fill="none" stroke="#191970" d="M291.8333,-165.6667C297.3272,-156.2948 303.7127,-145.4019 308.3034,-137.5707"/>
<polygon fill="#191970" stroke="#191970" points="288.7739,-163.9649 286.7361,-174.3619 294.8128,-167.5049 288.7739,-163.9649"/>
</g>
<!-- Node21 -->
<g id="node6" class="node">
<title>Node21</title>
<g id="a_node6"><a xlink:href="auto__timer_8hpp.html" target="_top" xlink:title="auto_timer.hpp">
<polygon fill="#ffffff" stroke="#000000" points="0,-58.5 0,-79.5 77,-79.5 77,-58.5 0,-58.5"/>
<text text-anchor="middle" x="38.5" y="-65.9" font-family="Helvetica,sans-Serif" font-size="12.00" fill="#000000">auto_timer.hpp</text>
</a>
</g>
</g>
<!-- Node20&#45;&gt;Node21 -->
<g id="edge5" class="edge">
<title>Node20&#45;&gt;Node21</title>
<path fill="none" stroke="#191970" d="M115.4713,-111.5175C97.1894,-101.4189 73.8075,-88.5032 57.6365,-79.5707"/>
<polygon fill="#191970" stroke="#191970" points="113.7957,-114.5903 124.2414,-116.3619 117.1804,-108.463 113.7957,-114.5903"/>
</g>
<!-- Node20&#45;&gt;Node22 -->
<g id="edge7" class="edge">
<title>Node20&#45;&gt;Node22</title>
<path fill="none" stroke="#191970" d="M130.9369,-107.4244C123.5248,-93.2425 116.9404,-73.856 124.5,-58 132.1414,-41.9725 148.2149,-29.639 161.507,-21.6359"/>
<polygon fill="#191970" stroke="#191970" points="128.0212,-109.3755 136.0368,-116.3038 134.0912,-105.8891 128.0212,-109.3755"/>
</g>
<!-- Node23 -->
<g id="node8" class="node">
<title>Node23</title>
<g id="a_node8"><a xlink:href="timing__manager_8cpp.html" target="_top" xlink:title="timing_manager.cpp">
<polygon fill="#ffffff" stroke="#000000" points="133.5,-58.5 133.5,-79.5 231.5,-79.5 231.5,-58.5 133.5,-58.5"/>
<text text-anchor="middle" x="182.5" y="-65.9" font-family="Helvetica,sans-Serif" font-size="12.00" fill="#000000">timing_manager.cpp</text>
</a>
</g>
</g>
<!-- Node20&#45;&gt;Node23 -->
<g id="edge8" class="edge">
<title>Node20&#45;&gt;Node23</title>
<path fill="none" stroke="#191970" d="M156.3034,-107.9591C162.649,-98.522 170.0714,-87.4835 175.3921,-79.5707"/>
<polygon fill="#191970" stroke="#191970" points="153.3288,-106.1105 150.6532,-116.3619 159.1377,-110.0165 153.3288,-106.1105"/>
</g>
<!-- Node21&#45;&gt;Node22 -->
<g id="edge6" class="edge">
<title>Node21&#45;&gt;Node22</title>
<path fill="none" stroke="#191970" d="M73.8771,-54.7509C99.3063,-44.5086 133.0421,-30.9206 156.1301,-21.6212"/>
<polygon fill="#191970" stroke="#191970" points="72.5455,-51.5139 64.5773,-58.4966 75.1608,-58.007 72.5455,-51.5139"/>
</g>
</g>
</svg>
