<?xml version="1.0" encoding="UTF-8" standalone="no"?>
<!DOCTYPE svg PUBLIC "-//W3C//DTD SVG 1.1//EN"
 "http://www.w3.org/Graphics/SVG/1.1/DTD/svg11.dtd">
<!-- Generated by graphviz version 2.40.1 (20161225.0304)
 -->
<!-- Title: rss.hpp Pages: 1 -->
<svg width="1330pt" height="88pt"
 viewBox="0.00 0.00 1330.00 88.00" xmlns="http://www.w3.org/2000/svg" xmlns:xlink="http://www.w3.org/1999/xlink">
<g id="graph0" class="graph" transform="scale(1 1) rotate(0) translate(4 84)">
<title>rss.hpp</title>
<polygon fill="#ffffff" stroke="transparent" points="-4,4 -4,-84 1326,-84 1326,4 -4,4"/>
<!-- Node0 -->
<g id="node1" class="node">
<title>Node0</title>
<polygon fill="#bfbfbf" stroke="#000000" points="431,-58.5 431,-79.5 477,-79.5 477,-58.5 431,-58.5"/>
<text text-anchor="middle" x="454" y="-65.9" font-family="Helvetica,sans-Serif" font-size="12.00" fill="#000000">rss.hpp</text>
</g>
<!-- Node1 -->
<g id="node2" class="node">
<title>Node1</title>
<polygon fill="#ffffff" stroke="#bfbfbf" points="0,-.5 0,-21.5 48,-21.5 48,-.5 0,-.5"/>
<text text-anchor="middle" x="24" y="-7.9" font-family="Helvetica,sans-Serif" font-size="12.00" fill="#000000">unistd.h</text>
</g>
<!-- Node0&#45;&gt;Node1 -->
<g id="edge1" class="edge">
<title>Node0&#45;&gt;Node1</title>
<path fill="none" stroke="#191970" d="M430.8998,-67.9128C370.7884,-64.7387 204.5677,-53.757 58.3944,-21.9582"/>
<polygon fill="#191970" stroke="#191970" points="58.8722,-18.4793 48.3518,-19.7332 57.3579,-25.3135 58.8722,-18.4793"/>
</g>
<!-- Node2 -->
<g id="node3" class="node">
<title>Node2</title>
<polygon fill="#ffffff" stroke="#bfbfbf" points="66.5,-.5 66.5,-21.5 95.5,-21.5 95.5,-.5 66.5,-.5"/>
<text text-anchor="middle" x="81" y="-7.9" font-family="Helvetica,sans-Serif" font-size="12.00" fill="#000000">ios</text>
</g>
<!-- Node0&#45;&gt;Node2 -->
<g id="edge2" class="edge">
<title>Node0&#45;&gt;Node2</title>
<path fill="none" stroke="#191970" d="M430.9629,-68.379C375.6455,-66.3746 231.1513,-58.0883 105.5976,-21.8081"/>
<polygon fill="#191970" stroke="#191970" points="106.4074,-18.3978 95.8252,-18.9152 104.4204,-25.1099 106.4074,-18.3978"/>
</g>
<!-- Node3 -->
<g id="node4" class="node">
<title>Node3</title>
<polygon fill="#ffffff" stroke="#bfbfbf" points="113.5,-.5 113.5,-21.5 164.5,-21.5 164.5,-.5 113.5,-.5"/>
<text text-anchor="middle" x="139" y="-7.9" font-family="Helvetica,sans-Serif" font-size="12.00" fill="#000000">iostream</text>
</g>
<!-- Node0&#45;&gt;Node3 -->
<g id="edge3" class="edge">
<title>Node0&#45;&gt;Node3</title>
<path fill="none" stroke="#191970" d="M430.8196,-66.297C384.0095,-60.5905 274.7683,-46.0187 174.4895,-22.1155"/>
<polygon fill="#191970" stroke="#191970" points="175.0472,-18.6494 164.5042,-19.6965 173.399,-25.4526 175.0472,-18.6494"/>
</g>
<!-- Node4 -->
<g id="node5" class="node">
<title>Node4</title>
<polygon fill="#ffffff" stroke="#bfbfbf" points="182.5,-.5 182.5,-21.5 229.5,-21.5 229.5,-.5 182.5,-.5"/>
<text text-anchor="middle" x="206" y="-7.9" font-family="Helvetica,sans-Serif" font-size="12.00" fill="#000000">fstream</text>
</g>
<!-- Node0&#45;&gt;Node4 -->
<g id="edge4" class="edge">
<title>Node0&#45;&gt;Node4</title>
<path fill="none" stroke="#191970" d="M430.7658,-64.868C392.6679,-57.8965 314.4076,-42.7549 239.7051,-22.2719"/>
<polygon fill="#191970" stroke="#191970" points="240.2408,-18.7881 229.6686,-19.4809 238.3653,-25.5322 240.2408,-18.7881"/>
</g>
<!-- Node5 -->
<g id="node6" class="node">
<title>Node5</title>
<polygon fill="#ffffff" stroke="#bfbfbf" points="247.5,-.5 247.5,-21.5 286.5,-21.5 286.5,-.5 247.5,-.5"/>
<text text-anchor="middle" x="267" y="-7.9" font-family="Helvetica,sans-Serif" font-size="12.00" fill="#000000">string</text>
</g>
<!-- Node0&#45;&gt;Node5 -->
<g id="edge5" class="edge">
<title>Node0&#45;&gt;Node5</title>
<path fill="none" stroke="#191970" d="M430.8064,-62.6765C401.6115,-54.5934 349.7558,-39.8286 296.2383,-21.9123"/>
<polygon fill="#191970" stroke="#191970" points="297.1792,-18.5359 286.585,-18.6518 294.9392,-25.1678 297.1792,-18.5359"/>
</g>
<!-- Node6 -->
<g id="node7" class="node">
<title>Node6</title>
<polygon fill="#ffffff" stroke="#bfbfbf" points="305,-.5 305,-21.5 353,-21.5 353,-.5 305,-.5"/>
<text text-anchor="middle" x="329" y="-7.9" font-family="Helvetica,sans-Serif" font-size="12.00" fill="#000000">iomanip</text>
</g>
<!-- Node0&#45;&gt;Node6 -->
<g id="edge6" class="edge">
<title>Node0&#45;&gt;Node6</title>
<path fill="none" stroke="#191970" d="M431.3634,-58.4966C411.7521,-49.397 383.1536,-36.1273 361.1667,-25.9253"/>
<polygon fill="#191970" stroke="#191970" points="362.4348,-22.6554 351.8906,-21.6212 359.4885,-29.0051 362.4348,-22.6554"/>
</g>
<!-- Node7 -->
<g id="node8" class="node">
<title>Node7</title>
<polygon fill="#ffffff" stroke="#bfbfbf" points="371.5,-.5 371.5,-21.5 414.5,-21.5 414.5,-.5 371.5,-.5"/>
<text text-anchor="middle" x="393" y="-7.9" font-family="Helvetica,sans-Serif" font-size="12.00" fill="#000000">stdio.h</text>
</g>
<!-- Node0&#45;&gt;Node7 -->
<g id="edge7" class="edge">
<title>Node0&#45;&gt;Node7</title>
<path fill="none" stroke="#191970" d="M442.8117,-58.3619C434.041,-50.0226 421.6509,-38.2418 411.4222,-28.5162"/>
<polygon fill="#191970" stroke="#191970" points="413.7762,-25.9248 404.1174,-21.5707 408.9527,-30.9978 413.7762,-25.9248"/>
</g>
<!-- Node8 -->
<g id="node9" class="node">
<title>Node8</title>
<polygon fill="#ffffff" stroke="#bfbfbf" points="432.5,-.5 432.5,-21.5 475.5,-21.5 475.5,-.5 432.5,-.5"/>
<text text-anchor="middle" x="454" y="-7.9" font-family="Helvetica,sans-Serif" font-size="12.00" fill="#000000">cstdint</text>
</g>
<!-- Node0&#45;&gt;Node8 -->
<g id="edge8" class="edge">
<title>Node0&#45;&gt;Node8</title>
<path fill="none" stroke="#191970" d="M454,-58.3619C454,-50.9219 454,-40.7427 454,-31.7276"/>
<polygon fill="#191970" stroke="#191970" points="457.5001,-31.5706 454,-21.5707 450.5001,-31.5707 457.5001,-31.5706"/>
</g>
<!-- Node9 -->
<g id="node10" class="node">
<title>Node9</title>
<polygon fill="#ffffff" stroke="#bfbfbf" points="494,-.5 494,-21.5 580,-21.5 580,-.5 494,-.5"/>
<text text-anchor="middle" x="537" y="-7.9" font-family="Helvetica,sans-Serif" font-size="12.00" fill="#000000">cereal/cereal.hpp</text>
</g>
<!-- Node0&#45;&gt;Node9 -->
<g id="edge9" class="edge">
<title>Node0&#45;&gt;Node9</title>
<path fill="none" stroke="#191970" d="M469.2235,-58.3619C481.6254,-49.6955 499.3458,-37.3126 513.557,-27.3819"/>
<polygon fill="#191970" stroke="#191970" points="515.6809,-30.1676 521.873,-21.5707 511.6712,-24.4297 515.6809,-30.1676"/>
</g>
<!-- Node10 -->
<g id="node11" class="node">
<title>Node10</title>
<polygon fill="#ffffff" stroke="#bfbfbf" points="598.5,-.5 598.5,-21.5 687.5,-21.5 687.5,-.5 598.5,-.5"/>
<text text-anchor="middle" x="643" y="-7.9" font-family="Helvetica,sans-Serif" font-size="12.00" fill="#000000">cereal/access.hpp</text>
</g>
<!-- Node0&#45;&gt;Node10 -->
<g id="edge10" class="edge">
<title>Node0&#45;&gt;Node10</title>
<path fill="none" stroke="#191970" d="M477.1751,-61.8881C507.3972,-52.6136 560.888,-36.1984 598.9419,-24.5205"/>
<polygon fill="#191970" stroke="#191970" points="600.213,-27.7916 608.7461,-21.5118 598.1593,-21.0996 600.213,-27.7916"/>
</g>
<!-- Node11 -->
<g id="node12" class="node">
<title>Node11</title>
<polygon fill="#ffffff" stroke="#bfbfbf" points="705.5,-.5 705.5,-21.5 796.5,-21.5 796.5,-.5 705.5,-.5"/>
<text text-anchor="middle" x="751" y="-7.9" font-family="Helvetica,sans-Serif" font-size="12.00" fill="#000000">cereal/macros.hpp</text>
</g>
<!-- Node0&#45;&gt;Node11 -->
<g id="edge11" class="edge">
<title>Node0&#45;&gt;Node11</title>
<path fill="none" stroke="#191970" d="M477.1334,-64.6046C518.749,-56.6807 609.2416,-39.3735 695.4019,-22.3056"/>
<polygon fill="#191970" stroke="#191970" points="696.2135,-25.7129 705.3413,-20.3339 694.8514,-18.8467 696.2135,-25.7129"/>
</g>
<!-- Node12 -->
<g id="node13" class="node">
<title>Node12</title>
<polygon fill="#ffffff" stroke="#bfbfbf" points="814.5,-.5 814.5,-21.5 927.5,-21.5 927.5,-.5 814.5,-.5"/>
<text text-anchor="middle" x="871" y="-7.9" font-family="Helvetica,sans-Serif" font-size="12.00" fill="#000000">cereal/types/chrono.hpp</text>
</g>
<!-- Node0&#45;&gt;Node12 -->
<g id="edge12" class="edge">
<title>Node0&#45;&gt;Node12</title>
<path fill="none" stroke="#191970" d="M477.1029,-66.1986C531.9933,-59.4826 674.7543,-41.6627 804.2096,-22.2368"/>
<polygon fill="#191970" stroke="#191970" points="804.9321,-25.6675 814.2984,-20.7154 803.8883,-18.7458 804.9321,-25.6675"/>
</g>
<!-- Node13 -->
<g id="node14" class="node">
<title>Node13</title>
<polygon fill="#ffffff" stroke="#bfbfbf" points="946,-.5 946,-21.5 1056,-21.5 1056,-.5 946,-.5"/>
<text text-anchor="middle" x="1001" y="-7.9" font-family="Helvetica,sans-Serif" font-size="12.00" fill="#000000">cereal/types/deque.hpp</text>
</g>
<!-- Node0&#45;&gt;Node13 -->
<g id="edge13" class="edge">
<title>Node0&#45;&gt;Node13</title>
<path fill="none" stroke="#191970" d="M477.1942,-67.3489C545.6808,-62.3461 753.1354,-46.2756 935.8238,-22.0808"/>
<polygon fill="#191970" stroke="#191970" points="936.4329,-25.5306 945.8813,-20.7371 935.5059,-18.5923 936.4329,-25.5306"/>
</g>
<!-- Node14 -->
<g id="node15" class="node">
<title>Node14</title>
<polygon fill="#ffffff" stroke="#bfbfbf" points="1074,-.5 1074,-21.5 1184,-21.5 1184,-.5 1074,-.5"/>
<text text-anchor="middle" x="1129" y="-7.9" font-family="Helvetica,sans-Serif" font-size="12.00" fill="#000000">cereal/types/vector.hpp</text>
</g>
<!-- Node0&#45;&gt;Node14 -->
<g id="edge14" class="edge">
<title>Node0&#45;&gt;Node14</title>
<path fill="none" stroke="#191970" d="M477.1047,-68.0022C556.9632,-64.39 828.8345,-50.7337 1063.7897,-22.0535"/>
<polygon fill="#191970" stroke="#191970" points="1064.3939,-25.5056 1073.8905,-20.8083 1063.5374,-18.5582 1064.3939,-25.5056"/>
</g>
<!-- Node15 -->
<g id="node16" class="node">
<title>Node15</title>
<g id="a_node16"><a xlink:href="namespace_8hpp.html" target="_top" xlink:title="timemory/namespace.hpp">
<polygon fill="#ffffff" stroke="#000000" points="1202,-.5 1202,-21.5 1322,-21.5 1322,-.5 1202,-.5"/>
<text text-anchor="middle" x="1262" y="-7.9" font-family="Helvetica,sans-Serif" font-size="12.00" fill="#000000">timemory/namespace.hpp</text>
</a>
</g>
</g>
<!-- Node0&#45;&gt;Node15 -->
<g id="edge15" class="edge">
<title>Node0&#45;&gt;Node15</title>
<path fill="none" stroke="#191970" d="M477.0557,-68.3284C567.1046,-65.5395 903.8856,-53.5591 1191.6203,-22.0636"/>
<polygon fill="#191970" stroke="#191970" points="1192.2796,-25.5121 1201.8347,-20.9349 1191.5108,-18.5544 1192.2796,-25.5121"/>
</g>
</g>
</svg>
