<?xml version="1.0" encoding="UTF-8" standalone="no"?>
<!DOCTYPE svg PUBLIC "-//W3C//DTD SVG 1.1//EN"
 "http://www.w3.org/Graphics/SVG/1.1/DTD/svg11.dtd">
<!-- Generated by graphviz version 2.40.1 (20161225.0304)
 -->
<!-- Title: signal_detection.hpp Pages: 1 -->
<svg width="190pt" height="88pt"
 viewBox="0.00 0.00 190.00 88.00" xmlns="http://www.w3.org/2000/svg" xmlns:xlink="http://www.w3.org/1999/xlink">
<g id="graph0" class="graph" transform="scale(1 1) rotate(0) translate(4 84)">
<title>signal_detection.hpp</title>
<polygon fill="#ffffff" stroke="transparent" points="-4,4 -4,-84 186,-84 186,4 -4,4"/>
<!-- Node21 -->
<g id="node1" class="node">
<title>Node21</title>
<polygon fill="#bfbfbf" stroke="#000000" points="50,-58.5 50,-79.5 149,-79.5 149,-58.5 50,-58.5"/>
<text text-anchor="middle" x="99.5" y="-65.9" font-family="Helvetica,sans-Serif" font-size="12.00" fill="#000000">signal_detection.hpp</text>
</g>
<!-- Node22 -->
<g id="node2" class="node">
<title>Node22</title>
<g id="a_node2"><a xlink:href="signal__detection_8cpp.html" target="_top" xlink:title="signal_detection.cpp">
<polygon fill="#ffffff" stroke="#000000" points="0,-.5 0,-21.5 99,-21.5 99,-.5 0,-.5"/>
<text text-anchor="middle" x="49.5" y="-7.9" font-family="Helvetica,sans-Serif" font-size="12.00" fill="#000000">signal_detection.cpp</text>
</a>
</g>
</g>
<!-- Node21&#45;&gt;Node22 -->
<g id="edge1" class="edge">
<title>Node21&#45;&gt;Node22</title>
<path fill="none" stroke="#191970" d="M83.5868,-50.5407C75.3436,-40.9786 65.5747,-29.6467 58.6126,-21.5707"/>
<polygon fill="#191970" stroke="#191970" points="81.1489,-53.0731 90.3292,-58.3619 86.4507,-48.5025 81.1489,-53.0731"/>
</g>
<!-- Node23 -->
<g id="node3" class="node">
<title>Node23</title>
<g id="a_node3"><a xlink:href="timemory_8cc.html" target="_top" xlink:title="timemory.cc">
<polygon fill="#ffffff" stroke="#000000" points="117,-.5 117,-21.5 182,-21.5 182,-.5 117,-.5"/>
<text text-anchor="middle" x="149.5" y="-7.9" font-family="Helvetica,sans-Serif" font-size="12.00" fill="#000000">timemory.cc</text>
</a>
</g>
</g>
<!-- Node21&#45;&gt;Node23 -->
<g id="edge2" class="edge">
<title>Node21&#45;&gt;Node23</title>
<path fill="none" stroke="#191970" d="M115.4132,-50.5407C123.6564,-40.9786 133.4253,-29.6467 140.3874,-21.5707"/>
<polygon fill="#191970" stroke="#191970" points="112.5493,-48.5025 108.6708,-58.3619 117.8511,-53.0731 112.5493,-48.5025"/>
</g>
</g>
</svg>
