<?xml version="1.0" encoding="UTF-8" standalone="no"?>
<!DOCTYPE svg PUBLIC "-//W3C//DTD SVG 1.1//EN"
 "http://www.w3.org/Graphics/SVG/1.1/DTD/svg11.dtd">
<!-- Generated by graphviz version 2.40.1 (20161225.0304)
 -->
<!-- Title: NAME_TIM::util::time_units&lt; std::ratio&lt; 3600 *24 &gt; &gt; Pages: 1 -->
<svg width="119pt" height="224pt"
 viewBox="0.00 0.00 119.00 224.00" xmlns="http://www.w3.org/2000/svg" xmlns:xlink="http://www.w3.org/1999/xlink">
<g id="graph0" class="graph" transform="scale(1 1) rotate(0) translate(4 220)">
<title>NAME_TIM::util::time_units&lt; std::ratio&lt; 3600 *24 &gt; &gt;</title>
<polygon fill="#ffffff" stroke="transparent" points="-4,4 -4,-220 115,-220 115,4 -4,4"/>
<!-- Node1 -->
<g id="node1" class="node">
<title>Node1</title>
<polygon fill="#bfbfbf" stroke="#000000" points="0,-.5 0,-89.5 111,-89.5 111,-.5 0,-.5"/>
<text text-anchor="start" x="8" y="-75.9" font-family="Helvetica,sans-Serif" font-size="12.00" fill="#000000">NAME_TIM::util::time</text>
<text text-anchor="start" x="8" y="-62.9" font-family="Helvetica,sans-Serif" font-size="12.00" fill="#000000">_units&lt; std::ratio&lt; 3600</text>
<text text-anchor="middle" x="55.5" y="-49.9" font-family="Helvetica,sans-Serif" font-size="12.00" fill="#000000"> *24 &gt; &gt;</text>
<polyline fill="none" stroke="#000000" points="0,-42.5 111,-42.5 "/>
<text text-anchor="middle" x="55.5" y="-28.9" font-family="Helvetica,sans-Serif" font-size="12.00" fill="#000000"> </text>
<polyline fill="none" stroke="#000000" points="0,-21.5 111,-21.5 "/>
<text text-anchor="middle" x="55.5" y="-7.9" font-family="Helvetica,sans-Serif" font-size="12.00" fill="#000000"> </text>
</g>
<!-- Node2 -->
<g id="node2" class="node">
<title>Node2</title>
<polygon fill="#ffffff" stroke="#bfbfbf" points="4,-139.5 4,-215.5 107,-215.5 107,-139.5 4,-139.5"/>
<text text-anchor="start" x="12" y="-201.9" font-family="Helvetica,sans-Serif" font-size="12.00" fill="#000000">static constexpr const</text>
<text text-anchor="middle" x="55.5" y="-188.9" font-family="Helvetica,sans-Serif" font-size="12.00" fill="#000000"> char *</text>
<polyline fill="none" stroke="#bfbfbf" points="4,-181.5 107,-181.5 "/>
<text text-anchor="middle" x="55.5" y="-167.9" font-family="Helvetica,sans-Serif" font-size="12.00" fill="#000000"> </text>
<polyline fill="none" stroke="#bfbfbf" points="4,-160.5 107,-160.5 "/>
<text text-anchor="middle" x="55.5" y="-146.9" font-family="Helvetica,sans-Serif" font-size="12.00" fill="#000000"> </text>
</g>
<!-- Node2&#45;&gt;Node1 -->
<g id="edge1" class="edge">
<title>Node2&#45;&gt;Node1</title>
<path fill="none" stroke="#404040" d="M55.5,-139.1755C55.5,-127.5963 55.5,-114.624 55.5,-102.0969"/>
<polygon fill="none" stroke="#404040" points="55.5001,-101.7863 51.5,-95.7863 55.5,-89.7863 59.5,-95.7862 55.5001,-101.7863"/>
<text text-anchor="middle" x="64.5" y="-111.4" font-family="Helvetica,sans-Serif" font-size="12.00" fill="#000000"> +str</text>
</g>
</g>
</svg>
