<?xml version="1.0" encoding="UTF-8" standalone="no"?>
<!DOCTYPE svg PUBLIC "-//W3C//DTD SVG 1.1//EN"
 "http://www.w3.org/Graphics/SVG/1.1/DTD/svg11.dtd">
<!-- Generated by graphviz version 2.40.1 (20161225.0304)
 -->
<!-- Title: NAME_TIM::util::base_clock_data&lt; _Prec &gt; Pages: 1 -->
<svg width="123pt" height="289pt"
 viewBox="0.00 0.00 123.00 289.00" xmlns="http://www.w3.org/2000/svg" xmlns:xlink="http://www.w3.org/1999/xlink">
<g id="graph0" class="graph" transform="scale(1 1) rotate(0) translate(4 285)">
<title>NAME_TIM::util::base_clock_data&lt; _Prec &gt;</title>
<polygon fill="#ffffff" stroke="transparent" points="-4,4 -4,-285 119,-285 119,4 -4,4"/>
<!-- Node1 -->
<g id="node1" class="node">
<title>Node1</title>
<polygon fill="#bfbfbf" stroke="#000000" points="5.5,-.5 5.5,-128.5 109.5,-128.5 109.5,-.5 5.5,-.5"/>
<text text-anchor="start" x="13.5" y="-114.9" font-family="Helvetica,sans-Serif" font-size="12.00" fill="#000000">NAME_TIM::util::base</text>
<text text-anchor="middle" x="57.5" y="-101.9" font-family="Helvetica,sans-Serif" font-size="12.00" fill="#000000">_clock_data&lt; _Prec &gt;</text>
<polyline fill="none" stroke="#000000" points="5.5,-94.5 109.5,-94.5 "/>
<text text-anchor="middle" x="57.5" y="-80.9" font-family="Helvetica,sans-Serif" font-size="12.00" fill="#000000"> </text>
<polyline fill="none" stroke="#000000" points="5.5,-73.5 109.5,-73.5 "/>
<text text-anchor="start" x="13.5" y="-59.9" font-family="Helvetica,sans-Serif" font-size="12.00" fill="#000000">+ base_clock_data()</text>
<text text-anchor="start" x="13.5" y="-46.9" font-family="Helvetica,sans-Serif" font-size="12.00" fill="#000000">+ base_clock_data()</text>
<text text-anchor="start" x="13.5" y="-33.9" font-family="Helvetica,sans-Serif" font-size="12.00" fill="#000000">+ operator=()</text>
<text text-anchor="start" x="13.5" y="-20.9" font-family="Helvetica,sans-Serif" font-size="12.00" fill="#000000">+ operator=()</text>
<text text-anchor="start" x="13.5" y="-7.9" font-family="Helvetica,sans-Serif" font-size="12.00" fill="#000000">+ serialize()</text>
</g>
<!-- Node2 -->
<g id="node2" class="node">
<title>Node2</title>
<polygon fill="#ffffff" stroke="#bfbfbf" points="0,-178.5 0,-280.5 115,-280.5 115,-178.5 0,-178.5"/>
<text text-anchor="start" x="8" y="-266.9" font-family="Helvetica,sans-Serif" font-size="12.00" fill="#000000">tuple&lt; std::intmax</text>
<text text-anchor="start" x="8" y="-253.9" font-family="Helvetica,sans-Serif" font-size="12.00" fill="#000000">_t, std::intmax_t, std</text>
<text text-anchor="start" x="8" y="-240.9" font-family="Helvetica,sans-Serif" font-size="12.00" fill="#000000">::chrono::high_resolution</text>
<text text-anchor="middle" x="57.5" y="-227.9" font-family="Helvetica,sans-Serif" font-size="12.00" fill="#000000">_clock::rep &gt;</text>
<polyline fill="none" stroke="#bfbfbf" points="0,-220.5 115,-220.5 "/>
<text text-anchor="middle" x="57.5" y="-206.9" font-family="Helvetica,sans-Serif" font-size="12.00" fill="#000000"> </text>
<polyline fill="none" stroke="#bfbfbf" points="0,-199.5 115,-199.5 "/>
<text text-anchor="middle" x="57.5" y="-185.9" font-family="Helvetica,sans-Serif" font-size="12.00" fill="#000000"> </text>
</g>
<!-- Node2&#45;&gt;Node1 -->
<g id="edge1" class="edge">
<title>Node2&#45;&gt;Node1</title>
<path fill="none" stroke="#404040" d="M57.5,-178.1974C57.5,-166.2968 57.5,-153.3805 57.5,-140.666"/>
<polygon fill="none" stroke="#404040" points="57.5001,-140.5775 53.5,-134.5775 57.5,-128.5775 61.5,-134.5774 57.5001,-140.5775"/>
<text text-anchor="middle" x="70.5" y="-150.4" font-family="Helvetica,sans-Serif" font-size="12.00" fill="#000000"> +data</text>
</g>
</g>
</svg>
