<?xml version="1.0" encoding="UTF-8" standalone="no"?>
<!DOCTYPE svg PUBLIC "-//W3C//DTD SVG 1.1//EN"
 "http://www.w3.org/Graphics/SVG/1.1/DTD/svg11.dtd">
<!-- Generated by graphviz version 2.40.1 (20161225.0304)
 -->
<!-- Title: timing_manager.hpp Pages: 1 -->
<svg width="240pt" height="146pt"
 viewBox="0.00 0.00 239.50 146.00" xmlns="http://www.w3.org/2000/svg" xmlns:xlink="http://www.w3.org/1999/xlink">
<g id="graph0" class="graph" transform="scale(1 1) rotate(0) translate(4 142)">
<title>timing_manager.hpp</title>
<polygon fill="#ffffff" stroke="transparent" points="-4,4 -4,-142 235.5,-142 235.5,4 -4,4"/>
<!-- Node48 -->
<g id="node1" class="node">
<title>Node48</title>
<polygon fill="#bfbfbf" stroke="#000000" points="56,-116.5 56,-137.5 155,-137.5 155,-116.5 56,-116.5"/>
<text text-anchor="middle" x="105.5" y="-123.9" font-family="Helvetica,sans-Serif" font-size="12.00" fill="#000000">timing_manager.hpp</text>
</g>
<!-- Node49 -->
<g id="node2" class="node">
<title>Node49</title>
<g id="a_node2"><a xlink:href="auto__timer_8hpp.html" target="_top" xlink:title="auto_timer.hpp">
<polygon fill="#ffffff" stroke="#000000" points="0,-58.5 0,-79.5 77,-79.5 77,-58.5 0,-58.5"/>
<text text-anchor="middle" x="38.5" y="-65.9" font-family="Helvetica,sans-Serif" font-size="12.00" fill="#000000">auto_timer.hpp</text>
</a>
</g>
</g>
<!-- Node48&#45;&gt;Node49 -->
<g id="edge1" class="edge">
<title>Node48&#45;&gt;Node49</title>
<path fill="none" stroke="#191970" d="M85.5048,-109.6908C74.1944,-99.8996 60.417,-87.973 50.7109,-79.5707"/>
<polygon fill="#191970" stroke="#191970" points="83.3598,-112.4631 93.2112,-116.3619 87.9413,-107.1706 83.3598,-112.4631"/>
</g>
<!-- Node50 -->
<g id="node3" class="node">
<title>Node50</title>
<g id="a_node3"><a xlink:href="timemory_8cc.html" target="_top" xlink:title="timemory.cc">
<polygon fill="#ffffff" stroke="#000000" points="39,-.5 39,-21.5 104,-21.5 104,-.5 39,-.5"/>
<text text-anchor="middle" x="71.5" y="-7.9" font-family="Helvetica,sans-Serif" font-size="12.00" fill="#000000">timemory.cc</text>
</a>
</g>
</g>
<!-- Node48&#45;&gt;Node50 -->
<g id="edge3" class="edge">
<title>Node48&#45;&gt;Node50</title>
<path fill="none" stroke="#191970" d="M100.0391,-106.3223C96.3534,-92.583 91.3029,-74.1646 86.5,-58 82.7919,-45.5201 78.1991,-31.2908 75.0794,-21.7891"/>
<polygon fill="#191970" stroke="#191970" points="96.7155,-107.4431 102.6715,-116.2053 103.4797,-105.6413 96.7155,-107.4431"/>
</g>
<!-- Node51 -->
<g id="node4" class="node">
<title>Node51</title>
<g id="a_node4"><a xlink:href="timing__manager_8cpp.html" target="_top" xlink:title="timing_manager.cpp">
<polygon fill="#ffffff" stroke="#000000" points="133.5,-58.5 133.5,-79.5 231.5,-79.5 231.5,-58.5 133.5,-58.5"/>
<text text-anchor="middle" x="182.5" y="-65.9" font-family="Helvetica,sans-Serif" font-size="12.00" fill="#000000">timing_manager.cpp</text>
</a>
</g>
</g>
<!-- Node48&#45;&gt;Node51 -->
<g id="edge4" class="edge">
<title>Node48&#45;&gt;Node51</title>
<path fill="none" stroke="#191970" d="M127.7256,-110.2587C140.8615,-100.3641 157.0952,-88.1361 168.4665,-79.5707"/>
<polygon fill="#191970" stroke="#191970" points="125.5047,-107.5496 119.623,-116.3619 129.7164,-113.1409 125.5047,-107.5496"/>
</g>
<!-- Node49&#45;&gt;Node50 -->
<g id="edge2" class="edge">
<title>Node49&#45;&gt;Node50</title>
<path fill="none" stroke="#191970" d="M49.5,-49.6667C54.8323,-40.2948 61.0299,-29.4019 65.4857,-21.5707"/>
<polygon fill="#191970" stroke="#191970" points="46.4559,-47.9394 44.5527,-58.3619 52.5401,-51.4011 46.4559,-47.9394"/>
</g>
</g>
</svg>
