<?xml version="1.0" encoding="UTF-8" standalone="no"?>
<!DOCTYPE svg PUBLIC "-//W3C//DTD SVG 1.1//EN"
 "http://www.w3.org/Graphics/SVG/1.1/DTD/svg11.dtd">
<!-- Generated by graphviz version 2.40.1 (20161225.0304)
 -->
<!-- Title: utility.hpp Pages: 1 -->
<!--zoomable 88 -->
<svg id="main" version="1.1" xmlns="http://www.w3.org/2000/svg" xmlns:xlink="http://www.w3.org/1999/xlink" xml:space="preserve" onload="init(evt)">
<style type="text/css"><![CDATA[
.edge:hover path { stroke: red; }
.edge:hover polygon { stroke: red; fill: red; }
]]></style>
<script type="text/javascript"><![CDATA[
var edges = document.getElementsByTagName('g');
if (edges && edges.length) {
  for (var i=0;i<edges.length;i++) {
    if (edges[i].id.substr(0,4)=='edge') {
      edges[i].setAttribute('class','edge');
    }
  }
}
]]></script>
        <defs>
                <circle id="rim" cx="0" cy="0" r="7"/>
                <circle id="rim2" cx="0" cy="0" r="3.5"/>
                <g id="zoomPlus">
                        <use xlink:href="#rim" fill="#404040">
                                <set attributeName="fill" to="#808080" begin="zoomplus.mouseover" end="zoomplus.mouseout"/>
                        </use>
                        <path d="M-4,0h8M0,-4v8" fill="none" stroke="white" stroke-width="1.5" pointer-events="none"/>
                </g>
                <g id="zoomMin">
                        <use xlink:href="#rim" fill="#404040">
                                <set attributeName="fill" to="#808080" begin="zoomminus.mouseover" end="zoomminus.mouseout"/>
                        </use>
                        <path d="M-4,0h8" fill="none" stroke="white" stroke-width="1.5" pointer-events="none"/>
                </g>
                <g id="dirArrow">
                        <path fill="none" stroke="white" stroke-width="1.5" d="M0,-3.0v7 M-2.5,-0.5L0,-3.0L2.5,-0.5"/>
                </g>
               <g id="resetDef">
                       <use xlink:href="#rim2" fill="#404040">
                               <set attributeName="fill" to="#808080" begin="reset.mouseover" end="reset.mouseout"/>
                       </use>
               </g>
        </defs>

<script type="text/javascript">
var viewWidth = 956;
var viewHeight = 88;
var sectionId = 'dynsection-0';
</script>
<script xlink:href="svgpan.js"/>
<svg id="graph" class="graph">
<g id="viewport">
<title>utility.hpp</title>
<polygon fill="#ffffff" stroke="transparent" points="-4,4 -4,-84 951.5,-84 951.5,4 -4,4"/>
<!-- Node0 -->
<g id="node1" class="node">
<title>Node0</title>
<polygon fill="#bfbfbf" stroke="#000000" points="395,-58.5 395,-79.5 450,-79.5 450,-58.5 395,-58.5"/>
<text text-anchor="middle" x="422.5" y="-65.9" font-family="Helvetica,sans-Serif" font-size="12.00" fill="#000000">utility.hpp</text>
</g>
<!-- Node1 -->
<g id="node2" class="node">
<title>Node1</title>
<polygon fill="#ffffff" stroke="#bfbfbf" points="0,-.5 0,-21.5 51,-21.5 51,-.5 0,-.5"/>
<text text-anchor="middle" x="25.5" y="-7.9" font-family="Helvetica,sans-Serif" font-size="12.00" fill="#000000">iostream</text>
</g>
<!-- Node0&#45;&gt;Node1 -->
<g id="edge1" class="edge">
<title>Node0&#45;&gt;Node1</title>
<path fill="none" stroke="#191970" d="M394.9702,-67.0823C335.6352,-62.5983 191.2442,-49.802 61.4681,-21.8944"/>
<polygon fill="#191970" stroke="#191970" points="61.8738,-18.4004 51.3568,-19.6823 60.3778,-25.2387 61.8738,-18.4004"/>
</g>
<!-- Node2 -->
<g id="node3" class="node">
<title>Node2</title>
<polygon fill="#ffffff" stroke="#bfbfbf" points="69.5,-.5 69.5,-21.5 111.5,-21.5 111.5,-.5 69.5,-.5"/>
<text text-anchor="middle" x="90.5" y="-7.9" font-family="Helvetica,sans-Serif" font-size="12.00" fill="#000000">cstdlib</text>
</g>
<!-- Node0&#45;&gt;Node2 -->
<g id="edge2" class="edge">
<title>Node0&#45;&gt;Node2</title>
<path fill="none" stroke="#191970" d="M394.6471,-66.5176C342.5757,-61.4835 226.9334,-48.4475 121.485,-21.8672"/>
<polygon fill="#191970" stroke="#191970" points="122.1977,-18.4367 111.6413,-19.338 120.4557,-25.2165 122.1977,-18.4367"/>
</g>
<!-- Node3 -->
<g id="node4" class="node">
<title>Node3</title>
<polygon fill="#ffffff" stroke="#bfbfbf" points="130,-.5 130,-21.5 159,-21.5 159,-.5 130,-.5"/>
<text text-anchor="middle" x="144.5" y="-7.9" font-family="Helvetica,sans-Serif" font-size="12.00" fill="#000000">set</text>
</g>
<!-- Node0&#45;&gt;Node3 -->
<g id="edge3" class="edge">
<title>Node0&#45;&gt;Node3</title>
<path fill="none" stroke="#191970" d="M394.7405,-66.3085C348.9678,-61.3579 254.8951,-49.0205 168.9842,-21.9149"/>
<polygon fill="#191970" stroke="#191970" points="169.9517,-18.5494 159.3599,-18.8039 167.7986,-25.2101 169.9517,-18.5494"/>
</g>
<!-- Node4 -->
<g id="node5" class="node">
<title>Node4</title>
<polygon fill="#ffffff" stroke="#bfbfbf" points="177,-.5 177,-21.5 216,-21.5 216,-.5 177,-.5"/>
<text text-anchor="middle" x="196.5" y="-7.9" font-family="Helvetica,sans-Serif" font-size="12.00" fill="#000000">string</text>
</g>
<!-- Node0&#45;&gt;Node4 -->
<g id="edge4" class="edge">
<title>Node0&#45;&gt;Node4</title>
<path fill="none" stroke="#191970" d="M394.9453,-63.7424C358.1949,-56.4548 291.022,-42.1752 225.8572,-22.1577"/>
<polygon fill="#191970" stroke="#191970" points="226.8499,-18.801 216.2612,-19.1628 224.7643,-25.4832 226.8499,-18.801"/>
</g>
<!-- Node5 -->
<g id="node6" class="node">
<title>Node5</title>
<polygon fill="#ffffff" stroke="#bfbfbf" points="234,-.5 234,-21.5 283,-21.5 283,-.5 234,-.5"/>
<text text-anchor="middle" x="258.5" y="-7.9" font-family="Helvetica,sans-Serif" font-size="12.00" fill="#000000">sstream</text>
</g>
<!-- Node0&#45;&gt;Node5 -->
<g id="edge5" class="edge">
<title>Node0&#45;&gt;Node5</title>
<path fill="none" stroke="#191970" d="M394.6796,-59.1611C366.5997,-49.2304 323.1773,-33.8737 292.9404,-23.1801"/>
<polygon fill="#191970" stroke="#191970" points="293.8276,-19.7815 283.2328,-19.747 291.4936,-26.381 293.8276,-19.7815"/>
</g>
<!-- Node6 -->
<g id="node7" class="node">
<title>Node6</title>
<polygon fill="#ffffff" stroke="#bfbfbf" points="301.5,-.5 301.5,-21.5 349.5,-21.5 349.5,-.5 301.5,-.5"/>
<text text-anchor="middle" x="325.5" y="-7.9" font-family="Helvetica,sans-Serif" font-size="12.00" fill="#000000">iomanip</text>
</g>
<!-- Node0&#45;&gt;Node6 -->
<g id="edge6" class="edge">
<title>Node0&#45;&gt;Node6</title>
<path fill="none" stroke="#191970" d="M404.7087,-58.3619C389.9415,-49.532 368.7218,-36.844 351.9616,-26.8224"/>
<polygon fill="#191970" stroke="#191970" points="353.5574,-23.6987 343.1785,-21.5707 349.9651,-29.7066 353.5574,-23.6987"/>
</g>
<!-- Node7 -->
<g id="node8" class="node">
<title>Node7</title>
<polygon fill="#ffffff" stroke="#bfbfbf" points="368,-.5 368,-21.5 411,-21.5 411,-.5 368,-.5"/>
<text text-anchor="middle" x="389.5" y="-7.9" font-family="Helvetica,sans-Serif" font-size="12.00" fill="#000000">cstring</text>
</g>
<!-- Node0&#45;&gt;Node7 -->
<g id="edge7" class="edge">
<title>Node0&#45;&gt;Node7</title>
<path fill="none" stroke="#191970" d="M416.4473,-58.3619C412.0281,-50.5949 405.9104,-39.8426 400.6209,-30.5458"/>
<polygon fill="#191970" stroke="#191970" points="403.5017,-28.5315 395.5143,-21.5707 397.4176,-31.9932 403.5017,-28.5315"/>
</g>
<!-- Node8 -->
<g id="node9" class="node">
<title>Node8</title>
<polygon fill="#ffffff" stroke="#bfbfbf" points="429,-.5 429,-21.5 484,-21.5 484,-.5 429,-.5"/>
<text text-anchor="middle" x="456.5" y="-7.9" font-family="Helvetica,sans-Serif" font-size="12.00" fill="#000000">exception</text>
</g>
<!-- Node0&#45;&gt;Node8 -->
<g id="edge8" class="edge">
<title>Node0&#45;&gt;Node8</title>
<path fill="none" stroke="#191970" d="M428.7361,-58.3619C433.3371,-50.5131 439.7252,-39.6159 445.2139,-30.2527"/>
<polygon fill="#191970" stroke="#191970" points="448.2656,-31.9677 450.3034,-21.5707 442.2267,-28.4276 448.2656,-31.9677"/>
</g>
<!-- Node9 -->
<g id="node10" class="node">
<title>Node9</title>
<polygon fill="#ffffff" stroke="#bfbfbf" points="502,-.5 502,-21.5 557,-21.5 557,-.5 502,-.5"/>
<text text-anchor="middle" x="529.5" y="-7.9" font-family="Helvetica,sans-Serif" font-size="12.00" fill="#000000">stdexcept</text>
</g>
<!-- Node0&#45;&gt;Node9 -->
<g id="edge9" class="edge">
<title>Node0&#45;&gt;Node9</title>
<path fill="none" stroke="#191970" d="M442.1254,-58.3619C458.6413,-49.4094 482.4739,-36.4908 501.0778,-26.4064"/>
<polygon fill="#191970" stroke="#191970" points="502.8754,-29.4132 509.999,-21.5707 499.5395,-23.2592 502.8754,-29.4132"/>
</g>
<!-- Node10 -->
<g id="node11" class="node">
<title>Node10</title>
<polygon fill="#ffffff" stroke="#bfbfbf" points="575,-.5 575,-21.5 630,-21.5 630,-.5 575,-.5"/>
<text text-anchor="middle" x="602.5" y="-7.9" font-family="Helvetica,sans-Serif" font-size="12.00" fill="#000000">functional</text>
</g>
<!-- Node0&#45;&gt;Node10 -->
<g id="edge10" class="edge">
<title>Node0&#45;&gt;Node10</title>
<path fill="none" stroke="#191970" d="M450.2305,-60.0646C481.0169,-50.1446 530.8703,-34.0807 565.0935,-23.0532"/>
<polygon fill="#191970" stroke="#191970" points="566.2933,-26.3439 574.738,-19.9455 564.1464,-19.6812 566.2933,-26.3439"/>
</g>
<!-- Node11 -->
<g id="node12" class="node">
<title>Node11</title>
<polygon fill="#ffffff" stroke="#bfbfbf" points="648.5,-.5 648.5,-21.5 690.5,-21.5 690.5,-.5 648.5,-.5"/>
<text text-anchor="middle" x="669.5" y="-7.9" font-family="Helvetica,sans-Serif" font-size="12.00" fill="#000000">deque</text>
</g>
<!-- Node0&#45;&gt;Node11 -->
<g id="edge11" class="edge">
<title>Node0&#45;&gt;Node11</title>
<path fill="none" stroke="#191970" d="M450.2087,-64.2673C489.9757,-57.2029 565.6272,-42.7527 638.5175,-22.0109"/>
<polygon fill="#191970" stroke="#191970" points="639.6802,-25.3181 648.3152,-19.1791 637.7365,-18.5934 639.6802,-25.3181"/>
</g>
<!-- Node12 -->
<g id="node13" class="node">
<title>Node12</title>
<polygon fill="#ffffff" stroke="#bfbfbf" points="709,-.5 709,-21.5 750,-21.5 750,-.5 709,-.5"/>
<text text-anchor="middle" x="729.5" y="-7.9" font-family="Helvetica,sans-Serif" font-size="12.00" fill="#000000">cmath</text>
</g>
<!-- Node0&#45;&gt;Node12 -->
<g id="edge12" class="edge">
<title>Node0&#45;&gt;Node12</title>
<path fill="none" stroke="#191970" d="M450.3808,-65.9855C499.0612,-60.3569 602.7451,-46.7482 698.8081,-21.8008"/>
<polygon fill="#191970" stroke="#191970" points="699.9038,-25.1314 708.676,-19.1902 698.1134,-18.3642 699.9038,-25.1314"/>
</g>
<!-- Node13 -->
<g id="node14" class="node">
<title>Node13</title>
<polygon fill="#ffffff" stroke="#bfbfbf" points="768,-.5 768,-21.5 809,-21.5 809,-.5 768,-.5"/>
<text text-anchor="middle" x="788.5" y="-7.9" font-family="Helvetica,sans-Serif" font-size="12.00" fill="#000000">vector</text>
</g>
<!-- Node0&#45;&gt;Node13 -->
<g id="edge13" class="edge">
<title>Node0&#45;&gt;Node13</title>
<path fill="none" stroke="#191970" d="M450.4275,-67.2277C507.0813,-63.1837 639.5385,-51.4471 757.8303,-22.0239"/>
<polygon fill="#191970" stroke="#191970" points="758.9398,-25.3533 767.7712,-19.5002 757.2174,-18.5685 758.9398,-25.3533"/>
</g>
<!-- Node14 -->
<g id="node15" class="node">
<title>Node14</title>
<g id="a_node15"><a xlink:href="namespace_8hpp.html" target="_top" xlink:title="timemory/namespace.hpp">
<polygon fill="#ffffff" stroke="#000000" points="827.5,-.5 827.5,-21.5 947.5,-21.5 947.5,-.5 827.5,-.5"/>
<text text-anchor="middle" x="887.5" y="-7.9" font-family="Helvetica,sans-Serif" font-size="12.00" fill="#000000">timemory/namespace.hpp</text>
</a>
</g>
</g>
<!-- Node0&#45;&gt;Node14 -->
<g id="edge14" class="edge">
<title>Node0&#45;&gt;Node14</title>
<path fill="none" stroke="#191970" d="M450.3953,-66.0768C513.6984,-59.3605 673.2833,-41.9634 817.402,-22.1127"/>
<polygon fill="#191970" stroke="#191970" points="817.885,-25.5793 827.3104,-20.7405 816.9248,-18.6454 817.885,-25.5793"/>
</g>
</g>
</svg>
        <g id="navigator" transform="translate(0 0)" fill="#404254">
                <rect fill="#f2f5e9" fill-opacity="0.5" stroke="#606060" stroke-width=".5" x="0" y="0" width="60" height="60"/>
                <use id="zoomplus" xlink:href="#zoomPlus" x="17" y="9" onmousedown="handleZoom(evt,'in')"/>
                <use id="zoomminus" xlink:href="#zoomMin" x="42" y="9" onmousedown="handleZoom(evt,'out')"/>
                <use id="reset" xlink:href="#resetDef" x="30" y="36" onmousedown="handleReset()"/>
                <g id="arrowUp" xlink:href="#dirArrow" transform="translate(30 24)" onmousedown="handlePan(0,-1)">
                  <use xlink:href="#rim" fill="#404040">
                        <set attributeName="fill" to="#808080" begin="arrowUp.mouseover" end="arrowUp.mouseout"/>
                  </use>
                  <path fill="none" stroke="white" stroke-width="1.5" d="M0,-3.0v7 M-2.5,-0.5L0,-3.0L2.5,-0.5"/>
                </g>
                <g id="arrowRight" xlink:href="#dirArrow" transform="rotate(90) translate(36 -43)" onmousedown="handlePan(1,0)">
                  <use xlink:href="#rim" fill="#404040">
                        <set attributeName="fill" to="#808080" begin="arrowRight.mouseover" end="arrowRight.mouseout"/>
                  </use>
                  <path fill="none" stroke="white" stroke-width="1.5" d="M0,-3.0v7 M-2.5,-0.5L0,-3.0L2.5,-0.5"/>
                </g>
                <g id="arrowDown" xlink:href="#dirArrow" transform="rotate(180) translate(-30 -48)" onmousedown="handlePan(0,1)">
                  <use xlink:href="#rim" fill="#404040">
                        <set attributeName="fill" to="#808080" begin="arrowDown.mouseover" end="arrowDown.mouseout"/>
                  </use>
                  <path fill="none" stroke="white" stroke-width="1.5" d="M0,-3.0v7 M-2.5,-0.5L0,-3.0L2.5,-0.5"/>
                </g>
                <g id="arrowLeft" xlink:href="#dirArrow" transform="rotate(270) translate(-36 17)" onmousedown="handlePan(-1,0)">
                  <use xlink:href="#rim" fill="#404040">
                        <set attributeName="fill" to="#808080" begin="arrowLeft.mouseover" end="arrowLeft.mouseout"/>
                  </use>
                  <path fill="none" stroke="white" stroke-width="1.5" d="M0,-3.0v7 M-2.5,-0.5L0,-3.0L2.5,-0.5"/>
                </g>
        </g>
        <svg viewBox="0 0 15 15" width="100%" height="30px" preserveAspectRatio="xMaxYMin meet">
         <g id="arrow_out" transform="scale(0.3 0.3)">
          <a xlink:href="utility_8hpp__incl_org.svg" target="_base">
           <rect id="button" ry="5" rx="5" y="6" x="6" height="38" width="38"
                fill="#f2f5e9" fill-opacity="0.5" stroke="#606060" stroke-width="1.0"/>
           <path id="arrow"
             d="M 11.500037,31.436501 C 11.940474,20.09759 22.043105,11.32322 32.158766,21.979434 L 37.068811,17.246167 C 37.068811,17.246167 37.088388,32 37.088388,32 L 22.160133,31.978069 C 22.160133,31.978069 26.997745,27.140456 26.997745,27.140456 C 18.528582,18.264221 13.291696,25.230495 11.500037,31.436501 z"
             style="fill:#404040;"/>
          </a>
         </g>
        </svg>
</svg>
