<?xml version="1.0" encoding="UTF-8" standalone="no"?>
<!DOCTYPE svg PUBLIC "-//W3C//DTD SVG 1.1//EN"
 "http://www.w3.org/Graphics/SVG/1.1/DTD/svg11.dtd">
<!-- Generated by graphviz version 2.40.1 (20161225.0304)
 -->
<!-- Title: utility.hpp Pages: 1 -->
<svg width="396pt" height="204pt"
 viewBox="0.00 0.00 395.50 204.00" xmlns="http://www.w3.org/2000/svg" xmlns:xlink="http://www.w3.org/1999/xlink">
<g id="graph0" class="graph" transform="scale(1 1) rotate(0) translate(4 200)">
<title>utility.hpp</title>
<polygon fill="#ffffff" stroke="transparent" points="-4,4 -4,-200 391.5,-200 391.5,4 -4,4"/>
<!-- Node15 -->
<g id="node1" class="node">
<title>Node15</title>
<polygon fill="#bfbfbf" stroke="#000000" points="161,-174.5 161,-195.5 216,-195.5 216,-174.5 161,-174.5"/>
<text text-anchor="middle" x="188.5" y="-181.9" font-family="Helvetica,sans-Serif" font-size="12.00" fill="#000000">utility.hpp</text>
</g>
<!-- Node16 -->
<g id="node2" class="node">
<title>Node16</title>
<g id="a_node2"><a xlink:href="signal__detection_8hpp.html" target="_top" xlink:title="signal_detection.hpp">
<polygon fill="#ffffff" stroke="#000000" points="61,-116.5 61,-137.5 160,-137.5 160,-116.5 61,-116.5"/>
<text text-anchor="middle" x="110.5" y="-123.9" font-family="Helvetica,sans-Serif" font-size="12.00" fill="#000000">signal_detection.hpp</text>
</a>
</g>
</g>
<!-- Node15&#45;&gt;Node16 -->
<g id="edge1" class="edge">
<title>Node15&#45;&gt;Node16</title>
<path fill="none" stroke="#191970" d="M165.9858,-168.2587C152.6793,-158.3641 136.2348,-146.1361 124.7157,-137.5707"/>
<polygon fill="#191970" stroke="#191970" points="164.0805,-171.2035 174.1936,-174.3619 168.2574,-165.5862 164.0805,-171.2035"/>
</g>
<!-- Node19 -->
<g id="node5" class="node">
<title>Node19</title>
<g id="a_node5"><a xlink:href="auto__timer_8hpp.html" target="_top" xlink:title="auto_timer.hpp">
<polygon fill="#ffffff" stroke="#000000" points="156,-58.5 156,-79.5 233,-79.5 233,-58.5 156,-58.5"/>
<text text-anchor="middle" x="194.5" y="-65.9" font-family="Helvetica,sans-Serif" font-size="12.00" fill="#000000">auto_timer.hpp</text>
</a>
</g>
</g>
<!-- Node15&#45;&gt;Node19 -->
<g id="edge4" class="edge">
<title>Node15&#45;&gt;Node19</title>
<path fill="none" stroke="#191970" d="M189.5798,-164.1231C190.8639,-139.2984 192.9574,-98.8235 193.9476,-79.6792"/>
<polygon fill="#191970" stroke="#191970" points="186.075,-164.1274 189.0537,-174.2949 193.0657,-164.4891 186.075,-164.1274"/>
</g>
<!-- Node20 -->
<g id="node6" class="node">
<title>Node20</title>
<g id="a_node6"><a xlink:href="timing__manager_8hpp.html" target="_top" xlink:title="timing_manager.hpp">
<polygon fill="#ffffff" stroke="#000000" points="217,-116.5 217,-137.5 316,-137.5 316,-116.5 217,-116.5"/>
<text text-anchor="middle" x="266.5" y="-123.9" font-family="Helvetica,sans-Serif" font-size="12.00" fill="#000000">timing_manager.hpp</text>
</a>
</g>
</g>
<!-- Node15&#45;&gt;Node20 -->
<g id="edge6" class="edge">
<title>Node15&#45;&gt;Node20</title>
<path fill="none" stroke="#191970" d="M211.0142,-168.2587C224.3207,-158.3641 240.7652,-146.1361 252.2843,-137.5707"/>
<polygon fill="#191970" stroke="#191970" points="208.7426,-165.5862 202.8064,-174.3619 212.9195,-171.2035 208.7426,-165.5862"/>
</g>
<!-- Node17 -->
<g id="node3" class="node">
<title>Node17</title>
<g id="a_node3"><a xlink:href="signal__detection_8cpp.html" target="_top" xlink:title="signal_detection.cpp">
<polygon fill="#ffffff" stroke="#000000" points="0,-58.5 0,-79.5 99,-79.5 99,-58.5 0,-58.5"/>
<text text-anchor="middle" x="49.5" y="-65.9" font-family="Helvetica,sans-Serif" font-size="12.00" fill="#000000">signal_detection.cpp</text>
</a>
</g>
</g>
<!-- Node16&#45;&gt;Node17 -->
<g id="edge2" class="edge">
<title>Node16&#45;&gt;Node17</title>
<path fill="none" stroke="#191970" d="M91.9949,-109.405C81.7546,-99.6683 69.3685,-87.8914 60.6174,-79.5707"/>
<polygon fill="#191970" stroke="#191970" points="89.6529,-112.0077 99.3117,-116.3619 94.4763,-106.9348 89.6529,-112.0077"/>
</g>
<!-- Node18 -->
<g id="node4" class="node">
<title>Node18</title>
<g id="a_node4"><a xlink:href="timemory_8cc.html" target="_top" xlink:title="timemory.cc">
<polygon fill="#ffffff" stroke="#000000" points="162,-.5 162,-21.5 227,-21.5 227,-.5 162,-.5"/>
<text text-anchor="middle" x="194.5" y="-7.9" font-family="Helvetica,sans-Serif" font-size="12.00" fill="#000000">timemory.cc</text>
</a>
</g>
</g>
<!-- Node16&#45;&gt;Node18 -->
<g id="edge3" class="edge">
<title>Node16&#45;&gt;Node18</title>
<path fill="none" stroke="#191970" d="M119.0305,-106.699C125.5156,-92.4068 135.2263,-73.1923 146.5,-58 156.7862,-44.1384 171.222,-30.5956 181.5714,-21.6358"/>
<polygon fill="#191970" stroke="#191970" points="115.715,-105.5446 114.9023,-116.1082 122.1252,-108.3571 115.715,-105.5446"/>
</g>
<!-- Node19&#45;&gt;Node18 -->
<g id="edge5" class="edge">
<title>Node19&#45;&gt;Node18</title>
<path fill="none" stroke="#191970" d="M194.5,-48.1906C194.5,-39.1684 194.5,-28.9941 194.5,-21.5707"/>
<polygon fill="#191970" stroke="#191970" points="191.0001,-48.3619 194.5,-58.3619 198.0001,-48.3619 191.0001,-48.3619"/>
</g>
<!-- Node20&#45;&gt;Node18 -->
<g id="edge8" class="edge">
<title>Node20&#45;&gt;Node18</title>
<path fill="none" stroke="#191970" d="M261.5336,-106.1943C257.526,-91.9074 250.9813,-72.9067 241.5,-58 232.4581,-43.7841 218.4425,-30.4962 208.0674,-21.7015"/>
<polygon fill="#191970" stroke="#191970" points="258.1957,-107.2647 264.1104,-116.0549 264.9683,-105.4948 258.1957,-107.2647"/>
</g>
<!-- Node20&#45;&gt;Node19 -->
<g id="edge7" class="edge">
<title>Node20&#45;&gt;Node19</title>
<path fill="none" stroke="#191970" d="M245.3659,-109.9753C233.146,-100.1315 218.1539,-88.0545 207.6222,-79.5707"/>
<polygon fill="#191970" stroke="#191970" points="243.3109,-112.8142 253.2941,-116.3619 247.7022,-107.3629 243.3109,-112.8142"/>
</g>
<!-- Node21 -->
<g id="node7" class="node">
<title>Node21</title>
<g id="a_node7"><a xlink:href="timing__manager_8cpp.html" target="_top" xlink:title="timing_manager.cpp">
<polygon fill="#ffffff" stroke="#000000" points="289.5,-58.5 289.5,-79.5 387.5,-79.5 387.5,-58.5 289.5,-58.5"/>
<text text-anchor="middle" x="338.5" y="-65.9" font-family="Helvetica,sans-Serif" font-size="12.00" fill="#000000">timing_manager.cpp</text>
</a>
</g>
</g>
<!-- Node20&#45;&gt;Node21 -->
<g id="edge9" class="edge">
<title>Node20&#45;&gt;Node21</title>
<path fill="none" stroke="#191970" d="M287.6341,-109.9753C299.854,-100.1315 314.8461,-88.0545 325.3778,-79.5707"/>
<polygon fill="#191970" stroke="#191970" points="285.2978,-107.3629 279.7059,-116.3619 289.6891,-112.8142 285.2978,-107.3629"/>
</g>
</g>
</svg>
