<?xml version="1.0" encoding="UTF-8" standalone="no"?>
<!DOCTYPE svg PUBLIC "-//W3C//DTD SVG 1.1//EN"
 "http://www.w3.org/Graphics/SVG/1.1/DTD/svg11.dtd">
<!-- Generated by graphviz version 2.40.1 (20161225.0304)
 -->
<!-- Title: base_timer.cpp Pages: 1 -->
<svg width="2428pt" height="262pt"
 viewBox="0.00 0.00 2427.50 262.00" xmlns="http://www.w3.org/2000/svg" xmlns:xlink="http://www.w3.org/1999/xlink">
<g id="graph0" class="graph" transform="scale(1 1) rotate(0) translate(4 258)">
<title>base_timer.cpp</title>
<polygon fill="#ffffff" stroke="transparent" points="-4,4 -4,-258 2423.5,-258 2423.5,4 -4,4"/>
<!-- Node0 -->
<g id="node1" class="node">
<title>Node0</title>
<polygon fill="#bfbfbf" stroke="#000000" points="2111,-232.5 2111,-253.5 2189,-253.5 2189,-232.5 2111,-232.5"/>
<text text-anchor="middle" x="2150" y="-239.9" font-family="Helvetica,sans-Serif" font-size="12.00" fill="#000000">base_timer.cpp</text>
</g>
<!-- Node1 -->
<g id="node2" class="node">
<title>Node1</title>
<g id="a_node2"><a xlink:href="../../d6/d01/base__timer_8hpp.html" target="_top" xlink:title="timemory/base_timer.hpp">
<polygon fill="#ffffff" stroke="#000000" points="1150,-174.5 1150,-195.5 1268,-195.5 1268,-174.5 1150,-174.5"/>
<text text-anchor="middle" x="1209" y="-181.9" font-family="Helvetica,sans-Serif" font-size="12.00" fill="#000000">timemory/base_timer.hpp</text>
</a>
</g>
</g>
<!-- Node0&#45;&gt;Node1 -->
<g id="edge1" class="edge">
<title>Node0&#45;&gt;Node1</title>
<path fill="none" stroke="#191970" d="M2110.7644,-240.5817C1966.4457,-231.6863 1463.8497,-200.7081 1278.4184,-189.2787"/>
<polygon fill="#191970" stroke="#191970" points="1278.4424,-185.7736 1268.246,-188.6517 1278.0117,-192.7604 1278.4424,-185.7736"/>
</g>
<!-- Node27 -->
<g id="node28" class="node">
<title>Node27</title>
<polygon fill="#ffffff" stroke="#bfbfbf" points="1990,-.5 1990,-21.5 2044,-21.5 2044,-.5 1990,-.5"/>
<text text-anchor="middle" x="2017" y="-7.9" font-family="Helvetica,sans-Serif" font-size="12.00" fill="#000000">algorithm</text>
</g>
<!-- Node0&#45;&gt;Node27 -->
<g id="edge84" class="edge">
<title>Node0&#45;&gt;Node27</title>
<path fill="none" stroke="#191970" d="M2143.9397,-232.4286C2123.2545,-196.3461 2055.2275,-77.6826 2028.2075,-30.5499"/>
<polygon fill="#191970" stroke="#191970" points="2031.1059,-28.5683 2023.0959,-21.6335 2025.033,-32.0498 2031.1059,-28.5683"/>
</g>
<!-- Node41 -->
<g id="node42" class="node">
<title>Node41</title>
<polygon fill="#ffffff" stroke="#bfbfbf" points="2178,-174.5 2178,-195.5 2224,-195.5 2224,-174.5 2178,-174.5"/>
<text text-anchor="middle" x="2201" y="-181.9" font-family="Helvetica,sans-Serif" font-size="12.00" fill="#000000">cassert</text>
</g>
<!-- Node0&#45;&gt;Node41 -->
<g id="edge83" class="edge">
<title>Node0&#45;&gt;Node41</title>
<path fill="none" stroke="#191970" d="M2159.3542,-232.3619C2166.5433,-224.1861 2176.6409,-212.7025 2185.0927,-203.0907"/>
<polygon fill="#191970" stroke="#191970" points="2187.7301,-205.3916 2191.7051,-195.5707 2182.4733,-200.7692 2187.7301,-205.3916"/>
</g>
<!-- Node2 -->
<g id="node3" class="node">
<title>Node2</title>
<g id="a_node3"><a xlink:href="../../db/d19/namespace_8hpp.html" target="_top" xlink:title="timemory/namespace.hpp">
<polygon fill="#ffffff" stroke="#000000" points="1852,-.5 1852,-21.5 1972,-21.5 1972,-.5 1852,-.5"/>
<text text-anchor="middle" x="1912" y="-7.9" font-family="Helvetica,sans-Serif" font-size="12.00" fill="#000000">timemory/namespace.hpp</text>
</a>
</g>
</g>
<!-- Node1&#45;&gt;Node2 -->
<g id="edge2" class="edge">
<title>Node1&#45;&gt;Node2</title>
<path fill="none" stroke="#191970" d="M1268.1587,-184.3776C1414.9749,-182.3015 1792.8239,-173.5608 1913,-138 1968.9187,-121.4534 2048.7121,-106.9391 2017,-58 2006.9656,-42.5146 1990.4978,-32.0848 1973.5473,-25.0785"/>
<polygon fill="#191970" stroke="#191970" points="1974.7104,-21.7766 1964.1185,-21.528 1972.2435,-28.3276 1974.7104,-21.7766"/>
</g>
<!-- Node3 -->
<g id="node4" class="node">
<title>Node3</title>
<g id="a_node4"><a xlink:href="../../d8/d4e/base__clock_8hpp.html" target="_top" xlink:title="timemory/base_clock.hpp">
<polygon fill="#ffffff" stroke="#000000" points="764.5,-58.5 764.5,-79.5 883.5,-79.5 883.5,-58.5 764.5,-58.5"/>
<text text-anchor="middle" x="824" y="-65.9" font-family="Helvetica,sans-Serif" font-size="12.00" fill="#000000">timemory/base_clock.hpp</text>
</a>
</g>
</g>
<!-- Node1&#45;&gt;Node3 -->
<g id="edge3" class="edge">
<title>Node1&#45;&gt;Node3</title>
<path fill="none" stroke="#191970" d="M1149.9478,-178.9639C1098.0635,-172.4976 1021.0693,-160.0514 957,-138 917.5685,-124.4285 875.3664,-100.796 849.3268,-85.0254"/>
<polygon fill="#191970" stroke="#191970" points="850.8526,-81.8551 840.4997,-79.6041 847.1892,-87.82 850.8526,-81.8551"/>
</g>
<!-- Node18 -->
<g id="node19" class="node">
<title>Node18</title>
<polygon fill="#ffffff" stroke="#bfbfbf" points="430,-.5 430,-21.5 516,-21.5 516,-.5 430,-.5"/>
<text text-anchor="middle" x="473" y="-7.9" font-family="Helvetica,sans-Serif" font-size="12.00" fill="#000000">cereal/cereal.hpp</text>
</g>
<!-- Node1&#45;&gt;Node18 -->
<g id="edge77" class="edge">
<title>Node1&#45;&gt;Node18</title>
<path fill="none" stroke="#191970" d="M1149.8088,-178.2597C1088.037,-170.6713 988.5763,-156.8885 904,-138 757.9148,-105.3747 588.6793,-50.3062 513.0724,-24.7688"/>
<polygon fill="#191970" stroke="#191970" points="514.0598,-21.4079 503.4654,-21.5124 511.8125,-28.0374 514.0598,-21.4079"/>
</g>
<!-- Node19 -->
<g id="node20" class="node">
<title>Node19</title>
<polygon fill="#ffffff" stroke="#bfbfbf" points="798.5,-.5 798.5,-21.5 911.5,-21.5 911.5,-.5 798.5,-.5"/>
<text text-anchor="middle" x="855" y="-7.9" font-family="Helvetica,sans-Serif" font-size="12.00" fill="#000000">cereal/types/chrono.hpp</text>
</g>
<!-- Node1&#45;&gt;Node19 -->
<g id="edge80" class="edge">
<title>Node1&#45;&gt;Node19</title>
<path fill="none" stroke="#191970" d="M1184.2277,-174.3348C1162.8473,-165.0292 1131.2044,-151.016 1104,-138 1023.49,-99.48 930.1424,-50.7579 883.9576,-26.3744"/>
<polygon fill="#191970" stroke="#191970" points="885.316,-23.1336 874.8397,-21.5531 882.0438,-29.3217 885.316,-23.1336"/>
</g>
<!-- Node20 -->
<g id="node21" class="node">
<title>Node20</title>
<polygon fill="#ffffff" stroke="#bfbfbf" points="138,-.5 138,-21.5 248,-21.5 248,-.5 138,-.5"/>
<text text-anchor="middle" x="193" y="-7.9" font-family="Helvetica,sans-Serif" font-size="12.00" fill="#000000">cereal/types/deque.hpp</text>
</g>
<!-- Node1&#45;&gt;Node20 -->
<g id="edge81" class="edge">
<title>Node1&#45;&gt;Node20</title>
<path fill="none" stroke="#191970" d="M1149.73,-182.1745C1056.1899,-177.0922 868.8352,-164.3833 712,-138 604.6351,-119.9388 579.7552,-105.8703 474,-80 394.3657,-60.5195 302.0641,-37.8344 245.6104,-23.9477"/>
<polygon fill="#191970" stroke="#191970" points="246.3865,-20.5343 235.8399,-21.5441 244.7143,-27.3317 246.3865,-20.5343"/>
</g>
<!-- Node21 -->
<g id="node22" class="node">
<title>Node21</title>
<polygon fill="#ffffff" stroke="#bfbfbf" points="266.5,-.5 266.5,-21.5 355.5,-21.5 355.5,-.5 266.5,-.5"/>
<text text-anchor="middle" x="311" y="-7.9" font-family="Helvetica,sans-Serif" font-size="12.00" fill="#000000">cereal/access.hpp</text>
</g>
<!-- Node1&#45;&gt;Node21 -->
<g id="edge78" class="edge">
<title>Node1&#45;&gt;Node21</title>
<path fill="none" stroke="#191970" d="M1149.9033,-180.3289C1072.5273,-173.6707 932.8678,-159.7879 815,-138 643.2672,-106.2552 443.1321,-49.9209 355.6966,-24.3217"/>
<polygon fill="#191970" stroke="#191970" points="356.6788,-20.9624 346.0977,-21.5021 354.7058,-27.6786 356.6788,-20.9624"/>
</g>
<!-- Node22 -->
<g id="node23" class="node">
<title>Node22</title>
<g id="a_node23"><a xlink:href="../../d9/dd2/rss_8hpp.html" target="_top" xlink:title="timemory/rss.hpp">
<polygon fill="#ffffff" stroke="#000000" points="1088,-58.5 1088,-79.5 1174,-79.5 1174,-58.5 1088,-58.5"/>
<text text-anchor="middle" x="1131" y="-65.9" font-family="Helvetica,sans-Serif" font-size="12.00" fill="#000000">timemory/rss.hpp</text>
</a>
</g>
</g>
<!-- Node1&#45;&gt;Node22 -->
<g id="edge23" class="edge">
<title>Node1&#45;&gt;Node22</title>
<path fill="none" stroke="#191970" d="M1201.8018,-174.2949C1188.6257,-154.6998 1160.4651,-112.8198 1143.9045,-88.1913"/>
<polygon fill="#191970" stroke="#191970" points="1146.6653,-86.0246 1138.1808,-79.6792 1140.8564,-89.9307 1146.6653,-86.0246"/>
</g>
<!-- Node24 -->
<g id="node25" class="node">
<title>Node24</title>
<polygon fill="#ffffff" stroke="#bfbfbf" points="929.5,-.5 929.5,-21.5 976.5,-21.5 976.5,-.5 929.5,-.5"/>
<text text-anchor="middle" x="953" y="-7.9" font-family="Helvetica,sans-Serif" font-size="12.00" fill="#000000">fstream</text>
</g>
<!-- Node1&#45;&gt;Node24 -->
<g id="edge74" class="edge">
<title>Node1&#45;&gt;Node24</title>
<path fill="none" stroke="#191970" d="M1193.3714,-174.3774C1150.1681,-145.0127 1028.898,-62.5869 977.0265,-27.3305"/>
<polygon fill="#191970" stroke="#191970" points="978.9873,-24.4313 968.7493,-21.7046 975.0523,-30.2207 978.9873,-24.4313"/>
</g>
<!-- Node25 -->
<g id="node26" class="node">
<title>Node25</title>
<polygon fill="#ffffff" stroke="#bfbfbf" points="1609.5,-.5 1609.5,-21.5 1648.5,-21.5 1648.5,-.5 1609.5,-.5"/>
<text text-anchor="middle" x="1629" y="-7.9" font-family="Helvetica,sans-Serif" font-size="12.00" fill="#000000">string</text>
</g>
<!-- Node1&#45;&gt;Node25 -->
<g id="edge75" class="edge">
<title>Node1&#45;&gt;Node25</title>
<path fill="none" stroke="#191970" d="M1234.6406,-174.3774C1308.5957,-143.7389 1521.982,-55.336 1599.9939,-23.0168"/>
<polygon fill="#191970" stroke="#191970" points="1601.3402,-26.2476 1609.2391,-19.1867 1598.6609,-19.7806 1601.3402,-26.2476"/>
</g>
<!-- Node28 -->
<g id="node29" class="node">
<title>Node28</title>
<polygon fill="#ffffff" stroke="#bfbfbf" points="1163.5,-.5 1163.5,-21.5 1254.5,-21.5 1254.5,-.5 1163.5,-.5"/>
<text text-anchor="middle" x="1209" y="-7.9" font-family="Helvetica,sans-Serif" font-size="12.00" fill="#000000">cereal/macros.hpp</text>
</g>
<!-- Node1&#45;&gt;Node28 -->
<g id="edge79" class="edge">
<title>Node1&#45;&gt;Node28</title>
<path fill="none" stroke="#191970" d="M1209,-174.3774C1209,-146.293 1209,-69.6735 1209,-32.2027"/>
<polygon fill="#191970" stroke="#191970" points="1212.5001,-31.9277 1209,-21.9277 1205.5001,-31.9278 1212.5001,-31.9277"/>
</g>
<!-- Node29 -->
<g id="node30" class="node">
<title>Node29</title>
<polygon fill="#ffffff" stroke="#bfbfbf" points="1273,-.5 1273,-21.5 1383,-21.5 1383,-.5 1273,-.5"/>
<text text-anchor="middle" x="1328" y="-7.9" font-family="Helvetica,sans-Serif" font-size="12.00" fill="#000000">cereal/types/vector.hpp</text>
</g>
<!-- Node1&#45;&gt;Node29 -->
<g id="edge82" class="edge">
<title>Node1&#45;&gt;Node29</title>
<path fill="none" stroke="#191970" d="M1216.2648,-174.3774C1235.8032,-145.8088 1289.6895,-67.017 1314.8007,-30.2999"/>
<polygon fill="#191970" stroke="#191970" points="1317.7703,-32.1578 1320.5264,-21.9277 1311.9923,-28.2062 1317.7703,-32.1578"/>
</g>
<!-- Node30 -->
<g id="node31" class="node">
<title>Node30</title>
<g id="a_node31"><a xlink:href="../../d1/d4e/utility_8hpp.html" target="_top" xlink:title="timemory/utility.hpp">
<polygon fill="#ffffff" stroke="#000000" points="1914,-58.5 1914,-79.5 2008,-79.5 2008,-58.5 1914,-58.5"/>
<text text-anchor="middle" x="1961" y="-65.9" font-family="Helvetica,sans-Serif" font-size="12.00" fill="#000000">timemory/utility.hpp</text>
</a>
</g>
</g>
<!-- Node1&#45;&gt;Node30 -->
<g id="edge39" class="edge">
<title>Node1&#45;&gt;Node30</title>
<path fill="none" stroke="#191970" d="M1268.03,-183.0532C1421.8725,-177.6739 1827.0854,-161.4386 1883,-138 1908.9842,-127.1078 1932.2369,-103.9081 1946.455,-87.421"/>
<polygon fill="#191970" stroke="#191970" points="1949.3295,-89.4384 1953.0332,-79.512 1943.9477,-84.9621 1949.3295,-89.4384"/>
</g>
<!-- Node37 -->
<g id="node38" class="node">
<title>Node37</title>
<g id="a_node38"><a xlink:href="../../da/d8e/signal__detection_8hpp.html" target="_top" xlink:title="timemory/signal_detection.hpp">
<polygon fill="#ffffff" stroke="#000000" points="1734.5,-116.5 1734.5,-137.5 1873.5,-137.5 1873.5,-116.5 1734.5,-116.5"/>
<text text-anchor="middle" x="1804" y="-123.9" font-family="Helvetica,sans-Serif" font-size="12.00" fill="#000000">timemory/signal_detection.hpp</text>
</a>
</g>
</g>
<!-- Node1&#45;&gt;Node37 -->
<g id="edge54" class="edge">
<title>Node1&#45;&gt;Node37</title>
<path fill="none" stroke="#191970" d="M1268.2262,-179.2267C1375.7262,-168.7477 1603.0136,-146.592 1724.1131,-134.7873"/>
<polygon fill="#191970" stroke="#191970" points="1724.4563,-138.2705 1734.0695,-133.8168 1723.7771,-131.3035 1724.4563,-138.2705"/>
</g>
<!-- Node40 -->
<g id="node41" class="node">
<title>Node40</title>
<polygon fill="#ffffff" stroke="#bfbfbf" points="1478.5,-116.5 1478.5,-137.5 1521.5,-137.5 1521.5,-116.5 1478.5,-116.5"/>
<text text-anchor="middle" x="1500" y="-123.9" font-family="Helvetica,sans-Serif" font-size="12.00" fill="#000000">atomic</text>
</g>
<!-- Node1&#45;&gt;Node40 -->
<g id="edge76" class="edge">
<title>Node1&#45;&gt;Node40</title>
<path fill="none" stroke="#191970" d="M1268.1487,-176.0654C1320.0928,-167.7525 1397.5264,-154.2254 1464,-138 1465.4682,-137.6416 1466.9649,-137.2583 1468.4729,-136.8573"/>
<polygon fill="#191970" stroke="#191970" points="1469.7457,-140.1343 1478.4089,-134.0352 1467.8331,-133.4006 1469.7457,-140.1343"/>
</g>
<!-- Node3&#45;&gt;Node2 -->
<g id="edge22" class="edge">
<title>Node3&#45;&gt;Node2</title>
<path fill="none" stroke="#191970" d="M883.6855,-66.4323C1086.0023,-57.7054 1738.5178,-29.3617 1841.6955,-21.8442"/>
<polygon fill="#191970" stroke="#191970" points="1842.1673,-25.3171 1851.8413,-20.9971 1841.5848,-18.3413 1842.1673,-25.3171"/>
</g>
<!-- Node4 -->
<g id="node5" class="node">
<title>Node4</title>
<polygon fill="#ffffff" stroke="#bfbfbf" points="1467.5,-.5 1467.5,-21.5 1518.5,-21.5 1518.5,-.5 1467.5,-.5"/>
<text text-anchor="middle" x="1493" y="-7.9" font-family="Helvetica,sans-Serif" font-size="12.00" fill="#000000">iostream</text>
</g>
<!-- Node3&#45;&gt;Node4 -->
<g id="edge4" class="edge">
<title>Node3&#45;&gt;Node4</title>
<path fill="none" stroke="#191970" d="M883.6247,-66.3373C1015.8123,-60.1569 1331.0527,-43.8201 1457.0109,-21.7229"/>
<polygon fill="#191970" stroke="#191970" points="1457.9786,-25.1035 1467.1768,-19.8458 1456.7075,-18.2199 1457.9786,-25.1035"/>
</g>
<!-- Node5 -->
<g id="node6" class="node">
<title>Node5</title>
<polygon fill="#ffffff" stroke="#bfbfbf" points="1401,-.5 1401,-21.5 1449,-21.5 1449,-.5 1401,-.5"/>
<text text-anchor="middle" x="1425" y="-7.9" font-family="Helvetica,sans-Serif" font-size="12.00" fill="#000000">iomanip</text>
</g>
<!-- Node3&#45;&gt;Node5 -->
<g id="edge5" class="edge">
<title>Node3&#45;&gt;Node5</title>
<path fill="none" stroke="#191970" d="M883.9537,-65.8583C1005.6613,-59.1921 1278.9465,-42.6837 1390.6862,-21.8006"/>
<polygon fill="#191970" stroke="#191970" points="1391.5354,-25.2007 1400.6694,-19.8322 1390.1812,-18.3329 1391.5354,-25.2007"/>
</g>
<!-- Node6 -->
<g id="node7" class="node">
<title>Node6</title>
<polygon fill="#ffffff" stroke="#bfbfbf" points="1784.5,-.5 1784.5,-21.5 1833.5,-21.5 1833.5,-.5 1784.5,-.5"/>
<text text-anchor="middle" x="1809" y="-7.9" font-family="Helvetica,sans-Serif" font-size="12.00" fill="#000000">sstream</text>
</g>
<!-- Node3&#45;&gt;Node6 -->
<g id="edge6" class="edge">
<title>Node3&#45;&gt;Node6</title>
<path fill="none" stroke="#191970" d="M883.7836,-66.2672C1078.0663,-57.3598 1683.9054,-29.3675 1774.1172,-21.2166"/>
<polygon fill="#191970" stroke="#191970" points="1774.7974,-24.6611 1784.3253,-20.0276 1773.9875,-17.7082 1774.7974,-24.6611"/>
</g>
<!-- Node7 -->
<g id="node8" class="node">
<title>Node7</title>
<polygon fill="#ffffff" stroke="#bfbfbf" points="1536.5,-.5 1536.5,-21.5 1591.5,-21.5 1591.5,-.5 1536.5,-.5"/>
<text text-anchor="middle" x="1564" y="-7.9" font-family="Helvetica,sans-Serif" font-size="12.00" fill="#000000">stdexcept</text>
</g>
<!-- Node3&#45;&gt;Node7 -->
<g id="edge7" class="edge">
<title>Node3&#45;&gt;Node7</title>
<path fill="none" stroke="#191970" d="M883.5009,-65.8141C1035.4623,-57.5707 1431.9974,-35.3541 1526.0928,-21.8166"/>
<polygon fill="#191970" stroke="#191970" points="1526.9378,-25.2254 1536.2485,-20.1697 1525.8172,-18.3157 1526.9378,-25.2254"/>
</g>
<!-- Node8 -->
<g id="node9" class="node">
<title>Node8</title>
<polygon fill="#ffffff" stroke="#bfbfbf" points="1666.5,-.5 1666.5,-21.5 1707.5,-21.5 1707.5,-.5 1666.5,-.5"/>
<text text-anchor="middle" x="1687" y="-7.9" font-family="Helvetica,sans-Serif" font-size="12.00" fill="#000000">vector</text>
</g>
<!-- Node3&#45;&gt;Node8 -->
<g id="edge8" class="edge">
<title>Node3&#45;&gt;Node8</title>
<path fill="none" stroke="#191970" d="M883.814,-66.1311C1059.7596,-57.6289 1568.2991,-32.5818 1656.3306,-21.3057"/>
<polygon fill="#191970" stroke="#191970" points="1656.9965,-24.7439 1666.3212,-19.7139 1655.895,-17.8311 1656.9965,-24.7439"/>
</g>
<!-- Node9 -->
<g id="node10" class="node">
<title>Node9</title>
<polygon fill="#ffffff" stroke="#bfbfbf" points="534.5,-.5 534.5,-21.5 575.5,-21.5 575.5,-.5 534.5,-.5"/>
<text text-anchor="middle" x="555" y="-7.9" font-family="Helvetica,sans-Serif" font-size="12.00" fill="#000000">mutex</text>
</g>
<!-- Node3&#45;&gt;Node9 -->
<g id="edge9" class="edge">
<title>Node3&#45;&gt;Node9</title>
<path fill="none" stroke="#191970" d="M764.4609,-59.9668C718.0186,-52.3133 651.8295,-40.0776 585.3289,-21.754"/>
<polygon fill="#191970" stroke="#191970" points="586.0908,-18.3328 575.5174,-19.0062 584.2029,-25.0734 586.0908,-18.3328"/>
</g>
<!-- Node10 -->
<g id="node11" class="node">
<title>Node10</title>
<polygon fill="#ffffff" stroke="#bfbfbf" points="594,-.5 594,-21.5 674,-21.5 674,-.5 594,-.5"/>
<text text-anchor="middle" x="634" y="-7.9" font-family="Helvetica,sans-Serif" font-size="12.00" fill="#000000">unordered_map</text>
</g>
<!-- Node3&#45;&gt;Node10 -->
<g id="edge10" class="edge">
<title>Node3&#45;&gt;Node10</title>
<path fill="none" stroke="#191970" d="M789.5924,-58.4966C758.3491,-48.9592 712.0993,-34.8408 678.1424,-24.475"/>
<polygon fill="#191970" stroke="#191970" points="679.0583,-21.0953 668.4721,-21.5231 677.0145,-27.7903 679.0583,-21.0953"/>
</g>
<!-- Node11 -->
<g id="node12" class="node">
<title>Node11</title>
<polygon fill="#ffffff" stroke="#bfbfbf" points="1725.5,-.5 1725.5,-21.5 1766.5,-21.5 1766.5,-.5 1725.5,-.5"/>
<text text-anchor="middle" x="1746" y="-7.9" font-family="Helvetica,sans-Serif" font-size="12.00" fill="#000000">cmath</text>
</g>
<!-- Node3&#45;&gt;Node11 -->
<g id="edge11" class="edge">
<title>Node3&#45;&gt;Node11</title>
<path fill="none" stroke="#191970" d="M883.5827,-66.3713C1067.9826,-58.1725 1622.0985,-33.0358 1715.1827,-21.3181"/>
<polygon fill="#191970" stroke="#191970" points="1715.9883,-24.7345 1725.3232,-19.7236 1714.9009,-17.8195 1715.9883,-24.7345"/>
</g>
<!-- Node12 -->
<g id="node13" class="node">
<title>Node12</title>
<polygon fill="#ffffff" stroke="#bfbfbf" points="692,-.5 692,-21.5 728,-21.5 728,-.5 692,-.5"/>
<text text-anchor="middle" x="710" y="-7.9" font-family="Helvetica,sans-Serif" font-size="12.00" fill="#000000">tuple</text>
</g>
<!-- Node3&#45;&gt;Node12 -->
<g id="edge12" class="edge">
<title>Node3&#45;&gt;Node12</title>
<path fill="none" stroke="#191970" d="M803.3555,-58.4966C784.8548,-49.084 757.5845,-35.2097 737.2892,-24.884"/>
<polygon fill="#191970" stroke="#191970" points="738.734,-21.6921 728.2341,-20.277 735.5598,-27.9311 738.734,-21.6921"/>
</g>
<!-- Node13 -->
<g id="node14" class="node">
<title>Node13</title>
<polygon fill="#ffffff" stroke="#bfbfbf" points="746,-.5 746,-21.5 780,-21.5 780,-.5 746,-.5"/>
<text text-anchor="middle" x="763" y="-7.9" font-family="Helvetica,sans-Serif" font-size="12.00" fill="#000000">ratio</text>
</g>
<!-- Node3&#45;&gt;Node13 -->
<g id="edge13" class="edge">
<title>Node3&#45;&gt;Node13</title>
<path fill="none" stroke="#191970" d="M812.8117,-58.3619C804.041,-50.0226 791.6509,-38.2418 781.4222,-28.5162"/>
<polygon fill="#191970" stroke="#191970" points="783.7762,-25.9248 774.1174,-21.5707 778.9527,-30.9978 783.7762,-25.9248"/>
</g>
<!-- Node14 -->
<g id="node15" class="node">
<title>Node14</title>
<polygon fill="#ffffff" stroke="#bfbfbf" points="0,-.5 0,-21.5 44,-21.5 44,-.5 0,-.5"/>
<text text-anchor="middle" x="22" y="-7.9" font-family="Helvetica,sans-Serif" font-size="12.00" fill="#000000">chrono</text>
</g>
<!-- Node3&#45;&gt;Node14 -->
<g id="edge14" class="edge">
<title>Node3&#45;&gt;Node14</title>
<path fill="none" stroke="#191970" d="M764.4555,-67.5228C611.6585,-63.396 207.543,-50.2755 54.299,-21.6888"/>
<polygon fill="#191970" stroke="#191970" points="54.6262,-18.1863 44.1391,-19.6937 53.2773,-25.0551 54.6262,-18.1863"/>
</g>
<!-- Node15 -->
<g id="node16" class="node">
<title>Node15</title>
<polygon fill="#ffffff" stroke="#bfbfbf" points="374,-.5 374,-21.5 412,-21.5 412,-.5 374,-.5"/>
<text text-anchor="middle" x="393" y="-7.9" font-family="Helvetica,sans-Serif" font-size="12.00" fill="#000000">ctime</text>
</g>
<!-- Node3&#45;&gt;Node15 -->
<g id="edge15" class="edge">
<title>Node3&#45;&gt;Node15</title>
<path fill="none" stroke="#191970" d="M764.4096,-66.8495C687.0111,-63.0007 547.873,-52.4785 421.8845,-21.69"/>
<polygon fill="#191970" stroke="#191970" points="422.6155,-18.2652 412.0658,-19.2422 420.9222,-25.0573 422.6155,-18.2652"/>
</g>
<!-- Node16 -->
<g id="node17" class="node">
<title>Node16</title>
<polygon fill="#ffffff" stroke="#bfbfbf" points="1041.5,-.5 1041.5,-21.5 1084.5,-21.5 1084.5,-.5 1041.5,-.5"/>
<text text-anchor="middle" x="1063" y="-7.9" font-family="Helvetica,sans-Serif" font-size="12.00" fill="#000000">cstdint</text>
</g>
<!-- Node3&#45;&gt;Node16 -->
<g id="edge16" class="edge">
<title>Node3&#45;&gt;Node16</title>
<path fill="none" stroke="#191970" d="M879.9504,-58.4802C920.0151,-50.4785 975.3503,-38.475 1031.6958,-22.1479"/>
<polygon fill="#191970" stroke="#191970" points="1032.8754,-25.4493 1041.4822,-19.2708 1030.901,-18.7335 1032.8754,-25.4493"/>
</g>
<!-- Node17 -->
<g id="node18" class="node">
<title>Node17</title>
<polygon fill="#ffffff" stroke="#bfbfbf" points="62,-.5 62,-21.5 120,-21.5 120,-.5 62,-.5"/>
<text text-anchor="middle" x="91" y="-7.9" font-family="Helvetica,sans-Serif" font-size="12.00" fill="#000000">type_traits</text>
</g>
<!-- Node3&#45;&gt;Node17 -->
<g id="edge17" class="edge">
<title>Node3&#45;&gt;Node17</title>
<path fill="none" stroke="#191970" d="M764.3925,-66.6121C622.7737,-60.6805 268.2789,-44.2499 130.2603,-21.8509"/>
<polygon fill="#191970" stroke="#191970" points="130.7574,-18.3853 120.3119,-20.1581 129.5831,-25.2861 130.7574,-18.3853"/>
</g>
<!-- Node3&#45;&gt;Node18 -->
<g id="edge18" class="edge">
<title>Node3&#45;&gt;Node18</title>
<path fill="none" stroke="#191970" d="M764.2768,-60.5554C705.9946,-52.1011 614.5839,-38.2771 526.0395,-22.1247"/>
<polygon fill="#191970" stroke="#191970" points="526.5634,-18.6624 516.0956,-20.2985 525.2989,-25.5473 526.5634,-18.6624"/>
</g>
<!-- Node3&#45;&gt;Node19 -->
<g id="edge19" class="edge">
<title>Node3&#45;&gt;Node19</title>
<path fill="none" stroke="#191970" d="M829.6859,-58.3619C833.8372,-50.5949 839.5841,-39.8426 844.5531,-30.5458"/>
<polygon fill="#191970" stroke="#191970" points="847.7231,-32.0398 849.3502,-21.5707 841.5496,-28.7401 847.7231,-32.0398"/>
</g>
<!-- Node3&#45;&gt;Node20 -->
<g id="edge20" class="edge">
<title>Node3&#45;&gt;Node20</title>
<path fill="none" stroke="#191970" d="M764.2288,-65.7706C662.4209,-59.8917 448.6808,-45.909 258.0347,-22.0414"/>
<polygon fill="#191970" stroke="#191970" points="258.472,-18.5689 248.1121,-20.7874 257.5943,-25.5136 258.472,-18.5689"/>
</g>
<!-- Node3&#45;&gt;Node21 -->
<g id="edge21" class="edge">
<title>Node3&#45;&gt;Node21</title>
<path fill="none" stroke="#191970" d="M764.345,-64.7861C678.5252,-58.3053 515.0876,-44.4034 365.9823,-22.0223"/>
<polygon fill="#191970" stroke="#191970" points="366.1401,-18.5062 355.7281,-20.4661 365.0897,-25.427 366.1401,-18.5062"/>
</g>
<!-- Node22&#45;&gt;Node2 -->
<g id="edge38" class="edge">
<title>Node22&#45;&gt;Node2</title>
<path fill="none" stroke="#191970" d="M1174.0606,-67.5416C1283.7251,-63.5315 1582.6114,-50.749 1841.8535,-22.0417"/>
<polygon fill="#191970" stroke="#191970" points="1842.2844,-25.5154 1851.8338,-20.9264 1841.5069,-18.5587 1842.2844,-25.5154"/>
</g>
<!-- Node22&#45;&gt;Node4 -->
<g id="edge25" class="edge">
<title>Node22&#45;&gt;Node4</title>
<path fill="none" stroke="#191970" d="M1174.2565,-65.0338C1235.3294,-58.9428 1350.377,-45.6676 1457.1594,-21.8989"/>
<polygon fill="#191970" stroke="#191970" points="1458.1531,-25.2626 1467.1341,-19.642 1456.6083,-18.4352 1458.1531,-25.2626"/>
</g>
<!-- Node22&#45;&gt;Node5 -->
<g id="edge28" class="edge">
<title>Node22&#45;&gt;Node5</title>
<path fill="none" stroke="#191970" d="M1174.3591,-63.1402C1224.4454,-55.9424 1309.4192,-42.4146 1391.0343,-21.9804"/>
<polygon fill="#191970" stroke="#191970" points="1392.1393,-25.3108 1400.9682,-19.4541 1390.414,-18.5268 1392.1393,-25.3108"/>
</g>
<!-- Node22&#45;&gt;Node16 -->
<g id="edge30" class="edge">
<title>Node22&#45;&gt;Node16</title>
<path fill="none" stroke="#191970" d="M1118.5278,-58.3619C1108.6547,-49.9408 1094.6675,-38.0105 1083.2016,-28.2308"/>
<polygon fill="#191970" stroke="#191970" points="1085.2729,-25.3972 1075.3932,-21.5707 1080.7302,-30.7231 1085.2729,-25.3972"/>
</g>
<!-- Node22&#45;&gt;Node18 -->
<g id="edge32" class="edge">
<title>Node22&#45;&gt;Node18</title>
<path fill="none" stroke="#191970" d="M1087.8038,-67.5941C989.6669,-63.9828 742.3182,-52.53 526.0037,-21.9833"/>
<polygon fill="#191970" stroke="#191970" points="526.4471,-18.5111 516.0525,-20.5612 525.4568,-25.4407 526.4471,-18.5111"/>
</g>
<!-- Node22&#45;&gt;Node19 -->
<g id="edge35" class="edge">
<title>Node22&#45;&gt;Node19</title>
<path fill="none" stroke="#191970" d="M1087.875,-59.9375C1041.4423,-50.1799 967.235,-34.5856 915.0946,-23.6286"/>
<polygon fill="#191970" stroke="#191970" points="915.8078,-20.2021 905.3017,-21.5707 914.3682,-27.0525 915.8078,-20.2021"/>
</g>
<!-- Node22&#45;&gt;Node20 -->
<g id="edge36" class="edge">
<title>Node22&#45;&gt;Node20</title>
<path fill="none" stroke="#191970" d="M1087.8185,-66.9743C928.3148,-59.4525 375.9111,-33.0407 258.115,-21.9171"/>
<polygon fill="#191970" stroke="#191970" points="258.4049,-18.4286 248.0999,-20.8895 257.6904,-25.392 258.4049,-18.4286"/>
</g>
<!-- Node22&#45;&gt;Node21 -->
<g id="edge33" class="edge">
<title>Node22&#45;&gt;Node21</title>
<path fill="none" stroke="#191970" d="M1087.816,-67.1465C950.6911,-61.1385 525.322,-41.5284 365.8234,-21.9007"/>
<polygon fill="#191970" stroke="#191970" points="366.0709,-18.4039 355.7079,-20.6079 365.1835,-25.3475 366.0709,-18.4039"/>
</g>
<!-- Node23 -->
<g id="node24" class="node">
<title>Node23</title>
<polygon fill="#ffffff" stroke="#bfbfbf" points="994.5,-.5 994.5,-21.5 1023.5,-21.5 1023.5,-.5 994.5,-.5"/>
<text text-anchor="middle" x="1009" y="-7.9" font-family="Helvetica,sans-Serif" font-size="12.00" fill="#000000">ios</text>
</g>
<!-- Node22&#45;&gt;Node23 -->
<g id="edge24" class="edge">
<title>Node22&#45;&gt;Node23</title>
<path fill="none" stroke="#191970" d="M1108.9067,-58.4966C1087.47,-48.3054 1055.0312,-32.8837 1032.9771,-22.3989"/>
<polygon fill="#191970" stroke="#191970" points="1034.1857,-19.0982 1023.6516,-17.9655 1031.1802,-25.4201 1034.1857,-19.0982"/>
</g>
<!-- Node22&#45;&gt;Node24 -->
<g id="edge26" class="edge">
<title>Node22&#45;&gt;Node24</title>
<path fill="none" stroke="#191970" d="M1098.1496,-58.4377C1070.7542,-49.6103 1030.448,-36.5791 986.5117,-22.1518"/>
<polygon fill="#191970" stroke="#191970" points="987.3781,-18.7524 976.7852,-18.9546 985.1921,-25.4024 987.3781,-18.7524"/>
</g>
<!-- Node22&#45;&gt;Node25 -->
<g id="edge27" class="edge">
<title>Node22&#45;&gt;Node25</title>
<path fill="none" stroke="#191970" d="M1174.1683,-66.2043C1270.8801,-59.7038 1503.3683,-42.6993 1599.3927,-21.8009"/>
<polygon fill="#191970" stroke="#191970" points="1600.3789,-25.1653 1609.3326,-19.5013 1598.801,-18.3455 1600.3789,-25.1653"/>
</g>
<!-- Node26 -->
<g id="node27" class="node">
<title>Node26</title>
<polygon fill="#ffffff" stroke="#bfbfbf" points="1102.5,-.5 1102.5,-21.5 1145.5,-21.5 1145.5,-.5 1102.5,-.5"/>
<text text-anchor="middle" x="1124" y="-7.9" font-family="Helvetica,sans-Serif" font-size="12.00" fill="#000000">stdio.h</text>
</g>
<!-- Node22&#45;&gt;Node26 -->
<g id="edge29" class="edge">
<title>Node22&#45;&gt;Node26</title>
<path fill="none" stroke="#191970" d="M1129.7161,-58.3619C1128.8182,-50.9219 1127.5896,-40.7427 1126.5016,-31.7276"/>
<polygon fill="#191970" stroke="#191970" points="1129.9488,-31.0792 1125.2758,-21.5707 1122.9993,-31.918 1129.9488,-31.0792"/>
</g>
<!-- Node22&#45;&gt;Node27 -->
<g id="edge31" class="edge">
<title>Node22&#45;&gt;Node27</title>
<path fill="none" stroke="#191970" d="M1174.2139,-67.988C1321.5243,-64.3273 1804.1205,-50.5487 1979.5373,-21.8354"/>
<polygon fill="#191970" stroke="#191970" points="1980.3849,-25.2412 1989.6496,-20.1016 1979.2019,-18.3419 1980.3849,-25.2412"/>
</g>
<!-- Node22&#45;&gt;Node28 -->
<g id="edge34" class="edge">
<title>Node22&#45;&gt;Node28</title>
<path fill="none" stroke="#191970" d="M1145.3064,-58.3619C1156.8512,-49.7773 1173.3004,-37.5459 1186.5904,-27.6636"/>
<polygon fill="#191970" stroke="#191970" points="1188.8481,-30.3463 1194.7843,-21.5707 1184.6712,-24.7291 1188.8481,-30.3463"/>
</g>
<!-- Node22&#45;&gt;Node29 -->
<g id="edge37" class="edge">
<title>Node22&#45;&gt;Node29</title>
<path fill="none" stroke="#191970" d="M1166.6752,-58.4966C1199.0696,-48.9592 1247.0234,-34.8408 1282.2313,-24.475"/>
<polygon fill="#191970" stroke="#191970" points="1283.6535,-27.7049 1292.2579,-21.5231 1281.6765,-20.9899 1283.6535,-27.7049"/>
</g>
<!-- Node30&#45;&gt;Node2 -->
<g id="edge53" class="edge">
<title>Node30&#45;&gt;Node2</title>
<path fill="none" stroke="#191970" d="M1952.0126,-58.3619C1945.1745,-50.2678 1935.5976,-38.9318 1927.5276,-29.3796"/>
<polygon fill="#191970" stroke="#191970" points="1930.0575,-26.9508 1920.9304,-21.5707 1924.7103,-31.4683 1930.0575,-26.9508"/>
</g>
<!-- Node30&#45;&gt;Node4 -->
<g id="edge40" class="edge">
<title>Node30&#45;&gt;Node4</title>
<path fill="none" stroke="#191970" d="M1913.6732,-63.3617C1898.7444,-61.61 1882.1864,-59.6949 1867,-58 1719.6561,-41.5557 1678.1099,-52.3778 1528.8328,-21.8244"/>
<polygon fill="#191970" stroke="#191970" points="1529.3446,-18.3562 1518.8421,-19.7514 1527.9224,-25.2102 1529.3446,-18.3562"/>
</g>
<!-- Node30&#45;&gt;Node5 -->
<g id="edge45" class="edge">
<title>Node30&#45;&gt;Node5</title>
<path fill="none" stroke="#191970" d="M1913.6908,-63.1973C1898.7628,-61.4379 1882.2008,-59.5597 1867,-58 1689.1845,-39.7548 1639.1892,-57.5783 1459.396,-21.638"/>
<polygon fill="#191970" stroke="#191970" points="1459.8347,-18.1558 1449.3387,-19.5991 1458.4439,-25.0163 1459.8347,-18.1558"/>
</g>
<!-- Node30&#45;&gt;Node6 -->
<g id="edge44" class="edge">
<title>Node30&#45;&gt;Node6</title>
<path fill="none" stroke="#191970" d="M1933.4739,-58.4966C1908.1775,-48.8441 1870.5843,-34.4993 1843.3343,-24.1013"/>
<polygon fill="#191970" stroke="#191970" points="1844.3955,-20.7601 1833.8048,-20.465 1841.8999,-27.3001 1844.3955,-20.7601"/>
</g>
<!-- Node30&#45;&gt;Node7 -->
<g id="edge48" class="edge">
<title>Node30&#45;&gt;Node7</title>
<path fill="none" stroke="#191970" d="M1913.8434,-63.2688C1829.4073,-52.9487 1656.7861,-31.5681 1601.8653,-21.7371"/>
<polygon fill="#191970" stroke="#191970" points="1602.2429,-18.245 1591.7582,-19.7685 1600.9046,-25.1159 1602.2429,-18.245"/>
</g>
<!-- Node30&#45;&gt;Node8 -->
<g id="edge52" class="edge">
<title>Node30&#45;&gt;Node8</title>
<path fill="none" stroke="#191970" d="M1913.7032,-62.2066C1866.2906,-54.8825 1791.1423,-41.8786 1717.4314,-21.7687"/>
<polygon fill="#191970" stroke="#191970" points="1718.0861,-18.3182 1707.5144,-19.017 1716.2145,-25.0634 1718.0861,-18.3182"/>
</g>
<!-- Node30&#45;&gt;Node11 -->
<g id="edge51" class="edge">
<title>Node30&#45;&gt;Node11</title>
<path fill="none" stroke="#191970" d="M1913.8694,-58.4368C1878.4636,-50.1835 1828.6361,-37.8973 1776.3505,-21.8875"/>
<polygon fill="#191970" stroke="#191970" points="1777.1498,-18.4711 1766.5619,-18.8549 1775.0782,-25.1575 1777.1498,-18.4711"/>
</g>
<!-- Node30&#45;&gt;Node25 -->
<g id="edge43" class="edge">
<title>Node30&#45;&gt;Node25</title>
<path fill="none" stroke="#191970" d="M1913.8152,-62.9057C1845.1382,-53.8394 1720.0167,-36.5356 1658.7571,-21.6819"/>
<polygon fill="#191970" stroke="#191970" points="1659.3453,-18.2197 1648.7897,-19.1307 1657.6095,-25.0011 1659.3453,-18.2197"/>
</g>
<!-- Node31 -->
<g id="node32" class="node">
<title>Node31</title>
<polygon fill="#ffffff" stroke="#bfbfbf" points="2196,-.5 2196,-21.5 2238,-21.5 2238,-.5 2196,-.5"/>
<text text-anchor="middle" x="2217" y="-7.9" font-family="Helvetica,sans-Serif" font-size="12.00" fill="#000000">cstdlib</text>
</g>
<!-- Node30&#45;&gt;Node31 -->
<g id="edge41" class="edge">
<title>Node30&#45;&gt;Node31</title>
<path fill="none" stroke="#191970" d="M2008.234,-61.2565C2052.1383,-53.5956 2119.4395,-40.6753 2186.0081,-21.9987"/>
<polygon fill="#191970" stroke="#191970" points="2187.1641,-25.3087 2195.8215,-19.2013 2185.2451,-18.5768 2187.1641,-25.3087"/>
</g>
<!-- Node32 -->
<g id="node33" class="node">
<title>Node32</title>
<polygon fill="#ffffff" stroke="#bfbfbf" points="2256.5,-.5 2256.5,-21.5 2285.5,-21.5 2285.5,-.5 2256.5,-.5"/>
<text text-anchor="middle" x="2271" y="-7.9" font-family="Helvetica,sans-Serif" font-size="12.00" fill="#000000">set</text>
</g>
<!-- Node30&#45;&gt;Node32 -->
<g id="edge42" class="edge">
<title>Node30&#45;&gt;Node32</title>
<path fill="none" stroke="#191970" d="M2008.1908,-65.1327C2063.6004,-59.7417 2158.1255,-47.8877 2246.6149,-21.4474"/>
<polygon fill="#191970" stroke="#191970" points="2247.7216,-24.7691 2256.2616,-18.4987 2245.6753,-18.0749 2247.7216,-24.7691"/>
</g>
<!-- Node33 -->
<g id="node34" class="node">
<title>Node33</title>
<polygon fill="#ffffff" stroke="#bfbfbf" points="2303.5,-.5 2303.5,-21.5 2346.5,-21.5 2346.5,-.5 2303.5,-.5"/>
<text text-anchor="middle" x="2325" y="-7.9" font-family="Helvetica,sans-Serif" font-size="12.00" fill="#000000">cstring</text>
</g>
<!-- Node30&#45;&gt;Node33 -->
<g id="edge46" class="edge">
<title>Node30&#45;&gt;Node33</title>
<path fill="none" stroke="#191970" d="M2008.0677,-65.5352C2071.31,-60.1897 2187.1785,-47.9723 2293.3037,-22.0618"/>
<polygon fill="#191970" stroke="#191970" points="2294.3544,-25.4071 2303.2126,-19.5949 2292.6632,-18.6145 2294.3544,-25.4071"/>
</g>
<!-- Node34 -->
<g id="node35" class="node">
<title>Node34</title>
<polygon fill="#ffffff" stroke="#bfbfbf" points="2364.5,-.5 2364.5,-21.5 2419.5,-21.5 2419.5,-.5 2364.5,-.5"/>
<text text-anchor="middle" x="2392" y="-7.9" font-family="Helvetica,sans-Serif" font-size="12.00" fill="#000000">exception</text>
</g>
<!-- Node30&#45;&gt;Node34 -->
<g id="edge47" class="edge">
<title>Node30&#45;&gt;Node34</title>
<path fill="none" stroke="#191970" d="M2008.26,-66.1077C2080.9185,-61.0663 2224.4652,-48.7523 2354.1165,-22.1332"/>
<polygon fill="#191970" stroke="#191970" points="2355.1463,-25.4938 2364.2198,-20.0235 2353.7154,-18.6416 2355.1463,-25.4938"/>
</g>
<!-- Node35 -->
<g id="node36" class="node">
<title>Node35</title>
<polygon fill="#ffffff" stroke="#bfbfbf" points="2062.5,-.5 2062.5,-21.5 2117.5,-21.5 2117.5,-.5 2062.5,-.5"/>
<text text-anchor="middle" x="2090" y="-7.9" font-family="Helvetica,sans-Serif" font-size="12.00" fill="#000000">functional</text>
</g>
<!-- Node30&#45;&gt;Node35 -->
<g id="edge49" class="edge">
<title>Node30&#45;&gt;Node35</title>
<path fill="none" stroke="#191970" d="M1984.3609,-58.4966C2004.6906,-49.3562 2034.3784,-36.0082 2057.1089,-25.7883"/>
<polygon fill="#191970" stroke="#191970" points="2058.6917,-28.9142 2066.3769,-21.6212 2055.8211,-22.5298 2058.6917,-28.9142"/>
</g>
<!-- Node36 -->
<g id="node37" class="node">
<title>Node36</title>
<polygon fill="#ffffff" stroke="#bfbfbf" points="2136,-.5 2136,-21.5 2178,-21.5 2178,-.5 2136,-.5"/>
<text text-anchor="middle" x="2157" y="-7.9" font-family="Helvetica,sans-Serif" font-size="12.00" fill="#000000">deque</text>
</g>
<!-- Node30&#45;&gt;Node36 -->
<g id="edge50" class="edge">
<title>Node30&#45;&gt;Node36</title>
<path fill="none" stroke="#191970" d="M2001.509,-58.4484C2033.1685,-49.9966 2078.4506,-37.4603 2126.187,-22.1173"/>
<polygon fill="#191970" stroke="#191970" points="2127.3311,-25.4258 2135.7637,-19.0117 2125.1717,-18.7672 2127.3311,-25.4258"/>
</g>
<!-- Node37&#45;&gt;Node2 -->
<g id="edge69" class="edge">
<title>Node37&#45;&gt;Node2</title>
<path fill="none" stroke="#191970" d="M1821.346,-116.4695C1834.7899,-107.7693 1853.3634,-94.5247 1867,-80 1880.9982,-65.0901 1893.399,-45.3075 1901.6192,-30.7482"/>
<polygon fill="#191970" stroke="#191970" points="1904.8802,-32.0799 1906.6104,-21.6273 1898.7395,-28.7195 1904.8802,-32.0799"/>
</g>
<!-- Node37&#45;&gt;Node4 -->
<g id="edge55" class="edge">
<title>Node37&#45;&gt;Node4</title>
<path fill="none" stroke="#191970" d="M1734.3442,-121.363C1665.7144,-114.6691 1566.6776,-101.6017 1535,-80 1517.797,-68.2689 1506.4209,-46.935 1499.8994,-31.0835"/>
<polygon fill="#191970" stroke="#191970" points="1503.1255,-29.7199 1496.3025,-21.6145 1496.5817,-32.2057 1503.1255,-29.7199"/>
</g>
<!-- Node37&#45;&gt;Node5 -->
<g id="edge61" class="edge">
<title>Node37&#45;&gt;Node5</title>
<path fill="none" stroke="#191970" d="M1734.3138,-119.9772C1660.6732,-111.8239 1549.9089,-97.2641 1511,-80 1483.7838,-67.924 1457.8912,-45.0492 1441.7615,-28.9567"/>
<polygon fill="#191970" stroke="#191970" points="1444.1518,-26.3947 1434.6645,-21.6786 1439.1401,-31.2817 1444.1518,-26.3947"/>
</g>
<!-- Node37&#45;&gt;Node6 -->
<g id="edge60" class="edge">
<title>Node37&#45;&gt;Node6</title>
<path fill="none" stroke="#191970" d="M1803.6475,-116.2341C1803.2838,-102.6502 1802.9087,-78.5752 1804,-58 1804.4542,-49.437 1805.3707,-40.0333 1806.2965,-31.9021"/>
<polygon fill="#191970" stroke="#191970" points="1809.792,-32.1501 1807.522,-21.8013 1802.8429,-31.3069 1809.792,-32.1501"/>
</g>
<!-- Node37&#45;&gt;Node7 -->
<g id="edge64" class="edge">
<title>Node37&#45;&gt;Node7</title>
<path fill="none" stroke="#191970" d="M1734.4797,-124.1366C1666.1387,-119.6889 1568.7232,-108.4156 1545,-80 1533.2622,-65.9404 1541.3412,-45.1949 1550.3076,-30.1246"/>
<polygon fill="#191970" stroke="#191970" points="1553.3395,-31.8816 1555.8358,-21.585 1547.4633,-28.0775 1553.3395,-31.8816"/>
</g>
<!-- Node37&#45;&gt;Node8 -->
<g id="edge68" class="edge">
<title>Node37&#45;&gt;Node8</title>
<path fill="none" stroke="#191970" d="M1793.2026,-116.2949C1773.0903,-96.3545 1729.702,-53.337 1705.0599,-28.9056"/>
<polygon fill="#191970" stroke="#191970" points="1707.3369,-26.2344 1697.7713,-21.6792 1702.4084,-31.2054 1707.3369,-26.2344"/>
</g>
<!-- Node37&#45;&gt;Node11 -->
<g id="edge67" class="edge">
<title>Node37&#45;&gt;Node11</title>
<path fill="none" stroke="#191970" d="M1798.6475,-116.2949C1788.9362,-96.8724 1768.278,-55.5561 1755.9231,-30.8462"/>
<polygon fill="#191970" stroke="#191970" points="1758.9423,-29.0582 1751.3396,-21.6792 1752.6813,-32.1888 1758.9423,-29.0582"/>
</g>
<!-- Node37&#45;&gt;Node25 -->
<g id="edge59" class="edge">
<title>Node37&#45;&gt;Node25</title>
<path fill="none" stroke="#191970" d="M1787.4048,-116.4668C1772.5633,-107.0108 1750.2475,-92.7039 1731,-80 1704.1102,-62.2519 1673.5326,-41.4887 1652.9272,-27.4104"/>
<polygon fill="#191970" stroke="#191970" points="1654.7086,-24.3885 1644.4789,-21.631 1650.7563,-30.166 1654.7086,-24.3885"/>
</g>
<!-- Node37&#45;&gt;Node30 -->
<g id="edge70" class="edge">
<title>Node37&#45;&gt;Node30</title>
<path fill="none" stroke="#191970" d="M1832.4315,-116.4966C1857.8052,-107.1229 1895.1568,-93.3242 1923.0705,-83.0122"/>
<polygon fill="#191970" stroke="#191970" points="1924.3477,-86.2716 1932.5152,-79.5231 1921.9219,-79.7054 1924.3477,-86.2716"/>
</g>
<!-- Node37&#45;&gt;Node31 -->
<g id="edge56" class="edge">
<title>Node37&#45;&gt;Node31</title>
<path fill="none" stroke="#191970" d="M1873.718,-120.9267C1930.3671,-114.6235 2011.776,-102.4284 2080,-80 2120.7354,-66.6083 2164.4255,-42.7661 2191.2386,-26.9172"/>
<polygon fill="#191970" stroke="#191970" points="2193.2078,-29.8175 2199.9863,-21.6748 2189.6095,-23.8131 2193.2078,-29.8175"/>
</g>
<!-- Node37&#45;&gt;Node32 -->
<g id="edge58" class="edge">
<title>Node37&#45;&gt;Node32</title>
<path fill="none" stroke="#191970" d="M1873.7064,-122.1738C1938.3429,-116.398 2036.6637,-104.2819 2119,-80 2166.4503,-66.0064 2218.2045,-39.9951 2247.4247,-24.2152"/>
<polygon fill="#191970" stroke="#191970" points="2249.3382,-27.158 2256.4316,-19.2882 2245.9787,-21.0168 2249.3382,-27.158"/>
</g>
<!-- Node37&#45;&gt;Node33 -->
<g id="edge62" class="edge">
<title>Node37&#45;&gt;Node33</title>
<path fill="none" stroke="#191970" d="M1873.644,-123.2659C1946.1952,-118.1147 2062.6471,-106.2812 2160,-80 2209.171,-66.7259 2263.0715,-42.1341 2295.4532,-26.1779"/>
<polygon fill="#191970" stroke="#191970" points="2297.3958,-29.1202 2304.7828,-21.5253 2294.2719,-22.856 2297.3958,-29.1202"/>
</g>
<!-- Node37&#45;&gt;Node34 -->
<g id="edge63" class="edge">
<title>Node37&#45;&gt;Node34</title>
<path fill="none" stroke="#191970" d="M1873.5174,-123.7839C1953.9946,-118.9255 2090.082,-107.1976 2204,-80 2260.1883,-66.5852 2322.6342,-41.5179 2359.5461,-25.5747"/>
<polygon fill="#191970" stroke="#191970" points="2361.0413,-28.741 2368.8072,-21.534 2358.2419,-22.3251 2361.0413,-28.741"/>
</g>
<!-- Node37&#45;&gt;Node35 -->
<g id="edge65" class="edge">
<title>Node37&#45;&gt;Node35</title>
<path fill="none" stroke="#191970" d="M1873.9298,-121.1396C1917.161,-115.2553 1972.6622,-103.4904 2017,-80 2040.4038,-67.6005 2061.7315,-45.6281 2075.2092,-29.8054"/>
<polygon fill="#191970" stroke="#191970" points="2078.1918,-31.6898 2081.8526,-21.7475 2072.7907,-27.2369 2078.1918,-31.6898"/>
</g>
<!-- Node37&#45;&gt;Node36 -->
<g id="edge66" class="edge">
<title>Node37&#45;&gt;Node36</title>
<path fill="none" stroke="#191970" d="M1873.6265,-120.1352C1922.7842,-113.6912 1989.5095,-101.6747 2045,-80 2078.6546,-66.8544 2113.4863,-43.6052 2135.1875,-27.7603"/>
<polygon fill="#191970" stroke="#191970" points="2137.433,-30.4522 2143.3721,-21.6785 2133.2579,-24.8336 2137.433,-30.4522"/>
</g>
<!-- Node38 -->
<g id="node39" class="node">
<title>Node38</title>
<polygon fill="#ffffff" stroke="#bfbfbf" points="1812.5,-58.5 1812.5,-79.5 1857.5,-79.5 1857.5,-58.5 1812.5,-58.5"/>
<text text-anchor="middle" x="1835" y="-65.9" font-family="Helvetica,sans-Serif" font-size="12.00" fill="#000000">stdlib.h</text>
</g>
<!-- Node37&#45;&gt;Node38 -->
<g id="edge57" class="edge">
<title>Node37&#45;&gt;Node38</title>
<path fill="none" stroke="#191970" d="M1809.6859,-116.3619C1813.8372,-108.5949 1819.5841,-97.8426 1824.5531,-88.5458"/>
<polygon fill="#191970" stroke="#191970" points="1827.7231,-90.0398 1829.3502,-79.5707 1821.5496,-86.7401 1827.7231,-90.0398"/>
</g>
<!-- Node39 -->
<g id="node40" class="node">
<title>Node39</title>
<g id="a_node40"><a xlink:href="../../d0/d5d/mpi_8hpp.html" target="_top" xlink:title="timemory/mpi.hpp">
<polygon fill="#ffffff" stroke="#000000" points="1554,-58.5 1554,-79.5 1642,-79.5 1642,-58.5 1554,-58.5"/>
<text text-anchor="middle" x="1598" y="-65.9" font-family="Helvetica,sans-Serif" font-size="12.00" fill="#000000">timemory/mpi.hpp</text>
</a>
</g>
</g>
<!-- Node37&#45;&gt;Node39 -->
<g id="edge71" class="edge">
<title>Node37&#45;&gt;Node39</title>
<path fill="none" stroke="#191970" d="M1766.695,-116.4966C1732.6752,-106.9183 1682.2454,-92.7196 1645.3864,-82.3418"/>
<polygon fill="#191970" stroke="#191970" points="1645.9493,-78.8643 1635.375,-79.5231 1644.0522,-85.6023 1645.9493,-78.8643"/>
</g>
<!-- Node39&#45;&gt;Node16 -->
<g id="edge72" class="edge">
<title>Node39&#45;&gt;Node16</title>
<path fill="none" stroke="#191970" d="M1553.7303,-66.2847C1451.0565,-59.7669 1198.2189,-42.3954 1094.657,-21.5879"/>
<polygon fill="#191970" stroke="#191970" points="1095.3279,-18.1524 1084.8189,-19.4981 1093.8734,-24.9996 1095.3279,-18.1524"/>
</g>
<!-- Node39&#45;&gt;Node27 -->
<g id="edge73" class="edge">
<title>Node39&#45;&gt;Node27</title>
<path fill="none" stroke="#191970" d="M1642.0646,-66.1025C1711.9207,-60.964 1852.4028,-48.4127 1979.6916,-22.0001"/>
<polygon fill="#191970" stroke="#191970" points="1980.5495,-25.3963 1989.6117,-19.9075 1979.1046,-18.547 1980.5495,-25.3963"/>
</g>
</g>
</svg>
