<?xml version="1.0" encoding="UTF-8" standalone="no"?>
<!DOCTYPE svg PUBLIC "-//W3C//DTD SVG 1.1//EN"
 "http://www.w3.org/Graphics/SVG/1.1/DTD/svg11.dtd">
<!-- Generated by graphviz version 2.40.1 (20161225.0304)
 -->
<!-- Title: NAME_TIM::util::time_units&lt; std::deci &gt; Pages: 1 -->
<svg width="111pt" height="211pt"
 viewBox="0.00 0.00 111.00 211.00" xmlns="http://www.w3.org/2000/svg" xmlns:xlink="http://www.w3.org/1999/xlink">
<g id="graph0" class="graph" transform="scale(1 1) rotate(0) translate(4 207)">
<title>NAME_TIM::util::time_units&lt; std::deci &gt;</title>
<polygon fill="#ffffff" stroke="transparent" points="-4,4 -4,-207 107,-207 107,4 -4,4"/>
<!-- Node1 -->
<g id="node1" class="node">
<title>Node1</title>
<polygon fill="#bfbfbf" stroke="#000000" points=".5,-.5 .5,-76.5 102.5,-76.5 102.5,-.5 .5,-.5"/>
<text text-anchor="start" x="8.5" y="-62.9" font-family="Helvetica,sans-Serif" font-size="12.00" fill="#000000">NAME_TIM::util::time</text>
<text text-anchor="middle" x="51.5" y="-49.9" font-family="Helvetica,sans-Serif" font-size="12.00" fill="#000000">_units&lt; std::deci &gt;</text>
<polyline fill="none" stroke="#000000" points=".5,-42.5 102.5,-42.5 "/>
<text text-anchor="middle" x="51.5" y="-28.9" font-family="Helvetica,sans-Serif" font-size="12.00" fill="#000000"> </text>
<polyline fill="none" stroke="#000000" points=".5,-21.5 102.5,-21.5 "/>
<text text-anchor="middle" x="51.5" y="-7.9" font-family="Helvetica,sans-Serif" font-size="12.00" fill="#000000"> </text>
</g>
<!-- Node2 -->
<g id="node2" class="node">
<title>Node2</title>
<polygon fill="#ffffff" stroke="#bfbfbf" points="0,-126.5 0,-202.5 103,-202.5 103,-126.5 0,-126.5"/>
<text text-anchor="start" x="8" y="-188.9" font-family="Helvetica,sans-Serif" font-size="12.00" fill="#000000">static constexpr const</text>
<text text-anchor="middle" x="51.5" y="-175.9" font-family="Helvetica,sans-Serif" font-size="12.00" fill="#000000"> char *</text>
<polyline fill="none" stroke="#bfbfbf" points="0,-168.5 103,-168.5 "/>
<text text-anchor="middle" x="51.5" y="-154.9" font-family="Helvetica,sans-Serif" font-size="12.00" fill="#000000"> </text>
<polyline fill="none" stroke="#bfbfbf" points="0,-147.5 103,-147.5 "/>
<text text-anchor="middle" x="51.5" y="-133.9" font-family="Helvetica,sans-Serif" font-size="12.00" fill="#000000"> </text>
</g>
<!-- Node2&#45;&gt;Node1 -->
<g id="edge1" class="edge">
<title>Node2&#45;&gt;Node1</title>
<path fill="none" stroke="#404040" d="M51.5,-126.3539C51.5,-114.5113 51.5,-101.2733 51.5,-88.7388"/>
<polygon fill="none" stroke="#404040" points="51.5001,-88.5164 47.5,-82.5165 51.5,-76.5164 55.5,-82.5164 51.5001,-88.5164"/>
<text text-anchor="middle" x="60.5" y="-98.4" font-family="Helvetica,sans-Serif" font-size="12.00" fill="#000000"> +str</text>
</g>
</g>
</svg>
