<?xml version="1.0" encoding="UTF-8" standalone="no"?>
<!DOCTYPE svg PUBLIC "-//W3C//DTD SVG 1.1//EN"
 "http://www.w3.org/Graphics/SVG/1.1/DTD/svg11.dtd">
<!-- Generated by graphviz version 2.40.1 (20161225.0304)
 -->
<!-- Title: base_clock.cpp Pages: 1 -->
<!--zoomable 146 -->
<svg id="main" version="1.1" xmlns="http://www.w3.org/2000/svg" xmlns:xlink="http://www.w3.org/1999/xlink" xml:space="preserve" onload="init(evt)">
<style type="text/css"><![CDATA[
.edge:hover path { stroke: red; }
.edge:hover polygon { stroke: red; fill: red; }
]]></style>
<script type="text/javascript"><![CDATA[
var edges = document.getElementsByTagName('g');
if (edges && edges.length) {
  for (var i=0;i<edges.length;i++) {
    if (edges[i].id.substr(0,4)=='edge') {
      edges[i].setAttribute('class','edge');
    }
  }
}
]]></script>
        <defs>
                <circle id="rim" cx="0" cy="0" r="7"/>
                <circle id="rim2" cx="0" cy="0" r="3.5"/>
                <g id="zoomPlus">
                        <use xlink:href="#rim" fill="#404040">
                                <set attributeName="fill" to="#808080" begin="zoomplus.mouseover" end="zoomplus.mouseout"/>
                        </use>
                        <path d="M-4,0h8M0,-4v8" fill="none" stroke="white" stroke-width="1.5" pointer-events="none"/>
                </g>
                <g id="zoomMin">
                        <use xlink:href="#rim" fill="#404040">
                                <set attributeName="fill" to="#808080" begin="zoomminus.mouseover" end="zoomminus.mouseout"/>
                        </use>
                        <path d="M-4,0h8" fill="none" stroke="white" stroke-width="1.5" pointer-events="none"/>
                </g>
                <g id="dirArrow">
                        <path fill="none" stroke="white" stroke-width="1.5" d="M0,-3.0v7 M-2.5,-0.5L0,-3.0L2.5,-0.5"/>
                </g>
               <g id="resetDef">
                       <use xlink:href="#rim2" fill="#404040">
                               <set attributeName="fill" to="#808080" begin="reset.mouseover" end="reset.mouseout"/>
                       </use>
               </g>
        </defs>

<script type="text/javascript">
var viewWidth = 1515;
var viewHeight = 146;
var sectionId = 'dynsection-0';
</script>
<script xlink:href="../../svgpan.js"/>
<svg id="graph" class="graph">
<g id="viewport">
<title>base_clock.cpp</title>
<polygon fill="#ffffff" stroke="transparent" points="-4,4 -4,-142 1510.5,-142 1510.5,4 -4,4"/>
<!-- Node0 -->
<g id="node1" class="node">
<title>Node0</title>
<polygon fill="#bfbfbf" stroke="#000000" points="584,-116.5 584,-137.5 663,-137.5 663,-116.5 584,-116.5"/>
<text text-anchor="middle" x="623.5" y="-123.9" font-family="Helvetica,sans-Serif" font-size="12.00" fill="#000000">base_clock.cpp</text>
</g>
<!-- Node1 -->
<g id="node2" class="node">
<title>Node1</title>
<g id="a_node2"><a xlink:href="../../d8/d4e/base__clock_8hpp.html" target="_top" xlink:title="timemory/base_clock.hpp">
<polygon fill="#ffffff" stroke="#000000" points="564,-58.5 564,-79.5 683,-79.5 683,-58.5 564,-58.5"/>
<text text-anchor="middle" x="623.5" y="-65.9" font-family="Helvetica,sans-Serif" font-size="12.00" fill="#000000">timemory/base_clock.hpp</text>
</a>
</g>
</g>
<!-- Node0&#45;&gt;Node1 -->
<g id="edge1" class="edge">
<title>Node0&#45;&gt;Node1</title>
<path fill="none" stroke="#191970" d="M623.5,-116.3619C623.5,-108.9219 623.5,-98.7427 623.5,-89.7276"/>
<polygon fill="#191970" stroke="#191970" points="627.0001,-89.5706 623.5,-79.5707 620.0001,-89.5707 627.0001,-89.5706"/>
</g>
<!-- Node2 -->
<g id="node3" class="node">
<title>Node2</title>
<polygon fill="#ffffff" stroke="#bfbfbf" points="0,-.5 0,-21.5 51,-21.5 51,-.5 0,-.5"/>
<text text-anchor="middle" x="25.5" y="-7.9" font-family="Helvetica,sans-Serif" font-size="12.00" fill="#000000">iostream</text>
</g>
<!-- Node1&#45;&gt;Node2 -->
<g id="edge2" class="edge">
<title>Node1&#45;&gt;Node2</title>
<path fill="none" stroke="#191970" d="M563.627,-65.6825C442.8001,-58.7208 172.5605,-41.7335 61.2768,-21.7028"/>
<polygon fill="#191970" stroke="#191970" points="61.8053,-18.2408 51.3286,-19.8182 60.5023,-25.1184 61.8053,-18.2408"/>
</g>
<!-- Node3 -->
<g id="node4" class="node">
<title>Node3</title>
<polygon fill="#ffffff" stroke="#bfbfbf" points="69.5,-.5 69.5,-21.5 117.5,-21.5 117.5,-.5 69.5,-.5"/>
<text text-anchor="middle" x="93.5" y="-7.9" font-family="Helvetica,sans-Serif" font-size="12.00" fill="#000000">iomanip</text>
</g>
<!-- Node1&#45;&gt;Node3 -->
<g id="edge3" class="edge">
<title>Node1&#45;&gt;Node3</title>
<path fill="none" stroke="#191970" d="M563.9353,-67.7293C471.9226,-64.8132 289.7771,-55.2484 127.9729,-21.9238"/>
<polygon fill="#191970" stroke="#191970" points="128.3428,-18.4254 117.8375,-19.7992 126.9067,-25.2765 128.3428,-18.4254"/>
</g>
<!-- Node4 -->
<g id="node5" class="node">
<title>Node4</title>
<polygon fill="#ffffff" stroke="#bfbfbf" points="136,-.5 136,-21.5 185,-21.5 185,-.5 136,-.5"/>
<text text-anchor="middle" x="160.5" y="-7.9" font-family="Helvetica,sans-Serif" font-size="12.00" fill="#000000">sstream</text>
</g>
<!-- Node1&#45;&gt;Node4 -->
<g id="edge4" class="edge">
<title>Node1&#45;&gt;Node4</title>
<path fill="none" stroke="#191970" d="M563.7328,-66.4858C482.1251,-62.1689 331.3116,-51.0404 195.3835,-22.0725"/>
<polygon fill="#191970" stroke="#191970" points="195.7228,-18.5647 185.2079,-19.864 194.238,-25.4054 195.7228,-18.5647"/>
</g>
<!-- Node5 -->
<g id="node6" class="node">
<title>Node5</title>
<polygon fill="#ffffff" stroke="#bfbfbf" points="203,-.5 203,-21.5 258,-21.5 258,-.5 203,-.5"/>
<text text-anchor="middle" x="230.5" y="-7.9" font-family="Helvetica,sans-Serif" font-size="12.00" fill="#000000">stdexcept</text>
</g>
<!-- Node1&#45;&gt;Node5 -->
<g id="edge5" class="edge">
<title>Node1&#45;&gt;Node5</title>
<path fill="none" stroke="#191970" d="M563.9193,-64.1974C494.7085,-57.9415 377.0443,-45.2152 268.1242,-22.109"/>
<polygon fill="#191970" stroke="#191970" points="268.8008,-18.6746 258.2877,-19.9885 267.3255,-25.5173 268.8008,-18.6746"/>
</g>
<!-- Node6 -->
<g id="node7" class="node">
<title>Node6</title>
<polygon fill="#ffffff" stroke="#bfbfbf" points="276,-.5 276,-21.5 317,-21.5 317,-.5 276,-.5"/>
<text text-anchor="middle" x="296.5" y="-7.9" font-family="Helvetica,sans-Serif" font-size="12.00" fill="#000000">vector</text>
</g>
<!-- Node1&#45;&gt;Node6 -->
<g id="edge6" class="edge">
<title>Node1&#45;&gt;Node6</title>
<path fill="none" stroke="#191970" d="M563.9492,-63.2628C505.4471,-56.8089 413.6759,-44.5003 326.9688,-22.0249"/>
<polygon fill="#191970" stroke="#191970" points="327.8032,-18.6253 317.2409,-19.4541 326.0147,-25.393 327.8032,-18.6253"/>
</g>
<!-- Node7 -->
<g id="node8" class="node">
<title>Node7</title>
<polygon fill="#ffffff" stroke="#bfbfbf" points="335,-.5 335,-21.5 376,-21.5 376,-.5 335,-.5"/>
<text text-anchor="middle" x="355.5" y="-7.9" font-family="Helvetica,sans-Serif" font-size="12.00" fill="#000000">mutex</text>
</g>
<!-- Node1&#45;&gt;Node7 -->
<g id="edge7" class="edge">
<title>Node1&#45;&gt;Node7</title>
<path fill="none" stroke="#191970" d="M563.7189,-59.8616C517.4894,-52.1887 451.8249,-39.9745 385.7651,-21.7384"/>
<polygon fill="#191970" stroke="#191970" points="386.5917,-18.3352 376.018,-19.0039 384.7009,-25.075 386.5917,-18.3352"/>
</g>
<!-- Node8 -->
<g id="node9" class="node">
<title>Node8</title>
<polygon fill="#ffffff" stroke="#bfbfbf" points="394.5,-.5 394.5,-21.5 474.5,-21.5 474.5,-.5 394.5,-.5"/>
<text text-anchor="middle" x="434.5" y="-7.9" font-family="Helvetica,sans-Serif" font-size="12.00" fill="#000000">unordered_map</text>
</g>
<!-- Node1&#45;&gt;Node8 -->
<g id="edge8" class="edge">
<title>Node1&#45;&gt;Node8</title>
<path fill="none" stroke="#191970" d="M589.2735,-58.4966C558.1946,-48.9592 512.1882,-34.8408 478.4101,-24.475"/>
<polygon fill="#191970" stroke="#191970" points="479.3775,-21.1109 468.7907,-21.5231 477.3238,-27.8029 479.3775,-21.1109"/>
</g>
<!-- Node9 -->
<g id="node10" class="node">
<title>Node9</title>
<polygon fill="#ffffff" stroke="#bfbfbf" points="493,-.5 493,-21.5 534,-21.5 534,-.5 493,-.5"/>
<text text-anchor="middle" x="513.5" y="-7.9" font-family="Helvetica,sans-Serif" font-size="12.00" fill="#000000">cmath</text>
</g>
<!-- Node1&#45;&gt;Node9 -->
<g id="edge9" class="edge">
<title>Node1&#45;&gt;Node9</title>
<path fill="none" stroke="#191970" d="M603.5798,-58.4966C586.554,-49.5194 561.8308,-36.4835 542.5907,-26.3387"/>
<polygon fill="#191970" stroke="#191970" points="544.1218,-23.1894 533.6437,-21.6212 540.8569,-29.3814 544.1218,-23.1894"/>
</g>
<!-- Node10 -->
<g id="node11" class="node">
<title>Node10</title>
<polygon fill="#ffffff" stroke="#bfbfbf" points="552.5,-.5 552.5,-21.5 588.5,-21.5 588.5,-.5 552.5,-.5"/>
<text text-anchor="middle" x="570.5" y="-7.9" font-family="Helvetica,sans-Serif" font-size="12.00" fill="#000000">tuple</text>
</g>
<!-- Node1&#45;&gt;Node10 -->
<g id="edge10" class="edge">
<title>Node1&#45;&gt;Node10</title>
<path fill="none" stroke="#191970" d="M613.779,-58.3619C606.308,-50.1861 595.8143,-38.7025 587.0311,-29.0907"/>
<polygon fill="#191970" stroke="#191970" points="589.4889,-26.5918 580.1594,-21.5707 584.3214,-31.3138 589.4889,-26.5918"/>
</g>
<!-- Node11 -->
<g id="node12" class="node">
<title>Node11</title>
<polygon fill="#ffffff" stroke="#bfbfbf" points="606.5,-.5 606.5,-21.5 640.5,-21.5 640.5,-.5 606.5,-.5"/>
<text text-anchor="middle" x="623.5" y="-7.9" font-family="Helvetica,sans-Serif" font-size="12.00" fill="#000000">ratio</text>
</g>
<!-- Node1&#45;&gt;Node11 -->
<g id="edge11" class="edge">
<title>Node1&#45;&gt;Node11</title>
<path fill="none" stroke="#191970" d="M623.5,-58.3619C623.5,-50.9219 623.5,-40.7427 623.5,-31.7276"/>
<polygon fill="#191970" stroke="#191970" points="627.0001,-31.5706 623.5,-21.5707 620.0001,-31.5707 627.0001,-31.5706"/>
</g>
<!-- Node12 -->
<g id="node13" class="node">
<title>Node12</title>
<polygon fill="#ffffff" stroke="#bfbfbf" points="658.5,-.5 658.5,-21.5 702.5,-21.5 702.5,-.5 658.5,-.5"/>
<text text-anchor="middle" x="680.5" y="-7.9" font-family="Helvetica,sans-Serif" font-size="12.00" fill="#000000">chrono</text>
</g>
<!-- Node1&#45;&gt;Node12 -->
<g id="edge12" class="edge">
<title>Node1&#45;&gt;Node12</title>
<path fill="none" stroke="#191970" d="M633.9547,-58.3619C642.0699,-50.1043 653.5012,-38.4725 663.0041,-28.8029"/>
<polygon fill="#191970" stroke="#191970" points="665.5986,-31.1562 670.1116,-21.5707 660.6059,-26.2497 665.5986,-31.1562"/>
</g>
<!-- Node13 -->
<g id="node14" class="node">
<title>Node13</title>
<polygon fill="#ffffff" stroke="#bfbfbf" points="720.5,-.5 720.5,-21.5 758.5,-21.5 758.5,-.5 720.5,-.5"/>
<text text-anchor="middle" x="739.5" y="-7.9" font-family="Helvetica,sans-Serif" font-size="12.00" fill="#000000">ctime</text>
</g>
<!-- Node1&#45;&gt;Node13 -->
<g id="edge13" class="edge">
<title>Node1&#45;&gt;Node13</title>
<path fill="none" stroke="#191970" d="M644.5067,-58.4966C663.1065,-49.1968 690.4173,-35.5413 710.987,-25.2565"/>
<polygon fill="#191970" stroke="#191970" points="712.8123,-28.257 720.1913,-20.6543 709.6818,-21.996 712.8123,-28.257"/>
</g>
<!-- Node14 -->
<g id="node15" class="node">
<title>Node14</title>
<polygon fill="#ffffff" stroke="#bfbfbf" points="777,-.5 777,-21.5 820,-21.5 820,-.5 777,-.5"/>
<text text-anchor="middle" x="798.5" y="-7.9" font-family="Helvetica,sans-Serif" font-size="12.00" fill="#000000">cstdint</text>
</g>
<!-- Node1&#45;&gt;Node14 -->
<g id="edge14" class="edge">
<title>Node1&#45;&gt;Node14</title>
<path fill="none" stroke="#191970" d="M656.7526,-58.412C683.9917,-49.68 723.758,-36.7988 767.2208,-22.0414"/>
<polygon fill="#191970" stroke="#191970" points="768.5069,-25.3008 776.8443,-18.7635 766.2498,-18.6747 768.5069,-25.3008"/>
</g>
<!-- Node15 -->
<g id="node16" class="node">
<title>Node15</title>
<polygon fill="#ffffff" stroke="#bfbfbf" points="838.5,-.5 838.5,-21.5 896.5,-21.5 896.5,-.5 838.5,-.5"/>
<text text-anchor="middle" x="867.5" y="-7.9" font-family="Helvetica,sans-Serif" font-size="12.00" fill="#000000">type_traits</text>
</g>
<!-- Node1&#45;&gt;Node15 -->
<g id="edge15" class="edge">
<title>Node1&#45;&gt;Node15</title>
<path fill="none" stroke="#191970" d="M673.2258,-58.4937C712.8633,-49.929 769.9907,-37.1638 828.3349,-22.2121"/>
<polygon fill="#191970" stroke="#191970" points="829.2795,-25.5831 838.0875,-19.695 827.5301,-18.8052 829.2795,-25.5831"/>
</g>
<!-- Node16 -->
<g id="node17" class="node">
<title>Node16</title>
<polygon fill="#ffffff" stroke="#bfbfbf" points="914.5,-.5 914.5,-21.5 1000.5,-21.5 1000.5,-.5 914.5,-.5"/>
<text text-anchor="middle" x="957.5" y="-7.9" font-family="Helvetica,sans-Serif" font-size="12.00" fill="#000000">cereal/cereal.hpp</text>
</g>
<!-- Node1&#45;&gt;Node16 -->
<g id="edge16" class="edge">
<title>Node1&#45;&gt;Node16</title>
<path fill="none" stroke="#191970" d="M683.0489,-59.8428C737.9814,-51.2213 822.0481,-37.589 904.3701,-22.1582"/>
<polygon fill="#191970" stroke="#191970" points="905.2201,-25.5597 914.3986,-20.2677 903.9233,-18.6809 905.2201,-25.5597"/>
</g>
<!-- Node17 -->
<g id="node18" class="node">
<title>Node17</title>
<polygon fill="#ffffff" stroke="#bfbfbf" points="1019,-.5 1019,-21.5 1132,-21.5 1132,-.5 1019,-.5"/>
<text text-anchor="middle" x="1075.5" y="-7.9" font-family="Helvetica,sans-Serif" font-size="12.00" fill="#000000">cereal/types/chrono.hpp</text>
</g>
<!-- Node1&#45;&gt;Node17 -->
<g id="edge17" class="edge">
<title>Node1&#45;&gt;Node17</title>
<path fill="none" stroke="#191970" d="M683.121,-62.5638C756.9726,-54.4075 886.8896,-39.4599 1008.7435,-22.0579"/>
<polygon fill="#191970" stroke="#191970" points="1009.5991,-25.471 1018.9998,-20.5846 1008.6037,-18.5421 1009.5991,-25.471"/>
</g>
<!-- Node18 -->
<g id="node19" class="node">
<title>Node18</title>
<polygon fill="#ffffff" stroke="#bfbfbf" points="1150.5,-.5 1150.5,-21.5 1260.5,-21.5 1260.5,-.5 1150.5,-.5"/>
<text text-anchor="middle" x="1205.5" y="-7.9" font-family="Helvetica,sans-Serif" font-size="12.00" fill="#000000">cereal/types/deque.hpp</text>
</g>
<!-- Node1&#45;&gt;Node18 -->
<g id="edge18" class="edge">
<title>Node1&#45;&gt;Node18</title>
<path fill="none" stroke="#191970" d="M683.1008,-65.1436C777.8,-58.6747 968.6404,-44.2476 1140.4037,-22.0609"/>
<polygon fill="#191970" stroke="#191970" points="1140.9206,-25.5232 1150.3844,-20.76 1140.0159,-18.5819 1140.9206,-25.5232"/>
</g>
<!-- Node19 -->
<g id="node20" class="node">
<title>Node19</title>
<polygon fill="#ffffff" stroke="#bfbfbf" points="1279,-.5 1279,-21.5 1368,-21.5 1368,-.5 1279,-.5"/>
<text text-anchor="middle" x="1323.5" y="-7.9" font-family="Helvetica,sans-Serif" font-size="12.00" fill="#000000">cereal/access.hpp</text>
</g>
<!-- Node1&#45;&gt;Node19 -->
<g id="edge19" class="edge">
<title>Node1&#45;&gt;Node19</title>
<path fill="none" stroke="#191970" d="M683.4396,-67.2078C796.1145,-63.2795 1047.3034,-51.8706 1268.6048,-21.9607"/>
<polygon fill="#191970" stroke="#191970" points="1269.3531,-25.391 1278.7868,-20.5684 1268.4048,-18.4555 1269.3531,-25.391"/>
</g>
<!-- Node20 -->
<g id="node21" class="node">
<title>Node20</title>
<g id="a_node21"><a xlink:href="../../db/d19/namespace_8hpp.html" target="_top" xlink:title="timemory/namespace.hpp">
<polygon fill="#ffffff" stroke="#000000" points="1386.5,-.5 1386.5,-21.5 1506.5,-21.5 1506.5,-.5 1386.5,-.5"/>
<text text-anchor="middle" x="1446.5" y="-7.9" font-family="Helvetica,sans-Serif" font-size="12.00" fill="#000000">timemory/namespace.hpp</text>
</a>
</g>
</g>
<!-- Node1&#45;&gt;Node20 -->
<g id="edge20" class="edge">
<title>Node1&#45;&gt;Node20</title>
<path fill="none" stroke="#191970" d="M683.2915,-67.2205C809.4369,-63.0441 1112.2198,-50.7969 1376.1728,-22.0563"/>
<polygon fill="#191970" stroke="#191970" points="1376.7774,-25.511 1386.3352,-20.9394 1376.0127,-18.5529 1376.7774,-25.511"/>
</g>
</g>
</svg>
        <g id="navigator" transform="translate(0 0)" fill="#404254">
                <rect fill="#f2f5e9" fill-opacity="0.5" stroke="#606060" stroke-width=".5" x="0" y="0" width="60" height="60"/>
                <use id="zoomplus" xlink:href="#zoomPlus" x="17" y="9" onmousedown="handleZoom(evt,'in')"/>
                <use id="zoomminus" xlink:href="#zoomMin" x="42" y="9" onmousedown="handleZoom(evt,'out')"/>
                <use id="reset" xlink:href="#resetDef" x="30" y="36" onmousedown="handleReset()"/>
                <g id="arrowUp" xlink:href="#dirArrow" transform="translate(30 24)" onmousedown="handlePan(0,-1)">
                  <use xlink:href="#rim" fill="#404040">
                        <set attributeName="fill" to="#808080" begin="arrowUp.mouseover" end="arrowUp.mouseout"/>
                  </use>
                  <path fill="none" stroke="white" stroke-width="1.5" d="M0,-3.0v7 M-2.5,-0.5L0,-3.0L2.5,-0.5"/>
                </g>
                <g id="arrowRight" xlink:href="#dirArrow" transform="rotate(90) translate(36 -43)" onmousedown="handlePan(1,0)">
                  <use xlink:href="#rim" fill="#404040">
                        <set attributeName="fill" to="#808080" begin="arrowRight.mouseover" end="arrowRight.mouseout"/>
                  </use>
                  <path fill="none" stroke="white" stroke-width="1.5" d="M0,-3.0v7 M-2.5,-0.5L0,-3.0L2.5,-0.5"/>
                </g>
                <g id="arrowDown" xlink:href="#dirArrow" transform="rotate(180) translate(-30 -48)" onmousedown="handlePan(0,1)">
                  <use xlink:href="#rim" fill="#404040">
                        <set attributeName="fill" to="#808080" begin="arrowDown.mouseover" end="arrowDown.mouseout"/>
                  </use>
                  <path fill="none" stroke="white" stroke-width="1.5" d="M0,-3.0v7 M-2.5,-0.5L0,-3.0L2.5,-0.5"/>
                </g>
                <g id="arrowLeft" xlink:href="#dirArrow" transform="rotate(270) translate(-36 17)" onmousedown="handlePan(-1,0)">
                  <use xlink:href="#rim" fill="#404040">
                        <set attributeName="fill" to="#808080" begin="arrowLeft.mouseover" end="arrowLeft.mouseout"/>
                  </use>
                  <path fill="none" stroke="white" stroke-width="1.5" d="M0,-3.0v7 M-2.5,-0.5L0,-3.0L2.5,-0.5"/>
                </g>
        </g>
        <svg viewBox="0 0 15 15" width="100%" height="30px" preserveAspectRatio="xMaxYMin meet">
         <g id="arrow_out" transform="scale(0.3 0.3)">
          <a xlink:href="base__clock_8cpp__incl_org.svg" target="_base">
           <rect id="button" ry="5" rx="5" y="6" x="6" height="38" width="38"
                fill="#f2f5e9" fill-opacity="0.5" stroke="#606060" stroke-width="1.0"/>
           <path id="arrow"
             d="M 11.500037,31.436501 C 11.940474,20.09759 22.043105,11.32322 32.158766,21.979434 L 37.068811,17.246167 C 37.068811,17.246167 37.088388,32 37.088388,32 L 22.160133,31.978069 C 22.160133,31.978069 26.997745,27.140456 26.997745,27.140456 C 18.528582,18.264221 13.291696,25.230495 11.500037,31.436501 z"
             style="fill:#404040;"/>
          </a>
         </g>
        </svg>
</svg>
