<?xml version="1.0" encoding="UTF-8" standalone="no"?>
<!DOCTYPE svg PUBLIC "-//W3C//DTD SVG 1.1//EN"
 "http://www.w3.org/Graphics/SVG/1.1/DTD/svg11.dtd">
<!-- Generated by graphviz version 2.40.1 (20161225.0304)
 -->
<!-- Title: util.util.timer Pages: 1 -->
<svg width="115pt" height="389pt"
 viewBox="0.00 0.00 115.00 389.00" xmlns="http://www.w3.org/2000/svg" xmlns:xlink="http://www.w3.org/1999/xlink">
<g id="graph0" class="graph" transform="scale(1 1) rotate(0) translate(4 385)">
<title>util.util.timer</title>
<polygon fill="#ffffff" stroke="transparent" points="-4,4 -4,-385 111,-385 111,4 -4,4"/>
<!-- Node3 -->
<g id="node1" class="node">
<title>Node3</title>
<polygon fill="#bfbfbf" stroke="#000000" points="18,-.5 18,-115.5 89,-115.5 89,-.5 18,-.5"/>
<text text-anchor="middle" x="53.5" y="-101.9" font-family="Helvetica,sans-Serif" font-size="12.00" fill="#000000">util.util.timer</text>
<polyline fill="none" stroke="#000000" points="18,-94.5 89,-94.5 "/>
<text text-anchor="start" x="26" y="-80.9" font-family="Helvetica,sans-Serif" font-size="12.00" fill="#000000">+ key</text>
<text text-anchor="start" x="26" y="-67.9" font-family="Helvetica,sans-Serif" font-size="12.00" fill="#000000">&#45; _self_obj</text>
<polyline fill="none" stroke="#000000" points="18,-60.5 89,-60.5 "/>
<text text-anchor="start" x="26" y="-46.9" font-family="Helvetica,sans-Serif" font-size="12.00" fill="#000000">+ __init__()</text>
<text text-anchor="start" x="26" y="-33.9" font-family="Helvetica,sans-Serif" font-size="12.00" fill="#000000">+ __call__()</text>
<text text-anchor="start" x="26" y="-20.9" font-family="Helvetica,sans-Serif" font-size="12.00" fill="#000000">+ __enter__()</text>
<text text-anchor="start" x="26" y="-7.9" font-family="Helvetica,sans-Serif" font-size="12.00" fill="#000000">+ __exit__()</text>
</g>
<!-- Node4 -->
<g id="node2" class="node">
<title>Node4</title>
<g id="a_node2"><a xlink:href="../../db/df0/classutil_1_1util_1_1base__decorator.html" target="_top" xlink:title="{util.util.base_decorator\n|+ key\l+ add_args\l+ is_class\l|+ __init__()\l+ parse_wrapped()\l+ class_string()\l+ arg_string()\l}">
<polygon fill="#ffffff" stroke="#000000" points="0,-152.5 0,-280.5 107,-280.5 107,-152.5 0,-152.5"/>
<text text-anchor="middle" x="53.5" y="-266.9" font-family="Helvetica,sans-Serif" font-size="12.00" fill="#000000">util.util.base_decorator</text>
<polyline fill="none" stroke="#000000" points="0,-259.5 107,-259.5 "/>
<text text-anchor="start" x="8" y="-245.9" font-family="Helvetica,sans-Serif" font-size="12.00" fill="#000000">+ key</text>
<text text-anchor="start" x="8" y="-232.9" font-family="Helvetica,sans-Serif" font-size="12.00" fill="#000000">+ add_args</text>
<text text-anchor="start" x="8" y="-219.9" font-family="Helvetica,sans-Serif" font-size="12.00" fill="#000000">+ is_class</text>
<polyline fill="none" stroke="#000000" points="0,-212.5 107,-212.5 "/>
<text text-anchor="start" x="8" y="-198.9" font-family="Helvetica,sans-Serif" font-size="12.00" fill="#000000">+ __init__()</text>
<text text-anchor="start" x="8" y="-185.9" font-family="Helvetica,sans-Serif" font-size="12.00" fill="#000000">+ parse_wrapped()</text>
<text text-anchor="start" x="8" y="-172.9" font-family="Helvetica,sans-Serif" font-size="12.00" fill="#000000">+ class_string()</text>
<text text-anchor="start" x="8" y="-159.9" font-family="Helvetica,sans-Serif" font-size="12.00" fill="#000000">+ arg_string()</text>
</a>
</g>
</g>
<!-- Node4&#45;&gt;Node3 -->
<g id="edge1" class="edge">
<title>Node4&#45;&gt;Node3</title>
<path fill="none" stroke="#191970" d="M53.5,-142.3934C53.5,-133.3963 53.5,-124.3104 53.5,-115.6022"/>
<polygon fill="none" stroke="#191970" points="50.0001,-142.4888 53.5,-152.4889 57.0001,-142.4889 50.0001,-142.4888"/>
</g>
<!-- Node5 -->
<g id="node3" class="node">
<title>Node5</title>
<g id="a_node3"><a xlink:href="../../dc/dd8/classobject.html" target="_top" xlink:title="{object\n||}">
<polygon fill="#ffffff" stroke="#000000" points="33,-317.5 33,-380.5 74,-380.5 74,-317.5 33,-317.5"/>
<text text-anchor="middle" x="53.5" y="-366.9" font-family="Helvetica,sans-Serif" font-size="12.00" fill="#000000">object</text>
<polyline fill="none" stroke="#000000" points="33,-359.5 74,-359.5 "/>
<text text-anchor="middle" x="53.5" y="-345.9" font-family="Helvetica,sans-Serif" font-size="12.00" fill="#000000"> </text>
<polyline fill="none" stroke="#000000" points="33,-338.5 74,-338.5 "/>
<text text-anchor="middle" x="53.5" y="-324.9" font-family="Helvetica,sans-Serif" font-size="12.00" fill="#000000"> </text>
</a>
</g>
</g>
<!-- Node5&#45;&gt;Node4 -->
<g id="edge2" class="edge">
<title>Node5&#45;&gt;Node4</title>
<path fill="none" stroke="#191970" d="M53.5,-307.0252C53.5,-298.6506 53.5,-289.6754 53.5,-280.7487"/>
<polygon fill="none" stroke="#191970" points="50.0001,-307.2629 53.5,-317.2629 57.0001,-307.263 50.0001,-307.2629"/>
</g>
</g>
</svg>
